<?xml version="1.0" encoding="utf-8" standalone="no"?>
<!DOCTYPE svg PUBLIC "-//W3C//DTD SVG 1.1//EN"
  "http://www.w3.org/Graphics/SVG/1.1/DTD/svg11.dtd">
<!-- Created with matplotlib (https://matplotlib.org/) -->
<svg height="396pt" version="1.1" viewBox="0 0 576 396" width="576pt" xmlns="http://www.w3.org/2000/svg" xmlns:xlink="http://www.w3.org/1999/xlink">
 <defs>
  <style type="text/css">
*{stroke-linecap:butt;stroke-linejoin:round;}
  </style>
 </defs>
 <g id="figure_1">
  <g id="patch_1">
   <path d="M 0 396 
L 576 396 
L 576 0 
L 0 0 
z
" style="fill:#ffffff;"/>
  </g>
  <g id="axes_1">
   <g id="patch_2">
    <path d="M 43.88788 331.102246 
L 565.2 331.102246 
L 565.2 26.8 
L 43.88788 26.8 
z
" style="fill:#ffffff;"/>
   </g>
   <g id="matplotlib.axis_1">
    <g id="xtick_1">
     <g id="line2d_1">
      <defs>
       <path d="M 0 0 
L 0 3.5 
" id="m61cd05f130" style="stroke:#000000;"/>
      </defs>
      <g>
       <use style="stroke:#000000;" x="53.437017" xlink:href="#m61cd05f130" y="331.102246"/>
      </g>
     </g>
     <g id="text_1">
      <!-- 2020-01 -->
      <defs>
       <path d="M 19.1875 8.296875 
L 53.609375 8.296875 
L 53.609375 0 
L 7.328125 0 
L 7.328125 8.296875 
Q 12.9375 14.109375 22.625 23.890625 
Q 32.328125 33.6875 34.8125 36.53125 
Q 39.546875 41.84375 41.421875 45.53125 
Q 43.3125 49.21875 43.3125 52.78125 
Q 43.3125 58.59375 39.234375 62.25 
Q 35.15625 65.921875 28.609375 65.921875 
Q 23.96875 65.921875 18.8125 64.3125 
Q 13.671875 62.703125 7.8125 59.421875 
L 7.8125 69.390625 
Q 13.765625 71.78125 18.9375 73 
Q 24.125 74.21875 28.421875 74.21875 
Q 39.75 74.21875 46.484375 68.546875 
Q 53.21875 62.890625 53.21875 53.421875 
Q 53.21875 48.921875 51.53125 44.890625 
Q 49.859375 40.875 45.40625 35.40625 
Q 44.1875 33.984375 37.640625 27.21875 
Q 31.109375 20.453125 19.1875 8.296875 
z
" id="DejaVuSans-50"/>
       <path d="M 31.78125 66.40625 
Q 24.171875 66.40625 20.328125 58.90625 
Q 16.5 51.421875 16.5 36.375 
Q 16.5 21.390625 20.328125 13.890625 
Q 24.171875 6.390625 31.78125 6.390625 
Q 39.453125 6.390625 43.28125 13.890625 
Q 47.125 21.390625 47.125 36.375 
Q 47.125 51.421875 43.28125 58.90625 
Q 39.453125 66.40625 31.78125 66.40625 
z
M 31.78125 74.21875 
Q 44.046875 74.21875 50.515625 64.515625 
Q 56.984375 54.828125 56.984375 36.375 
Q 56.984375 17.96875 50.515625 8.265625 
Q 44.046875 -1.421875 31.78125 -1.421875 
Q 19.53125 -1.421875 13.0625 8.265625 
Q 6.59375 17.96875 6.59375 36.375 
Q 6.59375 54.828125 13.0625 64.515625 
Q 19.53125 74.21875 31.78125 74.21875 
z
" id="DejaVuSans-48"/>
       <path d="M 4.890625 31.390625 
L 31.203125 31.390625 
L 31.203125 23.390625 
L 4.890625 23.390625 
z
" id="DejaVuSans-45"/>
       <path d="M 12.40625 8.296875 
L 28.515625 8.296875 
L 28.515625 63.921875 
L 10.984375 60.40625 
L 10.984375 69.390625 
L 28.421875 72.90625 
L 38.28125 72.90625 
L 38.28125 8.296875 
L 54.390625 8.296875 
L 54.390625 0 
L 12.40625 0 
z
" id="DejaVuSans-49"/>
      </defs>
      <g transform="translate(16.212196 369.074092)rotate(-30)scale(0.1 -0.1)">
       <use xlink:href="#DejaVuSans-50"/>
       <use x="63.623047" xlink:href="#DejaVuSans-48"/>
       <use x="127.246094" xlink:href="#DejaVuSans-50"/>
       <use x="190.869141" xlink:href="#DejaVuSans-48"/>
       <use x="254.492188" xlink:href="#DejaVuSans-45"/>
       <use x="290.576172" xlink:href="#DejaVuSans-48"/>
       <use x="354.199219" xlink:href="#DejaVuSans-49"/>
      </g>
     </g>
    </g>
    <g id="xtick_2">
     <g id="line2d_2">
      <g>
       <use style="stroke:#000000;" x="108.256134" xlink:href="#m61cd05f130" y="331.102246"/>
      </g>
     </g>
     <g id="text_2">
      <!-- 2020-02 -->
      <g transform="translate(71.031313 369.074092)rotate(-30)scale(0.1 -0.1)">
       <use xlink:href="#DejaVuSans-50"/>
       <use x="63.623047" xlink:href="#DejaVuSans-48"/>
       <use x="127.246094" xlink:href="#DejaVuSans-50"/>
       <use x="190.869141" xlink:href="#DejaVuSans-48"/>
       <use x="254.492188" xlink:href="#DejaVuSans-45"/>
       <use x="290.576172" xlink:href="#DejaVuSans-48"/>
       <use x="354.199219" xlink:href="#DejaVuSans-50"/>
      </g>
     </g>
    </g>
    <g id="xtick_3">
     <g id="line2d_3">
      <g>
       <use style="stroke:#000000;" x="159.538534" xlink:href="#m61cd05f130" y="331.102246"/>
      </g>
     </g>
     <g id="text_3">
      <!-- 2020-03 -->
      <defs>
       <path d="M 40.578125 39.3125 
Q 47.65625 37.796875 51.625 33 
Q 55.609375 28.21875 55.609375 21.1875 
Q 55.609375 10.40625 48.1875 4.484375 
Q 40.765625 -1.421875 27.09375 -1.421875 
Q 22.515625 -1.421875 17.65625 -0.515625 
Q 12.796875 0.390625 7.625 2.203125 
L 7.625 11.71875 
Q 11.71875 9.328125 16.59375 8.109375 
Q 21.484375 6.890625 26.8125 6.890625 
Q 36.078125 6.890625 40.9375 10.546875 
Q 45.796875 14.203125 45.796875 21.1875 
Q 45.796875 27.640625 41.28125 31.265625 
Q 36.765625 34.90625 28.71875 34.90625 
L 20.21875 34.90625 
L 20.21875 43.015625 
L 29.109375 43.015625 
Q 36.375 43.015625 40.234375 45.921875 
Q 44.09375 48.828125 44.09375 54.296875 
Q 44.09375 59.90625 40.109375 62.90625 
Q 36.140625 65.921875 28.71875 65.921875 
Q 24.65625 65.921875 20.015625 65.03125 
Q 15.375 64.15625 9.8125 62.3125 
L 9.8125 71.09375 
Q 15.4375 72.65625 20.34375 73.4375 
Q 25.25 74.21875 29.59375 74.21875 
Q 40.828125 74.21875 47.359375 69.109375 
Q 53.90625 64.015625 53.90625 55.328125 
Q 53.90625 49.265625 50.4375 45.09375 
Q 46.96875 40.921875 40.578125 39.3125 
z
" id="DejaVuSans-51"/>
      </defs>
      <g transform="translate(122.313713 369.074092)rotate(-30)scale(0.1 -0.1)">
       <use xlink:href="#DejaVuSans-50"/>
       <use x="63.623047" xlink:href="#DejaVuSans-48"/>
       <use x="127.246094" xlink:href="#DejaVuSans-50"/>
       <use x="190.869141" xlink:href="#DejaVuSans-48"/>
       <use x="254.492188" xlink:href="#DejaVuSans-45"/>
       <use x="290.576172" xlink:href="#DejaVuSans-48"/>
       <use x="354.199219" xlink:href="#DejaVuSans-51"/>
      </g>
     </g>
    </g>
    <g id="xtick_4">
     <g id="line2d_4">
      <g>
       <use style="stroke:#000000;" x="214.357651" xlink:href="#m61cd05f130" y="331.102246"/>
      </g>
     </g>
     <g id="text_4">
      <!-- 2020-04 -->
      <defs>
       <path d="M 37.796875 64.3125 
L 12.890625 25.390625 
L 37.796875 25.390625 
z
M 35.203125 72.90625 
L 47.609375 72.90625 
L 47.609375 25.390625 
L 58.015625 25.390625 
L 58.015625 17.1875 
L 47.609375 17.1875 
L 47.609375 0 
L 37.796875 0 
L 37.796875 17.1875 
L 4.890625 17.1875 
L 4.890625 26.703125 
z
" id="DejaVuSans-52"/>
      </defs>
      <g transform="translate(177.13283 369.074092)rotate(-30)scale(0.1 -0.1)">
       <use xlink:href="#DejaVuSans-50"/>
       <use x="63.623047" xlink:href="#DejaVuSans-48"/>
       <use x="127.246094" xlink:href="#DejaVuSans-50"/>
       <use x="190.869141" xlink:href="#DejaVuSans-48"/>
       <use x="254.492188" xlink:href="#DejaVuSans-45"/>
       <use x="290.576172" xlink:href="#DejaVuSans-48"/>
       <use x="354.199219" xlink:href="#DejaVuSans-52"/>
      </g>
     </g>
    </g>
    <g id="xtick_5">
     <g id="line2d_5">
      <g>
       <use style="stroke:#000000;" x="267.408409" xlink:href="#m61cd05f130" y="331.102246"/>
      </g>
     </g>
     <g id="text_5">
      <!-- 2020-05 -->
      <defs>
       <path d="M 10.796875 72.90625 
L 49.515625 72.90625 
L 49.515625 64.59375 
L 19.828125 64.59375 
L 19.828125 46.734375 
Q 21.96875 47.46875 24.109375 47.828125 
Q 26.265625 48.1875 28.421875 48.1875 
Q 40.625 48.1875 47.75 41.5 
Q 54.890625 34.8125 54.890625 23.390625 
Q 54.890625 11.625 47.5625 5.09375 
Q 40.234375 -1.421875 26.90625 -1.421875 
Q 22.3125 -1.421875 17.546875 -0.640625 
Q 12.796875 0.140625 7.71875 1.703125 
L 7.71875 11.625 
Q 12.109375 9.234375 16.796875 8.0625 
Q 21.484375 6.890625 26.703125 6.890625 
Q 35.15625 6.890625 40.078125 11.328125 
Q 45.015625 15.765625 45.015625 23.390625 
Q 45.015625 31 40.078125 35.4375 
Q 35.15625 39.890625 26.703125 39.890625 
Q 22.75 39.890625 18.8125 39.015625 
Q 14.890625 38.140625 10.796875 36.28125 
z
" id="DejaVuSans-53"/>
      </defs>
      <g transform="translate(230.183588 369.074092)rotate(-30)scale(0.1 -0.1)">
       <use xlink:href="#DejaVuSans-50"/>
       <use x="63.623047" xlink:href="#DejaVuSans-48"/>
       <use x="127.246094" xlink:href="#DejaVuSans-50"/>
       <use x="190.869141" xlink:href="#DejaVuSans-48"/>
       <use x="254.492188" xlink:href="#DejaVuSans-45"/>
       <use x="290.576172" xlink:href="#DejaVuSans-48"/>
       <use x="354.199219" xlink:href="#DejaVuSans-53"/>
      </g>
     </g>
    </g>
    <g id="xtick_6">
     <g id="line2d_6">
      <g>
       <use style="stroke:#000000;" x="322.227526" xlink:href="#m61cd05f130" y="331.102246"/>
      </g>
     </g>
     <g id="text_6">
      <!-- 2020-06 -->
      <defs>
       <path d="M 33.015625 40.375 
Q 26.375 40.375 22.484375 35.828125 
Q 18.609375 31.296875 18.609375 23.390625 
Q 18.609375 15.53125 22.484375 10.953125 
Q 26.375 6.390625 33.015625 6.390625 
Q 39.65625 6.390625 43.53125 10.953125 
Q 47.40625 15.53125 47.40625 23.390625 
Q 47.40625 31.296875 43.53125 35.828125 
Q 39.65625 40.375 33.015625 40.375 
z
M 52.59375 71.296875 
L 52.59375 62.3125 
Q 48.875 64.0625 45.09375 64.984375 
Q 41.3125 65.921875 37.59375 65.921875 
Q 27.828125 65.921875 22.671875 59.328125 
Q 17.53125 52.734375 16.796875 39.40625 
Q 19.671875 43.65625 24.015625 45.921875 
Q 28.375 48.1875 33.59375 48.1875 
Q 44.578125 48.1875 50.953125 41.515625 
Q 57.328125 34.859375 57.328125 23.390625 
Q 57.328125 12.15625 50.6875 5.359375 
Q 44.046875 -1.421875 33.015625 -1.421875 
Q 20.359375 -1.421875 13.671875 8.265625 
Q 6.984375 17.96875 6.984375 36.375 
Q 6.984375 53.65625 15.1875 63.9375 
Q 23.390625 74.21875 37.203125 74.21875 
Q 40.921875 74.21875 44.703125 73.484375 
Q 48.484375 72.75 52.59375 71.296875 
z
" id="DejaVuSans-54"/>
      </defs>
      <g transform="translate(285.002705 369.074092)rotate(-30)scale(0.1 -0.1)">
       <use xlink:href="#DejaVuSans-50"/>
       <use x="63.623047" xlink:href="#DejaVuSans-48"/>
       <use x="127.246094" xlink:href="#DejaVuSans-50"/>
       <use x="190.869141" xlink:href="#DejaVuSans-48"/>
       <use x="254.492188" xlink:href="#DejaVuSans-45"/>
       <use x="290.576172" xlink:href="#DejaVuSans-48"/>
       <use x="354.199219" xlink:href="#DejaVuSans-54"/>
      </g>
     </g>
    </g>
    <g id="xtick_7">
     <g id="line2d_7">
      <g>
       <use style="stroke:#000000;" x="375.278285" xlink:href="#m61cd05f130" y="331.102246"/>
      </g>
     </g>
     <g id="text_7">
      <!-- 2020-07 -->
      <defs>
       <path d="M 8.203125 72.90625 
L 55.078125 72.90625 
L 55.078125 68.703125 
L 28.609375 0 
L 18.3125 0 
L 43.21875 64.59375 
L 8.203125 64.59375 
z
" id="DejaVuSans-55"/>
      </defs>
      <g transform="translate(338.053464 369.074092)rotate(-30)scale(0.1 -0.1)">
       <use xlink:href="#DejaVuSans-50"/>
       <use x="63.623047" xlink:href="#DejaVuSans-48"/>
       <use x="127.246094" xlink:href="#DejaVuSans-50"/>
       <use x="190.869141" xlink:href="#DejaVuSans-48"/>
       <use x="254.492188" xlink:href="#DejaVuSans-45"/>
       <use x="290.576172" xlink:href="#DejaVuSans-48"/>
       <use x="354.199219" xlink:href="#DejaVuSans-55"/>
      </g>
     </g>
    </g>
    <g id="xtick_8">
     <g id="line2d_8">
      <g>
       <use style="stroke:#000000;" x="430.097402" xlink:href="#m61cd05f130" y="331.102246"/>
      </g>
     </g>
     <g id="text_8">
      <!-- 2020-08 -->
      <defs>
       <path d="M 31.78125 34.625 
Q 24.75 34.625 20.71875 30.859375 
Q 16.703125 27.09375 16.703125 20.515625 
Q 16.703125 13.921875 20.71875 10.15625 
Q 24.75 6.390625 31.78125 6.390625 
Q 38.8125 6.390625 42.859375 10.171875 
Q 46.921875 13.96875 46.921875 20.515625 
Q 46.921875 27.09375 42.890625 30.859375 
Q 38.875 34.625 31.78125 34.625 
z
M 21.921875 38.8125 
Q 15.578125 40.375 12.03125 44.71875 
Q 8.5 49.078125 8.5 55.328125 
Q 8.5 64.0625 14.71875 69.140625 
Q 20.953125 74.21875 31.78125 74.21875 
Q 42.671875 74.21875 48.875 69.140625 
Q 55.078125 64.0625 55.078125 55.328125 
Q 55.078125 49.078125 51.53125 44.71875 
Q 48 40.375 41.703125 38.8125 
Q 48.828125 37.15625 52.796875 32.3125 
Q 56.78125 27.484375 56.78125 20.515625 
Q 56.78125 9.90625 50.3125 4.234375 
Q 43.84375 -1.421875 31.78125 -1.421875 
Q 19.734375 -1.421875 13.25 4.234375 
Q 6.78125 9.90625 6.78125 20.515625 
Q 6.78125 27.484375 10.78125 32.3125 
Q 14.796875 37.15625 21.921875 38.8125 
z
M 18.3125 54.390625 
Q 18.3125 48.734375 21.84375 45.5625 
Q 25.390625 42.390625 31.78125 42.390625 
Q 38.140625 42.390625 41.71875 45.5625 
Q 45.3125 48.734375 45.3125 54.390625 
Q 45.3125 60.0625 41.71875 63.234375 
Q 38.140625 66.40625 31.78125 66.40625 
Q 25.390625 66.40625 21.84375 63.234375 
Q 18.3125 60.0625 18.3125 54.390625 
z
" id="DejaVuSans-56"/>
      </defs>
      <g transform="translate(392.872581 369.074092)rotate(-30)scale(0.1 -0.1)">
       <use xlink:href="#DejaVuSans-50"/>
       <use x="63.623047" xlink:href="#DejaVuSans-48"/>
       <use x="127.246094" xlink:href="#DejaVuSans-50"/>
       <use x="190.869141" xlink:href="#DejaVuSans-48"/>
       <use x="254.492188" xlink:href="#DejaVuSans-45"/>
       <use x="290.576172" xlink:href="#DejaVuSans-48"/>
       <use x="354.199219" xlink:href="#DejaVuSans-56"/>
      </g>
     </g>
    </g>
    <g id="xtick_9">
     <g id="line2d_9">
      <g>
       <use style="stroke:#000000;" x="484.916519" xlink:href="#m61cd05f130" y="331.102246"/>
      </g>
     </g>
     <g id="text_9">
      <!-- 2020-09 -->
      <defs>
       <path d="M 10.984375 1.515625 
L 10.984375 10.5 
Q 14.703125 8.734375 18.5 7.8125 
Q 22.3125 6.890625 25.984375 6.890625 
Q 35.75 6.890625 40.890625 13.453125 
Q 46.046875 20.015625 46.78125 33.40625 
Q 43.953125 29.203125 39.59375 26.953125 
Q 35.25 24.703125 29.984375 24.703125 
Q 19.046875 24.703125 12.671875 31.3125 
Q 6.296875 37.9375 6.296875 49.421875 
Q 6.296875 60.640625 12.9375 67.421875 
Q 19.578125 74.21875 30.609375 74.21875 
Q 43.265625 74.21875 49.921875 64.515625 
Q 56.59375 54.828125 56.59375 36.375 
Q 56.59375 19.140625 48.40625 8.859375 
Q 40.234375 -1.421875 26.421875 -1.421875 
Q 22.703125 -1.421875 18.890625 -0.6875 
Q 15.09375 0.046875 10.984375 1.515625 
z
M 30.609375 32.421875 
Q 37.25 32.421875 41.125 36.953125 
Q 45.015625 41.5 45.015625 49.421875 
Q 45.015625 57.28125 41.125 61.84375 
Q 37.25 66.40625 30.609375 66.40625 
Q 23.96875 66.40625 20.09375 61.84375 
Q 16.21875 57.28125 16.21875 49.421875 
Q 16.21875 41.5 20.09375 36.953125 
Q 23.96875 32.421875 30.609375 32.421875 
z
" id="DejaVuSans-57"/>
      </defs>
      <g transform="translate(447.691698 369.074092)rotate(-30)scale(0.1 -0.1)">
       <use xlink:href="#DejaVuSans-50"/>
       <use x="63.623047" xlink:href="#DejaVuSans-48"/>
       <use x="127.246094" xlink:href="#DejaVuSans-50"/>
       <use x="190.869141" xlink:href="#DejaVuSans-48"/>
       <use x="254.492188" xlink:href="#DejaVuSans-45"/>
       <use x="290.576172" xlink:href="#DejaVuSans-48"/>
       <use x="354.199219" xlink:href="#DejaVuSans-57"/>
      </g>
     </g>
    </g>
    <g id="xtick_10">
     <g id="line2d_10">
      <g>
       <use style="stroke:#000000;" x="537.967277" xlink:href="#m61cd05f130" y="331.102246"/>
      </g>
     </g>
     <g id="text_10">
      <!-- 2020-10 -->
      <g transform="translate(500.742457 369.074092)rotate(-30)scale(0.1 -0.1)">
       <use xlink:href="#DejaVuSans-50"/>
       <use x="63.623047" xlink:href="#DejaVuSans-48"/>
       <use x="127.246094" xlink:href="#DejaVuSans-50"/>
       <use x="190.869141" xlink:href="#DejaVuSans-48"/>
       <use x="254.492188" xlink:href="#DejaVuSans-45"/>
       <use x="290.576172" xlink:href="#DejaVuSans-49"/>
       <use x="354.199219" xlink:href="#DejaVuSans-48"/>
      </g>
     </g>
    </g>
    <g id="text_11">
     <!-- Date -->
     <defs>
      <path d="M 19.671875 64.796875 
L 19.671875 8.109375 
L 31.59375 8.109375 
Q 46.6875 8.109375 53.6875 14.9375 
Q 60.6875 21.78125 60.6875 36.53125 
Q 60.6875 51.171875 53.6875 57.984375 
Q 46.6875 64.796875 31.59375 64.796875 
z
M 9.8125 72.90625 
L 30.078125 72.90625 
Q 51.265625 72.90625 61.171875 64.09375 
Q 71.09375 55.28125 71.09375 36.53125 
Q 71.09375 17.671875 61.125 8.828125 
Q 51.171875 0 30.078125 0 
L 9.8125 0 
z
" id="DejaVuSans-68"/>
      <path d="M 34.28125 27.484375 
Q 23.390625 27.484375 19.1875 25 
Q 14.984375 22.515625 14.984375 16.5 
Q 14.984375 11.71875 18.140625 8.90625 
Q 21.296875 6.109375 26.703125 6.109375 
Q 34.1875 6.109375 38.703125 11.40625 
Q 43.21875 16.703125 43.21875 25.484375 
L 43.21875 27.484375 
z
M 52.203125 31.203125 
L 52.203125 0 
L 43.21875 0 
L 43.21875 8.296875 
Q 40.140625 3.328125 35.546875 0.953125 
Q 30.953125 -1.421875 24.3125 -1.421875 
Q 15.921875 -1.421875 10.953125 3.296875 
Q 6 8.015625 6 15.921875 
Q 6 25.140625 12.171875 29.828125 
Q 18.359375 34.515625 30.609375 34.515625 
L 43.21875 34.515625 
L 43.21875 35.40625 
Q 43.21875 41.609375 39.140625 45 
Q 35.0625 48.390625 27.6875 48.390625 
Q 23 48.390625 18.546875 47.265625 
Q 14.109375 46.140625 10.015625 43.890625 
L 10.015625 52.203125 
Q 14.9375 54.109375 19.578125 55.046875 
Q 24.21875 56 28.609375 56 
Q 40.484375 56 46.34375 49.84375 
Q 52.203125 43.703125 52.203125 31.203125 
z
" id="DejaVuSans-97"/>
      <path d="M 18.3125 70.21875 
L 18.3125 54.6875 
L 36.8125 54.6875 
L 36.8125 47.703125 
L 18.3125 47.703125 
L 18.3125 18.015625 
Q 18.3125 11.328125 20.140625 9.421875 
Q 21.96875 7.515625 27.59375 7.515625 
L 36.8125 7.515625 
L 36.8125 0 
L 27.59375 0 
Q 17.1875 0 13.234375 3.875 
Q 9.28125 7.765625 9.28125 18.015625 
L 9.28125 47.703125 
L 2.6875 47.703125 
L 2.6875 54.6875 
L 9.28125 54.6875 
L 9.28125 70.21875 
z
" id="DejaVuSans-116"/>
      <path d="M 56.203125 29.59375 
L 56.203125 25.203125 
L 14.890625 25.203125 
Q 15.484375 15.921875 20.484375 11.0625 
Q 25.484375 6.203125 34.421875 6.203125 
Q 39.59375 6.203125 44.453125 7.46875 
Q 49.3125 8.734375 54.109375 11.28125 
L 54.109375 2.78125 
Q 49.265625 0.734375 44.1875 -0.34375 
Q 39.109375 -1.421875 33.890625 -1.421875 
Q 20.796875 -1.421875 13.15625 6.1875 
Q 5.515625 13.8125 5.515625 26.8125 
Q 5.515625 40.234375 12.765625 48.109375 
Q 20.015625 56 32.328125 56 
Q 43.359375 56 49.78125 48.890625 
Q 56.203125 41.796875 56.203125 29.59375 
z
M 47.21875 32.234375 
Q 47.125 39.59375 43.09375 43.984375 
Q 39.0625 48.390625 32.421875 48.390625 
Q 24.90625 48.390625 20.390625 44.140625 
Q 15.875 39.890625 15.1875 32.171875 
z
" id="DejaVuSans-101"/>
     </defs>
     <g transform="translate(291.398081 383.233436)scale(0.11 -0.11)">
      <use xlink:href="#DejaVuSans-68"/>
      <use x="77.001953" xlink:href="#DejaVuSans-97"/>
      <use x="138.28125" xlink:href="#DejaVuSans-116"/>
      <use x="177.490234" xlink:href="#DejaVuSans-101"/>
     </g>
    </g>
   </g>
   <g id="matplotlib.axis_2">
    <g id="ytick_1">
     <g id="line2d_11">
      <defs>
       <path d="M 0 0 
L -3.5 0 
" id="mf3420d2ca8" style="stroke:#000000;"/>
      </defs>
      <g>
       <use style="stroke:#000000;" x="43.88788" xlink:href="#mf3420d2ca8" y="317.270326"/>
      </g>
     </g>
     <g id="text_12">
      <!-- 0 -->
      <g transform="translate(27.02538 321.069544)scale(0.1 -0.1)">
       <use xlink:href="#DejaVuSans-48"/>
      </g>
     </g>
    </g>
    <g id="ytick_2">
     <g id="line2d_12">
      <g>
       <use style="stroke:#000000;" x="43.88788" xlink:href="#mf3420d2ca8" y="257.546757"/>
      </g>
     </g>
     <g id="text_13">
      <!-- 50 -->
      <g transform="translate(20.66288 261.345975)scale(0.1 -0.1)">
       <use xlink:href="#DejaVuSans-53"/>
       <use x="63.623047" xlink:href="#DejaVuSans-48"/>
      </g>
     </g>
    </g>
    <g id="ytick_3">
     <g id="line2d_13">
      <g>
       <use style="stroke:#000000;" x="43.88788" xlink:href="#mf3420d2ca8" y="197.823188"/>
      </g>
     </g>
     <g id="text_14">
      <!-- 100 -->
      <g transform="translate(14.30038 201.622406)scale(0.1 -0.1)">
       <use xlink:href="#DejaVuSans-49"/>
       <use x="63.623047" xlink:href="#DejaVuSans-48"/>
       <use x="127.246094" xlink:href="#DejaVuSans-48"/>
      </g>
     </g>
    </g>
    <g id="ytick_4">
     <g id="line2d_14">
      <g>
       <use style="stroke:#000000;" x="43.88788" xlink:href="#mf3420d2ca8" y="138.099619"/>
      </g>
     </g>
     <g id="text_15">
      <!-- 150 -->
      <g transform="translate(14.30038 141.898838)scale(0.1 -0.1)">
       <use xlink:href="#DejaVuSans-49"/>
       <use x="63.623047" xlink:href="#DejaVuSans-53"/>
       <use x="127.246094" xlink:href="#DejaVuSans-48"/>
      </g>
     </g>
    </g>
    <g id="ytick_5">
     <g id="line2d_15">
      <g>
       <use style="stroke:#000000;" x="43.88788" xlink:href="#mf3420d2ca8" y="78.37605"/>
      </g>
     </g>
     <g id="text_16">
      <!-- 200 -->
      <g transform="translate(14.30038 82.175269)scale(0.1 -0.1)">
       <use xlink:href="#DejaVuSans-50"/>
       <use x="63.623047" xlink:href="#DejaVuSans-48"/>
       <use x="127.246094" xlink:href="#DejaVuSans-48"/>
      </g>
     </g>
    </g>
   </g>
   <g id="line2d_16">
    <path clip-path="url(#pddf44e45c7)" d="M 67.583886 317.270326 
L 163.075251 317.16422 
L 177.22212 316.330534 
L 178.990478 316.106197 
L 180.758837 315.742406 
L 184.295554 314.66013 
L 186.063913 314.48733 
L 187.832272 313.53238 
L 189.60063 311.828629 
L 193.137347 308.966811 
L 194.905706 306.929586 
L 196.674065 306.074678 
L 198.442423 303.964694 
L 200.210782 301.245362 
L 201.97914 299.714411 
L 203.747499 295.970402 
L 205.515858 290.277083 
L 207.284216 286.439095 
L 209.052575 281.815926 
L 210.820934 277.832422 
L 212.589292 274.327909 
L 214.357651 266.748943 
L 216.126009 261.37091 
L 217.894368 258.127112 
L 219.662727 255.78976 
L 221.431085 246.552517 
L 223.199444 243.311751 
L 224.967802 241.601937 
L 226.736161 238.09136 
L 228.50452 237.439569 
L 230.272878 235.356869 
L 232.041237 232.534463 
L 233.809596 236.884789 
L 235.577954 237.421379 
L 237.346313 234.76571 
L 239.114671 239.616248 
L 240.88303 241.677726 
L 244.419747 243.408762 
L 246.188106 243.605815 
L 247.956464 245.418704 
L 249.724823 247.74393 
L 251.493182 248.253237 
L 253.26154 248.356311 
L 255.029899 251.330296 
L 256.798258 253.519102 
L 258.566616 257.930059 
L 260.334975 258.345387 
L 262.103333 261.674068 
L 263.871692 266.576143 
L 265.640051 268.395095 
L 267.408409 269.919982 
L 269.176768 271.732871 
L 270.945126 272.136072 
L 272.713485 274.497677 
L 274.481844 274.943321 
L 276.250202 274.312751 
L 278.018561 275.376837 
L 279.78692 277.823327 
L 281.555278 280.488092 
L 283.323637 283.556057 
L 285.091995 285.356819 
L 286.860354 287.706298 
L 288.628713 289.115986 
L 290.397071 291.977803 
L 292.16543 293.742186 
L 295.702147 295.051831 
L 297.470506 295.2792 
L 299.238864 295.915833 
L 302.775582 297.907585 
L 304.54394 297.995501 
L 306.312299 298.47146 
L 308.080657 299.089904 
L 309.849016 300.066075 
L 311.617375 301.172604 
L 313.385733 301.824395 
L 315.154092 302.839976 
L 316.92245 304.425495 
L 320.459168 306.026173 
L 322.227526 306.63249 
L 323.995885 306.778006 
L 325.764244 307.223649 
L 329.300961 307.820872 
L 331.069319 308.709127 
L 332.837678 308.988032 
L 334.606037 309.600413 
L 336.374395 308.972875 
L 338.142754 310.182477 
L 339.911112 310.567489 
L 343.44783 310.897932 
L 345.216188 310.70391 
L 346.984547 310.318899 
L 348.752906 311.528502 
L 350.521264 310.955532 
L 352.289623 311.025258 
L 357.594699 311.613386 
L 361.131416 311.865008 
L 362.899774 312.304588 
L 364.668133 312.365219 
L 368.20485 313.214063 
L 371.741568 313.674865 
L 373.509926 313.717307 
L 375.278285 313.505096 
L 377.046643 312.71082 
L 378.815002 311.719492 
L 382.351719 309.485213 
L 384.120078 308.781885 
L 385.888436 307.642008 
L 387.656795 306.341458 
L 389.425154 306.056489 
L 391.193512 306.123184 
L 392.961871 305.435014 
L 394.73023 305.062128 
L 396.498588 304.558885 
L 398.266947 305.165202 
L 400.035305 305.468361 
L 401.803664 305.528993 
L 403.572023 305.059097 
L 405.340381 305.089413 
L 408.877098 304.801412 
L 412.413816 304.680149 
L 414.182174 304.361832 
L 415.950533 304.201158 
L 417.718892 304.461874 
L 421.255609 304.067768 
L 428.329043 302.354922 
L 430.097402 302.318543 
L 431.86576 302.454964 
L 433.634119 301.727384 
L 438.939195 301.157446 
L 442.475912 301.342372 
L 444.244271 300.396517 
L 446.012629 300.872476 
L 447.780988 299.605273 
L 449.549347 299.238452 
L 451.317705 298.532092 
L 453.086064 297.052678 
L 454.854422 296.279624 
L 458.39114 296.585814 
L 460.159498 296.767709 
L 461.927857 297.428595 
L 463.696215 297.501353 
L 465.464574 298.641229 
L 467.232933 298.259249 
L 469.001291 298.301691 
L 474.306367 297.143626 
L 476.074726 296.188676 
L 477.843084 295.588422 
L 479.611443 296.10076 
L 481.379802 294.436419 
L 483.14816 293.251069 
L 484.916519 293.323827 
L 486.684877 292.22033 
L 488.453236 291.744371 
L 491.989953 288.261078 
L 493.758312 284.959681 
L 495.526671 280.779124 
L 500.831746 271.165964 
L 504.368464 262.056048 
L 506.136822 261.264804 
L 507.905181 262.080301 
L 509.673539 260.39777 
L 511.441898 257.03271 
L 513.210257 256.396077 
L 516.746974 252.582342 
L 518.515333 251.24238 
L 522.05205 242.04758 
L 523.820408 236.933294 
L 525.588767 228.311463 
L 527.357126 222.393807 
L 529.125484 219.359189 
L 530.893843 214.748147 
L 532.662201 216.075982 
L 534.43056 211.63774 
L 536.198919 209.900641 
L 537.967277 210.030999 
L 539.735636 212.838248 
L 541.503995 194.142456 
L 541.503995 194.142456 
" style="fill:none;stroke:#1f77b4;stroke-linecap:square;stroke-width:1.75;"/>
   </g>
   <g id="line2d_17">
    <path clip-path="url(#pddf44e45c7)" d="M 67.583886 317.270326 
L 164.84361 317.176625 
L 168.380327 316.926756 
L 171.917044 316.70812 
L 177.22212 316.239615 
L 180.758837 314.959036 
L 184.295554 313.053784 
L 186.063913 312.647746 
L 191.368989 310.836195 
L 193.137347 309.867952 
L 194.905706 309.399447 
L 196.674065 309.055877 
L 200.210782 305.120438 
L 201.97914 301.903373 
L 203.747499 297.655597 
L 205.515858 294.25113 
L 207.284216 290.034588 
L 210.820934 284.037728 
L 212.589292 273.262121 
L 214.357651 267.577598 
L 216.126009 263.923261 
L 217.894368 256.614589 
L 219.662727 251.679673 
L 221.431085 244.745804 
L 223.199444 242.372047 
L 224.967802 247.431897 
L 226.736161 246.838458 
L 228.50452 243.715094 
L 230.272878 246.245019 
L 232.041237 247.150794 
L 233.809596 248.368907 
L 235.577954 251.492271 
L 237.346313 250.773897 
L 239.114671 249.08728 
L 240.88303 250.274159 
L 242.651389 250.617729 
L 244.419747 247.619299 
L 246.188106 246.213785 
L 247.956464 242.840552 
L 249.724823 244.995673 
L 251.493182 245.74528 
L 253.26154 245.214308 
L 255.029899 245.807748 
L 256.798258 247.588065 
L 258.566616 250.524028 
L 260.334975 252.585449 
L 262.103333 253.272589 
L 265.640051 256.552121 
L 267.408409 256.146084 
L 269.176768 258.676009 
L 270.945126 261.893074 
L 274.481844 263.673392 
L 276.250202 264.953972 
L 278.018561 268.202271 
L 279.78692 270.576028 
L 281.555278 274.230364 
L 283.323637 273.886794 
L 285.091995 274.761336 
L 286.860354 275.854513 
L 288.628713 279.16528 
L 290.397071 280.008588 
L 292.16543 282.569747 
L 293.933788 281.601504 
L 295.702147 284.443766 
L 297.470506 287.067392 
L 302.775582 294.188663 
L 304.54394 295.125672 
L 306.312299 298.717541 
L 308.080657 299.65455 
L 309.849016 299.717018 
L 311.617375 300.716494 
L 313.385733 301.997074 
L 315.154092 303.777391 
L 316.92245 306.088681 
L 318.690809 306.619653 
L 320.459168 307.931466 
L 322.227526 309.087111 
L 323.995885 308.337503 
L 325.764244 309.024644 
L 327.532602 308.99341 
L 329.300961 309.305746 
L 331.069319 310.36769 
L 334.606037 310.36769 
L 336.374395 311.585802 
L 338.142754 312.241709 
L 339.911112 313.241186 
L 343.44783 313.303653 
L 345.216188 313.085017 
L 346.984547 312.741447 
L 348.752906 312.710214 
L 350.521264 312.429111 
L 352.289623 312.616513 
L 354.057981 312.616513 
L 355.82634 312.460344 
L 357.594699 312.429111 
L 359.363057 312.897615 
L 361.131416 312.991316 
L 362.899774 313.36612 
L 364.668133 313.553522 
L 368.20485 314.209429 
L 369.973209 314.771634 
L 371.741568 315.052737 
L 384.120078 315.427541 
L 385.888436 315.67741 
L 389.425154 315.67741 
L 391.193512 315.490008 
L 392.961871 315.614943 
L 394.73023 315.302606 
L 398.266947 315.208905 
L 400.035305 315.271372 
L 401.803664 315.115204 
L 403.572023 315.146438 
L 405.340381 314.709167 
L 408.877098 314.552999 
L 410.645457 313.959559 
L 417.718892 313.36612 
L 419.48725 313.959559 
L 421.255609 314.084494 
L 423.023967 314.6467 
L 424.792326 314.271896 
L 426.560685 314.240662 
L 428.329043 313.928326 
L 430.097402 314.209429 
L 431.86576 313.36612 
L 433.634119 312.897615 
L 435.402478 312.304176 
L 437.170836 310.992363 
L 438.939195 309.461915 
L 440.707553 309.055877 
L 442.475912 307.744064 
L 444.244271 307.213092 
L 446.012629 306.869522 
L 447.780988 305.963746 
L 451.317705 307.088158 
L 453.086064 306.401018 
L 454.854422 306.68212 
L 458.39114 306.931989 
L 460.159498 307.02569 
L 461.927857 306.931989 
L 463.696215 305.99498 
L 465.464574 305.807578 
L 467.232933 303.558756 
L 470.76965 301.060064 
L 472.538009 301.216233 
L 474.306367 300.685261 
L 476.074726 300.966363 
L 477.843084 301.591036 
L 479.611443 302.684214 
L 481.379802 301.434868 
L 483.14816 298.498906 
L 484.916519 295.063205 
L 486.684877 292.28341 
L 488.453236 291.2527 
L 490.221595 287.879466 
L 491.989953 286.224083 
L 493.758312 283.569224 
L 495.526671 284.006495 
L 497.295029 283.319354 
L 499.063388 283.225653 
L 500.831746 281.351635 
L 502.600105 280.851897 
L 504.368464 278.353205 
L 506.136822 277.228794 
L 507.905181 279.602551 
L 509.673539 276.760289 
L 511.441898 273.387056 
L 513.210257 269.357915 
L 514.978615 268.483373 
L 516.746974 264.454233 
L 518.515333 264.423 
L 520.283691 258.644775 
L 522.05205 255.021673 
L 523.820408 248.181505 
L 525.588767 242.715617 
L 529.125484 220.258627 
L 530.893843 217.166496 
L 532.662201 218.197206 
L 534.43056 204.985375 
L 536.198919 200.175393 
L 537.967277 193.834964 
L 539.735636 187.057263 
L 541.503995 185.495581 
L 541.503995 185.495581 
" style="fill:none;stroke:#ff7f0e;stroke-linecap:square;stroke-width:1.75;"/>
   </g>
   <g id="line2d_18">
    <path clip-path="url(#pddf44e45c7)" d="M 67.583886 317.270326 
L 171.917044 317.216204 
L 175.453761 316.999718 
L 178.990478 316.02553 
L 180.758837 315.321949 
L 182.527196 314.131275 
L 184.295554 312.291141 
L 186.063913 310.775737 
L 187.832272 310.234521 
L 189.60063 310.018035 
L 191.368989 309.422698 
L 193.137347 308.989725 
L 194.905706 305.36358 
L 196.674065 303.577568 
L 198.442423 301.358583 
L 200.210782 298.760748 
L 201.97914 291.346093 
L 203.747499 286.366908 
L 205.515858 277.761578 
L 209.052575 268.88564 
L 210.820934 261.362742 
L 212.589292 258.54842 
L 214.357651 251.837345 
L 217.894368 233.652497 
L 219.662727 222.016359 
L 221.431085 211.40853 
L 223.199444 206.429346 
L 224.967802 196.741584 
L 226.736161 196.25449 
L 228.50452 210.759072 
L 230.272878 202.261985 
L 232.041237 204.805699 
L 233.809596 203.560902 
L 235.577954 202.965565 
L 237.346313 205.834008 
L 239.114671 206.429346 
L 240.88303 191.924764 
L 242.651389 205.88813 
L 244.419747 208.485966 
L 246.188106 210.271977 
L 247.956464 212.274476 
L 249.724823 208.702452 
L 251.493182 208.594209 
L 253.26154 211.300287 
L 255.029899 211.354409 
L 256.798258 210.975558 
L 258.566616 219.418523 
L 262.103333 227.266151 
L 263.871692 235.763238 
L 265.640051 238.523438 
L 267.408409 243.015529 
L 269.176768 249.293631 
L 270.945126 249.510117 
L 272.713485 249.94309 
L 274.481844 254.651667 
L 276.250202 255.842341 
L 278.018561 261.038012 
L 279.78692 261.470985 
L 281.555278 264.988887 
L 283.323637 262.33693 
L 285.091995 266.179562 
L 286.860354 268.344424 
L 290.397071 264.06882 
L 292.16543 265.475981 
L 293.933788 261.958079 
L 295.702147 265.259495 
L 297.470506 266.504291 
L 299.238864 263.202875 
L 301.007223 264.447671 
L 302.775582 262.391051 
L 304.54394 261.741593 
L 306.312299 261.633349 
L 308.080657 262.824024 
L 309.849016 262.553416 
L 311.617375 263.906455 
L 313.385733 264.610036 
L 315.154092 269.697464 
L 316.92245 271.64584 
L 318.690809 277.003876 
L 320.459168 280.142927 
L 322.227526 282.686641 
L 323.995885 286.691637 
L 325.764244 287.503461 
L 327.532602 289.505959 
L 329.300961 290.91312 
L 332.837678 295.567575 
L 334.606037 296.487642 
L 336.374395 297.840681 
L 338.142754 300.22203 
L 339.911112 298.706626 
L 345.216188 298.544262 
L 346.984547 297.46183 
L 348.752906 296.217034 
L 350.521264 295.405211 
L 352.289623 296.217034 
L 354.057981 298.706626 
L 355.82634 299.789058 
L 357.594699 296.487642 
L 359.363057 296.000548 
L 361.131416 296.75825 
L 362.899774 297.082979 
L 364.668133 292.915618 
L 366.436492 291.075485 
L 368.20485 289.938932 
L 369.973209 293.99805 
L 371.741568 291.562579 
L 373.509926 292.915618 
L 375.278285 293.727442 
L 377.046643 298.273654 
L 378.815002 300.384395 
L 382.351719 301.57507 
L 384.120078 307.4202 
L 385.888436 308.719117 
L 387.656795 309.747427 
L 389.425154 311.100466 
L 391.193512 311.966412 
L 392.961871 313.427694 
L 396.498588 313.211208 
L 398.266947 312.182898 
L 400.035305 311.91229 
L 401.803664 311.804047 
L 403.572023 311.479317 
L 405.340381 311.316953 
L 407.10874 310.505129 
L 408.877098 310.288643 
L 410.645457 310.234521 
L 412.413816 310.018035 
L 414.182174 308.664996 
L 415.950533 307.09547 
L 417.718892 306.013039 
L 419.48725 306.500133 
L 421.255609 304.876486 
L 423.023967 304.930607 
L 424.792326 304.389392 
L 426.560685 306.229525 
L 428.329043 307.257835 
L 430.097402 307.744929 
L 431.86576 306.933105 
L 433.634119 308.069658 
L 435.402478 308.015537 
L 437.170836 308.989725 
L 438.939195 308.664996 
L 440.707553 309.15209 
L 442.475912 309.260333 
L 447.780988 310.992223 
L 449.549347 311.316953 
L 453.086064 311.262831 
L 454.854422 310.829859 
L 456.622781 311.262831 
L 458.39114 311.154588 
L 461.927857 309.85567 
L 463.696215 309.639184 
L 465.464574 308.773239 
L 467.232933 308.394388 
L 469.001291 308.286145 
L 472.538009 307.799051 
L 474.306367 307.09547 
L 476.074726 306.229525 
L 477.843084 306.229525 
L 479.611443 305.904796 
L 481.379802 303.956419 
L 483.14816 302.873987 
L 484.916519 301.629191 
L 486.684877 301.196219 
L 490.221595 299.464328 
L 491.989953 297.46183 
L 493.758312 295.188724 
L 497.295029 284.743261 
L 499.063388 278.086307 
L 500.831746 275.271986 
L 504.368464 266.12544 
L 506.136822 262.661659 
L 507.905181 259.955581 
L 509.673539 262.120444 
L 511.441898 260.28031 
L 513.210257 256.708286 
L 514.978615 253.893965 
L 516.746974 251.296129 
L 518.515333 249.293631 
L 520.283691 246.533431 
L 522.05205 237.278642 
L 525.588767 217.25366 
L 527.357126 209.947248 
L 530.893843 192.574223 
L 532.662201 189.759902 
L 534.43056 185.159568 
L 536.198919 185.213689 
L 537.967277 182.507611 
L 539.735636 174.822348 
L 541.503995 163.673304 
L 541.503995 163.673304 
" style="fill:none;stroke:#2ca02c;stroke-linecap:square;stroke-width:1.75;"/>
   </g>
   <g id="line2d_19">
    <path clip-path="url(#pddf44e45c7)" d="M 67.583886 317.270326 
L 166.611968 317.270326 
L 170.148685 316.909885 
L 171.917044 316.459334 
L 173.685403 316.189003 
L 175.453761 316.189003 
L 178.990478 315.918672 
L 180.758837 315.19779 
L 182.527196 314.92746 
L 184.295554 314.386798 
L 186.063913 314.026357 
L 187.832272 313.125255 
L 189.60063 312.764814 
L 191.368989 312.043932 
L 193.137347 312.134043 
L 194.905706 310.602169 
L 196.674065 309.791177 
L 200.210782 307.3582 
L 201.97914 304.564783 
L 203.747499 302.492248 
L 205.515858 300.239492 
L 207.284216 297.806516 
L 209.052575 291.859241 
L 210.820934 282.577887 
L 212.589292 279.964691 
L 214.357651 274.017415 
L 216.126009 269.241573 
L 217.894368 260.590991 
L 219.662727 256.536031 
L 221.431085 256.08548 
L 223.199444 260.951432 
L 224.967802 256.986582 
L 226.736161 258.698676 
L 228.50452 253.922834 
L 230.272878 255.544818 
L 232.041237 252.48107 
L 233.809596 252.661291 
L 235.577954 252.030519 
L 237.346313 253.111842 
L 239.114671 249.777764 
L 240.88303 252.030519 
L 242.651389 249.777764 
L 244.419747 247.975559 
L 246.188106 241.667843 
L 247.956464 241.037071 
L 249.724823 245.993134 
L 251.493182 246.443685 
L 253.26154 243.830488 
L 255.029899 246.623906 
L 256.798258 250.588756 
L 258.566616 257.527243 
L 260.334975 259.059117 
L 262.103333 258.698676 
L 263.871692 264.1954 
L 265.640051 270.413006 
L 267.408409 272.125101 
L 269.176768 275.549289 
L 270.945126 275.90973 
L 272.713485 275.6394 
L 274.481844 274.648187 
L 276.250202 274.828407 
L 278.018561 276.900943 
L 279.78692 281.316344 
L 281.555278 282.217446 
L 285.091995 289.065824 
L 286.860354 289.155934 
L 288.628713 288.525162 
L 292.16543 290.687808 
L 293.933788 292.129572 
L 297.470506 294.562548 
L 299.238864 296.725193 
L 301.007223 300.509823 
L 302.775582 300.149382 
L 304.54394 300.419713 
L 306.312299 300.329602 
L 308.080657 300.599933 
L 309.849016 298.527398 
L 313.385733 297.085634 
L 315.154092 299.4285 
L 316.92245 299.969162 
L 318.690809 302.492248 
L 320.459168 304.114232 
L 322.227526 306.547208 
L 323.995885 308.709854 
L 325.764244 310.331838 
L 327.532602 308.799964 
L 329.300961 310.061507 
L 331.069319 309.971397 
L 332.837678 310.061507 
L 334.606037 310.602169 
L 336.374395 310.692279 
L 338.142754 310.241728 
L 339.911112 312.854924 
L 341.679471 311.683491 
L 343.44783 312.674704 
L 345.216188 312.584594 
L 348.752906 312.854924 
L 350.521264 313.305476 
L 352.289623 313.575806 
L 354.057981 314.747239 
L 361.131416 315.738452 
L 362.899774 316.279113 
L 366.436492 316.189003 
L 368.20485 316.008782 
L 369.973209 316.279113 
L 371.741568 315.828562 
L 373.509926 315.558231 
L 375.278285 315.648342 
L 377.046643 315.10768 
L 378.815002 315.10768 
L 382.351719 315.378011 
L 384.120078 315.918672 
L 387.656795 315.468121 
L 389.425154 315.828562 
L 396.498588 315.828562 
L 398.266947 316.098893 
L 400.035305 315.648342 
L 401.803664 314.476909 
L 403.572023 313.125255 
L 412.413816 313.125255 
L 414.182174 313.846137 
L 415.950533 314.206578 
L 421.255609 314.206578 
L 423.023967 313.575806 
L 426.560685 313.575806 
L 428.329043 314.026357 
L 437.170836 314.026357 
L 438.939195 310.872499 
L 440.707553 310.421948 
L 446.012629 310.421948 
L 447.780988 306.817539 
L 449.549347 305.105445 
L 451.317705 308.259303 
L 453.086064 302.942799 
L 454.854422 297.085634 
L 456.622781 294.652658 
L 458.39114 291.138359 
L 460.159498 291.769131 
L 461.927857 291.31858 
L 463.696215 287.44384 
L 465.464574 292.309792 
L 467.232933 291.769131 
L 469.001291 283.47899 
L 470.76965 286.092186 
L 472.538009 285.551525 
L 474.306367 282.127336 
L 476.074726 280.505352 
L 477.843084 274.648187 
L 479.611443 273.026203 
L 481.379802 279.333919 
L 483.14816 275.008628 
L 484.916519 274.828407 
L 486.684877 274.918518 
L 488.453236 274.197636 
L 490.221595 276.360281 
L 491.989953 273.747085 
L 493.758312 268.610802 
L 495.526671 261.131653 
L 497.295029 261.942645 
L 499.063388 263.92507 
L 500.831746 263.834959 
L 502.600105 261.401983 
L 504.368464 262.663526 
L 506.136822 264.375621 
L 507.905181 267.259148 
L 509.673539 263.744849 
L 511.441898 256.536031 
L 514.978615 243.379937 
L 516.746974 232.74693 
L 518.515333 224.72712 
L 520.283691 223.285356 
L 522.05205 223.645797 
L 523.820408 215.445766 
L 525.588767 211.841357 
L 527.357126 201.929232 
L 529.125484 193.188539 
L 530.893843 192.197327 
L 532.662201 183.636855 
L 534.43056 161.559849 
L 536.198919 143.177362 
L 537.967277 136.869646 
L 539.735636 77.306784 
L 541.503995 40.63192 
L 541.503995 40.63192 
" style="fill:none;stroke:#d62728;stroke-linecap:square;stroke-width:1.75;"/>
   </g>
   <g id="patch_3">
    <path d="M 43.88788 331.102246 
L 43.88788 26.8 
" style="fill:none;stroke:#000000;stroke-linecap:square;stroke-linejoin:miter;stroke-width:0.8;"/>
   </g>
   <g id="patch_4">
    <path d="M 565.2 331.102246 
L 565.2 26.8 
" style="fill:none;stroke:#000000;stroke-linecap:square;stroke-linejoin:miter;stroke-width:0.8;"/>
   </g>
   <g id="patch_5">
    <path d="M 43.88788 331.102246 
L 565.2 331.102246 
" style="fill:none;stroke:#000000;stroke-linecap:square;stroke-linejoin:miter;stroke-width:0.8;"/>
   </g>
   <g id="patch_6">
    <path d="M 43.88788 26.8 
L 565.2 26.8 
" style="fill:none;stroke:#000000;stroke-linecap:square;stroke-linejoin:miter;stroke-width:0.8;"/>
   </g>
   <g id="text_17">
    <!-- New Cases per Million Population (7 day rolling) -->
    <defs>
     <path d="M 9.8125 72.90625 
L 23.09375 72.90625 
L 55.421875 11.921875 
L 55.421875 72.90625 
L 64.984375 72.90625 
L 64.984375 0 
L 51.703125 0 
L 19.390625 60.984375 
L 19.390625 0 
L 9.8125 0 
z
" id="DejaVuSans-78"/>
     <path d="M 4.203125 54.6875 
L 13.1875 54.6875 
L 24.421875 12.015625 
L 35.59375 54.6875 
L 46.1875 54.6875 
L 57.421875 12.015625 
L 68.609375 54.6875 
L 77.59375 54.6875 
L 63.28125 0 
L 52.6875 0 
L 40.921875 44.828125 
L 29.109375 0 
L 18.5 0 
z
" id="DejaVuSans-119"/>
     <path id="DejaVuSans-32"/>
     <path d="M 64.40625 67.28125 
L 64.40625 56.890625 
Q 59.421875 61.53125 53.78125 63.8125 
Q 48.140625 66.109375 41.796875 66.109375 
Q 29.296875 66.109375 22.65625 58.46875 
Q 16.015625 50.828125 16.015625 36.375 
Q 16.015625 21.96875 22.65625 14.328125 
Q 29.296875 6.6875 41.796875 6.6875 
Q 48.140625 6.6875 53.78125 8.984375 
Q 59.421875 11.28125 64.40625 15.921875 
L 64.40625 5.609375 
Q 59.234375 2.09375 53.4375 0.328125 
Q 47.65625 -1.421875 41.21875 -1.421875 
Q 24.65625 -1.421875 15.125 8.703125 
Q 5.609375 18.84375 5.609375 36.375 
Q 5.609375 53.953125 15.125 64.078125 
Q 24.65625 74.21875 41.21875 74.21875 
Q 47.75 74.21875 53.53125 72.484375 
Q 59.328125 70.75 64.40625 67.28125 
z
" id="DejaVuSans-67"/>
     <path d="M 44.28125 53.078125 
L 44.28125 44.578125 
Q 40.484375 46.53125 36.375 47.5 
Q 32.28125 48.484375 27.875 48.484375 
Q 21.1875 48.484375 17.84375 46.4375 
Q 14.5 44.390625 14.5 40.28125 
Q 14.5 37.15625 16.890625 35.375 
Q 19.28125 33.59375 26.515625 31.984375 
L 29.59375 31.296875 
Q 39.15625 29.25 43.1875 25.515625 
Q 47.21875 21.78125 47.21875 15.09375 
Q 47.21875 7.46875 41.1875 3.015625 
Q 35.15625 -1.421875 24.609375 -1.421875 
Q 20.21875 -1.421875 15.453125 -0.5625 
Q 10.6875 0.296875 5.421875 2 
L 5.421875 11.28125 
Q 10.40625 8.6875 15.234375 7.390625 
Q 20.0625 6.109375 24.8125 6.109375 
Q 31.15625 6.109375 34.5625 8.28125 
Q 37.984375 10.453125 37.984375 14.40625 
Q 37.984375 18.0625 35.515625 20.015625 
Q 33.0625 21.96875 24.703125 23.78125 
L 21.578125 24.515625 
Q 13.234375 26.265625 9.515625 29.90625 
Q 5.8125 33.546875 5.8125 39.890625 
Q 5.8125 47.609375 11.28125 51.796875 
Q 16.75 56 26.8125 56 
Q 31.78125 56 36.171875 55.265625 
Q 40.578125 54.546875 44.28125 53.078125 
z
" id="DejaVuSans-115"/>
     <path d="M 18.109375 8.203125 
L 18.109375 -20.796875 
L 9.078125 -20.796875 
L 9.078125 54.6875 
L 18.109375 54.6875 
L 18.109375 46.390625 
Q 20.953125 51.265625 25.265625 53.625 
Q 29.59375 56 35.59375 56 
Q 45.5625 56 51.78125 48.09375 
Q 58.015625 40.1875 58.015625 27.296875 
Q 58.015625 14.40625 51.78125 6.484375 
Q 45.5625 -1.421875 35.59375 -1.421875 
Q 29.59375 -1.421875 25.265625 0.953125 
Q 20.953125 3.328125 18.109375 8.203125 
z
M 48.6875 27.296875 
Q 48.6875 37.203125 44.609375 42.84375 
Q 40.53125 48.484375 33.40625 48.484375 
Q 26.265625 48.484375 22.1875 42.84375 
Q 18.109375 37.203125 18.109375 27.296875 
Q 18.109375 17.390625 22.1875 11.75 
Q 26.265625 6.109375 33.40625 6.109375 
Q 40.53125 6.109375 44.609375 11.75 
Q 48.6875 17.390625 48.6875 27.296875 
z
" id="DejaVuSans-112"/>
     <path d="M 41.109375 46.296875 
Q 39.59375 47.171875 37.8125 47.578125 
Q 36.03125 48 33.890625 48 
Q 26.265625 48 22.1875 43.046875 
Q 18.109375 38.09375 18.109375 28.8125 
L 18.109375 0 
L 9.078125 0 
L 9.078125 54.6875 
L 18.109375 54.6875 
L 18.109375 46.1875 
Q 20.953125 51.171875 25.484375 53.578125 
Q 30.03125 56 36.53125 56 
Q 37.453125 56 38.578125 55.875 
Q 39.703125 55.765625 41.0625 55.515625 
z
" id="DejaVuSans-114"/>
     <path d="M 9.8125 72.90625 
L 24.515625 72.90625 
L 43.109375 23.296875 
L 61.8125 72.90625 
L 76.515625 72.90625 
L 76.515625 0 
L 66.890625 0 
L 66.890625 64.015625 
L 48.09375 14.015625 
L 38.1875 14.015625 
L 19.390625 64.015625 
L 19.390625 0 
L 9.8125 0 
z
" id="DejaVuSans-77"/>
     <path d="M 9.421875 54.6875 
L 18.40625 54.6875 
L 18.40625 0 
L 9.421875 0 
z
M 9.421875 75.984375 
L 18.40625 75.984375 
L 18.40625 64.59375 
L 9.421875 64.59375 
z
" id="DejaVuSans-105"/>
     <path d="M 9.421875 75.984375 
L 18.40625 75.984375 
L 18.40625 0 
L 9.421875 0 
z
" id="DejaVuSans-108"/>
     <path d="M 30.609375 48.390625 
Q 23.390625 48.390625 19.1875 42.75 
Q 14.984375 37.109375 14.984375 27.296875 
Q 14.984375 17.484375 19.15625 11.84375 
Q 23.34375 6.203125 30.609375 6.203125 
Q 37.796875 6.203125 41.984375 11.859375 
Q 46.1875 17.53125 46.1875 27.296875 
Q 46.1875 37.015625 41.984375 42.703125 
Q 37.796875 48.390625 30.609375 48.390625 
z
M 30.609375 56 
Q 42.328125 56 49.015625 48.375 
Q 55.71875 40.765625 55.71875 27.296875 
Q 55.71875 13.875 49.015625 6.21875 
Q 42.328125 -1.421875 30.609375 -1.421875 
Q 18.84375 -1.421875 12.171875 6.21875 
Q 5.515625 13.875 5.515625 27.296875 
Q 5.515625 40.765625 12.171875 48.375 
Q 18.84375 56 30.609375 56 
z
" id="DejaVuSans-111"/>
     <path d="M 54.890625 33.015625 
L 54.890625 0 
L 45.90625 0 
L 45.90625 32.71875 
Q 45.90625 40.484375 42.875 44.328125 
Q 39.84375 48.1875 33.796875 48.1875 
Q 26.515625 48.1875 22.3125 43.546875 
Q 18.109375 38.921875 18.109375 30.90625 
L 18.109375 0 
L 9.078125 0 
L 9.078125 54.6875 
L 18.109375 54.6875 
L 18.109375 46.1875 
Q 21.34375 51.125 25.703125 53.5625 
Q 30.078125 56 35.796875 56 
Q 45.21875 56 50.046875 50.171875 
Q 54.890625 44.34375 54.890625 33.015625 
z
" id="DejaVuSans-110"/>
     <path d="M 19.671875 64.796875 
L 19.671875 37.40625 
L 32.078125 37.40625 
Q 38.96875 37.40625 42.71875 40.96875 
Q 46.484375 44.53125 46.484375 51.125 
Q 46.484375 57.671875 42.71875 61.234375 
Q 38.96875 64.796875 32.078125 64.796875 
z
M 9.8125 72.90625 
L 32.078125 72.90625 
Q 44.34375 72.90625 50.609375 67.359375 
Q 56.890625 61.8125 56.890625 51.125 
Q 56.890625 40.328125 50.609375 34.8125 
Q 44.34375 29.296875 32.078125 29.296875 
L 19.671875 29.296875 
L 19.671875 0 
L 9.8125 0 
z
" id="DejaVuSans-80"/>
     <path d="M 8.5 21.578125 
L 8.5 54.6875 
L 17.484375 54.6875 
L 17.484375 21.921875 
Q 17.484375 14.15625 20.5 10.265625 
Q 23.53125 6.390625 29.59375 6.390625 
Q 36.859375 6.390625 41.078125 11.03125 
Q 45.3125 15.671875 45.3125 23.6875 
L 45.3125 54.6875 
L 54.296875 54.6875 
L 54.296875 0 
L 45.3125 0 
L 45.3125 8.40625 
Q 42.046875 3.421875 37.71875 1 
Q 33.40625 -1.421875 27.6875 -1.421875 
Q 18.265625 -1.421875 13.375 4.4375 
Q 8.5 10.296875 8.5 21.578125 
z
M 31.109375 56 
z
" id="DejaVuSans-117"/>
     <path d="M 31 75.875 
Q 24.46875 64.65625 21.28125 53.65625 
Q 18.109375 42.671875 18.109375 31.390625 
Q 18.109375 20.125 21.3125 9.0625 
Q 24.515625 -2 31 -13.1875 
L 23.1875 -13.1875 
Q 15.875 -1.703125 12.234375 9.375 
Q 8.59375 20.453125 8.59375 31.390625 
Q 8.59375 42.28125 12.203125 53.3125 
Q 15.828125 64.359375 23.1875 75.875 
z
" id="DejaVuSans-40"/>
     <path d="M 45.40625 46.390625 
L 45.40625 75.984375 
L 54.390625 75.984375 
L 54.390625 0 
L 45.40625 0 
L 45.40625 8.203125 
Q 42.578125 3.328125 38.25 0.953125 
Q 33.9375 -1.421875 27.875 -1.421875 
Q 17.96875 -1.421875 11.734375 6.484375 
Q 5.515625 14.40625 5.515625 27.296875 
Q 5.515625 40.1875 11.734375 48.09375 
Q 17.96875 56 27.875 56 
Q 33.9375 56 38.25 53.625 
Q 42.578125 51.265625 45.40625 46.390625 
z
M 14.796875 27.296875 
Q 14.796875 17.390625 18.875 11.75 
Q 22.953125 6.109375 30.078125 6.109375 
Q 37.203125 6.109375 41.296875 11.75 
Q 45.40625 17.390625 45.40625 27.296875 
Q 45.40625 37.203125 41.296875 42.84375 
Q 37.203125 48.484375 30.078125 48.484375 
Q 22.953125 48.484375 18.875 42.84375 
Q 14.796875 37.203125 14.796875 27.296875 
z
" id="DejaVuSans-100"/>
     <path d="M 32.171875 -5.078125 
Q 28.375 -14.84375 24.75 -17.8125 
Q 21.140625 -20.796875 15.09375 -20.796875 
L 7.90625 -20.796875 
L 7.90625 -13.28125 
L 13.1875 -13.28125 
Q 16.890625 -13.28125 18.9375 -11.515625 
Q 21 -9.765625 23.484375 -3.21875 
L 25.09375 0.875 
L 2.984375 54.6875 
L 12.5 54.6875 
L 29.59375 11.921875 
L 46.6875 54.6875 
L 56.203125 54.6875 
z
" id="DejaVuSans-121"/>
     <path d="M 45.40625 27.984375 
Q 45.40625 37.75 41.375 43.109375 
Q 37.359375 48.484375 30.078125 48.484375 
Q 22.859375 48.484375 18.828125 43.109375 
Q 14.796875 37.75 14.796875 27.984375 
Q 14.796875 18.265625 18.828125 12.890625 
Q 22.859375 7.515625 30.078125 7.515625 
Q 37.359375 7.515625 41.375 12.890625 
Q 45.40625 18.265625 45.40625 27.984375 
z
M 54.390625 6.78125 
Q 54.390625 -7.171875 48.1875 -13.984375 
Q 42 -20.796875 29.203125 -20.796875 
Q 24.46875 -20.796875 20.265625 -20.09375 
Q 16.0625 -19.390625 12.109375 -17.921875 
L 12.109375 -9.1875 
Q 16.0625 -11.328125 19.921875 -12.34375 
Q 23.78125 -13.375 27.78125 -13.375 
Q 36.625 -13.375 41.015625 -8.765625 
Q 45.40625 -4.15625 45.40625 5.171875 
L 45.40625 9.625 
Q 42.625 4.78125 38.28125 2.390625 
Q 33.9375 0 27.875 0 
Q 17.828125 0 11.671875 7.65625 
Q 5.515625 15.328125 5.515625 27.984375 
Q 5.515625 40.671875 11.671875 48.328125 
Q 17.828125 56 27.875 56 
Q 33.9375 56 38.28125 53.609375 
Q 42.625 51.21875 45.40625 46.390625 
L 45.40625 54.6875 
L 54.390625 54.6875 
z
" id="DejaVuSans-103"/>
     <path d="M 8.015625 75.875 
L 15.828125 75.875 
Q 23.140625 64.359375 26.78125 53.3125 
Q 30.421875 42.28125 30.421875 31.390625 
Q 30.421875 20.453125 26.78125 9.375 
Q 23.140625 -1.703125 15.828125 -13.1875 
L 8.015625 -13.1875 
Q 14.5 -2 17.703125 9.0625 
Q 20.90625 20.125 20.90625 31.390625 
Q 20.90625 42.671875 17.703125 53.65625 
Q 14.5 64.65625 8.015625 75.875 
z
" id="DejaVuSans-41"/>
    </defs>
    <g transform="translate(161.341753 20.8)scale(0.12 -0.12)">
     <use xlink:href="#DejaVuSans-78"/>
     <use x="74.804688" xlink:href="#DejaVuSans-101"/>
     <use x="136.328125" xlink:href="#DejaVuSans-119"/>
     <use x="218.115234" xlink:href="#DejaVuSans-32"/>
     <use x="249.902344" xlink:href="#DejaVuSans-67"/>
     <use x="319.726562" xlink:href="#DejaVuSans-97"/>
     <use x="381.005859" xlink:href="#DejaVuSans-115"/>
     <use x="433.105469" xlink:href="#DejaVuSans-101"/>
     <use x="494.628906" xlink:href="#DejaVuSans-115"/>
     <use x="546.728516" xlink:href="#DejaVuSans-32"/>
     <use x="578.515625" xlink:href="#DejaVuSans-112"/>
     <use x="641.992188" xlink:href="#DejaVuSans-101"/>
     <use x="703.515625" xlink:href="#DejaVuSans-114"/>
     <use x="744.628906" xlink:href="#DejaVuSans-32"/>
     <use x="776.416016" xlink:href="#DejaVuSans-77"/>
     <use x="862.695312" xlink:href="#DejaVuSans-105"/>
     <use x="890.478516" xlink:href="#DejaVuSans-108"/>
     <use x="918.261719" xlink:href="#DejaVuSans-108"/>
     <use x="946.044922" xlink:href="#DejaVuSans-105"/>
     <use x="973.828125" xlink:href="#DejaVuSans-111"/>
     <use x="1035.009766" xlink:href="#DejaVuSans-110"/>
     <use x="1098.388672" xlink:href="#DejaVuSans-32"/>
     <use x="1130.175781" xlink:href="#DejaVuSans-80"/>
     <use x="1186.853516" xlink:href="#DejaVuSans-111"/>
     <use x="1248.035156" xlink:href="#DejaVuSans-112"/>
     <use x="1311.511719" xlink:href="#DejaVuSans-117"/>
     <use x="1374.890625" xlink:href="#DejaVuSans-108"/>
     <use x="1402.673828" xlink:href="#DejaVuSans-97"/>
     <use x="1463.953125" xlink:href="#DejaVuSans-116"/>
     <use x="1503.162109" xlink:href="#DejaVuSans-105"/>
     <use x="1530.945312" xlink:href="#DejaVuSans-111"/>
     <use x="1592.126953" xlink:href="#DejaVuSans-110"/>
     <use x="1655.505859" xlink:href="#DejaVuSans-32"/>
     <use x="1687.292969" xlink:href="#DejaVuSans-40"/>
     <use x="1726.306641" xlink:href="#DejaVuSans-55"/>
     <use x="1789.929688" xlink:href="#DejaVuSans-32"/>
     <use x="1821.716797" xlink:href="#DejaVuSans-100"/>
     <use x="1885.193359" xlink:href="#DejaVuSans-97"/>
     <use x="1946.472656" xlink:href="#DejaVuSans-121"/>
     <use x="2005.652344" xlink:href="#DejaVuSans-32"/>
     <use x="2037.439453" xlink:href="#DejaVuSans-114"/>
     <use x="2076.302734" xlink:href="#DejaVuSans-111"/>
     <use x="2137.484375" xlink:href="#DejaVuSans-108"/>
     <use x="2165.267578" xlink:href="#DejaVuSans-108"/>
     <use x="2193.050781" xlink:href="#DejaVuSans-105"/>
     <use x="2220.833984" xlink:href="#DejaVuSans-110"/>
     <use x="2284.212891" xlink:href="#DejaVuSans-103"/>
     <use x="2347.689453" xlink:href="#DejaVuSans-41"/>
    </g>
   </g>
   <g id="legend_1">
    <g id="patch_7">
     <path d="M 50.88788 93.5125 
L 165.042568 93.5125 
Q 167.042568 93.5125 167.042568 91.5125 
L 167.042568 33.8 
Q 167.042568 31.8 165.042568 31.8 
L 50.88788 31.8 
Q 48.88788 31.8 48.88788 33.8 
L 48.88788 91.5125 
Q 48.88788 93.5125 50.88788 93.5125 
z
" style="fill:#ffffff;opacity:0.8;stroke:#cccccc;stroke-linejoin:miter;stroke-width:0.3;"/>
    </g>
    <g id="line2d_20">
     <path d="M 52.88788 39.898438 
L 72.88788 39.898438 
" style="fill:none;stroke:#1f77b4;stroke-linecap:square;stroke-width:1.75;"/>
    </g>
    <g id="line2d_21"/>
    <g id="text_18">
     <!-- England -->
     <defs>
      <path d="M 9.8125 72.90625 
L 55.90625 72.90625 
L 55.90625 64.59375 
L 19.671875 64.59375 
L 19.671875 43.015625 
L 54.390625 43.015625 
L 54.390625 34.71875 
L 19.671875 34.71875 
L 19.671875 8.296875 
L 56.78125 8.296875 
L 56.78125 0 
L 9.8125 0 
z
" id="DejaVuSans-69"/>
     </defs>
     <g transform="translate(80.88788 43.398438)scale(0.1 -0.1)">
      <use xlink:href="#DejaVuSans-69"/>
      <use x="63.183594" xlink:href="#DejaVuSans-110"/>
      <use x="126.5625" xlink:href="#DejaVuSans-103"/>
      <use x="190.039062" xlink:href="#DejaVuSans-108"/>
      <use x="217.822266" xlink:href="#DejaVuSans-97"/>
      <use x="279.101562" xlink:href="#DejaVuSans-110"/>
      <use x="342.480469" xlink:href="#DejaVuSans-100"/>
     </g>
    </g>
    <g id="line2d_22">
     <path d="M 52.88788 54.576563 
L 72.88788 54.576563 
" style="fill:none;stroke:#ff7f0e;stroke-linecap:square;stroke-width:1.75;"/>
    </g>
    <g id="line2d_23"/>
    <g id="text_19">
     <!-- Scotland -->
     <defs>
      <path d="M 53.515625 70.515625 
L 53.515625 60.890625 
Q 47.90625 63.578125 42.921875 64.890625 
Q 37.9375 66.21875 33.296875 66.21875 
Q 25.25 66.21875 20.875 63.09375 
Q 16.5 59.96875 16.5 54.203125 
Q 16.5 49.359375 19.40625 46.890625 
Q 22.3125 44.4375 30.421875 42.921875 
L 36.375 41.703125 
Q 47.40625 39.59375 52.65625 34.296875 
Q 57.90625 29 57.90625 20.125 
Q 57.90625 9.515625 50.796875 4.046875 
Q 43.703125 -1.421875 29.984375 -1.421875 
Q 24.8125 -1.421875 18.96875 -0.25 
Q 13.140625 0.921875 6.890625 3.21875 
L 6.890625 13.375 
Q 12.890625 10.015625 18.65625 8.296875 
Q 24.421875 6.59375 29.984375 6.59375 
Q 38.421875 6.59375 43.015625 9.90625 
Q 47.609375 13.234375 47.609375 19.390625 
Q 47.609375 24.75 44.3125 27.78125 
Q 41.015625 30.8125 33.5 32.328125 
L 27.484375 33.5 
Q 16.453125 35.6875 11.515625 40.375 
Q 6.59375 45.0625 6.59375 53.421875 
Q 6.59375 63.09375 13.40625 68.65625 
Q 20.21875 74.21875 32.171875 74.21875 
Q 37.3125 74.21875 42.625 73.28125 
Q 47.953125 72.359375 53.515625 70.515625 
z
" id="DejaVuSans-83"/>
      <path d="M 48.78125 52.59375 
L 48.78125 44.1875 
Q 44.96875 46.296875 41.140625 47.34375 
Q 37.3125 48.390625 33.40625 48.390625 
Q 24.65625 48.390625 19.8125 42.84375 
Q 14.984375 37.3125 14.984375 27.296875 
Q 14.984375 17.28125 19.8125 11.734375 
Q 24.65625 6.203125 33.40625 6.203125 
Q 37.3125 6.203125 41.140625 7.25 
Q 44.96875 8.296875 48.78125 10.40625 
L 48.78125 2.09375 
Q 45.015625 0.34375 40.984375 -0.53125 
Q 36.96875 -1.421875 32.421875 -1.421875 
Q 20.0625 -1.421875 12.78125 6.34375 
Q 5.515625 14.109375 5.515625 27.296875 
Q 5.515625 40.671875 12.859375 48.328125 
Q 20.21875 56 33.015625 56 
Q 37.15625 56 41.109375 55.140625 
Q 45.0625 54.296875 48.78125 52.59375 
z
" id="DejaVuSans-99"/>
     </defs>
     <g transform="translate(80.88788 58.076563)scale(0.1 -0.1)">
      <use xlink:href="#DejaVuSans-83"/>
      <use x="63.476562" xlink:href="#DejaVuSans-99"/>
      <use x="118.457031" xlink:href="#DejaVuSans-111"/>
      <use x="179.638672" xlink:href="#DejaVuSans-116"/>
      <use x="218.847656" xlink:href="#DejaVuSans-108"/>
      <use x="246.630859" xlink:href="#DejaVuSans-97"/>
      <use x="307.910156" xlink:href="#DejaVuSans-110"/>
      <use x="371.289062" xlink:href="#DejaVuSans-100"/>
     </g>
    </g>
    <g id="line2d_24">
     <path d="M 52.88788 69.254688 
L 72.88788 69.254688 
" style="fill:none;stroke:#2ca02c;stroke-linecap:square;stroke-width:1.75;"/>
    </g>
    <g id="line2d_25"/>
    <g id="text_20">
     <!-- Wales -->
     <defs>
      <path d="M 3.328125 72.90625 
L 13.28125 72.90625 
L 28.609375 11.28125 
L 43.890625 72.90625 
L 54.984375 72.90625 
L 70.3125 11.28125 
L 85.59375 72.90625 
L 95.609375 72.90625 
L 77.296875 0 
L 64.890625 0 
L 49.515625 63.28125 
L 33.984375 0 
L 21.578125 0 
z
" id="DejaVuSans-87"/>
     </defs>
     <g transform="translate(80.88788 72.754688)scale(0.1 -0.1)">
      <use xlink:href="#DejaVuSans-87"/>
      <use x="92.501953" xlink:href="#DejaVuSans-97"/>
      <use x="153.78125" xlink:href="#DejaVuSans-108"/>
      <use x="181.564453" xlink:href="#DejaVuSans-101"/>
      <use x="243.087891" xlink:href="#DejaVuSans-115"/>
     </g>
    </g>
    <g id="line2d_26">
     <path d="M 52.88788 83.932813 
L 72.88788 83.932813 
" style="fill:none;stroke:#d62728;stroke-linecap:square;stroke-width:1.75;"/>
    </g>
    <g id="line2d_27"/>
    <g id="text_21">
     <!-- Northern Ireland -->
     <defs>
      <path d="M 54.890625 33.015625 
L 54.890625 0 
L 45.90625 0 
L 45.90625 32.71875 
Q 45.90625 40.484375 42.875 44.328125 
Q 39.84375 48.1875 33.796875 48.1875 
Q 26.515625 48.1875 22.3125 43.546875 
Q 18.109375 38.921875 18.109375 30.90625 
L 18.109375 0 
L 9.078125 0 
L 9.078125 75.984375 
L 18.109375 75.984375 
L 18.109375 46.1875 
Q 21.34375 51.125 25.703125 53.5625 
Q 30.078125 56 35.796875 56 
Q 45.21875 56 50.046875 50.171875 
Q 54.890625 44.34375 54.890625 33.015625 
z
" id="DejaVuSans-104"/>
      <path d="M 9.8125 72.90625 
L 19.671875 72.90625 
L 19.671875 0 
L 9.8125 0 
z
" id="DejaVuSans-73"/>
     </defs>
     <g transform="translate(80.88788 87.432813)scale(0.1 -0.1)">
      <use xlink:href="#DejaVuSans-78"/>
      <use x="74.804688" xlink:href="#DejaVuSans-111"/>
      <use x="135.986328" xlink:href="#DejaVuSans-114"/>
      <use x="177.099609" xlink:href="#DejaVuSans-116"/>
      <use x="216.308594" xlink:href="#DejaVuSans-104"/>
      <use x="279.6875" xlink:href="#DejaVuSans-101"/>
      <use x="341.210938" xlink:href="#DejaVuSans-114"/>
      <use x="380.574219" xlink:href="#DejaVuSans-110"/>
      <use x="443.953125" xlink:href="#DejaVuSans-32"/>
      <use x="475.740234" xlink:href="#DejaVuSans-73"/>
      <use x="505.232422" xlink:href="#DejaVuSans-114"/>
      <use x="544.095703" xlink:href="#DejaVuSans-101"/>
      <use x="605.619141" xlink:href="#DejaVuSans-108"/>
      <use x="633.402344" xlink:href="#DejaVuSans-97"/>
      <use x="694.681641" xlink:href="#DejaVuSans-110"/>
      <use x="758.060547" xlink:href="#DejaVuSans-100"/>
     </g>
    </g>
   </g>
  </g>
 </g>
 <defs>
  <clipPath id="pddf44e45c7">
   <rect height="304.302246" width="521.31212" x="43.88788" y="26.8"/>
  </clipPath>
 </defs>
</svg>
