<?xml version="1.0" encoding="utf-8" standalone="no"?>
<!DOCTYPE svg PUBLIC "-//W3C//DTD SVG 1.1//EN"
  "http://www.w3.org/Graphics/SVG/1.1/DTD/svg11.dtd">
<!-- Created with matplotlib (https://matplotlib.org/) -->
<svg height="396pt" version="1.1" viewBox="0 0 576 396" width="576pt" xmlns="http://www.w3.org/2000/svg" xmlns:xlink="http://www.w3.org/1999/xlink">
 <defs>
  <style type="text/css">
*{stroke-linecap:butt;stroke-linejoin:round;}
  </style>
 </defs>
 <g id="figure_1">
  <g id="patch_1">
   <path d="M 0 396 
L 576 396 
L 576 0 
L 0 0 
z
" style="fill:#ffffff;"/>
  </g>
  <g id="axes_1">
   <g id="patch_2">
    <path d="M 72 346.5 
L 518.4 346.5 
L 518.4 47.52 
L 72 47.52 
z
" style="fill:#ffffff;"/>
   </g>
   <g id="matplotlib.axis_1">
    <g id="xtick_1">
     <g id="line2d_1">
      <defs>
       <path d="M 0 0 
L 0 3.5 
" id="mccd256beb4" style="stroke:#000000;"/>
      </defs>
      <g>
       <use style="stroke:#000000;" x="79.804196" xlink:href="#mccd256beb4" y="346.5"/>
      </g>
     </g>
     <g id="text_1">
      <!-- 2020-01 -->
      <defs>
       <path d="M 19.1875 8.296875 
L 53.609375 8.296875 
L 53.609375 0 
L 7.328125 0 
L 7.328125 8.296875 
Q 12.9375 14.109375 22.625 23.890625 
Q 32.328125 33.6875 34.8125 36.53125 
Q 39.546875 41.84375 41.421875 45.53125 
Q 43.3125 49.21875 43.3125 52.78125 
Q 43.3125 58.59375 39.234375 62.25 
Q 35.15625 65.921875 28.609375 65.921875 
Q 23.96875 65.921875 18.8125 64.3125 
Q 13.671875 62.703125 7.8125 59.421875 
L 7.8125 69.390625 
Q 13.765625 71.78125 18.9375 73 
Q 24.125 74.21875 28.421875 74.21875 
Q 39.75 74.21875 46.484375 68.546875 
Q 53.21875 62.890625 53.21875 53.421875 
Q 53.21875 48.921875 51.53125 44.890625 
Q 49.859375 40.875 45.40625 35.40625 
Q 44.1875 33.984375 37.640625 27.21875 
Q 31.109375 20.453125 19.1875 8.296875 
z
" id="DejaVuSans-50"/>
       <path d="M 31.78125 66.40625 
Q 24.171875 66.40625 20.328125 58.90625 
Q 16.5 51.421875 16.5 36.375 
Q 16.5 21.390625 20.328125 13.890625 
Q 24.171875 6.390625 31.78125 6.390625 
Q 39.453125 6.390625 43.28125 13.890625 
Q 47.125 21.390625 47.125 36.375 
Q 47.125 51.421875 43.28125 58.90625 
Q 39.453125 66.40625 31.78125 66.40625 
z
M 31.78125 74.21875 
Q 44.046875 74.21875 50.515625 64.515625 
Q 56.984375 54.828125 56.984375 36.375 
Q 56.984375 17.96875 50.515625 8.265625 
Q 44.046875 -1.421875 31.78125 -1.421875 
Q 19.53125 -1.421875 13.0625 8.265625 
Q 6.59375 17.96875 6.59375 36.375 
Q 6.59375 54.828125 13.0625 64.515625 
Q 19.53125 74.21875 31.78125 74.21875 
z
" id="DejaVuSans-48"/>
       <path d="M 4.890625 31.390625 
L 31.203125 31.390625 
L 31.203125 23.390625 
L 4.890625 23.390625 
z
" id="DejaVuSans-45"/>
       <path d="M 12.40625 8.296875 
L 28.515625 8.296875 
L 28.515625 63.921875 
L 10.984375 60.40625 
L 10.984375 69.390625 
L 28.421875 72.90625 
L 38.28125 72.90625 
L 38.28125 8.296875 
L 54.390625 8.296875 
L 54.390625 0 
L 12.40625 0 
z
" id="DejaVuSans-49"/>
      </defs>
      <g transform="translate(42.579375 384.471846)rotate(-30)scale(0.1 -0.1)">
       <use xlink:href="#DejaVuSans-50"/>
       <use x="63.623047" xlink:href="#DejaVuSans-48"/>
       <use x="127.246094" xlink:href="#DejaVuSans-50"/>
       <use x="190.869141" xlink:href="#DejaVuSans-48"/>
       <use x="254.492188" xlink:href="#DejaVuSans-45"/>
       <use x="290.576172" xlink:href="#DejaVuSans-48"/>
       <use x="354.199219" xlink:href="#DejaVuSans-49"/>
      </g>
     </g>
    </g>
    <g id="xtick_2">
     <g id="line2d_2">
      <g>
       <use style="stroke:#000000;" x="128.19021" xlink:href="#mccd256beb4" y="346.5"/>
      </g>
     </g>
     <g id="text_2">
      <!-- 2020-02 -->
      <g transform="translate(90.965389 384.471846)rotate(-30)scale(0.1 -0.1)">
       <use xlink:href="#DejaVuSans-50"/>
       <use x="63.623047" xlink:href="#DejaVuSans-48"/>
       <use x="127.246094" xlink:href="#DejaVuSans-50"/>
       <use x="190.869141" xlink:href="#DejaVuSans-48"/>
       <use x="254.492188" xlink:href="#DejaVuSans-45"/>
       <use x="290.576172" xlink:href="#DejaVuSans-48"/>
       <use x="354.199219" xlink:href="#DejaVuSans-50"/>
      </g>
     </g>
    </g>
    <g id="xtick_3">
     <g id="line2d_3">
      <g>
       <use style="stroke:#000000;" x="173.454545" xlink:href="#mccd256beb4" y="346.5"/>
      </g>
     </g>
     <g id="text_3">
      <!-- 2020-03 -->
      <defs>
       <path d="M 40.578125 39.3125 
Q 47.65625 37.796875 51.625 33 
Q 55.609375 28.21875 55.609375 21.1875 
Q 55.609375 10.40625 48.1875 4.484375 
Q 40.765625 -1.421875 27.09375 -1.421875 
Q 22.515625 -1.421875 17.65625 -0.515625 
Q 12.796875 0.390625 7.625 2.203125 
L 7.625 11.71875 
Q 11.71875 9.328125 16.59375 8.109375 
Q 21.484375 6.890625 26.8125 6.890625 
Q 36.078125 6.890625 40.9375 10.546875 
Q 45.796875 14.203125 45.796875 21.1875 
Q 45.796875 27.640625 41.28125 31.265625 
Q 36.765625 34.90625 28.71875 34.90625 
L 20.21875 34.90625 
L 20.21875 43.015625 
L 29.109375 43.015625 
Q 36.375 43.015625 40.234375 45.921875 
Q 44.09375 48.828125 44.09375 54.296875 
Q 44.09375 59.90625 40.109375 62.90625 
Q 36.140625 65.921875 28.71875 65.921875 
Q 24.65625 65.921875 20.015625 65.03125 
Q 15.375 64.15625 9.8125 62.3125 
L 9.8125 71.09375 
Q 15.4375 72.65625 20.34375 73.4375 
Q 25.25 74.21875 29.59375 74.21875 
Q 40.828125 74.21875 47.359375 69.109375 
Q 53.90625 64.015625 53.90625 55.328125 
Q 53.90625 49.265625 50.4375 45.09375 
Q 46.96875 40.921875 40.578125 39.3125 
z
" id="DejaVuSans-51"/>
      </defs>
      <g transform="translate(136.229725 384.471846)rotate(-30)scale(0.1 -0.1)">
       <use xlink:href="#DejaVuSans-50"/>
       <use x="63.623047" xlink:href="#DejaVuSans-48"/>
       <use x="127.246094" xlink:href="#DejaVuSans-50"/>
       <use x="190.869141" xlink:href="#DejaVuSans-48"/>
       <use x="254.492188" xlink:href="#DejaVuSans-45"/>
       <use x="290.576172" xlink:href="#DejaVuSans-48"/>
       <use x="354.199219" xlink:href="#DejaVuSans-51"/>
      </g>
     </g>
    </g>
    <g id="xtick_4">
     <g id="line2d_4">
      <g>
       <use style="stroke:#000000;" x="221.840559" xlink:href="#mccd256beb4" y="346.5"/>
      </g>
     </g>
     <g id="text_4">
      <!-- 2020-04 -->
      <defs>
       <path d="M 37.796875 64.3125 
L 12.890625 25.390625 
L 37.796875 25.390625 
z
M 35.203125 72.90625 
L 47.609375 72.90625 
L 47.609375 25.390625 
L 58.015625 25.390625 
L 58.015625 17.1875 
L 47.609375 17.1875 
L 47.609375 0 
L 37.796875 0 
L 37.796875 17.1875 
L 4.890625 17.1875 
L 4.890625 26.703125 
z
" id="DejaVuSans-52"/>
      </defs>
      <g transform="translate(184.615739 384.471846)rotate(-30)scale(0.1 -0.1)">
       <use xlink:href="#DejaVuSans-50"/>
       <use x="63.623047" xlink:href="#DejaVuSans-48"/>
       <use x="127.246094" xlink:href="#DejaVuSans-50"/>
       <use x="190.869141" xlink:href="#DejaVuSans-48"/>
       <use x="254.492188" xlink:href="#DejaVuSans-45"/>
       <use x="290.576172" xlink:href="#DejaVuSans-48"/>
       <use x="354.199219" xlink:href="#DejaVuSans-52"/>
      </g>
     </g>
    </g>
    <g id="xtick_5">
     <g id="line2d_5">
      <g>
       <use style="stroke:#000000;" x="268.665734" xlink:href="#mccd256beb4" y="346.5"/>
      </g>
     </g>
     <g id="text_5">
      <!-- 2020-05 -->
      <defs>
       <path d="M 10.796875 72.90625 
L 49.515625 72.90625 
L 49.515625 64.59375 
L 19.828125 64.59375 
L 19.828125 46.734375 
Q 21.96875 47.46875 24.109375 47.828125 
Q 26.265625 48.1875 28.421875 48.1875 
Q 40.625 48.1875 47.75 41.5 
Q 54.890625 34.8125 54.890625 23.390625 
Q 54.890625 11.625 47.5625 5.09375 
Q 40.234375 -1.421875 26.90625 -1.421875 
Q 22.3125 -1.421875 17.546875 -0.640625 
Q 12.796875 0.140625 7.71875 1.703125 
L 7.71875 11.625 
Q 12.109375 9.234375 16.796875 8.0625 
Q 21.484375 6.890625 26.703125 6.890625 
Q 35.15625 6.890625 40.078125 11.328125 
Q 45.015625 15.765625 45.015625 23.390625 
Q 45.015625 31 40.078125 35.4375 
Q 35.15625 39.890625 26.703125 39.890625 
Q 22.75 39.890625 18.8125 39.015625 
Q 14.890625 38.140625 10.796875 36.28125 
z
" id="DejaVuSans-53"/>
      </defs>
      <g transform="translate(231.440913 384.471846)rotate(-30)scale(0.1 -0.1)">
       <use xlink:href="#DejaVuSans-50"/>
       <use x="63.623047" xlink:href="#DejaVuSans-48"/>
       <use x="127.246094" xlink:href="#DejaVuSans-50"/>
       <use x="190.869141" xlink:href="#DejaVuSans-48"/>
       <use x="254.492188" xlink:href="#DejaVuSans-45"/>
       <use x="290.576172" xlink:href="#DejaVuSans-48"/>
       <use x="354.199219" xlink:href="#DejaVuSans-53"/>
      </g>
     </g>
    </g>
    <g id="xtick_6">
     <g id="line2d_6">
      <g>
       <use style="stroke:#000000;" x="317.051748" xlink:href="#mccd256beb4" y="346.5"/>
      </g>
     </g>
     <g id="text_6">
      <!-- 2020-06 -->
      <defs>
       <path d="M 33.015625 40.375 
Q 26.375 40.375 22.484375 35.828125 
Q 18.609375 31.296875 18.609375 23.390625 
Q 18.609375 15.53125 22.484375 10.953125 
Q 26.375 6.390625 33.015625 6.390625 
Q 39.65625 6.390625 43.53125 10.953125 
Q 47.40625 15.53125 47.40625 23.390625 
Q 47.40625 31.296875 43.53125 35.828125 
Q 39.65625 40.375 33.015625 40.375 
z
M 52.59375 71.296875 
L 52.59375 62.3125 
Q 48.875 64.0625 45.09375 64.984375 
Q 41.3125 65.921875 37.59375 65.921875 
Q 27.828125 65.921875 22.671875 59.328125 
Q 17.53125 52.734375 16.796875 39.40625 
Q 19.671875 43.65625 24.015625 45.921875 
Q 28.375 48.1875 33.59375 48.1875 
Q 44.578125 48.1875 50.953125 41.515625 
Q 57.328125 34.859375 57.328125 23.390625 
Q 57.328125 12.15625 50.6875 5.359375 
Q 44.046875 -1.421875 33.015625 -1.421875 
Q 20.359375 -1.421875 13.671875 8.265625 
Q 6.984375 17.96875 6.984375 36.375 
Q 6.984375 53.65625 15.1875 63.9375 
Q 23.390625 74.21875 37.203125 74.21875 
Q 40.921875 74.21875 44.703125 73.484375 
Q 48.484375 72.75 52.59375 71.296875 
z
" id="DejaVuSans-54"/>
      </defs>
      <g transform="translate(279.826927 384.471846)rotate(-30)scale(0.1 -0.1)">
       <use xlink:href="#DejaVuSans-50"/>
       <use x="63.623047" xlink:href="#DejaVuSans-48"/>
       <use x="127.246094" xlink:href="#DejaVuSans-50"/>
       <use x="190.869141" xlink:href="#DejaVuSans-48"/>
       <use x="254.492188" xlink:href="#DejaVuSans-45"/>
       <use x="290.576172" xlink:href="#DejaVuSans-48"/>
       <use x="354.199219" xlink:href="#DejaVuSans-54"/>
      </g>
     </g>
    </g>
    <g id="xtick_7">
     <g id="line2d_7">
      <g>
       <use style="stroke:#000000;" x="363.876923" xlink:href="#mccd256beb4" y="346.5"/>
      </g>
     </g>
     <g id="text_7">
      <!-- 2020-07 -->
      <defs>
       <path d="M 8.203125 72.90625 
L 55.078125 72.90625 
L 55.078125 68.703125 
L 28.609375 0 
L 18.3125 0 
L 43.21875 64.59375 
L 8.203125 64.59375 
z
" id="DejaVuSans-55"/>
      </defs>
      <g transform="translate(326.652102 384.471846)rotate(-30)scale(0.1 -0.1)">
       <use xlink:href="#DejaVuSans-50"/>
       <use x="63.623047" xlink:href="#DejaVuSans-48"/>
       <use x="127.246094" xlink:href="#DejaVuSans-50"/>
       <use x="190.869141" xlink:href="#DejaVuSans-48"/>
       <use x="254.492188" xlink:href="#DejaVuSans-45"/>
       <use x="290.576172" xlink:href="#DejaVuSans-48"/>
       <use x="354.199219" xlink:href="#DejaVuSans-55"/>
      </g>
     </g>
    </g>
    <g id="xtick_8">
     <g id="line2d_8">
      <g>
       <use style="stroke:#000000;" x="412.262937" xlink:href="#mccd256beb4" y="346.5"/>
      </g>
     </g>
     <g id="text_8">
      <!-- 2020-08 -->
      <defs>
       <path d="M 31.78125 34.625 
Q 24.75 34.625 20.71875 30.859375 
Q 16.703125 27.09375 16.703125 20.515625 
Q 16.703125 13.921875 20.71875 10.15625 
Q 24.75 6.390625 31.78125 6.390625 
Q 38.8125 6.390625 42.859375 10.171875 
Q 46.921875 13.96875 46.921875 20.515625 
Q 46.921875 27.09375 42.890625 30.859375 
Q 38.875 34.625 31.78125 34.625 
z
M 21.921875 38.8125 
Q 15.578125 40.375 12.03125 44.71875 
Q 8.5 49.078125 8.5 55.328125 
Q 8.5 64.0625 14.71875 69.140625 
Q 20.953125 74.21875 31.78125 74.21875 
Q 42.671875 74.21875 48.875 69.140625 
Q 55.078125 64.0625 55.078125 55.328125 
Q 55.078125 49.078125 51.53125 44.71875 
Q 48 40.375 41.703125 38.8125 
Q 48.828125 37.15625 52.796875 32.3125 
Q 56.78125 27.484375 56.78125 20.515625 
Q 56.78125 9.90625 50.3125 4.234375 
Q 43.84375 -1.421875 31.78125 -1.421875 
Q 19.734375 -1.421875 13.25 4.234375 
Q 6.78125 9.90625 6.78125 20.515625 
Q 6.78125 27.484375 10.78125 32.3125 
Q 14.796875 37.15625 21.921875 38.8125 
z
M 18.3125 54.390625 
Q 18.3125 48.734375 21.84375 45.5625 
Q 25.390625 42.390625 31.78125 42.390625 
Q 38.140625 42.390625 41.71875 45.5625 
Q 45.3125 48.734375 45.3125 54.390625 
Q 45.3125 60.0625 41.71875 63.234375 
Q 38.140625 66.40625 31.78125 66.40625 
Q 25.390625 66.40625 21.84375 63.234375 
Q 18.3125 60.0625 18.3125 54.390625 
z
" id="DejaVuSans-56"/>
      </defs>
      <g transform="translate(375.038116 384.471846)rotate(-30)scale(0.1 -0.1)">
       <use xlink:href="#DejaVuSans-50"/>
       <use x="63.623047" xlink:href="#DejaVuSans-48"/>
       <use x="127.246094" xlink:href="#DejaVuSans-50"/>
       <use x="190.869141" xlink:href="#DejaVuSans-48"/>
       <use x="254.492188" xlink:href="#DejaVuSans-45"/>
       <use x="290.576172" xlink:href="#DejaVuSans-48"/>
       <use x="354.199219" xlink:href="#DejaVuSans-56"/>
      </g>
     </g>
    </g>
    <g id="xtick_9">
     <g id="line2d_9">
      <g>
       <use style="stroke:#000000;" x="460.648951" xlink:href="#mccd256beb4" y="346.5"/>
      </g>
     </g>
     <g id="text_9">
      <!-- 2020-09 -->
      <defs>
       <path d="M 10.984375 1.515625 
L 10.984375 10.5 
Q 14.703125 8.734375 18.5 7.8125 
Q 22.3125 6.890625 25.984375 6.890625 
Q 35.75 6.890625 40.890625 13.453125 
Q 46.046875 20.015625 46.78125 33.40625 
Q 43.953125 29.203125 39.59375 26.953125 
Q 35.25 24.703125 29.984375 24.703125 
Q 19.046875 24.703125 12.671875 31.3125 
Q 6.296875 37.9375 6.296875 49.421875 
Q 6.296875 60.640625 12.9375 67.421875 
Q 19.578125 74.21875 30.609375 74.21875 
Q 43.265625 74.21875 49.921875 64.515625 
Q 56.59375 54.828125 56.59375 36.375 
Q 56.59375 19.140625 48.40625 8.859375 
Q 40.234375 -1.421875 26.421875 -1.421875 
Q 22.703125 -1.421875 18.890625 -0.6875 
Q 15.09375 0.046875 10.984375 1.515625 
z
M 30.609375 32.421875 
Q 37.25 32.421875 41.125 36.953125 
Q 45.015625 41.5 45.015625 49.421875 
Q 45.015625 57.28125 41.125 61.84375 
Q 37.25 66.40625 30.609375 66.40625 
Q 23.96875 66.40625 20.09375 61.84375 
Q 16.21875 57.28125 16.21875 49.421875 
Q 16.21875 41.5 20.09375 36.953125 
Q 23.96875 32.421875 30.609375 32.421875 
z
" id="DejaVuSans-57"/>
      </defs>
      <g transform="translate(423.42413 384.471846)rotate(-30)scale(0.1 -0.1)">
       <use xlink:href="#DejaVuSans-50"/>
       <use x="63.623047" xlink:href="#DejaVuSans-48"/>
       <use x="127.246094" xlink:href="#DejaVuSans-50"/>
       <use x="190.869141" xlink:href="#DejaVuSans-48"/>
       <use x="254.492188" xlink:href="#DejaVuSans-45"/>
       <use x="290.576172" xlink:href="#DejaVuSans-48"/>
       <use x="354.199219" xlink:href="#DejaVuSans-57"/>
      </g>
     </g>
    </g>
    <g id="xtick_10">
     <g id="line2d_10">
      <g>
       <use style="stroke:#000000;" x="507.474126" xlink:href="#mccd256beb4" y="346.5"/>
      </g>
     </g>
     <g id="text_10">
      <!-- 2020-10 -->
      <g transform="translate(470.249305 384.471846)rotate(-30)scale(0.1 -0.1)">
       <use xlink:href="#DejaVuSans-50"/>
       <use x="63.623047" xlink:href="#DejaVuSans-48"/>
       <use x="127.246094" xlink:href="#DejaVuSans-50"/>
       <use x="190.869141" xlink:href="#DejaVuSans-48"/>
       <use x="254.492188" xlink:href="#DejaVuSans-45"/>
       <use x="290.576172" xlink:href="#DejaVuSans-49"/>
       <use x="354.199219" xlink:href="#DejaVuSans-48"/>
      </g>
     </g>
    </g>
    <g id="text_11">
     <!-- Date -->
     <defs>
      <path d="M 19.671875 64.796875 
L 19.671875 8.109375 
L 31.59375 8.109375 
Q 46.6875 8.109375 53.6875 14.9375 
Q 60.6875 21.78125 60.6875 36.53125 
Q 60.6875 51.171875 53.6875 57.984375 
Q 46.6875 64.796875 31.59375 64.796875 
z
M 9.8125 72.90625 
L 30.078125 72.90625 
Q 51.265625 72.90625 61.171875 64.09375 
Q 71.09375 55.28125 71.09375 36.53125 
Q 71.09375 17.671875 61.125 8.828125 
Q 51.171875 0 30.078125 0 
L 9.8125 0 
z
" id="DejaVuSans-68"/>
      <path d="M 34.28125 27.484375 
Q 23.390625 27.484375 19.1875 25 
Q 14.984375 22.515625 14.984375 16.5 
Q 14.984375 11.71875 18.140625 8.90625 
Q 21.296875 6.109375 26.703125 6.109375 
Q 34.1875 6.109375 38.703125 11.40625 
Q 43.21875 16.703125 43.21875 25.484375 
L 43.21875 27.484375 
z
M 52.203125 31.203125 
L 52.203125 0 
L 43.21875 0 
L 43.21875 8.296875 
Q 40.140625 3.328125 35.546875 0.953125 
Q 30.953125 -1.421875 24.3125 -1.421875 
Q 15.921875 -1.421875 10.953125 3.296875 
Q 6 8.015625 6 15.921875 
Q 6 25.140625 12.171875 29.828125 
Q 18.359375 34.515625 30.609375 34.515625 
L 43.21875 34.515625 
L 43.21875 35.40625 
Q 43.21875 41.609375 39.140625 45 
Q 35.0625 48.390625 27.6875 48.390625 
Q 23 48.390625 18.546875 47.265625 
Q 14.109375 46.140625 10.015625 43.890625 
L 10.015625 52.203125 
Q 14.9375 54.109375 19.578125 55.046875 
Q 24.21875 56 28.609375 56 
Q 40.484375 56 46.34375 49.84375 
Q 52.203125 43.703125 52.203125 31.203125 
z
" id="DejaVuSans-97"/>
      <path d="M 18.3125 70.21875 
L 18.3125 54.6875 
L 36.8125 54.6875 
L 36.8125 47.703125 
L 18.3125 47.703125 
L 18.3125 18.015625 
Q 18.3125 11.328125 20.140625 9.421875 
Q 21.96875 7.515625 27.59375 7.515625 
L 36.8125 7.515625 
L 36.8125 0 
L 27.59375 0 
Q 17.1875 0 13.234375 3.875 
Q 9.28125 7.765625 9.28125 18.015625 
L 9.28125 47.703125 
L 2.6875 47.703125 
L 2.6875 54.6875 
L 9.28125 54.6875 
L 9.28125 70.21875 
z
" id="DejaVuSans-116"/>
      <path d="M 56.203125 29.59375 
L 56.203125 25.203125 
L 14.890625 25.203125 
Q 15.484375 15.921875 20.484375 11.0625 
Q 25.484375 6.203125 34.421875 6.203125 
Q 39.59375 6.203125 44.453125 7.46875 
Q 49.3125 8.734375 54.109375 11.28125 
L 54.109375 2.78125 
Q 49.265625 0.734375 44.1875 -0.34375 
Q 39.109375 -1.421875 33.890625 -1.421875 
Q 20.796875 -1.421875 13.15625 6.1875 
Q 5.515625 13.8125 5.515625 26.8125 
Q 5.515625 40.234375 12.765625 48.109375 
Q 20.015625 56 32.328125 56 
Q 43.359375 56 49.78125 48.890625 
Q 56.203125 41.796875 56.203125 29.59375 
z
M 47.21875 32.234375 
Q 47.125 39.59375 43.09375 43.984375 
Q 39.0625 48.390625 32.421875 48.390625 
Q 24.90625 48.390625 20.390625 44.140625 
Q 15.875 39.890625 15.1875 32.171875 
z
" id="DejaVuSans-101"/>
     </defs>
     <g transform="translate(282.054141 398.63119)scale(0.11 -0.11)">
      <use xlink:href="#DejaVuSans-68"/>
      <use x="77.001953" xlink:href="#DejaVuSans-97"/>
      <use x="138.28125" xlink:href="#DejaVuSans-116"/>
      <use x="177.490234" xlink:href="#DejaVuSans-101"/>
     </g>
    </g>
   </g>
   <g id="matplotlib.axis_2">
    <g id="ytick_1">
     <g id="line2d_11">
      <defs>
       <path d="M 0 0 
L -3.5 0 
" id="mbe372513df" style="stroke:#000000;"/>
      </defs>
      <g>
       <use style="stroke:#000000;" x="72" xlink:href="#mbe372513df" y="332.91"/>
      </g>
     </g>
     <g id="text_12">
      <!-- 0 -->
      <g transform="translate(55.1375 336.709219)scale(0.1 -0.1)">
       <use xlink:href="#DejaVuSans-48"/>
      </g>
     </g>
    </g>
    <g id="ytick_2">
     <g id="line2d_12">
      <g>
       <use style="stroke:#000000;" x="72" xlink:href="#mbe372513df" y="297.206859"/>
      </g>
     </g>
     <g id="text_13">
      <!-- 2 -->
      <g transform="translate(55.1375 301.006078)scale(0.1 -0.1)">
       <use xlink:href="#DejaVuSans-50"/>
      </g>
     </g>
    </g>
    <g id="ytick_3">
     <g id="line2d_13">
      <g>
       <use style="stroke:#000000;" x="72" xlink:href="#mbe372513df" y="261.503718"/>
      </g>
     </g>
     <g id="text_14">
      <!-- 4 -->
      <g transform="translate(55.1375 265.302936)scale(0.1 -0.1)">
       <use xlink:href="#DejaVuSans-52"/>
      </g>
     </g>
    </g>
    <g id="ytick_4">
     <g id="line2d_14">
      <g>
       <use style="stroke:#000000;" x="72" xlink:href="#mbe372513df" y="225.800576"/>
      </g>
     </g>
     <g id="text_15">
      <!-- 6 -->
      <g transform="translate(55.1375 229.599795)scale(0.1 -0.1)">
       <use xlink:href="#DejaVuSans-54"/>
      </g>
     </g>
    </g>
    <g id="ytick_5">
     <g id="line2d_15">
      <g>
       <use style="stroke:#000000;" x="72" xlink:href="#mbe372513df" y="190.097435"/>
      </g>
     </g>
     <g id="text_16">
      <!-- 8 -->
      <g transform="translate(55.1375 193.896654)scale(0.1 -0.1)">
       <use xlink:href="#DejaVuSans-56"/>
      </g>
     </g>
    </g>
    <g id="ytick_6">
     <g id="line2d_16">
      <g>
       <use style="stroke:#000000;" x="72" xlink:href="#mbe372513df" y="154.394294"/>
      </g>
     </g>
     <g id="text_17">
      <!-- 10 -->
      <g transform="translate(48.775 158.193513)scale(0.1 -0.1)">
       <use xlink:href="#DejaVuSans-49"/>
       <use x="63.623047" xlink:href="#DejaVuSans-48"/>
      </g>
     </g>
    </g>
    <g id="ytick_7">
     <g id="line2d_17">
      <g>
       <use style="stroke:#000000;" x="72" xlink:href="#mbe372513df" y="118.691153"/>
      </g>
     </g>
     <g id="text_18">
      <!-- 12 -->
      <g transform="translate(48.775 122.490372)scale(0.1 -0.1)">
       <use xlink:href="#DejaVuSans-49"/>
       <use x="63.623047" xlink:href="#DejaVuSans-50"/>
      </g>
     </g>
    </g>
    <g id="ytick_8">
     <g id="line2d_18">
      <g>
       <use style="stroke:#000000;" x="72" xlink:href="#mbe372513df" y="82.988012"/>
      </g>
     </g>
     <g id="text_19">
      <!-- 14 -->
      <g transform="translate(48.775 86.78723)scale(0.1 -0.1)">
       <use xlink:href="#DejaVuSans-49"/>
       <use x="63.623047" xlink:href="#DejaVuSans-52"/>
      </g>
     </g>
    </g>
   </g>
   <g id="line2d_19">
    <path clip-path="url(#p70dfa1d61d)" d="M 92.290909 332.91 
L 184.38042 332.819385 
L 185.941259 332.774077 
L 187.502098 332.592847 
L 192.184615 332.502232 
L 193.745455 331.732004 
L 195.306294 331.097698 
L 196.867133 330.146239 
L 198.427972 329.647856 
L 199.988811 328.152707 
L 201.54965 326.340405 
L 203.11049 324.935871 
L 204.671329 323.304799 
L 206.232168 322.851724 
L 207.793007 320.812884 
L 209.353846 315.013517 
L 210.914685 308.443922 
L 212.475524 302.689863 
L 215.597203 281.66716 
L 217.158042 273.919568 
L 218.718881 260.961609 
L 220.27972 250.76741 
L 223.401399 211.395148 
L 228.083916 158.113467 
L 229.644755 150.048723 
L 231.205594 121.006583 
L 232.766434 107.006549 
L 235.888112 72.21035 
L 237.448951 69.673127 
L 239.00979 68.495131 
L 240.570629 61.11 
L 242.131469 61.200615 
L 243.692308 69.899665 
L 245.253147 73.705499 
L 246.813986 83.174777 
L 248.374825 71.440122 
L 249.935664 81.589013 
L 251.496503 88.747606 
L 253.057343 83.809083 
L 254.618182 84.035621 
L 256.179021 98.171577 
L 257.73986 98.398115 
L 259.300699 110.857691 
L 260.861538 113.258991 
L 263.983217 135.958075 
L 265.544056 141.440288 
L 267.104895 143.750973 
L 268.665734 152.721869 
L 270.226573 163.776911 
L 271.787413 168.534204 
L 273.348252 170.437121 
L 274.909091 180.540705 
L 276.46993 183.938771 
L 278.030769 191.459825 
L 279.591608 197.123269 
L 281.152448 208.857925 
L 282.713287 210.307766 
L 284.274126 213.615218 
L 285.834965 218.145973 
L 287.395804 225.712334 
L 288.956643 229.065093 
L 290.517483 238.942139 
L 292.078322 233.414617 
L 293.639161 240.074827 
L 295.2 241.88713 
L 296.760839 246.055424 
L 298.321678 250.722102 
L 299.882517 254.482629 
L 301.443357 255.524702 
L 303.004196 262.366143 
L 304.565035 247.913034 
L 306.125874 250.087796 
L 307.686713 265.582979 
L 309.247552 259.375844 
L 310.808392 255.071627 
L 312.369231 255.57001 
L 313.93007 259.194614 
L 315.490909 273.828953 
L 317.051748 274.146106 
L 318.612587 268.573277 
L 320.173427 276.638021 
L 321.734266 285.835454 
L 323.295105 286.152607 
L 326.416783 285.291764 
L 327.977622 286.877528 
L 329.538462 289.097598 
L 331.099301 292.495664 
L 332.66014 294.670427 
L 334.220979 300.197948 
L 335.781818 301.64779 
L 337.342657 302.825786 
L 338.903497 303.686629 
L 340.464336 306.994081 
L 342.025175 309.395381 
L 343.586014 309.576611 
L 345.146853 311.570143 
L 346.707692 312.793447 
L 348.268531 312.476294 
L 349.829371 313.019985 
L 351.39021 314.016751 
L 352.951049 314.741672 
L 354.511888 313.337138 
L 356.072727 313.201215 
L 357.633566 314.696364 
L 359.194406 314.786979 
L 360.755245 314.605749 
L 362.316084 316.282129 
L 363.876923 315.557208 
L 365.437762 318.275661 
L 366.998601 319.680195 
L 368.559441 319.997348 
L 370.12028 320.450423 
L 371.681119 320.722269 
L 373.241958 320.586346 
L 374.802797 322.308033 
L 376.363636 322.398648 
L 381.046154 323.803182 
L 382.606993 323.939105 
L 384.167832 324.301565 
L 385.728671 325.570177 
L 387.28951 325.842022 
L 390.411189 326.566943 
L 393.532867 326.43102 
L 395.093706 327.201249 
L 396.654545 327.563709 
L 398.215385 328.198015 
L 401.337063 327.609017 
L 402.897902 327.744939 
L 404.458741 328.062092 
L 406.01958 328.243322 
L 407.58042 327.654324 
L 409.141259 328.062092 
L 410.702098 328.877628 
L 416.945455 329.557241 
L 418.506294 330.32747 
L 420.067133 329.647856 
L 423.188811 330.463392 
L 424.74965 330.32747 
L 426.31049 329.602549 
L 427.871329 329.874394 
L 434.114685 329.376011 
L 435.675524 329.466626 
L 437.236364 330.100932 
L 440.358042 330.100932 
L 441.918881 330.644622 
L 443.47972 331.007083 
L 445.040559 330.32747 
L 448.162238 330.282162 
L 449.723077 330.055624 
L 451.283916 330.146239 
L 452.844755 329.965009 
L 454.405594 329.647856 
L 457.527273 330.010317 
L 459.088112 330.055624 
L 460.648951 330.68993 
L 462.20979 330.961775 
L 465.331469 330.916468 
L 468.453147 330.916468 
L 470.013986 330.916468 
L 471.574825 329.783779 
L 474.696503 329.647856 
L 477.818182 329.874394 
L 480.93986 329.511934 
L 482.500699 329.602549 
L 484.061538 329.194781 
L 485.622378 328.968243 
L 487.183217 328.198015 
L 490.304895 327.020018 
L 491.865734 326.929403 
L 493.426573 326.43102 
L 494.987413 325.706099 
L 496.548252 324.845256 
L 498.109091 324.482795 
L 498.109091 324.482795 
" style="fill:none;stroke:#1f77b4;stroke-linecap:square;stroke-width:1.75;"/>
   </g>
   <g id="line2d_20">
    <path clip-path="url(#p70dfa1d61d)" d="M 92.290909 332.91 
L 196.867133 332.91 
L 199.988811 331.976416 
L 201.54965 330.57604 
L 203.11049 330.57604 
L 204.671329 330.109248 
L 206.232168 328.708873 
L 207.793007 326.841705 
L 209.353846 326.374913 
L 210.914685 324.040953 
L 212.475524 324.040953 
L 214.036364 320.306618 
L 215.597203 317.505866 
L 217.158042 318.43945 
L 218.718881 317.505866 
L 220.27972 308.170028 
L 221.840559 297.900605 
L 223.401399 285.764015 
L 226.523077 249.821036 
L 228.083916 249.354244 
L 229.644755 251.221412 
L 231.205594 226.948231 
L 232.766434 207.34297 
L 234.327273 183.069789 
L 235.888112 182.136205 
L 237.448951 181.669414 
L 239.00979 171.399991 
L 240.570629 168.132447 
L 242.131469 184.003373 
L 243.692308 177.468286 
L 245.253147 177.935078 
L 246.813986 173.267159 
L 248.374825 169.066031 
L 249.935664 175.601118 
L 251.496503 174.200743 
L 253.057343 160.196985 
L 254.618182 163.464528 
L 256.179021 173.733951 
L 257.73986 170.933199 
L 259.300699 175.134326 
L 260.861538 171.399991 
L 262.422378 170.933199 
L 263.983217 170.933199 
L 265.544056 168.132447 
L 267.104895 167.198864 
L 268.665734 178.40187 
L 270.226573 179.802246 
L 271.787413 182.602997 
L 273.348252 186.337333 
L 274.909091 198.473923 
L 276.46993 198.473923 
L 278.030769 198.940715 
L 279.591608 194.739588 
L 281.152448 198.473923 
L 282.713287 199.407507 
L 284.274126 199.407507 
L 285.834965 196.606755 
L 287.395804 206.876178 
L 288.956643 218.545976 
L 290.517483 219.946352 
L 292.078322 217.612392 
L 293.639161 218.079184 
L 295.2 219.47956 
L 296.760839 229.282191 
L 298.321678 234.416902 
L 299.882517 233.016526 
L 301.443357 243.285949 
L 303.004196 254.955747 
L 304.565035 254.955747 
L 306.125874 254.488955 
L 307.686713 259.623666 
L 309.247552 276.894968 
L 310.808392 288.564766 
L 312.369231 292.765894 
L 313.93007 289.965142 
L 315.490909 289.965142 
L 317.051748 290.898726 
L 318.612587 293.699478 
L 320.173427 294.633061 
L 321.734266 296.033437 
L 323.295105 296.500229 
L 324.855944 303.9689 
L 326.416783 308.170028 
L 327.977622 308.636819 
L 329.538462 310.970779 
L 331.099301 310.503987 
L 332.66014 312.371155 
L 334.220979 317.505866 
L 335.781818 317.972658 
L 337.342657 317.505866 
L 338.903497 317.505866 
L 340.464336 318.43945 
L 343.586014 321.240202 
L 345.146853 319.839826 
L 346.707692 321.240202 
L 348.268531 321.706994 
L 349.829371 321.706994 
L 351.39021 322.173786 
L 352.951049 324.507745 
L 354.511888 324.507745 
L 356.072727 327.308497 
L 357.633566 328.242081 
L 360.755245 328.242081 
L 362.316084 328.708873 
L 363.876923 330.109248 
L 365.437762 330.57604 
L 366.998601 330.109248 
L 371.681119 330.109248 
L 373.241958 331.042832 
L 374.802797 331.042832 
L 377.924476 331.976416 
L 382.606993 331.976416 
L 385.728671 332.91 
L 387.28951 332.443208 
L 396.654545 332.443208 
L 398.215385 332.91 
L 438.797203 332.91 
L 440.358042 332.443208 
L 449.723077 332.443208 
L 451.283916 331.976416 
L 460.648951 331.976416 
L 462.20979 332.443208 
L 463.770629 331.976416 
L 470.013986 331.976416 
L 471.574825 330.57604 
L 474.696503 331.509624 
L 480.93986 331.509624 
L 482.500699 332.443208 
L 484.061538 331.976416 
L 485.622378 331.976416 
L 487.183217 331.509624 
L 488.744056 330.109248 
L 493.426573 330.109248 
L 494.987413 329.642456 
L 496.548252 328.708873 
L 498.109091 329.175665 
L 498.109091 329.175665 
" style="fill:none;stroke:#ff7f0e;stroke-linecap:square;stroke-width:1.75;"/>
   </g>
   <g id="line2d_21">
    <path clip-path="url(#p70dfa1d61d)" d="M 92.290909 332.91 
L 203.11049 332.91 
L 204.671329 331.292288 
L 206.232168 324.012587 
L 207.793007 320.777163 
L 209.353846 319.968308 
L 210.914685 315.924029 
L 214.036364 306.21776 
L 215.597203 304.600048 
L 217.158042 303.791192 
L 218.718881 295.702635 
L 220.27972 290.8495 
L 221.840559 271.436961 
L 223.401399 260.921836 
L 224.962238 246.362433 
L 226.523077 239.082731 
L 228.083916 237.465019 
L 229.644755 226.949894 
L 231.205594 217.243625 
L 232.766434 214.008202 
L 234.327273 196.213375 
L 235.888112 192.169096 
L 237.448951 173.565413 
L 239.00979 168.712279 
L 240.570629 178.418548 
L 242.131469 178.418548 
L 243.692308 156.579442 
L 245.253147 163.859144 
L 246.813986 178.418548 
L 248.374825 184.889394 
L 249.935664 166.285711 
L 251.496503 171.138846 
L 253.057343 166.285711 
L 254.618182 202.684221 
L 256.179021 214.817058 
L 257.73986 134.740336 
L 259.300699 138.784615 
L 260.861538 160.623721 
L 262.422378 161.432577 
L 263.983217 167.903423 
L 265.544056 120.989788 
L 267.104895 116.945509 
L 268.665734 192.169096 
L 270.226573 175.183125 
L 271.787413 175.183125 
L 273.348252 170.32999 
L 274.909091 163.050288 
L 276.46993 205.110788 
L 278.030769 208.346211 
L 279.591608 199.448798 
L 281.152448 227.75875 
L 282.713287 229.376461 
L 284.274126 236.656163 
L 285.834965 244.744721 
L 287.395804 243.935865 
L 288.956643 250.406711 
L 290.517483 265.774971 
L 292.078322 258.495269 
L 293.639161 258.495269 
L 295.2 259.304125 
L 296.760839 258.495269 
L 298.321678 264.966115 
L 299.882517 265.774971 
L 301.443357 267.392683 
L 303.004196 277.098952 
L 304.565035 281.143231 
L 306.125874 278.716663 
L 307.686713 285.996365 
L 309.247552 288.422933 
L 310.808392 284.378654 
L 312.369231 281.952087 
L 313.93007 275.48124 
L 315.490909 272.245817 
L 317.051748 273.863529 
L 318.612587 274.672385 
L 320.173427 269.81925 
L 323.295105 279.525519 
L 324.855944 282.760942 
L 326.416783 287.614077 
L 327.977622 289.231788 
L 329.538462 287.614077 
L 331.099301 294.084923 
L 332.66014 295.702635 
L 334.220979 290.8495 
L 335.781818 294.084923 
L 337.342657 295.702635 
L 338.903497 294.893779 
L 340.464336 295.702635 
L 342.025175 294.893779 
L 343.586014 295.702635 
L 345.146853 300.555769 
L 346.707692 304.600048 
L 348.268531 306.21776 
L 351.39021 311.070894 
L 352.951049 312.688606 
L 354.511888 311.87975 
L 356.072727 313.497462 
L 357.633566 310.262038 
L 359.194406 309.453183 
L 360.755245 307.835471 
L 363.876923 311.070894 
L 365.437762 309.453183 
L 368.559441 309.453183 
L 370.12028 310.262038 
L 371.681119 312.688606 
L 373.241958 312.688606 
L 374.802797 314.306317 
L 376.363636 319.159452 
L 377.924476 320.777163 
L 379.485315 324.012587 
L 381.046154 324.821442 
L 382.606993 324.821442 
L 384.167832 325.630298 
L 387.28951 328.865721 
L 388.85035 328.056865 
L 390.411189 328.865721 
L 391.972028 328.056865 
L 393.532867 328.056865 
L 395.093706 329.674577 
L 396.654545 330.483433 
L 398.215385 330.483433 
L 399.776224 331.292288 
L 406.01958 331.292288 
L 407.58042 328.056865 
L 409.141259 328.056865 
L 410.702098 323.203731 
L 413.823776 319.968308 
L 415.384615 319.968308 
L 416.945455 319.159452 
L 418.506294 321.586019 
L 420.067133 319.159452 
L 421.627972 318.350596 
L 423.188811 319.159452 
L 424.74965 321.586019 
L 426.31049 321.586019 
L 427.871329 320.777163 
L 429.432168 318.350596 
L 430.993007 320.777163 
L 432.553846 326.439154 
L 434.114685 326.439154 
L 435.675524 324.821442 
L 437.236364 324.821442 
L 438.797203 326.439154 
L 440.358042 330.483433 
L 446.601399 330.483433 
L 448.162238 329.674577 
L 449.723077 329.674577 
L 452.844755 328.056865 
L 454.405594 328.056865 
L 455.966434 328.865721 
L 457.527273 330.483433 
L 459.088112 331.292288 
L 460.648951 330.483433 
L 463.770629 332.101144 
L 465.331469 332.101144 
L 466.892308 331.292288 
L 470.013986 331.292288 
L 471.574825 332.101144 
L 476.257343 332.101144 
L 477.818182 332.91 
L 484.061538 332.91 
L 485.622378 330.483433 
L 487.183217 329.674577 
L 488.744056 328.056865 
L 493.426573 328.056865 
L 494.987413 326.439154 
L 496.548252 328.056865 
L 498.109091 326.439154 
L 498.109091 326.439154 
" style="fill:none;stroke:#2ca02c;stroke-linecap:square;stroke-width:1.75;"/>
   </g>
   <g id="line2d_22">
    <path clip-path="url(#p70dfa1d61d)" d="M 92.290909 332.91 
L 203.11049 332.91 
L 204.671329 331.563288 
L 206.232168 331.563288 
L 207.793007 330.216576 
L 210.914685 324.829727 
L 214.036364 316.749454 
L 215.597203 315.402742 
L 217.158042 307.322469 
L 218.718881 307.322469 
L 220.27972 301.93562 
L 221.840559 301.93562 
L 223.401399 297.895484 
L 224.962238 285.775074 
L 226.523077 277.694802 
L 228.083916 276.348089 
L 229.644755 268.267816 
L 231.205594 272.307953 
L 232.766434 268.267816 
L 235.888112 273.654665 
L 237.448951 264.22768 
L 239.00979 258.840831 
L 240.570629 260.187544 
L 242.131469 250.760558 
L 243.692308 249.413846 
L 245.253147 230.559876 
L 246.813986 219.786179 
L 248.374825 217.092754 
L 249.935664 230.559876 
L 251.496503 221.132891 
L 253.057343 217.092754 
L 254.618182 184.771663 
L 256.179021 191.505223 
L 257.73986 195.54536 
L 259.300699 196.892072 
L 260.861538 191.505223 
L 262.422378 195.54536 
L 263.983217 186.118375 
L 265.544056 214.39933 
L 267.104895 219.786179 
L 268.665734 215.746042 
L 270.226573 222.479603 
L 271.787413 222.479603 
L 273.348252 227.866452 
L 274.909091 231.906588 
L 276.46993 225.173027 
L 278.030769 231.906588 
L 279.591608 250.760558 
L 281.152448 260.187544 
L 282.713287 260.187544 
L 284.274126 264.22768 
L 285.834965 275.001377 
L 287.395804 291.161923 
L 288.956643 289.815211 
L 290.517483 275.001377 
L 292.078322 275.001377 
L 293.639161 277.694802 
L 295.2 273.654665 
L 296.760839 276.348089 
L 298.321678 272.307953 
L 299.882517 269.614529 
L 301.443357 285.775074 
L 303.004196 289.815211 
L 304.565035 292.508635 
L 306.125874 289.815211 
L 307.686713 299.242196 
L 309.247552 303.282333 
L 310.808392 310.015893 
L 315.490909 310.015893 
L 317.051748 319.442878 
L 318.612587 316.749454 
L 320.173427 308.669181 
L 321.734266 310.015893 
L 323.295105 312.709318 
L 324.855944 312.709318 
L 327.977622 315.402742 
L 329.538462 318.096166 
L 331.099301 328.869864 
L 334.220979 328.869864 
L 335.781818 327.523151 
L 338.903497 327.523151 
L 342.025175 324.829727 
L 343.586014 326.176439 
L 345.146853 326.176439 
L 346.707692 327.523151 
L 357.633566 327.523151 
L 360.755245 324.829727 
L 363.876923 327.523151 
L 366.998601 324.829727 
L 371.681119 328.869864 
L 374.802797 328.869864 
L 376.363636 330.216576 
L 377.924476 332.91 
L 381.046154 332.91 
L 382.606993 330.216576 
L 391.972028 330.216576 
L 393.532867 332.91 
L 424.74965 332.91 
L 426.31049 331.563288 
L 430.993007 331.563288 
L 432.553846 330.216576 
L 435.675524 330.216576 
L 437.236364 331.563288 
L 438.797203 330.216576 
L 441.918881 330.216576 
L 443.47972 331.563288 
L 448.162238 331.563288 
L 449.723077 332.91 
L 451.283916 332.91 
L 452.844755 331.563288 
L 460.648951 331.563288 
L 462.20979 328.869864 
L 463.770629 328.869864 
L 465.331469 327.523151 
L 468.453147 327.523151 
L 470.013986 326.176439 
L 471.574825 323.483015 
L 473.135664 326.176439 
L 474.696503 326.176439 
L 476.257343 327.523151 
L 479.379021 327.523151 
L 480.93986 326.176439 
L 482.500699 327.523151 
L 484.061538 324.829727 
L 485.622378 326.176439 
L 487.183217 323.483015 
L 491.865734 323.483015 
L 493.426573 324.829727 
L 494.987413 327.523151 
L 496.548252 327.523151 
L 498.109091 330.216576 
L 498.109091 330.216576 
" style="fill:none;stroke:#d62728;stroke-linecap:square;stroke-width:1.75;"/>
   </g>
   <g id="patch_3">
    <path d="M 72 346.5 
L 72 47.52 
" style="fill:none;stroke:#000000;stroke-linecap:square;stroke-linejoin:miter;stroke-width:0.8;"/>
   </g>
   <g id="patch_4">
    <path d="M 518.4 346.5 
L 518.4 47.52 
" style="fill:none;stroke:#000000;stroke-linecap:square;stroke-linejoin:miter;stroke-width:0.8;"/>
   </g>
   <g id="patch_5">
    <path d="M 72 346.5 
L 518.4 346.5 
" style="fill:none;stroke:#000000;stroke-linecap:square;stroke-linejoin:miter;stroke-width:0.8;"/>
   </g>
   <g id="patch_6">
    <path d="M 72 47.52 
L 518.4 47.52 
" style="fill:none;stroke:#000000;stroke-linecap:square;stroke-linejoin:miter;stroke-width:0.8;"/>
   </g>
   <g id="text_20">
    <!-- New Deaths per Million Population (7 day rolling) -->
    <defs>
     <path d="M 9.8125 72.90625 
L 23.09375 72.90625 
L 55.421875 11.921875 
L 55.421875 72.90625 
L 64.984375 72.90625 
L 64.984375 0 
L 51.703125 0 
L 19.390625 60.984375 
L 19.390625 0 
L 9.8125 0 
z
" id="DejaVuSans-78"/>
     <path d="M 4.203125 54.6875 
L 13.1875 54.6875 
L 24.421875 12.015625 
L 35.59375 54.6875 
L 46.1875 54.6875 
L 57.421875 12.015625 
L 68.609375 54.6875 
L 77.59375 54.6875 
L 63.28125 0 
L 52.6875 0 
L 40.921875 44.828125 
L 29.109375 0 
L 18.5 0 
z
" id="DejaVuSans-119"/>
     <path id="DejaVuSans-32"/>
     <path d="M 54.890625 33.015625 
L 54.890625 0 
L 45.90625 0 
L 45.90625 32.71875 
Q 45.90625 40.484375 42.875 44.328125 
Q 39.84375 48.1875 33.796875 48.1875 
Q 26.515625 48.1875 22.3125 43.546875 
Q 18.109375 38.921875 18.109375 30.90625 
L 18.109375 0 
L 9.078125 0 
L 9.078125 75.984375 
L 18.109375 75.984375 
L 18.109375 46.1875 
Q 21.34375 51.125 25.703125 53.5625 
Q 30.078125 56 35.796875 56 
Q 45.21875 56 50.046875 50.171875 
Q 54.890625 44.34375 54.890625 33.015625 
z
" id="DejaVuSans-104"/>
     <path d="M 44.28125 53.078125 
L 44.28125 44.578125 
Q 40.484375 46.53125 36.375 47.5 
Q 32.28125 48.484375 27.875 48.484375 
Q 21.1875 48.484375 17.84375 46.4375 
Q 14.5 44.390625 14.5 40.28125 
Q 14.5 37.15625 16.890625 35.375 
Q 19.28125 33.59375 26.515625 31.984375 
L 29.59375 31.296875 
Q 39.15625 29.25 43.1875 25.515625 
Q 47.21875 21.78125 47.21875 15.09375 
Q 47.21875 7.46875 41.1875 3.015625 
Q 35.15625 -1.421875 24.609375 -1.421875 
Q 20.21875 -1.421875 15.453125 -0.5625 
Q 10.6875 0.296875 5.421875 2 
L 5.421875 11.28125 
Q 10.40625 8.6875 15.234375 7.390625 
Q 20.0625 6.109375 24.8125 6.109375 
Q 31.15625 6.109375 34.5625 8.28125 
Q 37.984375 10.453125 37.984375 14.40625 
Q 37.984375 18.0625 35.515625 20.015625 
Q 33.0625 21.96875 24.703125 23.78125 
L 21.578125 24.515625 
Q 13.234375 26.265625 9.515625 29.90625 
Q 5.8125 33.546875 5.8125 39.890625 
Q 5.8125 47.609375 11.28125 51.796875 
Q 16.75 56 26.8125 56 
Q 31.78125 56 36.171875 55.265625 
Q 40.578125 54.546875 44.28125 53.078125 
z
" id="DejaVuSans-115"/>
     <path d="M 18.109375 8.203125 
L 18.109375 -20.796875 
L 9.078125 -20.796875 
L 9.078125 54.6875 
L 18.109375 54.6875 
L 18.109375 46.390625 
Q 20.953125 51.265625 25.265625 53.625 
Q 29.59375 56 35.59375 56 
Q 45.5625 56 51.78125 48.09375 
Q 58.015625 40.1875 58.015625 27.296875 
Q 58.015625 14.40625 51.78125 6.484375 
Q 45.5625 -1.421875 35.59375 -1.421875 
Q 29.59375 -1.421875 25.265625 0.953125 
Q 20.953125 3.328125 18.109375 8.203125 
z
M 48.6875 27.296875 
Q 48.6875 37.203125 44.609375 42.84375 
Q 40.53125 48.484375 33.40625 48.484375 
Q 26.265625 48.484375 22.1875 42.84375 
Q 18.109375 37.203125 18.109375 27.296875 
Q 18.109375 17.390625 22.1875 11.75 
Q 26.265625 6.109375 33.40625 6.109375 
Q 40.53125 6.109375 44.609375 11.75 
Q 48.6875 17.390625 48.6875 27.296875 
z
" id="DejaVuSans-112"/>
     <path d="M 41.109375 46.296875 
Q 39.59375 47.171875 37.8125 47.578125 
Q 36.03125 48 33.890625 48 
Q 26.265625 48 22.1875 43.046875 
Q 18.109375 38.09375 18.109375 28.8125 
L 18.109375 0 
L 9.078125 0 
L 9.078125 54.6875 
L 18.109375 54.6875 
L 18.109375 46.1875 
Q 20.953125 51.171875 25.484375 53.578125 
Q 30.03125 56 36.53125 56 
Q 37.453125 56 38.578125 55.875 
Q 39.703125 55.765625 41.0625 55.515625 
z
" id="DejaVuSans-114"/>
     <path d="M 9.8125 72.90625 
L 24.515625 72.90625 
L 43.109375 23.296875 
L 61.8125 72.90625 
L 76.515625 72.90625 
L 76.515625 0 
L 66.890625 0 
L 66.890625 64.015625 
L 48.09375 14.015625 
L 38.1875 14.015625 
L 19.390625 64.015625 
L 19.390625 0 
L 9.8125 0 
z
" id="DejaVuSans-77"/>
     <path d="M 9.421875 54.6875 
L 18.40625 54.6875 
L 18.40625 0 
L 9.421875 0 
z
M 9.421875 75.984375 
L 18.40625 75.984375 
L 18.40625 64.59375 
L 9.421875 64.59375 
z
" id="DejaVuSans-105"/>
     <path d="M 9.421875 75.984375 
L 18.40625 75.984375 
L 18.40625 0 
L 9.421875 0 
z
" id="DejaVuSans-108"/>
     <path d="M 30.609375 48.390625 
Q 23.390625 48.390625 19.1875 42.75 
Q 14.984375 37.109375 14.984375 27.296875 
Q 14.984375 17.484375 19.15625 11.84375 
Q 23.34375 6.203125 30.609375 6.203125 
Q 37.796875 6.203125 41.984375 11.859375 
Q 46.1875 17.53125 46.1875 27.296875 
Q 46.1875 37.015625 41.984375 42.703125 
Q 37.796875 48.390625 30.609375 48.390625 
z
M 30.609375 56 
Q 42.328125 56 49.015625 48.375 
Q 55.71875 40.765625 55.71875 27.296875 
Q 55.71875 13.875 49.015625 6.21875 
Q 42.328125 -1.421875 30.609375 -1.421875 
Q 18.84375 -1.421875 12.171875 6.21875 
Q 5.515625 13.875 5.515625 27.296875 
Q 5.515625 40.765625 12.171875 48.375 
Q 18.84375 56 30.609375 56 
z
" id="DejaVuSans-111"/>
     <path d="M 54.890625 33.015625 
L 54.890625 0 
L 45.90625 0 
L 45.90625 32.71875 
Q 45.90625 40.484375 42.875 44.328125 
Q 39.84375 48.1875 33.796875 48.1875 
Q 26.515625 48.1875 22.3125 43.546875 
Q 18.109375 38.921875 18.109375 30.90625 
L 18.109375 0 
L 9.078125 0 
L 9.078125 54.6875 
L 18.109375 54.6875 
L 18.109375 46.1875 
Q 21.34375 51.125 25.703125 53.5625 
Q 30.078125 56 35.796875 56 
Q 45.21875 56 50.046875 50.171875 
Q 54.890625 44.34375 54.890625 33.015625 
z
" id="DejaVuSans-110"/>
     <path d="M 19.671875 64.796875 
L 19.671875 37.40625 
L 32.078125 37.40625 
Q 38.96875 37.40625 42.71875 40.96875 
Q 46.484375 44.53125 46.484375 51.125 
Q 46.484375 57.671875 42.71875 61.234375 
Q 38.96875 64.796875 32.078125 64.796875 
z
M 9.8125 72.90625 
L 32.078125 72.90625 
Q 44.34375 72.90625 50.609375 67.359375 
Q 56.890625 61.8125 56.890625 51.125 
Q 56.890625 40.328125 50.609375 34.8125 
Q 44.34375 29.296875 32.078125 29.296875 
L 19.671875 29.296875 
L 19.671875 0 
L 9.8125 0 
z
" id="DejaVuSans-80"/>
     <path d="M 8.5 21.578125 
L 8.5 54.6875 
L 17.484375 54.6875 
L 17.484375 21.921875 
Q 17.484375 14.15625 20.5 10.265625 
Q 23.53125 6.390625 29.59375 6.390625 
Q 36.859375 6.390625 41.078125 11.03125 
Q 45.3125 15.671875 45.3125 23.6875 
L 45.3125 54.6875 
L 54.296875 54.6875 
L 54.296875 0 
L 45.3125 0 
L 45.3125 8.40625 
Q 42.046875 3.421875 37.71875 1 
Q 33.40625 -1.421875 27.6875 -1.421875 
Q 18.265625 -1.421875 13.375 4.4375 
Q 8.5 10.296875 8.5 21.578125 
z
M 31.109375 56 
z
" id="DejaVuSans-117"/>
     <path d="M 31 75.875 
Q 24.46875 64.65625 21.28125 53.65625 
Q 18.109375 42.671875 18.109375 31.390625 
Q 18.109375 20.125 21.3125 9.0625 
Q 24.515625 -2 31 -13.1875 
L 23.1875 -13.1875 
Q 15.875 -1.703125 12.234375 9.375 
Q 8.59375 20.453125 8.59375 31.390625 
Q 8.59375 42.28125 12.203125 53.3125 
Q 15.828125 64.359375 23.1875 75.875 
z
" id="DejaVuSans-40"/>
     <path d="M 45.40625 46.390625 
L 45.40625 75.984375 
L 54.390625 75.984375 
L 54.390625 0 
L 45.40625 0 
L 45.40625 8.203125 
Q 42.578125 3.328125 38.25 0.953125 
Q 33.9375 -1.421875 27.875 -1.421875 
Q 17.96875 -1.421875 11.734375 6.484375 
Q 5.515625 14.40625 5.515625 27.296875 
Q 5.515625 40.1875 11.734375 48.09375 
Q 17.96875 56 27.875 56 
Q 33.9375 56 38.25 53.625 
Q 42.578125 51.265625 45.40625 46.390625 
z
M 14.796875 27.296875 
Q 14.796875 17.390625 18.875 11.75 
Q 22.953125 6.109375 30.078125 6.109375 
Q 37.203125 6.109375 41.296875 11.75 
Q 45.40625 17.390625 45.40625 27.296875 
Q 45.40625 37.203125 41.296875 42.84375 
Q 37.203125 48.484375 30.078125 48.484375 
Q 22.953125 48.484375 18.875 42.84375 
Q 14.796875 37.203125 14.796875 27.296875 
z
" id="DejaVuSans-100"/>
     <path d="M 32.171875 -5.078125 
Q 28.375 -14.84375 24.75 -17.8125 
Q 21.140625 -20.796875 15.09375 -20.796875 
L 7.90625 -20.796875 
L 7.90625 -13.28125 
L 13.1875 -13.28125 
Q 16.890625 -13.28125 18.9375 -11.515625 
Q 21 -9.765625 23.484375 -3.21875 
L 25.09375 0.875 
L 2.984375 54.6875 
L 12.5 54.6875 
L 29.59375 11.921875 
L 46.6875 54.6875 
L 56.203125 54.6875 
z
" id="DejaVuSans-121"/>
     <path d="M 45.40625 27.984375 
Q 45.40625 37.75 41.375 43.109375 
Q 37.359375 48.484375 30.078125 48.484375 
Q 22.859375 48.484375 18.828125 43.109375 
Q 14.796875 37.75 14.796875 27.984375 
Q 14.796875 18.265625 18.828125 12.890625 
Q 22.859375 7.515625 30.078125 7.515625 
Q 37.359375 7.515625 41.375 12.890625 
Q 45.40625 18.265625 45.40625 27.984375 
z
M 54.390625 6.78125 
Q 54.390625 -7.171875 48.1875 -13.984375 
Q 42 -20.796875 29.203125 -20.796875 
Q 24.46875 -20.796875 20.265625 -20.09375 
Q 16.0625 -19.390625 12.109375 -17.921875 
L 12.109375 -9.1875 
Q 16.0625 -11.328125 19.921875 -12.34375 
Q 23.78125 -13.375 27.78125 -13.375 
Q 36.625 -13.375 41.015625 -8.765625 
Q 45.40625 -4.15625 45.40625 5.171875 
L 45.40625 9.625 
Q 42.625 4.78125 38.28125 2.390625 
Q 33.9375 0 27.875 0 
Q 17.828125 0 11.671875 7.65625 
Q 5.515625 15.328125 5.515625 27.984375 
Q 5.515625 40.671875 11.671875 48.328125 
Q 17.828125 56 27.875 56 
Q 33.9375 56 38.28125 53.609375 
Q 42.625 51.21875 45.40625 46.390625 
L 45.40625 54.6875 
L 54.390625 54.6875 
z
" id="DejaVuSans-103"/>
     <path d="M 8.015625 75.875 
L 15.828125 75.875 
Q 23.140625 64.359375 26.78125 53.3125 
Q 30.421875 42.28125 30.421875 31.390625 
Q 30.421875 20.453125 26.78125 9.375 
Q 23.140625 -1.703125 15.828125 -13.1875 
L 8.015625 -13.1875 
Q 14.5 -2 17.703125 9.0625 
Q 20.90625 20.125 20.90625 31.390625 
Q 20.90625 42.671875 17.703125 53.65625 
Q 14.5 64.65625 8.015625 75.875 
z
" id="DejaVuSans-41"/>
    </defs>
    <g transform="translate(148.538437 41.52)scale(0.12 -0.12)">
     <use xlink:href="#DejaVuSans-78"/>
     <use x="74.804688" xlink:href="#DejaVuSans-101"/>
     <use x="136.328125" xlink:href="#DejaVuSans-119"/>
     <use x="218.115234" xlink:href="#DejaVuSans-32"/>
     <use x="249.902344" xlink:href="#DejaVuSans-68"/>
     <use x="326.904297" xlink:href="#DejaVuSans-101"/>
     <use x="388.427734" xlink:href="#DejaVuSans-97"/>
     <use x="449.707031" xlink:href="#DejaVuSans-116"/>
     <use x="488.916016" xlink:href="#DejaVuSans-104"/>
     <use x="552.294922" xlink:href="#DejaVuSans-115"/>
     <use x="604.394531" xlink:href="#DejaVuSans-32"/>
     <use x="636.181641" xlink:href="#DejaVuSans-112"/>
     <use x="699.658203" xlink:href="#DejaVuSans-101"/>
     <use x="761.181641" xlink:href="#DejaVuSans-114"/>
     <use x="802.294922" xlink:href="#DejaVuSans-32"/>
     <use x="834.082031" xlink:href="#DejaVuSans-77"/>
     <use x="920.361328" xlink:href="#DejaVuSans-105"/>
     <use x="948.144531" xlink:href="#DejaVuSans-108"/>
     <use x="975.927734" xlink:href="#DejaVuSans-108"/>
     <use x="1003.710938" xlink:href="#DejaVuSans-105"/>
     <use x="1031.494141" xlink:href="#DejaVuSans-111"/>
     <use x="1092.675781" xlink:href="#DejaVuSans-110"/>
     <use x="1156.054688" xlink:href="#DejaVuSans-32"/>
     <use x="1187.841797" xlink:href="#DejaVuSans-80"/>
     <use x="1244.519531" xlink:href="#DejaVuSans-111"/>
     <use x="1305.701172" xlink:href="#DejaVuSans-112"/>
     <use x="1369.177734" xlink:href="#DejaVuSans-117"/>
     <use x="1432.556641" xlink:href="#DejaVuSans-108"/>
     <use x="1460.339844" xlink:href="#DejaVuSans-97"/>
     <use x="1521.619141" xlink:href="#DejaVuSans-116"/>
     <use x="1560.828125" xlink:href="#DejaVuSans-105"/>
     <use x="1588.611328" xlink:href="#DejaVuSans-111"/>
     <use x="1649.792969" xlink:href="#DejaVuSans-110"/>
     <use x="1713.171875" xlink:href="#DejaVuSans-32"/>
     <use x="1744.958984" xlink:href="#DejaVuSans-40"/>
     <use x="1783.972656" xlink:href="#DejaVuSans-55"/>
     <use x="1847.595703" xlink:href="#DejaVuSans-32"/>
     <use x="1879.382812" xlink:href="#DejaVuSans-100"/>
     <use x="1942.859375" xlink:href="#DejaVuSans-97"/>
     <use x="2004.138672" xlink:href="#DejaVuSans-121"/>
     <use x="2063.318359" xlink:href="#DejaVuSans-32"/>
     <use x="2095.105469" xlink:href="#DejaVuSans-114"/>
     <use x="2133.96875" xlink:href="#DejaVuSans-111"/>
     <use x="2195.150391" xlink:href="#DejaVuSans-108"/>
     <use x="2222.933594" xlink:href="#DejaVuSans-108"/>
     <use x="2250.716797" xlink:href="#DejaVuSans-105"/>
     <use x="2278.5" xlink:href="#DejaVuSans-110"/>
     <use x="2341.878906" xlink:href="#DejaVuSans-103"/>
     <use x="2405.355469" xlink:href="#DejaVuSans-41"/>
    </g>
   </g>
   <g id="legend_1">
    <g id="patch_7">
     <path d="M 397.245312 114.2325 
L 511.4 114.2325 
Q 513.4 114.2325 513.4 112.2325 
L 513.4 54.52 
Q 513.4 52.52 511.4 52.52 
L 397.245312 52.52 
Q 395.245312 52.52 395.245312 54.52 
L 395.245312 112.2325 
Q 395.245312 114.2325 397.245312 114.2325 
z
" style="fill:#ffffff;opacity:0.8;stroke:#cccccc;stroke-linejoin:miter;stroke-width:0.3;"/>
    </g>
    <g id="line2d_23">
     <path d="M 399.245312 60.618437 
L 419.245312 60.618437 
" style="fill:none;stroke:#1f77b4;stroke-linecap:square;stroke-width:1.75;"/>
    </g>
    <g id="line2d_24"/>
    <g id="text_21">
     <!-- England -->
     <defs>
      <path d="M 9.8125 72.90625 
L 55.90625 72.90625 
L 55.90625 64.59375 
L 19.671875 64.59375 
L 19.671875 43.015625 
L 54.390625 43.015625 
L 54.390625 34.71875 
L 19.671875 34.71875 
L 19.671875 8.296875 
L 56.78125 8.296875 
L 56.78125 0 
L 9.8125 0 
z
" id="DejaVuSans-69"/>
     </defs>
     <g transform="translate(427.245312 64.118437)scale(0.1 -0.1)">
      <use xlink:href="#DejaVuSans-69"/>
      <use x="63.183594" xlink:href="#DejaVuSans-110"/>
      <use x="126.5625" xlink:href="#DejaVuSans-103"/>
      <use x="190.039062" xlink:href="#DejaVuSans-108"/>
      <use x="217.822266" xlink:href="#DejaVuSans-97"/>
      <use x="279.101562" xlink:href="#DejaVuSans-110"/>
      <use x="342.480469" xlink:href="#DejaVuSans-100"/>
     </g>
    </g>
    <g id="line2d_25">
     <path d="M 399.245312 75.296562 
L 419.245312 75.296562 
" style="fill:none;stroke:#ff7f0e;stroke-linecap:square;stroke-width:1.75;"/>
    </g>
    <g id="line2d_26"/>
    <g id="text_22">
     <!-- Scotland -->
     <defs>
      <path d="M 53.515625 70.515625 
L 53.515625 60.890625 
Q 47.90625 63.578125 42.921875 64.890625 
Q 37.9375 66.21875 33.296875 66.21875 
Q 25.25 66.21875 20.875 63.09375 
Q 16.5 59.96875 16.5 54.203125 
Q 16.5 49.359375 19.40625 46.890625 
Q 22.3125 44.4375 30.421875 42.921875 
L 36.375 41.703125 
Q 47.40625 39.59375 52.65625 34.296875 
Q 57.90625 29 57.90625 20.125 
Q 57.90625 9.515625 50.796875 4.046875 
Q 43.703125 -1.421875 29.984375 -1.421875 
Q 24.8125 -1.421875 18.96875 -0.25 
Q 13.140625 0.921875 6.890625 3.21875 
L 6.890625 13.375 
Q 12.890625 10.015625 18.65625 8.296875 
Q 24.421875 6.59375 29.984375 6.59375 
Q 38.421875 6.59375 43.015625 9.90625 
Q 47.609375 13.234375 47.609375 19.390625 
Q 47.609375 24.75 44.3125 27.78125 
Q 41.015625 30.8125 33.5 32.328125 
L 27.484375 33.5 
Q 16.453125 35.6875 11.515625 40.375 
Q 6.59375 45.0625 6.59375 53.421875 
Q 6.59375 63.09375 13.40625 68.65625 
Q 20.21875 74.21875 32.171875 74.21875 
Q 37.3125 74.21875 42.625 73.28125 
Q 47.953125 72.359375 53.515625 70.515625 
z
" id="DejaVuSans-83"/>
      <path d="M 48.78125 52.59375 
L 48.78125 44.1875 
Q 44.96875 46.296875 41.140625 47.34375 
Q 37.3125 48.390625 33.40625 48.390625 
Q 24.65625 48.390625 19.8125 42.84375 
Q 14.984375 37.3125 14.984375 27.296875 
Q 14.984375 17.28125 19.8125 11.734375 
Q 24.65625 6.203125 33.40625 6.203125 
Q 37.3125 6.203125 41.140625 7.25 
Q 44.96875 8.296875 48.78125 10.40625 
L 48.78125 2.09375 
Q 45.015625 0.34375 40.984375 -0.53125 
Q 36.96875 -1.421875 32.421875 -1.421875 
Q 20.0625 -1.421875 12.78125 6.34375 
Q 5.515625 14.109375 5.515625 27.296875 
Q 5.515625 40.671875 12.859375 48.328125 
Q 20.21875 56 33.015625 56 
Q 37.15625 56 41.109375 55.140625 
Q 45.0625 54.296875 48.78125 52.59375 
z
" id="DejaVuSans-99"/>
     </defs>
     <g transform="translate(427.245312 78.796562)scale(0.1 -0.1)">
      <use xlink:href="#DejaVuSans-83"/>
      <use x="63.476562" xlink:href="#DejaVuSans-99"/>
      <use x="118.457031" xlink:href="#DejaVuSans-111"/>
      <use x="179.638672" xlink:href="#DejaVuSans-116"/>
      <use x="218.847656" xlink:href="#DejaVuSans-108"/>
      <use x="246.630859" xlink:href="#DejaVuSans-97"/>
      <use x="307.910156" xlink:href="#DejaVuSans-110"/>
      <use x="371.289062" xlink:href="#DejaVuSans-100"/>
     </g>
    </g>
    <g id="line2d_27">
     <path d="M 399.245312 89.974687 
L 419.245312 89.974687 
" style="fill:none;stroke:#2ca02c;stroke-linecap:square;stroke-width:1.75;"/>
    </g>
    <g id="line2d_28"/>
    <g id="text_23">
     <!-- Wales -->
     <defs>
      <path d="M 3.328125 72.90625 
L 13.28125 72.90625 
L 28.609375 11.28125 
L 43.890625 72.90625 
L 54.984375 72.90625 
L 70.3125 11.28125 
L 85.59375 72.90625 
L 95.609375 72.90625 
L 77.296875 0 
L 64.890625 0 
L 49.515625 63.28125 
L 33.984375 0 
L 21.578125 0 
z
" id="DejaVuSans-87"/>
     </defs>
     <g transform="translate(427.245312 93.474687)scale(0.1 -0.1)">
      <use xlink:href="#DejaVuSans-87"/>
      <use x="92.501953" xlink:href="#DejaVuSans-97"/>
      <use x="153.78125" xlink:href="#DejaVuSans-108"/>
      <use x="181.564453" xlink:href="#DejaVuSans-101"/>
      <use x="243.087891" xlink:href="#DejaVuSans-115"/>
     </g>
    </g>
    <g id="line2d_29">
     <path d="M 399.245312 104.652812 
L 419.245312 104.652812 
" style="fill:none;stroke:#d62728;stroke-linecap:square;stroke-width:1.75;"/>
    </g>
    <g id="line2d_30"/>
    <g id="text_24">
     <!-- Northern Ireland -->
     <defs>
      <path d="M 9.8125 72.90625 
L 19.671875 72.90625 
L 19.671875 0 
L 9.8125 0 
z
" id="DejaVuSans-73"/>
     </defs>
     <g transform="translate(427.245312 108.152812)scale(0.1 -0.1)">
      <use xlink:href="#DejaVuSans-78"/>
      <use x="74.804688" xlink:href="#DejaVuSans-111"/>
      <use x="135.986328" xlink:href="#DejaVuSans-114"/>
      <use x="177.099609" xlink:href="#DejaVuSans-116"/>
      <use x="216.308594" xlink:href="#DejaVuSans-104"/>
      <use x="279.6875" xlink:href="#DejaVuSans-101"/>
      <use x="341.210938" xlink:href="#DejaVuSans-114"/>
      <use x="380.574219" xlink:href="#DejaVuSans-110"/>
      <use x="443.953125" xlink:href="#DejaVuSans-32"/>
      <use x="475.740234" xlink:href="#DejaVuSans-73"/>
      <use x="505.232422" xlink:href="#DejaVuSans-114"/>
      <use x="544.095703" xlink:href="#DejaVuSans-101"/>
      <use x="605.619141" xlink:href="#DejaVuSans-108"/>
      <use x="633.402344" xlink:href="#DejaVuSans-97"/>
      <use x="694.681641" xlink:href="#DejaVuSans-110"/>
      <use x="758.060547" xlink:href="#DejaVuSans-100"/>
     </g>
    </g>
   </g>
  </g>
 </g>
 <defs>
  <clipPath id="p70dfa1d61d">
   <rect height="298.98" width="446.4" x="72" y="47.52"/>
  </clipPath>
 </defs>
</svg>
