<?xml version="1.0" encoding="utf-8" standalone="no"?>
<!DOCTYPE svg PUBLIC "-//W3C//DTD SVG 1.1//EN"
  "http://www.w3.org/Graphics/SVG/1.1/DTD/svg11.dtd">
<!-- Created with matplotlib (https://matplotlib.org/) -->
<svg height="396pt" version="1.1" viewBox="0 0 576 396" width="576pt" xmlns="http://www.w3.org/2000/svg" xmlns:xlink="http://www.w3.org/1999/xlink">
 <defs>
  <style type="text/css">
*{stroke-linecap:butt;stroke-linejoin:round;}
  </style>
 </defs>
 <g id="figure_1">
  <g id="patch_1">
   <path d="M 0 396 
L 576 396 
L 576 0 
L 0 0 
z
" style="fill:#ffffff;"/>
  </g>
  <g id="axes_1">
   <g id="patch_2">
    <path d="M 40.425 331.102246 
L 565.2 331.102246 
L 565.2 26.8 
L 40.425 26.8 
z
" style="fill:#ffffff;"/>
   </g>
   <g id="matplotlib.axis_1">
    <g id="xtick_1">
     <g id="line2d_1">
      <defs>
       <path d="M 0 0 
L 0 3.5 
" id="m8611db1b0f" style="stroke:#000000;"/>
      </defs>
      <g>
       <use style="stroke:#000000;" x="96.749018" xlink:href="#m8611db1b0f" y="331.102246"/>
      </g>
     </g>
     <g id="text_1">
      <!-- 2020-04 -->
      <defs>
       <path d="M 19.1875 8.296875 
L 53.609375 8.296875 
L 53.609375 0 
L 7.328125 0 
L 7.328125 8.296875 
Q 12.9375 14.109375 22.625 23.890625 
Q 32.328125 33.6875 34.8125 36.53125 
Q 39.546875 41.84375 41.421875 45.53125 
Q 43.3125 49.21875 43.3125 52.78125 
Q 43.3125 58.59375 39.234375 62.25 
Q 35.15625 65.921875 28.609375 65.921875 
Q 23.96875 65.921875 18.8125 64.3125 
Q 13.671875 62.703125 7.8125 59.421875 
L 7.8125 69.390625 
Q 13.765625 71.78125 18.9375 73 
Q 24.125 74.21875 28.421875 74.21875 
Q 39.75 74.21875 46.484375 68.546875 
Q 53.21875 62.890625 53.21875 53.421875 
Q 53.21875 48.921875 51.53125 44.890625 
Q 49.859375 40.875 45.40625 35.40625 
Q 44.1875 33.984375 37.640625 27.21875 
Q 31.109375 20.453125 19.1875 8.296875 
z
" id="DejaVuSans-50"/>
       <path d="M 31.78125 66.40625 
Q 24.171875 66.40625 20.328125 58.90625 
Q 16.5 51.421875 16.5 36.375 
Q 16.5 21.390625 20.328125 13.890625 
Q 24.171875 6.390625 31.78125 6.390625 
Q 39.453125 6.390625 43.28125 13.890625 
Q 47.125 21.390625 47.125 36.375 
Q 47.125 51.421875 43.28125 58.90625 
Q 39.453125 66.40625 31.78125 66.40625 
z
M 31.78125 74.21875 
Q 44.046875 74.21875 50.515625 64.515625 
Q 56.984375 54.828125 56.984375 36.375 
Q 56.984375 17.96875 50.515625 8.265625 
Q 44.046875 -1.421875 31.78125 -1.421875 
Q 19.53125 -1.421875 13.0625 8.265625 
Q 6.59375 17.96875 6.59375 36.375 
Q 6.59375 54.828125 13.0625 64.515625 
Q 19.53125 74.21875 31.78125 74.21875 
z
" id="DejaVuSans-48"/>
       <path d="M 4.890625 31.390625 
L 31.203125 31.390625 
L 31.203125 23.390625 
L 4.890625 23.390625 
z
" id="DejaVuSans-45"/>
       <path d="M 37.796875 64.3125 
L 12.890625 25.390625 
L 37.796875 25.390625 
z
M 35.203125 72.90625 
L 47.609375 72.90625 
L 47.609375 25.390625 
L 58.015625 25.390625 
L 58.015625 17.1875 
L 47.609375 17.1875 
L 47.609375 0 
L 37.796875 0 
L 37.796875 17.1875 
L 4.890625 17.1875 
L 4.890625 26.703125 
z
" id="DejaVuSans-52"/>
      </defs>
      <g transform="translate(59.524198 369.074092)rotate(-30)scale(0.1 -0.1)">
       <use xlink:href="#DejaVuSans-50"/>
       <use x="63.623047" xlink:href="#DejaVuSans-48"/>
       <use x="127.246094" xlink:href="#DejaVuSans-50"/>
       <use x="190.869141" xlink:href="#DejaVuSans-48"/>
       <use x="254.492188" xlink:href="#DejaVuSans-45"/>
       <use x="290.576172" xlink:href="#DejaVuSans-48"/>
       <use x="354.199219" xlink:href="#DejaVuSans-52"/>
      </g>
     </g>
    </g>
    <g id="xtick_2">
     <g id="line2d_2">
      <g>
       <use style="stroke:#000000;" x="171.681193" xlink:href="#m8611db1b0f" y="331.102246"/>
      </g>
     </g>
     <g id="text_2">
      <!-- 2020-05 -->
      <defs>
       <path d="M 10.796875 72.90625 
L 49.515625 72.90625 
L 49.515625 64.59375 
L 19.828125 64.59375 
L 19.828125 46.734375 
Q 21.96875 47.46875 24.109375 47.828125 
Q 26.265625 48.1875 28.421875 48.1875 
Q 40.625 48.1875 47.75 41.5 
Q 54.890625 34.8125 54.890625 23.390625 
Q 54.890625 11.625 47.5625 5.09375 
Q 40.234375 -1.421875 26.90625 -1.421875 
Q 22.3125 -1.421875 17.546875 -0.640625 
Q 12.796875 0.140625 7.71875 1.703125 
L 7.71875 11.625 
Q 12.109375 9.234375 16.796875 8.0625 
Q 21.484375 6.890625 26.703125 6.890625 
Q 35.15625 6.890625 40.078125 11.328125 
Q 45.015625 15.765625 45.015625 23.390625 
Q 45.015625 31 40.078125 35.4375 
Q 35.15625 39.890625 26.703125 39.890625 
Q 22.75 39.890625 18.8125 39.015625 
Q 14.890625 38.140625 10.796875 36.28125 
z
" id="DejaVuSans-53"/>
      </defs>
      <g transform="translate(134.456373 369.074092)rotate(-30)scale(0.1 -0.1)">
       <use xlink:href="#DejaVuSans-50"/>
       <use x="63.623047" xlink:href="#DejaVuSans-48"/>
       <use x="127.246094" xlink:href="#DejaVuSans-50"/>
       <use x="190.869141" xlink:href="#DejaVuSans-48"/>
       <use x="254.492188" xlink:href="#DejaVuSans-45"/>
       <use x="290.576172" xlink:href="#DejaVuSans-48"/>
       <use x="354.199219" xlink:href="#DejaVuSans-53"/>
      </g>
     </g>
    </g>
    <g id="xtick_3">
     <g id="line2d_3">
      <g>
       <use style="stroke:#000000;" x="249.111108" xlink:href="#m8611db1b0f" y="331.102246"/>
      </g>
     </g>
     <g id="text_3">
      <!-- 2020-06 -->
      <defs>
       <path d="M 33.015625 40.375 
Q 26.375 40.375 22.484375 35.828125 
Q 18.609375 31.296875 18.609375 23.390625 
Q 18.609375 15.53125 22.484375 10.953125 
Q 26.375 6.390625 33.015625 6.390625 
Q 39.65625 6.390625 43.53125 10.953125 
Q 47.40625 15.53125 47.40625 23.390625 
Q 47.40625 31.296875 43.53125 35.828125 
Q 39.65625 40.375 33.015625 40.375 
z
M 52.59375 71.296875 
L 52.59375 62.3125 
Q 48.875 64.0625 45.09375 64.984375 
Q 41.3125 65.921875 37.59375 65.921875 
Q 27.828125 65.921875 22.671875 59.328125 
Q 17.53125 52.734375 16.796875 39.40625 
Q 19.671875 43.65625 24.015625 45.921875 
Q 28.375 48.1875 33.59375 48.1875 
Q 44.578125 48.1875 50.953125 41.515625 
Q 57.328125 34.859375 57.328125 23.390625 
Q 57.328125 12.15625 50.6875 5.359375 
Q 44.046875 -1.421875 33.015625 -1.421875 
Q 20.359375 -1.421875 13.671875 8.265625 
Q 6.984375 17.96875 6.984375 36.375 
Q 6.984375 53.65625 15.1875 63.9375 
Q 23.390625 74.21875 37.203125 74.21875 
Q 40.921875 74.21875 44.703125 73.484375 
Q 48.484375 72.75 52.59375 71.296875 
z
" id="DejaVuSans-54"/>
      </defs>
      <g transform="translate(211.886287 369.074092)rotate(-30)scale(0.1 -0.1)">
       <use xlink:href="#DejaVuSans-50"/>
       <use x="63.623047" xlink:href="#DejaVuSans-48"/>
       <use x="127.246094" xlink:href="#DejaVuSans-50"/>
       <use x="190.869141" xlink:href="#DejaVuSans-48"/>
       <use x="254.492188" xlink:href="#DejaVuSans-45"/>
       <use x="290.576172" xlink:href="#DejaVuSans-48"/>
       <use x="354.199219" xlink:href="#DejaVuSans-54"/>
      </g>
     </g>
    </g>
    <g id="xtick_4">
     <g id="line2d_4">
      <g>
       <use style="stroke:#000000;" x="324.043283" xlink:href="#m8611db1b0f" y="331.102246"/>
      </g>
     </g>
     <g id="text_4">
      <!-- 2020-07 -->
      <defs>
       <path d="M 8.203125 72.90625 
L 55.078125 72.90625 
L 55.078125 68.703125 
L 28.609375 0 
L 18.3125 0 
L 43.21875 64.59375 
L 8.203125 64.59375 
z
" id="DejaVuSans-55"/>
      </defs>
      <g transform="translate(286.818462 369.074092)rotate(-30)scale(0.1 -0.1)">
       <use xlink:href="#DejaVuSans-50"/>
       <use x="63.623047" xlink:href="#DejaVuSans-48"/>
       <use x="127.246094" xlink:href="#DejaVuSans-50"/>
       <use x="190.869141" xlink:href="#DejaVuSans-48"/>
       <use x="254.492188" xlink:href="#DejaVuSans-45"/>
       <use x="290.576172" xlink:href="#DejaVuSans-48"/>
       <use x="354.199219" xlink:href="#DejaVuSans-55"/>
      </g>
     </g>
    </g>
    <g id="xtick_5">
     <g id="line2d_5">
      <g>
       <use style="stroke:#000000;" x="401.473197" xlink:href="#m8611db1b0f" y="331.102246"/>
      </g>
     </g>
     <g id="text_5">
      <!-- 2020-08 -->
      <defs>
       <path d="M 31.78125 34.625 
Q 24.75 34.625 20.71875 30.859375 
Q 16.703125 27.09375 16.703125 20.515625 
Q 16.703125 13.921875 20.71875 10.15625 
Q 24.75 6.390625 31.78125 6.390625 
Q 38.8125 6.390625 42.859375 10.171875 
Q 46.921875 13.96875 46.921875 20.515625 
Q 46.921875 27.09375 42.890625 30.859375 
Q 38.875 34.625 31.78125 34.625 
z
M 21.921875 38.8125 
Q 15.578125 40.375 12.03125 44.71875 
Q 8.5 49.078125 8.5 55.328125 
Q 8.5 64.0625 14.71875 69.140625 
Q 20.953125 74.21875 31.78125 74.21875 
Q 42.671875 74.21875 48.875 69.140625 
Q 55.078125 64.0625 55.078125 55.328125 
Q 55.078125 49.078125 51.53125 44.71875 
Q 48 40.375 41.703125 38.8125 
Q 48.828125 37.15625 52.796875 32.3125 
Q 56.78125 27.484375 56.78125 20.515625 
Q 56.78125 9.90625 50.3125 4.234375 
Q 43.84375 -1.421875 31.78125 -1.421875 
Q 19.734375 -1.421875 13.25 4.234375 
Q 6.78125 9.90625 6.78125 20.515625 
Q 6.78125 27.484375 10.78125 32.3125 
Q 14.796875 37.15625 21.921875 38.8125 
z
M 18.3125 54.390625 
Q 18.3125 48.734375 21.84375 45.5625 
Q 25.390625 42.390625 31.78125 42.390625 
Q 38.140625 42.390625 41.71875 45.5625 
Q 45.3125 48.734375 45.3125 54.390625 
Q 45.3125 60.0625 41.71875 63.234375 
Q 38.140625 66.40625 31.78125 66.40625 
Q 25.390625 66.40625 21.84375 63.234375 
Q 18.3125 60.0625 18.3125 54.390625 
z
" id="DejaVuSans-56"/>
      </defs>
      <g transform="translate(364.248376 369.074092)rotate(-30)scale(0.1 -0.1)">
       <use xlink:href="#DejaVuSans-50"/>
       <use x="63.623047" xlink:href="#DejaVuSans-48"/>
       <use x="127.246094" xlink:href="#DejaVuSans-50"/>
       <use x="190.869141" xlink:href="#DejaVuSans-48"/>
       <use x="254.492188" xlink:href="#DejaVuSans-45"/>
       <use x="290.576172" xlink:href="#DejaVuSans-48"/>
       <use x="354.199219" xlink:href="#DejaVuSans-56"/>
      </g>
     </g>
    </g>
    <g id="xtick_6">
     <g id="line2d_6">
      <g>
       <use style="stroke:#000000;" x="478.903112" xlink:href="#m8611db1b0f" y="331.102246"/>
      </g>
     </g>
     <g id="text_6">
      <!-- 2020-09 -->
      <defs>
       <path d="M 10.984375 1.515625 
L 10.984375 10.5 
Q 14.703125 8.734375 18.5 7.8125 
Q 22.3125 6.890625 25.984375 6.890625 
Q 35.75 6.890625 40.890625 13.453125 
Q 46.046875 20.015625 46.78125 33.40625 
Q 43.953125 29.203125 39.59375 26.953125 
Q 35.25 24.703125 29.984375 24.703125 
Q 19.046875 24.703125 12.671875 31.3125 
Q 6.296875 37.9375 6.296875 49.421875 
Q 6.296875 60.640625 12.9375 67.421875 
Q 19.578125 74.21875 30.609375 74.21875 
Q 43.265625 74.21875 49.921875 64.515625 
Q 56.59375 54.828125 56.59375 36.375 
Q 56.59375 19.140625 48.40625 8.859375 
Q 40.234375 -1.421875 26.421875 -1.421875 
Q 22.703125 -1.421875 18.890625 -0.6875 
Q 15.09375 0.046875 10.984375 1.515625 
z
M 30.609375 32.421875 
Q 37.25 32.421875 41.125 36.953125 
Q 45.015625 41.5 45.015625 49.421875 
Q 45.015625 57.28125 41.125 61.84375 
Q 37.25 66.40625 30.609375 66.40625 
Q 23.96875 66.40625 20.09375 61.84375 
Q 16.21875 57.28125 16.21875 49.421875 
Q 16.21875 41.5 20.09375 36.953125 
Q 23.96875 32.421875 30.609375 32.421875 
z
" id="DejaVuSans-57"/>
      </defs>
      <g transform="translate(441.678291 369.074092)rotate(-30)scale(0.1 -0.1)">
       <use xlink:href="#DejaVuSans-50"/>
       <use x="63.623047" xlink:href="#DejaVuSans-48"/>
       <use x="127.246094" xlink:href="#DejaVuSans-50"/>
       <use x="190.869141" xlink:href="#DejaVuSans-48"/>
       <use x="254.492188" xlink:href="#DejaVuSans-45"/>
       <use x="290.576172" xlink:href="#DejaVuSans-48"/>
       <use x="354.199219" xlink:href="#DejaVuSans-57"/>
      </g>
     </g>
    </g>
    <g id="xtick_7">
     <g id="line2d_7">
      <g>
       <use style="stroke:#000000;" x="553.835287" xlink:href="#m8611db1b0f" y="331.102246"/>
      </g>
     </g>
     <g id="text_7">
      <!-- 2020-10 -->
      <defs>
       <path d="M 12.40625 8.296875 
L 28.515625 8.296875 
L 28.515625 63.921875 
L 10.984375 60.40625 
L 10.984375 69.390625 
L 28.421875 72.90625 
L 38.28125 72.90625 
L 38.28125 8.296875 
L 54.390625 8.296875 
L 54.390625 0 
L 12.40625 0 
z
" id="DejaVuSans-49"/>
      </defs>
      <g transform="translate(516.610466 369.074092)rotate(-30)scale(0.1 -0.1)">
       <use xlink:href="#DejaVuSans-50"/>
       <use x="63.623047" xlink:href="#DejaVuSans-48"/>
       <use x="127.246094" xlink:href="#DejaVuSans-50"/>
       <use x="190.869141" xlink:href="#DejaVuSans-48"/>
       <use x="254.492188" xlink:href="#DejaVuSans-45"/>
       <use x="290.576172" xlink:href="#DejaVuSans-49"/>
       <use x="354.199219" xlink:href="#DejaVuSans-48"/>
      </g>
     </g>
    </g>
    <g id="text_8">
     <!-- Date -->
     <defs>
      <path d="M 19.671875 64.796875 
L 19.671875 8.109375 
L 31.59375 8.109375 
Q 46.6875 8.109375 53.6875 14.9375 
Q 60.6875 21.78125 60.6875 36.53125 
Q 60.6875 51.171875 53.6875 57.984375 
Q 46.6875 64.796875 31.59375 64.796875 
z
M 9.8125 72.90625 
L 30.078125 72.90625 
Q 51.265625 72.90625 61.171875 64.09375 
Q 71.09375 55.28125 71.09375 36.53125 
Q 71.09375 17.671875 61.125 8.828125 
Q 51.171875 0 30.078125 0 
L 9.8125 0 
z
" id="DejaVuSans-68"/>
      <path d="M 34.28125 27.484375 
Q 23.390625 27.484375 19.1875 25 
Q 14.984375 22.515625 14.984375 16.5 
Q 14.984375 11.71875 18.140625 8.90625 
Q 21.296875 6.109375 26.703125 6.109375 
Q 34.1875 6.109375 38.703125 11.40625 
Q 43.21875 16.703125 43.21875 25.484375 
L 43.21875 27.484375 
z
M 52.203125 31.203125 
L 52.203125 0 
L 43.21875 0 
L 43.21875 8.296875 
Q 40.140625 3.328125 35.546875 0.953125 
Q 30.953125 -1.421875 24.3125 -1.421875 
Q 15.921875 -1.421875 10.953125 3.296875 
Q 6 8.015625 6 15.921875 
Q 6 25.140625 12.171875 29.828125 
Q 18.359375 34.515625 30.609375 34.515625 
L 43.21875 34.515625 
L 43.21875 35.40625 
Q 43.21875 41.609375 39.140625 45 
Q 35.0625 48.390625 27.6875 48.390625 
Q 23 48.390625 18.546875 47.265625 
Q 14.109375 46.140625 10.015625 43.890625 
L 10.015625 52.203125 
Q 14.9375 54.109375 19.578125 55.046875 
Q 24.21875 56 28.609375 56 
Q 40.484375 56 46.34375 49.84375 
Q 52.203125 43.703125 52.203125 31.203125 
z
" id="DejaVuSans-97"/>
      <path d="M 18.3125 70.21875 
L 18.3125 54.6875 
L 36.8125 54.6875 
L 36.8125 47.703125 
L 18.3125 47.703125 
L 18.3125 18.015625 
Q 18.3125 11.328125 20.140625 9.421875 
Q 21.96875 7.515625 27.59375 7.515625 
L 36.8125 7.515625 
L 36.8125 0 
L 27.59375 0 
Q 17.1875 0 13.234375 3.875 
Q 9.28125 7.765625 9.28125 18.015625 
L 9.28125 47.703125 
L 2.6875 47.703125 
L 2.6875 54.6875 
L 9.28125 54.6875 
L 9.28125 70.21875 
z
" id="DejaVuSans-116"/>
      <path d="M 56.203125 29.59375 
L 56.203125 25.203125 
L 14.890625 25.203125 
Q 15.484375 15.921875 20.484375 11.0625 
Q 25.484375 6.203125 34.421875 6.203125 
Q 39.59375 6.203125 44.453125 7.46875 
Q 49.3125 8.734375 54.109375 11.28125 
L 54.109375 2.78125 
Q 49.265625 0.734375 44.1875 -0.34375 
Q 39.109375 -1.421875 33.890625 -1.421875 
Q 20.796875 -1.421875 13.15625 6.1875 
Q 5.515625 13.8125 5.515625 26.8125 
Q 5.515625 40.234375 12.765625 48.109375 
Q 20.015625 56 32.328125 56 
Q 43.359375 56 49.78125 48.890625 
Q 56.203125 41.796875 56.203125 29.59375 
z
M 47.21875 32.234375 
Q 47.125 39.59375 43.09375 43.984375 
Q 39.0625 48.390625 32.421875 48.390625 
Q 24.90625 48.390625 20.390625 44.140625 
Q 15.875 39.890625 15.1875 32.171875 
z
" id="DejaVuSans-101"/>
     </defs>
     <g transform="translate(289.666641 383.233436)scale(0.11 -0.11)">
      <use xlink:href="#DejaVuSans-68"/>
      <use x="77.001953" xlink:href="#DejaVuSans-97"/>
      <use x="138.28125" xlink:href="#DejaVuSans-116"/>
      <use x="177.490234" xlink:href="#DejaVuSans-101"/>
     </g>
    </g>
   </g>
   <g id="matplotlib.axis_2">
    <g id="ytick_1">
     <g id="line2d_8">
      <defs>
       <path d="M 0 0 
L -3.5 0 
" id="m5a95072bf9" style="stroke:#000000;"/>
      </defs>
      <g>
       <use style="stroke:#000000;" x="40.425" xlink:href="#m5a95072bf9" y="318.273923"/>
      </g>
     </g>
     <g id="text_9">
      <!-- 0 -->
      <g transform="translate(23.5625 322.073141)scale(0.1 -0.1)">
       <use xlink:href="#DejaVuSans-48"/>
      </g>
     </g>
    </g>
    <g id="ytick_2">
     <g id="line2d_9">
      <g>
       <use style="stroke:#000000;" x="40.425" xlink:href="#m5a95072bf9" y="261.645016"/>
      </g>
     </g>
     <g id="text_10">
      <!-- 50 -->
      <g transform="translate(17.2 265.444235)scale(0.1 -0.1)">
       <use xlink:href="#DejaVuSans-53"/>
       <use x="63.623047" xlink:href="#DejaVuSans-48"/>
      </g>
     </g>
    </g>
    <g id="ytick_3">
     <g id="line2d_10">
      <g>
       <use style="stroke:#000000;" x="40.425" xlink:href="#m5a95072bf9" y="205.01611"/>
      </g>
     </g>
     <g id="text_11">
      <!-- 100 -->
      <g transform="translate(10.8375 208.815328)scale(0.1 -0.1)">
       <use xlink:href="#DejaVuSans-49"/>
       <use x="63.623047" xlink:href="#DejaVuSans-48"/>
       <use x="127.246094" xlink:href="#DejaVuSans-48"/>
      </g>
     </g>
    </g>
    <g id="ytick_4">
     <g id="line2d_11">
      <g>
       <use style="stroke:#000000;" x="40.425" xlink:href="#m5a95072bf9" y="148.387203"/>
      </g>
     </g>
     <g id="text_12">
      <!-- 150 -->
      <g transform="translate(10.8375 152.186422)scale(0.1 -0.1)">
       <use xlink:href="#DejaVuSans-49"/>
       <use x="63.623047" xlink:href="#DejaVuSans-53"/>
       <use x="127.246094" xlink:href="#DejaVuSans-48"/>
      </g>
     </g>
    </g>
    <g id="ytick_5">
     <g id="line2d_12">
      <g>
       <use style="stroke:#000000;" x="40.425" xlink:href="#m5a95072bf9" y="91.758297"/>
      </g>
     </g>
     <g id="text_13">
      <!-- 200 -->
      <g transform="translate(10.8375 95.557516)scale(0.1 -0.1)">
       <use xlink:href="#DejaVuSans-50"/>
       <use x="63.623047" xlink:href="#DejaVuSans-48"/>
       <use x="127.246094" xlink:href="#DejaVuSans-48"/>
      </g>
     </g>
    </g>
    <g id="ytick_6">
     <g id="line2d_13">
      <g>
       <use style="stroke:#000000;" x="40.425" xlink:href="#m5a95072bf9" y="35.12939"/>
      </g>
     </g>
     <g id="text_14">
      <!-- 250 -->
      <g transform="translate(10.8375 38.928609)scale(0.1 -0.1)">
       <use xlink:href="#DejaVuSans-50"/>
       <use x="63.623047" xlink:href="#DejaVuSans-53"/>
       <use x="127.246094" xlink:href="#DejaVuSans-48"/>
      </g>
     </g>
    </g>
   </g>
   <g id="line2d_14">
    <path clip-path="url(#p894dffc4be)" d="M 64.278409 313.086175 
L 66.776148 311.671335 
L 71.771627 310.728108 
L 79.264844 306.483588 
L 81.762583 306.011975 
L 84.260322 299.409387 
L 86.758062 294.693253 
L 89.255801 285.260986 
L 91.75354 280.073238 
L 94.251279 273.470651 
L 96.749018 262.15193 
L 99.246757 252.248049 
L 101.744497 243.287394 
L 104.242236 233.855127 
L 106.739975 229.610606 
L 109.237714 222.536405 
L 111.735453 216.877045 
L 114.233193 217.348658 
L 116.730932 216.877045 
L 119.228671 222.064792 
L 121.72641 229.138993 
L 124.224149 231.49706 
L 126.721888 239.042874 
L 129.219628 242.815781 
L 131.717367 245.645461 
L 134.215106 244.702235 
L 136.712845 241.872554 
L 139.210584 238.099647 
L 141.708323 239.514487 
L 144.206063 236.213194 
L 146.703802 226.309313 
L 149.201541 223.951246 
L 151.69928 223.951246 
L 154.197019 227.252539 
L 156.694758 227.252539 
L 159.192498 230.553833 
L 161.690237 223.479632 
L 164.187976 221.593179 
L 166.685715 218.763498 
L 169.183454 217.348658 
L 171.681193 211.217684 
L 174.178933 210.746071 
L 176.676672 206.50155 
L 179.174411 213.104138 
L 181.67215 222.536405 
L 184.169889 222.064792 
L 186.667629 227.724153 
L 189.165368 225.837699 
L 191.663107 229.138993 
L 194.160846 231.968673 
L 196.658585 226.780926 
L 199.156324 224.422859 
L 201.654064 225.366086 
L 204.151803 219.235112 
L 206.649542 227.724153 
L 209.147281 225.366086 
L 211.64502 225.837699 
L 216.640499 229.610606 
L 219.138238 231.025446 
L 221.635977 240.929327 
L 224.133716 242.815781 
L 229.129194 245.645461 
L 231.626934 256.020956 
L 234.124673 256.964183 
L 236.622412 264.038383 
L 239.120151 257.907409 
L 241.61789 256.492569 
L 244.115629 262.15193 
L 246.613369 264.038383 
L 249.111108 258.379023 
L 251.608847 264.038383 
L 254.106586 265.453223 
L 256.604325 271.112584 
L 259.102064 279.130012 
L 261.599804 277.243558 
L 264.097543 279.601625 
L 266.595282 286.204212 
L 269.093021 289.977119 
L 271.59076 291.39196 
L 274.0885 294.693253 
L 276.586239 292.8068 
L 279.083978 294.22164 
L 281.581717 294.693253 
L 284.079456 293.750027 
L 286.577195 291.863573 
L 289.074935 291.863573 
L 291.572674 292.335186 
L 294.070413 293.750027 
L 296.568152 297.522934 
L 299.065891 298.937774 
L 301.56363 301.767454 
L 304.06137 304.125521 
L 306.559109 304.597134 
L 309.056848 301.767454 
L 311.554587 303.182294 
L 314.052326 302.239067 
L 316.550065 301.767454 
L 319.047805 297.522934 
L 321.545544 296.579707 
L 324.043283 297.522934 
L 326.541022 300.824227 
L 329.038761 301.295841 
L 331.5365 298.46616 
L 334.03424 297.994547 
L 336.531979 303.182294 
L 339.029718 305.068748 
L 341.527457 303.653908 
L 344.025196 298.937774 
L 346.522936 298.46616 
L 349.020675 301.767454 
L 351.518414 302.710681 
L 354.016153 302.239067 
L 356.513892 300.352614 
L 359.011631 302.710681 
L 361.509371 306.483588 
L 366.504849 306.483588 
L 369.002588 307.426815 
L 371.500327 306.011975 
L 373.998066 307.898428 
L 376.495806 309.313268 
L 378.993545 311.199722 
L 381.491284 309.784882 
L 383.989023 309.313268 
L 388.984501 307.426815 
L 391.482241 307.898428 
L 393.97998 306.483588 
L 396.477719 306.011975 
L 398.975458 305.068748 
L 401.473197 305.540361 
L 406.468676 308.370041 
L 411.464154 306.483588 
L 413.961893 306.011975 
L 416.459632 308.370041 
L 418.957371 309.313268 
L 421.455111 309.313268 
L 423.95285 308.841655 
L 426.450589 309.313268 
L 428.948328 311.671335 
L 431.446067 310.256495 
L 433.943807 309.784882 
L 436.441546 308.370041 
L 438.939285 308.370041 
L 441.437024 308.841655 
L 443.934763 308.841655 
L 446.432502 305.068748 
L 448.930242 305.068748 
L 451.427981 306.011975 
L 456.423459 304.125521 
L 458.921198 303.653908 
L 461.418937 304.597134 
L 463.916677 304.597134 
L 466.414416 306.011975 
L 468.912155 305.540361 
L 471.409894 305.540361 
L 473.907633 305.068748 
L 476.405372 303.182294 
L 478.903112 299.881001 
L 481.400851 297.522934 
L 483.89859 292.8068 
L 486.396329 291.39196 
L 488.894068 287.619053 
L 491.391807 286.204212 
L 493.889547 277.715171 
L 496.387286 274.413878 
L 498.885025 274.885491 
L 501.382764 272.527424 
L 503.880503 266.868064 
L 506.378243 267.81129 
L 508.875982 268.282904 
L 511.373721 272.527424 
L 513.87146 272.999038 
L 516.369199 264.98161 
L 518.866938 265.453223 
L 521.364678 262.15193 
L 523.862417 253.662889 
L 526.360156 246.117075 
L 528.857895 238.099647 
L 531.355634 229.138993 
L 533.853373 229.138993 
L 536.351113 224.894472 
L 538.848852 218.291885 
L 541.346591 215.933818 
L 541.346591 215.933818 
" style="fill:none;stroke:#1f77b4;stroke-linecap:square;stroke-width:1.75;"/>
   </g>
   <g id="line2d_15">
    <path clip-path="url(#p894dffc4be)" d="M 64.278409 310.50893 
L 66.776148 310.052165 
L 69.273887 307.768344 
L 71.771627 304.570994 
L 74.269366 300.460115 
L 76.767105 292.695122 
L 79.264844 292.695122 
L 81.762583 289.497772 
L 86.758062 284.0166 
L 91.75354 289.497772 
L 94.251279 286.300422 
L 96.749018 273.511022 
L 99.246757 268.486614 
L 101.744497 260.264857 
L 104.242236 258.4378 
L 106.739975 249.759278 
L 109.237714 240.167228 
L 111.735453 241.080757 
L 114.233193 247.018693 
L 116.730932 243.821343 
L 119.228671 246.561928 
L 121.72641 245.6484 
L 124.224149 243.821343 
L 126.721888 251.129571 
L 129.219628 256.153978 
L 131.717367 258.4378 
L 134.215106 268.02985 
L 136.712845 271.683964 
L 139.210584 271.2272 
L 141.708323 269.856907 
L 144.206063 261.63515 
L 146.703802 259.351329 
L 149.201541 252.956628 
L 151.69928 247.475457 
L 154.197019 236.056349 
L 156.694758 234.686057 
L 159.192498 243.821343 
L 161.690237 240.167228 
L 164.187976 234.229292 
L 166.685715 230.575178 
L 169.183454 221.439892 
L 171.681193 231.031942 
L 174.178933 236.056349 
L 176.676672 231.488707 
L 179.174411 231.488707 
L 181.67215 234.686057 
L 184.169889 226.464299 
L 186.667629 231.945471 
L 189.165368 223.723714 
L 191.663107 220.069599 
L 194.160846 215.045192 
L 196.658585 216.415485 
L 199.156324 210.020785 
L 201.654064 217.785778 
L 204.151803 218.242542 
L 206.649542 214.131663 
L 209.147281 194.947563 
L 211.64502 192.206977 
L 214.142759 191.750213 
L 216.640499 188.552863 
L 219.138238 187.18257 
L 221.635977 176.676991 
L 224.133716 185.812277 
L 226.631455 199.058442 
L 229.129194 204.996377 
L 231.626934 208.650492 
L 234.124673 218.242542 
L 236.622412 221.896656 
L 239.120151 230.118414 
L 241.61789 228.748121 
L 244.115629 233.315764 
L 246.613369 230.118414 
L 249.111108 221.439892 
L 251.608847 201.799027 
L 254.106586 204.082849 
L 256.604325 202.712556 
L 259.102064 201.799027 
L 261.599804 200.428735 
L 264.097543 191.750213 
L 266.595282 185.355513 
L 269.093021 186.725806 
L 271.59076 172.566113 
L 274.0885 154.752305 
L 276.586239 141.962905 
L 279.083978 126.432919 
L 281.581717 119.581454 
L 284.079456 111.359697 
L 286.577195 107.705583 
L 289.074935 103.594704 
L 291.572674 104.508233 
L 294.070413 94.002654 
L 296.568152 89.891775 
L 299.065891 88.064718 
L 301.56363 81.670018 
L 304.06137 73.448261 
L 306.559109 60.202096 
L 309.056848 60.65886 
L 311.554587 64.312975 
L 314.052326 71.164439 
L 316.550065 85.324132 
L 319.047805 90.805304 
L 321.545544 104.964997 
L 324.043283 117.297633 
L 326.541022 124.605862 
L 329.038761 128.259976 
L 331.5365 133.741147 
L 334.03424 113.643519 
L 336.531979 113.643519 
L 339.029718 114.557047 
L 341.527457 118.667926 
L 344.025196 124.605862 
L 346.522936 122.778804 
L 349.020675 113.643519 
L 351.518414 137.852026 
L 354.016153 151.098191 
L 356.513892 159.776712 
L 359.011631 169.825527 
L 361.509371 168.911998 
L 364.00711 183.528456 
L 366.504849 195.404327 
L 369.002588 198.601677 
L 371.500327 206.823435 
L 373.998066 211.847842 
L 376.495806 208.193728 
L 378.993545 210.020785 
L 381.491284 212.304606 
L 383.989023 221.439892 
L 386.486762 222.353421 
L 388.984501 216.415485 
L 391.482241 220.526363 
L 393.97998 224.180478 
L 396.477719 224.637242 
L 398.975458 230.118414 
L 401.473197 223.723714 
L 403.970936 225.550771 
L 406.468676 231.031942 
L 408.966415 227.377828 
L 411.464154 224.637242 
L 413.961893 222.353421 
L 416.459632 213.674899 
L 418.957371 209.107256 
L 421.455111 205.909906 
L 423.95285 204.539613 
L 426.450589 204.082849 
L 428.948328 213.674899 
L 431.446067 220.069599 
L 433.943807 223.723714 
L 436.441546 233.315764 
L 438.939285 237.426642 
L 441.437024 231.488707 
L 443.934763 228.748121 
L 446.432502 231.488707 
L 448.930242 236.513114 
L 451.427981 239.2537 
L 453.92572 243.364578 
L 456.423459 243.821343 
L 458.921198 258.4378 
L 461.418937 268.943379 
L 463.916677 271.683964 
L 466.414416 275.338079 
L 468.912155 276.708372 
L 471.409894 276.251607 
L 473.907633 276.251607 
L 476.405372 277.165136 
L 478.903112 268.486614 
L 481.400851 254.326921 
L 483.89859 247.018693 
L 486.396329 237.883407 
L 488.894068 226.464299 
L 491.391807 220.069599 
L 493.889547 200.428735 
L 496.387286 188.552863 
L 498.885025 181.701398 
L 501.382764 177.133755 
L 503.880503 173.022877 
L 506.378243 170.739055 
L 508.875982 169.825527 
L 511.373721 174.39317 
L 513.87146 175.306698 
L 516.369199 177.59052 
L 518.866938 167.084941 
L 521.364678 155.665834 
L 523.862417 140.135848 
L 526.360156 136.024969 
L 528.857895 127.803212 
L 531.355634 124.149097 
L 533.853373 125.976154 
L 536.351113 132.827619 
L 541.346591 160.233477 
L 541.346591 160.233477 
" style="fill:none;stroke:#ff7f0e;stroke-linecap:square;stroke-width:1.75;"/>
   </g>
   <g id="line2d_16">
    <path clip-path="url(#p894dffc4be)" d="M 64.278409 313.757737 
L 69.273887 313.757737 
L 71.771627 313.255938 
L 76.767105 307.234357 
L 79.264844 303.721768 
L 81.762583 298.703784 
L 84.260322 295.692993 
L 86.758062 290.675009 
L 89.255801 289.169614 
L 91.75354 289.169614 
L 94.251279 284.653428 
L 96.749018 268.595878 
L 99.246757 262.072498 
L 101.744497 254.043723 
L 104.242236 246.516747 
L 106.739975 237.986173 
L 109.237714 227.448406 
L 111.735453 220.423228 
L 114.233193 222.932221 
L 116.730932 217.412438 
L 119.228671 216.910639 
L 124.224149 202.860283 
L 126.721888 201.354888 
L 129.219628 198.344097 
L 131.717367 203.362082 
L 134.215106 198.344097 
L 136.712845 190.817121 
L 139.210584 184.79554 
L 141.708323 185.799137 
L 144.206063 185.799137 
L 146.703802 186.802733 
L 149.201541 178.773959 
L 151.69928 186.802733 
L 154.197019 183.290144 
L 156.694758 198.845896 
L 159.192498 208.380066 
L 161.690237 208.380066 
L 164.187976 213.39805 
L 166.685715 218.917833 
L 169.183454 209.885461 
L 171.681193 219.419631 
L 174.178933 222.430422 
L 176.676672 222.932221 
L 179.174411 230.459197 
L 181.67215 235.477181 
L 184.169889 233.971786 
L 186.667629 245.011352 
L 189.165368 251.032933 
L 191.663107 253.040126 
L 194.160846 253.040126 
L 196.658585 241.498762 
L 199.156324 236.982577 
L 201.654064 247.520344 
L 204.151803 255.549119 
L 206.649542 259.061708 
L 209.147281 260.065304 
L 211.64502 265.083289 
L 214.142759 280.63904 
L 216.640499 289.671412 
L 219.138238 292.682203 
L 221.635977 292.180404 
L 224.133716 293.685799 
L 226.631455 297.700187 
L 229.129194 296.194792 
L 231.626934 295.191195 
L 234.124673 296.194792 
L 236.622412 287.664218 
L 239.120151 288.166017 
L 241.61789 287.16242 
L 244.115629 281.140839 
L 246.613369 283.148032 
L 249.111108 283.649831 
L 251.608847 283.148032 
L 254.106586 293.685799 
L 256.604325 296.194792 
L 259.102064 299.707381 
L 261.599804 302.216373 
L 264.097543 302.216373 
L 266.595282 305.728962 
L 269.093021 305.227163 
L 271.59076 302.718171 
L 274.0885 305.227163 
L 276.586239 303.721768 
L 279.083978 305.728962 
L 281.581717 305.227163 
L 284.079456 305.227163 
L 286.577195 307.736155 
L 289.074935 308.739752 
L 291.572674 308.237954 
L 294.070413 308.739752 
L 296.568152 310.245148 
L 299.065891 312.75414 
L 301.56363 312.252341 
L 304.06137 312.252341 
L 306.559109 314.259535 
L 309.056848 314.259535 
L 311.554587 314.761334 
L 314.052326 314.761334 
L 316.550065 313.757737 
L 319.047805 313.255938 
L 321.545544 313.255938 
L 324.043283 313.757737 
L 326.541022 313.255938 
L 329.038761 313.757737 
L 331.5365 312.75414 
L 336.531979 313.757737 
L 341.527457 313.757737 
L 344.025196 314.259535 
L 346.522936 314.259535 
L 351.518414 315.263132 
L 354.016153 316.768527 
L 356.513892 317.270326 
L 361.509371 316.266729 
L 364.00711 315.263132 
L 366.504849 315.76493 
L 369.002588 315.76493 
L 371.500327 314.761334 
L 373.998066 314.259535 
L 378.993545 314.259535 
L 381.491284 315.263132 
L 386.486762 315.263132 
L 388.984501 316.266729 
L 391.482241 316.266729 
L 396.477719 317.270326 
L 401.473197 317.270326 
L 406.468676 315.263132 
L 408.966415 315.76493 
L 411.464154 315.263132 
L 416.459632 315.263132 
L 418.957371 314.761334 
L 421.455111 315.76493 
L 423.95285 315.76493 
L 426.450589 313.255938 
L 428.948328 309.743349 
L 431.446067 308.739752 
L 433.943807 308.739752 
L 436.441546 309.241551 
L 441.437024 307.234357 
L 443.934763 309.241551 
L 446.432502 309.241551 
L 448.930242 307.234357 
L 451.427981 304.223566 
L 453.92572 299.205582 
L 456.423459 299.205582 
L 458.921198 300.710977 
L 461.418937 299.707381 
L 463.916677 301.714574 
L 466.414416 303.21997 
L 468.912155 305.227163 
L 471.409894 305.728962 
L 473.907633 303.721768 
L 476.405372 300.710977 
L 478.903112 293.685799 
L 481.400851 291.176807 
L 483.89859 287.664218 
L 486.396329 284.653428 
L 488.894068 285.657024 
L 491.391807 284.151629 
L 493.889547 282.144435 
L 496.387286 285.657024 
L 498.885025 283.148032 
L 501.382764 278.130048 
L 503.880503 274.617459 
L 506.378243 274.617459 
L 508.875982 272.108467 
L 511.373721 266.588684 
L 513.87146 260.567103 
L 516.369199 248.022142 
L 518.866938 237.484375 
L 521.364678 219.92143 
L 523.862417 205.871074 
L 526.360156 182.286548 
L 528.857895 153.684037 
L 531.355634 131.103108 
L 533.853373 99.489806 
L 536.351113 91.96283 
L 538.848852 86.944846 
L 541.346591 71.389094 
L 541.346591 71.389094 
" style="fill:none;stroke:#2ca02c;stroke-linecap:square;stroke-width:1.75;"/>
   </g>
   <g id="line2d_17">
    <path clip-path="url(#p894dffc4be)" d="M 64.278409 314.608941 
L 66.776148 313.038235 
L 69.273887 310.420392 
L 71.771627 309.896823 
L 74.269366 307.278979 
L 76.767105 305.446489 
L 81.762583 300.73437 
L 84.260322 298.116526 
L 86.758062 297.592958 
L 89.255801 294.451545 
L 91.75354 289.739426 
L 94.251279 287.121583 
L 96.749018 281.885895 
L 99.246757 280.053405 
L 104.242236 272.723443 
L 106.739975 270.629168 
L 109.237714 271.152736 
L 111.735453 267.74954 
L 114.233193 268.534893 
L 116.730932 266.702402 
L 119.228671 268.011324 
L 121.72641 268.796677 
L 124.224149 267.487755 
L 126.721888 268.011324 
L 129.219628 272.199874 
L 131.717367 268.273108 
L 134.215106 266.702402 
L 136.712845 266.964187 
L 139.210584 266.440618 
L 141.708323 262.513852 
L 144.206063 257.278165 
L 146.703802 252.827831 
L 149.201541 253.089615 
L 151.69928 246.80679 
L 154.197019 237.120769 
L 156.694758 235.811847 
L 159.192498 229.267238 
L 161.690237 228.2201 
L 164.187976 223.769766 
L 166.685715 212.513038 
L 169.183454 211.465901 
L 171.681193 214.083744 
L 174.178933 211.989469 
L 176.676672 219.057647 
L 179.174411 220.628353 
L 181.67215 218.534078 
L 184.169889 227.696531 
L 186.667629 222.722628 
L 189.165368 226.911178 
L 191.663107 228.743669 
L 194.160846 231.099728 
L 199.156324 237.382553 
L 201.654064 242.356456 
L 204.151803 254.922106 
L 206.649542 258.848871 
L 209.147281 263.56099 
L 211.64502 266.702402 
L 214.142759 272.199874 
L 216.640499 275.341286 
L 219.138238 279.006267 
L 221.635977 279.529836 
L 224.133716 280.315189 
L 226.631455 277.95913 
L 229.129194 280.053405 
L 231.626934 279.006267 
L 234.124673 283.98017 
L 236.622412 281.362327 
L 239.120151 279.791621 
L 241.61789 281.100542 
L 244.115629 281.885895 
L 246.613369 280.053405 
L 249.111108 282.671249 
L 251.608847 283.456602 
L 254.106586 288.954073 
L 256.604325 295.760467 
L 259.102064 296.807604 
L 261.599804 301.519723 
L 264.097543 305.184704 
L 266.595282 306.231842 
L 269.093021 308.064332 
L 271.59076 304.92292 
L 274.0885 305.446489 
L 276.586239 305.446489 
L 279.083978 301.519723 
L 281.581717 300.472586 
L 284.079456 295.760467 
L 286.577195 294.713329 
L 289.074935 295.760467 
L 291.572674 293.404408 
L 294.070413 294.451545 
L 296.568152 296.022251 
L 299.065891 296.022251 
L 301.56363 298.640095 
L 304.06137 298.901879 
L 306.559109 301.519723 
L 309.056848 304.399351 
L 311.554587 305.708273 
L 314.052326 308.064332 
L 316.550065 309.11147 
L 319.047805 310.682176 
L 321.545544 311.729313 
L 326.541022 312.776451 
L 329.038761 312.514666 
L 334.03424 313.038235 
L 336.531979 313.823588 
L 339.029718 314.347157 
L 341.527457 314.085373 
L 346.522936 314.085373 
L 349.020675 314.347157 
L 351.518414 314.870726 
L 354.016153 313.823588 
L 356.513892 313.561804 
L 359.011631 314.608941 
L 361.509371 315.13251 
L 364.00711 315.13251 
L 366.504849 314.870726 
L 369.002588 315.13251 
L 373.998066 316.703216 
L 376.495806 315.656079 
L 378.993545 315.656079 
L 381.491284 314.870726 
L 386.486762 313.823588 
L 388.984501 314.085373 
L 391.482241 312.514666 
L 393.97998 311.467529 
L 396.477719 311.467529 
L 401.473197 312.514666 
L 403.970936 311.991098 
L 406.468676 311.991098 
L 408.966415 311.729313 
L 411.464154 311.991098 
L 413.961893 310.682176 
L 416.459632 310.420392 
L 418.957371 310.420392 
L 421.455111 310.682176 
L 423.95285 308.849685 
L 426.450589 309.11147 
L 428.948328 308.849685 
L 431.446067 308.326117 
L 433.943807 305.446489 
L 436.441546 305.184704 
L 441.437024 305.184704 
L 443.934763 304.661135 
L 446.432502 305.184704 
L 448.930242 305.446489 
L 451.427981 308.587901 
L 453.92572 308.587901 
L 456.423459 308.849685 
L 461.418937 310.94396 
L 463.916677 311.205745 
L 466.414416 308.849685 
L 468.912155 308.064332 
L 471.409894 306.231842 
L 473.907633 306.231842 
L 476.405372 304.661135 
L 481.400851 293.404408 
L 483.89859 288.16872 
L 486.396329 280.838758 
L 488.894068 277.697346 
L 491.391807 271.676305 
L 493.889547 260.419577 
L 496.387286 258.587087 
L 501.382764 259.110655 
L 503.880503 261.466715 
L 506.378243 263.56099 
L 508.875982 262.513852 
L 511.373721 269.058461 
L 513.87146 271.152736 
L 516.369199 268.273108 
L 518.866938 265.917049 
L 521.364678 265.917049 
L 523.862417 260.943146 
L 526.360156 256.492812 
L 528.857895 250.471771 
L 531.355634 240.000397 
L 533.853373 235.550062 
L 536.351113 235.026494 
L 538.848852 231.099728 
L 541.346591 227.696531 
L 541.346591 227.696531 
" style="fill:none;stroke:#d62728;stroke-linecap:square;stroke-width:1.75;"/>
   </g>
   <g id="line2d_18">
    <path clip-path="url(#p894dffc4be)" d="M 64.278409 315.277786 
L 69.273887 314.279074 
L 74.269366 309.285512 
L 76.767105 304.291951 
L 79.264844 301.295815 
L 81.762583 296.302253 
L 84.260322 289.810624 
L 86.758062 284.817063 
L 89.255801 276.328009 
L 91.75354 270.835091 
L 94.251279 267.838955 
L 96.749018 261.846681 
L 99.246757 241.872436 
L 104.242236 212.909781 
L 106.739975 202.423303 
L 109.237714 187.941975 
L 111.735453 171.463224 
L 114.233193 155.983184 
L 116.730932 161.476101 
L 119.228671 168.467087 
L 121.72641 171.96258 
L 124.224149 179.952278 
L 126.721888 185.944551 
L 129.219628 187.442619 
L 131.717367 191.936824 
L 134.215106 196.930386 
L 136.712845 197.429742 
L 139.210584 192.436181 
L 141.708323 184.945839 
L 144.206063 191.437468 
L 146.703802 198.92781 
L 149.201541 195.931673 
L 151.69928 191.437468 
L 154.197019 192.935537 
L 159.192498 217.903343 
L 161.690237 219.401411 
L 164.187976 222.896904 
L 166.685715 235.380807 
L 169.183454 246.865998 
L 171.681193 242.371792 
L 174.178933 239.875012 
L 176.676672 236.878875 
L 179.174411 231.385958 
L 181.67215 225.393684 
L 184.169889 225.89304 
L 186.667629 215.905918 
L 189.165368 218.902055 
L 191.663107 223.39626 
L 194.160846 222.896904 
L 196.658585 222.896904 
L 199.156324 228.889177 
L 201.654064 217.903343 
L 204.151803 226.392397 
L 206.649542 232.38467 
L 209.147281 229.388533 
L 211.64502 233.383382 
L 214.142759 238.8763 
L 216.640499 239.375656 
L 219.138238 252.858271 
L 224.133716 254.855695 
L 226.631455 262.845393 
L 229.129194 260.348613 
L 234.124673 264.343462 
L 236.622412 262.845393 
L 239.120151 263.844106 
L 241.61789 263.844106 
L 244.115629 265.84153 
L 246.613369 272.832516 
L 249.111108 272.832516 
L 251.608847 277.326721 
L 254.106586 279.823501 
L 256.604325 280.822214 
L 259.102064 286.315131 
L 261.599804 284.817063 
L 264.097543 286.814487 
L 266.595282 290.809336 
L 269.093021 294.304829 
L 271.59076 295.303541 
L 274.0885 297.300966 
L 276.586239 294.804185 
L 279.083978 295.802897 
L 281.581717 294.804185 
L 284.079456 290.809336 
L 286.577195 283.81835 
L 289.074935 283.81835 
L 291.572674 285.316419 
L 294.070413 287.813199 
L 296.568152 287.313843 
L 299.065891 287.813199 
L 301.56363 294.304829 
L 304.06137 297.300966 
L 306.559109 299.29839 
L 309.056848 299.29839 
L 314.052326 302.294527 
L 316.550065 304.291951 
L 319.047805 304.291951 
L 321.545544 308.786156 
L 326.541022 314.77843 
L 329.038761 313.779717 
L 331.5365 313.779717 
L 334.03424 312.781005 
L 336.531979 309.784869 
L 339.029718 310.783581 
L 344.025196 308.786156 
L 346.522936 309.784869 
L 349.020675 309.784869 
L 351.518414 310.783581 
L 354.016153 314.279074 
L 356.513892 313.280361 
L 361.509371 315.277786 
L 364.00711 315.777142 
L 366.504849 314.279074 
L 369.002588 314.279074 
L 371.500327 312.281649 
L 373.998066 312.281649 
L 376.495806 311.782293 
L 378.993545 310.783581 
L 381.491284 310.284225 
L 383.989023 311.782293 
L 386.486762 311.782293 
L 388.984501 313.779717 
L 391.482241 314.279074 
L 393.97998 311.782293 
L 396.477719 310.783581 
L 398.975458 310.783581 
L 401.473197 309.285512 
L 406.468676 309.285512 
L 408.966415 308.786156 
L 411.464154 311.282937 
L 413.961893 312.281649 
L 416.459632 309.784869 
L 418.957371 311.782293 
L 421.455111 311.782293 
L 423.95285 311.282937 
L 426.450589 309.784869 
L 428.948328 310.783581 
L 431.446067 309.784869 
L 433.943807 312.281649 
L 436.441546 311.282937 
L 438.939285 309.784869 
L 441.437024 309.784869 
L 443.934763 311.282937 
L 446.432502 308.2868 
L 448.930242 308.2868 
L 453.92572 304.291951 
L 456.423459 302.793883 
L 461.418937 288.811912 
L 463.916677 285.316419 
L 466.414416 279.823501 
L 468.912155 269.836379 
L 471.409894 269.836379 
L 473.907633 269.337023 
L 476.405372 265.84153 
L 478.903112 260.847969 
L 481.400851 250.860846 
L 483.89859 242.371792 
L 486.396329 231.885314 
L 488.894068 223.39626 
L 491.391807 210.912357 
L 493.889547 199.926522 
L 496.387286 184.446483 
L 498.885025 171.96258 
L 501.382764 161.975457 
L 503.880503 162.474813 
L 506.378243 150.490266 
L 508.875982 150.989623 
L 511.373721 143.499281 
L 513.87146 135.010227 
L 516.369199 127.519885 
L 518.866938 110.042421 
L 521.364678 95.561093 
L 523.862417 86.073327 
L 526.360156 66.598438 
L 528.857895 52.616467 
L 531.355634 48.621618 
L 533.853373 44.127413 
L 536.351113 45.126125 
L 538.848852 40.63192 
L 541.346591 51.617755 
L 541.346591 51.617755 
" style="fill:none;stroke:#9467bd;stroke-linecap:square;stroke-width:1.75;"/>
   </g>
   <g id="line2d_19">
    <path clip-path="url(#p894dffc4be)" d="M 64.278409 308.683076 
L 66.776148 308.449153 
L 69.273887 307.045615 
L 71.771627 306.343845 
L 74.269366 301.899307 
L 76.767105 298.624384 
L 79.264844 296.752999 
L 81.762583 293.711999 
L 84.260322 288.331768 
L 86.758062 284.588999 
L 89.255801 281.547999 
L 91.75354 277.571306 
L 96.749018 264.705537 
L 101.744497 244.588152 
L 104.242236 240.61146 
L 106.739975 234.061613 
L 109.237714 231.48846 
L 114.233193 221.66369 
L 116.730932 224.002921 
L 119.228671 224.002921 
L 121.72641 225.874306 
L 124.224149 228.213536 
L 126.721888 227.511767 
L 129.219628 232.190229 
L 131.717367 238.038306 
L 134.215106 240.61146 
L 136.712845 245.757767 
L 139.210584 242.482844 
L 141.708323 243.418537 
L 144.206063 247.161306 
L 146.703802 252.073691 
L 149.201541 250.670152 
L 154.197019 243.65246 
L 156.694758 246.225614 
L 159.192498 242.716767 
L 161.690237 240.377537 
L 164.187976 237.102614 
L 166.685715 238.506152 
L 169.183454 239.441844 
L 171.681193 247.395229 
L 174.178933 245.289921 
L 176.676672 253.711152 
L 179.174411 251.605845 
L 181.67215 247.161306 
L 184.169889 246.459537 
L 186.667629 252.77546 
L 189.165368 249.266614 
L 191.663107 248.096998 
L 194.160846 236.634767 
L 196.658585 231.48846 
L 199.156324 235.231229 
L 201.654064 230.78669 
L 204.151803 230.084921 
L 206.649542 233.593767 
L 209.147281 241.313229 
L 211.64502 243.65246 
L 214.142759 251.137998 
L 216.640499 257.219998 
L 219.138238 262.834152 
L 221.635977 264.705537 
L 224.133716 264.93946 
L 226.631455 264.93946 
L 229.129194 274.296383 
L 231.626934 282.249768 
L 234.124673 282.717614 
L 236.622412 286.694307 
L 239.120151 290.203153 
L 241.61789 289.033537 
L 244.115629 291.138845 
L 246.613369 293.01023 
L 249.111108 291.138845 
L 251.608847 293.01023 
L 254.106586 295.115538 
L 256.604325 295.817307 
L 259.102064 300.027922 
L 261.599804 301.431461 
L 264.097543 299.793999 
L 266.595282 302.367153 
L 269.093021 303.536768 
L 271.59076 303.770692 
L 274.0885 304.472461 
L 276.586239 304.940307 
L 279.083978 303.770692 
L 281.581717 305.875999 
L 284.079456 305.642076 
L 286.577195 306.109922 
L 289.074935 306.811692 
L 291.572674 307.045615 
L 294.070413 308.916999 
L 299.065891 309.852692 
L 301.56363 310.788384 
L 306.559109 312.191922 
L 311.554587 311.724076 
L 316.550065 310.788384 
L 319.047805 311.022307 
L 321.545544 310.320538 
L 324.043283 310.320538 
L 326.541022 310.788384 
L 329.038761 311.022307 
L 331.5365 311.957999 
L 334.03424 311.25623 
L 336.531979 311.490153 
L 339.029718 312.425846 
L 341.527457 311.022307 
L 344.025196 309.384845 
L 346.522936 310.320538 
L 349.020675 310.320538 
L 351.518414 311.022307 
L 354.016153 310.554461 
L 356.513892 309.150922 
L 359.011631 310.086615 
L 361.509371 312.191922 
L 364.00711 311.490153 
L 366.504849 310.320538 
L 369.002588 310.320538 
L 371.500327 308.916999 
L 373.998066 307.279538 
L 376.495806 306.811692 
L 378.993545 305.408153 
L 381.491284 304.472461 
L 388.984501 304.472461 
L 391.482241 306.811692 
L 393.97998 307.045615 
L 396.477719 307.045615 
L 398.975458 307.981307 
L 401.473197 309.150922 
L 403.970936 309.150922 
L 406.468676 309.852692 
L 408.966415 308.21523 
L 411.464154 309.150922 
L 413.961893 309.384845 
L 416.459632 307.981307 
L 418.957371 306.811692 
L 421.455111 306.577769 
L 423.95285 304.940307 
L 426.450589 304.472461 
L 428.948328 303.302845 
L 431.446067 303.770692 
L 436.441546 302.367153 
L 438.939285 301.899307 
L 443.934763 302.834999 
L 446.432502 301.197538 
L 448.930242 298.624384 
L 451.427981 297.454768 
L 453.92572 297.220845 
L 456.423459 296.285153 
L 458.921198 296.752999 
L 461.418937 297.688691 
L 463.916677 297.688691 
L 466.414416 299.793999 
L 468.912155 301.665384 
L 471.409894 303.302845 
L 473.907633 304.238538 
L 476.405372 304.706384 
L 478.903112 302.601076 
L 481.400851 302.367153 
L 483.89859 300.261845 
L 486.396329 298.858307 
L 488.894068 294.647691 
L 491.391807 293.01023 
L 493.889547 292.776307 
L 496.387286 293.244153 
L 503.880503 293.244153 
L 506.378243 293.945922 
L 508.875982 295.817307 
L 511.373721 295.583384 
L 513.87146 295.115538 
L 516.369199 295.115538 
L 518.866938 294.647691 
L 521.364678 296.752999 
L 523.862417 297.454768 
L 526.360156 293.01023 
L 528.857895 293.244153 
L 531.355634 292.542384 
L 533.853373 292.542384 
L 536.351113 293.711999 
L 538.848852 288.331768 
L 541.346591 286.22646 
L 541.346591 286.22646 
" style="fill:none;stroke:#8c564b;stroke-linecap:square;stroke-width:1.75;"/>
   </g>
   <g id="line2d_20">
    <path clip-path="url(#p894dffc4be)" d="M 64.278409 290.121942 
L 66.776148 288.504012 
L 69.273887 283.00305 
L 74.269366 273.295471 
L 76.767105 262.617133 
L 81.762583 247.085006 
L 84.260322 233.494394 
L 86.758062 231.552879 
L 89.255801 220.874541 
L 91.75354 218.609439 
L 94.251279 211.166962 
L 96.749018 202.43014 
L 99.246757 196.929178 
L 101.744497 200.165038 
L 104.242236 192.72256 
L 106.739975 183.014981 
L 109.237714 162.305478 
L 111.735453 161.33472 
L 114.233193 157.128102 
L 116.730932 156.48093 
L 119.228671 159.71679 
L 121.72641 168.453611 
L 126.721888 197.899936 
L 129.219628 204.04807 
L 131.717367 220.550955 
L 134.215106 230.905707 
L 136.712845 231.876465 
L 139.210584 232.200051 
L 141.708323 236.730254 
L 144.206063 239.642528 
L 146.703802 242.231216 
L 151.69928 240.936872 
L 156.694758 231.229293 
L 159.192498 225.081159 
L 161.690237 220.227369 
L 164.187976 220.550955 
L 166.685715 205.666 
L 169.183454 197.57635 
L 171.681193 194.664076 
L 174.178933 202.43014 
L 176.676672 211.490547 
L 179.174411 224.433987 
L 181.67215 225.728331 
L 184.169889 242.878388 
L 186.667629 251.61521 
L 189.165368 264.235063 
L 191.663107 267.794509 
L 194.160846 268.118095 
L 196.658585 267.794509 
L 199.156324 277.502088 
L 201.654064 282.679464 
L 204.151803 290.121942 
L 206.649542 293.357802 
L 209.147281 290.121942 
L 211.64502 290.769114 
L 214.142759 292.71063 
L 216.640499 290.121942 
L 219.138238 291.0927 
L 221.635977 294.004974 
L 224.133716 286.886082 
L 226.631455 289.151184 
L 229.129194 289.798356 
L 231.626934 293.357802 
L 234.124673 297.56442 
L 236.622412 298.858763 
L 239.120151 297.56442 
L 241.61789 305.654069 
L 244.115629 305.330483 
L 246.613369 305.977655 
L 249.111108 305.330483 
L 251.608847 301.123865 
L 254.106586 301.123865 
L 256.604325 302.418209 
L 259.102064 302.741795 
L 261.599804 305.006897 
L 264.097543 304.683311 
L 266.595282 305.654069 
L 269.093021 308.242757 
L 271.59076 310.507859 
L 274.0885 310.184273 
L 276.586239 310.507859 
L 279.083978 310.184273 
L 281.581717 311.155031 
L 284.079456 309.537101 
L 286.577195 310.831445 
L 289.074935 310.184273 
L 291.572674 310.507859 
L 294.070413 308.889929 
L 299.065891 308.242757 
L 301.56363 309.537101 
L 306.559109 309.537101 
L 309.056848 311.155031 
L 311.554587 311.155031 
L 314.052326 310.831445 
L 316.550065 311.478617 
L 319.047805 310.831445 
L 321.545544 308.889929 
L 324.043283 307.919171 
L 326.541022 307.271999 
L 329.038761 308.889929 
L 331.5365 309.860687 
L 334.03424 308.242757 
L 336.531979 305.330483 
L 339.029718 307.595585 
L 341.527457 309.537101 
L 344.025196 308.889929 
L 346.522936 308.566343 
L 349.020675 307.595585 
L 351.518414 308.566343 
L 354.016153 310.184273 
L 356.513892 309.537101 
L 359.011631 306.301241 
L 361.509371 304.036139 
L 364.00711 300.476693 
L 366.504849 299.829521 
L 369.002588 300.153107 
L 371.500327 299.829521 
L 373.998066 299.182349 
L 376.495806 298.858763 
L 378.993545 299.829521 
L 381.491284 302.741795 
L 383.989023 304.359725 
L 386.486762 302.418209 
L 391.482241 300.476693 
L 393.97998 300.476693 
L 396.477719 301.123865 
L 398.975458 298.858763 
L 401.473197 297.56442 
L 403.970936 298.858763 
L 408.966415 300.153107 
L 411.464154 302.741795 
L 413.961893 299.829521 
L 416.459632 299.505935 
L 418.957371 298.858763 
L 421.455111 299.182349 
L 423.95285 297.888005 
L 426.450589 297.888005 
L 428.948328 295.94649 
L 431.446067 299.182349 
L 433.943807 298.858763 
L 436.441546 300.800279 
L 438.939285 301.447451 
L 441.437024 303.388967 
L 443.934763 304.683311 
L 446.432502 305.006897 
L 448.930242 305.654069 
L 451.427981 309.213515 
L 456.423459 306.624827 
L 458.921198 308.242757 
L 461.418937 309.213515 
L 463.916677 311.155031 
L 466.414416 308.242757 
L 468.912155 307.271999 
L 473.907633 309.860687 
L 476.405372 307.919171 
L 478.903112 305.654069 
L 481.400851 301.123865 
L 483.89859 302.094623 
L 488.894068 298.858763 
L 491.391807 295.299318 
L 493.889547 290.121942 
L 496.387286 289.798356 
L 498.885025 290.445528 
L 501.382764 290.769114 
L 503.880503 291.739872 
L 506.378243 291.0927 
L 508.875982 289.151184 
L 511.373721 292.71063 
L 513.87146 290.445528 
L 516.369199 290.769114 
L 518.866938 287.533254 
L 521.364678 283.00305 
L 523.862417 281.38512 
L 526.360156 278.472846 
L 528.857895 273.295471 
L 531.355634 265.852993 
L 533.853373 260.999203 
L 538.848852 250.644452 
L 541.346591 247.408592 
L 541.346591 247.408592 
" style="fill:none;stroke:#e377c2;stroke-linecap:square;stroke-width:1.75;"/>
   </g>
   <g id="patch_3">
    <path d="M 40.425 331.102246 
L 40.425 26.8 
" style="fill:none;stroke:#000000;stroke-linecap:square;stroke-linejoin:miter;stroke-width:0.8;"/>
   </g>
   <g id="patch_4">
    <path d="M 565.2 331.102246 
L 565.2 26.8 
" style="fill:none;stroke:#000000;stroke-linecap:square;stroke-linejoin:miter;stroke-width:0.8;"/>
   </g>
   <g id="patch_5">
    <path d="M 40.425 331.102246 
L 565.2 331.102246 
" style="fill:none;stroke:#000000;stroke-linecap:square;stroke-linejoin:miter;stroke-width:0.8;"/>
   </g>
   <g id="patch_6">
    <path d="M 40.425 26.8 
L 565.2 26.8 
" style="fill:none;stroke:#000000;stroke-linecap:square;stroke-linejoin:miter;stroke-width:0.8;"/>
   </g>
   <g id="text_15">
    <!-- New Cases per Million Population (7 day rolling) -->
    <defs>
     <path d="M 9.8125 72.90625 
L 23.09375 72.90625 
L 55.421875 11.921875 
L 55.421875 72.90625 
L 64.984375 72.90625 
L 64.984375 0 
L 51.703125 0 
L 19.390625 60.984375 
L 19.390625 0 
L 9.8125 0 
z
" id="DejaVuSans-78"/>
     <path d="M 4.203125 54.6875 
L 13.1875 54.6875 
L 24.421875 12.015625 
L 35.59375 54.6875 
L 46.1875 54.6875 
L 57.421875 12.015625 
L 68.609375 54.6875 
L 77.59375 54.6875 
L 63.28125 0 
L 52.6875 0 
L 40.921875 44.828125 
L 29.109375 0 
L 18.5 0 
z
" id="DejaVuSans-119"/>
     <path id="DejaVuSans-32"/>
     <path d="M 64.40625 67.28125 
L 64.40625 56.890625 
Q 59.421875 61.53125 53.78125 63.8125 
Q 48.140625 66.109375 41.796875 66.109375 
Q 29.296875 66.109375 22.65625 58.46875 
Q 16.015625 50.828125 16.015625 36.375 
Q 16.015625 21.96875 22.65625 14.328125 
Q 29.296875 6.6875 41.796875 6.6875 
Q 48.140625 6.6875 53.78125 8.984375 
Q 59.421875 11.28125 64.40625 15.921875 
L 64.40625 5.609375 
Q 59.234375 2.09375 53.4375 0.328125 
Q 47.65625 -1.421875 41.21875 -1.421875 
Q 24.65625 -1.421875 15.125 8.703125 
Q 5.609375 18.84375 5.609375 36.375 
Q 5.609375 53.953125 15.125 64.078125 
Q 24.65625 74.21875 41.21875 74.21875 
Q 47.75 74.21875 53.53125 72.484375 
Q 59.328125 70.75 64.40625 67.28125 
z
" id="DejaVuSans-67"/>
     <path d="M 44.28125 53.078125 
L 44.28125 44.578125 
Q 40.484375 46.53125 36.375 47.5 
Q 32.28125 48.484375 27.875 48.484375 
Q 21.1875 48.484375 17.84375 46.4375 
Q 14.5 44.390625 14.5 40.28125 
Q 14.5 37.15625 16.890625 35.375 
Q 19.28125 33.59375 26.515625 31.984375 
L 29.59375 31.296875 
Q 39.15625 29.25 43.1875 25.515625 
Q 47.21875 21.78125 47.21875 15.09375 
Q 47.21875 7.46875 41.1875 3.015625 
Q 35.15625 -1.421875 24.609375 -1.421875 
Q 20.21875 -1.421875 15.453125 -0.5625 
Q 10.6875 0.296875 5.421875 2 
L 5.421875 11.28125 
Q 10.40625 8.6875 15.234375 7.390625 
Q 20.0625 6.109375 24.8125 6.109375 
Q 31.15625 6.109375 34.5625 8.28125 
Q 37.984375 10.453125 37.984375 14.40625 
Q 37.984375 18.0625 35.515625 20.015625 
Q 33.0625 21.96875 24.703125 23.78125 
L 21.578125 24.515625 
Q 13.234375 26.265625 9.515625 29.90625 
Q 5.8125 33.546875 5.8125 39.890625 
Q 5.8125 47.609375 11.28125 51.796875 
Q 16.75 56 26.8125 56 
Q 31.78125 56 36.171875 55.265625 
Q 40.578125 54.546875 44.28125 53.078125 
z
" id="DejaVuSans-115"/>
     <path d="M 18.109375 8.203125 
L 18.109375 -20.796875 
L 9.078125 -20.796875 
L 9.078125 54.6875 
L 18.109375 54.6875 
L 18.109375 46.390625 
Q 20.953125 51.265625 25.265625 53.625 
Q 29.59375 56 35.59375 56 
Q 45.5625 56 51.78125 48.09375 
Q 58.015625 40.1875 58.015625 27.296875 
Q 58.015625 14.40625 51.78125 6.484375 
Q 45.5625 -1.421875 35.59375 -1.421875 
Q 29.59375 -1.421875 25.265625 0.953125 
Q 20.953125 3.328125 18.109375 8.203125 
z
M 48.6875 27.296875 
Q 48.6875 37.203125 44.609375 42.84375 
Q 40.53125 48.484375 33.40625 48.484375 
Q 26.265625 48.484375 22.1875 42.84375 
Q 18.109375 37.203125 18.109375 27.296875 
Q 18.109375 17.390625 22.1875 11.75 
Q 26.265625 6.109375 33.40625 6.109375 
Q 40.53125 6.109375 44.609375 11.75 
Q 48.6875 17.390625 48.6875 27.296875 
z
" id="DejaVuSans-112"/>
     <path d="M 41.109375 46.296875 
Q 39.59375 47.171875 37.8125 47.578125 
Q 36.03125 48 33.890625 48 
Q 26.265625 48 22.1875 43.046875 
Q 18.109375 38.09375 18.109375 28.8125 
L 18.109375 0 
L 9.078125 0 
L 9.078125 54.6875 
L 18.109375 54.6875 
L 18.109375 46.1875 
Q 20.953125 51.171875 25.484375 53.578125 
Q 30.03125 56 36.53125 56 
Q 37.453125 56 38.578125 55.875 
Q 39.703125 55.765625 41.0625 55.515625 
z
" id="DejaVuSans-114"/>
     <path d="M 9.8125 72.90625 
L 24.515625 72.90625 
L 43.109375 23.296875 
L 61.8125 72.90625 
L 76.515625 72.90625 
L 76.515625 0 
L 66.890625 0 
L 66.890625 64.015625 
L 48.09375 14.015625 
L 38.1875 14.015625 
L 19.390625 64.015625 
L 19.390625 0 
L 9.8125 0 
z
" id="DejaVuSans-77"/>
     <path d="M 9.421875 54.6875 
L 18.40625 54.6875 
L 18.40625 0 
L 9.421875 0 
z
M 9.421875 75.984375 
L 18.40625 75.984375 
L 18.40625 64.59375 
L 9.421875 64.59375 
z
" id="DejaVuSans-105"/>
     <path d="M 9.421875 75.984375 
L 18.40625 75.984375 
L 18.40625 0 
L 9.421875 0 
z
" id="DejaVuSans-108"/>
     <path d="M 30.609375 48.390625 
Q 23.390625 48.390625 19.1875 42.75 
Q 14.984375 37.109375 14.984375 27.296875 
Q 14.984375 17.484375 19.15625 11.84375 
Q 23.34375 6.203125 30.609375 6.203125 
Q 37.796875 6.203125 41.984375 11.859375 
Q 46.1875 17.53125 46.1875 27.296875 
Q 46.1875 37.015625 41.984375 42.703125 
Q 37.796875 48.390625 30.609375 48.390625 
z
M 30.609375 56 
Q 42.328125 56 49.015625 48.375 
Q 55.71875 40.765625 55.71875 27.296875 
Q 55.71875 13.875 49.015625 6.21875 
Q 42.328125 -1.421875 30.609375 -1.421875 
Q 18.84375 -1.421875 12.171875 6.21875 
Q 5.515625 13.875 5.515625 27.296875 
Q 5.515625 40.765625 12.171875 48.375 
Q 18.84375 56 30.609375 56 
z
" id="DejaVuSans-111"/>
     <path d="M 54.890625 33.015625 
L 54.890625 0 
L 45.90625 0 
L 45.90625 32.71875 
Q 45.90625 40.484375 42.875 44.328125 
Q 39.84375 48.1875 33.796875 48.1875 
Q 26.515625 48.1875 22.3125 43.546875 
Q 18.109375 38.921875 18.109375 30.90625 
L 18.109375 0 
L 9.078125 0 
L 9.078125 54.6875 
L 18.109375 54.6875 
L 18.109375 46.1875 
Q 21.34375 51.125 25.703125 53.5625 
Q 30.078125 56 35.796875 56 
Q 45.21875 56 50.046875 50.171875 
Q 54.890625 44.34375 54.890625 33.015625 
z
" id="DejaVuSans-110"/>
     <path d="M 19.671875 64.796875 
L 19.671875 37.40625 
L 32.078125 37.40625 
Q 38.96875 37.40625 42.71875 40.96875 
Q 46.484375 44.53125 46.484375 51.125 
Q 46.484375 57.671875 42.71875 61.234375 
Q 38.96875 64.796875 32.078125 64.796875 
z
M 9.8125 72.90625 
L 32.078125 72.90625 
Q 44.34375 72.90625 50.609375 67.359375 
Q 56.890625 61.8125 56.890625 51.125 
Q 56.890625 40.328125 50.609375 34.8125 
Q 44.34375 29.296875 32.078125 29.296875 
L 19.671875 29.296875 
L 19.671875 0 
L 9.8125 0 
z
" id="DejaVuSans-80"/>
     <path d="M 8.5 21.578125 
L 8.5 54.6875 
L 17.484375 54.6875 
L 17.484375 21.921875 
Q 17.484375 14.15625 20.5 10.265625 
Q 23.53125 6.390625 29.59375 6.390625 
Q 36.859375 6.390625 41.078125 11.03125 
Q 45.3125 15.671875 45.3125 23.6875 
L 45.3125 54.6875 
L 54.296875 54.6875 
L 54.296875 0 
L 45.3125 0 
L 45.3125 8.40625 
Q 42.046875 3.421875 37.71875 1 
Q 33.40625 -1.421875 27.6875 -1.421875 
Q 18.265625 -1.421875 13.375 4.4375 
Q 8.5 10.296875 8.5 21.578125 
z
M 31.109375 56 
z
" id="DejaVuSans-117"/>
     <path d="M 31 75.875 
Q 24.46875 64.65625 21.28125 53.65625 
Q 18.109375 42.671875 18.109375 31.390625 
Q 18.109375 20.125 21.3125 9.0625 
Q 24.515625 -2 31 -13.1875 
L 23.1875 -13.1875 
Q 15.875 -1.703125 12.234375 9.375 
Q 8.59375 20.453125 8.59375 31.390625 
Q 8.59375 42.28125 12.203125 53.3125 
Q 15.828125 64.359375 23.1875 75.875 
z
" id="DejaVuSans-40"/>
     <path d="M 45.40625 46.390625 
L 45.40625 75.984375 
L 54.390625 75.984375 
L 54.390625 0 
L 45.40625 0 
L 45.40625 8.203125 
Q 42.578125 3.328125 38.25 0.953125 
Q 33.9375 -1.421875 27.875 -1.421875 
Q 17.96875 -1.421875 11.734375 6.484375 
Q 5.515625 14.40625 5.515625 27.296875 
Q 5.515625 40.1875 11.734375 48.09375 
Q 17.96875 56 27.875 56 
Q 33.9375 56 38.25 53.625 
Q 42.578125 51.265625 45.40625 46.390625 
z
M 14.796875 27.296875 
Q 14.796875 17.390625 18.875 11.75 
Q 22.953125 6.109375 30.078125 6.109375 
Q 37.203125 6.109375 41.296875 11.75 
Q 45.40625 17.390625 45.40625 27.296875 
Q 45.40625 37.203125 41.296875 42.84375 
Q 37.203125 48.484375 30.078125 48.484375 
Q 22.953125 48.484375 18.875 42.84375 
Q 14.796875 37.203125 14.796875 27.296875 
z
" id="DejaVuSans-100"/>
     <path d="M 32.171875 -5.078125 
Q 28.375 -14.84375 24.75 -17.8125 
Q 21.140625 -20.796875 15.09375 -20.796875 
L 7.90625 -20.796875 
L 7.90625 -13.28125 
L 13.1875 -13.28125 
Q 16.890625 -13.28125 18.9375 -11.515625 
Q 21 -9.765625 23.484375 -3.21875 
L 25.09375 0.875 
L 2.984375 54.6875 
L 12.5 54.6875 
L 29.59375 11.921875 
L 46.6875 54.6875 
L 56.203125 54.6875 
z
" id="DejaVuSans-121"/>
     <path d="M 45.40625 27.984375 
Q 45.40625 37.75 41.375 43.109375 
Q 37.359375 48.484375 30.078125 48.484375 
Q 22.859375 48.484375 18.828125 43.109375 
Q 14.796875 37.75 14.796875 27.984375 
Q 14.796875 18.265625 18.828125 12.890625 
Q 22.859375 7.515625 30.078125 7.515625 
Q 37.359375 7.515625 41.375 12.890625 
Q 45.40625 18.265625 45.40625 27.984375 
z
M 54.390625 6.78125 
Q 54.390625 -7.171875 48.1875 -13.984375 
Q 42 -20.796875 29.203125 -20.796875 
Q 24.46875 -20.796875 20.265625 -20.09375 
Q 16.0625 -19.390625 12.109375 -17.921875 
L 12.109375 -9.1875 
Q 16.0625 -11.328125 19.921875 -12.34375 
Q 23.78125 -13.375 27.78125 -13.375 
Q 36.625 -13.375 41.015625 -8.765625 
Q 45.40625 -4.15625 45.40625 5.171875 
L 45.40625 9.625 
Q 42.625 4.78125 38.28125 2.390625 
Q 33.9375 0 27.875 0 
Q 17.828125 0 11.671875 7.65625 
Q 5.515625 15.328125 5.515625 27.984375 
Q 5.515625 40.671875 11.671875 48.328125 
Q 17.828125 56 27.875 56 
Q 33.9375 56 38.28125 53.609375 
Q 42.625 51.21875 45.40625 46.390625 
L 45.40625 54.6875 
L 54.390625 54.6875 
z
" id="DejaVuSans-103"/>
     <path d="M 8.015625 75.875 
L 15.828125 75.875 
Q 23.140625 64.359375 26.78125 53.3125 
Q 30.421875 42.28125 30.421875 31.390625 
Q 30.421875 20.453125 26.78125 9.375 
Q 23.140625 -1.703125 15.828125 -13.1875 
L 8.015625 -13.1875 
Q 14.5 -2 17.703125 9.0625 
Q 20.90625 20.125 20.90625 31.390625 
Q 20.90625 42.671875 17.703125 53.65625 
Q 14.5 64.65625 8.015625 75.875 
z
" id="DejaVuSans-41"/>
    </defs>
    <g transform="translate(159.610312 20.8)scale(0.12 -0.12)">
     <use xlink:href="#DejaVuSans-78"/>
     <use x="74.804688" xlink:href="#DejaVuSans-101"/>
     <use x="136.328125" xlink:href="#DejaVuSans-119"/>
     <use x="218.115234" xlink:href="#DejaVuSans-32"/>
     <use x="249.902344" xlink:href="#DejaVuSans-67"/>
     <use x="319.726562" xlink:href="#DejaVuSans-97"/>
     <use x="381.005859" xlink:href="#DejaVuSans-115"/>
     <use x="433.105469" xlink:href="#DejaVuSans-101"/>
     <use x="494.628906" xlink:href="#DejaVuSans-115"/>
     <use x="546.728516" xlink:href="#DejaVuSans-32"/>
     <use x="578.515625" xlink:href="#DejaVuSans-112"/>
     <use x="641.992188" xlink:href="#DejaVuSans-101"/>
     <use x="703.515625" xlink:href="#DejaVuSans-114"/>
     <use x="744.628906" xlink:href="#DejaVuSans-32"/>
     <use x="776.416016" xlink:href="#DejaVuSans-77"/>
     <use x="862.695312" xlink:href="#DejaVuSans-105"/>
     <use x="890.478516" xlink:href="#DejaVuSans-108"/>
     <use x="918.261719" xlink:href="#DejaVuSans-108"/>
     <use x="946.044922" xlink:href="#DejaVuSans-105"/>
     <use x="973.828125" xlink:href="#DejaVuSans-111"/>
     <use x="1035.009766" xlink:href="#DejaVuSans-110"/>
     <use x="1098.388672" xlink:href="#DejaVuSans-32"/>
     <use x="1130.175781" xlink:href="#DejaVuSans-80"/>
     <use x="1186.853516" xlink:href="#DejaVuSans-111"/>
     <use x="1248.035156" xlink:href="#DejaVuSans-112"/>
     <use x="1311.511719" xlink:href="#DejaVuSans-117"/>
     <use x="1374.890625" xlink:href="#DejaVuSans-108"/>
     <use x="1402.673828" xlink:href="#DejaVuSans-97"/>
     <use x="1463.953125" xlink:href="#DejaVuSans-116"/>
     <use x="1503.162109" xlink:href="#DejaVuSans-105"/>
     <use x="1530.945312" xlink:href="#DejaVuSans-111"/>
     <use x="1592.126953" xlink:href="#DejaVuSans-110"/>
     <use x="1655.505859" xlink:href="#DejaVuSans-32"/>
     <use x="1687.292969" xlink:href="#DejaVuSans-40"/>
     <use x="1726.306641" xlink:href="#DejaVuSans-55"/>
     <use x="1789.929688" xlink:href="#DejaVuSans-32"/>
     <use x="1821.716797" xlink:href="#DejaVuSans-100"/>
     <use x="1885.193359" xlink:href="#DejaVuSans-97"/>
     <use x="1946.472656" xlink:href="#DejaVuSans-121"/>
     <use x="2005.652344" xlink:href="#DejaVuSans-32"/>
     <use x="2037.439453" xlink:href="#DejaVuSans-114"/>
     <use x="2076.302734" xlink:href="#DejaVuSans-111"/>
     <use x="2137.484375" xlink:href="#DejaVuSans-108"/>
     <use x="2165.267578" xlink:href="#DejaVuSans-108"/>
     <use x="2193.050781" xlink:href="#DejaVuSans-105"/>
     <use x="2220.833984" xlink:href="#DejaVuSans-110"/>
     <use x="2284.212891" xlink:href="#DejaVuSans-103"/>
     <use x="2347.689453" xlink:href="#DejaVuSans-41"/>
    </g>
   </g>
   <g id="legend_1">
    <g id="patch_7">
     <path d="M 47.425 137.546875 
L 215.060938 137.546875 
Q 217.060938 137.546875 217.060938 135.546875 
L 217.060938 33.8 
Q 217.060938 31.8 215.060938 31.8 
L 47.425 31.8 
Q 45.425 31.8 45.425 33.8 
L 45.425 135.546875 
Q 45.425 137.546875 47.425 137.546875 
z
" style="fill:#ffffff;opacity:0.8;stroke:#cccccc;stroke-linejoin:miter;stroke-width:0.3;"/>
    </g>
    <g id="line2d_21">
     <path d="M 49.425 39.898438 
L 69.425 39.898438 
" style="fill:none;stroke:#1f77b4;stroke-linecap:square;stroke-width:1.75;"/>
    </g>
    <g id="line2d_22"/>
    <g id="text_16">
     <!-- Cheshire West and Chester -->
     <defs>
      <path d="M 54.890625 33.015625 
L 54.890625 0 
L 45.90625 0 
L 45.90625 32.71875 
Q 45.90625 40.484375 42.875 44.328125 
Q 39.84375 48.1875 33.796875 48.1875 
Q 26.515625 48.1875 22.3125 43.546875 
Q 18.109375 38.921875 18.109375 30.90625 
L 18.109375 0 
L 9.078125 0 
L 9.078125 75.984375 
L 18.109375 75.984375 
L 18.109375 46.1875 
Q 21.34375 51.125 25.703125 53.5625 
Q 30.078125 56 35.796875 56 
Q 45.21875 56 50.046875 50.171875 
Q 54.890625 44.34375 54.890625 33.015625 
z
" id="DejaVuSans-104"/>
      <path d="M 3.328125 72.90625 
L 13.28125 72.90625 
L 28.609375 11.28125 
L 43.890625 72.90625 
L 54.984375 72.90625 
L 70.3125 11.28125 
L 85.59375 72.90625 
L 95.609375 72.90625 
L 77.296875 0 
L 64.890625 0 
L 49.515625 63.28125 
L 33.984375 0 
L 21.578125 0 
z
" id="DejaVuSans-87"/>
     </defs>
     <g transform="translate(77.425 43.398438)scale(0.1 -0.1)">
      <use xlink:href="#DejaVuSans-67"/>
      <use x="69.824219" xlink:href="#DejaVuSans-104"/>
      <use x="133.203125" xlink:href="#DejaVuSans-101"/>
      <use x="194.726562" xlink:href="#DejaVuSans-115"/>
      <use x="246.826172" xlink:href="#DejaVuSans-104"/>
      <use x="310.205078" xlink:href="#DejaVuSans-105"/>
      <use x="337.988281" xlink:href="#DejaVuSans-114"/>
      <use x="376.851562" xlink:href="#DejaVuSans-101"/>
      <use x="438.375" xlink:href="#DejaVuSans-32"/>
      <use x="470.162109" xlink:href="#DejaVuSans-87"/>
      <use x="563.164062" xlink:href="#DejaVuSans-101"/>
      <use x="624.6875" xlink:href="#DejaVuSans-115"/>
      <use x="676.787109" xlink:href="#DejaVuSans-116"/>
      <use x="715.996094" xlink:href="#DejaVuSans-32"/>
      <use x="747.783203" xlink:href="#DejaVuSans-97"/>
      <use x="809.0625" xlink:href="#DejaVuSans-110"/>
      <use x="872.441406" xlink:href="#DejaVuSans-100"/>
      <use x="935.917969" xlink:href="#DejaVuSans-32"/>
      <use x="967.705078" xlink:href="#DejaVuSans-67"/>
      <use x="1037.529297" xlink:href="#DejaVuSans-104"/>
      <use x="1100.908203" xlink:href="#DejaVuSans-101"/>
      <use x="1162.431641" xlink:href="#DejaVuSans-115"/>
      <use x="1214.53125" xlink:href="#DejaVuSans-116"/>
      <use x="1253.740234" xlink:href="#DejaVuSans-101"/>
      <use x="1315.263672" xlink:href="#DejaVuSans-114"/>
     </g>
    </g>
    <g id="line2d_23">
     <path d="M 49.425 54.576563 
L 69.425 54.576563 
" style="fill:none;stroke:#ff7f0e;stroke-linecap:square;stroke-width:1.75;"/>
    </g>
    <g id="line2d_24"/>
    <g id="text_17">
     <!-- Leicester -->
     <defs>
      <path d="M 9.8125 72.90625 
L 19.671875 72.90625 
L 19.671875 8.296875 
L 55.171875 8.296875 
L 55.171875 0 
L 9.8125 0 
z
" id="DejaVuSans-76"/>
      <path d="M 48.78125 52.59375 
L 48.78125 44.1875 
Q 44.96875 46.296875 41.140625 47.34375 
Q 37.3125 48.390625 33.40625 48.390625 
Q 24.65625 48.390625 19.8125 42.84375 
Q 14.984375 37.3125 14.984375 27.296875 
Q 14.984375 17.28125 19.8125 11.734375 
Q 24.65625 6.203125 33.40625 6.203125 
Q 37.3125 6.203125 41.140625 7.25 
Q 44.96875 8.296875 48.78125 10.40625 
L 48.78125 2.09375 
Q 45.015625 0.34375 40.984375 -0.53125 
Q 36.96875 -1.421875 32.421875 -1.421875 
Q 20.0625 -1.421875 12.78125 6.34375 
Q 5.515625 14.109375 5.515625 27.296875 
Q 5.515625 40.671875 12.859375 48.328125 
Q 20.21875 56 33.015625 56 
Q 37.15625 56 41.109375 55.140625 
Q 45.0625 54.296875 48.78125 52.59375 
z
" id="DejaVuSans-99"/>
     </defs>
     <g transform="translate(77.425 58.076563)scale(0.1 -0.1)">
      <use xlink:href="#DejaVuSans-76"/>
      <use x="53.962891" xlink:href="#DejaVuSans-101"/>
      <use x="115.486328" xlink:href="#DejaVuSans-105"/>
      <use x="143.269531" xlink:href="#DejaVuSans-99"/>
      <use x="198.25" xlink:href="#DejaVuSans-101"/>
      <use x="259.773438" xlink:href="#DejaVuSans-115"/>
      <use x="311.873047" xlink:href="#DejaVuSans-116"/>
      <use x="351.082031" xlink:href="#DejaVuSans-101"/>
      <use x="412.605469" xlink:href="#DejaVuSans-114"/>
     </g>
    </g>
    <g id="line2d_25">
     <path d="M 49.425 69.254688 
L 69.425 69.254688 
" style="fill:none;stroke:#2ca02c;stroke-linecap:square;stroke-width:1.75;"/>
    </g>
    <g id="line2d_26"/>
    <g id="text_18">
     <!-- Northumberland -->
     <defs>
      <path d="M 52 44.1875 
Q 55.375 50.25 60.0625 53.125 
Q 64.75 56 71.09375 56 
Q 79.640625 56 84.28125 50.015625 
Q 88.921875 44.046875 88.921875 33.015625 
L 88.921875 0 
L 79.890625 0 
L 79.890625 32.71875 
Q 79.890625 40.578125 77.09375 44.375 
Q 74.3125 48.1875 68.609375 48.1875 
Q 61.625 48.1875 57.5625 43.546875 
Q 53.515625 38.921875 53.515625 30.90625 
L 53.515625 0 
L 44.484375 0 
L 44.484375 32.71875 
Q 44.484375 40.625 41.703125 44.40625 
Q 38.921875 48.1875 33.109375 48.1875 
Q 26.21875 48.1875 22.15625 43.53125 
Q 18.109375 38.875 18.109375 30.90625 
L 18.109375 0 
L 9.078125 0 
L 9.078125 54.6875 
L 18.109375 54.6875 
L 18.109375 46.1875 
Q 21.1875 51.21875 25.484375 53.609375 
Q 29.78125 56 35.6875 56 
Q 41.65625 56 45.828125 52.96875 
Q 50 49.953125 52 44.1875 
z
" id="DejaVuSans-109"/>
      <path d="M 48.6875 27.296875 
Q 48.6875 37.203125 44.609375 42.84375 
Q 40.53125 48.484375 33.40625 48.484375 
Q 26.265625 48.484375 22.1875 42.84375 
Q 18.109375 37.203125 18.109375 27.296875 
Q 18.109375 17.390625 22.1875 11.75 
Q 26.265625 6.109375 33.40625 6.109375 
Q 40.53125 6.109375 44.609375 11.75 
Q 48.6875 17.390625 48.6875 27.296875 
z
M 18.109375 46.390625 
Q 20.953125 51.265625 25.265625 53.625 
Q 29.59375 56 35.59375 56 
Q 45.5625 56 51.78125 48.09375 
Q 58.015625 40.1875 58.015625 27.296875 
Q 58.015625 14.40625 51.78125 6.484375 
Q 45.5625 -1.421875 35.59375 -1.421875 
Q 29.59375 -1.421875 25.265625 0.953125 
Q 20.953125 3.328125 18.109375 8.203125 
L 18.109375 0 
L 9.078125 0 
L 9.078125 75.984375 
L 18.109375 75.984375 
z
" id="DejaVuSans-98"/>
     </defs>
     <g transform="translate(77.425 72.754688)scale(0.1 -0.1)">
      <use xlink:href="#DejaVuSans-78"/>
      <use x="74.804688" xlink:href="#DejaVuSans-111"/>
      <use x="135.986328" xlink:href="#DejaVuSans-114"/>
      <use x="177.099609" xlink:href="#DejaVuSans-116"/>
      <use x="216.308594" xlink:href="#DejaVuSans-104"/>
      <use x="279.6875" xlink:href="#DejaVuSans-117"/>
      <use x="343.066406" xlink:href="#DejaVuSans-109"/>
      <use x="440.478516" xlink:href="#DejaVuSans-98"/>
      <use x="503.955078" xlink:href="#DejaVuSans-101"/>
      <use x="565.478516" xlink:href="#DejaVuSans-114"/>
      <use x="606.591797" xlink:href="#DejaVuSans-108"/>
      <use x="634.375" xlink:href="#DejaVuSans-97"/>
      <use x="695.654297" xlink:href="#DejaVuSans-110"/>
      <use x="759.033203" xlink:href="#DejaVuSans-100"/>
     </g>
    </g>
    <g id="line2d_27">
     <path d="M 49.425 83.932813 
L 69.425 83.932813 
" style="fill:none;stroke:#d62728;stroke-linecap:square;stroke-width:1.75;"/>
    </g>
    <g id="line2d_28"/>
    <g id="text_19">
     <!-- North Yorkshire -->
     <defs>
      <path d="M -0.203125 72.90625 
L 10.40625 72.90625 
L 30.609375 42.921875 
L 50.6875 72.90625 
L 61.28125 72.90625 
L 35.5 34.71875 
L 35.5 0 
L 25.59375 0 
L 25.59375 34.71875 
z
" id="DejaVuSans-89"/>
      <path d="M 9.078125 75.984375 
L 18.109375 75.984375 
L 18.109375 31.109375 
L 44.921875 54.6875 
L 56.390625 54.6875 
L 27.390625 29.109375 
L 57.625 0 
L 45.90625 0 
L 18.109375 26.703125 
L 18.109375 0 
L 9.078125 0 
z
" id="DejaVuSans-107"/>
     </defs>
     <g transform="translate(77.425 87.432813)scale(0.1 -0.1)">
      <use xlink:href="#DejaVuSans-78"/>
      <use x="74.804688" xlink:href="#DejaVuSans-111"/>
      <use x="135.986328" xlink:href="#DejaVuSans-114"/>
      <use x="177.099609" xlink:href="#DejaVuSans-116"/>
      <use x="216.308594" xlink:href="#DejaVuSans-104"/>
      <use x="279.6875" xlink:href="#DejaVuSans-32"/>
      <use x="311.474609" xlink:href="#DejaVuSans-89"/>
      <use x="359.308594" xlink:href="#DejaVuSans-111"/>
      <use x="420.490234" xlink:href="#DejaVuSans-114"/>
      <use x="461.603516" xlink:href="#DejaVuSans-107"/>
      <use x="519.513672" xlink:href="#DejaVuSans-115"/>
      <use x="571.613281" xlink:href="#DejaVuSans-104"/>
      <use x="634.992188" xlink:href="#DejaVuSans-105"/>
      <use x="662.775391" xlink:href="#DejaVuSans-114"/>
      <use x="701.638672" xlink:href="#DejaVuSans-101"/>
     </g>
    </g>
    <g id="line2d_29">
     <path d="M 49.425 98.610938 
L 69.425 98.610938 
" style="fill:none;stroke:#9467bd;stroke-linecap:square;stroke-width:1.75;"/>
    </g>
    <g id="line2d_30"/>
    <g id="text_20">
     <!-- Wirral -->
     <g transform="translate(77.425 102.110938)scale(0.1 -0.1)">
      <use xlink:href="#DejaVuSans-87"/>
      <use x="96.626953" xlink:href="#DejaVuSans-105"/>
      <use x="124.410156" xlink:href="#DejaVuSans-114"/>
      <use x="163.773438" xlink:href="#DejaVuSans-114"/>
      <use x="204.886719" xlink:href="#DejaVuSans-97"/>
      <use x="266.166016" xlink:href="#DejaVuSans-108"/>
     </g>
    </g>
    <g id="line2d_31">
     <path d="M 49.425 113.289063 
L 69.425 113.289063 
" style="fill:none;stroke:#8c564b;stroke-linecap:square;stroke-width:1.75;"/>
    </g>
    <g id="line2d_32"/>
    <g id="text_21">
     <!-- Oxfordshire -->
     <defs>
      <path d="M 39.40625 66.21875 
Q 28.65625 66.21875 22.328125 58.203125 
Q 16.015625 50.203125 16.015625 36.375 
Q 16.015625 22.609375 22.328125 14.59375 
Q 28.65625 6.59375 39.40625 6.59375 
Q 50.140625 6.59375 56.421875 14.59375 
Q 62.703125 22.609375 62.703125 36.375 
Q 62.703125 50.203125 56.421875 58.203125 
Q 50.140625 66.21875 39.40625 66.21875 
z
M 39.40625 74.21875 
Q 54.734375 74.21875 63.90625 63.9375 
Q 73.09375 53.65625 73.09375 36.375 
Q 73.09375 19.140625 63.90625 8.859375 
Q 54.734375 -1.421875 39.40625 -1.421875 
Q 24.03125 -1.421875 14.8125 8.828125 
Q 5.609375 19.09375 5.609375 36.375 
Q 5.609375 53.65625 14.8125 63.9375 
Q 24.03125 74.21875 39.40625 74.21875 
z
" id="DejaVuSans-79"/>
      <path d="M 54.890625 54.6875 
L 35.109375 28.078125 
L 55.90625 0 
L 45.3125 0 
L 29.390625 21.484375 
L 13.484375 0 
L 2.875 0 
L 24.125 28.609375 
L 4.6875 54.6875 
L 15.28125 54.6875 
L 29.78125 35.203125 
L 44.28125 54.6875 
z
" id="DejaVuSans-120"/>
      <path d="M 37.109375 75.984375 
L 37.109375 68.5 
L 28.515625 68.5 
Q 23.6875 68.5 21.796875 66.546875 
Q 19.921875 64.59375 19.921875 59.515625 
L 19.921875 54.6875 
L 34.71875 54.6875 
L 34.71875 47.703125 
L 19.921875 47.703125 
L 19.921875 0 
L 10.890625 0 
L 10.890625 47.703125 
L 2.296875 47.703125 
L 2.296875 54.6875 
L 10.890625 54.6875 
L 10.890625 58.5 
Q 10.890625 67.625 15.140625 71.796875 
Q 19.390625 75.984375 28.609375 75.984375 
z
" id="DejaVuSans-102"/>
     </defs>
     <g transform="translate(77.425 116.789063)scale(0.1 -0.1)">
      <use xlink:href="#DejaVuSans-79"/>
      <use x="78.710938" xlink:href="#DejaVuSans-120"/>
      <use x="137.890625" xlink:href="#DejaVuSans-102"/>
      <use x="173.095703" xlink:href="#DejaVuSans-111"/>
      <use x="234.277344" xlink:href="#DejaVuSans-114"/>
      <use x="273.640625" xlink:href="#DejaVuSans-100"/>
      <use x="337.117188" xlink:href="#DejaVuSans-115"/>
      <use x="389.216797" xlink:href="#DejaVuSans-104"/>
      <use x="452.595703" xlink:href="#DejaVuSans-105"/>
      <use x="480.378906" xlink:href="#DejaVuSans-114"/>
      <use x="519.242188" xlink:href="#DejaVuSans-101"/>
     </g>
    </g>
    <g id="line2d_33">
     <path d="M 49.425 127.967188 
L 69.425 127.967188 
" style="fill:none;stroke:#e377c2;stroke-linecap:square;stroke-width:1.75;"/>
    </g>
    <g id="line2d_34"/>
    <g id="text_22">
     <!-- Cumbria -->
     <g transform="translate(77.425 131.467188)scale(0.1 -0.1)">
      <use xlink:href="#DejaVuSans-67"/>
      <use x="69.824219" xlink:href="#DejaVuSans-117"/>
      <use x="133.203125" xlink:href="#DejaVuSans-109"/>
      <use x="230.615234" xlink:href="#DejaVuSans-98"/>
      <use x="294.091797" xlink:href="#DejaVuSans-114"/>
      <use x="335.205078" xlink:href="#DejaVuSans-105"/>
      <use x="362.988281" xlink:href="#DejaVuSans-97"/>
     </g>
    </g>
   </g>
  </g>
 </g>
 <defs>
  <clipPath id="p894dffc4be">
   <rect height="304.302246" width="524.775" x="40.425" y="26.8"/>
  </clipPath>
 </defs>
</svg>
