<?xml version="1.0" encoding="utf-8" standalone="no"?>
<!DOCTYPE svg PUBLIC "-//W3C//DTD SVG 1.1//EN"
  "http://www.w3.org/Graphics/SVG/1.1/DTD/svg11.dtd">
<!-- Created with matplotlib (https://matplotlib.org/) -->
<svg height="396pt" version="1.1" viewBox="0 0 576 396" width="576pt" xmlns="http://www.w3.org/2000/svg" xmlns:xlink="http://www.w3.org/1999/xlink">
 <defs>
  <style type="text/css">
*{stroke-linecap:butt;stroke-linejoin:round;}
  </style>
 </defs>
 <g id="figure_1">
  <g id="patch_1">
   <path d="M 0 396 
L 576 396 
L 576 0 
L 0 0 
z
" style="fill:#ffffff;"/>
  </g>
  <g id="axes_1">
   <g id="patch_2">
    <path d="M 40.425 331.102246 
L 565.2 331.102246 
L 565.2 26.8 
L 40.425 26.8 
z
" style="fill:#ffffff;"/>
   </g>
   <g id="matplotlib.axis_1">
    <g id="xtick_1">
     <g id="line2d_1">
      <defs>
       <path d="M 0 0 
L 0 3.5 
" id="md7c421d3fa" style="stroke:#000000;"/>
      </defs>
      <g>
       <use style="stroke:#000000;" x="97.443577" xlink:href="#md7c421d3fa" y="331.102246"/>
      </g>
     </g>
     <g id="text_1">
      <!-- 2020-04 -->
      <defs>
       <path d="M 19.1875 8.296875 
L 53.609375 8.296875 
L 53.609375 0 
L 7.328125 0 
L 7.328125 8.296875 
Q 12.9375 14.109375 22.625 23.890625 
Q 32.328125 33.6875 34.8125 36.53125 
Q 39.546875 41.84375 41.421875 45.53125 
Q 43.3125 49.21875 43.3125 52.78125 
Q 43.3125 58.59375 39.234375 62.25 
Q 35.15625 65.921875 28.609375 65.921875 
Q 23.96875 65.921875 18.8125 64.3125 
Q 13.671875 62.703125 7.8125 59.421875 
L 7.8125 69.390625 
Q 13.765625 71.78125 18.9375 73 
Q 24.125 74.21875 28.421875 74.21875 
Q 39.75 74.21875 46.484375 68.546875 
Q 53.21875 62.890625 53.21875 53.421875 
Q 53.21875 48.921875 51.53125 44.890625 
Q 49.859375 40.875 45.40625 35.40625 
Q 44.1875 33.984375 37.640625 27.21875 
Q 31.109375 20.453125 19.1875 8.296875 
z
" id="DejaVuSans-50"/>
       <path d="M 31.78125 66.40625 
Q 24.171875 66.40625 20.328125 58.90625 
Q 16.5 51.421875 16.5 36.375 
Q 16.5 21.390625 20.328125 13.890625 
Q 24.171875 6.390625 31.78125 6.390625 
Q 39.453125 6.390625 43.28125 13.890625 
Q 47.125 21.390625 47.125 36.375 
Q 47.125 51.421875 43.28125 58.90625 
Q 39.453125 66.40625 31.78125 66.40625 
z
M 31.78125 74.21875 
Q 44.046875 74.21875 50.515625 64.515625 
Q 56.984375 54.828125 56.984375 36.375 
Q 56.984375 17.96875 50.515625 8.265625 
Q 44.046875 -1.421875 31.78125 -1.421875 
Q 19.53125 -1.421875 13.0625 8.265625 
Q 6.59375 17.96875 6.59375 36.375 
Q 6.59375 54.828125 13.0625 64.515625 
Q 19.53125 74.21875 31.78125 74.21875 
z
" id="DejaVuSans-48"/>
       <path d="M 4.890625 31.390625 
L 31.203125 31.390625 
L 31.203125 23.390625 
L 4.890625 23.390625 
z
" id="DejaVuSans-45"/>
       <path d="M 37.796875 64.3125 
L 12.890625 25.390625 
L 37.796875 25.390625 
z
M 35.203125 72.90625 
L 47.609375 72.90625 
L 47.609375 25.390625 
L 58.015625 25.390625 
L 58.015625 17.1875 
L 47.609375 17.1875 
L 47.609375 0 
L 37.796875 0 
L 37.796875 17.1875 
L 4.890625 17.1875 
L 4.890625 26.703125 
z
" id="DejaVuSans-52"/>
      </defs>
      <g transform="translate(60.218756 369.074092)rotate(-30)scale(0.1 -0.1)">
       <use xlink:href="#DejaVuSans-50"/>
       <use x="63.623047" xlink:href="#DejaVuSans-48"/>
       <use x="127.246094" xlink:href="#DejaVuSans-50"/>
       <use x="190.869141" xlink:href="#DejaVuSans-48"/>
       <use x="254.492188" xlink:href="#DejaVuSans-45"/>
       <use x="290.576172" xlink:href="#DejaVuSans-48"/>
       <use x="354.199219" xlink:href="#DejaVuSans-52"/>
      </g>
     </g>
    </g>
    <g id="xtick_2">
     <g id="line2d_2">
      <g>
       <use style="stroke:#000000;" x="173.978579" xlink:href="#md7c421d3fa" y="331.102246"/>
      </g>
     </g>
     <g id="text_2">
      <!-- 2020-05 -->
      <defs>
       <path d="M 10.796875 72.90625 
L 49.515625 72.90625 
L 49.515625 64.59375 
L 19.828125 64.59375 
L 19.828125 46.734375 
Q 21.96875 47.46875 24.109375 47.828125 
Q 26.265625 48.1875 28.421875 48.1875 
Q 40.625 48.1875 47.75 41.5 
Q 54.890625 34.8125 54.890625 23.390625 
Q 54.890625 11.625 47.5625 5.09375 
Q 40.234375 -1.421875 26.90625 -1.421875 
Q 22.3125 -1.421875 17.546875 -0.640625 
Q 12.796875 0.140625 7.71875 1.703125 
L 7.71875 11.625 
Q 12.109375 9.234375 16.796875 8.0625 
Q 21.484375 6.890625 26.703125 6.890625 
Q 35.15625 6.890625 40.078125 11.328125 
Q 45.015625 15.765625 45.015625 23.390625 
Q 45.015625 31 40.078125 35.4375 
Q 35.15625 39.890625 26.703125 39.890625 
Q 22.75 39.890625 18.8125 39.015625 
Q 14.890625 38.140625 10.796875 36.28125 
z
" id="DejaVuSans-53"/>
      </defs>
      <g transform="translate(136.753758 369.074092)rotate(-30)scale(0.1 -0.1)">
       <use xlink:href="#DejaVuSans-50"/>
       <use x="63.623047" xlink:href="#DejaVuSans-48"/>
       <use x="127.246094" xlink:href="#DejaVuSans-50"/>
       <use x="190.869141" xlink:href="#DejaVuSans-48"/>
       <use x="254.492188" xlink:href="#DejaVuSans-45"/>
       <use x="290.576172" xlink:href="#DejaVuSans-48"/>
       <use x="354.199219" xlink:href="#DejaVuSans-53"/>
      </g>
     </g>
    </g>
    <g id="xtick_3">
     <g id="line2d_3">
      <g>
       <use style="stroke:#000000;" x="253.064748" xlink:href="#md7c421d3fa" y="331.102246"/>
      </g>
     </g>
     <g id="text_3">
      <!-- 2020-06 -->
      <defs>
       <path d="M 33.015625 40.375 
Q 26.375 40.375 22.484375 35.828125 
Q 18.609375 31.296875 18.609375 23.390625 
Q 18.609375 15.53125 22.484375 10.953125 
Q 26.375 6.390625 33.015625 6.390625 
Q 39.65625 6.390625 43.53125 10.953125 
Q 47.40625 15.53125 47.40625 23.390625 
Q 47.40625 31.296875 43.53125 35.828125 
Q 39.65625 40.375 33.015625 40.375 
z
M 52.59375 71.296875 
L 52.59375 62.3125 
Q 48.875 64.0625 45.09375 64.984375 
Q 41.3125 65.921875 37.59375 65.921875 
Q 27.828125 65.921875 22.671875 59.328125 
Q 17.53125 52.734375 16.796875 39.40625 
Q 19.671875 43.65625 24.015625 45.921875 
Q 28.375 48.1875 33.59375 48.1875 
Q 44.578125 48.1875 50.953125 41.515625 
Q 57.328125 34.859375 57.328125 23.390625 
Q 57.328125 12.15625 50.6875 5.359375 
Q 44.046875 -1.421875 33.015625 -1.421875 
Q 20.359375 -1.421875 13.671875 8.265625 
Q 6.984375 17.96875 6.984375 36.375 
Q 6.984375 53.65625 15.1875 63.9375 
Q 23.390625 74.21875 37.203125 74.21875 
Q 40.921875 74.21875 44.703125 73.484375 
Q 48.484375 72.75 52.59375 71.296875 
z
" id="DejaVuSans-54"/>
      </defs>
      <g transform="translate(215.839928 369.074092)rotate(-30)scale(0.1 -0.1)">
       <use xlink:href="#DejaVuSans-50"/>
       <use x="63.623047" xlink:href="#DejaVuSans-48"/>
       <use x="127.246094" xlink:href="#DejaVuSans-50"/>
       <use x="190.869141" xlink:href="#DejaVuSans-48"/>
       <use x="254.492188" xlink:href="#DejaVuSans-45"/>
       <use x="290.576172" xlink:href="#DejaVuSans-48"/>
       <use x="354.199219" xlink:href="#DejaVuSans-54"/>
      </g>
     </g>
    </g>
    <g id="xtick_4">
     <g id="line2d_4">
      <g>
       <use style="stroke:#000000;" x="329.599751" xlink:href="#md7c421d3fa" y="331.102246"/>
      </g>
     </g>
     <g id="text_4">
      <!-- 2020-07 -->
      <defs>
       <path d="M 8.203125 72.90625 
L 55.078125 72.90625 
L 55.078125 68.703125 
L 28.609375 0 
L 18.3125 0 
L 43.21875 64.59375 
L 8.203125 64.59375 
z
" id="DejaVuSans-55"/>
      </defs>
      <g transform="translate(292.37493 369.074092)rotate(-30)scale(0.1 -0.1)">
       <use xlink:href="#DejaVuSans-50"/>
       <use x="63.623047" xlink:href="#DejaVuSans-48"/>
       <use x="127.246094" xlink:href="#DejaVuSans-50"/>
       <use x="190.869141" xlink:href="#DejaVuSans-48"/>
       <use x="254.492188" xlink:href="#DejaVuSans-45"/>
       <use x="290.576172" xlink:href="#DejaVuSans-48"/>
       <use x="354.199219" xlink:href="#DejaVuSans-55"/>
      </g>
     </g>
    </g>
    <g id="xtick_5">
     <g id="line2d_5">
      <g>
       <use style="stroke:#000000;" x="408.68592" xlink:href="#md7c421d3fa" y="331.102246"/>
      </g>
     </g>
     <g id="text_5">
      <!-- 2020-08 -->
      <defs>
       <path d="M 31.78125 34.625 
Q 24.75 34.625 20.71875 30.859375 
Q 16.703125 27.09375 16.703125 20.515625 
Q 16.703125 13.921875 20.71875 10.15625 
Q 24.75 6.390625 31.78125 6.390625 
Q 38.8125 6.390625 42.859375 10.171875 
Q 46.921875 13.96875 46.921875 20.515625 
Q 46.921875 27.09375 42.890625 30.859375 
Q 38.875 34.625 31.78125 34.625 
z
M 21.921875 38.8125 
Q 15.578125 40.375 12.03125 44.71875 
Q 8.5 49.078125 8.5 55.328125 
Q 8.5 64.0625 14.71875 69.140625 
Q 20.953125 74.21875 31.78125 74.21875 
Q 42.671875 74.21875 48.875 69.140625 
Q 55.078125 64.0625 55.078125 55.328125 
Q 55.078125 49.078125 51.53125 44.71875 
Q 48 40.375 41.703125 38.8125 
Q 48.828125 37.15625 52.796875 32.3125 
Q 56.78125 27.484375 56.78125 20.515625 
Q 56.78125 9.90625 50.3125 4.234375 
Q 43.84375 -1.421875 31.78125 -1.421875 
Q 19.734375 -1.421875 13.25 4.234375 
Q 6.78125 9.90625 6.78125 20.515625 
Q 6.78125 27.484375 10.78125 32.3125 
Q 14.796875 37.15625 21.921875 38.8125 
z
M 18.3125 54.390625 
Q 18.3125 48.734375 21.84375 45.5625 
Q 25.390625 42.390625 31.78125 42.390625 
Q 38.140625 42.390625 41.71875 45.5625 
Q 45.3125 48.734375 45.3125 54.390625 
Q 45.3125 60.0625 41.71875 63.234375 
Q 38.140625 66.40625 31.78125 66.40625 
Q 25.390625 66.40625 21.84375 63.234375 
Q 18.3125 60.0625 18.3125 54.390625 
z
" id="DejaVuSans-56"/>
      </defs>
      <g transform="translate(371.461099 369.074092)rotate(-30)scale(0.1 -0.1)">
       <use xlink:href="#DejaVuSans-50"/>
       <use x="63.623047" xlink:href="#DejaVuSans-48"/>
       <use x="127.246094" xlink:href="#DejaVuSans-50"/>
       <use x="190.869141" xlink:href="#DejaVuSans-48"/>
       <use x="254.492188" xlink:href="#DejaVuSans-45"/>
       <use x="290.576172" xlink:href="#DejaVuSans-48"/>
       <use x="354.199219" xlink:href="#DejaVuSans-56"/>
      </g>
     </g>
    </g>
    <g id="xtick_6">
     <g id="line2d_6">
      <g>
       <use style="stroke:#000000;" x="487.772089" xlink:href="#md7c421d3fa" y="331.102246"/>
      </g>
     </g>
     <g id="text_6">
      <!-- 2020-09 -->
      <defs>
       <path d="M 10.984375 1.515625 
L 10.984375 10.5 
Q 14.703125 8.734375 18.5 7.8125 
Q 22.3125 6.890625 25.984375 6.890625 
Q 35.75 6.890625 40.890625 13.453125 
Q 46.046875 20.015625 46.78125 33.40625 
Q 43.953125 29.203125 39.59375 26.953125 
Q 35.25 24.703125 29.984375 24.703125 
Q 19.046875 24.703125 12.671875 31.3125 
Q 6.296875 37.9375 6.296875 49.421875 
Q 6.296875 60.640625 12.9375 67.421875 
Q 19.578125 74.21875 30.609375 74.21875 
Q 43.265625 74.21875 49.921875 64.515625 
Q 56.59375 54.828125 56.59375 36.375 
Q 56.59375 19.140625 48.40625 8.859375 
Q 40.234375 -1.421875 26.421875 -1.421875 
Q 22.703125 -1.421875 18.890625 -0.6875 
Q 15.09375 0.046875 10.984375 1.515625 
z
M 30.609375 32.421875 
Q 37.25 32.421875 41.125 36.953125 
Q 45.015625 41.5 45.015625 49.421875 
Q 45.015625 57.28125 41.125 61.84375 
Q 37.25 66.40625 30.609375 66.40625 
Q 23.96875 66.40625 20.09375 61.84375 
Q 16.21875 57.28125 16.21875 49.421875 
Q 16.21875 41.5 20.09375 36.953125 
Q 23.96875 32.421875 30.609375 32.421875 
z
" id="DejaVuSans-57"/>
      </defs>
      <g transform="translate(450.547268 369.074092)rotate(-30)scale(0.1 -0.1)">
       <use xlink:href="#DejaVuSans-50"/>
       <use x="63.623047" xlink:href="#DejaVuSans-48"/>
       <use x="127.246094" xlink:href="#DejaVuSans-50"/>
       <use x="190.869141" xlink:href="#DejaVuSans-48"/>
       <use x="254.492188" xlink:href="#DejaVuSans-45"/>
       <use x="290.576172" xlink:href="#DejaVuSans-48"/>
       <use x="354.199219" xlink:href="#DejaVuSans-57"/>
      </g>
     </g>
    </g>
    <g id="xtick_7">
     <g id="line2d_7">
      <g>
       <use style="stroke:#000000;" x="564.307092" xlink:href="#md7c421d3fa" y="331.102246"/>
      </g>
     </g>
     <g id="text_7">
      <!-- 2020-10 -->
      <defs>
       <path d="M 12.40625 8.296875 
L 28.515625 8.296875 
L 28.515625 63.921875 
L 10.984375 60.40625 
L 10.984375 69.390625 
L 28.421875 72.90625 
L 38.28125 72.90625 
L 38.28125 8.296875 
L 54.390625 8.296875 
L 54.390625 0 
L 12.40625 0 
z
" id="DejaVuSans-49"/>
      </defs>
      <g transform="translate(527.082271 369.074092)rotate(-30)scale(0.1 -0.1)">
       <use xlink:href="#DejaVuSans-50"/>
       <use x="63.623047" xlink:href="#DejaVuSans-48"/>
       <use x="127.246094" xlink:href="#DejaVuSans-50"/>
       <use x="190.869141" xlink:href="#DejaVuSans-48"/>
       <use x="254.492188" xlink:href="#DejaVuSans-45"/>
       <use x="290.576172" xlink:href="#DejaVuSans-49"/>
       <use x="354.199219" xlink:href="#DejaVuSans-48"/>
      </g>
     </g>
    </g>
    <g id="text_8">
     <!-- Date -->
     <defs>
      <path d="M 19.671875 64.796875 
L 19.671875 8.109375 
L 31.59375 8.109375 
Q 46.6875 8.109375 53.6875 14.9375 
Q 60.6875 21.78125 60.6875 36.53125 
Q 60.6875 51.171875 53.6875 57.984375 
Q 46.6875 64.796875 31.59375 64.796875 
z
M 9.8125 72.90625 
L 30.078125 72.90625 
Q 51.265625 72.90625 61.171875 64.09375 
Q 71.09375 55.28125 71.09375 36.53125 
Q 71.09375 17.671875 61.125 8.828125 
Q 51.171875 0 30.078125 0 
L 9.8125 0 
z
" id="DejaVuSans-68"/>
      <path d="M 34.28125 27.484375 
Q 23.390625 27.484375 19.1875 25 
Q 14.984375 22.515625 14.984375 16.5 
Q 14.984375 11.71875 18.140625 8.90625 
Q 21.296875 6.109375 26.703125 6.109375 
Q 34.1875 6.109375 38.703125 11.40625 
Q 43.21875 16.703125 43.21875 25.484375 
L 43.21875 27.484375 
z
M 52.203125 31.203125 
L 52.203125 0 
L 43.21875 0 
L 43.21875 8.296875 
Q 40.140625 3.328125 35.546875 0.953125 
Q 30.953125 -1.421875 24.3125 -1.421875 
Q 15.921875 -1.421875 10.953125 3.296875 
Q 6 8.015625 6 15.921875 
Q 6 25.140625 12.171875 29.828125 
Q 18.359375 34.515625 30.609375 34.515625 
L 43.21875 34.515625 
L 43.21875 35.40625 
Q 43.21875 41.609375 39.140625 45 
Q 35.0625 48.390625 27.6875 48.390625 
Q 23 48.390625 18.546875 47.265625 
Q 14.109375 46.140625 10.015625 43.890625 
L 10.015625 52.203125 
Q 14.9375 54.109375 19.578125 55.046875 
Q 24.21875 56 28.609375 56 
Q 40.484375 56 46.34375 49.84375 
Q 52.203125 43.703125 52.203125 31.203125 
z
" id="DejaVuSans-97"/>
      <path d="M 18.3125 70.21875 
L 18.3125 54.6875 
L 36.8125 54.6875 
L 36.8125 47.703125 
L 18.3125 47.703125 
L 18.3125 18.015625 
Q 18.3125 11.328125 20.140625 9.421875 
Q 21.96875 7.515625 27.59375 7.515625 
L 36.8125 7.515625 
L 36.8125 0 
L 27.59375 0 
Q 17.1875 0 13.234375 3.875 
Q 9.28125 7.765625 9.28125 18.015625 
L 9.28125 47.703125 
L 2.6875 47.703125 
L 2.6875 54.6875 
L 9.28125 54.6875 
L 9.28125 70.21875 
z
" id="DejaVuSans-116"/>
      <path d="M 56.203125 29.59375 
L 56.203125 25.203125 
L 14.890625 25.203125 
Q 15.484375 15.921875 20.484375 11.0625 
Q 25.484375 6.203125 34.421875 6.203125 
Q 39.59375 6.203125 44.453125 7.46875 
Q 49.3125 8.734375 54.109375 11.28125 
L 54.109375 2.78125 
Q 49.265625 0.734375 44.1875 -0.34375 
Q 39.109375 -1.421875 33.890625 -1.421875 
Q 20.796875 -1.421875 13.15625 6.1875 
Q 5.515625 13.8125 5.515625 26.8125 
Q 5.515625 40.234375 12.765625 48.109375 
Q 20.015625 56 32.328125 56 
Q 43.359375 56 49.78125 48.890625 
Q 56.203125 41.796875 56.203125 29.59375 
z
M 47.21875 32.234375 
Q 47.125 39.59375 43.09375 43.984375 
Q 39.0625 48.390625 32.421875 48.390625 
Q 24.90625 48.390625 20.390625 44.140625 
Q 15.875 39.890625 15.1875 32.171875 
z
" id="DejaVuSans-101"/>
     </defs>
     <g transform="translate(289.666641 383.233436)scale(0.11 -0.11)">
      <use xlink:href="#DejaVuSans-68"/>
      <use x="77.001953" xlink:href="#DejaVuSans-97"/>
      <use x="138.28125" xlink:href="#DejaVuSans-116"/>
      <use x="177.490234" xlink:href="#DejaVuSans-101"/>
     </g>
    </g>
   </g>
   <g id="matplotlib.axis_2">
    <g id="ytick_1">
     <g id="line2d_8">
      <defs>
       <path d="M 0 0 
L -3.5 0 
" id="m1ea27e1626" style="stroke:#000000;"/>
      </defs>
      <g>
       <use style="stroke:#000000;" x="40.425" xlink:href="#m1ea27e1626" y="318.350325"/>
      </g>
     </g>
     <g id="text_9">
      <!-- 0 -->
      <g transform="translate(23.5625 322.149543)scale(0.1 -0.1)">
       <use xlink:href="#DejaVuSans-48"/>
      </g>
     </g>
    </g>
    <g id="ytick_2">
     <g id="line2d_9">
      <g>
       <use style="stroke:#000000;" x="40.425" xlink:href="#m1ea27e1626" y="257.410354"/>
      </g>
     </g>
     <g id="text_10">
      <!-- 50 -->
      <g transform="translate(17.2 261.209573)scale(0.1 -0.1)">
       <use xlink:href="#DejaVuSans-53"/>
       <use x="63.623047" xlink:href="#DejaVuSans-48"/>
      </g>
     </g>
    </g>
    <g id="ytick_3">
     <g id="line2d_10">
      <g>
       <use style="stroke:#000000;" x="40.425" xlink:href="#m1ea27e1626" y="196.470383"/>
      </g>
     </g>
     <g id="text_11">
      <!-- 100 -->
      <g transform="translate(10.8375 200.269602)scale(0.1 -0.1)">
       <use xlink:href="#DejaVuSans-49"/>
       <use x="63.623047" xlink:href="#DejaVuSans-48"/>
       <use x="127.246094" xlink:href="#DejaVuSans-48"/>
      </g>
     </g>
    </g>
    <g id="ytick_4">
     <g id="line2d_11">
      <g>
       <use style="stroke:#000000;" x="40.425" xlink:href="#m1ea27e1626" y="135.530413"/>
      </g>
     </g>
     <g id="text_12">
      <!-- 150 -->
      <g transform="translate(10.8375 139.329631)scale(0.1 -0.1)">
       <use xlink:href="#DejaVuSans-49"/>
       <use x="63.623047" xlink:href="#DejaVuSans-53"/>
       <use x="127.246094" xlink:href="#DejaVuSans-48"/>
      </g>
     </g>
    </g>
    <g id="ytick_5">
     <g id="line2d_12">
      <g>
       <use style="stroke:#000000;" x="40.425" xlink:href="#m1ea27e1626" y="74.590442"/>
      </g>
     </g>
     <g id="text_13">
      <!-- 200 -->
      <g transform="translate(10.8375 78.389661)scale(0.1 -0.1)">
       <use xlink:href="#DejaVuSans-50"/>
       <use x="63.623047" xlink:href="#DejaVuSans-48"/>
       <use x="127.246094" xlink:href="#DejaVuSans-48"/>
      </g>
     </g>
    </g>
   </g>
   <g id="line2d_13">
    <path clip-path="url(#p4eff56b20f)" d="M 64.278409 312.767643 
L 66.829576 311.245093 
L 71.931909 310.23006 
L 79.58541 305.662412 
L 82.136576 305.154895 
L 84.687743 298.049664 
L 87.23891 292.974498 
L 89.790077 282.824168 
L 92.341243 277.241486 
L 94.89241 270.136255 
L 97.443577 257.955858 
L 99.994744 247.298011 
L 102.54591 237.655197 
L 105.097077 227.504867 
L 107.648244 222.937218 
L 110.199411 215.32447 
L 112.750577 209.234272 
L 115.301744 209.741788 
L 117.852911 209.234272 
L 120.404078 214.816953 
L 122.955244 222.937218 
L 125.506411 225.474801 
L 128.057578 233.595065 
L 130.608745 237.655197 
L 133.159911 240.700296 
L 135.711078 239.685263 
L 138.262245 236.640164 
L 140.813412 232.072515 
L 143.364578 233.595065 
L 145.915745 230.042449 
L 148.466912 219.384602 
L 151.018079 216.339503 
L 153.569245 216.339503 
L 156.120412 219.892119 
L 158.671579 219.892119 
L 161.222746 223.444734 
L 163.773912 215.831987 
L 166.325079 213.80192 
L 168.876246 211.264338 
L 171.427412 209.741788 
L 173.978579 203.144073 
L 176.529746 202.636557 
L 179.080913 198.068908 
L 181.632079 205.17414 
L 184.183246 215.32447 
L 186.734413 214.816953 
L 189.28558 220.907152 
L 191.836746 218.877086 
L 194.387913 222.429701 
L 196.93908 225.474801 
L 199.490247 219.892119 
L 202.041413 217.354536 
L 204.59258 218.369569 
L 207.143747 211.771854 
L 209.694914 220.907152 
L 212.24608 218.369569 
L 214.797247 218.369569 
L 219.899581 222.429701 
L 222.450747 223.952251 
L 225.001914 235.117615 
L 227.553081 237.147681 
L 230.104248 238.67023 
L 232.655414 240.700296 
L 235.206581 251.86566 
L 237.757748 253.388209 
L 240.308915 261.000957 
L 242.860081 253.895726 
L 245.411248 252.373176 
L 247.962415 258.463375 
L 250.513582 260.493441 
L 253.064748 254.403242 
L 255.615915 259.985924 
L 258.167082 262.01599 
L 260.718249 268.106189 
L 263.269415 276.73397 
L 265.820582 275.21142 
L 268.371749 277.749003 
L 270.922916 284.854234 
L 273.474082 288.914366 
L 276.025249 289.929399 
L 278.576416 293.482015 
L 281.127583 291.451949 
L 283.678749 292.466982 
L 286.229916 292.974498 
L 288.781083 291.959465 
L 291.33225 289.929399 
L 293.883416 289.929399 
L 296.434583 290.436916 
L 298.98575 291.451949 
L 301.536917 295.512081 
L 304.088083 296.527114 
L 306.63925 299.572213 
L 309.190417 302.109796 
L 311.741584 302.617312 
L 314.29275 299.572213 
L 316.843917 301.094763 
L 319.395084 300.07973 
L 321.946251 300.07973 
L 324.497417 295.512081 
L 327.048584 294.497048 
L 329.599751 295.512081 
L 332.150918 299.064697 
L 334.702084 300.07973 
L 337.253251 297.034631 
L 339.804418 296.527114 
L 342.355585 302.109796 
L 344.906751 304.139862 
L 347.457918 302.617312 
L 350.009085 297.542147 
L 352.560252 297.034631 
L 355.111418 300.587246 
L 357.662585 301.602279 
L 360.213752 301.602279 
L 362.764919 299.572213 
L 365.316085 302.109796 
L 367.867252 306.169928 
L 372.969586 306.169928 
L 375.520752 307.184961 
L 378.071919 305.154895 
L 380.623086 307.184961 
L 383.174253 308.707511 
L 385.725419 310.737577 
L 388.276586 309.215027 
L 390.827753 308.707511 
L 395.930086 306.677445 
L 398.481253 307.184961 
L 401.03242 305.662412 
L 403.583587 305.154895 
L 406.134753 304.139862 
L 408.68592 304.647379 
L 413.788254 307.692478 
L 418.890587 305.662412 
L 421.441754 305.154895 
L 423.992921 307.692478 
L 426.544087 308.199994 
L 429.095254 308.199994 
L 431.646421 307.692478 
L 434.197588 308.199994 
L 436.748754 310.737577 
L 439.299921 309.215027 
L 441.851088 308.707511 
L 444.402254 307.692478 
L 446.953421 307.692478 
L 449.504588 308.199994 
L 452.055755 308.199994 
L 454.606921 304.139862 
L 457.158088 304.139862 
L 459.709255 305.154895 
L 464.811588 303.124829 
L 467.362755 302.617312 
L 469.913922 303.632345 
L 472.465089 303.632345 
L 475.016255 305.154895 
L 477.567422 304.647379 
L 480.118589 304.647379 
L 482.669756 304.139862 
L 485.220922 302.109796 
L 487.772089 298.55718 
L 490.323256 296.019598 
L 492.874423 290.944432 
L 495.425589 289.421883 
L 497.976756 285.361751 
L 500.527923 283.839201 
L 503.07909 274.703904 
L 505.630256 271.151288 
L 508.181423 271.658804 
L 510.73259 269.121222 
L 513.283757 263.031023 
L 515.834923 264.046056 
L 518.38609 264.553573 
L 520.937257 269.121222 
L 523.488424 269.628738 
L 526.03959 261.000957 
L 528.590757 261.508474 
L 531.141924 257.955858 
L 533.693091 248.820561 
L 536.244257 241.207813 
L 538.795424 234.102581 
L 541.346591 229.027416 
L 541.346591 229.027416 
" style="fill:none;stroke:#1f77b4;stroke-linecap:square;stroke-width:1.75;"/>
   </g>
   <g id="line2d_14">
    <path clip-path="url(#p4eff56b20f)" d="M 64.278409 309.994196 
L 66.829576 309.502659 
L 69.380743 307.044974 
L 71.931909 303.604215 
L 74.483076 299.180382 
L 77.034243 290.824253 
L 79.58541 290.824253 
L 82.136576 287.383494 
L 87.23891 281.48505 
L 92.341243 287.383494 
L 94.89241 283.942735 
L 97.443577 270.179699 
L 99.994744 264.772792 
L 102.54591 255.925126 
L 105.097077 253.958978 
L 107.648244 244.619775 
L 110.199411 234.297498 
L 112.750577 235.280572 
L 115.301744 241.670553 
L 117.852911 238.229794 
L 120.404078 241.179016 
L 122.955244 240.195942 
L 125.506411 238.229794 
L 128.057578 246.094386 
L 130.608745 251.501293 
L 133.159911 253.958978 
L 135.711078 264.281255 
L 138.262245 268.213551 
L 140.813412 267.722014 
L 143.364578 266.247403 
L 145.915745 257.399737 
L 148.466912 254.942052 
L 151.018079 248.060534 
L 153.569245 242.16209 
L 156.120412 229.873665 
L 158.671579 228.399054 
L 161.222746 238.229794 
L 163.773912 234.297498 
L 166.325079 227.907517 
L 168.876246 223.975221 
L 171.427412 214.144481 
L 173.978579 224.466758 
L 176.529746 229.873665 
L 179.080913 224.958295 
L 181.632079 224.958295 
L 184.183246 228.399054 
L 186.734413 219.551388 
L 189.28558 225.449832 
L 191.836746 216.602166 
L 194.387913 212.66987 
L 196.93908 207.262963 
L 199.490247 208.737574 
L 202.041413 201.856056 
L 204.59258 210.212185 
L 207.143747 210.703722 
L 209.694914 206.279889 
L 212.24608 185.635335 
L 214.797247 182.686113 
L 217.348414 182.194576 
L 219.899581 178.753817 
L 222.450747 177.279206 
L 225.001914 165.973855 
L 227.553081 175.804595 
L 230.104248 190.059168 
L 232.655414 196.449149 
L 235.206581 200.381445 
L 237.757748 210.703722 
L 240.308915 214.636018 
L 242.860081 223.483684 
L 245.411248 222.009073 
L 247.962415 226.924443 
L 250.513582 223.483684 
L 253.064748 214.144481 
L 255.615915 193.00839 
L 258.167082 195.466075 
L 260.718249 193.991464 
L 263.269415 193.00839 
L 265.820582 191.533779 
L 268.371749 182.194576 
L 270.922916 175.313058 
L 273.474082 176.787669 
L 276.025249 161.550022 
L 278.576416 142.380079 
L 281.127583 128.617043 
L 283.678749 111.904785 
L 286.229916 104.53173 
L 288.781083 95.684064 
L 291.33225 91.751768 
L 293.883416 87.327935 
L 296.434583 88.311009 
L 298.98575 77.005658 
L 301.536917 72.581825 
L 304.088083 70.615677 
L 306.63925 63.734159 
L 309.190417 54.886493 
L 311.741584 40.63192 
L 314.29275 41.123457 
L 316.843917 45.055753 
L 319.395084 52.428808 
L 321.946251 67.666455 
L 324.497417 73.073362 
L 327.048584 87.819472 
L 329.599751 101.090971 
L 332.150918 108.955563 
L 334.702084 112.396322 
L 337.253251 117.803229 
L 339.804418 96.175601 
L 342.355585 96.667138 
L 344.906751 98.141749 
L 347.457918 102.565582 
L 350.009085 108.955563 
L 352.560252 107.480952 
L 355.111418 98.633286 
L 357.662585 124.684747 
L 360.213752 138.93932 
L 362.764919 148.278523 
L 365.316085 159.092337 
L 367.867252 158.109263 
L 370.418419 173.838447 
L 372.969586 186.126872 
L 375.520752 189.567631 
L 378.071919 198.415297 
L 380.623086 203.822204 
L 383.174253 199.889908 
L 385.725419 201.856056 
L 388.276586 204.313741 
L 390.827753 214.144481 
L 393.37892 215.127555 
L 395.930086 208.737574 
L 398.481253 213.161407 
L 401.03242 217.093703 
L 403.583587 217.58524 
L 406.134753 223.483684 
L 408.68592 216.602166 
L 411.237087 218.568314 
L 413.788254 224.466758 
L 416.33942 220.534462 
L 418.890587 217.58524 
L 421.441754 215.127555 
L 423.992921 205.788352 
L 426.544087 200.872982 
L 429.095254 197.432223 
L 431.646421 195.957612 
L 434.197588 195.466075 
L 436.748754 205.788352 
L 439.299921 212.66987 
L 441.851088 216.602166 
L 444.402254 226.924443 
L 446.953421 231.348276 
L 449.504588 224.958295 
L 452.055755 222.009073 
L 454.606921 224.958295 
L 457.158088 230.365202 
L 459.709255 233.314424 
L 462.260422 237.738257 
L 464.811588 238.229794 
L 467.362755 253.958978 
L 469.913922 265.264329 
L 472.465089 268.213551 
L 475.016255 272.145847 
L 477.567422 273.620458 
L 480.118589 273.128921 
L 482.669756 273.128921 
L 485.220922 274.111995 
L 487.772089 264.772792 
L 490.323256 249.535145 
L 492.874423 241.670553 
L 495.425589 231.839813 
L 497.976756 219.551388 
L 500.527923 212.66987 
L 503.07909 191.533779 
L 505.630256 178.753817 
L 508.181423 171.380762 
L 510.73259 166.465392 
L 513.283757 162.533096 
L 515.834923 160.075411 
L 518.38609 159.092337 
L 520.937257 164.007707 
L 523.488424 164.990781 
L 526.03959 167.448466 
L 528.590757 156.143115 
L 531.141924 143.363153 
L 533.693091 126.650895 
L 536.244257 122.718599 
L 538.795424 113.870933 
L 541.346591 112.887859 
L 541.346591 112.887859 
" style="fill:none;stroke:#ff7f0e;stroke-linecap:square;stroke-width:1.75;"/>
   </g>
   <g id="line2d_15">
    <path clip-path="url(#p4eff56b20f)" d="M 64.278409 313.490329 
L 69.380743 313.490329 
L 71.931909 312.95033 
L 77.034243 306.470335 
L 79.58541 302.690339 
L 82.136576 297.290344 
L 84.687743 294.050347 
L 87.23891 288.650352 
L 89.790077 287.030353 
L 92.341243 287.030353 
L 94.89241 282.170358 
L 97.443577 264.890373 
L 99.994744 257.87038 
L 102.54591 249.230387 
L 105.097077 241.130395 
L 107.648244 231.950403 
L 110.199411 220.610413 
L 112.750577 213.05042 
L 115.301744 215.750418 
L 117.852911 209.810423 
L 120.404078 209.270424 
L 125.506411 194.150437 
L 128.057578 192.530439 
L 130.608745 189.290442 
L 133.159911 194.690437 
L 135.711078 189.290442 
L 138.262245 181.190449 
L 140.813412 174.710455 
L 143.364578 175.790454 
L 145.915745 175.790454 
L 148.466912 176.870453 
L 151.018079 168.230461 
L 153.569245 176.870453 
L 156.120412 173.090457 
L 158.671579 189.830441 
L 161.222746 200.090432 
L 163.773912 199.550433 
L 168.876246 211.430422 
L 171.427412 201.710431 
L 173.978579 211.970421 
L 176.529746 215.210418 
L 179.080913 215.750418 
L 181.632079 224.39041 
L 184.183246 229.250406 
L 186.734413 227.630407 
L 189.28558 239.510396 
L 191.836746 245.99039 
L 194.387913 248.150388 
L 196.93908 248.150388 
L 199.490247 235.7304 
L 202.041413 230.870404 
L 204.59258 242.210394 
L 207.143747 250.850386 
L 209.694914 254.630383 
L 212.24608 255.710382 
L 214.797247 261.110377 
L 217.348414 277.850361 
L 219.899581 287.570353 
L 222.450747 290.81035 
L 225.001914 290.27035 
L 227.553081 291.890349 
L 230.104248 296.210345 
L 232.655414 294.590346 
L 235.206581 293.510347 
L 237.757748 294.590346 
L 240.308915 285.410355 
L 242.860081 285.950354 
L 245.411248 284.870355 
L 247.962415 278.390361 
L 250.513582 280.550359 
L 253.064748 281.090359 
L 255.615915 280.550359 
L 258.167082 291.890349 
L 260.718249 294.590346 
L 263.269415 298.370343 
L 265.820582 301.07034 
L 268.371749 301.07034 
L 270.922916 304.850337 
L 273.474082 304.310337 
L 276.025249 301.61034 
L 278.576416 304.310337 
L 281.127583 302.690339 
L 283.678749 304.850337 
L 286.229916 304.310337 
L 288.781083 304.310337 
L 291.33225 307.010335 
L 293.883416 308.090334 
L 296.434583 307.550335 
L 298.98575 308.090334 
L 301.536917 309.710333 
L 304.088083 312.41033 
L 306.63925 311.870331 
L 309.190417 311.870331 
L 311.741584 314.030329 
L 314.29275 314.030329 
L 316.843917 314.570328 
L 319.395084 314.570328 
L 321.946251 313.490329 
L 324.497417 312.95033 
L 327.048584 312.95033 
L 329.599751 313.490329 
L 332.150918 312.95033 
L 334.702084 313.490329 
L 337.253251 312.41033 
L 342.355585 313.490329 
L 347.457918 313.490329 
L 350.009085 314.030329 
L 352.560252 314.030329 
L 357.662585 315.110328 
L 360.213752 316.730326 
L 362.764919 317.270326 
L 367.867252 316.190327 
L 370.418419 315.110328 
L 372.969586 315.650327 
L 375.520752 315.650327 
L 378.071919 314.570328 
L 380.623086 314.030329 
L 385.725419 314.030329 
L 388.276586 315.110328 
L 393.37892 315.110328 
L 395.930086 316.190327 
L 398.481253 316.190327 
L 403.583587 317.270326 
L 408.68592 317.270326 
L 413.788254 315.110328 
L 416.33942 315.650327 
L 418.890587 315.110328 
L 423.992921 315.110328 
L 426.544087 314.570328 
L 429.095254 315.650327 
L 431.646421 315.650327 
L 434.197588 312.95033 
L 436.748754 309.170333 
L 439.299921 308.090334 
L 441.851088 308.090334 
L 444.402254 308.630334 
L 449.504588 306.470335 
L 452.055755 308.630334 
L 454.606921 308.630334 
L 457.158088 306.470335 
L 459.709255 303.230338 
L 462.260422 297.830343 
L 464.811588 297.830343 
L 467.362755 299.450342 
L 469.913922 298.370343 
L 472.465089 300.530341 
L 475.016255 302.150339 
L 477.567422 304.310337 
L 480.118589 304.850337 
L 482.669756 302.690339 
L 485.220922 299.450342 
L 487.772089 291.890349 
L 490.323256 289.190351 
L 492.874423 285.410355 
L 495.425589 282.170358 
L 497.976756 283.250357 
L 500.527923 281.630358 
L 503.07909 279.47036 
L 505.630256 283.250357 
L 508.181423 280.550359 
L 510.73259 275.150364 
L 513.283757 271.370367 
L 515.834923 271.370367 
L 518.38609 268.67037 
L 520.937257 262.730375 
L 523.488424 256.250381 
L 526.03959 242.750393 
L 528.590757 231.410404 
L 531.141924 212.510421 
L 533.693091 197.390435 
L 536.244257 172.010458 
L 538.795424 141.770485 
L 541.346591 121.790503 
L 541.346591 121.790503 
" style="fill:none;stroke:#2ca02c;stroke-linecap:square;stroke-width:1.75;"/>
   </g>
   <g id="line2d_16">
    <path clip-path="url(#p4eff56b20f)" d="M 64.278409 314.406335 
L 66.829576 312.716053 
L 69.380743 309.898917 
L 71.931909 309.33549 
L 74.483076 306.518355 
L 77.034243 304.54636 
L 82.136576 299.475515 
L 84.687743 296.658379 
L 87.23891 296.094952 
L 89.790077 292.714389 
L 92.341243 287.643545 
L 94.89241 284.826409 
L 97.443577 279.192138 
L 99.994744 277.220143 
L 105.097077 269.332163 
L 107.648244 267.078454 
L 110.199411 267.641881 
L 112.750577 263.979605 
L 115.301744 264.824745 
L 117.852911 262.85275 
L 120.404078 264.261318 
L 122.955244 265.106459 
L 125.506411 263.697891 
L 128.057578 264.261318 
L 130.608745 268.768735 
L 133.159911 264.543032 
L 135.711078 262.85275 
L 138.262245 263.134464 
L 140.813412 262.571037 
L 143.364578 258.345333 
L 145.915745 252.711062 
L 148.466912 247.921931 
L 151.018079 248.203645 
L 153.569245 241.442519 
L 156.120412 231.019116 
L 158.671579 229.610549 
L 161.222746 222.567709 
L 163.773912 221.440855 
L 166.325079 216.651724 
L 168.876246 204.53804 
L 171.427412 203.411186 
L 173.978579 206.228322 
L 176.529746 203.974613 
L 179.080913 211.58088 
L 181.632079 213.271161 
L 184.183246 211.017453 
L 186.734413 220.877428 
L 189.28558 215.52487 
L 191.836746 220.032287 
L 194.387913 222.004282 
L 196.93908 224.539704 
L 202.041413 231.30083 
L 204.59258 236.653388 
L 207.143747 250.17564 
L 209.694914 254.401343 
L 212.24608 259.472188 
L 214.797247 262.85275 
L 217.348414 268.768735 
L 219.899581 272.149298 
L 222.450747 276.093288 
L 225.001914 276.656716 
L 227.553081 277.501856 
L 230.104248 274.966434 
L 232.655414 277.220143 
L 235.206581 276.093288 
L 237.757748 281.445846 
L 240.308915 278.628711 
L 242.860081 276.938429 
L 245.411248 278.346997 
L 247.962415 279.192138 
L 250.513582 277.220143 
L 253.064748 280.037278 
L 255.615915 280.882419 
L 258.167082 286.798404 
L 260.718249 294.122957 
L 263.269415 295.249812 
L 265.820582 300.320656 
L 268.371749 304.264646 
L 270.922916 305.3915 
L 273.474082 307.363495 
L 276.025249 303.982932 
L 278.576416 304.54636 
L 281.127583 304.54636 
L 283.678749 300.320656 
L 286.229916 299.193802 
L 288.781083 294.122957 
L 291.33225 292.996103 
L 293.883416 294.122957 
L 296.434583 291.587535 
L 298.98575 292.714389 
L 301.536917 294.404671 
L 304.088083 294.404671 
L 306.63925 297.221807 
L 309.190417 297.50352 
L 311.741584 300.320656 
L 314.29275 303.419505 
L 316.843917 304.828073 
L 319.395084 307.363495 
L 321.946251 308.49035 
L 324.497417 310.180631 
L 327.048584 311.307485 
L 332.150918 312.43434 
L 334.702084 312.152626 
L 339.804418 312.716053 
L 342.355585 313.561194 
L 344.906751 314.124621 
L 347.457918 313.842908 
L 352.560252 313.842908 
L 355.111418 314.124621 
L 357.662585 314.688048 
L 360.213752 313.561194 
L 362.764919 313.27948 
L 365.316085 314.406335 
L 367.867252 314.969762 
L 370.418419 314.969762 
L 372.969586 314.688048 
L 375.520752 314.969762 
L 380.623086 316.660043 
L 383.174253 315.533189 
L 385.725419 315.533189 
L 388.276586 314.688048 
L 393.37892 313.561194 
L 395.930086 313.842908 
L 398.481253 312.152626 
L 401.03242 311.025772 
L 403.583587 311.025772 
L 408.68592 312.152626 
L 411.237087 311.589199 
L 413.788254 311.589199 
L 416.33942 311.307485 
L 418.890587 311.589199 
L 421.441754 310.180631 
L 423.992921 309.898917 
L 426.544087 309.898917 
L 429.095254 310.180631 
L 431.646421 308.208636 
L 434.197588 308.49035 
L 436.748754 308.208636 
L 439.299921 307.645209 
L 441.851088 304.54636 
L 444.402254 304.264646 
L 449.504588 304.264646 
L 452.055755 303.701219 
L 454.606921 304.264646 
L 457.158088 304.54636 
L 459.709255 307.926922 
L 462.260422 307.926922 
L 464.811588 308.208636 
L 469.913922 310.462345 
L 472.465089 310.744058 
L 475.016255 308.208636 
L 477.567422 307.363495 
L 480.118589 305.3915 
L 482.669756 305.3915 
L 485.220922 303.701219 
L 490.323256 291.587535 
L 492.874423 285.953264 
L 495.425589 278.065283 
L 497.976756 274.684721 
L 500.527923 268.205308 
L 503.07909 256.091625 
L 505.630256 254.11963 
L 510.73259 254.683057 
L 513.283757 257.218479 
L 515.834923 259.472188 
L 518.38609 258.345333 
L 520.937257 265.388173 
L 523.488424 267.641881 
L 526.03959 264.543032 
L 528.590757 262.289323 
L 531.141924 262.289323 
L 533.693091 256.936765 
L 536.244257 252.429348 
L 538.795424 247.358504 
L 541.346591 239.18881 
L 541.346591 239.18881 
" style="fill:none;stroke:#d62728;stroke-linecap:square;stroke-width:1.75;"/>
   </g>
   <g id="line2d_17">
    <path clip-path="url(#p4eff56b20f)" d="M 64.278409 315.126097 
L 69.380743 314.051355 
L 74.483076 308.677642 
L 77.034243 303.303929 
L 79.58541 300.079702 
L 82.136576 294.705989 
L 84.687743 287.720162 
L 87.23891 282.34645 
L 89.790077 273.211138 
L 92.341243 267.300054 
L 94.89241 264.075827 
L 97.443577 257.627371 
L 99.994744 235.595149 
L 105.097077 204.427616 
L 107.648244 193.142819 
L 110.199411 177.559052 
L 112.750577 159.825801 
L 115.301744 143.167291 
L 117.852911 149.615747 
L 120.404078 157.138944 
L 122.955244 160.900543 
L 125.506411 169.498483 
L 128.057578 175.946939 
L 130.608745 177.559052 
L 133.159911 182.395394 
L 135.711078 187.769107 
L 138.262245 188.306478 
L 140.813412 182.932765 
L 143.364578 174.872196 
L 145.915745 181.858023 
L 148.466912 189.918592 
L 151.018079 186.694364 
L 153.569245 181.858023 
L 156.120412 183.470136 
L 161.222746 210.3387 
L 163.773912 211.950814 
L 166.325079 215.712413 
L 168.876246 229.146694 
L 171.427412 241.506233 
L 173.978579 236.669892 
L 176.529746 233.983036 
L 179.080913 230.758808 
L 181.632079 224.847724 
L 184.183246 218.399269 
L 186.734413 218.93664 
L 189.28558 208.189215 
L 191.836746 211.413442 
L 194.387913 216.249784 
L 196.93908 215.712413 
L 199.490247 215.712413 
L 202.041413 222.160868 
L 204.59258 210.3387 
L 207.143747 219.474011 
L 209.694914 225.922467 
L 212.24608 222.698239 
L 214.797247 226.997209 
L 217.348414 232.908293 
L 219.899581 233.445664 
L 222.450747 247.954689 
L 225.001914 249.029431 
L 227.553081 250.641545 
L 230.104248 259.239485 
L 232.655414 256.552629 
L 237.757748 260.851599 
L 240.308915 259.239485 
L 242.860081 260.314228 
L 245.411248 259.776856 
L 247.962415 261.926342 
L 250.513582 269.449539 
L 253.064748 269.449539 
L 255.615915 274.285881 
L 258.167082 276.972737 
L 260.718249 278.04748 
L 263.269415 283.958564 
L 265.820582 282.34645 
L 268.371749 284.495935 
L 270.922916 288.794905 
L 273.474082 292.556504 
L 276.025249 293.631246 
L 278.576416 295.780731 
L 281.127583 293.093875 
L 283.678749 294.168618 
L 286.229916 293.093875 
L 288.781083 288.794905 
L 291.33225 281.271707 
L 293.883416 280.734336 
L 296.434583 282.34645 
L 298.98575 285.033306 
L 301.536917 284.495935 
L 304.088083 285.033306 
L 306.63925 291.481761 
L 309.190417 294.705989 
L 311.741584 297.392845 
L 314.29275 297.392845 
L 319.395084 300.617073 
L 321.946251 302.766558 
L 324.497417 303.303929 
L 327.048584 308.140271 
L 332.150918 314.588726 
L 334.702084 313.513983 
L 337.253251 313.513983 
L 339.804418 312.439241 
L 342.355585 309.215013 
L 344.906751 310.289756 
L 350.009085 308.140271 
L 352.560252 309.215013 
L 355.111418 309.215013 
L 357.662585 310.289756 
L 360.213752 314.051355 
L 362.764919 312.976612 
L 367.867252 315.126097 
L 370.418419 315.663468 
L 372.969586 314.051355 
L 375.520752 314.051355 
L 378.071919 311.901869 
L 380.623086 311.901869 
L 383.174253 311.364498 
L 385.725419 310.289756 
L 388.276586 309.752384 
L 390.827753 311.364498 
L 393.37892 311.364498 
L 395.930086 313.513983 
L 398.481253 314.051355 
L 401.03242 311.364498 
L 403.583587 310.289756 
L 406.134753 310.289756 
L 408.68592 308.677642 
L 413.788254 308.677642 
L 416.33942 308.140271 
L 418.890587 310.827127 
L 421.441754 311.901869 
L 423.992921 309.215013 
L 426.544087 311.364498 
L 429.095254 311.364498 
L 431.646421 310.827127 
L 434.197588 309.215013 
L 436.748754 310.289756 
L 439.299921 309.215013 
L 441.851088 311.901869 
L 444.402254 310.827127 
L 446.953421 309.215013 
L 449.504588 309.215013 
L 452.055755 310.827127 
L 454.606921 307.602899 
L 457.158088 307.602899 
L 462.260422 303.303929 
L 464.811588 301.691815 
L 469.913922 286.64542 
L 472.465089 282.883821 
L 475.016255 276.972737 
L 477.567422 266.225312 
L 480.118589 266.225312 
L 482.669756 265.68794 
L 485.220922 261.926342 
L 487.772089 256.552629 
L 490.323256 245.805204 
L 492.874423 236.669892 
L 495.425589 225.385095 
L 497.976756 216.249784 
L 500.527923 202.815502 
L 503.07909 190.993334 
L 505.630256 174.334825 
L 508.181423 160.900543 
L 510.73259 150.153118 
L 513.283757 150.690489 
L 515.834923 137.793579 
L 518.38609 138.33095 
L 520.937257 130.270381 
L 523.488424 121.135069 
L 526.03959 113.0745 
L 528.590757 94.266506 
L 531.141924 78.682739 
L 533.693091 68.472685 
L 536.244257 49.127319 
L 538.795424 42.141493 
L 541.346591 45.903092 
L 541.346591 45.903092 
" style="fill:none;stroke:#9467bd;stroke-linecap:square;stroke-width:1.75;"/>
   </g>
   <g id="line2d_18">
    <path clip-path="url(#p4eff56b20f)" d="M 64.278409 308.029343 
L 66.829576 307.777612 
L 69.380743 306.267224 
L 71.931909 305.512031 
L 74.483076 300.729137 
L 77.034243 297.204899 
L 79.58541 295.191049 
L 82.136576 291.918543 
L 84.687743 286.128724 
L 87.23891 282.101024 
L 89.790077 278.828518 
L 92.341243 274.549086 
L 97.443577 260.703867 
L 99.994744 249.627692 
L 102.54591 239.054979 
L 105.097077 234.775548 
L 107.648244 227.727073 
L 110.199411 224.958029 
L 115.301744 214.385316 
L 117.852911 216.902629 
L 120.404078 216.902629 
L 122.955244 218.916479 
L 125.506411 221.433792 
L 128.057578 220.678598 
L 130.608745 225.713223 
L 133.159911 232.006504 
L 135.711078 234.775548 
L 138.262245 240.565367 
L 140.813412 237.041129 
L 143.364578 238.048054 
L 145.915745 242.075754 
L 148.466912 247.362111 
L 151.018079 245.851723 
L 156.120412 238.299786 
L 158.671579 241.068829 
L 161.222746 237.292861 
L 163.773912 234.775548 
L 166.325079 231.25131 
L 168.876246 232.761698 
L 171.427412 233.768623 
L 173.978579 242.075754 
L 176.529746 239.810173 
L 179.080913 248.872498 
L 181.632079 246.606917 
L 184.183246 241.824023 
L 186.734413 241.068829 
L 189.28558 247.865573 
L 191.836746 244.089604 
L 194.387913 242.830948 
L 196.93908 230.496117 
L 199.490247 224.958029 
L 202.041413 228.985729 
L 204.59258 224.202835 
L 207.143747 223.447642 
L 209.694914 227.22361 
L 212.24608 235.530742 
L 214.797247 237.796323 
L 217.348414 245.851723 
L 222.450747 258.690017 
L 225.001914 260.703867 
L 227.553081 260.955599 
L 230.104248 260.955599 
L 232.655414 271.27658 
L 235.206581 279.835443 
L 237.757748 280.338905 
L 240.308915 284.366605 
L 242.860081 288.142574 
L 245.411248 286.883918 
L 247.962415 289.149499 
L 250.513582 291.163349 
L 253.064748 289.149499 
L 255.615915 291.163349 
L 258.167082 293.42893 
L 260.718249 294.184124 
L 263.269415 298.715287 
L 265.820582 299.973943 
L 268.371749 298.211824 
L 270.922916 300.980868 
L 273.474082 302.239524 
L 276.025249 302.239524 
L 278.576416 302.994718 
L 281.127583 303.498181 
L 283.678749 302.491256 
L 286.229916 304.756837 
L 288.781083 304.505106 
L 291.33225 305.008568 
L 293.883416 306.015493 
L 296.434583 306.267224 
L 298.98575 308.281075 
L 304.088083 309.288 
L 306.63925 310.294925 
L 311.741584 311.805312 
L 316.843917 311.30185 
L 321.946251 310.294925 
L 324.497417 310.546656 
L 327.048584 309.791462 
L 329.599751 309.791462 
L 332.150918 310.294925 
L 334.702084 310.546656 
L 337.253251 311.553581 
L 339.804418 310.798387 
L 342.355585 311.050118 
L 344.906751 312.057043 
L 347.457918 310.546656 
L 350.009085 308.784537 
L 352.560252 309.791462 
L 355.111418 309.791462 
L 357.662585 310.546656 
L 360.213752 310.043193 
L 362.764919 308.532806 
L 365.316085 309.539731 
L 367.867252 311.805312 
L 370.418419 311.050118 
L 372.969586 309.791462 
L 375.520752 309.791462 
L 378.071919 308.281075 
L 380.623086 306.518956 
L 383.174253 306.015493 
L 385.725419 304.505106 
L 388.276586 303.498181 
L 395.930086 303.498181 
L 398.481253 306.015493 
L 401.03242 306.267224 
L 403.583587 306.267224 
L 406.134753 307.274149 
L 408.68592 308.532806 
L 411.237087 308.532806 
L 413.788254 309.288 
L 416.33942 307.525881 
L 418.890587 308.532806 
L 421.441754 308.784537 
L 423.992921 307.274149 
L 426.544087 306.015493 
L 429.095254 305.763762 
L 431.646421 304.001643 
L 434.197588 303.498181 
L 436.748754 302.239524 
L 439.299921 302.742987 
L 444.402254 301.232599 
L 446.953421 300.729137 
L 452.055755 301.736062 
L 454.606921 299.973943 
L 457.158088 297.204899 
L 459.709255 295.946243 
L 462.260422 295.694512 
L 464.811588 294.687587 
L 467.362755 295.191049 
L 469.913922 296.197974 
L 472.465089 296.197974 
L 475.016255 298.463556 
L 477.567422 300.477406 
L 480.118589 302.239524 
L 482.669756 303.246449 
L 485.220922 303.749912 
L 487.772089 301.484331 
L 490.323256 301.484331 
L 492.874423 299.218749 
L 495.425589 297.708362 
L 497.976756 293.177199 
L 500.527923 291.41508 
L 503.07909 291.163349 
L 505.630256 291.666812 
L 508.181423 291.41508 
L 513.283757 291.41508 
L 515.834923 292.170274 
L 518.38609 294.184124 
L 520.937257 293.932393 
L 523.488424 293.42893 
L 526.03959 293.42893 
L 528.590757 292.925468 
L 531.141924 295.191049 
L 533.693091 295.946243 
L 536.244257 291.41508 
L 538.795424 291.666812 
L 541.346591 291.41508 
L 541.346591 291.41508 
" style="fill:none;stroke:#8c564b;stroke-linecap:square;stroke-width:1.75;"/>
   </g>
   <g id="line2d_19">
    <path clip-path="url(#p4eff56b20f)" d="M 64.278409 288.055181 
L 66.829576 286.31408 
L 69.380743 280.39434 
L 74.483076 269.947738 
L 77.034243 258.456477 
L 82.136576 241.741914 
L 84.687743 227.464893 
L 87.23891 225.375572 
L 89.790077 213.884311 
L 92.341243 211.44677 
L 94.89241 203.437709 
L 97.443577 194.035768 
L 99.994744 188.116027 
L 102.54591 191.250008 
L 105.097077 183.240947 
L 107.648244 172.794345 
L 110.199411 150.508262 
L 112.750577 149.463602 
L 115.301744 144.936742 
L 117.852911 144.240301 
L 120.404078 147.722502 
L 122.955244 157.124443 
L 128.057578 188.812467 
L 130.608745 195.428648 
L 133.159911 213.187871 
L 135.711078 224.330912 
L 138.262245 225.375572 
L 140.813412 225.723792 
L 143.364578 230.598873 
L 145.915745 233.732853 
L 148.466912 236.518614 
L 153.569245 235.125734 
L 158.671579 224.679132 
L 161.222746 218.062951 
L 163.773912 212.839651 
L 166.325079 213.187871 
L 168.876246 197.169748 
L 171.427412 188.464247 
L 173.978579 185.330267 
L 176.529746 193.687548 
L 179.080913 203.437709 
L 181.632079 217.366511 
L 184.183246 218.759391 
L 186.734413 237.215054 
L 189.28558 246.616995 
L 191.836746 260.197577 
L 194.387913 264.027997 
L 196.93908 264.376217 
L 199.490247 264.027997 
L 202.041413 274.474599 
L 204.59258 280.04612 
L 207.143747 288.055181 
L 209.694914 291.537381 
L 212.24608 288.055181 
L 214.797247 288.751621 
L 217.348414 290.492721 
L 219.899581 287.706961 
L 222.450747 288.751621 
L 225.001914 291.885601 
L 227.553081 284.22476 
L 230.104248 286.6623 
L 232.655414 287.358741 
L 235.206581 291.537381 
L 237.757748 296.064242 
L 240.308915 297.457122 
L 242.860081 296.064242 
L 245.411248 304.769743 
L 247.962415 304.421523 
L 250.513582 305.117963 
L 253.064748 304.421523 
L 255.615915 299.894662 
L 258.167082 299.894662 
L 260.718249 301.287542 
L 263.269415 301.635762 
L 265.820582 304.073303 
L 268.371749 303.725083 
L 270.922916 304.769743 
L 273.474082 307.555503 
L 276.025249 309.993044 
L 278.576416 309.644824 
L 281.127583 309.993044 
L 283.678749 309.644824 
L 286.229916 310.689484 
L 288.781083 308.948383 
L 291.33225 310.341264 
L 293.883416 309.644824 
L 296.434583 309.993044 
L 298.98575 308.251943 
L 301.536917 307.903723 
L 304.088083 307.903723 
L 306.63925 309.296603 
L 311.741584 309.296603 
L 314.29275 311.037704 
L 316.843917 311.037704 
L 319.395084 310.689484 
L 321.946251 311.037704 
L 324.497417 310.341264 
L 327.048584 308.251943 
L 329.599751 307.207283 
L 332.150918 306.510843 
L 334.702084 308.251943 
L 337.253251 309.296603 
L 339.804418 307.555503 
L 342.355585 304.421523 
L 344.906751 306.859063 
L 347.457918 308.948383 
L 350.009085 308.251943 
L 352.560252 307.903723 
L 355.111418 306.859063 
L 357.662585 307.903723 
L 360.213752 309.644824 
L 362.764919 308.948383 
L 365.316085 305.466183 
L 367.867252 303.028643 
L 370.418419 299.198222 
L 372.969586 298.501782 
L 375.520752 298.850002 
L 378.071919 298.501782 
L 380.623086 297.805342 
L 383.174253 297.457122 
L 385.725419 298.501782 
L 388.276586 301.635762 
L 390.827753 303.376863 
L 393.37892 301.287542 
L 398.481253 299.198222 
L 401.03242 299.198222 
L 403.583587 299.894662 
L 406.134753 297.457122 
L 408.68592 296.064242 
L 411.237087 297.108902 
L 416.33942 298.501782 
L 418.890587 301.287542 
L 421.441754 298.153562 
L 423.992921 297.805342 
L 426.544087 297.108902 
L 429.095254 297.805342 
L 431.646421 296.412462 
L 434.197588 296.412462 
L 436.748754 294.323141 
L 439.299921 297.805342 
L 441.851088 297.457122 
L 444.402254 299.546442 
L 446.953421 299.894662 
L 449.504588 302.332203 
L 452.055755 303.725083 
L 454.606921 304.073303 
L 457.158088 304.769743 
L 459.709255 308.600163 
L 462.260422 307.207283 
L 464.811588 306.162623 
L 467.362755 307.555503 
L 469.913922 308.600163 
L 472.465089 310.689484 
L 475.016255 307.555503 
L 477.567422 306.510843 
L 482.669756 309.296603 
L 485.220922 307.207283 
L 487.772089 304.769743 
L 490.323256 299.894662 
L 492.874423 300.939322 
L 497.976756 297.457122 
L 500.527923 293.626701 
L 503.07909 288.055181 
L 505.630256 287.706961 
L 508.181423 288.403401 
L 510.73259 288.751621 
L 513.283757 289.796281 
L 515.834923 289.099841 
L 518.38609 287.010521 
L 520.937257 290.840941 
L 523.488424 288.403401 
L 526.03959 288.751621 
L 528.590757 285.26942 
L 531.141924 280.39434 
L 533.693091 278.653239 
L 536.244257 275.519259 
L 538.795424 270.644178 
L 541.346591 263.679777 
L 541.346591 263.679777 
" style="fill:none;stroke:#e377c2;stroke-linecap:square;stroke-width:1.75;"/>
   </g>
   <g id="patch_3">
    <path d="M 40.425 331.102246 
L 40.425 26.8 
" style="fill:none;stroke:#000000;stroke-linecap:square;stroke-linejoin:miter;stroke-width:0.8;"/>
   </g>
   <g id="patch_4">
    <path d="M 565.2 331.102246 
L 565.2 26.8 
" style="fill:none;stroke:#000000;stroke-linecap:square;stroke-linejoin:miter;stroke-width:0.8;"/>
   </g>
   <g id="patch_5">
    <path d="M 40.425 331.102246 
L 565.2 331.102246 
" style="fill:none;stroke:#000000;stroke-linecap:square;stroke-linejoin:miter;stroke-width:0.8;"/>
   </g>
   <g id="patch_6">
    <path d="M 40.425 26.8 
L 565.2 26.8 
" style="fill:none;stroke:#000000;stroke-linecap:square;stroke-linejoin:miter;stroke-width:0.8;"/>
   </g>
   <g id="text_14">
    <!-- New Cases per Million Population (7 day rolling) -->
    <defs>
     <path d="M 9.8125 72.90625 
L 23.09375 72.90625 
L 55.421875 11.921875 
L 55.421875 72.90625 
L 64.984375 72.90625 
L 64.984375 0 
L 51.703125 0 
L 19.390625 60.984375 
L 19.390625 0 
L 9.8125 0 
z
" id="DejaVuSans-78"/>
     <path d="M 4.203125 54.6875 
L 13.1875 54.6875 
L 24.421875 12.015625 
L 35.59375 54.6875 
L 46.1875 54.6875 
L 57.421875 12.015625 
L 68.609375 54.6875 
L 77.59375 54.6875 
L 63.28125 0 
L 52.6875 0 
L 40.921875 44.828125 
L 29.109375 0 
L 18.5 0 
z
" id="DejaVuSans-119"/>
     <path id="DejaVuSans-32"/>
     <path d="M 64.40625 67.28125 
L 64.40625 56.890625 
Q 59.421875 61.53125 53.78125 63.8125 
Q 48.140625 66.109375 41.796875 66.109375 
Q 29.296875 66.109375 22.65625 58.46875 
Q 16.015625 50.828125 16.015625 36.375 
Q 16.015625 21.96875 22.65625 14.328125 
Q 29.296875 6.6875 41.796875 6.6875 
Q 48.140625 6.6875 53.78125 8.984375 
Q 59.421875 11.28125 64.40625 15.921875 
L 64.40625 5.609375 
Q 59.234375 2.09375 53.4375 0.328125 
Q 47.65625 -1.421875 41.21875 -1.421875 
Q 24.65625 -1.421875 15.125 8.703125 
Q 5.609375 18.84375 5.609375 36.375 
Q 5.609375 53.953125 15.125 64.078125 
Q 24.65625 74.21875 41.21875 74.21875 
Q 47.75 74.21875 53.53125 72.484375 
Q 59.328125 70.75 64.40625 67.28125 
z
" id="DejaVuSans-67"/>
     <path d="M 44.28125 53.078125 
L 44.28125 44.578125 
Q 40.484375 46.53125 36.375 47.5 
Q 32.28125 48.484375 27.875 48.484375 
Q 21.1875 48.484375 17.84375 46.4375 
Q 14.5 44.390625 14.5 40.28125 
Q 14.5 37.15625 16.890625 35.375 
Q 19.28125 33.59375 26.515625 31.984375 
L 29.59375 31.296875 
Q 39.15625 29.25 43.1875 25.515625 
Q 47.21875 21.78125 47.21875 15.09375 
Q 47.21875 7.46875 41.1875 3.015625 
Q 35.15625 -1.421875 24.609375 -1.421875 
Q 20.21875 -1.421875 15.453125 -0.5625 
Q 10.6875 0.296875 5.421875 2 
L 5.421875 11.28125 
Q 10.40625 8.6875 15.234375 7.390625 
Q 20.0625 6.109375 24.8125 6.109375 
Q 31.15625 6.109375 34.5625 8.28125 
Q 37.984375 10.453125 37.984375 14.40625 
Q 37.984375 18.0625 35.515625 20.015625 
Q 33.0625 21.96875 24.703125 23.78125 
L 21.578125 24.515625 
Q 13.234375 26.265625 9.515625 29.90625 
Q 5.8125 33.546875 5.8125 39.890625 
Q 5.8125 47.609375 11.28125 51.796875 
Q 16.75 56 26.8125 56 
Q 31.78125 56 36.171875 55.265625 
Q 40.578125 54.546875 44.28125 53.078125 
z
" id="DejaVuSans-115"/>
     <path d="M 18.109375 8.203125 
L 18.109375 -20.796875 
L 9.078125 -20.796875 
L 9.078125 54.6875 
L 18.109375 54.6875 
L 18.109375 46.390625 
Q 20.953125 51.265625 25.265625 53.625 
Q 29.59375 56 35.59375 56 
Q 45.5625 56 51.78125 48.09375 
Q 58.015625 40.1875 58.015625 27.296875 
Q 58.015625 14.40625 51.78125 6.484375 
Q 45.5625 -1.421875 35.59375 -1.421875 
Q 29.59375 -1.421875 25.265625 0.953125 
Q 20.953125 3.328125 18.109375 8.203125 
z
M 48.6875 27.296875 
Q 48.6875 37.203125 44.609375 42.84375 
Q 40.53125 48.484375 33.40625 48.484375 
Q 26.265625 48.484375 22.1875 42.84375 
Q 18.109375 37.203125 18.109375 27.296875 
Q 18.109375 17.390625 22.1875 11.75 
Q 26.265625 6.109375 33.40625 6.109375 
Q 40.53125 6.109375 44.609375 11.75 
Q 48.6875 17.390625 48.6875 27.296875 
z
" id="DejaVuSans-112"/>
     <path d="M 41.109375 46.296875 
Q 39.59375 47.171875 37.8125 47.578125 
Q 36.03125 48 33.890625 48 
Q 26.265625 48 22.1875 43.046875 
Q 18.109375 38.09375 18.109375 28.8125 
L 18.109375 0 
L 9.078125 0 
L 9.078125 54.6875 
L 18.109375 54.6875 
L 18.109375 46.1875 
Q 20.953125 51.171875 25.484375 53.578125 
Q 30.03125 56 36.53125 56 
Q 37.453125 56 38.578125 55.875 
Q 39.703125 55.765625 41.0625 55.515625 
z
" id="DejaVuSans-114"/>
     <path d="M 9.8125 72.90625 
L 24.515625 72.90625 
L 43.109375 23.296875 
L 61.8125 72.90625 
L 76.515625 72.90625 
L 76.515625 0 
L 66.890625 0 
L 66.890625 64.015625 
L 48.09375 14.015625 
L 38.1875 14.015625 
L 19.390625 64.015625 
L 19.390625 0 
L 9.8125 0 
z
" id="DejaVuSans-77"/>
     <path d="M 9.421875 54.6875 
L 18.40625 54.6875 
L 18.40625 0 
L 9.421875 0 
z
M 9.421875 75.984375 
L 18.40625 75.984375 
L 18.40625 64.59375 
L 9.421875 64.59375 
z
" id="DejaVuSans-105"/>
     <path d="M 9.421875 75.984375 
L 18.40625 75.984375 
L 18.40625 0 
L 9.421875 0 
z
" id="DejaVuSans-108"/>
     <path d="M 30.609375 48.390625 
Q 23.390625 48.390625 19.1875 42.75 
Q 14.984375 37.109375 14.984375 27.296875 
Q 14.984375 17.484375 19.15625 11.84375 
Q 23.34375 6.203125 30.609375 6.203125 
Q 37.796875 6.203125 41.984375 11.859375 
Q 46.1875 17.53125 46.1875 27.296875 
Q 46.1875 37.015625 41.984375 42.703125 
Q 37.796875 48.390625 30.609375 48.390625 
z
M 30.609375 56 
Q 42.328125 56 49.015625 48.375 
Q 55.71875 40.765625 55.71875 27.296875 
Q 55.71875 13.875 49.015625 6.21875 
Q 42.328125 -1.421875 30.609375 -1.421875 
Q 18.84375 -1.421875 12.171875 6.21875 
Q 5.515625 13.875 5.515625 27.296875 
Q 5.515625 40.765625 12.171875 48.375 
Q 18.84375 56 30.609375 56 
z
" id="DejaVuSans-111"/>
     <path d="M 54.890625 33.015625 
L 54.890625 0 
L 45.90625 0 
L 45.90625 32.71875 
Q 45.90625 40.484375 42.875 44.328125 
Q 39.84375 48.1875 33.796875 48.1875 
Q 26.515625 48.1875 22.3125 43.546875 
Q 18.109375 38.921875 18.109375 30.90625 
L 18.109375 0 
L 9.078125 0 
L 9.078125 54.6875 
L 18.109375 54.6875 
L 18.109375 46.1875 
Q 21.34375 51.125 25.703125 53.5625 
Q 30.078125 56 35.796875 56 
Q 45.21875 56 50.046875 50.171875 
Q 54.890625 44.34375 54.890625 33.015625 
z
" id="DejaVuSans-110"/>
     <path d="M 19.671875 64.796875 
L 19.671875 37.40625 
L 32.078125 37.40625 
Q 38.96875 37.40625 42.71875 40.96875 
Q 46.484375 44.53125 46.484375 51.125 
Q 46.484375 57.671875 42.71875 61.234375 
Q 38.96875 64.796875 32.078125 64.796875 
z
M 9.8125 72.90625 
L 32.078125 72.90625 
Q 44.34375 72.90625 50.609375 67.359375 
Q 56.890625 61.8125 56.890625 51.125 
Q 56.890625 40.328125 50.609375 34.8125 
Q 44.34375 29.296875 32.078125 29.296875 
L 19.671875 29.296875 
L 19.671875 0 
L 9.8125 0 
z
" id="DejaVuSans-80"/>
     <path d="M 8.5 21.578125 
L 8.5 54.6875 
L 17.484375 54.6875 
L 17.484375 21.921875 
Q 17.484375 14.15625 20.5 10.265625 
Q 23.53125 6.390625 29.59375 6.390625 
Q 36.859375 6.390625 41.078125 11.03125 
Q 45.3125 15.671875 45.3125 23.6875 
L 45.3125 54.6875 
L 54.296875 54.6875 
L 54.296875 0 
L 45.3125 0 
L 45.3125 8.40625 
Q 42.046875 3.421875 37.71875 1 
Q 33.40625 -1.421875 27.6875 -1.421875 
Q 18.265625 -1.421875 13.375 4.4375 
Q 8.5 10.296875 8.5 21.578125 
z
M 31.109375 56 
z
" id="DejaVuSans-117"/>
     <path d="M 31 75.875 
Q 24.46875 64.65625 21.28125 53.65625 
Q 18.109375 42.671875 18.109375 31.390625 
Q 18.109375 20.125 21.3125 9.0625 
Q 24.515625 -2 31 -13.1875 
L 23.1875 -13.1875 
Q 15.875 -1.703125 12.234375 9.375 
Q 8.59375 20.453125 8.59375 31.390625 
Q 8.59375 42.28125 12.203125 53.3125 
Q 15.828125 64.359375 23.1875 75.875 
z
" id="DejaVuSans-40"/>
     <path d="M 45.40625 46.390625 
L 45.40625 75.984375 
L 54.390625 75.984375 
L 54.390625 0 
L 45.40625 0 
L 45.40625 8.203125 
Q 42.578125 3.328125 38.25 0.953125 
Q 33.9375 -1.421875 27.875 -1.421875 
Q 17.96875 -1.421875 11.734375 6.484375 
Q 5.515625 14.40625 5.515625 27.296875 
Q 5.515625 40.1875 11.734375 48.09375 
Q 17.96875 56 27.875 56 
Q 33.9375 56 38.25 53.625 
Q 42.578125 51.265625 45.40625 46.390625 
z
M 14.796875 27.296875 
Q 14.796875 17.390625 18.875 11.75 
Q 22.953125 6.109375 30.078125 6.109375 
Q 37.203125 6.109375 41.296875 11.75 
Q 45.40625 17.390625 45.40625 27.296875 
Q 45.40625 37.203125 41.296875 42.84375 
Q 37.203125 48.484375 30.078125 48.484375 
Q 22.953125 48.484375 18.875 42.84375 
Q 14.796875 37.203125 14.796875 27.296875 
z
" id="DejaVuSans-100"/>
     <path d="M 32.171875 -5.078125 
Q 28.375 -14.84375 24.75 -17.8125 
Q 21.140625 -20.796875 15.09375 -20.796875 
L 7.90625 -20.796875 
L 7.90625 -13.28125 
L 13.1875 -13.28125 
Q 16.890625 -13.28125 18.9375 -11.515625 
Q 21 -9.765625 23.484375 -3.21875 
L 25.09375 0.875 
L 2.984375 54.6875 
L 12.5 54.6875 
L 29.59375 11.921875 
L 46.6875 54.6875 
L 56.203125 54.6875 
z
" id="DejaVuSans-121"/>
     <path d="M 45.40625 27.984375 
Q 45.40625 37.75 41.375 43.109375 
Q 37.359375 48.484375 30.078125 48.484375 
Q 22.859375 48.484375 18.828125 43.109375 
Q 14.796875 37.75 14.796875 27.984375 
Q 14.796875 18.265625 18.828125 12.890625 
Q 22.859375 7.515625 30.078125 7.515625 
Q 37.359375 7.515625 41.375 12.890625 
Q 45.40625 18.265625 45.40625 27.984375 
z
M 54.390625 6.78125 
Q 54.390625 -7.171875 48.1875 -13.984375 
Q 42 -20.796875 29.203125 -20.796875 
Q 24.46875 -20.796875 20.265625 -20.09375 
Q 16.0625 -19.390625 12.109375 -17.921875 
L 12.109375 -9.1875 
Q 16.0625 -11.328125 19.921875 -12.34375 
Q 23.78125 -13.375 27.78125 -13.375 
Q 36.625 -13.375 41.015625 -8.765625 
Q 45.40625 -4.15625 45.40625 5.171875 
L 45.40625 9.625 
Q 42.625 4.78125 38.28125 2.390625 
Q 33.9375 0 27.875 0 
Q 17.828125 0 11.671875 7.65625 
Q 5.515625 15.328125 5.515625 27.984375 
Q 5.515625 40.671875 11.671875 48.328125 
Q 17.828125 56 27.875 56 
Q 33.9375 56 38.28125 53.609375 
Q 42.625 51.21875 45.40625 46.390625 
L 45.40625 54.6875 
L 54.390625 54.6875 
z
" id="DejaVuSans-103"/>
     <path d="M 8.015625 75.875 
L 15.828125 75.875 
Q 23.140625 64.359375 26.78125 53.3125 
Q 30.421875 42.28125 30.421875 31.390625 
Q 30.421875 20.453125 26.78125 9.375 
Q 23.140625 -1.703125 15.828125 -13.1875 
L 8.015625 -13.1875 
Q 14.5 -2 17.703125 9.0625 
Q 20.90625 20.125 20.90625 31.390625 
Q 20.90625 42.671875 17.703125 53.65625 
Q 14.5 64.65625 8.015625 75.875 
z
" id="DejaVuSans-41"/>
    </defs>
    <g transform="translate(159.610312 20.8)scale(0.12 -0.12)">
     <use xlink:href="#DejaVuSans-78"/>
     <use x="74.804688" xlink:href="#DejaVuSans-101"/>
     <use x="136.328125" xlink:href="#DejaVuSans-119"/>
     <use x="218.115234" xlink:href="#DejaVuSans-32"/>
     <use x="249.902344" xlink:href="#DejaVuSans-67"/>
     <use x="319.726562" xlink:href="#DejaVuSans-97"/>
     <use x="381.005859" xlink:href="#DejaVuSans-115"/>
     <use x="433.105469" xlink:href="#DejaVuSans-101"/>
     <use x="494.628906" xlink:href="#DejaVuSans-115"/>
     <use x="546.728516" xlink:href="#DejaVuSans-32"/>
     <use x="578.515625" xlink:href="#DejaVuSans-112"/>
     <use x="641.992188" xlink:href="#DejaVuSans-101"/>
     <use x="703.515625" xlink:href="#DejaVuSans-114"/>
     <use x="744.628906" xlink:href="#DejaVuSans-32"/>
     <use x="776.416016" xlink:href="#DejaVuSans-77"/>
     <use x="862.695312" xlink:href="#DejaVuSans-105"/>
     <use x="890.478516" xlink:href="#DejaVuSans-108"/>
     <use x="918.261719" xlink:href="#DejaVuSans-108"/>
     <use x="946.044922" xlink:href="#DejaVuSans-105"/>
     <use x="973.828125" xlink:href="#DejaVuSans-111"/>
     <use x="1035.009766" xlink:href="#DejaVuSans-110"/>
     <use x="1098.388672" xlink:href="#DejaVuSans-32"/>
     <use x="1130.175781" xlink:href="#DejaVuSans-80"/>
     <use x="1186.853516" xlink:href="#DejaVuSans-111"/>
     <use x="1248.035156" xlink:href="#DejaVuSans-112"/>
     <use x="1311.511719" xlink:href="#DejaVuSans-117"/>
     <use x="1374.890625" xlink:href="#DejaVuSans-108"/>
     <use x="1402.673828" xlink:href="#DejaVuSans-97"/>
     <use x="1463.953125" xlink:href="#DejaVuSans-116"/>
     <use x="1503.162109" xlink:href="#DejaVuSans-105"/>
     <use x="1530.945312" xlink:href="#DejaVuSans-111"/>
     <use x="1592.126953" xlink:href="#DejaVuSans-110"/>
     <use x="1655.505859" xlink:href="#DejaVuSans-32"/>
     <use x="1687.292969" xlink:href="#DejaVuSans-40"/>
     <use x="1726.306641" xlink:href="#DejaVuSans-55"/>
     <use x="1789.929688" xlink:href="#DejaVuSans-32"/>
     <use x="1821.716797" xlink:href="#DejaVuSans-100"/>
     <use x="1885.193359" xlink:href="#DejaVuSans-97"/>
     <use x="1946.472656" xlink:href="#DejaVuSans-121"/>
     <use x="2005.652344" xlink:href="#DejaVuSans-32"/>
     <use x="2037.439453" xlink:href="#DejaVuSans-114"/>
     <use x="2076.302734" xlink:href="#DejaVuSans-111"/>
     <use x="2137.484375" xlink:href="#DejaVuSans-108"/>
     <use x="2165.267578" xlink:href="#DejaVuSans-108"/>
     <use x="2193.050781" xlink:href="#DejaVuSans-105"/>
     <use x="2220.833984" xlink:href="#DejaVuSans-110"/>
     <use x="2284.212891" xlink:href="#DejaVuSans-103"/>
     <use x="2347.689453" xlink:href="#DejaVuSans-41"/>
    </g>
   </g>
   <g id="legend_1">
    <g id="patch_7">
     <path d="M 47.425 137.546875 
L 215.060938 137.546875 
Q 217.060938 137.546875 217.060938 135.546875 
L 217.060938 33.8 
Q 217.060938 31.8 215.060938 31.8 
L 47.425 31.8 
Q 45.425 31.8 45.425 33.8 
L 45.425 135.546875 
Q 45.425 137.546875 47.425 137.546875 
z
" style="fill:#ffffff;opacity:0.8;stroke:#cccccc;stroke-linejoin:miter;stroke-width:0.3;"/>
    </g>
    <g id="line2d_20">
     <path d="M 49.425 39.898438 
L 69.425 39.898438 
" style="fill:none;stroke:#1f77b4;stroke-linecap:square;stroke-width:1.75;"/>
    </g>
    <g id="line2d_21"/>
    <g id="text_15">
     <!-- Cheshire West and Chester -->
     <defs>
      <path d="M 54.890625 33.015625 
L 54.890625 0 
L 45.90625 0 
L 45.90625 32.71875 
Q 45.90625 40.484375 42.875 44.328125 
Q 39.84375 48.1875 33.796875 48.1875 
Q 26.515625 48.1875 22.3125 43.546875 
Q 18.109375 38.921875 18.109375 30.90625 
L 18.109375 0 
L 9.078125 0 
L 9.078125 75.984375 
L 18.109375 75.984375 
L 18.109375 46.1875 
Q 21.34375 51.125 25.703125 53.5625 
Q 30.078125 56 35.796875 56 
Q 45.21875 56 50.046875 50.171875 
Q 54.890625 44.34375 54.890625 33.015625 
z
" id="DejaVuSans-104"/>
      <path d="M 3.328125 72.90625 
L 13.28125 72.90625 
L 28.609375 11.28125 
L 43.890625 72.90625 
L 54.984375 72.90625 
L 70.3125 11.28125 
L 85.59375 72.90625 
L 95.609375 72.90625 
L 77.296875 0 
L 64.890625 0 
L 49.515625 63.28125 
L 33.984375 0 
L 21.578125 0 
z
" id="DejaVuSans-87"/>
     </defs>
     <g transform="translate(77.425 43.398438)scale(0.1 -0.1)">
      <use xlink:href="#DejaVuSans-67"/>
      <use x="69.824219" xlink:href="#DejaVuSans-104"/>
      <use x="133.203125" xlink:href="#DejaVuSans-101"/>
      <use x="194.726562" xlink:href="#DejaVuSans-115"/>
      <use x="246.826172" xlink:href="#DejaVuSans-104"/>
      <use x="310.205078" xlink:href="#DejaVuSans-105"/>
      <use x="337.988281" xlink:href="#DejaVuSans-114"/>
      <use x="376.851562" xlink:href="#DejaVuSans-101"/>
      <use x="438.375" xlink:href="#DejaVuSans-32"/>
      <use x="470.162109" xlink:href="#DejaVuSans-87"/>
      <use x="563.164062" xlink:href="#DejaVuSans-101"/>
      <use x="624.6875" xlink:href="#DejaVuSans-115"/>
      <use x="676.787109" xlink:href="#DejaVuSans-116"/>
      <use x="715.996094" xlink:href="#DejaVuSans-32"/>
      <use x="747.783203" xlink:href="#DejaVuSans-97"/>
      <use x="809.0625" xlink:href="#DejaVuSans-110"/>
      <use x="872.441406" xlink:href="#DejaVuSans-100"/>
      <use x="935.917969" xlink:href="#DejaVuSans-32"/>
      <use x="967.705078" xlink:href="#DejaVuSans-67"/>
      <use x="1037.529297" xlink:href="#DejaVuSans-104"/>
      <use x="1100.908203" xlink:href="#DejaVuSans-101"/>
      <use x="1162.431641" xlink:href="#DejaVuSans-115"/>
      <use x="1214.53125" xlink:href="#DejaVuSans-116"/>
      <use x="1253.740234" xlink:href="#DejaVuSans-101"/>
      <use x="1315.263672" xlink:href="#DejaVuSans-114"/>
     </g>
    </g>
    <g id="line2d_22">
     <path d="M 49.425 54.576563 
L 69.425 54.576563 
" style="fill:none;stroke:#ff7f0e;stroke-linecap:square;stroke-width:1.75;"/>
    </g>
    <g id="line2d_23"/>
    <g id="text_16">
     <!-- Leicester -->
     <defs>
      <path d="M 9.8125 72.90625 
L 19.671875 72.90625 
L 19.671875 8.296875 
L 55.171875 8.296875 
L 55.171875 0 
L 9.8125 0 
z
" id="DejaVuSans-76"/>
      <path d="M 48.78125 52.59375 
L 48.78125 44.1875 
Q 44.96875 46.296875 41.140625 47.34375 
Q 37.3125 48.390625 33.40625 48.390625 
Q 24.65625 48.390625 19.8125 42.84375 
Q 14.984375 37.3125 14.984375 27.296875 
Q 14.984375 17.28125 19.8125 11.734375 
Q 24.65625 6.203125 33.40625 6.203125 
Q 37.3125 6.203125 41.140625 7.25 
Q 44.96875 8.296875 48.78125 10.40625 
L 48.78125 2.09375 
Q 45.015625 0.34375 40.984375 -0.53125 
Q 36.96875 -1.421875 32.421875 -1.421875 
Q 20.0625 -1.421875 12.78125 6.34375 
Q 5.515625 14.109375 5.515625 27.296875 
Q 5.515625 40.671875 12.859375 48.328125 
Q 20.21875 56 33.015625 56 
Q 37.15625 56 41.109375 55.140625 
Q 45.0625 54.296875 48.78125 52.59375 
z
" id="DejaVuSans-99"/>
     </defs>
     <g transform="translate(77.425 58.076563)scale(0.1 -0.1)">
      <use xlink:href="#DejaVuSans-76"/>
      <use x="53.962891" xlink:href="#DejaVuSans-101"/>
      <use x="115.486328" xlink:href="#DejaVuSans-105"/>
      <use x="143.269531" xlink:href="#DejaVuSans-99"/>
      <use x="198.25" xlink:href="#DejaVuSans-101"/>
      <use x="259.773438" xlink:href="#DejaVuSans-115"/>
      <use x="311.873047" xlink:href="#DejaVuSans-116"/>
      <use x="351.082031" xlink:href="#DejaVuSans-101"/>
      <use x="412.605469" xlink:href="#DejaVuSans-114"/>
     </g>
    </g>
    <g id="line2d_24">
     <path d="M 49.425 69.254688 
L 69.425 69.254688 
" style="fill:none;stroke:#2ca02c;stroke-linecap:square;stroke-width:1.75;"/>
    </g>
    <g id="line2d_25"/>
    <g id="text_17">
     <!-- Northumberland -->
     <defs>
      <path d="M 52 44.1875 
Q 55.375 50.25 60.0625 53.125 
Q 64.75 56 71.09375 56 
Q 79.640625 56 84.28125 50.015625 
Q 88.921875 44.046875 88.921875 33.015625 
L 88.921875 0 
L 79.890625 0 
L 79.890625 32.71875 
Q 79.890625 40.578125 77.09375 44.375 
Q 74.3125 48.1875 68.609375 48.1875 
Q 61.625 48.1875 57.5625 43.546875 
Q 53.515625 38.921875 53.515625 30.90625 
L 53.515625 0 
L 44.484375 0 
L 44.484375 32.71875 
Q 44.484375 40.625 41.703125 44.40625 
Q 38.921875 48.1875 33.109375 48.1875 
Q 26.21875 48.1875 22.15625 43.53125 
Q 18.109375 38.875 18.109375 30.90625 
L 18.109375 0 
L 9.078125 0 
L 9.078125 54.6875 
L 18.109375 54.6875 
L 18.109375 46.1875 
Q 21.1875 51.21875 25.484375 53.609375 
Q 29.78125 56 35.6875 56 
Q 41.65625 56 45.828125 52.96875 
Q 50 49.953125 52 44.1875 
z
" id="DejaVuSans-109"/>
      <path d="M 48.6875 27.296875 
Q 48.6875 37.203125 44.609375 42.84375 
Q 40.53125 48.484375 33.40625 48.484375 
Q 26.265625 48.484375 22.1875 42.84375 
Q 18.109375 37.203125 18.109375 27.296875 
Q 18.109375 17.390625 22.1875 11.75 
Q 26.265625 6.109375 33.40625 6.109375 
Q 40.53125 6.109375 44.609375 11.75 
Q 48.6875 17.390625 48.6875 27.296875 
z
M 18.109375 46.390625 
Q 20.953125 51.265625 25.265625 53.625 
Q 29.59375 56 35.59375 56 
Q 45.5625 56 51.78125 48.09375 
Q 58.015625 40.1875 58.015625 27.296875 
Q 58.015625 14.40625 51.78125 6.484375 
Q 45.5625 -1.421875 35.59375 -1.421875 
Q 29.59375 -1.421875 25.265625 0.953125 
Q 20.953125 3.328125 18.109375 8.203125 
L 18.109375 0 
L 9.078125 0 
L 9.078125 75.984375 
L 18.109375 75.984375 
z
" id="DejaVuSans-98"/>
     </defs>
     <g transform="translate(77.425 72.754688)scale(0.1 -0.1)">
      <use xlink:href="#DejaVuSans-78"/>
      <use x="74.804688" xlink:href="#DejaVuSans-111"/>
      <use x="135.986328" xlink:href="#DejaVuSans-114"/>
      <use x="177.099609" xlink:href="#DejaVuSans-116"/>
      <use x="216.308594" xlink:href="#DejaVuSans-104"/>
      <use x="279.6875" xlink:href="#DejaVuSans-117"/>
      <use x="343.066406" xlink:href="#DejaVuSans-109"/>
      <use x="440.478516" xlink:href="#DejaVuSans-98"/>
      <use x="503.955078" xlink:href="#DejaVuSans-101"/>
      <use x="565.478516" xlink:href="#DejaVuSans-114"/>
      <use x="606.591797" xlink:href="#DejaVuSans-108"/>
      <use x="634.375" xlink:href="#DejaVuSans-97"/>
      <use x="695.654297" xlink:href="#DejaVuSans-110"/>
      <use x="759.033203" xlink:href="#DejaVuSans-100"/>
     </g>
    </g>
    <g id="line2d_26">
     <path d="M 49.425 83.932813 
L 69.425 83.932813 
" style="fill:none;stroke:#d62728;stroke-linecap:square;stroke-width:1.75;"/>
    </g>
    <g id="line2d_27"/>
    <g id="text_18">
     <!-- North Yorkshire -->
     <defs>
      <path d="M -0.203125 72.90625 
L 10.40625 72.90625 
L 30.609375 42.921875 
L 50.6875 72.90625 
L 61.28125 72.90625 
L 35.5 34.71875 
L 35.5 0 
L 25.59375 0 
L 25.59375 34.71875 
z
" id="DejaVuSans-89"/>
      <path d="M 9.078125 75.984375 
L 18.109375 75.984375 
L 18.109375 31.109375 
L 44.921875 54.6875 
L 56.390625 54.6875 
L 27.390625 29.109375 
L 57.625 0 
L 45.90625 0 
L 18.109375 26.703125 
L 18.109375 0 
L 9.078125 0 
z
" id="DejaVuSans-107"/>
     </defs>
     <g transform="translate(77.425 87.432813)scale(0.1 -0.1)">
      <use xlink:href="#DejaVuSans-78"/>
      <use x="74.804688" xlink:href="#DejaVuSans-111"/>
      <use x="135.986328" xlink:href="#DejaVuSans-114"/>
      <use x="177.099609" xlink:href="#DejaVuSans-116"/>
      <use x="216.308594" xlink:href="#DejaVuSans-104"/>
      <use x="279.6875" xlink:href="#DejaVuSans-32"/>
      <use x="311.474609" xlink:href="#DejaVuSans-89"/>
      <use x="359.308594" xlink:href="#DejaVuSans-111"/>
      <use x="420.490234" xlink:href="#DejaVuSans-114"/>
      <use x="461.603516" xlink:href="#DejaVuSans-107"/>
      <use x="519.513672" xlink:href="#DejaVuSans-115"/>
      <use x="571.613281" xlink:href="#DejaVuSans-104"/>
      <use x="634.992188" xlink:href="#DejaVuSans-105"/>
      <use x="662.775391" xlink:href="#DejaVuSans-114"/>
      <use x="701.638672" xlink:href="#DejaVuSans-101"/>
     </g>
    </g>
    <g id="line2d_28">
     <path d="M 49.425 98.610938 
L 69.425 98.610938 
" style="fill:none;stroke:#9467bd;stroke-linecap:square;stroke-width:1.75;"/>
    </g>
    <g id="line2d_29"/>
    <g id="text_19">
     <!-- Wirral -->
     <g transform="translate(77.425 102.110938)scale(0.1 -0.1)">
      <use xlink:href="#DejaVuSans-87"/>
      <use x="96.626953" xlink:href="#DejaVuSans-105"/>
      <use x="124.410156" xlink:href="#DejaVuSans-114"/>
      <use x="163.773438" xlink:href="#DejaVuSans-114"/>
      <use x="204.886719" xlink:href="#DejaVuSans-97"/>
      <use x="266.166016" xlink:href="#DejaVuSans-108"/>
     </g>
    </g>
    <g id="line2d_30">
     <path d="M 49.425 113.289063 
L 69.425 113.289063 
" style="fill:none;stroke:#8c564b;stroke-linecap:square;stroke-width:1.75;"/>
    </g>
    <g id="line2d_31"/>
    <g id="text_20">
     <!-- Oxfordshire -->
     <defs>
      <path d="M 39.40625 66.21875 
Q 28.65625 66.21875 22.328125 58.203125 
Q 16.015625 50.203125 16.015625 36.375 
Q 16.015625 22.609375 22.328125 14.59375 
Q 28.65625 6.59375 39.40625 6.59375 
Q 50.140625 6.59375 56.421875 14.59375 
Q 62.703125 22.609375 62.703125 36.375 
Q 62.703125 50.203125 56.421875 58.203125 
Q 50.140625 66.21875 39.40625 66.21875 
z
M 39.40625 74.21875 
Q 54.734375 74.21875 63.90625 63.9375 
Q 73.09375 53.65625 73.09375 36.375 
Q 73.09375 19.140625 63.90625 8.859375 
Q 54.734375 -1.421875 39.40625 -1.421875 
Q 24.03125 -1.421875 14.8125 8.828125 
Q 5.609375 19.09375 5.609375 36.375 
Q 5.609375 53.65625 14.8125 63.9375 
Q 24.03125 74.21875 39.40625 74.21875 
z
" id="DejaVuSans-79"/>
      <path d="M 54.890625 54.6875 
L 35.109375 28.078125 
L 55.90625 0 
L 45.3125 0 
L 29.390625 21.484375 
L 13.484375 0 
L 2.875 0 
L 24.125 28.609375 
L 4.6875 54.6875 
L 15.28125 54.6875 
L 29.78125 35.203125 
L 44.28125 54.6875 
z
" id="DejaVuSans-120"/>
      <path d="M 37.109375 75.984375 
L 37.109375 68.5 
L 28.515625 68.5 
Q 23.6875 68.5 21.796875 66.546875 
Q 19.921875 64.59375 19.921875 59.515625 
L 19.921875 54.6875 
L 34.71875 54.6875 
L 34.71875 47.703125 
L 19.921875 47.703125 
L 19.921875 0 
L 10.890625 0 
L 10.890625 47.703125 
L 2.296875 47.703125 
L 2.296875 54.6875 
L 10.890625 54.6875 
L 10.890625 58.5 
Q 10.890625 67.625 15.140625 71.796875 
Q 19.390625 75.984375 28.609375 75.984375 
z
" id="DejaVuSans-102"/>
     </defs>
     <g transform="translate(77.425 116.789063)scale(0.1 -0.1)">
      <use xlink:href="#DejaVuSans-79"/>
      <use x="78.710938" xlink:href="#DejaVuSans-120"/>
      <use x="137.890625" xlink:href="#DejaVuSans-102"/>
      <use x="173.095703" xlink:href="#DejaVuSans-111"/>
      <use x="234.277344" xlink:href="#DejaVuSans-114"/>
      <use x="273.640625" xlink:href="#DejaVuSans-100"/>
      <use x="337.117188" xlink:href="#DejaVuSans-115"/>
      <use x="389.216797" xlink:href="#DejaVuSans-104"/>
      <use x="452.595703" xlink:href="#DejaVuSans-105"/>
      <use x="480.378906" xlink:href="#DejaVuSans-114"/>
      <use x="519.242188" xlink:href="#DejaVuSans-101"/>
     </g>
    </g>
    <g id="line2d_32">
     <path d="M 49.425 127.967188 
L 69.425 127.967188 
" style="fill:none;stroke:#e377c2;stroke-linecap:square;stroke-width:1.75;"/>
    </g>
    <g id="line2d_33"/>
    <g id="text_21">
     <!-- Cumbria -->
     <g transform="translate(77.425 131.467188)scale(0.1 -0.1)">
      <use xlink:href="#DejaVuSans-67"/>
      <use x="69.824219" xlink:href="#DejaVuSans-117"/>
      <use x="133.203125" xlink:href="#DejaVuSans-109"/>
      <use x="230.615234" xlink:href="#DejaVuSans-98"/>
      <use x="294.091797" xlink:href="#DejaVuSans-114"/>
      <use x="335.205078" xlink:href="#DejaVuSans-105"/>
      <use x="362.988281" xlink:href="#DejaVuSans-97"/>
     </g>
    </g>
   </g>
  </g>
 </g>
 <defs>
  <clipPath id="p4eff56b20f">
   <rect height="304.302246" width="524.775" x="40.425" y="26.8"/>
  </clipPath>
 </defs>
</svg>
