<?xml version="1.0" encoding="utf-8" standalone="no"?>
<!DOCTYPE svg PUBLIC "-//W3C//DTD SVG 1.1//EN"
  "http://www.w3.org/Graphics/SVG/1.1/DTD/svg11.dtd">
<!-- Created with matplotlib (https://matplotlib.org/) -->
<svg height="396pt" version="1.1" viewBox="0 0 576 396" width="576pt" xmlns="http://www.w3.org/2000/svg" xmlns:xlink="http://www.w3.org/1999/xlink">
 <defs>
  <style type="text/css">
*{stroke-linecap:butt;stroke-linejoin:round;}
  </style>
 </defs>
 <g id="figure_1">
  <g id="patch_1">
   <path d="M 0 396 
L 576 396 
L 576 0 
L 0 0 
z
" style="fill:#ffffff;"/>
  </g>
  <g id="axes_1">
   <g id="patch_2">
    <path d="M 72 346.5 
L 518.4 346.5 
L 518.4 47.52 
L 72 47.52 
z
" style="fill:#ffffff;"/>
   </g>
   <g id="matplotlib.axis_1">
    <g id="xtick_1">
     <g id="line2d_1">
      <defs>
       <path d="M 0 0 
L 0 3.5 
" id="m2aa610dd8b" style="stroke:#000000;"/>
      </defs>
      <g>
       <use style="stroke:#000000;" x="120.502868" xlink:href="#m2aa610dd8b" y="346.5"/>
      </g>
     </g>
     <g id="text_1">
      <!-- 2020-04 -->
      <defs>
       <path d="M 19.1875 8.296875 
L 53.609375 8.296875 
L 53.609375 0 
L 7.328125 0 
L 7.328125 8.296875 
Q 12.9375 14.109375 22.625 23.890625 
Q 32.328125 33.6875 34.8125 36.53125 
Q 39.546875 41.84375 41.421875 45.53125 
Q 43.3125 49.21875 43.3125 52.78125 
Q 43.3125 58.59375 39.234375 62.25 
Q 35.15625 65.921875 28.609375 65.921875 
Q 23.96875 65.921875 18.8125 64.3125 
Q 13.671875 62.703125 7.8125 59.421875 
L 7.8125 69.390625 
Q 13.765625 71.78125 18.9375 73 
Q 24.125 74.21875 28.421875 74.21875 
Q 39.75 74.21875 46.484375 68.546875 
Q 53.21875 62.890625 53.21875 53.421875 
Q 53.21875 48.921875 51.53125 44.890625 
Q 49.859375 40.875 45.40625 35.40625 
Q 44.1875 33.984375 37.640625 27.21875 
Q 31.109375 20.453125 19.1875 8.296875 
z
" id="DejaVuSans-50"/>
       <path d="M 31.78125 66.40625 
Q 24.171875 66.40625 20.328125 58.90625 
Q 16.5 51.421875 16.5 36.375 
Q 16.5 21.390625 20.328125 13.890625 
Q 24.171875 6.390625 31.78125 6.390625 
Q 39.453125 6.390625 43.28125 13.890625 
Q 47.125 21.390625 47.125 36.375 
Q 47.125 51.421875 43.28125 58.90625 
Q 39.453125 66.40625 31.78125 66.40625 
z
M 31.78125 74.21875 
Q 44.046875 74.21875 50.515625 64.515625 
Q 56.984375 54.828125 56.984375 36.375 
Q 56.984375 17.96875 50.515625 8.265625 
Q 44.046875 -1.421875 31.78125 -1.421875 
Q 19.53125 -1.421875 13.0625 8.265625 
Q 6.59375 17.96875 6.59375 36.375 
Q 6.59375 54.828125 13.0625 64.515625 
Q 19.53125 74.21875 31.78125 74.21875 
z
" id="DejaVuSans-48"/>
       <path d="M 4.890625 31.390625 
L 31.203125 31.390625 
L 31.203125 23.390625 
L 4.890625 23.390625 
z
" id="DejaVuSans-45"/>
       <path d="M 37.796875 64.3125 
L 12.890625 25.390625 
L 37.796875 25.390625 
z
M 35.203125 72.90625 
L 47.609375 72.90625 
L 47.609375 25.390625 
L 58.015625 25.390625 
L 58.015625 17.1875 
L 47.609375 17.1875 
L 47.609375 0 
L 37.796875 0 
L 37.796875 17.1875 
L 4.890625 17.1875 
L 4.890625 26.703125 
z
" id="DejaVuSans-52"/>
      </defs>
      <g transform="translate(83.278047 384.471846)rotate(-30)scale(0.1 -0.1)">
       <use xlink:href="#DejaVuSans-50"/>
       <use x="63.623047" xlink:href="#DejaVuSans-48"/>
       <use x="127.246094" xlink:href="#DejaVuSans-50"/>
       <use x="190.869141" xlink:href="#DejaVuSans-48"/>
       <use x="254.492188" xlink:href="#DejaVuSans-45"/>
       <use x="290.576172" xlink:href="#DejaVuSans-48"/>
       <use x="354.199219" xlink:href="#DejaVuSans-52"/>
      </g>
     </g>
    </g>
    <g id="xtick_2">
     <g id="line2d_2">
      <g>
       <use style="stroke:#000000;" x="185.607389" xlink:href="#m2aa610dd8b" y="346.5"/>
      </g>
     </g>
     <g id="text_2">
      <!-- 2020-05 -->
      <defs>
       <path d="M 10.796875 72.90625 
L 49.515625 72.90625 
L 49.515625 64.59375 
L 19.828125 64.59375 
L 19.828125 46.734375 
Q 21.96875 47.46875 24.109375 47.828125 
Q 26.265625 48.1875 28.421875 48.1875 
Q 40.625 48.1875 47.75 41.5 
Q 54.890625 34.8125 54.890625 23.390625 
Q 54.890625 11.625 47.5625 5.09375 
Q 40.234375 -1.421875 26.90625 -1.421875 
Q 22.3125 -1.421875 17.546875 -0.640625 
Q 12.796875 0.140625 7.71875 1.703125 
L 7.71875 11.625 
Q 12.109375 9.234375 16.796875 8.0625 
Q 21.484375 6.890625 26.703125 6.890625 
Q 35.15625 6.890625 40.078125 11.328125 
Q 45.015625 15.765625 45.015625 23.390625 
Q 45.015625 31 40.078125 35.4375 
Q 35.15625 39.890625 26.703125 39.890625 
Q 22.75 39.890625 18.8125 39.015625 
Q 14.890625 38.140625 10.796875 36.28125 
z
" id="DejaVuSans-53"/>
      </defs>
      <g transform="translate(148.382569 384.471846)rotate(-30)scale(0.1 -0.1)">
       <use xlink:href="#DejaVuSans-50"/>
       <use x="63.623047" xlink:href="#DejaVuSans-48"/>
       <use x="127.246094" xlink:href="#DejaVuSans-50"/>
       <use x="190.869141" xlink:href="#DejaVuSans-48"/>
       <use x="254.492188" xlink:href="#DejaVuSans-45"/>
       <use x="290.576172" xlink:href="#DejaVuSans-48"/>
       <use x="354.199219" xlink:href="#DejaVuSans-53"/>
      </g>
     </g>
    </g>
    <g id="xtick_3">
     <g id="line2d_3">
      <g>
       <use style="stroke:#000000;" x="252.882061" xlink:href="#m2aa610dd8b" y="346.5"/>
      </g>
     </g>
     <g id="text_3">
      <!-- 2020-06 -->
      <defs>
       <path d="M 33.015625 40.375 
Q 26.375 40.375 22.484375 35.828125 
Q 18.609375 31.296875 18.609375 23.390625 
Q 18.609375 15.53125 22.484375 10.953125 
Q 26.375 6.390625 33.015625 6.390625 
Q 39.65625 6.390625 43.53125 10.953125 
Q 47.40625 15.53125 47.40625 23.390625 
Q 47.40625 31.296875 43.53125 35.828125 
Q 39.65625 40.375 33.015625 40.375 
z
M 52.59375 71.296875 
L 52.59375 62.3125 
Q 48.875 64.0625 45.09375 64.984375 
Q 41.3125 65.921875 37.59375 65.921875 
Q 27.828125 65.921875 22.671875 59.328125 
Q 17.53125 52.734375 16.796875 39.40625 
Q 19.671875 43.65625 24.015625 45.921875 
Q 28.375 48.1875 33.59375 48.1875 
Q 44.578125 48.1875 50.953125 41.515625 
Q 57.328125 34.859375 57.328125 23.390625 
Q 57.328125 12.15625 50.6875 5.359375 
Q 44.046875 -1.421875 33.015625 -1.421875 
Q 20.359375 -1.421875 13.671875 8.265625 
Q 6.984375 17.96875 6.984375 36.375 
Q 6.984375 53.65625 15.1875 63.9375 
Q 23.390625 74.21875 37.203125 74.21875 
Q 40.921875 74.21875 44.703125 73.484375 
Q 48.484375 72.75 52.59375 71.296875 
z
" id="DejaVuSans-54"/>
      </defs>
      <g transform="translate(215.65724 384.471846)rotate(-30)scale(0.1 -0.1)">
       <use xlink:href="#DejaVuSans-50"/>
       <use x="63.623047" xlink:href="#DejaVuSans-48"/>
       <use x="127.246094" xlink:href="#DejaVuSans-50"/>
       <use x="190.869141" xlink:href="#DejaVuSans-48"/>
       <use x="254.492188" xlink:href="#DejaVuSans-45"/>
       <use x="290.576172" xlink:href="#DejaVuSans-48"/>
       <use x="354.199219" xlink:href="#DejaVuSans-54"/>
      </g>
     </g>
    </g>
    <g id="xtick_4">
     <g id="line2d_4">
      <g>
       <use style="stroke:#000000;" x="317.986582" xlink:href="#m2aa610dd8b" y="346.5"/>
      </g>
     </g>
     <g id="text_4">
      <!-- 2020-07 -->
      <defs>
       <path d="M 8.203125 72.90625 
L 55.078125 72.90625 
L 55.078125 68.703125 
L 28.609375 0 
L 18.3125 0 
L 43.21875 64.59375 
L 8.203125 64.59375 
z
" id="DejaVuSans-55"/>
      </defs>
      <g transform="translate(280.761762 384.471846)rotate(-30)scale(0.1 -0.1)">
       <use xlink:href="#DejaVuSans-50"/>
       <use x="63.623047" xlink:href="#DejaVuSans-48"/>
       <use x="127.246094" xlink:href="#DejaVuSans-50"/>
       <use x="190.869141" xlink:href="#DejaVuSans-48"/>
       <use x="254.492188" xlink:href="#DejaVuSans-45"/>
       <use x="290.576172" xlink:href="#DejaVuSans-48"/>
       <use x="354.199219" xlink:href="#DejaVuSans-55"/>
      </g>
     </g>
    </g>
    <g id="xtick_5">
     <g id="line2d_5">
      <g>
       <use style="stroke:#000000;" x="385.261254" xlink:href="#m2aa610dd8b" y="346.5"/>
      </g>
     </g>
     <g id="text_5">
      <!-- 2020-08 -->
      <defs>
       <path d="M 31.78125 34.625 
Q 24.75 34.625 20.71875 30.859375 
Q 16.703125 27.09375 16.703125 20.515625 
Q 16.703125 13.921875 20.71875 10.15625 
Q 24.75 6.390625 31.78125 6.390625 
Q 38.8125 6.390625 42.859375 10.171875 
Q 46.921875 13.96875 46.921875 20.515625 
Q 46.921875 27.09375 42.890625 30.859375 
Q 38.875 34.625 31.78125 34.625 
z
M 21.921875 38.8125 
Q 15.578125 40.375 12.03125 44.71875 
Q 8.5 49.078125 8.5 55.328125 
Q 8.5 64.0625 14.71875 69.140625 
Q 20.953125 74.21875 31.78125 74.21875 
Q 42.671875 74.21875 48.875 69.140625 
Q 55.078125 64.0625 55.078125 55.328125 
Q 55.078125 49.078125 51.53125 44.71875 
Q 48 40.375 41.703125 38.8125 
Q 48.828125 37.15625 52.796875 32.3125 
Q 56.78125 27.484375 56.78125 20.515625 
Q 56.78125 9.90625 50.3125 4.234375 
Q 43.84375 -1.421875 31.78125 -1.421875 
Q 19.734375 -1.421875 13.25 4.234375 
Q 6.78125 9.90625 6.78125 20.515625 
Q 6.78125 27.484375 10.78125 32.3125 
Q 14.796875 37.15625 21.921875 38.8125 
z
M 18.3125 54.390625 
Q 18.3125 48.734375 21.84375 45.5625 
Q 25.390625 42.390625 31.78125 42.390625 
Q 38.140625 42.390625 41.71875 45.5625 
Q 45.3125 48.734375 45.3125 54.390625 
Q 45.3125 60.0625 41.71875 63.234375 
Q 38.140625 66.40625 31.78125 66.40625 
Q 25.390625 66.40625 21.84375 63.234375 
Q 18.3125 60.0625 18.3125 54.390625 
z
" id="DejaVuSans-56"/>
      </defs>
      <g transform="translate(348.036433 384.471846)rotate(-30)scale(0.1 -0.1)">
       <use xlink:href="#DejaVuSans-50"/>
       <use x="63.623047" xlink:href="#DejaVuSans-48"/>
       <use x="127.246094" xlink:href="#DejaVuSans-50"/>
       <use x="190.869141" xlink:href="#DejaVuSans-48"/>
       <use x="254.492188" xlink:href="#DejaVuSans-45"/>
       <use x="290.576172" xlink:href="#DejaVuSans-48"/>
       <use x="354.199219" xlink:href="#DejaVuSans-56"/>
      </g>
     </g>
    </g>
    <g id="xtick_6">
     <g id="line2d_6">
      <g>
       <use style="stroke:#000000;" x="452.535926" xlink:href="#m2aa610dd8b" y="346.5"/>
      </g>
     </g>
     <g id="text_6">
      <!-- 2020-09 -->
      <defs>
       <path d="M 10.984375 1.515625 
L 10.984375 10.5 
Q 14.703125 8.734375 18.5 7.8125 
Q 22.3125 6.890625 25.984375 6.890625 
Q 35.75 6.890625 40.890625 13.453125 
Q 46.046875 20.015625 46.78125 33.40625 
Q 43.953125 29.203125 39.59375 26.953125 
Q 35.25 24.703125 29.984375 24.703125 
Q 19.046875 24.703125 12.671875 31.3125 
Q 6.296875 37.9375 6.296875 49.421875 
Q 6.296875 60.640625 12.9375 67.421875 
Q 19.578125 74.21875 30.609375 74.21875 
Q 43.265625 74.21875 49.921875 64.515625 
Q 56.59375 54.828125 56.59375 36.375 
Q 56.59375 19.140625 48.40625 8.859375 
Q 40.234375 -1.421875 26.421875 -1.421875 
Q 22.703125 -1.421875 18.890625 -0.6875 
Q 15.09375 0.046875 10.984375 1.515625 
z
M 30.609375 32.421875 
Q 37.25 32.421875 41.125 36.953125 
Q 45.015625 41.5 45.015625 49.421875 
Q 45.015625 57.28125 41.125 61.84375 
Q 37.25 66.40625 30.609375 66.40625 
Q 23.96875 66.40625 20.09375 61.84375 
Q 16.21875 57.28125 16.21875 49.421875 
Q 16.21875 41.5 20.09375 36.953125 
Q 23.96875 32.421875 30.609375 32.421875 
z
" id="DejaVuSans-57"/>
      </defs>
      <g transform="translate(415.311105 384.471846)rotate(-30)scale(0.1 -0.1)">
       <use xlink:href="#DejaVuSans-50"/>
       <use x="63.623047" xlink:href="#DejaVuSans-48"/>
       <use x="127.246094" xlink:href="#DejaVuSans-50"/>
       <use x="190.869141" xlink:href="#DejaVuSans-48"/>
       <use x="254.492188" xlink:href="#DejaVuSans-45"/>
       <use x="290.576172" xlink:href="#DejaVuSans-48"/>
       <use x="354.199219" xlink:href="#DejaVuSans-57"/>
      </g>
     </g>
    </g>
    <g id="xtick_7">
     <g id="line2d_7">
      <g>
       <use style="stroke:#000000;" x="517.640447" xlink:href="#m2aa610dd8b" y="346.5"/>
      </g>
     </g>
     <g id="text_7">
      <!-- 2020-10 -->
      <defs>
       <path d="M 12.40625 8.296875 
L 28.515625 8.296875 
L 28.515625 63.921875 
L 10.984375 60.40625 
L 10.984375 69.390625 
L 28.421875 72.90625 
L 38.28125 72.90625 
L 38.28125 8.296875 
L 54.390625 8.296875 
L 54.390625 0 
L 12.40625 0 
z
" id="DejaVuSans-49"/>
      </defs>
      <g transform="translate(480.415626 384.471846)rotate(-30)scale(0.1 -0.1)">
       <use xlink:href="#DejaVuSans-50"/>
       <use x="63.623047" xlink:href="#DejaVuSans-48"/>
       <use x="127.246094" xlink:href="#DejaVuSans-50"/>
       <use x="190.869141" xlink:href="#DejaVuSans-48"/>
       <use x="254.492188" xlink:href="#DejaVuSans-45"/>
       <use x="290.576172" xlink:href="#DejaVuSans-49"/>
       <use x="354.199219" xlink:href="#DejaVuSans-48"/>
      </g>
     </g>
    </g>
    <g id="text_8">
     <!-- Date -->
     <defs>
      <path d="M 19.671875 64.796875 
L 19.671875 8.109375 
L 31.59375 8.109375 
Q 46.6875 8.109375 53.6875 14.9375 
Q 60.6875 21.78125 60.6875 36.53125 
Q 60.6875 51.171875 53.6875 57.984375 
Q 46.6875 64.796875 31.59375 64.796875 
z
M 9.8125 72.90625 
L 30.078125 72.90625 
Q 51.265625 72.90625 61.171875 64.09375 
Q 71.09375 55.28125 71.09375 36.53125 
Q 71.09375 17.671875 61.125 8.828125 
Q 51.171875 0 30.078125 0 
L 9.8125 0 
z
" id="DejaVuSans-68"/>
      <path d="M 34.28125 27.484375 
Q 23.390625 27.484375 19.1875 25 
Q 14.984375 22.515625 14.984375 16.5 
Q 14.984375 11.71875 18.140625 8.90625 
Q 21.296875 6.109375 26.703125 6.109375 
Q 34.1875 6.109375 38.703125 11.40625 
Q 43.21875 16.703125 43.21875 25.484375 
L 43.21875 27.484375 
z
M 52.203125 31.203125 
L 52.203125 0 
L 43.21875 0 
L 43.21875 8.296875 
Q 40.140625 3.328125 35.546875 0.953125 
Q 30.953125 -1.421875 24.3125 -1.421875 
Q 15.921875 -1.421875 10.953125 3.296875 
Q 6 8.015625 6 15.921875 
Q 6 25.140625 12.171875 29.828125 
Q 18.359375 34.515625 30.609375 34.515625 
L 43.21875 34.515625 
L 43.21875 35.40625 
Q 43.21875 41.609375 39.140625 45 
Q 35.0625 48.390625 27.6875 48.390625 
Q 23 48.390625 18.546875 47.265625 
Q 14.109375 46.140625 10.015625 43.890625 
L 10.015625 52.203125 
Q 14.9375 54.109375 19.578125 55.046875 
Q 24.21875 56 28.609375 56 
Q 40.484375 56 46.34375 49.84375 
Q 52.203125 43.703125 52.203125 31.203125 
z
" id="DejaVuSans-97"/>
      <path d="M 18.3125 70.21875 
L 18.3125 54.6875 
L 36.8125 54.6875 
L 36.8125 47.703125 
L 18.3125 47.703125 
L 18.3125 18.015625 
Q 18.3125 11.328125 20.140625 9.421875 
Q 21.96875 7.515625 27.59375 7.515625 
L 36.8125 7.515625 
L 36.8125 0 
L 27.59375 0 
Q 17.1875 0 13.234375 3.875 
Q 9.28125 7.765625 9.28125 18.015625 
L 9.28125 47.703125 
L 2.6875 47.703125 
L 2.6875 54.6875 
L 9.28125 54.6875 
L 9.28125 70.21875 
z
" id="DejaVuSans-116"/>
      <path d="M 56.203125 29.59375 
L 56.203125 25.203125 
L 14.890625 25.203125 
Q 15.484375 15.921875 20.484375 11.0625 
Q 25.484375 6.203125 34.421875 6.203125 
Q 39.59375 6.203125 44.453125 7.46875 
Q 49.3125 8.734375 54.109375 11.28125 
L 54.109375 2.78125 
Q 49.265625 0.734375 44.1875 -0.34375 
Q 39.109375 -1.421875 33.890625 -1.421875 
Q 20.796875 -1.421875 13.15625 6.1875 
Q 5.515625 13.8125 5.515625 26.8125 
Q 5.515625 40.234375 12.765625 48.109375 
Q 20.015625 56 32.328125 56 
Q 43.359375 56 49.78125 48.890625 
Q 56.203125 41.796875 56.203125 29.59375 
z
M 47.21875 32.234375 
Q 47.125 39.59375 43.09375 43.984375 
Q 39.0625 48.390625 32.421875 48.390625 
Q 24.90625 48.390625 20.390625 44.140625 
Q 15.875 39.890625 15.1875 32.171875 
z
" id="DejaVuSans-101"/>
     </defs>
     <g transform="translate(282.054141 398.63119)scale(0.11 -0.11)">
      <use xlink:href="#DejaVuSans-68"/>
      <use x="77.001953" xlink:href="#DejaVuSans-97"/>
      <use x="138.28125" xlink:href="#DejaVuSans-116"/>
      <use x="177.490234" xlink:href="#DejaVuSans-101"/>
     </g>
    </g>
   </g>
   <g id="matplotlib.axis_2">
    <g id="ytick_1">
     <g id="line2d_8">
      <defs>
       <path d="M 0 0 
L -3.5 0 
" id="mfbb3d851f4" style="stroke:#000000;"/>
      </defs>
      <g>
       <use style="stroke:#000000;" x="72" xlink:href="#mfbb3d851f4" y="333.97111"/>
      </g>
     </g>
     <g id="text_9">
      <!-- 0 -->
      <g transform="translate(55.1375 337.770329)scale(0.1 -0.1)">
       <use xlink:href="#DejaVuSans-48"/>
      </g>
     </g>
    </g>
    <g id="ytick_2">
     <g id="line2d_9">
      <g>
       <use style="stroke:#000000;" x="72" xlink:href="#mfbb3d851f4" y="274.096979"/>
      </g>
     </g>
     <g id="text_10">
      <!-- 50 -->
      <g transform="translate(48.775 277.896198)scale(0.1 -0.1)">
       <use xlink:href="#DejaVuSans-53"/>
       <use x="63.623047" xlink:href="#DejaVuSans-48"/>
      </g>
     </g>
    </g>
    <g id="ytick_3">
     <g id="line2d_10">
      <g>
       <use style="stroke:#000000;" x="72" xlink:href="#mfbb3d851f4" y="214.222849"/>
      </g>
     </g>
     <g id="text_11">
      <!-- 100 -->
      <g transform="translate(42.4125 218.022067)scale(0.1 -0.1)">
       <use xlink:href="#DejaVuSans-49"/>
       <use x="63.623047" xlink:href="#DejaVuSans-48"/>
       <use x="127.246094" xlink:href="#DejaVuSans-48"/>
      </g>
     </g>
    </g>
    <g id="ytick_4">
     <g id="line2d_11">
      <g>
       <use style="stroke:#000000;" x="72" xlink:href="#mfbb3d851f4" y="154.348718"/>
      </g>
     </g>
     <g id="text_12">
      <!-- 150 -->
      <g transform="translate(42.4125 158.147937)scale(0.1 -0.1)">
       <use xlink:href="#DejaVuSans-49"/>
       <use x="63.623047" xlink:href="#DejaVuSans-53"/>
       <use x="127.246094" xlink:href="#DejaVuSans-48"/>
      </g>
     </g>
    </g>
    <g id="ytick_5">
     <g id="line2d_12">
      <g>
       <use style="stroke:#000000;" x="72" xlink:href="#mfbb3d851f4" y="94.474587"/>
      </g>
     </g>
     <g id="text_13">
      <!-- 200 -->
      <g transform="translate(42.4125 98.273806)scale(0.1 -0.1)">
       <use xlink:href="#DejaVuSans-50"/>
       <use x="63.623047" xlink:href="#DejaVuSans-48"/>
       <use x="127.246094" xlink:href="#DejaVuSans-48"/>
      </g>
     </g>
    </g>
   </g>
   <g id="line2d_13">
    <path clip-path="url(#p9f43a1ca49)" d="M 92.290909 328.486069 
L 94.46106 326.990149 
L 98.801361 325.992869 
L 105.311813 321.505108 
L 107.481964 321.006468 
L 109.652115 314.025507 
L 111.822265 309.039107 
L 113.992416 299.066305 
L 116.162567 293.581265 
L 118.332718 286.600304 
L 120.502868 274.632942 
L 122.673019 264.161501 
L 124.84317 254.68734 
L 127.01332 244.714539 
L 129.183471 240.226778 
L 131.353622 232.747177 
L 133.523772 226.763496 
L 135.693923 227.262137 
L 137.864074 226.763496 
L 140.034225 232.248537 
L 142.204375 240.226778 
L 144.374526 242.719978 
L 146.544677 250.698219 
L 148.714827 254.68734 
L 150.884978 257.67918 
L 153.055129 256.6819 
L 155.22528 253.69006 
L 157.39543 249.202299 
L 159.565581 250.698219 
L 161.735732 247.207739 
L 163.905882 236.736298 
L 166.076033 233.744457 
L 168.246184 233.744457 
L 170.416334 237.234938 
L 172.586485 237.234938 
L 174.756636 240.725418 
L 176.926787 233.245817 
L 179.096937 231.251257 
L 181.267088 228.758057 
L 183.437239 227.262137 
L 185.607389 220.779816 
L 187.77754 220.281176 
L 189.947691 215.793415 
L 192.117842 222.774376 
L 194.287992 232.747177 
L 196.458143 232.248537 
L 198.628294 238.232218 
L 200.798444 236.237658 
L 202.968595 239.728138 
L 205.138746 242.719978 
L 207.308896 237.234938 
L 209.479047 234.741737 
L 211.649198 235.739018 
L 213.819349 229.256697 
L 215.989499 238.232218 
L 218.15965 235.739018 
L 220.329801 235.739018 
L 224.670102 239.728138 
L 226.840253 241.224058 
L 229.010404 252.19414 
L 231.180554 254.1887 
L 233.350705 255.68462 
L 235.520856 257.67918 
L 237.691006 268.649262 
L 239.861157 270.145182 
L 242.031308 277.624783 
L 244.201458 270.643822 
L 246.371609 269.147902 
L 248.54176 275.131583 
L 250.711911 277.126143 
L 252.882061 271.142462 
L 255.052212 276.627503 
L 257.222363 278.622063 
L 259.392513 284.605744 
L 261.562664 293.082625 
L 263.732815 291.586705 
L 265.902965 294.079905 
L 268.073116 301.060866 
L 270.243267 305.049986 
L 272.413418 306.047266 
L 274.583568 309.537747 
L 276.753719 307.543187 
L 278.92387 308.540467 
L 281.09402 309.039107 
L 283.264171 308.041827 
L 285.434322 306.047266 
L 287.604473 306.047266 
L 289.774623 306.545906 
L 291.944774 307.543187 
L 294.114925 311.532307 
L 296.285075 312.529587 
L 298.455226 315.521428 
L 300.625377 318.014628 
L 302.795527 318.513268 
L 304.965678 315.521428 
L 307.135829 317.017348 
L 309.30598 316.020068 
L 311.47613 316.020068 
L 313.646281 311.532307 
L 315.816432 310.535027 
L 317.986582 311.532307 
L 320.156733 315.022787 
L 322.326884 316.020068 
L 324.497035 313.028227 
L 326.667185 312.529587 
L 328.837336 318.014628 
L 331.007487 320.009188 
L 333.177637 318.513268 
L 335.347788 313.526867 
L 337.517939 313.028227 
L 339.688089 316.518708 
L 341.85824 317.515988 
L 344.028391 317.515988 
L 346.198542 315.521428 
L 348.368692 318.014628 
L 350.538843 322.003748 
L 354.879144 322.003748 
L 357.049295 323.001028 
L 359.219446 321.006468 
L 361.389596 323.001028 
L 363.559747 324.496949 
L 365.729898 326.491509 
L 367.900049 324.995589 
L 370.070199 324.496949 
L 374.410501 322.502388 
L 376.580651 323.001028 
L 378.750802 321.505108 
L 380.920953 321.006468 
L 383.091104 320.009188 
L 385.261254 320.507828 
L 389.601556 323.499669 
L 393.941857 321.505108 
L 396.112008 321.006468 
L 398.282158 323.499669 
L 400.452309 323.998309 
L 402.62246 323.998309 
L 404.792611 323.499669 
L 406.962761 323.998309 
L 409.132912 326.491509 
L 411.303063 324.995589 
L 413.473213 324.496949 
L 415.643364 323.499669 
L 417.813515 323.499669 
L 419.983666 323.998309 
L 422.153816 323.998309 
L 424.323967 320.009188 
L 426.494118 320.009188 
L 428.664268 321.006468 
L 433.00457 319.011908 
L 435.17472 318.513268 
L 437.344871 319.510548 
L 439.515022 319.510548 
L 441.685173 321.006468 
L 443.855323 320.507828 
L 446.025474 320.507828 
L 448.195625 320.009188 
L 450.365775 318.014628 
L 452.535926 314.524147 
L 454.706077 312.030947 
L 456.876228 307.044546 
L 459.046378 305.548626 
L 461.216529 301.559506 
L 463.38668 300.063586 
L 465.55683 291.088065 
L 467.726981 287.597584 
L 469.897132 288.096224 
L 472.067282 285.603024 
L 474.237433 279.619343 
L 476.407584 280.616623 
L 478.577735 281.115263 
L 480.747885 285.603024 
L 482.918036 286.101664 
L 485.088187 277.624783 
L 487.258337 278.123423 
L 489.428488 274.632942 
L 491.598639 265.657421 
L 493.768789 258.17782 
L 495.93894 251.19686 
L 498.109091 246.210459 
L 498.109091 246.210459 
" style="fill:none;stroke:#1f77b4;stroke-linecap:square;stroke-width:1.75;"/>
   </g>
   <g id="line2d_14">
    <path clip-path="url(#p9f43a1ca49)" d="M 92.290909 325.76113 
L 94.46106 325.27819 
L 96.631211 322.863489 
L 98.801361 319.482909 
L 100.971512 315.136449 
L 103.141663 306.926469 
L 105.311813 306.926469 
L 107.481964 303.545889 
L 111.822265 297.750609 
L 116.162567 303.545889 
L 118.332718 300.165309 
L 120.502868 286.642988 
L 122.673019 281.330648 
L 124.84317 272.637728 
L 127.01332 270.705968 
L 129.183471 261.530107 
L 131.353622 251.388367 
L 133.523772 252.354247 
L 135.693923 258.632467 
L 137.864074 255.251887 
L 140.034225 258.149527 
L 142.204375 257.183647 
L 144.374526 255.251887 
L 146.544677 262.978927 
L 148.714827 268.291267 
L 150.884978 270.705968 
L 153.055129 280.847708 
L 155.22528 284.711228 
L 157.39543 284.228288 
L 159.565581 282.779468 
L 161.735732 274.086548 
L 163.905882 271.671848 
L 166.076033 264.910687 
L 168.246184 259.115407 
L 170.416334 247.041907 
L 172.586485 245.593087 
L 174.756636 255.251887 
L 176.926787 251.388367 
L 179.096937 245.110147 
L 181.267088 241.246626 
L 183.437239 231.587826 
L 185.607389 241.729567 
L 187.77754 247.041907 
L 189.947691 242.212507 
L 192.117842 242.212507 
L 194.287992 245.593087 
L 196.458143 236.900166 
L 198.628294 242.695447 
L 200.798444 234.002526 
L 202.968595 230.139006 
L 205.138746 224.826666 
L 207.308896 226.275486 
L 209.479047 219.514326 
L 211.649198 227.724306 
L 213.819349 228.207246 
L 215.989499 223.860786 
L 218.15965 203.577305 
L 220.329801 200.679665 
L 222.499951 200.196725 
L 224.670102 196.816145 
L 226.840253 195.367325 
L 229.010404 184.259704 
L 231.180554 193.918505 
L 233.350705 207.923765 
L 235.520856 214.201986 
L 237.691006 218.065506 
L 239.861157 228.207246 
L 242.031308 232.070766 
L 244.201458 240.763686 
L 246.371609 239.314866 
L 248.54176 244.144267 
L 250.711911 240.763686 
L 252.882061 231.587826 
L 255.052212 210.821405 
L 257.222363 213.236105 
L 259.392513 211.787285 
L 261.562664 210.821405 
L 263.732815 209.372585 
L 265.902965 200.196725 
L 268.073116 193.435565 
L 270.243267 194.884385 
L 272.413418 179.913244 
L 274.583568 161.078584 
L 276.753719 147.556263 
L 278.92387 131.136303 
L 281.09402 123.892202 
L 283.264171 115.199282 
L 285.434322 111.335762 
L 287.604473 106.989302 
L 289.774623 107.955182 
L 291.944774 96.847561 
L 294.114925 92.501101 
L 296.285075 90.569341 
L 298.455226 83.808181 
L 300.625377 75.115261 
L 302.795527 61.11 
L 304.965678 61.59294 
L 307.135829 65.45646 
L 309.30598 72.70056 
L 311.47613 87.671701 
L 313.646281 92.984041 
L 315.816432 107.472242 
L 317.986582 120.511622 
L 320.156733 128.238662 
L 322.326884 131.619243 
L 324.497035 136.931583 
L 326.667185 115.682222 
L 328.837336 116.165162 
L 331.007487 117.613982 
L 333.177637 121.960442 
L 335.347788 128.238662 
L 337.517939 126.789842 
L 339.688089 118.096922 
L 341.85824 143.692743 
L 344.028391 157.698003 
L 346.198542 166.873864 
L 348.368692 177.498544 
L 350.538843 176.532664 
L 352.708994 191.986745 
L 354.879144 204.060245 
L 357.049295 207.440825 
L 359.219446 216.133746 
L 361.389596 221.446086 
L 363.559747 217.582566 
L 365.729898 219.514326 
L 367.900049 221.929026 
L 370.070199 231.587826 
L 372.24035 232.553706 
L 374.410501 226.275486 
L 376.580651 230.621946 
L 378.750802 234.485466 
L 380.920953 234.968406 
L 383.091104 240.763686 
L 385.261254 234.002526 
L 387.431405 235.934286 
L 389.601556 241.729567 
L 391.771706 237.866046 
L 393.941857 234.968406 
L 396.112008 232.553706 
L 398.282158 223.377846 
L 400.452309 218.548446 
L 402.62246 215.167866 
L 404.792611 213.719046 
L 406.962761 213.236105 
L 409.132912 223.377846 
L 411.303063 230.139006 
L 413.473213 234.002526 
L 415.643364 244.144267 
L 417.813515 248.490727 
L 419.983666 242.212507 
L 422.153816 239.314866 
L 424.323967 242.212507 
L 426.494118 247.524847 
L 428.664268 250.422487 
L 430.834419 254.768947 
L 433.00457 255.251887 
L 435.17472 270.705968 
L 437.344871 281.813588 
L 439.515022 284.711228 
L 441.685173 288.574748 
L 443.855323 290.023568 
L 446.025474 289.540628 
L 448.195625 289.540628 
L 450.365775 290.506508 
L 452.535926 281.330648 
L 454.706077 266.359507 
L 456.876228 258.632467 
L 459.046378 248.973667 
L 461.216529 236.900166 
L 463.38668 230.139006 
L 465.55683 209.372585 
L 467.726981 196.816145 
L 469.897132 189.572045 
L 472.067282 184.742644 
L 474.237433 180.879124 
L 476.407584 178.464424 
L 478.577735 177.498544 
L 480.747885 182.327944 
L 482.918036 183.293824 
L 485.088187 185.708524 
L 487.258337 174.600904 
L 489.428488 162.044464 
L 491.598639 145.624503 
L 493.768789 141.760983 
L 495.93894 133.068063 
L 498.109091 132.102183 
L 498.109091 132.102183 
" style="fill:none;stroke:#ff7f0e;stroke-linecap:square;stroke-width:1.75;"/>
   </g>
   <g id="line2d_15">
    <path clip-path="url(#p9f43a1ca49)" d="M 92.290909 329.196116 
L 96.631211 329.196116 
L 98.801361 328.665561 
L 103.141663 322.298902 
L 105.311813 318.585017 
L 107.481964 313.279468 
L 109.652115 310.096138 
L 111.822265 304.790589 
L 113.992416 303.198925 
L 116.162567 303.198925 
L 118.332718 298.42393 
L 120.502868 281.446173 
L 122.673019 274.548959 
L 124.84317 266.06008 
L 127.01332 258.101756 
L 129.183471 249.082323 
L 131.353622 237.94067 
L 133.523772 230.512901 
L 135.693923 233.165675 
L 137.864074 227.329571 
L 140.034225 226.799016 
L 144.374526 211.943478 
L 146.544677 210.351814 
L 148.714827 207.168484 
L 150.884978 212.474033 
L 153.055129 207.168484 
L 155.22528 199.21016 
L 157.39543 192.843501 
L 159.565581 193.904611 
L 161.735732 193.904611 
L 163.905882 194.965721 
L 166.076033 186.476842 
L 168.246184 194.965721 
L 170.416334 191.251837 
L 172.586485 207.699039 
L 174.756636 217.779583 
L 176.926787 217.249028 
L 181.267088 228.921236 
L 183.437239 219.371247 
L 185.607389 229.451791 
L 187.77754 232.63512 
L 189.947691 233.165675 
L 192.117842 241.654554 
L 194.287992 246.429548 
L 196.458143 244.837883 
L 198.628294 256.510092 
L 200.798444 262.876751 
L 202.968595 264.99897 
L 205.138746 264.99897 
L 207.308896 252.796207 
L 209.479047 248.021213 
L 211.649198 259.162866 
L 213.819349 267.651745 
L 215.989499 271.365629 
L 218.15965 272.426739 
L 220.329801 277.732288 
L 222.499951 294.179491 
L 224.670102 303.729479 
L 226.840253 306.912809 
L 229.010404 306.382254 
L 231.180554 307.973919 
L 233.350705 312.218358 
L 235.520856 310.626693 
L 237.691006 309.565584 
L 239.861157 310.626693 
L 242.031308 301.60726 
L 244.201458 302.137815 
L 246.371609 301.076705 
L 248.54176 294.710046 
L 250.711911 296.832266 
L 252.882061 297.36282 
L 255.052212 296.832266 
L 257.222363 307.973919 
L 259.392513 310.626693 
L 261.562664 314.340578 
L 263.732815 316.993352 
L 265.902965 316.993352 
L 268.073116 320.707237 
L 270.243267 320.176682 
L 272.413418 317.523907 
L 274.583568 320.176682 
L 276.753719 318.585017 
L 278.92387 320.707237 
L 281.09402 320.176682 
L 283.264171 320.176682 
L 285.434322 322.829457 
L 287.604473 323.890566 
L 289.774623 323.360011 
L 291.944774 323.890566 
L 294.114925 325.482231 
L 296.285075 328.135006 
L 298.455226 327.604451 
L 300.625377 327.604451 
L 302.795527 329.72667 
L 304.965678 329.72667 
L 307.135829 330.257225 
L 309.30598 330.257225 
L 311.47613 329.196116 
L 313.646281 328.665561 
L 315.816432 328.665561 
L 317.986582 329.196116 
L 320.156733 328.665561 
L 322.326884 329.196116 
L 324.497035 328.135006 
L 328.837336 329.196116 
L 333.177637 329.196116 
L 335.347788 329.72667 
L 337.517939 329.72667 
L 341.85824 330.78778 
L 344.028391 332.379445 
L 346.198542 332.91 
L 350.538843 331.84889 
L 352.708994 330.78778 
L 354.879144 331.318335 
L 357.049295 331.318335 
L 359.219446 330.257225 
L 361.389596 329.72667 
L 365.729898 329.72667 
L 367.900049 330.78778 
L 372.24035 330.78778 
L 374.410501 331.84889 
L 376.580651 331.84889 
L 380.920953 332.91 
L 385.261254 332.91 
L 389.601556 330.78778 
L 391.771706 331.318335 
L 393.941857 330.78778 
L 398.282158 330.78778 
L 400.452309 330.257225 
L 402.62246 331.318335 
L 404.792611 331.318335 
L 406.962761 328.665561 
L 409.132912 324.951676 
L 411.303063 323.890566 
L 413.473213 323.890566 
L 415.643364 324.421121 
L 419.983666 322.298902 
L 422.153816 324.421121 
L 424.323967 324.421121 
L 426.494118 322.298902 
L 428.664268 319.115572 
L 430.834419 313.810023 
L 433.00457 313.810023 
L 435.17472 315.401688 
L 437.344871 314.340578 
L 439.515022 316.462798 
L 441.685173 318.054462 
L 443.855323 320.176682 
L 446.025474 320.707237 
L 448.195625 318.585017 
L 450.365775 315.401688 
L 452.535926 307.973919 
L 454.706077 305.321144 
L 456.876228 301.60726 
L 459.046378 298.42393 
L 461.216529 299.48504 
L 463.38668 297.893375 
L 465.55683 295.771156 
L 467.726981 299.48504 
L 469.897132 296.832266 
L 472.067282 291.526716 
L 474.237433 287.812832 
L 476.407584 287.812832 
L 478.577735 285.160057 
L 480.747885 279.323953 
L 482.918036 272.957294 
L 485.088187 259.693421 
L 487.258337 248.551768 
L 489.428488 229.982346 
L 491.598639 215.126808 
L 493.768789 190.190727 
L 495.93894 160.479651 
L 498.109091 140.849119 
L 498.109091 140.849119 
" style="fill:none;stroke:#2ca02c;stroke-linecap:square;stroke-width:1.75;"/>
   </g>
   <g id="line2d_16">
    <path clip-path="url(#p9f43a1ca49)" d="M 92.290909 330.0961 
L 94.46106 328.435382 
L 96.631211 325.667518 
L 98.801361 325.113945 
L 100.971512 322.346081 
L 103.141663 320.408576 
L 107.481964 315.426421 
L 109.652115 312.658557 
L 111.822265 312.104984 
L 113.992416 308.783547 
L 116.162567 303.801392 
L 118.332718 301.033528 
L 120.502868 295.4978 
L 122.673019 293.560295 
L 127.01332 285.810275 
L 129.183471 283.595984 
L 131.353622 284.149557 
L 133.523772 280.551334 
L 135.693923 281.381693 
L 137.864074 279.444188 
L 140.034225 280.82812 
L 142.204375 281.658479 
L 144.374526 280.274547 
L 146.544677 280.82812 
L 148.714827 285.256703 
L 150.884978 281.104906 
L 153.055129 279.444188 
L 155.22528 279.720974 
L 157.39543 279.167402 
L 159.565581 275.015606 
L 161.735732 269.479877 
L 163.905882 264.774509 
L 166.076033 265.051295 
L 168.246184 258.408421 
L 170.416334 248.167324 
L 172.586485 246.783392 
L 174.756636 239.863732 
L 176.926787 238.756587 
L 179.096937 234.051218 
L 181.267088 222.149402 
L 183.437239 221.042257 
L 185.607389 223.810121 
L 187.77754 221.595829 
L 189.947691 229.069062 
L 192.117842 230.729781 
L 194.287992 228.51549 
L 196.458143 238.203014 
L 198.628294 232.944072 
L 200.798444 237.372655 
L 202.968595 239.310159 
L 205.138746 241.801237 
L 209.479047 248.444111 
L 211.649198 253.703052 
L 213.819349 266.9888 
L 215.989499 271.140596 
L 218.15965 276.122751 
L 220.329801 279.444188 
L 222.499951 285.256703 
L 224.670102 288.578139 
L 226.840253 292.453149 
L 229.010404 293.006722 
L 231.180554 293.837081 
L 233.350705 291.346003 
L 235.520856 293.560295 
L 237.691006 292.453149 
L 239.861157 297.712091 
L 242.031308 294.944227 
L 244.201458 293.283508 
L 246.371609 294.66744 
L 248.54176 295.4978 
L 250.711911 293.560295 
L 252.882061 296.328159 
L 255.052212 297.158518 
L 257.222363 302.971032 
L 259.392513 310.167479 
L 261.562664 311.274625 
L 263.732815 316.25678 
L 265.902965 320.13179 
L 268.073116 321.238935 
L 270.243267 323.17644 
L 272.413418 319.855003 
L 274.583568 320.408576 
L 276.753719 320.408576 
L 278.92387 316.25678 
L 281.09402 315.149634 
L 283.264171 310.167479 
L 285.434322 309.060333 
L 287.604473 310.167479 
L 289.774623 307.676401 
L 291.944774 308.783547 
L 294.114925 310.444265 
L 296.285075 310.444265 
L 298.455226 313.212129 
L 300.625377 313.488916 
L 302.795527 316.25678 
L 304.965678 319.30143 
L 307.135829 320.685362 
L 309.30598 323.17644 
L 311.47613 324.283586 
L 313.646281 325.944304 
L 315.816432 327.05145 
L 320.156733 328.158595 
L 322.326884 327.881809 
L 326.667185 328.435382 
L 328.837336 329.265741 
L 331.007487 329.819314 
L 333.177637 329.542527 
L 337.517939 329.542527 
L 339.688089 329.819314 
L 341.85824 330.372887 
L 344.028391 329.265741 
L 346.198542 328.988955 
L 348.368692 330.0961 
L 350.538843 330.649673 
L 352.708994 330.649673 
L 354.879144 330.372887 
L 357.049295 330.649673 
L 361.389596 332.310391 
L 363.559747 331.203246 
L 365.729898 331.203246 
L 367.900049 330.372887 
L 372.24035 329.265741 
L 374.410501 329.542527 
L 376.580651 327.881809 
L 378.750802 326.774663 
L 380.920953 326.774663 
L 385.261254 327.881809 
L 387.431405 327.328236 
L 389.601556 327.328236 
L 391.771706 327.05145 
L 393.941857 327.328236 
L 396.112008 325.944304 
L 398.282158 325.667518 
L 400.452309 325.667518 
L 402.62246 325.944304 
L 404.792611 324.006799 
L 406.962761 324.283586 
L 409.132912 324.006799 
L 411.303063 323.453226 
L 413.473213 320.408576 
L 415.643364 320.13179 
L 419.983666 320.13179 
L 422.153816 319.578217 
L 424.323967 320.13179 
L 426.494118 320.408576 
L 428.664268 323.730013 
L 430.834419 323.730013 
L 433.00457 324.006799 
L 437.344871 326.22109 
L 439.515022 326.497877 
L 441.685173 324.006799 
L 443.855323 323.17644 
L 446.025474 321.238935 
L 448.195625 321.238935 
L 450.365775 319.578217 
L 454.706077 307.676401 
L 456.876228 302.140673 
L 459.046378 294.390654 
L 461.216529 291.069217 
L 463.38668 284.70313 
L 465.55683 272.801314 
L 467.726981 270.86381 
L 472.067282 271.417382 
L 474.237433 273.90846 
L 476.407584 276.122751 
L 478.577735 275.015606 
L 480.747885 281.935266 
L 482.918036 284.149557 
L 485.088187 281.104906 
L 487.258337 278.890615 
L 489.428488 278.890615 
L 491.598639 273.631674 
L 493.768789 269.203091 
L 495.93894 264.220936 
L 498.109091 256.19413 
L 498.109091 256.19413 
" style="fill:none;stroke:#d62728;stroke-linecap:square;stroke-width:1.75;"/>
   </g>
   <g id="line2d_17">
    <path clip-path="url(#p9f43a1ca49)" d="M 92.290909 330.803274 
L 96.631211 329.747329 
L 100.971512 324.467602 
L 103.141663 319.187876 
L 105.311813 316.02004 
L 107.481964 310.740313 
L 109.652115 303.876669 
L 111.822265 298.596943 
L 113.992416 289.621408 
L 116.162567 283.813709 
L 118.332718 280.645873 
L 120.502868 274.310201 
L 122.673019 252.663322 
L 127.01332 222.040909 
L 129.183471 210.953484 
L 131.353622 195.642277 
L 133.523772 178.21918 
L 135.693923 161.852028 
L 137.864074 168.187699 
L 140.034225 175.579316 
L 142.204375 179.275125 
L 144.374526 187.722687 
L 146.544677 194.058359 
L 148.714827 195.642277 
L 150.884978 200.394031 
L 153.055129 205.673757 
L 155.22528 206.20173 
L 157.39543 200.922003 
L 159.565581 193.002414 
L 161.735732 199.866058 
L 163.905882 207.785648 
L 166.076033 204.617812 
L 168.246184 199.866058 
L 170.416334 201.449976 
L 174.756636 227.848608 
L 176.926787 229.432526 
L 179.096937 233.128335 
L 181.267088 246.327651 
L 183.437239 258.471022 
L 185.607389 253.719268 
L 187.77754 251.079405 
L 189.947691 247.911569 
L 192.117842 242.10387 
L 194.287992 235.768198 
L 196.458143 236.29617 
L 198.628294 225.736718 
L 200.798444 228.904553 
L 202.968595 233.656307 
L 205.138746 233.128335 
L 207.308896 233.128335 
L 209.479047 239.464006 
L 211.649198 227.848608 
L 213.819349 236.824143 
L 215.989499 243.159815 
L 218.15965 239.991979 
L 220.329801 244.21576 
L 222.499951 250.023459 
L 224.670102 250.551432 
L 226.840253 264.806693 
L 229.010404 265.862639 
L 231.180554 267.446557 
L 233.350705 275.894119 
L 235.520856 273.254256 
L 239.861157 277.478037 
L 242.031308 275.894119 
L 244.201458 276.950064 
L 246.371609 276.422092 
L 248.54176 278.533982 
L 250.711911 285.925599 
L 252.882061 285.925599 
L 255.052212 290.677353 
L 257.222363 293.317216 
L 259.392513 294.373161 
L 261.562664 300.180861 
L 263.732815 298.596943 
L 265.902965 300.708833 
L 268.073116 304.932614 
L 270.243267 308.628423 
L 272.413418 309.684368 
L 274.583568 311.796259 
L 276.753719 309.156396 
L 278.92387 310.212341 
L 281.09402 309.156396 
L 283.264171 304.932614 
L 285.434322 297.540997 
L 287.604473 297.013025 
L 289.774623 298.596943 
L 291.944774 301.236806 
L 294.114925 300.708833 
L 296.285075 301.236806 
L 298.455226 307.572478 
L 300.625377 310.740313 
L 302.795527 313.380177 
L 304.965678 313.380177 
L 309.30598 316.548013 
L 311.47613 318.659903 
L 313.646281 319.187876 
L 315.816432 323.93963 
L 320.156733 330.275301 
L 322.326884 329.219356 
L 324.497035 329.219356 
L 326.667185 328.163411 
L 328.837336 324.995575 
L 331.007487 326.05152 
L 335.347788 323.93963 
L 337.517939 324.995575 
L 339.688089 324.995575 
L 341.85824 326.05152 
L 344.028391 329.747329 
L 346.198542 328.691383 
L 350.538843 330.803274 
L 352.708994 331.331247 
L 354.879144 329.747329 
L 357.049295 329.747329 
L 359.219446 327.635438 
L 361.389596 327.635438 
L 363.559747 327.107465 
L 365.729898 326.05152 
L 367.900049 325.523548 
L 370.070199 327.107465 
L 372.24035 327.107465 
L 374.410501 329.219356 
L 376.580651 329.747329 
L 378.750802 327.107465 
L 380.920953 326.05152 
L 383.091104 326.05152 
L 385.261254 324.467602 
L 389.601556 324.467602 
L 391.771706 323.93963 
L 393.941857 326.579493 
L 396.112008 327.635438 
L 398.282158 324.995575 
L 400.452309 327.107465 
L 402.62246 327.107465 
L 404.792611 326.579493 
L 406.962761 324.995575 
L 409.132912 326.05152 
L 411.303063 324.995575 
L 413.473213 327.635438 
L 415.643364 326.579493 
L 417.813515 324.995575 
L 419.983666 324.995575 
L 422.153816 326.579493 
L 424.323967 323.411657 
L 426.494118 323.411657 
L 430.834419 319.187876 
L 433.00457 317.603958 
L 437.344871 302.820724 
L 439.515022 299.124915 
L 441.685173 293.317216 
L 443.855323 282.757763 
L 446.025474 282.757763 
L 448.195625 282.229791 
L 450.365775 278.533982 
L 452.535926 273.254256 
L 454.706077 262.694803 
L 456.876228 253.719268 
L 459.046378 242.631842 
L 461.216529 233.656307 
L 463.38668 220.456991 
L 465.55683 208.841593 
L 467.726981 192.474441 
L 469.897132 179.275125 
L 472.067282 168.715672 
L 474.237433 169.243645 
L 476.407584 156.572301 
L 478.577735 157.100274 
L 480.747885 149.180684 
L 482.918036 140.205149 
L 485.088187 132.285559 
L 487.258337 113.806517 
L 489.428488 98.49531 
L 491.598639 88.46383 
L 493.768789 69.456815 
L 495.93894 62.59317 
L 498.109091 66.288979 
L 498.109091 66.288979 
" style="fill:none;stroke:#9467bd;stroke-linecap:square;stroke-width:1.75;"/>
   </g>
   <g id="line2d_18">
    <path clip-path="url(#p9f43a1ca49)" d="M 92.290909 323.830642 
L 94.46106 323.583314 
L 96.631211 322.099343 
L 98.801361 321.357358 
L 100.971512 316.658117 
L 103.141663 313.195518 
L 105.311813 311.21689 
L 107.481964 308.00162 
L 109.652115 302.313065 
L 111.822265 298.355809 
L 113.992416 295.140539 
L 116.162567 290.935955 
L 120.502868 277.332889 
L 124.84317 256.06264 
L 127.01332 251.858056 
L 129.183471 244.932859 
L 131.353622 242.212245 
L 135.693923 231.824449 
L 137.864074 234.297734 
L 140.034225 234.297734 
L 142.204375 236.276362 
L 144.374526 238.749647 
L 146.544677 238.007661 
L 148.714827 242.954231 
L 150.884978 249.137443 
L 153.055129 251.858056 
L 155.22528 257.546611 
L 157.39543 254.084012 
L 159.565581 255.073326 
L 161.735732 259.030582 
L 163.905882 264.22448 
L 166.076033 262.740509 
L 170.416334 255.320655 
L 172.586485 258.041268 
L 174.756636 254.331341 
L 176.926787 251.858056 
L 179.096937 248.395457 
L 181.267088 249.879428 
L 183.437239 250.868742 
L 185.607389 259.030582 
L 187.77754 256.804625 
L 189.947691 265.708451 
L 192.117842 263.482494 
L 194.287992 258.783253 
L 196.458143 258.041268 
L 198.628294 264.719137 
L 200.798444 261.00921 
L 202.968595 259.772567 
L 205.138746 247.653472 
L 207.308896 242.212245 
L 209.479047 246.169501 
L 211.649198 241.47026 
L 213.819349 240.728275 
L 215.989499 244.438202 
L 218.15965 252.600041 
L 220.329801 254.825998 
L 222.499951 262.740509 
L 226.840253 275.354261 
L 229.010404 277.332889 
L 231.180554 277.580217 
L 233.350705 277.580217 
L 235.520856 287.720685 
L 237.691006 296.129853 
L 239.861157 296.62451 
L 242.031308 300.581766 
L 244.201458 304.291693 
L 246.371609 303.05505 
L 248.54176 305.281007 
L 250.711911 307.259634 
L 252.882061 305.281007 
L 255.052212 307.259634 
L 257.222363 309.485591 
L 259.392513 310.227576 
L 261.562664 314.679489 
L 263.732815 315.916131 
L 265.902965 314.184832 
L 268.073116 316.905445 
L 270.243267 318.142087 
L 272.413418 318.142087 
L 274.583568 318.884073 
L 276.753719 319.37873 
L 278.92387 318.389416 
L 281.09402 320.615372 
L 283.264171 320.368044 
L 285.434322 320.862701 
L 287.604473 321.852015 
L 289.774623 322.099343 
L 291.944774 324.077971 
L 296.285075 325.067285 
L 298.455226 326.056599 
L 302.795527 327.540569 
L 307.135829 327.045913 
L 311.47613 326.056599 
L 313.646281 326.303927 
L 315.816432 325.561942 
L 317.986582 325.561942 
L 320.156733 326.056599 
L 322.326884 326.303927 
L 324.497035 327.293241 
L 326.667185 326.551256 
L 328.837336 326.798584 
L 331.007487 327.787898 
L 333.177637 326.303927 
L 335.347788 324.572628 
L 337.517939 325.561942 
L 339.688089 325.561942 
L 341.85824 326.303927 
L 344.028391 325.80927 
L 346.198542 324.325299 
L 348.368692 325.314613 
L 350.538843 327.540569 
L 352.708994 326.798584 
L 354.879144 325.561942 
L 357.049295 325.561942 
L 359.219446 324.077971 
L 361.389596 322.346671 
L 363.559747 321.852015 
L 365.729898 320.368044 
L 367.900049 319.37873 
L 374.410501 319.37873 
L 376.580651 321.852015 
L 378.750802 322.099343 
L 380.920953 322.099343 
L 383.091104 323.088657 
L 385.261254 324.325299 
L 387.431405 324.325299 
L 389.601556 325.067285 
L 391.771706 323.335985 
L 393.941857 324.325299 
L 396.112008 324.572628 
L 398.282158 323.088657 
L 400.452309 321.852015 
L 402.62246 321.604686 
L 404.792611 319.873387 
L 406.962761 319.37873 
L 409.132912 318.142087 
L 411.303063 318.636744 
L 415.643364 317.152773 
L 417.813515 316.658117 
L 422.153816 317.64743 
L 424.323967 315.916131 
L 426.494118 313.195518 
L 428.664268 311.958876 
L 430.834419 311.711547 
L 433.00457 310.722233 
L 435.17472 311.21689 
L 437.344871 312.206204 
L 439.515022 312.206204 
L 441.685173 314.43216 
L 443.855323 316.410788 
L 446.025474 318.142087 
L 448.195625 319.131401 
L 450.365775 319.626058 
L 452.535926 317.400102 
L 454.706077 317.400102 
L 456.876228 315.174146 
L 459.046378 313.690175 
L 461.216529 309.238262 
L 463.38668 307.506963 
L 465.55683 307.259634 
L 467.726981 307.754291 
L 469.897132 307.506963 
L 474.237433 307.506963 
L 476.407584 308.248948 
L 478.577735 310.227576 
L 480.747885 309.980248 
L 482.918036 309.485591 
L 485.088187 309.485591 
L 487.258337 308.990934 
L 489.428488 311.21689 
L 491.598639 311.958876 
L 493.768789 307.506963 
L 495.93894 307.754291 
L 498.109091 307.506963 
L 498.109091 307.506963 
" style="fill:none;stroke:#8c564b;stroke-linecap:square;stroke-width:1.75;"/>
   </g>
   <g id="line2d_19">
    <path clip-path="url(#p9f43a1ca49)" d="M 92.290909 304.205828 
L 94.46106 302.495179 
L 96.631211 296.678975 
L 100.971512 286.415085 
L 103.141663 275.124805 
L 107.481964 258.702581 
L 109.652115 244.675264 
L 111.822265 242.622486 
L 113.992416 231.332206 
L 116.162567 228.937299 
L 118.332718 221.068316 
L 120.502868 211.830815 
L 122.673019 206.01461 
L 124.84317 209.093777 
L 127.01332 201.224795 
L 129.183471 190.960904 
L 131.353622 169.064605 
L 133.523772 168.038216 
L 135.693923 163.59053 
L 137.864074 162.906271 
L 140.034225 166.327567 
L 142.204375 175.565069 
L 146.544677 206.698869 
L 148.714827 213.199333 
L 150.884978 230.647947 
L 153.055129 241.596097 
L 155.22528 242.622486 
L 157.39543 242.964615 
L 159.565581 247.754431 
L 161.735732 250.833598 
L 163.905882 253.570635 
L 168.246184 252.202117 
L 172.586485 241.938226 
L 174.756636 235.437762 
L 176.926787 230.305817 
L 179.096937 230.647947 
L 181.267088 214.909982 
L 183.437239 206.35674 
L 185.607389 203.277573 
L 187.77754 211.488685 
L 189.947691 221.068316 
L 192.117842 234.753503 
L 194.287992 236.122022 
L 196.458143 254.254895 
L 198.628294 263.492396 
L 200.798444 276.835454 
L 202.968595 280.59888 
L 205.138746 280.94101 
L 207.308896 280.59888 
L 209.479047 290.86277 
L 211.649198 296.336845 
L 213.819349 304.205828 
L 215.989499 307.627125 
L 218.15965 304.205828 
L 220.329801 304.890087 
L 222.499951 306.600736 
L 224.670102 303.863698 
L 226.840253 304.890087 
L 229.010404 307.969254 
L 231.180554 300.442401 
L 233.350705 302.837309 
L 235.520856 303.521568 
L 237.691006 307.627125 
L 239.861157 312.07481 
L 242.031308 313.443329 
L 244.201458 312.07481 
L 246.371609 320.628052 
L 248.54176 320.285923 
L 250.711911 320.970182 
L 252.882061 320.285923 
L 255.052212 315.838237 
L 257.222363 315.838237 
L 259.392513 317.206756 
L 261.562664 317.548885 
L 263.732815 319.943793 
L 265.902965 319.601663 
L 268.073116 320.628052 
L 270.243267 323.36509 
L 272.413418 325.759998 
L 274.583568 325.417868 
L 276.753719 325.759998 
L 278.92387 325.417868 
L 281.09402 326.444257 
L 283.264171 324.733609 
L 285.434322 326.102127 
L 287.604473 325.417868 
L 289.774623 325.759998 
L 291.944774 324.049349 
L 294.114925 323.707219 
L 296.285075 323.707219 
L 298.455226 325.075738 
L 302.795527 325.075738 
L 304.965678 326.786387 
L 307.135829 326.786387 
L 309.30598 326.444257 
L 311.47613 326.786387 
L 313.646281 326.102127 
L 315.816432 324.049349 
L 317.986582 323.02296 
L 320.156733 322.338701 
L 322.326884 324.049349 
L 324.497035 325.075738 
L 326.667185 323.36509 
L 328.837336 320.285923 
L 331.007487 322.68083 
L 333.177637 324.733609 
L 335.347788 324.049349 
L 337.517939 323.707219 
L 339.688089 322.68083 
L 341.85824 323.707219 
L 344.028391 325.417868 
L 346.198542 324.733609 
L 348.368692 321.312312 
L 350.538843 318.917404 
L 352.708994 315.153978 
L 354.879144 314.469718 
L 357.049295 314.811848 
L 359.219446 314.469718 
L 361.389596 313.785459 
L 363.559747 313.443329 
L 365.729898 314.469718 
L 367.900049 317.548885 
L 370.070199 319.259534 
L 372.24035 317.206756 
L 376.580651 315.153978 
L 378.750802 315.153978 
L 380.920953 315.838237 
L 383.091104 313.443329 
L 385.261254 312.07481 
L 387.431405 313.101199 
L 391.771706 314.469718 
L 393.941857 317.206756 
L 396.112008 314.127588 
L 398.282158 313.785459 
L 400.452309 313.101199 
L 402.62246 313.785459 
L 404.792611 312.41694 
L 406.962761 312.41694 
L 409.132912 310.364162 
L 411.303063 313.785459 
L 413.473213 313.443329 
L 415.643364 315.496107 
L 417.813515 315.838237 
L 419.983666 318.233145 
L 422.153816 319.601663 
L 424.323967 319.943793 
L 426.494118 320.628052 
L 428.664268 324.391479 
L 430.834419 323.02296 
L 433.00457 321.996571 
L 435.17472 323.36509 
L 437.344871 324.391479 
L 439.515022 326.444257 
L 441.685173 323.36509 
L 443.855323 322.338701 
L 448.195625 325.075738 
L 450.365775 323.02296 
L 452.535926 320.628052 
L 454.706077 315.838237 
L 456.876228 316.864626 
L 461.216529 313.443329 
L 463.38668 309.679903 
L 465.55683 304.205828 
L 467.726981 303.863698 
L 469.897132 304.547958 
L 472.067282 304.890087 
L 474.237433 305.916476 
L 476.407584 305.232217 
L 478.577735 303.179439 
L 480.747885 306.942865 
L 482.918036 304.547958 
L 485.088187 304.890087 
L 487.258337 301.46879 
L 489.428488 296.678975 
L 491.598639 294.968327 
L 493.768789 291.889159 
L 495.93894 287.099344 
L 498.109091 280.25675 
L 498.109091 280.25675 
" style="fill:none;stroke:#e377c2;stroke-linecap:square;stroke-width:1.75;"/>
   </g>
   <g id="patch_3">
    <path d="M 72 346.5 
L 72 47.52 
" style="fill:none;stroke:#000000;stroke-linecap:square;stroke-linejoin:miter;stroke-width:0.8;"/>
   </g>
   <g id="patch_4">
    <path d="M 518.4 346.5 
L 518.4 47.52 
" style="fill:none;stroke:#000000;stroke-linecap:square;stroke-linejoin:miter;stroke-width:0.8;"/>
   </g>
   <g id="patch_5">
    <path d="M 72 346.5 
L 518.4 346.5 
" style="fill:none;stroke:#000000;stroke-linecap:square;stroke-linejoin:miter;stroke-width:0.8;"/>
   </g>
   <g id="patch_6">
    <path d="M 72 47.52 
L 518.4 47.52 
" style="fill:none;stroke:#000000;stroke-linecap:square;stroke-linejoin:miter;stroke-width:0.8;"/>
   </g>
   <g id="text_14">
    <!-- New Cases per Million Population (7 day rolling) -->
    <defs>
     <path d="M 9.8125 72.90625 
L 23.09375 72.90625 
L 55.421875 11.921875 
L 55.421875 72.90625 
L 64.984375 72.90625 
L 64.984375 0 
L 51.703125 0 
L 19.390625 60.984375 
L 19.390625 0 
L 9.8125 0 
z
" id="DejaVuSans-78"/>
     <path d="M 4.203125 54.6875 
L 13.1875 54.6875 
L 24.421875 12.015625 
L 35.59375 54.6875 
L 46.1875 54.6875 
L 57.421875 12.015625 
L 68.609375 54.6875 
L 77.59375 54.6875 
L 63.28125 0 
L 52.6875 0 
L 40.921875 44.828125 
L 29.109375 0 
L 18.5 0 
z
" id="DejaVuSans-119"/>
     <path id="DejaVuSans-32"/>
     <path d="M 64.40625 67.28125 
L 64.40625 56.890625 
Q 59.421875 61.53125 53.78125 63.8125 
Q 48.140625 66.109375 41.796875 66.109375 
Q 29.296875 66.109375 22.65625 58.46875 
Q 16.015625 50.828125 16.015625 36.375 
Q 16.015625 21.96875 22.65625 14.328125 
Q 29.296875 6.6875 41.796875 6.6875 
Q 48.140625 6.6875 53.78125 8.984375 
Q 59.421875 11.28125 64.40625 15.921875 
L 64.40625 5.609375 
Q 59.234375 2.09375 53.4375 0.328125 
Q 47.65625 -1.421875 41.21875 -1.421875 
Q 24.65625 -1.421875 15.125 8.703125 
Q 5.609375 18.84375 5.609375 36.375 
Q 5.609375 53.953125 15.125 64.078125 
Q 24.65625 74.21875 41.21875 74.21875 
Q 47.75 74.21875 53.53125 72.484375 
Q 59.328125 70.75 64.40625 67.28125 
z
" id="DejaVuSans-67"/>
     <path d="M 44.28125 53.078125 
L 44.28125 44.578125 
Q 40.484375 46.53125 36.375 47.5 
Q 32.28125 48.484375 27.875 48.484375 
Q 21.1875 48.484375 17.84375 46.4375 
Q 14.5 44.390625 14.5 40.28125 
Q 14.5 37.15625 16.890625 35.375 
Q 19.28125 33.59375 26.515625 31.984375 
L 29.59375 31.296875 
Q 39.15625 29.25 43.1875 25.515625 
Q 47.21875 21.78125 47.21875 15.09375 
Q 47.21875 7.46875 41.1875 3.015625 
Q 35.15625 -1.421875 24.609375 -1.421875 
Q 20.21875 -1.421875 15.453125 -0.5625 
Q 10.6875 0.296875 5.421875 2 
L 5.421875 11.28125 
Q 10.40625 8.6875 15.234375 7.390625 
Q 20.0625 6.109375 24.8125 6.109375 
Q 31.15625 6.109375 34.5625 8.28125 
Q 37.984375 10.453125 37.984375 14.40625 
Q 37.984375 18.0625 35.515625 20.015625 
Q 33.0625 21.96875 24.703125 23.78125 
L 21.578125 24.515625 
Q 13.234375 26.265625 9.515625 29.90625 
Q 5.8125 33.546875 5.8125 39.890625 
Q 5.8125 47.609375 11.28125 51.796875 
Q 16.75 56 26.8125 56 
Q 31.78125 56 36.171875 55.265625 
Q 40.578125 54.546875 44.28125 53.078125 
z
" id="DejaVuSans-115"/>
     <path d="M 18.109375 8.203125 
L 18.109375 -20.796875 
L 9.078125 -20.796875 
L 9.078125 54.6875 
L 18.109375 54.6875 
L 18.109375 46.390625 
Q 20.953125 51.265625 25.265625 53.625 
Q 29.59375 56 35.59375 56 
Q 45.5625 56 51.78125 48.09375 
Q 58.015625 40.1875 58.015625 27.296875 
Q 58.015625 14.40625 51.78125 6.484375 
Q 45.5625 -1.421875 35.59375 -1.421875 
Q 29.59375 -1.421875 25.265625 0.953125 
Q 20.953125 3.328125 18.109375 8.203125 
z
M 48.6875 27.296875 
Q 48.6875 37.203125 44.609375 42.84375 
Q 40.53125 48.484375 33.40625 48.484375 
Q 26.265625 48.484375 22.1875 42.84375 
Q 18.109375 37.203125 18.109375 27.296875 
Q 18.109375 17.390625 22.1875 11.75 
Q 26.265625 6.109375 33.40625 6.109375 
Q 40.53125 6.109375 44.609375 11.75 
Q 48.6875 17.390625 48.6875 27.296875 
z
" id="DejaVuSans-112"/>
     <path d="M 41.109375 46.296875 
Q 39.59375 47.171875 37.8125 47.578125 
Q 36.03125 48 33.890625 48 
Q 26.265625 48 22.1875 43.046875 
Q 18.109375 38.09375 18.109375 28.8125 
L 18.109375 0 
L 9.078125 0 
L 9.078125 54.6875 
L 18.109375 54.6875 
L 18.109375 46.1875 
Q 20.953125 51.171875 25.484375 53.578125 
Q 30.03125 56 36.53125 56 
Q 37.453125 56 38.578125 55.875 
Q 39.703125 55.765625 41.0625 55.515625 
z
" id="DejaVuSans-114"/>
     <path d="M 9.8125 72.90625 
L 24.515625 72.90625 
L 43.109375 23.296875 
L 61.8125 72.90625 
L 76.515625 72.90625 
L 76.515625 0 
L 66.890625 0 
L 66.890625 64.015625 
L 48.09375 14.015625 
L 38.1875 14.015625 
L 19.390625 64.015625 
L 19.390625 0 
L 9.8125 0 
z
" id="DejaVuSans-77"/>
     <path d="M 9.421875 54.6875 
L 18.40625 54.6875 
L 18.40625 0 
L 9.421875 0 
z
M 9.421875 75.984375 
L 18.40625 75.984375 
L 18.40625 64.59375 
L 9.421875 64.59375 
z
" id="DejaVuSans-105"/>
     <path d="M 9.421875 75.984375 
L 18.40625 75.984375 
L 18.40625 0 
L 9.421875 0 
z
" id="DejaVuSans-108"/>
     <path d="M 30.609375 48.390625 
Q 23.390625 48.390625 19.1875 42.75 
Q 14.984375 37.109375 14.984375 27.296875 
Q 14.984375 17.484375 19.15625 11.84375 
Q 23.34375 6.203125 30.609375 6.203125 
Q 37.796875 6.203125 41.984375 11.859375 
Q 46.1875 17.53125 46.1875 27.296875 
Q 46.1875 37.015625 41.984375 42.703125 
Q 37.796875 48.390625 30.609375 48.390625 
z
M 30.609375 56 
Q 42.328125 56 49.015625 48.375 
Q 55.71875 40.765625 55.71875 27.296875 
Q 55.71875 13.875 49.015625 6.21875 
Q 42.328125 -1.421875 30.609375 -1.421875 
Q 18.84375 -1.421875 12.171875 6.21875 
Q 5.515625 13.875 5.515625 27.296875 
Q 5.515625 40.765625 12.171875 48.375 
Q 18.84375 56 30.609375 56 
z
" id="DejaVuSans-111"/>
     <path d="M 54.890625 33.015625 
L 54.890625 0 
L 45.90625 0 
L 45.90625 32.71875 
Q 45.90625 40.484375 42.875 44.328125 
Q 39.84375 48.1875 33.796875 48.1875 
Q 26.515625 48.1875 22.3125 43.546875 
Q 18.109375 38.921875 18.109375 30.90625 
L 18.109375 0 
L 9.078125 0 
L 9.078125 54.6875 
L 18.109375 54.6875 
L 18.109375 46.1875 
Q 21.34375 51.125 25.703125 53.5625 
Q 30.078125 56 35.796875 56 
Q 45.21875 56 50.046875 50.171875 
Q 54.890625 44.34375 54.890625 33.015625 
z
" id="DejaVuSans-110"/>
     <path d="M 19.671875 64.796875 
L 19.671875 37.40625 
L 32.078125 37.40625 
Q 38.96875 37.40625 42.71875 40.96875 
Q 46.484375 44.53125 46.484375 51.125 
Q 46.484375 57.671875 42.71875 61.234375 
Q 38.96875 64.796875 32.078125 64.796875 
z
M 9.8125 72.90625 
L 32.078125 72.90625 
Q 44.34375 72.90625 50.609375 67.359375 
Q 56.890625 61.8125 56.890625 51.125 
Q 56.890625 40.328125 50.609375 34.8125 
Q 44.34375 29.296875 32.078125 29.296875 
L 19.671875 29.296875 
L 19.671875 0 
L 9.8125 0 
z
" id="DejaVuSans-80"/>
     <path d="M 8.5 21.578125 
L 8.5 54.6875 
L 17.484375 54.6875 
L 17.484375 21.921875 
Q 17.484375 14.15625 20.5 10.265625 
Q 23.53125 6.390625 29.59375 6.390625 
Q 36.859375 6.390625 41.078125 11.03125 
Q 45.3125 15.671875 45.3125 23.6875 
L 45.3125 54.6875 
L 54.296875 54.6875 
L 54.296875 0 
L 45.3125 0 
L 45.3125 8.40625 
Q 42.046875 3.421875 37.71875 1 
Q 33.40625 -1.421875 27.6875 -1.421875 
Q 18.265625 -1.421875 13.375 4.4375 
Q 8.5 10.296875 8.5 21.578125 
z
M 31.109375 56 
z
" id="DejaVuSans-117"/>
     <path d="M 31 75.875 
Q 24.46875 64.65625 21.28125 53.65625 
Q 18.109375 42.671875 18.109375 31.390625 
Q 18.109375 20.125 21.3125 9.0625 
Q 24.515625 -2 31 -13.1875 
L 23.1875 -13.1875 
Q 15.875 -1.703125 12.234375 9.375 
Q 8.59375 20.453125 8.59375 31.390625 
Q 8.59375 42.28125 12.203125 53.3125 
Q 15.828125 64.359375 23.1875 75.875 
z
" id="DejaVuSans-40"/>
     <path d="M 45.40625 46.390625 
L 45.40625 75.984375 
L 54.390625 75.984375 
L 54.390625 0 
L 45.40625 0 
L 45.40625 8.203125 
Q 42.578125 3.328125 38.25 0.953125 
Q 33.9375 -1.421875 27.875 -1.421875 
Q 17.96875 -1.421875 11.734375 6.484375 
Q 5.515625 14.40625 5.515625 27.296875 
Q 5.515625 40.1875 11.734375 48.09375 
Q 17.96875 56 27.875 56 
Q 33.9375 56 38.25 53.625 
Q 42.578125 51.265625 45.40625 46.390625 
z
M 14.796875 27.296875 
Q 14.796875 17.390625 18.875 11.75 
Q 22.953125 6.109375 30.078125 6.109375 
Q 37.203125 6.109375 41.296875 11.75 
Q 45.40625 17.390625 45.40625 27.296875 
Q 45.40625 37.203125 41.296875 42.84375 
Q 37.203125 48.484375 30.078125 48.484375 
Q 22.953125 48.484375 18.875 42.84375 
Q 14.796875 37.203125 14.796875 27.296875 
z
" id="DejaVuSans-100"/>
     <path d="M 32.171875 -5.078125 
Q 28.375 -14.84375 24.75 -17.8125 
Q 21.140625 -20.796875 15.09375 -20.796875 
L 7.90625 -20.796875 
L 7.90625 -13.28125 
L 13.1875 -13.28125 
Q 16.890625 -13.28125 18.9375 -11.515625 
Q 21 -9.765625 23.484375 -3.21875 
L 25.09375 0.875 
L 2.984375 54.6875 
L 12.5 54.6875 
L 29.59375 11.921875 
L 46.6875 54.6875 
L 56.203125 54.6875 
z
" id="DejaVuSans-121"/>
     <path d="M 45.40625 27.984375 
Q 45.40625 37.75 41.375 43.109375 
Q 37.359375 48.484375 30.078125 48.484375 
Q 22.859375 48.484375 18.828125 43.109375 
Q 14.796875 37.75 14.796875 27.984375 
Q 14.796875 18.265625 18.828125 12.890625 
Q 22.859375 7.515625 30.078125 7.515625 
Q 37.359375 7.515625 41.375 12.890625 
Q 45.40625 18.265625 45.40625 27.984375 
z
M 54.390625 6.78125 
Q 54.390625 -7.171875 48.1875 -13.984375 
Q 42 -20.796875 29.203125 -20.796875 
Q 24.46875 -20.796875 20.265625 -20.09375 
Q 16.0625 -19.390625 12.109375 -17.921875 
L 12.109375 -9.1875 
Q 16.0625 -11.328125 19.921875 -12.34375 
Q 23.78125 -13.375 27.78125 -13.375 
Q 36.625 -13.375 41.015625 -8.765625 
Q 45.40625 -4.15625 45.40625 5.171875 
L 45.40625 9.625 
Q 42.625 4.78125 38.28125 2.390625 
Q 33.9375 0 27.875 0 
Q 17.828125 0 11.671875 7.65625 
Q 5.515625 15.328125 5.515625 27.984375 
Q 5.515625 40.671875 11.671875 48.328125 
Q 17.828125 56 27.875 56 
Q 33.9375 56 38.28125 53.609375 
Q 42.625 51.21875 45.40625 46.390625 
L 45.40625 54.6875 
L 54.390625 54.6875 
z
" id="DejaVuSans-103"/>
     <path d="M 8.015625 75.875 
L 15.828125 75.875 
Q 23.140625 64.359375 26.78125 53.3125 
Q 30.421875 42.28125 30.421875 31.390625 
Q 30.421875 20.453125 26.78125 9.375 
Q 23.140625 -1.703125 15.828125 -13.1875 
L 8.015625 -13.1875 
Q 14.5 -2 17.703125 9.0625 
Q 20.90625 20.125 20.90625 31.390625 
Q 20.90625 42.671875 17.703125 53.65625 
Q 14.5 64.65625 8.015625 75.875 
z
" id="DejaVuSans-41"/>
    </defs>
    <g transform="translate(151.997812 41.52)scale(0.12 -0.12)">
     <use xlink:href="#DejaVuSans-78"/>
     <use x="74.804688" xlink:href="#DejaVuSans-101"/>
     <use x="136.328125" xlink:href="#DejaVuSans-119"/>
     <use x="218.115234" xlink:href="#DejaVuSans-32"/>
     <use x="249.902344" xlink:href="#DejaVuSans-67"/>
     <use x="319.726562" xlink:href="#DejaVuSans-97"/>
     <use x="381.005859" xlink:href="#DejaVuSans-115"/>
     <use x="433.105469" xlink:href="#DejaVuSans-101"/>
     <use x="494.628906" xlink:href="#DejaVuSans-115"/>
     <use x="546.728516" xlink:href="#DejaVuSans-32"/>
     <use x="578.515625" xlink:href="#DejaVuSans-112"/>
     <use x="641.992188" xlink:href="#DejaVuSans-101"/>
     <use x="703.515625" xlink:href="#DejaVuSans-114"/>
     <use x="744.628906" xlink:href="#DejaVuSans-32"/>
     <use x="776.416016" xlink:href="#DejaVuSans-77"/>
     <use x="862.695312" xlink:href="#DejaVuSans-105"/>
     <use x="890.478516" xlink:href="#DejaVuSans-108"/>
     <use x="918.261719" xlink:href="#DejaVuSans-108"/>
     <use x="946.044922" xlink:href="#DejaVuSans-105"/>
     <use x="973.828125" xlink:href="#DejaVuSans-111"/>
     <use x="1035.009766" xlink:href="#DejaVuSans-110"/>
     <use x="1098.388672" xlink:href="#DejaVuSans-32"/>
     <use x="1130.175781" xlink:href="#DejaVuSans-80"/>
     <use x="1186.853516" xlink:href="#DejaVuSans-111"/>
     <use x="1248.035156" xlink:href="#DejaVuSans-112"/>
     <use x="1311.511719" xlink:href="#DejaVuSans-117"/>
     <use x="1374.890625" xlink:href="#DejaVuSans-108"/>
     <use x="1402.673828" xlink:href="#DejaVuSans-97"/>
     <use x="1463.953125" xlink:href="#DejaVuSans-116"/>
     <use x="1503.162109" xlink:href="#DejaVuSans-105"/>
     <use x="1530.945312" xlink:href="#DejaVuSans-111"/>
     <use x="1592.126953" xlink:href="#DejaVuSans-110"/>
     <use x="1655.505859" xlink:href="#DejaVuSans-32"/>
     <use x="1687.292969" xlink:href="#DejaVuSans-40"/>
     <use x="1726.306641" xlink:href="#DejaVuSans-55"/>
     <use x="1789.929688" xlink:href="#DejaVuSans-32"/>
     <use x="1821.716797" xlink:href="#DejaVuSans-100"/>
     <use x="1885.193359" xlink:href="#DejaVuSans-97"/>
     <use x="1946.472656" xlink:href="#DejaVuSans-121"/>
     <use x="2005.652344" xlink:href="#DejaVuSans-32"/>
     <use x="2037.439453" xlink:href="#DejaVuSans-114"/>
     <use x="2076.302734" xlink:href="#DejaVuSans-111"/>
     <use x="2137.484375" xlink:href="#DejaVuSans-108"/>
     <use x="2165.267578" xlink:href="#DejaVuSans-108"/>
     <use x="2193.050781" xlink:href="#DejaVuSans-105"/>
     <use x="2220.833984" xlink:href="#DejaVuSans-110"/>
     <use x="2284.212891" xlink:href="#DejaVuSans-103"/>
     <use x="2347.689453" xlink:href="#DejaVuSans-41"/>
    </g>
   </g>
   <g id="legend_1">
    <g id="patch_7">
     <path d="M 79 158.266875 
L 246.635938 158.266875 
Q 248.635938 158.266875 248.635938 156.266875 
L 248.635938 54.52 
Q 248.635938 52.52 246.635938 52.52 
L 79 52.52 
Q 77 52.52 77 54.52 
L 77 156.266875 
Q 77 158.266875 79 158.266875 
z
" style="fill:#ffffff;opacity:0.8;stroke:#cccccc;stroke-linejoin:miter;stroke-width:0.3;"/>
    </g>
    <g id="line2d_20">
     <path d="M 81 60.618437 
L 101 60.618437 
" style="fill:none;stroke:#1f77b4;stroke-linecap:square;stroke-width:1.75;"/>
    </g>
    <g id="line2d_21"/>
    <g id="text_15">
     <!-- Cheshire West and Chester -->
     <defs>
      <path d="M 54.890625 33.015625 
L 54.890625 0 
L 45.90625 0 
L 45.90625 32.71875 
Q 45.90625 40.484375 42.875 44.328125 
Q 39.84375 48.1875 33.796875 48.1875 
Q 26.515625 48.1875 22.3125 43.546875 
Q 18.109375 38.921875 18.109375 30.90625 
L 18.109375 0 
L 9.078125 0 
L 9.078125 75.984375 
L 18.109375 75.984375 
L 18.109375 46.1875 
Q 21.34375 51.125 25.703125 53.5625 
Q 30.078125 56 35.796875 56 
Q 45.21875 56 50.046875 50.171875 
Q 54.890625 44.34375 54.890625 33.015625 
z
" id="DejaVuSans-104"/>
      <path d="M 3.328125 72.90625 
L 13.28125 72.90625 
L 28.609375 11.28125 
L 43.890625 72.90625 
L 54.984375 72.90625 
L 70.3125 11.28125 
L 85.59375 72.90625 
L 95.609375 72.90625 
L 77.296875 0 
L 64.890625 0 
L 49.515625 63.28125 
L 33.984375 0 
L 21.578125 0 
z
" id="DejaVuSans-87"/>
     </defs>
     <g transform="translate(109 64.118437)scale(0.1 -0.1)">
      <use xlink:href="#DejaVuSans-67"/>
      <use x="69.824219" xlink:href="#DejaVuSans-104"/>
      <use x="133.203125" xlink:href="#DejaVuSans-101"/>
      <use x="194.726562" xlink:href="#DejaVuSans-115"/>
      <use x="246.826172" xlink:href="#DejaVuSans-104"/>
      <use x="310.205078" xlink:href="#DejaVuSans-105"/>
      <use x="337.988281" xlink:href="#DejaVuSans-114"/>
      <use x="376.851562" xlink:href="#DejaVuSans-101"/>
      <use x="438.375" xlink:href="#DejaVuSans-32"/>
      <use x="470.162109" xlink:href="#DejaVuSans-87"/>
      <use x="563.164062" xlink:href="#DejaVuSans-101"/>
      <use x="624.6875" xlink:href="#DejaVuSans-115"/>
      <use x="676.787109" xlink:href="#DejaVuSans-116"/>
      <use x="715.996094" xlink:href="#DejaVuSans-32"/>
      <use x="747.783203" xlink:href="#DejaVuSans-97"/>
      <use x="809.0625" xlink:href="#DejaVuSans-110"/>
      <use x="872.441406" xlink:href="#DejaVuSans-100"/>
      <use x="935.917969" xlink:href="#DejaVuSans-32"/>
      <use x="967.705078" xlink:href="#DejaVuSans-67"/>
      <use x="1037.529297" xlink:href="#DejaVuSans-104"/>
      <use x="1100.908203" xlink:href="#DejaVuSans-101"/>
      <use x="1162.431641" xlink:href="#DejaVuSans-115"/>
      <use x="1214.53125" xlink:href="#DejaVuSans-116"/>
      <use x="1253.740234" xlink:href="#DejaVuSans-101"/>
      <use x="1315.263672" xlink:href="#DejaVuSans-114"/>
     </g>
    </g>
    <g id="line2d_22">
     <path d="M 81 75.296562 
L 101 75.296562 
" style="fill:none;stroke:#ff7f0e;stroke-linecap:square;stroke-width:1.75;"/>
    </g>
    <g id="line2d_23"/>
    <g id="text_16">
     <!-- Leicester -->
     <defs>
      <path d="M 9.8125 72.90625 
L 19.671875 72.90625 
L 19.671875 8.296875 
L 55.171875 8.296875 
L 55.171875 0 
L 9.8125 0 
z
" id="DejaVuSans-76"/>
      <path d="M 48.78125 52.59375 
L 48.78125 44.1875 
Q 44.96875 46.296875 41.140625 47.34375 
Q 37.3125 48.390625 33.40625 48.390625 
Q 24.65625 48.390625 19.8125 42.84375 
Q 14.984375 37.3125 14.984375 27.296875 
Q 14.984375 17.28125 19.8125 11.734375 
Q 24.65625 6.203125 33.40625 6.203125 
Q 37.3125 6.203125 41.140625 7.25 
Q 44.96875 8.296875 48.78125 10.40625 
L 48.78125 2.09375 
Q 45.015625 0.34375 40.984375 -0.53125 
Q 36.96875 -1.421875 32.421875 -1.421875 
Q 20.0625 -1.421875 12.78125 6.34375 
Q 5.515625 14.109375 5.515625 27.296875 
Q 5.515625 40.671875 12.859375 48.328125 
Q 20.21875 56 33.015625 56 
Q 37.15625 56 41.109375 55.140625 
Q 45.0625 54.296875 48.78125 52.59375 
z
" id="DejaVuSans-99"/>
     </defs>
     <g transform="translate(109 78.796562)scale(0.1 -0.1)">
      <use xlink:href="#DejaVuSans-76"/>
      <use x="53.962891" xlink:href="#DejaVuSans-101"/>
      <use x="115.486328" xlink:href="#DejaVuSans-105"/>
      <use x="143.269531" xlink:href="#DejaVuSans-99"/>
      <use x="198.25" xlink:href="#DejaVuSans-101"/>
      <use x="259.773438" xlink:href="#DejaVuSans-115"/>
      <use x="311.873047" xlink:href="#DejaVuSans-116"/>
      <use x="351.082031" xlink:href="#DejaVuSans-101"/>
      <use x="412.605469" xlink:href="#DejaVuSans-114"/>
     </g>
    </g>
    <g id="line2d_24">
     <path d="M 81 89.974687 
L 101 89.974687 
" style="fill:none;stroke:#2ca02c;stroke-linecap:square;stroke-width:1.75;"/>
    </g>
    <g id="line2d_25"/>
    <g id="text_17">
     <!-- Northumberland -->
     <defs>
      <path d="M 52 44.1875 
Q 55.375 50.25 60.0625 53.125 
Q 64.75 56 71.09375 56 
Q 79.640625 56 84.28125 50.015625 
Q 88.921875 44.046875 88.921875 33.015625 
L 88.921875 0 
L 79.890625 0 
L 79.890625 32.71875 
Q 79.890625 40.578125 77.09375 44.375 
Q 74.3125 48.1875 68.609375 48.1875 
Q 61.625 48.1875 57.5625 43.546875 
Q 53.515625 38.921875 53.515625 30.90625 
L 53.515625 0 
L 44.484375 0 
L 44.484375 32.71875 
Q 44.484375 40.625 41.703125 44.40625 
Q 38.921875 48.1875 33.109375 48.1875 
Q 26.21875 48.1875 22.15625 43.53125 
Q 18.109375 38.875 18.109375 30.90625 
L 18.109375 0 
L 9.078125 0 
L 9.078125 54.6875 
L 18.109375 54.6875 
L 18.109375 46.1875 
Q 21.1875 51.21875 25.484375 53.609375 
Q 29.78125 56 35.6875 56 
Q 41.65625 56 45.828125 52.96875 
Q 50 49.953125 52 44.1875 
z
" id="DejaVuSans-109"/>
      <path d="M 48.6875 27.296875 
Q 48.6875 37.203125 44.609375 42.84375 
Q 40.53125 48.484375 33.40625 48.484375 
Q 26.265625 48.484375 22.1875 42.84375 
Q 18.109375 37.203125 18.109375 27.296875 
Q 18.109375 17.390625 22.1875 11.75 
Q 26.265625 6.109375 33.40625 6.109375 
Q 40.53125 6.109375 44.609375 11.75 
Q 48.6875 17.390625 48.6875 27.296875 
z
M 18.109375 46.390625 
Q 20.953125 51.265625 25.265625 53.625 
Q 29.59375 56 35.59375 56 
Q 45.5625 56 51.78125 48.09375 
Q 58.015625 40.1875 58.015625 27.296875 
Q 58.015625 14.40625 51.78125 6.484375 
Q 45.5625 -1.421875 35.59375 -1.421875 
Q 29.59375 -1.421875 25.265625 0.953125 
Q 20.953125 3.328125 18.109375 8.203125 
L 18.109375 0 
L 9.078125 0 
L 9.078125 75.984375 
L 18.109375 75.984375 
z
" id="DejaVuSans-98"/>
     </defs>
     <g transform="translate(109 93.474687)scale(0.1 -0.1)">
      <use xlink:href="#DejaVuSans-78"/>
      <use x="74.804688" xlink:href="#DejaVuSans-111"/>
      <use x="135.986328" xlink:href="#DejaVuSans-114"/>
      <use x="177.099609" xlink:href="#DejaVuSans-116"/>
      <use x="216.308594" xlink:href="#DejaVuSans-104"/>
      <use x="279.6875" xlink:href="#DejaVuSans-117"/>
      <use x="343.066406" xlink:href="#DejaVuSans-109"/>
      <use x="440.478516" xlink:href="#DejaVuSans-98"/>
      <use x="503.955078" xlink:href="#DejaVuSans-101"/>
      <use x="565.478516" xlink:href="#DejaVuSans-114"/>
      <use x="606.591797" xlink:href="#DejaVuSans-108"/>
      <use x="634.375" xlink:href="#DejaVuSans-97"/>
      <use x="695.654297" xlink:href="#DejaVuSans-110"/>
      <use x="759.033203" xlink:href="#DejaVuSans-100"/>
     </g>
    </g>
    <g id="line2d_26">
     <path d="M 81 104.652812 
L 101 104.652812 
" style="fill:none;stroke:#d62728;stroke-linecap:square;stroke-width:1.75;"/>
    </g>
    <g id="line2d_27"/>
    <g id="text_18">
     <!-- North Yorkshire -->
     <defs>
      <path d="M -0.203125 72.90625 
L 10.40625 72.90625 
L 30.609375 42.921875 
L 50.6875 72.90625 
L 61.28125 72.90625 
L 35.5 34.71875 
L 35.5 0 
L 25.59375 0 
L 25.59375 34.71875 
z
" id="DejaVuSans-89"/>
      <path d="M 9.078125 75.984375 
L 18.109375 75.984375 
L 18.109375 31.109375 
L 44.921875 54.6875 
L 56.390625 54.6875 
L 27.390625 29.109375 
L 57.625 0 
L 45.90625 0 
L 18.109375 26.703125 
L 18.109375 0 
L 9.078125 0 
z
" id="DejaVuSans-107"/>
     </defs>
     <g transform="translate(109 108.152812)scale(0.1 -0.1)">
      <use xlink:href="#DejaVuSans-78"/>
      <use x="74.804688" xlink:href="#DejaVuSans-111"/>
      <use x="135.986328" xlink:href="#DejaVuSans-114"/>
      <use x="177.099609" xlink:href="#DejaVuSans-116"/>
      <use x="216.308594" xlink:href="#DejaVuSans-104"/>
      <use x="279.6875" xlink:href="#DejaVuSans-32"/>
      <use x="311.474609" xlink:href="#DejaVuSans-89"/>
      <use x="359.308594" xlink:href="#DejaVuSans-111"/>
      <use x="420.490234" xlink:href="#DejaVuSans-114"/>
      <use x="461.603516" xlink:href="#DejaVuSans-107"/>
      <use x="519.513672" xlink:href="#DejaVuSans-115"/>
      <use x="571.613281" xlink:href="#DejaVuSans-104"/>
      <use x="634.992188" xlink:href="#DejaVuSans-105"/>
      <use x="662.775391" xlink:href="#DejaVuSans-114"/>
      <use x="701.638672" xlink:href="#DejaVuSans-101"/>
     </g>
    </g>
    <g id="line2d_28">
     <path d="M 81 119.330938 
L 101 119.330938 
" style="fill:none;stroke:#9467bd;stroke-linecap:square;stroke-width:1.75;"/>
    </g>
    <g id="line2d_29"/>
    <g id="text_19">
     <!-- Wirral -->
     <g transform="translate(109 122.830938)scale(0.1 -0.1)">
      <use xlink:href="#DejaVuSans-87"/>
      <use x="96.626953" xlink:href="#DejaVuSans-105"/>
      <use x="124.410156" xlink:href="#DejaVuSans-114"/>
      <use x="163.773438" xlink:href="#DejaVuSans-114"/>
      <use x="204.886719" xlink:href="#DejaVuSans-97"/>
      <use x="266.166016" xlink:href="#DejaVuSans-108"/>
     </g>
    </g>
    <g id="line2d_30">
     <path d="M 81 134.009062 
L 101 134.009062 
" style="fill:none;stroke:#8c564b;stroke-linecap:square;stroke-width:1.75;"/>
    </g>
    <g id="line2d_31"/>
    <g id="text_20">
     <!-- Oxfordshire -->
     <defs>
      <path d="M 39.40625 66.21875 
Q 28.65625 66.21875 22.328125 58.203125 
Q 16.015625 50.203125 16.015625 36.375 
Q 16.015625 22.609375 22.328125 14.59375 
Q 28.65625 6.59375 39.40625 6.59375 
Q 50.140625 6.59375 56.421875 14.59375 
Q 62.703125 22.609375 62.703125 36.375 
Q 62.703125 50.203125 56.421875 58.203125 
Q 50.140625 66.21875 39.40625 66.21875 
z
M 39.40625 74.21875 
Q 54.734375 74.21875 63.90625 63.9375 
Q 73.09375 53.65625 73.09375 36.375 
Q 73.09375 19.140625 63.90625 8.859375 
Q 54.734375 -1.421875 39.40625 -1.421875 
Q 24.03125 -1.421875 14.8125 8.828125 
Q 5.609375 19.09375 5.609375 36.375 
Q 5.609375 53.65625 14.8125 63.9375 
Q 24.03125 74.21875 39.40625 74.21875 
z
" id="DejaVuSans-79"/>
      <path d="M 54.890625 54.6875 
L 35.109375 28.078125 
L 55.90625 0 
L 45.3125 0 
L 29.390625 21.484375 
L 13.484375 0 
L 2.875 0 
L 24.125 28.609375 
L 4.6875 54.6875 
L 15.28125 54.6875 
L 29.78125 35.203125 
L 44.28125 54.6875 
z
" id="DejaVuSans-120"/>
      <path d="M 37.109375 75.984375 
L 37.109375 68.5 
L 28.515625 68.5 
Q 23.6875 68.5 21.796875 66.546875 
Q 19.921875 64.59375 19.921875 59.515625 
L 19.921875 54.6875 
L 34.71875 54.6875 
L 34.71875 47.703125 
L 19.921875 47.703125 
L 19.921875 0 
L 10.890625 0 
L 10.890625 47.703125 
L 2.296875 47.703125 
L 2.296875 54.6875 
L 10.890625 54.6875 
L 10.890625 58.5 
Q 10.890625 67.625 15.140625 71.796875 
Q 19.390625 75.984375 28.609375 75.984375 
z
" id="DejaVuSans-102"/>
     </defs>
     <g transform="translate(109 137.509062)scale(0.1 -0.1)">
      <use xlink:href="#DejaVuSans-79"/>
      <use x="78.710938" xlink:href="#DejaVuSans-120"/>
      <use x="137.890625" xlink:href="#DejaVuSans-102"/>
      <use x="173.095703" xlink:href="#DejaVuSans-111"/>
      <use x="234.277344" xlink:href="#DejaVuSans-114"/>
      <use x="273.640625" xlink:href="#DejaVuSans-100"/>
      <use x="337.117188" xlink:href="#DejaVuSans-115"/>
      <use x="389.216797" xlink:href="#DejaVuSans-104"/>
      <use x="452.595703" xlink:href="#DejaVuSans-105"/>
      <use x="480.378906" xlink:href="#DejaVuSans-114"/>
      <use x="519.242188" xlink:href="#DejaVuSans-101"/>
     </g>
    </g>
    <g id="line2d_32">
     <path d="M 81 148.687187 
L 101 148.687187 
" style="fill:none;stroke:#e377c2;stroke-linecap:square;stroke-width:1.75;"/>
    </g>
    <g id="line2d_33"/>
    <g id="text_21">
     <!-- Cumbria -->
     <g transform="translate(109 152.187187)scale(0.1 -0.1)">
      <use xlink:href="#DejaVuSans-67"/>
      <use x="69.824219" xlink:href="#DejaVuSans-117"/>
      <use x="133.203125" xlink:href="#DejaVuSans-109"/>
      <use x="230.615234" xlink:href="#DejaVuSans-98"/>
      <use x="294.091797" xlink:href="#DejaVuSans-114"/>
      <use x="335.205078" xlink:href="#DejaVuSans-105"/>
      <use x="362.988281" xlink:href="#DejaVuSans-97"/>
     </g>
    </g>
   </g>
  </g>
 </g>
 <defs>
  <clipPath id="p9f43a1ca49">
   <rect height="298.98" width="446.4" x="72" y="47.52"/>
  </clipPath>
 </defs>
</svg>
