<?xml version="1.0" encoding="utf-8" standalone="no"?>
<!DOCTYPE svg PUBLIC "-//W3C//DTD SVG 1.1//EN"
  "http://www.w3.org/Graphics/SVG/1.1/DTD/svg11.dtd">
<!-- Created with matplotlib (https://matplotlib.org/) -->
<svg height="396pt" version="1.1" viewBox="0 0 576 396" width="576pt" xmlns="http://www.w3.org/2000/svg" xmlns:xlink="http://www.w3.org/1999/xlink">
 <defs>
  <style type="text/css">
*{stroke-linecap:butt;stroke-linejoin:round;}
  </style>
 </defs>
 <g id="figure_1">
  <g id="patch_1">
   <path d="M 0 396 
L 576 396 
L 576 0 
L 0 0 
z
" style="fill:#ffffff;"/>
  </g>
  <g id="axes_1">
   <g id="patch_2">
    <path d="M 40.425 331.102246 
L 565.2 331.102246 
L 565.2 26.8 
L 40.425 26.8 
z
" style="fill:#ffffff;"/>
   </g>
   <g id="matplotlib.axis_1">
    <g id="xtick_1">
     <g id="line2d_1">
      <defs>
       <path d="M 0 0 
L 0 3.5 
" id="ma68d7c2f08" style="stroke:#000000;"/>
      </defs>
      <g>
       <use style="stroke:#000000;" x="96.412535" xlink:href="#ma68d7c2f08" y="331.102246"/>
      </g>
     </g>
     <g id="text_1">
      <!-- 2020-04 -->
      <defs>
       <path d="M 19.1875 8.296875 
L 53.609375 8.296875 
L 53.609375 0 
L 7.328125 0 
L 7.328125 8.296875 
Q 12.9375 14.109375 22.625 23.890625 
Q 32.328125 33.6875 34.8125 36.53125 
Q 39.546875 41.84375 41.421875 45.53125 
Q 43.3125 49.21875 43.3125 52.78125 
Q 43.3125 58.59375 39.234375 62.25 
Q 35.15625 65.921875 28.609375 65.921875 
Q 23.96875 65.921875 18.8125 64.3125 
Q 13.671875 62.703125 7.8125 59.421875 
L 7.8125 69.390625 
Q 13.765625 71.78125 18.9375 73 
Q 24.125 74.21875 28.421875 74.21875 
Q 39.75 74.21875 46.484375 68.546875 
Q 53.21875 62.890625 53.21875 53.421875 
Q 53.21875 48.921875 51.53125 44.890625 
Q 49.859375 40.875 45.40625 35.40625 
Q 44.1875 33.984375 37.640625 27.21875 
Q 31.109375 20.453125 19.1875 8.296875 
z
" id="DejaVuSans-50"/>
       <path d="M 31.78125 66.40625 
Q 24.171875 66.40625 20.328125 58.90625 
Q 16.5 51.421875 16.5 36.375 
Q 16.5 21.390625 20.328125 13.890625 
Q 24.171875 6.390625 31.78125 6.390625 
Q 39.453125 6.390625 43.28125 13.890625 
Q 47.125 21.390625 47.125 36.375 
Q 47.125 51.421875 43.28125 58.90625 
Q 39.453125 66.40625 31.78125 66.40625 
z
M 31.78125 74.21875 
Q 44.046875 74.21875 50.515625 64.515625 
Q 56.984375 54.828125 56.984375 36.375 
Q 56.984375 17.96875 50.515625 8.265625 
Q 44.046875 -1.421875 31.78125 -1.421875 
Q 19.53125 -1.421875 13.0625 8.265625 
Q 6.59375 17.96875 6.59375 36.375 
Q 6.59375 54.828125 13.0625 64.515625 
Q 19.53125 74.21875 31.78125 74.21875 
z
" id="DejaVuSans-48"/>
       <path d="M 4.890625 31.390625 
L 31.203125 31.390625 
L 31.203125 23.390625 
L 4.890625 23.390625 
z
" id="DejaVuSans-45"/>
       <path d="M 37.796875 64.3125 
L 12.890625 25.390625 
L 37.796875 25.390625 
z
M 35.203125 72.90625 
L 47.609375 72.90625 
L 47.609375 25.390625 
L 58.015625 25.390625 
L 58.015625 17.1875 
L 47.609375 17.1875 
L 47.609375 0 
L 37.796875 0 
L 37.796875 17.1875 
L 4.890625 17.1875 
L 4.890625 26.703125 
z
" id="DejaVuSans-52"/>
      </defs>
      <g transform="translate(59.187715 369.074092)rotate(-30)scale(0.1 -0.1)">
       <use xlink:href="#DejaVuSans-50"/>
       <use x="63.623047" xlink:href="#DejaVuSans-48"/>
       <use x="127.246094" xlink:href="#DejaVuSans-50"/>
       <use x="190.869141" xlink:href="#DejaVuSans-48"/>
       <use x="254.492188" xlink:href="#DejaVuSans-45"/>
       <use x="290.576172" xlink:href="#DejaVuSans-48"/>
       <use x="354.199219" xlink:href="#DejaVuSans-52"/>
      </g>
     </g>
    </g>
    <g id="xtick_2">
     <g id="line2d_2">
      <g>
       <use style="stroke:#000000;" x="170.568211" xlink:href="#ma68d7c2f08" y="331.102246"/>
      </g>
     </g>
     <g id="text_2">
      <!-- 2020-05 -->
      <defs>
       <path d="M 10.796875 72.90625 
L 49.515625 72.90625 
L 49.515625 64.59375 
L 19.828125 64.59375 
L 19.828125 46.734375 
Q 21.96875 47.46875 24.109375 47.828125 
Q 26.265625 48.1875 28.421875 48.1875 
Q 40.625 48.1875 47.75 41.5 
Q 54.890625 34.8125 54.890625 23.390625 
Q 54.890625 11.625 47.5625 5.09375 
Q 40.234375 -1.421875 26.90625 -1.421875 
Q 22.3125 -1.421875 17.546875 -0.640625 
Q 12.796875 0.140625 7.71875 1.703125 
L 7.71875 11.625 
Q 12.109375 9.234375 16.796875 8.0625 
Q 21.484375 6.890625 26.703125 6.890625 
Q 35.15625 6.890625 40.078125 11.328125 
Q 45.015625 15.765625 45.015625 23.390625 
Q 45.015625 31 40.078125 35.4375 
Q 35.15625 39.890625 26.703125 39.890625 
Q 22.75 39.890625 18.8125 39.015625 
Q 14.890625 38.140625 10.796875 36.28125 
z
" id="DejaVuSans-53"/>
      </defs>
      <g transform="translate(133.34339 369.074092)rotate(-30)scale(0.1 -0.1)">
       <use xlink:href="#DejaVuSans-50"/>
       <use x="63.623047" xlink:href="#DejaVuSans-48"/>
       <use x="127.246094" xlink:href="#DejaVuSans-50"/>
       <use x="190.869141" xlink:href="#DejaVuSans-48"/>
       <use x="254.492188" xlink:href="#DejaVuSans-45"/>
       <use x="290.576172" xlink:href="#DejaVuSans-48"/>
       <use x="354.199219" xlink:href="#DejaVuSans-53"/>
      </g>
     </g>
    </g>
    <g id="xtick_3">
     <g id="line2d_3">
      <g>
       <use style="stroke:#000000;" x="247.195743" xlink:href="#ma68d7c2f08" y="331.102246"/>
      </g>
     </g>
     <g id="text_3">
      <!-- 2020-06 -->
      <defs>
       <path d="M 33.015625 40.375 
Q 26.375 40.375 22.484375 35.828125 
Q 18.609375 31.296875 18.609375 23.390625 
Q 18.609375 15.53125 22.484375 10.953125 
Q 26.375 6.390625 33.015625 6.390625 
Q 39.65625 6.390625 43.53125 10.953125 
Q 47.40625 15.53125 47.40625 23.390625 
Q 47.40625 31.296875 43.53125 35.828125 
Q 39.65625 40.375 33.015625 40.375 
z
M 52.59375 71.296875 
L 52.59375 62.3125 
Q 48.875 64.0625 45.09375 64.984375 
Q 41.3125 65.921875 37.59375 65.921875 
Q 27.828125 65.921875 22.671875 59.328125 
Q 17.53125 52.734375 16.796875 39.40625 
Q 19.671875 43.65625 24.015625 45.921875 
Q 28.375 48.1875 33.59375 48.1875 
Q 44.578125 48.1875 50.953125 41.515625 
Q 57.328125 34.859375 57.328125 23.390625 
Q 57.328125 12.15625 50.6875 5.359375 
Q 44.046875 -1.421875 33.015625 -1.421875 
Q 20.359375 -1.421875 13.671875 8.265625 
Q 6.984375 17.96875 6.984375 36.375 
Q 6.984375 53.65625 15.1875 63.9375 
Q 23.390625 74.21875 37.203125 74.21875 
Q 40.921875 74.21875 44.703125 73.484375 
Q 48.484375 72.75 52.59375 71.296875 
z
" id="DejaVuSans-54"/>
      </defs>
      <g transform="translate(209.970922 369.074092)rotate(-30)scale(0.1 -0.1)">
       <use xlink:href="#DejaVuSans-50"/>
       <use x="63.623047" xlink:href="#DejaVuSans-48"/>
       <use x="127.246094" xlink:href="#DejaVuSans-50"/>
       <use x="190.869141" xlink:href="#DejaVuSans-48"/>
       <use x="254.492188" xlink:href="#DejaVuSans-45"/>
       <use x="290.576172" xlink:href="#DejaVuSans-48"/>
       <use x="354.199219" xlink:href="#DejaVuSans-54"/>
      </g>
     </g>
    </g>
    <g id="xtick_4">
     <g id="line2d_4">
      <g>
       <use style="stroke:#000000;" x="321.351419" xlink:href="#ma68d7c2f08" y="331.102246"/>
      </g>
     </g>
     <g id="text_4">
      <!-- 2020-07 -->
      <defs>
       <path d="M 8.203125 72.90625 
L 55.078125 72.90625 
L 55.078125 68.703125 
L 28.609375 0 
L 18.3125 0 
L 43.21875 64.59375 
L 8.203125 64.59375 
z
" id="DejaVuSans-55"/>
      </defs>
      <g transform="translate(284.126598 369.074092)rotate(-30)scale(0.1 -0.1)">
       <use xlink:href="#DejaVuSans-50"/>
       <use x="63.623047" xlink:href="#DejaVuSans-48"/>
       <use x="127.246094" xlink:href="#DejaVuSans-50"/>
       <use x="190.869141" xlink:href="#DejaVuSans-48"/>
       <use x="254.492188" xlink:href="#DejaVuSans-45"/>
       <use x="290.576172" xlink:href="#DejaVuSans-48"/>
       <use x="354.199219" xlink:href="#DejaVuSans-55"/>
      </g>
     </g>
    </g>
    <g id="xtick_5">
     <g id="line2d_5">
      <g>
       <use style="stroke:#000000;" x="397.978951" xlink:href="#ma68d7c2f08" y="331.102246"/>
      </g>
     </g>
     <g id="text_5">
      <!-- 2020-08 -->
      <defs>
       <path d="M 31.78125 34.625 
Q 24.75 34.625 20.71875 30.859375 
Q 16.703125 27.09375 16.703125 20.515625 
Q 16.703125 13.921875 20.71875 10.15625 
Q 24.75 6.390625 31.78125 6.390625 
Q 38.8125 6.390625 42.859375 10.171875 
Q 46.921875 13.96875 46.921875 20.515625 
Q 46.921875 27.09375 42.890625 30.859375 
Q 38.875 34.625 31.78125 34.625 
z
M 21.921875 38.8125 
Q 15.578125 40.375 12.03125 44.71875 
Q 8.5 49.078125 8.5 55.328125 
Q 8.5 64.0625 14.71875 69.140625 
Q 20.953125 74.21875 31.78125 74.21875 
Q 42.671875 74.21875 48.875 69.140625 
Q 55.078125 64.0625 55.078125 55.328125 
Q 55.078125 49.078125 51.53125 44.71875 
Q 48 40.375 41.703125 38.8125 
Q 48.828125 37.15625 52.796875 32.3125 
Q 56.78125 27.484375 56.78125 20.515625 
Q 56.78125 9.90625 50.3125 4.234375 
Q 43.84375 -1.421875 31.78125 -1.421875 
Q 19.734375 -1.421875 13.25 4.234375 
Q 6.78125 9.90625 6.78125 20.515625 
Q 6.78125 27.484375 10.78125 32.3125 
Q 14.796875 37.15625 21.921875 38.8125 
z
M 18.3125 54.390625 
Q 18.3125 48.734375 21.84375 45.5625 
Q 25.390625 42.390625 31.78125 42.390625 
Q 38.140625 42.390625 41.71875 45.5625 
Q 45.3125 48.734375 45.3125 54.390625 
Q 45.3125 60.0625 41.71875 63.234375 
Q 38.140625 66.40625 31.78125 66.40625 
Q 25.390625 66.40625 21.84375 63.234375 
Q 18.3125 60.0625 18.3125 54.390625 
z
" id="DejaVuSans-56"/>
      </defs>
      <g transform="translate(360.75413 369.074092)rotate(-30)scale(0.1 -0.1)">
       <use xlink:href="#DejaVuSans-50"/>
       <use x="63.623047" xlink:href="#DejaVuSans-48"/>
       <use x="127.246094" xlink:href="#DejaVuSans-50"/>
       <use x="190.869141" xlink:href="#DejaVuSans-48"/>
       <use x="254.492188" xlink:href="#DejaVuSans-45"/>
       <use x="290.576172" xlink:href="#DejaVuSans-48"/>
       <use x="354.199219" xlink:href="#DejaVuSans-56"/>
      </g>
     </g>
    </g>
    <g id="xtick_6">
     <g id="line2d_6">
      <g>
       <use style="stroke:#000000;" x="474.606483" xlink:href="#ma68d7c2f08" y="331.102246"/>
      </g>
     </g>
     <g id="text_6">
      <!-- 2020-09 -->
      <defs>
       <path d="M 10.984375 1.515625 
L 10.984375 10.5 
Q 14.703125 8.734375 18.5 7.8125 
Q 22.3125 6.890625 25.984375 6.890625 
Q 35.75 6.890625 40.890625 13.453125 
Q 46.046875 20.015625 46.78125 33.40625 
Q 43.953125 29.203125 39.59375 26.953125 
Q 35.25 24.703125 29.984375 24.703125 
Q 19.046875 24.703125 12.671875 31.3125 
Q 6.296875 37.9375 6.296875 49.421875 
Q 6.296875 60.640625 12.9375 67.421875 
Q 19.578125 74.21875 30.609375 74.21875 
Q 43.265625 74.21875 49.921875 64.515625 
Q 56.59375 54.828125 56.59375 36.375 
Q 56.59375 19.140625 48.40625 8.859375 
Q 40.234375 -1.421875 26.421875 -1.421875 
Q 22.703125 -1.421875 18.890625 -0.6875 
Q 15.09375 0.046875 10.984375 1.515625 
z
M 30.609375 32.421875 
Q 37.25 32.421875 41.125 36.953125 
Q 45.015625 41.5 45.015625 49.421875 
Q 45.015625 57.28125 41.125 61.84375 
Q 37.25 66.40625 30.609375 66.40625 
Q 23.96875 66.40625 20.09375 61.84375 
Q 16.21875 57.28125 16.21875 49.421875 
Q 16.21875 41.5 20.09375 36.953125 
Q 23.96875 32.421875 30.609375 32.421875 
z
" id="DejaVuSans-57"/>
      </defs>
      <g transform="translate(437.381662 369.074092)rotate(-30)scale(0.1 -0.1)">
       <use xlink:href="#DejaVuSans-50"/>
       <use x="63.623047" xlink:href="#DejaVuSans-48"/>
       <use x="127.246094" xlink:href="#DejaVuSans-50"/>
       <use x="190.869141" xlink:href="#DejaVuSans-48"/>
       <use x="254.492188" xlink:href="#DejaVuSans-45"/>
       <use x="290.576172" xlink:href="#DejaVuSans-48"/>
       <use x="354.199219" xlink:href="#DejaVuSans-57"/>
      </g>
     </g>
    </g>
    <g id="xtick_7">
     <g id="line2d_7">
      <g>
       <use style="stroke:#000000;" x="548.762159" xlink:href="#ma68d7c2f08" y="331.102246"/>
      </g>
     </g>
     <g id="text_7">
      <!-- 2020-10 -->
      <defs>
       <path d="M 12.40625 8.296875 
L 28.515625 8.296875 
L 28.515625 63.921875 
L 10.984375 60.40625 
L 10.984375 69.390625 
L 28.421875 72.90625 
L 38.28125 72.90625 
L 38.28125 8.296875 
L 54.390625 8.296875 
L 54.390625 0 
L 12.40625 0 
z
" id="DejaVuSans-49"/>
      </defs>
      <g transform="translate(511.537338 369.074092)rotate(-30)scale(0.1 -0.1)">
       <use xlink:href="#DejaVuSans-50"/>
       <use x="63.623047" xlink:href="#DejaVuSans-48"/>
       <use x="127.246094" xlink:href="#DejaVuSans-50"/>
       <use x="190.869141" xlink:href="#DejaVuSans-48"/>
       <use x="254.492188" xlink:href="#DejaVuSans-45"/>
       <use x="290.576172" xlink:href="#DejaVuSans-49"/>
       <use x="354.199219" xlink:href="#DejaVuSans-48"/>
      </g>
     </g>
    </g>
    <g id="text_8">
     <!-- Date -->
     <defs>
      <path d="M 19.671875 64.796875 
L 19.671875 8.109375 
L 31.59375 8.109375 
Q 46.6875 8.109375 53.6875 14.9375 
Q 60.6875 21.78125 60.6875 36.53125 
Q 60.6875 51.171875 53.6875 57.984375 
Q 46.6875 64.796875 31.59375 64.796875 
z
M 9.8125 72.90625 
L 30.078125 72.90625 
Q 51.265625 72.90625 61.171875 64.09375 
Q 71.09375 55.28125 71.09375 36.53125 
Q 71.09375 17.671875 61.125 8.828125 
Q 51.171875 0 30.078125 0 
L 9.8125 0 
z
" id="DejaVuSans-68"/>
      <path d="M 34.28125 27.484375 
Q 23.390625 27.484375 19.1875 25 
Q 14.984375 22.515625 14.984375 16.5 
Q 14.984375 11.71875 18.140625 8.90625 
Q 21.296875 6.109375 26.703125 6.109375 
Q 34.1875 6.109375 38.703125 11.40625 
Q 43.21875 16.703125 43.21875 25.484375 
L 43.21875 27.484375 
z
M 52.203125 31.203125 
L 52.203125 0 
L 43.21875 0 
L 43.21875 8.296875 
Q 40.140625 3.328125 35.546875 0.953125 
Q 30.953125 -1.421875 24.3125 -1.421875 
Q 15.921875 -1.421875 10.953125 3.296875 
Q 6 8.015625 6 15.921875 
Q 6 25.140625 12.171875 29.828125 
Q 18.359375 34.515625 30.609375 34.515625 
L 43.21875 34.515625 
L 43.21875 35.40625 
Q 43.21875 41.609375 39.140625 45 
Q 35.0625 48.390625 27.6875 48.390625 
Q 23 48.390625 18.546875 47.265625 
Q 14.109375 46.140625 10.015625 43.890625 
L 10.015625 52.203125 
Q 14.9375 54.109375 19.578125 55.046875 
Q 24.21875 56 28.609375 56 
Q 40.484375 56 46.34375 49.84375 
Q 52.203125 43.703125 52.203125 31.203125 
z
" id="DejaVuSans-97"/>
      <path d="M 18.3125 70.21875 
L 18.3125 54.6875 
L 36.8125 54.6875 
L 36.8125 47.703125 
L 18.3125 47.703125 
L 18.3125 18.015625 
Q 18.3125 11.328125 20.140625 9.421875 
Q 21.96875 7.515625 27.59375 7.515625 
L 36.8125 7.515625 
L 36.8125 0 
L 27.59375 0 
Q 17.1875 0 13.234375 3.875 
Q 9.28125 7.765625 9.28125 18.015625 
L 9.28125 47.703125 
L 2.6875 47.703125 
L 2.6875 54.6875 
L 9.28125 54.6875 
L 9.28125 70.21875 
z
" id="DejaVuSans-116"/>
      <path d="M 56.203125 29.59375 
L 56.203125 25.203125 
L 14.890625 25.203125 
Q 15.484375 15.921875 20.484375 11.0625 
Q 25.484375 6.203125 34.421875 6.203125 
Q 39.59375 6.203125 44.453125 7.46875 
Q 49.3125 8.734375 54.109375 11.28125 
L 54.109375 2.78125 
Q 49.265625 0.734375 44.1875 -0.34375 
Q 39.109375 -1.421875 33.890625 -1.421875 
Q 20.796875 -1.421875 13.15625 6.1875 
Q 5.515625 13.8125 5.515625 26.8125 
Q 5.515625 40.234375 12.765625 48.109375 
Q 20.015625 56 32.328125 56 
Q 43.359375 56 49.78125 48.890625 
Q 56.203125 41.796875 56.203125 29.59375 
z
M 47.21875 32.234375 
Q 47.125 39.59375 43.09375 43.984375 
Q 39.0625 48.390625 32.421875 48.390625 
Q 24.90625 48.390625 20.390625 44.140625 
Q 15.875 39.890625 15.1875 32.171875 
z
" id="DejaVuSans-101"/>
     </defs>
     <g transform="translate(289.666641 383.233436)scale(0.11 -0.11)">
      <use xlink:href="#DejaVuSans-68"/>
      <use x="77.001953" xlink:href="#DejaVuSans-97"/>
      <use x="138.28125" xlink:href="#DejaVuSans-116"/>
      <use x="177.490234" xlink:href="#DejaVuSans-101"/>
     </g>
    </g>
   </g>
   <g id="matplotlib.axis_2">
    <g id="ytick_1">
     <g id="line2d_8">
      <defs>
       <path d="M 0 0 
L -3.5 0 
" id="m904dad5a8d" style="stroke:#000000;"/>
      </defs>
      <g>
       <use style="stroke:#000000;" x="40.425" xlink:href="#m904dad5a8d" y="318.178809"/>
      </g>
     </g>
     <g id="text_9">
      <!-- 0 -->
      <g transform="translate(23.5625 321.978028)scale(0.1 -0.1)">
       <use xlink:href="#DejaVuSans-48"/>
      </g>
     </g>
    </g>
    <g id="ytick_2">
     <g id="line2d_9">
      <g>
       <use style="stroke:#000000;" x="40.425" xlink:href="#m904dad5a8d" y="266.91678"/>
      </g>
     </g>
     <g id="text_10">
      <!-- 50 -->
      <g transform="translate(17.2 270.715999)scale(0.1 -0.1)">
       <use xlink:href="#DejaVuSans-53"/>
       <use x="63.623047" xlink:href="#DejaVuSans-48"/>
      </g>
     </g>
    </g>
    <g id="ytick_3">
     <g id="line2d_10">
      <g>
       <use style="stroke:#000000;" x="40.425" xlink:href="#m904dad5a8d" y="215.654751"/>
      </g>
     </g>
     <g id="text_11">
      <!-- 100 -->
      <g transform="translate(10.8375 219.45397)scale(0.1 -0.1)">
       <use xlink:href="#DejaVuSans-49"/>
       <use x="63.623047" xlink:href="#DejaVuSans-48"/>
       <use x="127.246094" xlink:href="#DejaVuSans-48"/>
      </g>
     </g>
    </g>
    <g id="ytick_4">
     <g id="line2d_11">
      <g>
       <use style="stroke:#000000;" x="40.425" xlink:href="#m904dad5a8d" y="164.392722"/>
      </g>
     </g>
     <g id="text_12">
      <!-- 150 -->
      <g transform="translate(10.8375 168.191941)scale(0.1 -0.1)">
       <use xlink:href="#DejaVuSans-49"/>
       <use x="63.623047" xlink:href="#DejaVuSans-53"/>
       <use x="127.246094" xlink:href="#DejaVuSans-48"/>
      </g>
     </g>
    </g>
    <g id="ytick_5">
     <g id="line2d_12">
      <g>
       <use style="stroke:#000000;" x="40.425" xlink:href="#m904dad5a8d" y="113.130693"/>
      </g>
     </g>
     <g id="text_13">
      <!-- 200 -->
      <g transform="translate(10.8375 116.929912)scale(0.1 -0.1)">
       <use xlink:href="#DejaVuSans-50"/>
       <use x="63.623047" xlink:href="#DejaVuSans-48"/>
       <use x="127.246094" xlink:href="#DejaVuSans-48"/>
      </g>
     </g>
    </g>
    <g id="ytick_6">
     <g id="line2d_13">
      <g>
       <use style="stroke:#000000;" x="40.425" xlink:href="#m904dad5a8d" y="61.868665"/>
      </g>
     </g>
     <g id="text_14">
      <!-- 250 -->
      <g transform="translate(10.8375 65.667883)scale(0.1 -0.1)">
       <use xlink:href="#DejaVuSans-50"/>
       <use x="63.623047" xlink:href="#DejaVuSans-53"/>
       <use x="127.246094" xlink:href="#DejaVuSans-48"/>
      </g>
     </g>
    </g>
   </g>
   <g id="line2d_14">
    <path clip-path="url(#p771a9d4c62)" d="M 64.278409 313.482719 
L 66.750265 312.201967 
L 71.693977 311.348132 
L 79.109544 307.505877 
L 81.5814 307.07896 
L 84.053256 301.102118 
L 86.525112 296.832945 
L 88.996968 288.294599 
L 91.468824 283.598509 
L 93.940679 277.621667 
L 96.412535 267.375652 
L 98.884391 258.410389 
L 101.356247 250.298961 
L 103.828103 241.760615 
L 106.299959 237.918359 
L 108.771815 231.5146 
L 111.243671 226.391593 
L 113.715526 226.81851 
L 116.187382 226.391593 
L 118.659238 231.087683 
L 121.131094 237.491442 
L 123.60295 239.626029 
L 126.074806 246.456705 
L 128.546662 249.872043 
L 131.018517 252.433547 
L 133.490373 251.579713 
L 135.962229 249.018209 
L 138.434085 245.175953 
L 140.905941 246.456705 
L 143.377797 243.468284 
L 145.849653 234.503021 
L 148.321508 231.941517 
L 150.793364 231.941517 
L 153.26522 234.929938 
L 155.737076 235.356856 
L 158.208932 238.345277 
L 160.680788 231.941517 
L 163.152644 230.233848 
L 165.6245 228.099262 
L 168.096355 226.81851 
L 170.568211 221.268585 
L 173.040067 220.841668 
L 175.511923 216.999413 
L 177.983779 222.976255 
L 180.455635 231.5146 
L 182.927491 231.087683 
L 185.399346 236.21069 
L 187.871202 234.503021 
L 190.343058 237.491442 
L 192.814914 240.052946 
L 195.28677 235.356856 
L 197.758626 232.795352 
L 200.230482 233.649187 
L 202.702337 228.099262 
L 205.174193 235.783773 
L 207.646049 233.649187 
L 210.117905 234.076104 
L 212.589761 235.783773 
L 215.061617 237.918359 
L 217.533473 239.199111 
L 220.005329 248.164374 
L 222.477184 249.872043 
L 227.420896 252.433547 
L 229.892752 261.825727 
L 232.364608 262.679562 
L 234.836464 269.083321 
L 237.30832 263.533397 
L 239.780175 262.252645 
L 242.252031 267.375652 
L 244.723887 269.083321 
L 247.195743 263.960314 
L 249.667599 269.083321 
L 252.139455 270.79099 
L 254.611311 275.913998 
L 257.083167 283.171592 
L 259.555022 281.89084 
L 262.026878 284.452343 
L 264.498734 290.429185 
L 266.97059 293.844524 
L 269.442446 294.698358 
L 271.914302 297.686779 
L 274.386158 295.97911 
L 276.858013 296.832945 
L 279.329869 296.832945 
L 281.801725 295.97911 
L 284.273581 294.271441 
L 286.745437 294.271441 
L 289.217293 294.698358 
L 291.689149 296.406027 
L 294.161004 299.821366 
L 296.63286 300.6752 
L 299.104716 303.236704 
L 301.576572 305.37129 
L 304.048428 305.798208 
L 306.520284 303.236704 
L 308.99214 304.090539 
L 311.463996 303.236704 
L 313.935851 303.236704 
L 316.407707 299.394448 
L 318.879563 298.540614 
L 321.351419 299.394448 
L 323.823275 302.382869 
L 326.295131 302.809787 
L 328.766987 300.248283 
L 331.238842 299.821366 
L 333.710698 304.517456 
L 336.182554 306.225125 
L 338.65441 304.944373 
L 341.126266 300.6752 
L 343.598122 300.248283 
L 346.069978 303.236704 
L 348.541833 304.090539 
L 351.013689 304.090539 
L 353.485545 302.382869 
L 355.957401 304.517456 
L 358.429257 307.932794 
L 363.372969 307.932794 
L 365.844825 308.786629 
L 368.31668 307.07896 
L 370.788536 308.786629 
L 373.260392 310.067381 
L 375.732248 311.77505 
L 378.204104 310.494298 
L 380.67596 310.067381 
L 385.619671 308.359711 
L 388.091527 308.786629 
L 390.563383 307.505877 
L 393.035239 307.07896 
L 395.507095 306.225125 
L 397.978951 306.652042 
L 402.922663 309.213546 
L 407.866374 307.505877 
L 410.33823 307.07896 
L 412.810086 309.213546 
L 415.281942 309.640463 
L 417.753798 309.640463 
L 420.225654 309.213546 
L 422.697509 309.640463 
L 425.169365 311.77505 
L 427.641221 310.494298 
L 430.113077 310.067381 
L 432.584933 309.213546 
L 435.056789 309.213546 
L 437.528645 309.640463 
L 440.0005 309.640463 
L 442.472356 306.225125 
L 444.944212 306.225125 
L 447.416068 307.07896 
L 452.35978 305.37129 
L 454.831636 304.944373 
L 457.303492 305.798208 
L 459.775347 305.798208 
L 462.247203 307.07896 
L 464.719059 306.652042 
L 467.190915 306.652042 
L 469.662771 306.225125 
L 472.134627 304.517456 
L 474.606483 301.529035 
L 477.078338 299.394448 
L 479.550194 295.125276 
L 482.02205 293.844524 
L 484.493906 290.429185 
L 486.965762 289.148434 
L 489.437618 281.463922 
L 491.909474 278.475501 
L 494.381329 278.902419 
L 496.853185 276.767832 
L 499.325041 271.644825 
L 501.796897 272.498659 
L 504.268753 272.925577 
L 506.740609 276.767832 
L 509.212465 277.19475 
L 511.684321 269.937156 
L 514.156176 270.364073 
L 516.628032 267.375652 
L 519.099888 259.691141 
L 524.0436 246.029788 
L 526.515456 237.491442 
L 528.987312 235.356856 
L 531.459167 229.380014 
L 533.931023 222.976255 
L 536.402879 218.707082 
L 538.874735 212.303322 
L 541.346591 211.022571 
L 541.346591 211.022571 
" style="fill:none;stroke:#1f77b4;stroke-linecap:square;stroke-width:1.75;"/>
   </g>
   <g id="line2d_15">
    <path clip-path="url(#p771a9d4c62)" d="M 64.278409 311.149726 
L 66.750265 310.73625 
L 69.222121 308.668873 
L 71.693977 305.774544 
L 74.165833 302.053265 
L 76.637688 295.024182 
L 79.109544 295.024182 
L 81.5814 292.129853 
L 86.525112 287.168148 
L 91.468824 292.129853 
L 93.940679 289.235525 
L 96.412535 277.658212 
L 98.884391 273.109981 
L 101.356247 265.667423 
L 103.828103 264.013521 
L 106.299959 256.157486 
L 108.771815 247.474501 
L 111.243671 248.301452 
L 113.715526 253.676634 
L 116.187382 250.782305 
L 118.659238 253.263158 
L 121.131094 252.436207 
L 123.60295 250.782305 
L 126.074806 257.397913 
L 128.546662 261.946143 
L 131.018517 264.013521 
L 133.490373 272.696506 
L 135.962229 276.00431 
L 138.434085 275.590834 
L 140.905941 274.350408 
L 143.377797 266.907849 
L 145.849653 264.840472 
L 148.321508 259.051815 
L 150.793364 254.090109 
L 153.26522 243.753222 
L 155.737076 242.512795 
L 158.208932 250.782305 
L 160.680788 247.474501 
L 163.152644 242.09932 
L 165.6245 238.791516 
L 168.096355 230.522006 
L 170.568211 239.204992 
L 173.040067 243.753222 
L 175.511923 239.618467 
L 177.983779 239.618467 
L 180.455635 242.512795 
L 182.927491 235.070237 
L 185.399346 240.031943 
L 187.871202 232.589384 
L 190.343058 229.28158 
L 192.814914 224.73335 
L 195.28677 225.973776 
L 197.758626 220.185119 
L 200.230482 227.214203 
L 202.702337 227.627678 
L 205.174193 223.906399 
L 207.646049 206.540428 
L 210.117905 204.059575 
L 212.589761 203.6461 
L 215.061617 200.751772 
L 217.533473 199.511345 
L 220.005329 190.001409 
L 222.477184 198.270919 
L 224.94904 210.261708 
L 227.420896 215.636889 
L 229.892752 218.944693 
L 232.364608 227.627678 
L 234.836464 230.935482 
L 237.30832 238.378041 
L 239.780175 237.137614 
L 242.252031 241.272369 
L 244.723887 238.378041 
L 247.195743 230.522006 
L 249.667599 212.742561 
L 252.139455 214.809938 
L 254.611311 213.569512 
L 257.083167 212.742561 
L 259.555022 211.502134 
L 262.026878 203.6461 
L 264.498734 197.857443 
L 266.97059 199.09787 
L 269.442446 186.28013 
L 271.914302 170.154586 
L 274.386158 158.577272 
L 276.858013 144.519106 
L 279.329869 138.316974 
L 281.801725 130.874415 
L 284.273581 127.566611 
L 286.745437 123.845332 
L 289.217293 124.672283 
L 291.689149 115.162347 
L 294.161004 111.441067 
L 296.63286 109.787165 
L 299.104716 103.998509 
L 301.576572 96.55595 
L 304.048428 84.565161 
L 306.520284 84.565161 
L 308.99214 87.872965 
L 311.463996 94.075097 
L 313.935851 106.892837 
L 316.407707 111.441067 
L 318.879563 124.258807 
L 321.351419 135.422645 
L 323.823275 142.451728 
L 326.295131 145.759532 
L 328.766987 151.134714 
L 331.238842 132.941792 
L 333.710698 133.355268 
L 336.182554 134.182219 
L 338.65441 137.903498 
L 341.126266 143.278679 
L 343.598122 141.624777 
L 346.069978 133.355268 
L 348.541833 155.269468 
L 351.013689 167.260257 
L 353.485545 175.116292 
L 355.957401 184.212752 
L 358.429257 183.385801 
L 360.901113 196.617017 
L 363.372969 206.953904 
L 365.844825 209.848232 
L 368.31668 217.290791 
L 370.788536 221.839021 
L 373.260392 218.531217 
L 375.732248 220.185119 
L 378.204104 222.252497 
L 380.67596 230.522006 
L 383.147816 231.348957 
L 385.619671 225.973776 
L 388.091527 229.695055 
L 390.563383 233.002859 
L 393.035239 233.416335 
L 395.507095 238.378041 
L 397.978951 232.589384 
L 400.450807 234.243286 
L 402.922663 239.204992 
L 405.394518 235.897188 
L 407.866374 233.416335 
L 410.33823 231.348957 
L 412.810086 223.492923 
L 415.281942 219.358168 
L 417.753798 216.46384 
L 420.225654 215.223414 
L 422.697509 214.809938 
L 425.169365 223.492923 
L 427.641221 229.28158 
L 430.113077 232.589384 
L 432.584933 241.272369 
L 435.056789 244.993648 
L 437.528645 239.618467 
L 440.0005 237.137614 
L 442.472356 239.618467 
L 444.944212 244.166697 
L 447.416068 246.64755 
L 449.887924 250.36883 
L 452.35978 250.782305 
L 454.831636 264.013521 
L 457.303492 273.523457 
L 459.775347 276.00431 
L 462.247203 279.312113 
L 464.719059 280.55254 
L 467.190915 280.139064 
L 469.662771 280.139064 
L 472.134627 280.966015 
L 474.606483 272.696506 
L 477.078338 259.878766 
L 479.550194 253.263158 
L 482.02205 244.993648 
L 484.493906 234.656761 
L 486.965762 228.868104 
L 489.437618 211.088659 
L 491.909474 200.751772 
L 494.381329 194.549639 
L 496.853185 190.414885 
L 499.325041 186.693605 
L 501.796897 184.626228 
L 504.268753 183.799277 
L 506.740609 187.934032 
L 509.212465 188.760983 
L 511.684321 190.82836 
L 514.156176 181.318424 
L 516.628032 170.981537 
L 519.099888 156.92337 
L 521.571744 152.37514 
L 524.0436 143.278679 
L 526.515456 139.143925 
L 528.987312 136.249596 
L 531.459167 141.211302 
L 533.931023 152.788616 
L 536.402879 159.404223 
L 538.874735 161.885076 
L 541.346591 180.491473 
L 541.346591 180.491473 
" style="fill:none;stroke:#ff7f0e;stroke-linecap:square;stroke-width:1.75;"/>
   </g>
   <g id="line2d_16">
    <path clip-path="url(#p771a9d4c62)" d="M 64.278409 314.090634 
L 69.222121 314.090634 
L 71.693977 313.636393 
L 76.637688 308.185493 
L 79.109544 305.005802 
L 81.5814 300.463386 
L 84.053256 297.737936 
L 86.525112 293.19552 
L 88.996968 291.832795 
L 91.468824 291.832795 
L 93.940679 287.744621 
L 96.412535 273.208889 
L 98.884391 267.303748 
L 101.356247 260.035883 
L 103.828103 253.222259 
L 106.299959 245.500151 
L 108.771815 235.961077 
L 111.243671 229.601695 
L 113.715526 231.872903 
L 116.187382 226.876245 
L 118.659238 226.422003 
L 123.60295 213.703238 
L 126.074806 212.340514 
L 128.546662 209.615064 
L 131.018517 214.15748 
L 133.490373 209.615064 
L 135.962229 202.80144 
L 138.434085 196.896299 
L 140.905941 197.804782 
L 143.377797 197.804782 
L 145.849653 198.713265 
L 148.321508 191.445399 
L 150.793364 198.713265 
L 153.26522 195.533574 
L 155.737076 210.069305 
L 158.208932 218.699896 
L 160.680788 218.699896 
L 163.152644 223.242312 
L 165.6245 228.23897 
L 168.096355 220.062621 
L 170.568211 228.693212 
L 173.040067 231.418661 
L 175.511923 231.872903 
L 177.983779 239.140769 
L 180.455635 243.683185 
L 182.927491 242.32046 
L 185.399346 252.313775 
L 187.871202 257.764675 
L 190.343058 259.581641 
L 192.814914 259.581641 
L 195.28677 248.679842 
L 197.758626 244.591668 
L 200.230482 254.130742 
L 202.702337 261.398608 
L 205.174193 264.578299 
L 207.646049 265.486782 
L 210.117905 270.029198 
L 212.589761 284.110688 
L 215.061617 292.287037 
L 217.533473 295.012487 
L 220.005329 294.558245 
L 222.477184 295.92097 
L 224.94904 299.554903 
L 227.420896 298.192178 
L 229.892752 297.283695 
L 232.364608 298.192178 
L 234.836464 290.470071 
L 237.30832 290.924312 
L 239.780175 290.015829 
L 242.252031 284.56493 
L 244.723887 286.381896 
L 247.195743 286.836138 
L 249.667599 286.381896 
L 252.139455 295.92097 
L 254.611311 298.192178 
L 257.083167 301.371869 
L 259.555022 303.643077 
L 262.026878 303.643077 
L 264.498734 306.822769 
L 266.97059 306.368527 
L 269.442446 304.097319 
L 271.914302 306.368527 
L 274.386158 305.005802 
L 276.858013 306.822769 
L 279.329869 306.368527 
L 281.801725 306.368527 
L 284.273581 308.639735 
L 286.745437 309.548218 
L 289.217293 309.093977 
L 291.689149 309.548218 
L 294.161004 310.910943 
L 296.63286 313.182151 
L 299.104716 312.72791 
L 301.576572 312.72791 
L 304.048428 314.544876 
L 306.520284 314.544876 
L 308.99214 314.999118 
L 311.463996 314.999118 
L 313.935851 314.090634 
L 316.407707 313.636393 
L 318.879563 313.636393 
L 321.351419 314.090634 
L 323.823275 313.636393 
L 326.295131 314.090634 
L 328.766987 313.182151 
L 333.710698 314.090634 
L 338.65441 314.090634 
L 341.126266 314.544876 
L 343.598122 314.544876 
L 348.541833 315.453359 
L 351.013689 316.816084 
L 353.485545 317.270326 
L 358.429257 316.361842 
L 360.901113 315.453359 
L 363.372969 315.907601 
L 365.844825 315.907601 
L 368.31668 314.999118 
L 370.788536 314.544876 
L 375.732248 314.544876 
L 378.204104 315.453359 
L 383.147816 315.453359 
L 385.619671 316.361842 
L 388.091527 316.361842 
L 393.035239 317.270326 
L 397.978951 317.270326 
L 402.922663 315.453359 
L 405.394518 315.907601 
L 407.866374 315.453359 
L 412.810086 315.453359 
L 415.281942 314.999118 
L 417.753798 315.907601 
L 420.225654 315.907601 
L 422.697509 313.636393 
L 425.169365 310.456702 
L 427.641221 309.548218 
L 430.113077 309.548218 
L 432.584933 310.00246 
L 437.528645 308.185493 
L 440.0005 310.00246 
L 442.472356 310.00246 
L 444.944212 308.185493 
L 447.416068 305.460044 
L 449.887924 300.917628 
L 452.35978 300.917628 
L 454.831636 302.280353 
L 457.303492 301.371869 
L 459.775347 303.188836 
L 462.247203 304.551561 
L 464.719059 306.368527 
L 467.190915 306.822769 
L 469.662771 305.005802 
L 472.134627 302.280353 
L 474.606483 295.92097 
L 477.078338 293.649762 
L 479.550194 290.470071 
L 482.02205 287.744621 
L 484.493906 288.653104 
L 486.965762 287.290379 
L 489.437618 285.473413 
L 491.909474 288.653104 
L 494.381329 286.381896 
L 496.853185 281.83948 
L 499.325041 278.659789 
L 501.796897 278.659789 
L 504.268753 276.388581 
L 506.740609 271.391923 
L 509.212465 265.941024 
L 511.684321 254.584983 
L 514.156176 245.04591 
L 516.628032 229.147453 
L 519.099888 216.428688 
L 521.571744 195.079332 
L 524.0436 169.18756 
L 526.515456 148.746688 
L 528.987312 119.220983 
L 531.459167 103.776768 
L 533.931023 96.963144 
L 536.402879 76.522272 
L 538.874735 76.06803 
L 541.346591 89.241037 
L 541.346591 89.241037 
" style="fill:none;stroke:#2ca02c;stroke-linecap:square;stroke-width:1.75;"/>
   </g>
   <g id="line2d_17">
    <path clip-path="url(#p771a9d4c62)" d="M 64.278409 314.861168 
L 66.750265 313.439322 
L 69.222121 311.069579 
L 71.693977 310.59563 
L 74.165833 308.225887 
L 76.637688 306.567066 
L 81.5814 302.301528 
L 84.053256 299.931785 
L 86.525112 299.457836 
L 88.996968 296.614144 
L 91.468824 292.348606 
L 93.940679 289.978862 
L 96.412535 285.239375 
L 98.884391 283.580555 
L 103.828103 276.945273 
L 106.299959 275.049479 
L 108.771815 275.523427 
L 111.243671 272.442761 
L 113.715526 273.153684 
L 116.187382 271.494864 
L 118.659238 272.679735 
L 121.131094 273.390658 
L 123.60295 272.205787 
L 126.074806 272.679735 
L 128.546662 276.471325 
L 131.018517 272.91671 
L 133.490373 271.494864 
L 135.962229 271.731838 
L 138.434085 271.257889 
L 140.905941 267.703274 
L 143.377797 262.963787 
L 145.849653 258.935224 
L 148.321508 259.172198 
L 150.793364 253.484814 
L 153.26522 244.716763 
L 155.737076 243.531891 
L 158.208932 237.607533 
L 160.680788 236.659635 
L 163.152644 232.631072 
L 165.6245 222.441175 
L 168.096355 221.493278 
L 170.568211 223.863021 
L 173.040067 221.967226 
L 175.511923 228.365534 
L 177.983779 229.78738 
L 180.455635 227.891585 
L 182.927491 236.185687 
L 185.399346 231.683174 
L 187.871202 235.474764 
L 190.343058 237.133584 
L 192.814914 239.266353 
L 197.758626 244.953737 
L 200.230482 249.45625 
L 202.702337 260.831018 
L 205.174193 264.385633 
L 207.646049 268.651172 
L 210.117905 271.494864 
L 212.589761 276.471325 
L 215.061617 279.315017 
L 217.533473 282.632658 
L 220.005329 283.106606 
L 222.477184 283.817529 
L 224.94904 281.68476 
L 227.420896 283.580555 
L 229.892752 282.632658 
L 232.364608 287.13517 
L 234.836464 284.765427 
L 237.30832 283.343581 
L 239.780175 284.528452 
L 242.252031 285.239375 
L 244.723887 283.580555 
L 247.195743 285.950298 
L 249.667599 286.661221 
L 252.139455 291.637683 
L 254.611311 297.799016 
L 257.083167 298.746913 
L 259.555022 303.012451 
L 262.026878 306.330092 
L 264.498734 307.277989 
L 266.97059 308.93681 
L 269.442446 306.093117 
L 271.914302 306.567066 
L 274.386158 306.567066 
L 276.858013 303.012451 
L 279.329869 302.064554 
L 281.801725 297.799016 
L 284.273581 296.851118 
L 286.745437 297.799016 
L 289.217293 295.666246 
L 291.689149 296.614144 
L 294.161004 298.03599 
L 296.63286 298.03599 
L 299.104716 300.405733 
L 301.576572 300.642708 
L 304.048428 303.012451 
L 306.520284 305.619169 
L 308.99214 306.804041 
L 311.463996 308.93681 
L 313.935851 309.884707 
L 316.407707 311.306553 
L 318.879563 312.25445 
L 323.823275 313.202348 
L 326.295131 312.965373 
L 331.238842 313.439322 
L 333.710698 314.150245 
L 336.182554 314.624194 
L 338.65441 314.387219 
L 343.598122 314.387219 
L 346.069978 314.624194 
L 348.541833 315.098142 
L 351.013689 314.150245 
L 353.485545 313.913271 
L 355.957401 314.861168 
L 358.429257 315.335117 
L 360.901113 315.335117 
L 363.372969 315.098142 
L 365.844825 315.335117 
L 370.788536 316.756963 
L 373.260392 315.809065 
L 375.732248 315.809065 
L 378.204104 315.098142 
L 383.147816 314.150245 
L 385.619671 314.387219 
L 388.091527 312.965373 
L 390.563383 312.017476 
L 393.035239 312.017476 
L 397.978951 312.965373 
L 400.450807 312.491425 
L 402.922663 312.491425 
L 405.394518 312.25445 
L 407.866374 312.491425 
L 410.33823 311.306553 
L 412.810086 311.069579 
L 415.281942 311.069579 
L 417.753798 311.306553 
L 420.225654 309.647733 
L 422.697509 309.884707 
L 425.169365 309.647733 
L 427.641221 309.173784 
L 430.113077 306.567066 
L 432.584933 306.330092 
L 437.528645 306.330092 
L 440.0005 305.856143 
L 442.472356 306.330092 
L 444.944212 306.567066 
L 447.416068 309.410758 
L 449.887924 309.410758 
L 452.35978 309.647733 
L 457.303492 311.543527 
L 459.775347 311.780502 
L 462.247203 309.647733 
L 464.719059 308.93681 
L 467.190915 307.277989 
L 469.662771 307.041015 
L 472.134627 305.619169 
L 477.078338 295.192298 
L 479.550194 290.452811 
L 482.02205 283.817529 
L 484.493906 280.973837 
L 486.965762 275.760402 
L 489.437618 265.570505 
L 491.909474 263.911685 
L 494.381329 264.385633 
L 496.853185 264.622608 
L 499.325041 266.755377 
L 501.796897 268.651172 
L 504.268753 267.703274 
L 506.740609 273.627633 
L 509.212465 275.523427 
L 511.684321 272.679735 
L 514.156176 270.546966 
L 516.628032 270.546966 
L 521.571744 261.067993 
L 524.0436 255.380608 
L 526.515456 245.901635 
L 528.987312 241.399122 
L 531.459167 239.266353 
L 533.931023 234.763841 
L 536.402879 229.550405 
L 538.874735 226.706713 
L 541.346591 222.915124 
L 541.346591 222.915124 
" style="fill:none;stroke:#d62728;stroke-linecap:square;stroke-width:1.75;"/>
   </g>
   <g id="line2d_18">
    <path clip-path="url(#p771a9d4c62)" d="M 64.278409 315.466624 
L 69.222121 314.562563 
L 74.165833 310.042255 
L 76.637688 305.521948 
L 79.109544 302.809763 
L 81.5814 298.289455 
L 84.053256 292.413055 
L 86.525112 287.892748 
L 88.996968 280.208225 
L 91.468824 275.235886 
L 93.940679 272.523702 
L 96.412535 267.099333 
L 98.884391 249.018102 
L 103.828103 222.800318 
L 106.299959 213.307672 
L 108.771815 200.19878 
L 111.243671 185.281765 
L 113.715526 171.268811 
L 116.187382 176.241149 
L 118.659238 182.56958 
L 121.131094 185.733795 
L 123.60295 192.966287 
L 126.074806 198.390657 
L 128.546662 199.746749 
L 131.018517 203.815026 
L 133.490373 208.335333 
L 135.962229 208.787364 
L 138.434085 204.267057 
L 140.905941 197.486595 
L 143.377797 203.362995 
L 145.849653 210.143456 
L 148.321508 207.431272 
L 150.793364 203.362995 
L 153.26522 204.719087 
L 158.208932 227.320625 
L 160.680788 228.676718 
L 163.152644 231.840933 
L 165.6245 243.141702 
L 168.096355 253.53841 
L 170.568211 249.470133 
L 173.040067 247.209979 
L 175.511923 244.497795 
L 177.983779 239.525456 
L 180.455635 234.101087 
L 182.927491 234.553118 
L 185.399346 225.512502 
L 187.871202 228.224687 
L 190.343058 232.292964 
L 195.28677 232.292964 
L 197.758626 237.717333 
L 200.230482 227.772656 
L 202.702337 235.457179 
L 205.174193 240.881548 
L 207.646049 238.169364 
L 210.117905 241.333579 
L 212.589761 246.305918 
L 215.061617 246.757948 
L 217.533473 258.962779 
L 222.477184 260.770902 
L 224.94904 268.003394 
L 227.420896 265.74324 
L 232.364608 269.359486 
L 234.836464 268.003394 
L 237.30832 268.907456 
L 239.780175 268.907456 
L 242.252031 270.715579 
L 244.723887 277.044009 
L 247.195743 277.044009 
L 249.667599 281.112286 
L 252.139455 283.37244 
L 254.611311 284.276502 
L 257.083167 289.24884 
L 259.555022 287.892748 
L 262.026878 289.700871 
L 264.498734 293.317117 
L 266.97059 296.481332 
L 269.442446 297.385394 
L 271.914302 299.193517 
L 274.386158 296.933363 
L 276.858013 297.837425 
L 279.329869 296.933363 
L 281.801725 293.317117 
L 284.273581 286.988686 
L 286.745437 286.988686 
L 289.217293 288.344779 
L 291.689149 290.604932 
L 294.161004 290.152902 
L 296.63286 290.604932 
L 299.104716 296.481332 
L 301.576572 299.193517 
L 304.048428 301.00164 
L 306.520284 301.00164 
L 311.463996 303.713824 
L 313.935851 305.521948 
L 316.407707 305.521948 
L 318.879563 309.590224 
L 323.823275 315.014594 
L 326.295131 314.110532 
L 328.766987 314.110532 
L 331.238842 313.206471 
L 333.710698 310.494286 
L 336.182554 311.398347 
L 341.126266 309.590224 
L 343.598122 310.494286 
L 346.069978 310.494286 
L 348.541833 311.398347 
L 351.013689 314.562563 
L 353.485545 313.658501 
L 358.429257 315.466624 
L 360.901113 315.918655 
L 363.372969 314.562563 
L 365.844825 314.562563 
L 368.31668 312.75444 
L 370.788536 312.75444 
L 373.260392 312.302409 
L 375.732248 311.398347 
L 378.204104 310.946317 
L 380.67596 312.302409 
L 383.147816 312.302409 
L 385.619671 314.110532 
L 388.091527 314.562563 
L 390.563383 312.302409 
L 393.035239 311.398347 
L 395.507095 311.398347 
L 397.978951 310.042255 
L 402.922663 310.042255 
L 405.394518 309.590224 
L 407.866374 311.850378 
L 410.33823 312.75444 
L 412.810086 310.494286 
L 415.281942 312.302409 
L 417.753798 312.302409 
L 420.225654 311.850378 
L 422.697509 310.494286 
L 425.169365 311.398347 
L 427.641221 310.494286 
L 430.113077 312.75444 
L 432.584933 311.850378 
L 435.056789 310.494286 
L 437.528645 310.494286 
L 440.0005 311.850378 
L 442.472356 309.138194 
L 444.944212 309.138194 
L 449.887924 305.521948 
L 452.35978 304.165855 
L 457.303492 291.508994 
L 459.775347 288.344779 
L 462.247203 283.37244 
L 464.719059 274.331825 
L 467.190915 274.331825 
L 469.662771 273.879794 
L 472.134627 270.715579 
L 474.606483 266.195271 
L 477.078338 257.154656 
L 479.550194 249.470133 
L 482.02205 239.977487 
L 484.493906 232.292964 
L 486.965762 220.992195 
L 489.437618 211.047518 
L 491.909474 197.034564 
L 494.381329 185.733795 
L 496.853185 176.69318 
L 499.325041 177.145211 
L 501.796897 166.296472 
L 504.268753 166.748503 
L 506.740609 159.968042 
L 509.212465 152.283519 
L 511.684321 145.503057 
L 514.156176 129.681981 
L 516.628032 116.573088 
L 519.099888 107.984504 
L 521.571744 89.451243 
L 524.0436 75.438289 
L 526.515456 69.561889 
L 528.987312 53.288782 
L 531.459167 51.028628 
L 533.931023 40.63192 
L 536.402879 43.344105 
L 538.874735 47.412382 
L 541.346591 52.38472 
L 541.346591 52.38472 
" style="fill:none;stroke:#9467bd;stroke-linecap:square;stroke-width:1.75;"/>
   </g>
   <g id="line2d_19">
    <path clip-path="url(#p771a9d4c62)" d="M 64.278409 309.496914 
L 66.750265 309.28516 
L 69.222121 308.014639 
L 71.693977 307.379378 
L 74.165833 303.356061 
L 76.637688 300.391511 
L 79.109544 298.697483 
L 81.5814 295.944687 
L 84.053256 291.074355 
L 86.525112 287.686298 
L 88.996968 284.933502 
L 91.468824 281.333692 
L 96.412535 269.687247 
L 101.356247 251.476442 
L 103.828103 247.876632 
L 106.299959 241.947532 
L 108.771815 239.618243 
L 113.715526 230.724595 
L 116.187382 232.84213 
L 118.659238 232.84213 
L 121.131094 234.536158 
L 123.60295 236.653694 
L 126.074806 236.018433 
L 128.546662 240.253504 
L 131.018517 245.547343 
L 133.490373 247.876632 
L 135.962229 252.53521 
L 138.434085 249.57066 
L 140.905941 250.417674 
L 143.377797 253.805731 
L 145.849653 258.252556 
L 148.321508 256.982034 
L 153.26522 250.629428 
L 155.737076 252.958717 
L 158.208932 249.782414 
L 160.680788 247.664878 
L 163.152644 244.700329 
L 165.6245 245.97085 
L 168.096355 246.817864 
L 170.568211 254.017485 
L 173.040067 252.111703 
L 175.511923 259.73483 
L 177.983779 257.829048 
L 180.455635 253.805731 
L 182.927491 253.17047 
L 185.399346 258.887816 
L 187.871202 255.711513 
L 190.343058 254.652745 
L 192.814914 244.276821 
L 195.28677 239.618243 
L 197.758626 243.0063 
L 200.230482 238.982983 
L 202.702337 238.347722 
L 205.174193 241.524025 
L 207.646049 248.511892 
L 210.117905 250.629428 
L 212.589761 257.405541 
L 215.061617 262.911134 
L 217.533473 267.993219 
L 220.005329 269.687247 
L 222.477184 269.899001 
L 224.94904 269.899001 
L 227.420896 278.369142 
L 229.892752 285.568763 
L 232.364608 285.99227 
L 234.836464 289.59208 
L 237.30832 292.768383 
L 239.780175 291.709616 
L 242.252031 293.615398 
L 244.723887 295.309426 
L 247.195743 293.615398 
L 249.667599 295.309426 
L 252.139455 297.215208 
L 254.611311 297.850469 
L 257.083167 301.662032 
L 259.555022 302.932554 
L 262.026878 301.450279 
L 264.498734 303.779568 
L 266.97059 304.838336 
L 269.442446 305.050089 
L 271.914302 305.68535 
L 274.386158 306.108857 
L 276.858013 305.050089 
L 279.329869 306.955871 
L 281.801725 306.744117 
L 284.273581 307.167625 
L 286.745437 307.802885 
L 289.217293 308.014639 
L 291.689149 309.708667 
L 296.63286 310.555681 
L 299.104716 311.402695 
L 304.048428 312.673217 
L 308.99214 312.24971 
L 313.935851 311.402695 
L 316.407707 311.614449 
L 318.879563 310.979188 
L 321.351419 310.979188 
L 323.823275 311.402695 
L 326.295131 311.614449 
L 328.766987 312.461463 
L 331.238842 311.826203 
L 333.710698 312.037956 
L 336.182554 312.88497 
L 338.65441 311.614449 
L 341.126266 310.132174 
L 343.598122 310.979188 
L 346.069978 310.979188 
L 348.541833 311.614449 
L 351.013689 311.190942 
L 353.485545 309.920421 
L 355.957401 310.767435 
L 358.429257 312.673217 
L 360.901113 312.037956 
L 363.372969 310.979188 
L 365.844825 310.979188 
L 368.31668 309.708667 
L 370.788536 308.226392 
L 373.260392 307.802885 
L 375.732248 306.532364 
L 378.204104 305.68535 
L 385.619671 305.68535 
L 388.091527 307.802885 
L 390.563383 308.014639 
L 393.035239 308.014639 
L 395.507095 308.861653 
L 397.978951 309.920421 
L 400.450807 309.920421 
L 402.922663 310.555681 
L 405.394518 309.073406 
L 407.866374 309.920421 
L 410.33823 310.132174 
L 412.810086 308.861653 
L 415.281942 307.802885 
L 417.753798 307.591132 
L 420.225654 306.108857 
L 422.697509 305.68535 
L 425.169365 304.626582 
L 427.641221 305.050089 
L 432.584933 303.779568 
L 435.056789 303.356061 
L 440.0005 304.203075 
L 442.472356 302.7208 
L 444.944212 300.391511 
L 447.416068 299.332743 
L 449.887924 299.12099 
L 452.35978 298.273976 
L 454.831636 298.697483 
L 457.303492 299.544497 
L 459.775347 299.544497 
L 462.247203 301.450279 
L 464.719059 303.144307 
L 467.190915 304.626582 
L 469.662771 305.473596 
L 472.134627 305.897103 
L 474.606483 303.991321 
L 477.078338 303.779568 
L 479.550194 301.873786 
L 482.02205 300.603265 
L 484.493906 296.791701 
L 486.965762 295.309426 
L 489.437618 295.097672 
L 491.909474 295.52118 
L 499.325041 295.52118 
L 501.796897 296.15644 
L 504.268753 297.850469 
L 506.740609 297.638715 
L 509.212465 297.215208 
L 511.684321 297.215208 
L 514.156176 296.791701 
L 516.628032 298.697483 
L 519.099888 299.332743 
L 521.571744 295.097672 
L 524.0436 295.097672 
L 526.515456 294.462412 
L 528.987312 294.038905 
L 531.459167 292.980137 
L 533.931023 286.839284 
L 536.402879 284.721749 
L 538.874735 284.509995 
L 541.346591 279.639664 
L 541.346591 279.639664 
" style="fill:none;stroke:#8c564b;stroke-linecap:square;stroke-width:1.75;"/>
   </g>
   <g id="line2d_20">
    <path clip-path="url(#p771a9d4c62)" d="M 64.278409 292.694869 
L 66.750265 291.230275 
L 69.222121 286.250654 
L 74.165833 277.463089 
L 76.637688 267.796767 
L 81.5814 253.736662 
L 84.053256 241.43407 
L 86.525112 239.676557 
L 88.996968 230.010235 
L 91.468824 227.959803 
L 93.940679 221.22267 
L 96.412535 213.313861 
L 98.884391 208.33424 
L 101.356247 211.263429 
L 103.828103 204.526295 
L 106.299959 195.73873 
L 108.771815 176.991924 
L 111.243671 176.113167 
L 113.715526 172.305222 
L 116.187382 171.719384 
L 118.659238 174.648573 
L 121.131094 182.557382 
L 126.074806 209.212997 
L 128.546662 214.778455 
L 131.018517 229.717316 
L 133.490373 239.09072 
L 135.962229 239.969476 
L 138.434085 240.262395 
L 140.905941 244.363259 
L 143.377797 246.999529 
L 145.849653 249.342879 
L 150.793364 248.171204 
L 155.737076 239.383638 
L 158.208932 233.81818 
L 160.680788 229.424398 
L 163.152644 229.717316 
L 165.6245 216.243049 
L 168.096355 208.920078 
L 170.568211 206.283809 
L 173.040067 213.020942 
L 175.511923 221.22267 
L 177.983779 232.939424 
L 180.455635 234.111099 
L 182.927491 249.635798 
L 185.399346 257.544607 
L 187.871202 268.968442 
L 190.343058 272.483468 
L 192.814914 272.776387 
L 195.28677 272.483468 
L 197.758626 281.271034 
L 200.230482 285.957735 
L 202.702337 292.694869 
L 205.174193 295.624058 
L 207.646049 292.694869 
L 210.117905 293.280707 
L 212.589761 295.03822 
L 215.061617 292.694869 
L 217.533473 293.573626 
L 220.005329 296.209895 
L 222.477184 289.765681 
L 224.94904 291.816112 
L 227.420896 292.40195 
L 229.892752 295.624058 
L 232.364608 299.432003 
L 234.836464 300.603678 
L 237.30832 299.432003 
L 239.780175 306.754974 
L 242.252031 306.462055 
L 244.723887 307.047893 
L 247.195743 306.462055 
L 249.667599 302.65411 
L 252.139455 302.65411 
L 254.611311 303.825785 
L 257.083167 304.118704 
L 259.555022 306.169136 
L 262.026878 305.876217 
L 264.498734 306.754974 
L 266.97059 309.098325 
L 269.442446 311.148757 
L 271.914302 310.855838 
L 274.386158 311.148757 
L 276.858013 310.855838 
L 279.329869 311.734594 
L 281.801725 310.27 
L 284.273581 311.441675 
L 286.745437 310.855838 
L 289.217293 311.148757 
L 291.689149 309.977081 
L 296.63286 309.391243 
L 299.104716 310.562919 
L 304.048428 310.562919 
L 306.520284 312.027513 
L 311.463996 311.441675 
L 313.935851 312.027513 
L 316.407707 311.441675 
L 318.879563 309.684162 
L 321.351419 308.805406 
L 323.823275 308.219568 
L 326.295131 309.684162 
L 328.766987 310.562919 
L 331.238842 309.098325 
L 333.710698 306.462055 
L 336.182554 308.512487 
L 338.65441 310.27 
L 341.126266 309.684162 
L 343.598122 309.391243 
L 346.069978 308.512487 
L 348.541833 309.391243 
L 351.013689 310.855838 
L 353.485545 310.27 
L 355.957401 307.340811 
L 358.429257 305.29038 
L 360.901113 302.068272 
L 363.372969 301.482435 
L 365.844825 301.775353 
L 368.31668 301.482435 
L 370.788536 300.896597 
L 373.260392 300.603678 
L 375.732248 301.482435 
L 378.204104 304.118704 
L 380.67596 305.583298 
L 383.147816 303.825785 
L 385.619671 302.65411 
L 388.091527 301.775353 
L 390.563383 301.775353 
L 393.035239 302.361191 
L 395.507095 300.310759 
L 397.978951 299.139084 
L 402.922663 301.482435 
L 405.394518 302.068272 
L 407.866374 304.411623 
L 410.33823 301.775353 
L 412.810086 301.482435 
L 415.281942 300.896597 
L 417.753798 301.189516 
L 420.225654 299.724921 
L 422.697509 299.724921 
L 425.169365 297.967408 
L 427.641221 300.896597 
L 430.113077 300.603678 
L 432.584933 302.361191 
L 435.056789 302.947029 
L 437.528645 304.997461 
L 440.0005 306.169136 
L 442.472356 306.462055 
L 444.944212 307.047893 
L 447.416068 310.27 
L 452.35978 307.926649 
L 454.831636 309.098325 
L 457.303492 309.977081 
L 459.775347 311.734594 
L 462.247203 309.098325 
L 464.719059 307.926649 
L 469.662771 310.27 
L 472.134627 308.512487 
L 474.606483 306.462055 
L 477.078338 302.361191 
L 479.550194 303.239948 
L 482.02205 302.068272 
L 484.493906 300.310759 
L 486.965762 297.088652 
L 489.437618 292.40195 
L 491.909474 292.109031 
L 494.381329 292.694869 
L 496.853185 292.987788 
L 499.325041 293.866544 
L 501.796897 293.573626 
L 504.268753 291.816112 
L 506.740609 295.03822 
L 509.212465 292.987788 
L 511.684321 293.280707 
L 514.156176 290.351518 
L 516.628032 286.250654 
L 519.099888 284.78606 
L 521.571744 282.14979 
L 524.0436 277.463089 
L 526.515456 270.433036 
L 528.987312 265.453416 
L 531.459167 258.130445 
L 533.931023 252.857906 
L 536.402879 247.292447 
L 541.346591 246.120772 
L 541.346591 246.120772 
" style="fill:none;stroke:#e377c2;stroke-linecap:square;stroke-width:1.75;"/>
   </g>
   <g id="patch_3">
    <path d="M 40.425 331.102246 
L 40.425 26.8 
" style="fill:none;stroke:#000000;stroke-linecap:square;stroke-linejoin:miter;stroke-width:0.8;"/>
   </g>
   <g id="patch_4">
    <path d="M 565.2 331.102246 
L 565.2 26.8 
" style="fill:none;stroke:#000000;stroke-linecap:square;stroke-linejoin:miter;stroke-width:0.8;"/>
   </g>
   <g id="patch_5">
    <path d="M 40.425 331.102246 
L 565.2 331.102246 
" style="fill:none;stroke:#000000;stroke-linecap:square;stroke-linejoin:miter;stroke-width:0.8;"/>
   </g>
   <g id="patch_6">
    <path d="M 40.425 26.8 
L 565.2 26.8 
" style="fill:none;stroke:#000000;stroke-linecap:square;stroke-linejoin:miter;stroke-width:0.8;"/>
   </g>
   <g id="text_15">
    <!-- New Cases per Million Population (7 day rolling) -->
    <defs>
     <path d="M 9.8125 72.90625 
L 23.09375 72.90625 
L 55.421875 11.921875 
L 55.421875 72.90625 
L 64.984375 72.90625 
L 64.984375 0 
L 51.703125 0 
L 19.390625 60.984375 
L 19.390625 0 
L 9.8125 0 
z
" id="DejaVuSans-78"/>
     <path d="M 4.203125 54.6875 
L 13.1875 54.6875 
L 24.421875 12.015625 
L 35.59375 54.6875 
L 46.1875 54.6875 
L 57.421875 12.015625 
L 68.609375 54.6875 
L 77.59375 54.6875 
L 63.28125 0 
L 52.6875 0 
L 40.921875 44.828125 
L 29.109375 0 
L 18.5 0 
z
" id="DejaVuSans-119"/>
     <path id="DejaVuSans-32"/>
     <path d="M 64.40625 67.28125 
L 64.40625 56.890625 
Q 59.421875 61.53125 53.78125 63.8125 
Q 48.140625 66.109375 41.796875 66.109375 
Q 29.296875 66.109375 22.65625 58.46875 
Q 16.015625 50.828125 16.015625 36.375 
Q 16.015625 21.96875 22.65625 14.328125 
Q 29.296875 6.6875 41.796875 6.6875 
Q 48.140625 6.6875 53.78125 8.984375 
Q 59.421875 11.28125 64.40625 15.921875 
L 64.40625 5.609375 
Q 59.234375 2.09375 53.4375 0.328125 
Q 47.65625 -1.421875 41.21875 -1.421875 
Q 24.65625 -1.421875 15.125 8.703125 
Q 5.609375 18.84375 5.609375 36.375 
Q 5.609375 53.953125 15.125 64.078125 
Q 24.65625 74.21875 41.21875 74.21875 
Q 47.75 74.21875 53.53125 72.484375 
Q 59.328125 70.75 64.40625 67.28125 
z
" id="DejaVuSans-67"/>
     <path d="M 44.28125 53.078125 
L 44.28125 44.578125 
Q 40.484375 46.53125 36.375 47.5 
Q 32.28125 48.484375 27.875 48.484375 
Q 21.1875 48.484375 17.84375 46.4375 
Q 14.5 44.390625 14.5 40.28125 
Q 14.5 37.15625 16.890625 35.375 
Q 19.28125 33.59375 26.515625 31.984375 
L 29.59375 31.296875 
Q 39.15625 29.25 43.1875 25.515625 
Q 47.21875 21.78125 47.21875 15.09375 
Q 47.21875 7.46875 41.1875 3.015625 
Q 35.15625 -1.421875 24.609375 -1.421875 
Q 20.21875 -1.421875 15.453125 -0.5625 
Q 10.6875 0.296875 5.421875 2 
L 5.421875 11.28125 
Q 10.40625 8.6875 15.234375 7.390625 
Q 20.0625 6.109375 24.8125 6.109375 
Q 31.15625 6.109375 34.5625 8.28125 
Q 37.984375 10.453125 37.984375 14.40625 
Q 37.984375 18.0625 35.515625 20.015625 
Q 33.0625 21.96875 24.703125 23.78125 
L 21.578125 24.515625 
Q 13.234375 26.265625 9.515625 29.90625 
Q 5.8125 33.546875 5.8125 39.890625 
Q 5.8125 47.609375 11.28125 51.796875 
Q 16.75 56 26.8125 56 
Q 31.78125 56 36.171875 55.265625 
Q 40.578125 54.546875 44.28125 53.078125 
z
" id="DejaVuSans-115"/>
     <path d="M 18.109375 8.203125 
L 18.109375 -20.796875 
L 9.078125 -20.796875 
L 9.078125 54.6875 
L 18.109375 54.6875 
L 18.109375 46.390625 
Q 20.953125 51.265625 25.265625 53.625 
Q 29.59375 56 35.59375 56 
Q 45.5625 56 51.78125 48.09375 
Q 58.015625 40.1875 58.015625 27.296875 
Q 58.015625 14.40625 51.78125 6.484375 
Q 45.5625 -1.421875 35.59375 -1.421875 
Q 29.59375 -1.421875 25.265625 0.953125 
Q 20.953125 3.328125 18.109375 8.203125 
z
M 48.6875 27.296875 
Q 48.6875 37.203125 44.609375 42.84375 
Q 40.53125 48.484375 33.40625 48.484375 
Q 26.265625 48.484375 22.1875 42.84375 
Q 18.109375 37.203125 18.109375 27.296875 
Q 18.109375 17.390625 22.1875 11.75 
Q 26.265625 6.109375 33.40625 6.109375 
Q 40.53125 6.109375 44.609375 11.75 
Q 48.6875 17.390625 48.6875 27.296875 
z
" id="DejaVuSans-112"/>
     <path d="M 41.109375 46.296875 
Q 39.59375 47.171875 37.8125 47.578125 
Q 36.03125 48 33.890625 48 
Q 26.265625 48 22.1875 43.046875 
Q 18.109375 38.09375 18.109375 28.8125 
L 18.109375 0 
L 9.078125 0 
L 9.078125 54.6875 
L 18.109375 54.6875 
L 18.109375 46.1875 
Q 20.953125 51.171875 25.484375 53.578125 
Q 30.03125 56 36.53125 56 
Q 37.453125 56 38.578125 55.875 
Q 39.703125 55.765625 41.0625 55.515625 
z
" id="DejaVuSans-114"/>
     <path d="M 9.8125 72.90625 
L 24.515625 72.90625 
L 43.109375 23.296875 
L 61.8125 72.90625 
L 76.515625 72.90625 
L 76.515625 0 
L 66.890625 0 
L 66.890625 64.015625 
L 48.09375 14.015625 
L 38.1875 14.015625 
L 19.390625 64.015625 
L 19.390625 0 
L 9.8125 0 
z
" id="DejaVuSans-77"/>
     <path d="M 9.421875 54.6875 
L 18.40625 54.6875 
L 18.40625 0 
L 9.421875 0 
z
M 9.421875 75.984375 
L 18.40625 75.984375 
L 18.40625 64.59375 
L 9.421875 64.59375 
z
" id="DejaVuSans-105"/>
     <path d="M 9.421875 75.984375 
L 18.40625 75.984375 
L 18.40625 0 
L 9.421875 0 
z
" id="DejaVuSans-108"/>
     <path d="M 30.609375 48.390625 
Q 23.390625 48.390625 19.1875 42.75 
Q 14.984375 37.109375 14.984375 27.296875 
Q 14.984375 17.484375 19.15625 11.84375 
Q 23.34375 6.203125 30.609375 6.203125 
Q 37.796875 6.203125 41.984375 11.859375 
Q 46.1875 17.53125 46.1875 27.296875 
Q 46.1875 37.015625 41.984375 42.703125 
Q 37.796875 48.390625 30.609375 48.390625 
z
M 30.609375 56 
Q 42.328125 56 49.015625 48.375 
Q 55.71875 40.765625 55.71875 27.296875 
Q 55.71875 13.875 49.015625 6.21875 
Q 42.328125 -1.421875 30.609375 -1.421875 
Q 18.84375 -1.421875 12.171875 6.21875 
Q 5.515625 13.875 5.515625 27.296875 
Q 5.515625 40.765625 12.171875 48.375 
Q 18.84375 56 30.609375 56 
z
" id="DejaVuSans-111"/>
     <path d="M 54.890625 33.015625 
L 54.890625 0 
L 45.90625 0 
L 45.90625 32.71875 
Q 45.90625 40.484375 42.875 44.328125 
Q 39.84375 48.1875 33.796875 48.1875 
Q 26.515625 48.1875 22.3125 43.546875 
Q 18.109375 38.921875 18.109375 30.90625 
L 18.109375 0 
L 9.078125 0 
L 9.078125 54.6875 
L 18.109375 54.6875 
L 18.109375 46.1875 
Q 21.34375 51.125 25.703125 53.5625 
Q 30.078125 56 35.796875 56 
Q 45.21875 56 50.046875 50.171875 
Q 54.890625 44.34375 54.890625 33.015625 
z
" id="DejaVuSans-110"/>
     <path d="M 19.671875 64.796875 
L 19.671875 37.40625 
L 32.078125 37.40625 
Q 38.96875 37.40625 42.71875 40.96875 
Q 46.484375 44.53125 46.484375 51.125 
Q 46.484375 57.671875 42.71875 61.234375 
Q 38.96875 64.796875 32.078125 64.796875 
z
M 9.8125 72.90625 
L 32.078125 72.90625 
Q 44.34375 72.90625 50.609375 67.359375 
Q 56.890625 61.8125 56.890625 51.125 
Q 56.890625 40.328125 50.609375 34.8125 
Q 44.34375 29.296875 32.078125 29.296875 
L 19.671875 29.296875 
L 19.671875 0 
L 9.8125 0 
z
" id="DejaVuSans-80"/>
     <path d="M 8.5 21.578125 
L 8.5 54.6875 
L 17.484375 54.6875 
L 17.484375 21.921875 
Q 17.484375 14.15625 20.5 10.265625 
Q 23.53125 6.390625 29.59375 6.390625 
Q 36.859375 6.390625 41.078125 11.03125 
Q 45.3125 15.671875 45.3125 23.6875 
L 45.3125 54.6875 
L 54.296875 54.6875 
L 54.296875 0 
L 45.3125 0 
L 45.3125 8.40625 
Q 42.046875 3.421875 37.71875 1 
Q 33.40625 -1.421875 27.6875 -1.421875 
Q 18.265625 -1.421875 13.375 4.4375 
Q 8.5 10.296875 8.5 21.578125 
z
M 31.109375 56 
z
" id="DejaVuSans-117"/>
     <path d="M 31 75.875 
Q 24.46875 64.65625 21.28125 53.65625 
Q 18.109375 42.671875 18.109375 31.390625 
Q 18.109375 20.125 21.3125 9.0625 
Q 24.515625 -2 31 -13.1875 
L 23.1875 -13.1875 
Q 15.875 -1.703125 12.234375 9.375 
Q 8.59375 20.453125 8.59375 31.390625 
Q 8.59375 42.28125 12.203125 53.3125 
Q 15.828125 64.359375 23.1875 75.875 
z
" id="DejaVuSans-40"/>
     <path d="M 45.40625 46.390625 
L 45.40625 75.984375 
L 54.390625 75.984375 
L 54.390625 0 
L 45.40625 0 
L 45.40625 8.203125 
Q 42.578125 3.328125 38.25 0.953125 
Q 33.9375 -1.421875 27.875 -1.421875 
Q 17.96875 -1.421875 11.734375 6.484375 
Q 5.515625 14.40625 5.515625 27.296875 
Q 5.515625 40.1875 11.734375 48.09375 
Q 17.96875 56 27.875 56 
Q 33.9375 56 38.25 53.625 
Q 42.578125 51.265625 45.40625 46.390625 
z
M 14.796875 27.296875 
Q 14.796875 17.390625 18.875 11.75 
Q 22.953125 6.109375 30.078125 6.109375 
Q 37.203125 6.109375 41.296875 11.75 
Q 45.40625 17.390625 45.40625 27.296875 
Q 45.40625 37.203125 41.296875 42.84375 
Q 37.203125 48.484375 30.078125 48.484375 
Q 22.953125 48.484375 18.875 42.84375 
Q 14.796875 37.203125 14.796875 27.296875 
z
" id="DejaVuSans-100"/>
     <path d="M 32.171875 -5.078125 
Q 28.375 -14.84375 24.75 -17.8125 
Q 21.140625 -20.796875 15.09375 -20.796875 
L 7.90625 -20.796875 
L 7.90625 -13.28125 
L 13.1875 -13.28125 
Q 16.890625 -13.28125 18.9375 -11.515625 
Q 21 -9.765625 23.484375 -3.21875 
L 25.09375 0.875 
L 2.984375 54.6875 
L 12.5 54.6875 
L 29.59375 11.921875 
L 46.6875 54.6875 
L 56.203125 54.6875 
z
" id="DejaVuSans-121"/>
     <path d="M 45.40625 27.984375 
Q 45.40625 37.75 41.375 43.109375 
Q 37.359375 48.484375 30.078125 48.484375 
Q 22.859375 48.484375 18.828125 43.109375 
Q 14.796875 37.75 14.796875 27.984375 
Q 14.796875 18.265625 18.828125 12.890625 
Q 22.859375 7.515625 30.078125 7.515625 
Q 37.359375 7.515625 41.375 12.890625 
Q 45.40625 18.265625 45.40625 27.984375 
z
M 54.390625 6.78125 
Q 54.390625 -7.171875 48.1875 -13.984375 
Q 42 -20.796875 29.203125 -20.796875 
Q 24.46875 -20.796875 20.265625 -20.09375 
Q 16.0625 -19.390625 12.109375 -17.921875 
L 12.109375 -9.1875 
Q 16.0625 -11.328125 19.921875 -12.34375 
Q 23.78125 -13.375 27.78125 -13.375 
Q 36.625 -13.375 41.015625 -8.765625 
Q 45.40625 -4.15625 45.40625 5.171875 
L 45.40625 9.625 
Q 42.625 4.78125 38.28125 2.390625 
Q 33.9375 0 27.875 0 
Q 17.828125 0 11.671875 7.65625 
Q 5.515625 15.328125 5.515625 27.984375 
Q 5.515625 40.671875 11.671875 48.328125 
Q 17.828125 56 27.875 56 
Q 33.9375 56 38.28125 53.609375 
Q 42.625 51.21875 45.40625 46.390625 
L 45.40625 54.6875 
L 54.390625 54.6875 
z
" id="DejaVuSans-103"/>
     <path d="M 8.015625 75.875 
L 15.828125 75.875 
Q 23.140625 64.359375 26.78125 53.3125 
Q 30.421875 42.28125 30.421875 31.390625 
Q 30.421875 20.453125 26.78125 9.375 
Q 23.140625 -1.703125 15.828125 -13.1875 
L 8.015625 -13.1875 
Q 14.5 -2 17.703125 9.0625 
Q 20.90625 20.125 20.90625 31.390625 
Q 20.90625 42.671875 17.703125 53.65625 
Q 14.5 64.65625 8.015625 75.875 
z
" id="DejaVuSans-41"/>
    </defs>
    <g transform="translate(159.610312 20.8)scale(0.12 -0.12)">
     <use xlink:href="#DejaVuSans-78"/>
     <use x="74.804688" xlink:href="#DejaVuSans-101"/>
     <use x="136.328125" xlink:href="#DejaVuSans-119"/>
     <use x="218.115234" xlink:href="#DejaVuSans-32"/>
     <use x="249.902344" xlink:href="#DejaVuSans-67"/>
     <use x="319.726562" xlink:href="#DejaVuSans-97"/>
     <use x="381.005859" xlink:href="#DejaVuSans-115"/>
     <use x="433.105469" xlink:href="#DejaVuSans-101"/>
     <use x="494.628906" xlink:href="#DejaVuSans-115"/>
     <use x="546.728516" xlink:href="#DejaVuSans-32"/>
     <use x="578.515625" xlink:href="#DejaVuSans-112"/>
     <use x="641.992188" xlink:href="#DejaVuSans-101"/>
     <use x="703.515625" xlink:href="#DejaVuSans-114"/>
     <use x="744.628906" xlink:href="#DejaVuSans-32"/>
     <use x="776.416016" xlink:href="#DejaVuSans-77"/>
     <use x="862.695312" xlink:href="#DejaVuSans-105"/>
     <use x="890.478516" xlink:href="#DejaVuSans-108"/>
     <use x="918.261719" xlink:href="#DejaVuSans-108"/>
     <use x="946.044922" xlink:href="#DejaVuSans-105"/>
     <use x="973.828125" xlink:href="#DejaVuSans-111"/>
     <use x="1035.009766" xlink:href="#DejaVuSans-110"/>
     <use x="1098.388672" xlink:href="#DejaVuSans-32"/>
     <use x="1130.175781" xlink:href="#DejaVuSans-80"/>
     <use x="1186.853516" xlink:href="#DejaVuSans-111"/>
     <use x="1248.035156" xlink:href="#DejaVuSans-112"/>
     <use x="1311.511719" xlink:href="#DejaVuSans-117"/>
     <use x="1374.890625" xlink:href="#DejaVuSans-108"/>
     <use x="1402.673828" xlink:href="#DejaVuSans-97"/>
     <use x="1463.953125" xlink:href="#DejaVuSans-116"/>
     <use x="1503.162109" xlink:href="#DejaVuSans-105"/>
     <use x="1530.945312" xlink:href="#DejaVuSans-111"/>
     <use x="1592.126953" xlink:href="#DejaVuSans-110"/>
     <use x="1655.505859" xlink:href="#DejaVuSans-32"/>
     <use x="1687.292969" xlink:href="#DejaVuSans-40"/>
     <use x="1726.306641" xlink:href="#DejaVuSans-55"/>
     <use x="1789.929688" xlink:href="#DejaVuSans-32"/>
     <use x="1821.716797" xlink:href="#DejaVuSans-100"/>
     <use x="1885.193359" xlink:href="#DejaVuSans-97"/>
     <use x="1946.472656" xlink:href="#DejaVuSans-121"/>
     <use x="2005.652344" xlink:href="#DejaVuSans-32"/>
     <use x="2037.439453" xlink:href="#DejaVuSans-114"/>
     <use x="2076.302734" xlink:href="#DejaVuSans-111"/>
     <use x="2137.484375" xlink:href="#DejaVuSans-108"/>
     <use x="2165.267578" xlink:href="#DejaVuSans-108"/>
     <use x="2193.050781" xlink:href="#DejaVuSans-105"/>
     <use x="2220.833984" xlink:href="#DejaVuSans-110"/>
     <use x="2284.212891" xlink:href="#DejaVuSans-103"/>
     <use x="2347.689453" xlink:href="#DejaVuSans-41"/>
    </g>
   </g>
   <g id="legend_1">
    <g id="patch_7">
     <path d="M 47.425 137.546875 
L 215.060938 137.546875 
Q 217.060938 137.546875 217.060938 135.546875 
L 217.060938 33.8 
Q 217.060938 31.8 215.060938 31.8 
L 47.425 31.8 
Q 45.425 31.8 45.425 33.8 
L 45.425 135.546875 
Q 45.425 137.546875 47.425 137.546875 
z
" style="fill:#ffffff;opacity:0.8;stroke:#cccccc;stroke-linejoin:miter;stroke-width:0.3;"/>
    </g>
    <g id="line2d_21">
     <path d="M 49.425 39.898438 
L 69.425 39.898438 
" style="fill:none;stroke:#1f77b4;stroke-linecap:square;stroke-width:1.75;"/>
    </g>
    <g id="line2d_22"/>
    <g id="text_16">
     <!-- Cheshire West and Chester -->
     <defs>
      <path d="M 54.890625 33.015625 
L 54.890625 0 
L 45.90625 0 
L 45.90625 32.71875 
Q 45.90625 40.484375 42.875 44.328125 
Q 39.84375 48.1875 33.796875 48.1875 
Q 26.515625 48.1875 22.3125 43.546875 
Q 18.109375 38.921875 18.109375 30.90625 
L 18.109375 0 
L 9.078125 0 
L 9.078125 75.984375 
L 18.109375 75.984375 
L 18.109375 46.1875 
Q 21.34375 51.125 25.703125 53.5625 
Q 30.078125 56 35.796875 56 
Q 45.21875 56 50.046875 50.171875 
Q 54.890625 44.34375 54.890625 33.015625 
z
" id="DejaVuSans-104"/>
      <path d="M 3.328125 72.90625 
L 13.28125 72.90625 
L 28.609375 11.28125 
L 43.890625 72.90625 
L 54.984375 72.90625 
L 70.3125 11.28125 
L 85.59375 72.90625 
L 95.609375 72.90625 
L 77.296875 0 
L 64.890625 0 
L 49.515625 63.28125 
L 33.984375 0 
L 21.578125 0 
z
" id="DejaVuSans-87"/>
     </defs>
     <g transform="translate(77.425 43.398438)scale(0.1 -0.1)">
      <use xlink:href="#DejaVuSans-67"/>
      <use x="69.824219" xlink:href="#DejaVuSans-104"/>
      <use x="133.203125" xlink:href="#DejaVuSans-101"/>
      <use x="194.726562" xlink:href="#DejaVuSans-115"/>
      <use x="246.826172" xlink:href="#DejaVuSans-104"/>
      <use x="310.205078" xlink:href="#DejaVuSans-105"/>
      <use x="337.988281" xlink:href="#DejaVuSans-114"/>
      <use x="376.851562" xlink:href="#DejaVuSans-101"/>
      <use x="438.375" xlink:href="#DejaVuSans-32"/>
      <use x="470.162109" xlink:href="#DejaVuSans-87"/>
      <use x="563.164062" xlink:href="#DejaVuSans-101"/>
      <use x="624.6875" xlink:href="#DejaVuSans-115"/>
      <use x="676.787109" xlink:href="#DejaVuSans-116"/>
      <use x="715.996094" xlink:href="#DejaVuSans-32"/>
      <use x="747.783203" xlink:href="#DejaVuSans-97"/>
      <use x="809.0625" xlink:href="#DejaVuSans-110"/>
      <use x="872.441406" xlink:href="#DejaVuSans-100"/>
      <use x="935.917969" xlink:href="#DejaVuSans-32"/>
      <use x="967.705078" xlink:href="#DejaVuSans-67"/>
      <use x="1037.529297" xlink:href="#DejaVuSans-104"/>
      <use x="1100.908203" xlink:href="#DejaVuSans-101"/>
      <use x="1162.431641" xlink:href="#DejaVuSans-115"/>
      <use x="1214.53125" xlink:href="#DejaVuSans-116"/>
      <use x="1253.740234" xlink:href="#DejaVuSans-101"/>
      <use x="1315.263672" xlink:href="#DejaVuSans-114"/>
     </g>
    </g>
    <g id="line2d_23">
     <path d="M 49.425 54.576563 
L 69.425 54.576563 
" style="fill:none;stroke:#ff7f0e;stroke-linecap:square;stroke-width:1.75;"/>
    </g>
    <g id="line2d_24"/>
    <g id="text_17">
     <!-- Leicester -->
     <defs>
      <path d="M 9.8125 72.90625 
L 19.671875 72.90625 
L 19.671875 8.296875 
L 55.171875 8.296875 
L 55.171875 0 
L 9.8125 0 
z
" id="DejaVuSans-76"/>
      <path d="M 48.78125 52.59375 
L 48.78125 44.1875 
Q 44.96875 46.296875 41.140625 47.34375 
Q 37.3125 48.390625 33.40625 48.390625 
Q 24.65625 48.390625 19.8125 42.84375 
Q 14.984375 37.3125 14.984375 27.296875 
Q 14.984375 17.28125 19.8125 11.734375 
Q 24.65625 6.203125 33.40625 6.203125 
Q 37.3125 6.203125 41.140625 7.25 
Q 44.96875 8.296875 48.78125 10.40625 
L 48.78125 2.09375 
Q 45.015625 0.34375 40.984375 -0.53125 
Q 36.96875 -1.421875 32.421875 -1.421875 
Q 20.0625 -1.421875 12.78125 6.34375 
Q 5.515625 14.109375 5.515625 27.296875 
Q 5.515625 40.671875 12.859375 48.328125 
Q 20.21875 56 33.015625 56 
Q 37.15625 56 41.109375 55.140625 
Q 45.0625 54.296875 48.78125 52.59375 
z
" id="DejaVuSans-99"/>
     </defs>
     <g transform="translate(77.425 58.076563)scale(0.1 -0.1)">
      <use xlink:href="#DejaVuSans-76"/>
      <use x="53.962891" xlink:href="#DejaVuSans-101"/>
      <use x="115.486328" xlink:href="#DejaVuSans-105"/>
      <use x="143.269531" xlink:href="#DejaVuSans-99"/>
      <use x="198.25" xlink:href="#DejaVuSans-101"/>
      <use x="259.773438" xlink:href="#DejaVuSans-115"/>
      <use x="311.873047" xlink:href="#DejaVuSans-116"/>
      <use x="351.082031" xlink:href="#DejaVuSans-101"/>
      <use x="412.605469" xlink:href="#DejaVuSans-114"/>
     </g>
    </g>
    <g id="line2d_25">
     <path d="M 49.425 69.254688 
L 69.425 69.254688 
" style="fill:none;stroke:#2ca02c;stroke-linecap:square;stroke-width:1.75;"/>
    </g>
    <g id="line2d_26"/>
    <g id="text_18">
     <!-- Northumberland -->
     <defs>
      <path d="M 52 44.1875 
Q 55.375 50.25 60.0625 53.125 
Q 64.75 56 71.09375 56 
Q 79.640625 56 84.28125 50.015625 
Q 88.921875 44.046875 88.921875 33.015625 
L 88.921875 0 
L 79.890625 0 
L 79.890625 32.71875 
Q 79.890625 40.578125 77.09375 44.375 
Q 74.3125 48.1875 68.609375 48.1875 
Q 61.625 48.1875 57.5625 43.546875 
Q 53.515625 38.921875 53.515625 30.90625 
L 53.515625 0 
L 44.484375 0 
L 44.484375 32.71875 
Q 44.484375 40.625 41.703125 44.40625 
Q 38.921875 48.1875 33.109375 48.1875 
Q 26.21875 48.1875 22.15625 43.53125 
Q 18.109375 38.875 18.109375 30.90625 
L 18.109375 0 
L 9.078125 0 
L 9.078125 54.6875 
L 18.109375 54.6875 
L 18.109375 46.1875 
Q 21.1875 51.21875 25.484375 53.609375 
Q 29.78125 56 35.6875 56 
Q 41.65625 56 45.828125 52.96875 
Q 50 49.953125 52 44.1875 
z
" id="DejaVuSans-109"/>
      <path d="M 48.6875 27.296875 
Q 48.6875 37.203125 44.609375 42.84375 
Q 40.53125 48.484375 33.40625 48.484375 
Q 26.265625 48.484375 22.1875 42.84375 
Q 18.109375 37.203125 18.109375 27.296875 
Q 18.109375 17.390625 22.1875 11.75 
Q 26.265625 6.109375 33.40625 6.109375 
Q 40.53125 6.109375 44.609375 11.75 
Q 48.6875 17.390625 48.6875 27.296875 
z
M 18.109375 46.390625 
Q 20.953125 51.265625 25.265625 53.625 
Q 29.59375 56 35.59375 56 
Q 45.5625 56 51.78125 48.09375 
Q 58.015625 40.1875 58.015625 27.296875 
Q 58.015625 14.40625 51.78125 6.484375 
Q 45.5625 -1.421875 35.59375 -1.421875 
Q 29.59375 -1.421875 25.265625 0.953125 
Q 20.953125 3.328125 18.109375 8.203125 
L 18.109375 0 
L 9.078125 0 
L 9.078125 75.984375 
L 18.109375 75.984375 
z
" id="DejaVuSans-98"/>
     </defs>
     <g transform="translate(77.425 72.754688)scale(0.1 -0.1)">
      <use xlink:href="#DejaVuSans-78"/>
      <use x="74.804688" xlink:href="#DejaVuSans-111"/>
      <use x="135.986328" xlink:href="#DejaVuSans-114"/>
      <use x="177.099609" xlink:href="#DejaVuSans-116"/>
      <use x="216.308594" xlink:href="#DejaVuSans-104"/>
      <use x="279.6875" xlink:href="#DejaVuSans-117"/>
      <use x="343.066406" xlink:href="#DejaVuSans-109"/>
      <use x="440.478516" xlink:href="#DejaVuSans-98"/>
      <use x="503.955078" xlink:href="#DejaVuSans-101"/>
      <use x="565.478516" xlink:href="#DejaVuSans-114"/>
      <use x="606.591797" xlink:href="#DejaVuSans-108"/>
      <use x="634.375" xlink:href="#DejaVuSans-97"/>
      <use x="695.654297" xlink:href="#DejaVuSans-110"/>
      <use x="759.033203" xlink:href="#DejaVuSans-100"/>
     </g>
    </g>
    <g id="line2d_27">
     <path d="M 49.425 83.932813 
L 69.425 83.932813 
" style="fill:none;stroke:#d62728;stroke-linecap:square;stroke-width:1.75;"/>
    </g>
    <g id="line2d_28"/>
    <g id="text_19">
     <!-- North Yorkshire -->
     <defs>
      <path d="M -0.203125 72.90625 
L 10.40625 72.90625 
L 30.609375 42.921875 
L 50.6875 72.90625 
L 61.28125 72.90625 
L 35.5 34.71875 
L 35.5 0 
L 25.59375 0 
L 25.59375 34.71875 
z
" id="DejaVuSans-89"/>
      <path d="M 9.078125 75.984375 
L 18.109375 75.984375 
L 18.109375 31.109375 
L 44.921875 54.6875 
L 56.390625 54.6875 
L 27.390625 29.109375 
L 57.625 0 
L 45.90625 0 
L 18.109375 26.703125 
L 18.109375 0 
L 9.078125 0 
z
" id="DejaVuSans-107"/>
     </defs>
     <g transform="translate(77.425 87.432813)scale(0.1 -0.1)">
      <use xlink:href="#DejaVuSans-78"/>
      <use x="74.804688" xlink:href="#DejaVuSans-111"/>
      <use x="135.986328" xlink:href="#DejaVuSans-114"/>
      <use x="177.099609" xlink:href="#DejaVuSans-116"/>
      <use x="216.308594" xlink:href="#DejaVuSans-104"/>
      <use x="279.6875" xlink:href="#DejaVuSans-32"/>
      <use x="311.474609" xlink:href="#DejaVuSans-89"/>
      <use x="359.308594" xlink:href="#DejaVuSans-111"/>
      <use x="420.490234" xlink:href="#DejaVuSans-114"/>
      <use x="461.603516" xlink:href="#DejaVuSans-107"/>
      <use x="519.513672" xlink:href="#DejaVuSans-115"/>
      <use x="571.613281" xlink:href="#DejaVuSans-104"/>
      <use x="634.992188" xlink:href="#DejaVuSans-105"/>
      <use x="662.775391" xlink:href="#DejaVuSans-114"/>
      <use x="701.638672" xlink:href="#DejaVuSans-101"/>
     </g>
    </g>
    <g id="line2d_29">
     <path d="M 49.425 98.610938 
L 69.425 98.610938 
" style="fill:none;stroke:#9467bd;stroke-linecap:square;stroke-width:1.75;"/>
    </g>
    <g id="line2d_30"/>
    <g id="text_20">
     <!-- Wirral -->
     <g transform="translate(77.425 102.110938)scale(0.1 -0.1)">
      <use xlink:href="#DejaVuSans-87"/>
      <use x="96.626953" xlink:href="#DejaVuSans-105"/>
      <use x="124.410156" xlink:href="#DejaVuSans-114"/>
      <use x="163.773438" xlink:href="#DejaVuSans-114"/>
      <use x="204.886719" xlink:href="#DejaVuSans-97"/>
      <use x="266.166016" xlink:href="#DejaVuSans-108"/>
     </g>
    </g>
    <g id="line2d_31">
     <path d="M 49.425 113.289063 
L 69.425 113.289063 
" style="fill:none;stroke:#8c564b;stroke-linecap:square;stroke-width:1.75;"/>
    </g>
    <g id="line2d_32"/>
    <g id="text_21">
     <!-- Oxfordshire -->
     <defs>
      <path d="M 39.40625 66.21875 
Q 28.65625 66.21875 22.328125 58.203125 
Q 16.015625 50.203125 16.015625 36.375 
Q 16.015625 22.609375 22.328125 14.59375 
Q 28.65625 6.59375 39.40625 6.59375 
Q 50.140625 6.59375 56.421875 14.59375 
Q 62.703125 22.609375 62.703125 36.375 
Q 62.703125 50.203125 56.421875 58.203125 
Q 50.140625 66.21875 39.40625 66.21875 
z
M 39.40625 74.21875 
Q 54.734375 74.21875 63.90625 63.9375 
Q 73.09375 53.65625 73.09375 36.375 
Q 73.09375 19.140625 63.90625 8.859375 
Q 54.734375 -1.421875 39.40625 -1.421875 
Q 24.03125 -1.421875 14.8125 8.828125 
Q 5.609375 19.09375 5.609375 36.375 
Q 5.609375 53.65625 14.8125 63.9375 
Q 24.03125 74.21875 39.40625 74.21875 
z
" id="DejaVuSans-79"/>
      <path d="M 54.890625 54.6875 
L 35.109375 28.078125 
L 55.90625 0 
L 45.3125 0 
L 29.390625 21.484375 
L 13.484375 0 
L 2.875 0 
L 24.125 28.609375 
L 4.6875 54.6875 
L 15.28125 54.6875 
L 29.78125 35.203125 
L 44.28125 54.6875 
z
" id="DejaVuSans-120"/>
      <path d="M 37.109375 75.984375 
L 37.109375 68.5 
L 28.515625 68.5 
Q 23.6875 68.5 21.796875 66.546875 
Q 19.921875 64.59375 19.921875 59.515625 
L 19.921875 54.6875 
L 34.71875 54.6875 
L 34.71875 47.703125 
L 19.921875 47.703125 
L 19.921875 0 
L 10.890625 0 
L 10.890625 47.703125 
L 2.296875 47.703125 
L 2.296875 54.6875 
L 10.890625 54.6875 
L 10.890625 58.5 
Q 10.890625 67.625 15.140625 71.796875 
Q 19.390625 75.984375 28.609375 75.984375 
z
" id="DejaVuSans-102"/>
     </defs>
     <g transform="translate(77.425 116.789063)scale(0.1 -0.1)">
      <use xlink:href="#DejaVuSans-79"/>
      <use x="78.710938" xlink:href="#DejaVuSans-120"/>
      <use x="137.890625" xlink:href="#DejaVuSans-102"/>
      <use x="173.095703" xlink:href="#DejaVuSans-111"/>
      <use x="234.277344" xlink:href="#DejaVuSans-114"/>
      <use x="273.640625" xlink:href="#DejaVuSans-100"/>
      <use x="337.117188" xlink:href="#DejaVuSans-115"/>
      <use x="389.216797" xlink:href="#DejaVuSans-104"/>
      <use x="452.595703" xlink:href="#DejaVuSans-105"/>
      <use x="480.378906" xlink:href="#DejaVuSans-114"/>
      <use x="519.242188" xlink:href="#DejaVuSans-101"/>
     </g>
    </g>
    <g id="line2d_33">
     <path d="M 49.425 127.967188 
L 69.425 127.967188 
" style="fill:none;stroke:#e377c2;stroke-linecap:square;stroke-width:1.75;"/>
    </g>
    <g id="line2d_34"/>
    <g id="text_22">
     <!-- Cumbria -->
     <g transform="translate(77.425 131.467188)scale(0.1 -0.1)">
      <use xlink:href="#DejaVuSans-67"/>
      <use x="69.824219" xlink:href="#DejaVuSans-117"/>
      <use x="133.203125" xlink:href="#DejaVuSans-109"/>
      <use x="230.615234" xlink:href="#DejaVuSans-98"/>
      <use x="294.091797" xlink:href="#DejaVuSans-114"/>
      <use x="335.205078" xlink:href="#DejaVuSans-105"/>
      <use x="362.988281" xlink:href="#DejaVuSans-97"/>
     </g>
    </g>
   </g>
  </g>
 </g>
 <defs>
  <clipPath id="p771a9d4c62">
   <rect height="304.302246" width="524.775" x="40.425" y="26.8"/>
  </clipPath>
 </defs>
</svg>
