<?xml version="1.0" encoding="utf-8" standalone="no"?>
<!DOCTYPE svg PUBLIC "-//W3C//DTD SVG 1.1//EN"
  "http://www.w3.org/Graphics/SVG/1.1/DTD/svg11.dtd">
<!-- Created with matplotlib (https://matplotlib.org/) -->
<svg height="396pt" version="1.1" viewBox="0 0 576 396" width="576pt" xmlns="http://www.w3.org/2000/svg" xmlns:xlink="http://www.w3.org/1999/xlink">
 <defs>
  <style type="text/css">
*{stroke-linecap:butt;stroke-linejoin:round;}
  </style>
 </defs>
 <g id="figure_1">
  <g id="patch_1">
   <path d="M 0 396 
L 576 396 
L 576 0 
L 0 0 
z
" style="fill:#ffffff;"/>
  </g>
  <g id="axes_1">
   <g id="patch_2">
    <path d="M 43.978963 331.102246 
L 565.2 331.102246 
L 565.2 26.8 
L 43.978963 26.8 
z
" style="fill:#ffffff;"/>
   </g>
   <g id="matplotlib.axis_1">
    <g id="xtick_1">
     <g id="line2d_1">
      <defs>
       <path d="M 0 0 
L 0 3.5 
" id="m02b68ae1e0" style="stroke:#000000;"/>
      </defs>
      <g>
       <use style="stroke:#000000;" x="53.420082" xlink:href="#m02b68ae1e0" y="331.102246"/>
      </g>
     </g>
     <g id="text_1">
      <!-- 2020-01 -->
      <defs>
       <path d="M 19.1875 8.296875 
L 53.609375 8.296875 
L 53.609375 0 
L 7.328125 0 
L 7.328125 8.296875 
Q 12.9375 14.109375 22.625 23.890625 
Q 32.328125 33.6875 34.8125 36.53125 
Q 39.546875 41.84375 41.421875 45.53125 
Q 43.3125 49.21875 43.3125 52.78125 
Q 43.3125 58.59375 39.234375 62.25 
Q 35.15625 65.921875 28.609375 65.921875 
Q 23.96875 65.921875 18.8125 64.3125 
Q 13.671875 62.703125 7.8125 59.421875 
L 7.8125 69.390625 
Q 13.765625 71.78125 18.9375 73 
Q 24.125 74.21875 28.421875 74.21875 
Q 39.75 74.21875 46.484375 68.546875 
Q 53.21875 62.890625 53.21875 53.421875 
Q 53.21875 48.921875 51.53125 44.890625 
Q 49.859375 40.875 45.40625 35.40625 
Q 44.1875 33.984375 37.640625 27.21875 
Q 31.109375 20.453125 19.1875 8.296875 
z
" id="DejaVuSans-50"/>
       <path d="M 31.78125 66.40625 
Q 24.171875 66.40625 20.328125 58.90625 
Q 16.5 51.421875 16.5 36.375 
Q 16.5 21.390625 20.328125 13.890625 
Q 24.171875 6.390625 31.78125 6.390625 
Q 39.453125 6.390625 43.28125 13.890625 
Q 47.125 21.390625 47.125 36.375 
Q 47.125 51.421875 43.28125 58.90625 
Q 39.453125 66.40625 31.78125 66.40625 
z
M 31.78125 74.21875 
Q 44.046875 74.21875 50.515625 64.515625 
Q 56.984375 54.828125 56.984375 36.375 
Q 56.984375 17.96875 50.515625 8.265625 
Q 44.046875 -1.421875 31.78125 -1.421875 
Q 19.53125 -1.421875 13.0625 8.265625 
Q 6.59375 17.96875 6.59375 36.375 
Q 6.59375 54.828125 13.0625 64.515625 
Q 19.53125 74.21875 31.78125 74.21875 
z
" id="DejaVuSans-48"/>
       <path d="M 4.890625 31.390625 
L 31.203125 31.390625 
L 31.203125 23.390625 
L 4.890625 23.390625 
z
" id="DejaVuSans-45"/>
       <path d="M 12.40625 8.296875 
L 28.515625 8.296875 
L 28.515625 63.921875 
L 10.984375 60.40625 
L 10.984375 69.390625 
L 28.421875 72.90625 
L 38.28125 72.90625 
L 38.28125 8.296875 
L 54.390625 8.296875 
L 54.390625 0 
L 12.40625 0 
z
" id="DejaVuSans-49"/>
      </defs>
      <g transform="translate(16.195261 369.074092)rotate(-30)scale(0.1 -0.1)">
       <use xlink:href="#DejaVuSans-50"/>
       <use x="63.623047" xlink:href="#DejaVuSans-48"/>
       <use x="127.246094" xlink:href="#DejaVuSans-50"/>
       <use x="190.869141" xlink:href="#DejaVuSans-48"/>
       <use x="254.492188" xlink:href="#DejaVuSans-45"/>
       <use x="290.576172" xlink:href="#DejaVuSans-48"/>
       <use x="354.199219" xlink:href="#DejaVuSans-49"/>
      </g>
     </g>
    </g>
    <g id="xtick_2">
     <g id="line2d_2">
      <g>
       <use style="stroke:#000000;" x="108.641723" xlink:href="#m02b68ae1e0" y="331.102246"/>
      </g>
     </g>
     <g id="text_2">
      <!-- 2020-02 -->
      <g transform="translate(71.416902 369.074092)rotate(-30)scale(0.1 -0.1)">
       <use xlink:href="#DejaVuSans-50"/>
       <use x="63.623047" xlink:href="#DejaVuSans-48"/>
       <use x="127.246094" xlink:href="#DejaVuSans-50"/>
       <use x="190.869141" xlink:href="#DejaVuSans-48"/>
       <use x="254.492188" xlink:href="#DejaVuSans-45"/>
       <use x="290.576172" xlink:href="#DejaVuSans-48"/>
       <use x="354.199219" xlink:href="#DejaVuSans-50"/>
      </g>
     </g>
    </g>
    <g id="xtick_3">
     <g id="line2d_3">
      <g>
       <use style="stroke:#000000;" x="160.300678" xlink:href="#m02b68ae1e0" y="331.102246"/>
      </g>
     </g>
     <g id="text_3">
      <!-- 2020-03 -->
      <defs>
       <path d="M 40.578125 39.3125 
Q 47.65625 37.796875 51.625 33 
Q 55.609375 28.21875 55.609375 21.1875 
Q 55.609375 10.40625 48.1875 4.484375 
Q 40.765625 -1.421875 27.09375 -1.421875 
Q 22.515625 -1.421875 17.65625 -0.515625 
Q 12.796875 0.390625 7.625 2.203125 
L 7.625 11.71875 
Q 11.71875 9.328125 16.59375 8.109375 
Q 21.484375 6.890625 26.8125 6.890625 
Q 36.078125 6.890625 40.9375 10.546875 
Q 45.796875 14.203125 45.796875 21.1875 
Q 45.796875 27.640625 41.28125 31.265625 
Q 36.765625 34.90625 28.71875 34.90625 
L 20.21875 34.90625 
L 20.21875 43.015625 
L 29.109375 43.015625 
Q 36.375 43.015625 40.234375 45.921875 
Q 44.09375 48.828125 44.09375 54.296875 
Q 44.09375 59.90625 40.109375 62.90625 
Q 36.140625 65.921875 28.71875 65.921875 
Q 24.65625 65.921875 20.015625 65.03125 
Q 15.375 64.15625 9.8125 62.3125 
L 9.8125 71.09375 
Q 15.4375 72.65625 20.34375 73.4375 
Q 25.25 74.21875 29.59375 74.21875 
Q 40.828125 74.21875 47.359375 69.109375 
Q 53.90625 64.015625 53.90625 55.328125 
Q 53.90625 49.265625 50.4375 45.09375 
Q 46.96875 40.921875 40.578125 39.3125 
z
" id="DejaVuSans-51"/>
      </defs>
      <g transform="translate(123.075857 369.074092)rotate(-30)scale(0.1 -0.1)">
       <use xlink:href="#DejaVuSans-50"/>
       <use x="63.623047" xlink:href="#DejaVuSans-48"/>
       <use x="127.246094" xlink:href="#DejaVuSans-50"/>
       <use x="190.869141" xlink:href="#DejaVuSans-48"/>
       <use x="254.492188" xlink:href="#DejaVuSans-45"/>
       <use x="290.576172" xlink:href="#DejaVuSans-48"/>
       <use x="354.199219" xlink:href="#DejaVuSans-51"/>
      </g>
     </g>
    </g>
    <g id="xtick_4">
     <g id="line2d_4">
      <g>
       <use style="stroke:#000000;" x="215.522319" xlink:href="#m02b68ae1e0" y="331.102246"/>
      </g>
     </g>
     <g id="text_4">
      <!-- 2020-04 -->
      <defs>
       <path d="M 37.796875 64.3125 
L 12.890625 25.390625 
L 37.796875 25.390625 
z
M 35.203125 72.90625 
L 47.609375 72.90625 
L 47.609375 25.390625 
L 58.015625 25.390625 
L 58.015625 17.1875 
L 47.609375 17.1875 
L 47.609375 0 
L 37.796875 0 
L 37.796875 17.1875 
L 4.890625 17.1875 
L 4.890625 26.703125 
z
" id="DejaVuSans-52"/>
      </defs>
      <g transform="translate(178.297498 369.074092)rotate(-30)scale(0.1 -0.1)">
       <use xlink:href="#DejaVuSans-50"/>
       <use x="63.623047" xlink:href="#DejaVuSans-48"/>
       <use x="127.246094" xlink:href="#DejaVuSans-50"/>
       <use x="190.869141" xlink:href="#DejaVuSans-48"/>
       <use x="254.492188" xlink:href="#DejaVuSans-45"/>
       <use x="290.576172" xlink:href="#DejaVuSans-48"/>
       <use x="354.199219" xlink:href="#DejaVuSans-52"/>
      </g>
     </g>
    </g>
    <g id="xtick_5">
     <g id="line2d_5">
      <g>
       <use style="stroke:#000000;" x="268.962616" xlink:href="#m02b68ae1e0" y="331.102246"/>
      </g>
     </g>
     <g id="text_5">
      <!-- 2020-05 -->
      <defs>
       <path d="M 10.796875 72.90625 
L 49.515625 72.90625 
L 49.515625 64.59375 
L 19.828125 64.59375 
L 19.828125 46.734375 
Q 21.96875 47.46875 24.109375 47.828125 
Q 26.265625 48.1875 28.421875 48.1875 
Q 40.625 48.1875 47.75 41.5 
Q 54.890625 34.8125 54.890625 23.390625 
Q 54.890625 11.625 47.5625 5.09375 
Q 40.234375 -1.421875 26.90625 -1.421875 
Q 22.3125 -1.421875 17.546875 -0.640625 
Q 12.796875 0.140625 7.71875 1.703125 
L 7.71875 11.625 
Q 12.109375 9.234375 16.796875 8.0625 
Q 21.484375 6.890625 26.703125 6.890625 
Q 35.15625 6.890625 40.078125 11.328125 
Q 45.015625 15.765625 45.015625 23.390625 
Q 45.015625 31 40.078125 35.4375 
Q 35.15625 39.890625 26.703125 39.890625 
Q 22.75 39.890625 18.8125 39.015625 
Q 14.890625 38.140625 10.796875 36.28125 
z
" id="DejaVuSans-53"/>
      </defs>
      <g transform="translate(231.737795 369.074092)rotate(-30)scale(0.1 -0.1)">
       <use xlink:href="#DejaVuSans-50"/>
       <use x="63.623047" xlink:href="#DejaVuSans-48"/>
       <use x="127.246094" xlink:href="#DejaVuSans-50"/>
       <use x="190.869141" xlink:href="#DejaVuSans-48"/>
       <use x="254.492188" xlink:href="#DejaVuSans-45"/>
       <use x="290.576172" xlink:href="#DejaVuSans-48"/>
       <use x="354.199219" xlink:href="#DejaVuSans-53"/>
      </g>
     </g>
    </g>
    <g id="xtick_6">
     <g id="line2d_6">
      <g>
       <use style="stroke:#000000;" x="324.184257" xlink:href="#m02b68ae1e0" y="331.102246"/>
      </g>
     </g>
     <g id="text_6">
      <!-- 2020-06 -->
      <defs>
       <path d="M 33.015625 40.375 
Q 26.375 40.375 22.484375 35.828125 
Q 18.609375 31.296875 18.609375 23.390625 
Q 18.609375 15.53125 22.484375 10.953125 
Q 26.375 6.390625 33.015625 6.390625 
Q 39.65625 6.390625 43.53125 10.953125 
Q 47.40625 15.53125 47.40625 23.390625 
Q 47.40625 31.296875 43.53125 35.828125 
Q 39.65625 40.375 33.015625 40.375 
z
M 52.59375 71.296875 
L 52.59375 62.3125 
Q 48.875 64.0625 45.09375 64.984375 
Q 41.3125 65.921875 37.59375 65.921875 
Q 27.828125 65.921875 22.671875 59.328125 
Q 17.53125 52.734375 16.796875 39.40625 
Q 19.671875 43.65625 24.015625 45.921875 
Q 28.375 48.1875 33.59375 48.1875 
Q 44.578125 48.1875 50.953125 41.515625 
Q 57.328125 34.859375 57.328125 23.390625 
Q 57.328125 12.15625 50.6875 5.359375 
Q 44.046875 -1.421875 33.015625 -1.421875 
Q 20.359375 -1.421875 13.671875 8.265625 
Q 6.984375 17.96875 6.984375 36.375 
Q 6.984375 53.65625 15.1875 63.9375 
Q 23.390625 74.21875 37.203125 74.21875 
Q 40.921875 74.21875 44.703125 73.484375 
Q 48.484375 72.75 52.59375 71.296875 
z
" id="DejaVuSans-54"/>
      </defs>
      <g transform="translate(286.959436 369.074092)rotate(-30)scale(0.1 -0.1)">
       <use xlink:href="#DejaVuSans-50"/>
       <use x="63.623047" xlink:href="#DejaVuSans-48"/>
       <use x="127.246094" xlink:href="#DejaVuSans-50"/>
       <use x="190.869141" xlink:href="#DejaVuSans-48"/>
       <use x="254.492188" xlink:href="#DejaVuSans-45"/>
       <use x="290.576172" xlink:href="#DejaVuSans-48"/>
       <use x="354.199219" xlink:href="#DejaVuSans-54"/>
      </g>
     </g>
    </g>
    <g id="xtick_7">
     <g id="line2d_7">
      <g>
       <use style="stroke:#000000;" x="377.624555" xlink:href="#m02b68ae1e0" y="331.102246"/>
      </g>
     </g>
     <g id="text_7">
      <!-- 2020-07 -->
      <defs>
       <path d="M 8.203125 72.90625 
L 55.078125 72.90625 
L 55.078125 68.703125 
L 28.609375 0 
L 18.3125 0 
L 43.21875 64.59375 
L 8.203125 64.59375 
z
" id="DejaVuSans-55"/>
      </defs>
      <g transform="translate(340.399734 369.074092)rotate(-30)scale(0.1 -0.1)">
       <use xlink:href="#DejaVuSans-50"/>
       <use x="63.623047" xlink:href="#DejaVuSans-48"/>
       <use x="127.246094" xlink:href="#DejaVuSans-50"/>
       <use x="190.869141" xlink:href="#DejaVuSans-48"/>
       <use x="254.492188" xlink:href="#DejaVuSans-45"/>
       <use x="290.576172" xlink:href="#DejaVuSans-48"/>
       <use x="354.199219" xlink:href="#DejaVuSans-55"/>
      </g>
     </g>
    </g>
    <g id="xtick_8">
     <g id="line2d_8">
      <g>
       <use style="stroke:#000000;" x="432.846196" xlink:href="#m02b68ae1e0" y="331.102246"/>
      </g>
     </g>
     <g id="text_8">
      <!-- 2020-08 -->
      <defs>
       <path d="M 31.78125 34.625 
Q 24.75 34.625 20.71875 30.859375 
Q 16.703125 27.09375 16.703125 20.515625 
Q 16.703125 13.921875 20.71875 10.15625 
Q 24.75 6.390625 31.78125 6.390625 
Q 38.8125 6.390625 42.859375 10.171875 
Q 46.921875 13.96875 46.921875 20.515625 
Q 46.921875 27.09375 42.890625 30.859375 
Q 38.875 34.625 31.78125 34.625 
z
M 21.921875 38.8125 
Q 15.578125 40.375 12.03125 44.71875 
Q 8.5 49.078125 8.5 55.328125 
Q 8.5 64.0625 14.71875 69.140625 
Q 20.953125 74.21875 31.78125 74.21875 
Q 42.671875 74.21875 48.875 69.140625 
Q 55.078125 64.0625 55.078125 55.328125 
Q 55.078125 49.078125 51.53125 44.71875 
Q 48 40.375 41.703125 38.8125 
Q 48.828125 37.15625 52.796875 32.3125 
Q 56.78125 27.484375 56.78125 20.515625 
Q 56.78125 9.90625 50.3125 4.234375 
Q 43.84375 -1.421875 31.78125 -1.421875 
Q 19.734375 -1.421875 13.25 4.234375 
Q 6.78125 9.90625 6.78125 20.515625 
Q 6.78125 27.484375 10.78125 32.3125 
Q 14.796875 37.15625 21.921875 38.8125 
z
M 18.3125 54.390625 
Q 18.3125 48.734375 21.84375 45.5625 
Q 25.390625 42.390625 31.78125 42.390625 
Q 38.140625 42.390625 41.71875 45.5625 
Q 45.3125 48.734375 45.3125 54.390625 
Q 45.3125 60.0625 41.71875 63.234375 
Q 38.140625 66.40625 31.78125 66.40625 
Q 25.390625 66.40625 21.84375 63.234375 
Q 18.3125 60.0625 18.3125 54.390625 
z
" id="DejaVuSans-56"/>
      </defs>
      <g transform="translate(395.621375 369.074092)rotate(-30)scale(0.1 -0.1)">
       <use xlink:href="#DejaVuSans-50"/>
       <use x="63.623047" xlink:href="#DejaVuSans-48"/>
       <use x="127.246094" xlink:href="#DejaVuSans-50"/>
       <use x="190.869141" xlink:href="#DejaVuSans-48"/>
       <use x="254.492188" xlink:href="#DejaVuSans-45"/>
       <use x="290.576172" xlink:href="#DejaVuSans-48"/>
       <use x="354.199219" xlink:href="#DejaVuSans-56"/>
      </g>
     </g>
    </g>
    <g id="xtick_9">
     <g id="line2d_9">
      <g>
       <use style="stroke:#000000;" x="488.067837" xlink:href="#m02b68ae1e0" y="331.102246"/>
      </g>
     </g>
     <g id="text_9">
      <!-- 2020-09 -->
      <defs>
       <path d="M 10.984375 1.515625 
L 10.984375 10.5 
Q 14.703125 8.734375 18.5 7.8125 
Q 22.3125 6.890625 25.984375 6.890625 
Q 35.75 6.890625 40.890625 13.453125 
Q 46.046875 20.015625 46.78125 33.40625 
Q 43.953125 29.203125 39.59375 26.953125 
Q 35.25 24.703125 29.984375 24.703125 
Q 19.046875 24.703125 12.671875 31.3125 
Q 6.296875 37.9375 6.296875 49.421875 
Q 6.296875 60.640625 12.9375 67.421875 
Q 19.578125 74.21875 30.609375 74.21875 
Q 43.265625 74.21875 49.921875 64.515625 
Q 56.59375 54.828125 56.59375 36.375 
Q 56.59375 19.140625 48.40625 8.859375 
Q 40.234375 -1.421875 26.421875 -1.421875 
Q 22.703125 -1.421875 18.890625 -0.6875 
Q 15.09375 0.046875 10.984375 1.515625 
z
M 30.609375 32.421875 
Q 37.25 32.421875 41.125 36.953125 
Q 45.015625 41.5 45.015625 49.421875 
Q 45.015625 57.28125 41.125 61.84375 
Q 37.25 66.40625 30.609375 66.40625 
Q 23.96875 66.40625 20.09375 61.84375 
Q 16.21875 57.28125 16.21875 49.421875 
Q 16.21875 41.5 20.09375 36.953125 
Q 23.96875 32.421875 30.609375 32.421875 
z
" id="DejaVuSans-57"/>
      </defs>
      <g transform="translate(450.843016 369.074092)rotate(-30)scale(0.1 -0.1)">
       <use xlink:href="#DejaVuSans-50"/>
       <use x="63.623047" xlink:href="#DejaVuSans-48"/>
       <use x="127.246094" xlink:href="#DejaVuSans-50"/>
       <use x="190.869141" xlink:href="#DejaVuSans-48"/>
       <use x="254.492188" xlink:href="#DejaVuSans-45"/>
       <use x="290.576172" xlink:href="#DejaVuSans-48"/>
       <use x="354.199219" xlink:href="#DejaVuSans-57"/>
      </g>
     </g>
    </g>
    <g id="xtick_10">
     <g id="line2d_10">
      <g>
       <use style="stroke:#000000;" x="541.508135" xlink:href="#m02b68ae1e0" y="331.102246"/>
      </g>
     </g>
     <g id="text_10">
      <!-- 2020-10 -->
      <g transform="translate(504.283314 369.074092)rotate(-30)scale(0.1 -0.1)">
       <use xlink:href="#DejaVuSans-50"/>
       <use x="63.623047" xlink:href="#DejaVuSans-48"/>
       <use x="127.246094" xlink:href="#DejaVuSans-50"/>
       <use x="190.869141" xlink:href="#DejaVuSans-48"/>
       <use x="254.492188" xlink:href="#DejaVuSans-45"/>
       <use x="290.576172" xlink:href="#DejaVuSans-49"/>
       <use x="354.199219" xlink:href="#DejaVuSans-48"/>
      </g>
     </g>
    </g>
    <g id="text_11">
     <!-- Date -->
     <defs>
      <path d="M 19.671875 64.796875 
L 19.671875 8.109375 
L 31.59375 8.109375 
Q 46.6875 8.109375 53.6875 14.9375 
Q 60.6875 21.78125 60.6875 36.53125 
Q 60.6875 51.171875 53.6875 57.984375 
Q 46.6875 64.796875 31.59375 64.796875 
z
M 9.8125 72.90625 
L 30.078125 72.90625 
Q 51.265625 72.90625 61.171875 64.09375 
Q 71.09375 55.28125 71.09375 36.53125 
Q 71.09375 17.671875 61.125 8.828125 
Q 51.171875 0 30.078125 0 
L 9.8125 0 
z
" id="DejaVuSans-68"/>
      <path d="M 34.28125 27.484375 
Q 23.390625 27.484375 19.1875 25 
Q 14.984375 22.515625 14.984375 16.5 
Q 14.984375 11.71875 18.140625 8.90625 
Q 21.296875 6.109375 26.703125 6.109375 
Q 34.1875 6.109375 38.703125 11.40625 
Q 43.21875 16.703125 43.21875 25.484375 
L 43.21875 27.484375 
z
M 52.203125 31.203125 
L 52.203125 0 
L 43.21875 0 
L 43.21875 8.296875 
Q 40.140625 3.328125 35.546875 0.953125 
Q 30.953125 -1.421875 24.3125 -1.421875 
Q 15.921875 -1.421875 10.953125 3.296875 
Q 6 8.015625 6 15.921875 
Q 6 25.140625 12.171875 29.828125 
Q 18.359375 34.515625 30.609375 34.515625 
L 43.21875 34.515625 
L 43.21875 35.40625 
Q 43.21875 41.609375 39.140625 45 
Q 35.0625 48.390625 27.6875 48.390625 
Q 23 48.390625 18.546875 47.265625 
Q 14.109375 46.140625 10.015625 43.890625 
L 10.015625 52.203125 
Q 14.9375 54.109375 19.578125 55.046875 
Q 24.21875 56 28.609375 56 
Q 40.484375 56 46.34375 49.84375 
Q 52.203125 43.703125 52.203125 31.203125 
z
" id="DejaVuSans-97"/>
      <path d="M 18.3125 70.21875 
L 18.3125 54.6875 
L 36.8125 54.6875 
L 36.8125 47.703125 
L 18.3125 47.703125 
L 18.3125 18.015625 
Q 18.3125 11.328125 20.140625 9.421875 
Q 21.96875 7.515625 27.59375 7.515625 
L 36.8125 7.515625 
L 36.8125 0 
L 27.59375 0 
Q 17.1875 0 13.234375 3.875 
Q 9.28125 7.765625 9.28125 18.015625 
L 9.28125 47.703125 
L 2.6875 47.703125 
L 2.6875 54.6875 
L 9.28125 54.6875 
L 9.28125 70.21875 
z
" id="DejaVuSans-116"/>
      <path d="M 56.203125 29.59375 
L 56.203125 25.203125 
L 14.890625 25.203125 
Q 15.484375 15.921875 20.484375 11.0625 
Q 25.484375 6.203125 34.421875 6.203125 
Q 39.59375 6.203125 44.453125 7.46875 
Q 49.3125 8.734375 54.109375 11.28125 
L 54.109375 2.78125 
Q 49.265625 0.734375 44.1875 -0.34375 
Q 39.109375 -1.421875 33.890625 -1.421875 
Q 20.796875 -1.421875 13.15625 6.1875 
Q 5.515625 13.8125 5.515625 26.8125 
Q 5.515625 40.234375 12.765625 48.109375 
Q 20.015625 56 32.328125 56 
Q 43.359375 56 49.78125 48.890625 
Q 56.203125 41.796875 56.203125 29.59375 
z
M 47.21875 32.234375 
Q 47.125 39.59375 43.09375 43.984375 
Q 39.0625 48.390625 32.421875 48.390625 
Q 24.90625 48.390625 20.390625 44.140625 
Q 15.875 39.890625 15.1875 32.171875 
z
" id="DejaVuSans-101"/>
     </defs>
     <g transform="translate(291.443622 383.233436)scale(0.11 -0.11)">
      <use xlink:href="#DejaVuSans-68"/>
      <use x="77.001953" xlink:href="#DejaVuSans-97"/>
      <use x="138.28125" xlink:href="#DejaVuSans-116"/>
      <use x="177.490234" xlink:href="#DejaVuSans-101"/>
     </g>
    </g>
   </g>
   <g id="matplotlib.axis_2">
    <g id="ytick_1">
     <g id="line2d_11">
      <defs>
       <path d="M 0 0 
L -3.5 0 
" id="mda4436b2b6" style="stroke:#000000;"/>
      </defs>
      <g>
       <use style="stroke:#000000;" x="43.978963" xlink:href="#mda4436b2b6" y="317.270326"/>
      </g>
     </g>
     <g id="text_12">
      <!-- 0 -->
      <g transform="translate(27.116463 321.069544)scale(0.1 -0.1)">
       <use xlink:href="#DejaVuSans-48"/>
      </g>
     </g>
    </g>
    <g id="ytick_2">
     <g id="line2d_12">
      <g>
       <use style="stroke:#000000;" x="43.978963" xlink:href="#mda4436b2b6" y="280.636688"/>
      </g>
     </g>
     <g id="text_13">
      <!-- 20 -->
      <g transform="translate(20.753963 284.435907)scale(0.1 -0.1)">
       <use xlink:href="#DejaVuSans-50"/>
       <use x="63.623047" xlink:href="#DejaVuSans-48"/>
      </g>
     </g>
    </g>
    <g id="ytick_3">
     <g id="line2d_13">
      <g>
       <use style="stroke:#000000;" x="43.978963" xlink:href="#mda4436b2b6" y="244.00305"/>
      </g>
     </g>
     <g id="text_14">
      <!-- 40 -->
      <g transform="translate(20.753963 247.802269)scale(0.1 -0.1)">
       <use xlink:href="#DejaVuSans-52"/>
       <use x="63.623047" xlink:href="#DejaVuSans-48"/>
      </g>
     </g>
    </g>
    <g id="ytick_4">
     <g id="line2d_14">
      <g>
       <use style="stroke:#000000;" x="43.978963" xlink:href="#mda4436b2b6" y="207.369413"/>
      </g>
     </g>
     <g id="text_15">
      <!-- 60 -->
      <g transform="translate(20.753963 211.168631)scale(0.1 -0.1)">
       <use xlink:href="#DejaVuSans-54"/>
       <use x="63.623047" xlink:href="#DejaVuSans-48"/>
      </g>
     </g>
    </g>
    <g id="ytick_5">
     <g id="line2d_15">
      <g>
       <use style="stroke:#000000;" x="43.978963" xlink:href="#mda4436b2b6" y="170.735775"/>
      </g>
     </g>
     <g id="text_16">
      <!-- 80 -->
      <g transform="translate(20.753963 174.534994)scale(0.1 -0.1)">
       <use xlink:href="#DejaVuSans-56"/>
       <use x="63.623047" xlink:href="#DejaVuSans-48"/>
      </g>
     </g>
    </g>
    <g id="ytick_6">
     <g id="line2d_16">
      <g>
       <use style="stroke:#000000;" x="43.978963" xlink:href="#mda4436b2b6" y="134.102137"/>
      </g>
     </g>
     <g id="text_17">
      <!-- 100 -->
      <g transform="translate(14.391463 137.901356)scale(0.1 -0.1)">
       <use xlink:href="#DejaVuSans-49"/>
       <use x="63.623047" xlink:href="#DejaVuSans-48"/>
       <use x="127.246094" xlink:href="#DejaVuSans-48"/>
      </g>
     </g>
    </g>
    <g id="ytick_7">
     <g id="line2d_17">
      <g>
       <use style="stroke:#000000;" x="43.978963" xlink:href="#mda4436b2b6" y="97.468499"/>
      </g>
     </g>
     <g id="text_18">
      <!-- 120 -->
      <g transform="translate(14.391463 101.267718)scale(0.1 -0.1)">
       <use xlink:href="#DejaVuSans-49"/>
       <use x="63.623047" xlink:href="#DejaVuSans-50"/>
       <use x="127.246094" xlink:href="#DejaVuSans-48"/>
      </g>
     </g>
    </g>
    <g id="ytick_8">
     <g id="line2d_18">
      <g>
       <use style="stroke:#000000;" x="43.978963" xlink:href="#mda4436b2b6" y="60.834862"/>
      </g>
     </g>
     <g id="text_19">
      <!-- 140 -->
      <g transform="translate(14.391463 64.63408)scale(0.1 -0.1)">
       <use xlink:href="#DejaVuSans-49"/>
       <use x="63.623047" xlink:href="#DejaVuSans-52"/>
       <use x="127.246094" xlink:href="#DejaVuSans-48"/>
      </g>
     </g>
    </g>
   </g>
   <g id="line2d_19">
    <path clip-path="url(#p5adb9ebead)" d="M 67.670828 317.270326 
L 158.519334 317.21454 
L 167.426051 316.842633 
L 178.11411 315.829187 
L 179.895453 315.485173 
L 181.676797 314.927312 
L 183.45814 314.174201 
L 185.239483 313.267678 
L 187.020826 313.002694 
L 188.80217 311.538311 
L 190.583513 308.925665 
L 194.146199 304.537164 
L 195.927543 301.413147 
L 197.708886 300.102175 
L 199.490229 296.866585 
L 201.271572 292.69658 
L 203.052916 290.348917 
L 204.834259 284.607605 
L 206.615602 275.877092 
L 208.396945 269.991665 
L 210.178289 262.902191 
L 211.959632 256.79362 
L 213.740975 251.419566 
L 215.522319 239.797477 
L 217.303662 231.550442 
L 219.085005 226.576188 
L 220.866348 222.991935 
L 222.647692 208.826932 
L 224.429035 203.857327 
L 226.210378 201.235383 
L 227.991721 195.852032 
L 229.773065 194.852532 
L 231.554408 191.658782 
L 233.335751 187.330716 
L 235.117094 194.001795 
L 236.898438 194.824639 
L 238.679781 190.752259 
L 240.461124 198.190396 
L 242.242467 201.351604 
L 245.805154 204.00609 
L 247.586497 204.308264 
L 249.36784 207.088268 
L 251.149184 210.653925 
L 252.930527 211.434929 
L 254.71187 211.59299 
L 256.493213 216.153498 
L 258.274557 219.509957 
L 260.0559 226.274013 
L 261.837243 226.910904 
L 263.618586 232.015325 
L 265.39993 239.532493 
L 267.181273 242.321795 
L 268.962616 244.660159 
L 270.743959 247.440163 
L 272.525303 248.058458 
L 274.306646 251.679901 
L 276.087989 252.36328 
L 277.869333 251.396322 
L 279.650676 253.028063 
L 281.432019 256.779674 
L 283.213362 260.866001 
L 284.994706 265.570622 
L 286.776049 268.332031 
L 288.557392 271.934879 
L 290.338735 274.096587 
L 292.120079 278.485088 
L 293.901422 281.190711 
L 297.464108 283.199008 
L 299.245452 283.547671 
L 301.026795 284.523926 
L 304.589481 287.578211 
L 306.370825 287.713028 
L 308.152168 288.442895 
L 309.933511 289.391257 
L 311.714854 290.888182 
L 313.496198 292.585007 
L 315.277541 293.584507 
L 317.058884 295.141867 
L 318.840227 297.573208 
L 322.402914 300.027794 
L 324.184257 300.957561 
L 325.9656 301.180705 
L 327.746944 301.864084 
L 331.30963 302.779904 
L 333.090974 304.142013 
L 334.872317 304.569706 
L 336.65366 305.508771 
L 338.435003 304.546462 
L 340.216347 306.401348 
L 341.99769 306.99175 
L 345.560376 307.498473 
L 347.34172 307.200947 
L 349.123063 306.610545 
L 350.904406 308.465431 
L 352.685749 307.586801 
L 354.467093 307.693724 
L 359.811122 308.595598 
L 363.373809 308.981451 
L 365.155152 309.655533 
L 366.936495 309.748509 
L 370.499182 311.050183 
L 374.061868 311.756806 
L 375.843212 311.82189 
L 377.624555 311.496472 
L 379.405898 310.278477 
L 381.187241 308.758307 
L 382.968585 306.959208 
L 384.749928 305.332115 
L 386.531271 304.253585 
L 388.312615 302.505623 
L 390.093958 300.511273 
L 391.875301 300.074282 
L 393.656644 300.176556 
L 395.437988 299.121271 
L 397.219331 298.549464 
L 399.000674 297.777757 
L 400.782017 298.707524 
L 402.563361 299.172408 
L 404.344704 299.265385 
L 406.126047 298.544815 
L 407.90739 298.591303 
L 411.470077 298.149664 
L 415.032763 297.963711 
L 416.814107 297.475583 
L 418.59545 297.229194 
L 420.376793 297.628994 
L 422.158136 297.401201 
L 423.93948 297.024646 
L 425.720823 296.336618 
L 427.502166 295.495179 
L 431.064853 294.398053 
L 432.846196 294.342267 
L 434.627539 294.551465 
L 436.408882 293.435744 
L 438.190226 293.110326 
L 439.971569 292.626847 
L 441.752912 292.561763 
L 443.534255 292.645442 
L 445.315599 292.845342 
L 447.096942 291.394905 
L 448.878285 292.124773 
L 450.659629 290.181559 
L 452.440972 289.61905 
L 454.222315 288.535871 
L 456.003658 286.26724 
L 457.785002 285.081786 
L 459.566345 285.249145 
L 463.129031 285.830249 
L 464.910375 286.843695 
L 466.691718 286.955267 
L 468.473061 288.70323 
L 470.254404 288.117476 
L 472.035748 288.18256 
L 473.817091 287.606104 
L 475.598434 287.187709 
L 477.379777 286.406705 
L 479.161121 284.942321 
L 480.942464 284.021852 
L 482.723807 284.807505 
L 484.50515 282.255294 
L 486.286494 280.437599 
L 488.067837 280.549172 
L 489.84918 278.856995 
L 491.630523 278.127128 
L 495.19321 272.785616 
L 496.974553 267.723033 
L 498.755896 261.312289 
L 504.099926 246.57083 
L 507.662613 232.601079 
L 509.443956 231.387733 
L 511.225299 232.638269 
L 513.006643 230.058166 
L 514.787986 224.897958 
L 516.569329 223.921702 
L 520.132016 218.073467 
L 521.913359 216.018681 
L 525.476045 201.918762 
L 527.257389 194.076176 
L 529.038732 180.854887 
L 530.820075 171.78036 
L 532.601418 167.126875 
L 534.382762 160.055996 
L 536.164105 162.092186 
L 537.945448 155.28629 
L 539.726791 152.622507 
L 541.508135 152.822407 
L 541.508135 152.822407 
" style="fill:none;stroke:#1f77b4;stroke-linecap:square;stroke-width:1.75;"/>
   </g>
   <g id="line2d_20">
    <path clip-path="url(#p5adb9ebead)" d="M 67.670828 317.270326 
L 163.863364 317.22243 
L 167.426051 316.982951 
L 170.988737 316.503994 
L 174.551424 316.216619 
L 176.332767 316.025036 
L 178.11411 315.689766 
L 181.676797 313.72604 
L 185.239483 310.8044 
L 187.020826 310.181755 
L 188.80217 309.22384 
L 190.583513 308.122238 
L 192.364856 307.403802 
L 194.146199 305.919033 
L 195.927543 305.200597 
L 197.708886 304.673744 
L 201.271572 298.63888 
L 203.052916 293.705618 
L 204.834259 287.191796 
L 206.615602 281.971159 
L 208.396945 275.505233 
L 211.959632 266.30925 
L 213.740975 249.785217 
L 215.522319 241.06819 
L 217.303662 235.464388 
L 219.085005 224.256783 
L 220.866348 216.689255 
L 222.647692 206.056399 
L 224.429035 202.416322 
L 226.210378 210.175433 
L 227.991721 209.265414 
L 229.773065 204.475839 
L 231.554408 208.355394 
L 233.335751 209.744371 
L 235.117094 211.612305 
L 236.898438 216.40188 
L 238.679781 215.300278 
L 240.461124 212.713908 
L 242.242467 214.533946 
L 244.023811 215.060799 
L 245.805154 210.462807 
L 247.586497 208.307499 
L 249.36784 203.134758 
L 251.149184 206.439565 
L 252.930527 207.589062 
L 254.71187 206.774835 
L 256.493213 207.684854 
L 258.274557 210.414912 
L 260.0559 214.917112 
L 261.837243 218.078231 
L 263.618586 219.131938 
L 267.181273 224.160991 
L 268.962616 223.538347 
L 270.743959 227.417902 
L 272.525303 232.351164 
L 276.087989 235.081222 
L 277.869333 237.044948 
L 279.650676 242.026105 
L 281.432019 245.666182 
L 283.213362 251.269985 
L 284.994706 250.743132 
L 286.776049 252.084212 
L 288.557392 253.760564 
L 290.338735 258.837513 
L 292.120079 260.130698 
L 293.901422 264.05815 
L 295.682765 262.573381 
L 297.464108 266.931894 
L 299.245452 270.955137 
L 304.589481 281.875368 
L 306.370825 283.31224 
L 308.152168 288.820251 
L 309.933511 290.257124 
L 311.714854 290.352915 
L 313.496198 291.885579 
L 315.277541 293.849305 
L 317.058884 296.579362 
L 318.840227 300.123648 
L 320.621571 300.937876 
L 322.402914 302.949497 
L 324.184257 304.72164 
L 325.9656 303.572142 
L 327.746944 304.625848 
L 329.528287 304.577952 
L 331.30963 305.05691 
L 333.090974 306.685365 
L 336.65366 306.685365 
L 338.435003 308.5533 
L 340.216347 309.55911 
L 341.99769 311.091774 
L 345.560376 311.187566 
L 347.34172 310.852295 
L 349.123063 310.325442 
L 350.904406 310.277546 
L 352.685749 309.846485 
L 354.467093 310.133859 
L 356.248436 310.133859 
L 358.029779 309.89438 
L 359.811122 309.846485 
L 361.592466 310.564921 
L 363.373809 310.708608 
L 365.155152 311.283357 
L 366.936495 311.570732 
L 370.499182 312.576542 
L 372.280525 313.438666 
L 374.061868 313.869728 
L 377.624555 314.013415 
L 379.405898 314.013415 
L 382.968585 314.444477 
L 386.531271 314.444477 
L 388.312615 314.827643 
L 391.875301 314.827643 
L 393.656644 314.540268 
L 395.437988 314.731851 
L 397.219331 314.252894 
L 400.782017 314.109206 
L 402.563361 314.204998 
L 404.344704 313.965519 
L 406.126047 314.013415 
L 407.90739 313.342874 
L 409.688734 313.151291 
L 411.470077 313.103396 
L 413.25142 312.193376 
L 420.376793 311.283357 
L 422.158136 312.193376 
L 423.93948 312.384959 
L 425.720823 313.247083 
L 427.502166 312.672334 
L 429.283509 312.624438 
L 431.064853 312.145481 
L 432.846196 312.576542 
L 434.627539 311.283357 
L 436.408882 310.564921 
L 438.190226 309.654902 
L 439.971569 307.64328 
L 441.752912 305.296389 
L 443.534255 304.673744 
L 445.315599 302.662123 
L 447.096942 301.847895 
L 448.878285 301.321042 
L 450.659629 299.932065 
L 454.222315 301.656312 
L 456.003658 300.602605 
L 457.785002 301.033667 
L 461.347688 301.416833 
L 463.129031 301.56052 
L 464.910375 301.416833 
L 466.691718 299.979961 
L 468.473061 299.692586 
L 470.254404 296.244092 
L 473.817091 292.412432 
L 475.598434 292.651911 
L 477.379777 291.837683 
L 479.161121 292.268745 
L 480.942464 293.22666 
L 482.723807 294.903011 
L 484.50515 292.987181 
L 486.286494 288.484981 
L 488.067837 283.216449 
L 489.84918 278.953727 
L 491.630523 277.373167 
L 493.411867 272.200427 
L 495.19321 269.661952 
L 496.974553 265.590813 
L 498.755896 266.261354 
L 500.53724 265.207647 
L 502.318583 265.06396 
L 504.099926 262.190215 
L 505.88127 261.423883 
L 507.662613 257.592224 
L 509.443956 255.867977 
L 511.225299 259.508053 
L 513.006643 255.14954 
L 514.787986 249.9768 
L 516.569329 243.798248 
L 518.350672 242.457167 
L 520.132016 236.278616 
L 521.913359 236.23072 
L 523.694702 227.370006 
L 525.476045 221.8141 
L 527.257389 211.324931 
L 529.038732 202.943175 
L 532.601418 168.506132 
L 534.382762 163.764453 
L 536.164105 165.345013 
L 537.945448 145.085111 
L 539.726791 137.709166 
L 541.508135 127.986329 
L 541.508135 127.986329 
" style="fill:none;stroke:#ff7f0e;stroke-linecap:square;stroke-width:1.75;"/>
   </g>
   <g id="line2d_21">
    <path clip-path="url(#p5adb9ebead)" d="M 67.670828 317.270326 
L 165.644707 317.187332 
L 167.426051 317.104338 
L 170.988737 317.187332 
L 172.77008 317.187332 
L 176.332767 316.855358 
L 179.895453 315.361472 
L 181.676797 314.282555 
L 183.45814 312.456696 
L 185.239483 309.634913 
L 187.020826 307.311091 
L 188.80217 306.481155 
L 190.583513 306.149181 
L 192.364856 305.236251 
L 194.146199 304.572302 
L 195.927543 299.011729 
L 197.708886 296.27294 
L 199.490229 292.870201 
L 201.271572 288.886508 
L 203.052916 277.516382 
L 204.834259 269.880969 
L 206.615602 256.684983 
L 210.178289 243.07403 
L 211.959632 231.537917 
L 213.740975 227.222248 
L 215.522319 216.931039 
L 219.085005 189.045183 
L 220.866348 171.201555 
L 222.647692 154.934805 
L 224.429035 147.299392 
L 226.210378 132.443535 
L 227.991721 131.696592 
L 229.773065 153.938882 
L 231.554408 140.908884 
L 233.335751 144.809584 
L 235.117094 142.900731 
L 236.898438 141.987801 
L 238.679781 146.386463 
L 240.461124 147.299392 
L 242.242467 125.057102 
L 244.023811 146.469456 
L 245.805154 150.45315 
L 247.586497 153.191939 
L 249.36784 156.262703 
L 251.149184 150.785125 
L 252.930527 150.619137 
L 254.71187 154.768818 
L 256.493213 154.851812 
L 258.274557 154.270857 
L 260.0559 167.217861 
L 263.618586 179.251936 
L 265.39993 192.281934 
L 267.181273 196.514609 
L 268.962616 203.403079 
L 270.743959 213.030339 
L 272.525303 213.362314 
L 274.306646 214.026263 
L 276.087989 221.246708 
L 277.869333 223.072567 
L 279.650676 231.039955 
L 281.432019 231.703904 
L 283.213362 237.098489 
L 284.994706 233.031802 
L 286.776049 238.924349 
L 288.557392 242.244093 
L 290.338735 239.090336 
L 292.120079 235.687597 
L 293.901422 237.845432 
L 295.682765 232.450846 
L 297.464108 237.513457 
L 299.245452 239.42231 
L 301.026795 234.3597 
L 302.808138 236.268553 
L 304.589481 233.114795 
L 306.370825 232.118872 
L 308.152168 231.952885 
L 309.933511 233.778744 
L 311.714854 233.363776 
L 313.496198 235.438617 
L 315.277541 236.517534 
L 317.058884 244.318934 
L 318.840227 247.306704 
L 320.621571 255.523073 
L 322.402914 260.336703 
L 324.184257 264.237403 
L 325.9656 270.378931 
L 327.746944 271.623835 
L 329.528287 274.694599 
L 331.30963 276.852433 
L 334.872317 283.989884 
L 336.65366 285.400776 
L 338.435003 287.475616 
L 340.216347 291.127335 
L 341.99769 288.803514 
L 343.779033 288.720521 
L 345.560376 288.47154 
L 347.34172 288.554533 
L 349.123063 286.894661 
L 350.904406 284.985808 
L 352.685749 283.740903 
L 354.467093 284.985808 
L 356.248436 288.803514 
L 358.029779 290.463387 
L 359.811122 285.400776 
L 361.592466 284.653833 
L 363.373809 285.815744 
L 365.155152 286.313706 
L 366.936495 279.923197 
L 368.717839 277.101414 
L 370.499182 275.358548 
L 372.280525 281.583069 
L 374.061868 277.848356 
L 375.843212 279.923197 
L 377.624555 281.168101 
L 379.405898 288.139565 
L 381.187241 291.376316 
L 382.968585 292.37224 
L 384.749928 293.202176 
L 386.531271 302.165487 
L 388.312615 304.157334 
L 390.093958 305.734213 
L 391.875301 307.809053 
L 393.656644 309.136951 
L 395.437988 311.377779 
L 397.219331 311.294785 
L 399.000674 311.045804 
L 400.782017 309.468925 
L 402.563361 309.053957 
L 404.344704 308.88797 
L 406.126047 308.390008 
L 407.90739 308.141028 
L 409.688734 306.896123 
L 411.470077 306.564149 
L 413.25142 306.481155 
L 415.032763 306.149181 
L 416.814107 304.07434 
L 418.59545 301.667525 
L 420.376793 300.007653 
L 422.158136 300.754595 
L 423.93948 298.264787 
L 425.720823 298.34778 
L 427.502166 297.517844 
L 429.283509 300.339627 
L 431.064853 301.916506 
L 432.846196 302.663449 
L 434.627539 301.418544 
L 436.408882 303.16141 
L 438.190226 303.078417 
L 439.971569 304.572302 
L 441.752912 304.07434 
L 443.534255 304.821283 
L 445.315599 304.98727 
L 450.659629 307.643066 
L 452.440972 308.141028 
L 456.003658 308.058034 
L 457.785002 307.394085 
L 459.566345 308.058034 
L 461.347688 307.892047 
L 463.129031 306.979117 
L 464.910375 305.9002 
L 466.691718 305.568225 
L 468.473061 304.240327 
L 470.254404 303.659372 
L 472.035748 303.493385 
L 475.598434 302.746442 
L 477.379777 301.667525 
L 479.161121 300.339627 
L 480.942464 300.339627 
L 482.723807 299.841666 
L 484.50515 296.853895 
L 486.286494 295.194023 
L 488.067837 293.28517 
L 489.84918 292.621221 
L 491.630523 291.376316 
L 493.411867 289.965425 
L 495.19321 286.894661 
L 496.974553 283.408929 
L 500.53724 267.39116 
L 502.318583 257.182945 
L 504.099926 252.867277 
L 507.662613 238.841355 
L 509.443956 233.529763 
L 511.225299 229.380082 
L 513.006643 232.699827 
L 514.787986 229.878044 
L 516.569329 224.400465 
L 518.350672 220.084797 
L 520.132016 216.101103 
L 521.913359 213.030339 
L 523.694702 208.797665 
L 525.476045 194.605756 
L 529.038732 163.898116 
L 530.820075 152.693978 
L 534.382762 126.053026 
L 536.164105 121.737358 
L 537.945448 114.6829 
L 539.726791 114.765894 
L 541.508135 110.616213 
L 541.508135 110.616213 
" style="fill:none;stroke:#2ca02c;stroke-linecap:square;stroke-width:1.75;"/>
   </g>
   <g id="line2d_22">
    <path clip-path="url(#p5adb9ebead)" d="M 67.670828 317.270326 
L 167.426051 317.270326 
L 170.988737 316.717602 
L 172.77008 316.026696 
L 174.551424 315.612153 
L 176.332767 315.612153 
L 178.11411 315.335791 
L 179.895453 315.19761 
L 181.676797 314.092162 
L 183.45814 313.677619 
L 185.239483 312.848533 
L 187.020826 312.295809 
L 188.80217 310.913999 
L 190.583513 310.361275 
L 192.364856 309.255826 
L 194.146199 309.394007 
L 195.927543 307.04493 
L 197.708886 305.801301 
L 201.271572 302.070413 
L 203.052916 297.786802 
L 204.834259 294.608638 
L 206.615602 291.154113 
L 208.396945 287.423225 
L 210.178289 278.303278 
L 211.959632 264.070632 
L 213.740975 260.063383 
L 215.522319 250.943435 
L 217.303662 243.619841 
L 219.085005 230.354463 
L 220.866348 224.136317 
L 222.647692 223.445412 
L 224.429035 230.907187 
L 226.210378 224.827222 
L 227.991721 227.452662 
L 229.773065 220.129067 
L 231.554408 222.616326 
L 233.335751 217.918171 
L 235.117094 218.194533 
L 236.898438 217.227266 
L 238.679781 218.885438 
L 240.461124 213.77274 
L 242.242467 217.227266 
L 244.023811 213.77274 
L 245.805154 211.00912 
L 247.586497 201.336448 
L 249.36784 200.369181 
L 251.149184 207.969138 
L 252.930527 208.660043 
L 254.71187 204.652793 
L 256.493213 208.936405 
L 258.274557 215.01637 
L 260.0559 225.656308 
L 261.837243 228.005386 
L 263.618586 227.452662 
L 265.39993 235.881704 
L 267.181273 245.416194 
L 268.962616 248.041634 
L 270.743959 253.292513 
L 272.525303 253.845237 
L 274.306646 253.430694 
L 276.087989 251.910702 
L 277.869333 252.187064 
L 279.650676 255.365228 
L 281.432019 262.136098 
L 283.213362 263.517908 
L 286.776049 274.019666 
L 288.557392 274.157847 
L 290.338735 273.19058 
L 293.901422 276.506924 
L 295.682765 278.717821 
L 299.245452 282.448708 
L 301.026795 285.765053 
L 302.808138 291.568656 
L 304.589481 291.015932 
L 306.370825 291.430475 
L 308.152168 291.292294 
L 309.933511 291.706837 
L 311.714854 288.528673 
L 315.277541 286.317777 
L 317.058884 289.910483 
L 318.840227 290.73957 
L 320.621571 294.608638 
L 322.402914 297.095897 
L 324.184257 300.826784 
L 325.9656 304.143129 
L 327.746944 306.630387 
L 329.528287 304.28131 
L 331.30963 306.215844 
L 333.090974 306.077663 
L 334.872317 306.215844 
L 336.65366 307.04493 
L 338.435003 307.183111 
L 340.216347 306.492206 
L 341.99769 310.499456 
L 343.779033 308.703102 
L 345.560376 310.223094 
L 347.34172 310.084913 
L 349.123063 310.361275 
L 350.904406 310.499456 
L 352.685749 311.190361 
L 354.467093 311.604904 
L 356.248436 313.401257 
L 361.592466 314.644886 
L 363.373809 314.921248 
L 365.155152 315.750334 
L 366.936495 315.750334 
L 368.717839 315.612153 
L 370.499182 315.335791 
L 372.280525 315.750334 
L 374.061868 315.059429 
L 375.843212 314.644886 
L 377.624555 314.783067 
L 379.405898 313.953981 
L 381.187241 313.953981 
L 382.968585 314.230343 
L 384.749928 314.368524 
L 386.531271 315.19761 
L 388.312615 314.921248 
L 390.093958 314.506705 
L 391.875301 315.059429 
L 399.000674 315.059429 
L 400.782017 315.473972 
L 402.563361 314.783067 
L 404.344704 312.986714 
L 406.126047 310.913999 
L 415.032763 310.913999 
L 416.814107 312.019447 
L 418.59545 312.572171 
L 423.93948 312.572171 
L 425.720823 311.604904 
L 429.283509 311.604904 
L 431.064853 312.295809 
L 436.408882 312.295809 
L 438.190226 312.43399 
L 439.971569 312.295809 
L 441.752912 307.459473 
L 443.534255 306.768568 
L 448.878285 306.768568 
L 450.659629 301.241327 
L 452.440972 298.615888 
L 454.222315 303.452224 
L 456.003658 295.299543 
L 457.785002 286.317777 
L 459.566345 282.586889 
L 461.347688 277.197829 
L 463.129031 278.165097 
L 464.910375 277.474191 
L 466.691718 271.532408 
L 468.473061 278.994183 
L 470.254404 278.165097 
L 472.035748 265.452443 
L 473.817091 269.459692 
L 475.598434 268.630606 
L 477.379777 263.379727 
L 479.161121 260.892469 
L 480.942464 251.910702 
L 482.723807 249.423444 
L 484.50515 259.096116 
L 486.286494 252.463427 
L 488.067837 252.187064 
L 489.84918 252.325245 
L 491.630523 251.219797 
L 493.411867 254.536142 
L 495.19321 250.528892 
L 496.974553 242.652574 
L 498.755896 231.183549 
L 500.53724 232.427178 
L 502.318583 235.467161 
L 504.099926 235.32898 
L 505.88127 231.598092 
L 507.662613 233.532627 
L 509.443956 236.158066 
L 511.225299 240.579859 
L 513.006643 235.190799 
L 514.787986 224.136317 
L 518.350672 203.961888 
L 520.132016 187.656527 
L 521.913359 175.358416 
L 523.694702 173.14752 
L 525.476045 173.700244 
L 527.257389 161.125771 
L 529.038732 155.59853 
L 530.820075 140.398618 
L 532.601418 126.995059 
L 534.382762 125.475068 
L 536.164105 112.347871 
L 537.945448 78.49352 
L 539.726791 50.304592 
L 541.508135 40.63192 
L 541.508135 40.63192 
" style="fill:none;stroke:#d62728;stroke-linecap:square;stroke-width:1.75;"/>
   </g>
   <g id="patch_3">
    <path d="M 43.978963 331.102246 
L 43.978963 26.8 
" style="fill:none;stroke:#000000;stroke-linecap:square;stroke-linejoin:miter;stroke-width:0.8;"/>
   </g>
   <g id="patch_4">
    <path d="M 565.2 331.102246 
L 565.2 26.8 
" style="fill:none;stroke:#000000;stroke-linecap:square;stroke-linejoin:miter;stroke-width:0.8;"/>
   </g>
   <g id="patch_5">
    <path d="M 43.978963 331.102246 
L 565.2 331.102246 
" style="fill:none;stroke:#000000;stroke-linecap:square;stroke-linejoin:miter;stroke-width:0.8;"/>
   </g>
   <g id="patch_6">
    <path d="M 43.978963 26.8 
L 565.2 26.8 
" style="fill:none;stroke:#000000;stroke-linecap:square;stroke-linejoin:miter;stroke-width:0.8;"/>
   </g>
   <g id="text_20">
    <!-- New Cases per Million Population (7 day rolling) -->
    <defs>
     <path d="M 9.8125 72.90625 
L 23.09375 72.90625 
L 55.421875 11.921875 
L 55.421875 72.90625 
L 64.984375 72.90625 
L 64.984375 0 
L 51.703125 0 
L 19.390625 60.984375 
L 19.390625 0 
L 9.8125 0 
z
" id="DejaVuSans-78"/>
     <path d="M 4.203125 54.6875 
L 13.1875 54.6875 
L 24.421875 12.015625 
L 35.59375 54.6875 
L 46.1875 54.6875 
L 57.421875 12.015625 
L 68.609375 54.6875 
L 77.59375 54.6875 
L 63.28125 0 
L 52.6875 0 
L 40.921875 44.828125 
L 29.109375 0 
L 18.5 0 
z
" id="DejaVuSans-119"/>
     <path id="DejaVuSans-32"/>
     <path d="M 64.40625 67.28125 
L 64.40625 56.890625 
Q 59.421875 61.53125 53.78125 63.8125 
Q 48.140625 66.109375 41.796875 66.109375 
Q 29.296875 66.109375 22.65625 58.46875 
Q 16.015625 50.828125 16.015625 36.375 
Q 16.015625 21.96875 22.65625 14.328125 
Q 29.296875 6.6875 41.796875 6.6875 
Q 48.140625 6.6875 53.78125 8.984375 
Q 59.421875 11.28125 64.40625 15.921875 
L 64.40625 5.609375 
Q 59.234375 2.09375 53.4375 0.328125 
Q 47.65625 -1.421875 41.21875 -1.421875 
Q 24.65625 -1.421875 15.125 8.703125 
Q 5.609375 18.84375 5.609375 36.375 
Q 5.609375 53.953125 15.125 64.078125 
Q 24.65625 74.21875 41.21875 74.21875 
Q 47.75 74.21875 53.53125 72.484375 
Q 59.328125 70.75 64.40625 67.28125 
z
" id="DejaVuSans-67"/>
     <path d="M 44.28125 53.078125 
L 44.28125 44.578125 
Q 40.484375 46.53125 36.375 47.5 
Q 32.28125 48.484375 27.875 48.484375 
Q 21.1875 48.484375 17.84375 46.4375 
Q 14.5 44.390625 14.5 40.28125 
Q 14.5 37.15625 16.890625 35.375 
Q 19.28125 33.59375 26.515625 31.984375 
L 29.59375 31.296875 
Q 39.15625 29.25 43.1875 25.515625 
Q 47.21875 21.78125 47.21875 15.09375 
Q 47.21875 7.46875 41.1875 3.015625 
Q 35.15625 -1.421875 24.609375 -1.421875 
Q 20.21875 -1.421875 15.453125 -0.5625 
Q 10.6875 0.296875 5.421875 2 
L 5.421875 11.28125 
Q 10.40625 8.6875 15.234375 7.390625 
Q 20.0625 6.109375 24.8125 6.109375 
Q 31.15625 6.109375 34.5625 8.28125 
Q 37.984375 10.453125 37.984375 14.40625 
Q 37.984375 18.0625 35.515625 20.015625 
Q 33.0625 21.96875 24.703125 23.78125 
L 21.578125 24.515625 
Q 13.234375 26.265625 9.515625 29.90625 
Q 5.8125 33.546875 5.8125 39.890625 
Q 5.8125 47.609375 11.28125 51.796875 
Q 16.75 56 26.8125 56 
Q 31.78125 56 36.171875 55.265625 
Q 40.578125 54.546875 44.28125 53.078125 
z
" id="DejaVuSans-115"/>
     <path d="M 18.109375 8.203125 
L 18.109375 -20.796875 
L 9.078125 -20.796875 
L 9.078125 54.6875 
L 18.109375 54.6875 
L 18.109375 46.390625 
Q 20.953125 51.265625 25.265625 53.625 
Q 29.59375 56 35.59375 56 
Q 45.5625 56 51.78125 48.09375 
Q 58.015625 40.1875 58.015625 27.296875 
Q 58.015625 14.40625 51.78125 6.484375 
Q 45.5625 -1.421875 35.59375 -1.421875 
Q 29.59375 -1.421875 25.265625 0.953125 
Q 20.953125 3.328125 18.109375 8.203125 
z
M 48.6875 27.296875 
Q 48.6875 37.203125 44.609375 42.84375 
Q 40.53125 48.484375 33.40625 48.484375 
Q 26.265625 48.484375 22.1875 42.84375 
Q 18.109375 37.203125 18.109375 27.296875 
Q 18.109375 17.390625 22.1875 11.75 
Q 26.265625 6.109375 33.40625 6.109375 
Q 40.53125 6.109375 44.609375 11.75 
Q 48.6875 17.390625 48.6875 27.296875 
z
" id="DejaVuSans-112"/>
     <path d="M 41.109375 46.296875 
Q 39.59375 47.171875 37.8125 47.578125 
Q 36.03125 48 33.890625 48 
Q 26.265625 48 22.1875 43.046875 
Q 18.109375 38.09375 18.109375 28.8125 
L 18.109375 0 
L 9.078125 0 
L 9.078125 54.6875 
L 18.109375 54.6875 
L 18.109375 46.1875 
Q 20.953125 51.171875 25.484375 53.578125 
Q 30.03125 56 36.53125 56 
Q 37.453125 56 38.578125 55.875 
Q 39.703125 55.765625 41.0625 55.515625 
z
" id="DejaVuSans-114"/>
     <path d="M 9.8125 72.90625 
L 24.515625 72.90625 
L 43.109375 23.296875 
L 61.8125 72.90625 
L 76.515625 72.90625 
L 76.515625 0 
L 66.890625 0 
L 66.890625 64.015625 
L 48.09375 14.015625 
L 38.1875 14.015625 
L 19.390625 64.015625 
L 19.390625 0 
L 9.8125 0 
z
" id="DejaVuSans-77"/>
     <path d="M 9.421875 54.6875 
L 18.40625 54.6875 
L 18.40625 0 
L 9.421875 0 
z
M 9.421875 75.984375 
L 18.40625 75.984375 
L 18.40625 64.59375 
L 9.421875 64.59375 
z
" id="DejaVuSans-105"/>
     <path d="M 9.421875 75.984375 
L 18.40625 75.984375 
L 18.40625 0 
L 9.421875 0 
z
" id="DejaVuSans-108"/>
     <path d="M 30.609375 48.390625 
Q 23.390625 48.390625 19.1875 42.75 
Q 14.984375 37.109375 14.984375 27.296875 
Q 14.984375 17.484375 19.15625 11.84375 
Q 23.34375 6.203125 30.609375 6.203125 
Q 37.796875 6.203125 41.984375 11.859375 
Q 46.1875 17.53125 46.1875 27.296875 
Q 46.1875 37.015625 41.984375 42.703125 
Q 37.796875 48.390625 30.609375 48.390625 
z
M 30.609375 56 
Q 42.328125 56 49.015625 48.375 
Q 55.71875 40.765625 55.71875 27.296875 
Q 55.71875 13.875 49.015625 6.21875 
Q 42.328125 -1.421875 30.609375 -1.421875 
Q 18.84375 -1.421875 12.171875 6.21875 
Q 5.515625 13.875 5.515625 27.296875 
Q 5.515625 40.765625 12.171875 48.375 
Q 18.84375 56 30.609375 56 
z
" id="DejaVuSans-111"/>
     <path d="M 54.890625 33.015625 
L 54.890625 0 
L 45.90625 0 
L 45.90625 32.71875 
Q 45.90625 40.484375 42.875 44.328125 
Q 39.84375 48.1875 33.796875 48.1875 
Q 26.515625 48.1875 22.3125 43.546875 
Q 18.109375 38.921875 18.109375 30.90625 
L 18.109375 0 
L 9.078125 0 
L 9.078125 54.6875 
L 18.109375 54.6875 
L 18.109375 46.1875 
Q 21.34375 51.125 25.703125 53.5625 
Q 30.078125 56 35.796875 56 
Q 45.21875 56 50.046875 50.171875 
Q 54.890625 44.34375 54.890625 33.015625 
z
" id="DejaVuSans-110"/>
     <path d="M 19.671875 64.796875 
L 19.671875 37.40625 
L 32.078125 37.40625 
Q 38.96875 37.40625 42.71875 40.96875 
Q 46.484375 44.53125 46.484375 51.125 
Q 46.484375 57.671875 42.71875 61.234375 
Q 38.96875 64.796875 32.078125 64.796875 
z
M 9.8125 72.90625 
L 32.078125 72.90625 
Q 44.34375 72.90625 50.609375 67.359375 
Q 56.890625 61.8125 56.890625 51.125 
Q 56.890625 40.328125 50.609375 34.8125 
Q 44.34375 29.296875 32.078125 29.296875 
L 19.671875 29.296875 
L 19.671875 0 
L 9.8125 0 
z
" id="DejaVuSans-80"/>
     <path d="M 8.5 21.578125 
L 8.5 54.6875 
L 17.484375 54.6875 
L 17.484375 21.921875 
Q 17.484375 14.15625 20.5 10.265625 
Q 23.53125 6.390625 29.59375 6.390625 
Q 36.859375 6.390625 41.078125 11.03125 
Q 45.3125 15.671875 45.3125 23.6875 
L 45.3125 54.6875 
L 54.296875 54.6875 
L 54.296875 0 
L 45.3125 0 
L 45.3125 8.40625 
Q 42.046875 3.421875 37.71875 1 
Q 33.40625 -1.421875 27.6875 -1.421875 
Q 18.265625 -1.421875 13.375 4.4375 
Q 8.5 10.296875 8.5 21.578125 
z
M 31.109375 56 
z
" id="DejaVuSans-117"/>
     <path d="M 31 75.875 
Q 24.46875 64.65625 21.28125 53.65625 
Q 18.109375 42.671875 18.109375 31.390625 
Q 18.109375 20.125 21.3125 9.0625 
Q 24.515625 -2 31 -13.1875 
L 23.1875 -13.1875 
Q 15.875 -1.703125 12.234375 9.375 
Q 8.59375 20.453125 8.59375 31.390625 
Q 8.59375 42.28125 12.203125 53.3125 
Q 15.828125 64.359375 23.1875 75.875 
z
" id="DejaVuSans-40"/>
     <path d="M 45.40625 46.390625 
L 45.40625 75.984375 
L 54.390625 75.984375 
L 54.390625 0 
L 45.40625 0 
L 45.40625 8.203125 
Q 42.578125 3.328125 38.25 0.953125 
Q 33.9375 -1.421875 27.875 -1.421875 
Q 17.96875 -1.421875 11.734375 6.484375 
Q 5.515625 14.40625 5.515625 27.296875 
Q 5.515625 40.1875 11.734375 48.09375 
Q 17.96875 56 27.875 56 
Q 33.9375 56 38.25 53.625 
Q 42.578125 51.265625 45.40625 46.390625 
z
M 14.796875 27.296875 
Q 14.796875 17.390625 18.875 11.75 
Q 22.953125 6.109375 30.078125 6.109375 
Q 37.203125 6.109375 41.296875 11.75 
Q 45.40625 17.390625 45.40625 27.296875 
Q 45.40625 37.203125 41.296875 42.84375 
Q 37.203125 48.484375 30.078125 48.484375 
Q 22.953125 48.484375 18.875 42.84375 
Q 14.796875 37.203125 14.796875 27.296875 
z
" id="DejaVuSans-100"/>
     <path d="M 32.171875 -5.078125 
Q 28.375 -14.84375 24.75 -17.8125 
Q 21.140625 -20.796875 15.09375 -20.796875 
L 7.90625 -20.796875 
L 7.90625 -13.28125 
L 13.1875 -13.28125 
Q 16.890625 -13.28125 18.9375 -11.515625 
Q 21 -9.765625 23.484375 -3.21875 
L 25.09375 0.875 
L 2.984375 54.6875 
L 12.5 54.6875 
L 29.59375 11.921875 
L 46.6875 54.6875 
L 56.203125 54.6875 
z
" id="DejaVuSans-121"/>
     <path d="M 45.40625 27.984375 
Q 45.40625 37.75 41.375 43.109375 
Q 37.359375 48.484375 30.078125 48.484375 
Q 22.859375 48.484375 18.828125 43.109375 
Q 14.796875 37.75 14.796875 27.984375 
Q 14.796875 18.265625 18.828125 12.890625 
Q 22.859375 7.515625 30.078125 7.515625 
Q 37.359375 7.515625 41.375 12.890625 
Q 45.40625 18.265625 45.40625 27.984375 
z
M 54.390625 6.78125 
Q 54.390625 -7.171875 48.1875 -13.984375 
Q 42 -20.796875 29.203125 -20.796875 
Q 24.46875 -20.796875 20.265625 -20.09375 
Q 16.0625 -19.390625 12.109375 -17.921875 
L 12.109375 -9.1875 
Q 16.0625 -11.328125 19.921875 -12.34375 
Q 23.78125 -13.375 27.78125 -13.375 
Q 36.625 -13.375 41.015625 -8.765625 
Q 45.40625 -4.15625 45.40625 5.171875 
L 45.40625 9.625 
Q 42.625 4.78125 38.28125 2.390625 
Q 33.9375 0 27.875 0 
Q 17.828125 0 11.671875 7.65625 
Q 5.515625 15.328125 5.515625 27.984375 
Q 5.515625 40.671875 11.671875 48.328125 
Q 17.828125 56 27.875 56 
Q 33.9375 56 38.28125 53.609375 
Q 42.625 51.21875 45.40625 46.390625 
L 45.40625 54.6875 
L 54.390625 54.6875 
z
" id="DejaVuSans-103"/>
     <path d="M 8.015625 75.875 
L 15.828125 75.875 
Q 23.140625 64.359375 26.78125 53.3125 
Q 30.421875 42.28125 30.421875 31.390625 
Q 30.421875 20.453125 26.78125 9.375 
Q 23.140625 -1.703125 15.828125 -13.1875 
L 8.015625 -13.1875 
Q 14.5 -2 17.703125 9.0625 
Q 20.90625 20.125 20.90625 31.390625 
Q 20.90625 42.671875 17.703125 53.65625 
Q 14.5 64.65625 8.015625 75.875 
z
" id="DejaVuSans-41"/>
    </defs>
    <g transform="translate(161.387294 20.8)scale(0.12 -0.12)">
     <use xlink:href="#DejaVuSans-78"/>
     <use x="74.804688" xlink:href="#DejaVuSans-101"/>
     <use x="136.328125" xlink:href="#DejaVuSans-119"/>
     <use x="218.115234" xlink:href="#DejaVuSans-32"/>
     <use x="249.902344" xlink:href="#DejaVuSans-67"/>
     <use x="319.726562" xlink:href="#DejaVuSans-97"/>
     <use x="381.005859" xlink:href="#DejaVuSans-115"/>
     <use x="433.105469" xlink:href="#DejaVuSans-101"/>
     <use x="494.628906" xlink:href="#DejaVuSans-115"/>
     <use x="546.728516" xlink:href="#DejaVuSans-32"/>
     <use x="578.515625" xlink:href="#DejaVuSans-112"/>
     <use x="641.992188" xlink:href="#DejaVuSans-101"/>
     <use x="703.515625" xlink:href="#DejaVuSans-114"/>
     <use x="744.628906" xlink:href="#DejaVuSans-32"/>
     <use x="776.416016" xlink:href="#DejaVuSans-77"/>
     <use x="862.695312" xlink:href="#DejaVuSans-105"/>
     <use x="890.478516" xlink:href="#DejaVuSans-108"/>
     <use x="918.261719" xlink:href="#DejaVuSans-108"/>
     <use x="946.044922" xlink:href="#DejaVuSans-105"/>
     <use x="973.828125" xlink:href="#DejaVuSans-111"/>
     <use x="1035.009766" xlink:href="#DejaVuSans-110"/>
     <use x="1098.388672" xlink:href="#DejaVuSans-32"/>
     <use x="1130.175781" xlink:href="#DejaVuSans-80"/>
     <use x="1186.853516" xlink:href="#DejaVuSans-111"/>
     <use x="1248.035156" xlink:href="#DejaVuSans-112"/>
     <use x="1311.511719" xlink:href="#DejaVuSans-117"/>
     <use x="1374.890625" xlink:href="#DejaVuSans-108"/>
     <use x="1402.673828" xlink:href="#DejaVuSans-97"/>
     <use x="1463.953125" xlink:href="#DejaVuSans-116"/>
     <use x="1503.162109" xlink:href="#DejaVuSans-105"/>
     <use x="1530.945312" xlink:href="#DejaVuSans-111"/>
     <use x="1592.126953" xlink:href="#DejaVuSans-110"/>
     <use x="1655.505859" xlink:href="#DejaVuSans-32"/>
     <use x="1687.292969" xlink:href="#DejaVuSans-40"/>
     <use x="1726.306641" xlink:href="#DejaVuSans-55"/>
     <use x="1789.929688" xlink:href="#DejaVuSans-32"/>
     <use x="1821.716797" xlink:href="#DejaVuSans-100"/>
     <use x="1885.193359" xlink:href="#DejaVuSans-97"/>
     <use x="1946.472656" xlink:href="#DejaVuSans-121"/>
     <use x="2005.652344" xlink:href="#DejaVuSans-32"/>
     <use x="2037.439453" xlink:href="#DejaVuSans-114"/>
     <use x="2076.302734" xlink:href="#DejaVuSans-111"/>
     <use x="2137.484375" xlink:href="#DejaVuSans-108"/>
     <use x="2165.267578" xlink:href="#DejaVuSans-108"/>
     <use x="2193.050781" xlink:href="#DejaVuSans-105"/>
     <use x="2220.833984" xlink:href="#DejaVuSans-110"/>
     <use x="2284.212891" xlink:href="#DejaVuSans-103"/>
     <use x="2347.689453" xlink:href="#DejaVuSans-41"/>
    </g>
   </g>
   <g id="legend_1">
    <g id="patch_7">
     <path d="M 50.978963 93.5125 
L 165.13365 93.5125 
Q 167.13365 93.5125 167.13365 91.5125 
L 167.13365 33.8 
Q 167.13365 31.8 165.13365 31.8 
L 50.978963 31.8 
Q 48.978963 31.8 48.978963 33.8 
L 48.978963 91.5125 
Q 48.978963 93.5125 50.978963 93.5125 
z
" style="fill:#ffffff;opacity:0.8;stroke:#cccccc;stroke-linejoin:miter;stroke-width:0.3;"/>
    </g>
    <g id="line2d_23">
     <path d="M 52.978963 39.898438 
L 72.978963 39.898438 
" style="fill:none;stroke:#1f77b4;stroke-linecap:square;stroke-width:1.75;"/>
    </g>
    <g id="line2d_24"/>
    <g id="text_21">
     <!-- England -->
     <defs>
      <path d="M 9.8125 72.90625 
L 55.90625 72.90625 
L 55.90625 64.59375 
L 19.671875 64.59375 
L 19.671875 43.015625 
L 54.390625 43.015625 
L 54.390625 34.71875 
L 19.671875 34.71875 
L 19.671875 8.296875 
L 56.78125 8.296875 
L 56.78125 0 
L 9.8125 0 
z
" id="DejaVuSans-69"/>
     </defs>
     <g transform="translate(80.978963 43.398438)scale(0.1 -0.1)">
      <use xlink:href="#DejaVuSans-69"/>
      <use x="63.183594" xlink:href="#DejaVuSans-110"/>
      <use x="126.5625" xlink:href="#DejaVuSans-103"/>
      <use x="190.039062" xlink:href="#DejaVuSans-108"/>
      <use x="217.822266" xlink:href="#DejaVuSans-97"/>
      <use x="279.101562" xlink:href="#DejaVuSans-110"/>
      <use x="342.480469" xlink:href="#DejaVuSans-100"/>
     </g>
    </g>
    <g id="line2d_25">
     <path d="M 52.978963 54.576563 
L 72.978963 54.576563 
" style="fill:none;stroke:#ff7f0e;stroke-linecap:square;stroke-width:1.75;"/>
    </g>
    <g id="line2d_26"/>
    <g id="text_22">
     <!-- Scotland -->
     <defs>
      <path d="M 53.515625 70.515625 
L 53.515625 60.890625 
Q 47.90625 63.578125 42.921875 64.890625 
Q 37.9375 66.21875 33.296875 66.21875 
Q 25.25 66.21875 20.875 63.09375 
Q 16.5 59.96875 16.5 54.203125 
Q 16.5 49.359375 19.40625 46.890625 
Q 22.3125 44.4375 30.421875 42.921875 
L 36.375 41.703125 
Q 47.40625 39.59375 52.65625 34.296875 
Q 57.90625 29 57.90625 20.125 
Q 57.90625 9.515625 50.796875 4.046875 
Q 43.703125 -1.421875 29.984375 -1.421875 
Q 24.8125 -1.421875 18.96875 -0.25 
Q 13.140625 0.921875 6.890625 3.21875 
L 6.890625 13.375 
Q 12.890625 10.015625 18.65625 8.296875 
Q 24.421875 6.59375 29.984375 6.59375 
Q 38.421875 6.59375 43.015625 9.90625 
Q 47.609375 13.234375 47.609375 19.390625 
Q 47.609375 24.75 44.3125 27.78125 
Q 41.015625 30.8125 33.5 32.328125 
L 27.484375 33.5 
Q 16.453125 35.6875 11.515625 40.375 
Q 6.59375 45.0625 6.59375 53.421875 
Q 6.59375 63.09375 13.40625 68.65625 
Q 20.21875 74.21875 32.171875 74.21875 
Q 37.3125 74.21875 42.625 73.28125 
Q 47.953125 72.359375 53.515625 70.515625 
z
" id="DejaVuSans-83"/>
      <path d="M 48.78125 52.59375 
L 48.78125 44.1875 
Q 44.96875 46.296875 41.140625 47.34375 
Q 37.3125 48.390625 33.40625 48.390625 
Q 24.65625 48.390625 19.8125 42.84375 
Q 14.984375 37.3125 14.984375 27.296875 
Q 14.984375 17.28125 19.8125 11.734375 
Q 24.65625 6.203125 33.40625 6.203125 
Q 37.3125 6.203125 41.140625 7.25 
Q 44.96875 8.296875 48.78125 10.40625 
L 48.78125 2.09375 
Q 45.015625 0.34375 40.984375 -0.53125 
Q 36.96875 -1.421875 32.421875 -1.421875 
Q 20.0625 -1.421875 12.78125 6.34375 
Q 5.515625 14.109375 5.515625 27.296875 
Q 5.515625 40.671875 12.859375 48.328125 
Q 20.21875 56 33.015625 56 
Q 37.15625 56 41.109375 55.140625 
Q 45.0625 54.296875 48.78125 52.59375 
z
" id="DejaVuSans-99"/>
     </defs>
     <g transform="translate(80.978963 58.076563)scale(0.1 -0.1)">
      <use xlink:href="#DejaVuSans-83"/>
      <use x="63.476562" xlink:href="#DejaVuSans-99"/>
      <use x="118.457031" xlink:href="#DejaVuSans-111"/>
      <use x="179.638672" xlink:href="#DejaVuSans-116"/>
      <use x="218.847656" xlink:href="#DejaVuSans-108"/>
      <use x="246.630859" xlink:href="#DejaVuSans-97"/>
      <use x="307.910156" xlink:href="#DejaVuSans-110"/>
      <use x="371.289062" xlink:href="#DejaVuSans-100"/>
     </g>
    </g>
    <g id="line2d_27">
     <path d="M 52.978963 69.254688 
L 72.978963 69.254688 
" style="fill:none;stroke:#2ca02c;stroke-linecap:square;stroke-width:1.75;"/>
    </g>
    <g id="line2d_28"/>
    <g id="text_23">
     <!-- Wales -->
     <defs>
      <path d="M 3.328125 72.90625 
L 13.28125 72.90625 
L 28.609375 11.28125 
L 43.890625 72.90625 
L 54.984375 72.90625 
L 70.3125 11.28125 
L 85.59375 72.90625 
L 95.609375 72.90625 
L 77.296875 0 
L 64.890625 0 
L 49.515625 63.28125 
L 33.984375 0 
L 21.578125 0 
z
" id="DejaVuSans-87"/>
     </defs>
     <g transform="translate(80.978963 72.754688)scale(0.1 -0.1)">
      <use xlink:href="#DejaVuSans-87"/>
      <use x="92.501953" xlink:href="#DejaVuSans-97"/>
      <use x="153.78125" xlink:href="#DejaVuSans-108"/>
      <use x="181.564453" xlink:href="#DejaVuSans-101"/>
      <use x="243.087891" xlink:href="#DejaVuSans-115"/>
     </g>
    </g>
    <g id="line2d_29">
     <path d="M 52.978963 83.932813 
L 72.978963 83.932813 
" style="fill:none;stroke:#d62728;stroke-linecap:square;stroke-width:1.75;"/>
    </g>
    <g id="line2d_30"/>
    <g id="text_24">
     <!-- Northern Ireland -->
     <defs>
      <path d="M 54.890625 33.015625 
L 54.890625 0 
L 45.90625 0 
L 45.90625 32.71875 
Q 45.90625 40.484375 42.875 44.328125 
Q 39.84375 48.1875 33.796875 48.1875 
Q 26.515625 48.1875 22.3125 43.546875 
Q 18.109375 38.921875 18.109375 30.90625 
L 18.109375 0 
L 9.078125 0 
L 9.078125 75.984375 
L 18.109375 75.984375 
L 18.109375 46.1875 
Q 21.34375 51.125 25.703125 53.5625 
Q 30.078125 56 35.796875 56 
Q 45.21875 56 50.046875 50.171875 
Q 54.890625 44.34375 54.890625 33.015625 
z
" id="DejaVuSans-104"/>
      <path d="M 9.8125 72.90625 
L 19.671875 72.90625 
L 19.671875 0 
L 9.8125 0 
z
" id="DejaVuSans-73"/>
     </defs>
     <g transform="translate(80.978963 87.432813)scale(0.1 -0.1)">
      <use xlink:href="#DejaVuSans-78"/>
      <use x="74.804688" xlink:href="#DejaVuSans-111"/>
      <use x="135.986328" xlink:href="#DejaVuSans-114"/>
      <use x="177.099609" xlink:href="#DejaVuSans-116"/>
      <use x="216.308594" xlink:href="#DejaVuSans-104"/>
      <use x="279.6875" xlink:href="#DejaVuSans-101"/>
      <use x="341.210938" xlink:href="#DejaVuSans-114"/>
      <use x="380.574219" xlink:href="#DejaVuSans-110"/>
      <use x="443.953125" xlink:href="#DejaVuSans-32"/>
      <use x="475.740234" xlink:href="#DejaVuSans-73"/>
      <use x="505.232422" xlink:href="#DejaVuSans-114"/>
      <use x="544.095703" xlink:href="#DejaVuSans-101"/>
      <use x="605.619141" xlink:href="#DejaVuSans-108"/>
      <use x="633.402344" xlink:href="#DejaVuSans-97"/>
      <use x="694.681641" xlink:href="#DejaVuSans-110"/>
      <use x="758.060547" xlink:href="#DejaVuSans-100"/>
     </g>
    </g>
   </g>
  </g>
 </g>
 <defs>
  <clipPath id="p5adb9ebead">
   <rect height="304.302246" width="521.221037" x="43.978963" y="26.8"/>
  </clipPath>
 </defs>
</svg>
