<?xml version="1.0" encoding="utf-8" standalone="no"?>
<!DOCTYPE svg PUBLIC "-//W3C//DTD SVG 1.1//EN"
  "http://www.w3.org/Graphics/SVG/1.1/DTD/svg11.dtd">
<!-- Created with matplotlib (https://matplotlib.org/) -->
<svg height="396pt" version="1.1" viewBox="0 0 576 396" width="576pt" xmlns="http://www.w3.org/2000/svg" xmlns:xlink="http://www.w3.org/1999/xlink">
 <defs>
  <style type="text/css">
*{stroke-linecap:butt;stroke-linejoin:round;}
  </style>
 </defs>
 <g id="figure_1">
  <g id="patch_1">
   <path d="M 0 396 
L 576 396 
L 576 0 
L 0 0 
z
" style="fill:#ffffff;"/>
  </g>
  <g id="axes_1">
   <g id="patch_2">
    <path d="M 44.260618 331.102246 
L 565.2 331.102246 
L 565.2 26.8 
L 44.260618 26.8 
z
" style="fill:#ffffff;"/>
   </g>
   <g id="matplotlib.axis_1">
    <g id="xtick_1">
     <g id="line2d_1">
      <defs>
       <path d="M 0 0 
L 0 3.5 
" id="ma0cf171234" style="stroke:#000000;"/>
      </defs>
      <g>
       <use style="stroke:#000000;" x="53.36795" xlink:href="#ma0cf171234" y="331.102246"/>
      </g>
     </g>
     <g id="text_1">
      <!-- 2020-01 -->
      <defs>
       <path d="M 19.1875 8.296875 
L 53.609375 8.296875 
L 53.609375 0 
L 7.328125 0 
L 7.328125 8.296875 
Q 12.9375 14.109375 22.625 23.890625 
Q 32.328125 33.6875 34.8125 36.53125 
Q 39.546875 41.84375 41.421875 45.53125 
Q 43.3125 49.21875 43.3125 52.78125 
Q 43.3125 58.59375 39.234375 62.25 
Q 35.15625 65.921875 28.609375 65.921875 
Q 23.96875 65.921875 18.8125 64.3125 
Q 13.671875 62.703125 7.8125 59.421875 
L 7.8125 69.390625 
Q 13.765625 71.78125 18.9375 73 
Q 24.125 74.21875 28.421875 74.21875 
Q 39.75 74.21875 46.484375 68.546875 
Q 53.21875 62.890625 53.21875 53.421875 
Q 53.21875 48.921875 51.53125 44.890625 
Q 49.859375 40.875 45.40625 35.40625 
Q 44.1875 33.984375 37.640625 27.21875 
Q 31.109375 20.453125 19.1875 8.296875 
z
" id="DejaVuSans-50"/>
       <path d="M 31.78125 66.40625 
Q 24.171875 66.40625 20.328125 58.90625 
Q 16.5 51.421875 16.5 36.375 
Q 16.5 21.390625 20.328125 13.890625 
Q 24.171875 6.390625 31.78125 6.390625 
Q 39.453125 6.390625 43.28125 13.890625 
Q 47.125 21.390625 47.125 36.375 
Q 47.125 51.421875 43.28125 58.90625 
Q 39.453125 66.40625 31.78125 66.40625 
z
M 31.78125 74.21875 
Q 44.046875 74.21875 50.515625 64.515625 
Q 56.984375 54.828125 56.984375 36.375 
Q 56.984375 17.96875 50.515625 8.265625 
Q 44.046875 -1.421875 31.78125 -1.421875 
Q 19.53125 -1.421875 13.0625 8.265625 
Q 6.59375 17.96875 6.59375 36.375 
Q 6.59375 54.828125 13.0625 64.515625 
Q 19.53125 74.21875 31.78125 74.21875 
z
" id="DejaVuSans-48"/>
       <path d="M 4.890625 31.390625 
L 31.203125 31.390625 
L 31.203125 23.390625 
L 4.890625 23.390625 
z
" id="DejaVuSans-45"/>
       <path d="M 12.40625 8.296875 
L 28.515625 8.296875 
L 28.515625 63.921875 
L 10.984375 60.40625 
L 10.984375 69.390625 
L 28.421875 72.90625 
L 38.28125 72.90625 
L 38.28125 8.296875 
L 54.390625 8.296875 
L 54.390625 0 
L 12.40625 0 
z
" id="DejaVuSans-49"/>
      </defs>
      <g transform="translate(16.143129 369.074092)rotate(-30)scale(0.1 -0.1)">
       <use xlink:href="#DejaVuSans-50"/>
       <use x="63.623047" xlink:href="#DejaVuSans-48"/>
       <use x="127.246094" xlink:href="#DejaVuSans-50"/>
       <use x="190.869141" xlink:href="#DejaVuSans-48"/>
       <use x="254.492188" xlink:href="#DejaVuSans-45"/>
       <use x="290.576172" xlink:href="#DejaVuSans-48"/>
       <use x="354.199219" xlink:href="#DejaVuSans-49"/>
      </g>
     </g>
    </g>
    <g id="xtick_2">
     <g id="line2d_2">
      <g>
       <use style="stroke:#000000;" x="109.833407" xlink:href="#ma0cf171234" y="331.102246"/>
      </g>
     </g>
     <g id="text_2">
      <!-- 2020-02 -->
      <g transform="translate(72.608587 369.074092)rotate(-30)scale(0.1 -0.1)">
       <use xlink:href="#DejaVuSans-50"/>
       <use x="63.623047" xlink:href="#DejaVuSans-48"/>
       <use x="127.246094" xlink:href="#DejaVuSans-50"/>
       <use x="190.869141" xlink:href="#DejaVuSans-48"/>
       <use x="254.492188" xlink:href="#DejaVuSans-45"/>
       <use x="290.576172" xlink:href="#DejaVuSans-48"/>
       <use x="354.199219" xlink:href="#DejaVuSans-50"/>
      </g>
     </g>
    </g>
    <g id="xtick_3">
     <g id="line2d_3">
      <g>
       <use style="stroke:#000000;" x="162.655932" xlink:href="#ma0cf171234" y="331.102246"/>
      </g>
     </g>
     <g id="text_3">
      <!-- 2020-03 -->
      <defs>
       <path d="M 40.578125 39.3125 
Q 47.65625 37.796875 51.625 33 
Q 55.609375 28.21875 55.609375 21.1875 
Q 55.609375 10.40625 48.1875 4.484375 
Q 40.765625 -1.421875 27.09375 -1.421875 
Q 22.515625 -1.421875 17.65625 -0.515625 
Q 12.796875 0.390625 7.625 2.203125 
L 7.625 11.71875 
Q 11.71875 9.328125 16.59375 8.109375 
Q 21.484375 6.890625 26.8125 6.890625 
Q 36.078125 6.890625 40.9375 10.546875 
Q 45.796875 14.203125 45.796875 21.1875 
Q 45.796875 27.640625 41.28125 31.265625 
Q 36.765625 34.90625 28.71875 34.90625 
L 20.21875 34.90625 
L 20.21875 43.015625 
L 29.109375 43.015625 
Q 36.375 43.015625 40.234375 45.921875 
Q 44.09375 48.828125 44.09375 54.296875 
Q 44.09375 59.90625 40.109375 62.90625 
Q 36.140625 65.921875 28.71875 65.921875 
Q 24.65625 65.921875 20.015625 65.03125 
Q 15.375 64.15625 9.8125 62.3125 
L 9.8125 71.09375 
Q 15.4375 72.65625 20.34375 73.4375 
Q 25.25 74.21875 29.59375 74.21875 
Q 40.828125 74.21875 47.359375 69.109375 
Q 53.90625 64.015625 53.90625 55.328125 
Q 53.90625 49.265625 50.4375 45.09375 
Q 46.96875 40.921875 40.578125 39.3125 
z
" id="DejaVuSans-51"/>
      </defs>
      <g transform="translate(125.431111 369.074092)rotate(-30)scale(0.1 -0.1)">
       <use xlink:href="#DejaVuSans-50"/>
       <use x="63.623047" xlink:href="#DejaVuSans-48"/>
       <use x="127.246094" xlink:href="#DejaVuSans-50"/>
       <use x="190.869141" xlink:href="#DejaVuSans-48"/>
       <use x="254.492188" xlink:href="#DejaVuSans-45"/>
       <use x="290.576172" xlink:href="#DejaVuSans-48"/>
       <use x="354.199219" xlink:href="#DejaVuSans-51"/>
      </g>
     </g>
    </g>
    <g id="xtick_4">
     <g id="line2d_4">
      <g>
       <use style="stroke:#000000;" x="219.12139" xlink:href="#ma0cf171234" y="331.102246"/>
      </g>
     </g>
     <g id="text_4">
      <!-- 2020-04 -->
      <defs>
       <path d="M 37.796875 64.3125 
L 12.890625 25.390625 
L 37.796875 25.390625 
z
M 35.203125 72.90625 
L 47.609375 72.90625 
L 47.609375 25.390625 
L 58.015625 25.390625 
L 58.015625 17.1875 
L 47.609375 17.1875 
L 47.609375 0 
L 37.796875 0 
L 37.796875 17.1875 
L 4.890625 17.1875 
L 4.890625 26.703125 
z
" id="DejaVuSans-52"/>
      </defs>
      <g transform="translate(181.896569 369.074092)rotate(-30)scale(0.1 -0.1)">
       <use xlink:href="#DejaVuSans-50"/>
       <use x="63.623047" xlink:href="#DejaVuSans-48"/>
       <use x="127.246094" xlink:href="#DejaVuSans-50"/>
       <use x="190.869141" xlink:href="#DejaVuSans-48"/>
       <use x="254.492188" xlink:href="#DejaVuSans-45"/>
       <use x="290.576172" xlink:href="#DejaVuSans-48"/>
       <use x="354.199219" xlink:href="#DejaVuSans-52"/>
      </g>
     </g>
    </g>
    <g id="xtick_5">
     <g id="line2d_5">
      <g>
       <use style="stroke:#000000;" x="273.765381" xlink:href="#ma0cf171234" y="331.102246"/>
      </g>
     </g>
     <g id="text_5">
      <!-- 2020-05 -->
      <defs>
       <path d="M 10.796875 72.90625 
L 49.515625 72.90625 
L 49.515625 64.59375 
L 19.828125 64.59375 
L 19.828125 46.734375 
Q 21.96875 47.46875 24.109375 47.828125 
Q 26.265625 48.1875 28.421875 48.1875 
Q 40.625 48.1875 47.75 41.5 
Q 54.890625 34.8125 54.890625 23.390625 
Q 54.890625 11.625 47.5625 5.09375 
Q 40.234375 -1.421875 26.90625 -1.421875 
Q 22.3125 -1.421875 17.546875 -0.640625 
Q 12.796875 0.140625 7.71875 1.703125 
L 7.71875 11.625 
Q 12.109375 9.234375 16.796875 8.0625 
Q 21.484375 6.890625 26.703125 6.890625 
Q 35.15625 6.890625 40.078125 11.328125 
Q 45.015625 15.765625 45.015625 23.390625 
Q 45.015625 31 40.078125 35.4375 
Q 35.15625 39.890625 26.703125 39.890625 
Q 22.75 39.890625 18.8125 39.015625 
Q 14.890625 38.140625 10.796875 36.28125 
z
" id="DejaVuSans-53"/>
      </defs>
      <g transform="translate(236.54056 369.074092)rotate(-30)scale(0.1 -0.1)">
       <use xlink:href="#DejaVuSans-50"/>
       <use x="63.623047" xlink:href="#DejaVuSans-48"/>
       <use x="127.246094" xlink:href="#DejaVuSans-50"/>
       <use x="190.869141" xlink:href="#DejaVuSans-48"/>
       <use x="254.492188" xlink:href="#DejaVuSans-45"/>
       <use x="290.576172" xlink:href="#DejaVuSans-48"/>
       <use x="354.199219" xlink:href="#DejaVuSans-53"/>
      </g>
     </g>
    </g>
    <g id="xtick_6">
     <g id="line2d_6">
      <g>
       <use style="stroke:#000000;" x="330.230838" xlink:href="#ma0cf171234" y="331.102246"/>
      </g>
     </g>
     <g id="text_6">
      <!-- 2020-06 -->
      <defs>
       <path d="M 33.015625 40.375 
Q 26.375 40.375 22.484375 35.828125 
Q 18.609375 31.296875 18.609375 23.390625 
Q 18.609375 15.53125 22.484375 10.953125 
Q 26.375 6.390625 33.015625 6.390625 
Q 39.65625 6.390625 43.53125 10.953125 
Q 47.40625 15.53125 47.40625 23.390625 
Q 47.40625 31.296875 43.53125 35.828125 
Q 39.65625 40.375 33.015625 40.375 
z
M 52.59375 71.296875 
L 52.59375 62.3125 
Q 48.875 64.0625 45.09375 64.984375 
Q 41.3125 65.921875 37.59375 65.921875 
Q 27.828125 65.921875 22.671875 59.328125 
Q 17.53125 52.734375 16.796875 39.40625 
Q 19.671875 43.65625 24.015625 45.921875 
Q 28.375 48.1875 33.59375 48.1875 
Q 44.578125 48.1875 50.953125 41.515625 
Q 57.328125 34.859375 57.328125 23.390625 
Q 57.328125 12.15625 50.6875 5.359375 
Q 44.046875 -1.421875 33.015625 -1.421875 
Q 20.359375 -1.421875 13.671875 8.265625 
Q 6.984375 17.96875 6.984375 36.375 
Q 6.984375 53.65625 15.1875 63.9375 
Q 23.390625 74.21875 37.203125 74.21875 
Q 40.921875 74.21875 44.703125 73.484375 
Q 48.484375 72.75 52.59375 71.296875 
z
" id="DejaVuSans-54"/>
      </defs>
      <g transform="translate(293.006017 369.074092)rotate(-30)scale(0.1 -0.1)">
       <use xlink:href="#DejaVuSans-50"/>
       <use x="63.623047" xlink:href="#DejaVuSans-48"/>
       <use x="127.246094" xlink:href="#DejaVuSans-50"/>
       <use x="190.869141" xlink:href="#DejaVuSans-48"/>
       <use x="254.492188" xlink:href="#DejaVuSans-45"/>
       <use x="290.576172" xlink:href="#DejaVuSans-48"/>
       <use x="354.199219" xlink:href="#DejaVuSans-54"/>
      </g>
     </g>
    </g>
    <g id="xtick_7">
     <g id="line2d_7">
      <g>
       <use style="stroke:#000000;" x="384.874829" xlink:href="#ma0cf171234" y="331.102246"/>
      </g>
     </g>
     <g id="text_7">
      <!-- 2020-07 -->
      <defs>
       <path d="M 8.203125 72.90625 
L 55.078125 72.90625 
L 55.078125 68.703125 
L 28.609375 0 
L 18.3125 0 
L 43.21875 64.59375 
L 8.203125 64.59375 
z
" id="DejaVuSans-55"/>
      </defs>
      <g transform="translate(347.650008 369.074092)rotate(-30)scale(0.1 -0.1)">
       <use xlink:href="#DejaVuSans-50"/>
       <use x="63.623047" xlink:href="#DejaVuSans-48"/>
       <use x="127.246094" xlink:href="#DejaVuSans-50"/>
       <use x="190.869141" xlink:href="#DejaVuSans-48"/>
       <use x="254.492188" xlink:href="#DejaVuSans-45"/>
       <use x="290.576172" xlink:href="#DejaVuSans-48"/>
       <use x="354.199219" xlink:href="#DejaVuSans-55"/>
      </g>
     </g>
    </g>
    <g id="xtick_8">
     <g id="line2d_8">
      <g>
       <use style="stroke:#000000;" x="441.340287" xlink:href="#ma0cf171234" y="331.102246"/>
      </g>
     </g>
     <g id="text_8">
      <!-- 2020-08 -->
      <defs>
       <path d="M 31.78125 34.625 
Q 24.75 34.625 20.71875 30.859375 
Q 16.703125 27.09375 16.703125 20.515625 
Q 16.703125 13.921875 20.71875 10.15625 
Q 24.75 6.390625 31.78125 6.390625 
Q 38.8125 6.390625 42.859375 10.171875 
Q 46.921875 13.96875 46.921875 20.515625 
Q 46.921875 27.09375 42.890625 30.859375 
Q 38.875 34.625 31.78125 34.625 
z
M 21.921875 38.8125 
Q 15.578125 40.375 12.03125 44.71875 
Q 8.5 49.078125 8.5 55.328125 
Q 8.5 64.0625 14.71875 69.140625 
Q 20.953125 74.21875 31.78125 74.21875 
Q 42.671875 74.21875 48.875 69.140625 
Q 55.078125 64.0625 55.078125 55.328125 
Q 55.078125 49.078125 51.53125 44.71875 
Q 48 40.375 41.703125 38.8125 
Q 48.828125 37.15625 52.796875 32.3125 
Q 56.78125 27.484375 56.78125 20.515625 
Q 56.78125 9.90625 50.3125 4.234375 
Q 43.84375 -1.421875 31.78125 -1.421875 
Q 19.734375 -1.421875 13.25 4.234375 
Q 6.78125 9.90625 6.78125 20.515625 
Q 6.78125 27.484375 10.78125 32.3125 
Q 14.796875 37.15625 21.921875 38.8125 
z
M 18.3125 54.390625 
Q 18.3125 48.734375 21.84375 45.5625 
Q 25.390625 42.390625 31.78125 42.390625 
Q 38.140625 42.390625 41.71875 45.5625 
Q 45.3125 48.734375 45.3125 54.390625 
Q 45.3125 60.0625 41.71875 63.234375 
Q 38.140625 66.40625 31.78125 66.40625 
Q 25.390625 66.40625 21.84375 63.234375 
Q 18.3125 60.0625 18.3125 54.390625 
z
" id="DejaVuSans-56"/>
      </defs>
      <g transform="translate(404.115466 369.074092)rotate(-30)scale(0.1 -0.1)">
       <use xlink:href="#DejaVuSans-50"/>
       <use x="63.623047" xlink:href="#DejaVuSans-48"/>
       <use x="127.246094" xlink:href="#DejaVuSans-50"/>
       <use x="190.869141" xlink:href="#DejaVuSans-48"/>
       <use x="254.492188" xlink:href="#DejaVuSans-45"/>
       <use x="290.576172" xlink:href="#DejaVuSans-48"/>
       <use x="354.199219" xlink:href="#DejaVuSans-56"/>
      </g>
     </g>
    </g>
    <g id="xtick_9">
     <g id="line2d_9">
      <g>
       <use style="stroke:#000000;" x="497.805744" xlink:href="#ma0cf171234" y="331.102246"/>
      </g>
     </g>
     <g id="text_9">
      <!-- 2020-09 -->
      <defs>
       <path d="M 10.984375 1.515625 
L 10.984375 10.5 
Q 14.703125 8.734375 18.5 7.8125 
Q 22.3125 6.890625 25.984375 6.890625 
Q 35.75 6.890625 40.890625 13.453125 
Q 46.046875 20.015625 46.78125 33.40625 
Q 43.953125 29.203125 39.59375 26.953125 
Q 35.25 24.703125 29.984375 24.703125 
Q 19.046875 24.703125 12.671875 31.3125 
Q 6.296875 37.9375 6.296875 49.421875 
Q 6.296875 60.640625 12.9375 67.421875 
Q 19.578125 74.21875 30.609375 74.21875 
Q 43.265625 74.21875 49.921875 64.515625 
Q 56.59375 54.828125 56.59375 36.375 
Q 56.59375 19.140625 48.40625 8.859375 
Q 40.234375 -1.421875 26.421875 -1.421875 
Q 22.703125 -1.421875 18.890625 -0.6875 
Q 15.09375 0.046875 10.984375 1.515625 
z
M 30.609375 32.421875 
Q 37.25 32.421875 41.125 36.953125 
Q 45.015625 41.5 45.015625 49.421875 
Q 45.015625 57.28125 41.125 61.84375 
Q 37.25 66.40625 30.609375 66.40625 
Q 23.96875 66.40625 20.09375 61.84375 
Q 16.21875 57.28125 16.21875 49.421875 
Q 16.21875 41.5 20.09375 36.953125 
Q 23.96875 32.421875 30.609375 32.421875 
z
" id="DejaVuSans-57"/>
      </defs>
      <g transform="translate(460.580923 369.074092)rotate(-30)scale(0.1 -0.1)">
       <use xlink:href="#DejaVuSans-50"/>
       <use x="63.623047" xlink:href="#DejaVuSans-48"/>
       <use x="127.246094" xlink:href="#DejaVuSans-50"/>
       <use x="190.869141" xlink:href="#DejaVuSans-48"/>
       <use x="254.492188" xlink:href="#DejaVuSans-45"/>
       <use x="290.576172" xlink:href="#DejaVuSans-48"/>
       <use x="354.199219" xlink:href="#DejaVuSans-57"/>
      </g>
     </g>
    </g>
    <g id="xtick_10">
     <g id="line2d_10">
      <g>
       <use style="stroke:#000000;" x="552.449735" xlink:href="#ma0cf171234" y="331.102246"/>
      </g>
     </g>
     <g id="text_10">
      <!-- 2020-10 -->
      <g transform="translate(515.224915 369.074092)rotate(-30)scale(0.1 -0.1)">
       <use xlink:href="#DejaVuSans-50"/>
       <use x="63.623047" xlink:href="#DejaVuSans-48"/>
       <use x="127.246094" xlink:href="#DejaVuSans-50"/>
       <use x="190.869141" xlink:href="#DejaVuSans-48"/>
       <use x="254.492188" xlink:href="#DejaVuSans-45"/>
       <use x="290.576172" xlink:href="#DejaVuSans-49"/>
       <use x="354.199219" xlink:href="#DejaVuSans-48"/>
      </g>
     </g>
    </g>
    <g id="text_11">
     <!-- Date -->
     <defs>
      <path d="M 19.671875 64.796875 
L 19.671875 8.109375 
L 31.59375 8.109375 
Q 46.6875 8.109375 53.6875 14.9375 
Q 60.6875 21.78125 60.6875 36.53125 
Q 60.6875 51.171875 53.6875 57.984375 
Q 46.6875 64.796875 31.59375 64.796875 
z
M 9.8125 72.90625 
L 30.078125 72.90625 
Q 51.265625 72.90625 61.171875 64.09375 
Q 71.09375 55.28125 71.09375 36.53125 
Q 71.09375 17.671875 61.125 8.828125 
Q 51.171875 0 30.078125 0 
L 9.8125 0 
z
" id="DejaVuSans-68"/>
      <path d="M 34.28125 27.484375 
Q 23.390625 27.484375 19.1875 25 
Q 14.984375 22.515625 14.984375 16.5 
Q 14.984375 11.71875 18.140625 8.90625 
Q 21.296875 6.109375 26.703125 6.109375 
Q 34.1875 6.109375 38.703125 11.40625 
Q 43.21875 16.703125 43.21875 25.484375 
L 43.21875 27.484375 
z
M 52.203125 31.203125 
L 52.203125 0 
L 43.21875 0 
L 43.21875 8.296875 
Q 40.140625 3.328125 35.546875 0.953125 
Q 30.953125 -1.421875 24.3125 -1.421875 
Q 15.921875 -1.421875 10.953125 3.296875 
Q 6 8.015625 6 15.921875 
Q 6 25.140625 12.171875 29.828125 
Q 18.359375 34.515625 30.609375 34.515625 
L 43.21875 34.515625 
L 43.21875 35.40625 
Q 43.21875 41.609375 39.140625 45 
Q 35.0625 48.390625 27.6875 48.390625 
Q 23 48.390625 18.546875 47.265625 
Q 14.109375 46.140625 10.015625 43.890625 
L 10.015625 52.203125 
Q 14.9375 54.109375 19.578125 55.046875 
Q 24.21875 56 28.609375 56 
Q 40.484375 56 46.34375 49.84375 
Q 52.203125 43.703125 52.203125 31.203125 
z
" id="DejaVuSans-97"/>
      <path d="M 18.3125 70.21875 
L 18.3125 54.6875 
L 36.8125 54.6875 
L 36.8125 47.703125 
L 18.3125 47.703125 
L 18.3125 18.015625 
Q 18.3125 11.328125 20.140625 9.421875 
Q 21.96875 7.515625 27.59375 7.515625 
L 36.8125 7.515625 
L 36.8125 0 
L 27.59375 0 
Q 17.1875 0 13.234375 3.875 
Q 9.28125 7.765625 9.28125 18.015625 
L 9.28125 47.703125 
L 2.6875 47.703125 
L 2.6875 54.6875 
L 9.28125 54.6875 
L 9.28125 70.21875 
z
" id="DejaVuSans-116"/>
      <path d="M 56.203125 29.59375 
L 56.203125 25.203125 
L 14.890625 25.203125 
Q 15.484375 15.921875 20.484375 11.0625 
Q 25.484375 6.203125 34.421875 6.203125 
Q 39.59375 6.203125 44.453125 7.46875 
Q 49.3125 8.734375 54.109375 11.28125 
L 54.109375 2.78125 
Q 49.265625 0.734375 44.1875 -0.34375 
Q 39.109375 -1.421875 33.890625 -1.421875 
Q 20.796875 -1.421875 13.15625 6.1875 
Q 5.515625 13.8125 5.515625 26.8125 
Q 5.515625 40.234375 12.765625 48.109375 
Q 20.015625 56 32.328125 56 
Q 43.359375 56 49.78125 48.890625 
Q 56.203125 41.796875 56.203125 29.59375 
z
M 47.21875 32.234375 
Q 47.125 39.59375 43.09375 43.984375 
Q 39.0625 48.390625 32.421875 48.390625 
Q 24.90625 48.390625 20.390625 44.140625 
Q 15.875 39.890625 15.1875 32.171875 
z
" id="DejaVuSans-101"/>
     </defs>
     <g transform="translate(291.58445 383.233436)scale(0.11 -0.11)">
      <use xlink:href="#DejaVuSans-68"/>
      <use x="77.001953" xlink:href="#DejaVuSans-97"/>
      <use x="138.28125" xlink:href="#DejaVuSans-116"/>
      <use x="177.490234" xlink:href="#DejaVuSans-101"/>
     </g>
    </g>
   </g>
   <g id="matplotlib.axis_2">
    <g id="ytick_1">
     <g id="line2d_11">
      <defs>
       <path d="M 0 0 
L -3.5 0 
" id="mbe5e5e3625" style="stroke:#000000;"/>
      </defs>
      <g>
       <use style="stroke:#000000;" x="44.260618" xlink:href="#mbe5e5e3625" y="317.270326"/>
      </g>
     </g>
     <g id="text_12">
      <!-- 0 -->
      <g transform="translate(27.398118 321.069544)scale(0.1 -0.1)">
       <use xlink:href="#DejaVuSans-48"/>
      </g>
     </g>
    </g>
    <g id="ytick_2">
     <g id="line2d_12">
      <g>
       <use style="stroke:#000000;" x="44.260618" xlink:href="#mbe5e5e3625" y="264.546216"/>
      </g>
     </g>
     <g id="text_13">
      <!-- 20 -->
      <g transform="translate(21.035618 268.345434)scale(0.1 -0.1)">
       <use xlink:href="#DejaVuSans-50"/>
       <use x="63.623047" xlink:href="#DejaVuSans-48"/>
      </g>
     </g>
    </g>
    <g id="ytick_3">
     <g id="line2d_13">
      <g>
       <use style="stroke:#000000;" x="44.260618" xlink:href="#mbe5e5e3625" y="211.822106"/>
      </g>
     </g>
     <g id="text_14">
      <!-- 40 -->
      <g transform="translate(21.035618 215.621325)scale(0.1 -0.1)">
       <use xlink:href="#DejaVuSans-52"/>
       <use x="63.623047" xlink:href="#DejaVuSans-48"/>
      </g>
     </g>
    </g>
    <g id="ytick_4">
     <g id="line2d_14">
      <g>
       <use style="stroke:#000000;" x="44.260618" xlink:href="#mbe5e5e3625" y="159.097996"/>
      </g>
     </g>
     <g id="text_15">
      <!-- 60 -->
      <g transform="translate(21.035618 162.897215)scale(0.1 -0.1)">
       <use xlink:href="#DejaVuSans-54"/>
       <use x="63.623047" xlink:href="#DejaVuSans-48"/>
      </g>
     </g>
    </g>
    <g id="ytick_5">
     <g id="line2d_15">
      <g>
       <use style="stroke:#000000;" x="44.260618" xlink:href="#mbe5e5e3625" y="106.373886"/>
      </g>
     </g>
     <g id="text_16">
      <!-- 80 -->
      <g transform="translate(21.035618 110.173105)scale(0.1 -0.1)">
       <use xlink:href="#DejaVuSans-56"/>
       <use x="63.623047" xlink:href="#DejaVuSans-48"/>
      </g>
     </g>
    </g>
    <g id="ytick_6">
     <g id="line2d_16">
      <g>
       <use style="stroke:#000000;" x="44.260618" xlink:href="#mbe5e5e3625" y="53.649776"/>
      </g>
     </g>
     <g id="text_17">
      <!-- 100 -->
      <g transform="translate(14.673118 57.448995)scale(0.1 -0.1)">
       <use xlink:href="#DejaVuSans-49"/>
       <use x="63.623047" xlink:href="#DejaVuSans-48"/>
       <use x="127.246094" xlink:href="#DejaVuSans-48"/>
      </g>
     </g>
    </g>
   </g>
   <g id="line2d_17">
    <path clip-path="url(#p784924832f)" d="M 67.939681 317.270326 
L 160.834466 317.190037 
L 168.120331 316.822047 
L 171.763264 316.427294 
L 180.870596 315.1962 
L 182.692062 314.701086 
L 184.513529 313.898198 
L 186.334995 312.8143 
L 188.156461 311.509608 
L 189.977928 311.128237 
L 191.799394 309.020657 
L 193.62086 305.260468 
L 197.263793 298.94442 
L 199.085259 294.44825 
L 200.906726 292.561465 
L 202.728192 287.904717 
L 204.549659 281.903134 
L 206.371125 278.524316 
L 208.192591 270.261266 
L 210.014058 257.696077 
L 211.835524 249.225615 
L 213.65699 239.022254 
L 215.478457 230.230636 
L 217.299923 222.496154 
L 219.12139 205.769332 
L 220.942856 193.899979 
L 222.764322 186.740899 
L 224.585789 181.582348 
L 226.407255 161.195697 
L 228.228721 154.043308 
L 230.050188 150.269737 
L 231.871654 142.521873 
L 233.693121 141.083367 
L 235.514587 136.486836 
L 237.336053 130.257768 
L 239.15752 139.858963 
L 240.978986 141.043222 
L 242.800452 135.182144 
L 244.621919 145.88731 
L 246.443385 150.437006 
L 250.086318 154.257412 
L 251.907784 154.692309 
L 253.729251 158.693365 
L 255.550717 163.825154 
L 257.372183 164.949196 
L 259.19365 165.176681 
L 261.015116 171.740286 
L 262.836582 176.570992 
L 264.658049 186.306002 
L 266.479515 187.222632 
L 268.300982 194.569052 
L 270.122448 205.38796 
L 271.943914 209.402398 
L 273.765381 212.767834 
L 275.586847 216.76889 
L 277.408313 217.658757 
L 279.22978 222.870834 
L 281.051246 223.854372 
L 282.872713 222.4627 
L 284.694179 224.811146 
L 286.515645 230.210564 
L 288.337112 236.091714 
L 290.158578 242.862732 
L 291.980044 246.837025 
L 293.801511 252.022339 
L 295.622977 255.133528 
L 297.444444 261.449576 
L 299.26591 265.34358 
L 302.908843 268.233975 
L 304.730309 268.73578 
L 306.551775 270.140833 
L 310.194708 274.536641 
L 312.016174 274.730673 
L 313.837641 275.781117 
L 315.659107 277.146026 
L 317.480574 279.30044 
L 319.30204 281.742556 
L 321.123506 283.181063 
L 322.944973 285.422457 
L 324.766439 288.921708 
L 328.409372 292.454413 
L 330.230838 293.792559 
L 332.052305 294.113714 
L 333.873771 295.097251 
L 335.695237 295.686035 
L 337.516704 296.415324 
L 339.33817 298.375708 
L 341.159636 298.991255 
L 342.981103 300.342782 
L 344.802569 298.957801 
L 346.624036 301.627402 
L 348.445502 302.477125 
L 352.088435 303.206414 
L 353.909901 302.778207 
L 355.731367 301.928485 
L 357.552834 304.598086 
L 359.3743 303.333538 
L 361.195766 303.487425 
L 363.017233 303.949085 
L 364.838699 304.27024 
L 366.660166 304.785426 
L 370.303098 305.340756 
L 372.124565 306.310912 
L 373.946031 306.444727 
L 377.588964 308.318131 
L 381.231897 309.335121 
L 383.053363 309.428792 
L 384.874829 308.960441 
L 386.696296 307.20747 
L 388.517762 305.019601 
L 390.339228 302.430289 
L 392.160695 300.088534 
L 393.982161 298.536285 
L 395.803628 296.020571 
L 397.625094 293.150249 
L 399.44656 292.52132 
L 401.268027 292.668516 
L 403.089493 291.149721 
L 404.910959 290.326761 
L 406.732426 289.2161 
L 408.553892 290.554246 
L 410.375358 291.223319 
L 412.196825 291.357133 
L 414.018291 290.32007 
L 415.839758 290.386978 
L 417.661224 290.005606 
L 421.304157 289.570709 
L 423.125623 289.483729 
L 424.947089 288.781203 
L 426.768556 288.426594 
L 428.590022 289.001997 
L 430.411489 288.674151 
L 432.232955 288.132202 
L 434.054421 287.141974 
L 435.875888 285.930952 
L 439.51882 284.35194 
L 441.340287 284.271652 
L 443.161753 284.572735 
L 444.98322 282.96696 
L 446.804686 282.498609 
L 448.626152 281.802773 
L 450.447619 281.709103 
L 452.269085 281.829536 
L 454.090551 282.117237 
L 455.912018 280.02973 
L 457.733484 281.080174 
L 459.55495 278.28345 
L 461.376417 277.473871 
L 463.197883 275.914932 
L 465.01935 272.649856 
L 466.840816 270.94372 
L 468.662282 271.184586 
L 472.305215 272.020927 
L 474.126681 273.479506 
L 475.948148 273.640084 
L 477.769614 276.155798 
L 479.591081 275.312766 
L 481.412547 275.406436 
L 483.234013 274.576786 
L 485.05548 273.97462 
L 486.876946 272.850578 
L 488.698412 270.742998 
L 490.519879 269.418234 
L 492.341345 270.548967 
L 494.162812 266.875757 
L 495.984278 264.259682 
L 497.805744 264.42026 
L 499.627211 261.984834 
L 501.448677 260.93439 
L 505.09161 253.246743 
L 506.913076 245.960539 
L 508.734543 236.734024 
L 514.198942 215.517724 
L 517.841874 195.412084 
L 519.663341 193.665804 
L 521.484807 195.46561 
L 523.306273 191.752255 
L 525.12774 184.325546 
L 526.949206 182.920493 
L 530.592139 174.503557 
L 532.413605 171.546255 
L 536.056538 151.253274 
L 537.878004 139.966015 
L 539.699471 120.937583 
L 541.520937 107.87728 
L 541.520937 107.87728 
" style="fill:none;stroke:#1f77b4;stroke-linecap:square;stroke-width:1.75;"/>
   </g>
   <g id="line2d_18">
    <path clip-path="url(#p784924832f)" d="M 67.939681 317.270326 
L 166.298865 317.201393 
L 169.941798 316.856729 
L 173.58473 316.1674 
L 175.406197 316.029535 
L 179.049129 315.478072 
L 180.870596 314.995542 
L 184.513529 312.169296 
L 188.156461 307.964392 
L 189.977928 307.068265 
L 191.799394 305.689609 
L 193.62086 304.104153 
L 195.442327 303.070161 
L 197.263793 300.933243 
L 199.085259 299.89925 
L 200.906726 299.140989 
L 204.549659 290.455451 
L 206.371125 283.355368 
L 208.192591 273.980502 
L 210.014058 266.466823 
L 211.835524 257.160889 
L 215.478457 243.925784 
L 217.299923 220.143954 
L 219.12139 207.598177 
L 220.942856 199.533035 
L 222.764322 183.40275 
L 224.585789 172.511361 
L 226.407255 157.208271 
L 228.228721 151.969375 
L 230.050188 163.136495 
L 231.871654 161.826771 
L 233.693121 154.933487 
L 235.514587 160.517047 
L 237.336053 162.5161 
L 239.15752 165.20448 
L 240.978986 172.097764 
L 242.800452 170.512309 
L 244.621919 166.789936 
L 246.443385 169.409384 
L 248.264851 170.167645 
L 250.086318 163.550092 
L 251.907784 160.448114 
L 253.729251 153.003368 
L 255.550717 157.759734 
L 257.372183 159.414122 
L 259.19365 158.242264 
L 261.015116 159.551987 
L 262.836582 163.481159 
L 264.658049 169.960846 
L 266.479515 174.510414 
L 268.300982 176.026936 
L 271.943914 183.264884 
L 273.765381 182.368758 
L 275.586847 187.952318 
L 277.408313 195.0524 
L 281.051246 198.981572 
L 282.872713 201.807818 
L 284.694179 208.976834 
L 286.515645 214.21573 
L 288.337112 222.280872 
L 290.158578 221.522611 
L 291.980044 223.45273 
L 293.801511 225.86538 
L 295.622977 233.172261 
L 297.444444 235.033447 
L 299.26591 240.68594 
L 301.087376 238.549022 
L 302.908843 244.821911 
L 304.730309 250.612269 
L 306.551775 255.782232 
L 308.373242 260.607531 
L 310.194708 266.328957 
L 312.016174 268.396942 
L 313.837641 276.324219 
L 315.659107 278.392204 
L 317.480574 278.53007 
L 319.30204 280.73592 
L 321.123506 283.562167 
L 322.944973 287.491339 
L 324.766439 292.592369 
L 326.587905 293.764227 
L 328.409372 296.659406 
L 330.230838 299.209922 
L 332.052305 297.555533 
L 333.873771 299.072056 
L 335.695237 299.003123 
L 337.516704 299.692451 
L 339.33817 302.036168 
L 342.981103 302.036168 
L 344.802569 304.724549 
L 346.624036 306.172138 
L 348.445502 308.377989 
L 350.266968 308.515855 
L 352.088435 308.515855 
L 353.909901 308.033325 
L 355.731367 307.275064 
L 357.552834 307.206131 
L 359.3743 306.585735 
L 361.195766 306.999333 
L 363.017233 306.999333 
L 364.838699 306.654668 
L 366.660166 306.585735 
L 368.481632 307.619728 
L 370.303098 307.826527 
L 372.124565 308.653721 
L 373.946031 309.067318 
L 377.588964 310.514907 
L 379.41043 311.755698 
L 381.231897 312.376094 
L 384.874829 312.582893 
L 386.696296 312.582893 
L 390.339228 313.203288 
L 392.160695 313.134355 
L 393.982161 313.203288 
L 395.803628 313.754751 
L 397.625094 313.823684 
L 399.44656 313.754751 
L 401.268027 313.341154 
L 403.089493 313.616885 
L 404.910959 312.927557 
L 408.553892 312.720758 
L 410.375358 312.858624 
L 412.196825 312.51396 
L 414.018291 312.582893 
L 415.839758 311.617833 
L 417.661224 311.342101 
L 419.48269 311.273169 
L 421.304157 309.963445 
L 424.947089 309.274116 
L 426.768556 309.067318 
L 428.590022 308.653721 
L 430.411489 309.963445 
L 432.232955 310.239176 
L 434.054421 311.479967 
L 435.875888 310.652773 
L 437.697354 310.58384 
L 439.51882 309.894512 
L 441.340287 310.514907 
L 443.161753 308.653721 
L 444.98322 307.619728 
L 446.804686 306.310004 
L 448.626152 303.414825 
L 450.447619 300.037116 
L 452.269085 299.140989 
L 454.090551 296.245809 
L 455.912018 295.073951 
L 457.733484 294.31569 
L 459.55495 292.316638 
L 461.376417 293.488496 
L 463.197883 294.79822 
L 465.01935 293.281697 
L 466.840816 293.902093 
L 468.662282 294.246757 
L 472.305215 294.660354 
L 474.126681 294.453556 
L 475.948148 292.38557 
L 477.769614 291.971973 
L 479.591081 287.008809 
L 483.234013 281.494182 
L 485.05548 281.838846 
L 486.876946 280.666988 
L 488.698412 281.287383 
L 490.519879 282.66604 
L 492.341345 285.078689 
L 494.162812 282.321376 
L 495.984278 275.841689 
L 497.805744 268.259076 
L 499.627211 262.124054 
L 501.448677 259.84927 
L 503.270143 252.404523 
L 505.09161 248.751083 
L 506.913076 242.891791 
L 508.734543 243.856851 
L 510.556009 242.340328 
L 512.377475 242.13353 
L 514.198942 237.99756 
L 516.020408 236.894634 
L 517.841874 231.380007 
L 519.663341 228.898425 
L 521.484807 234.137321 
L 523.306273 227.864432 
L 525.12774 220.419685 
L 526.949206 211.527349 
L 528.770673 209.597229 
L 530.592139 200.704893 
L 532.413605 200.63596 
L 534.235072 187.883385 
L 536.056538 179.887175 
L 537.878004 164.790883 
L 539.699471 152.727636 
L 541.520937 128.256478 
L 541.520937 128.256478 
" style="fill:none;stroke:#ff7f0e;stroke-linecap:square;stroke-width:1.75;"/>
   </g>
   <g id="line2d_19">
    <path clip-path="url(#p784924832f)" d="M 67.939681 317.270326 
L 157.191533 317.270326 
L 159.012999 317.150879 
L 168.120331 317.150879 
L 169.941798 317.031432 
L 171.763264 317.150879 
L 175.406197 317.150879 
L 179.049129 316.673093 
L 182.692062 314.523053 
L 184.513529 312.970247 
L 186.334995 310.342421 
L 188.156461 306.281235 
L 189.977928 302.93673 
L 191.799394 301.742263 
L 193.62086 301.264477 
L 195.442327 299.950564 
L 197.263793 298.994991 
L 199.085259 290.992066 
L 200.906726 287.050327 
L 202.728192 282.153015 
L 204.549659 276.419577 
L 206.371125 260.055388 
L 208.192591 249.066297 
L 210.014058 230.074283 
L 213.65699 210.485034 
L 215.478457 193.881952 
L 217.299923 187.670727 
L 219.12139 172.859345 
L 222.764322 132.725275 
L 224.585789 107.044249 
L 226.407255 83.632709 
L 228.228721 72.643618 
L 230.050188 51.262671 
L 231.871654 50.187651 
L 233.693121 82.199349 
L 235.514587 63.446227 
L 237.336053 69.060219 
L 239.15752 66.312947 
L 240.978986 64.999034 
L 242.800452 71.329705 
L 244.621919 72.643618 
L 246.443385 40.63192 
L 248.264851 71.449152 
L 250.086318 77.18259 
L 251.907784 81.124329 
L 253.729251 85.543855 
L 255.550717 77.660377 
L 257.372183 77.421484 
L 259.19365 83.393815 
L 261.015116 83.513262 
L 262.836582 82.677136 
L 264.658049 101.310811 
L 268.300982 118.630573 
L 270.122448 137.383694 
L 271.943914 143.475473 
L 273.765381 153.389543 
L 275.586847 167.245353 
L 277.408313 167.723139 
L 279.22978 168.678712 
L 281.051246 179.07057 
L 282.872713 181.698396 
L 284.694179 193.165272 
L 286.515645 194.120846 
L 288.337112 201.884877 
L 290.158578 196.031992 
L 291.980044 204.512703 
L 293.801511 209.290568 
L 295.622977 204.751596 
L 297.444444 199.854284 
L 299.26591 202.959897 
L 301.087376 195.195865 
L 302.908843 202.48211 
L 304.730309 205.229383 
L 306.551775 197.943138 
L 308.373242 200.69041 
L 310.194708 196.151438 
L 312.016174 194.718079 
L 313.837641 194.479185 
L 315.659107 197.107011 
L 317.480574 196.509778 
L 319.30204 199.495944 
L 321.123506 201.04875 
L 322.944973 212.276734 
L 324.766439 216.576813 
L 326.587905 228.40203 
L 328.409372 235.329934 
L 330.230838 240.943926 
L 332.052305 249.782977 
L 333.873771 251.574677 
L 335.695237 255.994202 
L 337.516704 259.099815 
L 341.159636 269.372225 
L 342.981103 271.402818 
L 344.802569 274.388984 
L 346.624036 279.644636 
L 348.445502 276.30013 
L 350.266968 276.180683 
L 352.088435 275.822344 
L 353.909901 275.94179 
L 355.731367 273.552857 
L 357.552834 270.805585 
L 359.3743 269.013885 
L 361.195766 270.805585 
L 363.017233 276.30013 
L 364.838699 278.689063 
L 366.660166 271.402818 
L 368.481632 270.327798 
L 370.303098 272.000051 
L 372.124565 272.716731 
L 373.946031 263.51934 
L 375.767497 259.458155 
L 377.588964 256.949775 
L 379.41043 265.908273 
L 381.231897 260.533174 
L 383.053363 263.51934 
L 384.874829 265.31104 
L 386.696296 275.344557 
L 388.517762 280.002976 
L 390.339228 281.436335 
L 392.160695 282.630802 
L 393.982161 295.531038 
L 395.803628 298.397757 
L 397.625094 300.667244 
L 399.44656 303.653409 
L 401.268027 305.564556 
L 403.089493 308.789615 
L 404.910959 308.670168 
L 406.732426 308.311828 
L 408.553892 306.042342 
L 410.375358 305.445109 
L 412.196825 305.206216 
L 414.018291 304.489536 
L 415.839758 304.131196 
L 417.661224 302.339496 
L 419.48269 301.86171 
L 421.304157 301.742263 
L 423.125623 301.264477 
L 424.947089 298.278311 
L 426.768556 294.814358 
L 428.590022 292.425426 
L 430.411489 293.500445 
L 432.232955 289.917046 
L 434.054421 290.036493 
L 435.875888 288.842027 
L 437.697354 292.903212 
L 439.51882 295.172698 
L 441.340287 296.247718 
L 443.161753 294.456019 
L 444.98322 296.964398 
L 446.804686 296.844951 
L 448.626152 298.994991 
L 450.447619 298.278311 
L 452.269085 299.353331 
L 454.090551 299.592224 
L 459.55495 303.414516 
L 461.376417 304.131196 
L 463.197883 304.131196 
L 465.01935 304.011749 
L 466.840816 303.056176 
L 468.662282 304.011749 
L 470.483749 303.772856 
L 472.305215 302.458943 
L 474.126681 300.906137 
L 475.948148 300.42835 
L 477.769614 298.517204 
L 479.591081 297.681078 
L 481.412547 297.442184 
L 483.234013 296.844951 
L 485.05548 296.367165 
L 486.876946 294.814358 
L 488.698412 292.903212 
L 490.519879 292.903212 
L 492.341345 292.186532 
L 494.162812 287.886454 
L 495.984278 285.497521 
L 497.805744 282.750248 
L 499.627211 281.794675 
L 501.448677 280.002976 
L 503.270143 277.972383 
L 505.09161 273.552857 
L 506.913076 268.536099 
L 510.556009 245.482898 
L 512.377475 230.790962 
L 514.198942 224.579737 
L 517.841874 204.393256 
L 519.663341 196.748672 
L 521.484807 190.77634 
L 523.306273 195.554205 
L 525.12774 191.49302 
L 526.949206 183.609542 
L 528.770673 177.398317 
L 530.592139 171.664878 
L 532.413605 167.245353 
L 534.235072 161.153574 
L 536.056538 140.7282 
L 539.699471 96.532945 
L 541.520937 80.40765 
L 541.520937 80.40765 
" style="fill:none;stroke:#2ca02c;stroke-linecap:square;stroke-width:1.75;"/>
   </g>
   <g id="line2d_20">
    <path clip-path="url(#p784924832f)" d="M 67.939681 317.270326 
L 169.941798 317.270326 
L 173.58473 316.47483 
L 175.406197 315.480461 
L 177.227663 314.88384 
L 179.049129 314.88384 
L 180.870596 314.486092 
L 182.692062 314.287218 
L 184.513529 312.696228 
L 186.334995 312.099606 
L 188.156461 310.906364 
L 189.977928 310.110868 
L 191.799394 308.12213 
L 193.62086 307.326635 
L 195.442327 305.735644 
L 197.263793 305.934518 
L 199.085259 302.553663 
L 200.906726 300.763799 
L 202.728192 298.178439 
L 204.549659 295.394206 
L 206.371125 289.229117 
L 208.192591 284.65502 
L 210.014058 279.683174 
L 211.835524 274.313581 
L 213.65699 261.187909 
L 215.478457 240.703906 
L 217.299923 234.936565 
L 219.12139 221.810893 
L 220.942856 211.270581 
L 222.764322 192.178694 
L 224.585789 183.229373 
L 226.407255 182.235004 
L 228.228721 192.97419 
L 230.050188 184.223742 
L 231.871654 188.002344 
L 233.693121 177.462032 
L 235.514587 181.041761 
L 237.336053 174.280051 
L 239.15752 174.677799 
L 240.978986 173.285682 
L 242.800452 175.672168 
L 244.621919 168.313836 
L 246.443385 173.285682 
L 248.264851 168.313836 
L 250.086318 164.33636 
L 251.907784 150.415193 
L 253.729251 149.023076 
L 255.550717 159.961136 
L 257.372183 160.955505 
L 259.19365 155.188164 
L 261.015116 161.353253 
L 262.836582 170.103701 
L 264.658049 185.416985 
L 266.479515 188.79784 
L 268.300982 188.002344 
L 270.122448 200.133647 
L 271.943914 213.855941 
L 273.765381 217.634543 
L 275.586847 225.191748 
L 277.408313 225.987243 
L 279.22978 225.390622 
L 281.051246 223.20301 
L 282.872713 223.600758 
L 284.694179 228.174855 
L 286.515645 237.919672 
L 288.337112 239.908411 
L 291.980044 255.022821 
L 293.801511 255.221695 
L 295.622977 253.829578 
L 299.26591 258.60255 
L 301.087376 261.784531 
L 302.908843 264.36989 
L 304.730309 267.154124 
L 306.551775 271.927095 
L 308.373242 280.279796 
L 310.194708 279.4843 
L 312.016174 280.080922 
L 313.837641 279.882048 
L 315.659107 280.478669 
L 317.480574 275.904572 
L 321.123506 272.722591 
L 322.944973 277.89331 
L 324.766439 279.086553 
L 326.587905 284.65502 
L 328.409372 288.234748 
L 330.230838 293.604341 
L 332.052305 298.377313 
L 333.873771 301.957042 
L 335.695237 298.576187 
L 337.516704 301.36042 
L 339.33817 301.161546 
L 341.159636 301.36042 
L 342.981103 302.553663 
L 344.802569 302.752537 
L 346.624036 301.758168 
L 348.445502 307.525509 
L 350.266968 304.940149 
L 352.088435 307.127761 
L 353.909901 306.928887 
L 355.731367 307.326635 
L 357.552834 307.525509 
L 359.3743 308.519878 
L 361.195766 309.116499 
L 363.017233 311.701859 
L 368.481632 313.491723 
L 370.303098 313.889471 
L 372.124565 315.082714 
L 373.946031 315.082714 
L 375.767497 314.88384 
L 377.588964 314.486092 
L 379.41043 315.082714 
L 381.231897 314.088345 
L 383.053363 313.491723 
L 384.874829 313.690597 
L 386.696296 312.497354 
L 388.517762 312.497354 
L 390.339228 312.895102 
L 392.160695 313.093976 
L 393.982161 314.287218 
L 395.803628 313.889471 
L 397.625094 313.292849 
L 399.44656 314.088345 
L 406.732426 314.088345 
L 408.553892 314.684966 
L 410.375358 313.690597 
L 412.196825 311.105237 
L 414.018291 308.12213 
L 423.125623 308.12213 
L 424.947089 309.713121 
L 426.768556 310.508616 
L 432.232955 310.508616 
L 434.054421 309.116499 
L 437.697354 309.116499 
L 439.51882 310.110868 
L 444.98322 310.110868 
L 446.804686 310.309742 
L 448.626152 310.110868 
L 450.447619 303.150285 
L 452.269085 302.155916 
L 457.733484 302.155916 
L 459.55495 294.200963 
L 461.376417 290.42236 
L 463.197883 297.382944 
L 465.01935 285.649389 
L 466.840816 272.722591 
L 468.662282 267.352997 
L 470.483749 259.596919 
L 472.305215 260.989035 
L 474.126681 259.994666 
L 475.948148 251.443092 
L 477.769614 262.182278 
L 479.591081 260.989035 
L 481.412547 242.692644 
L 483.234013 248.459985 
L 485.05548 247.266742 
L 486.876946 239.709537 
L 488.698412 236.129808 
L 490.519879 223.20301 
L 492.341345 219.623281 
L 494.162812 233.544449 
L 495.984278 223.998505 
L 497.805744 223.600758 
L 499.627211 223.799631 
L 501.448677 222.208641 
L 503.270143 226.981613 
L 505.09161 221.214272 
L 506.913076 209.878464 
L 508.734543 193.371937 
L 510.556009 195.161802 
L 512.377475 199.537026 
L 514.198942 199.338152 
L 516.020408 193.968559 
L 517.841874 196.752792 
L 519.663341 200.531395 
L 521.484807 206.895357 
L 523.306273 199.139278 
L 525.12774 183.229373 
L 528.770673 154.193795 
L 530.592139 130.726685 
L 532.413605 113.026915 
L 534.235072 109.844934 
L 536.056538 110.640429 
L 537.878004 92.542912 
L 539.699471 84.587959 
L 541.520937 62.711839 
L 541.520937 62.711839 
" style="fill:none;stroke:#d62728;stroke-linecap:square;stroke-width:1.75;"/>
   </g>
   <g id="patch_3">
    <path d="M 44.260618 331.102246 
L 44.260618 26.8 
" style="fill:none;stroke:#000000;stroke-linecap:square;stroke-linejoin:miter;stroke-width:0.8;"/>
   </g>
   <g id="patch_4">
    <path d="M 565.2 331.102246 
L 565.2 26.8 
" style="fill:none;stroke:#000000;stroke-linecap:square;stroke-linejoin:miter;stroke-width:0.8;"/>
   </g>
   <g id="patch_5">
    <path d="M 44.260618 331.102246 
L 565.2 331.102246 
" style="fill:none;stroke:#000000;stroke-linecap:square;stroke-linejoin:miter;stroke-width:0.8;"/>
   </g>
   <g id="patch_6">
    <path d="M 44.260618 26.8 
L 565.2 26.8 
" style="fill:none;stroke:#000000;stroke-linecap:square;stroke-linejoin:miter;stroke-width:0.8;"/>
   </g>
   <g id="text_18">
    <!-- New Cases per Million Population (7 day rolling) -->
    <defs>
     <path d="M 9.8125 72.90625 
L 23.09375 72.90625 
L 55.421875 11.921875 
L 55.421875 72.90625 
L 64.984375 72.90625 
L 64.984375 0 
L 51.703125 0 
L 19.390625 60.984375 
L 19.390625 0 
L 9.8125 0 
z
" id="DejaVuSans-78"/>
     <path d="M 4.203125 54.6875 
L 13.1875 54.6875 
L 24.421875 12.015625 
L 35.59375 54.6875 
L 46.1875 54.6875 
L 57.421875 12.015625 
L 68.609375 54.6875 
L 77.59375 54.6875 
L 63.28125 0 
L 52.6875 0 
L 40.921875 44.828125 
L 29.109375 0 
L 18.5 0 
z
" id="DejaVuSans-119"/>
     <path id="DejaVuSans-32"/>
     <path d="M 64.40625 67.28125 
L 64.40625 56.890625 
Q 59.421875 61.53125 53.78125 63.8125 
Q 48.140625 66.109375 41.796875 66.109375 
Q 29.296875 66.109375 22.65625 58.46875 
Q 16.015625 50.828125 16.015625 36.375 
Q 16.015625 21.96875 22.65625 14.328125 
Q 29.296875 6.6875 41.796875 6.6875 
Q 48.140625 6.6875 53.78125 8.984375 
Q 59.421875 11.28125 64.40625 15.921875 
L 64.40625 5.609375 
Q 59.234375 2.09375 53.4375 0.328125 
Q 47.65625 -1.421875 41.21875 -1.421875 
Q 24.65625 -1.421875 15.125 8.703125 
Q 5.609375 18.84375 5.609375 36.375 
Q 5.609375 53.953125 15.125 64.078125 
Q 24.65625 74.21875 41.21875 74.21875 
Q 47.75 74.21875 53.53125 72.484375 
Q 59.328125 70.75 64.40625 67.28125 
z
" id="DejaVuSans-67"/>
     <path d="M 44.28125 53.078125 
L 44.28125 44.578125 
Q 40.484375 46.53125 36.375 47.5 
Q 32.28125 48.484375 27.875 48.484375 
Q 21.1875 48.484375 17.84375 46.4375 
Q 14.5 44.390625 14.5 40.28125 
Q 14.5 37.15625 16.890625 35.375 
Q 19.28125 33.59375 26.515625 31.984375 
L 29.59375 31.296875 
Q 39.15625 29.25 43.1875 25.515625 
Q 47.21875 21.78125 47.21875 15.09375 
Q 47.21875 7.46875 41.1875 3.015625 
Q 35.15625 -1.421875 24.609375 -1.421875 
Q 20.21875 -1.421875 15.453125 -0.5625 
Q 10.6875 0.296875 5.421875 2 
L 5.421875 11.28125 
Q 10.40625 8.6875 15.234375 7.390625 
Q 20.0625 6.109375 24.8125 6.109375 
Q 31.15625 6.109375 34.5625 8.28125 
Q 37.984375 10.453125 37.984375 14.40625 
Q 37.984375 18.0625 35.515625 20.015625 
Q 33.0625 21.96875 24.703125 23.78125 
L 21.578125 24.515625 
Q 13.234375 26.265625 9.515625 29.90625 
Q 5.8125 33.546875 5.8125 39.890625 
Q 5.8125 47.609375 11.28125 51.796875 
Q 16.75 56 26.8125 56 
Q 31.78125 56 36.171875 55.265625 
Q 40.578125 54.546875 44.28125 53.078125 
z
" id="DejaVuSans-115"/>
     <path d="M 18.109375 8.203125 
L 18.109375 -20.796875 
L 9.078125 -20.796875 
L 9.078125 54.6875 
L 18.109375 54.6875 
L 18.109375 46.390625 
Q 20.953125 51.265625 25.265625 53.625 
Q 29.59375 56 35.59375 56 
Q 45.5625 56 51.78125 48.09375 
Q 58.015625 40.1875 58.015625 27.296875 
Q 58.015625 14.40625 51.78125 6.484375 
Q 45.5625 -1.421875 35.59375 -1.421875 
Q 29.59375 -1.421875 25.265625 0.953125 
Q 20.953125 3.328125 18.109375 8.203125 
z
M 48.6875 27.296875 
Q 48.6875 37.203125 44.609375 42.84375 
Q 40.53125 48.484375 33.40625 48.484375 
Q 26.265625 48.484375 22.1875 42.84375 
Q 18.109375 37.203125 18.109375 27.296875 
Q 18.109375 17.390625 22.1875 11.75 
Q 26.265625 6.109375 33.40625 6.109375 
Q 40.53125 6.109375 44.609375 11.75 
Q 48.6875 17.390625 48.6875 27.296875 
z
" id="DejaVuSans-112"/>
     <path d="M 41.109375 46.296875 
Q 39.59375 47.171875 37.8125 47.578125 
Q 36.03125 48 33.890625 48 
Q 26.265625 48 22.1875 43.046875 
Q 18.109375 38.09375 18.109375 28.8125 
L 18.109375 0 
L 9.078125 0 
L 9.078125 54.6875 
L 18.109375 54.6875 
L 18.109375 46.1875 
Q 20.953125 51.171875 25.484375 53.578125 
Q 30.03125 56 36.53125 56 
Q 37.453125 56 38.578125 55.875 
Q 39.703125 55.765625 41.0625 55.515625 
z
" id="DejaVuSans-114"/>
     <path d="M 9.8125 72.90625 
L 24.515625 72.90625 
L 43.109375 23.296875 
L 61.8125 72.90625 
L 76.515625 72.90625 
L 76.515625 0 
L 66.890625 0 
L 66.890625 64.015625 
L 48.09375 14.015625 
L 38.1875 14.015625 
L 19.390625 64.015625 
L 19.390625 0 
L 9.8125 0 
z
" id="DejaVuSans-77"/>
     <path d="M 9.421875 54.6875 
L 18.40625 54.6875 
L 18.40625 0 
L 9.421875 0 
z
M 9.421875 75.984375 
L 18.40625 75.984375 
L 18.40625 64.59375 
L 9.421875 64.59375 
z
" id="DejaVuSans-105"/>
     <path d="M 9.421875 75.984375 
L 18.40625 75.984375 
L 18.40625 0 
L 9.421875 0 
z
" id="DejaVuSans-108"/>
     <path d="M 30.609375 48.390625 
Q 23.390625 48.390625 19.1875 42.75 
Q 14.984375 37.109375 14.984375 27.296875 
Q 14.984375 17.484375 19.15625 11.84375 
Q 23.34375 6.203125 30.609375 6.203125 
Q 37.796875 6.203125 41.984375 11.859375 
Q 46.1875 17.53125 46.1875 27.296875 
Q 46.1875 37.015625 41.984375 42.703125 
Q 37.796875 48.390625 30.609375 48.390625 
z
M 30.609375 56 
Q 42.328125 56 49.015625 48.375 
Q 55.71875 40.765625 55.71875 27.296875 
Q 55.71875 13.875 49.015625 6.21875 
Q 42.328125 -1.421875 30.609375 -1.421875 
Q 18.84375 -1.421875 12.171875 6.21875 
Q 5.515625 13.875 5.515625 27.296875 
Q 5.515625 40.765625 12.171875 48.375 
Q 18.84375 56 30.609375 56 
z
" id="DejaVuSans-111"/>
     <path d="M 54.890625 33.015625 
L 54.890625 0 
L 45.90625 0 
L 45.90625 32.71875 
Q 45.90625 40.484375 42.875 44.328125 
Q 39.84375 48.1875 33.796875 48.1875 
Q 26.515625 48.1875 22.3125 43.546875 
Q 18.109375 38.921875 18.109375 30.90625 
L 18.109375 0 
L 9.078125 0 
L 9.078125 54.6875 
L 18.109375 54.6875 
L 18.109375 46.1875 
Q 21.34375 51.125 25.703125 53.5625 
Q 30.078125 56 35.796875 56 
Q 45.21875 56 50.046875 50.171875 
Q 54.890625 44.34375 54.890625 33.015625 
z
" id="DejaVuSans-110"/>
     <path d="M 19.671875 64.796875 
L 19.671875 37.40625 
L 32.078125 37.40625 
Q 38.96875 37.40625 42.71875 40.96875 
Q 46.484375 44.53125 46.484375 51.125 
Q 46.484375 57.671875 42.71875 61.234375 
Q 38.96875 64.796875 32.078125 64.796875 
z
M 9.8125 72.90625 
L 32.078125 72.90625 
Q 44.34375 72.90625 50.609375 67.359375 
Q 56.890625 61.8125 56.890625 51.125 
Q 56.890625 40.328125 50.609375 34.8125 
Q 44.34375 29.296875 32.078125 29.296875 
L 19.671875 29.296875 
L 19.671875 0 
L 9.8125 0 
z
" id="DejaVuSans-80"/>
     <path d="M 8.5 21.578125 
L 8.5 54.6875 
L 17.484375 54.6875 
L 17.484375 21.921875 
Q 17.484375 14.15625 20.5 10.265625 
Q 23.53125 6.390625 29.59375 6.390625 
Q 36.859375 6.390625 41.078125 11.03125 
Q 45.3125 15.671875 45.3125 23.6875 
L 45.3125 54.6875 
L 54.296875 54.6875 
L 54.296875 0 
L 45.3125 0 
L 45.3125 8.40625 
Q 42.046875 3.421875 37.71875 1 
Q 33.40625 -1.421875 27.6875 -1.421875 
Q 18.265625 -1.421875 13.375 4.4375 
Q 8.5 10.296875 8.5 21.578125 
z
M 31.109375 56 
z
" id="DejaVuSans-117"/>
     <path d="M 31 75.875 
Q 24.46875 64.65625 21.28125 53.65625 
Q 18.109375 42.671875 18.109375 31.390625 
Q 18.109375 20.125 21.3125 9.0625 
Q 24.515625 -2 31 -13.1875 
L 23.1875 -13.1875 
Q 15.875 -1.703125 12.234375 9.375 
Q 8.59375 20.453125 8.59375 31.390625 
Q 8.59375 42.28125 12.203125 53.3125 
Q 15.828125 64.359375 23.1875 75.875 
z
" id="DejaVuSans-40"/>
     <path d="M 45.40625 46.390625 
L 45.40625 75.984375 
L 54.390625 75.984375 
L 54.390625 0 
L 45.40625 0 
L 45.40625 8.203125 
Q 42.578125 3.328125 38.25 0.953125 
Q 33.9375 -1.421875 27.875 -1.421875 
Q 17.96875 -1.421875 11.734375 6.484375 
Q 5.515625 14.40625 5.515625 27.296875 
Q 5.515625 40.1875 11.734375 48.09375 
Q 17.96875 56 27.875 56 
Q 33.9375 56 38.25 53.625 
Q 42.578125 51.265625 45.40625 46.390625 
z
M 14.796875 27.296875 
Q 14.796875 17.390625 18.875 11.75 
Q 22.953125 6.109375 30.078125 6.109375 
Q 37.203125 6.109375 41.296875 11.75 
Q 45.40625 17.390625 45.40625 27.296875 
Q 45.40625 37.203125 41.296875 42.84375 
Q 37.203125 48.484375 30.078125 48.484375 
Q 22.953125 48.484375 18.875 42.84375 
Q 14.796875 37.203125 14.796875 27.296875 
z
" id="DejaVuSans-100"/>
     <path d="M 32.171875 -5.078125 
Q 28.375 -14.84375 24.75 -17.8125 
Q 21.140625 -20.796875 15.09375 -20.796875 
L 7.90625 -20.796875 
L 7.90625 -13.28125 
L 13.1875 -13.28125 
Q 16.890625 -13.28125 18.9375 -11.515625 
Q 21 -9.765625 23.484375 -3.21875 
L 25.09375 0.875 
L 2.984375 54.6875 
L 12.5 54.6875 
L 29.59375 11.921875 
L 46.6875 54.6875 
L 56.203125 54.6875 
z
" id="DejaVuSans-121"/>
     <path d="M 45.40625 27.984375 
Q 45.40625 37.75 41.375 43.109375 
Q 37.359375 48.484375 30.078125 48.484375 
Q 22.859375 48.484375 18.828125 43.109375 
Q 14.796875 37.75 14.796875 27.984375 
Q 14.796875 18.265625 18.828125 12.890625 
Q 22.859375 7.515625 30.078125 7.515625 
Q 37.359375 7.515625 41.375 12.890625 
Q 45.40625 18.265625 45.40625 27.984375 
z
M 54.390625 6.78125 
Q 54.390625 -7.171875 48.1875 -13.984375 
Q 42 -20.796875 29.203125 -20.796875 
Q 24.46875 -20.796875 20.265625 -20.09375 
Q 16.0625 -19.390625 12.109375 -17.921875 
L 12.109375 -9.1875 
Q 16.0625 -11.328125 19.921875 -12.34375 
Q 23.78125 -13.375 27.78125 -13.375 
Q 36.625 -13.375 41.015625 -8.765625 
Q 45.40625 -4.15625 45.40625 5.171875 
L 45.40625 9.625 
Q 42.625 4.78125 38.28125 2.390625 
Q 33.9375 0 27.875 0 
Q 17.828125 0 11.671875 7.65625 
Q 5.515625 15.328125 5.515625 27.984375 
Q 5.515625 40.671875 11.671875 48.328125 
Q 17.828125 56 27.875 56 
Q 33.9375 56 38.28125 53.609375 
Q 42.625 51.21875 45.40625 46.390625 
L 45.40625 54.6875 
L 54.390625 54.6875 
z
" id="DejaVuSans-103"/>
     <path d="M 8.015625 75.875 
L 15.828125 75.875 
Q 23.140625 64.359375 26.78125 53.3125 
Q 30.421875 42.28125 30.421875 31.390625 
Q 30.421875 20.453125 26.78125 9.375 
Q 23.140625 -1.703125 15.828125 -13.1875 
L 8.015625 -13.1875 
Q 14.5 -2 17.703125 9.0625 
Q 20.90625 20.125 20.90625 31.390625 
Q 20.90625 42.671875 17.703125 53.65625 
Q 14.5 64.65625 8.015625 75.875 
z
" id="DejaVuSans-41"/>
    </defs>
    <g transform="translate(161.528121 20.8)scale(0.12 -0.12)">
     <use xlink:href="#DejaVuSans-78"/>
     <use x="74.804688" xlink:href="#DejaVuSans-101"/>
     <use x="136.328125" xlink:href="#DejaVuSans-119"/>
     <use x="218.115234" xlink:href="#DejaVuSans-32"/>
     <use x="249.902344" xlink:href="#DejaVuSans-67"/>
     <use x="319.726562" xlink:href="#DejaVuSans-97"/>
     <use x="381.005859" xlink:href="#DejaVuSans-115"/>
     <use x="433.105469" xlink:href="#DejaVuSans-101"/>
     <use x="494.628906" xlink:href="#DejaVuSans-115"/>
     <use x="546.728516" xlink:href="#DejaVuSans-32"/>
     <use x="578.515625" xlink:href="#DejaVuSans-112"/>
     <use x="641.992188" xlink:href="#DejaVuSans-101"/>
     <use x="703.515625" xlink:href="#DejaVuSans-114"/>
     <use x="744.628906" xlink:href="#DejaVuSans-32"/>
     <use x="776.416016" xlink:href="#DejaVuSans-77"/>
     <use x="862.695312" xlink:href="#DejaVuSans-105"/>
     <use x="890.478516" xlink:href="#DejaVuSans-108"/>
     <use x="918.261719" xlink:href="#DejaVuSans-108"/>
     <use x="946.044922" xlink:href="#DejaVuSans-105"/>
     <use x="973.828125" xlink:href="#DejaVuSans-111"/>
     <use x="1035.009766" xlink:href="#DejaVuSans-110"/>
     <use x="1098.388672" xlink:href="#DejaVuSans-32"/>
     <use x="1130.175781" xlink:href="#DejaVuSans-80"/>
     <use x="1186.853516" xlink:href="#DejaVuSans-111"/>
     <use x="1248.035156" xlink:href="#DejaVuSans-112"/>
     <use x="1311.511719" xlink:href="#DejaVuSans-117"/>
     <use x="1374.890625" xlink:href="#DejaVuSans-108"/>
     <use x="1402.673828" xlink:href="#DejaVuSans-97"/>
     <use x="1463.953125" xlink:href="#DejaVuSans-116"/>
     <use x="1503.162109" xlink:href="#DejaVuSans-105"/>
     <use x="1530.945312" xlink:href="#DejaVuSans-111"/>
     <use x="1592.126953" xlink:href="#DejaVuSans-110"/>
     <use x="1655.505859" xlink:href="#DejaVuSans-32"/>
     <use x="1687.292969" xlink:href="#DejaVuSans-40"/>
     <use x="1726.306641" xlink:href="#DejaVuSans-55"/>
     <use x="1789.929688" xlink:href="#DejaVuSans-32"/>
     <use x="1821.716797" xlink:href="#DejaVuSans-100"/>
     <use x="1885.193359" xlink:href="#DejaVuSans-97"/>
     <use x="1946.472656" xlink:href="#DejaVuSans-121"/>
     <use x="2005.652344" xlink:href="#DejaVuSans-32"/>
     <use x="2037.439453" xlink:href="#DejaVuSans-114"/>
     <use x="2076.302734" xlink:href="#DejaVuSans-111"/>
     <use x="2137.484375" xlink:href="#DejaVuSans-108"/>
     <use x="2165.267578" xlink:href="#DejaVuSans-108"/>
     <use x="2193.050781" xlink:href="#DejaVuSans-105"/>
     <use x="2220.833984" xlink:href="#DejaVuSans-110"/>
     <use x="2284.212891" xlink:href="#DejaVuSans-103"/>
     <use x="2347.689453" xlink:href="#DejaVuSans-41"/>
    </g>
   </g>
   <g id="legend_1">
    <g id="patch_7">
     <path d="M 51.260618 93.5125 
L 165.415305 93.5125 
Q 167.415305 93.5125 167.415305 91.5125 
L 167.415305 33.8 
Q 167.415305 31.8 165.415305 31.8 
L 51.260618 31.8 
Q 49.260618 31.8 49.260618 33.8 
L 49.260618 91.5125 
Q 49.260618 93.5125 51.260618 93.5125 
z
" style="fill:#ffffff;opacity:0.8;stroke:#cccccc;stroke-linejoin:miter;stroke-width:0.3;"/>
    </g>
    <g id="line2d_21">
     <path d="M 53.260618 39.898438 
L 73.260618 39.898438 
" style="fill:none;stroke:#1f77b4;stroke-linecap:square;stroke-width:1.75;"/>
    </g>
    <g id="line2d_22"/>
    <g id="text_19">
     <!-- England -->
     <defs>
      <path d="M 9.8125 72.90625 
L 55.90625 72.90625 
L 55.90625 64.59375 
L 19.671875 64.59375 
L 19.671875 43.015625 
L 54.390625 43.015625 
L 54.390625 34.71875 
L 19.671875 34.71875 
L 19.671875 8.296875 
L 56.78125 8.296875 
L 56.78125 0 
L 9.8125 0 
z
" id="DejaVuSans-69"/>
     </defs>
     <g transform="translate(81.260618 43.398438)scale(0.1 -0.1)">
      <use xlink:href="#DejaVuSans-69"/>
      <use x="63.183594" xlink:href="#DejaVuSans-110"/>
      <use x="126.5625" xlink:href="#DejaVuSans-103"/>
      <use x="190.039062" xlink:href="#DejaVuSans-108"/>
      <use x="217.822266" xlink:href="#DejaVuSans-97"/>
      <use x="279.101562" xlink:href="#DejaVuSans-110"/>
      <use x="342.480469" xlink:href="#DejaVuSans-100"/>
     </g>
    </g>
    <g id="line2d_23">
     <path d="M 53.260618 54.576563 
L 73.260618 54.576563 
" style="fill:none;stroke:#ff7f0e;stroke-linecap:square;stroke-width:1.75;"/>
    </g>
    <g id="line2d_24"/>
    <g id="text_20">
     <!-- Scotland -->
     <defs>
      <path d="M 53.515625 70.515625 
L 53.515625 60.890625 
Q 47.90625 63.578125 42.921875 64.890625 
Q 37.9375 66.21875 33.296875 66.21875 
Q 25.25 66.21875 20.875 63.09375 
Q 16.5 59.96875 16.5 54.203125 
Q 16.5 49.359375 19.40625 46.890625 
Q 22.3125 44.4375 30.421875 42.921875 
L 36.375 41.703125 
Q 47.40625 39.59375 52.65625 34.296875 
Q 57.90625 29 57.90625 20.125 
Q 57.90625 9.515625 50.796875 4.046875 
Q 43.703125 -1.421875 29.984375 -1.421875 
Q 24.8125 -1.421875 18.96875 -0.25 
Q 13.140625 0.921875 6.890625 3.21875 
L 6.890625 13.375 
Q 12.890625 10.015625 18.65625 8.296875 
Q 24.421875 6.59375 29.984375 6.59375 
Q 38.421875 6.59375 43.015625 9.90625 
Q 47.609375 13.234375 47.609375 19.390625 
Q 47.609375 24.75 44.3125 27.78125 
Q 41.015625 30.8125 33.5 32.328125 
L 27.484375 33.5 
Q 16.453125 35.6875 11.515625 40.375 
Q 6.59375 45.0625 6.59375 53.421875 
Q 6.59375 63.09375 13.40625 68.65625 
Q 20.21875 74.21875 32.171875 74.21875 
Q 37.3125 74.21875 42.625 73.28125 
Q 47.953125 72.359375 53.515625 70.515625 
z
" id="DejaVuSans-83"/>
      <path d="M 48.78125 52.59375 
L 48.78125 44.1875 
Q 44.96875 46.296875 41.140625 47.34375 
Q 37.3125 48.390625 33.40625 48.390625 
Q 24.65625 48.390625 19.8125 42.84375 
Q 14.984375 37.3125 14.984375 27.296875 
Q 14.984375 17.28125 19.8125 11.734375 
Q 24.65625 6.203125 33.40625 6.203125 
Q 37.3125 6.203125 41.140625 7.25 
Q 44.96875 8.296875 48.78125 10.40625 
L 48.78125 2.09375 
Q 45.015625 0.34375 40.984375 -0.53125 
Q 36.96875 -1.421875 32.421875 -1.421875 
Q 20.0625 -1.421875 12.78125 6.34375 
Q 5.515625 14.109375 5.515625 27.296875 
Q 5.515625 40.671875 12.859375 48.328125 
Q 20.21875 56 33.015625 56 
Q 37.15625 56 41.109375 55.140625 
Q 45.0625 54.296875 48.78125 52.59375 
z
" id="DejaVuSans-99"/>
     </defs>
     <g transform="translate(81.260618 58.076563)scale(0.1 -0.1)">
      <use xlink:href="#DejaVuSans-83"/>
      <use x="63.476562" xlink:href="#DejaVuSans-99"/>
      <use x="118.457031" xlink:href="#DejaVuSans-111"/>
      <use x="179.638672" xlink:href="#DejaVuSans-116"/>
      <use x="218.847656" xlink:href="#DejaVuSans-108"/>
      <use x="246.630859" xlink:href="#DejaVuSans-97"/>
      <use x="307.910156" xlink:href="#DejaVuSans-110"/>
      <use x="371.289062" xlink:href="#DejaVuSans-100"/>
     </g>
    </g>
    <g id="line2d_25">
     <path d="M 53.260618 69.254688 
L 73.260618 69.254688 
" style="fill:none;stroke:#2ca02c;stroke-linecap:square;stroke-width:1.75;"/>
    </g>
    <g id="line2d_26"/>
    <g id="text_21">
     <!-- Wales -->
     <defs>
      <path d="M 3.328125 72.90625 
L 13.28125 72.90625 
L 28.609375 11.28125 
L 43.890625 72.90625 
L 54.984375 72.90625 
L 70.3125 11.28125 
L 85.59375 72.90625 
L 95.609375 72.90625 
L 77.296875 0 
L 64.890625 0 
L 49.515625 63.28125 
L 33.984375 0 
L 21.578125 0 
z
" id="DejaVuSans-87"/>
     </defs>
     <g transform="translate(81.260618 72.754688)scale(0.1 -0.1)">
      <use xlink:href="#DejaVuSans-87"/>
      <use x="92.501953" xlink:href="#DejaVuSans-97"/>
      <use x="153.78125" xlink:href="#DejaVuSans-108"/>
      <use x="181.564453" xlink:href="#DejaVuSans-101"/>
      <use x="243.087891" xlink:href="#DejaVuSans-115"/>
     </g>
    </g>
    <g id="line2d_27">
     <path d="M 53.260618 83.932813 
L 73.260618 83.932813 
" style="fill:none;stroke:#d62728;stroke-linecap:square;stroke-width:1.75;"/>
    </g>
    <g id="line2d_28"/>
    <g id="text_22">
     <!-- Northern Ireland -->
     <defs>
      <path d="M 54.890625 33.015625 
L 54.890625 0 
L 45.90625 0 
L 45.90625 32.71875 
Q 45.90625 40.484375 42.875 44.328125 
Q 39.84375 48.1875 33.796875 48.1875 
Q 26.515625 48.1875 22.3125 43.546875 
Q 18.109375 38.921875 18.109375 30.90625 
L 18.109375 0 
L 9.078125 0 
L 9.078125 75.984375 
L 18.109375 75.984375 
L 18.109375 46.1875 
Q 21.34375 51.125 25.703125 53.5625 
Q 30.078125 56 35.796875 56 
Q 45.21875 56 50.046875 50.171875 
Q 54.890625 44.34375 54.890625 33.015625 
z
" id="DejaVuSans-104"/>
      <path d="M 9.8125 72.90625 
L 19.671875 72.90625 
L 19.671875 0 
L 9.8125 0 
z
" id="DejaVuSans-73"/>
     </defs>
     <g transform="translate(81.260618 87.432813)scale(0.1 -0.1)">
      <use xlink:href="#DejaVuSans-78"/>
      <use x="74.804688" xlink:href="#DejaVuSans-111"/>
      <use x="135.986328" xlink:href="#DejaVuSans-114"/>
      <use x="177.099609" xlink:href="#DejaVuSans-116"/>
      <use x="216.308594" xlink:href="#DejaVuSans-104"/>
      <use x="279.6875" xlink:href="#DejaVuSans-101"/>
      <use x="341.210938" xlink:href="#DejaVuSans-114"/>
      <use x="380.574219" xlink:href="#DejaVuSans-110"/>
      <use x="443.953125" xlink:href="#DejaVuSans-32"/>
      <use x="475.740234" xlink:href="#DejaVuSans-73"/>
      <use x="505.232422" xlink:href="#DejaVuSans-114"/>
      <use x="544.095703" xlink:href="#DejaVuSans-101"/>
      <use x="605.619141" xlink:href="#DejaVuSans-108"/>
      <use x="633.402344" xlink:href="#DejaVuSans-97"/>
      <use x="694.681641" xlink:href="#DejaVuSans-110"/>
      <use x="758.060547" xlink:href="#DejaVuSans-100"/>
     </g>
    </g>
   </g>
  </g>
 </g>
 <defs>
  <clipPath id="p784924832f">
   <rect height="304.302246" width="520.939382" x="44.260618" y="26.8"/>
  </clipPath>
 </defs>
</svg>
