<?xml version="1.0" encoding="utf-8" standalone="no"?>
<!DOCTYPE svg PUBLIC "-//W3C//DTD SVG 1.1//EN"
  "http://www.w3.org/Graphics/SVG/1.1/DTD/svg11.dtd">
<!-- Created with matplotlib (https://matplotlib.org/) -->
<svg height="396pt" version="1.1" viewBox="0 0 576 396" width="576pt" xmlns="http://www.w3.org/2000/svg" xmlns:xlink="http://www.w3.org/1999/xlink">
 <defs>
  <style type="text/css">
*{stroke-linecap:butt;stroke-linejoin:round;}
  </style>
 </defs>
 <g id="figure_1">
  <g id="patch_1">
   <path d="M 0 396 
L 576 396 
L 576 0 
L 0 0 
z
" style="fill:#ffffff;"/>
  </g>
  <g id="axes_1">
   <g id="patch_2">
    <path d="M 43.88788 331.102246 
L 565.2 331.102246 
L 565.2 26.8 
L 43.88788 26.8 
z
" style="fill:#ffffff;"/>
   </g>
   <g id="matplotlib.axis_1">
    <g id="xtick_1">
     <g id="line2d_1">
      <defs>
       <path d="M 0 0 
L 0 3.5 
" id="mabfdd270d5" style="stroke:#000000;"/>
      </defs>
      <g>
       <use style="stroke:#000000;" x="53.437017" xlink:href="#mabfdd270d5" y="331.102246"/>
      </g>
     </g>
     <g id="text_1">
      <!-- 2020-01 -->
      <defs>
       <path d="M 19.1875 8.296875 
L 53.609375 8.296875 
L 53.609375 0 
L 7.328125 0 
L 7.328125 8.296875 
Q 12.9375 14.109375 22.625 23.890625 
Q 32.328125 33.6875 34.8125 36.53125 
Q 39.546875 41.84375 41.421875 45.53125 
Q 43.3125 49.21875 43.3125 52.78125 
Q 43.3125 58.59375 39.234375 62.25 
Q 35.15625 65.921875 28.609375 65.921875 
Q 23.96875 65.921875 18.8125 64.3125 
Q 13.671875 62.703125 7.8125 59.421875 
L 7.8125 69.390625 
Q 13.765625 71.78125 18.9375 73 
Q 24.125 74.21875 28.421875 74.21875 
Q 39.75 74.21875 46.484375 68.546875 
Q 53.21875 62.890625 53.21875 53.421875 
Q 53.21875 48.921875 51.53125 44.890625 
Q 49.859375 40.875 45.40625 35.40625 
Q 44.1875 33.984375 37.640625 27.21875 
Q 31.109375 20.453125 19.1875 8.296875 
z
" id="DejaVuSans-50"/>
       <path d="M 31.78125 66.40625 
Q 24.171875 66.40625 20.328125 58.90625 
Q 16.5 51.421875 16.5 36.375 
Q 16.5 21.390625 20.328125 13.890625 
Q 24.171875 6.390625 31.78125 6.390625 
Q 39.453125 6.390625 43.28125 13.890625 
Q 47.125 21.390625 47.125 36.375 
Q 47.125 51.421875 43.28125 58.90625 
Q 39.453125 66.40625 31.78125 66.40625 
z
M 31.78125 74.21875 
Q 44.046875 74.21875 50.515625 64.515625 
Q 56.984375 54.828125 56.984375 36.375 
Q 56.984375 17.96875 50.515625 8.265625 
Q 44.046875 -1.421875 31.78125 -1.421875 
Q 19.53125 -1.421875 13.0625 8.265625 
Q 6.59375 17.96875 6.59375 36.375 
Q 6.59375 54.828125 13.0625 64.515625 
Q 19.53125 74.21875 31.78125 74.21875 
z
" id="DejaVuSans-48"/>
       <path d="M 4.890625 31.390625 
L 31.203125 31.390625 
L 31.203125 23.390625 
L 4.890625 23.390625 
z
" id="DejaVuSans-45"/>
       <path d="M 12.40625 8.296875 
L 28.515625 8.296875 
L 28.515625 63.921875 
L 10.984375 60.40625 
L 10.984375 69.390625 
L 28.421875 72.90625 
L 38.28125 72.90625 
L 38.28125 8.296875 
L 54.390625 8.296875 
L 54.390625 0 
L 12.40625 0 
z
" id="DejaVuSans-49"/>
      </defs>
      <g transform="translate(16.212196 369.074092)rotate(-30)scale(0.1 -0.1)">
       <use xlink:href="#DejaVuSans-50"/>
       <use x="63.623047" xlink:href="#DejaVuSans-48"/>
       <use x="127.246094" xlink:href="#DejaVuSans-50"/>
       <use x="190.869141" xlink:href="#DejaVuSans-48"/>
       <use x="254.492188" xlink:href="#DejaVuSans-45"/>
       <use x="290.576172" xlink:href="#DejaVuSans-48"/>
       <use x="354.199219" xlink:href="#DejaVuSans-49"/>
      </g>
     </g>
    </g>
    <g id="xtick_2">
     <g id="line2d_2">
      <g>
       <use style="stroke:#000000;" x="108.256134" xlink:href="#mabfdd270d5" y="331.102246"/>
      </g>
     </g>
     <g id="text_2">
      <!-- 2020-02 -->
      <g transform="translate(71.031313 369.074092)rotate(-30)scale(0.1 -0.1)">
       <use xlink:href="#DejaVuSans-50"/>
       <use x="63.623047" xlink:href="#DejaVuSans-48"/>
       <use x="127.246094" xlink:href="#DejaVuSans-50"/>
       <use x="190.869141" xlink:href="#DejaVuSans-48"/>
       <use x="254.492188" xlink:href="#DejaVuSans-45"/>
       <use x="290.576172" xlink:href="#DejaVuSans-48"/>
       <use x="354.199219" xlink:href="#DejaVuSans-50"/>
      </g>
     </g>
    </g>
    <g id="xtick_3">
     <g id="line2d_3">
      <g>
       <use style="stroke:#000000;" x="159.538534" xlink:href="#mabfdd270d5" y="331.102246"/>
      </g>
     </g>
     <g id="text_3">
      <!-- 2020-03 -->
      <defs>
       <path d="M 40.578125 39.3125 
Q 47.65625 37.796875 51.625 33 
Q 55.609375 28.21875 55.609375 21.1875 
Q 55.609375 10.40625 48.1875 4.484375 
Q 40.765625 -1.421875 27.09375 -1.421875 
Q 22.515625 -1.421875 17.65625 -0.515625 
Q 12.796875 0.390625 7.625 2.203125 
L 7.625 11.71875 
Q 11.71875 9.328125 16.59375 8.109375 
Q 21.484375 6.890625 26.8125 6.890625 
Q 36.078125 6.890625 40.9375 10.546875 
Q 45.796875 14.203125 45.796875 21.1875 
Q 45.796875 27.640625 41.28125 31.265625 
Q 36.765625 34.90625 28.71875 34.90625 
L 20.21875 34.90625 
L 20.21875 43.015625 
L 29.109375 43.015625 
Q 36.375 43.015625 40.234375 45.921875 
Q 44.09375 48.828125 44.09375 54.296875 
Q 44.09375 59.90625 40.109375 62.90625 
Q 36.140625 65.921875 28.71875 65.921875 
Q 24.65625 65.921875 20.015625 65.03125 
Q 15.375 64.15625 9.8125 62.3125 
L 9.8125 71.09375 
Q 15.4375 72.65625 20.34375 73.4375 
Q 25.25 74.21875 29.59375 74.21875 
Q 40.828125 74.21875 47.359375 69.109375 
Q 53.90625 64.015625 53.90625 55.328125 
Q 53.90625 49.265625 50.4375 45.09375 
Q 46.96875 40.921875 40.578125 39.3125 
z
" id="DejaVuSans-51"/>
      </defs>
      <g transform="translate(122.313713 369.074092)rotate(-30)scale(0.1 -0.1)">
       <use xlink:href="#DejaVuSans-50"/>
       <use x="63.623047" xlink:href="#DejaVuSans-48"/>
       <use x="127.246094" xlink:href="#DejaVuSans-50"/>
       <use x="190.869141" xlink:href="#DejaVuSans-48"/>
       <use x="254.492188" xlink:href="#DejaVuSans-45"/>
       <use x="290.576172" xlink:href="#DejaVuSans-48"/>
       <use x="354.199219" xlink:href="#DejaVuSans-51"/>
      </g>
     </g>
    </g>
    <g id="xtick_4">
     <g id="line2d_4">
      <g>
       <use style="stroke:#000000;" x="214.357651" xlink:href="#mabfdd270d5" y="331.102246"/>
      </g>
     </g>
     <g id="text_4">
      <!-- 2020-04 -->
      <defs>
       <path d="M 37.796875 64.3125 
L 12.890625 25.390625 
L 37.796875 25.390625 
z
M 35.203125 72.90625 
L 47.609375 72.90625 
L 47.609375 25.390625 
L 58.015625 25.390625 
L 58.015625 17.1875 
L 47.609375 17.1875 
L 47.609375 0 
L 37.796875 0 
L 37.796875 17.1875 
L 4.890625 17.1875 
L 4.890625 26.703125 
z
" id="DejaVuSans-52"/>
      </defs>
      <g transform="translate(177.13283 369.074092)rotate(-30)scale(0.1 -0.1)">
       <use xlink:href="#DejaVuSans-50"/>
       <use x="63.623047" xlink:href="#DejaVuSans-48"/>
       <use x="127.246094" xlink:href="#DejaVuSans-50"/>
       <use x="190.869141" xlink:href="#DejaVuSans-48"/>
       <use x="254.492188" xlink:href="#DejaVuSans-45"/>
       <use x="290.576172" xlink:href="#DejaVuSans-48"/>
       <use x="354.199219" xlink:href="#DejaVuSans-52"/>
      </g>
     </g>
    </g>
    <g id="xtick_5">
     <g id="line2d_5">
      <g>
       <use style="stroke:#000000;" x="267.408409" xlink:href="#mabfdd270d5" y="331.102246"/>
      </g>
     </g>
     <g id="text_5">
      <!-- 2020-05 -->
      <defs>
       <path d="M 10.796875 72.90625 
L 49.515625 72.90625 
L 49.515625 64.59375 
L 19.828125 64.59375 
L 19.828125 46.734375 
Q 21.96875 47.46875 24.109375 47.828125 
Q 26.265625 48.1875 28.421875 48.1875 
Q 40.625 48.1875 47.75 41.5 
Q 54.890625 34.8125 54.890625 23.390625 
Q 54.890625 11.625 47.5625 5.09375 
Q 40.234375 -1.421875 26.90625 -1.421875 
Q 22.3125 -1.421875 17.546875 -0.640625 
Q 12.796875 0.140625 7.71875 1.703125 
L 7.71875 11.625 
Q 12.109375 9.234375 16.796875 8.0625 
Q 21.484375 6.890625 26.703125 6.890625 
Q 35.15625 6.890625 40.078125 11.328125 
Q 45.015625 15.765625 45.015625 23.390625 
Q 45.015625 31 40.078125 35.4375 
Q 35.15625 39.890625 26.703125 39.890625 
Q 22.75 39.890625 18.8125 39.015625 
Q 14.890625 38.140625 10.796875 36.28125 
z
" id="DejaVuSans-53"/>
      </defs>
      <g transform="translate(230.183588 369.074092)rotate(-30)scale(0.1 -0.1)">
       <use xlink:href="#DejaVuSans-50"/>
       <use x="63.623047" xlink:href="#DejaVuSans-48"/>
       <use x="127.246094" xlink:href="#DejaVuSans-50"/>
       <use x="190.869141" xlink:href="#DejaVuSans-48"/>
       <use x="254.492188" xlink:href="#DejaVuSans-45"/>
       <use x="290.576172" xlink:href="#DejaVuSans-48"/>
       <use x="354.199219" xlink:href="#DejaVuSans-53"/>
      </g>
     </g>
    </g>
    <g id="xtick_6">
     <g id="line2d_6">
      <g>
       <use style="stroke:#000000;" x="322.227526" xlink:href="#mabfdd270d5" y="331.102246"/>
      </g>
     </g>
     <g id="text_6">
      <!-- 2020-06 -->
      <defs>
       <path d="M 33.015625 40.375 
Q 26.375 40.375 22.484375 35.828125 
Q 18.609375 31.296875 18.609375 23.390625 
Q 18.609375 15.53125 22.484375 10.953125 
Q 26.375 6.390625 33.015625 6.390625 
Q 39.65625 6.390625 43.53125 10.953125 
Q 47.40625 15.53125 47.40625 23.390625 
Q 47.40625 31.296875 43.53125 35.828125 
Q 39.65625 40.375 33.015625 40.375 
z
M 52.59375 71.296875 
L 52.59375 62.3125 
Q 48.875 64.0625 45.09375 64.984375 
Q 41.3125 65.921875 37.59375 65.921875 
Q 27.828125 65.921875 22.671875 59.328125 
Q 17.53125 52.734375 16.796875 39.40625 
Q 19.671875 43.65625 24.015625 45.921875 
Q 28.375 48.1875 33.59375 48.1875 
Q 44.578125 48.1875 50.953125 41.515625 
Q 57.328125 34.859375 57.328125 23.390625 
Q 57.328125 12.15625 50.6875 5.359375 
Q 44.046875 -1.421875 33.015625 -1.421875 
Q 20.359375 -1.421875 13.671875 8.265625 
Q 6.984375 17.96875 6.984375 36.375 
Q 6.984375 53.65625 15.1875 63.9375 
Q 23.390625 74.21875 37.203125 74.21875 
Q 40.921875 74.21875 44.703125 73.484375 
Q 48.484375 72.75 52.59375 71.296875 
z
" id="DejaVuSans-54"/>
      </defs>
      <g transform="translate(285.002705 369.074092)rotate(-30)scale(0.1 -0.1)">
       <use xlink:href="#DejaVuSans-50"/>
       <use x="63.623047" xlink:href="#DejaVuSans-48"/>
       <use x="127.246094" xlink:href="#DejaVuSans-50"/>
       <use x="190.869141" xlink:href="#DejaVuSans-48"/>
       <use x="254.492188" xlink:href="#DejaVuSans-45"/>
       <use x="290.576172" xlink:href="#DejaVuSans-48"/>
       <use x="354.199219" xlink:href="#DejaVuSans-54"/>
      </g>
     </g>
    </g>
    <g id="xtick_7">
     <g id="line2d_7">
      <g>
       <use style="stroke:#000000;" x="375.278285" xlink:href="#mabfdd270d5" y="331.102246"/>
      </g>
     </g>
     <g id="text_7">
      <!-- 2020-07 -->
      <defs>
       <path d="M 8.203125 72.90625 
L 55.078125 72.90625 
L 55.078125 68.703125 
L 28.609375 0 
L 18.3125 0 
L 43.21875 64.59375 
L 8.203125 64.59375 
z
" id="DejaVuSans-55"/>
      </defs>
      <g transform="translate(338.053464 369.074092)rotate(-30)scale(0.1 -0.1)">
       <use xlink:href="#DejaVuSans-50"/>
       <use x="63.623047" xlink:href="#DejaVuSans-48"/>
       <use x="127.246094" xlink:href="#DejaVuSans-50"/>
       <use x="190.869141" xlink:href="#DejaVuSans-48"/>
       <use x="254.492188" xlink:href="#DejaVuSans-45"/>
       <use x="290.576172" xlink:href="#DejaVuSans-48"/>
       <use x="354.199219" xlink:href="#DejaVuSans-55"/>
      </g>
     </g>
    </g>
    <g id="xtick_8">
     <g id="line2d_8">
      <g>
       <use style="stroke:#000000;" x="430.097402" xlink:href="#mabfdd270d5" y="331.102246"/>
      </g>
     </g>
     <g id="text_8">
      <!-- 2020-08 -->
      <defs>
       <path d="M 31.78125 34.625 
Q 24.75 34.625 20.71875 30.859375 
Q 16.703125 27.09375 16.703125 20.515625 
Q 16.703125 13.921875 20.71875 10.15625 
Q 24.75 6.390625 31.78125 6.390625 
Q 38.8125 6.390625 42.859375 10.171875 
Q 46.921875 13.96875 46.921875 20.515625 
Q 46.921875 27.09375 42.890625 30.859375 
Q 38.875 34.625 31.78125 34.625 
z
M 21.921875 38.8125 
Q 15.578125 40.375 12.03125 44.71875 
Q 8.5 49.078125 8.5 55.328125 
Q 8.5 64.0625 14.71875 69.140625 
Q 20.953125 74.21875 31.78125 74.21875 
Q 42.671875 74.21875 48.875 69.140625 
Q 55.078125 64.0625 55.078125 55.328125 
Q 55.078125 49.078125 51.53125 44.71875 
Q 48 40.375 41.703125 38.8125 
Q 48.828125 37.15625 52.796875 32.3125 
Q 56.78125 27.484375 56.78125 20.515625 
Q 56.78125 9.90625 50.3125 4.234375 
Q 43.84375 -1.421875 31.78125 -1.421875 
Q 19.734375 -1.421875 13.25 4.234375 
Q 6.78125 9.90625 6.78125 20.515625 
Q 6.78125 27.484375 10.78125 32.3125 
Q 14.796875 37.15625 21.921875 38.8125 
z
M 18.3125 54.390625 
Q 18.3125 48.734375 21.84375 45.5625 
Q 25.390625 42.390625 31.78125 42.390625 
Q 38.140625 42.390625 41.71875 45.5625 
Q 45.3125 48.734375 45.3125 54.390625 
Q 45.3125 60.0625 41.71875 63.234375 
Q 38.140625 66.40625 31.78125 66.40625 
Q 25.390625 66.40625 21.84375 63.234375 
Q 18.3125 60.0625 18.3125 54.390625 
z
" id="DejaVuSans-56"/>
      </defs>
      <g transform="translate(392.872581 369.074092)rotate(-30)scale(0.1 -0.1)">
       <use xlink:href="#DejaVuSans-50"/>
       <use x="63.623047" xlink:href="#DejaVuSans-48"/>
       <use x="127.246094" xlink:href="#DejaVuSans-50"/>
       <use x="190.869141" xlink:href="#DejaVuSans-48"/>
       <use x="254.492188" xlink:href="#DejaVuSans-45"/>
       <use x="290.576172" xlink:href="#DejaVuSans-48"/>
       <use x="354.199219" xlink:href="#DejaVuSans-56"/>
      </g>
     </g>
    </g>
    <g id="xtick_9">
     <g id="line2d_9">
      <g>
       <use style="stroke:#000000;" x="484.916519" xlink:href="#mabfdd270d5" y="331.102246"/>
      </g>
     </g>
     <g id="text_9">
      <!-- 2020-09 -->
      <defs>
       <path d="M 10.984375 1.515625 
L 10.984375 10.5 
Q 14.703125 8.734375 18.5 7.8125 
Q 22.3125 6.890625 25.984375 6.890625 
Q 35.75 6.890625 40.890625 13.453125 
Q 46.046875 20.015625 46.78125 33.40625 
Q 43.953125 29.203125 39.59375 26.953125 
Q 35.25 24.703125 29.984375 24.703125 
Q 19.046875 24.703125 12.671875 31.3125 
Q 6.296875 37.9375 6.296875 49.421875 
Q 6.296875 60.640625 12.9375 67.421875 
Q 19.578125 74.21875 30.609375 74.21875 
Q 43.265625 74.21875 49.921875 64.515625 
Q 56.59375 54.828125 56.59375 36.375 
Q 56.59375 19.140625 48.40625 8.859375 
Q 40.234375 -1.421875 26.421875 -1.421875 
Q 22.703125 -1.421875 18.890625 -0.6875 
Q 15.09375 0.046875 10.984375 1.515625 
z
M 30.609375 32.421875 
Q 37.25 32.421875 41.125 36.953125 
Q 45.015625 41.5 45.015625 49.421875 
Q 45.015625 57.28125 41.125 61.84375 
Q 37.25 66.40625 30.609375 66.40625 
Q 23.96875 66.40625 20.09375 61.84375 
Q 16.21875 57.28125 16.21875 49.421875 
Q 16.21875 41.5 20.09375 36.953125 
Q 23.96875 32.421875 30.609375 32.421875 
z
" id="DejaVuSans-57"/>
      </defs>
      <g transform="translate(447.691698 369.074092)rotate(-30)scale(0.1 -0.1)">
       <use xlink:href="#DejaVuSans-50"/>
       <use x="63.623047" xlink:href="#DejaVuSans-48"/>
       <use x="127.246094" xlink:href="#DejaVuSans-50"/>
       <use x="190.869141" xlink:href="#DejaVuSans-48"/>
       <use x="254.492188" xlink:href="#DejaVuSans-45"/>
       <use x="290.576172" xlink:href="#DejaVuSans-48"/>
       <use x="354.199219" xlink:href="#DejaVuSans-57"/>
      </g>
     </g>
    </g>
    <g id="xtick_10">
     <g id="line2d_10">
      <g>
       <use style="stroke:#000000;" x="537.967277" xlink:href="#mabfdd270d5" y="331.102246"/>
      </g>
     </g>
     <g id="text_10">
      <!-- 2020-10 -->
      <g transform="translate(500.742457 369.074092)rotate(-30)scale(0.1 -0.1)">
       <use xlink:href="#DejaVuSans-50"/>
       <use x="63.623047" xlink:href="#DejaVuSans-48"/>
       <use x="127.246094" xlink:href="#DejaVuSans-50"/>
       <use x="190.869141" xlink:href="#DejaVuSans-48"/>
       <use x="254.492188" xlink:href="#DejaVuSans-45"/>
       <use x="290.576172" xlink:href="#DejaVuSans-49"/>
       <use x="354.199219" xlink:href="#DejaVuSans-48"/>
      </g>
     </g>
    </g>
    <g id="text_11">
     <!-- Date -->
     <defs>
      <path d="M 19.671875 64.796875 
L 19.671875 8.109375 
L 31.59375 8.109375 
Q 46.6875 8.109375 53.6875 14.9375 
Q 60.6875 21.78125 60.6875 36.53125 
Q 60.6875 51.171875 53.6875 57.984375 
Q 46.6875 64.796875 31.59375 64.796875 
z
M 9.8125 72.90625 
L 30.078125 72.90625 
Q 51.265625 72.90625 61.171875 64.09375 
Q 71.09375 55.28125 71.09375 36.53125 
Q 71.09375 17.671875 61.125 8.828125 
Q 51.171875 0 30.078125 0 
L 9.8125 0 
z
" id="DejaVuSans-68"/>
      <path d="M 34.28125 27.484375 
Q 23.390625 27.484375 19.1875 25 
Q 14.984375 22.515625 14.984375 16.5 
Q 14.984375 11.71875 18.140625 8.90625 
Q 21.296875 6.109375 26.703125 6.109375 
Q 34.1875 6.109375 38.703125 11.40625 
Q 43.21875 16.703125 43.21875 25.484375 
L 43.21875 27.484375 
z
M 52.203125 31.203125 
L 52.203125 0 
L 43.21875 0 
L 43.21875 8.296875 
Q 40.140625 3.328125 35.546875 0.953125 
Q 30.953125 -1.421875 24.3125 -1.421875 
Q 15.921875 -1.421875 10.953125 3.296875 
Q 6 8.015625 6 15.921875 
Q 6 25.140625 12.171875 29.828125 
Q 18.359375 34.515625 30.609375 34.515625 
L 43.21875 34.515625 
L 43.21875 35.40625 
Q 43.21875 41.609375 39.140625 45 
Q 35.0625 48.390625 27.6875 48.390625 
Q 23 48.390625 18.546875 47.265625 
Q 14.109375 46.140625 10.015625 43.890625 
L 10.015625 52.203125 
Q 14.9375 54.109375 19.578125 55.046875 
Q 24.21875 56 28.609375 56 
Q 40.484375 56 46.34375 49.84375 
Q 52.203125 43.703125 52.203125 31.203125 
z
" id="DejaVuSans-97"/>
      <path d="M 18.3125 70.21875 
L 18.3125 54.6875 
L 36.8125 54.6875 
L 36.8125 47.703125 
L 18.3125 47.703125 
L 18.3125 18.015625 
Q 18.3125 11.328125 20.140625 9.421875 
Q 21.96875 7.515625 27.59375 7.515625 
L 36.8125 7.515625 
L 36.8125 0 
L 27.59375 0 
Q 17.1875 0 13.234375 3.875 
Q 9.28125 7.765625 9.28125 18.015625 
L 9.28125 47.703125 
L 2.6875 47.703125 
L 2.6875 54.6875 
L 9.28125 54.6875 
L 9.28125 70.21875 
z
" id="DejaVuSans-116"/>
      <path d="M 56.203125 29.59375 
L 56.203125 25.203125 
L 14.890625 25.203125 
Q 15.484375 15.921875 20.484375 11.0625 
Q 25.484375 6.203125 34.421875 6.203125 
Q 39.59375 6.203125 44.453125 7.46875 
Q 49.3125 8.734375 54.109375 11.28125 
L 54.109375 2.78125 
Q 49.265625 0.734375 44.1875 -0.34375 
Q 39.109375 -1.421875 33.890625 -1.421875 
Q 20.796875 -1.421875 13.15625 6.1875 
Q 5.515625 13.8125 5.515625 26.8125 
Q 5.515625 40.234375 12.765625 48.109375 
Q 20.015625 56 32.328125 56 
Q 43.359375 56 49.78125 48.890625 
Q 56.203125 41.796875 56.203125 29.59375 
z
M 47.21875 32.234375 
Q 47.125 39.59375 43.09375 43.984375 
Q 39.0625 48.390625 32.421875 48.390625 
Q 24.90625 48.390625 20.390625 44.140625 
Q 15.875 39.890625 15.1875 32.171875 
z
" id="DejaVuSans-101"/>
     </defs>
     <g transform="translate(291.398081 383.233436)scale(0.11 -0.11)">
      <use xlink:href="#DejaVuSans-68"/>
      <use x="77.001953" xlink:href="#DejaVuSans-97"/>
      <use x="138.28125" xlink:href="#DejaVuSans-116"/>
      <use x="177.490234" xlink:href="#DejaVuSans-101"/>
     </g>
    </g>
   </g>
   <g id="matplotlib.axis_2">
    <g id="ytick_1">
     <g id="line2d_11">
      <defs>
       <path d="M 0 0 
L -3.5 0 
" id="m2dbc4a8906" style="stroke:#000000;"/>
      </defs>
      <g>
       <use style="stroke:#000000;" x="43.88788" xlink:href="#m2dbc4a8906" y="317.270326"/>
      </g>
     </g>
     <g id="text_12">
      <!-- 0 -->
      <g transform="translate(27.02538 321.069544)scale(0.1 -0.1)">
       <use xlink:href="#DejaVuSans-48"/>
      </g>
     </g>
    </g>
    <g id="ytick_2">
     <g id="line2d_12">
      <g>
       <use style="stroke:#000000;" x="43.88788" xlink:href="#m2dbc4a8906" y="280.931621"/>
      </g>
     </g>
     <g id="text_13">
      <!-- 2 -->
      <g transform="translate(27.02538 284.730839)scale(0.1 -0.1)">
       <use xlink:href="#DejaVuSans-50"/>
      </g>
     </g>
    </g>
    <g id="ytick_3">
     <g id="line2d_13">
      <g>
       <use style="stroke:#000000;" x="43.88788" xlink:href="#m2dbc4a8906" y="244.592915"/>
      </g>
     </g>
     <g id="text_14">
      <!-- 4 -->
      <g transform="translate(27.02538 248.392134)scale(0.1 -0.1)">
       <use xlink:href="#DejaVuSans-52"/>
      </g>
     </g>
    </g>
    <g id="ytick_4">
     <g id="line2d_14">
      <g>
       <use style="stroke:#000000;" x="43.88788" xlink:href="#m2dbc4a8906" y="208.25421"/>
      </g>
     </g>
     <g id="text_15">
      <!-- 6 -->
      <g transform="translate(27.02538 212.053429)scale(0.1 -0.1)">
       <use xlink:href="#DejaVuSans-54"/>
      </g>
     </g>
    </g>
    <g id="ytick_5">
     <g id="line2d_15">
      <g>
       <use style="stroke:#000000;" x="43.88788" xlink:href="#m2dbc4a8906" y="171.915505"/>
      </g>
     </g>
     <g id="text_16">
      <!-- 8 -->
      <g transform="translate(27.02538 175.714724)scale(0.1 -0.1)">
       <use xlink:href="#DejaVuSans-56"/>
      </g>
     </g>
    </g>
    <g id="ytick_6">
     <g id="line2d_16">
      <g>
       <use style="stroke:#000000;" x="43.88788" xlink:href="#m2dbc4a8906" y="135.5768"/>
      </g>
     </g>
     <g id="text_17">
      <!-- 10 -->
      <g transform="translate(20.66288 139.376019)scale(0.1 -0.1)">
       <use xlink:href="#DejaVuSans-49"/>
       <use x="63.623047" xlink:href="#DejaVuSans-48"/>
      </g>
     </g>
    </g>
    <g id="ytick_7">
     <g id="line2d_17">
      <g>
       <use style="stroke:#000000;" x="43.88788" xlink:href="#m2dbc4a8906" y="99.238095"/>
      </g>
     </g>
     <g id="text_18">
      <!-- 12 -->
      <g transform="translate(20.66288 103.037314)scale(0.1 -0.1)">
       <use xlink:href="#DejaVuSans-49"/>
       <use x="63.623047" xlink:href="#DejaVuSans-50"/>
      </g>
     </g>
    </g>
    <g id="ytick_8">
     <g id="line2d_18">
      <g>
       <use style="stroke:#000000;" x="43.88788" xlink:href="#m2dbc4a8906" y="62.89939"/>
      </g>
     </g>
     <g id="text_19">
      <!-- 14 -->
      <g transform="translate(20.66288 66.698609)scale(0.1 -0.1)">
       <use xlink:href="#DejaVuSans-49"/>
       <use x="63.623047" xlink:href="#DejaVuSans-52"/>
      </g>
     </g>
    </g>
   </g>
   <g id="line2d_19">
    <path clip-path="url(#paed2faff43)" d="M 67.583886 317.270326 
L 171.917044 317.178098 
L 173.685403 317.131983 
L 175.453761 316.947527 
L 180.758837 316.855299 
L 182.527196 316.071359 
L 184.295554 315.425762 
L 186.063913 314.457366 
L 187.832272 313.950111 
L 189.60063 312.428347 
L 191.368989 310.583783 
L 193.137347 309.154246 
L 194.905706 307.494139 
L 196.674065 307.032998 
L 198.442423 304.957865 
L 200.210782 299.055261 
L 201.97914 292.368719 
L 203.747499 286.51223 
L 207.284216 265.115294 
L 209.052575 257.229785 
L 210.820934 244.041156 
L 212.589292 233.665487 
L 216.126009 193.592345 
L 217.894368 175.93065 
L 219.662727 157.023875 
L 221.431085 139.36218 
L 223.199444 131.153872 
L 224.967802 101.594743 
L 226.736161 87.34549 
L 230.272878 51.929871 
L 232.041237 49.347483 
L 233.809596 48.148516 
L 235.577954 40.63192 
L 237.346313 40.724148 
L 239.114671 49.578053 
L 240.88303 53.451636 
L 242.651389 63.08948 
L 244.419747 51.145932 
L 246.188106 61.475487 
L 247.956464 68.761513 
L 249.724823 63.735078 
L 251.493182 63.965648 
L 253.26154 78.353243 
L 255.029899 78.583814 
L 256.798258 91.265187 
L 258.566616 93.709234 
L 262.103333 116.812391 
L 263.871692 122.392196 
L 265.640051 124.744014 
L 267.408409 133.874603 
L 269.176768 145.12644 
L 270.945126 149.96842 
L 272.713485 151.905211 
L 274.481844 162.188653 
L 276.250202 165.647209 
L 278.018561 173.302147 
L 279.78692 179.066408 
L 281.555278 191.009957 
L 283.323637 192.485607 
L 285.091995 195.851936 
L 286.860354 200.463344 
L 288.628713 208.164397 
L 290.397071 211.576839 
L 292.16543 221.62971 
L 293.933788 216.003792 
L 295.702147 222.782562 
L 297.470506 224.627126 
L 299.238864 228.869622 
L 301.007223 233.619373 
L 302.775582 237.446842 
L 304.54394 238.507466 
L 306.312299 245.470693 
L 308.080657 230.760299 
L 309.849016 232.973775 
L 311.617375 248.744793 
L 313.385733 242.427163 
L 315.154092 238.046325 
L 316.92245 238.55358 
L 318.690809 242.242707 
L 320.459168 257.137557 
L 322.227526 257.460355 
L 323.995885 251.788323 
L 325.764244 259.99663 
L 327.532602 269.35779 
L 329.300961 269.680588 
L 332.837678 268.804421 
L 334.606037 270.418414 
L 336.374395 272.678004 
L 338.142754 276.13656 
L 339.911112 278.350037 
L 341.679471 283.975955 
L 343.44783 285.451606 
L 345.216188 286.650572 
L 346.984547 287.52674 
L 348.752906 290.893068 
L 350.521264 293.337115 
L 352.289623 293.521571 
L 354.057981 295.550591 
L 355.82634 296.795671 
L 357.594699 296.472873 
L 359.363057 297.026242 
L 361.131416 298.040752 
L 362.899774 298.778577 
L 364.668133 297.34904 
L 366.436492 297.210698 
L 368.20485 298.732463 
L 369.973209 298.824691 
L 371.741568 298.640235 
L 373.509926 300.346456 
L 375.278285 299.608631 
L 377.046643 302.375476 
L 378.815002 303.805012 
L 380.583361 304.127811 
L 382.351719 304.588952 
L 384.120078 304.865636 
L 385.888436 304.727294 
L 387.656795 306.479629 
L 389.425154 306.571858 
L 394.73023 308.001394 
L 396.498588 308.139737 
L 398.266947 308.508649 
L 400.035305 309.799844 
L 401.803664 310.076528 
L 405.340381 310.814354 
L 408.877098 310.676011 
L 410.645457 311.459951 
L 412.413816 311.828863 
L 414.182174 312.474461 
L 417.718892 311.874978 
L 419.48725 312.01332 
L 421.255609 312.336118 
L 423.023967 312.520575 
L 424.792326 311.921092 
L 426.560685 312.336118 
L 428.329043 313.166172 
L 435.402478 313.857883 
L 437.170836 314.641823 
L 438.939195 313.950111 
L 442.475912 314.780165 
L 444.244271 314.641823 
L 446.012629 313.903997 
L 447.780988 314.180682 
L 454.854422 313.673427 
L 456.622781 313.765655 
L 458.39114 314.411252 
L 461.927857 314.411252 
L 463.696215 314.964621 
L 465.464574 315.333534 
L 467.232933 314.641823 
L 470.76965 314.595709 
L 472.538009 314.365138 
L 474.306367 314.457366 
L 476.074726 314.27291 
L 477.843084 313.950111 
L 481.379802 314.319024 
L 483.14816 314.365138 
L 484.916519 315.010735 
L 486.684877 315.28742 
L 490.221595 315.241306 
L 493.758312 315.241306 
L 495.526671 315.241306 
L 497.295029 314.088454 
L 500.831746 313.950111 
L 504.368464 314.180682 
L 507.905181 313.811769 
L 509.673539 313.903997 
L 511.441898 313.488971 
L 513.210257 313.2584 
L 514.978615 312.474461 
L 518.515333 311.275494 
L 520.283691 311.183266 
L 522.05205 310.676011 
L 523.820408 309.938186 
L 525.588767 309.062018 
L 529.125484 308.324193 
L 530.893843 308.416421 
L 532.662201 308.231965 
L 536.198919 305.419005 
L 537.967277 304.91175 
L 539.735636 303.66667 
L 541.503995 303.251643 
L 541.503995 303.251643 
" style="fill:none;stroke:#1f77b4;stroke-linecap:square;stroke-width:1.75;"/>
   </g>
   <g id="line2d_20">
    <path clip-path="url(#paed2faff43)" d="M 67.583886 317.270326 
L 186.063913 317.270326 
L 189.60063 316.320123 
L 191.368989 314.894818 
L 193.137347 314.894818 
L 194.905706 314.419717 
L 196.674065 312.994413 
L 198.442423 311.094007 
L 200.210782 310.618905 
L 201.97914 308.243398 
L 203.747499 308.243398 
L 205.515858 304.442586 
L 207.284216 301.591978 
L 209.052575 302.542181 
L 210.820934 301.591978 
L 212.589292 292.089948 
L 214.357651 281.637716 
L 216.126009 269.285078 
L 219.662727 232.702266 
L 221.431085 232.227165 
L 223.199444 234.127571 
L 224.967802 209.422295 
L 226.736161 189.468034 
L 228.50452 164.762758 
L 230.272878 163.812555 
L 232.041237 163.337453 
L 233.809596 152.885221 
L 235.577954 149.559511 
L 237.346313 165.712961 
L 239.114671 159.06154 
L 240.88303 159.536642 
L 242.651389 154.785627 
L 244.419747 150.509714 
L 246.188106 157.161134 
L 247.956464 155.73583 
L 249.724823 141.482786 
L 251.493182 144.808497 
L 253.26154 155.260729 
L 255.029899 152.41012 
L 256.798258 156.686033 
L 258.566616 152.885221 
L 260.334975 152.41012 
L 262.103333 152.41012 
L 263.871692 149.559511 
L 265.640051 148.609308 
L 267.408409 160.011743 
L 269.176768 161.437048 
L 270.945126 164.287656 
L 272.713485 168.088468 
L 274.481844 180.441106 
L 276.250202 180.441106 
L 278.018561 180.916207 
L 279.78692 176.640294 
L 281.555278 180.441106 
L 283.323637 181.391309 
L 285.091995 181.391309 
L 286.860354 178.5407 
L 288.628713 188.992932 
L 290.397071 200.870469 
L 292.16543 202.295773 
L 293.933788 199.920266 
L 295.702147 200.395367 
L 297.470506 201.820672 
L 299.238864 211.797802 
L 301.007223 217.023918 
L 302.775582 215.598614 
L 304.54394 226.050846 
L 306.312299 237.928382 
L 308.080657 237.928382 
L 309.849016 237.453281 
L 311.617375 242.679397 
L 313.385733 260.258151 
L 315.154092 272.135687 
L 316.92245 276.4116 
L 318.690809 273.560992 
L 320.459168 273.560992 
L 322.227526 274.511195 
L 323.995885 277.361803 
L 325.764244 278.312006 
L 327.532602 279.737311 
L 329.300961 280.212412 
L 331.069319 287.814035 
L 332.837678 292.089948 
L 334.606037 292.56505 
L 336.374395 294.940557 
L 338.142754 294.465456 
L 339.911112 296.365862 
L 341.679471 301.591978 
L 343.44783 302.067079 
L 345.216188 301.591978 
L 346.984547 301.591978 
L 348.752906 302.542181 
L 352.289623 305.392789 
L 354.057981 303.967485 
L 355.82634 305.392789 
L 357.594699 305.867891 
L 359.363057 305.867891 
L 361.131416 306.342992 
L 362.899774 308.718499 
L 364.668133 308.718499 
L 366.436492 311.569108 
L 368.20485 312.519311 
L 371.741568 312.519311 
L 373.509926 312.994413 
L 375.278285 314.419717 
L 377.046643 314.894818 
L 378.815002 314.419717 
L 384.120078 314.419717 
L 385.888436 315.36992 
L 387.656795 315.36992 
L 391.193512 316.320123 
L 396.498588 316.320123 
L 400.035305 317.270326 
L 401.803664 316.795224 
L 412.413816 316.795224 
L 414.182174 317.270326 
L 460.159498 317.270326 
L 461.927857 316.795224 
L 472.538009 316.795224 
L 474.306367 316.320123 
L 484.916519 316.320123 
L 486.684877 316.795224 
L 488.453236 316.320123 
L 495.526671 316.320123 
L 497.295029 314.894818 
L 500.831746 315.845021 
L 507.905181 315.845021 
L 509.673539 316.795224 
L 511.441898 316.320123 
L 513.210257 316.320123 
L 514.978615 315.845021 
L 516.746974 314.419717 
L 522.05205 314.419717 
L 523.820408 313.944615 
L 525.588767 312.994413 
L 527.357126 312.994413 
L 529.125484 314.419717 
L 530.893843 313.944615 
L 532.662201 313.944615 
L 534.43056 314.419717 
L 536.198919 312.04421 
L 537.967277 311.569108 
L 539.735636 310.143804 
L 541.503995 308.243398 
L 541.503995 308.243398 
" style="fill:none;stroke:#ff7f0e;stroke-linecap:square;stroke-width:1.75;"/>
   </g>
   <g id="line2d_21">
    <path clip-path="url(#paed2faff43)" d="M 67.583886 317.270326 
L 193.137347 317.270326 
L 194.905706 315.623817 
L 196.674065 308.214526 
L 198.442423 304.921508 
L 200.210782 304.098254 
L 201.97914 299.981981 
L 205.515858 290.102928 
L 207.284216 288.456419 
L 209.052575 287.633164 
L 210.820934 279.400619 
L 212.589292 274.461092 
L 214.357651 254.702984 
L 216.126009 244.000676 
L 217.894368 229.182095 
L 219.662727 221.772805 
L 221.431085 220.126296 
L 223.199444 209.423988 
L 224.967802 199.544934 
L 226.736161 196.251916 
L 228.50452 178.140317 
L 230.272878 174.024044 
L 232.041237 155.089191 
L 233.809596 150.149664 
L 235.577954 160.028718 
L 237.346313 160.028718 
L 239.114671 137.800847 
L 240.88303 145.210137 
L 242.651389 160.028718 
L 244.419747 166.614754 
L 246.188106 147.679901 
L 247.956464 152.619428 
L 249.724823 147.679901 
L 251.493182 184.726353 
L 253.26154 197.07517 
L 255.029899 115.572976 
L 256.798258 119.689248 
L 258.566616 141.917119 
L 260.334975 142.740374 
L 262.103333 149.32641 
L 263.871692 101.577649 
L 265.640051 97.461377 
L 267.408409 174.024044 
L 269.176768 156.7357 
L 270.945126 156.7357 
L 272.713485 151.796173 
L 274.481844 144.386883 
L 276.250202 187.196116 
L 278.018561 190.489134 
L 279.78692 181.433335 
L 281.555278 210.247242 
L 283.323637 211.893751 
L 285.091995 219.303041 
L 286.860354 227.535586 
L 288.628713 226.712332 
L 290.397071 233.298368 
L 292.16543 248.940203 
L 293.933788 241.530913 
L 295.702147 241.530913 
L 297.470506 242.354167 
L 299.238864 241.530913 
L 301.007223 248.116949 
L 302.775582 248.940203 
L 304.54394 250.586712 
L 306.312299 260.465766 
L 308.080657 264.582038 
L 309.849016 262.112275 
L 311.617375 269.521565 
L 313.385733 271.991329 
L 315.154092 267.875056 
L 316.92245 265.405293 
L 318.690809 258.819257 
L 320.459168 255.526239 
L 322.227526 257.172748 
L 323.995885 257.996002 
L 325.764244 253.056475 
L 329.300961 262.935529 
L 331.069319 266.228547 
L 332.837678 271.168074 
L 334.606037 272.814583 
L 336.374395 271.168074 
L 338.142754 277.75411 
L 339.911112 279.400619 
L 341.679471 274.461092 
L 343.44783 277.75411 
L 345.216188 279.400619 
L 346.984547 278.577365 
L 348.752906 279.400619 
L 350.521264 278.577365 
L 352.289623 279.400619 
L 354.057981 284.340146 
L 355.82634 288.456419 
L 357.594699 290.102928 
L 361.131416 295.042454 
L 362.899774 296.688963 
L 364.668133 295.865709 
L 366.436492 297.512218 
L 368.20485 294.2192 
L 369.973209 293.395945 
L 371.741568 291.749437 
L 375.278285 295.042454 
L 377.046643 293.395945 
L 380.583361 293.395945 
L 382.351719 294.2192 
L 384.120078 296.688963 
L 385.888436 296.688963 
L 387.656795 298.335472 
L 389.425154 303.274999 
L 391.193512 304.921508 
L 392.961871 308.214526 
L 394.73023 309.037781 
L 396.498588 309.037781 
L 398.266947 309.861035 
L 401.803664 313.154053 
L 403.572023 312.330799 
L 405.340381 313.154053 
L 407.10874 312.330799 
L 408.877098 312.330799 
L 410.645457 313.977308 
L 412.413816 314.800562 
L 414.182174 314.800562 
L 415.950533 315.623817 
L 423.023967 315.623817 
L 424.792326 312.330799 
L 426.560685 312.330799 
L 428.329043 307.391272 
L 431.86576 304.098254 
L 433.634119 304.098254 
L 435.402478 303.274999 
L 437.170836 305.744763 
L 438.939195 303.274999 
L 440.707553 302.451745 
L 442.475912 303.274999 
L 444.244271 305.744763 
L 446.012629 305.744763 
L 447.780988 304.921508 
L 449.549347 302.451745 
L 451.317705 304.921508 
L 453.086064 310.68429 
L 454.854422 310.68429 
L 456.622781 309.037781 
L 458.39114 309.037781 
L 460.159498 310.68429 
L 461.927857 314.800562 
L 469.001291 314.800562 
L 470.76965 313.977308 
L 472.538009 313.977308 
L 476.074726 312.330799 
L 477.843084 312.330799 
L 479.611443 313.154053 
L 481.379802 314.800562 
L 483.14816 315.623817 
L 484.916519 314.800562 
L 488.453236 316.447071 
L 490.221595 316.447071 
L 491.989953 315.623817 
L 495.526671 315.623817 
L 497.295029 316.447071 
L 502.600105 316.447071 
L 504.368464 317.270326 
L 511.441898 317.270326 
L 513.210257 314.800562 
L 514.978615 313.977308 
L 516.746974 312.330799 
L 522.05205 312.330799 
L 523.820408 310.68429 
L 525.588767 312.330799 
L 527.357126 310.68429 
L 529.125484 309.861035 
L 532.662201 309.861035 
L 534.43056 307.391272 
L 536.198919 308.214526 
L 537.967277 304.098254 
L 539.735636 304.098254 
L 541.503995 302.451745 
L 541.503995 302.451745 
" style="fill:none;stroke:#2ca02c;stroke-linecap:square;stroke-width:1.75;"/>
   </g>
   <g id="line2d_22">
    <path clip-path="url(#paed2faff43)" d="M 67.583886 317.270326 
L 193.137347 317.270326 
L 194.905706 315.89964 
L 196.674065 315.89964 
L 198.442423 314.528955 
L 201.97914 309.046213 
L 205.515858 300.8221 
L 207.284216 299.451415 
L 209.052575 291.227302 
L 210.820934 291.227302 
L 212.589292 285.74456 
L 214.357651 285.74456 
L 216.126009 281.632504 
L 217.894368 269.296335 
L 219.662727 261.072222 
L 221.431085 259.701537 
L 223.199444 251.477424 
L 224.967802 255.589481 
L 226.736161 251.477424 
L 230.272878 256.960166 
L 232.041237 247.365368 
L 233.809596 241.882626 
L 235.577954 243.253312 
L 237.346313 233.658514 
L 239.114671 232.287828 
L 240.88303 213.098232 
L 242.651389 202.132748 
L 244.419747 199.391377 
L 246.188106 213.098232 
L 247.956464 203.503434 
L 249.724823 199.391377 
L 251.493182 166.494927 
L 253.26154 173.348354 
L 255.029899 177.46041 
L 256.798258 178.831096 
L 258.566616 173.348354 
L 260.334975 177.46041 
L 262.103333 167.865612 
L 263.871692 196.650007 
L 265.640051 202.132748 
L 267.408409 198.020692 
L 269.176768 204.874119 
L 270.945126 204.874119 
L 272.713485 210.356861 
L 274.481844 214.468917 
L 276.250202 207.61549 
L 278.018561 214.468917 
L 279.78692 233.658514 
L 281.555278 243.253312 
L 283.323637 243.253312 
L 285.091995 247.365368 
L 286.860354 258.330852 
L 288.628713 274.779077 
L 290.397071 273.408391 
L 292.16543 258.330852 
L 293.933788 258.330852 
L 295.702147 261.072222 
L 297.470506 256.960166 
L 299.238864 259.701537 
L 301.007223 255.589481 
L 302.775582 252.84811 
L 304.54394 269.296335 
L 306.312299 273.408391 
L 308.080657 276.149762 
L 309.849016 273.408391 
L 311.617375 283.00319 
L 313.385733 287.115246 
L 315.154092 293.968673 
L 320.459168 293.968673 
L 322.227526 303.563471 
L 323.995885 300.8221 
L 325.764244 292.597988 
L 327.532602 293.968673 
L 329.300961 296.710044 
L 331.069319 296.710044 
L 334.606037 299.451415 
L 336.374395 302.192786 
L 338.142754 313.158269 
L 341.679471 313.158269 
L 343.44783 311.787584 
L 346.984547 311.787584 
L 350.521264 309.046213 
L 352.289623 310.416898 
L 354.057981 310.416898 
L 355.82634 311.787584 
L 368.20485 311.787584 
L 371.741568 309.046213 
L 375.278285 311.787584 
L 378.815002 309.046213 
L 384.120078 313.158269 
L 387.656795 313.158269 
L 389.425154 314.528955 
L 391.193512 317.270326 
L 394.73023 317.270326 
L 396.498588 314.528955 
L 407.10874 314.528955 
L 408.877098 317.270326 
L 444.244271 317.270326 
L 446.012629 315.89964 
L 451.317705 315.89964 
L 453.086064 314.528955 
L 456.622781 314.528955 
L 458.39114 315.89964 
L 460.159498 314.528955 
L 463.696215 314.528955 
L 465.464574 315.89964 
L 470.76965 315.89964 
L 472.538009 317.270326 
L 474.306367 317.270326 
L 476.074726 315.89964 
L 484.916519 315.89964 
L 486.684877 313.158269 
L 488.453236 313.158269 
L 490.221595 311.787584 
L 493.758312 311.787584 
L 495.526671 310.416898 
L 497.295029 307.675528 
L 499.063388 310.416898 
L 500.831746 310.416898 
L 502.600105 311.787584 
L 506.136822 311.787584 
L 507.905181 310.416898 
L 509.673539 311.787584 
L 511.441898 309.046213 
L 513.210257 310.416898 
L 514.978615 307.675528 
L 520.283691 307.675528 
L 522.05205 309.046213 
L 523.820408 311.787584 
L 525.588767 311.787584 
L 527.357126 314.528955 
L 529.125484 313.158269 
L 530.893843 313.158269 
L 532.662201 315.89964 
L 534.43056 315.89964 
L 536.198919 314.528955 
L 537.967277 311.787584 
L 539.735636 310.416898 
L 541.503995 310.416898 
L 541.503995 310.416898 
" style="fill:none;stroke:#d62728;stroke-linecap:square;stroke-width:1.75;"/>
   </g>
   <g id="patch_3">
    <path d="M 43.88788 331.102246 
L 43.88788 26.8 
" style="fill:none;stroke:#000000;stroke-linecap:square;stroke-linejoin:miter;stroke-width:0.8;"/>
   </g>
   <g id="patch_4">
    <path d="M 565.2 331.102246 
L 565.2 26.8 
" style="fill:none;stroke:#000000;stroke-linecap:square;stroke-linejoin:miter;stroke-width:0.8;"/>
   </g>
   <g id="patch_5">
    <path d="M 43.88788 331.102246 
L 565.2 331.102246 
" style="fill:none;stroke:#000000;stroke-linecap:square;stroke-linejoin:miter;stroke-width:0.8;"/>
   </g>
   <g id="patch_6">
    <path d="M 43.88788 26.8 
L 565.2 26.8 
" style="fill:none;stroke:#000000;stroke-linecap:square;stroke-linejoin:miter;stroke-width:0.8;"/>
   </g>
   <g id="text_20">
    <!-- New Deaths per Million Population (7 day rolling) -->
    <defs>
     <path d="M 9.8125 72.90625 
L 23.09375 72.90625 
L 55.421875 11.921875 
L 55.421875 72.90625 
L 64.984375 72.90625 
L 64.984375 0 
L 51.703125 0 
L 19.390625 60.984375 
L 19.390625 0 
L 9.8125 0 
z
" id="DejaVuSans-78"/>
     <path d="M 4.203125 54.6875 
L 13.1875 54.6875 
L 24.421875 12.015625 
L 35.59375 54.6875 
L 46.1875 54.6875 
L 57.421875 12.015625 
L 68.609375 54.6875 
L 77.59375 54.6875 
L 63.28125 0 
L 52.6875 0 
L 40.921875 44.828125 
L 29.109375 0 
L 18.5 0 
z
" id="DejaVuSans-119"/>
     <path id="DejaVuSans-32"/>
     <path d="M 54.890625 33.015625 
L 54.890625 0 
L 45.90625 0 
L 45.90625 32.71875 
Q 45.90625 40.484375 42.875 44.328125 
Q 39.84375 48.1875 33.796875 48.1875 
Q 26.515625 48.1875 22.3125 43.546875 
Q 18.109375 38.921875 18.109375 30.90625 
L 18.109375 0 
L 9.078125 0 
L 9.078125 75.984375 
L 18.109375 75.984375 
L 18.109375 46.1875 
Q 21.34375 51.125 25.703125 53.5625 
Q 30.078125 56 35.796875 56 
Q 45.21875 56 50.046875 50.171875 
Q 54.890625 44.34375 54.890625 33.015625 
z
" id="DejaVuSans-104"/>
     <path d="M 44.28125 53.078125 
L 44.28125 44.578125 
Q 40.484375 46.53125 36.375 47.5 
Q 32.28125 48.484375 27.875 48.484375 
Q 21.1875 48.484375 17.84375 46.4375 
Q 14.5 44.390625 14.5 40.28125 
Q 14.5 37.15625 16.890625 35.375 
Q 19.28125 33.59375 26.515625 31.984375 
L 29.59375 31.296875 
Q 39.15625 29.25 43.1875 25.515625 
Q 47.21875 21.78125 47.21875 15.09375 
Q 47.21875 7.46875 41.1875 3.015625 
Q 35.15625 -1.421875 24.609375 -1.421875 
Q 20.21875 -1.421875 15.453125 -0.5625 
Q 10.6875 0.296875 5.421875 2 
L 5.421875 11.28125 
Q 10.40625 8.6875 15.234375 7.390625 
Q 20.0625 6.109375 24.8125 6.109375 
Q 31.15625 6.109375 34.5625 8.28125 
Q 37.984375 10.453125 37.984375 14.40625 
Q 37.984375 18.0625 35.515625 20.015625 
Q 33.0625 21.96875 24.703125 23.78125 
L 21.578125 24.515625 
Q 13.234375 26.265625 9.515625 29.90625 
Q 5.8125 33.546875 5.8125 39.890625 
Q 5.8125 47.609375 11.28125 51.796875 
Q 16.75 56 26.8125 56 
Q 31.78125 56 36.171875 55.265625 
Q 40.578125 54.546875 44.28125 53.078125 
z
" id="DejaVuSans-115"/>
     <path d="M 18.109375 8.203125 
L 18.109375 -20.796875 
L 9.078125 -20.796875 
L 9.078125 54.6875 
L 18.109375 54.6875 
L 18.109375 46.390625 
Q 20.953125 51.265625 25.265625 53.625 
Q 29.59375 56 35.59375 56 
Q 45.5625 56 51.78125 48.09375 
Q 58.015625 40.1875 58.015625 27.296875 
Q 58.015625 14.40625 51.78125 6.484375 
Q 45.5625 -1.421875 35.59375 -1.421875 
Q 29.59375 -1.421875 25.265625 0.953125 
Q 20.953125 3.328125 18.109375 8.203125 
z
M 48.6875 27.296875 
Q 48.6875 37.203125 44.609375 42.84375 
Q 40.53125 48.484375 33.40625 48.484375 
Q 26.265625 48.484375 22.1875 42.84375 
Q 18.109375 37.203125 18.109375 27.296875 
Q 18.109375 17.390625 22.1875 11.75 
Q 26.265625 6.109375 33.40625 6.109375 
Q 40.53125 6.109375 44.609375 11.75 
Q 48.6875 17.390625 48.6875 27.296875 
z
" id="DejaVuSans-112"/>
     <path d="M 41.109375 46.296875 
Q 39.59375 47.171875 37.8125 47.578125 
Q 36.03125 48 33.890625 48 
Q 26.265625 48 22.1875 43.046875 
Q 18.109375 38.09375 18.109375 28.8125 
L 18.109375 0 
L 9.078125 0 
L 9.078125 54.6875 
L 18.109375 54.6875 
L 18.109375 46.1875 
Q 20.953125 51.171875 25.484375 53.578125 
Q 30.03125 56 36.53125 56 
Q 37.453125 56 38.578125 55.875 
Q 39.703125 55.765625 41.0625 55.515625 
z
" id="DejaVuSans-114"/>
     <path d="M 9.8125 72.90625 
L 24.515625 72.90625 
L 43.109375 23.296875 
L 61.8125 72.90625 
L 76.515625 72.90625 
L 76.515625 0 
L 66.890625 0 
L 66.890625 64.015625 
L 48.09375 14.015625 
L 38.1875 14.015625 
L 19.390625 64.015625 
L 19.390625 0 
L 9.8125 0 
z
" id="DejaVuSans-77"/>
     <path d="M 9.421875 54.6875 
L 18.40625 54.6875 
L 18.40625 0 
L 9.421875 0 
z
M 9.421875 75.984375 
L 18.40625 75.984375 
L 18.40625 64.59375 
L 9.421875 64.59375 
z
" id="DejaVuSans-105"/>
     <path d="M 9.421875 75.984375 
L 18.40625 75.984375 
L 18.40625 0 
L 9.421875 0 
z
" id="DejaVuSans-108"/>
     <path d="M 30.609375 48.390625 
Q 23.390625 48.390625 19.1875 42.75 
Q 14.984375 37.109375 14.984375 27.296875 
Q 14.984375 17.484375 19.15625 11.84375 
Q 23.34375 6.203125 30.609375 6.203125 
Q 37.796875 6.203125 41.984375 11.859375 
Q 46.1875 17.53125 46.1875 27.296875 
Q 46.1875 37.015625 41.984375 42.703125 
Q 37.796875 48.390625 30.609375 48.390625 
z
M 30.609375 56 
Q 42.328125 56 49.015625 48.375 
Q 55.71875 40.765625 55.71875 27.296875 
Q 55.71875 13.875 49.015625 6.21875 
Q 42.328125 -1.421875 30.609375 -1.421875 
Q 18.84375 -1.421875 12.171875 6.21875 
Q 5.515625 13.875 5.515625 27.296875 
Q 5.515625 40.765625 12.171875 48.375 
Q 18.84375 56 30.609375 56 
z
" id="DejaVuSans-111"/>
     <path d="M 54.890625 33.015625 
L 54.890625 0 
L 45.90625 0 
L 45.90625 32.71875 
Q 45.90625 40.484375 42.875 44.328125 
Q 39.84375 48.1875 33.796875 48.1875 
Q 26.515625 48.1875 22.3125 43.546875 
Q 18.109375 38.921875 18.109375 30.90625 
L 18.109375 0 
L 9.078125 0 
L 9.078125 54.6875 
L 18.109375 54.6875 
L 18.109375 46.1875 
Q 21.34375 51.125 25.703125 53.5625 
Q 30.078125 56 35.796875 56 
Q 45.21875 56 50.046875 50.171875 
Q 54.890625 44.34375 54.890625 33.015625 
z
" id="DejaVuSans-110"/>
     <path d="M 19.671875 64.796875 
L 19.671875 37.40625 
L 32.078125 37.40625 
Q 38.96875 37.40625 42.71875 40.96875 
Q 46.484375 44.53125 46.484375 51.125 
Q 46.484375 57.671875 42.71875 61.234375 
Q 38.96875 64.796875 32.078125 64.796875 
z
M 9.8125 72.90625 
L 32.078125 72.90625 
Q 44.34375 72.90625 50.609375 67.359375 
Q 56.890625 61.8125 56.890625 51.125 
Q 56.890625 40.328125 50.609375 34.8125 
Q 44.34375 29.296875 32.078125 29.296875 
L 19.671875 29.296875 
L 19.671875 0 
L 9.8125 0 
z
" id="DejaVuSans-80"/>
     <path d="M 8.5 21.578125 
L 8.5 54.6875 
L 17.484375 54.6875 
L 17.484375 21.921875 
Q 17.484375 14.15625 20.5 10.265625 
Q 23.53125 6.390625 29.59375 6.390625 
Q 36.859375 6.390625 41.078125 11.03125 
Q 45.3125 15.671875 45.3125 23.6875 
L 45.3125 54.6875 
L 54.296875 54.6875 
L 54.296875 0 
L 45.3125 0 
L 45.3125 8.40625 
Q 42.046875 3.421875 37.71875 1 
Q 33.40625 -1.421875 27.6875 -1.421875 
Q 18.265625 -1.421875 13.375 4.4375 
Q 8.5 10.296875 8.5 21.578125 
z
M 31.109375 56 
z
" id="DejaVuSans-117"/>
     <path d="M 31 75.875 
Q 24.46875 64.65625 21.28125 53.65625 
Q 18.109375 42.671875 18.109375 31.390625 
Q 18.109375 20.125 21.3125 9.0625 
Q 24.515625 -2 31 -13.1875 
L 23.1875 -13.1875 
Q 15.875 -1.703125 12.234375 9.375 
Q 8.59375 20.453125 8.59375 31.390625 
Q 8.59375 42.28125 12.203125 53.3125 
Q 15.828125 64.359375 23.1875 75.875 
z
" id="DejaVuSans-40"/>
     <path d="M 45.40625 46.390625 
L 45.40625 75.984375 
L 54.390625 75.984375 
L 54.390625 0 
L 45.40625 0 
L 45.40625 8.203125 
Q 42.578125 3.328125 38.25 0.953125 
Q 33.9375 -1.421875 27.875 -1.421875 
Q 17.96875 -1.421875 11.734375 6.484375 
Q 5.515625 14.40625 5.515625 27.296875 
Q 5.515625 40.1875 11.734375 48.09375 
Q 17.96875 56 27.875 56 
Q 33.9375 56 38.25 53.625 
Q 42.578125 51.265625 45.40625 46.390625 
z
M 14.796875 27.296875 
Q 14.796875 17.390625 18.875 11.75 
Q 22.953125 6.109375 30.078125 6.109375 
Q 37.203125 6.109375 41.296875 11.75 
Q 45.40625 17.390625 45.40625 27.296875 
Q 45.40625 37.203125 41.296875 42.84375 
Q 37.203125 48.484375 30.078125 48.484375 
Q 22.953125 48.484375 18.875 42.84375 
Q 14.796875 37.203125 14.796875 27.296875 
z
" id="DejaVuSans-100"/>
     <path d="M 32.171875 -5.078125 
Q 28.375 -14.84375 24.75 -17.8125 
Q 21.140625 -20.796875 15.09375 -20.796875 
L 7.90625 -20.796875 
L 7.90625 -13.28125 
L 13.1875 -13.28125 
Q 16.890625 -13.28125 18.9375 -11.515625 
Q 21 -9.765625 23.484375 -3.21875 
L 25.09375 0.875 
L 2.984375 54.6875 
L 12.5 54.6875 
L 29.59375 11.921875 
L 46.6875 54.6875 
L 56.203125 54.6875 
z
" id="DejaVuSans-121"/>
     <path d="M 45.40625 27.984375 
Q 45.40625 37.75 41.375 43.109375 
Q 37.359375 48.484375 30.078125 48.484375 
Q 22.859375 48.484375 18.828125 43.109375 
Q 14.796875 37.75 14.796875 27.984375 
Q 14.796875 18.265625 18.828125 12.890625 
Q 22.859375 7.515625 30.078125 7.515625 
Q 37.359375 7.515625 41.375 12.890625 
Q 45.40625 18.265625 45.40625 27.984375 
z
M 54.390625 6.78125 
Q 54.390625 -7.171875 48.1875 -13.984375 
Q 42 -20.796875 29.203125 -20.796875 
Q 24.46875 -20.796875 20.265625 -20.09375 
Q 16.0625 -19.390625 12.109375 -17.921875 
L 12.109375 -9.1875 
Q 16.0625 -11.328125 19.921875 -12.34375 
Q 23.78125 -13.375 27.78125 -13.375 
Q 36.625 -13.375 41.015625 -8.765625 
Q 45.40625 -4.15625 45.40625 5.171875 
L 45.40625 9.625 
Q 42.625 4.78125 38.28125 2.390625 
Q 33.9375 0 27.875 0 
Q 17.828125 0 11.671875 7.65625 
Q 5.515625 15.328125 5.515625 27.984375 
Q 5.515625 40.671875 11.671875 48.328125 
Q 17.828125 56 27.875 56 
Q 33.9375 56 38.28125 53.609375 
Q 42.625 51.21875 45.40625 46.390625 
L 45.40625 54.6875 
L 54.390625 54.6875 
z
" id="DejaVuSans-103"/>
     <path d="M 8.015625 75.875 
L 15.828125 75.875 
Q 23.140625 64.359375 26.78125 53.3125 
Q 30.421875 42.28125 30.421875 31.390625 
Q 30.421875 20.453125 26.78125 9.375 
Q 23.140625 -1.703125 15.828125 -13.1875 
L 8.015625 -13.1875 
Q 14.5 -2 17.703125 9.0625 
Q 20.90625 20.125 20.90625 31.390625 
Q 20.90625 42.671875 17.703125 53.65625 
Q 14.5 64.65625 8.015625 75.875 
z
" id="DejaVuSans-41"/>
    </defs>
    <g transform="translate(157.882378 20.8)scale(0.12 -0.12)">
     <use xlink:href="#DejaVuSans-78"/>
     <use x="74.804688" xlink:href="#DejaVuSans-101"/>
     <use x="136.328125" xlink:href="#DejaVuSans-119"/>
     <use x="218.115234" xlink:href="#DejaVuSans-32"/>
     <use x="249.902344" xlink:href="#DejaVuSans-68"/>
     <use x="326.904297" xlink:href="#DejaVuSans-101"/>
     <use x="388.427734" xlink:href="#DejaVuSans-97"/>
     <use x="449.707031" xlink:href="#DejaVuSans-116"/>
     <use x="488.916016" xlink:href="#DejaVuSans-104"/>
     <use x="552.294922" xlink:href="#DejaVuSans-115"/>
     <use x="604.394531" xlink:href="#DejaVuSans-32"/>
     <use x="636.181641" xlink:href="#DejaVuSans-112"/>
     <use x="699.658203" xlink:href="#DejaVuSans-101"/>
     <use x="761.181641" xlink:href="#DejaVuSans-114"/>
     <use x="802.294922" xlink:href="#DejaVuSans-32"/>
     <use x="834.082031" xlink:href="#DejaVuSans-77"/>
     <use x="920.361328" xlink:href="#DejaVuSans-105"/>
     <use x="948.144531" xlink:href="#DejaVuSans-108"/>
     <use x="975.927734" xlink:href="#DejaVuSans-108"/>
     <use x="1003.710938" xlink:href="#DejaVuSans-105"/>
     <use x="1031.494141" xlink:href="#DejaVuSans-111"/>
     <use x="1092.675781" xlink:href="#DejaVuSans-110"/>
     <use x="1156.054688" xlink:href="#DejaVuSans-32"/>
     <use x="1187.841797" xlink:href="#DejaVuSans-80"/>
     <use x="1244.519531" xlink:href="#DejaVuSans-111"/>
     <use x="1305.701172" xlink:href="#DejaVuSans-112"/>
     <use x="1369.177734" xlink:href="#DejaVuSans-117"/>
     <use x="1432.556641" xlink:href="#DejaVuSans-108"/>
     <use x="1460.339844" xlink:href="#DejaVuSans-97"/>
     <use x="1521.619141" xlink:href="#DejaVuSans-116"/>
     <use x="1560.828125" xlink:href="#DejaVuSans-105"/>
     <use x="1588.611328" xlink:href="#DejaVuSans-111"/>
     <use x="1649.792969" xlink:href="#DejaVuSans-110"/>
     <use x="1713.171875" xlink:href="#DejaVuSans-32"/>
     <use x="1744.958984" xlink:href="#DejaVuSans-40"/>
     <use x="1783.972656" xlink:href="#DejaVuSans-55"/>
     <use x="1847.595703" xlink:href="#DejaVuSans-32"/>
     <use x="1879.382812" xlink:href="#DejaVuSans-100"/>
     <use x="1942.859375" xlink:href="#DejaVuSans-97"/>
     <use x="2004.138672" xlink:href="#DejaVuSans-121"/>
     <use x="2063.318359" xlink:href="#DejaVuSans-32"/>
     <use x="2095.105469" xlink:href="#DejaVuSans-114"/>
     <use x="2133.96875" xlink:href="#DejaVuSans-111"/>
     <use x="2195.150391" xlink:href="#DejaVuSans-108"/>
     <use x="2222.933594" xlink:href="#DejaVuSans-108"/>
     <use x="2250.716797" xlink:href="#DejaVuSans-105"/>
     <use x="2278.5" xlink:href="#DejaVuSans-110"/>
     <use x="2341.878906" xlink:href="#DejaVuSans-103"/>
     <use x="2405.355469" xlink:href="#DejaVuSans-41"/>
    </g>
   </g>
   <g id="legend_1">
    <g id="patch_7">
     <path d="M 444.045312 93.5125 
L 558.2 93.5125 
Q 560.2 93.5125 560.2 91.5125 
L 560.2 33.8 
Q 560.2 31.8 558.2 31.8 
L 444.045312 31.8 
Q 442.045312 31.8 442.045312 33.8 
L 442.045312 91.5125 
Q 442.045312 93.5125 444.045312 93.5125 
z
" style="fill:#ffffff;opacity:0.8;stroke:#cccccc;stroke-linejoin:miter;stroke-width:0.3;"/>
    </g>
    <g id="line2d_23">
     <path d="M 446.045312 39.898438 
L 466.045312 39.898438 
" style="fill:none;stroke:#1f77b4;stroke-linecap:square;stroke-width:1.75;"/>
    </g>
    <g id="line2d_24"/>
    <g id="text_21">
     <!-- England -->
     <defs>
      <path d="M 9.8125 72.90625 
L 55.90625 72.90625 
L 55.90625 64.59375 
L 19.671875 64.59375 
L 19.671875 43.015625 
L 54.390625 43.015625 
L 54.390625 34.71875 
L 19.671875 34.71875 
L 19.671875 8.296875 
L 56.78125 8.296875 
L 56.78125 0 
L 9.8125 0 
z
" id="DejaVuSans-69"/>
     </defs>
     <g transform="translate(474.045312 43.398438)scale(0.1 -0.1)">
      <use xlink:href="#DejaVuSans-69"/>
      <use x="63.183594" xlink:href="#DejaVuSans-110"/>
      <use x="126.5625" xlink:href="#DejaVuSans-103"/>
      <use x="190.039062" xlink:href="#DejaVuSans-108"/>
      <use x="217.822266" xlink:href="#DejaVuSans-97"/>
      <use x="279.101562" xlink:href="#DejaVuSans-110"/>
      <use x="342.480469" xlink:href="#DejaVuSans-100"/>
     </g>
    </g>
    <g id="line2d_25">
     <path d="M 446.045312 54.576563 
L 466.045312 54.576563 
" style="fill:none;stroke:#ff7f0e;stroke-linecap:square;stroke-width:1.75;"/>
    </g>
    <g id="line2d_26"/>
    <g id="text_22">
     <!-- Scotland -->
     <defs>
      <path d="M 53.515625 70.515625 
L 53.515625 60.890625 
Q 47.90625 63.578125 42.921875 64.890625 
Q 37.9375 66.21875 33.296875 66.21875 
Q 25.25 66.21875 20.875 63.09375 
Q 16.5 59.96875 16.5 54.203125 
Q 16.5 49.359375 19.40625 46.890625 
Q 22.3125 44.4375 30.421875 42.921875 
L 36.375 41.703125 
Q 47.40625 39.59375 52.65625 34.296875 
Q 57.90625 29 57.90625 20.125 
Q 57.90625 9.515625 50.796875 4.046875 
Q 43.703125 -1.421875 29.984375 -1.421875 
Q 24.8125 -1.421875 18.96875 -0.25 
Q 13.140625 0.921875 6.890625 3.21875 
L 6.890625 13.375 
Q 12.890625 10.015625 18.65625 8.296875 
Q 24.421875 6.59375 29.984375 6.59375 
Q 38.421875 6.59375 43.015625 9.90625 
Q 47.609375 13.234375 47.609375 19.390625 
Q 47.609375 24.75 44.3125 27.78125 
Q 41.015625 30.8125 33.5 32.328125 
L 27.484375 33.5 
Q 16.453125 35.6875 11.515625 40.375 
Q 6.59375 45.0625 6.59375 53.421875 
Q 6.59375 63.09375 13.40625 68.65625 
Q 20.21875 74.21875 32.171875 74.21875 
Q 37.3125 74.21875 42.625 73.28125 
Q 47.953125 72.359375 53.515625 70.515625 
z
" id="DejaVuSans-83"/>
      <path d="M 48.78125 52.59375 
L 48.78125 44.1875 
Q 44.96875 46.296875 41.140625 47.34375 
Q 37.3125 48.390625 33.40625 48.390625 
Q 24.65625 48.390625 19.8125 42.84375 
Q 14.984375 37.3125 14.984375 27.296875 
Q 14.984375 17.28125 19.8125 11.734375 
Q 24.65625 6.203125 33.40625 6.203125 
Q 37.3125 6.203125 41.140625 7.25 
Q 44.96875 8.296875 48.78125 10.40625 
L 48.78125 2.09375 
Q 45.015625 0.34375 40.984375 -0.53125 
Q 36.96875 -1.421875 32.421875 -1.421875 
Q 20.0625 -1.421875 12.78125 6.34375 
Q 5.515625 14.109375 5.515625 27.296875 
Q 5.515625 40.671875 12.859375 48.328125 
Q 20.21875 56 33.015625 56 
Q 37.15625 56 41.109375 55.140625 
Q 45.0625 54.296875 48.78125 52.59375 
z
" id="DejaVuSans-99"/>
     </defs>
     <g transform="translate(474.045312 58.076563)scale(0.1 -0.1)">
      <use xlink:href="#DejaVuSans-83"/>
      <use x="63.476562" xlink:href="#DejaVuSans-99"/>
      <use x="118.457031" xlink:href="#DejaVuSans-111"/>
      <use x="179.638672" xlink:href="#DejaVuSans-116"/>
      <use x="218.847656" xlink:href="#DejaVuSans-108"/>
      <use x="246.630859" xlink:href="#DejaVuSans-97"/>
      <use x="307.910156" xlink:href="#DejaVuSans-110"/>
      <use x="371.289062" xlink:href="#DejaVuSans-100"/>
     </g>
    </g>
    <g id="line2d_27">
     <path d="M 446.045312 69.254688 
L 466.045312 69.254688 
" style="fill:none;stroke:#2ca02c;stroke-linecap:square;stroke-width:1.75;"/>
    </g>
    <g id="line2d_28"/>
    <g id="text_23">
     <!-- Wales -->
     <defs>
      <path d="M 3.328125 72.90625 
L 13.28125 72.90625 
L 28.609375 11.28125 
L 43.890625 72.90625 
L 54.984375 72.90625 
L 70.3125 11.28125 
L 85.59375 72.90625 
L 95.609375 72.90625 
L 77.296875 0 
L 64.890625 0 
L 49.515625 63.28125 
L 33.984375 0 
L 21.578125 0 
z
" id="DejaVuSans-87"/>
     </defs>
     <g transform="translate(474.045312 72.754688)scale(0.1 -0.1)">
      <use xlink:href="#DejaVuSans-87"/>
      <use x="92.501953" xlink:href="#DejaVuSans-97"/>
      <use x="153.78125" xlink:href="#DejaVuSans-108"/>
      <use x="181.564453" xlink:href="#DejaVuSans-101"/>
      <use x="243.087891" xlink:href="#DejaVuSans-115"/>
     </g>
    </g>
    <g id="line2d_29">
     <path d="M 446.045312 83.932813 
L 466.045312 83.932813 
" style="fill:none;stroke:#d62728;stroke-linecap:square;stroke-width:1.75;"/>
    </g>
    <g id="line2d_30"/>
    <g id="text_24">
     <!-- Northern Ireland -->
     <defs>
      <path d="M 9.8125 72.90625 
L 19.671875 72.90625 
L 19.671875 0 
L 9.8125 0 
z
" id="DejaVuSans-73"/>
     </defs>
     <g transform="translate(474.045312 87.432813)scale(0.1 -0.1)">
      <use xlink:href="#DejaVuSans-78"/>
      <use x="74.804688" xlink:href="#DejaVuSans-111"/>
      <use x="135.986328" xlink:href="#DejaVuSans-114"/>
      <use x="177.099609" xlink:href="#DejaVuSans-116"/>
      <use x="216.308594" xlink:href="#DejaVuSans-104"/>
      <use x="279.6875" xlink:href="#DejaVuSans-101"/>
      <use x="341.210938" xlink:href="#DejaVuSans-114"/>
      <use x="380.574219" xlink:href="#DejaVuSans-110"/>
      <use x="443.953125" xlink:href="#DejaVuSans-32"/>
      <use x="475.740234" xlink:href="#DejaVuSans-73"/>
      <use x="505.232422" xlink:href="#DejaVuSans-114"/>
      <use x="544.095703" xlink:href="#DejaVuSans-101"/>
      <use x="605.619141" xlink:href="#DejaVuSans-108"/>
      <use x="633.402344" xlink:href="#DejaVuSans-97"/>
      <use x="694.681641" xlink:href="#DejaVuSans-110"/>
      <use x="758.060547" xlink:href="#DejaVuSans-100"/>
     </g>
    </g>
   </g>
  </g>
 </g>
 <defs>
  <clipPath id="paed2faff43">
   <rect height="304.302246" width="521.31212" x="43.88788" y="26.8"/>
  </clipPath>
 </defs>
</svg>
