<?xml version="1.0" encoding="utf-8" standalone="no"?>
<!DOCTYPE svg PUBLIC "-//W3C//DTD SVG 1.1//EN"
  "http://www.w3.org/Graphics/SVG/1.1/DTD/svg11.dtd">
<!-- Created with matplotlib (https://matplotlib.org/) -->
<svg height="396pt" version="1.1" viewBox="0 0 576 396" width="576pt" xmlns="http://www.w3.org/2000/svg" xmlns:xlink="http://www.w3.org/1999/xlink">
 <defs>
  <style type="text/css">
*{stroke-linecap:butt;stroke-linejoin:round;}
  </style>
 </defs>
 <g id="figure_1">
  <g id="patch_1">
   <path d="M 0 396 
L 576 396 
L 576 0 
L 0 0 
z
" style="fill:#ffffff;"/>
  </g>
  <g id="axes_1">
   <g id="patch_2">
    <path d="M 72 346.5 
L 518.4 346.5 
L 518.4 47.52 
L 72 47.52 
z
" style="fill:#ffffff;"/>
   </g>
   <g id="matplotlib.axis_1">
    <g id="xtick_1">
     <g id="line2d_1">
      <defs>
       <path d="M 0 0 
L 0 3.5 
" id="m10b43aa74d" style="stroke:#000000;"/>
      </defs>
      <g>
       <use style="stroke:#000000;" x="78.051675" xlink:href="#m10b43aa74d" y="346.5"/>
      </g>
     </g>
     <g id="text_1">
      <!-- 2020-04 -->
      <defs>
       <path d="M 19.1875 8.296875 
L 53.609375 8.296875 
L 53.609375 0 
L 7.328125 0 
L 7.328125 8.296875 
Q 12.9375 14.109375 22.625 23.890625 
Q 32.328125 33.6875 34.8125 36.53125 
Q 39.546875 41.84375 41.421875 45.53125 
Q 43.3125 49.21875 43.3125 52.78125 
Q 43.3125 58.59375 39.234375 62.25 
Q 35.15625 65.921875 28.609375 65.921875 
Q 23.96875 65.921875 18.8125 64.3125 
Q 13.671875 62.703125 7.8125 59.421875 
L 7.8125 69.390625 
Q 13.765625 71.78125 18.9375 73 
Q 24.125 74.21875 28.421875 74.21875 
Q 39.75 74.21875 46.484375 68.546875 
Q 53.21875 62.890625 53.21875 53.421875 
Q 53.21875 48.921875 51.53125 44.890625 
Q 49.859375 40.875 45.40625 35.40625 
Q 44.1875 33.984375 37.640625 27.21875 
Q 31.109375 20.453125 19.1875 8.296875 
z
" id="DejaVuSans-50"/>
       <path d="M 31.78125 66.40625 
Q 24.171875 66.40625 20.328125 58.90625 
Q 16.5 51.421875 16.5 36.375 
Q 16.5 21.390625 20.328125 13.890625 
Q 24.171875 6.390625 31.78125 6.390625 
Q 39.453125 6.390625 43.28125 13.890625 
Q 47.125 21.390625 47.125 36.375 
Q 47.125 51.421875 43.28125 58.90625 
Q 39.453125 66.40625 31.78125 66.40625 
z
M 31.78125 74.21875 
Q 44.046875 74.21875 50.515625 64.515625 
Q 56.984375 54.828125 56.984375 36.375 
Q 56.984375 17.96875 50.515625 8.265625 
Q 44.046875 -1.421875 31.78125 -1.421875 
Q 19.53125 -1.421875 13.0625 8.265625 
Q 6.59375 17.96875 6.59375 36.375 
Q 6.59375 54.828125 13.0625 64.515625 
Q 19.53125 74.21875 31.78125 74.21875 
z
" id="DejaVuSans-48"/>
       <path d="M 4.890625 31.390625 
L 31.203125 31.390625 
L 31.203125 23.390625 
L 4.890625 23.390625 
z
" id="DejaVuSans-45"/>
       <path d="M 37.796875 64.3125 
L 12.890625 25.390625 
L 37.796875 25.390625 
z
M 35.203125 72.90625 
L 47.609375 72.90625 
L 47.609375 25.390625 
L 58.015625 25.390625 
L 58.015625 17.1875 
L 47.609375 17.1875 
L 47.609375 0 
L 37.796875 0 
L 37.796875 17.1875 
L 4.890625 17.1875 
L 4.890625 26.703125 
z
" id="DejaVuSans-52"/>
      </defs>
      <g transform="translate(40.826854 384.471846)rotate(-30)scale(0.1 -0.1)">
       <use xlink:href="#DejaVuSans-50"/>
       <use x="63.623047" xlink:href="#DejaVuSans-48"/>
       <use x="127.246094" xlink:href="#DejaVuSans-50"/>
       <use x="190.869141" xlink:href="#DejaVuSans-48"/>
       <use x="254.492188" xlink:href="#DejaVuSans-45"/>
       <use x="290.576172" xlink:href="#DejaVuSans-48"/>
       <use x="354.199219" xlink:href="#DejaVuSans-52"/>
      </g>
     </g>
    </g>
    <g id="xtick_2">
     <g id="line2d_2">
      <g>
       <use style="stroke:#000000;" x="149.247847" xlink:href="#m10b43aa74d" y="346.5"/>
      </g>
     </g>
     <g id="text_2">
      <!-- 2020-05 -->
      <defs>
       <path d="M 10.796875 72.90625 
L 49.515625 72.90625 
L 49.515625 64.59375 
L 19.828125 64.59375 
L 19.828125 46.734375 
Q 21.96875 47.46875 24.109375 47.828125 
Q 26.265625 48.1875 28.421875 48.1875 
Q 40.625 48.1875 47.75 41.5 
Q 54.890625 34.8125 54.890625 23.390625 
Q 54.890625 11.625 47.5625 5.09375 
Q 40.234375 -1.421875 26.90625 -1.421875 
Q 22.3125 -1.421875 17.546875 -0.640625 
Q 12.796875 0.140625 7.71875 1.703125 
L 7.71875 11.625 
Q 12.109375 9.234375 16.796875 8.0625 
Q 21.484375 6.890625 26.703125 6.890625 
Q 35.15625 6.890625 40.078125 11.328125 
Q 45.015625 15.765625 45.015625 23.390625 
Q 45.015625 31 40.078125 35.4375 
Q 35.15625 39.890625 26.703125 39.890625 
Q 22.75 39.890625 18.8125 39.015625 
Q 14.890625 38.140625 10.796875 36.28125 
z
" id="DejaVuSans-53"/>
      </defs>
      <g transform="translate(112.023026 384.471846)rotate(-30)scale(0.1 -0.1)">
       <use xlink:href="#DejaVuSans-50"/>
       <use x="63.623047" xlink:href="#DejaVuSans-48"/>
       <use x="127.246094" xlink:href="#DejaVuSans-50"/>
       <use x="190.869141" xlink:href="#DejaVuSans-48"/>
       <use x="254.492188" xlink:href="#DejaVuSans-45"/>
       <use x="290.576172" xlink:href="#DejaVuSans-48"/>
       <use x="354.199219" xlink:href="#DejaVuSans-53"/>
      </g>
     </g>
    </g>
    <g id="xtick_3">
     <g id="line2d_3">
      <g>
       <use style="stroke:#000000;" x="222.817225" xlink:href="#m10b43aa74d" y="346.5"/>
      </g>
     </g>
     <g id="text_3">
      <!-- 2020-06 -->
      <defs>
       <path d="M 33.015625 40.375 
Q 26.375 40.375 22.484375 35.828125 
Q 18.609375 31.296875 18.609375 23.390625 
Q 18.609375 15.53125 22.484375 10.953125 
Q 26.375 6.390625 33.015625 6.390625 
Q 39.65625 6.390625 43.53125 10.953125 
Q 47.40625 15.53125 47.40625 23.390625 
Q 47.40625 31.296875 43.53125 35.828125 
Q 39.65625 40.375 33.015625 40.375 
z
M 52.59375 71.296875 
L 52.59375 62.3125 
Q 48.875 64.0625 45.09375 64.984375 
Q 41.3125 65.921875 37.59375 65.921875 
Q 27.828125 65.921875 22.671875 59.328125 
Q 17.53125 52.734375 16.796875 39.40625 
Q 19.671875 43.65625 24.015625 45.921875 
Q 28.375 48.1875 33.59375 48.1875 
Q 44.578125 48.1875 50.953125 41.515625 
Q 57.328125 34.859375 57.328125 23.390625 
Q 57.328125 12.15625 50.6875 5.359375 
Q 44.046875 -1.421875 33.015625 -1.421875 
Q 20.359375 -1.421875 13.671875 8.265625 
Q 6.984375 17.96875 6.984375 36.375 
Q 6.984375 53.65625 15.1875 63.9375 
Q 23.390625 74.21875 37.203125 74.21875 
Q 40.921875 74.21875 44.703125 73.484375 
Q 48.484375 72.75 52.59375 71.296875 
z
" id="DejaVuSans-54"/>
      </defs>
      <g transform="translate(185.592404 384.471846)rotate(-30)scale(0.1 -0.1)">
       <use xlink:href="#DejaVuSans-50"/>
       <use x="63.623047" xlink:href="#DejaVuSans-48"/>
       <use x="127.246094" xlink:href="#DejaVuSans-50"/>
       <use x="190.869141" xlink:href="#DejaVuSans-48"/>
       <use x="254.492188" xlink:href="#DejaVuSans-45"/>
       <use x="290.576172" xlink:href="#DejaVuSans-48"/>
       <use x="354.199219" xlink:href="#DejaVuSans-54"/>
      </g>
     </g>
    </g>
    <g id="xtick_4">
     <g id="line2d_4">
      <g>
       <use style="stroke:#000000;" x="294.013397" xlink:href="#m10b43aa74d" y="346.5"/>
      </g>
     </g>
     <g id="text_4">
      <!-- 2020-07 -->
      <defs>
       <path d="M 8.203125 72.90625 
L 55.078125 72.90625 
L 55.078125 68.703125 
L 28.609375 0 
L 18.3125 0 
L 43.21875 64.59375 
L 8.203125 64.59375 
z
" id="DejaVuSans-55"/>
      </defs>
      <g transform="translate(256.788576 384.471846)rotate(-30)scale(0.1 -0.1)">
       <use xlink:href="#DejaVuSans-50"/>
       <use x="63.623047" xlink:href="#DejaVuSans-48"/>
       <use x="127.246094" xlink:href="#DejaVuSans-50"/>
       <use x="190.869141" xlink:href="#DejaVuSans-48"/>
       <use x="254.492188" xlink:href="#DejaVuSans-45"/>
       <use x="290.576172" xlink:href="#DejaVuSans-48"/>
       <use x="354.199219" xlink:href="#DejaVuSans-55"/>
      </g>
     </g>
    </g>
    <g id="xtick_5">
     <g id="line2d_5">
      <g>
       <use style="stroke:#000000;" x="367.582775" xlink:href="#m10b43aa74d" y="346.5"/>
      </g>
     </g>
     <g id="text_5">
      <!-- 2020-08 -->
      <defs>
       <path d="M 31.78125 34.625 
Q 24.75 34.625 20.71875 30.859375 
Q 16.703125 27.09375 16.703125 20.515625 
Q 16.703125 13.921875 20.71875 10.15625 
Q 24.75 6.390625 31.78125 6.390625 
Q 38.8125 6.390625 42.859375 10.171875 
Q 46.921875 13.96875 46.921875 20.515625 
Q 46.921875 27.09375 42.890625 30.859375 
Q 38.875 34.625 31.78125 34.625 
z
M 21.921875 38.8125 
Q 15.578125 40.375 12.03125 44.71875 
Q 8.5 49.078125 8.5 55.328125 
Q 8.5 64.0625 14.71875 69.140625 
Q 20.953125 74.21875 31.78125 74.21875 
Q 42.671875 74.21875 48.875 69.140625 
Q 55.078125 64.0625 55.078125 55.328125 
Q 55.078125 49.078125 51.53125 44.71875 
Q 48 40.375 41.703125 38.8125 
Q 48.828125 37.15625 52.796875 32.3125 
Q 56.78125 27.484375 56.78125 20.515625 
Q 56.78125 9.90625 50.3125 4.234375 
Q 43.84375 -1.421875 31.78125 -1.421875 
Q 19.734375 -1.421875 13.25 4.234375 
Q 6.78125 9.90625 6.78125 20.515625 
Q 6.78125 27.484375 10.78125 32.3125 
Q 14.796875 37.15625 21.921875 38.8125 
z
M 18.3125 54.390625 
Q 18.3125 48.734375 21.84375 45.5625 
Q 25.390625 42.390625 31.78125 42.390625 
Q 38.140625 42.390625 41.71875 45.5625 
Q 45.3125 48.734375 45.3125 54.390625 
Q 45.3125 60.0625 41.71875 63.234375 
Q 38.140625 66.40625 31.78125 66.40625 
Q 25.390625 66.40625 21.84375 63.234375 
Q 18.3125 60.0625 18.3125 54.390625 
z
" id="DejaVuSans-56"/>
      </defs>
      <g transform="translate(330.357954 384.471846)rotate(-30)scale(0.1 -0.1)">
       <use xlink:href="#DejaVuSans-50"/>
       <use x="63.623047" xlink:href="#DejaVuSans-48"/>
       <use x="127.246094" xlink:href="#DejaVuSans-50"/>
       <use x="190.869141" xlink:href="#DejaVuSans-48"/>
       <use x="254.492188" xlink:href="#DejaVuSans-45"/>
       <use x="290.576172" xlink:href="#DejaVuSans-48"/>
       <use x="354.199219" xlink:href="#DejaVuSans-56"/>
      </g>
     </g>
    </g>
    <g id="xtick_6">
     <g id="line2d_6">
      <g>
       <use style="stroke:#000000;" x="441.152153" xlink:href="#m10b43aa74d" y="346.5"/>
      </g>
     </g>
     <g id="text_6">
      <!-- 2020-09 -->
      <defs>
       <path d="M 10.984375 1.515625 
L 10.984375 10.5 
Q 14.703125 8.734375 18.5 7.8125 
Q 22.3125 6.890625 25.984375 6.890625 
Q 35.75 6.890625 40.890625 13.453125 
Q 46.046875 20.015625 46.78125 33.40625 
Q 43.953125 29.203125 39.59375 26.953125 
Q 35.25 24.703125 29.984375 24.703125 
Q 19.046875 24.703125 12.671875 31.3125 
Q 6.296875 37.9375 6.296875 49.421875 
Q 6.296875 60.640625 12.9375 67.421875 
Q 19.578125 74.21875 30.609375 74.21875 
Q 43.265625 74.21875 49.921875 64.515625 
Q 56.59375 54.828125 56.59375 36.375 
Q 56.59375 19.140625 48.40625 8.859375 
Q 40.234375 -1.421875 26.421875 -1.421875 
Q 22.703125 -1.421875 18.890625 -0.6875 
Q 15.09375 0.046875 10.984375 1.515625 
z
M 30.609375 32.421875 
Q 37.25 32.421875 41.125 36.953125 
Q 45.015625 41.5 45.015625 49.421875 
Q 45.015625 57.28125 41.125 61.84375 
Q 37.25 66.40625 30.609375 66.40625 
Q 23.96875 66.40625 20.09375 61.84375 
Q 16.21875 57.28125 16.21875 49.421875 
Q 16.21875 41.5 20.09375 36.953125 
Q 23.96875 32.421875 30.609375 32.421875 
z
" id="DejaVuSans-57"/>
      </defs>
      <g transform="translate(403.927332 384.471846)rotate(-30)scale(0.1 -0.1)">
       <use xlink:href="#DejaVuSans-50"/>
       <use x="63.623047" xlink:href="#DejaVuSans-48"/>
       <use x="127.246094" xlink:href="#DejaVuSans-50"/>
       <use x="190.869141" xlink:href="#DejaVuSans-48"/>
       <use x="254.492188" xlink:href="#DejaVuSans-45"/>
       <use x="290.576172" xlink:href="#DejaVuSans-48"/>
       <use x="354.199219" xlink:href="#DejaVuSans-57"/>
      </g>
     </g>
    </g>
    <g id="xtick_7">
     <g id="line2d_7">
      <g>
       <use style="stroke:#000000;" x="512.348325" xlink:href="#m10b43aa74d" y="346.5"/>
      </g>
     </g>
     <g id="text_7">
      <!-- 2020-10 -->
      <defs>
       <path d="M 12.40625 8.296875 
L 28.515625 8.296875 
L 28.515625 63.921875 
L 10.984375 60.40625 
L 10.984375 69.390625 
L 28.421875 72.90625 
L 38.28125 72.90625 
L 38.28125 8.296875 
L 54.390625 8.296875 
L 54.390625 0 
L 12.40625 0 
z
" id="DejaVuSans-49"/>
      </defs>
      <g transform="translate(475.123505 384.471846)rotate(-30)scale(0.1 -0.1)">
       <use xlink:href="#DejaVuSans-50"/>
       <use x="63.623047" xlink:href="#DejaVuSans-48"/>
       <use x="127.246094" xlink:href="#DejaVuSans-50"/>
       <use x="190.869141" xlink:href="#DejaVuSans-48"/>
       <use x="254.492188" xlink:href="#DejaVuSans-45"/>
       <use x="290.576172" xlink:href="#DejaVuSans-49"/>
       <use x="354.199219" xlink:href="#DejaVuSans-48"/>
      </g>
     </g>
    </g>
    <g id="text_8">
     <!-- Date -->
     <defs>
      <path d="M 19.671875 64.796875 
L 19.671875 8.109375 
L 31.59375 8.109375 
Q 46.6875 8.109375 53.6875 14.9375 
Q 60.6875 21.78125 60.6875 36.53125 
Q 60.6875 51.171875 53.6875 57.984375 
Q 46.6875 64.796875 31.59375 64.796875 
z
M 9.8125 72.90625 
L 30.078125 72.90625 
Q 51.265625 72.90625 61.171875 64.09375 
Q 71.09375 55.28125 71.09375 36.53125 
Q 71.09375 17.671875 61.125 8.828125 
Q 51.171875 0 30.078125 0 
L 9.8125 0 
z
" id="DejaVuSans-68"/>
      <path d="M 34.28125 27.484375 
Q 23.390625 27.484375 19.1875 25 
Q 14.984375 22.515625 14.984375 16.5 
Q 14.984375 11.71875 18.140625 8.90625 
Q 21.296875 6.109375 26.703125 6.109375 
Q 34.1875 6.109375 38.703125 11.40625 
Q 43.21875 16.703125 43.21875 25.484375 
L 43.21875 27.484375 
z
M 52.203125 31.203125 
L 52.203125 0 
L 43.21875 0 
L 43.21875 8.296875 
Q 40.140625 3.328125 35.546875 0.953125 
Q 30.953125 -1.421875 24.3125 -1.421875 
Q 15.921875 -1.421875 10.953125 3.296875 
Q 6 8.015625 6 15.921875 
Q 6 25.140625 12.171875 29.828125 
Q 18.359375 34.515625 30.609375 34.515625 
L 43.21875 34.515625 
L 43.21875 35.40625 
Q 43.21875 41.609375 39.140625 45 
Q 35.0625 48.390625 27.6875 48.390625 
Q 23 48.390625 18.546875 47.265625 
Q 14.109375 46.140625 10.015625 43.890625 
L 10.015625 52.203125 
Q 14.9375 54.109375 19.578125 55.046875 
Q 24.21875 56 28.609375 56 
Q 40.484375 56 46.34375 49.84375 
Q 52.203125 43.703125 52.203125 31.203125 
z
" id="DejaVuSans-97"/>
      <path d="M 18.3125 70.21875 
L 18.3125 54.6875 
L 36.8125 54.6875 
L 36.8125 47.703125 
L 18.3125 47.703125 
L 18.3125 18.015625 
Q 18.3125 11.328125 20.140625 9.421875 
Q 21.96875 7.515625 27.59375 7.515625 
L 36.8125 7.515625 
L 36.8125 0 
L 27.59375 0 
Q 17.1875 0 13.234375 3.875 
Q 9.28125 7.765625 9.28125 18.015625 
L 9.28125 47.703125 
L 2.6875 47.703125 
L 2.6875 54.6875 
L 9.28125 54.6875 
L 9.28125 70.21875 
z
" id="DejaVuSans-116"/>
      <path d="M 56.203125 29.59375 
L 56.203125 25.203125 
L 14.890625 25.203125 
Q 15.484375 15.921875 20.484375 11.0625 
Q 25.484375 6.203125 34.421875 6.203125 
Q 39.59375 6.203125 44.453125 7.46875 
Q 49.3125 8.734375 54.109375 11.28125 
L 54.109375 2.78125 
Q 49.265625 0.734375 44.1875 -0.34375 
Q 39.109375 -1.421875 33.890625 -1.421875 
Q 20.796875 -1.421875 13.15625 6.1875 
Q 5.515625 13.8125 5.515625 26.8125 
Q 5.515625 40.234375 12.765625 48.109375 
Q 20.015625 56 32.328125 56 
Q 43.359375 56 49.78125 48.890625 
Q 56.203125 41.796875 56.203125 29.59375 
z
M 47.21875 32.234375 
Q 47.125 39.59375 43.09375 43.984375 
Q 39.0625 48.390625 32.421875 48.390625 
Q 24.90625 48.390625 20.390625 44.140625 
Q 15.875 39.890625 15.1875 32.171875 
z
" id="DejaVuSans-101"/>
     </defs>
     <g transform="translate(282.054141 398.63119)scale(0.11 -0.11)">
      <use xlink:href="#DejaVuSans-68"/>
      <use x="77.001953" xlink:href="#DejaVuSans-97"/>
      <use x="138.28125" xlink:href="#DejaVuSans-116"/>
      <use x="177.490234" xlink:href="#DejaVuSans-101"/>
     </g>
    </g>
   </g>
   <g id="matplotlib.axis_2">
    <g id="ytick_1">
     <g id="line2d_8">
      <defs>
       <path d="M 0 0 
L -3.5 0 
" id="m1783e7de15" style="stroke:#000000;"/>
      </defs>
      <g>
       <use style="stroke:#000000;" x="72" xlink:href="#m1783e7de15" y="332.262857"/>
      </g>
     </g>
     <g id="text_9">
      <!-- 0.00 -->
      <defs>
       <path d="M 10.6875 12.40625 
L 21 12.40625 
L 21 0 
L 10.6875 0 
z
" id="DejaVuSans-46"/>
      </defs>
      <g transform="translate(39.234375 336.062076)scale(0.1 -0.1)">
       <use xlink:href="#DejaVuSans-48"/>
       <use x="63.623047" xlink:href="#DejaVuSans-46"/>
       <use x="95.410156" xlink:href="#DejaVuSans-48"/>
       <use x="159.033203" xlink:href="#DejaVuSans-48"/>
      </g>
     </g>
    </g>
    <g id="ytick_2">
     <g id="line2d_9">
      <g>
       <use style="stroke:#000000;" x="72" xlink:href="#m1783e7de15" y="275.314286"/>
      </g>
     </g>
     <g id="text_10">
      <!-- 0.02 -->
      <g transform="translate(39.234375 279.113504)scale(0.1 -0.1)">
       <use xlink:href="#DejaVuSans-48"/>
       <use x="63.623047" xlink:href="#DejaVuSans-46"/>
       <use x="95.410156" xlink:href="#DejaVuSans-48"/>
       <use x="159.033203" xlink:href="#DejaVuSans-50"/>
      </g>
     </g>
    </g>
    <g id="ytick_3">
     <g id="line2d_10">
      <g>
       <use style="stroke:#000000;" x="72" xlink:href="#m1783e7de15" y="218.365714"/>
      </g>
     </g>
     <g id="text_11">
      <!-- 0.04 -->
      <g transform="translate(39.234375 222.164933)scale(0.1 -0.1)">
       <use xlink:href="#DejaVuSans-48"/>
       <use x="63.623047" xlink:href="#DejaVuSans-46"/>
       <use x="95.410156" xlink:href="#DejaVuSans-48"/>
       <use x="159.033203" xlink:href="#DejaVuSans-52"/>
      </g>
     </g>
    </g>
    <g id="ytick_4">
     <g id="line2d_11">
      <g>
       <use style="stroke:#000000;" x="72" xlink:href="#m1783e7de15" y="161.417143"/>
      </g>
     </g>
     <g id="text_12">
      <!-- 0.06 -->
      <g transform="translate(39.234375 165.216362)scale(0.1 -0.1)">
       <use xlink:href="#DejaVuSans-48"/>
       <use x="63.623047" xlink:href="#DejaVuSans-46"/>
       <use x="95.410156" xlink:href="#DejaVuSans-48"/>
       <use x="159.033203" xlink:href="#DejaVuSans-54"/>
      </g>
     </g>
    </g>
    <g id="ytick_5">
     <g id="line2d_12">
      <g>
       <use style="stroke:#000000;" x="72" xlink:href="#m1783e7de15" y="104.468571"/>
      </g>
     </g>
     <g id="text_13">
      <!-- 0.08 -->
      <g transform="translate(39.234375 108.26779)scale(0.1 -0.1)">
       <use xlink:href="#DejaVuSans-48"/>
       <use x="63.623047" xlink:href="#DejaVuSans-46"/>
       <use x="95.410156" xlink:href="#DejaVuSans-48"/>
       <use x="159.033203" xlink:href="#DejaVuSans-56"/>
      </g>
     </g>
    </g>
    <g id="ytick_6">
     <g id="line2d_13">
      <g>
       <use style="stroke:#000000;" x="72" xlink:href="#m1783e7de15" y="47.52"/>
      </g>
     </g>
     <g id="text_14">
      <!-- 0.10 -->
      <g transform="translate(39.234375 51.319219)scale(0.1 -0.1)">
       <use xlink:href="#DejaVuSans-48"/>
       <use x="63.623047" xlink:href="#DejaVuSans-46"/>
       <use x="95.410156" xlink:href="#DejaVuSans-49"/>
       <use x="159.033203" xlink:href="#DejaVuSans-48"/>
      </g>
     </g>
    </g>
   </g>
   <g id="line2d_14">
    <path clip-path="url(#p38c8c58a8f)" d="M 149.948405 -1 
L 151.621053 26.206643 
L 153.994258 50.508583 
L 156.367464 84.529224 
L 158.74067 112.826516 
L 163.487081 123.163594 
L 165.860287 127.622634 
L 168.233493 134.557169 
L 170.606699 151.248135 
L 172.979904 163.060737 
L 175.35311 175.66834 
L 177.726316 181.773697 
L 180.099522 194.41073 
L 182.472727 201.888149 
L 184.845933 206.329311 
L 187.219139 211.771098 
L 189.592344 211.633442 
L 191.96555 217.417633 
L 194.338756 223.62773 
L 196.711962 231.613601 
L 199.085167 234.541995 
L 201.458373 236.311498 
L 203.831579 239.586163 
L 206.204785 246.451536 
L 208.57799 251.453325 
L 210.951196 252.163828 
L 213.324402 256.193466 
L 215.697608 262.863389 
L 218.070813 267.196193 
L 220.444019 271.250793 
L 225.190431 287.506247 
L 227.563636 296.683769 
L 229.936842 302.364296 
L 232.310048 308.485748 
L 234.683254 316.612794 
L 237.056459 320.588498 
L 239.429665 321.701488 
L 241.802871 320.583132 
L 244.176077 322.176212 
L 246.549282 322.710227 
L 251.295694 323.307394 
L 253.6689 322.954016 
L 256.042105 321.848617 
L 258.415311 323.905446 
L 260.788517 323.248849 
L 263.161722 323.34989 
L 265.534928 323.571617 
L 267.908134 323.656696 
L 270.28134 324.011744 
L 275.027751 324.262146 
L 277.400957 324.750208 
L 279.774163 324.695172 
L 286.89378 325.845012 
L 289.266986 326.399104 
L 291.640191 326.405865 
L 294.013397 326.037085 
L 296.386603 324.911077 
L 301.133014 321.808394 
L 305.879426 316.441872 
L 310.625837 311.492372 
L 312.999043 310.73623 
L 315.372249 310.542392 
L 317.745455 308.695074 
L 320.11866 307.908313 
L 322.491866 305.572326 
L 324.865072 307.394795 
L 327.238278 308.964109 
L 329.611483 310.138507 
L 331.984689 310.847207 
L 336.7311 315.111864 
L 339.104306 318.791052 
L 343.850718 318.612717 
L 348.597129 317.63026 
L 353.343541 317.558652 
L 355.716746 317.225155 
L 358.089952 316.305415 
L 360.463158 315.780165 
L 362.836364 315.551972 
L 367.582775 315.401546 
L 369.955981 315.492437 
L 372.329187 315.011588 
L 374.702392 315.712633 
L 377.075598 315.486687 
L 379.448804 315.50416 
L 381.82201 315.647107 
L 384.195215 315.912171 
L 386.568421 315.162609 
L 388.941627 316.213192 
L 391.314833 314.884944 
L 396.061244 314.263216 
L 398.43445 312.815544 
L 400.807656 312.223911 
L 403.180861 312.761455 
L 407.927273 313.458503 
L 410.300478 314.199543 
L 412.673684 314.267239 
L 415.04689 315.519702 
L 419.793301 315.312963 
L 424.539713 314.323756 
L 426.912919 313.78818 
L 429.286124 312.968678 
L 431.65933 312.550531 
L 434.032536 312.691081 
L 436.405742 310.884947 
L 438.778947 309.609636 
L 441.152153 310.008056 
L 443.525359 308.721 
L 445.898565 308.301273 
L 448.27177 306.855753 
L 450.644976 305.807375 
L 453.018182 302.830159 
L 455.391388 299.374299 
L 457.764593 297.20033 
L 460.137799 295.566598 
L 462.511005 293.715416 
L 467.257416 289.454104 
L 469.630622 290.818672 
L 472.003828 292.899451 
L 474.377033 292.576414 
L 476.750239 291.333365 
L 479.123445 291.726746 
L 483.869856 289.796519 
L 486.243062 289.634291 
L 488.616268 286.6241 
L 490.989474 282.364936 
L 493.362679 278.727358 
L 495.735885 273.210039 
L 498.109091 270.004514 
L 498.109091 270.004514 
" style="fill:none;stroke:#1f77b4;stroke-linecap:square;stroke-width:1.75;"/>
   </g>
   <g id="line2d_15">
    <path clip-path="url(#p38c8c58a8f)" d="M 145.579716 -1 
L 149.247847 60.535758 
L 151.621053 104.440069 
L 153.994258 138.782093 
L 156.367464 151.389202 
L 161.113876 177.681827 
L 163.487081 189.807047 
L 165.860287 196.734357 
L 168.233493 203.203985 
L 170.606699 202.376952 
L 172.979904 204.493201 
L 175.35311 208.674954 
L 177.726316 219.082055 
L 180.099522 223.181798 
L 182.472727 231.364976 
L 184.845933 234.128346 
L 187.219139 245.789912 
L 189.592344 255.120789 
L 191.96555 263.227302 
L 194.338756 270.298969 
L 196.711962 276.865666 
L 199.085167 280.018936 
L 201.458373 286.269792 
L 206.204785 290.041889 
L 208.57799 292.818723 
L 210.951196 294.645751 
L 213.324402 297.293549 
L 215.697608 302.399542 
L 218.070813 302.644328 
L 220.444019 306.31365 
L 222.817225 308.348609 
L 225.190431 306.121359 
L 227.563636 307.640237 
L 229.936842 307.713678 
L 232.310048 308.478121 
L 234.683254 311.933601 
L 237.056459 312.344683 
L 239.429665 312.889904 
L 241.802871 316.534703 
L 244.176077 318.308245 
L 246.549282 320.920884 
L 248.922488 321.013032 
L 251.295694 321.241178 
L 253.6689 320.79533 
L 256.042105 319.966204 
L 258.415311 319.925905 
L 260.788517 319.256943 
L 263.161722 319.624102 
L 265.534928 319.30628 
L 267.908134 318.475169 
L 270.28134 318.003786 
L 272.654545 319.303598 
L 275.027751 319.423046 
L 277.400957 320.367478 
L 279.774163 320.741061 
L 282.147368 321.817542 
L 284.520574 322.768894 
L 286.89378 324.672032 
L 289.266986 325.762976 
L 291.640191 325.965938 
L 296.386603 326.017614 
L 298.759809 326.342533 
L 301.133014 326.876109 
L 303.50622 326.770421 
L 305.879426 326.885132 
L 308.252632 327.65007 
L 312.999043 328.110283 
L 317.745455 329.181871 
L 320.11866 329.482603 
L 324.865072 329.351054 
L 327.238278 329.542654 
L 329.611483 329.160703 
L 331.984689 329.10553 
L 334.357895 328.895461 
L 339.104306 328.6523 
L 341.477512 327.440584 
L 343.850718 327.319572 
L 348.597129 327.342957 
L 350.970335 327.115804 
L 353.343541 327.707972 
L 355.716746 328.118642 
L 358.089952 329.335784 
L 360.463158 328.818183 
L 362.836364 328.857147 
L 365.209569 328.557863 
L 367.582775 328.825251 
L 369.955981 327.474148 
L 372.329187 326.660528 
L 377.075598 324.038451 
L 379.448804 322.875419 
L 381.82201 322.353249 
L 384.195215 321.161802 
L 388.941627 321.05626 
L 391.314833 320.440844 
L 393.688038 321.041261 
L 396.061244 321.201675 
L 398.43445 320.631264 
L 400.807656 320.944835 
L 405.554067 321.10107 
L 407.927273 321.582021 
L 412.673684 320.949023 
L 415.04689 320.953528 
L 417.420096 318.993064 
L 419.793301 318.735674 
L 422.166507 317.613666 
L 431.65933 320.238436 
L 434.032536 321.857243 
L 436.405742 321.785794 
L 438.778947 321.471287 
L 441.152153 319.655969 
L 443.525359 318.557913 
L 445.898565 317.699868 
L 448.27177 315.484266 
L 450.644976 313.507418 
L 453.018182 310.781474 
L 455.391388 308.387689 
L 457.764593 307.614408 
L 460.137799 305.433489 
L 462.511005 303.582262 
L 464.884211 301.519269 
L 467.257416 300.263072 
L 469.630622 299.434125 
L 472.003828 302.004955 
L 474.377033 299.290971 
L 476.750239 295.24634 
L 479.123445 292.748026 
L 481.496651 293.575693 
L 483.869856 292.591843 
L 486.243062 291.322893 
L 490.989474 279.075369 
L 493.362679 271.094921 
L 495.735885 265.130032 
L 498.109091 256.334059 
L 498.109091 256.334059 
" style="fill:none;stroke:#ff7f0e;stroke-linecap:square;stroke-width:1.75;"/>
   </g>
   <g id="line2d_16">
    <path clip-path="url(#p38c8c58a8f)" d="M 173.330611 -1 
L 175.35311 24.841191 
L 177.726316 27.080458 
L 180.099522 24.959551 
L 182.472727 43.414488 
L 184.845933 42.149179 
L 187.219139 49.315358 
L 189.592344 66.425896 
L 191.96555 66.948216 
L 194.338756 88.128026 
L 196.711962 91.54128 
L 199.085167 96.319621 
L 201.458373 106.556657 
L 203.831579 120.889408 
L 206.204785 128.161636 
L 208.57799 144.51186 
L 210.951196 155.216788 
L 213.324402 173.020655 
L 215.697608 189.184903 
L 218.070813 209.432227 
L 220.444019 222.167411 
L 222.817225 228.022052 
L 225.190431 236.014629 
L 227.563636 240.002787 
L 229.936842 253.365793 
L 232.310048 258.207559 
L 234.683254 267.335795 
L 237.056459 273.869393 
L 239.429665 276.782868 
L 241.802871 282.222483 
L 244.176077 291.419469 
L 246.549282 289.18144 
L 248.922488 290.956828 
L 251.295694 291.725548 
L 253.6689 290.778631 
L 256.042105 287.878969 
L 258.415311 284.597579 
L 260.788517 278.087574 
L 263.161722 277.199585 
L 265.534928 281.161172 
L 267.908134 275.323909 
L 270.28134 269.186399 
L 272.654545 266.711673 
L 275.027751 269.096947 
L 277.400957 273.109918 
L 279.774163 265.278814 
L 282.147368 260.639173 
L 284.520574 265.391071 
L 286.89378 273.810706 
L 289.266986 270.301864 
L 291.640191 273.527481 
L 294.013397 276.090074 
L 296.386603 285.07004 
L 298.759809 289.289451 
L 303.50622 291.436109 
L 305.879426 304.489633 
L 308.252632 307.40078 
L 310.625837 310.577617 
L 312.999043 315.197874 
L 317.745455 322.029573 
L 322.491866 321.112381 
L 324.865072 319.417959 
L 327.238278 319.030558 
L 329.611483 320.163781 
L 331.984689 319.800096 
L 334.357895 319.682561 
L 336.7311 317.685937 
L 339.104306 318.318825 
L 341.477512 318.585193 
L 343.850718 316.76973 
L 346.223923 314.313265 
L 348.597129 313.220169 
L 350.970335 312.53733 
L 353.343541 315.491784 
L 355.716746 313.953519 
L 360.463158 314.018099 
L 362.836364 317.410631 
L 367.582775 319.531582 
L 369.955981 318.626583 
L 372.329187 319.699071 
L 374.702392 319.484471 
L 377.075598 321.809727 
L 379.448804 321.05151 
L 381.82201 321.599799 
L 384.195215 321.234582 
L 388.941627 322.472941 
L 391.314833 323.712614 
L 393.688038 324.433923 
L 398.43445 324.558634 
L 400.807656 324.044042 
L 403.180861 324.567087 
L 405.554067 324.474474 
L 407.927273 323.366764 
L 410.300478 322.467533 
L 412.673684 321.945102 
L 415.04689 320.174505 
L 417.420096 319.335741 
L 419.793301 318.798899 
L 422.166507 318.03784 
L 424.539713 317.86415 
L 426.912919 316.476089 
L 429.286124 315.68573 
L 431.65933 315.858445 
L 434.032536 315.383932 
L 436.405742 313.510342 
L 438.778947 311.494143 
L 441.152153 309.072686 
L 443.525359 309.368125 
L 445.898565 308.684011 
L 448.27177 308.587168 
L 450.644976 307.033515 
L 453.018182 304.407014 
L 455.391388 298.794465 
L 457.764593 294.668876 
L 460.137799 290.203852 
L 462.511005 288.308987 
L 464.884211 285.163677 
L 467.257416 283.492718 
L 469.630622 283.741323 
L 472.003828 285.471995 
L 474.377033 288.318227 
L 476.750239 287.0706 
L 479.123445 285.415224 
L 481.496651 284.619254 
L 483.869856 282.229032 
L 486.243062 278.884739 
L 488.616268 276.689878 
L 490.989474 270.66489 
L 493.362679 262.433146 
L 495.735885 256.57468 
L 498.109091 251.560287 
L 498.109091 251.560287 
" style="fill:none;stroke:#2ca02c;stroke-linecap:square;stroke-width:1.75;"/>
   </g>
   <g id="line2d_17">
    <path clip-path="url(#p38c8c58a8f)" d="M 142.12823 -0.62484 
L 144.501435 61.482427 
L 146.874641 97.973608 
L 149.247847 127.359772 
L 151.621053 144.515121 
L 153.994258 156.326847 
L 156.367464 170.621491 
L 158.74067 177.920772 
L 163.487081 190.047552 
L 165.860287 206.963093 
L 168.233493 211.501831 
L 170.606699 224.184073 
L 172.979904 234.590264 
L 175.35311 231.372425 
L 177.726316 230.422762 
L 180.099522 234.409049 
L 182.472727 236.801874 
L 187.219139 246.305282 
L 189.592344 250.16706 
L 191.96555 260.855442 
L 194.338756 272.833543 
L 196.711962 272.784478 
L 199.085167 273.647684 
L 201.458373 273.537311 
L 203.831579 275.089747 
L 206.204785 267.498566 
L 208.57799 263.699657 
L 210.951196 260.720106 
L 213.324402 267.095347 
L 215.697608 268.616725 
L 218.070813 275.35554 
L 220.444019 280.478428 
L 225.190431 301.173018 
L 227.563636 307.180468 
L 229.936842 304.62351 
L 232.310048 308.94754 
L 234.683254 309.480593 
L 237.056459 309.685635 
L 239.429665 312.117246 
L 241.802871 312.859786 
L 244.176077 311.116912 
L 246.549282 317.386669 
L 248.922488 313.30668 
L 251.295694 316.112994 
L 253.6689 315.813165 
L 256.042105 316.018264 
L 258.415311 316.379158 
L 260.788517 318.364384 
L 263.161722 319.049882 
L 265.534928 322.964812 
L 270.28134 324.814584 
L 272.654545 325.844061 
L 275.027751 326.698632 
L 277.400957 328.339482 
L 279.774163 328.327863 
L 282.147368 327.88169 
L 284.520574 327.043841 
L 286.89378 328.098647 
L 289.266986 325.20153 
L 291.640191 323.214027 
L 294.013397 323.496203 
L 296.386603 321.416197 
L 298.759809 321.761999 
M 405.554067 305.25842 
L 407.927273 306.665862 
L 410.300478 305.489605 
L 412.673684 302.975791 
L 415.04689 306.006009 
L 417.420096 305.495234 
L 419.793301 301.105439 
L 422.166507 304.465003 
L 424.539713 303.12545 
L 429.286124 303.020655 
L 431.65933 299.902017 
L 434.032536 298.500282 
L 436.405742 300.719825 
L 438.778947 297.34474 
L 441.152153 298.434118 
L 443.525359 298.23184 
L 445.898565 298.344687 
L 448.27177 299.915285 
L 450.644976 298.615003 
L 453.018182 294.154181 
L 455.391388 290.716481 
L 457.764593 289.579387 
L 462.511005 290.077581 
L 464.884211 289.577038 
L 467.257416 292.243788 
L 469.630622 295.141879 
L 472.003828 295.300874 
L 474.377033 293.713247 
L 476.750239 290.440628 
L 479.123445 285.056802 
L 481.496651 279.266721 
L 483.869856 274.315467 
L 486.243062 267.568958 
L 488.616268 267.735818 
L 490.989474 268.255476 
L 493.362679 264.90823 
L 495.735885 261.7561 
L 498.109091 256.956207 
L 498.109091 256.956207 
" style="fill:none;stroke:#d62728;stroke-linecap:square;stroke-width:1.75;"/>
   </g>
   <g id="patch_3">
    <path d="M 72 346.5 
L 72 47.52 
" style="fill:none;stroke:#000000;stroke-linecap:square;stroke-linejoin:miter;stroke-width:0.8;"/>
   </g>
   <g id="patch_4">
    <path d="M 518.4 346.5 
L 518.4 47.52 
" style="fill:none;stroke:#000000;stroke-linecap:square;stroke-linejoin:miter;stroke-width:0.8;"/>
   </g>
   <g id="patch_5">
    <path d="M 72 346.5 
L 518.4 346.5 
" style="fill:none;stroke:#000000;stroke-linecap:square;stroke-linejoin:miter;stroke-width:0.8;"/>
   </g>
   <g id="patch_6">
    <path d="M 72 47.52 
L 518.4 47.52 
" style="fill:none;stroke:#000000;stroke-linecap:square;stroke-linejoin:miter;stroke-width:0.8;"/>
   </g>
   <g id="text_15">
    <!-- Positivity rate (7 day rolling) -->
    <defs>
     <path d="M 19.671875 64.796875 
L 19.671875 37.40625 
L 32.078125 37.40625 
Q 38.96875 37.40625 42.71875 40.96875 
Q 46.484375 44.53125 46.484375 51.125 
Q 46.484375 57.671875 42.71875 61.234375 
Q 38.96875 64.796875 32.078125 64.796875 
z
M 9.8125 72.90625 
L 32.078125 72.90625 
Q 44.34375 72.90625 50.609375 67.359375 
Q 56.890625 61.8125 56.890625 51.125 
Q 56.890625 40.328125 50.609375 34.8125 
Q 44.34375 29.296875 32.078125 29.296875 
L 19.671875 29.296875 
L 19.671875 0 
L 9.8125 0 
z
" id="DejaVuSans-80"/>
     <path d="M 30.609375 48.390625 
Q 23.390625 48.390625 19.1875 42.75 
Q 14.984375 37.109375 14.984375 27.296875 
Q 14.984375 17.484375 19.15625 11.84375 
Q 23.34375 6.203125 30.609375 6.203125 
Q 37.796875 6.203125 41.984375 11.859375 
Q 46.1875 17.53125 46.1875 27.296875 
Q 46.1875 37.015625 41.984375 42.703125 
Q 37.796875 48.390625 30.609375 48.390625 
z
M 30.609375 56 
Q 42.328125 56 49.015625 48.375 
Q 55.71875 40.765625 55.71875 27.296875 
Q 55.71875 13.875 49.015625 6.21875 
Q 42.328125 -1.421875 30.609375 -1.421875 
Q 18.84375 -1.421875 12.171875 6.21875 
Q 5.515625 13.875 5.515625 27.296875 
Q 5.515625 40.765625 12.171875 48.375 
Q 18.84375 56 30.609375 56 
z
" id="DejaVuSans-111"/>
     <path d="M 44.28125 53.078125 
L 44.28125 44.578125 
Q 40.484375 46.53125 36.375 47.5 
Q 32.28125 48.484375 27.875 48.484375 
Q 21.1875 48.484375 17.84375 46.4375 
Q 14.5 44.390625 14.5 40.28125 
Q 14.5 37.15625 16.890625 35.375 
Q 19.28125 33.59375 26.515625 31.984375 
L 29.59375 31.296875 
Q 39.15625 29.25 43.1875 25.515625 
Q 47.21875 21.78125 47.21875 15.09375 
Q 47.21875 7.46875 41.1875 3.015625 
Q 35.15625 -1.421875 24.609375 -1.421875 
Q 20.21875 -1.421875 15.453125 -0.5625 
Q 10.6875 0.296875 5.421875 2 
L 5.421875 11.28125 
Q 10.40625 8.6875 15.234375 7.390625 
Q 20.0625 6.109375 24.8125 6.109375 
Q 31.15625 6.109375 34.5625 8.28125 
Q 37.984375 10.453125 37.984375 14.40625 
Q 37.984375 18.0625 35.515625 20.015625 
Q 33.0625 21.96875 24.703125 23.78125 
L 21.578125 24.515625 
Q 13.234375 26.265625 9.515625 29.90625 
Q 5.8125 33.546875 5.8125 39.890625 
Q 5.8125 47.609375 11.28125 51.796875 
Q 16.75 56 26.8125 56 
Q 31.78125 56 36.171875 55.265625 
Q 40.578125 54.546875 44.28125 53.078125 
z
" id="DejaVuSans-115"/>
     <path d="M 9.421875 54.6875 
L 18.40625 54.6875 
L 18.40625 0 
L 9.421875 0 
z
M 9.421875 75.984375 
L 18.40625 75.984375 
L 18.40625 64.59375 
L 9.421875 64.59375 
z
" id="DejaVuSans-105"/>
     <path d="M 2.984375 54.6875 
L 12.5 54.6875 
L 29.59375 8.796875 
L 46.6875 54.6875 
L 56.203125 54.6875 
L 35.6875 0 
L 23.484375 0 
z
" id="DejaVuSans-118"/>
     <path d="M 32.171875 -5.078125 
Q 28.375 -14.84375 24.75 -17.8125 
Q 21.140625 -20.796875 15.09375 -20.796875 
L 7.90625 -20.796875 
L 7.90625 -13.28125 
L 13.1875 -13.28125 
Q 16.890625 -13.28125 18.9375 -11.515625 
Q 21 -9.765625 23.484375 -3.21875 
L 25.09375 0.875 
L 2.984375 54.6875 
L 12.5 54.6875 
L 29.59375 11.921875 
L 46.6875 54.6875 
L 56.203125 54.6875 
z
" id="DejaVuSans-121"/>
     <path id="DejaVuSans-32"/>
     <path d="M 41.109375 46.296875 
Q 39.59375 47.171875 37.8125 47.578125 
Q 36.03125 48 33.890625 48 
Q 26.265625 48 22.1875 43.046875 
Q 18.109375 38.09375 18.109375 28.8125 
L 18.109375 0 
L 9.078125 0 
L 9.078125 54.6875 
L 18.109375 54.6875 
L 18.109375 46.1875 
Q 20.953125 51.171875 25.484375 53.578125 
Q 30.03125 56 36.53125 56 
Q 37.453125 56 38.578125 55.875 
Q 39.703125 55.765625 41.0625 55.515625 
z
" id="DejaVuSans-114"/>
     <path d="M 31 75.875 
Q 24.46875 64.65625 21.28125 53.65625 
Q 18.109375 42.671875 18.109375 31.390625 
Q 18.109375 20.125 21.3125 9.0625 
Q 24.515625 -2 31 -13.1875 
L 23.1875 -13.1875 
Q 15.875 -1.703125 12.234375 9.375 
Q 8.59375 20.453125 8.59375 31.390625 
Q 8.59375 42.28125 12.203125 53.3125 
Q 15.828125 64.359375 23.1875 75.875 
z
" id="DejaVuSans-40"/>
     <path d="M 45.40625 46.390625 
L 45.40625 75.984375 
L 54.390625 75.984375 
L 54.390625 0 
L 45.40625 0 
L 45.40625 8.203125 
Q 42.578125 3.328125 38.25 0.953125 
Q 33.9375 -1.421875 27.875 -1.421875 
Q 17.96875 -1.421875 11.734375 6.484375 
Q 5.515625 14.40625 5.515625 27.296875 
Q 5.515625 40.1875 11.734375 48.09375 
Q 17.96875 56 27.875 56 
Q 33.9375 56 38.25 53.625 
Q 42.578125 51.265625 45.40625 46.390625 
z
M 14.796875 27.296875 
Q 14.796875 17.390625 18.875 11.75 
Q 22.953125 6.109375 30.078125 6.109375 
Q 37.203125 6.109375 41.296875 11.75 
Q 45.40625 17.390625 45.40625 27.296875 
Q 45.40625 37.203125 41.296875 42.84375 
Q 37.203125 48.484375 30.078125 48.484375 
Q 22.953125 48.484375 18.875 42.84375 
Q 14.796875 37.203125 14.796875 27.296875 
z
" id="DejaVuSans-100"/>
     <path d="M 9.421875 75.984375 
L 18.40625 75.984375 
L 18.40625 0 
L 9.421875 0 
z
" id="DejaVuSans-108"/>
     <path d="M 54.890625 33.015625 
L 54.890625 0 
L 45.90625 0 
L 45.90625 32.71875 
Q 45.90625 40.484375 42.875 44.328125 
Q 39.84375 48.1875 33.796875 48.1875 
Q 26.515625 48.1875 22.3125 43.546875 
Q 18.109375 38.921875 18.109375 30.90625 
L 18.109375 0 
L 9.078125 0 
L 9.078125 54.6875 
L 18.109375 54.6875 
L 18.109375 46.1875 
Q 21.34375 51.125 25.703125 53.5625 
Q 30.078125 56 35.796875 56 
Q 45.21875 56 50.046875 50.171875 
Q 54.890625 44.34375 54.890625 33.015625 
z
" id="DejaVuSans-110"/>
     <path d="M 45.40625 27.984375 
Q 45.40625 37.75 41.375 43.109375 
Q 37.359375 48.484375 30.078125 48.484375 
Q 22.859375 48.484375 18.828125 43.109375 
Q 14.796875 37.75 14.796875 27.984375 
Q 14.796875 18.265625 18.828125 12.890625 
Q 22.859375 7.515625 30.078125 7.515625 
Q 37.359375 7.515625 41.375 12.890625 
Q 45.40625 18.265625 45.40625 27.984375 
z
M 54.390625 6.78125 
Q 54.390625 -7.171875 48.1875 -13.984375 
Q 42 -20.796875 29.203125 -20.796875 
Q 24.46875 -20.796875 20.265625 -20.09375 
Q 16.0625 -19.390625 12.109375 -17.921875 
L 12.109375 -9.1875 
Q 16.0625 -11.328125 19.921875 -12.34375 
Q 23.78125 -13.375 27.78125 -13.375 
Q 36.625 -13.375 41.015625 -8.765625 
Q 45.40625 -4.15625 45.40625 5.171875 
L 45.40625 9.625 
Q 42.625 4.78125 38.28125 2.390625 
Q 33.9375 0 27.875 0 
Q 17.828125 0 11.671875 7.65625 
Q 5.515625 15.328125 5.515625 27.984375 
Q 5.515625 40.671875 11.671875 48.328125 
Q 17.828125 56 27.875 56 
Q 33.9375 56 38.28125 53.609375 
Q 42.625 51.21875 45.40625 46.390625 
L 45.40625 54.6875 
L 54.390625 54.6875 
z
" id="DejaVuSans-103"/>
     <path d="M 8.015625 75.875 
L 15.828125 75.875 
Q 23.140625 64.359375 26.78125 53.3125 
Q 30.421875 42.28125 30.421875 31.390625 
Q 30.421875 20.453125 26.78125 9.375 
Q 23.140625 -1.703125 15.828125 -13.1875 
L 8.015625 -13.1875 
Q 14.5 -2 17.703125 9.0625 
Q 20.90625 20.125 20.90625 31.390625 
Q 20.90625 42.671875 17.703125 53.65625 
Q 14.5 64.65625 8.015625 75.875 
z
" id="DejaVuSans-41"/>
    </defs>
    <g transform="translate(210.22875 41.52)scale(0.12 -0.12)">
     <use xlink:href="#DejaVuSans-80"/>
     <use x="56.677734" xlink:href="#DejaVuSans-111"/>
     <use x="117.859375" xlink:href="#DejaVuSans-115"/>
     <use x="169.958984" xlink:href="#DejaVuSans-105"/>
     <use x="197.742188" xlink:href="#DejaVuSans-116"/>
     <use x="236.951172" xlink:href="#DejaVuSans-105"/>
     <use x="264.734375" xlink:href="#DejaVuSans-118"/>
     <use x="323.914062" xlink:href="#DejaVuSans-105"/>
     <use x="351.697266" xlink:href="#DejaVuSans-116"/>
     <use x="390.90625" xlink:href="#DejaVuSans-121"/>
     <use x="450.085938" xlink:href="#DejaVuSans-32"/>
     <use x="481.873047" xlink:href="#DejaVuSans-114"/>
     <use x="522.986328" xlink:href="#DejaVuSans-97"/>
     <use x="584.265625" xlink:href="#DejaVuSans-116"/>
     <use x="623.474609" xlink:href="#DejaVuSans-101"/>
     <use x="684.998047" xlink:href="#DejaVuSans-32"/>
     <use x="716.785156" xlink:href="#DejaVuSans-40"/>
     <use x="755.798828" xlink:href="#DejaVuSans-55"/>
     <use x="819.421875" xlink:href="#DejaVuSans-32"/>
     <use x="851.208984" xlink:href="#DejaVuSans-100"/>
     <use x="914.685547" xlink:href="#DejaVuSans-97"/>
     <use x="975.964844" xlink:href="#DejaVuSans-121"/>
     <use x="1035.144531" xlink:href="#DejaVuSans-32"/>
     <use x="1066.931641" xlink:href="#DejaVuSans-114"/>
     <use x="1105.794922" xlink:href="#DejaVuSans-111"/>
     <use x="1166.976562" xlink:href="#DejaVuSans-108"/>
     <use x="1194.759766" xlink:href="#DejaVuSans-108"/>
     <use x="1222.542969" xlink:href="#DejaVuSans-105"/>
     <use x="1250.326172" xlink:href="#DejaVuSans-110"/>
     <use x="1313.705078" xlink:href="#DejaVuSans-103"/>
     <use x="1377.181641" xlink:href="#DejaVuSans-41"/>
    </g>
   </g>
   <g id="legend_1">
    <g id="patch_7">
     <path d="M 397.245312 114.2325 
L 511.4 114.2325 
Q 513.4 114.2325 513.4 112.2325 
L 513.4 54.52 
Q 513.4 52.52 511.4 52.52 
L 397.245312 52.52 
Q 395.245312 52.52 395.245312 54.52 
L 395.245312 112.2325 
Q 395.245312 114.2325 397.245312 114.2325 
z
" style="fill:#ffffff;opacity:0.8;stroke:#cccccc;stroke-linejoin:miter;stroke-width:0.3;"/>
    </g>
    <g id="line2d_18">
     <path d="M 399.245312 60.618437 
L 419.245312 60.618437 
" style="fill:none;stroke:#1f77b4;stroke-linecap:square;stroke-width:1.75;"/>
    </g>
    <g id="line2d_19"/>
    <g id="text_16">
     <!-- England -->
     <defs>
      <path d="M 9.8125 72.90625 
L 55.90625 72.90625 
L 55.90625 64.59375 
L 19.671875 64.59375 
L 19.671875 43.015625 
L 54.390625 43.015625 
L 54.390625 34.71875 
L 19.671875 34.71875 
L 19.671875 8.296875 
L 56.78125 8.296875 
L 56.78125 0 
L 9.8125 0 
z
" id="DejaVuSans-69"/>
     </defs>
     <g transform="translate(427.245312 64.118437)scale(0.1 -0.1)">
      <use xlink:href="#DejaVuSans-69"/>
      <use x="63.183594" xlink:href="#DejaVuSans-110"/>
      <use x="126.5625" xlink:href="#DejaVuSans-103"/>
      <use x="190.039062" xlink:href="#DejaVuSans-108"/>
      <use x="217.822266" xlink:href="#DejaVuSans-97"/>
      <use x="279.101562" xlink:href="#DejaVuSans-110"/>
      <use x="342.480469" xlink:href="#DejaVuSans-100"/>
     </g>
    </g>
    <g id="line2d_20">
     <path d="M 399.245312 75.296562 
L 419.245312 75.296562 
" style="fill:none;stroke:#ff7f0e;stroke-linecap:square;stroke-width:1.75;"/>
    </g>
    <g id="line2d_21"/>
    <g id="text_17">
     <!-- Scotland -->
     <defs>
      <path d="M 53.515625 70.515625 
L 53.515625 60.890625 
Q 47.90625 63.578125 42.921875 64.890625 
Q 37.9375 66.21875 33.296875 66.21875 
Q 25.25 66.21875 20.875 63.09375 
Q 16.5 59.96875 16.5 54.203125 
Q 16.5 49.359375 19.40625 46.890625 
Q 22.3125 44.4375 30.421875 42.921875 
L 36.375 41.703125 
Q 47.40625 39.59375 52.65625 34.296875 
Q 57.90625 29 57.90625 20.125 
Q 57.90625 9.515625 50.796875 4.046875 
Q 43.703125 -1.421875 29.984375 -1.421875 
Q 24.8125 -1.421875 18.96875 -0.25 
Q 13.140625 0.921875 6.890625 3.21875 
L 6.890625 13.375 
Q 12.890625 10.015625 18.65625 8.296875 
Q 24.421875 6.59375 29.984375 6.59375 
Q 38.421875 6.59375 43.015625 9.90625 
Q 47.609375 13.234375 47.609375 19.390625 
Q 47.609375 24.75 44.3125 27.78125 
Q 41.015625 30.8125 33.5 32.328125 
L 27.484375 33.5 
Q 16.453125 35.6875 11.515625 40.375 
Q 6.59375 45.0625 6.59375 53.421875 
Q 6.59375 63.09375 13.40625 68.65625 
Q 20.21875 74.21875 32.171875 74.21875 
Q 37.3125 74.21875 42.625 73.28125 
Q 47.953125 72.359375 53.515625 70.515625 
z
" id="DejaVuSans-83"/>
      <path d="M 48.78125 52.59375 
L 48.78125 44.1875 
Q 44.96875 46.296875 41.140625 47.34375 
Q 37.3125 48.390625 33.40625 48.390625 
Q 24.65625 48.390625 19.8125 42.84375 
Q 14.984375 37.3125 14.984375 27.296875 
Q 14.984375 17.28125 19.8125 11.734375 
Q 24.65625 6.203125 33.40625 6.203125 
Q 37.3125 6.203125 41.140625 7.25 
Q 44.96875 8.296875 48.78125 10.40625 
L 48.78125 2.09375 
Q 45.015625 0.34375 40.984375 -0.53125 
Q 36.96875 -1.421875 32.421875 -1.421875 
Q 20.0625 -1.421875 12.78125 6.34375 
Q 5.515625 14.109375 5.515625 27.296875 
Q 5.515625 40.671875 12.859375 48.328125 
Q 20.21875 56 33.015625 56 
Q 37.15625 56 41.109375 55.140625 
Q 45.0625 54.296875 48.78125 52.59375 
z
" id="DejaVuSans-99"/>
     </defs>
     <g transform="translate(427.245312 78.796562)scale(0.1 -0.1)">
      <use xlink:href="#DejaVuSans-83"/>
      <use x="63.476562" xlink:href="#DejaVuSans-99"/>
      <use x="118.457031" xlink:href="#DejaVuSans-111"/>
      <use x="179.638672" xlink:href="#DejaVuSans-116"/>
      <use x="218.847656" xlink:href="#DejaVuSans-108"/>
      <use x="246.630859" xlink:href="#DejaVuSans-97"/>
      <use x="307.910156" xlink:href="#DejaVuSans-110"/>
      <use x="371.289062" xlink:href="#DejaVuSans-100"/>
     </g>
    </g>
    <g id="line2d_22">
     <path d="M 399.245312 89.974687 
L 419.245312 89.974687 
" style="fill:none;stroke:#2ca02c;stroke-linecap:square;stroke-width:1.75;"/>
    </g>
    <g id="line2d_23"/>
    <g id="text_18">
     <!-- Wales -->
     <defs>
      <path d="M 3.328125 72.90625 
L 13.28125 72.90625 
L 28.609375 11.28125 
L 43.890625 72.90625 
L 54.984375 72.90625 
L 70.3125 11.28125 
L 85.59375 72.90625 
L 95.609375 72.90625 
L 77.296875 0 
L 64.890625 0 
L 49.515625 63.28125 
L 33.984375 0 
L 21.578125 0 
z
" id="DejaVuSans-87"/>
     </defs>
     <g transform="translate(427.245312 93.474687)scale(0.1 -0.1)">
      <use xlink:href="#DejaVuSans-87"/>
      <use x="92.501953" xlink:href="#DejaVuSans-97"/>
      <use x="153.78125" xlink:href="#DejaVuSans-108"/>
      <use x="181.564453" xlink:href="#DejaVuSans-101"/>
      <use x="243.087891" xlink:href="#DejaVuSans-115"/>
     </g>
    </g>
    <g id="line2d_24">
     <path d="M 399.245312 104.652812 
L 419.245312 104.652812 
" style="fill:none;stroke:#d62728;stroke-linecap:square;stroke-width:1.75;"/>
    </g>
    <g id="line2d_25"/>
    <g id="text_19">
     <!-- Northern Ireland -->
     <defs>
      <path d="M 9.8125 72.90625 
L 23.09375 72.90625 
L 55.421875 11.921875 
L 55.421875 72.90625 
L 64.984375 72.90625 
L 64.984375 0 
L 51.703125 0 
L 19.390625 60.984375 
L 19.390625 0 
L 9.8125 0 
z
" id="DejaVuSans-78"/>
      <path d="M 54.890625 33.015625 
L 54.890625 0 
L 45.90625 0 
L 45.90625 32.71875 
Q 45.90625 40.484375 42.875 44.328125 
Q 39.84375 48.1875 33.796875 48.1875 
Q 26.515625 48.1875 22.3125 43.546875 
Q 18.109375 38.921875 18.109375 30.90625 
L 18.109375 0 
L 9.078125 0 
L 9.078125 75.984375 
L 18.109375 75.984375 
L 18.109375 46.1875 
Q 21.34375 51.125 25.703125 53.5625 
Q 30.078125 56 35.796875 56 
Q 45.21875 56 50.046875 50.171875 
Q 54.890625 44.34375 54.890625 33.015625 
z
" id="DejaVuSans-104"/>
      <path d="M 9.8125 72.90625 
L 19.671875 72.90625 
L 19.671875 0 
L 9.8125 0 
z
" id="DejaVuSans-73"/>
     </defs>
     <g transform="translate(427.245312 108.152812)scale(0.1 -0.1)">
      <use xlink:href="#DejaVuSans-78"/>
      <use x="74.804688" xlink:href="#DejaVuSans-111"/>
      <use x="135.986328" xlink:href="#DejaVuSans-114"/>
      <use x="177.099609" xlink:href="#DejaVuSans-116"/>
      <use x="216.308594" xlink:href="#DejaVuSans-104"/>
      <use x="279.6875" xlink:href="#DejaVuSans-101"/>
      <use x="341.210938" xlink:href="#DejaVuSans-114"/>
      <use x="380.574219" xlink:href="#DejaVuSans-110"/>
      <use x="443.953125" xlink:href="#DejaVuSans-32"/>
      <use x="475.740234" xlink:href="#DejaVuSans-73"/>
      <use x="505.232422" xlink:href="#DejaVuSans-114"/>
      <use x="544.095703" xlink:href="#DejaVuSans-101"/>
      <use x="605.619141" xlink:href="#DejaVuSans-108"/>
      <use x="633.402344" xlink:href="#DejaVuSans-97"/>
      <use x="694.681641" xlink:href="#DejaVuSans-110"/>
      <use x="758.060547" xlink:href="#DejaVuSans-100"/>
     </g>
    </g>
   </g>
  </g>
 </g>
 <defs>
  <clipPath id="p38c8c58a8f">
   <rect height="298.98" width="446.4" x="72" y="47.52"/>
  </clipPath>
 </defs>
</svg>
