<?xml version="1.0" encoding="utf-8" standalone="no"?>
<!DOCTYPE svg PUBLIC "-//W3C//DTD SVG 1.1//EN"
  "http://www.w3.org/Graphics/SVG/1.1/DTD/svg11.dtd">
<!-- Created with matplotlib (https://matplotlib.org/) -->
<svg height="396pt" version="1.1" viewBox="0 0 576 396" width="576pt" xmlns="http://www.w3.org/2000/svg" xmlns:xlink="http://www.w3.org/1999/xlink">
 <defs>
  <style type="text/css">
*{stroke-linecap:butt;stroke-linejoin:round;}
  </style>
 </defs>
 <g id="figure_1">
  <g id="patch_1">
   <path d="M 0 396 
L 576 396 
L 576 0 
L 0 0 
z
" style="fill:#ffffff;"/>
  </g>
  <g id="axes_1">
   <g id="patch_2">
    <path d="M 45.453169 331.102246 
L 565.2 331.102246 
L 565.2 26.8 
L 45.453169 26.8 
z
" style="fill:#ffffff;"/>
   </g>
   <g id="matplotlib.axis_1">
    <g id="xtick_1">
     <g id="line2d_1">
      <defs>
       <path d="M 0 0 
L 0 3.5 
" id="m1cfecde92f" style="stroke:#000000;"/>
      </defs>
      <g>
       <use style="stroke:#000000;" x="53.151156" xlink:href="#m1cfecde92f" y="331.102246"/>
      </g>
     </g>
     <g id="text_1">
      <!-- 2020-04 -->
      <defs>
       <path d="M 19.1875 8.296875 
L 53.609375 8.296875 
L 53.609375 0 
L 7.328125 0 
L 7.328125 8.296875 
Q 12.9375 14.109375 22.625 23.890625 
Q 32.328125 33.6875 34.8125 36.53125 
Q 39.546875 41.84375 41.421875 45.53125 
Q 43.3125 49.21875 43.3125 52.78125 
Q 43.3125 58.59375 39.234375 62.25 
Q 35.15625 65.921875 28.609375 65.921875 
Q 23.96875 65.921875 18.8125 64.3125 
Q 13.671875 62.703125 7.8125 59.421875 
L 7.8125 69.390625 
Q 13.765625 71.78125 18.9375 73 
Q 24.125 74.21875 28.421875 74.21875 
Q 39.75 74.21875 46.484375 68.546875 
Q 53.21875 62.890625 53.21875 53.421875 
Q 53.21875 48.921875 51.53125 44.890625 
Q 49.859375 40.875 45.40625 35.40625 
Q 44.1875 33.984375 37.640625 27.21875 
Q 31.109375 20.453125 19.1875 8.296875 
z
" id="DejaVuSans-50"/>
       <path d="M 31.78125 66.40625 
Q 24.171875 66.40625 20.328125 58.90625 
Q 16.5 51.421875 16.5 36.375 
Q 16.5 21.390625 20.328125 13.890625 
Q 24.171875 6.390625 31.78125 6.390625 
Q 39.453125 6.390625 43.28125 13.890625 
Q 47.125 21.390625 47.125 36.375 
Q 47.125 51.421875 43.28125 58.90625 
Q 39.453125 66.40625 31.78125 66.40625 
z
M 31.78125 74.21875 
Q 44.046875 74.21875 50.515625 64.515625 
Q 56.984375 54.828125 56.984375 36.375 
Q 56.984375 17.96875 50.515625 8.265625 
Q 44.046875 -1.421875 31.78125 -1.421875 
Q 19.53125 -1.421875 13.0625 8.265625 
Q 6.59375 17.96875 6.59375 36.375 
Q 6.59375 54.828125 13.0625 64.515625 
Q 19.53125 74.21875 31.78125 74.21875 
z
" id="DejaVuSans-48"/>
       <path d="M 4.890625 31.390625 
L 31.203125 31.390625 
L 31.203125 23.390625 
L 4.890625 23.390625 
z
" id="DejaVuSans-45"/>
       <path d="M 37.796875 64.3125 
L 12.890625 25.390625 
L 37.796875 25.390625 
z
M 35.203125 72.90625 
L 47.609375 72.90625 
L 47.609375 25.390625 
L 58.015625 25.390625 
L 58.015625 17.1875 
L 47.609375 17.1875 
L 47.609375 0 
L 37.796875 0 
L 37.796875 17.1875 
L 4.890625 17.1875 
L 4.890625 26.703125 
z
" id="DejaVuSans-52"/>
      </defs>
      <g transform="translate(15.926335 369.074092)rotate(-30)scale(0.1 -0.1)">
       <use xlink:href="#DejaVuSans-50"/>
       <use x="63.623047" xlink:href="#DejaVuSans-48"/>
       <use x="127.246094" xlink:href="#DejaVuSans-50"/>
       <use x="190.869141" xlink:href="#DejaVuSans-48"/>
       <use x="254.492188" xlink:href="#DejaVuSans-45"/>
       <use x="290.576172" xlink:href="#DejaVuSans-48"/>
       <use x="354.199219" xlink:href="#DejaVuSans-52"/>
      </g>
     </g>
    </g>
    <g id="xtick_2">
     <g id="line2d_2">
      <g>
       <use style="stroke:#000000;" x="132.785502" xlink:href="#m1cfecde92f" y="331.102246"/>
      </g>
     </g>
     <g id="text_2">
      <!-- 2020-05 -->
      <defs>
       <path d="M 10.796875 72.90625 
L 49.515625 72.90625 
L 49.515625 64.59375 
L 19.828125 64.59375 
L 19.828125 46.734375 
Q 21.96875 47.46875 24.109375 47.828125 
Q 26.265625 48.1875 28.421875 48.1875 
Q 40.625 48.1875 47.75 41.5 
Q 54.890625 34.8125 54.890625 23.390625 
Q 54.890625 11.625 47.5625 5.09375 
Q 40.234375 -1.421875 26.90625 -1.421875 
Q 22.3125 -1.421875 17.546875 -0.640625 
Q 12.796875 0.140625 7.71875 1.703125 
L 7.71875 11.625 
Q 12.109375 9.234375 16.796875 8.0625 
Q 21.484375 6.890625 26.703125 6.890625 
Q 35.15625 6.890625 40.078125 11.328125 
Q 45.015625 15.765625 45.015625 23.390625 
Q 45.015625 31 40.078125 35.4375 
Q 35.15625 39.890625 26.703125 39.890625 
Q 22.75 39.890625 18.8125 39.015625 
Q 14.890625 38.140625 10.796875 36.28125 
z
" id="DejaVuSans-53"/>
      </defs>
      <g transform="translate(95.560681 369.074092)rotate(-30)scale(0.1 -0.1)">
       <use xlink:href="#DejaVuSans-50"/>
       <use x="63.623047" xlink:href="#DejaVuSans-48"/>
       <use x="127.246094" xlink:href="#DejaVuSans-50"/>
       <use x="190.869141" xlink:href="#DejaVuSans-48"/>
       <use x="254.492188" xlink:href="#DejaVuSans-45"/>
       <use x="290.576172" xlink:href="#DejaVuSans-48"/>
       <use x="354.199219" xlink:href="#DejaVuSans-53"/>
      </g>
     </g>
    </g>
    <g id="xtick_3">
     <g id="line2d_3">
      <g>
       <use style="stroke:#000000;" x="215.074326" xlink:href="#m1cfecde92f" y="331.102246"/>
      </g>
     </g>
     <g id="text_3">
      <!-- 2020-06 -->
      <defs>
       <path d="M 33.015625 40.375 
Q 26.375 40.375 22.484375 35.828125 
Q 18.609375 31.296875 18.609375 23.390625 
Q 18.609375 15.53125 22.484375 10.953125 
Q 26.375 6.390625 33.015625 6.390625 
Q 39.65625 6.390625 43.53125 10.953125 
Q 47.40625 15.53125 47.40625 23.390625 
Q 47.40625 31.296875 43.53125 35.828125 
Q 39.65625 40.375 33.015625 40.375 
z
M 52.59375 71.296875 
L 52.59375 62.3125 
Q 48.875 64.0625 45.09375 64.984375 
Q 41.3125 65.921875 37.59375 65.921875 
Q 27.828125 65.921875 22.671875 59.328125 
Q 17.53125 52.734375 16.796875 39.40625 
Q 19.671875 43.65625 24.015625 45.921875 
Q 28.375 48.1875 33.59375 48.1875 
Q 44.578125 48.1875 50.953125 41.515625 
Q 57.328125 34.859375 57.328125 23.390625 
Q 57.328125 12.15625 50.6875 5.359375 
Q 44.046875 -1.421875 33.015625 -1.421875 
Q 20.359375 -1.421875 13.671875 8.265625 
Q 6.984375 17.96875 6.984375 36.375 
Q 6.984375 53.65625 15.1875 63.9375 
Q 23.390625 74.21875 37.203125 74.21875 
Q 40.921875 74.21875 44.703125 73.484375 
Q 48.484375 72.75 52.59375 71.296875 
z
" id="DejaVuSans-54"/>
      </defs>
      <g transform="translate(177.849505 369.074092)rotate(-30)scale(0.1 -0.1)">
       <use xlink:href="#DejaVuSans-50"/>
       <use x="63.623047" xlink:href="#DejaVuSans-48"/>
       <use x="127.246094" xlink:href="#DejaVuSans-50"/>
       <use x="190.869141" xlink:href="#DejaVuSans-48"/>
       <use x="254.492188" xlink:href="#DejaVuSans-45"/>
       <use x="290.576172" xlink:href="#DejaVuSans-48"/>
       <use x="354.199219" xlink:href="#DejaVuSans-54"/>
      </g>
     </g>
    </g>
    <g id="xtick_4">
     <g id="line2d_4">
      <g>
       <use style="stroke:#000000;" x="294.708672" xlink:href="#m1cfecde92f" y="331.102246"/>
      </g>
     </g>
     <g id="text_4">
      <!-- 2020-07 -->
      <defs>
       <path d="M 8.203125 72.90625 
L 55.078125 72.90625 
L 55.078125 68.703125 
L 28.609375 0 
L 18.3125 0 
L 43.21875 64.59375 
L 8.203125 64.59375 
z
" id="DejaVuSans-55"/>
      </defs>
      <g transform="translate(257.483851 369.074092)rotate(-30)scale(0.1 -0.1)">
       <use xlink:href="#DejaVuSans-50"/>
       <use x="63.623047" xlink:href="#DejaVuSans-48"/>
       <use x="127.246094" xlink:href="#DejaVuSans-50"/>
       <use x="190.869141" xlink:href="#DejaVuSans-48"/>
       <use x="254.492188" xlink:href="#DejaVuSans-45"/>
       <use x="290.576172" xlink:href="#DejaVuSans-48"/>
       <use x="354.199219" xlink:href="#DejaVuSans-55"/>
      </g>
     </g>
    </g>
    <g id="xtick_5">
     <g id="line2d_5">
      <g>
       <use style="stroke:#000000;" x="376.997496" xlink:href="#m1cfecde92f" y="331.102246"/>
      </g>
     </g>
     <g id="text_5">
      <!-- 2020-08 -->
      <defs>
       <path d="M 31.78125 34.625 
Q 24.75 34.625 20.71875 30.859375 
Q 16.703125 27.09375 16.703125 20.515625 
Q 16.703125 13.921875 20.71875 10.15625 
Q 24.75 6.390625 31.78125 6.390625 
Q 38.8125 6.390625 42.859375 10.171875 
Q 46.921875 13.96875 46.921875 20.515625 
Q 46.921875 27.09375 42.890625 30.859375 
Q 38.875 34.625 31.78125 34.625 
z
M 21.921875 38.8125 
Q 15.578125 40.375 12.03125 44.71875 
Q 8.5 49.078125 8.5 55.328125 
Q 8.5 64.0625 14.71875 69.140625 
Q 20.953125 74.21875 31.78125 74.21875 
Q 42.671875 74.21875 48.875 69.140625 
Q 55.078125 64.0625 55.078125 55.328125 
Q 55.078125 49.078125 51.53125 44.71875 
Q 48 40.375 41.703125 38.8125 
Q 48.828125 37.15625 52.796875 32.3125 
Q 56.78125 27.484375 56.78125 20.515625 
Q 56.78125 9.90625 50.3125 4.234375 
Q 43.84375 -1.421875 31.78125 -1.421875 
Q 19.734375 -1.421875 13.25 4.234375 
Q 6.78125 9.90625 6.78125 20.515625 
Q 6.78125 27.484375 10.78125 32.3125 
Q 14.796875 37.15625 21.921875 38.8125 
z
M 18.3125 54.390625 
Q 18.3125 48.734375 21.84375 45.5625 
Q 25.390625 42.390625 31.78125 42.390625 
Q 38.140625 42.390625 41.71875 45.5625 
Q 45.3125 48.734375 45.3125 54.390625 
Q 45.3125 60.0625 41.71875 63.234375 
Q 38.140625 66.40625 31.78125 66.40625 
Q 25.390625 66.40625 21.84375 63.234375 
Q 18.3125 60.0625 18.3125 54.390625 
z
" id="DejaVuSans-56"/>
      </defs>
      <g transform="translate(339.772675 369.074092)rotate(-30)scale(0.1 -0.1)">
       <use xlink:href="#DejaVuSans-50"/>
       <use x="63.623047" xlink:href="#DejaVuSans-48"/>
       <use x="127.246094" xlink:href="#DejaVuSans-50"/>
       <use x="190.869141" xlink:href="#DejaVuSans-48"/>
       <use x="254.492188" xlink:href="#DejaVuSans-45"/>
       <use x="290.576172" xlink:href="#DejaVuSans-48"/>
       <use x="354.199219" xlink:href="#DejaVuSans-56"/>
      </g>
     </g>
    </g>
    <g id="xtick_6">
     <g id="line2d_6">
      <g>
       <use style="stroke:#000000;" x="459.28632" xlink:href="#m1cfecde92f" y="331.102246"/>
      </g>
     </g>
     <g id="text_6">
      <!-- 2020-09 -->
      <defs>
       <path d="M 10.984375 1.515625 
L 10.984375 10.5 
Q 14.703125 8.734375 18.5 7.8125 
Q 22.3125 6.890625 25.984375 6.890625 
Q 35.75 6.890625 40.890625 13.453125 
Q 46.046875 20.015625 46.78125 33.40625 
Q 43.953125 29.203125 39.59375 26.953125 
Q 35.25 24.703125 29.984375 24.703125 
Q 19.046875 24.703125 12.671875 31.3125 
Q 6.296875 37.9375 6.296875 49.421875 
Q 6.296875 60.640625 12.9375 67.421875 
Q 19.578125 74.21875 30.609375 74.21875 
Q 43.265625 74.21875 49.921875 64.515625 
Q 56.59375 54.828125 56.59375 36.375 
Q 56.59375 19.140625 48.40625 8.859375 
Q 40.234375 -1.421875 26.421875 -1.421875 
Q 22.703125 -1.421875 18.890625 -0.6875 
Q 15.09375 0.046875 10.984375 1.515625 
z
M 30.609375 32.421875 
Q 37.25 32.421875 41.125 36.953125 
Q 45.015625 41.5 45.015625 49.421875 
Q 45.015625 57.28125 41.125 61.84375 
Q 37.25 66.40625 30.609375 66.40625 
Q 23.96875 66.40625 20.09375 61.84375 
Q 16.21875 57.28125 16.21875 49.421875 
Q 16.21875 41.5 20.09375 36.953125 
Q 23.96875 32.421875 30.609375 32.421875 
z
" id="DejaVuSans-57"/>
      </defs>
      <g transform="translate(422.061499 369.074092)rotate(-30)scale(0.1 -0.1)">
       <use xlink:href="#DejaVuSans-50"/>
       <use x="63.623047" xlink:href="#DejaVuSans-48"/>
       <use x="127.246094" xlink:href="#DejaVuSans-50"/>
       <use x="190.869141" xlink:href="#DejaVuSans-48"/>
       <use x="254.492188" xlink:href="#DejaVuSans-45"/>
       <use x="290.576172" xlink:href="#DejaVuSans-48"/>
       <use x="354.199219" xlink:href="#DejaVuSans-57"/>
      </g>
     </g>
    </g>
    <g id="xtick_7">
     <g id="line2d_7">
      <g>
       <use style="stroke:#000000;" x="538.920666" xlink:href="#m1cfecde92f" y="331.102246"/>
      </g>
     </g>
     <g id="text_7">
      <!-- 2020-10 -->
      <defs>
       <path d="M 12.40625 8.296875 
L 28.515625 8.296875 
L 28.515625 63.921875 
L 10.984375 60.40625 
L 10.984375 69.390625 
L 28.421875 72.90625 
L 38.28125 72.90625 
L 38.28125 8.296875 
L 54.390625 8.296875 
L 54.390625 0 
L 12.40625 0 
z
" id="DejaVuSans-49"/>
      </defs>
      <g transform="translate(501.695845 369.074092)rotate(-30)scale(0.1 -0.1)">
       <use xlink:href="#DejaVuSans-50"/>
       <use x="63.623047" xlink:href="#DejaVuSans-48"/>
       <use x="127.246094" xlink:href="#DejaVuSans-50"/>
       <use x="190.869141" xlink:href="#DejaVuSans-48"/>
       <use x="254.492188" xlink:href="#DejaVuSans-45"/>
       <use x="290.576172" xlink:href="#DejaVuSans-49"/>
       <use x="354.199219" xlink:href="#DejaVuSans-48"/>
      </g>
     </g>
    </g>
    <g id="text_8">
     <!-- Date -->
     <defs>
      <path d="M 19.671875 64.796875 
L 19.671875 8.109375 
L 31.59375 8.109375 
Q 46.6875 8.109375 53.6875 14.9375 
Q 60.6875 21.78125 60.6875 36.53125 
Q 60.6875 51.171875 53.6875 57.984375 
Q 46.6875 64.796875 31.59375 64.796875 
z
M 9.8125 72.90625 
L 30.078125 72.90625 
Q 51.265625 72.90625 61.171875 64.09375 
Q 71.09375 55.28125 71.09375 36.53125 
Q 71.09375 17.671875 61.125 8.828125 
Q 51.171875 0 30.078125 0 
L 9.8125 0 
z
" id="DejaVuSans-68"/>
      <path d="M 34.28125 27.484375 
Q 23.390625 27.484375 19.1875 25 
Q 14.984375 22.515625 14.984375 16.5 
Q 14.984375 11.71875 18.140625 8.90625 
Q 21.296875 6.109375 26.703125 6.109375 
Q 34.1875 6.109375 38.703125 11.40625 
Q 43.21875 16.703125 43.21875 25.484375 
L 43.21875 27.484375 
z
M 52.203125 31.203125 
L 52.203125 0 
L 43.21875 0 
L 43.21875 8.296875 
Q 40.140625 3.328125 35.546875 0.953125 
Q 30.953125 -1.421875 24.3125 -1.421875 
Q 15.921875 -1.421875 10.953125 3.296875 
Q 6 8.015625 6 15.921875 
Q 6 25.140625 12.171875 29.828125 
Q 18.359375 34.515625 30.609375 34.515625 
L 43.21875 34.515625 
L 43.21875 35.40625 
Q 43.21875 41.609375 39.140625 45 
Q 35.0625 48.390625 27.6875 48.390625 
Q 23 48.390625 18.546875 47.265625 
Q 14.109375 46.140625 10.015625 43.890625 
L 10.015625 52.203125 
Q 14.9375 54.109375 19.578125 55.046875 
Q 24.21875 56 28.609375 56 
Q 40.484375 56 46.34375 49.84375 
Q 52.203125 43.703125 52.203125 31.203125 
z
" id="DejaVuSans-97"/>
      <path d="M 18.3125 70.21875 
L 18.3125 54.6875 
L 36.8125 54.6875 
L 36.8125 47.703125 
L 18.3125 47.703125 
L 18.3125 18.015625 
Q 18.3125 11.328125 20.140625 9.421875 
Q 21.96875 7.515625 27.59375 7.515625 
L 36.8125 7.515625 
L 36.8125 0 
L 27.59375 0 
Q 17.1875 0 13.234375 3.875 
Q 9.28125 7.765625 9.28125 18.015625 
L 9.28125 47.703125 
L 2.6875 47.703125 
L 2.6875 54.6875 
L 9.28125 54.6875 
L 9.28125 70.21875 
z
" id="DejaVuSans-116"/>
      <path d="M 56.203125 29.59375 
L 56.203125 25.203125 
L 14.890625 25.203125 
Q 15.484375 15.921875 20.484375 11.0625 
Q 25.484375 6.203125 34.421875 6.203125 
Q 39.59375 6.203125 44.453125 7.46875 
Q 49.3125 8.734375 54.109375 11.28125 
L 54.109375 2.78125 
Q 49.265625 0.734375 44.1875 -0.34375 
Q 39.109375 -1.421875 33.890625 -1.421875 
Q 20.796875 -1.421875 13.15625 6.1875 
Q 5.515625 13.8125 5.515625 26.8125 
Q 5.515625 40.234375 12.765625 48.109375 
Q 20.015625 56 32.328125 56 
Q 43.359375 56 49.78125 48.890625 
Q 56.203125 41.796875 56.203125 29.59375 
z
M 47.21875 32.234375 
Q 47.125 39.59375 43.09375 43.984375 
Q 39.0625 48.390625 32.421875 48.390625 
Q 24.90625 48.390625 20.390625 44.140625 
Q 15.875 39.890625 15.1875 32.171875 
z
" id="DejaVuSans-101"/>
     </defs>
     <g transform="translate(292.180725 383.233436)scale(0.11 -0.11)">
      <use xlink:href="#DejaVuSans-68"/>
      <use x="77.001953" xlink:href="#DejaVuSans-97"/>
      <use x="138.28125" xlink:href="#DejaVuSans-116"/>
      <use x="177.490234" xlink:href="#DejaVuSans-101"/>
     </g>
    </g>
   </g>
   <g id="matplotlib.axis_2">
    <g id="ytick_1">
     <g id="line2d_8">
      <defs>
       <path d="M 0 0 
L -3.5 0 
" id="m4e6646af66" style="stroke:#000000;"/>
      </defs>
      <g>
       <use style="stroke:#000000;" x="45.453169" xlink:href="#m4e6646af66" y="316.611663"/>
      </g>
     </g>
     <g id="text_9">
      <!-- 0.00 -->
      <defs>
       <path d="M 10.6875 12.40625 
L 21 12.40625 
L 21 0 
L 10.6875 0 
z
" id="DejaVuSans-46"/>
      </defs>
      <g transform="translate(12.687544 320.410882)scale(0.1 -0.1)">
       <use xlink:href="#DejaVuSans-48"/>
       <use x="63.623047" xlink:href="#DejaVuSans-46"/>
       <use x="95.410156" xlink:href="#DejaVuSans-48"/>
       <use x="159.033203" xlink:href="#DejaVuSans-48"/>
      </g>
     </g>
    </g>
    <g id="ytick_2">
     <g id="line2d_9">
      <g>
       <use style="stroke:#000000;" x="45.453169" xlink:href="#m4e6646af66" y="258.64933"/>
      </g>
     </g>
     <g id="text_10">
      <!-- 0.02 -->
      <g transform="translate(12.687544 262.448549)scale(0.1 -0.1)">
       <use xlink:href="#DejaVuSans-48"/>
       <use x="63.623047" xlink:href="#DejaVuSans-46"/>
       <use x="95.410156" xlink:href="#DejaVuSans-48"/>
       <use x="159.033203" xlink:href="#DejaVuSans-50"/>
      </g>
     </g>
    </g>
    <g id="ytick_3">
     <g id="line2d_10">
      <g>
       <use style="stroke:#000000;" x="45.453169" xlink:href="#m4e6646af66" y="200.686998"/>
      </g>
     </g>
     <g id="text_11">
      <!-- 0.04 -->
      <g transform="translate(12.687544 204.486216)scale(0.1 -0.1)">
       <use xlink:href="#DejaVuSans-48"/>
       <use x="63.623047" xlink:href="#DejaVuSans-46"/>
       <use x="95.410156" xlink:href="#DejaVuSans-48"/>
       <use x="159.033203" xlink:href="#DejaVuSans-52"/>
      </g>
     </g>
    </g>
    <g id="ytick_4">
     <g id="line2d_11">
      <g>
       <use style="stroke:#000000;" x="45.453169" xlink:href="#m4e6646af66" y="142.724665"/>
      </g>
     </g>
     <g id="text_12">
      <!-- 0.06 -->
      <g transform="translate(12.687544 146.523884)scale(0.1 -0.1)">
       <use xlink:href="#DejaVuSans-48"/>
       <use x="63.623047" xlink:href="#DejaVuSans-46"/>
       <use x="95.410156" xlink:href="#DejaVuSans-48"/>
       <use x="159.033203" xlink:href="#DejaVuSans-54"/>
      </g>
     </g>
    </g>
    <g id="ytick_5">
     <g id="line2d_12">
      <g>
       <use style="stroke:#000000;" x="45.453169" xlink:href="#m4e6646af66" y="84.762333"/>
      </g>
     </g>
     <g id="text_13">
      <!-- 0.08 -->
      <g transform="translate(12.687544 88.561551)scale(0.1 -0.1)">
       <use xlink:href="#DejaVuSans-48"/>
       <use x="63.623047" xlink:href="#DejaVuSans-46"/>
       <use x="95.410156" xlink:href="#DejaVuSans-48"/>
       <use x="159.033203" xlink:href="#DejaVuSans-56"/>
      </g>
     </g>
    </g>
    <g id="ytick_6">
     <g id="line2d_13">
      <g>
       <use style="stroke:#000000;" x="45.453169" xlink:href="#m4e6646af66" y="26.8"/>
      </g>
     </g>
     <g id="text_14">
      <!-- 0.10 -->
      <g transform="translate(12.687544 30.599219)scale(0.1 -0.1)">
       <use xlink:href="#DejaVuSans-48"/>
       <use x="63.623047" xlink:href="#DejaVuSans-46"/>
       <use x="95.410156" xlink:href="#DejaVuSans-49"/>
       <use x="159.033203" xlink:href="#DejaVuSans-48"/>
      </g>
     </g>
    </g>
   </g>
   <g id="line2d_14">
    <path clip-path="url(#p03ed9bd170)" d="M 135.027356 -1 
L 135.43998 5.107236 
L 138.094458 29.841784 
L 140.748936 64.468038 
L 143.403415 93.26906 
L 148.712371 103.790152 
L 151.366849 108.328569 
L 154.021327 115.386547 
L 156.675806 132.374635 
L 159.330284 144.397517 
L 161.984762 157.229553 
L 164.63924 163.443593 
L 167.293718 176.305583 
L 169.948197 183.916109 
L 172.602675 188.43633 
L 175.257153 193.974989 
L 177.911631 193.834882 
L 180.566109 199.72204 
L 183.220588 206.042684 
L 185.875066 214.170714 
L 188.529544 217.151238 
L 191.184022 218.95224 
L 193.8385 222.285199 
L 196.492979 229.272785 
L 199.147457 234.363612 
L 201.801935 235.086763 
L 204.456413 239.188135 
L 207.110891 245.97679 
L 209.76537 250.386724 
L 212.419848 254.513502 
L 215.074326 262.983539 
L 217.728804 271.058325 
L 220.383282 280.399219 
L 223.037761 286.180867 
L 225.692239 292.411289 
L 228.346717 300.683008 
L 231.001195 304.729485 
L 233.655673 305.862287 
L 236.310152 304.724023 
L 238.96463 306.345461 
L 241.619108 306.888983 
L 246.928064 307.49678 
L 249.582543 307.137112 
L 252.237021 306.012035 
L 254.891499 308.105478 
L 257.545977 307.437194 
L 260.200455 307.540033 
L 262.854933 307.765707 
L 265.509412 307.852301 
L 268.16389 308.213668 
L 273.472846 308.468528 
L 276.127324 308.965278 
L 278.781803 308.909263 
L 286.745237 310.079572 
L 289.399715 310.643527 
L 292.054194 310.650409 
L 294.708672 310.275064 
L 297.36315 309.129011 
L 302.672106 305.971097 
L 307.981063 300.509043 
L 313.290019 295.471435 
L 315.944497 294.701833 
L 318.598976 294.504544 
L 321.253454 292.624342 
L 323.907932 291.823575 
L 326.56241 289.446004 
L 329.216888 291.300915 
L 331.871367 292.898166 
L 334.525845 294.093469 
L 337.180323 294.814785 
L 342.489279 299.155358 
L 345.143758 302.900042 
L 350.452714 302.718532 
L 355.76167 301.718586 
L 361.070627 301.645703 
L 363.725105 301.306269 
L 366.379583 300.370157 
L 369.034061 299.835557 
L 371.68854 299.603301 
L 376.997496 299.450198 
L 379.651974 299.542706 
L 382.306452 299.053298 
L 384.960931 299.766823 
L 387.615409 299.536854 
L 390.269887 299.554638 
L 392.924365 299.70013 
L 395.578843 299.969913 
L 398.233321 299.207007 
L 400.8878 300.276292 
L 403.542278 298.9244 
L 408.851234 298.291603 
L 411.505712 296.818162 
L 414.160191 296.215997 
L 416.814669 296.76311 
L 422.123625 297.472566 
L 424.778103 298.226798 
L 427.432582 298.295699 
L 430.08706 299.570457 
L 435.396016 299.360038 
L 440.704973 298.353222 
L 443.359451 297.808112 
L 446.013929 296.974021 
L 448.668407 296.548431 
L 451.322885 296.691483 
L 453.977364 294.853197 
L 456.631842 293.555184 
L 459.28632 293.960696 
L 461.940798 292.650729 
L 464.595276 292.22353 
L 467.249755 290.752279 
L 469.904233 289.685237 
L 472.558711 286.655023 
L 475.213189 283.137644 
L 477.867667 280.924976 
L 480.522146 279.262161 
L 483.176624 277.378026 
L 488.48558 273.040856 
L 491.140058 274.429716 
L 493.794537 276.547535 
L 496.449015 276.218748 
L 499.103493 274.95357 
L 501.757971 275.353955 
L 507.066928 273.389367 
L 509.721406 273.224251 
L 512.375884 270.160475 
L 515.030362 265.825492 
L 517.68484 262.12316 
L 520.339318 256.507625 
L 522.993797 253.245037 
L 525.648275 251.702883 
L 528.302753 248.340026 
L 530.957231 249.511244 
L 533.611709 246.526728 
L 536.266188 244.69181 
L 538.920666 244.981024 
L 541.575144 246.316327 
L 541.575144 246.316327 
" style="fill:none;stroke:#1f77b4;stroke-linecap:square;stroke-width:1.75;"/>
   </g>
   <g id="line2d_15">
    <path clip-path="url(#p03ed9bd170)" d="M 130.098576 -1 
L 132.785502 40.047456 
L 135.43998 84.733323 
L 138.094458 119.686681 
L 140.748936 132.518213 
L 146.057893 159.278883 
L 148.712371 171.619947 
L 151.366849 178.670573 
L 154.021327 185.255369 
L 156.675806 184.413614 
L 159.330284 186.567535 
L 161.984762 190.823729 
L 164.63924 201.41609 
L 167.293718 205.588814 
L 169.948197 213.917663 
L 172.602675 216.730225 
L 175.257153 228.599383 
L 177.911631 238.096362 
L 180.566109 246.347182 
L 183.220588 253.544734 
L 185.875066 260.228327 
L 188.529544 263.437729 
L 191.184022 269.79986 
L 193.8385 271.650004 
L 196.492979 273.639104 
L 199.147457 276.46537 
L 201.801935 278.324922 
L 204.456413 281.019854 
L 207.110891 286.21674 
L 209.76537 286.465884 
L 212.419848 290.200524 
L 215.074326 292.271709 
L 217.728804 290.004811 
L 220.383282 291.550727 
L 223.037761 291.625476 
L 225.692239 292.403527 
L 228.346717 295.920519 
L 231.001195 296.338919 
L 233.655673 296.893845 
L 236.310152 300.603526 
L 238.96463 302.40864 
L 241.619108 305.067788 
L 244.273586 305.161575 
L 246.928064 305.393783 
L 249.582543 304.939998 
L 252.237021 304.096113 
L 254.891499 304.055096 
L 257.545977 303.374226 
L 260.200455 303.747921 
L 262.854933 303.424441 
L 265.509412 302.578535 
L 268.16389 302.098761 
L 270.818368 303.421711 
L 273.472846 303.543286 
L 276.127324 304.50453 
L 278.781803 304.884763 
L 281.436281 305.980407 
L 284.090759 306.948695 
L 286.745237 308.885711 
L 289.399715 309.996075 
L 292.054194 310.20265 
L 297.36315 310.255246 
L 300.017628 310.585949 
L 302.672106 311.129023 
L 305.326585 311.021454 
L 307.981063 311.138207 
L 310.635541 311.916762 
L 315.944497 312.385167 
L 321.253454 313.475831 
L 323.907932 313.781916 
L 329.216888 313.648025 
L 331.871367 313.843036 
L 334.525845 313.454286 
L 337.180323 313.398131 
L 339.834801 313.184323 
L 345.143758 312.936832 
L 347.798236 311.703547 
L 350.452714 311.58038 
L 355.76167 311.604182 
L 358.416149 311.372986 
L 361.070627 311.975695 
L 363.725105 312.393675 
L 366.379583 313.632484 
L 369.034061 313.105669 
L 371.68854 313.145326 
L 374.343018 312.840715 
L 376.997496 313.112863 
L 379.651974 311.737708 
L 382.306452 310.909605 
L 387.615409 308.240852 
L 390.269887 307.057116 
L 392.924365 306.52565 
L 395.578843 305.312994 
L 400.8878 305.205573 
L 403.542278 304.579201 
L 406.196756 305.190308 
L 408.851234 305.353576 
L 411.505712 304.773012 
L 414.160191 305.092165 
L 419.469147 305.25118 
L 422.123625 305.740694 
L 427.432582 305.096427 
L 430.08706 305.101013 
L 432.741538 303.10565 
L 435.396016 302.843678 
L 438.050494 301.701696 
L 448.668407 304.373191 
L 451.322885 306.020815 
L 453.977364 305.948094 
L 456.631842 305.627989 
L 459.28632 303.780355 
L 461.940798 302.662752 
L 464.595276 301.789433 
L 467.249755 299.53439 
L 469.904233 297.522352 
L 472.558711 294.747882 
L 475.213189 292.311484 
L 477.867667 291.524438 
L 480.522146 289.304696 
L 483.176624 287.420515 
L 485.831102 285.320798 
L 488.48558 284.042238 
L 491.140058 283.198535 
L 493.794537 285.815129 
L 496.449015 283.052833 
L 499.103493 278.936202 
L 501.757971 276.393414 
L 504.412449 277.235815 
L 507.066928 276.234452 
L 509.721406 274.942913 
L 515.030362 262.477366 
L 517.68484 254.354855 
L 520.339318 248.283783 
L 522.993797 239.33123 
L 525.648275 228.474391 
L 528.302753 227.265554 
L 530.957231 228.764497 
L 533.611709 216.001298 
L 536.266188 215.876898 
L 538.920666 209.09051 
L 541.575144 204.863059 
L 541.575144 204.863059 
" style="fill:none;stroke:#ff7f0e;stroke-linecap:square;stroke-width:1.75;"/>
   </g>
   <g id="line2d_16">
    <path clip-path="url(#p03ed9bd170)" d="M 161.579005 -1 
L 161.984762 3.717478 
L 164.63924 5.996607 
L 167.293718 3.837945 
L 169.948197 22.621405 
L 172.602675 21.333571 
L 175.257153 28.627317 
L 177.911631 46.042446 
L 180.566109 46.574064 
L 183.220588 68.130904 
L 185.875066 71.604918 
L 188.529544 76.468319 
L 191.184022 86.887589 
L 193.8385 101.475482 
L 196.492979 108.877166 
L 199.147457 125.518445 
L 201.801935 136.413936 
L 204.456413 154.534736 
L 207.110891 170.986728 
L 209.76537 191.594483 
L 212.419848 204.55637 
L 215.074326 210.515232 
L 217.728804 218.650087 
L 220.383282 222.709239 
L 223.037761 236.310125 
L 225.692239 241.238081 
L 228.346717 250.528812 
L 231.001195 257.178717 
L 233.655673 260.144056 
L 236.310152 265.680502 
L 238.96463 275.041208 
L 241.619108 272.763339 
L 244.273586 274.570331 
L 246.928064 275.352735 
L 249.582543 274.388962 
L 252.237021 271.437681 
L 254.891499 268.097879 
L 257.545977 261.471987 
L 260.200455 260.568191 
L 262.854933 264.600299 
L 265.509412 258.659124 
L 268.16389 252.412359 
L 270.818368 249.89358 
L 273.472846 252.321315 
L 276.127324 256.405722 
L 278.781803 248.435214 
L 281.436281 243.712981 
L 284.090759 248.549469 
L 286.745237 257.118985 
L 289.399715 253.54768 
L 292.054194 256.830718 
L 294.708672 259.438929 
L 297.36315 268.578751 
L 300.017628 272.873272 
L 305.326585 275.058144 
L 307.981063 288.344038 
L 310.635541 291.307007 
L 313.290019 294.540396 
L 315.944497 299.2429 
L 321.253454 306.196212 
L 326.56241 305.262693 
L 329.216888 303.538109 
L 331.871367 303.143811 
L 334.525845 304.297206 
L 337.180323 303.927048 
L 339.834801 303.80742 
L 342.489279 301.775254 
L 345.143758 302.419408 
L 347.798236 302.690518 
L 350.452714 300.842737 
L 353.107192 298.342544 
L 355.76167 297.22999 
L 358.416149 296.534995 
L 361.070627 299.542042 
L 363.725105 297.976394 
L 369.034061 298.042124 
L 371.68854 301.495047 
L 376.997496 303.653754 
L 379.651974 302.732644 
L 382.306452 303.824224 
L 384.960931 303.605804 
L 387.615409 305.972453 
L 390.269887 305.200738 
L 392.924365 305.758788 
L 395.578843 305.387069 
L 400.8878 306.647473 
L 403.542278 307.909214 
L 406.196756 308.643363 
L 411.505712 308.770294 
L 414.160191 308.246541 
L 416.814669 308.778898 
L 419.469147 308.684636 
L 422.123625 307.557207 
L 424.778103 306.641968 
L 427.432582 306.110238 
L 430.08706 304.308122 
L 432.741538 303.454426 
L 435.396016 302.908028 
L 438.050494 302.133422 
L 440.704973 301.956639 
L 443.359451 300.543869 
L 446.013929 299.739441 
L 448.668407 299.91523 
L 451.322885 299.43227 
L 453.977364 297.525328 
L 456.631842 295.473237 
L 459.28632 293.008675 
L 461.940798 293.309374 
L 464.595276 292.613081 
L 467.249755 292.514515 
L 469.904233 290.933204 
L 472.558711 288.259949 
L 475.213189 282.547489 
L 477.867667 278.348458 
L 480.522146 273.803951 
L 483.176624 271.875355 
L 485.831102 268.674054 
L 488.48558 266.973349 
L 491.140058 267.226381 
L 493.794537 268.987861 
L 496.449015 271.884759 
L 499.103493 270.614923 
L 501.757971 268.930079 
L 504.412449 268.119939 
L 507.066928 265.687168 
L 509.721406 262.283343 
L 512.375884 260.04941 
L 515.030362 253.917169 
L 517.68484 245.538889 
L 520.339318 239.576134 
L 522.993797 234.472479 
L 525.648275 229.866892 
L 528.302753 226.477003 
L 530.957231 225.435366 
L 533.611709 221.878142 
L 536.266188 218.092355 
L 538.920666 213.120496 
L 541.575144 205.243079 
L 541.575144 205.243079 
" style="fill:none;stroke:#2ca02c;stroke-linecap:square;stroke-width:1.75;"/>
   </g>
   <g id="line2d_17">
    <path clip-path="url(#p03ed9bd170)" d="M 125.712391 -1 
L 127.476546 41.010977 
L 130.131024 78.15175 
L 132.785502 108.061027 
L 135.43998 125.521764 
L 138.094458 137.543755 
L 140.748936 152.092863 
L 143.403415 159.522082 
L 148.712371 171.864734 
L 151.366849 189.081394 
L 154.021327 193.700928 
L 156.675806 206.608931 
L 159.330284 217.200366 
L 161.984762 213.925245 
L 164.63924 212.958677 
L 167.293718 217.015925 
L 169.948197 219.451346 
L 175.257153 229.123927 
L 177.911631 233.05445 
L 180.566109 243.9331 
L 183.220588 256.124426 
L 185.875066 256.074488 
L 188.529544 256.95306 
L 191.184022 256.840723 
L 193.8385 258.420794 
L 196.492979 250.69448 
L 199.147457 246.827945 
L 201.801935 243.795354 
L 204.456413 250.284084 
L 207.110891 251.832544 
L 209.76537 258.691319 
L 212.419848 263.905401 
L 217.728804 284.968383 
L 220.383282 291.082774 
L 223.037761 288.480298 
L 225.692239 292.881302 
L 228.346717 293.423844 
L 231.001195 293.632536 
L 233.655673 296.107433 
L 236.310152 296.863191 
L 238.96463 295.089292 
L 241.619108 301.470658 
L 244.273586 297.31804 
L 246.928064 300.17431 
L 249.582543 299.869144 
L 252.237021 300.077894 
L 254.891499 300.445213 
L 257.545977 302.465778 
L 260.200455 303.163479 
L 262.854933 307.1481 
L 268.16389 309.030801 
L 270.818368 310.078604 
L 273.472846 310.948387 
L 276.127324 312.618446 
L 278.781803 312.60662 
L 281.436281 312.152505 
L 284.090759 311.299741 
L 286.745237 312.373324 
L 289.399715 309.424634 
L 292.054194 307.401751 
L 294.708672 307.68895 
L 297.36315 305.571917 
L 300.017628 305.923876 
M 419.469147 289.126511 
L 422.123625 290.559007 
L 424.778103 289.361811 
L 427.432582 286.803247 
L 430.08706 289.887408 
L 432.741538 289.36754 
L 435.396016 284.899601 
L 438.050494 288.318969 
L 440.704973 286.955571 
L 446.013929 286.84891 
L 448.668407 283.674756 
L 451.322885 282.248068 
L 453.977364 284.507122 
L 456.631842 281.071956 
L 459.28632 282.180727 
L 461.940798 281.974848 
L 464.595276 282.089704 
L 467.249755 283.688261 
L 469.904233 282.364831 
L 472.558711 277.824601 
L 475.213189 274.325706 
L 477.867667 273.168369 
L 483.176624 273.675432 
L 485.831102 273.165978 
L 488.48558 275.880201 
L 491.140058 278.829881 
L 493.794537 278.991707 
L 496.449015 277.375818 
L 499.103493 274.044942 
L 501.757971 268.565276 
L 504.412449 262.672124 
L 507.066928 257.632731 
L 509.721406 250.766125 
L 512.375884 250.935956 
L 515.030362 251.464864 
L 517.68484 248.058033 
L 520.339318 244.84979 
L 522.993797 239.964453 
L 525.648275 234.794384 
L 528.302753 231.05416 
L 530.957231 223.158934 
L 533.611709 205.158947 
L 536.266188 194.3439 
L 538.920666 189.06441 
L 541.575144 159.773069 
L 541.575144 159.773069 
" style="fill:none;stroke:#d62728;stroke-linecap:square;stroke-width:1.75;"/>
   </g>
   <g id="patch_3">
    <path d="M 45.453169 331.102246 
L 45.453169 26.8 
" style="fill:none;stroke:#000000;stroke-linecap:square;stroke-linejoin:miter;stroke-width:0.8;"/>
   </g>
   <g id="patch_4">
    <path d="M 565.2 331.102246 
L 565.2 26.8 
" style="fill:none;stroke:#000000;stroke-linecap:square;stroke-linejoin:miter;stroke-width:0.8;"/>
   </g>
   <g id="patch_5">
    <path d="M 45.453169 331.102246 
L 565.2 331.102246 
" style="fill:none;stroke:#000000;stroke-linecap:square;stroke-linejoin:miter;stroke-width:0.8;"/>
   </g>
   <g id="patch_6">
    <path d="M 45.453169 26.8 
L 565.2 26.8 
" style="fill:none;stroke:#000000;stroke-linecap:square;stroke-linejoin:miter;stroke-width:0.8;"/>
   </g>
   <g id="text_15">
    <!-- Positivity rate (7 day rolling) -->
    <defs>
     <path d="M 19.671875 64.796875 
L 19.671875 37.40625 
L 32.078125 37.40625 
Q 38.96875 37.40625 42.71875 40.96875 
Q 46.484375 44.53125 46.484375 51.125 
Q 46.484375 57.671875 42.71875 61.234375 
Q 38.96875 64.796875 32.078125 64.796875 
z
M 9.8125 72.90625 
L 32.078125 72.90625 
Q 44.34375 72.90625 50.609375 67.359375 
Q 56.890625 61.8125 56.890625 51.125 
Q 56.890625 40.328125 50.609375 34.8125 
Q 44.34375 29.296875 32.078125 29.296875 
L 19.671875 29.296875 
L 19.671875 0 
L 9.8125 0 
z
" id="DejaVuSans-80"/>
     <path d="M 30.609375 48.390625 
Q 23.390625 48.390625 19.1875 42.75 
Q 14.984375 37.109375 14.984375 27.296875 
Q 14.984375 17.484375 19.15625 11.84375 
Q 23.34375 6.203125 30.609375 6.203125 
Q 37.796875 6.203125 41.984375 11.859375 
Q 46.1875 17.53125 46.1875 27.296875 
Q 46.1875 37.015625 41.984375 42.703125 
Q 37.796875 48.390625 30.609375 48.390625 
z
M 30.609375 56 
Q 42.328125 56 49.015625 48.375 
Q 55.71875 40.765625 55.71875 27.296875 
Q 55.71875 13.875 49.015625 6.21875 
Q 42.328125 -1.421875 30.609375 -1.421875 
Q 18.84375 -1.421875 12.171875 6.21875 
Q 5.515625 13.875 5.515625 27.296875 
Q 5.515625 40.765625 12.171875 48.375 
Q 18.84375 56 30.609375 56 
z
" id="DejaVuSans-111"/>
     <path d="M 44.28125 53.078125 
L 44.28125 44.578125 
Q 40.484375 46.53125 36.375 47.5 
Q 32.28125 48.484375 27.875 48.484375 
Q 21.1875 48.484375 17.84375 46.4375 
Q 14.5 44.390625 14.5 40.28125 
Q 14.5 37.15625 16.890625 35.375 
Q 19.28125 33.59375 26.515625 31.984375 
L 29.59375 31.296875 
Q 39.15625 29.25 43.1875 25.515625 
Q 47.21875 21.78125 47.21875 15.09375 
Q 47.21875 7.46875 41.1875 3.015625 
Q 35.15625 -1.421875 24.609375 -1.421875 
Q 20.21875 -1.421875 15.453125 -0.5625 
Q 10.6875 0.296875 5.421875 2 
L 5.421875 11.28125 
Q 10.40625 8.6875 15.234375 7.390625 
Q 20.0625 6.109375 24.8125 6.109375 
Q 31.15625 6.109375 34.5625 8.28125 
Q 37.984375 10.453125 37.984375 14.40625 
Q 37.984375 18.0625 35.515625 20.015625 
Q 33.0625 21.96875 24.703125 23.78125 
L 21.578125 24.515625 
Q 13.234375 26.265625 9.515625 29.90625 
Q 5.8125 33.546875 5.8125 39.890625 
Q 5.8125 47.609375 11.28125 51.796875 
Q 16.75 56 26.8125 56 
Q 31.78125 56 36.171875 55.265625 
Q 40.578125 54.546875 44.28125 53.078125 
z
" id="DejaVuSans-115"/>
     <path d="M 9.421875 54.6875 
L 18.40625 54.6875 
L 18.40625 0 
L 9.421875 0 
z
M 9.421875 75.984375 
L 18.40625 75.984375 
L 18.40625 64.59375 
L 9.421875 64.59375 
z
" id="DejaVuSans-105"/>
     <path d="M 2.984375 54.6875 
L 12.5 54.6875 
L 29.59375 8.796875 
L 46.6875 54.6875 
L 56.203125 54.6875 
L 35.6875 0 
L 23.484375 0 
z
" id="DejaVuSans-118"/>
     <path d="M 32.171875 -5.078125 
Q 28.375 -14.84375 24.75 -17.8125 
Q 21.140625 -20.796875 15.09375 -20.796875 
L 7.90625 -20.796875 
L 7.90625 -13.28125 
L 13.1875 -13.28125 
Q 16.890625 -13.28125 18.9375 -11.515625 
Q 21 -9.765625 23.484375 -3.21875 
L 25.09375 0.875 
L 2.984375 54.6875 
L 12.5 54.6875 
L 29.59375 11.921875 
L 46.6875 54.6875 
L 56.203125 54.6875 
z
" id="DejaVuSans-121"/>
     <path id="DejaVuSans-32"/>
     <path d="M 41.109375 46.296875 
Q 39.59375 47.171875 37.8125 47.578125 
Q 36.03125 48 33.890625 48 
Q 26.265625 48 22.1875 43.046875 
Q 18.109375 38.09375 18.109375 28.8125 
L 18.109375 0 
L 9.078125 0 
L 9.078125 54.6875 
L 18.109375 54.6875 
L 18.109375 46.1875 
Q 20.953125 51.171875 25.484375 53.578125 
Q 30.03125 56 36.53125 56 
Q 37.453125 56 38.578125 55.875 
Q 39.703125 55.765625 41.0625 55.515625 
z
" id="DejaVuSans-114"/>
     <path d="M 31 75.875 
Q 24.46875 64.65625 21.28125 53.65625 
Q 18.109375 42.671875 18.109375 31.390625 
Q 18.109375 20.125 21.3125 9.0625 
Q 24.515625 -2 31 -13.1875 
L 23.1875 -13.1875 
Q 15.875 -1.703125 12.234375 9.375 
Q 8.59375 20.453125 8.59375 31.390625 
Q 8.59375 42.28125 12.203125 53.3125 
Q 15.828125 64.359375 23.1875 75.875 
z
" id="DejaVuSans-40"/>
     <path d="M 45.40625 46.390625 
L 45.40625 75.984375 
L 54.390625 75.984375 
L 54.390625 0 
L 45.40625 0 
L 45.40625 8.203125 
Q 42.578125 3.328125 38.25 0.953125 
Q 33.9375 -1.421875 27.875 -1.421875 
Q 17.96875 -1.421875 11.734375 6.484375 
Q 5.515625 14.40625 5.515625 27.296875 
Q 5.515625 40.1875 11.734375 48.09375 
Q 17.96875 56 27.875 56 
Q 33.9375 56 38.25 53.625 
Q 42.578125 51.265625 45.40625 46.390625 
z
M 14.796875 27.296875 
Q 14.796875 17.390625 18.875 11.75 
Q 22.953125 6.109375 30.078125 6.109375 
Q 37.203125 6.109375 41.296875 11.75 
Q 45.40625 17.390625 45.40625 27.296875 
Q 45.40625 37.203125 41.296875 42.84375 
Q 37.203125 48.484375 30.078125 48.484375 
Q 22.953125 48.484375 18.875 42.84375 
Q 14.796875 37.203125 14.796875 27.296875 
z
" id="DejaVuSans-100"/>
     <path d="M 9.421875 75.984375 
L 18.40625 75.984375 
L 18.40625 0 
L 9.421875 0 
z
" id="DejaVuSans-108"/>
     <path d="M 54.890625 33.015625 
L 54.890625 0 
L 45.90625 0 
L 45.90625 32.71875 
Q 45.90625 40.484375 42.875 44.328125 
Q 39.84375 48.1875 33.796875 48.1875 
Q 26.515625 48.1875 22.3125 43.546875 
Q 18.109375 38.921875 18.109375 30.90625 
L 18.109375 0 
L 9.078125 0 
L 9.078125 54.6875 
L 18.109375 54.6875 
L 18.109375 46.1875 
Q 21.34375 51.125 25.703125 53.5625 
Q 30.078125 56 35.796875 56 
Q 45.21875 56 50.046875 50.171875 
Q 54.890625 44.34375 54.890625 33.015625 
z
" id="DejaVuSans-110"/>
     <path d="M 45.40625 27.984375 
Q 45.40625 37.75 41.375 43.109375 
Q 37.359375 48.484375 30.078125 48.484375 
Q 22.859375 48.484375 18.828125 43.109375 
Q 14.796875 37.75 14.796875 27.984375 
Q 14.796875 18.265625 18.828125 12.890625 
Q 22.859375 7.515625 30.078125 7.515625 
Q 37.359375 7.515625 41.375 12.890625 
Q 45.40625 18.265625 45.40625 27.984375 
z
M 54.390625 6.78125 
Q 54.390625 -7.171875 48.1875 -13.984375 
Q 42 -20.796875 29.203125 -20.796875 
Q 24.46875 -20.796875 20.265625 -20.09375 
Q 16.0625 -19.390625 12.109375 -17.921875 
L 12.109375 -9.1875 
Q 16.0625 -11.328125 19.921875 -12.34375 
Q 23.78125 -13.375 27.78125 -13.375 
Q 36.625 -13.375 41.015625 -8.765625 
Q 45.40625 -4.15625 45.40625 5.171875 
L 45.40625 9.625 
Q 42.625 4.78125 38.28125 2.390625 
Q 33.9375 0 27.875 0 
Q 17.828125 0 11.671875 7.65625 
Q 5.515625 15.328125 5.515625 27.984375 
Q 5.515625 40.671875 11.671875 48.328125 
Q 17.828125 56 27.875 56 
Q 33.9375 56 38.28125 53.609375 
Q 42.625 51.21875 45.40625 46.390625 
L 45.40625 54.6875 
L 54.390625 54.6875 
z
" id="DejaVuSans-103"/>
     <path d="M 8.015625 75.875 
L 15.828125 75.875 
Q 23.140625 64.359375 26.78125 53.3125 
Q 30.421875 42.28125 30.421875 31.390625 
Q 30.421875 20.453125 26.78125 9.375 
Q 23.140625 -1.703125 15.828125 -13.1875 
L 8.015625 -13.1875 
Q 14.5 -2 17.703125 9.0625 
Q 20.90625 20.125 20.90625 31.390625 
Q 20.90625 42.671875 17.703125 53.65625 
Q 14.5 64.65625 8.015625 75.875 
z
" id="DejaVuSans-41"/>
    </defs>
    <g transform="translate(220.355335 20.8)scale(0.12 -0.12)">
     <use xlink:href="#DejaVuSans-80"/>
     <use x="56.677734" xlink:href="#DejaVuSans-111"/>
     <use x="117.859375" xlink:href="#DejaVuSans-115"/>
     <use x="169.958984" xlink:href="#DejaVuSans-105"/>
     <use x="197.742188" xlink:href="#DejaVuSans-116"/>
     <use x="236.951172" xlink:href="#DejaVuSans-105"/>
     <use x="264.734375" xlink:href="#DejaVuSans-118"/>
     <use x="323.914062" xlink:href="#DejaVuSans-105"/>
     <use x="351.697266" xlink:href="#DejaVuSans-116"/>
     <use x="390.90625" xlink:href="#DejaVuSans-121"/>
     <use x="450.085938" xlink:href="#DejaVuSans-32"/>
     <use x="481.873047" xlink:href="#DejaVuSans-114"/>
     <use x="522.986328" xlink:href="#DejaVuSans-97"/>
     <use x="584.265625" xlink:href="#DejaVuSans-116"/>
     <use x="623.474609" xlink:href="#DejaVuSans-101"/>
     <use x="684.998047" xlink:href="#DejaVuSans-32"/>
     <use x="716.785156" xlink:href="#DejaVuSans-40"/>
     <use x="755.798828" xlink:href="#DejaVuSans-55"/>
     <use x="819.421875" xlink:href="#DejaVuSans-32"/>
     <use x="851.208984" xlink:href="#DejaVuSans-100"/>
     <use x="914.685547" xlink:href="#DejaVuSans-97"/>
     <use x="975.964844" xlink:href="#DejaVuSans-121"/>
     <use x="1035.144531" xlink:href="#DejaVuSans-32"/>
     <use x="1066.931641" xlink:href="#DejaVuSans-114"/>
     <use x="1105.794922" xlink:href="#DejaVuSans-111"/>
     <use x="1166.976562" xlink:href="#DejaVuSans-108"/>
     <use x="1194.759766" xlink:href="#DejaVuSans-108"/>
     <use x="1222.542969" xlink:href="#DejaVuSans-105"/>
     <use x="1250.326172" xlink:href="#DejaVuSans-110"/>
     <use x="1313.705078" xlink:href="#DejaVuSans-103"/>
     <use x="1377.181641" xlink:href="#DejaVuSans-41"/>
    </g>
   </g>
   <g id="legend_1">
    <g id="patch_7">
     <path d="M 444.045312 93.5125 
L 558.2 93.5125 
Q 560.2 93.5125 560.2 91.5125 
L 560.2 33.8 
Q 560.2 31.8 558.2 31.8 
L 444.045312 31.8 
Q 442.045312 31.8 442.045312 33.8 
L 442.045312 91.5125 
Q 442.045312 93.5125 444.045312 93.5125 
z
" style="fill:#ffffff;opacity:0.8;stroke:#cccccc;stroke-linejoin:miter;stroke-width:0.3;"/>
    </g>
    <g id="line2d_18">
     <path d="M 446.045312 39.898438 
L 466.045312 39.898438 
" style="fill:none;stroke:#1f77b4;stroke-linecap:square;stroke-width:1.75;"/>
    </g>
    <g id="line2d_19"/>
    <g id="text_16">
     <!-- England -->
     <defs>
      <path d="M 9.8125 72.90625 
L 55.90625 72.90625 
L 55.90625 64.59375 
L 19.671875 64.59375 
L 19.671875 43.015625 
L 54.390625 43.015625 
L 54.390625 34.71875 
L 19.671875 34.71875 
L 19.671875 8.296875 
L 56.78125 8.296875 
L 56.78125 0 
L 9.8125 0 
z
" id="DejaVuSans-69"/>
     </defs>
     <g transform="translate(474.045312 43.398438)scale(0.1 -0.1)">
      <use xlink:href="#DejaVuSans-69"/>
      <use x="63.183594" xlink:href="#DejaVuSans-110"/>
      <use x="126.5625" xlink:href="#DejaVuSans-103"/>
      <use x="190.039062" xlink:href="#DejaVuSans-108"/>
      <use x="217.822266" xlink:href="#DejaVuSans-97"/>
      <use x="279.101562" xlink:href="#DejaVuSans-110"/>
      <use x="342.480469" xlink:href="#DejaVuSans-100"/>
     </g>
    </g>
    <g id="line2d_20">
     <path d="M 446.045312 54.576563 
L 466.045312 54.576563 
" style="fill:none;stroke:#ff7f0e;stroke-linecap:square;stroke-width:1.75;"/>
    </g>
    <g id="line2d_21"/>
    <g id="text_17">
     <!-- Scotland -->
     <defs>
      <path d="M 53.515625 70.515625 
L 53.515625 60.890625 
Q 47.90625 63.578125 42.921875 64.890625 
Q 37.9375 66.21875 33.296875 66.21875 
Q 25.25 66.21875 20.875 63.09375 
Q 16.5 59.96875 16.5 54.203125 
Q 16.5 49.359375 19.40625 46.890625 
Q 22.3125 44.4375 30.421875 42.921875 
L 36.375 41.703125 
Q 47.40625 39.59375 52.65625 34.296875 
Q 57.90625 29 57.90625 20.125 
Q 57.90625 9.515625 50.796875 4.046875 
Q 43.703125 -1.421875 29.984375 -1.421875 
Q 24.8125 -1.421875 18.96875 -0.25 
Q 13.140625 0.921875 6.890625 3.21875 
L 6.890625 13.375 
Q 12.890625 10.015625 18.65625 8.296875 
Q 24.421875 6.59375 29.984375 6.59375 
Q 38.421875 6.59375 43.015625 9.90625 
Q 47.609375 13.234375 47.609375 19.390625 
Q 47.609375 24.75 44.3125 27.78125 
Q 41.015625 30.8125 33.5 32.328125 
L 27.484375 33.5 
Q 16.453125 35.6875 11.515625 40.375 
Q 6.59375 45.0625 6.59375 53.421875 
Q 6.59375 63.09375 13.40625 68.65625 
Q 20.21875 74.21875 32.171875 74.21875 
Q 37.3125 74.21875 42.625 73.28125 
Q 47.953125 72.359375 53.515625 70.515625 
z
" id="DejaVuSans-83"/>
      <path d="M 48.78125 52.59375 
L 48.78125 44.1875 
Q 44.96875 46.296875 41.140625 47.34375 
Q 37.3125 48.390625 33.40625 48.390625 
Q 24.65625 48.390625 19.8125 42.84375 
Q 14.984375 37.3125 14.984375 27.296875 
Q 14.984375 17.28125 19.8125 11.734375 
Q 24.65625 6.203125 33.40625 6.203125 
Q 37.3125 6.203125 41.140625 7.25 
Q 44.96875 8.296875 48.78125 10.40625 
L 48.78125 2.09375 
Q 45.015625 0.34375 40.984375 -0.53125 
Q 36.96875 -1.421875 32.421875 -1.421875 
Q 20.0625 -1.421875 12.78125 6.34375 
Q 5.515625 14.109375 5.515625 27.296875 
Q 5.515625 40.671875 12.859375 48.328125 
Q 20.21875 56 33.015625 56 
Q 37.15625 56 41.109375 55.140625 
Q 45.0625 54.296875 48.78125 52.59375 
z
" id="DejaVuSans-99"/>
     </defs>
     <g transform="translate(474.045312 58.076563)scale(0.1 -0.1)">
      <use xlink:href="#DejaVuSans-83"/>
      <use x="63.476562" xlink:href="#DejaVuSans-99"/>
      <use x="118.457031" xlink:href="#DejaVuSans-111"/>
      <use x="179.638672" xlink:href="#DejaVuSans-116"/>
      <use x="218.847656" xlink:href="#DejaVuSans-108"/>
      <use x="246.630859" xlink:href="#DejaVuSans-97"/>
      <use x="307.910156" xlink:href="#DejaVuSans-110"/>
      <use x="371.289062" xlink:href="#DejaVuSans-100"/>
     </g>
    </g>
    <g id="line2d_22">
     <path d="M 446.045312 69.254688 
L 466.045312 69.254688 
" style="fill:none;stroke:#2ca02c;stroke-linecap:square;stroke-width:1.75;"/>
    </g>
    <g id="line2d_23"/>
    <g id="text_18">
     <!-- Wales -->
     <defs>
      <path d="M 3.328125 72.90625 
L 13.28125 72.90625 
L 28.609375 11.28125 
L 43.890625 72.90625 
L 54.984375 72.90625 
L 70.3125 11.28125 
L 85.59375 72.90625 
L 95.609375 72.90625 
L 77.296875 0 
L 64.890625 0 
L 49.515625 63.28125 
L 33.984375 0 
L 21.578125 0 
z
" id="DejaVuSans-87"/>
     </defs>
     <g transform="translate(474.045312 72.754688)scale(0.1 -0.1)">
      <use xlink:href="#DejaVuSans-87"/>
      <use x="92.501953" xlink:href="#DejaVuSans-97"/>
      <use x="153.78125" xlink:href="#DejaVuSans-108"/>
      <use x="181.564453" xlink:href="#DejaVuSans-101"/>
      <use x="243.087891" xlink:href="#DejaVuSans-115"/>
     </g>
    </g>
    <g id="line2d_24">
     <path d="M 446.045312 83.932813 
L 466.045312 83.932813 
" style="fill:none;stroke:#d62728;stroke-linecap:square;stroke-width:1.75;"/>
    </g>
    <g id="line2d_25"/>
    <g id="text_19">
     <!-- Northern Ireland -->
     <defs>
      <path d="M 9.8125 72.90625 
L 23.09375 72.90625 
L 55.421875 11.921875 
L 55.421875 72.90625 
L 64.984375 72.90625 
L 64.984375 0 
L 51.703125 0 
L 19.390625 60.984375 
L 19.390625 0 
L 9.8125 0 
z
" id="DejaVuSans-78"/>
      <path d="M 54.890625 33.015625 
L 54.890625 0 
L 45.90625 0 
L 45.90625 32.71875 
Q 45.90625 40.484375 42.875 44.328125 
Q 39.84375 48.1875 33.796875 48.1875 
Q 26.515625 48.1875 22.3125 43.546875 
Q 18.109375 38.921875 18.109375 30.90625 
L 18.109375 0 
L 9.078125 0 
L 9.078125 75.984375 
L 18.109375 75.984375 
L 18.109375 46.1875 
Q 21.34375 51.125 25.703125 53.5625 
Q 30.078125 56 35.796875 56 
Q 45.21875 56 50.046875 50.171875 
Q 54.890625 44.34375 54.890625 33.015625 
z
" id="DejaVuSans-104"/>
      <path d="M 9.8125 72.90625 
L 19.671875 72.90625 
L 19.671875 0 
L 9.8125 0 
z
" id="DejaVuSans-73"/>
     </defs>
     <g transform="translate(474.045312 87.432813)scale(0.1 -0.1)">
      <use xlink:href="#DejaVuSans-78"/>
      <use x="74.804688" xlink:href="#DejaVuSans-111"/>
      <use x="135.986328" xlink:href="#DejaVuSans-114"/>
      <use x="177.099609" xlink:href="#DejaVuSans-116"/>
      <use x="216.308594" xlink:href="#DejaVuSans-104"/>
      <use x="279.6875" xlink:href="#DejaVuSans-101"/>
      <use x="341.210938" xlink:href="#DejaVuSans-114"/>
      <use x="380.574219" xlink:href="#DejaVuSans-110"/>
      <use x="443.953125" xlink:href="#DejaVuSans-32"/>
      <use x="475.740234" xlink:href="#DejaVuSans-73"/>
      <use x="505.232422" xlink:href="#DejaVuSans-114"/>
      <use x="544.095703" xlink:href="#DejaVuSans-101"/>
      <use x="605.619141" xlink:href="#DejaVuSans-108"/>
      <use x="633.402344" xlink:href="#DejaVuSans-97"/>
      <use x="694.681641" xlink:href="#DejaVuSans-110"/>
      <use x="758.060547" xlink:href="#DejaVuSans-100"/>
     </g>
    </g>
   </g>
  </g>
 </g>
 <defs>
  <clipPath id="p03ed9bd170">
   <rect height="304.302246" width="519.746831" x="45.453169" y="26.8"/>
  </clipPath>
 </defs>
</svg>
