<?xml version="1.0" encoding="utf-8" standalone="no"?>
<!DOCTYPE svg PUBLIC "-//W3C//DTD SVG 1.1//EN"
  "http://www.w3.org/Graphics/SVG/1.1/DTD/svg11.dtd">
<!-- Created with matplotlib (https://matplotlib.org/) -->
<svg height="396pt" version="1.1" viewBox="0 0 576 396" width="576pt" xmlns="http://www.w3.org/2000/svg" xmlns:xlink="http://www.w3.org/1999/xlink">
 <defs>
  <style type="text/css">
*{stroke-linecap:butt;stroke-linejoin:round;}
  </style>
 </defs>
 <g id="figure_1">
  <g id="patch_1">
   <path d="M 0 396 
L 576 396 
L 576 0 
L 0 0 
z
" style="fill:#ffffff;"/>
  </g>
  <g id="axes_1">
   <g id="patch_2">
    <path d="M 72 346.5 
L 518.4 346.5 
L 518.4 47.52 
L 72 47.52 
z
" style="fill:#ffffff;"/>
   </g>
   <g id="matplotlib.axis_1">
    <g id="xtick_1">
     <g id="line2d_1">
      <defs>
       <path d="M 0 0 
L 0 3.5 
" id="m827e5a156e" style="stroke:#000000;"/>
      </defs>
      <g>
       <use style="stroke:#000000;" x="80.503659" xlink:href="#m827e5a156e" y="346.5"/>
      </g>
     </g>
     <g id="text_1">
      <!-- 2020-02 -->
      <defs>
       <path d="M 19.1875 8.296875 
L 53.609375 8.296875 
L 53.609375 0 
L 7.328125 0 
L 7.328125 8.296875 
Q 12.9375 14.109375 22.625 23.890625 
Q 32.328125 33.6875 34.8125 36.53125 
Q 39.546875 41.84375 41.421875 45.53125 
Q 43.3125 49.21875 43.3125 52.78125 
Q 43.3125 58.59375 39.234375 62.25 
Q 35.15625 65.921875 28.609375 65.921875 
Q 23.96875 65.921875 18.8125 64.3125 
Q 13.671875 62.703125 7.8125 59.421875 
L 7.8125 69.390625 
Q 13.765625 71.78125 18.9375 73 
Q 24.125 74.21875 28.421875 74.21875 
Q 39.75 74.21875 46.484375 68.546875 
Q 53.21875 62.890625 53.21875 53.421875 
Q 53.21875 48.921875 51.53125 44.890625 
Q 49.859375 40.875 45.40625 35.40625 
Q 44.1875 33.984375 37.640625 27.21875 
Q 31.109375 20.453125 19.1875 8.296875 
z
" id="DejaVuSans-50"/>
       <path d="M 31.78125 66.40625 
Q 24.171875 66.40625 20.328125 58.90625 
Q 16.5 51.421875 16.5 36.375 
Q 16.5 21.390625 20.328125 13.890625 
Q 24.171875 6.390625 31.78125 6.390625 
Q 39.453125 6.390625 43.28125 13.890625 
Q 47.125 21.390625 47.125 36.375 
Q 47.125 51.421875 43.28125 58.90625 
Q 39.453125 66.40625 31.78125 66.40625 
z
M 31.78125 74.21875 
Q 44.046875 74.21875 50.515625 64.515625 
Q 56.984375 54.828125 56.984375 36.375 
Q 56.984375 17.96875 50.515625 8.265625 
Q 44.046875 -1.421875 31.78125 -1.421875 
Q 19.53125 -1.421875 13.0625 8.265625 
Q 6.59375 17.96875 6.59375 36.375 
Q 6.59375 54.828125 13.0625 64.515625 
Q 19.53125 74.21875 31.78125 74.21875 
z
" id="DejaVuSans-48"/>
       <path d="M 4.890625 31.390625 
L 31.203125 31.390625 
L 31.203125 23.390625 
L 4.890625 23.390625 
z
" id="DejaVuSans-45"/>
      </defs>
      <g transform="translate(43.278838 384.471846)rotate(-30)scale(0.1 -0.1)">
       <use xlink:href="#DejaVuSans-50"/>
       <use x="63.623047" xlink:href="#DejaVuSans-48"/>
       <use x="127.246094" xlink:href="#DejaVuSans-50"/>
       <use x="190.869141" xlink:href="#DejaVuSans-48"/>
       <use x="254.492188" xlink:href="#DejaVuSans-45"/>
       <use x="290.576172" xlink:href="#DejaVuSans-48"/>
       <use x="354.199219" xlink:href="#DejaVuSans-50"/>
      </g>
     </g>
    </g>
    <g id="xtick_2">
     <g id="line2d_2">
      <g>
       <use style="stroke:#000000;" x="129.336552" xlink:href="#m827e5a156e" y="346.5"/>
      </g>
     </g>
     <g id="text_2">
      <!-- 2020-03 -->
      <defs>
       <path d="M 40.578125 39.3125 
Q 47.65625 37.796875 51.625 33 
Q 55.609375 28.21875 55.609375 21.1875 
Q 55.609375 10.40625 48.1875 4.484375 
Q 40.765625 -1.421875 27.09375 -1.421875 
Q 22.515625 -1.421875 17.65625 -0.515625 
Q 12.796875 0.390625 7.625 2.203125 
L 7.625 11.71875 
Q 11.71875 9.328125 16.59375 8.109375 
Q 21.484375 6.890625 26.8125 6.890625 
Q 36.078125 6.890625 40.9375 10.546875 
Q 45.796875 14.203125 45.796875 21.1875 
Q 45.796875 27.640625 41.28125 31.265625 
Q 36.765625 34.90625 28.71875 34.90625 
L 20.21875 34.90625 
L 20.21875 43.015625 
L 29.109375 43.015625 
Q 36.375 43.015625 40.234375 45.921875 
Q 44.09375 48.828125 44.09375 54.296875 
Q 44.09375 59.90625 40.109375 62.90625 
Q 36.140625 65.921875 28.71875 65.921875 
Q 24.65625 65.921875 20.015625 65.03125 
Q 15.375 64.15625 9.8125 62.3125 
L 9.8125 71.09375 
Q 15.4375 72.65625 20.34375 73.4375 
Q 25.25 74.21875 29.59375 74.21875 
Q 40.828125 74.21875 47.359375 69.109375 
Q 53.90625 64.015625 53.90625 55.328125 
Q 53.90625 49.265625 50.4375 45.09375 
Q 46.96875 40.921875 40.578125 39.3125 
z
" id="DejaVuSans-51"/>
      </defs>
      <g transform="translate(92.111731 384.471846)rotate(-30)scale(0.1 -0.1)">
       <use xlink:href="#DejaVuSans-50"/>
       <use x="63.623047" xlink:href="#DejaVuSans-48"/>
       <use x="127.246094" xlink:href="#DejaVuSans-50"/>
       <use x="190.869141" xlink:href="#DejaVuSans-48"/>
       <use x="254.492188" xlink:href="#DejaVuSans-45"/>
       <use x="290.576172" xlink:href="#DejaVuSans-48"/>
       <use x="354.199219" xlink:href="#DejaVuSans-51"/>
      </g>
     </g>
    </g>
    <g id="xtick_3">
     <g id="line2d_3">
      <g>
       <use style="stroke:#000000;" x="181.537231" xlink:href="#m827e5a156e" y="346.5"/>
      </g>
     </g>
     <g id="text_3">
      <!-- 2020-04 -->
      <defs>
       <path d="M 37.796875 64.3125 
L 12.890625 25.390625 
L 37.796875 25.390625 
z
M 35.203125 72.90625 
L 47.609375 72.90625 
L 47.609375 25.390625 
L 58.015625 25.390625 
L 58.015625 17.1875 
L 47.609375 17.1875 
L 47.609375 0 
L 37.796875 0 
L 37.796875 17.1875 
L 4.890625 17.1875 
L 4.890625 26.703125 
z
" id="DejaVuSans-52"/>
      </defs>
      <g transform="translate(144.31241 384.471846)rotate(-30)scale(0.1 -0.1)">
       <use xlink:href="#DejaVuSans-50"/>
       <use x="63.623047" xlink:href="#DejaVuSans-48"/>
       <use x="127.246094" xlink:href="#DejaVuSans-50"/>
       <use x="190.869141" xlink:href="#DejaVuSans-48"/>
       <use x="254.492188" xlink:href="#DejaVuSans-45"/>
       <use x="290.576172" xlink:href="#DejaVuSans-48"/>
       <use x="354.199219" xlink:href="#DejaVuSans-52"/>
      </g>
     </g>
    </g>
    <g id="xtick_4">
     <g id="line2d_4">
      <g>
       <use style="stroke:#000000;" x="232.054017" xlink:href="#m827e5a156e" y="346.5"/>
      </g>
     </g>
     <g id="text_4">
      <!-- 2020-05 -->
      <defs>
       <path d="M 10.796875 72.90625 
L 49.515625 72.90625 
L 49.515625 64.59375 
L 19.828125 64.59375 
L 19.828125 46.734375 
Q 21.96875 47.46875 24.109375 47.828125 
Q 26.265625 48.1875 28.421875 48.1875 
Q 40.625 48.1875 47.75 41.5 
Q 54.890625 34.8125 54.890625 23.390625 
Q 54.890625 11.625 47.5625 5.09375 
Q 40.234375 -1.421875 26.90625 -1.421875 
Q 22.3125 -1.421875 17.546875 -0.640625 
Q 12.796875 0.140625 7.71875 1.703125 
L 7.71875 11.625 
Q 12.109375 9.234375 16.796875 8.0625 
Q 21.484375 6.890625 26.703125 6.890625 
Q 35.15625 6.890625 40.078125 11.328125 
Q 45.015625 15.765625 45.015625 23.390625 
Q 45.015625 31 40.078125 35.4375 
Q 35.15625 39.890625 26.703125 39.890625 
Q 22.75 39.890625 18.8125 39.015625 
Q 14.890625 38.140625 10.796875 36.28125 
z
" id="DejaVuSans-53"/>
      </defs>
      <g transform="translate(194.829197 384.471846)rotate(-30)scale(0.1 -0.1)">
       <use xlink:href="#DejaVuSans-50"/>
       <use x="63.623047" xlink:href="#DejaVuSans-48"/>
       <use x="127.246094" xlink:href="#DejaVuSans-50"/>
       <use x="190.869141" xlink:href="#DejaVuSans-48"/>
       <use x="254.492188" xlink:href="#DejaVuSans-45"/>
       <use x="290.576172" xlink:href="#DejaVuSans-48"/>
       <use x="354.199219" xlink:href="#DejaVuSans-53"/>
      </g>
     </g>
    </g>
    <g id="xtick_5">
     <g id="line2d_5">
      <g>
       <use style="stroke:#000000;" x="284.254696" xlink:href="#m827e5a156e" y="346.5"/>
      </g>
     </g>
     <g id="text_5">
      <!-- 2020-06 -->
      <defs>
       <path d="M 33.015625 40.375 
Q 26.375 40.375 22.484375 35.828125 
Q 18.609375 31.296875 18.609375 23.390625 
Q 18.609375 15.53125 22.484375 10.953125 
Q 26.375 6.390625 33.015625 6.390625 
Q 39.65625 6.390625 43.53125 10.953125 
Q 47.40625 15.53125 47.40625 23.390625 
Q 47.40625 31.296875 43.53125 35.828125 
Q 39.65625 40.375 33.015625 40.375 
z
M 52.59375 71.296875 
L 52.59375 62.3125 
Q 48.875 64.0625 45.09375 64.984375 
Q 41.3125 65.921875 37.59375 65.921875 
Q 27.828125 65.921875 22.671875 59.328125 
Q 17.53125 52.734375 16.796875 39.40625 
Q 19.671875 43.65625 24.015625 45.921875 
Q 28.375 48.1875 33.59375 48.1875 
Q 44.578125 48.1875 50.953125 41.515625 
Q 57.328125 34.859375 57.328125 23.390625 
Q 57.328125 12.15625 50.6875 5.359375 
Q 44.046875 -1.421875 33.015625 -1.421875 
Q 20.359375 -1.421875 13.671875 8.265625 
Q 6.984375 17.96875 6.984375 36.375 
Q 6.984375 53.65625 15.1875 63.9375 
Q 23.390625 74.21875 37.203125 74.21875 
Q 40.921875 74.21875 44.703125 73.484375 
Q 48.484375 72.75 52.59375 71.296875 
z
" id="DejaVuSans-54"/>
      </defs>
      <g transform="translate(247.029876 384.471846)rotate(-30)scale(0.1 -0.1)">
       <use xlink:href="#DejaVuSans-50"/>
       <use x="63.623047" xlink:href="#DejaVuSans-48"/>
       <use x="127.246094" xlink:href="#DejaVuSans-50"/>
       <use x="190.869141" xlink:href="#DejaVuSans-48"/>
       <use x="254.492188" xlink:href="#DejaVuSans-45"/>
       <use x="290.576172" xlink:href="#DejaVuSans-48"/>
       <use x="354.199219" xlink:href="#DejaVuSans-54"/>
      </g>
     </g>
    </g>
    <g id="xtick_6">
     <g id="line2d_6">
      <g>
       <use style="stroke:#000000;" x="334.771482" xlink:href="#m827e5a156e" y="346.5"/>
      </g>
     </g>
     <g id="text_6">
      <!-- 2020-07 -->
      <defs>
       <path d="M 8.203125 72.90625 
L 55.078125 72.90625 
L 55.078125 68.703125 
L 28.609375 0 
L 18.3125 0 
L 43.21875 64.59375 
L 8.203125 64.59375 
z
" id="DejaVuSans-55"/>
      </defs>
      <g transform="translate(297.546662 384.471846)rotate(-30)scale(0.1 -0.1)">
       <use xlink:href="#DejaVuSans-50"/>
       <use x="63.623047" xlink:href="#DejaVuSans-48"/>
       <use x="127.246094" xlink:href="#DejaVuSans-50"/>
       <use x="190.869141" xlink:href="#DejaVuSans-48"/>
       <use x="254.492188" xlink:href="#DejaVuSans-45"/>
       <use x="290.576172" xlink:href="#DejaVuSans-48"/>
       <use x="354.199219" xlink:href="#DejaVuSans-55"/>
      </g>
     </g>
    </g>
    <g id="xtick_7">
     <g id="line2d_7">
      <g>
       <use style="stroke:#000000;" x="386.972161" xlink:href="#m827e5a156e" y="346.5"/>
      </g>
     </g>
     <g id="text_7">
      <!-- 2020-08 -->
      <defs>
       <path d="M 31.78125 34.625 
Q 24.75 34.625 20.71875 30.859375 
Q 16.703125 27.09375 16.703125 20.515625 
Q 16.703125 13.921875 20.71875 10.15625 
Q 24.75 6.390625 31.78125 6.390625 
Q 38.8125 6.390625 42.859375 10.171875 
Q 46.921875 13.96875 46.921875 20.515625 
Q 46.921875 27.09375 42.890625 30.859375 
Q 38.875 34.625 31.78125 34.625 
z
M 21.921875 38.8125 
Q 15.578125 40.375 12.03125 44.71875 
Q 8.5 49.078125 8.5 55.328125 
Q 8.5 64.0625 14.71875 69.140625 
Q 20.953125 74.21875 31.78125 74.21875 
Q 42.671875 74.21875 48.875 69.140625 
Q 55.078125 64.0625 55.078125 55.328125 
Q 55.078125 49.078125 51.53125 44.71875 
Q 48 40.375 41.703125 38.8125 
Q 48.828125 37.15625 52.796875 32.3125 
Q 56.78125 27.484375 56.78125 20.515625 
Q 56.78125 9.90625 50.3125 4.234375 
Q 43.84375 -1.421875 31.78125 -1.421875 
Q 19.734375 -1.421875 13.25 4.234375 
Q 6.78125 9.90625 6.78125 20.515625 
Q 6.78125 27.484375 10.78125 32.3125 
Q 14.796875 37.15625 21.921875 38.8125 
z
M 18.3125 54.390625 
Q 18.3125 48.734375 21.84375 45.5625 
Q 25.390625 42.390625 31.78125 42.390625 
Q 38.140625 42.390625 41.71875 45.5625 
Q 45.3125 48.734375 45.3125 54.390625 
Q 45.3125 60.0625 41.71875 63.234375 
Q 38.140625 66.40625 31.78125 66.40625 
Q 25.390625 66.40625 21.84375 63.234375 
Q 18.3125 60.0625 18.3125 54.390625 
z
" id="DejaVuSans-56"/>
      </defs>
      <g transform="translate(349.747341 384.471846)rotate(-30)scale(0.1 -0.1)">
       <use xlink:href="#DejaVuSans-50"/>
       <use x="63.623047" xlink:href="#DejaVuSans-48"/>
       <use x="127.246094" xlink:href="#DejaVuSans-50"/>
       <use x="190.869141" xlink:href="#DejaVuSans-48"/>
       <use x="254.492188" xlink:href="#DejaVuSans-45"/>
       <use x="290.576172" xlink:href="#DejaVuSans-48"/>
       <use x="354.199219" xlink:href="#DejaVuSans-56"/>
      </g>
     </g>
    </g>
    <g id="xtick_8">
     <g id="line2d_8">
      <g>
       <use style="stroke:#000000;" x="439.17284" xlink:href="#m827e5a156e" y="346.5"/>
      </g>
     </g>
     <g id="text_8">
      <!-- 2020-09 -->
      <defs>
       <path d="M 10.984375 1.515625 
L 10.984375 10.5 
Q 14.703125 8.734375 18.5 7.8125 
Q 22.3125 6.890625 25.984375 6.890625 
Q 35.75 6.890625 40.890625 13.453125 
Q 46.046875 20.015625 46.78125 33.40625 
Q 43.953125 29.203125 39.59375 26.953125 
Q 35.25 24.703125 29.984375 24.703125 
Q 19.046875 24.703125 12.671875 31.3125 
Q 6.296875 37.9375 6.296875 49.421875 
Q 6.296875 60.640625 12.9375 67.421875 
Q 19.578125 74.21875 30.609375 74.21875 
Q 43.265625 74.21875 49.921875 64.515625 
Q 56.59375 54.828125 56.59375 36.375 
Q 56.59375 19.140625 48.40625 8.859375 
Q 40.234375 -1.421875 26.421875 -1.421875 
Q 22.703125 -1.421875 18.890625 -0.6875 
Q 15.09375 0.046875 10.984375 1.515625 
z
M 30.609375 32.421875 
Q 37.25 32.421875 41.125 36.953125 
Q 45.015625 41.5 45.015625 49.421875 
Q 45.015625 57.28125 41.125 61.84375 
Q 37.25 66.40625 30.609375 66.40625 
Q 23.96875 66.40625 20.09375 61.84375 
Q 16.21875 57.28125 16.21875 49.421875 
Q 16.21875 41.5 20.09375 36.953125 
Q 23.96875 32.421875 30.609375 32.421875 
z
" id="DejaVuSans-57"/>
      </defs>
      <g transform="translate(401.94802 384.471846)rotate(-30)scale(0.1 -0.1)">
       <use xlink:href="#DejaVuSans-50"/>
       <use x="63.623047" xlink:href="#DejaVuSans-48"/>
       <use x="127.246094" xlink:href="#DejaVuSans-50"/>
       <use x="190.869141" xlink:href="#DejaVuSans-48"/>
       <use x="254.492188" xlink:href="#DejaVuSans-45"/>
       <use x="290.576172" xlink:href="#DejaVuSans-48"/>
       <use x="354.199219" xlink:href="#DejaVuSans-57"/>
      </g>
     </g>
    </g>
    <g id="xtick_9">
     <g id="line2d_9">
      <g>
       <use style="stroke:#000000;" x="489.689627" xlink:href="#m827e5a156e" y="346.5"/>
      </g>
     </g>
     <g id="text_9">
      <!-- 2020-10 -->
      <defs>
       <path d="M 12.40625 8.296875 
L 28.515625 8.296875 
L 28.515625 63.921875 
L 10.984375 60.40625 
L 10.984375 69.390625 
L 28.421875 72.90625 
L 38.28125 72.90625 
L 38.28125 8.296875 
L 54.390625 8.296875 
L 54.390625 0 
L 12.40625 0 
z
" id="DejaVuSans-49"/>
      </defs>
      <g transform="translate(452.464806 384.471846)rotate(-30)scale(0.1 -0.1)">
       <use xlink:href="#DejaVuSans-50"/>
       <use x="63.623047" xlink:href="#DejaVuSans-48"/>
       <use x="127.246094" xlink:href="#DejaVuSans-50"/>
       <use x="190.869141" xlink:href="#DejaVuSans-48"/>
       <use x="254.492188" xlink:href="#DejaVuSans-45"/>
       <use x="290.576172" xlink:href="#DejaVuSans-49"/>
       <use x="354.199219" xlink:href="#DejaVuSans-48"/>
      </g>
     </g>
    </g>
    <g id="text_10">
     <!-- Date -->
     <defs>
      <path d="M 19.671875 64.796875 
L 19.671875 8.109375 
L 31.59375 8.109375 
Q 46.6875 8.109375 53.6875 14.9375 
Q 60.6875 21.78125 60.6875 36.53125 
Q 60.6875 51.171875 53.6875 57.984375 
Q 46.6875 64.796875 31.59375 64.796875 
z
M 9.8125 72.90625 
L 30.078125 72.90625 
Q 51.265625 72.90625 61.171875 64.09375 
Q 71.09375 55.28125 71.09375 36.53125 
Q 71.09375 17.671875 61.125 8.828125 
Q 51.171875 0 30.078125 0 
L 9.8125 0 
z
" id="DejaVuSans-68"/>
      <path d="M 34.28125 27.484375 
Q 23.390625 27.484375 19.1875 25 
Q 14.984375 22.515625 14.984375 16.5 
Q 14.984375 11.71875 18.140625 8.90625 
Q 21.296875 6.109375 26.703125 6.109375 
Q 34.1875 6.109375 38.703125 11.40625 
Q 43.21875 16.703125 43.21875 25.484375 
L 43.21875 27.484375 
z
M 52.203125 31.203125 
L 52.203125 0 
L 43.21875 0 
L 43.21875 8.296875 
Q 40.140625 3.328125 35.546875 0.953125 
Q 30.953125 -1.421875 24.3125 -1.421875 
Q 15.921875 -1.421875 10.953125 3.296875 
Q 6 8.015625 6 15.921875 
Q 6 25.140625 12.171875 29.828125 
Q 18.359375 34.515625 30.609375 34.515625 
L 43.21875 34.515625 
L 43.21875 35.40625 
Q 43.21875 41.609375 39.140625 45 
Q 35.0625 48.390625 27.6875 48.390625 
Q 23 48.390625 18.546875 47.265625 
Q 14.109375 46.140625 10.015625 43.890625 
L 10.015625 52.203125 
Q 14.9375 54.109375 19.578125 55.046875 
Q 24.21875 56 28.609375 56 
Q 40.484375 56 46.34375 49.84375 
Q 52.203125 43.703125 52.203125 31.203125 
z
" id="DejaVuSans-97"/>
      <path d="M 18.3125 70.21875 
L 18.3125 54.6875 
L 36.8125 54.6875 
L 36.8125 47.703125 
L 18.3125 47.703125 
L 18.3125 18.015625 
Q 18.3125 11.328125 20.140625 9.421875 
Q 21.96875 7.515625 27.59375 7.515625 
L 36.8125 7.515625 
L 36.8125 0 
L 27.59375 0 
Q 17.1875 0 13.234375 3.875 
Q 9.28125 7.765625 9.28125 18.015625 
L 9.28125 47.703125 
L 2.6875 47.703125 
L 2.6875 54.6875 
L 9.28125 54.6875 
L 9.28125 70.21875 
z
" id="DejaVuSans-116"/>
      <path d="M 56.203125 29.59375 
L 56.203125 25.203125 
L 14.890625 25.203125 
Q 15.484375 15.921875 20.484375 11.0625 
Q 25.484375 6.203125 34.421875 6.203125 
Q 39.59375 6.203125 44.453125 7.46875 
Q 49.3125 8.734375 54.109375 11.28125 
L 54.109375 2.78125 
Q 49.265625 0.734375 44.1875 -0.34375 
Q 39.109375 -1.421875 33.890625 -1.421875 
Q 20.796875 -1.421875 13.15625 6.1875 
Q 5.515625 13.8125 5.515625 26.8125 
Q 5.515625 40.234375 12.765625 48.109375 
Q 20.015625 56 32.328125 56 
Q 43.359375 56 49.78125 48.890625 
Q 56.203125 41.796875 56.203125 29.59375 
z
M 47.21875 32.234375 
Q 47.125 39.59375 43.09375 43.984375 
Q 39.0625 48.390625 32.421875 48.390625 
Q 24.90625 48.390625 20.390625 44.140625 
Q 15.875 39.890625 15.1875 32.171875 
z
" id="DejaVuSans-101"/>
     </defs>
     <g transform="translate(282.054141 398.63119)scale(0.11 -0.11)">
      <use xlink:href="#DejaVuSans-68"/>
      <use x="77.001953" xlink:href="#DejaVuSans-97"/>
      <use x="138.28125" xlink:href="#DejaVuSans-116"/>
      <use x="177.490234" xlink:href="#DejaVuSans-101"/>
     </g>
    </g>
   </g>
   <g id="matplotlib.axis_2">
    <g id="ytick_1">
     <g id="line2d_10">
      <defs>
       <path d="M 0 0 
L -3.5 0 
" id="m25d6238808" style="stroke:#000000;"/>
      </defs>
      <g>
       <use style="stroke:#000000;" x="72" xlink:href="#m25d6238808" y="332.91"/>
      </g>
     </g>
     <g id="text_11">
      <!-- 0 -->
      <g transform="translate(55.1375 336.709219)scale(0.1 -0.1)">
       <use xlink:href="#DejaVuSans-48"/>
      </g>
     </g>
    </g>
    <g id="ytick_2">
     <g id="line2d_11">
      <g>
       <use style="stroke:#000000;" x="72" xlink:href="#m25d6238808" y="297.027385"/>
      </g>
     </g>
     <g id="text_12">
      <!-- 50 -->
      <g transform="translate(48.775 300.826604)scale(0.1 -0.1)">
       <use xlink:href="#DejaVuSans-53"/>
       <use x="63.623047" xlink:href="#DejaVuSans-48"/>
      </g>
     </g>
    </g>
    <g id="ytick_3">
     <g id="line2d_12">
      <g>
       <use style="stroke:#000000;" x="72" xlink:href="#m25d6238808" y="261.14477"/>
      </g>
     </g>
     <g id="text_13">
      <!-- 100 -->
      <g transform="translate(42.4125 264.943988)scale(0.1 -0.1)">
       <use xlink:href="#DejaVuSans-49"/>
       <use x="63.623047" xlink:href="#DejaVuSans-48"/>
       <use x="127.246094" xlink:href="#DejaVuSans-48"/>
      </g>
     </g>
    </g>
    <g id="ytick_4">
     <g id="line2d_13">
      <g>
       <use style="stroke:#000000;" x="72" xlink:href="#m25d6238808" y="225.262154"/>
      </g>
     </g>
     <g id="text_14">
      <!-- 150 -->
      <g transform="translate(42.4125 229.061373)scale(0.1 -0.1)">
       <use xlink:href="#DejaVuSans-49"/>
       <use x="63.623047" xlink:href="#DejaVuSans-53"/>
       <use x="127.246094" xlink:href="#DejaVuSans-48"/>
      </g>
     </g>
    </g>
    <g id="ytick_5">
     <g id="line2d_14">
      <g>
       <use style="stroke:#000000;" x="72" xlink:href="#m25d6238808" y="189.379539"/>
      </g>
     </g>
     <g id="text_15">
      <!-- 200 -->
      <g transform="translate(42.4125 193.178758)scale(0.1 -0.1)">
       <use xlink:href="#DejaVuSans-50"/>
       <use x="63.623047" xlink:href="#DejaVuSans-48"/>
       <use x="127.246094" xlink:href="#DejaVuSans-48"/>
      </g>
     </g>
    </g>
    <g id="ytick_6">
     <g id="line2d_15">
      <g>
       <use style="stroke:#000000;" x="72" xlink:href="#m25d6238808" y="153.496924"/>
      </g>
     </g>
     <g id="text_16">
      <!-- 250 -->
      <g transform="translate(42.4125 157.296143)scale(0.1 -0.1)">
       <use xlink:href="#DejaVuSans-50"/>
       <use x="63.623047" xlink:href="#DejaVuSans-53"/>
       <use x="127.246094" xlink:href="#DejaVuSans-48"/>
      </g>
     </g>
    </g>
    <g id="ytick_7">
     <g id="line2d_16">
      <g>
       <use style="stroke:#000000;" x="72" xlink:href="#m25d6238808" y="117.614309"/>
      </g>
     </g>
     <g id="text_17">
      <!-- 300 -->
      <g transform="translate(42.4125 121.413528)scale(0.1 -0.1)">
       <use xlink:href="#DejaVuSans-51"/>
       <use x="63.623047" xlink:href="#DejaVuSans-48"/>
       <use x="127.246094" xlink:href="#DejaVuSans-48"/>
      </g>
     </g>
    </g>
    <g id="ytick_8">
     <g id="line2d_17">
      <g>
       <use style="stroke:#000000;" x="72" xlink:href="#m25d6238808" y="81.731694"/>
      </g>
     </g>
     <g id="text_18">
      <!-- 350 -->
      <g transform="translate(42.4125 85.530913)scale(0.1 -0.1)">
       <use xlink:href="#DejaVuSans-51"/>
       <use x="63.623047" xlink:href="#DejaVuSans-53"/>
       <use x="127.246094" xlink:href="#DejaVuSans-48"/>
      </g>
     </g>
    </g>
   </g>
   <g id="line2d_18">
    <path clip-path="url(#pe63fb07210)" d="M 141.123802 332.611165 
L 142.807695 332.91 
L 146.175481 331.714658 
L 147.859374 331.415823 
L 151.22716 331.415823 
L 154.594945 330.220481 
L 156.278838 330.519317 
L 157.962731 330.519317 
L 161.330517 328.726304 
L 163.01441 328.128634 
L 164.698303 327.829798 
L 169.749981 325.14028 
L 171.433874 324.841444 
L 173.117767 320.657749 
L 174.80166 317.96823 
L 176.485553 311.991522 
L 178.169445 308.704333 
L 179.853338 304.520638 
L 181.537231 297.348588 
L 183.221124 291.073045 
L 186.58891 279.418464 
L 188.272803 276.728946 
L 189.956696 272.246415 
L 191.640588 268.66039 
L 193.324481 268.959226 
L 195.008374 268.66039 
L 196.692267 271.94758 
L 198.37616 276.728946 
L 200.060053 278.223123 
L 201.743946 283.004489 
L 203.427839 285.395172 
L 205.111731 287.188185 
L 206.795624 286.590514 
L 208.479517 284.797501 
L 210.16341 282.107983 
L 211.847303 283.004489 
L 213.531196 280.912641 
L 215.215089 274.637098 
L 216.898982 272.844086 
L 218.582874 272.844086 
L 220.266767 274.935933 
L 221.95066 274.935933 
L 223.634553 277.027781 
L 225.318446 272.54525 
L 228.686232 270.154567 
L 230.370124 269.258061 
L 232.054017 265.373201 
L 233.73791 265.074365 
L 235.421803 262.384847 
L 237.105696 266.568542 
L 238.789589 272.54525 
L 240.473482 271.94758 
L 242.157375 275.533604 
L 243.841267 274.338263 
L 245.52516 276.43011 
L 247.209053 277.924287 
L 248.892946 274.637098 
L 250.576839 273.142921 
L 252.260732 273.740592 
L 253.944625 269.855732 
L 255.628518 275.234769 
L 257.31241 273.740592 
L 258.996303 274.039427 
L 262.364089 276.43011 
L 264.047982 277.326617 
L 265.731875 283.900995 
L 267.415768 285.096337 
L 269.099661 285.992843 
L 270.783553 287.188185 
L 272.467446 293.762563 
L 274.151339 294.360234 
L 275.835232 298.842765 
L 277.519125 294.65907 
L 279.203018 293.762563 
L 280.886911 297.348588 
L 282.570803 298.54393 
L 284.254696 294.957905 
L 285.938589 298.54393 
L 287.622482 299.739271 
L 289.306375 303.325296 
L 290.990268 308.405498 
L 292.674161 307.508991 
L 294.358054 309.003168 
L 296.041946 313.186864 
L 297.725839 315.577547 
L 299.409732 316.175218 
L 301.093625 318.267066 
L 302.777518 317.071724 
L 304.461411 317.669395 
L 306.145304 317.96823 
L 307.829197 317.370559 
L 309.513089 316.175218 
L 311.196982 316.175218 
L 312.880875 316.474053 
L 314.564768 317.071724 
L 316.248661 319.462407 
L 317.932554 320.060078 
L 319.616447 321.85309 
L 321.300339 323.347267 
L 322.984232 323.646103 
L 324.668125 321.85309 
L 326.352018 323.048432 
L 328.035911 322.450761 
L 329.719804 322.450761 
L 331.403697 319.761243 
L 333.08759 319.163572 
L 334.771482 319.761243 
L 336.455375 321.85309 
L 338.139268 322.151926 
L 339.823161 320.358913 
L 341.507054 320.060078 
L 343.190947 323.347267 
L 344.87484 324.542609 
L 346.558733 323.646103 
L 348.242625 320.657749 
L 349.926518 320.358913 
L 351.610411 322.450761 
L 353.294304 323.048432 
L 354.978197 323.048432 
L 356.66209 321.85309 
L 358.345983 323.347267 
L 360.029876 325.737951 
L 363.397661 325.737951 
L 365.081554 326.335621 
L 366.765447 325.14028 
L 368.44934 326.335621 
L 370.133233 327.232128 
L 371.817126 328.427469 
L 373.501018 327.530963 
L 375.184911 327.232128 
L 378.552697 326.036786 
L 380.23659 326.335621 
L 381.920483 325.439115 
L 383.604376 325.14028 
L 385.288269 324.542609 
L 386.972161 324.841444 
L 390.339947 326.634457 
L 393.707733 325.439115 
L 395.391626 325.14028 
L 397.075519 326.634457 
L 398.759412 326.933292 
L 400.443304 326.933292 
L 402.127197 326.634457 
L 403.81109 326.933292 
L 405.494983 328.427469 
L 407.178876 327.232128 
L 408.862769 326.933292 
L 410.546662 326.335621 
L 412.230555 326.335621 
L 413.914447 326.634457 
L 415.59834 326.634457 
L 417.282233 324.243774 
L 418.966126 324.542609 
L 420.650019 325.14028 
L 424.017805 323.944938 
L 425.701697 323.646103 
L 427.38559 324.243774 
L 429.069483 324.243774 
L 430.753376 325.439115 
L 432.437269 325.14028 
L 434.121162 325.14028 
L 435.805055 324.841444 
L 437.488948 323.646103 
L 439.17284 321.554255 
L 440.856733 320.060078 
L 442.540626 316.772889 
L 444.224519 315.876383 
L 445.908412 313.485699 
L 447.592305 312.589193 
L 449.276198 307.210156 
L 450.960091 305.118308 
L 452.643983 305.417144 
L 454.327876 303.922967 
L 456.011769 300.336942 
L 457.695662 300.934613 
L 459.379555 301.233448 
L 461.063448 303.922967 
L 462.747341 304.221802 
L 464.431233 299.1416 
L 466.115126 299.440436 
L 467.799019 297.348588 
L 469.482912 291.969551 
L 471.166805 287.188185 
L 472.850698 283.004489 
L 474.534591 277.027781 
L 476.218484 275.234769 
L 481.270162 261.488341 
L 482.954055 253.419785 
L 484.637948 250.132596 
L 486.321841 241.466369 
L 488.005734 226.225764 
L 489.689627 215.168855 
L 491.373519 201.123591 
L 493.057412 195.744554 
L 494.741305 185.882986 
L 496.425198 172.435393 
L 498.109091 167.056356 
L 498.109091 167.056356 
" style="fill:none;stroke:#1f77b4;stroke-linecap:square;stroke-width:1.75;"/>
   </g>
   <g id="line2d_19">
    <path clip-path="url(#pe63fb07210)" d="M 156.278838 330.594589 
L 157.962731 329.436884 
L 159.646624 327.989752 
L 161.330517 327.700326 
L 163.01441 326.253194 
L 164.698303 324.22721 
L 166.382195 321.622373 
L 168.066088 316.702125 
L 169.749981 316.702125 
L 171.433874 314.67614 
L 174.80166 311.203024 
L 178.169445 314.67614 
L 179.853338 312.650156 
L 181.537231 304.546218 
L 183.221124 301.362528 
L 184.905017 296.152854 
L 186.58891 294.995149 
L 188.272803 289.496048 
L 189.956696 283.418095 
L 191.640588 283.996948 
L 193.324481 287.75949 
L 195.008374 285.733506 
L 196.692267 287.470064 
L 198.37616 286.891211 
L 200.060053 285.733506 
L 201.743946 290.364327 
L 203.427839 293.548017 
L 205.111731 294.995149 
L 206.795624 301.073102 
L 208.479517 303.388513 
L 210.16341 303.099086 
L 211.847303 302.230807 
L 213.531196 297.021133 
L 215.215089 295.574001 
L 216.898982 291.522033 
L 218.582874 288.048917 
L 220.266767 280.813258 
L 221.95066 279.944979 
L 223.634553 285.733506 
L 225.318446 283.418095 
L 227.002339 279.655553 
L 228.686232 277.340142 
L 230.370124 271.551615 
L 232.054017 277.629568 
L 233.73791 280.813258 
L 235.421803 277.918994 
L 237.105696 277.918994 
L 238.789589 279.944979 
L 240.473482 274.735305 
L 242.157375 278.208421 
L 243.841267 272.998747 
L 245.52516 270.683336 
L 247.209053 267.499646 
L 248.892946 268.367925 
L 250.576839 264.315956 
L 252.260732 269.236204 
L 253.944625 269.52563 
L 255.628518 266.920793 
L 257.31241 254.764887 
L 258.996303 253.028329 
L 260.680196 252.738902 
L 262.364089 250.712918 
L 264.047982 249.844639 
L 265.731875 243.187833 
L 267.415768 248.97636 
L 269.099661 257.369724 
L 270.783553 261.132266 
L 272.467446 263.447677 
L 274.151339 269.52563 
L 275.835232 271.841041 
L 277.519125 277.050715 
L 279.203018 276.182436 
L 280.886911 279.0767 
L 282.570803 277.050715 
L 284.254696 271.551615 
L 285.938589 259.106282 
L 287.622482 260.553414 
L 289.306375 259.685135 
L 290.990268 259.106282 
L 292.674161 258.238003 
L 294.358054 252.738902 
L 296.041946 248.686934 
L 297.725839 249.555213 
L 299.409732 240.582996 
L 301.093625 229.295368 
L 302.777518 221.191431 
L 304.461411 211.350935 
L 306.145304 207.00954 
L 307.829197 201.799866 
L 309.513089 199.484455 
L 311.196982 196.879618 
L 312.880875 197.458471 
L 314.564768 190.801665 
L 316.248661 188.196828 
L 317.932554 187.039122 
L 319.616447 182.987153 
L 321.300339 177.777479 
L 322.984232 169.384115 
L 324.668125 169.673541 
L 326.352018 171.988952 
L 328.035911 176.330347 
L 329.719804 185.302564 
L 331.403697 188.486254 
L 333.08759 197.458471 
L 334.771482 205.272982 
L 336.455375 209.903803 
L 338.139268 212.219214 
L 339.823161 215.69233 
L 341.507054 202.957571 
L 343.190947 203.246997 
L 344.87484 203.82585 
L 346.558733 206.430687 
L 348.242625 210.19323 
L 349.926518 209.035524 
L 351.610411 203.536424 
L 353.294304 218.87602 
L 354.978197 227.269384 
L 356.66209 232.768485 
L 358.345983 239.135864 
L 360.029876 238.557012 
L 361.713768 247.818655 
L 363.397661 255.054313 
L 365.081554 257.080298 
L 366.765447 262.289972 
L 368.44934 265.473662 
L 370.133233 263.158251 
L 371.817126 264.315956 
L 373.501018 265.763088 
L 375.184911 271.551615 
L 376.868804 272.130468 
L 378.552697 268.367925 
L 380.23659 270.972762 
L 381.920483 273.288173 
L 383.604376 273.577599 
L 385.288269 277.050715 
L 386.972161 272.998747 
L 388.656054 274.156452 
L 390.339947 277.629568 
L 392.02384 275.314157 
L 393.707733 273.577599 
L 395.391626 272.130468 
L 397.075519 266.631367 
L 398.759412 263.737104 
L 400.443304 261.711119 
L 402.127197 260.84284 
L 403.81109 260.553414 
L 405.494983 266.631367 
L 407.178876 270.683336 
L 408.862769 272.998747 
L 410.546662 279.0767 
L 412.230555 281.681537 
L 413.914447 277.918994 
L 415.59834 276.182436 
L 417.282233 277.918994 
L 418.966126 281.102684 
L 420.650019 282.839242 
L 422.333912 285.444079 
L 424.017805 285.733506 
L 425.701697 294.995149 
L 427.38559 301.651955 
L 429.069483 303.388513 
L 430.753376 305.703924 
L 432.437269 306.572203 
L 434.121162 306.282776 
L 435.805055 306.282776 
L 437.488948 306.861629 
L 439.17284 301.073102 
L 440.856733 292.100885 
L 442.540626 287.470064 
L 444.224519 281.681537 
L 445.908412 274.445878 
L 447.592305 270.393909 
L 449.276198 257.948577 
L 450.960091 250.712918 
L 452.643983 246.371523 
L 454.327876 243.477259 
L 456.011769 240.872422 
L 457.695662 238.557012 
L 459.379555 237.978159 
L 461.063448 240.872422 
L 462.747341 241.451275 
L 464.431233 242.898407 
L 466.115126 236.241601 
L 467.799019 229.005942 
L 469.482912 220.033725 
L 471.166805 216.850036 
L 472.850698 210.482656 
L 474.534591 207.588393 
L 476.218484 205.562408 
L 477.902376 209.035524 
L 479.586269 214.824051 
L 481.270162 218.297167 
L 482.954055 218.586594 
L 484.637948 223.796268 
L 486.321841 220.323152 
L 488.005734 215.402904 
L 489.689627 206.430687 
L 491.373519 194.564207 
L 493.057412 196.590192 
L 494.741305 189.643959 
L 496.425198 182.118874 
L 498.109091 182.697727 
L 498.109091 182.697727 
" style="fill:none;stroke:#ff7f0e;stroke-linecap:square;stroke-width:1.75;"/>
   </g>
   <g id="line2d_20">
    <path clip-path="url(#pe63fb07210)" d="M 159.646624 330.048342 
L 163.01441 330.048342 
L 164.698303 329.73038 
L 168.066088 325.914836 
L 169.749981 323.689102 
L 171.433874 320.509482 
L 173.117767 318.60171 
L 174.80166 315.42209 
L 176.485553 314.468204 
L 178.169445 314.468204 
L 179.853338 311.606546 
L 181.537231 301.431763 
L 183.221124 297.298257 
L 188.272803 282.036081 
L 189.956696 275.358879 
L 191.640588 270.907411 
L 193.324481 272.497221 
L 195.008374 268.999639 
L 196.692267 268.681677 
L 200.060053 259.778741 
L 201.743946 258.824855 
L 203.427839 256.917083 
L 205.111731 260.096703 
L 206.795624 256.917083 
L 208.479517 252.147653 
L 210.16341 248.33211 
L 211.847303 248.968034 
L 213.531196 248.968034 
L 215.215089 249.603958 
L 216.898982 244.516566 
L 218.582874 249.603958 
L 220.266767 247.378224 
L 221.95066 257.235045 
L 223.634553 263.276323 
L 225.318446 263.276323 
L 227.002339 266.455943 
L 228.686232 269.953525 
L 230.370124 264.230209 
L 232.054017 270.271487 
L 233.73791 272.179259 
L 235.421803 272.497221 
L 237.105696 277.266651 
L 238.789589 280.446271 
L 240.473482 279.492385 
L 242.157375 286.487549 
L 243.841267 290.303093 
L 245.52516 291.574941 
L 247.209053 291.574941 
L 248.892946 284.261815 
L 250.576839 281.400157 
L 252.260732 288.077359 
L 253.944625 293.164751 
L 255.628518 295.390485 
L 257.31241 296.026409 
L 258.996303 299.206029 
L 260.680196 309.06285 
L 262.364089 314.786166 
L 264.047982 316.693938 
L 265.731875 316.375976 
L 267.415768 317.329862 
L 269.099661 319.873558 
L 270.783553 318.919672 
L 272.467446 318.283748 
L 274.151339 318.919672 
L 275.835232 313.514318 
L 277.519125 313.83228 
L 279.203018 313.196356 
L 280.886911 309.380812 
L 282.570803 310.65266 
L 284.254696 310.970622 
L 285.938589 310.65266 
L 287.622482 317.329862 
L 289.306375 318.919672 
L 290.990268 321.145406 
L 292.674161 322.735216 
L 294.358054 322.735216 
L 296.041946 324.96095 
L 297.725839 324.642988 
L 299.409732 323.053178 
L 301.093625 324.642988 
L 302.777518 323.689102 
L 304.461411 324.96095 
L 306.145304 324.642988 
L 307.829197 324.642988 
L 309.513089 326.232798 
L 311.196982 326.868722 
L 312.880875 326.55076 
L 314.564768 326.868722 
L 316.248661 327.822608 
L 317.932554 329.412418 
L 319.616447 329.094456 
L 321.300339 329.094456 
L 322.984232 330.366304 
L 324.668125 330.366304 
L 326.352018 330.684266 
L 328.035911 330.684266 
L 329.719804 330.048342 
L 331.403697 329.73038 
L 333.08759 329.73038 
L 334.771482 330.048342 
L 336.455375 329.73038 
L 338.139268 330.048342 
L 339.823161 329.412418 
L 343.190947 330.048342 
L 346.558733 330.048342 
L 348.242625 330.366304 
L 349.926518 330.366304 
L 353.294304 331.002228 
L 354.978197 331.956114 
L 356.66209 332.274076 
L 360.029876 331.638152 
L 361.713768 331.002228 
L 363.397661 331.32019 
L 365.081554 331.32019 
L 366.765447 330.684266 
L 368.44934 330.366304 
L 371.817126 330.366304 
L 373.501018 331.002228 
L 376.868804 331.002228 
L 378.552697 331.638152 
L 380.23659 331.638152 
L 383.604376 332.274076 
L 386.972161 332.274076 
L 390.339947 331.002228 
L 392.02384 331.32019 
L 393.707733 331.002228 
L 397.075519 331.002228 
L 398.759412 330.684266 
L 400.443304 331.32019 
L 402.127197 331.32019 
L 403.81109 329.73038 
L 405.494983 327.504646 
L 407.178876 326.868722 
L 408.862769 326.868722 
L 410.546662 327.186684 
L 413.914447 325.914836 
L 415.59834 327.186684 
L 417.282233 327.186684 
L 418.966126 325.914836 
L 420.650019 324.007064 
L 422.333912 320.827444 
L 424.017805 320.827444 
L 425.701697 321.78133 
L 427.38559 321.145406 
L 429.069483 322.417254 
L 430.753376 323.37114 
L 432.437269 324.642988 
L 434.121162 324.96095 
L 435.805055 323.689102 
L 437.488948 321.78133 
L 439.17284 317.329862 
L 440.856733 315.740052 
L 442.540626 313.514318 
L 444.224519 311.606546 
L 445.908412 312.24247 
L 447.592305 311.288584 
L 449.276198 310.016736 
L 450.960091 312.24247 
L 452.643983 310.65266 
L 454.327876 307.47304 
L 456.011769 305.247307 
L 457.695662 305.247307 
L 459.379555 303.657497 
L 461.063448 300.159915 
L 462.747341 296.344371 
L 464.431233 288.395321 
L 466.115126 281.718119 
L 467.799019 270.589449 
L 469.482912 261.686513 
L 471.166805 246.7423 
L 472.850698 228.618466 
L 474.534591 213.992214 
L 476.218484 193.006723 
L 477.902376 181.878053 
L 479.586269 174.246965 
L 481.270162 159.302751 
L 482.954055 158.030903 
L 484.637948 155.169245 
L 486.321841 151.989625 
L 488.005734 159.620713 
L 489.689627 155.805169 
L 491.373519 151.671663 
L 493.057412 154.533321 
L 494.741305 148.492043 
L 496.425198 145.948347 
L 498.109091 144.676499 
L 498.109091 144.676499 
" style="fill:none;stroke:#2ca02c;stroke-linecap:square;stroke-width:1.75;"/>
   </g>
   <g id="line2d_21">
    <path clip-path="url(#pe63fb07210)" d="M 142.807695 332.412365 
L 144.491588 332.246487 
L 146.175481 332.246487 
L 147.859374 331.748852 
L 151.22716 331.417095 
L 152.911052 331.417095 
L 154.594945 331.085339 
L 156.278838 331.085339 
L 157.962731 330.587704 
L 159.646624 330.587704 
L 161.330517 329.592434 
L 163.01441 327.93365 
L 164.698303 327.601894 
L 166.382195 325.943111 
L 168.066088 324.781962 
L 171.433874 321.796153 
L 173.117767 320.13737 
L 174.80166 319.805613 
L 176.485553 317.815073 
L 178.169445 314.829263 
L 179.853338 313.17048 
L 181.537231 309.852914 
L 183.221124 308.691766 
L 186.58891 304.047173 
L 188.272803 302.720146 
L 189.956696 303.051903 
L 191.640588 300.895485 
L 193.324481 301.39312 
L 195.008374 300.231971 
L 196.692267 301.061363 
L 198.37616 301.558998 
L 200.060053 300.729606 
L 201.743946 301.061363 
L 203.427839 303.715416 
L 205.111731 301.227241 
L 206.795624 300.231971 
L 208.479517 300.39785 
L 210.16341 300.066093 
L 211.847303 297.577918 
L 213.531196 294.260352 
L 215.215089 291.440421 
L 216.898982 291.606299 
L 218.582874 287.625219 
L 220.266767 281.487722 
L 221.95066 280.65833 
L 223.634553 276.511372 
L 225.318446 275.847859 
L 227.002339 273.027927 
L 228.686232 265.89516 
L 230.370124 265.231646 
L 232.054017 266.89043 
L 233.73791 265.563403 
L 235.421803 270.042118 
L 237.105696 271.037388 
L 238.789589 269.710361 
L 240.473482 275.516102 
L 242.157375 272.364414 
L 243.841267 275.018467 
L 245.52516 276.179615 
L 247.209053 277.67252 
L 250.576839 281.6536 
L 252.260732 284.805288 
L 253.944625 292.767447 
L 255.628518 295.255622 
L 257.31241 298.241432 
L 258.996303 300.231971 
L 260.680196 303.715416 
L 262.364089 305.705956 
L 264.047982 308.028252 
L 265.731875 308.360009 
L 267.415768 308.857644 
L 269.099661 307.364739 
L 270.783553 308.691766 
L 272.467446 308.028252 
L 274.151339 311.17994 
L 275.835232 309.521157 
L 277.519125 308.525887 
L 279.203018 309.355279 
L 280.886911 309.852914 
L 282.570803 308.691766 
L 284.254696 310.350549 
L 285.938589 310.848184 
L 287.622482 314.331628 
L 289.306375 318.644465 
L 290.990268 319.307978 
L 292.674161 322.293788 
L 294.358054 324.616084 
L 296.041946 325.279597 
L 297.725839 326.440746 
L 299.409732 324.450206 
L 301.093625 324.781962 
L 302.777518 324.781962 
L 304.461411 322.293788 
L 306.145304 321.630274 
L 307.829197 318.644465 
L 309.513089 317.980951 
L 311.196982 318.644465 
L 312.880875 317.15156 
L 314.564768 317.815073 
L 316.248661 318.810343 
L 317.932554 318.810343 
L 319.616447 320.469126 
L 321.300339 320.635005 
L 322.984232 322.293788 
L 324.668125 324.118449 
L 326.352018 324.947841 
L 328.035911 326.440746 
L 329.719804 327.104259 
L 331.403697 328.099529 
L 333.08759 328.763042 
L 336.455375 329.426555 
L 338.139268 329.260677 
L 341.507054 329.592434 
L 343.190947 330.090069 
L 344.87484 330.421825 
L 346.558733 330.255947 
L 349.926518 330.255947 
L 351.610411 330.421825 
L 353.294304 330.753582 
L 354.978197 330.090069 
L 356.66209 329.92419 
L 358.345983 330.587704 
L 360.029876 330.91946 
L 361.713768 330.91946 
L 363.397661 330.753582 
L 365.081554 330.91946 
L 368.44934 331.91473 
L 370.133233 331.251217 
L 371.817126 331.251217 
L 373.501018 330.753582 
L 376.868804 330.090069 
L 378.552697 330.255947 
L 380.23659 329.260677 
L 381.920483 328.597164 
L 383.604376 328.597164 
L 386.972161 329.260677 
L 388.656054 328.92892 
L 390.339947 328.92892 
L 392.02384 328.763042 
L 393.707733 328.92892 
L 395.391626 328.099529 
L 397.075519 327.93365 
L 398.759412 327.93365 
L 400.443304 328.099529 
L 402.127197 326.938381 
L 403.81109 327.104259 
L 405.494983 326.938381 
L 407.178876 326.606624 
L 408.862769 324.781962 
L 410.546662 324.616084 
L 413.914447 324.616084 
L 415.59834 324.284327 
L 417.282233 324.616084 
L 418.966126 324.781962 
L 420.650019 326.772502 
L 422.333912 326.772502 
L 424.017805 326.938381 
L 427.38559 328.265407 
L 429.069483 328.431285 
L 430.753376 326.938381 
L 432.437269 326.440746 
L 434.121162 325.279597 
L 435.805055 325.113719 
L 437.488948 324.118449 
L 440.856733 316.819803 
L 442.540626 313.502237 
L 444.224519 308.691766 
L 445.908412 306.701226 
L 447.592305 303.051903 
L 449.276198 295.919135 
L 450.960091 294.757987 
L 452.643983 295.089744 
L 454.327876 295.255622 
L 456.011769 296.914405 
L 457.695662 298.241432 
L 459.379555 297.577918 
L 461.063448 301.724876 
L 462.747341 303.051903 
L 464.431233 301.061363 
L 466.115126 299.568458 
L 467.799019 299.568458 
L 471.166805 292.767447 
L 472.850698 288.786368 
L 474.534591 282.151235 
L 476.218484 278.336034 
L 477.902376 276.179615 
L 479.586269 271.369144 
L 481.270162 267.222186 
L 482.954055 264.070498 
L 484.637948 256.937731 
L 486.321841 249.307328 
L 488.005734 239.188751 
L 489.689627 236.037063 
L 491.373519 223.596189 
L 493.057412 219.449231 
L 494.741305 217.790448 
L 496.425198 213.975246 
L 498.109091 216.629299 
L 498.109091 216.629299 
" style="fill:none;stroke:#d62728;stroke-linecap:square;stroke-width:1.75;"/>
   </g>
   <g id="line2d_22">
    <path clip-path="url(#pe63fb07210)" d="M 92.290909 332.593586 
L 93.974802 332.91 
L 127.652659 332.91 
L 129.336552 332.593586 
L 139.439909 332.593586 
L 141.123802 332.277171 
L 144.491588 332.277171 
L 149.543267 331.327928 
L 151.22716 330.695099 
L 152.911052 331.327928 
L 154.594945 330.695099 
L 156.278838 330.695099 
L 157.962731 331.011513 
L 159.646624 331.011513 
L 163.01441 330.378685 
L 166.382195 327.21454 
L 168.066088 324.050396 
L 169.749981 322.151909 
L 171.433874 318.987765 
L 173.117767 314.874377 
L 174.80166 311.710233 
L 176.485553 306.331187 
L 178.169445 302.850629 
L 179.853338 300.952142 
L 181.537231 297.155169 
L 183.221124 284.182177 
L 186.58891 265.83014 
L 188.272803 259.185437 
L 189.956696 250.009418 
L 193.324481 229.758894 
L 195.008374 233.555867 
L 196.692267 237.985669 
L 198.37616 240.20057 
L 200.060053 245.263201 
L 201.743946 249.060175 
L 203.427839 250.009418 
L 205.111731 252.857148 
L 206.795624 256.021292 
L 208.479517 256.337707 
L 210.16341 253.173562 
L 211.847303 248.427346 
L 213.531196 252.540733 
L 215.215089 257.28695 
L 216.898982 255.388463 
L 218.582874 252.540733 
L 220.266767 253.489977 
L 223.634553 269.310698 
L 225.318446 270.259942 
L 227.002339 272.474843 
L 228.686232 280.385204 
L 230.370124 287.662736 
L 232.054017 284.815006 
L 233.73791 283.232934 
L 235.421803 281.334447 
L 237.105696 277.853888 
L 238.789589 274.056915 
L 240.473482 274.373329 
L 242.157375 268.045041 
L 243.841267 269.943527 
L 245.52516 272.791257 
L 248.892946 272.791257 
L 250.576839 276.588231 
L 252.260732 269.627113 
L 253.944625 275.006158 
L 255.628518 278.803132 
L 257.31241 276.904645 
L 258.996303 279.119546 
L 260.680196 282.600105 
L 262.364089 282.916519 
L 264.047982 291.459709 
L 265.731875 292.092538 
L 267.415768 293.041781 
L 269.099661 298.104412 
L 270.783553 296.52234 
L 274.151339 299.053655 
L 275.835232 298.104412 
L 277.519125 298.737241 
L 279.203018 298.420827 
L 280.886911 299.686484 
L 282.570803 304.116286 
L 284.254696 304.116286 
L 285.938589 306.964016 
L 287.622482 308.546088 
L 289.306375 309.178917 
L 290.990268 312.659476 
L 292.674161 311.710233 
L 294.358054 312.975891 
L 296.041946 315.507206 
L 297.725839 317.722107 
L 299.409732 318.354936 
L 301.093625 319.620594 
L 302.777518 318.038522 
L 304.461411 318.67135 
L 306.145304 318.038522 
L 307.829197 315.507206 
L 309.513089 311.077404 
L 311.196982 311.077404 
L 312.880875 312.026647 
L 314.564768 313.608719 
L 316.248661 313.292305 
L 317.932554 313.608719 
L 319.616447 317.405693 
L 321.300339 319.304179 
L 322.984232 320.569837 
L 324.668125 320.569837 
L 328.035911 322.468324 
L 329.719804 323.733981 
L 331.403697 324.050396 
L 333.08759 326.898126 
L 336.455375 330.695099 
L 338.139268 330.06227 
L 339.823161 330.06227 
L 341.507054 329.429441 
L 343.190947 327.530955 
L 344.87484 328.163783 
L 348.242625 326.898126 
L 349.926518 327.530955 
L 351.610411 327.530955 
L 353.294304 328.163783 
L 354.978197 330.378685 
L 356.66209 329.745856 
L 360.029876 331.011513 
L 361.713768 331.327928 
L 363.397661 330.378685 
L 365.081554 330.378685 
L 366.765447 329.113027 
L 368.44934 329.113027 
L 370.133233 328.796612 
L 371.817126 328.163783 
L 373.501018 327.847369 
L 375.184911 328.796612 
L 376.868804 328.796612 
L 378.552697 330.06227 
L 380.23659 330.378685 
L 381.920483 328.796612 
L 383.604376 328.163783 
L 385.288269 328.163783 
L 386.972161 327.21454 
L 390.339947 327.21454 
L 392.02384 326.898126 
L 393.707733 328.480198 
L 395.391626 329.113027 
L 397.075519 327.530955 
L 398.759412 328.796612 
L 400.443304 328.796612 
L 402.127197 328.480198 
L 403.81109 327.530955 
L 405.494983 328.163783 
L 407.178876 327.530955 
L 408.862769 329.113027 
L 410.546662 328.480198 
L 412.230555 327.530955 
L 413.914447 327.530955 
L 415.59834 328.480198 
L 417.282233 326.581711 
L 418.966126 326.581711 
L 422.333912 324.050396 
L 424.017805 323.101153 
L 427.38559 314.241548 
L 429.069483 312.026647 
L 430.753376 308.546088 
L 432.437269 302.2178 
L 434.121162 302.2178 
L 435.805055 301.584971 
L 437.488948 299.37007 
L 439.17284 296.205925 
L 440.856733 289.877637 
L 442.540626 284.498591 
L 444.224519 277.853888 
L 445.908412 272.474843 
L 447.592305 264.880896 
L 449.276198 257.919779 
L 450.960091 248.110931 
L 452.643983 240.20057 
L 454.327876 233.872282 
L 456.011769 234.188696 
L 457.695662 226.59475 
L 459.379555 226.911164 
L 461.063448 222.164948 
L 462.747341 216.785902 
L 464.431233 212.3561 
L 466.115126 201.281595 
L 467.799019 192.105576 
L 469.482912 186.093702 
L 471.166805 173.12071 
L 472.850698 163.311863 
L 474.534591 159.198475 
L 476.218484 147.491141 
L 477.902376 145.592654 
L 479.586269 136.416636 
L 481.270162 135.783807 
L 482.954055 134.518149 
L 484.637948 124.709302 
L 486.321841 117.115355 
L 488.005734 107.622922 
L 489.689627 104.142363 
L 491.373519 101.611048 
L 493.057412 87.055984 
L 494.741305 76.297893 
L 496.425198 63.008487 
L 498.109091 61.11 
L 498.109091 61.11 
" style="fill:none;stroke:#9467bd;stroke-linecap:square;stroke-width:1.75;"/>
   </g>
   <g id="line2d_23">
    <path clip-path="url(#pe63fb07210)" d="M 102.394266 332.761776 
L 104.078159 332.91 
L 129.336552 332.91 
L 131.020445 332.761776 
L 132.704338 332.317103 
L 136.072124 332.317103 
L 137.756017 331.872431 
L 141.123802 331.575983 
L 142.807695 331.279534 
L 144.491588 330.834862 
L 146.175481 330.093741 
L 149.543267 329.797293 
L 151.22716 329.945517 
L 152.911052 329.35262 
L 154.594945 329.35262 
L 156.278838 328.907948 
L 157.962731 328.611499 
L 159.646624 326.83281 
L 161.330517 326.684585 
L 163.01441 325.79524 
L 164.698303 325.350568 
L 166.382195 322.534309 
L 168.066088 320.459171 
L 169.749981 319.273378 
L 171.433874 317.346464 
L 173.117767 313.937308 
L 174.80166 311.565721 
L 176.485553 309.638807 
L 178.169445 307.118997 
L 181.537231 298.966668 
L 184.905017 286.219391 
L 186.58891 283.69958 
L 188.272803 279.549304 
L 189.956696 277.918838 
L 193.324481 271.693423 
L 195.008374 273.175665 
L 196.692267 273.175665 
L 198.37616 274.361458 
L 200.060053 275.8437 
L 201.743946 275.399027 
L 203.427839 278.36351 
L 205.111731 282.069114 
L 206.795624 283.69958 
L 208.479517 286.960511 
L 210.16341 284.885373 
L 211.847303 285.47827 
L 213.531196 287.849856 
L 215.215089 290.962564 
L 216.898982 290.073219 
L 220.266767 285.774718 
L 221.95066 287.405184 
L 223.634553 285.181822 
L 225.318446 283.69958 
L 227.002339 281.624442 
L 228.686232 282.513787 
L 230.370124 283.106683 
L 232.054017 287.998081 
L 233.73791 286.664063 
L 235.421803 292.000133 
L 237.105696 290.666115 
L 238.789589 287.849856 
L 240.473482 287.553408 
L 242.157375 291.55546 
L 243.841267 289.332098 
L 245.52516 288.590977 
L 247.209053 281.327994 
L 248.892946 278.067062 
L 250.576839 280.438649 
L 252.260732 277.474165 
L 253.944625 277.029493 
L 255.628518 279.252855 
L 257.31241 284.144253 
L 258.996303 285.626494 
L 260.680196 290.369667 
L 264.047982 297.929099 
L 265.731875 299.114892 
L 267.415768 299.263116 
L 269.099661 299.263116 
L 270.783553 305.192083 
L 272.467446 310.231704 
L 274.151339 310.528152 
L 277.519125 315.123101 
L 279.203018 314.38198 
L 280.886911 315.715998 
L 282.570803 316.901791 
L 284.254696 315.715998 
L 285.938589 316.901791 
L 287.622482 318.235809 
L 289.306375 318.680481 
L 290.990268 321.348516 
L 292.674161 322.089637 
L 294.358054 321.052067 
L 296.041946 322.682533 
L 297.725839 323.423654 
L 299.409732 323.423654 
L 301.093625 323.868326 
L 302.777518 324.164775 
L 304.461411 323.571878 
L 306.145304 324.905896 
L 307.829197 324.757671 
L 309.513089 324.905896 
L 311.196982 325.498792 
L 312.880875 325.647016 
L 314.564768 326.83281 
L 317.932554 327.425706 
L 321.300339 328.611499 
L 322.984232 329.056172 
L 326.352018 328.759724 
L 329.719804 328.166827 
L 331.403697 328.315051 
L 333.08759 327.870379 
L 334.771482 327.870379 
L 336.455375 328.166827 
L 338.139268 328.315051 
L 339.823161 328.907948 
L 341.507054 328.463275 
L 343.190947 328.611499 
L 344.87484 329.204396 
L 346.558733 328.315051 
L 348.242625 327.277482 
L 349.926518 327.870379 
L 351.610411 327.870379 
L 353.294304 328.315051 
L 354.978197 328.018603 
L 356.66209 327.129258 
L 358.345983 327.722155 
L 360.029876 329.056172 
L 361.713768 328.611499 
L 363.397661 327.870379 
L 365.081554 327.870379 
L 366.765447 326.981034 
L 368.44934 325.943465 
L 370.133233 325.647016 
L 371.817126 324.757671 
L 373.501018 324.164775 
L 378.552697 324.164775 
L 380.23659 325.647016 
L 381.920483 325.79524 
L 383.604376 325.79524 
L 385.288269 326.388137 
L 386.972161 327.129258 
L 388.656054 327.129258 
L 390.339947 327.57393 
L 392.02384 326.536361 
L 393.707733 327.129258 
L 395.391626 327.277482 
L 397.075519 326.388137 
L 398.759412 325.647016 
L 400.443304 325.498792 
L 402.127197 324.461223 
L 403.81109 324.164775 
L 405.494983 323.423654 
L 407.178876 323.720102 
L 410.546662 322.830757 
L 412.230555 322.534309 
L 415.59834 323.127206 
L 417.282233 322.089637 
L 418.966126 320.459171 
L 420.650019 319.71805 
L 422.333912 319.569826 
L 424.017805 318.976929 
L 425.701697 319.273378 
L 427.38559 319.866274 
L 429.069483 319.866274 
L 430.753376 321.200292 
L 432.437269 322.386085 
L 434.121162 323.423654 
L 435.805055 324.016551 
L 437.488948 324.312999 
L 439.17284 322.978982 
L 440.856733 322.682533 
L 442.540626 321.348516 
L 444.224519 320.459171 
L 445.908412 317.791136 
L 447.592305 316.753567 
L 449.276198 316.605343 
L 450.960091 316.901791 
L 452.643983 317.050015 
L 456.011769 317.050015 
L 457.695662 317.494688 
L 459.379555 318.680481 
L 461.063448 318.532257 
L 462.747341 318.235809 
L 464.431233 318.235809 
L 466.115126 317.93936 
L 467.799019 319.273378 
L 469.482912 319.71805 
L 471.166805 316.753567 
L 472.850698 316.753567 
L 474.534591 316.308894 
L 476.218484 316.012446 
L 477.902376 315.123101 
L 479.586269 310.379928 
L 481.270162 308.008342 
L 482.954055 306.674324 
L 484.637948 300.893582 
L 486.321841 296.150409 
L 488.005734 288.146305 
L 489.689627 281.772666 
L 491.373519 278.511735 
L 494.741305 266.802026 
L 496.425198 261.465957 
L 498.109091 259.539043 
L 498.109091 259.539043 
" style="fill:none;stroke:#8c564b;stroke-linecap:square;stroke-width:1.75;"/>
   </g>
   <g id="line2d_24">
    <path clip-path="url(#pe63fb07210)" d="M 142.807695 330.859614 
L 144.491588 331.269691 
L 146.175481 330.654575 
L 147.859374 329.834421 
L 149.543267 328.399151 
L 151.22716 327.578997 
L 152.911052 327.989074 
L 154.594945 325.733649 
L 156.278838 323.273186 
L 159.646624 315.071642 
L 161.330517 314.046449 
L 163.01441 310.560793 
L 166.382195 304.409635 
L 168.066088 297.643362 
L 171.433874 287.801509 
L 173.117767 279.394927 
L 174.80166 278.164695 
L 176.485553 271.398422 
L 178.169445 269.963152 
L 179.853338 265.247264 
L 181.537231 259.711222 
L 183.221124 256.225566 
L 184.905017 258.070913 
L 186.58891 253.355025 
L 188.272803 247.203868 
L 189.956696 234.081398 
L 191.640588 233.466282 
L 193.324481 230.80078 
L 195.008374 230.390703 
L 196.692267 232.441089 
L 198.37616 237.977131 
L 201.743946 256.635643 
L 203.427839 260.531376 
L 205.111731 270.988345 
L 206.795624 277.54958 
L 208.479517 278.164695 
L 210.16341 278.369734 
L 211.847303 281.240274 
L 213.531196 283.085622 
L 215.215089 284.72593 
L 218.582874 283.905776 
L 221.95066 277.754618 
L 223.634553 273.858885 
L 225.318446 270.783306 
L 227.002339 270.988345 
L 228.686232 261.556569 
L 230.370124 256.430604 
L 232.054017 254.585257 
L 233.73791 259.506183 
L 235.421803 265.247264 
L 237.105696 273.448808 
L 238.789589 274.268962 
L 240.473482 285.136008 
L 242.157375 290.67205 
L 243.841267 298.668555 
L 245.52516 300.923979 
L 247.209053 301.129018 
L 248.892946 300.923979 
L 250.576839 307.075137 
L 252.260732 310.355755 
L 253.944625 315.071642 
L 255.628518 317.122028 
L 257.31241 315.071642 
L 258.996303 315.481719 
L 260.680196 316.506912 
L 262.364089 314.866604 
L 264.047982 315.481719 
L 265.731875 317.327067 
L 267.415768 312.816218 
L 269.099661 314.251488 
L 270.783553 314.661565 
L 272.467446 317.122028 
L 274.151339 319.78753 
L 275.835232 320.607684 
L 277.519125 319.78753 
L 279.203018 324.913495 
L 280.886911 324.708456 
L 282.570803 325.118533 
L 284.254696 324.708456 
L 285.938589 322.042955 
L 287.622482 322.042955 
L 289.306375 322.863109 
L 290.990268 323.068147 
L 292.674161 324.503418 
L 294.358054 324.298379 
L 296.041946 324.913495 
L 297.725839 326.553804 
L 299.409732 327.989074 
L 301.093625 327.784035 
L 302.777518 327.989074 
L 304.461411 327.784035 
L 306.145304 328.399151 
L 307.829197 327.373958 
L 309.513089 328.194112 
L 311.196982 327.784035 
L 312.880875 327.989074 
L 314.564768 326.963881 
L 316.248661 326.758842 
L 317.932554 326.758842 
L 319.616447 327.578997 
L 322.984232 327.578997 
L 324.668125 328.60419 
L 326.352018 328.60419 
L 328.035911 328.399151 
L 329.719804 328.60419 
L 331.403697 328.194112 
L 333.08759 326.963881 
L 334.771482 326.348765 
L 336.455375 325.938688 
L 338.139268 326.963881 
L 339.823161 327.578997 
L 341.507054 326.553804 
L 343.190947 324.708456 
L 344.87484 326.143726 
L 346.558733 327.373958 
L 348.242625 326.963881 
L 349.926518 326.758842 
L 351.610411 326.143726 
L 353.294304 326.758842 
L 354.978197 327.784035 
L 356.66209 327.373958 
L 358.345983 325.323572 
L 360.029876 323.888302 
L 361.713768 321.427839 
L 363.397661 321.017762 
L 365.081554 321.2228 
L 366.765447 321.017762 
L 368.44934 320.607684 
L 370.133233 320.402646 
L 371.817126 321.017762 
L 373.501018 323.068147 
L 375.184911 324.09334 
L 376.868804 322.863109 
L 380.23659 321.632877 
L 381.920483 321.632877 
L 383.604376 322.042955 
L 385.288269 320.607684 
L 386.972161 319.78753 
L 388.656054 320.607684 
L 392.02384 321.427839 
L 393.707733 323.068147 
L 395.391626 321.2228 
L 397.075519 321.017762 
L 398.759412 320.607684 
L 400.443304 320.812723 
L 402.127197 319.992569 
L 403.81109 319.992569 
L 405.494983 318.762337 
L 407.178876 320.812723 
L 408.862769 320.607684 
L 410.546662 321.837916 
L 412.230555 322.042955 
L 413.914447 323.478225 
L 415.59834 324.298379 
L 417.282233 324.503418 
L 418.966126 324.913495 
L 420.650019 327.168919 
L 422.333912 326.348765 
L 424.017805 325.733649 
L 425.701697 326.553804 
L 427.38559 327.168919 
L 429.069483 328.399151 
L 430.753376 326.553804 
L 432.437269 325.938688 
L 435.805055 327.578997 
L 437.488948 326.348765 
L 439.17284 324.913495 
L 440.856733 322.042955 
L 442.540626 322.65807 
L 444.224519 321.632877 
L 445.908412 320.402646 
L 447.592305 318.147221 
L 449.276198 314.866604 
L 450.960091 314.661565 
L 452.643983 315.071642 
L 454.327876 315.276681 
L 456.011769 315.891797 
L 457.695662 315.686758 
L 459.379555 314.456527 
L 461.063448 316.711951 
L 462.747341 315.276681 
L 464.431233 315.481719 
L 466.115126 313.431334 
L 467.799019 310.560793 
L 469.482912 309.5356 
L 471.166805 307.690253 
L 472.850698 304.409635 
L 474.534591 299.488709 
L 476.218484 296.003053 
L 477.902376 290.67205 
L 479.586269 286.366239 
L 481.270162 282.470506 
L 482.954055 280.625158 
L 484.637948 275.704232 
L 486.321841 271.808499 
L 488.005734 263.196878 
L 489.689627 260.941453 
L 491.373519 256.430604 
L 493.057412 250.484485 
L 494.741305 244.128289 
L 496.425198 234.491475 
L 498.109091 233.67132 
L 498.109091 233.67132 
" style="fill:none;stroke:#e377c2;stroke-linecap:square;stroke-width:1.75;"/>
   </g>
   <g id="patch_3">
    <path d="M 72 346.5 
L 72 47.52 
" style="fill:none;stroke:#000000;stroke-linecap:square;stroke-linejoin:miter;stroke-width:0.8;"/>
   </g>
   <g id="patch_4">
    <path d="M 518.4 346.5 
L 518.4 47.52 
" style="fill:none;stroke:#000000;stroke-linecap:square;stroke-linejoin:miter;stroke-width:0.8;"/>
   </g>
   <g id="patch_5">
    <path d="M 72 346.5 
L 518.4 346.5 
" style="fill:none;stroke:#000000;stroke-linecap:square;stroke-linejoin:miter;stroke-width:0.8;"/>
   </g>
   <g id="patch_6">
    <path d="M 72 47.52 
L 518.4 47.52 
" style="fill:none;stroke:#000000;stroke-linecap:square;stroke-linejoin:miter;stroke-width:0.8;"/>
   </g>
   <g id="text_19">
    <!-- New Cases per Million (7 day rolling) -->
    <defs>
     <path d="M 9.8125 72.90625 
L 23.09375 72.90625 
L 55.421875 11.921875 
L 55.421875 72.90625 
L 64.984375 72.90625 
L 64.984375 0 
L 51.703125 0 
L 19.390625 60.984375 
L 19.390625 0 
L 9.8125 0 
z
" id="DejaVuSans-78"/>
     <path d="M 4.203125 54.6875 
L 13.1875 54.6875 
L 24.421875 12.015625 
L 35.59375 54.6875 
L 46.1875 54.6875 
L 57.421875 12.015625 
L 68.609375 54.6875 
L 77.59375 54.6875 
L 63.28125 0 
L 52.6875 0 
L 40.921875 44.828125 
L 29.109375 0 
L 18.5 0 
z
" id="DejaVuSans-119"/>
     <path id="DejaVuSans-32"/>
     <path d="M 64.40625 67.28125 
L 64.40625 56.890625 
Q 59.421875 61.53125 53.78125 63.8125 
Q 48.140625 66.109375 41.796875 66.109375 
Q 29.296875 66.109375 22.65625 58.46875 
Q 16.015625 50.828125 16.015625 36.375 
Q 16.015625 21.96875 22.65625 14.328125 
Q 29.296875 6.6875 41.796875 6.6875 
Q 48.140625 6.6875 53.78125 8.984375 
Q 59.421875 11.28125 64.40625 15.921875 
L 64.40625 5.609375 
Q 59.234375 2.09375 53.4375 0.328125 
Q 47.65625 -1.421875 41.21875 -1.421875 
Q 24.65625 -1.421875 15.125 8.703125 
Q 5.609375 18.84375 5.609375 36.375 
Q 5.609375 53.953125 15.125 64.078125 
Q 24.65625 74.21875 41.21875 74.21875 
Q 47.75 74.21875 53.53125 72.484375 
Q 59.328125 70.75 64.40625 67.28125 
z
" id="DejaVuSans-67"/>
     <path d="M 44.28125 53.078125 
L 44.28125 44.578125 
Q 40.484375 46.53125 36.375 47.5 
Q 32.28125 48.484375 27.875 48.484375 
Q 21.1875 48.484375 17.84375 46.4375 
Q 14.5 44.390625 14.5 40.28125 
Q 14.5 37.15625 16.890625 35.375 
Q 19.28125 33.59375 26.515625 31.984375 
L 29.59375 31.296875 
Q 39.15625 29.25 43.1875 25.515625 
Q 47.21875 21.78125 47.21875 15.09375 
Q 47.21875 7.46875 41.1875 3.015625 
Q 35.15625 -1.421875 24.609375 -1.421875 
Q 20.21875 -1.421875 15.453125 -0.5625 
Q 10.6875 0.296875 5.421875 2 
L 5.421875 11.28125 
Q 10.40625 8.6875 15.234375 7.390625 
Q 20.0625 6.109375 24.8125 6.109375 
Q 31.15625 6.109375 34.5625 8.28125 
Q 37.984375 10.453125 37.984375 14.40625 
Q 37.984375 18.0625 35.515625 20.015625 
Q 33.0625 21.96875 24.703125 23.78125 
L 21.578125 24.515625 
Q 13.234375 26.265625 9.515625 29.90625 
Q 5.8125 33.546875 5.8125 39.890625 
Q 5.8125 47.609375 11.28125 51.796875 
Q 16.75 56 26.8125 56 
Q 31.78125 56 36.171875 55.265625 
Q 40.578125 54.546875 44.28125 53.078125 
z
" id="DejaVuSans-115"/>
     <path d="M 18.109375 8.203125 
L 18.109375 -20.796875 
L 9.078125 -20.796875 
L 9.078125 54.6875 
L 18.109375 54.6875 
L 18.109375 46.390625 
Q 20.953125 51.265625 25.265625 53.625 
Q 29.59375 56 35.59375 56 
Q 45.5625 56 51.78125 48.09375 
Q 58.015625 40.1875 58.015625 27.296875 
Q 58.015625 14.40625 51.78125 6.484375 
Q 45.5625 -1.421875 35.59375 -1.421875 
Q 29.59375 -1.421875 25.265625 0.953125 
Q 20.953125 3.328125 18.109375 8.203125 
z
M 48.6875 27.296875 
Q 48.6875 37.203125 44.609375 42.84375 
Q 40.53125 48.484375 33.40625 48.484375 
Q 26.265625 48.484375 22.1875 42.84375 
Q 18.109375 37.203125 18.109375 27.296875 
Q 18.109375 17.390625 22.1875 11.75 
Q 26.265625 6.109375 33.40625 6.109375 
Q 40.53125 6.109375 44.609375 11.75 
Q 48.6875 17.390625 48.6875 27.296875 
z
" id="DejaVuSans-112"/>
     <path d="M 41.109375 46.296875 
Q 39.59375 47.171875 37.8125 47.578125 
Q 36.03125 48 33.890625 48 
Q 26.265625 48 22.1875 43.046875 
Q 18.109375 38.09375 18.109375 28.8125 
L 18.109375 0 
L 9.078125 0 
L 9.078125 54.6875 
L 18.109375 54.6875 
L 18.109375 46.1875 
Q 20.953125 51.171875 25.484375 53.578125 
Q 30.03125 56 36.53125 56 
Q 37.453125 56 38.578125 55.875 
Q 39.703125 55.765625 41.0625 55.515625 
z
" id="DejaVuSans-114"/>
     <path d="M 9.8125 72.90625 
L 24.515625 72.90625 
L 43.109375 23.296875 
L 61.8125 72.90625 
L 76.515625 72.90625 
L 76.515625 0 
L 66.890625 0 
L 66.890625 64.015625 
L 48.09375 14.015625 
L 38.1875 14.015625 
L 19.390625 64.015625 
L 19.390625 0 
L 9.8125 0 
z
" id="DejaVuSans-77"/>
     <path d="M 9.421875 54.6875 
L 18.40625 54.6875 
L 18.40625 0 
L 9.421875 0 
z
M 9.421875 75.984375 
L 18.40625 75.984375 
L 18.40625 64.59375 
L 9.421875 64.59375 
z
" id="DejaVuSans-105"/>
     <path d="M 9.421875 75.984375 
L 18.40625 75.984375 
L 18.40625 0 
L 9.421875 0 
z
" id="DejaVuSans-108"/>
     <path d="M 30.609375 48.390625 
Q 23.390625 48.390625 19.1875 42.75 
Q 14.984375 37.109375 14.984375 27.296875 
Q 14.984375 17.484375 19.15625 11.84375 
Q 23.34375 6.203125 30.609375 6.203125 
Q 37.796875 6.203125 41.984375 11.859375 
Q 46.1875 17.53125 46.1875 27.296875 
Q 46.1875 37.015625 41.984375 42.703125 
Q 37.796875 48.390625 30.609375 48.390625 
z
M 30.609375 56 
Q 42.328125 56 49.015625 48.375 
Q 55.71875 40.765625 55.71875 27.296875 
Q 55.71875 13.875 49.015625 6.21875 
Q 42.328125 -1.421875 30.609375 -1.421875 
Q 18.84375 -1.421875 12.171875 6.21875 
Q 5.515625 13.875 5.515625 27.296875 
Q 5.515625 40.765625 12.171875 48.375 
Q 18.84375 56 30.609375 56 
z
" id="DejaVuSans-111"/>
     <path d="M 54.890625 33.015625 
L 54.890625 0 
L 45.90625 0 
L 45.90625 32.71875 
Q 45.90625 40.484375 42.875 44.328125 
Q 39.84375 48.1875 33.796875 48.1875 
Q 26.515625 48.1875 22.3125 43.546875 
Q 18.109375 38.921875 18.109375 30.90625 
L 18.109375 0 
L 9.078125 0 
L 9.078125 54.6875 
L 18.109375 54.6875 
L 18.109375 46.1875 
Q 21.34375 51.125 25.703125 53.5625 
Q 30.078125 56 35.796875 56 
Q 45.21875 56 50.046875 50.171875 
Q 54.890625 44.34375 54.890625 33.015625 
z
" id="DejaVuSans-110"/>
     <path d="M 31 75.875 
Q 24.46875 64.65625 21.28125 53.65625 
Q 18.109375 42.671875 18.109375 31.390625 
Q 18.109375 20.125 21.3125 9.0625 
Q 24.515625 -2 31 -13.1875 
L 23.1875 -13.1875 
Q 15.875 -1.703125 12.234375 9.375 
Q 8.59375 20.453125 8.59375 31.390625 
Q 8.59375 42.28125 12.203125 53.3125 
Q 15.828125 64.359375 23.1875 75.875 
z
" id="DejaVuSans-40"/>
     <path d="M 45.40625 46.390625 
L 45.40625 75.984375 
L 54.390625 75.984375 
L 54.390625 0 
L 45.40625 0 
L 45.40625 8.203125 
Q 42.578125 3.328125 38.25 0.953125 
Q 33.9375 -1.421875 27.875 -1.421875 
Q 17.96875 -1.421875 11.734375 6.484375 
Q 5.515625 14.40625 5.515625 27.296875 
Q 5.515625 40.1875 11.734375 48.09375 
Q 17.96875 56 27.875 56 
Q 33.9375 56 38.25 53.625 
Q 42.578125 51.265625 45.40625 46.390625 
z
M 14.796875 27.296875 
Q 14.796875 17.390625 18.875 11.75 
Q 22.953125 6.109375 30.078125 6.109375 
Q 37.203125 6.109375 41.296875 11.75 
Q 45.40625 17.390625 45.40625 27.296875 
Q 45.40625 37.203125 41.296875 42.84375 
Q 37.203125 48.484375 30.078125 48.484375 
Q 22.953125 48.484375 18.875 42.84375 
Q 14.796875 37.203125 14.796875 27.296875 
z
" id="DejaVuSans-100"/>
     <path d="M 32.171875 -5.078125 
Q 28.375 -14.84375 24.75 -17.8125 
Q 21.140625 -20.796875 15.09375 -20.796875 
L 7.90625 -20.796875 
L 7.90625 -13.28125 
L 13.1875 -13.28125 
Q 16.890625 -13.28125 18.9375 -11.515625 
Q 21 -9.765625 23.484375 -3.21875 
L 25.09375 0.875 
L 2.984375 54.6875 
L 12.5 54.6875 
L 29.59375 11.921875 
L 46.6875 54.6875 
L 56.203125 54.6875 
z
" id="DejaVuSans-121"/>
     <path d="M 45.40625 27.984375 
Q 45.40625 37.75 41.375 43.109375 
Q 37.359375 48.484375 30.078125 48.484375 
Q 22.859375 48.484375 18.828125 43.109375 
Q 14.796875 37.75 14.796875 27.984375 
Q 14.796875 18.265625 18.828125 12.890625 
Q 22.859375 7.515625 30.078125 7.515625 
Q 37.359375 7.515625 41.375 12.890625 
Q 45.40625 18.265625 45.40625 27.984375 
z
M 54.390625 6.78125 
Q 54.390625 -7.171875 48.1875 -13.984375 
Q 42 -20.796875 29.203125 -20.796875 
Q 24.46875 -20.796875 20.265625 -20.09375 
Q 16.0625 -19.390625 12.109375 -17.921875 
L 12.109375 -9.1875 
Q 16.0625 -11.328125 19.921875 -12.34375 
Q 23.78125 -13.375 27.78125 -13.375 
Q 36.625 -13.375 41.015625 -8.765625 
Q 45.40625 -4.15625 45.40625 5.171875 
L 45.40625 9.625 
Q 42.625 4.78125 38.28125 2.390625 
Q 33.9375 0 27.875 0 
Q 17.828125 0 11.671875 7.65625 
Q 5.515625 15.328125 5.515625 27.984375 
Q 5.515625 40.671875 11.671875 48.328125 
Q 17.828125 56 27.875 56 
Q 33.9375 56 38.28125 53.609375 
Q 42.625 51.21875 45.40625 46.390625 
L 45.40625 54.6875 
L 54.390625 54.6875 
z
" id="DejaVuSans-103"/>
     <path d="M 8.015625 75.875 
L 15.828125 75.875 
Q 23.140625 64.359375 26.78125 53.3125 
Q 30.421875 42.28125 30.421875 31.390625 
Q 30.421875 20.453125 26.78125 9.375 
Q 23.140625 -1.703125 15.828125 -13.1875 
L 8.015625 -13.1875 
Q 14.5 -2 17.703125 9.0625 
Q 20.90625 20.125 20.90625 31.390625 
Q 20.90625 42.671875 17.703125 53.65625 
Q 14.5 64.65625 8.015625 75.875 
z
" id="DejaVuSans-41"/>
    </defs>
    <g transform="translate(185.424375 41.52)scale(0.12 -0.12)">
     <use xlink:href="#DejaVuSans-78"/>
     <use x="74.804688" xlink:href="#DejaVuSans-101"/>
     <use x="136.328125" xlink:href="#DejaVuSans-119"/>
     <use x="218.115234" xlink:href="#DejaVuSans-32"/>
     <use x="249.902344" xlink:href="#DejaVuSans-67"/>
     <use x="319.726562" xlink:href="#DejaVuSans-97"/>
     <use x="381.005859" xlink:href="#DejaVuSans-115"/>
     <use x="433.105469" xlink:href="#DejaVuSans-101"/>
     <use x="494.628906" xlink:href="#DejaVuSans-115"/>
     <use x="546.728516" xlink:href="#DejaVuSans-32"/>
     <use x="578.515625" xlink:href="#DejaVuSans-112"/>
     <use x="641.992188" xlink:href="#DejaVuSans-101"/>
     <use x="703.515625" xlink:href="#DejaVuSans-114"/>
     <use x="744.628906" xlink:href="#DejaVuSans-32"/>
     <use x="776.416016" xlink:href="#DejaVuSans-77"/>
     <use x="862.695312" xlink:href="#DejaVuSans-105"/>
     <use x="890.478516" xlink:href="#DejaVuSans-108"/>
     <use x="918.261719" xlink:href="#DejaVuSans-108"/>
     <use x="946.044922" xlink:href="#DejaVuSans-105"/>
     <use x="973.828125" xlink:href="#DejaVuSans-111"/>
     <use x="1035.009766" xlink:href="#DejaVuSans-110"/>
     <use x="1098.388672" xlink:href="#DejaVuSans-32"/>
     <use x="1130.175781" xlink:href="#DejaVuSans-40"/>
     <use x="1169.189453" xlink:href="#DejaVuSans-55"/>
     <use x="1232.8125" xlink:href="#DejaVuSans-32"/>
     <use x="1264.599609" xlink:href="#DejaVuSans-100"/>
     <use x="1328.076172" xlink:href="#DejaVuSans-97"/>
     <use x="1389.355469" xlink:href="#DejaVuSans-121"/>
     <use x="1448.535156" xlink:href="#DejaVuSans-32"/>
     <use x="1480.322266" xlink:href="#DejaVuSans-114"/>
     <use x="1519.185547" xlink:href="#DejaVuSans-111"/>
     <use x="1580.367188" xlink:href="#DejaVuSans-108"/>
     <use x="1608.150391" xlink:href="#DejaVuSans-108"/>
     <use x="1635.933594" xlink:href="#DejaVuSans-105"/>
     <use x="1663.716797" xlink:href="#DejaVuSans-110"/>
     <use x="1727.095703" xlink:href="#DejaVuSans-103"/>
     <use x="1790.572266" xlink:href="#DejaVuSans-41"/>
    </g>
   </g>
   <g id="legend_1">
    <g id="patch_7">
     <path d="M 79 158.266875 
L 246.635938 158.266875 
Q 248.635938 158.266875 248.635938 156.266875 
L 248.635938 54.52 
Q 248.635938 52.52 246.635938 52.52 
L 79 52.52 
Q 77 52.52 77 54.52 
L 77 156.266875 
Q 77 158.266875 79 158.266875 
z
" style="fill:#ffffff;opacity:0.8;stroke:#cccccc;stroke-linejoin:miter;stroke-width:0.3;"/>
    </g>
    <g id="line2d_25">
     <path d="M 81 60.618437 
L 101 60.618437 
" style="fill:none;stroke:#1f77b4;stroke-linecap:square;stroke-width:1.75;"/>
    </g>
    <g id="line2d_26"/>
    <g id="text_20">
     <!-- Cheshire West and Chester -->
     <defs>
      <path d="M 54.890625 33.015625 
L 54.890625 0 
L 45.90625 0 
L 45.90625 32.71875 
Q 45.90625 40.484375 42.875 44.328125 
Q 39.84375 48.1875 33.796875 48.1875 
Q 26.515625 48.1875 22.3125 43.546875 
Q 18.109375 38.921875 18.109375 30.90625 
L 18.109375 0 
L 9.078125 0 
L 9.078125 75.984375 
L 18.109375 75.984375 
L 18.109375 46.1875 
Q 21.34375 51.125 25.703125 53.5625 
Q 30.078125 56 35.796875 56 
Q 45.21875 56 50.046875 50.171875 
Q 54.890625 44.34375 54.890625 33.015625 
z
" id="DejaVuSans-104"/>
      <path d="M 3.328125 72.90625 
L 13.28125 72.90625 
L 28.609375 11.28125 
L 43.890625 72.90625 
L 54.984375 72.90625 
L 70.3125 11.28125 
L 85.59375 72.90625 
L 95.609375 72.90625 
L 77.296875 0 
L 64.890625 0 
L 49.515625 63.28125 
L 33.984375 0 
L 21.578125 0 
z
" id="DejaVuSans-87"/>
     </defs>
     <g transform="translate(109 64.118437)scale(0.1 -0.1)">
      <use xlink:href="#DejaVuSans-67"/>
      <use x="69.824219" xlink:href="#DejaVuSans-104"/>
      <use x="133.203125" xlink:href="#DejaVuSans-101"/>
      <use x="194.726562" xlink:href="#DejaVuSans-115"/>
      <use x="246.826172" xlink:href="#DejaVuSans-104"/>
      <use x="310.205078" xlink:href="#DejaVuSans-105"/>
      <use x="337.988281" xlink:href="#DejaVuSans-114"/>
      <use x="376.851562" xlink:href="#DejaVuSans-101"/>
      <use x="438.375" xlink:href="#DejaVuSans-32"/>
      <use x="470.162109" xlink:href="#DejaVuSans-87"/>
      <use x="563.164062" xlink:href="#DejaVuSans-101"/>
      <use x="624.6875" xlink:href="#DejaVuSans-115"/>
      <use x="676.787109" xlink:href="#DejaVuSans-116"/>
      <use x="715.996094" xlink:href="#DejaVuSans-32"/>
      <use x="747.783203" xlink:href="#DejaVuSans-97"/>
      <use x="809.0625" xlink:href="#DejaVuSans-110"/>
      <use x="872.441406" xlink:href="#DejaVuSans-100"/>
      <use x="935.917969" xlink:href="#DejaVuSans-32"/>
      <use x="967.705078" xlink:href="#DejaVuSans-67"/>
      <use x="1037.529297" xlink:href="#DejaVuSans-104"/>
      <use x="1100.908203" xlink:href="#DejaVuSans-101"/>
      <use x="1162.431641" xlink:href="#DejaVuSans-115"/>
      <use x="1214.53125" xlink:href="#DejaVuSans-116"/>
      <use x="1253.740234" xlink:href="#DejaVuSans-101"/>
      <use x="1315.263672" xlink:href="#DejaVuSans-114"/>
     </g>
    </g>
    <g id="line2d_27">
     <path d="M 81 75.296562 
L 101 75.296562 
" style="fill:none;stroke:#ff7f0e;stroke-linecap:square;stroke-width:1.75;"/>
    </g>
    <g id="line2d_28"/>
    <g id="text_21">
     <!-- Leicester -->
     <defs>
      <path d="M 9.8125 72.90625 
L 19.671875 72.90625 
L 19.671875 8.296875 
L 55.171875 8.296875 
L 55.171875 0 
L 9.8125 0 
z
" id="DejaVuSans-76"/>
      <path d="M 48.78125 52.59375 
L 48.78125 44.1875 
Q 44.96875 46.296875 41.140625 47.34375 
Q 37.3125 48.390625 33.40625 48.390625 
Q 24.65625 48.390625 19.8125 42.84375 
Q 14.984375 37.3125 14.984375 27.296875 
Q 14.984375 17.28125 19.8125 11.734375 
Q 24.65625 6.203125 33.40625 6.203125 
Q 37.3125 6.203125 41.140625 7.25 
Q 44.96875 8.296875 48.78125 10.40625 
L 48.78125 2.09375 
Q 45.015625 0.34375 40.984375 -0.53125 
Q 36.96875 -1.421875 32.421875 -1.421875 
Q 20.0625 -1.421875 12.78125 6.34375 
Q 5.515625 14.109375 5.515625 27.296875 
Q 5.515625 40.671875 12.859375 48.328125 
Q 20.21875 56 33.015625 56 
Q 37.15625 56 41.109375 55.140625 
Q 45.0625 54.296875 48.78125 52.59375 
z
" id="DejaVuSans-99"/>
     </defs>
     <g transform="translate(109 78.796562)scale(0.1 -0.1)">
      <use xlink:href="#DejaVuSans-76"/>
      <use x="53.962891" xlink:href="#DejaVuSans-101"/>
      <use x="115.486328" xlink:href="#DejaVuSans-105"/>
      <use x="143.269531" xlink:href="#DejaVuSans-99"/>
      <use x="198.25" xlink:href="#DejaVuSans-101"/>
      <use x="259.773438" xlink:href="#DejaVuSans-115"/>
      <use x="311.873047" xlink:href="#DejaVuSans-116"/>
      <use x="351.082031" xlink:href="#DejaVuSans-101"/>
      <use x="412.605469" xlink:href="#DejaVuSans-114"/>
     </g>
    </g>
    <g id="line2d_29">
     <path d="M 81 89.974687 
L 101 89.974687 
" style="fill:none;stroke:#2ca02c;stroke-linecap:square;stroke-width:1.75;"/>
    </g>
    <g id="line2d_30"/>
    <g id="text_22">
     <!-- Northumberland -->
     <defs>
      <path d="M 8.5 21.578125 
L 8.5 54.6875 
L 17.484375 54.6875 
L 17.484375 21.921875 
Q 17.484375 14.15625 20.5 10.265625 
Q 23.53125 6.390625 29.59375 6.390625 
Q 36.859375 6.390625 41.078125 11.03125 
Q 45.3125 15.671875 45.3125 23.6875 
L 45.3125 54.6875 
L 54.296875 54.6875 
L 54.296875 0 
L 45.3125 0 
L 45.3125 8.40625 
Q 42.046875 3.421875 37.71875 1 
Q 33.40625 -1.421875 27.6875 -1.421875 
Q 18.265625 -1.421875 13.375 4.4375 
Q 8.5 10.296875 8.5 21.578125 
z
M 31.109375 56 
z
" id="DejaVuSans-117"/>
      <path d="M 52 44.1875 
Q 55.375 50.25 60.0625 53.125 
Q 64.75 56 71.09375 56 
Q 79.640625 56 84.28125 50.015625 
Q 88.921875 44.046875 88.921875 33.015625 
L 88.921875 0 
L 79.890625 0 
L 79.890625 32.71875 
Q 79.890625 40.578125 77.09375 44.375 
Q 74.3125 48.1875 68.609375 48.1875 
Q 61.625 48.1875 57.5625 43.546875 
Q 53.515625 38.921875 53.515625 30.90625 
L 53.515625 0 
L 44.484375 0 
L 44.484375 32.71875 
Q 44.484375 40.625 41.703125 44.40625 
Q 38.921875 48.1875 33.109375 48.1875 
Q 26.21875 48.1875 22.15625 43.53125 
Q 18.109375 38.875 18.109375 30.90625 
L 18.109375 0 
L 9.078125 0 
L 9.078125 54.6875 
L 18.109375 54.6875 
L 18.109375 46.1875 
Q 21.1875 51.21875 25.484375 53.609375 
Q 29.78125 56 35.6875 56 
Q 41.65625 56 45.828125 52.96875 
Q 50 49.953125 52 44.1875 
z
" id="DejaVuSans-109"/>
      <path d="M 48.6875 27.296875 
Q 48.6875 37.203125 44.609375 42.84375 
Q 40.53125 48.484375 33.40625 48.484375 
Q 26.265625 48.484375 22.1875 42.84375 
Q 18.109375 37.203125 18.109375 27.296875 
Q 18.109375 17.390625 22.1875 11.75 
Q 26.265625 6.109375 33.40625 6.109375 
Q 40.53125 6.109375 44.609375 11.75 
Q 48.6875 17.390625 48.6875 27.296875 
z
M 18.109375 46.390625 
Q 20.953125 51.265625 25.265625 53.625 
Q 29.59375 56 35.59375 56 
Q 45.5625 56 51.78125 48.09375 
Q 58.015625 40.1875 58.015625 27.296875 
Q 58.015625 14.40625 51.78125 6.484375 
Q 45.5625 -1.421875 35.59375 -1.421875 
Q 29.59375 -1.421875 25.265625 0.953125 
Q 20.953125 3.328125 18.109375 8.203125 
L 18.109375 0 
L 9.078125 0 
L 9.078125 75.984375 
L 18.109375 75.984375 
z
" id="DejaVuSans-98"/>
     </defs>
     <g transform="translate(109 93.474687)scale(0.1 -0.1)">
      <use xlink:href="#DejaVuSans-78"/>
      <use x="74.804688" xlink:href="#DejaVuSans-111"/>
      <use x="135.986328" xlink:href="#DejaVuSans-114"/>
      <use x="177.099609" xlink:href="#DejaVuSans-116"/>
      <use x="216.308594" xlink:href="#DejaVuSans-104"/>
      <use x="279.6875" xlink:href="#DejaVuSans-117"/>
      <use x="343.066406" xlink:href="#DejaVuSans-109"/>
      <use x="440.478516" xlink:href="#DejaVuSans-98"/>
      <use x="503.955078" xlink:href="#DejaVuSans-101"/>
      <use x="565.478516" xlink:href="#DejaVuSans-114"/>
      <use x="606.591797" xlink:href="#DejaVuSans-108"/>
      <use x="634.375" xlink:href="#DejaVuSans-97"/>
      <use x="695.654297" xlink:href="#DejaVuSans-110"/>
      <use x="759.033203" xlink:href="#DejaVuSans-100"/>
     </g>
    </g>
    <g id="line2d_31">
     <path d="M 81 104.652812 
L 101 104.652812 
" style="fill:none;stroke:#d62728;stroke-linecap:square;stroke-width:1.75;"/>
    </g>
    <g id="line2d_32"/>
    <g id="text_23">
     <!-- North Yorkshire -->
     <defs>
      <path d="M -0.203125 72.90625 
L 10.40625 72.90625 
L 30.609375 42.921875 
L 50.6875 72.90625 
L 61.28125 72.90625 
L 35.5 34.71875 
L 35.5 0 
L 25.59375 0 
L 25.59375 34.71875 
z
" id="DejaVuSans-89"/>
      <path d="M 9.078125 75.984375 
L 18.109375 75.984375 
L 18.109375 31.109375 
L 44.921875 54.6875 
L 56.390625 54.6875 
L 27.390625 29.109375 
L 57.625 0 
L 45.90625 0 
L 18.109375 26.703125 
L 18.109375 0 
L 9.078125 0 
z
" id="DejaVuSans-107"/>
     </defs>
     <g transform="translate(109 108.152812)scale(0.1 -0.1)">
      <use xlink:href="#DejaVuSans-78"/>
      <use x="74.804688" xlink:href="#DejaVuSans-111"/>
      <use x="135.986328" xlink:href="#DejaVuSans-114"/>
      <use x="177.099609" xlink:href="#DejaVuSans-116"/>
      <use x="216.308594" xlink:href="#DejaVuSans-104"/>
      <use x="279.6875" xlink:href="#DejaVuSans-32"/>
      <use x="311.474609" xlink:href="#DejaVuSans-89"/>
      <use x="359.308594" xlink:href="#DejaVuSans-111"/>
      <use x="420.490234" xlink:href="#DejaVuSans-114"/>
      <use x="461.603516" xlink:href="#DejaVuSans-107"/>
      <use x="519.513672" xlink:href="#DejaVuSans-115"/>
      <use x="571.613281" xlink:href="#DejaVuSans-104"/>
      <use x="634.992188" xlink:href="#DejaVuSans-105"/>
      <use x="662.775391" xlink:href="#DejaVuSans-114"/>
      <use x="701.638672" xlink:href="#DejaVuSans-101"/>
     </g>
    </g>
    <g id="line2d_33">
     <path d="M 81 119.330938 
L 101 119.330938 
" style="fill:none;stroke:#9467bd;stroke-linecap:square;stroke-width:1.75;"/>
    </g>
    <g id="line2d_34"/>
    <g id="text_24">
     <!-- Wirral -->
     <g transform="translate(109 122.830938)scale(0.1 -0.1)">
      <use xlink:href="#DejaVuSans-87"/>
      <use x="96.626953" xlink:href="#DejaVuSans-105"/>
      <use x="124.410156" xlink:href="#DejaVuSans-114"/>
      <use x="163.773438" xlink:href="#DejaVuSans-114"/>
      <use x="204.886719" xlink:href="#DejaVuSans-97"/>
      <use x="266.166016" xlink:href="#DejaVuSans-108"/>
     </g>
    </g>
    <g id="line2d_35">
     <path d="M 81 134.009062 
L 101 134.009062 
" style="fill:none;stroke:#8c564b;stroke-linecap:square;stroke-width:1.75;"/>
    </g>
    <g id="line2d_36"/>
    <g id="text_25">
     <!-- Oxfordshire -->
     <defs>
      <path d="M 39.40625 66.21875 
Q 28.65625 66.21875 22.328125 58.203125 
Q 16.015625 50.203125 16.015625 36.375 
Q 16.015625 22.609375 22.328125 14.59375 
Q 28.65625 6.59375 39.40625 6.59375 
Q 50.140625 6.59375 56.421875 14.59375 
Q 62.703125 22.609375 62.703125 36.375 
Q 62.703125 50.203125 56.421875 58.203125 
Q 50.140625 66.21875 39.40625 66.21875 
z
M 39.40625 74.21875 
Q 54.734375 74.21875 63.90625 63.9375 
Q 73.09375 53.65625 73.09375 36.375 
Q 73.09375 19.140625 63.90625 8.859375 
Q 54.734375 -1.421875 39.40625 -1.421875 
Q 24.03125 -1.421875 14.8125 8.828125 
Q 5.609375 19.09375 5.609375 36.375 
Q 5.609375 53.65625 14.8125 63.9375 
Q 24.03125 74.21875 39.40625 74.21875 
z
" id="DejaVuSans-79"/>
      <path d="M 54.890625 54.6875 
L 35.109375 28.078125 
L 55.90625 0 
L 45.3125 0 
L 29.390625 21.484375 
L 13.484375 0 
L 2.875 0 
L 24.125 28.609375 
L 4.6875 54.6875 
L 15.28125 54.6875 
L 29.78125 35.203125 
L 44.28125 54.6875 
z
" id="DejaVuSans-120"/>
      <path d="M 37.109375 75.984375 
L 37.109375 68.5 
L 28.515625 68.5 
Q 23.6875 68.5 21.796875 66.546875 
Q 19.921875 64.59375 19.921875 59.515625 
L 19.921875 54.6875 
L 34.71875 54.6875 
L 34.71875 47.703125 
L 19.921875 47.703125 
L 19.921875 0 
L 10.890625 0 
L 10.890625 47.703125 
L 2.296875 47.703125 
L 2.296875 54.6875 
L 10.890625 54.6875 
L 10.890625 58.5 
Q 10.890625 67.625 15.140625 71.796875 
Q 19.390625 75.984375 28.609375 75.984375 
z
" id="DejaVuSans-102"/>
     </defs>
     <g transform="translate(109 137.509062)scale(0.1 -0.1)">
      <use xlink:href="#DejaVuSans-79"/>
      <use x="78.710938" xlink:href="#DejaVuSans-120"/>
      <use x="137.890625" xlink:href="#DejaVuSans-102"/>
      <use x="173.095703" xlink:href="#DejaVuSans-111"/>
      <use x="234.277344" xlink:href="#DejaVuSans-114"/>
      <use x="273.640625" xlink:href="#DejaVuSans-100"/>
      <use x="337.117188" xlink:href="#DejaVuSans-115"/>
      <use x="389.216797" xlink:href="#DejaVuSans-104"/>
      <use x="452.595703" xlink:href="#DejaVuSans-105"/>
      <use x="480.378906" xlink:href="#DejaVuSans-114"/>
      <use x="519.242188" xlink:href="#DejaVuSans-101"/>
     </g>
    </g>
    <g id="line2d_37">
     <path d="M 81 148.687187 
L 101 148.687187 
" style="fill:none;stroke:#e377c2;stroke-linecap:square;stroke-width:1.75;"/>
    </g>
    <g id="line2d_38"/>
    <g id="text_26">
     <!-- Cumbria -->
     <g transform="translate(109 152.187187)scale(0.1 -0.1)">
      <use xlink:href="#DejaVuSans-67"/>
      <use x="69.824219" xlink:href="#DejaVuSans-117"/>
      <use x="133.203125" xlink:href="#DejaVuSans-109"/>
      <use x="230.615234" xlink:href="#DejaVuSans-98"/>
      <use x="294.091797" xlink:href="#DejaVuSans-114"/>
      <use x="335.205078" xlink:href="#DejaVuSans-105"/>
      <use x="362.988281" xlink:href="#DejaVuSans-97"/>
     </g>
    </g>
   </g>
  </g>
 </g>
 <defs>
  <clipPath id="pe63fb07210">
   <rect height="298.98" width="446.4" x="72" y="47.52"/>
  </clipPath>
 </defs>
</svg>
