<?xml version="1.0" encoding="utf-8" standalone="no"?>
<!DOCTYPE svg PUBLIC "-//W3C//DTD SVG 1.1//EN"
  "http://www.w3.org/Graphics/SVG/1.1/DTD/svg11.dtd">
<!-- Created with matplotlib (https://matplotlib.org/) -->
<svg height="288pt" version="1.1" viewBox="0 0 432 288" width="432pt" xmlns="http://www.w3.org/2000/svg" xmlns:xlink="http://www.w3.org/1999/xlink">
 <metadata>
  <rdf:RDF xmlns:cc="http://creativecommons.org/ns#" xmlns:dc="http://purl.org/dc/elements/1.1/" xmlns:rdf="http://www.w3.org/1999/02/22-rdf-syntax-ns#">
   <cc:Work>
    <dc:type rdf:resource="http://purl.org/dc/dcmitype/StillImage"/>
    <dc:date>2020-12-10T15:22:48.070946</dc:date>
    <dc:format>image/svg+xml</dc:format>
    <dc:creator>
     <cc:Agent>
      <dc:title>Matplotlib v3.3.2, https://matplotlib.org/</dc:title>
     </cc:Agent>
    </dc:creator>
   </cc:Work>
  </rdf:RDF>
 </metadata>
 <defs>
  <style type="text/css">*{stroke-linecap:butt;stroke-linejoin:round;}</style>
 </defs>
 <g id="figure_1">
  <g id="patch_1">
   <path d="M 0 288 
L 432 288 
L 432 0 
L 0 0 
z
" style="fill:none;"/>
  </g>
  <g id="axes_1">
   <g id="patch_2">
    <path d="M 50.925 226.602246 
L 421.2 226.602246 
L 421.2 26.8 
L 50.925 26.8 
z
" style="fill:#ffffff;"/>
   </g>
   <g id="matplotlib.axis_1">
    <g id="xtick_1">
     <g id="line2d_1">
      <defs>
       <path d="M 0 0 
L 0 3.5 
" id="m05c2289077" style="stroke:#000000;stroke-width:0.8;"/>
      </defs>
      <g>
       <use style="stroke:#000000;stroke-width:0.8;" x="65.781408" xlink:href="#m05c2289077" y="226.602246"/>
      </g>
     </g>
     <g id="text_1">
      <!-- 2020-01 -->
      <g transform="translate(28.556587 261.074092)rotate(-30)scale(0.1 -0.1)">
       <defs>
        <path d="M 19.1875 8.296875 
L 53.609375 8.296875 
L 53.609375 0 
L 7.328125 0 
L 7.328125 8.296875 
Q 12.9375 14.109375 22.625 23.890625 
Q 32.328125 33.6875 34.8125 36.53125 
Q 39.546875 41.84375 41.421875 45.53125 
Q 43.3125 49.21875 43.3125 52.78125 
Q 43.3125 58.59375 39.234375 62.25 
Q 35.15625 65.921875 28.609375 65.921875 
Q 23.96875 65.921875 18.8125 64.3125 
Q 13.671875 62.703125 7.8125 59.421875 
L 7.8125 69.390625 
Q 13.765625 71.78125 18.9375 73 
Q 24.125 74.21875 28.421875 74.21875 
Q 39.75 74.21875 46.484375 68.546875 
Q 53.21875 62.890625 53.21875 53.421875 
Q 53.21875 48.921875 51.53125 44.890625 
Q 49.859375 40.875 45.40625 35.40625 
Q 44.1875 33.984375 37.640625 27.21875 
Q 31.109375 20.453125 19.1875 8.296875 
z
" id="DejaVuSans-50"/>
        <path d="M 31.78125 66.40625 
Q 24.171875 66.40625 20.328125 58.90625 
Q 16.5 51.421875 16.5 36.375 
Q 16.5 21.390625 20.328125 13.890625 
Q 24.171875 6.390625 31.78125 6.390625 
Q 39.453125 6.390625 43.28125 13.890625 
Q 47.125 21.390625 47.125 36.375 
Q 47.125 51.421875 43.28125 58.90625 
Q 39.453125 66.40625 31.78125 66.40625 
z
M 31.78125 74.21875 
Q 44.046875 74.21875 50.515625 64.515625 
Q 56.984375 54.828125 56.984375 36.375 
Q 56.984375 17.96875 50.515625 8.265625 
Q 44.046875 -1.421875 31.78125 -1.421875 
Q 19.53125 -1.421875 13.0625 8.265625 
Q 6.59375 17.96875 6.59375 36.375 
Q 6.59375 54.828125 13.0625 64.515625 
Q 19.53125 74.21875 31.78125 74.21875 
z
" id="DejaVuSans-48"/>
        <path d="M 4.890625 31.390625 
L 31.203125 31.390625 
L 31.203125 23.390625 
L 4.890625 23.390625 
z
" id="DejaVuSans-45"/>
        <path d="M 12.40625 8.296875 
L 28.515625 8.296875 
L 28.515625 63.921875 
L 10.984375 60.40625 
L 10.984375 69.390625 
L 28.421875 72.90625 
L 38.28125 72.90625 
L 38.28125 8.296875 
L 54.390625 8.296875 
L 54.390625 0 
L 12.40625 0 
z
" id="DejaVuSans-49"/>
       </defs>
       <use xlink:href="#DejaVuSans-50"/>
       <use x="63.623047" xlink:href="#DejaVuSans-48"/>
       <use x="127.246094" xlink:href="#DejaVuSans-50"/>
       <use x="190.869141" xlink:href="#DejaVuSans-48"/>
       <use x="254.492188" xlink:href="#DejaVuSans-45"/>
       <use x="290.576172" xlink:href="#DejaVuSans-48"/>
       <use x="354.199219" xlink:href="#DejaVuSans-49"/>
      </g>
     </g>
    </g>
    <g id="xtick_2">
     <g id="line2d_2">
      <g>
       <use style="stroke:#000000;stroke-width:0.8;" x="125.009614" xlink:href="#m05c2289077" y="226.602246"/>
      </g>
     </g>
     <g id="text_2">
      <!-- 2020-03 -->
      <g transform="translate(87.784793 261.074092)rotate(-30)scale(0.1 -0.1)">
       <defs>
        <path d="M 40.578125 39.3125 
Q 47.65625 37.796875 51.625 33 
Q 55.609375 28.21875 55.609375 21.1875 
Q 55.609375 10.40625 48.1875 4.484375 
Q 40.765625 -1.421875 27.09375 -1.421875 
Q 22.515625 -1.421875 17.65625 -0.515625 
Q 12.796875 0.390625 7.625 2.203125 
L 7.625 11.71875 
Q 11.71875 9.328125 16.59375 8.109375 
Q 21.484375 6.890625 26.8125 6.890625 
Q 36.078125 6.890625 40.9375 10.546875 
Q 45.796875 14.203125 45.796875 21.1875 
Q 45.796875 27.640625 41.28125 31.265625 
Q 36.765625 34.90625 28.71875 34.90625 
L 20.21875 34.90625 
L 20.21875 43.015625 
L 29.109375 43.015625 
Q 36.375 43.015625 40.234375 45.921875 
Q 44.09375 48.828125 44.09375 54.296875 
Q 44.09375 59.90625 40.109375 62.90625 
Q 36.140625 65.921875 28.71875 65.921875 
Q 24.65625 65.921875 20.015625 65.03125 
Q 15.375 64.15625 9.8125 62.3125 
L 9.8125 71.09375 
Q 15.4375 72.65625 20.34375 73.4375 
Q 25.25 74.21875 29.59375 74.21875 
Q 40.828125 74.21875 47.359375 69.109375 
Q 53.90625 64.015625 53.90625 55.328125 
Q 53.90625 49.265625 50.4375 45.09375 
Q 46.96875 40.921875 40.578125 39.3125 
z
" id="DejaVuSans-51"/>
       </defs>
       <use xlink:href="#DejaVuSans-50"/>
       <use x="63.623047" xlink:href="#DejaVuSans-48"/>
       <use x="127.246094" xlink:href="#DejaVuSans-50"/>
       <use x="190.869141" xlink:href="#DejaVuSans-48"/>
       <use x="254.492188" xlink:href="#DejaVuSans-45"/>
       <use x="290.576172" xlink:href="#DejaVuSans-48"/>
       <use x="354.199219" xlink:href="#DejaVuSans-51"/>
      </g>
     </g>
    </g>
    <g id="xtick_3">
     <g id="line2d_3">
      <g>
       <use style="stroke:#000000;stroke-width:0.8;" x="185.224957" xlink:href="#m05c2289077" y="226.602246"/>
      </g>
     </g>
     <g id="text_3">
      <!-- 2020-05 -->
      <g transform="translate(148.000136 261.074092)rotate(-30)scale(0.1 -0.1)">
       <defs>
        <path d="M 10.796875 72.90625 
L 49.515625 72.90625 
L 49.515625 64.59375 
L 19.828125 64.59375 
L 19.828125 46.734375 
Q 21.96875 47.46875 24.109375 47.828125 
Q 26.265625 48.1875 28.421875 48.1875 
Q 40.625 48.1875 47.75 41.5 
Q 54.890625 34.8125 54.890625 23.390625 
Q 54.890625 11.625 47.5625 5.09375 
Q 40.234375 -1.421875 26.90625 -1.421875 
Q 22.3125 -1.421875 17.546875 -0.640625 
Q 12.796875 0.140625 7.71875 1.703125 
L 7.71875 11.625 
Q 12.109375 9.234375 16.796875 8.0625 
Q 21.484375 6.890625 26.703125 6.890625 
Q 35.15625 6.890625 40.078125 11.328125 
Q 45.015625 15.765625 45.015625 23.390625 
Q 45.015625 31 40.078125 35.4375 
Q 35.15625 39.890625 26.703125 39.890625 
Q 22.75 39.890625 18.8125 39.015625 
Q 14.890625 38.140625 10.796875 36.28125 
z
" id="DejaVuSans-53"/>
       </defs>
       <use xlink:href="#DejaVuSans-50"/>
       <use x="63.623047" xlink:href="#DejaVuSans-48"/>
       <use x="127.246094" xlink:href="#DejaVuSans-50"/>
       <use x="190.869141" xlink:href="#DejaVuSans-48"/>
       <use x="254.492188" xlink:href="#DejaVuSans-45"/>
       <use x="290.576172" xlink:href="#DejaVuSans-48"/>
       <use x="354.199219" xlink:href="#DejaVuSans-53"/>
      </g>
     </g>
    </g>
    <g id="xtick_4">
     <g id="line2d_4">
      <g>
       <use style="stroke:#000000;stroke-width:0.8;" x="245.440299" xlink:href="#m05c2289077" y="226.602246"/>
      </g>
     </g>
     <g id="text_4">
      <!-- 2020-07 -->
      <g transform="translate(208.215478 261.074092)rotate(-30)scale(0.1 -0.1)">
       <defs>
        <path d="M 8.203125 72.90625 
L 55.078125 72.90625 
L 55.078125 68.703125 
L 28.609375 0 
L 18.3125 0 
L 43.21875 64.59375 
L 8.203125 64.59375 
z
" id="DejaVuSans-55"/>
       </defs>
       <use xlink:href="#DejaVuSans-50"/>
       <use x="63.623047" xlink:href="#DejaVuSans-48"/>
       <use x="127.246094" xlink:href="#DejaVuSans-50"/>
       <use x="190.869141" xlink:href="#DejaVuSans-48"/>
       <use x="254.492188" xlink:href="#DejaVuSans-45"/>
       <use x="290.576172" xlink:href="#DejaVuSans-48"/>
       <use x="354.199219" xlink:href="#DejaVuSans-55"/>
      </g>
     </g>
    </g>
    <g id="xtick_5">
     <g id="line2d_5">
      <g>
       <use style="stroke:#000000;stroke-width:0.8;" x="306.642779" xlink:href="#m05c2289077" y="226.602246"/>
      </g>
     </g>
     <g id="text_5">
      <!-- 2020-09 -->
      <g transform="translate(269.417958 261.074092)rotate(-30)scale(0.1 -0.1)">
       <defs>
        <path d="M 10.984375 1.515625 
L 10.984375 10.5 
Q 14.703125 8.734375 18.5 7.8125 
Q 22.3125 6.890625 25.984375 6.890625 
Q 35.75 6.890625 40.890625 13.453125 
Q 46.046875 20.015625 46.78125 33.40625 
Q 43.953125 29.203125 39.59375 26.953125 
Q 35.25 24.703125 29.984375 24.703125 
Q 19.046875 24.703125 12.671875 31.3125 
Q 6.296875 37.9375 6.296875 49.421875 
Q 6.296875 60.640625 12.9375 67.421875 
Q 19.578125 74.21875 30.609375 74.21875 
Q 43.265625 74.21875 49.921875 64.515625 
Q 56.59375 54.828125 56.59375 36.375 
Q 56.59375 19.140625 48.40625 8.859375 
Q 40.234375 -1.421875 26.421875 -1.421875 
Q 22.703125 -1.421875 18.890625 -0.6875 
Q 15.09375 0.046875 10.984375 1.515625 
z
M 30.609375 32.421875 
Q 37.25 32.421875 41.125 36.953125 
Q 45.015625 41.5 45.015625 49.421875 
Q 45.015625 57.28125 41.125 61.84375 
Q 37.25 66.40625 30.609375 66.40625 
Q 23.96875 66.40625 20.09375 61.84375 
Q 16.21875 57.28125 16.21875 49.421875 
Q 16.21875 41.5 20.09375 36.953125 
Q 23.96875 32.421875 30.609375 32.421875 
z
" id="DejaVuSans-57"/>
       </defs>
       <use xlink:href="#DejaVuSans-50"/>
       <use x="63.623047" xlink:href="#DejaVuSans-48"/>
       <use x="127.246094" xlink:href="#DejaVuSans-50"/>
       <use x="190.869141" xlink:href="#DejaVuSans-48"/>
       <use x="254.492188" xlink:href="#DejaVuSans-45"/>
       <use x="290.576172" xlink:href="#DejaVuSans-48"/>
       <use x="354.199219" xlink:href="#DejaVuSans-57"/>
      </g>
     </g>
    </g>
    <g id="xtick_6">
     <g id="line2d_6">
      <g>
       <use style="stroke:#000000;stroke-width:0.8;" x="366.858121" xlink:href="#m05c2289077" y="226.602246"/>
      </g>
     </g>
     <g id="text_6">
      <!-- 2020-11 -->
      <g transform="translate(329.6333 261.074092)rotate(-30)scale(0.1 -0.1)">
       <use xlink:href="#DejaVuSans-50"/>
       <use x="63.623047" xlink:href="#DejaVuSans-48"/>
       <use x="127.246094" xlink:href="#DejaVuSans-50"/>
       <use x="190.869141" xlink:href="#DejaVuSans-48"/>
       <use x="254.492188" xlink:href="#DejaVuSans-45"/>
       <use x="290.576172" xlink:href="#DejaVuSans-49"/>
       <use x="354.199219" xlink:href="#DejaVuSans-49"/>
      </g>
     </g>
    </g>
    <g id="text_7">
     <!-- Date -->
     <g transform="translate(224.111719 274.473592)scale(0.1 -0.1)">
      <defs>
       <path d="M 19.671875 64.796875 
L 19.671875 8.109375 
L 31.59375 8.109375 
Q 46.6875 8.109375 53.6875 14.9375 
Q 60.6875 21.78125 60.6875 36.53125 
Q 60.6875 51.171875 53.6875 57.984375 
Q 46.6875 64.796875 31.59375 64.796875 
z
M 9.8125 72.90625 
L 30.078125 72.90625 
Q 51.265625 72.90625 61.171875 64.09375 
Q 71.09375 55.28125 71.09375 36.53125 
Q 71.09375 17.671875 61.125 8.828125 
Q 51.171875 0 30.078125 0 
L 9.8125 0 
z
" id="DejaVuSans-68"/>
       <path d="M 34.28125 27.484375 
Q 23.390625 27.484375 19.1875 25 
Q 14.984375 22.515625 14.984375 16.5 
Q 14.984375 11.71875 18.140625 8.90625 
Q 21.296875 6.109375 26.703125 6.109375 
Q 34.1875 6.109375 38.703125 11.40625 
Q 43.21875 16.703125 43.21875 25.484375 
L 43.21875 27.484375 
z
M 52.203125 31.203125 
L 52.203125 0 
L 43.21875 0 
L 43.21875 8.296875 
Q 40.140625 3.328125 35.546875 0.953125 
Q 30.953125 -1.421875 24.3125 -1.421875 
Q 15.921875 -1.421875 10.953125 3.296875 
Q 6 8.015625 6 15.921875 
Q 6 25.140625 12.171875 29.828125 
Q 18.359375 34.515625 30.609375 34.515625 
L 43.21875 34.515625 
L 43.21875 35.40625 
Q 43.21875 41.609375 39.140625 45 
Q 35.0625 48.390625 27.6875 48.390625 
Q 23 48.390625 18.546875 47.265625 
Q 14.109375 46.140625 10.015625 43.890625 
L 10.015625 52.203125 
Q 14.9375 54.109375 19.578125 55.046875 
Q 24.21875 56 28.609375 56 
Q 40.484375 56 46.34375 49.84375 
Q 52.203125 43.703125 52.203125 31.203125 
z
" id="DejaVuSans-97"/>
       <path d="M 18.3125 70.21875 
L 18.3125 54.6875 
L 36.8125 54.6875 
L 36.8125 47.703125 
L 18.3125 47.703125 
L 18.3125 18.015625 
Q 18.3125 11.328125 20.140625 9.421875 
Q 21.96875 7.515625 27.59375 7.515625 
L 36.8125 7.515625 
L 36.8125 0 
L 27.59375 0 
Q 17.1875 0 13.234375 3.875 
Q 9.28125 7.765625 9.28125 18.015625 
L 9.28125 47.703125 
L 2.6875 47.703125 
L 2.6875 54.6875 
L 9.28125 54.6875 
L 9.28125 70.21875 
z
" id="DejaVuSans-116"/>
       <path d="M 56.203125 29.59375 
L 56.203125 25.203125 
L 14.890625 25.203125 
Q 15.484375 15.921875 20.484375 11.0625 
Q 25.484375 6.203125 34.421875 6.203125 
Q 39.59375 6.203125 44.453125 7.46875 
Q 49.3125 8.734375 54.109375 11.28125 
L 54.109375 2.78125 
Q 49.265625 0.734375 44.1875 -0.34375 
Q 39.109375 -1.421875 33.890625 -1.421875 
Q 20.796875 -1.421875 13.15625 6.1875 
Q 5.515625 13.8125 5.515625 26.8125 
Q 5.515625 40.234375 12.765625 48.109375 
Q 20.015625 56 32.328125 56 
Q 43.359375 56 49.78125 48.890625 
Q 56.203125 41.796875 56.203125 29.59375 
z
M 47.21875 32.234375 
Q 47.125 39.59375 43.09375 43.984375 
Q 39.0625 48.390625 32.421875 48.390625 
Q 24.90625 48.390625 20.390625 44.140625 
Q 15.875 39.890625 15.1875 32.171875 
z
" id="DejaVuSans-101"/>
      </defs>
      <use xlink:href="#DejaVuSans-68"/>
      <use x="77.001953" xlink:href="#DejaVuSans-97"/>
      <use x="138.28125" xlink:href="#DejaVuSans-116"/>
      <use x="177.490234" xlink:href="#DejaVuSans-101"/>
     </g>
    </g>
   </g>
   <g id="matplotlib.axis_2">
    <g id="ytick_1">
     <g id="line2d_7">
      <defs>
       <path d="M 0 0 
L -3.5 0 
" id="mb1db891b97" style="stroke:#000000;stroke-width:0.8;"/>
      </defs>
      <g>
       <use style="stroke:#000000;stroke-width:0.8;" x="50.925" xlink:href="#mb1db891b97" y="217.520326"/>
      </g>
     </g>
     <g id="text_8">
      <!-- 0 -->
      <g transform="translate(37.5625 221.319544)scale(0.1 -0.1)">
       <use xlink:href="#DejaVuSans-48"/>
      </g>
     </g>
    </g>
    <g id="ytick_2">
     <g id="line2d_8">
      <g>
       <use style="stroke:#000000;stroke-width:0.8;" x="50.925" xlink:href="#mb1db891b97" y="183.873895"/>
      </g>
     </g>
     <g id="text_9">
      <!-- 100 -->
      <g transform="translate(24.8375 187.673114)scale(0.1 -0.1)">
       <use xlink:href="#DejaVuSans-49"/>
       <use x="63.623047" xlink:href="#DejaVuSans-48"/>
       <use x="127.246094" xlink:href="#DejaVuSans-48"/>
      </g>
     </g>
    </g>
    <g id="ytick_3">
     <g id="line2d_9">
      <g>
       <use style="stroke:#000000;stroke-width:0.8;" x="50.925" xlink:href="#mb1db891b97" y="150.227464"/>
      </g>
     </g>
     <g id="text_10">
      <!-- 200 -->
      <g transform="translate(24.8375 154.026683)scale(0.1 -0.1)">
       <use xlink:href="#DejaVuSans-50"/>
       <use x="63.623047" xlink:href="#DejaVuSans-48"/>
       <use x="127.246094" xlink:href="#DejaVuSans-48"/>
      </g>
     </g>
    </g>
    <g id="ytick_4">
     <g id="line2d_10">
      <g>
       <use style="stroke:#000000;stroke-width:0.8;" x="50.925" xlink:href="#mb1db891b97" y="116.581034"/>
      </g>
     </g>
     <g id="text_11">
      <!-- 300 -->
      <g transform="translate(24.8375 120.380252)scale(0.1 -0.1)">
       <use xlink:href="#DejaVuSans-51"/>
       <use x="63.623047" xlink:href="#DejaVuSans-48"/>
       <use x="127.246094" xlink:href="#DejaVuSans-48"/>
      </g>
     </g>
    </g>
    <g id="ytick_5">
     <g id="line2d_11">
      <g>
       <use style="stroke:#000000;stroke-width:0.8;" x="50.925" xlink:href="#mb1db891b97" y="82.934603"/>
      </g>
     </g>
     <g id="text_12">
      <!-- 400 -->
      <g transform="translate(24.8375 86.733822)scale(0.1 -0.1)">
       <defs>
        <path d="M 37.796875 64.3125 
L 12.890625 25.390625 
L 37.796875 25.390625 
z
M 35.203125 72.90625 
L 47.609375 72.90625 
L 47.609375 25.390625 
L 58.015625 25.390625 
L 58.015625 17.1875 
L 47.609375 17.1875 
L 47.609375 0 
L 37.796875 0 
L 37.796875 17.1875 
L 4.890625 17.1875 
L 4.890625 26.703125 
z
" id="DejaVuSans-52"/>
       </defs>
       <use xlink:href="#DejaVuSans-52"/>
       <use x="63.623047" xlink:href="#DejaVuSans-48"/>
       <use x="127.246094" xlink:href="#DejaVuSans-48"/>
      </g>
     </g>
    </g>
    <g id="ytick_6">
     <g id="line2d_12">
      <g>
       <use style="stroke:#000000;stroke-width:0.8;" x="50.925" xlink:href="#mb1db891b97" y="49.288172"/>
      </g>
     </g>
     <g id="text_13">
      <!-- 500 -->
      <g transform="translate(24.8375 53.087391)scale(0.1 -0.1)">
       <use xlink:href="#DejaVuSans-53"/>
       <use x="63.623047" xlink:href="#DejaVuSans-48"/>
       <use x="127.246094" xlink:href="#DejaVuSans-48"/>
      </g>
     </g>
    </g>
    <g id="text_14">
     <!-- New cases per million population -->
     <g transform="translate(18.757813 209.63081)rotate(-90)scale(0.1 -0.1)">
      <defs>
       <path d="M 9.8125 72.90625 
L 23.09375 72.90625 
L 55.421875 11.921875 
L 55.421875 72.90625 
L 64.984375 72.90625 
L 64.984375 0 
L 51.703125 0 
L 19.390625 60.984375 
L 19.390625 0 
L 9.8125 0 
z
" id="DejaVuSans-78"/>
       <path d="M 4.203125 54.6875 
L 13.1875 54.6875 
L 24.421875 12.015625 
L 35.59375 54.6875 
L 46.1875 54.6875 
L 57.421875 12.015625 
L 68.609375 54.6875 
L 77.59375 54.6875 
L 63.28125 0 
L 52.6875 0 
L 40.921875 44.828125 
L 29.109375 0 
L 18.5 0 
z
" id="DejaVuSans-119"/>
       <path id="DejaVuSans-32"/>
       <path d="M 48.78125 52.59375 
L 48.78125 44.1875 
Q 44.96875 46.296875 41.140625 47.34375 
Q 37.3125 48.390625 33.40625 48.390625 
Q 24.65625 48.390625 19.8125 42.84375 
Q 14.984375 37.3125 14.984375 27.296875 
Q 14.984375 17.28125 19.8125 11.734375 
Q 24.65625 6.203125 33.40625 6.203125 
Q 37.3125 6.203125 41.140625 7.25 
Q 44.96875 8.296875 48.78125 10.40625 
L 48.78125 2.09375 
Q 45.015625 0.34375 40.984375 -0.53125 
Q 36.96875 -1.421875 32.421875 -1.421875 
Q 20.0625 -1.421875 12.78125 6.34375 
Q 5.515625 14.109375 5.515625 27.296875 
Q 5.515625 40.671875 12.859375 48.328125 
Q 20.21875 56 33.015625 56 
Q 37.15625 56 41.109375 55.140625 
Q 45.0625 54.296875 48.78125 52.59375 
z
" id="DejaVuSans-99"/>
       <path d="M 44.28125 53.078125 
L 44.28125 44.578125 
Q 40.484375 46.53125 36.375 47.5 
Q 32.28125 48.484375 27.875 48.484375 
Q 21.1875 48.484375 17.84375 46.4375 
Q 14.5 44.390625 14.5 40.28125 
Q 14.5 37.15625 16.890625 35.375 
Q 19.28125 33.59375 26.515625 31.984375 
L 29.59375 31.296875 
Q 39.15625 29.25 43.1875 25.515625 
Q 47.21875 21.78125 47.21875 15.09375 
Q 47.21875 7.46875 41.1875 3.015625 
Q 35.15625 -1.421875 24.609375 -1.421875 
Q 20.21875 -1.421875 15.453125 -0.5625 
Q 10.6875 0.296875 5.421875 2 
L 5.421875 11.28125 
Q 10.40625 8.6875 15.234375 7.390625 
Q 20.0625 6.109375 24.8125 6.109375 
Q 31.15625 6.109375 34.5625 8.28125 
Q 37.984375 10.453125 37.984375 14.40625 
Q 37.984375 18.0625 35.515625 20.015625 
Q 33.0625 21.96875 24.703125 23.78125 
L 21.578125 24.515625 
Q 13.234375 26.265625 9.515625 29.90625 
Q 5.8125 33.546875 5.8125 39.890625 
Q 5.8125 47.609375 11.28125 51.796875 
Q 16.75 56 26.8125 56 
Q 31.78125 56 36.171875 55.265625 
Q 40.578125 54.546875 44.28125 53.078125 
z
" id="DejaVuSans-115"/>
       <path d="M 18.109375 8.203125 
L 18.109375 -20.796875 
L 9.078125 -20.796875 
L 9.078125 54.6875 
L 18.109375 54.6875 
L 18.109375 46.390625 
Q 20.953125 51.265625 25.265625 53.625 
Q 29.59375 56 35.59375 56 
Q 45.5625 56 51.78125 48.09375 
Q 58.015625 40.1875 58.015625 27.296875 
Q 58.015625 14.40625 51.78125 6.484375 
Q 45.5625 -1.421875 35.59375 -1.421875 
Q 29.59375 -1.421875 25.265625 0.953125 
Q 20.953125 3.328125 18.109375 8.203125 
z
M 48.6875 27.296875 
Q 48.6875 37.203125 44.609375 42.84375 
Q 40.53125 48.484375 33.40625 48.484375 
Q 26.265625 48.484375 22.1875 42.84375 
Q 18.109375 37.203125 18.109375 27.296875 
Q 18.109375 17.390625 22.1875 11.75 
Q 26.265625 6.109375 33.40625 6.109375 
Q 40.53125 6.109375 44.609375 11.75 
Q 48.6875 17.390625 48.6875 27.296875 
z
" id="DejaVuSans-112"/>
       <path d="M 41.109375 46.296875 
Q 39.59375 47.171875 37.8125 47.578125 
Q 36.03125 48 33.890625 48 
Q 26.265625 48 22.1875 43.046875 
Q 18.109375 38.09375 18.109375 28.8125 
L 18.109375 0 
L 9.078125 0 
L 9.078125 54.6875 
L 18.109375 54.6875 
L 18.109375 46.1875 
Q 20.953125 51.171875 25.484375 53.578125 
Q 30.03125 56 36.53125 56 
Q 37.453125 56 38.578125 55.875 
Q 39.703125 55.765625 41.0625 55.515625 
z
" id="DejaVuSans-114"/>
       <path d="M 52 44.1875 
Q 55.375 50.25 60.0625 53.125 
Q 64.75 56 71.09375 56 
Q 79.640625 56 84.28125 50.015625 
Q 88.921875 44.046875 88.921875 33.015625 
L 88.921875 0 
L 79.890625 0 
L 79.890625 32.71875 
Q 79.890625 40.578125 77.09375 44.375 
Q 74.3125 48.1875 68.609375 48.1875 
Q 61.625 48.1875 57.5625 43.546875 
Q 53.515625 38.921875 53.515625 30.90625 
L 53.515625 0 
L 44.484375 0 
L 44.484375 32.71875 
Q 44.484375 40.625 41.703125 44.40625 
Q 38.921875 48.1875 33.109375 48.1875 
Q 26.21875 48.1875 22.15625 43.53125 
Q 18.109375 38.875 18.109375 30.90625 
L 18.109375 0 
L 9.078125 0 
L 9.078125 54.6875 
L 18.109375 54.6875 
L 18.109375 46.1875 
Q 21.1875 51.21875 25.484375 53.609375 
Q 29.78125 56 35.6875 56 
Q 41.65625 56 45.828125 52.96875 
Q 50 49.953125 52 44.1875 
z
" id="DejaVuSans-109"/>
       <path d="M 9.421875 54.6875 
L 18.40625 54.6875 
L 18.40625 0 
L 9.421875 0 
z
M 9.421875 75.984375 
L 18.40625 75.984375 
L 18.40625 64.59375 
L 9.421875 64.59375 
z
" id="DejaVuSans-105"/>
       <path d="M 9.421875 75.984375 
L 18.40625 75.984375 
L 18.40625 0 
L 9.421875 0 
z
" id="DejaVuSans-108"/>
       <path d="M 30.609375 48.390625 
Q 23.390625 48.390625 19.1875 42.75 
Q 14.984375 37.109375 14.984375 27.296875 
Q 14.984375 17.484375 19.15625 11.84375 
Q 23.34375 6.203125 30.609375 6.203125 
Q 37.796875 6.203125 41.984375 11.859375 
Q 46.1875 17.53125 46.1875 27.296875 
Q 46.1875 37.015625 41.984375 42.703125 
Q 37.796875 48.390625 30.609375 48.390625 
z
M 30.609375 56 
Q 42.328125 56 49.015625 48.375 
Q 55.71875 40.765625 55.71875 27.296875 
Q 55.71875 13.875 49.015625 6.21875 
Q 42.328125 -1.421875 30.609375 -1.421875 
Q 18.84375 -1.421875 12.171875 6.21875 
Q 5.515625 13.875 5.515625 27.296875 
Q 5.515625 40.765625 12.171875 48.375 
Q 18.84375 56 30.609375 56 
z
" id="DejaVuSans-111"/>
       <path d="M 54.890625 33.015625 
L 54.890625 0 
L 45.90625 0 
L 45.90625 32.71875 
Q 45.90625 40.484375 42.875 44.328125 
Q 39.84375 48.1875 33.796875 48.1875 
Q 26.515625 48.1875 22.3125 43.546875 
Q 18.109375 38.921875 18.109375 30.90625 
L 18.109375 0 
L 9.078125 0 
L 9.078125 54.6875 
L 18.109375 54.6875 
L 18.109375 46.1875 
Q 21.34375 51.125 25.703125 53.5625 
Q 30.078125 56 35.796875 56 
Q 45.21875 56 50.046875 50.171875 
Q 54.890625 44.34375 54.890625 33.015625 
z
" id="DejaVuSans-110"/>
       <path d="M 8.5 21.578125 
L 8.5 54.6875 
L 17.484375 54.6875 
L 17.484375 21.921875 
Q 17.484375 14.15625 20.5 10.265625 
Q 23.53125 6.390625 29.59375 6.390625 
Q 36.859375 6.390625 41.078125 11.03125 
Q 45.3125 15.671875 45.3125 23.6875 
L 45.3125 54.6875 
L 54.296875 54.6875 
L 54.296875 0 
L 45.3125 0 
L 45.3125 8.40625 
Q 42.046875 3.421875 37.71875 1 
Q 33.40625 -1.421875 27.6875 -1.421875 
Q 18.265625 -1.421875 13.375 4.4375 
Q 8.5 10.296875 8.5 21.578125 
z
M 31.109375 56 
z
" id="DejaVuSans-117"/>
      </defs>
      <use xlink:href="#DejaVuSans-78"/>
      <use x="74.804688" xlink:href="#DejaVuSans-101"/>
      <use x="136.328125" xlink:href="#DejaVuSans-119"/>
      <use x="218.115234" xlink:href="#DejaVuSans-32"/>
      <use x="249.902344" xlink:href="#DejaVuSans-99"/>
      <use x="304.882812" xlink:href="#DejaVuSans-97"/>
      <use x="366.162109" xlink:href="#DejaVuSans-115"/>
      <use x="418.261719" xlink:href="#DejaVuSans-101"/>
      <use x="479.785156" xlink:href="#DejaVuSans-115"/>
      <use x="531.884766" xlink:href="#DejaVuSans-32"/>
      <use x="563.671875" xlink:href="#DejaVuSans-112"/>
      <use x="627.148438" xlink:href="#DejaVuSans-101"/>
      <use x="688.671875" xlink:href="#DejaVuSans-114"/>
      <use x="729.785156" xlink:href="#DejaVuSans-32"/>
      <use x="761.572266" xlink:href="#DejaVuSans-109"/>
      <use x="858.984375" xlink:href="#DejaVuSans-105"/>
      <use x="886.767578" xlink:href="#DejaVuSans-108"/>
      <use x="914.550781" xlink:href="#DejaVuSans-108"/>
      <use x="942.333984" xlink:href="#DejaVuSans-105"/>
      <use x="970.117188" xlink:href="#DejaVuSans-111"/>
      <use x="1031.298828" xlink:href="#DejaVuSans-110"/>
      <use x="1094.677734" xlink:href="#DejaVuSans-32"/>
      <use x="1126.464844" xlink:href="#DejaVuSans-112"/>
      <use x="1189.941406" xlink:href="#DejaVuSans-111"/>
      <use x="1251.123047" xlink:href="#DejaVuSans-112"/>
      <use x="1314.599609" xlink:href="#DejaVuSans-117"/>
      <use x="1377.978516" xlink:href="#DejaVuSans-108"/>
      <use x="1405.761719" xlink:href="#DejaVuSans-97"/>
      <use x="1467.041016" xlink:href="#DejaVuSans-116"/>
      <use x="1506.25" xlink:href="#DejaVuSans-105"/>
      <use x="1534.033203" xlink:href="#DejaVuSans-111"/>
      <use x="1595.214844" xlink:href="#DejaVuSans-110"/>
     </g>
    </g>
   </g>
   <g id="line2d_13">
    <path clip-path="url(#p1fe5cffc68)" d="M 67.755682 217.520326 
L 130.932435 217.418795 
L 132.906708 217.215734 
L 135.868119 217.139586 
L 136.855255 216.936524 
L 139.816666 216.606549 
L 140.803802 216.352723 
L 143.765213 216.073513 
L 144.752349 215.642008 
L 146.726623 215.083589 
L 147.71376 214.728232 
L 148.700896 213.941369 
L 150.67517 212.723001 
L 151.662307 212.037668 
L 152.649443 210.362412 
L 153.63658 207.747997 
L 154.623717 207.011899 
L 155.610854 205.336643 
L 156.597991 203.991361 
L 157.585127 201.554625 
L 158.572264 200.412404 
L 159.559401 200.285491 
L 160.546538 201.656155 
L 161.533674 200.539318 
L 162.520811 201.021588 
L 163.507948 199.676307 
L 164.495085 200.133195 
L 165.482221 199.270184 
L 166.469358 199.320949 
L 167.456495 199.143271 
L 168.443632 199.447863 
L 169.430768 198.508704 
L 170.417905 199.143271 
L 172.392179 198.00105 
L 173.379316 196.224263 
L 174.366452 196.046585 
L 175.353589 197.442632 
L 176.340726 197.569545 
L 177.327863 196.833447 
L 178.314999 197.62031 
L 179.302136 198.737148 
L 180.289273 200.691614 
L 181.27641 201.123119 
L 182.263546 201.021588 
L 184.23782 204.321336 
L 185.224957 204.803607 
L 186.212093 205.768148 
L 187.19923 205.869679 
L 188.186367 205.793531 
L 189.173504 205.514322 
L 190.16064 205.565087 
L 191.147777 206.148888 
L 192.134914 207.392639 
L 193.122051 207.646466 
L 195.096324 209.575549 
L 196.083461 209.600932 
L 197.070598 209.423253 
L 200.032008 210.43856 
L 202.006282 211.123892 
L 202.993418 211.733076 
L 203.980555 212.799149 
L 204.967692 212.697618 
L 207.929102 212.824531 
L 208.916239 212.24073 
L 210.890513 211.834607 
L 211.877649 212.494557 
L 212.864786 212.646853 
L 213.851923 213.357567 
L 214.83906 213.814455 
L 216.813333 215.108972 
L 217.80047 215.56586 
L 218.787607 215.134354 
L 219.774743 215.489712 
L 221.749017 215.489712 
L 222.736154 215.642008 
L 223.72329 215.667391 
L 224.710427 215.540477 
L 225.697564 216.276575 
L 226.684701 215.9466 
L 227.671838 216.225809 
L 229.646111 216.251192 
L 231.620385 216.403488 
L 232.607521 216.479636 
L 233.594658 216.809611 
L 239.517479 217.241116 
L 245.440299 217.063438 
L 246.427436 216.911142 
L 249.388846 216.98729 
L 250.375983 217.139586 
L 252.350257 217.012672 
L 254.32453 217.114203 
L 259.260214 217.063438 
L 261.234487 216.352723 
L 266.170171 216.352723 
L 268.144445 216.657315 
L 271.105855 216.657315 
L 272.092992 216.479636 
L 274.067265 216.479636 
L 275.054402 216.606549 
L 279.990086 216.606549 
L 280.977223 215.718156 
L 281.96436 215.591243 
L 284.92577 215.591243 
L 285.912907 214.575936 
L 286.900043 214.093665 
L 287.88718 214.982058 
L 289.861454 211.834607 
L 290.84859 211.149275 
L 291.835727 210.159351 
L 292.822864 210.337029 
L 293.810001 210.210116 
L 294.797137 209.118661 
L 295.784274 210.489325 
L 296.771411 210.337029 
L 297.758548 208.001823 
L 298.745684 208.737921 
L 299.732821 208.585625 
L 300.719958 207.621083 
L 301.707095 207.164195 
L 302.694232 205.514322 
L 303.681368 205.057433 
L 304.668505 206.834221 
L 305.655642 205.615852 
L 308.617052 205.387408 
L 309.604189 205.996592 
L 310.591326 205.260495 
L 311.578462 203.813682 
L 312.565599 201.706921 
L 313.552736 201.935365 
L 314.539873 202.493783 
L 315.527009 202.468401 
L 316.514146 201.783069 
L 317.501283 202.138426 
L 318.48842 202.620697 
L 319.475557 203.432942 
L 320.462693 202.443018 
L 322.436967 198.610235 
L 323.424104 196.706534 
L 324.41124 193.711379 
L 325.398377 191.452321 
L 326.385514 191.046198 
L 327.372651 191.147729 
L 328.359787 188.837906 
L 329.346924 187.822599 
L 331.321198 182.568385 
L 332.308334 182.289176 
L 333.295471 179.877822 
L 334.282608 173.659067 
L 335.269745 168.481002 
L 336.256881 166.704215 
L 337.244018 149.926268 
L 338.231155 139.595521 
L 339.218292 132.615286 
L 340.205429 122.563747 
L 341.192565 113.705195 
L 342.179702 103.450595 
L 343.166839 86.5965 
L 344.153976 82.89063 
L 345.141112 78.42328 
L 346.128249 63.092145 
L 347.115386 56.467268 
L 348.102523 51.543029 
L 349.089659 41.66917 
L 350.076796 45.730397 
L 351.063933 40.171592 
L 352.05107 36.897227 
L 354.025343 39.714704 
L 355.01248 38.44557 
L 355.999617 42.963686 
L 356.986754 35.88192 
L 357.97389 37.074906 
L 360.935301 45.121213 
L 362.909574 55.020455 
L 363.896711 60.604643 
L 364.883848 78.017157 
L 365.870984 84.972009 
L 367.845258 96.267298 
L 369.819531 104.212075 
L 370.806668 111.979173 
L 371.793805 111.243075 
L 372.780942 114.314379 
L 373.768079 121.040787 
L 374.755215 121.599206 
L 375.742352 123.020635 
L 376.729489 120.177776 
L 377.716626 119.365531 
L 378.703762 119.060939 
L 379.690899 119.492444 
L 380.678036 118.172545 
L 381.665173 121.726119 
L 382.652309 120.837726 
L 383.639446 127.767195 
L 384.626583 129.315538 
L 385.61372 135.356614 
L 386.600856 139.265546 
L 387.587993 142.565293 
L 388.57513 143.85981 
L 389.562267 155.789666 
L 390.549403 155.408926 
L 391.53654 156.551146 
L 392.523677 155.992727 
L 393.510814 157.058799 
L 395.485087 156.576529 
L 396.472224 148.657135 
L 397.459361 151.626908 
L 398.446498 151.27155 
L 399.433634 149.799355 
L 400.420771 146.347312 
L 401.407908 144.62129 
L 402.395045 141.905344 
L 403.382181 142.920651 
L 404.369318 141.220012 
L 404.369318 141.220012 
" style="fill:none;stroke:#1f77b4;stroke-linecap:square;stroke-width:1.5;"/>
   </g>
   <g id="line2d_14">
    <path clip-path="url(#p1fe5cffc68)" d="M 67.755682 217.520326 
L 129.945298 217.423547 
L 134.880982 217.22999 
L 137.842392 216.596532 
L 138.829529 216.33259 
L 140.803802 216.042255 
L 144.752349 215.30322 
L 145.739486 215.206441 
L 147.71376 214.097888 
L 148.700896 213.19169 
L 149.688033 211.995157 
L 150.67517 211.036171 
L 151.662307 209.848435 
L 153.63658 208.159212 
L 154.623717 205.123888 
L 155.610854 203.522645 
L 156.597991 202.493274 
L 157.585127 200.434533 
L 158.572264 199.044443 
L 159.559401 197.091278 
L 160.546538 196.422627 
L 161.533674 197.847909 
L 162.520811 197.680746 
L 163.507948 196.800943 
L 164.495085 197.513584 
L 166.469358 198.11185 
L 167.456495 198.991654 
L 168.443632 198.789299 
L 169.430768 198.314205 
L 170.417905 198.648531 
L 171.405042 198.745309 
L 172.392179 197.900697 
L 173.379316 197.504786 
L 174.366452 196.554597 
L 175.353589 197.161662 
L 176.340726 197.372815 
L 177.327863 197.223248 
L 178.314999 197.390411 
L 179.302136 197.891899 
L 180.289273 198.718915 
L 181.27641 199.299586 
L 182.263546 199.493143 
L 184.23782 200.416937 
L 185.224957 200.302562 
L 186.212093 201.015203 
L 187.19923 201.921402 
L 189.173504 202.42289 
L 190.16064 202.783609 
L 191.147777 203.698606 
L 192.134914 204.367257 
L 193.122051 205.396627 
L 194.109188 205.299849 
L 196.083461 205.854125 
L 197.070598 206.786717 
L 198.057735 207.024264 
L 199.044871 207.745704 
L 200.032008 207.472965 
L 202.006282 209.012621 
L 204.967692 211.018574 
L 205.954829 211.282516 
L 206.941965 212.29429 
L 207.929102 212.558231 
L 208.916239 212.575827 
L 210.890513 213.218084 
L 211.877649 213.719573 
L 212.864786 214.370628 
L 213.851923 214.520194 
L 215.826196 215.215239 
L 216.813333 215.004086 
L 217.80047 215.197643 
L 219.774743 215.276826 
L 220.76188 215.575959 
L 222.736154 215.575959 
L 223.72329 215.919082 
L 226.684701 216.402975 
L 228.658974 216.341388 
L 231.620385 216.15663 
L 233.594658 216.209418 
L 235.568932 216.15663 
L 237.543205 216.314994 
L 243.466026 216.895665 
L 255.311667 217.05403 
L 257.28594 216.948453 
L 262.221624 216.798886 
L 265.183035 216.587733 
L 269.131582 216.420571 
L 270.118718 216.587733 
L 271.105855 216.622926 
L 272.092992 216.78129 
L 274.067265 216.666916 
L 275.054402 216.578935 
L 276.041539 216.658118 
L 278.015812 216.2886 
L 279.002949 216.121437 
L 280.977223 215.320816 
L 281.96436 215.206441 
L 282.951496 214.836924 
L 285.912907 214.335435 
L 287.88718 214.652165 
L 288.874317 214.458608 
L 291.835727 214.608175 
L 293.810001 214.608175 
L 294.797137 214.344233 
L 295.784274 214.291445 
L 296.771411 213.657986 
L 298.745684 212.954143 
L 299.732821 212.998133 
L 300.719958 212.848567 
L 302.694232 213.10371 
L 303.681368 213.411641 
L 304.668505 213.05972 
L 307.629915 210.481894 
L 308.617052 210.191559 
L 309.604189 209.24137 
L 310.591326 208.775074 
L 311.578462 208.027241 
L 312.565599 208.150414 
L 313.552736 207.956857 
L 314.539873 207.930463 
L 315.527009 207.40258 
L 316.514146 207.261812 
L 317.501283 206.557968 
L 318.48842 206.241239 
L 319.475557 206.90989 
L 320.462693 206.109268 
L 321.44983 205.15908 
L 322.436967 204.024133 
L 323.424104 203.777788 
L 324.41124 202.642841 
L 325.398377 202.634043 
L 326.385514 201.006405 
L 327.372651 199.985833 
L 328.359787 198.059062 
L 329.346924 196.519405 
L 331.321198 190.193615 
L 332.308334 189.322609 
L 333.295471 189.612944 
L 334.282608 185.891373 
L 335.269745 184.536475 
L 337.244018 180.841299 
L 338.231155 180.401397 
L 339.218292 176.759008 
L 340.205429 172.57994 
L 341.192565 172.632728 
L 342.179702 168.990339 
L 343.166839 165.831843 
L 344.153976 161.687967 
L 345.141112 159.532447 
L 346.128249 157.790435 
L 347.115386 155.467753 
L 348.102523 151.095127 
L 349.089659 147.795862 
L 350.076796 144.945297 
L 351.063933 145.385199 
L 352.05107 143.995109 
L 353.038206 149.625854 
L 354.025343 149.344317 
L 355.01248 147.945429 
L 355.999617 145.218037 
L 356.986754 142.041944 
L 357.97389 140.238346 
L 358.961027 137.898068 
L 359.948164 129.214403 
L 360.935301 128.079455 
L 361.922437 129.214403 
L 363.896711 139.077005 
L 364.883848 140.13277 
L 365.870984 143.053719 
L 367.845258 145.92188 
L 368.832395 148.807637 
L 369.819531 146.77529 
L 370.806668 146.001062 
L 371.793805 147.839852 
L 372.780942 143.484823 
L 374.755215 144.118282 
L 376.729489 147.100817 
L 377.716626 147.136009 
L 378.703762 144.628568 
L 379.690899 148.834031 
L 380.678036 148.446917 
L 381.665173 150.162535 
L 382.652309 146.50255 
L 383.639446 146.476156 
L 384.626583 147.558315 
L 385.61372 150.54085 
L 386.600856 152.573198 
L 387.587993 155.34458 
L 388.57513 153.303435 
L 389.562267 157.5001 
L 390.549403 160.878547 
L 391.53654 159.682014 
L 392.523677 160.113118 
L 394.497951 161.846331 
L 395.485087 166.949194 
L 396.472224 167.098761 
L 397.459361 166.4741 
L 398.446498 168.823177 
L 400.420771 168.946349 
L 401.407908 169.852547 
L 402.395045 167.142751 
L 404.369318 168.163324 
L 404.369318 168.163324 
" style="fill:none;stroke:#ff7f0e;stroke-linecap:square;stroke-width:1.5;"/>
   </g>
   <g id="line2d_15">
    <path clip-path="url(#p1fe5cffc68)" d="M 67.755682 217.520326 
L 129.945298 217.412728 
L 136.855255 217.089934 
L 140.803802 216.467404 
L 142.778076 215.581856 
L 143.765213 215.181353 
L 144.752349 214.607497 
L 145.739486 214.366683 
L 146.726623 213.772333 
L 147.71376 213.006339 
L 148.700896 212.575093 
L 149.688033 211.520463 
L 150.67517 209.916742 
L 151.662307 208.83564 
L 153.63658 206.411272 
L 154.623717 205.424104 
L 155.610854 203.289225 
L 156.597991 201.774316 
L 157.585127 200.860588 
L 158.572264 200.202191 
L 159.559401 197.600201 
L 160.546538 196.687327 
L 161.533674 196.205699 
L 162.520811 195.216823 
L 163.507948 195.033223 
L 164.495085 194.446559 
L 165.482221 193.65153 
L 166.469358 194.87695 
L 167.456495 195.0281 
L 168.443632 194.280038 
L 169.430768 195.64636 
L 170.417905 196.227047 
L 172.392179 196.714654 
L 173.379316 196.77016 
L 174.366452 197.280823 
L 175.353589 197.935804 
L 176.340726 198.079268 
L 177.327863 198.108302 
L 178.314999 198.946029 
L 179.302136 199.562582 
L 180.289273 200.805081 
L 181.27641 200.922072 
L 182.263546 201.859711 
L 183.250683 203.24055 
L 186.212093 204.693122 
L 187.19923 204.806697 
L 188.186367 205.471925 
L 189.173504 205.597456 
L 190.16064 205.419834 
L 191.147777 205.719571 
L 193.122051 207.159333 
L 194.109188 208.023532 
L 195.096324 208.530779 
L 196.083461 209.192592 
L 197.070598 209.589679 
L 198.057735 210.395809 
L 199.044871 210.892809 
L 202.006282 211.325762 
L 203.980555 211.780064 
L 204.967692 212.066138 
L 206.941965 212.224973 
L 208.916239 212.674151 
L 209.903376 212.985844 
L 211.877649 213.455517 
L 212.864786 213.902134 
L 215.826196 214.52381 
L 217.80047 214.690331 
L 219.774743 214.858559 
L 220.76188 215.108767 
L 222.736154 215.359829 
L 223.72329 215.183061 
L 224.710427 215.523787 
L 226.684701 215.682622 
L 228.658974 215.670667 
L 229.646111 215.562215 
L 230.633248 215.902942 
L 231.620385 215.741545 
L 235.568932 215.926852 
L 239.517479 216.138632 
L 242.478889 216.440077 
L 244.453162 216.519495 
L 245.440299 216.459718 
L 247.414573 215.956741 
L 249.388846 215.327378 
L 250.375983 215.129262 
L 252.350257 214.441831 
L 257.28594 213.939707 
L 259.260214 214.195893 
L 260.247351 214.212972 
L 261.234487 214.080609 
L 264.195898 214.008024 
L 271.105855 213.801367 
L 275.054402 213.318885 
L 277.028676 213.347065 
L 278.015812 213.142117 
L 281.96436 212.996945 
L 282.951496 213.033665 
L 283.938633 212.767232 
L 284.92577 212.901303 
L 285.912907 212.544351 
L 287.88718 212.242052 
L 288.874317 211.825324 
L 289.861454 211.607566 
L 292.822864 211.745052 
L 293.810001 211.931214 
L 294.797137 211.951709 
L 295.784274 212.272794 
L 296.771411 212.165196 
L 297.758548 212.177152 
L 300.719958 211.850942 
L 302.694232 211.412865 
L 303.681368 211.557183 
L 304.668505 211.088364 
L 305.655642 210.754469 
L 306.642779 210.774964 
L 307.629915 210.464125 
L 308.617052 210.330055 
L 310.591326 209.348865 
L 311.578462 208.418912 
L 312.565599 207.241313 
L 315.527009 204.533433 
L 317.501283 201.967309 
L 318.48842 201.744427 
L 319.475557 201.97414 
L 320.462693 201.500197 
L 321.44983 200.552311 
L 322.436967 200.372981 
L 324.41124 199.298711 
L 325.398377 198.921264 
L 327.372651 196.331229 
L 328.359787 194.890613 
L 329.346924 192.461976 
L 330.334061 190.795062 
L 331.321198 189.940257 
L 332.308334 188.641397 
L 333.295471 189.015428 
L 334.282608 187.765243 
L 335.269745 187.275929 
L 336.256881 187.312649 
L 337.244018 188.103408 
L 338.231155 182.837089 
L 339.218292 168.739206 
L 341.192565 156.47134 
L 342.179702 151.456937 
L 343.166839 143.46139 
L 344.153976 138.35903 
L 345.141112 136.803131 
L 346.128249 146.133404 
L 347.115386 145.311903 
L 348.102523 143.892635 
L 349.089659 139.961043 
L 350.076796 138.947403 
L 351.063933 137.748455 
L 352.05107 137.175454 
L 355.01248 126.464341 
L 355.999617 120.643808 
L 356.986754 119.606257 
L 357.97389 115.387737 
L 358.961027 110.235849 
L 359.948164 108.713253 
L 360.935301 107.416955 
L 361.922437 105.867033 
L 362.909574 107.321312 
L 363.896711 105.283784 
L 364.883848 102.119894 
L 365.870984 102.519544 
L 366.858121 99.005534 
L 367.845258 100.733077 
L 368.832395 102.696312 
L 369.819531 102.16857 
L 370.806668 100.975599 
L 371.793805 101.447835 
L 372.780942 98.876587 
L 373.768079 100.848361 
L 374.755215 98.136211 
L 375.742352 97.032906 
L 376.729489 98.649436 
L 377.716626 90.360984 
L 378.703762 86.712903 
L 379.690899 84.643779 
L 380.678036 81.479889 
L 381.665173 81.14941 
L 382.652309 82.0657 
L 383.639446 84.440538 
L 384.626583 93.451434 
L 386.600856 104.875596 
L 387.587993 109.427157 
L 388.57513 114.631136 
L 389.562267 121.202293 
L 390.549403 122.309014 
L 391.53654 127.137255 
L 393.510814 134.464158 
L 394.497951 140.112192 
L 395.485087 142.212913 
L 396.472224 140.706543 
L 398.446498 145.159899 
L 399.433634 145.283722 
L 400.420771 145.844768 
L 401.407908 142.224014 
L 402.395045 141.580135 
L 403.382181 142.569865 
L 404.369318 142.879849 
L 404.369318 142.879849 
" style="fill:none;stroke:#2ca02c;stroke-linecap:square;stroke-width:1.5;"/>
   </g>
   <g id="line2d_16">
    <path clip-path="url(#p1fe5cffc68)" d="M 67.755682 217.520326 
L 133.893845 217.4441 
L 136.855255 216.971498 
L 137.842392 216.636103 
L 139.816666 215.690899 
L 143.765213 215.187807 
L 144.752349 214.166378 
L 146.726623 213.038231 
L 147.71376 212.306461 
L 148.700896 210.217866 
L 149.688033 208.815306 
L 150.67517 206.391316 
L 152.649443 203.8911 
L 153.63658 201.772015 
L 154.623717 200.979264 
L 155.610854 199.088856 
L 157.585127 193.966463 
L 159.559401 187.700678 
L 160.546538 186.298118 
L 161.533674 183.569224 
L 162.520811 183.432017 
L 163.507948 187.517736 
L 164.495085 185.124236 
L 165.482221 185.840761 
L 166.469358 185.490121 
L 167.456495 185.322424 
L 168.443632 186.130421 
L 169.430768 186.298118 
L 170.417905 182.212399 
L 171.405042 186.145666 
L 172.392179 186.877436 
L 174.366452 187.944602 
L 175.353589 186.938417 
L 176.340726 186.907927 
L 177.327863 187.670188 
L 178.314999 187.685433 
L 179.302136 187.578716 
L 180.289273 189.95697 
L 182.263546 192.167527 
L 183.250683 194.561026 
L 184.23782 195.338533 
L 185.224957 196.603886 
L 186.212093 198.372331 
L 188.186367 198.555274 
L 189.173504 199.881608 
L 190.16064 200.217003 
L 191.147777 201.680544 
L 192.134914 201.802505 
L 193.122051 202.793445 
L 194.109188 202.046429 
L 195.096324 203.128839 
L 196.083461 203.738648 
L 198.057735 202.534276 
L 199.044871 202.930651 
L 200.032008 201.939712 
L 201.019145 202.869671 
L 202.006282 203.220311 
L 202.993418 202.290352 
L 203.980555 202.640992 
L 204.967692 202.061674 
L 205.954829 201.878731 
L 206.941965 201.848241 
L 207.929102 202.183636 
L 208.916239 202.10741 
L 209.903376 202.48854 
L 210.890513 202.686728 
L 211.877649 204.119779 
L 212.864786 204.668606 
L 213.851923 206.177883 
L 214.83906 207.062106 
L 215.826196 207.778631 
L 216.813333 208.906777 
L 217.80047 209.135455 
L 218.787607 209.699529 
L 219.774743 210.095904 
L 221.749017 211.406993 
L 222.736154 211.666162 
L 223.72329 212.047292 
L 224.710427 212.718082 
L 225.697564 212.291216 
L 228.658974 212.24548 
L 231.620385 211.361257 
L 232.607521 211.589936 
L 233.594658 212.291216 
L 234.581795 212.59612 
L 235.568932 211.666162 
L 236.556068 211.528955 
L 237.543205 211.742388 
L 238.530342 211.833859 
L 239.517479 210.659977 
L 240.504615 210.14164 
L 241.491752 209.82149 
L 242.478889 210.964882 
L 243.466026 210.278847 
L 244.453162 210.659977 
L 245.440299 210.888656 
L 246.427436 212.169254 
L 247.414573 212.763817 
L 249.388846 213.099212 
L 250.375983 214.745696 
L 253.337393 215.782371 
L 254.32453 216.026294 
L 255.311667 216.437915 
L 257.28594 216.376934 
L 258.273077 216.087275 
L 266.170171 215.477466 
L 269.131582 214.34932 
L 270.118718 214.486527 
L 271.105855 214.029171 
L 272.092992 214.044416 
L 273.080129 213.891964 
L 274.067265 214.410301 
L 275.054402 214.69996 
L 276.041539 214.837167 
L 277.028676 214.608489 
L 278.015812 214.928639 
L 279.002949 214.913393 
L 279.990086 215.187807 
L 280.977223 215.096336 
L 286.900043 215.843352 
L 288.874317 215.828106 
L 289.861454 215.706145 
L 290.84859 215.828106 
L 291.835727 215.797616 
L 296.771411 215.02011 
L 299.732821 214.852412 
L 301.707095 214.410301 
L 303.681368 214.31883 
L 304.668505 213.770002 
L 306.642779 213.114458 
L 308.617052 212.763817 
L 309.604189 212.504649 
L 311.578462 211.300277 
L 313.552736 208.357949 
L 314.539873 206.482787 
L 315.527009 205.690036 
L 317.501283 203.113594 
L 318.48842 202.1379 
L 319.475557 201.375639 
L 320.462693 201.985448 
L 321.44983 201.467111 
L 322.436967 200.460926 
L 324.41124 198.936404 
L 325.398377 198.372331 
L 326.385514 197.594825 
L 328.359787 192.091301 
L 329.346924 189.347162 
L 330.334061 187.289057 
L 332.308334 182.395342 
L 333.295471 181.602591 
L 334.282608 180.306747 
L 335.269745 180.321992 
L 336.256881 179.559731 
L 337.244018 177.39491 
L 338.231155 174.254395 
L 339.218292 173.18723 
L 340.205429 168.461212 
L 341.192565 167.561744 
L 342.179702 162.012485 
L 343.166839 158.353632 
L 344.153976 153.719086 
L 345.141112 152.94158 
L 346.128249 152.407997 
L 347.115386 154.069726 
L 348.102523 148.901597 
L 349.089659 145.944024 
L 350.076796 144.5872 
L 351.063933 141.339968 
L 352.05107 140.623443 
L 353.038206 133.260003 
L 354.025343 131.140917 
L 355.01248 125.286753 
L 355.999617 125.04283 
L 356.986754 118.838026 
L 357.97389 122.161483 
L 358.961027 112.252091 
L 359.948164 109.904328 
L 360.935301 101.793871 
L 361.922437 100.894403 
L 362.909574 94.003565 
L 363.896711 90.329467 
L 364.883848 75.450134 
L 365.870984 75.800774 
L 366.858121 80.145661 
L 367.845258 72.705994 
L 368.832395 74.047574 
L 369.819531 77.27956 
L 370.806668 78.849817 
L 372.780942 89.948337 
L 373.768079 91.091728 
L 375.742352 112.282582 
L 376.729489 116.459772 
L 377.716626 122.634085 
L 378.703762 131.095181 
L 379.690899 131.476312 
L 380.678036 122.496878 
L 381.665173 123.091442 
L 382.652309 119.11244 
L 383.639446 123.533553 
L 384.626583 120.774168 
L 385.61372 117.374485 
L 386.600856 116.109132 
L 387.587993 124.112871 
L 388.57513 124.112871 
L 389.562267 125.789845 
L 390.549403 121.688882 
L 391.53654 118.594102 
L 392.523677 117.298259 
L 393.510814 110.75806 
L 394.497951 107.769997 
L 395.485087 109.142067 
L 396.472224 108.044411 
L 397.459361 99.308901 
L 398.446498 95.924462 
L 399.433634 90.344712 
L 400.420771 87.295668 
L 401.407908 73.392029 
L 402.395045 54.808108 
L 403.382181 53.085398 
L 404.369318 41.529522 
L 404.369318 41.529522 
" style="fill:none;stroke:#d62728;stroke-linecap:square;stroke-width:1.5;"/>
   </g>
   <g id="line2d_17"/>
   <g id="line2d_18"/>
   <g id="line2d_19"/>
   <g id="line2d_20"/>
   <g id="patch_3">
    <path d="M 50.925 226.602246 
L 50.925 26.8 
" style="fill:none;stroke:#000000;stroke-linecap:square;stroke-linejoin:miter;stroke-width:0.8;"/>
   </g>
   <g id="patch_4">
    <path d="M 421.2 226.602246 
L 421.2 26.8 
" style="fill:none;stroke:#000000;stroke-linecap:square;stroke-linejoin:miter;stroke-width:0.8;"/>
   </g>
   <g id="patch_5">
    <path d="M 50.925 226.602246 
L 421.2 226.602246 
" style="fill:none;stroke:#000000;stroke-linecap:square;stroke-linejoin:miter;stroke-width:0.8;"/>
   </g>
   <g id="patch_6">
    <path d="M 50.925 26.8 
L 421.2 26.8 
" style="fill:none;stroke:#000000;stroke-linecap:square;stroke-linejoin:miter;stroke-width:0.8;"/>
   </g>
   <g id="text_15">
    <!-- New cases per million people by Nation (7 day rolling) -->
    <g transform="translate(73.430625 20.8)scale(0.12 -0.12)">
     <defs>
      <path d="M 48.6875 27.296875 
Q 48.6875 37.203125 44.609375 42.84375 
Q 40.53125 48.484375 33.40625 48.484375 
Q 26.265625 48.484375 22.1875 42.84375 
Q 18.109375 37.203125 18.109375 27.296875 
Q 18.109375 17.390625 22.1875 11.75 
Q 26.265625 6.109375 33.40625 6.109375 
Q 40.53125 6.109375 44.609375 11.75 
Q 48.6875 17.390625 48.6875 27.296875 
z
M 18.109375 46.390625 
Q 20.953125 51.265625 25.265625 53.625 
Q 29.59375 56 35.59375 56 
Q 45.5625 56 51.78125 48.09375 
Q 58.015625 40.1875 58.015625 27.296875 
Q 58.015625 14.40625 51.78125 6.484375 
Q 45.5625 -1.421875 35.59375 -1.421875 
Q 29.59375 -1.421875 25.265625 0.953125 
Q 20.953125 3.328125 18.109375 8.203125 
L 18.109375 0 
L 9.078125 0 
L 9.078125 75.984375 
L 18.109375 75.984375 
z
" id="DejaVuSans-98"/>
      <path d="M 32.171875 -5.078125 
Q 28.375 -14.84375 24.75 -17.8125 
Q 21.140625 -20.796875 15.09375 -20.796875 
L 7.90625 -20.796875 
L 7.90625 -13.28125 
L 13.1875 -13.28125 
Q 16.890625 -13.28125 18.9375 -11.515625 
Q 21 -9.765625 23.484375 -3.21875 
L 25.09375 0.875 
L 2.984375 54.6875 
L 12.5 54.6875 
L 29.59375 11.921875 
L 46.6875 54.6875 
L 56.203125 54.6875 
z
" id="DejaVuSans-121"/>
      <path d="M 31 75.875 
Q 24.46875 64.65625 21.28125 53.65625 
Q 18.109375 42.671875 18.109375 31.390625 
Q 18.109375 20.125 21.3125 9.0625 
Q 24.515625 -2 31 -13.1875 
L 23.1875 -13.1875 
Q 15.875 -1.703125 12.234375 9.375 
Q 8.59375 20.453125 8.59375 31.390625 
Q 8.59375 42.28125 12.203125 53.3125 
Q 15.828125 64.359375 23.1875 75.875 
z
" id="DejaVuSans-40"/>
      <path d="M 45.40625 46.390625 
L 45.40625 75.984375 
L 54.390625 75.984375 
L 54.390625 0 
L 45.40625 0 
L 45.40625 8.203125 
Q 42.578125 3.328125 38.25 0.953125 
Q 33.9375 -1.421875 27.875 -1.421875 
Q 17.96875 -1.421875 11.734375 6.484375 
Q 5.515625 14.40625 5.515625 27.296875 
Q 5.515625 40.1875 11.734375 48.09375 
Q 17.96875 56 27.875 56 
Q 33.9375 56 38.25 53.625 
Q 42.578125 51.265625 45.40625 46.390625 
z
M 14.796875 27.296875 
Q 14.796875 17.390625 18.875 11.75 
Q 22.953125 6.109375 30.078125 6.109375 
Q 37.203125 6.109375 41.296875 11.75 
Q 45.40625 17.390625 45.40625 27.296875 
Q 45.40625 37.203125 41.296875 42.84375 
Q 37.203125 48.484375 30.078125 48.484375 
Q 22.953125 48.484375 18.875 42.84375 
Q 14.796875 37.203125 14.796875 27.296875 
z
" id="DejaVuSans-100"/>
      <path d="M 45.40625 27.984375 
Q 45.40625 37.75 41.375 43.109375 
Q 37.359375 48.484375 30.078125 48.484375 
Q 22.859375 48.484375 18.828125 43.109375 
Q 14.796875 37.75 14.796875 27.984375 
Q 14.796875 18.265625 18.828125 12.890625 
Q 22.859375 7.515625 30.078125 7.515625 
Q 37.359375 7.515625 41.375 12.890625 
Q 45.40625 18.265625 45.40625 27.984375 
z
M 54.390625 6.78125 
Q 54.390625 -7.171875 48.1875 -13.984375 
Q 42 -20.796875 29.203125 -20.796875 
Q 24.46875 -20.796875 20.265625 -20.09375 
Q 16.0625 -19.390625 12.109375 -17.921875 
L 12.109375 -9.1875 
Q 16.0625 -11.328125 19.921875 -12.34375 
Q 23.78125 -13.375 27.78125 -13.375 
Q 36.625 -13.375 41.015625 -8.765625 
Q 45.40625 -4.15625 45.40625 5.171875 
L 45.40625 9.625 
Q 42.625 4.78125 38.28125 2.390625 
Q 33.9375 0 27.875 0 
Q 17.828125 0 11.671875 7.65625 
Q 5.515625 15.328125 5.515625 27.984375 
Q 5.515625 40.671875 11.671875 48.328125 
Q 17.828125 56 27.875 56 
Q 33.9375 56 38.28125 53.609375 
Q 42.625 51.21875 45.40625 46.390625 
L 45.40625 54.6875 
L 54.390625 54.6875 
z
" id="DejaVuSans-103"/>
      <path d="M 8.015625 75.875 
L 15.828125 75.875 
Q 23.140625 64.359375 26.78125 53.3125 
Q 30.421875 42.28125 30.421875 31.390625 
Q 30.421875 20.453125 26.78125 9.375 
Q 23.140625 -1.703125 15.828125 -13.1875 
L 8.015625 -13.1875 
Q 14.5 -2 17.703125 9.0625 
Q 20.90625 20.125 20.90625 31.390625 
Q 20.90625 42.671875 17.703125 53.65625 
Q 14.5 64.65625 8.015625 75.875 
z
" id="DejaVuSans-41"/>
     </defs>
     <use xlink:href="#DejaVuSans-78"/>
     <use x="74.804688" xlink:href="#DejaVuSans-101"/>
     <use x="136.328125" xlink:href="#DejaVuSans-119"/>
     <use x="218.115234" xlink:href="#DejaVuSans-32"/>
     <use x="249.902344" xlink:href="#DejaVuSans-99"/>
     <use x="304.882812" xlink:href="#DejaVuSans-97"/>
     <use x="366.162109" xlink:href="#DejaVuSans-115"/>
     <use x="418.261719" xlink:href="#DejaVuSans-101"/>
     <use x="479.785156" xlink:href="#DejaVuSans-115"/>
     <use x="531.884766" xlink:href="#DejaVuSans-32"/>
     <use x="563.671875" xlink:href="#DejaVuSans-112"/>
     <use x="627.148438" xlink:href="#DejaVuSans-101"/>
     <use x="688.671875" xlink:href="#DejaVuSans-114"/>
     <use x="729.785156" xlink:href="#DejaVuSans-32"/>
     <use x="761.572266" xlink:href="#DejaVuSans-109"/>
     <use x="858.984375" xlink:href="#DejaVuSans-105"/>
     <use x="886.767578" xlink:href="#DejaVuSans-108"/>
     <use x="914.550781" xlink:href="#DejaVuSans-108"/>
     <use x="942.333984" xlink:href="#DejaVuSans-105"/>
     <use x="970.117188" xlink:href="#DejaVuSans-111"/>
     <use x="1031.298828" xlink:href="#DejaVuSans-110"/>
     <use x="1094.677734" xlink:href="#DejaVuSans-32"/>
     <use x="1126.464844" xlink:href="#DejaVuSans-112"/>
     <use x="1189.941406" xlink:href="#DejaVuSans-101"/>
     <use x="1251.464844" xlink:href="#DejaVuSans-111"/>
     <use x="1312.646484" xlink:href="#DejaVuSans-112"/>
     <use x="1376.123047" xlink:href="#DejaVuSans-108"/>
     <use x="1403.90625" xlink:href="#DejaVuSans-101"/>
     <use x="1465.429688" xlink:href="#DejaVuSans-32"/>
     <use x="1497.216797" xlink:href="#DejaVuSans-98"/>
     <use x="1560.693359" xlink:href="#DejaVuSans-121"/>
     <use x="1619.873047" xlink:href="#DejaVuSans-32"/>
     <use x="1651.660156" xlink:href="#DejaVuSans-78"/>
     <use x="1726.464844" xlink:href="#DejaVuSans-97"/>
     <use x="1787.744141" xlink:href="#DejaVuSans-116"/>
     <use x="1826.953125" xlink:href="#DejaVuSans-105"/>
     <use x="1854.736328" xlink:href="#DejaVuSans-111"/>
     <use x="1915.917969" xlink:href="#DejaVuSans-110"/>
     <use x="1979.296875" xlink:href="#DejaVuSans-32"/>
     <use x="2011.083984" xlink:href="#DejaVuSans-40"/>
     <use x="2050.097656" xlink:href="#DejaVuSans-55"/>
     <use x="2113.720703" xlink:href="#DejaVuSans-32"/>
     <use x="2145.507812" xlink:href="#DejaVuSans-100"/>
     <use x="2208.984375" xlink:href="#DejaVuSans-97"/>
     <use x="2270.263672" xlink:href="#DejaVuSans-121"/>
     <use x="2329.443359" xlink:href="#DejaVuSans-32"/>
     <use x="2361.230469" xlink:href="#DejaVuSans-114"/>
     <use x="2400.09375" xlink:href="#DejaVuSans-111"/>
     <use x="2461.275391" xlink:href="#DejaVuSans-108"/>
     <use x="2489.058594" xlink:href="#DejaVuSans-108"/>
     <use x="2516.841797" xlink:href="#DejaVuSans-105"/>
     <use x="2544.625" xlink:href="#DejaVuSans-110"/>
     <use x="2608.003906" xlink:href="#DejaVuSans-103"/>
     <use x="2671.480469" xlink:href="#DejaVuSans-41"/>
    </g>
   </g>
   <g id="legend_1">
    <g id="patch_7">
     <path d="M 57.925 108.190625 
L 172.079688 108.190625 
Q 174.079688 108.190625 174.079688 106.190625 
L 174.079688 33.8 
Q 174.079688 31.8 172.079688 31.8 
L 57.925 31.8 
Q 55.925 31.8 55.925 33.8 
L 55.925 106.190625 
Q 55.925 108.190625 57.925 108.190625 
z
" style="fill:#ffffff;opacity:0.8;stroke:#cccccc;stroke-linejoin:miter;"/>
    </g>
    <g id="text_16">
     <!-- Nation -->
     <g transform="translate(98.620313 43.398437)scale(0.1 -0.1)">
      <use xlink:href="#DejaVuSans-78"/>
      <use x="74.804688" xlink:href="#DejaVuSans-97"/>
      <use x="136.083984" xlink:href="#DejaVuSans-116"/>
      <use x="175.292969" xlink:href="#DejaVuSans-105"/>
      <use x="203.076172" xlink:href="#DejaVuSans-111"/>
      <use x="264.257812" xlink:href="#DejaVuSans-110"/>
     </g>
    </g>
    <g id="line2d_21">
     <path d="M 59.925 54.576562 
L 79.925 54.576562 
" style="fill:none;stroke:#1f77b4;stroke-linecap:square;stroke-width:1.5;"/>
    </g>
    <g id="line2d_22"/>
    <g id="text_17">
     <!-- Northern Ireland -->
     <g transform="translate(87.925 58.076562)scale(0.1 -0.1)">
      <defs>
       <path d="M 54.890625 33.015625 
L 54.890625 0 
L 45.90625 0 
L 45.90625 32.71875 
Q 45.90625 40.484375 42.875 44.328125 
Q 39.84375 48.1875 33.796875 48.1875 
Q 26.515625 48.1875 22.3125 43.546875 
Q 18.109375 38.921875 18.109375 30.90625 
L 18.109375 0 
L 9.078125 0 
L 9.078125 75.984375 
L 18.109375 75.984375 
L 18.109375 46.1875 
Q 21.34375 51.125 25.703125 53.5625 
Q 30.078125 56 35.796875 56 
Q 45.21875 56 50.046875 50.171875 
Q 54.890625 44.34375 54.890625 33.015625 
z
" id="DejaVuSans-104"/>
       <path d="M 9.8125 72.90625 
L 19.671875 72.90625 
L 19.671875 0 
L 9.8125 0 
z
" id="DejaVuSans-73"/>
      </defs>
      <use xlink:href="#DejaVuSans-78"/>
      <use x="74.804688" xlink:href="#DejaVuSans-111"/>
      <use x="135.986328" xlink:href="#DejaVuSans-114"/>
      <use x="177.099609" xlink:href="#DejaVuSans-116"/>
      <use x="216.308594" xlink:href="#DejaVuSans-104"/>
      <use x="279.6875" xlink:href="#DejaVuSans-101"/>
      <use x="341.210938" xlink:href="#DejaVuSans-114"/>
      <use x="380.574219" xlink:href="#DejaVuSans-110"/>
      <use x="443.953125" xlink:href="#DejaVuSans-32"/>
      <use x="475.740234" xlink:href="#DejaVuSans-73"/>
      <use x="505.232422" xlink:href="#DejaVuSans-114"/>
      <use x="544.095703" xlink:href="#DejaVuSans-101"/>
      <use x="605.619141" xlink:href="#DejaVuSans-108"/>
      <use x="633.402344" xlink:href="#DejaVuSans-97"/>
      <use x="694.681641" xlink:href="#DejaVuSans-110"/>
      <use x="758.060547" xlink:href="#DejaVuSans-100"/>
     </g>
    </g>
    <g id="line2d_23">
     <path d="M 59.925 69.254687 
L 79.925 69.254687 
" style="fill:none;stroke:#ff7f0e;stroke-linecap:square;stroke-width:1.5;"/>
    </g>
    <g id="line2d_24"/>
    <g id="text_18">
     <!-- Scotland -->
     <g transform="translate(87.925 72.754687)scale(0.1 -0.1)">
      <defs>
       <path d="M 53.515625 70.515625 
L 53.515625 60.890625 
Q 47.90625 63.578125 42.921875 64.890625 
Q 37.9375 66.21875 33.296875 66.21875 
Q 25.25 66.21875 20.875 63.09375 
Q 16.5 59.96875 16.5 54.203125 
Q 16.5 49.359375 19.40625 46.890625 
Q 22.3125 44.4375 30.421875 42.921875 
L 36.375 41.703125 
Q 47.40625 39.59375 52.65625 34.296875 
Q 57.90625 29 57.90625 20.125 
Q 57.90625 9.515625 50.796875 4.046875 
Q 43.703125 -1.421875 29.984375 -1.421875 
Q 24.8125 -1.421875 18.96875 -0.25 
Q 13.140625 0.921875 6.890625 3.21875 
L 6.890625 13.375 
Q 12.890625 10.015625 18.65625 8.296875 
Q 24.421875 6.59375 29.984375 6.59375 
Q 38.421875 6.59375 43.015625 9.90625 
Q 47.609375 13.234375 47.609375 19.390625 
Q 47.609375 24.75 44.3125 27.78125 
Q 41.015625 30.8125 33.5 32.328125 
L 27.484375 33.5 
Q 16.453125 35.6875 11.515625 40.375 
Q 6.59375 45.0625 6.59375 53.421875 
Q 6.59375 63.09375 13.40625 68.65625 
Q 20.21875 74.21875 32.171875 74.21875 
Q 37.3125 74.21875 42.625 73.28125 
Q 47.953125 72.359375 53.515625 70.515625 
z
" id="DejaVuSans-83"/>
      </defs>
      <use xlink:href="#DejaVuSans-83"/>
      <use x="63.476562" xlink:href="#DejaVuSans-99"/>
      <use x="118.457031" xlink:href="#DejaVuSans-111"/>
      <use x="179.638672" xlink:href="#DejaVuSans-116"/>
      <use x="218.847656" xlink:href="#DejaVuSans-108"/>
      <use x="246.630859" xlink:href="#DejaVuSans-97"/>
      <use x="307.910156" xlink:href="#DejaVuSans-110"/>
      <use x="371.289062" xlink:href="#DejaVuSans-100"/>
     </g>
    </g>
    <g id="line2d_25">
     <path d="M 59.925 83.932812 
L 79.925 83.932812 
" style="fill:none;stroke:#2ca02c;stroke-linecap:square;stroke-width:1.5;"/>
    </g>
    <g id="line2d_26"/>
    <g id="text_19">
     <!-- England -->
     <g transform="translate(87.925 87.432812)scale(0.1 -0.1)">
      <defs>
       <path d="M 9.8125 72.90625 
L 55.90625 72.90625 
L 55.90625 64.59375 
L 19.671875 64.59375 
L 19.671875 43.015625 
L 54.390625 43.015625 
L 54.390625 34.71875 
L 19.671875 34.71875 
L 19.671875 8.296875 
L 56.78125 8.296875 
L 56.78125 0 
L 9.8125 0 
z
" id="DejaVuSans-69"/>
      </defs>
      <use xlink:href="#DejaVuSans-69"/>
      <use x="63.183594" xlink:href="#DejaVuSans-110"/>
      <use x="126.5625" xlink:href="#DejaVuSans-103"/>
      <use x="190.039062" xlink:href="#DejaVuSans-108"/>
      <use x="217.822266" xlink:href="#DejaVuSans-97"/>
      <use x="279.101562" xlink:href="#DejaVuSans-110"/>
      <use x="342.480469" xlink:href="#DejaVuSans-100"/>
     </g>
    </g>
    <g id="line2d_27">
     <path d="M 59.925 98.610937 
L 79.925 98.610937 
" style="fill:none;stroke:#d62728;stroke-linecap:square;stroke-width:1.5;"/>
    </g>
    <g id="line2d_28"/>
    <g id="text_20">
     <!-- Wales -->
     <g transform="translate(87.925 102.110937)scale(0.1 -0.1)">
      <defs>
       <path d="M 3.328125 72.90625 
L 13.28125 72.90625 
L 28.609375 11.28125 
L 43.890625 72.90625 
L 54.984375 72.90625 
L 70.3125 11.28125 
L 85.59375 72.90625 
L 95.609375 72.90625 
L 77.296875 0 
L 64.890625 0 
L 49.515625 63.28125 
L 33.984375 0 
L 21.578125 0 
z
" id="DejaVuSans-87"/>
      </defs>
      <use xlink:href="#DejaVuSans-87"/>
      <use x="92.501953" xlink:href="#DejaVuSans-97"/>
      <use x="153.78125" xlink:href="#DejaVuSans-108"/>
      <use x="181.564453" xlink:href="#DejaVuSans-101"/>
      <use x="243.087891" xlink:href="#DejaVuSans-115"/>
     </g>
    </g>
   </g>
  </g>
 </g>
 <defs>
  <clipPath id="p1fe5cffc68">
   <rect height="199.802246" width="370.275" x="50.925" y="26.8"/>
  </clipPath>
 </defs>
</svg>
