<?xml version="1.0" encoding="utf-8" standalone="no"?>
<!DOCTYPE svg PUBLIC "-//W3C//DTD SVG 1.1//EN"
  "http://www.w3.org/Graphics/SVG/1.1/DTD/svg11.dtd">
<!-- Created with matplotlib (https://matplotlib.org/) -->
<svg height="288pt" version="1.1" viewBox="0 0 432 288" width="432pt" xmlns="http://www.w3.org/2000/svg" xmlns:xlink="http://www.w3.org/1999/xlink">
 <metadata>
  <rdf:RDF xmlns:cc="http://creativecommons.org/ns#" xmlns:dc="http://purl.org/dc/elements/1.1/" xmlns:rdf="http://www.w3.org/1999/02/22-rdf-syntax-ns#">
   <cc:Work>
    <dc:type rdf:resource="http://purl.org/dc/dcmitype/StillImage"/>
    <dc:date>2020-11-21T10:24:41.996115</dc:date>
    <dc:format>image/svg+xml</dc:format>
    <dc:creator>
     <cc:Agent>
      <dc:title>Matplotlib v3.3.2, https://matplotlib.org/</dc:title>
     </cc:Agent>
    </dc:creator>
   </cc:Work>
  </rdf:RDF>
 </metadata>
 <defs>
  <style type="text/css">*{stroke-linecap:butt;stroke-linejoin:round;}</style>
 </defs>
 <g id="figure_1">
  <g id="patch_1">
   <path d="M 0 288 
L 432 288 
L 432 0 
L 0 0 
z
" style="fill:none;"/>
  </g>
  <g id="axes_1">
   <g id="patch_2">
    <path d="M 44.55 226.602246 
L 421.2 226.602246 
L 421.2 26.8 
L 44.55 26.8 
z
" style="fill:#ffffff;"/>
   </g>
   <g id="matplotlib.axis_1">
    <g id="xtick_1">
     <g id="line2d_1">
      <defs>
       <path d="M 0 0 
L 0 3.5 
" id="mcff501e087" style="stroke:#000000;stroke-width:0.8;"/>
      </defs>
      <g>
       <use style="stroke:#000000;stroke-width:0.8;" x="59.54369" xlink:href="#mcff501e087" y="226.602246"/>
      </g>
     </g>
     <g id="text_1">
      <!-- 2020-01 -->
      <g transform="translate(22.318869 261.074092)rotate(-30)scale(0.1 -0.1)">
       <defs>
        <path d="M 19.1875 8.296875 
L 53.609375 8.296875 
L 53.609375 0 
L 7.328125 0 
L 7.328125 8.296875 
Q 12.9375 14.109375 22.625 23.890625 
Q 32.328125 33.6875 34.8125 36.53125 
Q 39.546875 41.84375 41.421875 45.53125 
Q 43.3125 49.21875 43.3125 52.78125 
Q 43.3125 58.59375 39.234375 62.25 
Q 35.15625 65.921875 28.609375 65.921875 
Q 23.96875 65.921875 18.8125 64.3125 
Q 13.671875 62.703125 7.8125 59.421875 
L 7.8125 69.390625 
Q 13.765625 71.78125 18.9375 73 
Q 24.125 74.21875 28.421875 74.21875 
Q 39.75 74.21875 46.484375 68.546875 
Q 53.21875 62.890625 53.21875 53.421875 
Q 53.21875 48.921875 51.53125 44.890625 
Q 49.859375 40.875 45.40625 35.40625 
Q 44.1875 33.984375 37.640625 27.21875 
Q 31.109375 20.453125 19.1875 8.296875 
z
" id="DejaVuSans-50"/>
        <path d="M 31.78125 66.40625 
Q 24.171875 66.40625 20.328125 58.90625 
Q 16.5 51.421875 16.5 36.375 
Q 16.5 21.390625 20.328125 13.890625 
Q 24.171875 6.390625 31.78125 6.390625 
Q 39.453125 6.390625 43.28125 13.890625 
Q 47.125 21.390625 47.125 36.375 
Q 47.125 51.421875 43.28125 58.90625 
Q 39.453125 66.40625 31.78125 66.40625 
z
M 31.78125 74.21875 
Q 44.046875 74.21875 50.515625 64.515625 
Q 56.984375 54.828125 56.984375 36.375 
Q 56.984375 17.96875 50.515625 8.265625 
Q 44.046875 -1.421875 31.78125 -1.421875 
Q 19.53125 -1.421875 13.0625 8.265625 
Q 6.59375 17.96875 6.59375 36.375 
Q 6.59375 54.828125 13.0625 64.515625 
Q 19.53125 74.21875 31.78125 74.21875 
z
" id="DejaVuSans-48"/>
        <path d="M 4.890625 31.390625 
L 31.203125 31.390625 
L 31.203125 23.390625 
L 4.890625 23.390625 
z
" id="DejaVuSans-45"/>
        <path d="M 12.40625 8.296875 
L 28.515625 8.296875 
L 28.515625 63.921875 
L 10.984375 60.40625 
L 10.984375 69.390625 
L 28.421875 72.90625 
L 38.28125 72.90625 
L 38.28125 8.296875 
L 54.390625 8.296875 
L 54.390625 0 
L 12.40625 0 
z
" id="DejaVuSans-49"/>
       </defs>
       <use xlink:href="#DejaVuSans-50"/>
       <use x="63.623047" xlink:href="#DejaVuSans-48"/>
       <use x="127.246094" xlink:href="#DejaVuSans-50"/>
       <use x="190.869141" xlink:href="#DejaVuSans-48"/>
       <use x="254.492188" xlink:href="#DejaVuSans-45"/>
       <use x="290.576172" xlink:href="#DejaVuSans-48"/>
       <use x="354.199219" xlink:href="#DejaVuSans-49"/>
      </g>
     </g>
    </g>
    <g id="xtick_2">
     <g id="line2d_2">
      <g>
       <use style="stroke:#000000;stroke-width:0.8;" x="92.50854" xlink:href="#mcff501e087" y="226.602246"/>
      </g>
     </g>
     <g id="text_2">
      <!-- 2020-02 -->
      <g transform="translate(55.28372 261.074092)rotate(-30)scale(0.1 -0.1)">
       <use xlink:href="#DejaVuSans-50"/>
       <use x="63.623047" xlink:href="#DejaVuSans-48"/>
       <use x="127.246094" xlink:href="#DejaVuSans-50"/>
       <use x="190.869141" xlink:href="#DejaVuSans-48"/>
       <use x="254.492188" xlink:href="#DejaVuSans-45"/>
       <use x="290.576172" xlink:href="#DejaVuSans-48"/>
       <use x="354.199219" xlink:href="#DejaVuSans-50"/>
      </g>
     </g>
    </g>
    <g id="xtick_3">
     <g id="line2d_3">
      <g>
       <use style="stroke:#000000;stroke-width:0.8;" x="123.346626" xlink:href="#mcff501e087" y="226.602246"/>
      </g>
     </g>
     <g id="text_3">
      <!-- 2020-03 -->
      <g transform="translate(86.121805 261.074092)rotate(-30)scale(0.1 -0.1)">
       <defs>
        <path d="M 40.578125 39.3125 
Q 47.65625 37.796875 51.625 33 
Q 55.609375 28.21875 55.609375 21.1875 
Q 55.609375 10.40625 48.1875 4.484375 
Q 40.765625 -1.421875 27.09375 -1.421875 
Q 22.515625 -1.421875 17.65625 -0.515625 
Q 12.796875 0.390625 7.625 2.203125 
L 7.625 11.71875 
Q 11.71875 9.328125 16.59375 8.109375 
Q 21.484375 6.890625 26.8125 6.890625 
Q 36.078125 6.890625 40.9375 10.546875 
Q 45.796875 14.203125 45.796875 21.1875 
Q 45.796875 27.640625 41.28125 31.265625 
Q 36.765625 34.90625 28.71875 34.90625 
L 20.21875 34.90625 
L 20.21875 43.015625 
L 29.109375 43.015625 
Q 36.375 43.015625 40.234375 45.921875 
Q 44.09375 48.828125 44.09375 54.296875 
Q 44.09375 59.90625 40.109375 62.90625 
Q 36.140625 65.921875 28.71875 65.921875 
Q 24.65625 65.921875 20.015625 65.03125 
Q 15.375 64.15625 9.8125 62.3125 
L 9.8125 71.09375 
Q 15.4375 72.65625 20.34375 73.4375 
Q 25.25 74.21875 29.59375 74.21875 
Q 40.828125 74.21875 47.359375 69.109375 
Q 53.90625 64.015625 53.90625 55.328125 
Q 53.90625 49.265625 50.4375 45.09375 
Q 46.96875 40.921875 40.578125 39.3125 
z
" id="DejaVuSans-51"/>
       </defs>
       <use xlink:href="#DejaVuSans-50"/>
       <use x="63.623047" xlink:href="#DejaVuSans-48"/>
       <use x="127.246094" xlink:href="#DejaVuSans-50"/>
       <use x="190.869141" xlink:href="#DejaVuSans-48"/>
       <use x="254.492188" xlink:href="#DejaVuSans-45"/>
       <use x="290.576172" xlink:href="#DejaVuSans-48"/>
       <use x="354.199219" xlink:href="#DejaVuSans-51"/>
      </g>
     </g>
    </g>
    <g id="xtick_4">
     <g id="line2d_4">
      <g>
       <use style="stroke:#000000;stroke-width:0.8;" x="156.311477" xlink:href="#mcff501e087" y="226.602246"/>
      </g>
     </g>
     <g id="text_4">
      <!-- 2020-04 -->
      <g transform="translate(119.086656 261.074092)rotate(-30)scale(0.1 -0.1)">
       <defs>
        <path d="M 37.796875 64.3125 
L 12.890625 25.390625 
L 37.796875 25.390625 
z
M 35.203125 72.90625 
L 47.609375 72.90625 
L 47.609375 25.390625 
L 58.015625 25.390625 
L 58.015625 17.1875 
L 47.609375 17.1875 
L 47.609375 0 
L 37.796875 0 
L 37.796875 17.1875 
L 4.890625 17.1875 
L 4.890625 26.703125 
z
" id="DejaVuSans-52"/>
       </defs>
       <use xlink:href="#DejaVuSans-50"/>
       <use x="63.623047" xlink:href="#DejaVuSans-48"/>
       <use x="127.246094" xlink:href="#DejaVuSans-50"/>
       <use x="190.869141" xlink:href="#DejaVuSans-48"/>
       <use x="254.492188" xlink:href="#DejaVuSans-45"/>
       <use x="290.576172" xlink:href="#DejaVuSans-48"/>
       <use x="354.199219" xlink:href="#DejaVuSans-52"/>
      </g>
     </g>
    </g>
    <g id="xtick_5">
     <g id="line2d_5">
      <g>
       <use style="stroke:#000000;stroke-width:0.8;" x="188.212945" xlink:href="#mcff501e087" y="226.602246"/>
      </g>
     </g>
     <g id="text_5">
      <!-- 2020-05 -->
      <g transform="translate(150.988124 261.074092)rotate(-30)scale(0.1 -0.1)">
       <defs>
        <path d="M 10.796875 72.90625 
L 49.515625 72.90625 
L 49.515625 64.59375 
L 19.828125 64.59375 
L 19.828125 46.734375 
Q 21.96875 47.46875 24.109375 47.828125 
Q 26.265625 48.1875 28.421875 48.1875 
Q 40.625 48.1875 47.75 41.5 
Q 54.890625 34.8125 54.890625 23.390625 
Q 54.890625 11.625 47.5625 5.09375 
Q 40.234375 -1.421875 26.90625 -1.421875 
Q 22.3125 -1.421875 17.546875 -0.640625 
Q 12.796875 0.140625 7.71875 1.703125 
L 7.71875 11.625 
Q 12.109375 9.234375 16.796875 8.0625 
Q 21.484375 6.890625 26.703125 6.890625 
Q 35.15625 6.890625 40.078125 11.328125 
Q 45.015625 15.765625 45.015625 23.390625 
Q 45.015625 31 40.078125 35.4375 
Q 35.15625 39.890625 26.703125 39.890625 
Q 22.75 39.890625 18.8125 39.015625 
Q 14.890625 38.140625 10.796875 36.28125 
z
" id="DejaVuSans-53"/>
       </defs>
       <use xlink:href="#DejaVuSans-50"/>
       <use x="63.623047" xlink:href="#DejaVuSans-48"/>
       <use x="127.246094" xlink:href="#DejaVuSans-50"/>
       <use x="190.869141" xlink:href="#DejaVuSans-48"/>
       <use x="254.492188" xlink:href="#DejaVuSans-45"/>
       <use x="290.576172" xlink:href="#DejaVuSans-48"/>
       <use x="354.199219" xlink:href="#DejaVuSans-53"/>
      </g>
     </g>
    </g>
    <g id="xtick_6">
     <g id="line2d_6">
      <g>
       <use style="stroke:#000000;stroke-width:0.8;" x="221.177795" xlink:href="#mcff501e087" y="226.602246"/>
      </g>
     </g>
     <g id="text_6">
      <!-- 2020-06 -->
      <g transform="translate(183.952974 261.074092)rotate(-30)scale(0.1 -0.1)">
       <defs>
        <path d="M 33.015625 40.375 
Q 26.375 40.375 22.484375 35.828125 
Q 18.609375 31.296875 18.609375 23.390625 
Q 18.609375 15.53125 22.484375 10.953125 
Q 26.375 6.390625 33.015625 6.390625 
Q 39.65625 6.390625 43.53125 10.953125 
Q 47.40625 15.53125 47.40625 23.390625 
Q 47.40625 31.296875 43.53125 35.828125 
Q 39.65625 40.375 33.015625 40.375 
z
M 52.59375 71.296875 
L 52.59375 62.3125 
Q 48.875 64.0625 45.09375 64.984375 
Q 41.3125 65.921875 37.59375 65.921875 
Q 27.828125 65.921875 22.671875 59.328125 
Q 17.53125 52.734375 16.796875 39.40625 
Q 19.671875 43.65625 24.015625 45.921875 
Q 28.375 48.1875 33.59375 48.1875 
Q 44.578125 48.1875 50.953125 41.515625 
Q 57.328125 34.859375 57.328125 23.390625 
Q 57.328125 12.15625 50.6875 5.359375 
Q 44.046875 -1.421875 33.015625 -1.421875 
Q 20.359375 -1.421875 13.671875 8.265625 
Q 6.984375 17.96875 6.984375 36.375 
Q 6.984375 53.65625 15.1875 63.9375 
Q 23.390625 74.21875 37.203125 74.21875 
Q 40.921875 74.21875 44.703125 73.484375 
Q 48.484375 72.75 52.59375 71.296875 
z
" id="DejaVuSans-54"/>
       </defs>
       <use xlink:href="#DejaVuSans-50"/>
       <use x="63.623047" xlink:href="#DejaVuSans-48"/>
       <use x="127.246094" xlink:href="#DejaVuSans-50"/>
       <use x="190.869141" xlink:href="#DejaVuSans-48"/>
       <use x="254.492188" xlink:href="#DejaVuSans-45"/>
       <use x="290.576172" xlink:href="#DejaVuSans-48"/>
       <use x="354.199219" xlink:href="#DejaVuSans-54"/>
      </g>
     </g>
    </g>
    <g id="xtick_7">
     <g id="line2d_7">
      <g>
       <use style="stroke:#000000;stroke-width:0.8;" x="253.079263" xlink:href="#mcff501e087" y="226.602246"/>
      </g>
     </g>
     <g id="text_7">
      <!-- 2020-07 -->
      <g transform="translate(215.854442 261.074092)rotate(-30)scale(0.1 -0.1)">
       <defs>
        <path d="M 8.203125 72.90625 
L 55.078125 72.90625 
L 55.078125 68.703125 
L 28.609375 0 
L 18.3125 0 
L 43.21875 64.59375 
L 8.203125 64.59375 
z
" id="DejaVuSans-55"/>
       </defs>
       <use xlink:href="#DejaVuSans-50"/>
       <use x="63.623047" xlink:href="#DejaVuSans-48"/>
       <use x="127.246094" xlink:href="#DejaVuSans-50"/>
       <use x="190.869141" xlink:href="#DejaVuSans-48"/>
       <use x="254.492188" xlink:href="#DejaVuSans-45"/>
       <use x="290.576172" xlink:href="#DejaVuSans-48"/>
       <use x="354.199219" xlink:href="#DejaVuSans-55"/>
      </g>
     </g>
    </g>
    <g id="xtick_8">
     <g id="line2d_8">
      <g>
       <use style="stroke:#000000;stroke-width:0.8;" x="286.044113" xlink:href="#mcff501e087" y="226.602246"/>
      </g>
     </g>
     <g id="text_8">
      <!-- 2020-08 -->
      <g transform="translate(248.819293 261.074092)rotate(-30)scale(0.1 -0.1)">
       <defs>
        <path d="M 31.78125 34.625 
Q 24.75 34.625 20.71875 30.859375 
Q 16.703125 27.09375 16.703125 20.515625 
Q 16.703125 13.921875 20.71875 10.15625 
Q 24.75 6.390625 31.78125 6.390625 
Q 38.8125 6.390625 42.859375 10.171875 
Q 46.921875 13.96875 46.921875 20.515625 
Q 46.921875 27.09375 42.890625 30.859375 
Q 38.875 34.625 31.78125 34.625 
z
M 21.921875 38.8125 
Q 15.578125 40.375 12.03125 44.71875 
Q 8.5 49.078125 8.5 55.328125 
Q 8.5 64.0625 14.71875 69.140625 
Q 20.953125 74.21875 31.78125 74.21875 
Q 42.671875 74.21875 48.875 69.140625 
Q 55.078125 64.0625 55.078125 55.328125 
Q 55.078125 49.078125 51.53125 44.71875 
Q 48 40.375 41.703125 38.8125 
Q 48.828125 37.15625 52.796875 32.3125 
Q 56.78125 27.484375 56.78125 20.515625 
Q 56.78125 9.90625 50.3125 4.234375 
Q 43.84375 -1.421875 31.78125 -1.421875 
Q 19.734375 -1.421875 13.25 4.234375 
Q 6.78125 9.90625 6.78125 20.515625 
Q 6.78125 27.484375 10.78125 32.3125 
Q 14.796875 37.15625 21.921875 38.8125 
z
M 18.3125 54.390625 
Q 18.3125 48.734375 21.84375 45.5625 
Q 25.390625 42.390625 31.78125 42.390625 
Q 38.140625 42.390625 41.71875 45.5625 
Q 45.3125 48.734375 45.3125 54.390625 
Q 45.3125 60.0625 41.71875 63.234375 
Q 38.140625 66.40625 31.78125 66.40625 
Q 25.390625 66.40625 21.84375 63.234375 
Q 18.3125 60.0625 18.3125 54.390625 
z
" id="DejaVuSans-56"/>
       </defs>
       <use xlink:href="#DejaVuSans-50"/>
       <use x="63.623047" xlink:href="#DejaVuSans-48"/>
       <use x="127.246094" xlink:href="#DejaVuSans-50"/>
       <use x="190.869141" xlink:href="#DejaVuSans-48"/>
       <use x="254.492188" xlink:href="#DejaVuSans-45"/>
       <use x="290.576172" xlink:href="#DejaVuSans-48"/>
       <use x="354.199219" xlink:href="#DejaVuSans-56"/>
      </g>
     </g>
    </g>
    <g id="xtick_9">
     <g id="line2d_9">
      <g>
       <use style="stroke:#000000;stroke-width:0.8;" x="319.008964" xlink:href="#mcff501e087" y="226.602246"/>
      </g>
     </g>
     <g id="text_9">
      <!-- 2020-09 -->
      <g transform="translate(281.784143 261.074092)rotate(-30)scale(0.1 -0.1)">
       <defs>
        <path d="M 10.984375 1.515625 
L 10.984375 10.5 
Q 14.703125 8.734375 18.5 7.8125 
Q 22.3125 6.890625 25.984375 6.890625 
Q 35.75 6.890625 40.890625 13.453125 
Q 46.046875 20.015625 46.78125 33.40625 
Q 43.953125 29.203125 39.59375 26.953125 
Q 35.25 24.703125 29.984375 24.703125 
Q 19.046875 24.703125 12.671875 31.3125 
Q 6.296875 37.9375 6.296875 49.421875 
Q 6.296875 60.640625 12.9375 67.421875 
Q 19.578125 74.21875 30.609375 74.21875 
Q 43.265625 74.21875 49.921875 64.515625 
Q 56.59375 54.828125 56.59375 36.375 
Q 56.59375 19.140625 48.40625 8.859375 
Q 40.234375 -1.421875 26.421875 -1.421875 
Q 22.703125 -1.421875 18.890625 -0.6875 
Q 15.09375 0.046875 10.984375 1.515625 
z
M 30.609375 32.421875 
Q 37.25 32.421875 41.125 36.953125 
Q 45.015625 41.5 45.015625 49.421875 
Q 45.015625 57.28125 41.125 61.84375 
Q 37.25 66.40625 30.609375 66.40625 
Q 23.96875 66.40625 20.09375 61.84375 
Q 16.21875 57.28125 16.21875 49.421875 
Q 16.21875 41.5 20.09375 36.953125 
Q 23.96875 32.421875 30.609375 32.421875 
z
" id="DejaVuSans-57"/>
       </defs>
       <use xlink:href="#DejaVuSans-50"/>
       <use x="63.623047" xlink:href="#DejaVuSans-48"/>
       <use x="127.246094" xlink:href="#DejaVuSans-50"/>
       <use x="190.869141" xlink:href="#DejaVuSans-48"/>
       <use x="254.492188" xlink:href="#DejaVuSans-45"/>
       <use x="290.576172" xlink:href="#DejaVuSans-48"/>
       <use x="354.199219" xlink:href="#DejaVuSans-57"/>
      </g>
     </g>
    </g>
    <g id="xtick_10">
     <g id="line2d_10">
      <g>
       <use style="stroke:#000000;stroke-width:0.8;" x="350.910432" xlink:href="#mcff501e087" y="226.602246"/>
      </g>
     </g>
     <g id="text_10">
      <!-- 2020-10 -->
      <g transform="translate(313.685611 261.074092)rotate(-30)scale(0.1 -0.1)">
       <use xlink:href="#DejaVuSans-50"/>
       <use x="63.623047" xlink:href="#DejaVuSans-48"/>
       <use x="127.246094" xlink:href="#DejaVuSans-50"/>
       <use x="190.869141" xlink:href="#DejaVuSans-48"/>
       <use x="254.492188" xlink:href="#DejaVuSans-45"/>
       <use x="290.576172" xlink:href="#DejaVuSans-49"/>
       <use x="354.199219" xlink:href="#DejaVuSans-48"/>
      </g>
     </g>
    </g>
    <g id="xtick_11">
     <g id="line2d_11">
      <g>
       <use style="stroke:#000000;stroke-width:0.8;" x="383.875282" xlink:href="#mcff501e087" y="226.602246"/>
      </g>
     </g>
     <g id="text_11">
      <!-- 2020-11 -->
      <g transform="translate(346.650462 261.074092)rotate(-30)scale(0.1 -0.1)">
       <use xlink:href="#DejaVuSans-50"/>
       <use x="63.623047" xlink:href="#DejaVuSans-48"/>
       <use x="127.246094" xlink:href="#DejaVuSans-50"/>
       <use x="190.869141" xlink:href="#DejaVuSans-48"/>
       <use x="254.492188" xlink:href="#DejaVuSans-45"/>
       <use x="290.576172" xlink:href="#DejaVuSans-49"/>
       <use x="354.199219" xlink:href="#DejaVuSans-49"/>
      </g>
     </g>
    </g>
    <g id="xtick_12">
     <g id="line2d_12">
      <g>
       <use style="stroke:#000000;stroke-width:0.8;" x="415.77675" xlink:href="#mcff501e087" y="226.602246"/>
      </g>
     </g>
     <g id="text_12">
      <!-- 2020-12 -->
      <g transform="translate(378.55193 261.074092)rotate(-30)scale(0.1 -0.1)">
       <use xlink:href="#DejaVuSans-50"/>
       <use x="63.623047" xlink:href="#DejaVuSans-48"/>
       <use x="127.246094" xlink:href="#DejaVuSans-50"/>
       <use x="190.869141" xlink:href="#DejaVuSans-48"/>
       <use x="254.492188" xlink:href="#DejaVuSans-45"/>
       <use x="290.576172" xlink:href="#DejaVuSans-49"/>
       <use x="354.199219" xlink:href="#DejaVuSans-50"/>
      </g>
     </g>
    </g>
    <g id="text_13">
     <!-- Date -->
     <g transform="translate(220.924219 274.473592)scale(0.1 -0.1)">
      <defs>
       <path d="M 19.671875 64.796875 
L 19.671875 8.109375 
L 31.59375 8.109375 
Q 46.6875 8.109375 53.6875 14.9375 
Q 60.6875 21.78125 60.6875 36.53125 
Q 60.6875 51.171875 53.6875 57.984375 
Q 46.6875 64.796875 31.59375 64.796875 
z
M 9.8125 72.90625 
L 30.078125 72.90625 
Q 51.265625 72.90625 61.171875 64.09375 
Q 71.09375 55.28125 71.09375 36.53125 
Q 71.09375 17.671875 61.125 8.828125 
Q 51.171875 0 30.078125 0 
L 9.8125 0 
z
" id="DejaVuSans-68"/>
       <path d="M 34.28125 27.484375 
Q 23.390625 27.484375 19.1875 25 
Q 14.984375 22.515625 14.984375 16.5 
Q 14.984375 11.71875 18.140625 8.90625 
Q 21.296875 6.109375 26.703125 6.109375 
Q 34.1875 6.109375 38.703125 11.40625 
Q 43.21875 16.703125 43.21875 25.484375 
L 43.21875 27.484375 
z
M 52.203125 31.203125 
L 52.203125 0 
L 43.21875 0 
L 43.21875 8.296875 
Q 40.140625 3.328125 35.546875 0.953125 
Q 30.953125 -1.421875 24.3125 -1.421875 
Q 15.921875 -1.421875 10.953125 3.296875 
Q 6 8.015625 6 15.921875 
Q 6 25.140625 12.171875 29.828125 
Q 18.359375 34.515625 30.609375 34.515625 
L 43.21875 34.515625 
L 43.21875 35.40625 
Q 43.21875 41.609375 39.140625 45 
Q 35.0625 48.390625 27.6875 48.390625 
Q 23 48.390625 18.546875 47.265625 
Q 14.109375 46.140625 10.015625 43.890625 
L 10.015625 52.203125 
Q 14.9375 54.109375 19.578125 55.046875 
Q 24.21875 56 28.609375 56 
Q 40.484375 56 46.34375 49.84375 
Q 52.203125 43.703125 52.203125 31.203125 
z
" id="DejaVuSans-97"/>
       <path d="M 18.3125 70.21875 
L 18.3125 54.6875 
L 36.8125 54.6875 
L 36.8125 47.703125 
L 18.3125 47.703125 
L 18.3125 18.015625 
Q 18.3125 11.328125 20.140625 9.421875 
Q 21.96875 7.515625 27.59375 7.515625 
L 36.8125 7.515625 
L 36.8125 0 
L 27.59375 0 
Q 17.1875 0 13.234375 3.875 
Q 9.28125 7.765625 9.28125 18.015625 
L 9.28125 47.703125 
L 2.6875 47.703125 
L 2.6875 54.6875 
L 9.28125 54.6875 
L 9.28125 70.21875 
z
" id="DejaVuSans-116"/>
       <path d="M 56.203125 29.59375 
L 56.203125 25.203125 
L 14.890625 25.203125 
Q 15.484375 15.921875 20.484375 11.0625 
Q 25.484375 6.203125 34.421875 6.203125 
Q 39.59375 6.203125 44.453125 7.46875 
Q 49.3125 8.734375 54.109375 11.28125 
L 54.109375 2.78125 
Q 49.265625 0.734375 44.1875 -0.34375 
Q 39.109375 -1.421875 33.890625 -1.421875 
Q 20.796875 -1.421875 13.15625 6.1875 
Q 5.515625 13.8125 5.515625 26.8125 
Q 5.515625 40.234375 12.765625 48.109375 
Q 20.015625 56 32.328125 56 
Q 43.359375 56 49.78125 48.890625 
Q 56.203125 41.796875 56.203125 29.59375 
z
M 47.21875 32.234375 
Q 47.125 39.59375 43.09375 43.984375 
Q 39.0625 48.390625 32.421875 48.390625 
Q 24.90625 48.390625 20.390625 44.140625 
Q 15.875 39.890625 15.1875 32.171875 
z
" id="DejaVuSans-101"/>
      </defs>
      <use xlink:href="#DejaVuSans-68"/>
      <use x="77.001953" xlink:href="#DejaVuSans-97"/>
      <use x="138.28125" xlink:href="#DejaVuSans-116"/>
      <use x="177.490234" xlink:href="#DejaVuSans-101"/>
     </g>
    </g>
   </g>
   <g id="matplotlib.axis_2">
    <g id="ytick_1">
     <g id="line2d_13">
      <defs>
       <path d="M 0 0 
L -3.5 0 
" id="m751348333d" style="stroke:#000000;stroke-width:0.8;"/>
      </defs>
      <g>
       <use style="stroke:#000000;stroke-width:0.8;" x="44.55" xlink:href="#m751348333d" y="217.520326"/>
      </g>
     </g>
     <g id="text_14">
      <!-- 0 -->
      <g transform="translate(31.1875 221.319544)scale(0.1 -0.1)">
       <use xlink:href="#DejaVuSans-48"/>
      </g>
     </g>
    </g>
    <g id="ytick_2">
     <g id="line2d_14">
      <g>
       <use style="stroke:#000000;stroke-width:0.8;" x="44.55" xlink:href="#m751348333d" y="193.660643"/>
      </g>
     </g>
     <g id="text_15">
      <!-- 2 -->
      <g transform="translate(31.1875 197.459862)scale(0.1 -0.1)">
       <use xlink:href="#DejaVuSans-50"/>
      </g>
     </g>
    </g>
    <g id="ytick_3">
     <g id="line2d_15">
      <g>
       <use style="stroke:#000000;stroke-width:0.8;" x="44.55" xlink:href="#m751348333d" y="169.800961"/>
      </g>
     </g>
     <g id="text_16">
      <!-- 4 -->
      <g transform="translate(31.1875 173.60018)scale(0.1 -0.1)">
       <use xlink:href="#DejaVuSans-52"/>
      </g>
     </g>
    </g>
    <g id="ytick_4">
     <g id="line2d_16">
      <g>
       <use style="stroke:#000000;stroke-width:0.8;" x="44.55" xlink:href="#m751348333d" y="145.941279"/>
      </g>
     </g>
     <g id="text_17">
      <!-- 6 -->
      <g transform="translate(31.1875 149.740498)scale(0.1 -0.1)">
       <use xlink:href="#DejaVuSans-54"/>
      </g>
     </g>
    </g>
    <g id="ytick_5">
     <g id="line2d_17">
      <g>
       <use style="stroke:#000000;stroke-width:0.8;" x="44.55" xlink:href="#m751348333d" y="122.081597"/>
      </g>
     </g>
     <g id="text_18">
      <!-- 8 -->
      <g transform="translate(31.1875 125.880815)scale(0.1 -0.1)">
       <use xlink:href="#DejaVuSans-56"/>
      </g>
     </g>
    </g>
    <g id="ytick_6">
     <g id="line2d_18">
      <g>
       <use style="stroke:#000000;stroke-width:0.8;" x="44.55" xlink:href="#m751348333d" y="98.221914"/>
      </g>
     </g>
     <g id="text_19">
      <!-- 10 -->
      <g transform="translate(24.825 102.021133)scale(0.1 -0.1)">
       <use xlink:href="#DejaVuSans-49"/>
       <use x="63.623047" xlink:href="#DejaVuSans-48"/>
      </g>
     </g>
    </g>
    <g id="ytick_7">
     <g id="line2d_19">
      <g>
       <use style="stroke:#000000;stroke-width:0.8;" x="44.55" xlink:href="#m751348333d" y="74.362232"/>
      </g>
     </g>
     <g id="text_20">
      <!-- 12 -->
      <g transform="translate(24.825 78.161451)scale(0.1 -0.1)">
       <use xlink:href="#DejaVuSans-49"/>
       <use x="63.623047" xlink:href="#DejaVuSans-50"/>
      </g>
     </g>
    </g>
    <g id="ytick_8">
     <g id="line2d_20">
      <g>
       <use style="stroke:#000000;stroke-width:0.8;" x="44.55" xlink:href="#m751348333d" y="50.50255"/>
      </g>
     </g>
     <g id="text_21">
      <!-- 14 -->
      <g transform="translate(24.825 54.301769)scale(0.1 -0.1)">
       <use xlink:href="#DejaVuSans-49"/>
       <use x="63.623047" xlink:href="#DejaVuSans-52"/>
      </g>
     </g>
    </g>
    <g id="text_22">
     <!-- New deaths per million population -->
     <g transform="translate(18.745313 212.580029)rotate(-90)scale(0.1 -0.1)">
      <defs>
       <path d="M 9.8125 72.90625 
L 23.09375 72.90625 
L 55.421875 11.921875 
L 55.421875 72.90625 
L 64.984375 72.90625 
L 64.984375 0 
L 51.703125 0 
L 19.390625 60.984375 
L 19.390625 0 
L 9.8125 0 
z
" id="DejaVuSans-78"/>
       <path d="M 4.203125 54.6875 
L 13.1875 54.6875 
L 24.421875 12.015625 
L 35.59375 54.6875 
L 46.1875 54.6875 
L 57.421875 12.015625 
L 68.609375 54.6875 
L 77.59375 54.6875 
L 63.28125 0 
L 52.6875 0 
L 40.921875 44.828125 
L 29.109375 0 
L 18.5 0 
z
" id="DejaVuSans-119"/>
       <path id="DejaVuSans-32"/>
       <path d="M 45.40625 46.390625 
L 45.40625 75.984375 
L 54.390625 75.984375 
L 54.390625 0 
L 45.40625 0 
L 45.40625 8.203125 
Q 42.578125 3.328125 38.25 0.953125 
Q 33.9375 -1.421875 27.875 -1.421875 
Q 17.96875 -1.421875 11.734375 6.484375 
Q 5.515625 14.40625 5.515625 27.296875 
Q 5.515625 40.1875 11.734375 48.09375 
Q 17.96875 56 27.875 56 
Q 33.9375 56 38.25 53.625 
Q 42.578125 51.265625 45.40625 46.390625 
z
M 14.796875 27.296875 
Q 14.796875 17.390625 18.875 11.75 
Q 22.953125 6.109375 30.078125 6.109375 
Q 37.203125 6.109375 41.296875 11.75 
Q 45.40625 17.390625 45.40625 27.296875 
Q 45.40625 37.203125 41.296875 42.84375 
Q 37.203125 48.484375 30.078125 48.484375 
Q 22.953125 48.484375 18.875 42.84375 
Q 14.796875 37.203125 14.796875 27.296875 
z
" id="DejaVuSans-100"/>
       <path d="M 54.890625 33.015625 
L 54.890625 0 
L 45.90625 0 
L 45.90625 32.71875 
Q 45.90625 40.484375 42.875 44.328125 
Q 39.84375 48.1875 33.796875 48.1875 
Q 26.515625 48.1875 22.3125 43.546875 
Q 18.109375 38.921875 18.109375 30.90625 
L 18.109375 0 
L 9.078125 0 
L 9.078125 75.984375 
L 18.109375 75.984375 
L 18.109375 46.1875 
Q 21.34375 51.125 25.703125 53.5625 
Q 30.078125 56 35.796875 56 
Q 45.21875 56 50.046875 50.171875 
Q 54.890625 44.34375 54.890625 33.015625 
z
" id="DejaVuSans-104"/>
       <path d="M 44.28125 53.078125 
L 44.28125 44.578125 
Q 40.484375 46.53125 36.375 47.5 
Q 32.28125 48.484375 27.875 48.484375 
Q 21.1875 48.484375 17.84375 46.4375 
Q 14.5 44.390625 14.5 40.28125 
Q 14.5 37.15625 16.890625 35.375 
Q 19.28125 33.59375 26.515625 31.984375 
L 29.59375 31.296875 
Q 39.15625 29.25 43.1875 25.515625 
Q 47.21875 21.78125 47.21875 15.09375 
Q 47.21875 7.46875 41.1875 3.015625 
Q 35.15625 -1.421875 24.609375 -1.421875 
Q 20.21875 -1.421875 15.453125 -0.5625 
Q 10.6875 0.296875 5.421875 2 
L 5.421875 11.28125 
Q 10.40625 8.6875 15.234375 7.390625 
Q 20.0625 6.109375 24.8125 6.109375 
Q 31.15625 6.109375 34.5625 8.28125 
Q 37.984375 10.453125 37.984375 14.40625 
Q 37.984375 18.0625 35.515625 20.015625 
Q 33.0625 21.96875 24.703125 23.78125 
L 21.578125 24.515625 
Q 13.234375 26.265625 9.515625 29.90625 
Q 5.8125 33.546875 5.8125 39.890625 
Q 5.8125 47.609375 11.28125 51.796875 
Q 16.75 56 26.8125 56 
Q 31.78125 56 36.171875 55.265625 
Q 40.578125 54.546875 44.28125 53.078125 
z
" id="DejaVuSans-115"/>
       <path d="M 18.109375 8.203125 
L 18.109375 -20.796875 
L 9.078125 -20.796875 
L 9.078125 54.6875 
L 18.109375 54.6875 
L 18.109375 46.390625 
Q 20.953125 51.265625 25.265625 53.625 
Q 29.59375 56 35.59375 56 
Q 45.5625 56 51.78125 48.09375 
Q 58.015625 40.1875 58.015625 27.296875 
Q 58.015625 14.40625 51.78125 6.484375 
Q 45.5625 -1.421875 35.59375 -1.421875 
Q 29.59375 -1.421875 25.265625 0.953125 
Q 20.953125 3.328125 18.109375 8.203125 
z
M 48.6875 27.296875 
Q 48.6875 37.203125 44.609375 42.84375 
Q 40.53125 48.484375 33.40625 48.484375 
Q 26.265625 48.484375 22.1875 42.84375 
Q 18.109375 37.203125 18.109375 27.296875 
Q 18.109375 17.390625 22.1875 11.75 
Q 26.265625 6.109375 33.40625 6.109375 
Q 40.53125 6.109375 44.609375 11.75 
Q 48.6875 17.390625 48.6875 27.296875 
z
" id="DejaVuSans-112"/>
       <path d="M 41.109375 46.296875 
Q 39.59375 47.171875 37.8125 47.578125 
Q 36.03125 48 33.890625 48 
Q 26.265625 48 22.1875 43.046875 
Q 18.109375 38.09375 18.109375 28.8125 
L 18.109375 0 
L 9.078125 0 
L 9.078125 54.6875 
L 18.109375 54.6875 
L 18.109375 46.1875 
Q 20.953125 51.171875 25.484375 53.578125 
Q 30.03125 56 36.53125 56 
Q 37.453125 56 38.578125 55.875 
Q 39.703125 55.765625 41.0625 55.515625 
z
" id="DejaVuSans-114"/>
       <path d="M 52 44.1875 
Q 55.375 50.25 60.0625 53.125 
Q 64.75 56 71.09375 56 
Q 79.640625 56 84.28125 50.015625 
Q 88.921875 44.046875 88.921875 33.015625 
L 88.921875 0 
L 79.890625 0 
L 79.890625 32.71875 
Q 79.890625 40.578125 77.09375 44.375 
Q 74.3125 48.1875 68.609375 48.1875 
Q 61.625 48.1875 57.5625 43.546875 
Q 53.515625 38.921875 53.515625 30.90625 
L 53.515625 0 
L 44.484375 0 
L 44.484375 32.71875 
Q 44.484375 40.625 41.703125 44.40625 
Q 38.921875 48.1875 33.109375 48.1875 
Q 26.21875 48.1875 22.15625 43.53125 
Q 18.109375 38.875 18.109375 30.90625 
L 18.109375 0 
L 9.078125 0 
L 9.078125 54.6875 
L 18.109375 54.6875 
L 18.109375 46.1875 
Q 21.1875 51.21875 25.484375 53.609375 
Q 29.78125 56 35.6875 56 
Q 41.65625 56 45.828125 52.96875 
Q 50 49.953125 52 44.1875 
z
" id="DejaVuSans-109"/>
       <path d="M 9.421875 54.6875 
L 18.40625 54.6875 
L 18.40625 0 
L 9.421875 0 
z
M 9.421875 75.984375 
L 18.40625 75.984375 
L 18.40625 64.59375 
L 9.421875 64.59375 
z
" id="DejaVuSans-105"/>
       <path d="M 9.421875 75.984375 
L 18.40625 75.984375 
L 18.40625 0 
L 9.421875 0 
z
" id="DejaVuSans-108"/>
       <path d="M 30.609375 48.390625 
Q 23.390625 48.390625 19.1875 42.75 
Q 14.984375 37.109375 14.984375 27.296875 
Q 14.984375 17.484375 19.15625 11.84375 
Q 23.34375 6.203125 30.609375 6.203125 
Q 37.796875 6.203125 41.984375 11.859375 
Q 46.1875 17.53125 46.1875 27.296875 
Q 46.1875 37.015625 41.984375 42.703125 
Q 37.796875 48.390625 30.609375 48.390625 
z
M 30.609375 56 
Q 42.328125 56 49.015625 48.375 
Q 55.71875 40.765625 55.71875 27.296875 
Q 55.71875 13.875 49.015625 6.21875 
Q 42.328125 -1.421875 30.609375 -1.421875 
Q 18.84375 -1.421875 12.171875 6.21875 
Q 5.515625 13.875 5.515625 27.296875 
Q 5.515625 40.765625 12.171875 48.375 
Q 18.84375 56 30.609375 56 
z
" id="DejaVuSans-111"/>
       <path d="M 54.890625 33.015625 
L 54.890625 0 
L 45.90625 0 
L 45.90625 32.71875 
Q 45.90625 40.484375 42.875 44.328125 
Q 39.84375 48.1875 33.796875 48.1875 
Q 26.515625 48.1875 22.3125 43.546875 
Q 18.109375 38.921875 18.109375 30.90625 
L 18.109375 0 
L 9.078125 0 
L 9.078125 54.6875 
L 18.109375 54.6875 
L 18.109375 46.1875 
Q 21.34375 51.125 25.703125 53.5625 
Q 30.078125 56 35.796875 56 
Q 45.21875 56 50.046875 50.171875 
Q 54.890625 44.34375 54.890625 33.015625 
z
" id="DejaVuSans-110"/>
       <path d="M 8.5 21.578125 
L 8.5 54.6875 
L 17.484375 54.6875 
L 17.484375 21.921875 
Q 17.484375 14.15625 20.5 10.265625 
Q 23.53125 6.390625 29.59375 6.390625 
Q 36.859375 6.390625 41.078125 11.03125 
Q 45.3125 15.671875 45.3125 23.6875 
L 45.3125 54.6875 
L 54.296875 54.6875 
L 54.296875 0 
L 45.3125 0 
L 45.3125 8.40625 
Q 42.046875 3.421875 37.71875 1 
Q 33.40625 -1.421875 27.6875 -1.421875 
Q 18.265625 -1.421875 13.375 4.4375 
Q 8.5 10.296875 8.5 21.578125 
z
M 31.109375 56 
z
" id="DejaVuSans-117"/>
      </defs>
      <use xlink:href="#DejaVuSans-78"/>
      <use x="74.804688" xlink:href="#DejaVuSans-101"/>
      <use x="136.328125" xlink:href="#DejaVuSans-119"/>
      <use x="218.115234" xlink:href="#DejaVuSans-32"/>
      <use x="249.902344" xlink:href="#DejaVuSans-100"/>
      <use x="313.378906" xlink:href="#DejaVuSans-101"/>
      <use x="374.902344" xlink:href="#DejaVuSans-97"/>
      <use x="436.181641" xlink:href="#DejaVuSans-116"/>
      <use x="475.390625" xlink:href="#DejaVuSans-104"/>
      <use x="538.769531" xlink:href="#DejaVuSans-115"/>
      <use x="590.869141" xlink:href="#DejaVuSans-32"/>
      <use x="622.65625" xlink:href="#DejaVuSans-112"/>
      <use x="686.132812" xlink:href="#DejaVuSans-101"/>
      <use x="747.65625" xlink:href="#DejaVuSans-114"/>
      <use x="788.769531" xlink:href="#DejaVuSans-32"/>
      <use x="820.556641" xlink:href="#DejaVuSans-109"/>
      <use x="917.96875" xlink:href="#DejaVuSans-105"/>
      <use x="945.751953" xlink:href="#DejaVuSans-108"/>
      <use x="973.535156" xlink:href="#DejaVuSans-108"/>
      <use x="1001.318359" xlink:href="#DejaVuSans-105"/>
      <use x="1029.101562" xlink:href="#DejaVuSans-111"/>
      <use x="1090.283203" xlink:href="#DejaVuSans-110"/>
      <use x="1153.662109" xlink:href="#DejaVuSans-32"/>
      <use x="1185.449219" xlink:href="#DejaVuSans-112"/>
      <use x="1248.925781" xlink:href="#DejaVuSans-111"/>
      <use x="1310.107422" xlink:href="#DejaVuSans-112"/>
      <use x="1373.583984" xlink:href="#DejaVuSans-117"/>
      <use x="1436.962891" xlink:href="#DejaVuSans-108"/>
      <use x="1464.746094" xlink:href="#DejaVuSans-97"/>
      <use x="1526.025391" xlink:href="#DejaVuSans-116"/>
      <use x="1565.234375" xlink:href="#DejaVuSans-105"/>
      <use x="1593.017578" xlink:href="#DejaVuSans-111"/>
      <use x="1654.199219" xlink:href="#DejaVuSans-110"/>
     </g>
    </g>
   </g>
   <g id="line2d_21">
    <path clip-path="url(#p00f0ba57df)" d="M 61.670455 217.520326 
L 143.550889 217.520326 
L 144.614272 216.620345 
L 145.677654 216.620345 
L 146.741036 215.720365 
L 148.867801 212.120444 
L 150.994565 206.720562 
L 152.057947 205.820582 
L 153.12133 200.4207 
L 154.184712 200.4207 
L 155.248094 196.820779 
L 156.311477 196.820779 
L 157.374859 194.120838 
L 158.438241 186.021015 
L 159.501623 180.621133 
L 160.565006 179.721153 
L 161.628388 174.321271 
L 162.69177 177.021212 
L 163.755152 174.321271 
L 165.881917 177.921192 
L 166.945299 171.62133 
L 168.008682 168.021409 
L 169.072064 168.921389 
L 170.135446 162.621527 
L 171.198828 161.721546 
L 172.262211 149.121822 
L 173.325593 141.921979 
L 174.388975 140.122019 
L 175.452357 149.121822 
L 176.51574 142.82196 
L 177.579122 140.122019 
L 178.642504 118.522491 
L 179.705887 123.022393 
L 180.769269 125.722334 
L 181.832651 126.622314 
L 182.896033 123.022393 
L 183.959416 125.722334 
L 185.022798 119.422472 
L 186.08618 138.322058 
L 187.149562 141.921979 
L 188.212945 139.222039 
L 189.276327 143.72194 
L 190.339709 143.72194 
L 191.403091 147.321861 
L 192.466474 150.021802 
L 193.529856 145.521901 
L 194.593238 150.021802 
L 195.656621 162.621527 
L 196.720003 168.921389 
L 197.783385 168.921389 
L 198.846767 171.62133 
L 199.91015 178.821172 
L 200.973532 189.620936 
L 202.036914 188.720956 
L 203.100296 178.821172 
L 204.163679 178.821172 
L 205.227061 180.621133 
L 206.290443 177.921192 
L 207.353826 179.721153 
L 208.417208 177.021212 
L 209.48059 175.221251 
L 210.543972 186.021015 
L 211.607355 188.720956 
L 212.670737 190.520916 
L 213.734119 188.720956 
L 214.797501 195.020818 
L 215.860884 197.720759 
L 216.924266 202.22066 
L 220.114413 202.22066 
L 221.177795 208.520523 
L 222.241177 206.720562 
L 223.30456 201.32068 
L 224.367942 202.22066 
L 225.431324 204.020621 
L 226.494706 204.020621 
L 228.621471 205.820582 
L 229.684853 207.620542 
L 230.748235 214.820385 
L 232.875 214.820385 
L 233.938382 213.920404 
L 236.065147 213.920404 
L 238.191911 212.120444 
L 239.255294 213.020424 
L 240.318676 213.020424 
L 241.382058 213.920404 
L 248.825734 213.920404 
L 250.952499 212.120444 
L 253.079263 213.920404 
L 255.206028 212.120444 
L 258.396174 214.820385 
L 260.522939 214.820385 
L 261.586321 215.720365 
L 262.649704 217.520326 
L 264.776468 217.520326 
L 265.83985 215.720365 
L 272.220144 215.720365 
L 273.283526 217.520326 
L 294.551172 217.520326 
L 295.614554 216.620345 
L 298.804701 216.620345 
L 299.868083 215.720365 
L 301.994848 215.720365 
L 303.05823 216.620345 
L 304.121612 215.720365 
L 306.248377 215.720365 
L 307.311759 216.620345 
L 310.501906 216.620345 
L 311.565288 217.520326 
L 312.62867 217.520326 
L 313.692053 216.620345 
L 319.008964 216.620345 
L 320.072346 214.820385 
L 321.135728 214.820385 
L 322.199111 213.920404 
L 324.325875 213.920404 
L 325.389257 213.020424 
L 326.45264 211.220464 
L 327.516022 213.020424 
L 328.579404 213.020424 
L 329.642787 213.920404 
L 331.769551 213.920404 
L 332.832933 213.020424 
L 333.896316 213.920404 
L 334.959698 212.120444 
L 336.02308 213.020424 
L 337.086462 211.220464 
L 340.276609 211.220464 
L 341.339992 212.120444 
L 342.403374 213.920404 
L 343.466756 213.920404 
L 344.530138 215.720365 
L 345.593521 214.820385 
L 346.656903 214.820385 
L 347.720285 216.620345 
L 348.783667 216.620345 
L 349.84705 215.720365 
L 350.910432 213.920404 
L 351.973814 213.020424 
L 353.037196 213.020424 
L 354.100579 212.120444 
L 355.163961 212.120444 
L 356.227343 211.220464 
L 357.290726 211.220464 
L 360.480872 213.920404 
L 361.544255 213.920404 
L 362.607637 211.220464 
L 363.671019 205.820582 
L 365.797784 200.4207 
L 367.924548 196.820779 
L 368.987931 193.220857 
L 370.051313 190.520916 
L 371.114695 194.120838 
L 373.24146 192.320877 
L 374.304842 189.620936 
L 375.368224 186.021015 
L 376.431606 183.321074 
L 377.494989 184.221054 
L 378.558371 175.221251 
L 379.621753 171.62133 
L 380.685136 168.921389 
L 381.748518 165.321468 
L 382.8119 160.821566 
L 383.875282 160.821566 
L 384.938665 158.121625 
L 386.002047 164.421487 
L 387.065429 163.521507 
L 388.128811 159.921586 
L 389.192194 160.821566 
L 390.255576 158.121625 
L 391.318958 159.021605 
L 392.38234 157.221645 
L 393.445723 152.721743 
L 394.509105 154.521704 
L 396.63587 149.121822 
L 397.699252 152.721743 
L 398.762634 150.921783 
L 399.826016 147.321861 
L 400.889399 149.121822 
L 401.952781 146.421881 
L 403.016163 149.121822 
L 404.079545 148.221842 
L 404.079545 148.221842 
" style="fill:none;stroke:#1f77b4;stroke-linecap:square;stroke-width:1.5;"/>
   </g>
   <g id="line2d_22">
    <path clip-path="url(#p00f0ba57df)" d="M 61.670455 217.520326 
L 139.29736 217.520326 
L 141.424125 216.896431 
L 142.487507 215.960588 
L 143.550889 215.960588 
L 144.614272 215.64864 
L 145.677654 214.712798 
L 146.741036 213.465008 
L 147.804418 213.15306 
L 148.867801 211.593322 
L 149.931183 211.593322 
L 150.994565 209.097742 
L 152.057947 207.226057 
L 153.12133 207.849952 
L 154.184712 207.226057 
L 156.311477 194.12426 
L 157.374859 186.013624 
L 159.501623 161.993663 
L 160.565006 161.681715 
L 161.628388 162.929505 
L 162.69177 146.708233 
L 163.755152 133.606436 
L 164.818535 117.385164 
L 165.881917 116.761269 
L 166.945299 116.449321 
L 168.008682 109.586475 
L 169.072064 107.402843 
L 170.135446 118.009059 
L 171.198828 113.641794 
L 172.262211 113.953741 
L 174.388975 108.026738 
L 175.452357 112.394003 
L 176.51574 111.458161 
L 177.579122 102.099734 
L 178.642504 104.283367 
L 179.705887 111.146213 
L 180.769269 109.274528 
L 181.832651 112.082056 
L 182.896033 109.586475 
L 183.959416 109.274528 
L 185.022798 109.274528 
L 186.08618 107.402843 
L 187.149562 106.778948 
L 188.212945 114.265689 
L 189.276327 115.201531 
L 190.339709 117.073217 
L 191.403091 119.568797 
L 192.466474 127.679433 
L 193.529856 127.679433 
L 194.593238 127.991381 
L 195.656621 125.183853 
L 196.720003 127.679433 
L 197.783385 128.303328 
L 198.846767 128.303328 
L 199.91015 126.431643 
L 200.973532 133.294489 
L 202.036914 141.093177 
L 203.100296 142.02902 
L 204.163679 140.469282 
L 205.227061 140.78123 
L 206.290443 141.717072 
L 207.353826 148.267971 
L 208.417208 151.699394 
L 209.48059 150.763551 
L 210.543972 157.626397 
L 211.607355 165.425086 
L 212.670737 165.425086 
L 213.734119 165.113138 
L 214.797501 168.544561 
L 215.860884 180.08662 
L 216.924266 187.885309 
L 217.987648 190.692837 
L 219.05103 188.821152 
L 220.114413 188.821152 
L 221.177795 189.445047 
L 222.241177 191.316732 
L 223.30456 191.940627 
L 224.367942 192.87647 
L 225.431324 193.188417 
L 226.494706 198.179578 
L 227.558089 200.987106 
L 228.621471 201.299053 
L 229.684853 202.858791 
L 230.748235 202.546844 
L 231.811618 203.794634 
L 232.875 207.226057 
L 233.938382 207.538004 
L 235.001765 207.226057 
L 236.065147 207.226057 
L 237.128529 207.849952 
L 239.255294 209.721637 
L 240.318676 208.785794 
L 241.382058 209.721637 
L 242.44544 210.033585 
L 243.508823 210.033585 
L 244.572205 210.345532 
L 245.635587 211.90527 
L 246.69897 211.90527 
L 247.762352 213.776955 
L 248.825734 214.40085 
L 250.952499 214.40085 
L 252.015881 214.712798 
L 253.079263 215.64864 
L 254.142645 215.960588 
L 255.206028 215.64864 
L 258.396174 215.64864 
L 259.459557 216.272536 
L 260.522939 216.272536 
L 262.649704 216.896431 
L 265.83985 216.896431 
L 267.966615 217.520326 
L 269.029997 217.208378 
L 275.410291 217.208378 
L 276.473673 217.520326 
L 304.121612 217.520326 
L 305.184994 217.208378 
L 311.565288 217.208378 
L 312.62867 216.896431 
L 319.008964 216.896431 
L 320.072346 217.208378 
L 321.135728 216.896431 
L 325.389257 216.896431 
L 326.45264 215.960588 
L 328.579404 216.584483 
L 332.832933 216.584483 
L 333.896316 217.208378 
L 334.959698 216.896431 
L 336.02308 216.896431 
L 337.086462 216.584483 
L 338.149845 215.64864 
L 341.339992 215.64864 
L 342.403374 215.336693 
L 343.466756 214.712798 
L 344.530138 214.712798 
L 345.593521 215.64864 
L 346.656903 215.336693 
L 347.720285 215.336693 
L 348.783667 215.64864 
L 349.84705 214.088903 
L 350.910432 213.776955 
L 351.973814 212.841113 
L 353.037196 211.593322 
L 354.100579 211.90527 
L 355.163961 211.90527 
L 356.227343 211.281375 
L 357.290726 213.15306 
L 360.480872 211.281375 
L 362.607637 211.281375 
L 363.671019 209.721637 
L 364.734401 205.354371 
L 365.797784 202.858791 
L 366.861166 201.922948 
L 367.924548 199.115421 
L 368.987931 199.115421 
L 370.051313 198.803473 
L 371.114695 196.307893 
L 372.178077 192.252575 
L 373.24146 191.004784 
L 374.304842 188.197257 
L 375.368224 189.445047 
L 376.431606 189.133099 
L 377.494989 189.133099 
L 378.558371 186.013624 
L 379.621753 186.013624 
L 380.685136 179.774673 
L 381.748518 176.655197 
L 382.8119 172.599879 
L 383.875282 171.040142 
L 384.938665 171.352089 
L 386.002047 170.416247 
L 387.065429 163.553401 
L 388.128811 162.929505 
L 389.192194 161.993663 
L 390.255576 157.31445 
L 391.318958 158.250292 
L 392.38234 157.938345 
L 393.445723 154.506922 
L 394.509105 150.139656 
L 395.572487 148.267971 
L 396.63587 140.469282 
L 398.762634 142.340968 
L 399.826016 140.78123 
L 400.889399 141.405125 
L 401.952781 144.5246 
L 403.016163 142.964863 
L 404.079545 150.451604 
L 404.079545 150.451604 
" style="fill:none;stroke:#ff7f0e;stroke-linecap:square;stroke-width:1.5;"/>
   </g>
   <g id="line2d_23">
    <path clip-path="url(#p00f0ba57df)" d="M 61.670455 217.520326 
L 131.853684 217.429491 
L 132.917067 217.308379 
L 136.107213 217.247823 
L 139.29736 215.673361 
L 140.360743 215.340301 
L 141.424125 214.341124 
L 142.487507 213.129999 
L 143.550889 212.191378 
L 144.614272 211.101366 
L 145.677654 210.798584 
L 146.741036 209.436069 
L 147.804418 205.560471 
L 148.867801 201.170144 
L 149.931183 197.324824 
L 152.057947 183.275779 
L 153.12133 178.098221 
L 154.184712 169.438681 
L 155.248094 162.626105 
L 157.374859 136.314424 
L 160.565006 100.707362 
L 161.628388 95.317858 
L 162.69177 75.909587 
L 163.755152 66.55365 
L 165.881917 43.300058 
L 166.945299 41.604484 
L 168.008682 40.817253 
L 169.072064 35.88192 
L 170.135446 35.942476 
L 171.198828 41.755874 
L 172.262211 44.299236 
L 173.325593 50.627362 
L 174.388975 42.78533 
L 175.452357 49.567628 
L 176.51574 54.35157 
L 177.579122 51.051255 
L 178.642504 51.202646 
L 179.705887 60.649417 
L 180.769269 60.800808 
L 181.832651 69.127289 
L 182.896033 70.732029 
L 185.022798 85.901364 
L 186.08618 89.565016 
L 187.149562 91.1092 
L 188.212945 97.104267 
L 189.276327 104.492126 
L 190.339709 107.671328 
L 191.403091 108.943009 
L 192.466474 115.695029 
L 193.529856 117.965887 
L 194.593238 122.992054 
L 195.656621 126.776818 
L 196.720003 134.61885 
L 197.783385 135.587749 
L 198.846767 137.798052 
L 199.91015 140.825863 
L 200.973532 145.882308 
L 202.036914 148.122889 
L 203.100296 154.723517 
L 204.163679 151.029588 
L 205.227061 155.48047 
L 206.290443 156.691595 
L 207.353826 159.477181 
L 208.417208 162.595827 
L 209.48059 165.10891 
L 210.543972 165.805307 
L 211.607355 170.377302 
L 212.670737 160.718584 
L 213.734119 162.171933 
L 214.797501 172.527048 
L 215.860884 168.378947 
L 216.924266 165.502526 
L 217.987648 165.835585 
L 219.05103 168.257834 
L 220.114413 178.037665 
L 221.177795 178.249612 
L 222.241177 174.525404 
L 223.30456 179.914908 
L 224.367942 186.061365 
L 225.431324 186.273312 
L 227.558089 185.698028 
L 228.621471 186.757762 
L 229.684853 188.24139 
L 230.748235 190.512248 
L 231.811618 191.965598 
L 232.875 195.659527 
L 233.938382 196.628427 
L 235.001765 197.415658 
L 236.065147 197.990942 
L 237.128529 200.201245 
L 238.191911 201.805985 
L 239.255294 201.927097 
L 240.318676 203.259334 
L 241.382058 204.076843 
L 242.44544 203.864896 
L 243.508823 204.228234 
L 244.572205 204.894352 
L 245.635587 205.378802 
L 246.69897 204.44018 
L 247.762352 204.349346 
L 248.825734 205.348524 
L 249.889116 205.40908 
L 250.952499 205.287968 
L 252.015881 206.408258 
L 253.079263 205.923808 
L 254.142645 207.740495 
L 255.206028 208.679116 
L 258.396174 209.375513 
L 259.459557 209.284679 
L 260.522939 210.435247 
L 261.586321 210.495803 
L 264.776468 211.434425 
L 265.83985 211.525259 
L 266.903233 211.767484 
L 267.966615 212.615271 
L 270.093379 213.069443 
L 271.156762 213.28139 
L 273.283526 213.190555 
L 274.346909 213.705283 
L 275.410291 213.947508 
L 276.473673 214.371402 
L 278.600438 213.977786 
L 279.66382 214.068621 
L 281.790584 214.40168 
L 282.853967 214.008064 
L 283.917349 214.280568 
L 284.980731 214.825574 
L 289.23426 215.279745 
L 290.297643 215.794473 
L 291.361025 215.340301 
L 293.487789 215.885308 
L 294.551172 215.794473 
L 295.614554 215.310023 
L 296.677936 215.491692 
L 300.931465 215.158633 
L 301.994848 215.219189 
L 303.05823 215.643083 
L 305.184994 215.643083 
L 306.248377 216.00642 
L 307.311759 216.248645 
L 308.375141 215.794473 
L 313.692053 215.552248 
L 314.755435 215.340301 
L 316.882199 215.582526 
L 317.945582 215.612805 
L 319.008964 216.036698 
L 320.072346 216.218367 
L 324.325875 216.188089 
L 325.389257 216.188089 
L 326.45264 215.431136 
L 329.642787 215.431136 
L 330.706169 215.491692 
L 334.959698 215.03752 
L 336.02308 214.88613 
L 338.149845 213.977786 
L 339.213227 213.584171 
L 340.276609 213.523615 
L 341.339992 213.190555 
L 343.466756 212.130821 
L 345.593521 211.646372 
L 346.656903 211.706928 
L 347.720285 211.585815 
L 349.84705 209.73885 
L 350.910432 209.405791 
L 351.973814 208.588282 
L 353.037196 208.315779 
L 354.100579 207.831329 
L 355.163961 207.649661 
L 356.227343 207.801051 
L 357.290726 207.710217 
L 359.41749 206.408258 
L 360.480872 205.954086 
L 361.544255 205.045743 
L 362.607637 204.319068 
L 363.671019 202.472103 
L 366.861166 198.687339 
L 367.924548 196.446758 
L 368.987931 196.537593 
L 370.051313 195.659527 
L 371.114695 192.964775 
L 372.178077 191.874763 
L 373.24146 190.391136 
L 374.304842 188.332224 
L 375.368224 187.938608 
L 376.431606 185.576916 
L 377.494989 185.031909 
L 378.558371 181.731595 
L 379.621753 178.946009 
L 380.685136 177.31099 
L 381.748518 176.160422 
L 382.8119 172.01232 
L 383.875282 172.163711 
L 386.002047 169.983687 
L 387.065429 165.381414 
L 389.192194 160.536915 
L 390.255576 159.02301 
L 391.318958 159.1744 
L 392.38234 157.660494 
L 394.509105 151.877375 
L 395.572487 146.669539 
L 396.63587 147.365936 
L 397.699252 145.307024 
L 399.826016 144.338124 
L 400.889399 142.581994 
L 403.016163 145.85203 
L 404.079545 141.128644 
L 404.079545 141.128644 
" style="fill:none;stroke:#2ca02c;stroke-linecap:square;stroke-width:1.5;"/>
   </g>
   <g id="line2d_24">
    <path clip-path="url(#p00f0ba57df)" d="M 61.670455 217.520326 
L 143.550889 217.520326 
L 144.614272 216.439242 
L 145.677654 211.574365 
L 146.741036 209.412198 
L 147.804418 208.871656 
L 148.867801 206.168947 
L 150.994565 199.682445 
L 152.057947 198.601361 
L 153.12133 198.060819 
L 154.184712 192.655401 
L 155.248094 189.41215 
L 156.311477 176.439146 
L 157.374859 169.412102 
L 158.438241 159.682349 
L 159.501623 154.817472 
L 160.565006 153.736389 
L 162.69177 140.222843 
L 163.755152 138.060675 
L 164.818535 126.168755 
L 165.881917 123.466045 
L 166.945299 111.033583 
L 168.008682 107.790332 
L 169.072064 114.276834 
L 170.135446 114.276834 
L 171.198828 99.682204 
L 172.262211 104.547081 
L 173.325593 114.276834 
L 174.388975 118.601169 
L 175.452357 106.168707 
L 176.51574 109.411958 
L 177.579122 106.168707 
L 178.642504 130.493089 
L 179.705887 138.601217 
L 180.769269 85.087575 
L 181.832651 87.790284 
L 182.896033 102.384914 
L 183.959416 102.925456 
L 185.022798 107.24979 
L 186.08618 75.898363 
L 187.149562 73.195654 
L 188.212945 123.466045 
L 189.276327 112.114667 
L 190.339709 112.114667 
L 191.403091 108.871416 
L 192.466474 104.006539 
L 193.529856 132.114715 
L 194.593238 134.276882 
L 195.656621 128.330922 
L 196.720003 147.249886 
L 197.783385 148.33097 
L 198.846767 153.195847 
L 199.91015 158.601265 
L 200.973532 158.060723 
L 202.036914 162.385058 
L 203.100296 172.655353 
L 204.163679 167.790476 
L 205.227061 167.790476 
L 206.290443 168.331018 
L 207.353826 167.790476 
L 208.417208 172.114811 
L 209.48059 172.655353 
L 210.543972 173.736437 
L 211.607355 180.222939 
L 212.670737 182.925648 
L 213.734119 181.304022 
L 214.797501 186.168899 
L 215.860884 187.790524 
L 216.924266 185.087815 
L 217.987648 183.46619 
L 219.05103 179.141855 
L 220.114413 176.979688 
L 221.177795 178.060771 
L 222.241177 178.601313 
L 223.30456 175.358062 
L 225.431324 181.844564 
L 226.494706 184.006732 
L 227.558089 187.249983 
L 228.621471 188.331066 
L 229.684853 187.249983 
L 230.748235 191.574317 
L 231.811618 192.655401 
L 232.875 189.41215 
L 233.938382 191.574317 
L 235.001765 192.655401 
L 236.065147 192.114859 
L 237.128529 192.655401 
L 238.191911 192.114859 
L 239.255294 192.655401 
L 240.318676 195.898652 
L 241.382058 198.601361 
L 242.44544 199.682445 
L 244.572205 202.925696 
L 245.635587 204.00678 
L 246.69897 203.466238 
L 247.762352 204.547322 
L 248.825734 202.385154 
L 249.889116 201.844612 
L 250.952499 200.763529 
L 253.079263 202.925696 
L 254.142645 201.844612 
L 256.26941 201.844612 
L 257.332792 202.385154 
L 258.396174 204.00678 
L 259.459557 204.00678 
L 260.522939 205.087863 
L 261.586321 208.331114 
L 262.649704 209.412198 
L 263.713086 211.574365 
L 264.776468 212.114907 
L 265.83985 212.114907 
L 266.903233 212.655449 
L 269.029997 214.817616 
L 270.093379 214.277075 
L 271.156762 214.817616 
L 272.220144 214.277075 
L 273.283526 214.277075 
L 274.346909 215.358158 
L 275.410291 215.8987 
L 276.473673 215.8987 
L 277.537055 216.439242 
L 281.790584 216.439242 
L 282.853967 214.277075 
L 283.917349 214.277075 
L 284.980731 211.033824 
L 287.107496 208.871656 
L 288.170878 208.871656 
L 289.23426 208.331114 
L 290.297643 209.95274 
L 291.361025 208.331114 
L 292.424407 207.790573 
L 293.487789 208.331114 
L 294.551172 209.95274 
L 295.614554 209.95274 
L 296.677936 209.412198 
L 297.741318 207.790573 
L 298.804701 209.412198 
L 299.868083 213.195991 
L 300.931465 213.195991 
L 301.994848 212.114907 
L 303.05823 212.114907 
L 304.121612 213.195991 
L 305.184994 215.8987 
L 309.438523 215.8987 
L 310.501906 215.358158 
L 311.565288 215.358158 
L 313.692053 214.277075 
L 314.755435 214.277075 
L 315.818817 214.817616 
L 316.882199 215.8987 
L 317.945582 216.439242 
L 319.008964 215.8987 
L 321.135728 216.979784 
L 322.199111 216.979784 
L 323.262493 216.439242 
L 325.389257 216.439242 
L 326.45264 216.979784 
L 329.642787 216.979784 
L 330.706169 217.520326 
L 334.959698 217.520326 
L 336.02308 215.8987 
L 337.086462 215.358158 
L 338.149845 214.277075 
L 341.339992 214.277075 
L 342.403374 213.195991 
L 343.466756 214.277075 
L 344.530138 213.195991 
L 345.593521 212.655449 
L 347.720285 212.655449 
L 348.783667 211.033824 
L 349.84705 211.574365 
L 350.910432 208.871656 
L 351.973814 208.871656 
L 353.037196 207.790573 
L 355.163961 207.790573 
L 356.227343 204.00678 
L 357.290726 202.925696 
L 358.354108 205.628405 
L 359.41749 206.168947 
L 360.480872 197.520278 
L 361.544255 196.439194 
L 362.607637 194.277027 
L 363.671019 196.979736 
L 364.734401 193.195943 
L 365.797784 188.331066 
L 366.861166 186.709441 
L 367.924548 195.35811 
L 368.987931 194.817568 
L 370.051313 196.439194 
L 371.114695 193.736485 
L 372.178077 191.574317 
L 373.24146 193.195943 
L 374.304842 188.871608 
L 375.368224 182.925648 
L 376.431606 181.844564 
L 377.494989 179.141855 
L 378.558371 180.763481 
L 379.621753 168.331018 
L 380.685136 160.763432 
L 381.748518 161.844516 
L 382.8119 163.466142 
L 383.875282 157.520181 
L 386.002047 160.763432 
L 387.065429 156.97964 
L 388.128811 152.114763 
L 389.192194 151.033679 
L 390.255576 140.763384 
L 391.318958 139.141759 
L 392.38234 136.43905 
L 393.445723 126.709296 
L 394.509105 126.168755 
L 395.572487 124.006587 
L 396.63587 115.357918 
L 397.699252 121.84442 
L 398.762634 123.466045 
L 399.826016 126.709296 
L 400.889399 120.222794 
L 401.952781 122.384962 
L 403.016163 128.330922 
L 404.079545 127.249838 
L 404.079545 127.249838 
" style="fill:none;stroke:#d62728;stroke-linecap:square;stroke-width:1.5;"/>
   </g>
   <g id="line2d_25"/>
   <g id="line2d_26"/>
   <g id="line2d_27"/>
   <g id="line2d_28"/>
   <g id="patch_3">
    <path d="M 44.55 226.602246 
L 44.55 26.8 
" style="fill:none;stroke:#000000;stroke-linecap:square;stroke-linejoin:miter;stroke-width:0.8;"/>
   </g>
   <g id="patch_4">
    <path d="M 421.2 226.602246 
L 421.2 26.8 
" style="fill:none;stroke:#000000;stroke-linecap:square;stroke-linejoin:miter;stroke-width:0.8;"/>
   </g>
   <g id="patch_5">
    <path d="M 44.55 226.602246 
L 421.2 226.602246 
" style="fill:none;stroke:#000000;stroke-linecap:square;stroke-linejoin:miter;stroke-width:0.8;"/>
   </g>
   <g id="patch_6">
    <path d="M 44.55 26.8 
L 421.2 26.8 
" style="fill:none;stroke:#000000;stroke-linecap:square;stroke-linejoin:miter;stroke-width:0.8;"/>
   </g>
   <g id="text_23">
    <!-- New deaths per million people by Nation (7 day rolling) -->
    <g transform="translate(66.704062 20.8)scale(0.12 -0.12)">
     <defs>
      <path d="M 48.6875 27.296875 
Q 48.6875 37.203125 44.609375 42.84375 
Q 40.53125 48.484375 33.40625 48.484375 
Q 26.265625 48.484375 22.1875 42.84375 
Q 18.109375 37.203125 18.109375 27.296875 
Q 18.109375 17.390625 22.1875 11.75 
Q 26.265625 6.109375 33.40625 6.109375 
Q 40.53125 6.109375 44.609375 11.75 
Q 48.6875 17.390625 48.6875 27.296875 
z
M 18.109375 46.390625 
Q 20.953125 51.265625 25.265625 53.625 
Q 29.59375 56 35.59375 56 
Q 45.5625 56 51.78125 48.09375 
Q 58.015625 40.1875 58.015625 27.296875 
Q 58.015625 14.40625 51.78125 6.484375 
Q 45.5625 -1.421875 35.59375 -1.421875 
Q 29.59375 -1.421875 25.265625 0.953125 
Q 20.953125 3.328125 18.109375 8.203125 
L 18.109375 0 
L 9.078125 0 
L 9.078125 75.984375 
L 18.109375 75.984375 
z
" id="DejaVuSans-98"/>
      <path d="M 32.171875 -5.078125 
Q 28.375 -14.84375 24.75 -17.8125 
Q 21.140625 -20.796875 15.09375 -20.796875 
L 7.90625 -20.796875 
L 7.90625 -13.28125 
L 13.1875 -13.28125 
Q 16.890625 -13.28125 18.9375 -11.515625 
Q 21 -9.765625 23.484375 -3.21875 
L 25.09375 0.875 
L 2.984375 54.6875 
L 12.5 54.6875 
L 29.59375 11.921875 
L 46.6875 54.6875 
L 56.203125 54.6875 
z
" id="DejaVuSans-121"/>
      <path d="M 31 75.875 
Q 24.46875 64.65625 21.28125 53.65625 
Q 18.109375 42.671875 18.109375 31.390625 
Q 18.109375 20.125 21.3125 9.0625 
Q 24.515625 -2 31 -13.1875 
L 23.1875 -13.1875 
Q 15.875 -1.703125 12.234375 9.375 
Q 8.59375 20.453125 8.59375 31.390625 
Q 8.59375 42.28125 12.203125 53.3125 
Q 15.828125 64.359375 23.1875 75.875 
z
" id="DejaVuSans-40"/>
      <path d="M 45.40625 27.984375 
Q 45.40625 37.75 41.375 43.109375 
Q 37.359375 48.484375 30.078125 48.484375 
Q 22.859375 48.484375 18.828125 43.109375 
Q 14.796875 37.75 14.796875 27.984375 
Q 14.796875 18.265625 18.828125 12.890625 
Q 22.859375 7.515625 30.078125 7.515625 
Q 37.359375 7.515625 41.375 12.890625 
Q 45.40625 18.265625 45.40625 27.984375 
z
M 54.390625 6.78125 
Q 54.390625 -7.171875 48.1875 -13.984375 
Q 42 -20.796875 29.203125 -20.796875 
Q 24.46875 -20.796875 20.265625 -20.09375 
Q 16.0625 -19.390625 12.109375 -17.921875 
L 12.109375 -9.1875 
Q 16.0625 -11.328125 19.921875 -12.34375 
Q 23.78125 -13.375 27.78125 -13.375 
Q 36.625 -13.375 41.015625 -8.765625 
Q 45.40625 -4.15625 45.40625 5.171875 
L 45.40625 9.625 
Q 42.625 4.78125 38.28125 2.390625 
Q 33.9375 0 27.875 0 
Q 17.828125 0 11.671875 7.65625 
Q 5.515625 15.328125 5.515625 27.984375 
Q 5.515625 40.671875 11.671875 48.328125 
Q 17.828125 56 27.875 56 
Q 33.9375 56 38.28125 53.609375 
Q 42.625 51.21875 45.40625 46.390625 
L 45.40625 54.6875 
L 54.390625 54.6875 
z
" id="DejaVuSans-103"/>
      <path d="M 8.015625 75.875 
L 15.828125 75.875 
Q 23.140625 64.359375 26.78125 53.3125 
Q 30.421875 42.28125 30.421875 31.390625 
Q 30.421875 20.453125 26.78125 9.375 
Q 23.140625 -1.703125 15.828125 -13.1875 
L 8.015625 -13.1875 
Q 14.5 -2 17.703125 9.0625 
Q 20.90625 20.125 20.90625 31.390625 
Q 20.90625 42.671875 17.703125 53.65625 
Q 14.5 64.65625 8.015625 75.875 
z
" id="DejaVuSans-41"/>
     </defs>
     <use xlink:href="#DejaVuSans-78"/>
     <use x="74.804688" xlink:href="#DejaVuSans-101"/>
     <use x="136.328125" xlink:href="#DejaVuSans-119"/>
     <use x="218.115234" xlink:href="#DejaVuSans-32"/>
     <use x="249.902344" xlink:href="#DejaVuSans-100"/>
     <use x="313.378906" xlink:href="#DejaVuSans-101"/>
     <use x="374.902344" xlink:href="#DejaVuSans-97"/>
     <use x="436.181641" xlink:href="#DejaVuSans-116"/>
     <use x="475.390625" xlink:href="#DejaVuSans-104"/>
     <use x="538.769531" xlink:href="#DejaVuSans-115"/>
     <use x="590.869141" xlink:href="#DejaVuSans-32"/>
     <use x="622.65625" xlink:href="#DejaVuSans-112"/>
     <use x="686.132812" xlink:href="#DejaVuSans-101"/>
     <use x="747.65625" xlink:href="#DejaVuSans-114"/>
     <use x="788.769531" xlink:href="#DejaVuSans-32"/>
     <use x="820.556641" xlink:href="#DejaVuSans-109"/>
     <use x="917.96875" xlink:href="#DejaVuSans-105"/>
     <use x="945.751953" xlink:href="#DejaVuSans-108"/>
     <use x="973.535156" xlink:href="#DejaVuSans-108"/>
     <use x="1001.318359" xlink:href="#DejaVuSans-105"/>
     <use x="1029.101562" xlink:href="#DejaVuSans-111"/>
     <use x="1090.283203" xlink:href="#DejaVuSans-110"/>
     <use x="1153.662109" xlink:href="#DejaVuSans-32"/>
     <use x="1185.449219" xlink:href="#DejaVuSans-112"/>
     <use x="1248.925781" xlink:href="#DejaVuSans-101"/>
     <use x="1310.449219" xlink:href="#DejaVuSans-111"/>
     <use x="1371.630859" xlink:href="#DejaVuSans-112"/>
     <use x="1435.107422" xlink:href="#DejaVuSans-108"/>
     <use x="1462.890625" xlink:href="#DejaVuSans-101"/>
     <use x="1524.414062" xlink:href="#DejaVuSans-32"/>
     <use x="1556.201172" xlink:href="#DejaVuSans-98"/>
     <use x="1619.677734" xlink:href="#DejaVuSans-121"/>
     <use x="1678.857422" xlink:href="#DejaVuSans-32"/>
     <use x="1710.644531" xlink:href="#DejaVuSans-78"/>
     <use x="1785.449219" xlink:href="#DejaVuSans-97"/>
     <use x="1846.728516" xlink:href="#DejaVuSans-116"/>
     <use x="1885.9375" xlink:href="#DejaVuSans-105"/>
     <use x="1913.720703" xlink:href="#DejaVuSans-111"/>
     <use x="1974.902344" xlink:href="#DejaVuSans-110"/>
     <use x="2038.28125" xlink:href="#DejaVuSans-32"/>
     <use x="2070.068359" xlink:href="#DejaVuSans-40"/>
     <use x="2109.082031" xlink:href="#DejaVuSans-55"/>
     <use x="2172.705078" xlink:href="#DejaVuSans-32"/>
     <use x="2204.492188" xlink:href="#DejaVuSans-100"/>
     <use x="2267.96875" xlink:href="#DejaVuSans-97"/>
     <use x="2329.248047" xlink:href="#DejaVuSans-121"/>
     <use x="2388.427734" xlink:href="#DejaVuSans-32"/>
     <use x="2420.214844" xlink:href="#DejaVuSans-114"/>
     <use x="2459.078125" xlink:href="#DejaVuSans-111"/>
     <use x="2520.259766" xlink:href="#DejaVuSans-108"/>
     <use x="2548.042969" xlink:href="#DejaVuSans-108"/>
     <use x="2575.826172" xlink:href="#DejaVuSans-105"/>
     <use x="2603.609375" xlink:href="#DejaVuSans-110"/>
     <use x="2666.988281" xlink:href="#DejaVuSans-103"/>
     <use x="2730.464844" xlink:href="#DejaVuSans-41"/>
    </g>
   </g>
   <g id="legend_1">
    <g id="patch_7">
     <path d="M 300.045312 108.190625 
L 414.2 108.190625 
Q 416.2 108.190625 416.2 106.190625 
L 416.2 33.8 
Q 416.2 31.8 414.2 31.8 
L 300.045312 31.8 
Q 298.045312 31.8 298.045312 33.8 
L 298.045312 106.190625 
Q 298.045312 108.190625 300.045312 108.190625 
z
" style="fill:#ffffff;opacity:0.8;stroke:#cccccc;stroke-linejoin:miter;"/>
    </g>
    <g id="text_24">
     <!-- Nation -->
     <g transform="translate(340.740625 43.398437)scale(0.1 -0.1)">
      <use xlink:href="#DejaVuSans-78"/>
      <use x="74.804688" xlink:href="#DejaVuSans-97"/>
      <use x="136.083984" xlink:href="#DejaVuSans-116"/>
      <use x="175.292969" xlink:href="#DejaVuSans-105"/>
      <use x="203.076172" xlink:href="#DejaVuSans-111"/>
      <use x="264.257812" xlink:href="#DejaVuSans-110"/>
     </g>
    </g>
    <g id="line2d_29">
     <path d="M 302.045312 54.576562 
L 322.045312 54.576562 
" style="fill:none;stroke:#1f77b4;stroke-linecap:square;stroke-width:1.5;"/>
    </g>
    <g id="line2d_30"/>
    <g id="text_25">
     <!-- Northern Ireland -->
     <g transform="translate(330.045312 58.076562)scale(0.1 -0.1)">
      <defs>
       <path d="M 9.8125 72.90625 
L 19.671875 72.90625 
L 19.671875 0 
L 9.8125 0 
z
" id="DejaVuSans-73"/>
      </defs>
      <use xlink:href="#DejaVuSans-78"/>
      <use x="74.804688" xlink:href="#DejaVuSans-111"/>
      <use x="135.986328" xlink:href="#DejaVuSans-114"/>
      <use x="177.099609" xlink:href="#DejaVuSans-116"/>
      <use x="216.308594" xlink:href="#DejaVuSans-104"/>
      <use x="279.6875" xlink:href="#DejaVuSans-101"/>
      <use x="341.210938" xlink:href="#DejaVuSans-114"/>
      <use x="380.574219" xlink:href="#DejaVuSans-110"/>
      <use x="443.953125" xlink:href="#DejaVuSans-32"/>
      <use x="475.740234" xlink:href="#DejaVuSans-73"/>
      <use x="505.232422" xlink:href="#DejaVuSans-114"/>
      <use x="544.095703" xlink:href="#DejaVuSans-101"/>
      <use x="605.619141" xlink:href="#DejaVuSans-108"/>
      <use x="633.402344" xlink:href="#DejaVuSans-97"/>
      <use x="694.681641" xlink:href="#DejaVuSans-110"/>
      <use x="758.060547" xlink:href="#DejaVuSans-100"/>
     </g>
    </g>
    <g id="line2d_31">
     <path d="M 302.045312 69.254687 
L 322.045312 69.254687 
" style="fill:none;stroke:#ff7f0e;stroke-linecap:square;stroke-width:1.5;"/>
    </g>
    <g id="line2d_32"/>
    <g id="text_26">
     <!-- Scotland -->
     <g transform="translate(330.045312 72.754687)scale(0.1 -0.1)">
      <defs>
       <path d="M 53.515625 70.515625 
L 53.515625 60.890625 
Q 47.90625 63.578125 42.921875 64.890625 
Q 37.9375 66.21875 33.296875 66.21875 
Q 25.25 66.21875 20.875 63.09375 
Q 16.5 59.96875 16.5 54.203125 
Q 16.5 49.359375 19.40625 46.890625 
Q 22.3125 44.4375 30.421875 42.921875 
L 36.375 41.703125 
Q 47.40625 39.59375 52.65625 34.296875 
Q 57.90625 29 57.90625 20.125 
Q 57.90625 9.515625 50.796875 4.046875 
Q 43.703125 -1.421875 29.984375 -1.421875 
Q 24.8125 -1.421875 18.96875 -0.25 
Q 13.140625 0.921875 6.890625 3.21875 
L 6.890625 13.375 
Q 12.890625 10.015625 18.65625 8.296875 
Q 24.421875 6.59375 29.984375 6.59375 
Q 38.421875 6.59375 43.015625 9.90625 
Q 47.609375 13.234375 47.609375 19.390625 
Q 47.609375 24.75 44.3125 27.78125 
Q 41.015625 30.8125 33.5 32.328125 
L 27.484375 33.5 
Q 16.453125 35.6875 11.515625 40.375 
Q 6.59375 45.0625 6.59375 53.421875 
Q 6.59375 63.09375 13.40625 68.65625 
Q 20.21875 74.21875 32.171875 74.21875 
Q 37.3125 74.21875 42.625 73.28125 
Q 47.953125 72.359375 53.515625 70.515625 
z
" id="DejaVuSans-83"/>
       <path d="M 48.78125 52.59375 
L 48.78125 44.1875 
Q 44.96875 46.296875 41.140625 47.34375 
Q 37.3125 48.390625 33.40625 48.390625 
Q 24.65625 48.390625 19.8125 42.84375 
Q 14.984375 37.3125 14.984375 27.296875 
Q 14.984375 17.28125 19.8125 11.734375 
Q 24.65625 6.203125 33.40625 6.203125 
Q 37.3125 6.203125 41.140625 7.25 
Q 44.96875 8.296875 48.78125 10.40625 
L 48.78125 2.09375 
Q 45.015625 0.34375 40.984375 -0.53125 
Q 36.96875 -1.421875 32.421875 -1.421875 
Q 20.0625 -1.421875 12.78125 6.34375 
Q 5.515625 14.109375 5.515625 27.296875 
Q 5.515625 40.671875 12.859375 48.328125 
Q 20.21875 56 33.015625 56 
Q 37.15625 56 41.109375 55.140625 
Q 45.0625 54.296875 48.78125 52.59375 
z
" id="DejaVuSans-99"/>
      </defs>
      <use xlink:href="#DejaVuSans-83"/>
      <use x="63.476562" xlink:href="#DejaVuSans-99"/>
      <use x="118.457031" xlink:href="#DejaVuSans-111"/>
      <use x="179.638672" xlink:href="#DejaVuSans-116"/>
      <use x="218.847656" xlink:href="#DejaVuSans-108"/>
      <use x="246.630859" xlink:href="#DejaVuSans-97"/>
      <use x="307.910156" xlink:href="#DejaVuSans-110"/>
      <use x="371.289062" xlink:href="#DejaVuSans-100"/>
     </g>
    </g>
    <g id="line2d_33">
     <path d="M 302.045312 83.932812 
L 322.045312 83.932812 
" style="fill:none;stroke:#2ca02c;stroke-linecap:square;stroke-width:1.5;"/>
    </g>
    <g id="line2d_34"/>
    <g id="text_27">
     <!-- England -->
     <g transform="translate(330.045312 87.432812)scale(0.1 -0.1)">
      <defs>
       <path d="M 9.8125 72.90625 
L 55.90625 72.90625 
L 55.90625 64.59375 
L 19.671875 64.59375 
L 19.671875 43.015625 
L 54.390625 43.015625 
L 54.390625 34.71875 
L 19.671875 34.71875 
L 19.671875 8.296875 
L 56.78125 8.296875 
L 56.78125 0 
L 9.8125 0 
z
" id="DejaVuSans-69"/>
      </defs>
      <use xlink:href="#DejaVuSans-69"/>
      <use x="63.183594" xlink:href="#DejaVuSans-110"/>
      <use x="126.5625" xlink:href="#DejaVuSans-103"/>
      <use x="190.039062" xlink:href="#DejaVuSans-108"/>
      <use x="217.822266" xlink:href="#DejaVuSans-97"/>
      <use x="279.101562" xlink:href="#DejaVuSans-110"/>
      <use x="342.480469" xlink:href="#DejaVuSans-100"/>
     </g>
    </g>
    <g id="line2d_35">
     <path d="M 302.045312 98.610937 
L 322.045312 98.610937 
" style="fill:none;stroke:#d62728;stroke-linecap:square;stroke-width:1.5;"/>
    </g>
    <g id="line2d_36"/>
    <g id="text_28">
     <!-- Wales -->
     <g transform="translate(330.045312 102.110937)scale(0.1 -0.1)">
      <defs>
       <path d="M 3.328125 72.90625 
L 13.28125 72.90625 
L 28.609375 11.28125 
L 43.890625 72.90625 
L 54.984375 72.90625 
L 70.3125 11.28125 
L 85.59375 72.90625 
L 95.609375 72.90625 
L 77.296875 0 
L 64.890625 0 
L 49.515625 63.28125 
L 33.984375 0 
L 21.578125 0 
z
" id="DejaVuSans-87"/>
      </defs>
      <use xlink:href="#DejaVuSans-87"/>
      <use x="92.501953" xlink:href="#DejaVuSans-97"/>
      <use x="153.78125" xlink:href="#DejaVuSans-108"/>
      <use x="181.564453" xlink:href="#DejaVuSans-101"/>
      <use x="243.087891" xlink:href="#DejaVuSans-115"/>
     </g>
    </g>
   </g>
  </g>
 </g>
 <defs>
  <clipPath id="p00f0ba57df">
   <rect height="199.802246" width="376.65" x="44.55" y="26.8"/>
  </clipPath>
 </defs>
</svg>
