<?xml version="1.0" encoding="utf-8" standalone="no"?>
<!DOCTYPE svg PUBLIC "-//W3C//DTD SVG 1.1//EN"
  "http://www.w3.org/Graphics/SVG/1.1/DTD/svg11.dtd">
<!-- Created with matplotlib (https://matplotlib.org/) -->
<svg height="360pt" version="1.1" viewBox="0 0 540 360" width="540pt" xmlns="http://www.w3.org/2000/svg" xmlns:xlink="http://www.w3.org/1999/xlink">
 <defs>
  <style type="text/css">
*{stroke-linecap:butt;stroke-linejoin:round;}
  </style>
 </defs>
 <g id="figure_1">
  <g id="patch_1">
   <path d="M 0 360 
L 540 360 
L 540 0 
L 0 0 
z
" style="fill:#ffffff;"/>
  </g>
  <g id="axes_1">
   <g id="patch_2">
    <path d="M 43.610268 295.102246 
L 529.2 295.102246 
L 529.2 26.8 
L 43.610268 26.8 
z
" style="fill:#ffffff;"/>
   </g>
   <g id="matplotlib.axis_1">
    <g id="xtick_1">
     <g id="line2d_1">
      <defs>
       <path d="M 0 0 
L 0 3.5 
" id="mf5488b1188" style="stroke:#000000;"/>
      </defs>
      <g>
       <use style="stroke:#000000;" x="53.420162" xlink:href="#mf5488b1188" y="295.102246"/>
      </g>
     </g>
     <g id="text_1">
      <!-- 2020-01 -->
      <defs>
       <path d="M 19.1875 8.296875 
L 53.609375 8.296875 
L 53.609375 0 
L 7.328125 0 
L 7.328125 8.296875 
Q 12.9375 14.109375 22.625 23.890625 
Q 32.328125 33.6875 34.8125 36.53125 
Q 39.546875 41.84375 41.421875 45.53125 
Q 43.3125 49.21875 43.3125 52.78125 
Q 43.3125 58.59375 39.234375 62.25 
Q 35.15625 65.921875 28.609375 65.921875 
Q 23.96875 65.921875 18.8125 64.3125 
Q 13.671875 62.703125 7.8125 59.421875 
L 7.8125 69.390625 
Q 13.765625 71.78125 18.9375 73 
Q 24.125 74.21875 28.421875 74.21875 
Q 39.75 74.21875 46.484375 68.546875 
Q 53.21875 62.890625 53.21875 53.421875 
Q 53.21875 48.921875 51.53125 44.890625 
Q 49.859375 40.875 45.40625 35.40625 
Q 44.1875 33.984375 37.640625 27.21875 
Q 31.109375 20.453125 19.1875 8.296875 
z
" id="DejaVuSans-50"/>
       <path d="M 31.78125 66.40625 
Q 24.171875 66.40625 20.328125 58.90625 
Q 16.5 51.421875 16.5 36.375 
Q 16.5 21.390625 20.328125 13.890625 
Q 24.171875 6.390625 31.78125 6.390625 
Q 39.453125 6.390625 43.28125 13.890625 
Q 47.125 21.390625 47.125 36.375 
Q 47.125 51.421875 43.28125 58.90625 
Q 39.453125 66.40625 31.78125 66.40625 
z
M 31.78125 74.21875 
Q 44.046875 74.21875 50.515625 64.515625 
Q 56.984375 54.828125 56.984375 36.375 
Q 56.984375 17.96875 50.515625 8.265625 
Q 44.046875 -1.421875 31.78125 -1.421875 
Q 19.53125 -1.421875 13.0625 8.265625 
Q 6.59375 17.96875 6.59375 36.375 
Q 6.59375 54.828125 13.0625 64.515625 
Q 19.53125 74.21875 31.78125 74.21875 
z
" id="DejaVuSans-48"/>
       <path d="M 4.890625 31.390625 
L 31.203125 31.390625 
L 31.203125 23.390625 
L 4.890625 23.390625 
z
" id="DejaVuSans-45"/>
       <path d="M 12.40625 8.296875 
L 28.515625 8.296875 
L 28.515625 63.921875 
L 10.984375 60.40625 
L 10.984375 69.390625 
L 28.421875 72.90625 
L 38.28125 72.90625 
L 38.28125 8.296875 
L 54.390625 8.296875 
L 54.390625 0 
L 12.40625 0 
z
" id="DejaVuSans-49"/>
      </defs>
      <g transform="translate(16.195341 333.074092)rotate(-30)scale(0.1 -0.1)">
       <use xlink:href="#DejaVuSans-50"/>
       <use x="63.623047" xlink:href="#DejaVuSans-48"/>
       <use x="127.246094" xlink:href="#DejaVuSans-50"/>
       <use x="190.869141" xlink:href="#DejaVuSans-48"/>
       <use x="254.492188" xlink:href="#DejaVuSans-45"/>
       <use x="290.576172" xlink:href="#DejaVuSans-48"/>
       <use x="354.199219" xlink:href="#DejaVuSans-49"/>
      </g>
     </g>
    </g>
    <g id="xtick_2">
     <g id="line2d_2">
      <g>
       <use style="stroke:#000000;" x="100.936834" xlink:href="#mf5488b1188" y="295.102246"/>
      </g>
     </g>
     <g id="text_2">
      <!-- 2020-02 -->
      <g transform="translate(63.712013 333.074092)rotate(-30)scale(0.1 -0.1)">
       <use xlink:href="#DejaVuSans-50"/>
       <use x="63.623047" xlink:href="#DejaVuSans-48"/>
       <use x="127.246094" xlink:href="#DejaVuSans-50"/>
       <use x="190.869141" xlink:href="#DejaVuSans-48"/>
       <use x="254.492188" xlink:href="#DejaVuSans-45"/>
       <use x="290.576172" xlink:href="#DejaVuSans-48"/>
       <use x="354.199219" xlink:href="#DejaVuSans-50"/>
      </g>
     </g>
    </g>
    <g id="xtick_3">
     <g id="line2d_3">
      <g>
       <use style="stroke:#000000;" x="145.387914" xlink:href="#mf5488b1188" y="295.102246"/>
      </g>
     </g>
     <g id="text_3">
      <!-- 2020-03 -->
      <defs>
       <path d="M 40.578125 39.3125 
Q 47.65625 37.796875 51.625 33 
Q 55.609375 28.21875 55.609375 21.1875 
Q 55.609375 10.40625 48.1875 4.484375 
Q 40.765625 -1.421875 27.09375 -1.421875 
Q 22.515625 -1.421875 17.65625 -0.515625 
Q 12.796875 0.390625 7.625 2.203125 
L 7.625 11.71875 
Q 11.71875 9.328125 16.59375 8.109375 
Q 21.484375 6.890625 26.8125 6.890625 
Q 36.078125 6.890625 40.9375 10.546875 
Q 45.796875 14.203125 45.796875 21.1875 
Q 45.796875 27.640625 41.28125 31.265625 
Q 36.765625 34.90625 28.71875 34.90625 
L 20.21875 34.90625 
L 20.21875 43.015625 
L 29.109375 43.015625 
Q 36.375 43.015625 40.234375 45.921875 
Q 44.09375 48.828125 44.09375 54.296875 
Q 44.09375 59.90625 40.109375 62.90625 
Q 36.140625 65.921875 28.71875 65.921875 
Q 24.65625 65.921875 20.015625 65.03125 
Q 15.375 64.15625 9.8125 62.3125 
L 9.8125 71.09375 
Q 15.4375 72.65625 20.34375 73.4375 
Q 25.25 74.21875 29.59375 74.21875 
Q 40.828125 74.21875 47.359375 69.109375 
Q 53.90625 64.015625 53.90625 55.328125 
Q 53.90625 49.265625 50.4375 45.09375 
Q 46.96875 40.921875 40.578125 39.3125 
z
" id="DejaVuSans-51"/>
      </defs>
      <g transform="translate(108.163093 333.074092)rotate(-30)scale(0.1 -0.1)">
       <use xlink:href="#DejaVuSans-50"/>
       <use x="63.623047" xlink:href="#DejaVuSans-48"/>
       <use x="127.246094" xlink:href="#DejaVuSans-50"/>
       <use x="190.869141" xlink:href="#DejaVuSans-48"/>
       <use x="254.492188" xlink:href="#DejaVuSans-45"/>
       <use x="290.576172" xlink:href="#DejaVuSans-48"/>
       <use x="354.199219" xlink:href="#DejaVuSans-51"/>
      </g>
     </g>
    </g>
    <g id="xtick_4">
     <g id="line2d_4">
      <g>
       <use style="stroke:#000000;" x="192.904586" xlink:href="#mf5488b1188" y="295.102246"/>
      </g>
     </g>
     <g id="text_4">
      <!-- 2020-04 -->
      <defs>
       <path d="M 37.796875 64.3125 
L 12.890625 25.390625 
L 37.796875 25.390625 
z
M 35.203125 72.90625 
L 47.609375 72.90625 
L 47.609375 25.390625 
L 58.015625 25.390625 
L 58.015625 17.1875 
L 47.609375 17.1875 
L 47.609375 0 
L 37.796875 0 
L 37.796875 17.1875 
L 4.890625 17.1875 
L 4.890625 26.703125 
z
" id="DejaVuSans-52"/>
      </defs>
      <g transform="translate(155.679765 333.074092)rotate(-30)scale(0.1 -0.1)">
       <use xlink:href="#DejaVuSans-50"/>
       <use x="63.623047" xlink:href="#DejaVuSans-48"/>
       <use x="127.246094" xlink:href="#DejaVuSans-50"/>
       <use x="190.869141" xlink:href="#DejaVuSans-48"/>
       <use x="254.492188" xlink:href="#DejaVuSans-45"/>
       <use x="290.576172" xlink:href="#DejaVuSans-48"/>
       <use x="354.199219" xlink:href="#DejaVuSans-52"/>
      </g>
     </g>
    </g>
    <g id="xtick_5">
     <g id="line2d_5">
      <g>
       <use style="stroke:#000000;" x="238.888462" xlink:href="#mf5488b1188" y="295.102246"/>
      </g>
     </g>
     <g id="text_5">
      <!-- 2020-05 -->
      <defs>
       <path d="M 10.796875 72.90625 
L 49.515625 72.90625 
L 49.515625 64.59375 
L 19.828125 64.59375 
L 19.828125 46.734375 
Q 21.96875 47.46875 24.109375 47.828125 
Q 26.265625 48.1875 28.421875 48.1875 
Q 40.625 48.1875 47.75 41.5 
Q 54.890625 34.8125 54.890625 23.390625 
Q 54.890625 11.625 47.5625 5.09375 
Q 40.234375 -1.421875 26.90625 -1.421875 
Q 22.3125 -1.421875 17.546875 -0.640625 
Q 12.796875 0.140625 7.71875 1.703125 
L 7.71875 11.625 
Q 12.109375 9.234375 16.796875 8.0625 
Q 21.484375 6.890625 26.703125 6.890625 
Q 35.15625 6.890625 40.078125 11.328125 
Q 45.015625 15.765625 45.015625 23.390625 
Q 45.015625 31 40.078125 35.4375 
Q 35.15625 39.890625 26.703125 39.890625 
Q 22.75 39.890625 18.8125 39.015625 
Q 14.890625 38.140625 10.796875 36.28125 
z
" id="DejaVuSans-53"/>
      </defs>
      <g transform="translate(201.663641 333.074092)rotate(-30)scale(0.1 -0.1)">
       <use xlink:href="#DejaVuSans-50"/>
       <use x="63.623047" xlink:href="#DejaVuSans-48"/>
       <use x="127.246094" xlink:href="#DejaVuSans-50"/>
       <use x="190.869141" xlink:href="#DejaVuSans-48"/>
       <use x="254.492188" xlink:href="#DejaVuSans-45"/>
       <use x="290.576172" xlink:href="#DejaVuSans-48"/>
       <use x="354.199219" xlink:href="#DejaVuSans-53"/>
      </g>
     </g>
    </g>
    <g id="xtick_6">
     <g id="line2d_6">
      <g>
       <use style="stroke:#000000;" x="286.405134" xlink:href="#mf5488b1188" y="295.102246"/>
      </g>
     </g>
     <g id="text_6">
      <!-- 2020-06 -->
      <defs>
       <path d="M 33.015625 40.375 
Q 26.375 40.375 22.484375 35.828125 
Q 18.609375 31.296875 18.609375 23.390625 
Q 18.609375 15.53125 22.484375 10.953125 
Q 26.375 6.390625 33.015625 6.390625 
Q 39.65625 6.390625 43.53125 10.953125 
Q 47.40625 15.53125 47.40625 23.390625 
Q 47.40625 31.296875 43.53125 35.828125 
Q 39.65625 40.375 33.015625 40.375 
z
M 52.59375 71.296875 
L 52.59375 62.3125 
Q 48.875 64.0625 45.09375 64.984375 
Q 41.3125 65.921875 37.59375 65.921875 
Q 27.828125 65.921875 22.671875 59.328125 
Q 17.53125 52.734375 16.796875 39.40625 
Q 19.671875 43.65625 24.015625 45.921875 
Q 28.375 48.1875 33.59375 48.1875 
Q 44.578125 48.1875 50.953125 41.515625 
Q 57.328125 34.859375 57.328125 23.390625 
Q 57.328125 12.15625 50.6875 5.359375 
Q 44.046875 -1.421875 33.015625 -1.421875 
Q 20.359375 -1.421875 13.671875 8.265625 
Q 6.984375 17.96875 6.984375 36.375 
Q 6.984375 53.65625 15.1875 63.9375 
Q 23.390625 74.21875 37.203125 74.21875 
Q 40.921875 74.21875 44.703125 73.484375 
Q 48.484375 72.75 52.59375 71.296875 
z
" id="DejaVuSans-54"/>
      </defs>
      <g transform="translate(249.180313 333.074092)rotate(-30)scale(0.1 -0.1)">
       <use xlink:href="#DejaVuSans-50"/>
       <use x="63.623047" xlink:href="#DejaVuSans-48"/>
       <use x="127.246094" xlink:href="#DejaVuSans-50"/>
       <use x="190.869141" xlink:href="#DejaVuSans-48"/>
       <use x="254.492188" xlink:href="#DejaVuSans-45"/>
       <use x="290.576172" xlink:href="#DejaVuSans-48"/>
       <use x="354.199219" xlink:href="#DejaVuSans-54"/>
      </g>
     </g>
    </g>
    <g id="xtick_7">
     <g id="line2d_7">
      <g>
       <use style="stroke:#000000;" x="332.38901" xlink:href="#mf5488b1188" y="295.102246"/>
      </g>
     </g>
     <g id="text_7">
      <!-- 2020-07 -->
      <defs>
       <path d="M 8.203125 72.90625 
L 55.078125 72.90625 
L 55.078125 68.703125 
L 28.609375 0 
L 18.3125 0 
L 43.21875 64.59375 
L 8.203125 64.59375 
z
" id="DejaVuSans-55"/>
      </defs>
      <g transform="translate(295.164189 333.074092)rotate(-30)scale(0.1 -0.1)">
       <use xlink:href="#DejaVuSans-50"/>
       <use x="63.623047" xlink:href="#DejaVuSans-48"/>
       <use x="127.246094" xlink:href="#DejaVuSans-50"/>
       <use x="190.869141" xlink:href="#DejaVuSans-48"/>
       <use x="254.492188" xlink:href="#DejaVuSans-45"/>
       <use x="290.576172" xlink:href="#DejaVuSans-48"/>
       <use x="354.199219" xlink:href="#DejaVuSans-55"/>
      </g>
     </g>
    </g>
    <g id="xtick_8">
     <g id="line2d_8">
      <g>
       <use style="stroke:#000000;" x="379.905682" xlink:href="#mf5488b1188" y="295.102246"/>
      </g>
     </g>
     <g id="text_8">
      <!-- 2020-08 -->
      <defs>
       <path d="M 31.78125 34.625 
Q 24.75 34.625 20.71875 30.859375 
Q 16.703125 27.09375 16.703125 20.515625 
Q 16.703125 13.921875 20.71875 10.15625 
Q 24.75 6.390625 31.78125 6.390625 
Q 38.8125 6.390625 42.859375 10.171875 
Q 46.921875 13.96875 46.921875 20.515625 
Q 46.921875 27.09375 42.890625 30.859375 
Q 38.875 34.625 31.78125 34.625 
z
M 21.921875 38.8125 
Q 15.578125 40.375 12.03125 44.71875 
Q 8.5 49.078125 8.5 55.328125 
Q 8.5 64.0625 14.71875 69.140625 
Q 20.953125 74.21875 31.78125 74.21875 
Q 42.671875 74.21875 48.875 69.140625 
Q 55.078125 64.0625 55.078125 55.328125 
Q 55.078125 49.078125 51.53125 44.71875 
Q 48 40.375 41.703125 38.8125 
Q 48.828125 37.15625 52.796875 32.3125 
Q 56.78125 27.484375 56.78125 20.515625 
Q 56.78125 9.90625 50.3125 4.234375 
Q 43.84375 -1.421875 31.78125 -1.421875 
Q 19.734375 -1.421875 13.25 4.234375 
Q 6.78125 9.90625 6.78125 20.515625 
Q 6.78125 27.484375 10.78125 32.3125 
Q 14.796875 37.15625 21.921875 38.8125 
z
M 18.3125 54.390625 
Q 18.3125 48.734375 21.84375 45.5625 
Q 25.390625 42.390625 31.78125 42.390625 
Q 38.140625 42.390625 41.71875 45.5625 
Q 45.3125 48.734375 45.3125 54.390625 
Q 45.3125 60.0625 41.71875 63.234375 
Q 38.140625 66.40625 31.78125 66.40625 
Q 25.390625 66.40625 21.84375 63.234375 
Q 18.3125 60.0625 18.3125 54.390625 
z
" id="DejaVuSans-56"/>
      </defs>
      <g transform="translate(342.680861 333.074092)rotate(-30)scale(0.1 -0.1)">
       <use xlink:href="#DejaVuSans-50"/>
       <use x="63.623047" xlink:href="#DejaVuSans-48"/>
       <use x="127.246094" xlink:href="#DejaVuSans-50"/>
       <use x="190.869141" xlink:href="#DejaVuSans-48"/>
       <use x="254.492188" xlink:href="#DejaVuSans-45"/>
       <use x="290.576172" xlink:href="#DejaVuSans-48"/>
       <use x="354.199219" xlink:href="#DejaVuSans-56"/>
      </g>
     </g>
    </g>
    <g id="xtick_9">
     <g id="line2d_9">
      <g>
       <use style="stroke:#000000;" x="427.422354" xlink:href="#mf5488b1188" y="295.102246"/>
      </g>
     </g>
     <g id="text_9">
      <!-- 2020-09 -->
      <defs>
       <path d="M 10.984375 1.515625 
L 10.984375 10.5 
Q 14.703125 8.734375 18.5 7.8125 
Q 22.3125 6.890625 25.984375 6.890625 
Q 35.75 6.890625 40.890625 13.453125 
Q 46.046875 20.015625 46.78125 33.40625 
Q 43.953125 29.203125 39.59375 26.953125 
Q 35.25 24.703125 29.984375 24.703125 
Q 19.046875 24.703125 12.671875 31.3125 
Q 6.296875 37.9375 6.296875 49.421875 
Q 6.296875 60.640625 12.9375 67.421875 
Q 19.578125 74.21875 30.609375 74.21875 
Q 43.265625 74.21875 49.921875 64.515625 
Q 56.59375 54.828125 56.59375 36.375 
Q 56.59375 19.140625 48.40625 8.859375 
Q 40.234375 -1.421875 26.421875 -1.421875 
Q 22.703125 -1.421875 18.890625 -0.6875 
Q 15.09375 0.046875 10.984375 1.515625 
z
M 30.609375 32.421875 
Q 37.25 32.421875 41.125 36.953125 
Q 45.015625 41.5 45.015625 49.421875 
Q 45.015625 57.28125 41.125 61.84375 
Q 37.25 66.40625 30.609375 66.40625 
Q 23.96875 66.40625 20.09375 61.84375 
Q 16.21875 57.28125 16.21875 49.421875 
Q 16.21875 41.5 20.09375 36.953125 
Q 23.96875 32.421875 30.609375 32.421875 
z
" id="DejaVuSans-57"/>
      </defs>
      <g transform="translate(390.197533 333.074092)rotate(-30)scale(0.1 -0.1)">
       <use xlink:href="#DejaVuSans-50"/>
       <use x="63.623047" xlink:href="#DejaVuSans-48"/>
       <use x="127.246094" xlink:href="#DejaVuSans-50"/>
       <use x="190.869141" xlink:href="#DejaVuSans-48"/>
       <use x="254.492188" xlink:href="#DejaVuSans-45"/>
       <use x="290.576172" xlink:href="#DejaVuSans-48"/>
       <use x="354.199219" xlink:href="#DejaVuSans-57"/>
      </g>
     </g>
    </g>
    <g id="xtick_10">
     <g id="line2d_10">
      <g>
       <use style="stroke:#000000;" x="473.40623" xlink:href="#mf5488b1188" y="295.102246"/>
      </g>
     </g>
     <g id="text_10">
      <!-- 2020-10 -->
      <g transform="translate(436.18141 333.074092)rotate(-30)scale(0.1 -0.1)">
       <use xlink:href="#DejaVuSans-50"/>
       <use x="63.623047" xlink:href="#DejaVuSans-48"/>
       <use x="127.246094" xlink:href="#DejaVuSans-50"/>
       <use x="190.869141" xlink:href="#DejaVuSans-48"/>
       <use x="254.492188" xlink:href="#DejaVuSans-45"/>
       <use x="290.576172" xlink:href="#DejaVuSans-49"/>
       <use x="354.199219" xlink:href="#DejaVuSans-48"/>
      </g>
     </g>
    </g>
    <g id="xtick_11">
     <g id="line2d_11">
      <g>
       <use style="stroke:#000000;" x="520.922902" xlink:href="#mf5488b1188" y="295.102246"/>
      </g>
     </g>
     <g id="text_11">
      <!-- 2020-11 -->
      <g transform="translate(483.698081 333.074092)rotate(-30)scale(0.1 -0.1)">
       <use xlink:href="#DejaVuSans-50"/>
       <use x="63.623047" xlink:href="#DejaVuSans-48"/>
       <use x="127.246094" xlink:href="#DejaVuSans-50"/>
       <use x="190.869141" xlink:href="#DejaVuSans-48"/>
       <use x="254.492188" xlink:href="#DejaVuSans-45"/>
       <use x="290.576172" xlink:href="#DejaVuSans-49"/>
       <use x="354.199219" xlink:href="#DejaVuSans-49"/>
      </g>
     </g>
    </g>
    <g id="text_12">
     <!-- Date -->
     <defs>
      <path d="M 19.671875 64.796875 
L 19.671875 8.109375 
L 31.59375 8.109375 
Q 46.6875 8.109375 53.6875 14.9375 
Q 60.6875 21.78125 60.6875 36.53125 
Q 60.6875 51.171875 53.6875 57.984375 
Q 46.6875 64.796875 31.59375 64.796875 
z
M 9.8125 72.90625 
L 30.078125 72.90625 
Q 51.265625 72.90625 61.171875 64.09375 
Q 71.09375 55.28125 71.09375 36.53125 
Q 71.09375 17.671875 61.125 8.828125 
Q 51.171875 0 30.078125 0 
L 9.8125 0 
z
" id="DejaVuSans-68"/>
      <path d="M 34.28125 27.484375 
Q 23.390625 27.484375 19.1875 25 
Q 14.984375 22.515625 14.984375 16.5 
Q 14.984375 11.71875 18.140625 8.90625 
Q 21.296875 6.109375 26.703125 6.109375 
Q 34.1875 6.109375 38.703125 11.40625 
Q 43.21875 16.703125 43.21875 25.484375 
L 43.21875 27.484375 
z
M 52.203125 31.203125 
L 52.203125 0 
L 43.21875 0 
L 43.21875 8.296875 
Q 40.140625 3.328125 35.546875 0.953125 
Q 30.953125 -1.421875 24.3125 -1.421875 
Q 15.921875 -1.421875 10.953125 3.296875 
Q 6 8.015625 6 15.921875 
Q 6 25.140625 12.171875 29.828125 
Q 18.359375 34.515625 30.609375 34.515625 
L 43.21875 34.515625 
L 43.21875 35.40625 
Q 43.21875 41.609375 39.140625 45 
Q 35.0625 48.390625 27.6875 48.390625 
Q 23 48.390625 18.546875 47.265625 
Q 14.109375 46.140625 10.015625 43.890625 
L 10.015625 52.203125 
Q 14.9375 54.109375 19.578125 55.046875 
Q 24.21875 56 28.609375 56 
Q 40.484375 56 46.34375 49.84375 
Q 52.203125 43.703125 52.203125 31.203125 
z
" id="DejaVuSans-97"/>
      <path d="M 18.3125 70.21875 
L 18.3125 54.6875 
L 36.8125 54.6875 
L 36.8125 47.703125 
L 18.3125 47.703125 
L 18.3125 18.015625 
Q 18.3125 11.328125 20.140625 9.421875 
Q 21.96875 7.515625 27.59375 7.515625 
L 36.8125 7.515625 
L 36.8125 0 
L 27.59375 0 
Q 17.1875 0 13.234375 3.875 
Q 9.28125 7.765625 9.28125 18.015625 
L 9.28125 47.703125 
L 2.6875 47.703125 
L 2.6875 54.6875 
L 9.28125 54.6875 
L 9.28125 70.21875 
z
" id="DejaVuSans-116"/>
      <path d="M 56.203125 29.59375 
L 56.203125 25.203125 
L 14.890625 25.203125 
Q 15.484375 15.921875 20.484375 11.0625 
Q 25.484375 6.203125 34.421875 6.203125 
Q 39.59375 6.203125 44.453125 7.46875 
Q 49.3125 8.734375 54.109375 11.28125 
L 54.109375 2.78125 
Q 49.265625 0.734375 44.1875 -0.34375 
Q 39.109375 -1.421875 33.890625 -1.421875 
Q 20.796875 -1.421875 13.15625 6.1875 
Q 5.515625 13.8125 5.515625 26.8125 
Q 5.515625 40.234375 12.765625 48.109375 
Q 20.015625 56 32.328125 56 
Q 43.359375 56 49.78125 48.890625 
Q 56.203125 41.796875 56.203125 29.59375 
z
M 47.21875 32.234375 
Q 47.125 39.59375 43.09375 43.984375 
Q 39.0625 48.390625 32.421875 48.390625 
Q 24.90625 48.390625 20.390625 44.140625 
Q 15.875 39.890625 15.1875 32.171875 
z
" id="DejaVuSans-101"/>
     </defs>
     <g transform="translate(273.259275 347.233436)scale(0.11 -0.11)">
      <use xlink:href="#DejaVuSans-68"/>
      <use x="77.001953" xlink:href="#DejaVuSans-97"/>
      <use x="138.28125" xlink:href="#DejaVuSans-116"/>
      <use x="177.490234" xlink:href="#DejaVuSans-101"/>
     </g>
    </g>
   </g>
   <g id="matplotlib.axis_2">
    <g id="ytick_1">
     <g id="line2d_12">
      <defs>
       <path d="M 0 0 
L -3.5 0 
" id="m23814b00e1" style="stroke:#000000;"/>
      </defs>
      <g>
       <use style="stroke:#000000;" x="43.610268" xlink:href="#m23814b00e1" y="282.906689"/>
      </g>
     </g>
     <g id="text_13">
      <!-- 0 -->
      <g transform="translate(26.747768 286.705908)scale(0.1 -0.1)">
       <use xlink:href="#DejaVuSans-48"/>
      </g>
     </g>
    </g>
    <g id="ytick_2">
     <g id="line2d_13">
      <g>
       <use style="stroke:#000000;" x="43.610268" xlink:href="#m23814b00e1" y="232.860803"/>
      </g>
     </g>
     <g id="text_14">
      <!-- 10 -->
      <g transform="translate(20.385268 236.660022)scale(0.1 -0.1)">
       <use xlink:href="#DejaVuSans-49"/>
       <use x="63.623047" xlink:href="#DejaVuSans-48"/>
      </g>
     </g>
    </g>
    <g id="ytick_3">
     <g id="line2d_14">
      <g>
       <use style="stroke:#000000;" x="43.610268" xlink:href="#m23814b00e1" y="182.814917"/>
      </g>
     </g>
     <g id="text_15">
      <!-- 20 -->
      <g transform="translate(20.385268 186.614136)scale(0.1 -0.1)">
       <use xlink:href="#DejaVuSans-50"/>
       <use x="63.623047" xlink:href="#DejaVuSans-48"/>
      </g>
     </g>
    </g>
    <g id="ytick_4">
     <g id="line2d_15">
      <g>
       <use style="stroke:#000000;" x="43.610268" xlink:href="#m23814b00e1" y="132.769031"/>
      </g>
     </g>
     <g id="text_16">
      <!-- 30 -->
      <g transform="translate(20.385268 136.56825)scale(0.1 -0.1)">
       <use xlink:href="#DejaVuSans-51"/>
       <use x="63.623047" xlink:href="#DejaVuSans-48"/>
      </g>
     </g>
    </g>
    <g id="ytick_5">
     <g id="line2d_16">
      <g>
       <use style="stroke:#000000;" x="43.610268" xlink:href="#m23814b00e1" y="82.723145"/>
      </g>
     </g>
     <g id="text_17">
      <!-- 40 -->
      <g transform="translate(20.385268 86.522364)scale(0.1 -0.1)">
       <use xlink:href="#DejaVuSans-52"/>
       <use x="63.623047" xlink:href="#DejaVuSans-48"/>
      </g>
     </g>
    </g>
    <g id="ytick_6">
     <g id="line2d_17">
      <g>
       <use style="stroke:#000000;" x="43.610268" xlink:href="#m23814b00e1" y="32.677259"/>
      </g>
     </g>
     <g id="text_18">
      <!-- 50 -->
      <g transform="translate(20.385268 36.476478)scale(0.1 -0.1)">
       <use xlink:href="#DejaVuSans-53"/>
       <use x="63.623047" xlink:href="#DejaVuSans-48"/>
      </g>
     </g>
    </g>
   </g>
   <g id="line2d_18">
    <path clip-path="url(#p6549b16cf8)" d="M 65.682529 282.906689 
L 171.445444 282.906689 
L 172.97824 275.463481 
L 174.511036 266.686593 
L 176.043832 256.817356 
L 177.576627 245.906578 
L 179.109423 231.579038 
L 180.642219 211.967582 
L 182.175015 189.676063 
L 183.707811 176.301152 
L 185.240607 160.551019 
L 186.773403 146.629933 
L 188.306198 129.774751 
L 189.838994 108.321545 
L 191.37179 96.851892 
L 194.437382 63.357456 
L 195.970178 55.317267 
L 197.502974 46.172029 
L 199.03577 41.01513 
L 200.568565 42.767968 
L 202.101361 38.995557 
L 203.634157 45.092382 
L 205.166953 52.611801 
L 206.699749 57.286034 
L 208.232545 65.389731 
L 212.830932 96.547051 
L 214.363728 109.38849 
L 217.42932 123.169856 
L 218.962116 130.079592 
L 220.494912 134.093336 
L 223.560503 143.670433 
L 225.093299 147.455545 
L 226.626095 153.653985 
L 228.158891 158.696568 
L 229.691687 162.900837 
L 231.224483 166.292196 
L 232.757279 168.553103 
L 234.290075 171.080745 
L 235.82287 171.271271 
L 237.355666 172.058777 
L 238.888462 174.548314 
L 240.421258 175.818486 
L 241.954054 177.482412 
L 243.48685 180.657842 
L 245.019646 184.938322 
L 246.552442 188.17726 
L 248.085237 191.085954 
L 249.618033 195.379136 
L 251.150829 197.690849 
L 252.683625 201.768101 
L 254.216421 204.664093 
L 255.749217 206.124791 
L 258.814809 212.107301 
L 260.347604 212.17081 
L 261.8804 213.783928 
L 263.413196 214.838171 
L 264.945992 216.5275 
L 266.478788 217.696058 
L 268.011584 218.610582 
L 269.54438 219.220264 
L 271.077175 220.490436 
L 274.142767 224.847126 
L 275.675563 227.832031 
L 277.208359 230.04213 
L 281.806747 235.465764 
L 283.339542 235.94843 
L 284.872338 236.596218 
L 286.405134 236.291376 
L 287.93793 236.608919 
L 289.470726 237.853688 
L 292.536318 240.787785 
L 294.069114 242.82006 
L 295.601909 244.382372 
L 297.134705 246.592471 
L 298.667501 248.57394 
L 300.200297 249.704393 
L 301.733093 251.330213 
L 303.265889 252.371754 
L 304.798685 252.892525 
L 306.33148 253.108454 
L 307.864276 252.892525 
L 309.397072 253.438699 
L 310.929868 254.302415 
L 312.462664 254.531046 
L 313.99546 255.102624 
L 317.061052 257.28732 
L 318.593847 257.884301 
L 321.659439 259.80226 
L 323.192235 260.513557 
L 324.725031 260.577065 
L 326.257827 260.259522 
L 327.790623 261.021625 
L 329.323419 262.876077 
L 330.856214 263.968425 
L 332.38901 264.743229 
L 335.454602 267.397889 
L 336.987398 268.528342 
L 340.05299 269.112621 
L 341.585785 269.633392 
L 343.118581 270.395495 
L 344.651377 270.560617 
L 346.184173 271.09409 
L 347.716969 271.386229 
L 349.249765 272.135631 
L 350.782561 272.300753 
L 355.380948 273.227979 
L 356.913744 273.494715 
L 358.44654 274.117099 
L 359.979336 274.117099 
L 363.044928 275.311061 
L 364.577724 275.742919 
L 366.110519 275.806428 
L 369.176111 275.463481 
L 373.774499 275.742919 
L 375.307295 275.984252 
L 378.372886 276.898776 
L 381.438478 277.178214 
L 386.036866 277.457651 
L 387.569662 277.749791 
L 389.102457 277.686282 
L 390.635253 277.330634 
L 392.168049 277.381441 
L 393.700845 277.686282 
L 395.233641 277.622774 
L 396.766437 277.737089 
L 398.299233 277.635475 
L 399.832029 277.698984 
L 401.364824 278.207053 
L 402.89762 278.384877 
L 410.5616 278.70242 
L 412.094396 278.867542 
L 413.627191 278.804034 
L 415.159987 278.867542 
L 416.692783 278.816735 
L 418.225579 278.892946 
L 419.758375 278.588104 
L 421.291171 278.651613 
L 422.823967 278.308667 
L 424.356762 278.384877 
L 425.889558 278.245158 
L 427.422354 278.270561 
L 428.95515 277.927615 
L 430.487946 277.927615 
L 432.020742 277.635475 
L 439.684721 274.853799 
L 442.750313 273.050154 
L 444.283109 272.42777 
L 445.815905 271.564053 
L 448.881496 269.239638 
L 451.947088 267.931361 
L 456.545476 265.200491 
L 458.078272 263.892214 
L 459.611067 262.952287 
L 461.143863 261.288362 
L 462.676659 260.157908 
L 464.209455 259.28149 
L 465.742251 258.760719 
L 467.275047 258.709912 
L 470.340639 257.757283 
L 471.873434 257.579459 
L 473.40623 256.563322 
L 474.939026 255.331255 
L 476.471822 253.540312 
L 478.004618 250.530005 
L 479.537414 248.446922 
L 481.07021 245.728754 
L 482.603006 243.658374 
L 484.135801 241.816625 
L 485.668597 239.619227 
L 487.201393 237.980705 
L 488.734189 236.075447 
L 490.266985 233.636717 
L 491.799781 230.588304 
L 493.332577 227.857434 
L 494.865373 224.313654 
L 496.398168 223.195903 
L 497.930964 219.766438 
L 499.46376 216.692622 
L 500.996556 214.190383 
L 502.529352 212.145406 
L 504.062148 208.449206 
L 505.594944 205.97237 
L 507.127739 201.336242 
L 507.127739 201.336242 
" style="fill:none;stroke:#1f77b4;stroke-linecap:square;stroke-width:1.75;"/>
   </g>
   <g id="line2d_19">
    <path clip-path="url(#p6549b16cf8)" d="M 65.682529 282.906689 
L 143.855118 282.906689 
L 145.387914 282.252377 
L 149.986302 277.541326 
L 151.519098 275.054938 
L 153.051893 272.306825 
L 154.584689 271.129062 
L 156.117485 270.343887 
L 157.650281 269.427849 
L 160.715873 265.109386 
L 162.248669 264.455073 
L 163.781465 264.062486 
L 165.31426 262.361273 
L 166.847056 261.576098 
L 169.912648 258.697122 
L 171.445444 256.603322 
L 172.97824 254.247797 
L 174.511036 247.966395 
L 176.043832 242.601032 
L 177.576627 238.020844 
L 179.109423 229.514779 
L 180.642219 222.186478 
L 182.175015 211.848339 
L 183.707811 197.060873 
L 185.240607 187.377047 
L 186.773403 175.206832 
L 188.306198 164.083517 
L 189.838994 151.520715 
L 192.904586 128.096323 
L 194.437382 126.39511 
L 195.970178 117.758184 
L 197.502974 118.150771 
L 199.03577 115.140933 
L 200.568565 113.570583 
L 202.101361 115.271796 
L 203.634157 122.73096 
L 205.166953 127.703736 
L 206.699749 140.266538 
L 209.765341 159.765054 
L 211.298137 172.982169 
L 212.830932 182.142546 
L 214.363728 189.863435 
L 215.896524 194.181898 
L 217.42932 195.097936 
L 218.962116 195.752248 
L 220.494912 199.285536 
L 222.027708 203.734862 
L 226.626095 216.166802 
L 228.158891 218.522327 
L 229.691687 222.579066 
L 231.224483 225.065454 
L 232.757279 224.018553 
L 234.290075 223.756828 
L 235.82287 226.112354 
L 237.355666 227.420979 
L 238.888462 232.13203 
L 240.421258 231.739442 
L 241.954054 231.739442 
L 243.48685 234.880143 
L 245.019646 239.067744 
L 246.552442 239.198606 
L 248.085237 241.815857 
L 249.618033 244.825695 
L 251.150829 248.22812 
L 252.683625 249.929333 
L 254.216421 252.415721 
L 255.749217 252.808309 
L 257.282013 255.425559 
L 258.814809 256.603322 
L 260.347604 256.734184 
L 261.8804 256.99591 
L 263.413196 259.220572 
L 264.945992 260.005748 
L 266.478788 263.277311 
L 268.011584 264.324211 
L 269.54438 266.156286 
L 271.077175 268.250087 
L 272.609971 268.773537 
L 274.142767 268.904399 
L 275.675563 270.736475 
L 277.208359 270.47475 
L 280.273951 272.306825 
L 281.806747 272.961137 
L 283.339542 274.400625 
L 284.872338 274.1389 
L 286.405134 274.924075 
L 287.93793 276.232701 
L 289.470726 276.756151 
L 292.536318 276.756151 
L 294.069114 276.494426 
L 297.134705 277.541326 
L 301.733093 277.541326 
L 303.265889 278.719089 
L 304.798685 278.849951 
L 306.33148 278.849951 
L 307.864276 278.457364 
L 309.397072 278.457364 
L 310.929868 278.719089 
L 312.462664 279.111676 
L 313.99546 278.719089 
L 315.528256 278.980814 
L 317.061052 279.635126 
L 318.593847 279.765989 
L 320.126643 279.765989 
L 321.659439 280.027714 
L 323.192235 280.158576 
L 324.725031 280.682026 
L 327.790623 280.420301 
L 330.856214 281.467202 
L 332.38901 281.598064 
L 333.921806 281.859789 
L 335.454602 281.728927 
L 336.987398 281.990652 
L 338.520194 282.121514 
L 340.05299 281.859789 
L 341.585785 281.728927 
L 343.118581 281.990652 
L 344.651377 281.990652 
L 347.716969 281.728927 
L 349.249765 281.728927 
L 350.782561 282.121514 
L 352.315357 282.252377 
L 353.848152 282.252377 
L 355.380948 281.990652 
L 358.44654 282.514102 
L 359.979336 282.383239 
L 363.044928 282.383239 
L 364.577724 282.252377 
L 366.110519 282.383239 
L 367.643315 282.383239 
L 369.176111 281.990652 
L 370.708907 282.252377 
L 372.241703 282.121514 
L 373.774499 282.121514 
L 375.307295 281.990652 
L 376.840091 282.121514 
L 378.372886 281.859789 
L 379.905682 282.121514 
L 381.438478 282.121514 
L 382.971274 282.252377 
L 384.50407 281.990652 
L 386.036866 281.859789 
L 392.168049 281.859789 
L 393.700845 281.467202 
L 396.766437 281.728927 
L 399.832029 281.467202 
L 401.364824 280.812889 
L 404.430416 280.551164 
L 407.496008 280.551164 
L 409.028804 280.158576 
L 410.5616 280.289439 
L 412.094396 280.551164 
L 413.627191 280.682026 
L 415.159987 280.682026 
L 416.692783 279.765989 
L 418.225579 279.242539 
L 419.758375 279.373401 
L 421.291171 278.980814 
L 422.823967 279.111676 
L 424.356762 278.849951 
L 425.889558 278.849951 
L 427.422354 279.765989 
L 430.487946 280.027714 
L 432.020742 279.242539 
L 435.086334 278.719089 
L 436.619129 278.326501 
L 438.151925 277.672188 
L 439.684721 277.672188 
L 441.217517 275.840113 
L 442.750313 275.447525 
L 444.283109 274.793213 
L 445.815905 274.400625 
L 447.348701 273.877175 
L 448.881496 273.222863 
L 450.414292 270.605612 
L 451.947088 270.736475 
L 453.479884 271.652512 
L 455.01268 271.129062 
L 456.545476 270.47475 
L 458.078272 269.558712 
L 459.611067 267.464911 
L 461.143863 268.642674 
L 462.676659 267.334049 
L 464.209455 264.585936 
L 465.742251 263.408173 
L 467.275047 261.445235 
L 468.807843 259.08971 
L 470.340639 259.08971 
L 471.873434 256.210734 
L 473.40623 252.808309 
L 476.471822 249.013296 
L 478.004618 247.835533 
L 479.537414 244.825695 
L 481.07021 238.151706 
L 482.603006 235.011005 
L 484.135801 232.262892 
L 487.201393 227.682704 
L 488.734189 224.149416 
L 493.332577 217.213702 
L 494.865373 215.643352 
L 496.398168 210.539713 
L 497.930964 208.838501 
L 499.46376 208.445913 
L 500.996556 205.305212 
L 502.529352 204.12745 
L 505.594944 225.588904 
L 507.127739 238.675156 
L 507.127739 238.675156 
" style="fill:none;stroke:#ff7f0e;stroke-linecap:square;stroke-width:1.75;"/>
   </g>
   <g id="line2d_20">
    <path clip-path="url(#p6549b16cf8)" d="M 65.682529 282.906689 
L 177.576627 282.906689 
L 179.109423 275.650426 
L 180.642219 261.364658 
L 182.175015 221.001695 
L 183.707811 196.738566 
L 186.773403 141.40956 
L 188.306198 111.250717 
L 189.838994 85.173522 
L 191.37179 63.631491 
L 192.904586 57.055503 
L 194.437382 49.79924 
L 195.970178 51.613305 
L 197.502974 49.79924 
L 199.03577 49.572481 
L 200.568565 55.014679 
L 202.101361 46.397866 
L 203.634157 57.509019 
L 205.166953 60.456876 
L 206.699749 56.14847 
L 208.232545 62.4977 
L 209.765341 54.78792 
L 211.298137 53.200613 
L 212.830932 73.608853 
L 214.363728 75.19616 
L 215.896524 80.184841 
L 218.962116 69.980721 
L 220.494912 84.946764 
L 222.027708 88.574895 
L 223.560503 86.080555 
L 225.093299 91.522752 
L 226.626095 84.720005 
L 229.691687 92.203027 
L 231.224483 93.336818 
L 232.757279 97.645224 
L 234.290075 92.656543 
L 235.82287 92.656543 
L 237.355666 93.11006 
L 238.888462 99.45929 
L 240.421258 92.656543 
L 241.954054 93.336818 
L 243.48685 87.441104 
L 245.019646 88.121379 
L 246.552442 93.563576 
L 248.085237 96.511433 
L 249.618033 91.976268 
L 251.150829 100.139564 
L 252.683625 95.6044 
L 254.216421 98.552257 
L 255.749217 108.529618 
L 257.282013 104.901487 
L 258.814809 108.076102 
L 260.347604 116.919673 
L 261.8804 114.425332 
L 263.413196 118.053464 
L 264.945992 125.082968 
L 266.478788 122.135112 
L 268.011584 127.577309 
L 269.54438 127.577309 
L 271.077175 129.164616 
L 272.609971 128.257584 
L 274.142767 132.792748 
L 275.675563 131.658957 
L 277.208359 133.699781 
L 278.741155 131.20544 
L 280.273951 127.804067 
L 281.806747 123.722419 
L 283.339542 130.071649 
L 284.872338 132.339232 
L 286.405134 134.380055 
L 287.93793 132.112473 
L 289.470726 126.443518 
L 291.003522 131.658957 
L 292.536318 135.513847 
L 294.069114 135.740605 
L 295.601909 133.926539 
L 297.134705 137.101154 
L 298.667501 142.089835 
L 300.200297 149.799614 
L 301.733093 148.212307 
L 303.265889 146.398241 
L 304.798685 141.40956 
L 306.33148 146.851758 
L 307.864276 144.810934 
L 309.397072 142.316593 
L 310.929868 143.677142 
L 312.462664 147.532032 
L 313.99546 150.253131 
L 315.528256 160.684009 
L 317.061052 157.055877 
L 318.593847 157.282636 
L 320.126643 160.910767 
L 321.659439 158.643185 
L 323.192235 163.858624 
L 324.725031 161.591042 
L 326.257827 160.230493 
L 329.323419 169.754338 
L 330.856214 164.085382 
L 332.38901 172.02192 
L 333.921806 172.02192 
L 335.454602 177.237359 
L 336.987398 176.330326 
L 338.520194 172.702195 
L 340.05299 171.795162 
L 341.585785 180.865491 
L 343.118581 181.545765 
L 344.651377 179.051425 
L 346.184173 178.37115 
L 347.716969 178.824667 
L 349.249765 183.813347 
L 350.782561 183.813347 
L 352.315357 184.040106 
L 353.848152 187.441479 
L 355.380948 193.563951 
L 356.913744 195.604775 
L 358.44654 200.593456 
L 359.979336 198.325873 
L 361.512132 199.913181 
L 363.044928 203.768071 
L 364.577724 198.325873 
L 366.110519 189.255545 
L 367.643315 188.802028 
L 370.708907 191.523127 
L 372.241703 191.523127 
L 373.774499 190.842852 
L 375.307295 192.656918 
L 376.840091 200.593456 
L 378.372886 202.180763 
L 379.905682 196.511808 
L 381.438478 198.77939 
L 382.971274 201.954005 
L 384.50407 198.325873 
L 386.036866 196.058291 
L 387.569662 197.872357 
L 389.102457 198.099115 
L 390.635253 202.180763 
L 392.168049 198.552632 
L 393.700845 198.099115 
L 395.233641 202.180763 
L 396.766437 208.756752 
L 398.299233 204.675104 
L 399.832029 207.849719 
L 401.364824 208.529993 
L 402.89762 211.704608 
L 404.430416 210.117301 
L 405.963212 206.489169 
L 407.496008 206.489169 
L 409.028804 211.931367 
L 410.5616 208.529993 
L 412.094396 211.47785 
L 413.627191 213.972191 
L 415.159987 214.425707 
L 416.692783 217.600322 
L 418.225579 212.158125 
L 421.291171 198.552632 
L 422.823967 195.604775 
L 424.356762 194.017467 
L 425.889558 195.604775 
L 427.422354 191.06961 
L 428.95515 193.337193 
L 430.487946 193.337193 
L 432.020742 196.511808 
L 433.553538 202.180763 
L 435.086334 200.139939 
L 436.619129 196.285049 
L 438.151925 197.192082 
L 439.684721 197.872357 
L 441.217517 202.63428 
L 442.750313 202.407521 
L 444.283109 196.058291 
L 447.348701 190.162578 
L 448.881496 192.883676 
L 450.414292 190.842852 
L 451.947088 192.43016 
L 453.479884 199.006148 
L 455.01268 203.768071 
L 456.545476 209.890543 
L 458.078272 209.890543 
L 459.611067 212.158125 
L 461.143863 211.024334 
L 462.676659 199.232906 
L 465.742251 187.214721 
L 467.275047 180.865491 
L 468.807843 178.144392 
L 470.340639 167.486756 
L 471.873434 169.52758 
L 473.40623 172.928953 
L 474.939026 166.806481 
L 476.471822 162.724833 
L 478.004618 154.561537 
L 479.537414 157.282636 
L 481.07021 159.550218 
L 482.603006 154.108021 
L 484.135801 154.788295 
L 485.668597 162.498075 
L 487.201393 157.055877 
L 488.734189 160.003734 
L 490.266985 153.881262 
L 491.799781 149.799614 
L 493.332577 141.182802 
L 494.865373 135.287088 
L 496.398168 125.082968 
L 499.46376 121.001321 
L 500.996556 126.897034 
L 502.529352 131.658957 
L 504.062148 138.688462 
L 505.594944 137.554671 
L 507.127739 133.473023 
L 507.127739 133.473023 
" style="fill:none;stroke:#2ca02c;stroke-linecap:square;stroke-width:1.75;"/>
   </g>
   <g id="line2d_21">
    <path clip-path="url(#p6549b16cf8)" d="M 65.682529 282.906689 
L 145.387914 282.906689 
L 146.92071 282.529146 
L 149.986302 282.529146 
L 151.519098 282.151603 
L 153.051893 281.018973 
L 157.650281 281.018973 
L 159.183077 280.263886 
L 162.248669 277.998627 
L 163.781465 278.37617 
L 165.31426 277.621084 
L 166.847056 277.24354 
L 168.379852 276.11091 
L 169.912648 275.355824 
L 171.445444 273.845651 
L 172.97824 273.468108 
L 174.511036 270.447761 
L 176.043832 267.049872 
L 177.576627 264.407069 
L 179.109423 259.87655 
L 180.642219 255.723574 
L 182.175015 247.417622 
L 183.707811 238.356584 
L 185.240607 231.183262 
L 188.306198 210.795925 
L 189.838994 204.000146 
L 191.37179 192.296305 
L 195.970178 175.684401 
L 197.502974 174.551771 
L 199.03577 177.572117 
L 200.568565 175.306858 
L 202.101361 177.949661 
L 203.634157 182.48018 
L 205.166953 186.255613 
L 206.699749 195.694194 
L 208.232545 202.867516 
L 209.765341 204.755233 
L 211.298137 213.816271 
L 212.830932 220.234507 
L 214.363728 223.632396 
L 215.896524 224.009939 
L 217.42932 219.101877 
L 218.962116 222.122223 
L 220.494912 222.122223 
L 222.027708 215.703988 
L 223.560503 212.306098 
L 225.093299 210.795925 
L 226.626095 213.816271 
L 228.158891 217.214161 
L 229.691687 215.326444 
L 231.224483 219.47942 
L 232.757279 223.254853 
L 234.290075 231.560805 
L 235.82287 235.336237 
L 237.355666 233.826064 
L 238.888462 235.336237 
L 240.421258 238.356584 
L 241.954054 238.356584 
L 243.48685 242.887103 
L 245.019646 241.754473 
L 246.552442 241.754473 
L 248.085237 248.172709 
L 249.618033 252.325685 
L 251.150829 250.437968 
L 252.683625 247.795165 
L 254.216421 243.642189 
L 255.749217 243.264646 
L 257.282013 242.50956 
L 258.814809 240.999387 
L 260.347604 239.11167 
L 261.8804 241.37693 
L 263.413196 243.264646 
L 264.945992 246.662536 
L 266.478788 247.795165 
L 268.011584 252.703228 
L 269.54438 255.723574 
L 271.077175 259.121463 
L 272.609971 261.386723 
L 274.142767 264.784612 
L 275.675563 266.294786 
L 277.208359 266.672329 
L 278.741155 266.672329 
L 280.273951 267.049872 
L 281.806747 266.294786 
L 283.339542 265.917242 
L 284.872338 265.917242 
L 286.405134 268.560045 
L 287.93793 270.447761 
L 289.470726 271.202848 
L 291.003522 272.335478 
L 292.536318 273.845651 
L 294.069114 274.600737 
L 295.601909 275.733367 
L 297.134705 275.733367 
L 301.733093 272.335478 
L 303.265889 272.335478 
L 304.798685 271.957935 
L 306.33148 272.335478 
L 307.864276 273.090564 
L 309.397072 275.355824 
L 310.929868 277.24354 
L 312.462664 279.5088 
L 313.99546 279.5088 
L 315.528256 279.886343 
L 317.061052 278.753713 
L 320.126643 277.24354 
L 323.192235 277.24354 
L 324.725031 277.621084 
L 326.257827 278.753713 
L 327.790623 278.753713 
L 329.323419 279.5088 
L 330.856214 279.886343 
L 332.38901 280.64143 
L 333.921806 280.263886 
L 335.454602 280.263886 
L 336.987398 279.5088 
L 338.520194 280.64143 
L 340.05299 279.886343 
L 341.585785 280.263886 
L 343.118581 278.753713 
L 344.651377 278.753713 
L 346.184173 279.131257 
L 347.716969 279.886343 
L 349.249765 279.886343 
L 352.315357 280.64143 
L 353.848152 281.77406 
L 355.380948 281.396516 
L 356.913744 281.396516 
L 358.44654 280.64143 
L 359.979336 280.263886 
L 363.044928 280.263886 
L 364.577724 279.886343 
L 366.110519 280.64143 
L 367.643315 279.5088 
L 370.708907 280.263886 
L 373.774499 279.5088 
L 375.307295 279.5088 
L 376.840091 279.131257 
L 378.372886 279.886343 
L 379.905682 279.131257 
L 382.971274 278.37617 
L 384.50407 278.37617 
L 386.036866 278.753713 
L 387.569662 277.998627 
L 389.102457 278.37617 
L 390.635253 277.621084 
L 392.168049 277.24354 
L 393.700845 278.37617 
L 396.766437 277.621084 
L 398.299233 277.998627 
L 399.832029 277.24354 
L 401.364824 278.37617 
L 402.89762 278.37617 
L 404.430416 276.11091 
L 409.028804 271.580391 
L 410.5616 271.202848 
L 412.094396 271.202848 
L 413.627191 270.825305 
L 415.159987 270.825305 
L 416.692783 272.335478 
L 418.225579 274.600737 
L 419.758375 275.355824 
L 421.291171 274.600737 
L 424.356762 274.600737 
L 425.889558 274.978281 
L 427.422354 274.223194 
L 428.95515 274.223194 
L 430.487946 274.978281 
L 432.020742 276.11091 
L 433.553538 276.488454 
L 435.086334 276.11091 
L 436.619129 277.621084 
L 438.151925 275.355824 
L 439.684721 274.978281 
L 441.217517 273.090564 
L 444.283109 270.825305 
L 445.815905 270.447761 
L 447.348701 267.804959 
L 448.881496 269.692675 
L 450.414292 269.692675 
L 451.947088 270.447761 
L 453.479884 271.580391 
L 455.01268 271.957935 
L 456.545476 271.580391 
L 459.611067 269.315132 
L 461.143863 265.539699 
L 464.209455 262.519353 
L 465.742251 259.87655 
L 467.275047 258.366377 
L 468.807843 254.590944 
L 470.340639 254.968487 
L 473.40623 252.703228 
L 474.939026 251.193055 
L 476.471822 246.662536 
L 478.004618 244.397276 
L 479.537414 244.019733 
L 481.07021 236.846411 
L 482.603006 231.938348 
L 485.668597 220.989593 
L 487.201393 219.47942 
L 488.734189 213.438728 
L 490.266985 211.173468 
L 491.799781 204.000146 
L 493.332577 201.357343 
L 494.865373 195.316651 
L 496.398168 188.143329 
L 497.930964 183.990353 
L 499.46376 182.48018 
L 500.996556 180.21492 
L 502.529352 183.61281 
L 504.062148 184.74544 
L 505.594944 198.336997 
L 507.127739 214.571358 
L 507.127739 214.571358 
" style="fill:none;stroke:#d62728;stroke-linecap:square;stroke-width:1.75;"/>
   </g>
   <g id="patch_3">
    <path d="M 43.610268 295.102246 
L 43.610268 26.8 
" style="fill:none;stroke:#000000;stroke-linecap:square;stroke-linejoin:miter;stroke-width:0.8;"/>
   </g>
   <g id="patch_4">
    <path d="M 529.2 295.102246 
L 529.2 26.8 
" style="fill:none;stroke:#000000;stroke-linecap:square;stroke-linejoin:miter;stroke-width:0.8;"/>
   </g>
   <g id="patch_5">
    <path d="M 43.610268 295.102246 
L 529.2 295.102246 
" style="fill:none;stroke:#000000;stroke-linecap:square;stroke-linejoin:miter;stroke-width:0.8;"/>
   </g>
   <g id="patch_6">
    <path d="M 43.610268 26.8 
L 529.2 26.8 
" style="fill:none;stroke:#000000;stroke-linecap:square;stroke-linejoin:miter;stroke-width:0.8;"/>
   </g>
   <g id="text_19">
    <!-- New admissions per Million (7 day rolling) -->
    <defs>
     <path d="M 9.8125 72.90625 
L 23.09375 72.90625 
L 55.421875 11.921875 
L 55.421875 72.90625 
L 64.984375 72.90625 
L 64.984375 0 
L 51.703125 0 
L 19.390625 60.984375 
L 19.390625 0 
L 9.8125 0 
z
" id="DejaVuSans-78"/>
     <path d="M 4.203125 54.6875 
L 13.1875 54.6875 
L 24.421875 12.015625 
L 35.59375 54.6875 
L 46.1875 54.6875 
L 57.421875 12.015625 
L 68.609375 54.6875 
L 77.59375 54.6875 
L 63.28125 0 
L 52.6875 0 
L 40.921875 44.828125 
L 29.109375 0 
L 18.5 0 
z
" id="DejaVuSans-119"/>
     <path id="DejaVuSans-32"/>
     <path d="M 45.40625 46.390625 
L 45.40625 75.984375 
L 54.390625 75.984375 
L 54.390625 0 
L 45.40625 0 
L 45.40625 8.203125 
Q 42.578125 3.328125 38.25 0.953125 
Q 33.9375 -1.421875 27.875 -1.421875 
Q 17.96875 -1.421875 11.734375 6.484375 
Q 5.515625 14.40625 5.515625 27.296875 
Q 5.515625 40.1875 11.734375 48.09375 
Q 17.96875 56 27.875 56 
Q 33.9375 56 38.25 53.625 
Q 42.578125 51.265625 45.40625 46.390625 
z
M 14.796875 27.296875 
Q 14.796875 17.390625 18.875 11.75 
Q 22.953125 6.109375 30.078125 6.109375 
Q 37.203125 6.109375 41.296875 11.75 
Q 45.40625 17.390625 45.40625 27.296875 
Q 45.40625 37.203125 41.296875 42.84375 
Q 37.203125 48.484375 30.078125 48.484375 
Q 22.953125 48.484375 18.875 42.84375 
Q 14.796875 37.203125 14.796875 27.296875 
z
" id="DejaVuSans-100"/>
     <path d="M 52 44.1875 
Q 55.375 50.25 60.0625 53.125 
Q 64.75 56 71.09375 56 
Q 79.640625 56 84.28125 50.015625 
Q 88.921875 44.046875 88.921875 33.015625 
L 88.921875 0 
L 79.890625 0 
L 79.890625 32.71875 
Q 79.890625 40.578125 77.09375 44.375 
Q 74.3125 48.1875 68.609375 48.1875 
Q 61.625 48.1875 57.5625 43.546875 
Q 53.515625 38.921875 53.515625 30.90625 
L 53.515625 0 
L 44.484375 0 
L 44.484375 32.71875 
Q 44.484375 40.625 41.703125 44.40625 
Q 38.921875 48.1875 33.109375 48.1875 
Q 26.21875 48.1875 22.15625 43.53125 
Q 18.109375 38.875 18.109375 30.90625 
L 18.109375 0 
L 9.078125 0 
L 9.078125 54.6875 
L 18.109375 54.6875 
L 18.109375 46.1875 
Q 21.1875 51.21875 25.484375 53.609375 
Q 29.78125 56 35.6875 56 
Q 41.65625 56 45.828125 52.96875 
Q 50 49.953125 52 44.1875 
z
" id="DejaVuSans-109"/>
     <path d="M 9.421875 54.6875 
L 18.40625 54.6875 
L 18.40625 0 
L 9.421875 0 
z
M 9.421875 75.984375 
L 18.40625 75.984375 
L 18.40625 64.59375 
L 9.421875 64.59375 
z
" id="DejaVuSans-105"/>
     <path d="M 44.28125 53.078125 
L 44.28125 44.578125 
Q 40.484375 46.53125 36.375 47.5 
Q 32.28125 48.484375 27.875 48.484375 
Q 21.1875 48.484375 17.84375 46.4375 
Q 14.5 44.390625 14.5 40.28125 
Q 14.5 37.15625 16.890625 35.375 
Q 19.28125 33.59375 26.515625 31.984375 
L 29.59375 31.296875 
Q 39.15625 29.25 43.1875 25.515625 
Q 47.21875 21.78125 47.21875 15.09375 
Q 47.21875 7.46875 41.1875 3.015625 
Q 35.15625 -1.421875 24.609375 -1.421875 
Q 20.21875 -1.421875 15.453125 -0.5625 
Q 10.6875 0.296875 5.421875 2 
L 5.421875 11.28125 
Q 10.40625 8.6875 15.234375 7.390625 
Q 20.0625 6.109375 24.8125 6.109375 
Q 31.15625 6.109375 34.5625 8.28125 
Q 37.984375 10.453125 37.984375 14.40625 
Q 37.984375 18.0625 35.515625 20.015625 
Q 33.0625 21.96875 24.703125 23.78125 
L 21.578125 24.515625 
Q 13.234375 26.265625 9.515625 29.90625 
Q 5.8125 33.546875 5.8125 39.890625 
Q 5.8125 47.609375 11.28125 51.796875 
Q 16.75 56 26.8125 56 
Q 31.78125 56 36.171875 55.265625 
Q 40.578125 54.546875 44.28125 53.078125 
z
" id="DejaVuSans-115"/>
     <path d="M 30.609375 48.390625 
Q 23.390625 48.390625 19.1875 42.75 
Q 14.984375 37.109375 14.984375 27.296875 
Q 14.984375 17.484375 19.15625 11.84375 
Q 23.34375 6.203125 30.609375 6.203125 
Q 37.796875 6.203125 41.984375 11.859375 
Q 46.1875 17.53125 46.1875 27.296875 
Q 46.1875 37.015625 41.984375 42.703125 
Q 37.796875 48.390625 30.609375 48.390625 
z
M 30.609375 56 
Q 42.328125 56 49.015625 48.375 
Q 55.71875 40.765625 55.71875 27.296875 
Q 55.71875 13.875 49.015625 6.21875 
Q 42.328125 -1.421875 30.609375 -1.421875 
Q 18.84375 -1.421875 12.171875 6.21875 
Q 5.515625 13.875 5.515625 27.296875 
Q 5.515625 40.765625 12.171875 48.375 
Q 18.84375 56 30.609375 56 
z
" id="DejaVuSans-111"/>
     <path d="M 54.890625 33.015625 
L 54.890625 0 
L 45.90625 0 
L 45.90625 32.71875 
Q 45.90625 40.484375 42.875 44.328125 
Q 39.84375 48.1875 33.796875 48.1875 
Q 26.515625 48.1875 22.3125 43.546875 
Q 18.109375 38.921875 18.109375 30.90625 
L 18.109375 0 
L 9.078125 0 
L 9.078125 54.6875 
L 18.109375 54.6875 
L 18.109375 46.1875 
Q 21.34375 51.125 25.703125 53.5625 
Q 30.078125 56 35.796875 56 
Q 45.21875 56 50.046875 50.171875 
Q 54.890625 44.34375 54.890625 33.015625 
z
" id="DejaVuSans-110"/>
     <path d="M 18.109375 8.203125 
L 18.109375 -20.796875 
L 9.078125 -20.796875 
L 9.078125 54.6875 
L 18.109375 54.6875 
L 18.109375 46.390625 
Q 20.953125 51.265625 25.265625 53.625 
Q 29.59375 56 35.59375 56 
Q 45.5625 56 51.78125 48.09375 
Q 58.015625 40.1875 58.015625 27.296875 
Q 58.015625 14.40625 51.78125 6.484375 
Q 45.5625 -1.421875 35.59375 -1.421875 
Q 29.59375 -1.421875 25.265625 0.953125 
Q 20.953125 3.328125 18.109375 8.203125 
z
M 48.6875 27.296875 
Q 48.6875 37.203125 44.609375 42.84375 
Q 40.53125 48.484375 33.40625 48.484375 
Q 26.265625 48.484375 22.1875 42.84375 
Q 18.109375 37.203125 18.109375 27.296875 
Q 18.109375 17.390625 22.1875 11.75 
Q 26.265625 6.109375 33.40625 6.109375 
Q 40.53125 6.109375 44.609375 11.75 
Q 48.6875 17.390625 48.6875 27.296875 
z
" id="DejaVuSans-112"/>
     <path d="M 41.109375 46.296875 
Q 39.59375 47.171875 37.8125 47.578125 
Q 36.03125 48 33.890625 48 
Q 26.265625 48 22.1875 43.046875 
Q 18.109375 38.09375 18.109375 28.8125 
L 18.109375 0 
L 9.078125 0 
L 9.078125 54.6875 
L 18.109375 54.6875 
L 18.109375 46.1875 
Q 20.953125 51.171875 25.484375 53.578125 
Q 30.03125 56 36.53125 56 
Q 37.453125 56 38.578125 55.875 
Q 39.703125 55.765625 41.0625 55.515625 
z
" id="DejaVuSans-114"/>
     <path d="M 9.8125 72.90625 
L 24.515625 72.90625 
L 43.109375 23.296875 
L 61.8125 72.90625 
L 76.515625 72.90625 
L 76.515625 0 
L 66.890625 0 
L 66.890625 64.015625 
L 48.09375 14.015625 
L 38.1875 14.015625 
L 19.390625 64.015625 
L 19.390625 0 
L 9.8125 0 
z
" id="DejaVuSans-77"/>
     <path d="M 9.421875 75.984375 
L 18.40625 75.984375 
L 18.40625 0 
L 9.421875 0 
z
" id="DejaVuSans-108"/>
     <path d="M 31 75.875 
Q 24.46875 64.65625 21.28125 53.65625 
Q 18.109375 42.671875 18.109375 31.390625 
Q 18.109375 20.125 21.3125 9.0625 
Q 24.515625 -2 31 -13.1875 
L 23.1875 -13.1875 
Q 15.875 -1.703125 12.234375 9.375 
Q 8.59375 20.453125 8.59375 31.390625 
Q 8.59375 42.28125 12.203125 53.3125 
Q 15.828125 64.359375 23.1875 75.875 
z
" id="DejaVuSans-40"/>
     <path d="M 32.171875 -5.078125 
Q 28.375 -14.84375 24.75 -17.8125 
Q 21.140625 -20.796875 15.09375 -20.796875 
L 7.90625 -20.796875 
L 7.90625 -13.28125 
L 13.1875 -13.28125 
Q 16.890625 -13.28125 18.9375 -11.515625 
Q 21 -9.765625 23.484375 -3.21875 
L 25.09375 0.875 
L 2.984375 54.6875 
L 12.5 54.6875 
L 29.59375 11.921875 
L 46.6875 54.6875 
L 56.203125 54.6875 
z
" id="DejaVuSans-121"/>
     <path d="M 45.40625 27.984375 
Q 45.40625 37.75 41.375 43.109375 
Q 37.359375 48.484375 30.078125 48.484375 
Q 22.859375 48.484375 18.828125 43.109375 
Q 14.796875 37.75 14.796875 27.984375 
Q 14.796875 18.265625 18.828125 12.890625 
Q 22.859375 7.515625 30.078125 7.515625 
Q 37.359375 7.515625 41.375 12.890625 
Q 45.40625 18.265625 45.40625 27.984375 
z
M 54.390625 6.78125 
Q 54.390625 -7.171875 48.1875 -13.984375 
Q 42 -20.796875 29.203125 -20.796875 
Q 24.46875 -20.796875 20.265625 -20.09375 
Q 16.0625 -19.390625 12.109375 -17.921875 
L 12.109375 -9.1875 
Q 16.0625 -11.328125 19.921875 -12.34375 
Q 23.78125 -13.375 27.78125 -13.375 
Q 36.625 -13.375 41.015625 -8.765625 
Q 45.40625 -4.15625 45.40625 5.171875 
L 45.40625 9.625 
Q 42.625 4.78125 38.28125 2.390625 
Q 33.9375 0 27.875 0 
Q 17.828125 0 11.671875 7.65625 
Q 5.515625 15.328125 5.515625 27.984375 
Q 5.515625 40.671875 11.671875 48.328125 
Q 17.828125 56 27.875 56 
Q 33.9375 56 38.28125 53.609375 
Q 42.625 51.21875 45.40625 46.390625 
L 45.40625 54.6875 
L 54.390625 54.6875 
z
" id="DejaVuSans-103"/>
     <path d="M 8.015625 75.875 
L 15.828125 75.875 
Q 23.140625 64.359375 26.78125 53.3125 
Q 30.421875 42.28125 30.421875 31.390625 
Q 30.421875 20.453125 26.78125 9.375 
Q 23.140625 -1.703125 15.828125 -13.1875 
L 8.015625 -13.1875 
Q 14.5 -2 17.703125 9.0625 
Q 20.90625 20.125 20.90625 31.390625 
Q 20.90625 42.671875 17.703125 53.65625 
Q 14.5 64.65625 8.015625 75.875 
z
" id="DejaVuSans-41"/>
    </defs>
    <g transform="translate(160.924509 20.8)scale(0.12 -0.12)">
     <use xlink:href="#DejaVuSans-78"/>
     <use x="74.804688" xlink:href="#DejaVuSans-101"/>
     <use x="136.328125" xlink:href="#DejaVuSans-119"/>
     <use x="218.115234" xlink:href="#DejaVuSans-32"/>
     <use x="249.902344" xlink:href="#DejaVuSans-97"/>
     <use x="311.181641" xlink:href="#DejaVuSans-100"/>
     <use x="374.658203" xlink:href="#DejaVuSans-109"/>
     <use x="472.070312" xlink:href="#DejaVuSans-105"/>
     <use x="499.853516" xlink:href="#DejaVuSans-115"/>
     <use x="551.953125" xlink:href="#DejaVuSans-115"/>
     <use x="604.052734" xlink:href="#DejaVuSans-105"/>
     <use x="631.835938" xlink:href="#DejaVuSans-111"/>
     <use x="693.017578" xlink:href="#DejaVuSans-110"/>
     <use x="756.396484" xlink:href="#DejaVuSans-115"/>
     <use x="808.496094" xlink:href="#DejaVuSans-32"/>
     <use x="840.283203" xlink:href="#DejaVuSans-112"/>
     <use x="903.759766" xlink:href="#DejaVuSans-101"/>
     <use x="965.283203" xlink:href="#DejaVuSans-114"/>
     <use x="1006.396484" xlink:href="#DejaVuSans-32"/>
     <use x="1038.183594" xlink:href="#DejaVuSans-77"/>
     <use x="1124.462891" xlink:href="#DejaVuSans-105"/>
     <use x="1152.246094" xlink:href="#DejaVuSans-108"/>
     <use x="1180.029297" xlink:href="#DejaVuSans-108"/>
     <use x="1207.8125" xlink:href="#DejaVuSans-105"/>
     <use x="1235.595703" xlink:href="#DejaVuSans-111"/>
     <use x="1296.777344" xlink:href="#DejaVuSans-110"/>
     <use x="1360.15625" xlink:href="#DejaVuSans-32"/>
     <use x="1391.943359" xlink:href="#DejaVuSans-40"/>
     <use x="1430.957031" xlink:href="#DejaVuSans-55"/>
     <use x="1494.580078" xlink:href="#DejaVuSans-32"/>
     <use x="1526.367188" xlink:href="#DejaVuSans-100"/>
     <use x="1589.84375" xlink:href="#DejaVuSans-97"/>
     <use x="1651.123047" xlink:href="#DejaVuSans-121"/>
     <use x="1710.302734" xlink:href="#DejaVuSans-32"/>
     <use x="1742.089844" xlink:href="#DejaVuSans-114"/>
     <use x="1780.953125" xlink:href="#DejaVuSans-111"/>
     <use x="1842.134766" xlink:href="#DejaVuSans-108"/>
     <use x="1869.917969" xlink:href="#DejaVuSans-108"/>
     <use x="1897.701172" xlink:href="#DejaVuSans-105"/>
     <use x="1925.484375" xlink:href="#DejaVuSans-110"/>
     <use x="1988.863281" xlink:href="#DejaVuSans-103"/>
     <use x="2052.339844" xlink:href="#DejaVuSans-41"/>
    </g>
   </g>
   <g id="legend_1">
    <g id="patch_7">
     <path d="M 387.032813 93.5125 
L 522.2 93.5125 
Q 524.2 93.5125 524.2 91.5125 
L 524.2 33.8 
Q 524.2 31.8 522.2 31.8 
L 387.032813 31.8 
Q 385.032813 31.8 385.032813 33.8 
L 385.032813 91.5125 
Q 385.032813 93.5125 387.032813 93.5125 
z
" style="fill:#ffffff;opacity:0.8;stroke:#cccccc;stroke-linejoin:miter;stroke-width:0.3;"/>
    </g>
    <g id="line2d_22">
     <path d="M 389.032813 39.898438 
L 409.032813 39.898438 
" style="fill:none;stroke:#1f77b4;stroke-linecap:square;stroke-width:1.75;"/>
    </g>
    <g id="line2d_23"/>
    <g id="text_20">
     <!-- ENGLAND -->
     <defs>
      <path d="M 9.8125 72.90625 
L 55.90625 72.90625 
L 55.90625 64.59375 
L 19.671875 64.59375 
L 19.671875 43.015625 
L 54.390625 43.015625 
L 54.390625 34.71875 
L 19.671875 34.71875 
L 19.671875 8.296875 
L 56.78125 8.296875 
L 56.78125 0 
L 9.8125 0 
z
" id="DejaVuSans-69"/>
      <path d="M 59.515625 10.40625 
L 59.515625 29.984375 
L 43.40625 29.984375 
L 43.40625 38.09375 
L 69.28125 38.09375 
L 69.28125 6.78125 
Q 63.578125 2.734375 56.6875 0.65625 
Q 49.8125 -1.421875 42 -1.421875 
Q 24.90625 -1.421875 15.25 8.5625 
Q 5.609375 18.5625 5.609375 36.375 
Q 5.609375 54.25 15.25 64.234375 
Q 24.90625 74.21875 42 74.21875 
Q 49.125 74.21875 55.546875 72.453125 
Q 61.96875 70.703125 67.390625 67.28125 
L 67.390625 56.78125 
Q 61.921875 61.421875 55.765625 63.765625 
Q 49.609375 66.109375 42.828125 66.109375 
Q 29.4375 66.109375 22.71875 58.640625 
Q 16.015625 51.171875 16.015625 36.375 
Q 16.015625 21.625 22.71875 14.15625 
Q 29.4375 6.6875 42.828125 6.6875 
Q 48.046875 6.6875 52.140625 7.59375 
Q 56.25 8.5 59.515625 10.40625 
z
" id="DejaVuSans-71"/>
      <path d="M 9.8125 72.90625 
L 19.671875 72.90625 
L 19.671875 8.296875 
L 55.171875 8.296875 
L 55.171875 0 
L 9.8125 0 
z
" id="DejaVuSans-76"/>
      <path d="M 34.1875 63.1875 
L 20.796875 26.90625 
L 47.609375 26.90625 
z
M 28.609375 72.90625 
L 39.796875 72.90625 
L 67.578125 0 
L 57.328125 0 
L 50.6875 18.703125 
L 17.828125 18.703125 
L 11.1875 0 
L 0.78125 0 
z
" id="DejaVuSans-65"/>
     </defs>
     <g transform="translate(417.032813 43.398438)scale(0.1 -0.1)">
      <use xlink:href="#DejaVuSans-69"/>
      <use x="63.183594" xlink:href="#DejaVuSans-78"/>
      <use x="137.988281" xlink:href="#DejaVuSans-71"/>
      <use x="215.478516" xlink:href="#DejaVuSans-76"/>
      <use x="273.441406" xlink:href="#DejaVuSans-65"/>
      <use x="341.849609" xlink:href="#DejaVuSans-78"/>
      <use x="416.654297" xlink:href="#DejaVuSans-68"/>
     </g>
    </g>
    <g id="line2d_24">
     <path d="M 389.032813 54.576563 
L 409.032813 54.576563 
" style="fill:none;stroke:#ff7f0e;stroke-linecap:square;stroke-width:1.75;"/>
    </g>
    <g id="line2d_25"/>
    <g id="text_21">
     <!-- SCOTLAND -->
     <defs>
      <path d="M 53.515625 70.515625 
L 53.515625 60.890625 
Q 47.90625 63.578125 42.921875 64.890625 
Q 37.9375 66.21875 33.296875 66.21875 
Q 25.25 66.21875 20.875 63.09375 
Q 16.5 59.96875 16.5 54.203125 
Q 16.5 49.359375 19.40625 46.890625 
Q 22.3125 44.4375 30.421875 42.921875 
L 36.375 41.703125 
Q 47.40625 39.59375 52.65625 34.296875 
Q 57.90625 29 57.90625 20.125 
Q 57.90625 9.515625 50.796875 4.046875 
Q 43.703125 -1.421875 29.984375 -1.421875 
Q 24.8125 -1.421875 18.96875 -0.25 
Q 13.140625 0.921875 6.890625 3.21875 
L 6.890625 13.375 
Q 12.890625 10.015625 18.65625 8.296875 
Q 24.421875 6.59375 29.984375 6.59375 
Q 38.421875 6.59375 43.015625 9.90625 
Q 47.609375 13.234375 47.609375 19.390625 
Q 47.609375 24.75 44.3125 27.78125 
Q 41.015625 30.8125 33.5 32.328125 
L 27.484375 33.5 
Q 16.453125 35.6875 11.515625 40.375 
Q 6.59375 45.0625 6.59375 53.421875 
Q 6.59375 63.09375 13.40625 68.65625 
Q 20.21875 74.21875 32.171875 74.21875 
Q 37.3125 74.21875 42.625 73.28125 
Q 47.953125 72.359375 53.515625 70.515625 
z
" id="DejaVuSans-83"/>
      <path d="M 64.40625 67.28125 
L 64.40625 56.890625 
Q 59.421875 61.53125 53.78125 63.8125 
Q 48.140625 66.109375 41.796875 66.109375 
Q 29.296875 66.109375 22.65625 58.46875 
Q 16.015625 50.828125 16.015625 36.375 
Q 16.015625 21.96875 22.65625 14.328125 
Q 29.296875 6.6875 41.796875 6.6875 
Q 48.140625 6.6875 53.78125 8.984375 
Q 59.421875 11.28125 64.40625 15.921875 
L 64.40625 5.609375 
Q 59.234375 2.09375 53.4375 0.328125 
Q 47.65625 -1.421875 41.21875 -1.421875 
Q 24.65625 -1.421875 15.125 8.703125 
Q 5.609375 18.84375 5.609375 36.375 
Q 5.609375 53.953125 15.125 64.078125 
Q 24.65625 74.21875 41.21875 74.21875 
Q 47.75 74.21875 53.53125 72.484375 
Q 59.328125 70.75 64.40625 67.28125 
z
" id="DejaVuSans-67"/>
      <path d="M 39.40625 66.21875 
Q 28.65625 66.21875 22.328125 58.203125 
Q 16.015625 50.203125 16.015625 36.375 
Q 16.015625 22.609375 22.328125 14.59375 
Q 28.65625 6.59375 39.40625 6.59375 
Q 50.140625 6.59375 56.421875 14.59375 
Q 62.703125 22.609375 62.703125 36.375 
Q 62.703125 50.203125 56.421875 58.203125 
Q 50.140625 66.21875 39.40625 66.21875 
z
M 39.40625 74.21875 
Q 54.734375 74.21875 63.90625 63.9375 
Q 73.09375 53.65625 73.09375 36.375 
Q 73.09375 19.140625 63.90625 8.859375 
Q 54.734375 -1.421875 39.40625 -1.421875 
Q 24.03125 -1.421875 14.8125 8.828125 
Q 5.609375 19.09375 5.609375 36.375 
Q 5.609375 53.65625 14.8125 63.9375 
Q 24.03125 74.21875 39.40625 74.21875 
z
" id="DejaVuSans-79"/>
      <path d="M -0.296875 72.90625 
L 61.375 72.90625 
L 61.375 64.59375 
L 35.5 64.59375 
L 35.5 0 
L 25.59375 0 
L 25.59375 64.59375 
L -0.296875 64.59375 
z
" id="DejaVuSans-84"/>
     </defs>
     <g transform="translate(417.032813 58.076563)scale(0.1 -0.1)">
      <use xlink:href="#DejaVuSans-83"/>
      <use x="63.476562" xlink:href="#DejaVuSans-67"/>
      <use x="133.300781" xlink:href="#DejaVuSans-79"/>
      <use x="212.011719" xlink:href="#DejaVuSans-84"/>
      <use x="273.095703" xlink:href="#DejaVuSans-76"/>
      <use x="331.058594" xlink:href="#DejaVuSans-65"/>
      <use x="399.466797" xlink:href="#DejaVuSans-78"/>
      <use x="474.271484" xlink:href="#DejaVuSans-68"/>
     </g>
    </g>
    <g id="line2d_26">
     <path d="M 389.032813 69.254688 
L 409.032813 69.254688 
" style="fill:none;stroke:#2ca02c;stroke-linecap:square;stroke-width:1.75;"/>
    </g>
    <g id="line2d_27"/>
    <g id="text_22">
     <!-- WALES -->
     <defs>
      <path d="M 3.328125 72.90625 
L 13.28125 72.90625 
L 28.609375 11.28125 
L 43.890625 72.90625 
L 54.984375 72.90625 
L 70.3125 11.28125 
L 85.59375 72.90625 
L 95.609375 72.90625 
L 77.296875 0 
L 64.890625 0 
L 49.515625 63.28125 
L 33.984375 0 
L 21.578125 0 
z
" id="DejaVuSans-87"/>
     </defs>
     <g transform="translate(417.032813 72.754688)scale(0.1 -0.1)">
      <use xlink:href="#DejaVuSans-87"/>
      <use x="93.376953" xlink:href="#DejaVuSans-65"/>
      <use x="161.785156" xlink:href="#DejaVuSans-76"/>
      <use x="217.498047" xlink:href="#DejaVuSans-69"/>
      <use x="280.681641" xlink:href="#DejaVuSans-83"/>
     </g>
    </g>
    <g id="line2d_28">
     <path d="M 389.032813 83.932813 
L 409.032813 83.932813 
" style="fill:none;stroke:#d62728;stroke-linecap:square;stroke-width:1.75;"/>
    </g>
    <g id="line2d_29"/>
    <g id="text_23">
     <!-- NORTHERN IRELAND -->
     <defs>
      <path d="M 44.390625 34.1875 
Q 47.5625 33.109375 50.5625 29.59375 
Q 53.5625 26.078125 56.59375 19.921875 
L 66.609375 0 
L 56 0 
L 46.6875 18.703125 
Q 43.0625 26.03125 39.671875 28.421875 
Q 36.28125 30.8125 30.421875 30.8125 
L 19.671875 30.8125 
L 19.671875 0 
L 9.8125 0 
L 9.8125 72.90625 
L 32.078125 72.90625 
Q 44.578125 72.90625 50.734375 67.671875 
Q 56.890625 62.453125 56.890625 51.90625 
Q 56.890625 45.015625 53.6875 40.46875 
Q 50.484375 35.9375 44.390625 34.1875 
z
M 19.671875 64.796875 
L 19.671875 38.921875 
L 32.078125 38.921875 
Q 39.203125 38.921875 42.84375 42.21875 
Q 46.484375 45.515625 46.484375 51.90625 
Q 46.484375 58.296875 42.84375 61.546875 
Q 39.203125 64.796875 32.078125 64.796875 
z
" id="DejaVuSans-82"/>
      <path d="M 9.8125 72.90625 
L 19.671875 72.90625 
L 19.671875 43.015625 
L 55.515625 43.015625 
L 55.515625 72.90625 
L 65.375 72.90625 
L 65.375 0 
L 55.515625 0 
L 55.515625 34.71875 
L 19.671875 34.71875 
L 19.671875 0 
L 9.8125 0 
z
" id="DejaVuSans-72"/>
      <path d="M 9.8125 72.90625 
L 19.671875 72.90625 
L 19.671875 0 
L 9.8125 0 
z
" id="DejaVuSans-73"/>
     </defs>
     <g transform="translate(417.032813 87.432813)scale(0.1 -0.1)">
      <use xlink:href="#DejaVuSans-78"/>
      <use x="74.804688" xlink:href="#DejaVuSans-79"/>
      <use x="153.515625" xlink:href="#DejaVuSans-82"/>
      <use x="215.748047" xlink:href="#DejaVuSans-84"/>
      <use x="276.832031" xlink:href="#DejaVuSans-72"/>
      <use x="352.027344" xlink:href="#DejaVuSans-69"/>
      <use x="415.210938" xlink:href="#DejaVuSans-82"/>
      <use x="484.693359" xlink:href="#DejaVuSans-78"/>
      <use x="559.498047" xlink:href="#DejaVuSans-32"/>
      <use x="591.285156" xlink:href="#DejaVuSans-73"/>
      <use x="620.777344" xlink:href="#DejaVuSans-82"/>
      <use x="690.259766" xlink:href="#DejaVuSans-69"/>
      <use x="753.443359" xlink:href="#DejaVuSans-76"/>
      <use x="811.40625" xlink:href="#DejaVuSans-65"/>
      <use x="879.814453" xlink:href="#DejaVuSans-78"/>
      <use x="954.619141" xlink:href="#DejaVuSans-68"/>
     </g>
    </g>
   </g>
  </g>
 </g>
 <defs>
  <clipPath id="p6549b16cf8">
   <rect height="268.302246" width="485.589732" x="43.610268" y="26.8"/>
  </clipPath>
 </defs>
</svg>
