<?xml version="1.0" encoding="utf-8" standalone="no"?>
<!DOCTYPE svg PUBLIC "-//W3C//DTD SVG 1.1//EN"
  "http://www.w3.org/Graphics/SVG/1.1/DTD/svg11.dtd">
<!-- Created with matplotlib (https://matplotlib.org/) -->
<svg height="396pt" version="1.1" viewBox="0 0 576 396" width="576pt" xmlns="http://www.w3.org/2000/svg" xmlns:xlink="http://www.w3.org/1999/xlink">
 <defs>
  <style type="text/css">
*{stroke-linecap:butt;stroke-linejoin:round;}
  </style>
 </defs>
 <g id="figure_1">
  <g id="patch_1">
   <path d="M 0 396 
L 576 396 
L 576 0 
L 0 0 
z
" style="fill:#ffffff;"/>
  </g>
  <g id="axes_1">
   <g id="patch_2">
    <path d="M 72 346.5 
L 518.4 346.5 
L 518.4 47.52 
L 72 47.52 
z
" style="fill:#ffffff;"/>
   </g>
   <g id="matplotlib.axis_1">
    <g id="xtick_1">
     <g id="line2d_1">
      <defs>
       <path d="M 0 0 
L 0 3.5 
" id="mb7235b33f8" style="stroke:#000000;"/>
      </defs>
      <g>
       <use style="stroke:#000000;" x="80.35508" xlink:href="#mb7235b33f8" y="346.5"/>
      </g>
     </g>
     <g id="text_1">
      <!-- 2020-01 -->
      <defs>
       <path d="M 19.1875 8.296875 
L 53.609375 8.296875 
L 53.609375 0 
L 7.328125 0 
L 7.328125 8.296875 
Q 12.9375 14.109375 22.625 23.890625 
Q 32.328125 33.6875 34.8125 36.53125 
Q 39.546875 41.84375 41.421875 45.53125 
Q 43.3125 49.21875 43.3125 52.78125 
Q 43.3125 58.59375 39.234375 62.25 
Q 35.15625 65.921875 28.609375 65.921875 
Q 23.96875 65.921875 18.8125 64.3125 
Q 13.671875 62.703125 7.8125 59.421875 
L 7.8125 69.390625 
Q 13.765625 71.78125 18.9375 73 
Q 24.125 74.21875 28.421875 74.21875 
Q 39.75 74.21875 46.484375 68.546875 
Q 53.21875 62.890625 53.21875 53.421875 
Q 53.21875 48.921875 51.53125 44.890625 
Q 49.859375 40.875 45.40625 35.40625 
Q 44.1875 33.984375 37.640625 27.21875 
Q 31.109375 20.453125 19.1875 8.296875 
z
" id="DejaVuSans-50"/>
       <path d="M 31.78125 66.40625 
Q 24.171875 66.40625 20.328125 58.90625 
Q 16.5 51.421875 16.5 36.375 
Q 16.5 21.390625 20.328125 13.890625 
Q 24.171875 6.390625 31.78125 6.390625 
Q 39.453125 6.390625 43.28125 13.890625 
Q 47.125 21.390625 47.125 36.375 
Q 47.125 51.421875 43.28125 58.90625 
Q 39.453125 66.40625 31.78125 66.40625 
z
M 31.78125 74.21875 
Q 44.046875 74.21875 50.515625 64.515625 
Q 56.984375 54.828125 56.984375 36.375 
Q 56.984375 17.96875 50.515625 8.265625 
Q 44.046875 -1.421875 31.78125 -1.421875 
Q 19.53125 -1.421875 13.0625 8.265625 
Q 6.59375 17.96875 6.59375 36.375 
Q 6.59375 54.828125 13.0625 64.515625 
Q 19.53125 74.21875 31.78125 74.21875 
z
" id="DejaVuSans-48"/>
       <path d="M 4.890625 31.390625 
L 31.203125 31.390625 
L 31.203125 23.390625 
L 4.890625 23.390625 
z
" id="DejaVuSans-45"/>
       <path d="M 12.40625 8.296875 
L 28.515625 8.296875 
L 28.515625 63.921875 
L 10.984375 60.40625 
L 10.984375 69.390625 
L 28.421875 72.90625 
L 38.28125 72.90625 
L 38.28125 8.296875 
L 54.390625 8.296875 
L 54.390625 0 
L 12.40625 0 
z
" id="DejaVuSans-49"/>
      </defs>
      <g transform="translate(43.130259 384.471846)rotate(-30)scale(0.1 -0.1)">
       <use xlink:href="#DejaVuSans-50"/>
       <use x="63.623047" xlink:href="#DejaVuSans-48"/>
       <use x="127.246094" xlink:href="#DejaVuSans-50"/>
       <use x="190.869141" xlink:href="#DejaVuSans-48"/>
       <use x="254.492188" xlink:href="#DejaVuSans-45"/>
       <use x="290.576172" xlink:href="#DejaVuSans-48"/>
       <use x="354.199219" xlink:href="#DejaVuSans-49"/>
      </g>
     </g>
    </g>
    <g id="xtick_2">
     <g id="line2d_2">
      <g>
       <use style="stroke:#000000;" x="126.606417" xlink:href="#mb7235b33f8" y="346.5"/>
      </g>
     </g>
     <g id="text_2">
      <!-- 2020-02 -->
      <g transform="translate(89.381596 384.471846)rotate(-30)scale(0.1 -0.1)">
       <use xlink:href="#DejaVuSans-50"/>
       <use x="63.623047" xlink:href="#DejaVuSans-48"/>
       <use x="127.246094" xlink:href="#DejaVuSans-50"/>
       <use x="190.869141" xlink:href="#DejaVuSans-48"/>
       <use x="254.492188" xlink:href="#DejaVuSans-45"/>
       <use x="290.576172" xlink:href="#DejaVuSans-48"/>
       <use x="354.199219" xlink:href="#DejaVuSans-50"/>
      </g>
     </g>
    </g>
    <g id="xtick_3">
     <g id="line2d_3">
      <g>
       <use style="stroke:#000000;" x="169.873797" xlink:href="#mb7235b33f8" y="346.5"/>
      </g>
     </g>
     <g id="text_3">
      <!-- 2020-03 -->
      <defs>
       <path d="M 40.578125 39.3125 
Q 47.65625 37.796875 51.625 33 
Q 55.609375 28.21875 55.609375 21.1875 
Q 55.609375 10.40625 48.1875 4.484375 
Q 40.765625 -1.421875 27.09375 -1.421875 
Q 22.515625 -1.421875 17.65625 -0.515625 
Q 12.796875 0.390625 7.625 2.203125 
L 7.625 11.71875 
Q 11.71875 9.328125 16.59375 8.109375 
Q 21.484375 6.890625 26.8125 6.890625 
Q 36.078125 6.890625 40.9375 10.546875 
Q 45.796875 14.203125 45.796875 21.1875 
Q 45.796875 27.640625 41.28125 31.265625 
Q 36.765625 34.90625 28.71875 34.90625 
L 20.21875 34.90625 
L 20.21875 43.015625 
L 29.109375 43.015625 
Q 36.375 43.015625 40.234375 45.921875 
Q 44.09375 48.828125 44.09375 54.296875 
Q 44.09375 59.90625 40.109375 62.90625 
Q 36.140625 65.921875 28.71875 65.921875 
Q 24.65625 65.921875 20.015625 65.03125 
Q 15.375 64.15625 9.8125 62.3125 
L 9.8125 71.09375 
Q 15.4375 72.65625 20.34375 73.4375 
Q 25.25 74.21875 29.59375 74.21875 
Q 40.828125 74.21875 47.359375 69.109375 
Q 53.90625 64.015625 53.90625 55.328125 
Q 53.90625 49.265625 50.4375 45.09375 
Q 46.96875 40.921875 40.578125 39.3125 
z
" id="DejaVuSans-51"/>
      </defs>
      <g transform="translate(132.648976 384.471846)rotate(-30)scale(0.1 -0.1)">
       <use xlink:href="#DejaVuSans-50"/>
       <use x="63.623047" xlink:href="#DejaVuSans-48"/>
       <use x="127.246094" xlink:href="#DejaVuSans-50"/>
       <use x="190.869141" xlink:href="#DejaVuSans-48"/>
       <use x="254.492188" xlink:href="#DejaVuSans-45"/>
       <use x="290.576172" xlink:href="#DejaVuSans-48"/>
       <use x="354.199219" xlink:href="#DejaVuSans-51"/>
      </g>
     </g>
    </g>
    <g id="xtick_4">
     <g id="line2d_4">
      <g>
       <use style="stroke:#000000;" x="216.125134" xlink:href="#mb7235b33f8" y="346.5"/>
      </g>
     </g>
     <g id="text_4">
      <!-- 2020-04 -->
      <defs>
       <path d="M 37.796875 64.3125 
L 12.890625 25.390625 
L 37.796875 25.390625 
z
M 35.203125 72.90625 
L 47.609375 72.90625 
L 47.609375 25.390625 
L 58.015625 25.390625 
L 58.015625 17.1875 
L 47.609375 17.1875 
L 47.609375 0 
L 37.796875 0 
L 37.796875 17.1875 
L 4.890625 17.1875 
L 4.890625 26.703125 
z
" id="DejaVuSans-52"/>
      </defs>
      <g transform="translate(178.900313 384.471846)rotate(-30)scale(0.1 -0.1)">
       <use xlink:href="#DejaVuSans-50"/>
       <use x="63.623047" xlink:href="#DejaVuSans-48"/>
       <use x="127.246094" xlink:href="#DejaVuSans-50"/>
       <use x="190.869141" xlink:href="#DejaVuSans-48"/>
       <use x="254.492188" xlink:href="#DejaVuSans-45"/>
       <use x="290.576172" xlink:href="#DejaVuSans-48"/>
       <use x="354.199219" xlink:href="#DejaVuSans-52"/>
      </g>
     </g>
    </g>
    <g id="xtick_5">
     <g id="line2d_5">
      <g>
       <use style="stroke:#000000;" x="260.884492" xlink:href="#mb7235b33f8" y="346.5"/>
      </g>
     </g>
     <g id="text_5">
      <!-- 2020-05 -->
      <defs>
       <path d="M 10.796875 72.90625 
L 49.515625 72.90625 
L 49.515625 64.59375 
L 19.828125 64.59375 
L 19.828125 46.734375 
Q 21.96875 47.46875 24.109375 47.828125 
Q 26.265625 48.1875 28.421875 48.1875 
Q 40.625 48.1875 47.75 41.5 
Q 54.890625 34.8125 54.890625 23.390625 
Q 54.890625 11.625 47.5625 5.09375 
Q 40.234375 -1.421875 26.90625 -1.421875 
Q 22.3125 -1.421875 17.546875 -0.640625 
Q 12.796875 0.140625 7.71875 1.703125 
L 7.71875 11.625 
Q 12.109375 9.234375 16.796875 8.0625 
Q 21.484375 6.890625 26.703125 6.890625 
Q 35.15625 6.890625 40.078125 11.328125 
Q 45.015625 15.765625 45.015625 23.390625 
Q 45.015625 31 40.078125 35.4375 
Q 35.15625 39.890625 26.703125 39.890625 
Q 22.75 39.890625 18.8125 39.015625 
Q 14.890625 38.140625 10.796875 36.28125 
z
" id="DejaVuSans-53"/>
      </defs>
      <g transform="translate(223.659671 384.471846)rotate(-30)scale(0.1 -0.1)">
       <use xlink:href="#DejaVuSans-50"/>
       <use x="63.623047" xlink:href="#DejaVuSans-48"/>
       <use x="127.246094" xlink:href="#DejaVuSans-50"/>
       <use x="190.869141" xlink:href="#DejaVuSans-48"/>
       <use x="254.492188" xlink:href="#DejaVuSans-45"/>
       <use x="290.576172" xlink:href="#DejaVuSans-48"/>
       <use x="354.199219" xlink:href="#DejaVuSans-53"/>
      </g>
     </g>
    </g>
    <g id="xtick_6">
     <g id="line2d_6">
      <g>
       <use style="stroke:#000000;" x="307.135829" xlink:href="#mb7235b33f8" y="346.5"/>
      </g>
     </g>
     <g id="text_6">
      <!-- 2020-06 -->
      <defs>
       <path d="M 33.015625 40.375 
Q 26.375 40.375 22.484375 35.828125 
Q 18.609375 31.296875 18.609375 23.390625 
Q 18.609375 15.53125 22.484375 10.953125 
Q 26.375 6.390625 33.015625 6.390625 
Q 39.65625 6.390625 43.53125 10.953125 
Q 47.40625 15.53125 47.40625 23.390625 
Q 47.40625 31.296875 43.53125 35.828125 
Q 39.65625 40.375 33.015625 40.375 
z
M 52.59375 71.296875 
L 52.59375 62.3125 
Q 48.875 64.0625 45.09375 64.984375 
Q 41.3125 65.921875 37.59375 65.921875 
Q 27.828125 65.921875 22.671875 59.328125 
Q 17.53125 52.734375 16.796875 39.40625 
Q 19.671875 43.65625 24.015625 45.921875 
Q 28.375 48.1875 33.59375 48.1875 
Q 44.578125 48.1875 50.953125 41.515625 
Q 57.328125 34.859375 57.328125 23.390625 
Q 57.328125 12.15625 50.6875 5.359375 
Q 44.046875 -1.421875 33.015625 -1.421875 
Q 20.359375 -1.421875 13.671875 8.265625 
Q 6.984375 17.96875 6.984375 36.375 
Q 6.984375 53.65625 15.1875 63.9375 
Q 23.390625 74.21875 37.203125 74.21875 
Q 40.921875 74.21875 44.703125 73.484375 
Q 48.484375 72.75 52.59375 71.296875 
z
" id="DejaVuSans-54"/>
      </defs>
      <g transform="translate(269.911008 384.471846)rotate(-30)scale(0.1 -0.1)">
       <use xlink:href="#DejaVuSans-50"/>
       <use x="63.623047" xlink:href="#DejaVuSans-48"/>
       <use x="127.246094" xlink:href="#DejaVuSans-50"/>
       <use x="190.869141" xlink:href="#DejaVuSans-48"/>
       <use x="254.492188" xlink:href="#DejaVuSans-45"/>
       <use x="290.576172" xlink:href="#DejaVuSans-48"/>
       <use x="354.199219" xlink:href="#DejaVuSans-54"/>
      </g>
     </g>
    </g>
    <g id="xtick_7">
     <g id="line2d_7">
      <g>
       <use style="stroke:#000000;" x="351.895187" xlink:href="#mb7235b33f8" y="346.5"/>
      </g>
     </g>
     <g id="text_7">
      <!-- 2020-07 -->
      <defs>
       <path d="M 8.203125 72.90625 
L 55.078125 72.90625 
L 55.078125 68.703125 
L 28.609375 0 
L 18.3125 0 
L 43.21875 64.59375 
L 8.203125 64.59375 
z
" id="DejaVuSans-55"/>
      </defs>
      <g transform="translate(314.670366 384.471846)rotate(-30)scale(0.1 -0.1)">
       <use xlink:href="#DejaVuSans-50"/>
       <use x="63.623047" xlink:href="#DejaVuSans-48"/>
       <use x="127.246094" xlink:href="#DejaVuSans-50"/>
       <use x="190.869141" xlink:href="#DejaVuSans-48"/>
       <use x="254.492188" xlink:href="#DejaVuSans-45"/>
       <use x="290.576172" xlink:href="#DejaVuSans-48"/>
       <use x="354.199219" xlink:href="#DejaVuSans-55"/>
      </g>
     </g>
    </g>
    <g id="xtick_8">
     <g id="line2d_8">
      <g>
       <use style="stroke:#000000;" x="398.146524" xlink:href="#mb7235b33f8" y="346.5"/>
      </g>
     </g>
     <g id="text_8">
      <!-- 2020-08 -->
      <defs>
       <path d="M 31.78125 34.625 
Q 24.75 34.625 20.71875 30.859375 
Q 16.703125 27.09375 16.703125 20.515625 
Q 16.703125 13.921875 20.71875 10.15625 
Q 24.75 6.390625 31.78125 6.390625 
Q 38.8125 6.390625 42.859375 10.171875 
Q 46.921875 13.96875 46.921875 20.515625 
Q 46.921875 27.09375 42.890625 30.859375 
Q 38.875 34.625 31.78125 34.625 
z
M 21.921875 38.8125 
Q 15.578125 40.375 12.03125 44.71875 
Q 8.5 49.078125 8.5 55.328125 
Q 8.5 64.0625 14.71875 69.140625 
Q 20.953125 74.21875 31.78125 74.21875 
Q 42.671875 74.21875 48.875 69.140625 
Q 55.078125 64.0625 55.078125 55.328125 
Q 55.078125 49.078125 51.53125 44.71875 
Q 48 40.375 41.703125 38.8125 
Q 48.828125 37.15625 52.796875 32.3125 
Q 56.78125 27.484375 56.78125 20.515625 
Q 56.78125 9.90625 50.3125 4.234375 
Q 43.84375 -1.421875 31.78125 -1.421875 
Q 19.734375 -1.421875 13.25 4.234375 
Q 6.78125 9.90625 6.78125 20.515625 
Q 6.78125 27.484375 10.78125 32.3125 
Q 14.796875 37.15625 21.921875 38.8125 
z
M 18.3125 54.390625 
Q 18.3125 48.734375 21.84375 45.5625 
Q 25.390625 42.390625 31.78125 42.390625 
Q 38.140625 42.390625 41.71875 45.5625 
Q 45.3125 48.734375 45.3125 54.390625 
Q 45.3125 60.0625 41.71875 63.234375 
Q 38.140625 66.40625 31.78125 66.40625 
Q 25.390625 66.40625 21.84375 63.234375 
Q 18.3125 60.0625 18.3125 54.390625 
z
" id="DejaVuSans-56"/>
      </defs>
      <g transform="translate(360.921703 384.471846)rotate(-30)scale(0.1 -0.1)">
       <use xlink:href="#DejaVuSans-50"/>
       <use x="63.623047" xlink:href="#DejaVuSans-48"/>
       <use x="127.246094" xlink:href="#DejaVuSans-50"/>
       <use x="190.869141" xlink:href="#DejaVuSans-48"/>
       <use x="254.492188" xlink:href="#DejaVuSans-45"/>
       <use x="290.576172" xlink:href="#DejaVuSans-48"/>
       <use x="354.199219" xlink:href="#DejaVuSans-56"/>
      </g>
     </g>
    </g>
    <g id="xtick_9">
     <g id="line2d_9">
      <g>
       <use style="stroke:#000000;" x="444.397861" xlink:href="#mb7235b33f8" y="346.5"/>
      </g>
     </g>
     <g id="text_9">
      <!-- 2020-09 -->
      <defs>
       <path d="M 10.984375 1.515625 
L 10.984375 10.5 
Q 14.703125 8.734375 18.5 7.8125 
Q 22.3125 6.890625 25.984375 6.890625 
Q 35.75 6.890625 40.890625 13.453125 
Q 46.046875 20.015625 46.78125 33.40625 
Q 43.953125 29.203125 39.59375 26.953125 
Q 35.25 24.703125 29.984375 24.703125 
Q 19.046875 24.703125 12.671875 31.3125 
Q 6.296875 37.9375 6.296875 49.421875 
Q 6.296875 60.640625 12.9375 67.421875 
Q 19.578125 74.21875 30.609375 74.21875 
Q 43.265625 74.21875 49.921875 64.515625 
Q 56.59375 54.828125 56.59375 36.375 
Q 56.59375 19.140625 48.40625 8.859375 
Q 40.234375 -1.421875 26.421875 -1.421875 
Q 22.703125 -1.421875 18.890625 -0.6875 
Q 15.09375 0.046875 10.984375 1.515625 
z
M 30.609375 32.421875 
Q 37.25 32.421875 41.125 36.953125 
Q 45.015625 41.5 45.015625 49.421875 
Q 45.015625 57.28125 41.125 61.84375 
Q 37.25 66.40625 30.609375 66.40625 
Q 23.96875 66.40625 20.09375 61.84375 
Q 16.21875 57.28125 16.21875 49.421875 
Q 16.21875 41.5 20.09375 36.953125 
Q 23.96875 32.421875 30.609375 32.421875 
z
" id="DejaVuSans-57"/>
      </defs>
      <g transform="translate(407.17304 384.471846)rotate(-30)scale(0.1 -0.1)">
       <use xlink:href="#DejaVuSans-50"/>
       <use x="63.623047" xlink:href="#DejaVuSans-48"/>
       <use x="127.246094" xlink:href="#DejaVuSans-50"/>
       <use x="190.869141" xlink:href="#DejaVuSans-48"/>
       <use x="254.492188" xlink:href="#DejaVuSans-45"/>
       <use x="290.576172" xlink:href="#DejaVuSans-48"/>
       <use x="354.199219" xlink:href="#DejaVuSans-57"/>
      </g>
     </g>
    </g>
    <g id="xtick_10">
     <g id="line2d_10">
      <g>
       <use style="stroke:#000000;" x="489.157219" xlink:href="#mb7235b33f8" y="346.5"/>
      </g>
     </g>
     <g id="text_10">
      <!-- 2020-10 -->
      <g transform="translate(451.932398 384.471846)rotate(-30)scale(0.1 -0.1)">
       <use xlink:href="#DejaVuSans-50"/>
       <use x="63.623047" xlink:href="#DejaVuSans-48"/>
       <use x="127.246094" xlink:href="#DejaVuSans-50"/>
       <use x="190.869141" xlink:href="#DejaVuSans-48"/>
       <use x="254.492188" xlink:href="#DejaVuSans-45"/>
       <use x="290.576172" xlink:href="#DejaVuSans-49"/>
       <use x="354.199219" xlink:href="#DejaVuSans-48"/>
      </g>
     </g>
    </g>
    <g id="text_11">
     <!-- Date -->
     <defs>
      <path d="M 19.671875 64.796875 
L 19.671875 8.109375 
L 31.59375 8.109375 
Q 46.6875 8.109375 53.6875 14.9375 
Q 60.6875 21.78125 60.6875 36.53125 
Q 60.6875 51.171875 53.6875 57.984375 
Q 46.6875 64.796875 31.59375 64.796875 
z
M 9.8125 72.90625 
L 30.078125 72.90625 
Q 51.265625 72.90625 61.171875 64.09375 
Q 71.09375 55.28125 71.09375 36.53125 
Q 71.09375 17.671875 61.125 8.828125 
Q 51.171875 0 30.078125 0 
L 9.8125 0 
z
" id="DejaVuSans-68"/>
      <path d="M 34.28125 27.484375 
Q 23.390625 27.484375 19.1875 25 
Q 14.984375 22.515625 14.984375 16.5 
Q 14.984375 11.71875 18.140625 8.90625 
Q 21.296875 6.109375 26.703125 6.109375 
Q 34.1875 6.109375 38.703125 11.40625 
Q 43.21875 16.703125 43.21875 25.484375 
L 43.21875 27.484375 
z
M 52.203125 31.203125 
L 52.203125 0 
L 43.21875 0 
L 43.21875 8.296875 
Q 40.140625 3.328125 35.546875 0.953125 
Q 30.953125 -1.421875 24.3125 -1.421875 
Q 15.921875 -1.421875 10.953125 3.296875 
Q 6 8.015625 6 15.921875 
Q 6 25.140625 12.171875 29.828125 
Q 18.359375 34.515625 30.609375 34.515625 
L 43.21875 34.515625 
L 43.21875 35.40625 
Q 43.21875 41.609375 39.140625 45 
Q 35.0625 48.390625 27.6875 48.390625 
Q 23 48.390625 18.546875 47.265625 
Q 14.109375 46.140625 10.015625 43.890625 
L 10.015625 52.203125 
Q 14.9375 54.109375 19.578125 55.046875 
Q 24.21875 56 28.609375 56 
Q 40.484375 56 46.34375 49.84375 
Q 52.203125 43.703125 52.203125 31.203125 
z
" id="DejaVuSans-97"/>
      <path d="M 18.3125 70.21875 
L 18.3125 54.6875 
L 36.8125 54.6875 
L 36.8125 47.703125 
L 18.3125 47.703125 
L 18.3125 18.015625 
Q 18.3125 11.328125 20.140625 9.421875 
Q 21.96875 7.515625 27.59375 7.515625 
L 36.8125 7.515625 
L 36.8125 0 
L 27.59375 0 
Q 17.1875 0 13.234375 3.875 
Q 9.28125 7.765625 9.28125 18.015625 
L 9.28125 47.703125 
L 2.6875 47.703125 
L 2.6875 54.6875 
L 9.28125 54.6875 
L 9.28125 70.21875 
z
" id="DejaVuSans-116"/>
      <path d="M 56.203125 29.59375 
L 56.203125 25.203125 
L 14.890625 25.203125 
Q 15.484375 15.921875 20.484375 11.0625 
Q 25.484375 6.203125 34.421875 6.203125 
Q 39.59375 6.203125 44.453125 7.46875 
Q 49.3125 8.734375 54.109375 11.28125 
L 54.109375 2.78125 
Q 49.265625 0.734375 44.1875 -0.34375 
Q 39.109375 -1.421875 33.890625 -1.421875 
Q 20.796875 -1.421875 13.15625 6.1875 
Q 5.515625 13.8125 5.515625 26.8125 
Q 5.515625 40.234375 12.765625 48.109375 
Q 20.015625 56 32.328125 56 
Q 43.359375 56 49.78125 48.890625 
Q 56.203125 41.796875 56.203125 29.59375 
z
M 47.21875 32.234375 
Q 47.125 39.59375 43.09375 43.984375 
Q 39.0625 48.390625 32.421875 48.390625 
Q 24.90625 48.390625 20.390625 44.140625 
Q 15.875 39.890625 15.1875 32.171875 
z
" id="DejaVuSans-101"/>
     </defs>
     <g transform="translate(282.054141 398.63119)scale(0.11 -0.11)">
      <use xlink:href="#DejaVuSans-68"/>
      <use x="77.001953" xlink:href="#DejaVuSans-97"/>
      <use x="138.28125" xlink:href="#DejaVuSans-116"/>
      <use x="177.490234" xlink:href="#DejaVuSans-101"/>
     </g>
    </g>
   </g>
   <g id="matplotlib.axis_2">
    <g id="ytick_1">
     <g id="line2d_11">
      <defs>
       <path d="M 0 0 
L -3.5 0 
" id="md2eda5fcf5" style="stroke:#000000;"/>
      </defs>
      <g>
       <use style="stroke:#000000;" x="72" xlink:href="#md2eda5fcf5" y="332.91"/>
      </g>
     </g>
     <g id="text_12">
      <!-- 0 -->
      <g transform="translate(55.1375 336.709219)scale(0.1 -0.1)">
       <use xlink:href="#DejaVuSans-48"/>
      </g>
     </g>
    </g>
    <g id="ytick_2">
     <g id="line2d_12">
      <g>
       <use style="stroke:#000000;" x="72" xlink:href="#md2eda5fcf5" y="277.141853"/>
      </g>
     </g>
     <g id="text_13">
      <!-- 10 -->
      <g transform="translate(48.775 280.941072)scale(0.1 -0.1)">
       <use xlink:href="#DejaVuSans-49"/>
       <use x="63.623047" xlink:href="#DejaVuSans-48"/>
      </g>
     </g>
    </g>
    <g id="ytick_3">
     <g id="line2d_13">
      <g>
       <use style="stroke:#000000;" x="72" xlink:href="#md2eda5fcf5" y="221.373707"/>
      </g>
     </g>
     <g id="text_14">
      <!-- 20 -->
      <g transform="translate(48.775 225.172925)scale(0.1 -0.1)">
       <use xlink:href="#DejaVuSans-50"/>
       <use x="63.623047" xlink:href="#DejaVuSans-48"/>
      </g>
     </g>
    </g>
    <g id="ytick_4">
     <g id="line2d_14">
      <g>
       <use style="stroke:#000000;" x="72" xlink:href="#md2eda5fcf5" y="165.60556"/>
      </g>
     </g>
     <g id="text_15">
      <!-- 30 -->
      <g transform="translate(48.775 169.404779)scale(0.1 -0.1)">
       <use xlink:href="#DejaVuSans-51"/>
       <use x="63.623047" xlink:href="#DejaVuSans-48"/>
      </g>
     </g>
    </g>
    <g id="ytick_5">
     <g id="line2d_15">
      <g>
       <use style="stroke:#000000;" x="72" xlink:href="#md2eda5fcf5" y="109.837413"/>
      </g>
     </g>
     <g id="text_16">
      <!-- 40 -->
      <g transform="translate(48.775 113.636632)scale(0.1 -0.1)">
       <use xlink:href="#DejaVuSans-52"/>
       <use x="63.623047" xlink:href="#DejaVuSans-48"/>
      </g>
     </g>
    </g>
    <g id="ytick_6">
     <g id="line2d_16">
      <g>
       <use style="stroke:#000000;" x="72" xlink:href="#md2eda5fcf5" y="54.069267"/>
      </g>
     </g>
     <g id="text_17">
      <!-- 50 -->
      <g transform="translate(48.775 57.868486)scale(0.1 -0.1)">
       <use xlink:href="#DejaVuSans-53"/>
       <use x="63.623047" xlink:href="#DejaVuSans-48"/>
      </g>
     </g>
    </g>
   </g>
   <g id="line2d_17">
    <path clip-path="url(#p8008229cb9)" d="M 92.290909 332.91 
L 195.237433 332.91 
L 196.729412 324.615733 
L 198.22139 314.835293 
L 199.713369 303.837605 
L 201.205348 291.679286 
L 202.697326 275.713531 
L 204.189305 253.859695 
L 205.681283 229.019358 
L 207.173262 214.115155 
L 208.665241 196.564148 
L 210.157219 181.051322 
L 211.649198 162.268913 
L 213.141176 138.362742 
L 214.633155 125.581645 
L 217.617112 88.257446 
L 219.109091 79.297939 
L 220.60107 69.107032 
L 222.093048 63.360492 
L 223.585027 65.313749 
L 225.077005 61.11 
L 226.568984 67.903938 
L 228.060963 76.283129 
L 229.552941 81.491815 
L 231.04492 90.522092 
L 235.520856 125.241948 
L 237.012834 139.551681 
L 239.996791 154.908813 
L 241.48877 162.60861 
L 242.980749 167.081286 
L 245.964706 177.753431 
L 247.456684 181.971334 
L 248.948663 188.878505 
L 250.440642 194.497658 
L 251.93262 199.182645 
L 253.424599 202.961773 
L 254.916578 205.481192 
L 256.408556 208.297846 
L 257.900535 208.510156 
L 259.392513 209.387707 
L 260.884492 212.161898 
L 262.376471 213.577302 
L 263.868449 215.431481 
L 265.360428 218.969991 
L 266.852406 223.739902 
L 268.344385 227.349181 
L 269.836364 230.590456 
L 271.328342 235.374521 
L 272.820321 237.950556 
L 274.312299 242.494002 
L 275.804278 245.721123 
L 277.296257 247.348838 
L 280.280214 254.01539 
L 281.772193 254.08616 
L 283.264171 255.883723 
L 284.75615 257.058508 
L 286.248128 258.940995 
L 287.740107 260.243167 
L 289.232086 261.262257 
L 290.724064 261.941651 
L 292.216043 263.357055 
L 295.2 268.21189 
L 296.691979 271.538089 
L 298.183957 274.000892 
L 302.659893 280.044666 
L 304.151872 280.58252 
L 305.64385 281.304376 
L 307.135829 280.964679 
L 308.627807 281.31853 
L 310.119786 282.705626 
L 313.103743 285.975209 
L 314.595722 288.239855 
L 316.087701 289.980801 
L 317.579679 292.443604 
L 319.071658 294.651634 
L 320.563636 295.911344 
L 322.055615 297.72306 
L 323.547594 298.883692 
L 325.039572 299.464007 
L 326.531551 299.704626 
L 328.023529 299.464007 
L 329.515508 300.072631 
L 331.007487 301.035105 
L 332.499465 301.289878 
L 333.991444 301.92681 
L 335.483422 303.073287 
L 336.975401 304.361304 
L 338.46738 305.026544 
L 341.451337 307.163804 
L 342.943316 307.95643 
L 344.435294 308.0272 
L 345.927273 307.673349 
L 347.419251 308.522592 
L 348.91123 310.589081 
L 350.403209 311.806329 
L 351.895187 312.669725 
L 354.879144 315.627919 
L 356.371123 316.887628 
L 359.35508 317.538714 
L 360.847059 318.11903 
L 362.339037 318.968272 
L 363.831016 319.152275 
L 365.322995 319.746744 
L 366.814973 320.072287 
L 368.306952 320.907375 
L 369.79893 321.091378 
L 374.274866 322.124623 
L 375.766845 322.421858 
L 377.258824 323.115405 
L 378.750802 323.115405 
L 381.734759 324.445885 
L 383.226738 324.927122 
L 384.718717 324.997893 
L 387.702674 324.615733 
L 392.17861 324.927122 
L 393.670588 325.196049 
L 396.654545 326.21514 
L 398.146524 326.42745 
L 404.114439 326.837918 
L 405.606417 327.16346 
L 407.098396 327.09269 
L 408.590374 326.696377 
L 410.082353 326.752993 
L 411.574332 327.09269 
L 413.06631 327.02192 
L 414.558289 327.149306 
L 416.050267 327.036074 
L 417.542246 327.106844 
L 419.034225 327.673006 
L 420.526203 327.871162 
L 423.51016 328.026857 
L 425.002139 327.927778 
L 426.494118 328.140089 
L 432.462032 328.409016 
L 433.954011 328.3524 
L 435.445989 328.437324 
L 436.937968 328.097627 
L 438.429947 328.168397 
L 439.921925 327.786238 
L 441.413904 327.871162 
L 442.905882 327.715468 
L 444.397861 327.743776 
L 445.88984 327.361617 
L 447.381818 327.361617 
L 448.873797 327.036074 
L 454.841711 324.74312 
L 456.33369 323.93634 
L 459.317647 321.926466 
L 460.809626 321.232918 
L 462.301604 320.270444 
L 465.285561 317.680255 
L 466.77754 317.015015 
L 468.269519 316.222389 
L 472.745455 313.17927 
L 474.237433 311.721404 
L 475.729412 310.674006 
L 477.22139 308.819827 
L 478.713369 307.560117 
L 480.205348 306.583489 
L 481.697326 306.003173 
L 483.189305 305.946557 
L 484.681283 305.479474 
L 486.173262 304.885004 
L 487.665241 304.686847 
L 489.157219 303.554524 
L 490.649198 302.181583 
L 492.141176 300.185863 
L 493.633155 296.831356 
L 495.125134 294.510094 
L 496.617112 291.48113 
L 498.109091 289.174021 
L 498.109091 289.174021 
" style="fill:none;stroke:#1f77b4;stroke-linecap:square;stroke-width:1.75;"/>
   </g>
   <g id="line2d_18">
    <path clip-path="url(#p8008229cb9)" d="M 92.290909 332.91 
L 168.381818 332.91 
L 169.873797 332.180873 
L 174.349733 326.931159 
L 175.841711 324.306302 
L 177.33369 321.243969 
L 178.825668 319.931541 
L 180.317647 319.056589 
L 181.809626 318.035811 
L 184.793583 313.223573 
L 186.285561 312.348621 
L 187.77754 311.911145 
L 189.269519 310.015415 
L 190.761497 309.140463 
L 193.745455 305.932304 
L 195.237433 303.599098 
L 196.729412 300.974241 
L 198.22139 293.974623 
L 199.713369 287.995782 
L 201.205348 282.891894 
L 202.697326 273.413244 
L 204.189305 265.247023 
L 205.681283 253.726818 
L 207.173262 237.248549 
L 208.665241 226.457471 
L 210.157219 212.895711 
L 211.649198 200.500553 
L 213.141176 186.647142 
L 216.125134 160.544399 
L 217.617112 158.648669 
L 219.109091 149.024193 
L 220.60107 149.46167 
L 222.093048 146.107686 
L 223.585027 144.211956 
L 225.077005 146.107686 
L 226.568984 154.419732 
L 228.060963 159.961097 
L 229.552941 173.960334 
L 232.536898 195.688316 
L 234.028877 210.416679 
L 235.520856 220.624456 
L 237.012834 229.228153 
L 238.504813 234.040391 
L 239.996791 235.061169 
L 241.48877 235.790296 
L 242.980749 239.727581 
L 244.472727 244.831469 
L 245.964706 249.352056 
L 247.456684 254.310119 
L 248.948663 258.830706 
L 250.440642 261.455563 
L 251.93262 265.97615 
L 253.424599 268.746832 
L 254.916578 267.434404 
L 256.408556 267.142753 
L 257.900535 269.621784 
L 259.392513 271.080038 
L 260.884492 276.329752 
L 262.376471 275.892276 
L 263.868449 275.892276 
L 265.360428 279.392085 
L 266.852406 284.058497 
L 268.344385 284.204322 
L 269.836364 287.12083 
L 271.328342 290.474814 
L 272.820321 294.266274 
L 274.312299 296.162004 
L 275.804278 298.932686 
L 277.296257 299.370162 
L 278.788235 302.28667 
L 280.280214 303.599098 
L 281.772193 303.744924 
L 283.264171 304.036574 
L 284.75615 306.515606 
L 286.248128 307.390558 
L 287.740107 311.036193 
L 289.232086 312.202796 
L 290.724064 314.244351 
L 292.216043 316.577557 
L 293.708021 317.160859 
L 295.2 317.306684 
L 296.691979 319.348239 
L 298.183957 319.056589 
L 299.675936 320.223192 
L 301.167914 321.243969 
L 302.659893 321.973096 
L 304.151872 323.577176 
L 305.64385 323.285525 
L 307.135829 324.160477 
L 308.627807 325.472906 
L 310.119786 325.910382 
L 313.103743 325.910382 
L 314.595722 325.618731 
L 317.579679 326.785334 
L 319.071658 326.931159 
L 322.055615 326.931159 
L 323.547594 328.243588 
L 325.039572 328.389413 
L 326.531551 328.389413 
L 328.023529 327.951937 
L 329.515508 327.951937 
L 331.007487 328.243588 
L 332.499465 328.826889 
L 333.991444 328.389413 
L 335.483422 328.681064 
L 336.975401 329.410191 
L 338.46738 329.701842 
L 339.959358 329.701842 
L 341.451337 330.139318 
L 342.943316 330.139318 
L 344.435294 330.722619 
L 347.419251 330.430969 
L 348.91123 330.868445 
L 350.403209 331.451746 
L 351.895187 331.451746 
L 353.387166 331.743397 
L 354.879144 331.597572 
L 356.371123 331.889222 
L 357.863102 332.035048 
L 360.847059 331.743397 
L 362.339037 332.035048 
L 363.831016 332.035048 
L 366.814973 331.743397 
L 368.306952 331.743397 
L 369.79893 332.035048 
L 371.290909 332.180873 
L 372.782888 332.180873 
L 374.274866 332.035048 
L 377.258824 332.618349 
L 378.750802 332.472524 
L 381.734759 332.472524 
L 383.226738 332.326698 
L 384.718717 332.472524 
L 386.210695 332.472524 
L 387.702674 332.035048 
L 389.194652 332.326698 
L 390.686631 332.180873 
L 392.17861 332.180873 
L 393.670588 332.035048 
L 396.654545 332.035048 
L 398.146524 332.326698 
L 399.638503 332.326698 
L 401.130481 332.472524 
L 402.62246 332.180873 
L 404.114439 332.035048 
L 405.606417 332.035048 
L 407.098396 331.889222 
L 410.082353 331.889222 
L 411.574332 331.451746 
L 413.06631 331.597572 
L 414.558289 332.035048 
L 416.050267 331.889222 
L 417.542246 331.597572 
L 419.034225 331.01427 
L 422.018182 330.722619 
L 423.51016 330.722619 
L 425.002139 330.430969 
L 426.494118 329.993492 
L 427.986096 330.139318 
L 429.478075 330.576794 
L 430.970053 330.722619 
L 432.462032 330.722619 
L 433.954011 329.993492 
L 435.445989 329.556016 
L 436.937968 329.701842 
L 438.429947 329.264365 
L 439.921925 329.264365 
L 441.413904 328.972715 
L 442.905882 329.11854 
L 444.397861 329.847667 
L 445.88984 329.847667 
L 447.381818 330.139318 
L 448.873797 329.410191 
L 450.365775 329.11854 
L 451.857754 329.11854 
L 453.349733 328.826889 
L 454.841711 328.243588 
L 456.33369 328.389413 
L 457.825668 326.931159 
L 459.317647 326.785334 
L 460.809626 326.202032 
L 462.301604 325.764556 
L 463.793583 325.181255 
L 465.285561 324.743779 
L 466.77754 322.410572 
L 468.269519 322.556398 
L 469.761497 323.285525 
L 471.253476 323.139699 
L 472.745455 322.118922 
L 474.237433 321.389795 
L 475.729412 318.910763 
L 477.22139 319.931541 
L 478.713369 318.181636 
L 480.205348 315.84843 
L 483.189305 312.786097 
L 484.681283 310.744542 
L 486.173262 311.473669 
L 487.665241 308.557161 
L 489.157219 306.223955 
L 490.649198 304.474051 
L 492.141176 302.432495 
L 493.633155 301.995019 
L 495.125134 299.078511 
L 496.617112 301.995019 
L 498.109091 306.807257 
L 498.109091 306.807257 
" style="fill:none;stroke:#ff7f0e;stroke-linecap:square;stroke-width:1.75;"/>
   </g>
   <g id="line2d_19">
    <path clip-path="url(#p8008229cb9)" d="M 92.290909 332.91 
L 201.205348 332.91 
L 202.697326 324.824054 
L 204.189305 308.904847 
L 205.681283 263.926772 
L 207.173262 236.889389 
L 210.157219 175.23405 
L 211.649198 141.626836 
L 213.141176 112.567967 
L 214.633155 88.562814 
L 216.125134 81.234925 
L 217.617112 73.148979 
L 219.109091 75.170466 
L 220.60107 73.148979 
L 222.093048 72.896293 
L 223.585027 78.960753 
L 225.077005 69.358692 
L 226.568984 81.740297 
L 228.060963 85.025213 
L 229.552941 80.224182 
L 231.04492 87.299385 
L 232.536898 78.708067 
L 234.028877 76.939266 
L 235.520856 99.68099 
L 237.012834 101.449791 
L 238.504813 107.008879 
L 241.48877 95.638017 
L 242.980749 112.315281 
L 244.472727 116.358254 
L 245.964706 113.57871 
L 247.456684 119.64317 
L 248.948663 112.062595 
L 251.93262 120.401227 
L 253.424599 121.664656 
L 254.916578 126.465687 
L 256.408556 120.906599 
L 257.900535 120.906599 
L 259.392513 121.41197 
L 260.884492 128.487173 
L 262.376471 120.906599 
L 263.868449 121.664656 
L 265.360428 115.094825 
L 266.852406 115.852882 
L 268.344385 121.917342 
L 269.836364 125.202258 
L 271.328342 120.148541 
L 272.820321 129.245231 
L 274.312299 124.191514 
L 275.804278 127.47643 
L 277.296257 138.594606 
L 278.788235 134.551633 
L 280.280214 138.089234 
L 281.772193 147.943981 
L 283.264171 145.164437 
L 284.75615 149.20741 
L 286.248128 157.040671 
L 287.740107 153.755755 
L 289.232086 159.820215 
L 290.724064 159.820215 
L 292.216043 161.589015 
L 293.708021 160.578272 
L 295.2 165.631988 
L 296.691979 164.368559 
L 298.183957 166.642732 
L 299.675936 163.863188 
L 301.167914 160.0729 
L 302.659893 155.524556 
L 304.151872 162.599759 
L 305.64385 165.126617 
L 307.135829 167.400789 
L 308.627807 164.873931 
L 310.119786 158.556786 
L 311.611765 164.368559 
L 313.103743 168.664218 
L 314.595722 168.916904 
L 316.087701 166.895418 
L 317.579679 170.433019 
L 319.071658 175.992107 
L 320.563636 184.583425 
L 322.055615 182.814624 
L 323.547594 180.793138 
L 325.039572 175.23405 
L 326.531551 181.298509 
L 328.023529 179.024337 
L 329.515508 176.244793 
L 331.007487 177.760908 
L 332.499465 182.056567 
L 333.991444 185.088796 
L 335.483422 196.712344 
L 336.975401 192.669371 
L 338.46738 192.922057 
L 339.959358 196.96503 
L 341.451337 194.438172 
L 342.943316 200.249946 
L 344.435294 197.723087 
L 345.927273 196.206972 
L 348.91123 206.819777 
L 350.403209 200.502631 
L 351.895187 209.346635 
L 353.387166 209.346635 
L 354.879144 215.158409 
L 356.371123 214.147666 
L 357.863102 210.104692 
L 359.35508 209.093949 
L 360.847059 219.201382 
L 362.339037 219.959439 
L 363.831016 217.179895 
L 365.322995 216.421838 
L 366.814973 216.92721 
L 368.306952 222.486298 
L 369.79893 222.486298 
L 371.290909 222.738983 
L 372.782888 226.529271 
L 374.274866 233.351788 
L 375.766845 235.62596 
L 377.258824 241.185048 
L 378.750802 238.65819 
L 380.242781 240.426991 
L 381.734759 244.72265 
L 383.226738 238.65819 
L 384.718717 228.550757 
L 386.210695 228.045386 
L 389.194652 231.077615 
L 390.686631 231.077615 
L 392.17861 230.319558 
L 393.670588 232.341044 
L 395.162567 241.185048 
L 396.654545 242.953849 
L 398.146524 236.636703 
L 399.638503 239.163562 
L 401.130481 242.701163 
L 402.62246 238.65819 
L 404.114439 236.131332 
L 405.606417 238.152818 
L 407.098396 238.405504 
L 408.590374 242.953849 
L 410.082353 238.910876 
L 411.574332 238.405504 
L 413.06631 242.953849 
L 414.558289 250.281738 
L 416.050267 245.733393 
L 417.542246 249.270994 
L 419.034225 250.029052 
L 420.526203 253.566653 
L 422.018182 251.797852 
L 423.51016 247.754879 
L 425.002139 247.754879 
L 426.494118 253.819339 
L 427.986096 250.029052 
L 429.478075 253.313967 
L 430.970053 256.093511 
L 432.462032 256.598883 
L 433.954011 260.136484 
L 435.445989 254.072025 
L 438.429947 238.910876 
L 439.921925 235.62596 
L 441.413904 233.857159 
L 442.905882 235.62596 
L 444.397861 230.572244 
L 445.88984 233.099102 
L 447.381818 233.099102 
L 448.873797 236.636703 
L 450.365775 242.953849 
L 451.857754 240.679676 
L 453.349733 236.384018 
L 454.841711 237.394761 
L 456.33369 238.152818 
L 457.825668 243.45922 
L 459.317647 243.206535 
L 460.809626 236.131332 
L 463.793583 229.5615 
L 465.285561 232.59373 
L 466.77754 230.319558 
L 468.269519 232.088359 
L 469.761497 239.416247 
L 471.253476 244.72265 
L 472.745455 251.545167 
L 474.237433 251.545167 
L 475.729412 254.072025 
L 477.22139 252.808596 
L 478.713369 239.668933 
L 481.697326 226.276585 
L 483.189305 219.201382 
L 484.681283 216.169152 
L 486.173262 204.292919 
L 487.665241 206.567091 
L 489.157219 210.357378 
L 490.649198 203.534861 
L 492.141176 198.986516 
L 493.633155 189.889827 
L 495.125134 192.922057 
L 496.617112 195.448915 
L 498.109091 189.384455 
L 498.109091 189.384455 
" style="fill:none;stroke:#2ca02c;stroke-linecap:square;stroke-width:1.75;"/>
   </g>
   <g id="line2d_20">
    <path clip-path="url(#p8008229cb9)" d="M 92.290909 332.91 
L 169.873797 332.91 
L 171.365775 332.489288 
L 174.349733 332.489288 
L 175.841711 332.068577 
L 177.33369 330.806442 
L 181.809626 330.806442 
L 183.301604 329.965018 
L 186.285561 327.440748 
L 187.77754 327.86146 
L 189.269519 327.020037 
L 190.761497 326.599325 
L 192.253476 325.33719 
L 193.745455 324.495767 
L 195.237433 322.81292 
L 196.729412 322.392208 
L 198.22139 319.026515 
L 199.713369 315.24011 
L 201.205348 312.295128 
L 202.697326 307.246588 
L 204.189305 302.61876 
L 205.681283 293.363103 
L 207.173262 283.266023 
L 208.665241 275.272501 
L 211.649198 252.554071 
L 213.141176 244.981261 
L 214.633155 231.939199 
L 219.109091 213.427885 
L 220.60107 212.16575 
L 222.093048 215.531444 
L 223.585027 213.007174 
L 225.077005 215.952155 
L 226.568984 221.000695 
L 228.060963 225.207812 
L 229.552941 235.725604 
L 231.04492 243.719126 
L 232.536898 245.822684 
L 234.028877 255.919764 
L 235.520856 263.071863 
L 237.012834 266.858268 
L 238.504813 267.278979 
L 239.996791 261.809727 
L 241.48877 265.175421 
L 242.980749 265.175421 
L 244.472727 258.023322 
L 245.964706 254.236917 
L 247.456684 252.554071 
L 248.948663 255.919764 
L 250.440642 259.706169 
L 251.93262 257.602611 
L 253.424599 262.230439 
L 254.916578 266.437556 
L 256.408556 275.693213 
L 257.900535 279.900329 
L 259.392513 278.638194 
L 260.884492 280.321041 
L 262.376471 283.686734 
L 263.868449 283.686734 
L 265.360428 288.735274 
L 266.852406 287.473139 
L 268.344385 287.473139 
L 269.836364 294.204526 
L 271.328342 298.832355 
L 272.820321 296.728796 
L 274.312299 293.783815 
L 275.804278 289.155986 
L 277.296257 288.735274 
L 278.788235 287.893851 
L 280.280214 286.211004 
L 281.772193 284.107446 
L 283.264171 286.631716 
L 284.75615 288.735274 
L 286.248128 292.52168 
L 287.740107 293.783815 
L 289.232086 299.253066 
L 290.724064 302.61876 
L 292.216043 306.405165 
L 293.708021 308.929435 
L 295.2 312.71584 
L 296.691979 314.398686 
L 298.183957 314.819398 
L 299.675936 314.819398 
L 301.167914 315.24011 
L 302.659893 314.398686 
L 304.151872 313.977975 
L 305.64385 313.977975 
L 307.135829 316.922956 
L 308.627807 319.026515 
L 310.119786 319.867938 
L 311.611765 321.130073 
L 313.103743 322.81292 
L 314.595722 323.654343 
L 316.087701 324.916478 
L 317.579679 324.916478 
L 322.055615 321.130073 
L 325.039572 321.130073 
L 326.531551 321.550785 
L 328.023529 322.392208 
L 329.515508 324.916478 
L 331.007487 327.020037 
L 332.499465 329.544307 
L 335.483422 329.544307 
L 336.975401 328.282172 
L 339.959358 326.599325 
L 342.943316 326.599325 
L 344.435294 327.020037 
L 345.927273 328.282172 
L 347.419251 328.282172 
L 348.91123 329.123595 
L 350.403209 329.544307 
L 351.895187 330.38573 
L 353.387166 329.965018 
L 354.879144 329.965018 
L 356.371123 329.123595 
L 357.863102 330.38573 
L 359.35508 329.544307 
L 360.847059 329.965018 
L 362.339037 328.282172 
L 363.831016 328.282172 
L 365.322995 328.702883 
L 366.814973 329.544307 
L 368.306952 329.544307 
L 371.290909 330.38573 
L 372.782888 331.647865 
L 374.274866 331.227153 
L 375.766845 331.227153 
L 377.258824 330.38573 
L 378.750802 329.965018 
L 381.734759 329.965018 
L 383.226738 329.544307 
L 384.718717 330.38573 
L 386.210695 329.123595 
L 389.194652 329.965018 
L 392.17861 329.123595 
L 393.670588 329.123595 
L 395.162567 328.702883 
L 396.654545 329.544307 
L 398.146524 328.702883 
L 401.130481 327.86146 
L 402.62246 327.86146 
L 404.114439 328.282172 
L 405.606417 327.440748 
L 407.098396 327.86146 
L 408.590374 327.020037 
L 410.082353 326.599325 
L 411.574332 327.86146 
L 414.558289 327.020037 
L 416.050267 327.440748 
L 417.542246 326.599325 
L 419.034225 327.86146 
L 420.526203 327.86146 
L 422.018182 325.33719 
L 426.494118 320.28865 
L 427.986096 319.447227 
L 430.970053 319.447227 
L 432.462032 318.605803 
L 433.954011 320.28865 
L 435.445989 322.81292 
L 436.937968 323.654343 
L 441.413904 322.392208 
L 442.905882 323.654343 
L 444.397861 322.81292 
L 445.88984 322.81292 
L 447.381818 323.654343 
L 448.873797 324.916478 
L 450.365775 325.757902 
L 451.857754 325.33719 
L 453.349733 327.020037 
L 454.841711 324.495767 
L 456.33369 324.075055 
L 457.825668 321.971497 
L 460.809626 319.447227 
L 462.301604 319.867938 
L 463.793583 317.343668 
L 465.285561 319.447227 
L 466.77754 319.026515 
L 468.269519 319.867938 
L 469.761497 321.130073 
L 472.745455 320.28865 
L 475.729412 317.76438 
L 477.22139 314.398686 
L 481.697326 310.612281 
L 484.681283 305.563741 
L 486.173262 306.405165 
L 487.665241 307.6673 
L 489.157219 307.246588 
L 490.649198 305.984453 
L 492.141176 301.777336 
L 493.633155 300.09449 
L 495.125134 299.253066 
L 496.617112 295.04595 
L 498.109091 294.625238 
L 498.109091 294.625238 
" style="fill:none;stroke:#d62728;stroke-linecap:square;stroke-width:1.75;"/>
   </g>
   <g id="patch_3">
    <path d="M 72 346.5 
L 72 47.52 
" style="fill:none;stroke:#000000;stroke-linecap:square;stroke-linejoin:miter;stroke-width:0.8;"/>
   </g>
   <g id="patch_4">
    <path d="M 518.4 346.5 
L 518.4 47.52 
" style="fill:none;stroke:#000000;stroke-linecap:square;stroke-linejoin:miter;stroke-width:0.8;"/>
   </g>
   <g id="patch_5">
    <path d="M 72 346.5 
L 518.4 346.5 
" style="fill:none;stroke:#000000;stroke-linecap:square;stroke-linejoin:miter;stroke-width:0.8;"/>
   </g>
   <g id="patch_6">
    <path d="M 72 47.52 
L 518.4 47.52 
" style="fill:none;stroke:#000000;stroke-linecap:square;stroke-linejoin:miter;stroke-width:0.8;"/>
   </g>
   <g id="text_18">
    <!-- New admissions per Million (7 day rolling) -->
    <defs>
     <path d="M 9.8125 72.90625 
L 23.09375 72.90625 
L 55.421875 11.921875 
L 55.421875 72.90625 
L 64.984375 72.90625 
L 64.984375 0 
L 51.703125 0 
L 19.390625 60.984375 
L 19.390625 0 
L 9.8125 0 
z
" id="DejaVuSans-78"/>
     <path d="M 4.203125 54.6875 
L 13.1875 54.6875 
L 24.421875 12.015625 
L 35.59375 54.6875 
L 46.1875 54.6875 
L 57.421875 12.015625 
L 68.609375 54.6875 
L 77.59375 54.6875 
L 63.28125 0 
L 52.6875 0 
L 40.921875 44.828125 
L 29.109375 0 
L 18.5 0 
z
" id="DejaVuSans-119"/>
     <path id="DejaVuSans-32"/>
     <path d="M 45.40625 46.390625 
L 45.40625 75.984375 
L 54.390625 75.984375 
L 54.390625 0 
L 45.40625 0 
L 45.40625 8.203125 
Q 42.578125 3.328125 38.25 0.953125 
Q 33.9375 -1.421875 27.875 -1.421875 
Q 17.96875 -1.421875 11.734375 6.484375 
Q 5.515625 14.40625 5.515625 27.296875 
Q 5.515625 40.1875 11.734375 48.09375 
Q 17.96875 56 27.875 56 
Q 33.9375 56 38.25 53.625 
Q 42.578125 51.265625 45.40625 46.390625 
z
M 14.796875 27.296875 
Q 14.796875 17.390625 18.875 11.75 
Q 22.953125 6.109375 30.078125 6.109375 
Q 37.203125 6.109375 41.296875 11.75 
Q 45.40625 17.390625 45.40625 27.296875 
Q 45.40625 37.203125 41.296875 42.84375 
Q 37.203125 48.484375 30.078125 48.484375 
Q 22.953125 48.484375 18.875 42.84375 
Q 14.796875 37.203125 14.796875 27.296875 
z
" id="DejaVuSans-100"/>
     <path d="M 52 44.1875 
Q 55.375 50.25 60.0625 53.125 
Q 64.75 56 71.09375 56 
Q 79.640625 56 84.28125 50.015625 
Q 88.921875 44.046875 88.921875 33.015625 
L 88.921875 0 
L 79.890625 0 
L 79.890625 32.71875 
Q 79.890625 40.578125 77.09375 44.375 
Q 74.3125 48.1875 68.609375 48.1875 
Q 61.625 48.1875 57.5625 43.546875 
Q 53.515625 38.921875 53.515625 30.90625 
L 53.515625 0 
L 44.484375 0 
L 44.484375 32.71875 
Q 44.484375 40.625 41.703125 44.40625 
Q 38.921875 48.1875 33.109375 48.1875 
Q 26.21875 48.1875 22.15625 43.53125 
Q 18.109375 38.875 18.109375 30.90625 
L 18.109375 0 
L 9.078125 0 
L 9.078125 54.6875 
L 18.109375 54.6875 
L 18.109375 46.1875 
Q 21.1875 51.21875 25.484375 53.609375 
Q 29.78125 56 35.6875 56 
Q 41.65625 56 45.828125 52.96875 
Q 50 49.953125 52 44.1875 
z
" id="DejaVuSans-109"/>
     <path d="M 9.421875 54.6875 
L 18.40625 54.6875 
L 18.40625 0 
L 9.421875 0 
z
M 9.421875 75.984375 
L 18.40625 75.984375 
L 18.40625 64.59375 
L 9.421875 64.59375 
z
" id="DejaVuSans-105"/>
     <path d="M 44.28125 53.078125 
L 44.28125 44.578125 
Q 40.484375 46.53125 36.375 47.5 
Q 32.28125 48.484375 27.875 48.484375 
Q 21.1875 48.484375 17.84375 46.4375 
Q 14.5 44.390625 14.5 40.28125 
Q 14.5 37.15625 16.890625 35.375 
Q 19.28125 33.59375 26.515625 31.984375 
L 29.59375 31.296875 
Q 39.15625 29.25 43.1875 25.515625 
Q 47.21875 21.78125 47.21875 15.09375 
Q 47.21875 7.46875 41.1875 3.015625 
Q 35.15625 -1.421875 24.609375 -1.421875 
Q 20.21875 -1.421875 15.453125 -0.5625 
Q 10.6875 0.296875 5.421875 2 
L 5.421875 11.28125 
Q 10.40625 8.6875 15.234375 7.390625 
Q 20.0625 6.109375 24.8125 6.109375 
Q 31.15625 6.109375 34.5625 8.28125 
Q 37.984375 10.453125 37.984375 14.40625 
Q 37.984375 18.0625 35.515625 20.015625 
Q 33.0625 21.96875 24.703125 23.78125 
L 21.578125 24.515625 
Q 13.234375 26.265625 9.515625 29.90625 
Q 5.8125 33.546875 5.8125 39.890625 
Q 5.8125 47.609375 11.28125 51.796875 
Q 16.75 56 26.8125 56 
Q 31.78125 56 36.171875 55.265625 
Q 40.578125 54.546875 44.28125 53.078125 
z
" id="DejaVuSans-115"/>
     <path d="M 30.609375 48.390625 
Q 23.390625 48.390625 19.1875 42.75 
Q 14.984375 37.109375 14.984375 27.296875 
Q 14.984375 17.484375 19.15625 11.84375 
Q 23.34375 6.203125 30.609375 6.203125 
Q 37.796875 6.203125 41.984375 11.859375 
Q 46.1875 17.53125 46.1875 27.296875 
Q 46.1875 37.015625 41.984375 42.703125 
Q 37.796875 48.390625 30.609375 48.390625 
z
M 30.609375 56 
Q 42.328125 56 49.015625 48.375 
Q 55.71875 40.765625 55.71875 27.296875 
Q 55.71875 13.875 49.015625 6.21875 
Q 42.328125 -1.421875 30.609375 -1.421875 
Q 18.84375 -1.421875 12.171875 6.21875 
Q 5.515625 13.875 5.515625 27.296875 
Q 5.515625 40.765625 12.171875 48.375 
Q 18.84375 56 30.609375 56 
z
" id="DejaVuSans-111"/>
     <path d="M 54.890625 33.015625 
L 54.890625 0 
L 45.90625 0 
L 45.90625 32.71875 
Q 45.90625 40.484375 42.875 44.328125 
Q 39.84375 48.1875 33.796875 48.1875 
Q 26.515625 48.1875 22.3125 43.546875 
Q 18.109375 38.921875 18.109375 30.90625 
L 18.109375 0 
L 9.078125 0 
L 9.078125 54.6875 
L 18.109375 54.6875 
L 18.109375 46.1875 
Q 21.34375 51.125 25.703125 53.5625 
Q 30.078125 56 35.796875 56 
Q 45.21875 56 50.046875 50.171875 
Q 54.890625 44.34375 54.890625 33.015625 
z
" id="DejaVuSans-110"/>
     <path d="M 18.109375 8.203125 
L 18.109375 -20.796875 
L 9.078125 -20.796875 
L 9.078125 54.6875 
L 18.109375 54.6875 
L 18.109375 46.390625 
Q 20.953125 51.265625 25.265625 53.625 
Q 29.59375 56 35.59375 56 
Q 45.5625 56 51.78125 48.09375 
Q 58.015625 40.1875 58.015625 27.296875 
Q 58.015625 14.40625 51.78125 6.484375 
Q 45.5625 -1.421875 35.59375 -1.421875 
Q 29.59375 -1.421875 25.265625 0.953125 
Q 20.953125 3.328125 18.109375 8.203125 
z
M 48.6875 27.296875 
Q 48.6875 37.203125 44.609375 42.84375 
Q 40.53125 48.484375 33.40625 48.484375 
Q 26.265625 48.484375 22.1875 42.84375 
Q 18.109375 37.203125 18.109375 27.296875 
Q 18.109375 17.390625 22.1875 11.75 
Q 26.265625 6.109375 33.40625 6.109375 
Q 40.53125 6.109375 44.609375 11.75 
Q 48.6875 17.390625 48.6875 27.296875 
z
" id="DejaVuSans-112"/>
     <path d="M 41.109375 46.296875 
Q 39.59375 47.171875 37.8125 47.578125 
Q 36.03125 48 33.890625 48 
Q 26.265625 48 22.1875 43.046875 
Q 18.109375 38.09375 18.109375 28.8125 
L 18.109375 0 
L 9.078125 0 
L 9.078125 54.6875 
L 18.109375 54.6875 
L 18.109375 46.1875 
Q 20.953125 51.171875 25.484375 53.578125 
Q 30.03125 56 36.53125 56 
Q 37.453125 56 38.578125 55.875 
Q 39.703125 55.765625 41.0625 55.515625 
z
" id="DejaVuSans-114"/>
     <path d="M 9.8125 72.90625 
L 24.515625 72.90625 
L 43.109375 23.296875 
L 61.8125 72.90625 
L 76.515625 72.90625 
L 76.515625 0 
L 66.890625 0 
L 66.890625 64.015625 
L 48.09375 14.015625 
L 38.1875 14.015625 
L 19.390625 64.015625 
L 19.390625 0 
L 9.8125 0 
z
" id="DejaVuSans-77"/>
     <path d="M 9.421875 75.984375 
L 18.40625 75.984375 
L 18.40625 0 
L 9.421875 0 
z
" id="DejaVuSans-108"/>
     <path d="M 31 75.875 
Q 24.46875 64.65625 21.28125 53.65625 
Q 18.109375 42.671875 18.109375 31.390625 
Q 18.109375 20.125 21.3125 9.0625 
Q 24.515625 -2 31 -13.1875 
L 23.1875 -13.1875 
Q 15.875 -1.703125 12.234375 9.375 
Q 8.59375 20.453125 8.59375 31.390625 
Q 8.59375 42.28125 12.203125 53.3125 
Q 15.828125 64.359375 23.1875 75.875 
z
" id="DejaVuSans-40"/>
     <path d="M 32.171875 -5.078125 
Q 28.375 -14.84375 24.75 -17.8125 
Q 21.140625 -20.796875 15.09375 -20.796875 
L 7.90625 -20.796875 
L 7.90625 -13.28125 
L 13.1875 -13.28125 
Q 16.890625 -13.28125 18.9375 -11.515625 
Q 21 -9.765625 23.484375 -3.21875 
L 25.09375 0.875 
L 2.984375 54.6875 
L 12.5 54.6875 
L 29.59375 11.921875 
L 46.6875 54.6875 
L 56.203125 54.6875 
z
" id="DejaVuSans-121"/>
     <path d="M 45.40625 27.984375 
Q 45.40625 37.75 41.375 43.109375 
Q 37.359375 48.484375 30.078125 48.484375 
Q 22.859375 48.484375 18.828125 43.109375 
Q 14.796875 37.75 14.796875 27.984375 
Q 14.796875 18.265625 18.828125 12.890625 
Q 22.859375 7.515625 30.078125 7.515625 
Q 37.359375 7.515625 41.375 12.890625 
Q 45.40625 18.265625 45.40625 27.984375 
z
M 54.390625 6.78125 
Q 54.390625 -7.171875 48.1875 -13.984375 
Q 42 -20.796875 29.203125 -20.796875 
Q 24.46875 -20.796875 20.265625 -20.09375 
Q 16.0625 -19.390625 12.109375 -17.921875 
L 12.109375 -9.1875 
Q 16.0625 -11.328125 19.921875 -12.34375 
Q 23.78125 -13.375 27.78125 -13.375 
Q 36.625 -13.375 41.015625 -8.765625 
Q 45.40625 -4.15625 45.40625 5.171875 
L 45.40625 9.625 
Q 42.625 4.78125 38.28125 2.390625 
Q 33.9375 0 27.875 0 
Q 17.828125 0 11.671875 7.65625 
Q 5.515625 15.328125 5.515625 27.984375 
Q 5.515625 40.671875 11.671875 48.328125 
Q 17.828125 56 27.875 56 
Q 33.9375 56 38.28125 53.609375 
Q 42.625 51.21875 45.40625 46.390625 
L 45.40625 54.6875 
L 54.390625 54.6875 
z
" id="DejaVuSans-103"/>
     <path d="M 8.015625 75.875 
L 15.828125 75.875 
Q 23.140625 64.359375 26.78125 53.3125 
Q 30.421875 42.28125 30.421875 31.390625 
Q 30.421875 20.453125 26.78125 9.375 
Q 23.140625 -1.703125 15.828125 -13.1875 
L 8.015625 -13.1875 
Q 14.5 -2 17.703125 9.0625 
Q 20.90625 20.125 20.90625 31.390625 
Q 20.90625 42.671875 17.703125 53.65625 
Q 14.5 64.65625 8.015625 75.875 
z
" id="DejaVuSans-41"/>
    </defs>
    <g transform="translate(169.719375 41.52)scale(0.12 -0.12)">
     <use xlink:href="#DejaVuSans-78"/>
     <use x="74.804688" xlink:href="#DejaVuSans-101"/>
     <use x="136.328125" xlink:href="#DejaVuSans-119"/>
     <use x="218.115234" xlink:href="#DejaVuSans-32"/>
     <use x="249.902344" xlink:href="#DejaVuSans-97"/>
     <use x="311.181641" xlink:href="#DejaVuSans-100"/>
     <use x="374.658203" xlink:href="#DejaVuSans-109"/>
     <use x="472.070312" xlink:href="#DejaVuSans-105"/>
     <use x="499.853516" xlink:href="#DejaVuSans-115"/>
     <use x="551.953125" xlink:href="#DejaVuSans-115"/>
     <use x="604.052734" xlink:href="#DejaVuSans-105"/>
     <use x="631.835938" xlink:href="#DejaVuSans-111"/>
     <use x="693.017578" xlink:href="#DejaVuSans-110"/>
     <use x="756.396484" xlink:href="#DejaVuSans-115"/>
     <use x="808.496094" xlink:href="#DejaVuSans-32"/>
     <use x="840.283203" xlink:href="#DejaVuSans-112"/>
     <use x="903.759766" xlink:href="#DejaVuSans-101"/>
     <use x="965.283203" xlink:href="#DejaVuSans-114"/>
     <use x="1006.396484" xlink:href="#DejaVuSans-32"/>
     <use x="1038.183594" xlink:href="#DejaVuSans-77"/>
     <use x="1124.462891" xlink:href="#DejaVuSans-105"/>
     <use x="1152.246094" xlink:href="#DejaVuSans-108"/>
     <use x="1180.029297" xlink:href="#DejaVuSans-108"/>
     <use x="1207.8125" xlink:href="#DejaVuSans-105"/>
     <use x="1235.595703" xlink:href="#DejaVuSans-111"/>
     <use x="1296.777344" xlink:href="#DejaVuSans-110"/>
     <use x="1360.15625" xlink:href="#DejaVuSans-32"/>
     <use x="1391.943359" xlink:href="#DejaVuSans-40"/>
     <use x="1430.957031" xlink:href="#DejaVuSans-55"/>
     <use x="1494.580078" xlink:href="#DejaVuSans-32"/>
     <use x="1526.367188" xlink:href="#DejaVuSans-100"/>
     <use x="1589.84375" xlink:href="#DejaVuSans-97"/>
     <use x="1651.123047" xlink:href="#DejaVuSans-121"/>
     <use x="1710.302734" xlink:href="#DejaVuSans-32"/>
     <use x="1742.089844" xlink:href="#DejaVuSans-114"/>
     <use x="1780.953125" xlink:href="#DejaVuSans-111"/>
     <use x="1842.134766" xlink:href="#DejaVuSans-108"/>
     <use x="1869.917969" xlink:href="#DejaVuSans-108"/>
     <use x="1897.701172" xlink:href="#DejaVuSans-105"/>
     <use x="1925.484375" xlink:href="#DejaVuSans-110"/>
     <use x="1988.863281" xlink:href="#DejaVuSans-103"/>
     <use x="2052.339844" xlink:href="#DejaVuSans-41"/>
    </g>
   </g>
   <g id="legend_1">
    <g id="patch_7">
     <path d="M 376.232812 114.2325 
L 511.4 114.2325 
Q 513.4 114.2325 513.4 112.2325 
L 513.4 54.52 
Q 513.4 52.52 511.4 52.52 
L 376.232812 52.52 
Q 374.232812 52.52 374.232812 54.52 
L 374.232812 112.2325 
Q 374.232812 114.2325 376.232812 114.2325 
z
" style="fill:#ffffff;opacity:0.8;stroke:#cccccc;stroke-linejoin:miter;stroke-width:0.3;"/>
    </g>
    <g id="line2d_21">
     <path d="M 378.232812 60.618437 
L 398.232812 60.618437 
" style="fill:none;stroke:#1f77b4;stroke-linecap:square;stroke-width:1.75;"/>
    </g>
    <g id="line2d_22"/>
    <g id="text_19">
     <!-- ENGLAND -->
     <defs>
      <path d="M 9.8125 72.90625 
L 55.90625 72.90625 
L 55.90625 64.59375 
L 19.671875 64.59375 
L 19.671875 43.015625 
L 54.390625 43.015625 
L 54.390625 34.71875 
L 19.671875 34.71875 
L 19.671875 8.296875 
L 56.78125 8.296875 
L 56.78125 0 
L 9.8125 0 
z
" id="DejaVuSans-69"/>
      <path d="M 59.515625 10.40625 
L 59.515625 29.984375 
L 43.40625 29.984375 
L 43.40625 38.09375 
L 69.28125 38.09375 
L 69.28125 6.78125 
Q 63.578125 2.734375 56.6875 0.65625 
Q 49.8125 -1.421875 42 -1.421875 
Q 24.90625 -1.421875 15.25 8.5625 
Q 5.609375 18.5625 5.609375 36.375 
Q 5.609375 54.25 15.25 64.234375 
Q 24.90625 74.21875 42 74.21875 
Q 49.125 74.21875 55.546875 72.453125 
Q 61.96875 70.703125 67.390625 67.28125 
L 67.390625 56.78125 
Q 61.921875 61.421875 55.765625 63.765625 
Q 49.609375 66.109375 42.828125 66.109375 
Q 29.4375 66.109375 22.71875 58.640625 
Q 16.015625 51.171875 16.015625 36.375 
Q 16.015625 21.625 22.71875 14.15625 
Q 29.4375 6.6875 42.828125 6.6875 
Q 48.046875 6.6875 52.140625 7.59375 
Q 56.25 8.5 59.515625 10.40625 
z
" id="DejaVuSans-71"/>
      <path d="M 9.8125 72.90625 
L 19.671875 72.90625 
L 19.671875 8.296875 
L 55.171875 8.296875 
L 55.171875 0 
L 9.8125 0 
z
" id="DejaVuSans-76"/>
      <path d="M 34.1875 63.1875 
L 20.796875 26.90625 
L 47.609375 26.90625 
z
M 28.609375 72.90625 
L 39.796875 72.90625 
L 67.578125 0 
L 57.328125 0 
L 50.6875 18.703125 
L 17.828125 18.703125 
L 11.1875 0 
L 0.78125 0 
z
" id="DejaVuSans-65"/>
     </defs>
     <g transform="translate(406.232812 64.118437)scale(0.1 -0.1)">
      <use xlink:href="#DejaVuSans-69"/>
      <use x="63.183594" xlink:href="#DejaVuSans-78"/>
      <use x="137.988281" xlink:href="#DejaVuSans-71"/>
      <use x="215.478516" xlink:href="#DejaVuSans-76"/>
      <use x="273.441406" xlink:href="#DejaVuSans-65"/>
      <use x="341.849609" xlink:href="#DejaVuSans-78"/>
      <use x="416.654297" xlink:href="#DejaVuSans-68"/>
     </g>
    </g>
    <g id="line2d_23">
     <path d="M 378.232812 75.296562 
L 398.232812 75.296562 
" style="fill:none;stroke:#ff7f0e;stroke-linecap:square;stroke-width:1.75;"/>
    </g>
    <g id="line2d_24"/>
    <g id="text_20">
     <!-- SCOTLAND -->
     <defs>
      <path d="M 53.515625 70.515625 
L 53.515625 60.890625 
Q 47.90625 63.578125 42.921875 64.890625 
Q 37.9375 66.21875 33.296875 66.21875 
Q 25.25 66.21875 20.875 63.09375 
Q 16.5 59.96875 16.5 54.203125 
Q 16.5 49.359375 19.40625 46.890625 
Q 22.3125 44.4375 30.421875 42.921875 
L 36.375 41.703125 
Q 47.40625 39.59375 52.65625 34.296875 
Q 57.90625 29 57.90625 20.125 
Q 57.90625 9.515625 50.796875 4.046875 
Q 43.703125 -1.421875 29.984375 -1.421875 
Q 24.8125 -1.421875 18.96875 -0.25 
Q 13.140625 0.921875 6.890625 3.21875 
L 6.890625 13.375 
Q 12.890625 10.015625 18.65625 8.296875 
Q 24.421875 6.59375 29.984375 6.59375 
Q 38.421875 6.59375 43.015625 9.90625 
Q 47.609375 13.234375 47.609375 19.390625 
Q 47.609375 24.75 44.3125 27.78125 
Q 41.015625 30.8125 33.5 32.328125 
L 27.484375 33.5 
Q 16.453125 35.6875 11.515625 40.375 
Q 6.59375 45.0625 6.59375 53.421875 
Q 6.59375 63.09375 13.40625 68.65625 
Q 20.21875 74.21875 32.171875 74.21875 
Q 37.3125 74.21875 42.625 73.28125 
Q 47.953125 72.359375 53.515625 70.515625 
z
" id="DejaVuSans-83"/>
      <path d="M 64.40625 67.28125 
L 64.40625 56.890625 
Q 59.421875 61.53125 53.78125 63.8125 
Q 48.140625 66.109375 41.796875 66.109375 
Q 29.296875 66.109375 22.65625 58.46875 
Q 16.015625 50.828125 16.015625 36.375 
Q 16.015625 21.96875 22.65625 14.328125 
Q 29.296875 6.6875 41.796875 6.6875 
Q 48.140625 6.6875 53.78125 8.984375 
Q 59.421875 11.28125 64.40625 15.921875 
L 64.40625 5.609375 
Q 59.234375 2.09375 53.4375 0.328125 
Q 47.65625 -1.421875 41.21875 -1.421875 
Q 24.65625 -1.421875 15.125 8.703125 
Q 5.609375 18.84375 5.609375 36.375 
Q 5.609375 53.953125 15.125 64.078125 
Q 24.65625 74.21875 41.21875 74.21875 
Q 47.75 74.21875 53.53125 72.484375 
Q 59.328125 70.75 64.40625 67.28125 
z
" id="DejaVuSans-67"/>
      <path d="M 39.40625 66.21875 
Q 28.65625 66.21875 22.328125 58.203125 
Q 16.015625 50.203125 16.015625 36.375 
Q 16.015625 22.609375 22.328125 14.59375 
Q 28.65625 6.59375 39.40625 6.59375 
Q 50.140625 6.59375 56.421875 14.59375 
Q 62.703125 22.609375 62.703125 36.375 
Q 62.703125 50.203125 56.421875 58.203125 
Q 50.140625 66.21875 39.40625 66.21875 
z
M 39.40625 74.21875 
Q 54.734375 74.21875 63.90625 63.9375 
Q 73.09375 53.65625 73.09375 36.375 
Q 73.09375 19.140625 63.90625 8.859375 
Q 54.734375 -1.421875 39.40625 -1.421875 
Q 24.03125 -1.421875 14.8125 8.828125 
Q 5.609375 19.09375 5.609375 36.375 
Q 5.609375 53.65625 14.8125 63.9375 
Q 24.03125 74.21875 39.40625 74.21875 
z
" id="DejaVuSans-79"/>
      <path d="M -0.296875 72.90625 
L 61.375 72.90625 
L 61.375 64.59375 
L 35.5 64.59375 
L 35.5 0 
L 25.59375 0 
L 25.59375 64.59375 
L -0.296875 64.59375 
z
" id="DejaVuSans-84"/>
     </defs>
     <g transform="translate(406.232812 78.796562)scale(0.1 -0.1)">
      <use xlink:href="#DejaVuSans-83"/>
      <use x="63.476562" xlink:href="#DejaVuSans-67"/>
      <use x="133.300781" xlink:href="#DejaVuSans-79"/>
      <use x="212.011719" xlink:href="#DejaVuSans-84"/>
      <use x="273.095703" xlink:href="#DejaVuSans-76"/>
      <use x="331.058594" xlink:href="#DejaVuSans-65"/>
      <use x="399.466797" xlink:href="#DejaVuSans-78"/>
      <use x="474.271484" xlink:href="#DejaVuSans-68"/>
     </g>
    </g>
    <g id="line2d_25">
     <path d="M 378.232812 89.974687 
L 398.232812 89.974687 
" style="fill:none;stroke:#2ca02c;stroke-linecap:square;stroke-width:1.75;"/>
    </g>
    <g id="line2d_26"/>
    <g id="text_21">
     <!-- WALES -->
     <defs>
      <path d="M 3.328125 72.90625 
L 13.28125 72.90625 
L 28.609375 11.28125 
L 43.890625 72.90625 
L 54.984375 72.90625 
L 70.3125 11.28125 
L 85.59375 72.90625 
L 95.609375 72.90625 
L 77.296875 0 
L 64.890625 0 
L 49.515625 63.28125 
L 33.984375 0 
L 21.578125 0 
z
" id="DejaVuSans-87"/>
     </defs>
     <g transform="translate(406.232812 93.474687)scale(0.1 -0.1)">
      <use xlink:href="#DejaVuSans-87"/>
      <use x="93.376953" xlink:href="#DejaVuSans-65"/>
      <use x="161.785156" xlink:href="#DejaVuSans-76"/>
      <use x="217.498047" xlink:href="#DejaVuSans-69"/>
      <use x="280.681641" xlink:href="#DejaVuSans-83"/>
     </g>
    </g>
    <g id="line2d_27">
     <path d="M 378.232812 104.652812 
L 398.232812 104.652812 
" style="fill:none;stroke:#d62728;stroke-linecap:square;stroke-width:1.75;"/>
    </g>
    <g id="line2d_28"/>
    <g id="text_22">
     <!-- NORTHERN IRELAND -->
     <defs>
      <path d="M 44.390625 34.1875 
Q 47.5625 33.109375 50.5625 29.59375 
Q 53.5625 26.078125 56.59375 19.921875 
L 66.609375 0 
L 56 0 
L 46.6875 18.703125 
Q 43.0625 26.03125 39.671875 28.421875 
Q 36.28125 30.8125 30.421875 30.8125 
L 19.671875 30.8125 
L 19.671875 0 
L 9.8125 0 
L 9.8125 72.90625 
L 32.078125 72.90625 
Q 44.578125 72.90625 50.734375 67.671875 
Q 56.890625 62.453125 56.890625 51.90625 
Q 56.890625 45.015625 53.6875 40.46875 
Q 50.484375 35.9375 44.390625 34.1875 
z
M 19.671875 64.796875 
L 19.671875 38.921875 
L 32.078125 38.921875 
Q 39.203125 38.921875 42.84375 42.21875 
Q 46.484375 45.515625 46.484375 51.90625 
Q 46.484375 58.296875 42.84375 61.546875 
Q 39.203125 64.796875 32.078125 64.796875 
z
" id="DejaVuSans-82"/>
      <path d="M 9.8125 72.90625 
L 19.671875 72.90625 
L 19.671875 43.015625 
L 55.515625 43.015625 
L 55.515625 72.90625 
L 65.375 72.90625 
L 65.375 0 
L 55.515625 0 
L 55.515625 34.71875 
L 19.671875 34.71875 
L 19.671875 0 
L 9.8125 0 
z
" id="DejaVuSans-72"/>
      <path d="M 9.8125 72.90625 
L 19.671875 72.90625 
L 19.671875 0 
L 9.8125 0 
z
" id="DejaVuSans-73"/>
     </defs>
     <g transform="translate(406.232812 108.152812)scale(0.1 -0.1)">
      <use xlink:href="#DejaVuSans-78"/>
      <use x="74.804688" xlink:href="#DejaVuSans-79"/>
      <use x="153.515625" xlink:href="#DejaVuSans-82"/>
      <use x="215.748047" xlink:href="#DejaVuSans-84"/>
      <use x="276.832031" xlink:href="#DejaVuSans-72"/>
      <use x="352.027344" xlink:href="#DejaVuSans-69"/>
      <use x="415.210938" xlink:href="#DejaVuSans-82"/>
      <use x="484.693359" xlink:href="#DejaVuSans-78"/>
      <use x="559.498047" xlink:href="#DejaVuSans-32"/>
      <use x="591.285156" xlink:href="#DejaVuSans-73"/>
      <use x="620.777344" xlink:href="#DejaVuSans-82"/>
      <use x="690.259766" xlink:href="#DejaVuSans-69"/>
      <use x="753.443359" xlink:href="#DejaVuSans-76"/>
      <use x="811.40625" xlink:href="#DejaVuSans-65"/>
      <use x="879.814453" xlink:href="#DejaVuSans-78"/>
      <use x="954.619141" xlink:href="#DejaVuSans-68"/>
     </g>
    </g>
   </g>
  </g>
 </g>
 <defs>
  <clipPath id="p8008229cb9">
   <rect height="298.98" width="446.4" x="72" y="47.52"/>
  </clipPath>
 </defs>
</svg>
