<?xml version="1.0" encoding="utf-8" standalone="no"?>
<!DOCTYPE svg PUBLIC "-//W3C//DTD SVG 1.1//EN"
  "http://www.w3.org/Graphics/SVG/1.1/DTD/svg11.dtd">
<!-- Created with matplotlib (https://matplotlib.org/) -->
<svg height="288pt" version="1.1" viewBox="0 0 432 288" width="432pt" xmlns="http://www.w3.org/2000/svg" xmlns:xlink="http://www.w3.org/1999/xlink">
 <metadata>
  <rdf:RDF xmlns:cc="http://creativecommons.org/ns#" xmlns:dc="http://purl.org/dc/elements/1.1/" xmlns:rdf="http://www.w3.org/1999/02/22-rdf-syntax-ns#">
   <cc:Work>
    <dc:type rdf:resource="http://purl.org/dc/dcmitype/StillImage"/>
    <dc:date>2021-01-05T14:22:24.519796</dc:date>
    <dc:format>image/svg+xml</dc:format>
    <dc:creator>
     <cc:Agent>
      <dc:title>Matplotlib v3.3.2, https://matplotlib.org/</dc:title>
     </cc:Agent>
    </dc:creator>
   </cc:Work>
  </rdf:RDF>
 </metadata>
 <defs>
  <style type="text/css">*{stroke-linecap:butt;stroke-linejoin:round;}</style>
 </defs>
 <g id="figure_1">
  <g id="patch_1">
   <path d="M 0 288 
L 432 288 
L 432 0 
L 0 0 
z
" style="fill:none;"/>
  </g>
  <g id="axes_1">
   <g id="patch_2">
    <path d="M 57.3 226.602246 
L 421.2 226.602246 
L 421.2 26.8 
L 57.3 26.8 
z
" style="fill:#ffffff;"/>
   </g>
   <g id="matplotlib.axis_1">
    <g id="xtick_1">
     <g id="line2d_1">
      <defs>
       <path d="M 0 0 
L 0 3.5 
" id="m0bb66b9915" style="stroke:#000000;stroke-width:0.8;"/>
      </defs>
      <g>
       <use style="stroke:#000000;stroke-width:0.8;" x="72.038085" xlink:href="#m0bb66b9915" y="226.602246"/>
      </g>
     </g>
     <g id="text_1">
      <!-- 2020-01 -->
      <g transform="translate(34.813264 261.074092)rotate(-30)scale(0.1 -0.1)">
       <defs>
        <path d="M 19.1875 8.296875 
L 53.609375 8.296875 
L 53.609375 0 
L 7.328125 0 
L 7.328125 8.296875 
Q 12.9375 14.109375 22.625 23.890625 
Q 32.328125 33.6875 34.8125 36.53125 
Q 39.546875 41.84375 41.421875 45.53125 
Q 43.3125 49.21875 43.3125 52.78125 
Q 43.3125 58.59375 39.234375 62.25 
Q 35.15625 65.921875 28.609375 65.921875 
Q 23.96875 65.921875 18.8125 64.3125 
Q 13.671875 62.703125 7.8125 59.421875 
L 7.8125 69.390625 
Q 13.765625 71.78125 18.9375 73 
Q 24.125 74.21875 28.421875 74.21875 
Q 39.75 74.21875 46.484375 68.546875 
Q 53.21875 62.890625 53.21875 53.421875 
Q 53.21875 48.921875 51.53125 44.890625 
Q 49.859375 40.875 45.40625 35.40625 
Q 44.1875 33.984375 37.640625 27.21875 
Q 31.109375 20.453125 19.1875 8.296875 
z
" id="DejaVuSans-50"/>
        <path d="M 31.78125 66.40625 
Q 24.171875 66.40625 20.328125 58.90625 
Q 16.5 51.421875 16.5 36.375 
Q 16.5 21.390625 20.328125 13.890625 
Q 24.171875 6.390625 31.78125 6.390625 
Q 39.453125 6.390625 43.28125 13.890625 
Q 47.125 21.390625 47.125 36.375 
Q 47.125 51.421875 43.28125 58.90625 
Q 39.453125 66.40625 31.78125 66.40625 
z
M 31.78125 74.21875 
Q 44.046875 74.21875 50.515625 64.515625 
Q 56.984375 54.828125 56.984375 36.375 
Q 56.984375 17.96875 50.515625 8.265625 
Q 44.046875 -1.421875 31.78125 -1.421875 
Q 19.53125 -1.421875 13.0625 8.265625 
Q 6.59375 17.96875 6.59375 36.375 
Q 6.59375 54.828125 13.0625 64.515625 
Q 19.53125 74.21875 31.78125 74.21875 
z
" id="DejaVuSans-48"/>
        <path d="M 4.890625 31.390625 
L 31.203125 31.390625 
L 31.203125 23.390625 
L 4.890625 23.390625 
z
" id="DejaVuSans-45"/>
        <path d="M 12.40625 8.296875 
L 28.515625 8.296875 
L 28.515625 63.921875 
L 10.984375 60.40625 
L 10.984375 69.390625 
L 28.421875 72.90625 
L 38.28125 72.90625 
L 38.28125 8.296875 
L 54.390625 8.296875 
L 54.390625 0 
L 12.40625 0 
z
" id="DejaVuSans-49"/>
       </defs>
       <use xlink:href="#DejaVuSans-50"/>
       <use x="63.623047" xlink:href="#DejaVuSans-48"/>
       <use x="127.246094" xlink:href="#DejaVuSans-50"/>
       <use x="190.869141" xlink:href="#DejaVuSans-48"/>
       <use x="254.492188" xlink:href="#DejaVuSans-45"/>
       <use x="290.576172" xlink:href="#DejaVuSans-48"/>
       <use x="354.199219" xlink:href="#DejaVuSans-49"/>
      </g>
     </g>
    </g>
    <g id="xtick_2">
     <g id="line2d_2">
      <g>
       <use style="stroke:#000000;stroke-width:0.8;" x="126.122802" xlink:href="#m0bb66b9915" y="226.602246"/>
      </g>
     </g>
     <g id="text_2">
      <!-- 2020-03 -->
      <g transform="translate(88.897981 261.074092)rotate(-30)scale(0.1 -0.1)">
       <defs>
        <path d="M 40.578125 39.3125 
Q 47.65625 37.796875 51.625 33 
Q 55.609375 28.21875 55.609375 21.1875 
Q 55.609375 10.40625 48.1875 4.484375 
Q 40.765625 -1.421875 27.09375 -1.421875 
Q 22.515625 -1.421875 17.65625 -0.515625 
Q 12.796875 0.390625 7.625 2.203125 
L 7.625 11.71875 
Q 11.71875 9.328125 16.59375 8.109375 
Q 21.484375 6.890625 26.8125 6.890625 
Q 36.078125 6.890625 40.9375 10.546875 
Q 45.796875 14.203125 45.796875 21.1875 
Q 45.796875 27.640625 41.28125 31.265625 
Q 36.765625 34.90625 28.71875 34.90625 
L 20.21875 34.90625 
L 20.21875 43.015625 
L 29.109375 43.015625 
Q 36.375 43.015625 40.234375 45.921875 
Q 44.09375 48.828125 44.09375 54.296875 
Q 44.09375 59.90625 40.109375 62.90625 
Q 36.140625 65.921875 28.71875 65.921875 
Q 24.65625 65.921875 20.015625 65.03125 
Q 15.375 64.15625 9.8125 62.3125 
L 9.8125 71.09375 
Q 15.4375 72.65625 20.34375 73.4375 
Q 25.25 74.21875 29.59375 74.21875 
Q 40.828125 74.21875 47.359375 69.109375 
Q 53.90625 64.015625 53.90625 55.328125 
Q 53.90625 49.265625 50.4375 45.09375 
Q 46.96875 40.921875 40.578125 39.3125 
z
" id="DejaVuSans-51"/>
       </defs>
       <use xlink:href="#DejaVuSans-50"/>
       <use x="63.623047" xlink:href="#DejaVuSans-48"/>
       <use x="127.246094" xlink:href="#DejaVuSans-50"/>
       <use x="190.869141" xlink:href="#DejaVuSans-48"/>
       <use x="254.492188" xlink:href="#DejaVuSans-45"/>
       <use x="290.576172" xlink:href="#DejaVuSans-48"/>
       <use x="354.199219" xlink:href="#DejaVuSans-51"/>
      </g>
     </g>
    </g>
    <g id="xtick_3">
     <g id="line2d_3">
      <g>
       <use style="stroke:#000000;stroke-width:0.8;" x="181.10893" xlink:href="#m0bb66b9915" y="226.602246"/>
      </g>
     </g>
     <g id="text_3">
      <!-- 2020-05 -->
      <g transform="translate(143.884109 261.074092)rotate(-30)scale(0.1 -0.1)">
       <defs>
        <path d="M 10.796875 72.90625 
L 49.515625 72.90625 
L 49.515625 64.59375 
L 19.828125 64.59375 
L 19.828125 46.734375 
Q 21.96875 47.46875 24.109375 47.828125 
Q 26.265625 48.1875 28.421875 48.1875 
Q 40.625 48.1875 47.75 41.5 
Q 54.890625 34.8125 54.890625 23.390625 
Q 54.890625 11.625 47.5625 5.09375 
Q 40.234375 -1.421875 26.90625 -1.421875 
Q 22.3125 -1.421875 17.546875 -0.640625 
Q 12.796875 0.140625 7.71875 1.703125 
L 7.71875 11.625 
Q 12.109375 9.234375 16.796875 8.0625 
Q 21.484375 6.890625 26.703125 6.890625 
Q 35.15625 6.890625 40.078125 11.328125 
Q 45.015625 15.765625 45.015625 23.390625 
Q 45.015625 31 40.078125 35.4375 
Q 35.15625 39.890625 26.703125 39.890625 
Q 22.75 39.890625 18.8125 39.015625 
Q 14.890625 38.140625 10.796875 36.28125 
z
" id="DejaVuSans-53"/>
       </defs>
       <use xlink:href="#DejaVuSans-50"/>
       <use x="63.623047" xlink:href="#DejaVuSans-48"/>
       <use x="127.246094" xlink:href="#DejaVuSans-50"/>
       <use x="190.869141" xlink:href="#DejaVuSans-48"/>
       <use x="254.492188" xlink:href="#DejaVuSans-45"/>
       <use x="290.576172" xlink:href="#DejaVuSans-48"/>
       <use x="354.199219" xlink:href="#DejaVuSans-53"/>
      </g>
     </g>
    </g>
    <g id="xtick_4">
     <g id="line2d_4">
      <g>
       <use style="stroke:#000000;stroke-width:0.8;" x="236.095058" xlink:href="#m0bb66b9915" y="226.602246"/>
      </g>
     </g>
     <g id="text_4">
      <!-- 2020-07 -->
      <g transform="translate(198.870237 261.074092)rotate(-30)scale(0.1 -0.1)">
       <defs>
        <path d="M 8.203125 72.90625 
L 55.078125 72.90625 
L 55.078125 68.703125 
L 28.609375 0 
L 18.3125 0 
L 43.21875 64.59375 
L 8.203125 64.59375 
z
" id="DejaVuSans-55"/>
       </defs>
       <use xlink:href="#DejaVuSans-50"/>
       <use x="63.623047" xlink:href="#DejaVuSans-48"/>
       <use x="127.246094" xlink:href="#DejaVuSans-50"/>
       <use x="190.869141" xlink:href="#DejaVuSans-48"/>
       <use x="254.492188" xlink:href="#DejaVuSans-45"/>
       <use x="290.576172" xlink:href="#DejaVuSans-48"/>
       <use x="354.199219" xlink:href="#DejaVuSans-55"/>
      </g>
     </g>
    </g>
    <g id="xtick_5">
     <g id="line2d_5">
      <g>
       <use style="stroke:#000000;stroke-width:0.8;" x="291.982598" xlink:href="#m0bb66b9915" y="226.602246"/>
      </g>
     </g>
     <g id="text_5">
      <!-- 2020-09 -->
      <g transform="translate(254.757778 261.074092)rotate(-30)scale(0.1 -0.1)">
       <defs>
        <path d="M 10.984375 1.515625 
L 10.984375 10.5 
Q 14.703125 8.734375 18.5 7.8125 
Q 22.3125 6.890625 25.984375 6.890625 
Q 35.75 6.890625 40.890625 13.453125 
Q 46.046875 20.015625 46.78125 33.40625 
Q 43.953125 29.203125 39.59375 26.953125 
Q 35.25 24.703125 29.984375 24.703125 
Q 19.046875 24.703125 12.671875 31.3125 
Q 6.296875 37.9375 6.296875 49.421875 
Q 6.296875 60.640625 12.9375 67.421875 
Q 19.578125 74.21875 30.609375 74.21875 
Q 43.265625 74.21875 49.921875 64.515625 
Q 56.59375 54.828125 56.59375 36.375 
Q 56.59375 19.140625 48.40625 8.859375 
Q 40.234375 -1.421875 26.421875 -1.421875 
Q 22.703125 -1.421875 18.890625 -0.6875 
Q 15.09375 0.046875 10.984375 1.515625 
z
M 30.609375 32.421875 
Q 37.25 32.421875 41.125 36.953125 
Q 45.015625 41.5 45.015625 49.421875 
Q 45.015625 57.28125 41.125 61.84375 
Q 37.25 66.40625 30.609375 66.40625 
Q 23.96875 66.40625 20.09375 61.84375 
Q 16.21875 57.28125 16.21875 49.421875 
Q 16.21875 41.5 20.09375 36.953125 
Q 23.96875 32.421875 30.609375 32.421875 
z
" id="DejaVuSans-57"/>
       </defs>
       <use xlink:href="#DejaVuSans-50"/>
       <use x="63.623047" xlink:href="#DejaVuSans-48"/>
       <use x="127.246094" xlink:href="#DejaVuSans-50"/>
       <use x="190.869141" xlink:href="#DejaVuSans-48"/>
       <use x="254.492188" xlink:href="#DejaVuSans-45"/>
       <use x="290.576172" xlink:href="#DejaVuSans-48"/>
       <use x="354.199219" xlink:href="#DejaVuSans-57"/>
      </g>
     </g>
    </g>
    <g id="xtick_6">
     <g id="line2d_6">
      <g>
       <use style="stroke:#000000;stroke-width:0.8;" x="346.968727" xlink:href="#m0bb66b9915" y="226.602246"/>
      </g>
     </g>
     <g id="text_6">
      <!-- 2020-11 -->
      <g transform="translate(309.743906 261.074092)rotate(-30)scale(0.1 -0.1)">
       <use xlink:href="#DejaVuSans-50"/>
       <use x="63.623047" xlink:href="#DejaVuSans-48"/>
       <use x="127.246094" xlink:href="#DejaVuSans-50"/>
       <use x="190.869141" xlink:href="#DejaVuSans-48"/>
       <use x="254.492188" xlink:href="#DejaVuSans-45"/>
       <use x="290.576172" xlink:href="#DejaVuSans-49"/>
       <use x="354.199219" xlink:href="#DejaVuSans-49"/>
      </g>
     </g>
    </g>
    <g id="xtick_7">
     <g id="line2d_7">
      <g>
       <use style="stroke:#000000;stroke-width:0.8;" x="401.954855" xlink:href="#m0bb66b9915" y="226.602246"/>
      </g>
     </g>
     <g id="text_7">
      <!-- 2021-01 -->
      <g transform="translate(364.730034 261.074092)rotate(-30)scale(0.1 -0.1)">
       <use xlink:href="#DejaVuSans-50"/>
       <use x="63.623047" xlink:href="#DejaVuSans-48"/>
       <use x="127.246094" xlink:href="#DejaVuSans-50"/>
       <use x="190.869141" xlink:href="#DejaVuSans-49"/>
       <use x="254.492188" xlink:href="#DejaVuSans-45"/>
       <use x="290.576172" xlink:href="#DejaVuSans-48"/>
       <use x="354.199219" xlink:href="#DejaVuSans-49"/>
      </g>
     </g>
    </g>
    <g id="text_8">
     <!-- Date -->
     <g transform="translate(227.299219 274.473592)scale(0.1 -0.1)">
      <defs>
       <path d="M 19.671875 64.796875 
L 19.671875 8.109375 
L 31.59375 8.109375 
Q 46.6875 8.109375 53.6875 14.9375 
Q 60.6875 21.78125 60.6875 36.53125 
Q 60.6875 51.171875 53.6875 57.984375 
Q 46.6875 64.796875 31.59375 64.796875 
z
M 9.8125 72.90625 
L 30.078125 72.90625 
Q 51.265625 72.90625 61.171875 64.09375 
Q 71.09375 55.28125 71.09375 36.53125 
Q 71.09375 17.671875 61.125 8.828125 
Q 51.171875 0 30.078125 0 
L 9.8125 0 
z
" id="DejaVuSans-68"/>
       <path d="M 34.28125 27.484375 
Q 23.390625 27.484375 19.1875 25 
Q 14.984375 22.515625 14.984375 16.5 
Q 14.984375 11.71875 18.140625 8.90625 
Q 21.296875 6.109375 26.703125 6.109375 
Q 34.1875 6.109375 38.703125 11.40625 
Q 43.21875 16.703125 43.21875 25.484375 
L 43.21875 27.484375 
z
M 52.203125 31.203125 
L 52.203125 0 
L 43.21875 0 
L 43.21875 8.296875 
Q 40.140625 3.328125 35.546875 0.953125 
Q 30.953125 -1.421875 24.3125 -1.421875 
Q 15.921875 -1.421875 10.953125 3.296875 
Q 6 8.015625 6 15.921875 
Q 6 25.140625 12.171875 29.828125 
Q 18.359375 34.515625 30.609375 34.515625 
L 43.21875 34.515625 
L 43.21875 35.40625 
Q 43.21875 41.609375 39.140625 45 
Q 35.0625 48.390625 27.6875 48.390625 
Q 23 48.390625 18.546875 47.265625 
Q 14.109375 46.140625 10.015625 43.890625 
L 10.015625 52.203125 
Q 14.9375 54.109375 19.578125 55.046875 
Q 24.21875 56 28.609375 56 
Q 40.484375 56 46.34375 49.84375 
Q 52.203125 43.703125 52.203125 31.203125 
z
" id="DejaVuSans-97"/>
       <path d="M 18.3125 70.21875 
L 18.3125 54.6875 
L 36.8125 54.6875 
L 36.8125 47.703125 
L 18.3125 47.703125 
L 18.3125 18.015625 
Q 18.3125 11.328125 20.140625 9.421875 
Q 21.96875 7.515625 27.59375 7.515625 
L 36.8125 7.515625 
L 36.8125 0 
L 27.59375 0 
Q 17.1875 0 13.234375 3.875 
Q 9.28125 7.765625 9.28125 18.015625 
L 9.28125 47.703125 
L 2.6875 47.703125 
L 2.6875 54.6875 
L 9.28125 54.6875 
L 9.28125 70.21875 
z
" id="DejaVuSans-116"/>
       <path d="M 56.203125 29.59375 
L 56.203125 25.203125 
L 14.890625 25.203125 
Q 15.484375 15.921875 20.484375 11.0625 
Q 25.484375 6.203125 34.421875 6.203125 
Q 39.59375 6.203125 44.453125 7.46875 
Q 49.3125 8.734375 54.109375 11.28125 
L 54.109375 2.78125 
Q 49.265625 0.734375 44.1875 -0.34375 
Q 39.109375 -1.421875 33.890625 -1.421875 
Q 20.796875 -1.421875 13.15625 6.1875 
Q 5.515625 13.8125 5.515625 26.8125 
Q 5.515625 40.234375 12.765625 48.109375 
Q 20.015625 56 32.328125 56 
Q 43.359375 56 49.78125 48.890625 
Q 56.203125 41.796875 56.203125 29.59375 
z
M 47.21875 32.234375 
Q 47.125 39.59375 43.09375 43.984375 
Q 39.0625 48.390625 32.421875 48.390625 
Q 24.90625 48.390625 20.390625 44.140625 
Q 15.875 39.890625 15.1875 32.171875 
z
" id="DejaVuSans-101"/>
      </defs>
      <use xlink:href="#DejaVuSans-68"/>
      <use x="77.001953" xlink:href="#DejaVuSans-97"/>
      <use x="138.28125" xlink:href="#DejaVuSans-116"/>
      <use x="177.490234" xlink:href="#DejaVuSans-101"/>
     </g>
    </g>
   </g>
   <g id="matplotlib.axis_2">
    <g id="ytick_1">
     <g id="line2d_8">
      <defs>
       <path d="M 0 0 
L -3.5 0 
" id="m43485a32a5" style="stroke:#000000;stroke-width:0.8;"/>
      </defs>
      <g>
       <use style="stroke:#000000;stroke-width:0.8;" x="57.3" xlink:href="#m43485a32a5" y="217.520326"/>
      </g>
     </g>
     <g id="text_9">
      <!-- 0 -->
      <g transform="translate(43.9375 221.319544)scale(0.1 -0.1)">
       <use xlink:href="#DejaVuSans-48"/>
      </g>
     </g>
    </g>
    <g id="ytick_2">
     <g id="line2d_9">
      <g>
       <use style="stroke:#000000;stroke-width:0.8;" x="57.3" xlink:href="#m43485a32a5" y="188.891242"/>
      </g>
     </g>
     <g id="text_10">
      <!-- 200 -->
      <g transform="translate(31.2125 192.690461)scale(0.1 -0.1)">
       <use xlink:href="#DejaVuSans-50"/>
       <use x="63.623047" xlink:href="#DejaVuSans-48"/>
       <use x="127.246094" xlink:href="#DejaVuSans-48"/>
      </g>
     </g>
    </g>
    <g id="ytick_3">
     <g id="line2d_10">
      <g>
       <use style="stroke:#000000;stroke-width:0.8;" x="57.3" xlink:href="#m43485a32a5" y="160.262159"/>
      </g>
     </g>
     <g id="text_11">
      <!-- 400 -->
      <g transform="translate(31.2125 164.061378)scale(0.1 -0.1)">
       <defs>
        <path d="M 37.796875 64.3125 
L 12.890625 25.390625 
L 37.796875 25.390625 
z
M 35.203125 72.90625 
L 47.609375 72.90625 
L 47.609375 25.390625 
L 58.015625 25.390625 
L 58.015625 17.1875 
L 47.609375 17.1875 
L 47.609375 0 
L 37.796875 0 
L 37.796875 17.1875 
L 4.890625 17.1875 
L 4.890625 26.703125 
z
" id="DejaVuSans-52"/>
       </defs>
       <use xlink:href="#DejaVuSans-52"/>
       <use x="63.623047" xlink:href="#DejaVuSans-48"/>
       <use x="127.246094" xlink:href="#DejaVuSans-48"/>
      </g>
     </g>
    </g>
    <g id="ytick_4">
     <g id="line2d_11">
      <g>
       <use style="stroke:#000000;stroke-width:0.8;" x="57.3" xlink:href="#m43485a32a5" y="131.633076"/>
      </g>
     </g>
     <g id="text_12">
      <!-- 600 -->
      <g transform="translate(31.2125 135.432294)scale(0.1 -0.1)">
       <defs>
        <path d="M 33.015625 40.375 
Q 26.375 40.375 22.484375 35.828125 
Q 18.609375 31.296875 18.609375 23.390625 
Q 18.609375 15.53125 22.484375 10.953125 
Q 26.375 6.390625 33.015625 6.390625 
Q 39.65625 6.390625 43.53125 10.953125 
Q 47.40625 15.53125 47.40625 23.390625 
Q 47.40625 31.296875 43.53125 35.828125 
Q 39.65625 40.375 33.015625 40.375 
z
M 52.59375 71.296875 
L 52.59375 62.3125 
Q 48.875 64.0625 45.09375 64.984375 
Q 41.3125 65.921875 37.59375 65.921875 
Q 27.828125 65.921875 22.671875 59.328125 
Q 17.53125 52.734375 16.796875 39.40625 
Q 19.671875 43.65625 24.015625 45.921875 
Q 28.375 48.1875 33.59375 48.1875 
Q 44.578125 48.1875 50.953125 41.515625 
Q 57.328125 34.859375 57.328125 23.390625 
Q 57.328125 12.15625 50.6875 5.359375 
Q 44.046875 -1.421875 33.015625 -1.421875 
Q 20.359375 -1.421875 13.671875 8.265625 
Q 6.984375 17.96875 6.984375 36.375 
Q 6.984375 53.65625 15.1875 63.9375 
Q 23.390625 74.21875 37.203125 74.21875 
Q 40.921875 74.21875 44.703125 73.484375 
Q 48.484375 72.75 52.59375 71.296875 
z
" id="DejaVuSans-54"/>
       </defs>
       <use xlink:href="#DejaVuSans-54"/>
       <use x="63.623047" xlink:href="#DejaVuSans-48"/>
       <use x="127.246094" xlink:href="#DejaVuSans-48"/>
      </g>
     </g>
    </g>
    <g id="ytick_5">
     <g id="line2d_12">
      <g>
       <use style="stroke:#000000;stroke-width:0.8;" x="57.3" xlink:href="#m43485a32a5" y="103.003992"/>
      </g>
     </g>
     <g id="text_13">
      <!-- 800 -->
      <g transform="translate(31.2125 106.803211)scale(0.1 -0.1)">
       <defs>
        <path d="M 31.78125 34.625 
Q 24.75 34.625 20.71875 30.859375 
Q 16.703125 27.09375 16.703125 20.515625 
Q 16.703125 13.921875 20.71875 10.15625 
Q 24.75 6.390625 31.78125 6.390625 
Q 38.8125 6.390625 42.859375 10.171875 
Q 46.921875 13.96875 46.921875 20.515625 
Q 46.921875 27.09375 42.890625 30.859375 
Q 38.875 34.625 31.78125 34.625 
z
M 21.921875 38.8125 
Q 15.578125 40.375 12.03125 44.71875 
Q 8.5 49.078125 8.5 55.328125 
Q 8.5 64.0625 14.71875 69.140625 
Q 20.953125 74.21875 31.78125 74.21875 
Q 42.671875 74.21875 48.875 69.140625 
Q 55.078125 64.0625 55.078125 55.328125 
Q 55.078125 49.078125 51.53125 44.71875 
Q 48 40.375 41.703125 38.8125 
Q 48.828125 37.15625 52.796875 32.3125 
Q 56.78125 27.484375 56.78125 20.515625 
Q 56.78125 9.90625 50.3125 4.234375 
Q 43.84375 -1.421875 31.78125 -1.421875 
Q 19.734375 -1.421875 13.25 4.234375 
Q 6.78125 9.90625 6.78125 20.515625 
Q 6.78125 27.484375 10.78125 32.3125 
Q 14.796875 37.15625 21.921875 38.8125 
z
M 18.3125 54.390625 
Q 18.3125 48.734375 21.84375 45.5625 
Q 25.390625 42.390625 31.78125 42.390625 
Q 38.140625 42.390625 41.71875 45.5625 
Q 45.3125 48.734375 45.3125 54.390625 
Q 45.3125 60.0625 41.71875 63.234375 
Q 38.140625 66.40625 31.78125 66.40625 
Q 25.390625 66.40625 21.84375 63.234375 
Q 18.3125 60.0625 18.3125 54.390625 
z
" id="DejaVuSans-56"/>
       </defs>
       <use xlink:href="#DejaVuSans-56"/>
       <use x="63.623047" xlink:href="#DejaVuSans-48"/>
       <use x="127.246094" xlink:href="#DejaVuSans-48"/>
      </g>
     </g>
    </g>
    <g id="ytick_6">
     <g id="line2d_13">
      <g>
       <use style="stroke:#000000;stroke-width:0.8;" x="57.3" xlink:href="#m43485a32a5" y="74.374909"/>
      </g>
     </g>
     <g id="text_14">
      <!-- 1000 -->
      <g transform="translate(24.85 78.174128)scale(0.1 -0.1)">
       <use xlink:href="#DejaVuSans-49"/>
       <use x="63.623047" xlink:href="#DejaVuSans-48"/>
       <use x="127.246094" xlink:href="#DejaVuSans-48"/>
       <use x="190.869141" xlink:href="#DejaVuSans-48"/>
      </g>
     </g>
    </g>
    <g id="ytick_7">
     <g id="line2d_14">
      <g>
       <use style="stroke:#000000;stroke-width:0.8;" x="57.3" xlink:href="#m43485a32a5" y="45.745825"/>
      </g>
     </g>
     <g id="text_15">
      <!-- 1200 -->
      <g transform="translate(24.85 49.545044)scale(0.1 -0.1)">
       <use xlink:href="#DejaVuSans-49"/>
       <use x="63.623047" xlink:href="#DejaVuSans-50"/>
       <use x="127.246094" xlink:href="#DejaVuSans-48"/>
       <use x="190.869141" xlink:href="#DejaVuSans-48"/>
      </g>
     </g>
    </g>
    <g id="text_16">
     <!-- Positive tests per million population -->
     <g transform="translate(18.770312 216.103467)rotate(-90)scale(0.1 -0.1)">
      <defs>
       <path d="M 19.671875 64.796875 
L 19.671875 37.40625 
L 32.078125 37.40625 
Q 38.96875 37.40625 42.71875 40.96875 
Q 46.484375 44.53125 46.484375 51.125 
Q 46.484375 57.671875 42.71875 61.234375 
Q 38.96875 64.796875 32.078125 64.796875 
z
M 9.8125 72.90625 
L 32.078125 72.90625 
Q 44.34375 72.90625 50.609375 67.359375 
Q 56.890625 61.8125 56.890625 51.125 
Q 56.890625 40.328125 50.609375 34.8125 
Q 44.34375 29.296875 32.078125 29.296875 
L 19.671875 29.296875 
L 19.671875 0 
L 9.8125 0 
z
" id="DejaVuSans-80"/>
       <path d="M 30.609375 48.390625 
Q 23.390625 48.390625 19.1875 42.75 
Q 14.984375 37.109375 14.984375 27.296875 
Q 14.984375 17.484375 19.15625 11.84375 
Q 23.34375 6.203125 30.609375 6.203125 
Q 37.796875 6.203125 41.984375 11.859375 
Q 46.1875 17.53125 46.1875 27.296875 
Q 46.1875 37.015625 41.984375 42.703125 
Q 37.796875 48.390625 30.609375 48.390625 
z
M 30.609375 56 
Q 42.328125 56 49.015625 48.375 
Q 55.71875 40.765625 55.71875 27.296875 
Q 55.71875 13.875 49.015625 6.21875 
Q 42.328125 -1.421875 30.609375 -1.421875 
Q 18.84375 -1.421875 12.171875 6.21875 
Q 5.515625 13.875 5.515625 27.296875 
Q 5.515625 40.765625 12.171875 48.375 
Q 18.84375 56 30.609375 56 
z
" id="DejaVuSans-111"/>
       <path d="M 44.28125 53.078125 
L 44.28125 44.578125 
Q 40.484375 46.53125 36.375 47.5 
Q 32.28125 48.484375 27.875 48.484375 
Q 21.1875 48.484375 17.84375 46.4375 
Q 14.5 44.390625 14.5 40.28125 
Q 14.5 37.15625 16.890625 35.375 
Q 19.28125 33.59375 26.515625 31.984375 
L 29.59375 31.296875 
Q 39.15625 29.25 43.1875 25.515625 
Q 47.21875 21.78125 47.21875 15.09375 
Q 47.21875 7.46875 41.1875 3.015625 
Q 35.15625 -1.421875 24.609375 -1.421875 
Q 20.21875 -1.421875 15.453125 -0.5625 
Q 10.6875 0.296875 5.421875 2 
L 5.421875 11.28125 
Q 10.40625 8.6875 15.234375 7.390625 
Q 20.0625 6.109375 24.8125 6.109375 
Q 31.15625 6.109375 34.5625 8.28125 
Q 37.984375 10.453125 37.984375 14.40625 
Q 37.984375 18.0625 35.515625 20.015625 
Q 33.0625 21.96875 24.703125 23.78125 
L 21.578125 24.515625 
Q 13.234375 26.265625 9.515625 29.90625 
Q 5.8125 33.546875 5.8125 39.890625 
Q 5.8125 47.609375 11.28125 51.796875 
Q 16.75 56 26.8125 56 
Q 31.78125 56 36.171875 55.265625 
Q 40.578125 54.546875 44.28125 53.078125 
z
" id="DejaVuSans-115"/>
       <path d="M 9.421875 54.6875 
L 18.40625 54.6875 
L 18.40625 0 
L 9.421875 0 
z
M 9.421875 75.984375 
L 18.40625 75.984375 
L 18.40625 64.59375 
L 9.421875 64.59375 
z
" id="DejaVuSans-105"/>
       <path d="M 2.984375 54.6875 
L 12.5 54.6875 
L 29.59375 8.796875 
L 46.6875 54.6875 
L 56.203125 54.6875 
L 35.6875 0 
L 23.484375 0 
z
" id="DejaVuSans-118"/>
       <path id="DejaVuSans-32"/>
       <path d="M 18.109375 8.203125 
L 18.109375 -20.796875 
L 9.078125 -20.796875 
L 9.078125 54.6875 
L 18.109375 54.6875 
L 18.109375 46.390625 
Q 20.953125 51.265625 25.265625 53.625 
Q 29.59375 56 35.59375 56 
Q 45.5625 56 51.78125 48.09375 
Q 58.015625 40.1875 58.015625 27.296875 
Q 58.015625 14.40625 51.78125 6.484375 
Q 45.5625 -1.421875 35.59375 -1.421875 
Q 29.59375 -1.421875 25.265625 0.953125 
Q 20.953125 3.328125 18.109375 8.203125 
z
M 48.6875 27.296875 
Q 48.6875 37.203125 44.609375 42.84375 
Q 40.53125 48.484375 33.40625 48.484375 
Q 26.265625 48.484375 22.1875 42.84375 
Q 18.109375 37.203125 18.109375 27.296875 
Q 18.109375 17.390625 22.1875 11.75 
Q 26.265625 6.109375 33.40625 6.109375 
Q 40.53125 6.109375 44.609375 11.75 
Q 48.6875 17.390625 48.6875 27.296875 
z
" id="DejaVuSans-112"/>
       <path d="M 41.109375 46.296875 
Q 39.59375 47.171875 37.8125 47.578125 
Q 36.03125 48 33.890625 48 
Q 26.265625 48 22.1875 43.046875 
Q 18.109375 38.09375 18.109375 28.8125 
L 18.109375 0 
L 9.078125 0 
L 9.078125 54.6875 
L 18.109375 54.6875 
L 18.109375 46.1875 
Q 20.953125 51.171875 25.484375 53.578125 
Q 30.03125 56 36.53125 56 
Q 37.453125 56 38.578125 55.875 
Q 39.703125 55.765625 41.0625 55.515625 
z
" id="DejaVuSans-114"/>
       <path d="M 52 44.1875 
Q 55.375 50.25 60.0625 53.125 
Q 64.75 56 71.09375 56 
Q 79.640625 56 84.28125 50.015625 
Q 88.921875 44.046875 88.921875 33.015625 
L 88.921875 0 
L 79.890625 0 
L 79.890625 32.71875 
Q 79.890625 40.578125 77.09375 44.375 
Q 74.3125 48.1875 68.609375 48.1875 
Q 61.625 48.1875 57.5625 43.546875 
Q 53.515625 38.921875 53.515625 30.90625 
L 53.515625 0 
L 44.484375 0 
L 44.484375 32.71875 
Q 44.484375 40.625 41.703125 44.40625 
Q 38.921875 48.1875 33.109375 48.1875 
Q 26.21875 48.1875 22.15625 43.53125 
Q 18.109375 38.875 18.109375 30.90625 
L 18.109375 0 
L 9.078125 0 
L 9.078125 54.6875 
L 18.109375 54.6875 
L 18.109375 46.1875 
Q 21.1875 51.21875 25.484375 53.609375 
Q 29.78125 56 35.6875 56 
Q 41.65625 56 45.828125 52.96875 
Q 50 49.953125 52 44.1875 
z
" id="DejaVuSans-109"/>
       <path d="M 9.421875 75.984375 
L 18.40625 75.984375 
L 18.40625 0 
L 9.421875 0 
z
" id="DejaVuSans-108"/>
       <path d="M 54.890625 33.015625 
L 54.890625 0 
L 45.90625 0 
L 45.90625 32.71875 
Q 45.90625 40.484375 42.875 44.328125 
Q 39.84375 48.1875 33.796875 48.1875 
Q 26.515625 48.1875 22.3125 43.546875 
Q 18.109375 38.921875 18.109375 30.90625 
L 18.109375 0 
L 9.078125 0 
L 9.078125 54.6875 
L 18.109375 54.6875 
L 18.109375 46.1875 
Q 21.34375 51.125 25.703125 53.5625 
Q 30.078125 56 35.796875 56 
Q 45.21875 56 50.046875 50.171875 
Q 54.890625 44.34375 54.890625 33.015625 
z
" id="DejaVuSans-110"/>
       <path d="M 8.5 21.578125 
L 8.5 54.6875 
L 17.484375 54.6875 
L 17.484375 21.921875 
Q 17.484375 14.15625 20.5 10.265625 
Q 23.53125 6.390625 29.59375 6.390625 
Q 36.859375 6.390625 41.078125 11.03125 
Q 45.3125 15.671875 45.3125 23.6875 
L 45.3125 54.6875 
L 54.296875 54.6875 
L 54.296875 0 
L 45.3125 0 
L 45.3125 8.40625 
Q 42.046875 3.421875 37.71875 1 
Q 33.40625 -1.421875 27.6875 -1.421875 
Q 18.265625 -1.421875 13.375 4.4375 
Q 8.5 10.296875 8.5 21.578125 
z
M 31.109375 56 
z
" id="DejaVuSans-117"/>
      </defs>
      <use xlink:href="#DejaVuSans-80"/>
      <use x="56.677734" xlink:href="#DejaVuSans-111"/>
      <use x="117.859375" xlink:href="#DejaVuSans-115"/>
      <use x="169.958984" xlink:href="#DejaVuSans-105"/>
      <use x="197.742188" xlink:href="#DejaVuSans-116"/>
      <use x="236.951172" xlink:href="#DejaVuSans-105"/>
      <use x="264.734375" xlink:href="#DejaVuSans-118"/>
      <use x="323.914062" xlink:href="#DejaVuSans-101"/>
      <use x="385.4375" xlink:href="#DejaVuSans-32"/>
      <use x="417.224609" xlink:href="#DejaVuSans-116"/>
      <use x="456.433594" xlink:href="#DejaVuSans-101"/>
      <use x="517.957031" xlink:href="#DejaVuSans-115"/>
      <use x="570.056641" xlink:href="#DejaVuSans-116"/>
      <use x="609.265625" xlink:href="#DejaVuSans-115"/>
      <use x="661.365234" xlink:href="#DejaVuSans-32"/>
      <use x="693.152344" xlink:href="#DejaVuSans-112"/>
      <use x="756.628906" xlink:href="#DejaVuSans-101"/>
      <use x="818.152344" xlink:href="#DejaVuSans-114"/>
      <use x="859.265625" xlink:href="#DejaVuSans-32"/>
      <use x="891.052734" xlink:href="#DejaVuSans-109"/>
      <use x="988.464844" xlink:href="#DejaVuSans-105"/>
      <use x="1016.248047" xlink:href="#DejaVuSans-108"/>
      <use x="1044.03125" xlink:href="#DejaVuSans-108"/>
      <use x="1071.814453" xlink:href="#DejaVuSans-105"/>
      <use x="1099.597656" xlink:href="#DejaVuSans-111"/>
      <use x="1160.779297" xlink:href="#DejaVuSans-110"/>
      <use x="1224.158203" xlink:href="#DejaVuSans-32"/>
      <use x="1255.945312" xlink:href="#DejaVuSans-112"/>
      <use x="1319.421875" xlink:href="#DejaVuSans-111"/>
      <use x="1380.603516" xlink:href="#DejaVuSans-112"/>
      <use x="1444.080078" xlink:href="#DejaVuSans-117"/>
      <use x="1507.458984" xlink:href="#DejaVuSans-108"/>
      <use x="1535.242188" xlink:href="#DejaVuSans-97"/>
      <use x="1596.521484" xlink:href="#DejaVuSans-116"/>
      <use x="1635.730469" xlink:href="#DejaVuSans-105"/>
      <use x="1663.513672" xlink:href="#DejaVuSans-111"/>
      <use x="1724.695312" xlink:href="#DejaVuSans-110"/>
     </g>
    </g>
   </g>
   <g id="line2d_15">
    <path clip-path="url(#pdb6279e196)" d="M 73.840909 217.520326 
L 132.432685 217.423136 
L 140.545393 217.023581 
L 143.249628 216.904794 
L 145.052452 216.624025 
L 146.855276 216.332457 
L 148.6581 215.749321 
L 150.460924 215.187783 
L 151.362336 214.475062 
L 152.263748 213.362785 
L 153.16516 213.049619 
L 154.967984 211.764561 
L 155.869396 210.727876 
L 156.770808 210.241929 
L 157.672219 210.187935 
L 158.573631 210.771071 
L 159.475043 210.295924 
L 160.376455 210.501101 
L 161.277867 209.928764 
L 162.179279 210.123143 
L 163.080691 209.755983 
L 165.784927 209.831575 
L 166.686339 209.432019 
L 167.587751 209.701989 
L 169.390575 209.216043 
L 170.291987 208.460126 
L 171.193399 208.384535 
L 172.094811 208.978469 
L 172.996222 209.032463 
L 173.897634 208.719298 
L 174.799046 209.054061 
L 175.700458 209.529208 
L 176.60187 210.360716 
L 177.503282 210.544296 
L 178.404694 210.501101 
L 180.207518 211.904946 
L 181.10893 212.110123 
L 182.010342 212.520478 
L 183.813166 212.531277 
L 184.714578 212.41249 
L 185.61599 212.434087 
L 186.517402 212.68246 
L 187.418813 213.211602 
L 188.320225 213.31959 
L 190.123049 214.140299 
L 192.827285 214.205092 
L 196.432933 214.799026 
L 197.334345 215.058198 
L 198.235757 215.511748 
L 200.939993 215.49015 
L 201.841405 215.522546 
L 202.742816 215.274174 
L 204.54564 215.101393 
L 205.447052 215.382162 
L 206.348464 215.446955 
L 208.151288 215.9437 
L 209.954112 216.494439 
L 210.855524 216.688818 
L 211.756936 216.505238 
L 212.658348 216.656421 
L 215.362584 216.721214 
L 217.165407 216.678019 
L 218.066819 216.991184 
L 218.968231 216.8508 
L 219.869643 216.969587 
L 222.573879 216.991184 
L 230.686587 217.401539 
L 244.207766 217.347545 
L 248.714825 217.325947 
L 250.517649 217.023581 
L 255.926121 217.109971 
L 258.630357 217.153166 
L 267.644476 217.131569 
L 268.545888 216.75361 
L 271.250124 216.699616 
L 272.151536 216.699616 
L 273.052948 216.267664 
L 273.95436 216.062487 
L 274.855772 216.440445 
L 276.658595 215.101393 
L 277.560007 214.809825 
L 278.461419 214.388672 
L 279.362831 214.464263 
L 280.264243 214.410269 
L 281.165655 213.94592 
L 282.067067 214.529056 
L 282.968479 214.464263 
L 283.869891 213.470773 
L 284.771303 213.783938 
L 285.672715 213.719145 
L 286.574127 213.308791 
L 287.475539 213.114412 
L 288.376951 212.41249 
L 289.278363 212.218111 
L 290.179775 212.974028 
L 291.081187 212.455685 
L 293.785422 212.358496 
L 294.686834 212.617667 
L 295.588246 212.304502 
L 296.489658 211.68897 
L 297.39107 210.792669 
L 298.292482 210.889858 
L 299.193894 211.127432 
L 300.095306 211.116633 
L 300.996718 210.825065 
L 302.799542 211.181426 
L 303.700954 211.526988 
L 304.602366 211.105834 
L 307.306601 208.665304 
L 308.208013 207.391044 
L 309.109425 206.42995 
L 310.010837 206.25717 
L 310.912249 206.300365 
L 311.813661 205.317673 
L 312.715073 204.885721 
L 314.517897 202.650368 
L 315.419309 202.531581 
L 316.320721 201.505694 
L 317.222133 198.859986 
L 318.123545 196.65703 
L 319.024957 195.901113 
L 319.926369 188.763102 
L 320.827781 184.367987 
L 321.729192 181.398315 
L 324.433428 168.990485 
L 325.33484 161.820077 
L 326.236252 160.243451 
L 327.137664 158.342861 
L 328.039076 151.820381 
L 328.940488 149.001893 
L 329.8419 146.906924 
L 330.743312 142.706188 
L 331.644724 144.433997 
L 332.546136 142.069058 
L 333.447548 140.676012 
L 335.250372 141.87468 
L 336.151784 141.334739 
L 337.053195 143.256927 
L 337.954607 140.24406 
L 338.856019 140.751604 
L 341.560255 144.174826 
L 343.363079 148.386361 
L 344.264491 150.762098 
L 345.165903 158.17008 
L 346.067315 161.128953 
L 347.870139 165.934423 
L 349.672963 169.314449 
L 350.574375 172.618884 
L 351.475786 172.305719 
L 352.377198 173.612375 
L 353.27861 176.474059 
L 354.180022 176.711632 
L 355.081434 177.316366 
L 355.982846 176.106899 
L 356.884258 175.761337 
L 357.78567 175.631752 
L 358.687082 175.815331 
L 359.588494 175.253793 
L 360.489906 176.765626 
L 361.391318 176.387668 
L 362.29273 179.335743 
L 363.194142 179.99447 
L 364.095554 182.564586 
L 364.996966 184.227602 
L 365.898378 185.631447 
L 366.799789 186.182187 
L 367.701201 191.257626 
L 368.602613 191.095644 
L 369.504025 191.58159 
L 370.405437 191.344016 
L 371.306849 191.797566 
L 373.109673 191.592389 
L 374.011085 188.223161 
L 374.912497 189.486622 
L 375.813909 189.335438 
L 376.715321 188.709107 
L 377.616733 187.24047 
L 378.518145 186.506151 
L 379.419557 185.350678 
L 380.320969 185.782631 
L 381.22238 185.059111 
L 382.123792 185.221093 
L 383.025204 184.259999 
L 383.926616 183.990029 
L 384.828028 183.298905 
L 385.72944 183.061331 
L 386.630852 181.603492 
L 387.532264 181.311924 
L 388.433676 178.990181 
L 389.335088 179.292547 
L 390.2365 177.521543 
L 391.137912 177.283969 
L 392.039324 175.815331 
L 392.940736 176.322875 
L 393.842148 173.331606 
L 394.74356 171.333826 
L 395.644972 176.841218 
L 396.546383 172.975245 
L 397.447795 178.428643 
L 399.250619 154.606474 
L 400.152031 139.963291 
L 401.053443 128.214188 
L 401.954855 128.214188 
L 402.856267 100.374863 
L 403.757679 82.427245 
L 404.659091 80.623844 
L 404.659091 80.623844 
" style="fill:none;stroke:#1f77b4;stroke-linecap:square;stroke-width:1.5;"/>
   </g>
   <g id="line2d_16">
    <path clip-path="url(#pdb6279e196)" d="M 73.840909 217.520326 
L 134.235509 217.423007 
L 136.939745 217.243341 
L 139.643981 216.966356 
L 145.052452 216.535906 
L 146.855276 216.064283 
L 147.756688 215.67875 
L 150.460924 214.256396 
L 152.263748 213.537732 
L 153.16516 212.246384 
L 154.066572 211.565151 
L 154.967984 211.127215 
L 155.869396 210.251344 
L 156.770808 209.659944 
L 157.672219 208.828989 
L 158.573631 208.544518 
L 159.475043 209.15089 
L 160.376455 209.079773 
L 161.277867 208.705469 
L 162.179279 209.008655 
L 163.982103 209.263182 
L 164.883515 209.637485 
L 165.784927 209.551396 
L 166.686339 209.349271 
L 168.489163 209.53268 
L 169.390575 209.173349 
L 170.291987 209.004912 
L 171.193399 208.600664 
L 172.094811 208.858933 
L 172.996222 208.948766 
L 173.897634 208.885135 
L 174.799046 208.956252 
L 175.700458 209.169606 
L 177.503282 209.768492 
L 178.404694 209.850839 
L 180.207518 210.243858 
L 181.10893 210.195198 
L 183.813166 210.988723 
L 185.61599 211.250735 
L 188.320225 212.362418 
L 189.221637 212.321244 
L 191.024461 212.557056 
L 191.925873 212.953818 
L 192.827285 213.05488 
L 193.728697 213.361809 
L 194.630109 213.245775 
L 197.334345 214.181535 
L 201.841405 215.409252 
L 202.742816 215.416738 
L 204.54564 215.68998 
L 207.249876 216.243949 
L 209.0527 216.539649 
L 209.954112 216.449817 
L 211.756936 216.52842 
L 215.362584 216.693114 
L 218.066819 217.037474 
L 222.573879 216.973842 
L 226.179527 216.943898 
L 228.883763 217.007529 
L 236.095058 217.265799 
L 253.221885 217.194681 
L 255.926121 217.086133 
L 259.531769 217.138536 
L 260.433181 217.20591 
L 263.137416 217.119821 
L 264.038828 217.153508 
L 273.052948 216.165346 
L 274.855772 216.300095 
L 275.757184 216.217748 
L 280.264243 216.28138 
L 283.869891 215.72741 
L 284.771303 215.577688 
L 290.179775 215.622605 
L 292.88401 214.525894 
L 293.785422 214.402374 
L 294.686834 213.998126 
L 295.588246 213.799745 
L 296.489658 213.481587 
L 297.39107 213.533989 
L 300.996718 213.155942 
L 301.89813 212.856499 
L 302.799542 212.72175 
L 303.700954 213.006221 
L 305.503778 212.261356 
L 306.405189 211.778504 
L 307.306601 211.673699 
L 308.208013 211.190847 
L 309.109425 211.187104 
L 310.010837 210.494641 
L 310.912249 210.060449 
L 311.813661 209.240723 
L 312.715073 208.585691 
L 314.517897 205.894446 
L 315.419309 205.523886 
L 316.320721 205.647406 
L 317.222133 204.0641 
L 318.123545 203.487672 
L 319.926369 201.915596 
L 320.827781 201.728444 
L 321.729192 200.178826 
L 322.630604 198.400882 
L 323.532016 198.42334 
L 326.236252 193.767 
L 327.137664 192.849955 
L 328.039076 192.108834 
L 328.940488 191.120671 
L 329.8419 189.260381 
L 331.644724 186.643997 
L 332.546136 186.831148 
L 333.447548 186.239748 
L 334.34896 188.635293 
L 335.250372 188.515516 
L 336.151784 187.920373 
L 337.053195 186.760031 
L 337.954607 185.408794 
L 338.856019 184.641471 
L 339.757431 183.645822 
L 340.658843 179.951443 
L 341.560255 179.468591 
L 342.461667 179.951443 
L 344.264491 184.147389 
L 345.165903 184.596554 
L 346.067315 185.839243 
L 347.870139 187.059474 
L 348.771551 188.287191 
L 349.672963 187.422549 
L 350.574375 187.093161 
L 351.475786 187.875456 
L 352.377198 186.022652 
L 354.180022 186.292151 
L 355.982846 187.561041 
L 356.884258 187.576013 
L 357.78567 186.509247 
L 358.687082 188.29842 
L 359.588494 188.133726 
L 360.489906 188.863619 
L 361.391318 187.306514 
L 362.29273 187.295285 
L 363.194142 187.755679 
L 364.095554 189.024569 
L 364.996966 189.889211 
L 365.898378 191.068269 
L 366.799789 190.199884 
L 367.701201 191.985313 
L 368.602613 193.42264 
L 369.504025 192.913587 
L 370.405437 193.096996 
L 372.208261 193.834375 
L 373.109673 196.005337 
L 374.011085 196.068969 
L 374.912497 195.803213 
L 375.813909 196.802605 
L 377.616733 196.855007 
L 378.518145 197.24054 
L 379.419557 196.087684 
L 381.22238 196.521877 
L 382.123792 196.615453 
L 383.025204 196.484446 
L 383.926616 195.410194 
L 384.828028 194.822537 
L 385.72944 194.609184 
L 386.630852 194.036499 
L 387.532264 194.815051 
L 388.433676 195.095779 
L 389.335088 196.05774 
L 390.2365 197.899315 
L 391.137912 197.397748 
L 392.039324 194.515608 
L 395.644972 187.594728 
L 396.546383 185.434995 
L 397.447795 186.161145 
L 398.349207 188.171156 
L 399.250619 186.003937 
L 400.152031 182.803638 
L 401.954855 172.764808 
L 402.856267 169.066685 
L 403.757679 162.613686 
L 404.659091 159.102715 
L 404.659091 159.102715 
" style="fill:none;stroke:#ff7f0e;stroke-linecap:square;stroke-width:1.5;"/>
   </g>
   <g id="line2d_17">
    <path clip-path="url(#pdb6279e196)" d="M 73.840909 217.520326 
L 134.235509 217.418964 
L 137.841157 217.278364 
L 140.545393 217.07237 
L 144.15104 216.281092 
L 145.052452 216.17864 
L 147.756688 215.416425 
L 148.6581 214.967743 
L 149.559512 214.285456 
L 153.16516 212.374108 
L 154.066572 211.465845 
L 154.967984 210.821341 
L 156.770808 210.152496 
L 157.672219 209.045505 
L 158.573631 208.657132 
L 159.475043 208.452228 
L 160.376455 208.031521 
L 161.277867 207.95341 
L 163.080691 207.365582 
L 163.982103 207.886925 
L 164.883515 207.95123 
L 165.784927 207.632975 
L 166.686339 208.214263 
L 167.587751 208.461311 
L 171.193399 208.909629 
L 172.094811 209.188284 
L 173.897634 209.261672 
L 176.60187 210.40899 
L 177.503282 210.458763 
L 178.404694 210.857672 
L 179.306106 211.445136 
L 182.010342 212.063118 
L 182.911754 212.111438 
L 183.813166 212.394453 
L 184.714578 212.447859 
L 185.61599 212.372291 
L 186.517402 212.499811 
L 192.827285 214.48927 
L 193.728697 214.700714 
L 205.447052 215.790993 
L 207.249876 216.076914 
L 209.954112 216.262926 
L 219.869643 216.756658 
L 221.672467 216.687267 
L 222.573879 216.832226 
L 224.376703 216.771917 
L 236.095058 217.069101 
L 240.602118 216.503071 
L 243.306354 216.17646 
L 245.109178 216.101982 
L 247.813413 216.069648 
L 249.616237 216.113245 
L 252.320473 216.039857 
L 262.236004 215.778641 
L 267.644476 215.594445 
L 272.151536 215.555208 
L 273.95436 215.359386 
L 278.461419 215.041494 
L 281.165655 215.151213 
L 282.067067 215.287815 
L 290.179775 214.783911 
L 291.081187 214.641859 
L 291.982598 214.650578 
L 295.588246 214.043858 
L 300.095306 211.99518 
L 301.89813 210.903448 
L 302.799542 210.808626 
L 303.700954 210.906355 
L 304.602366 210.70472 
L 305.503778 210.301451 
L 306.405189 210.225157 
L 309.109425 209.607539 
L 311.813661 207.892738 
L 312.715073 206.859498 
L 313.616485 206.150326 
L 314.517897 205.786658 
L 315.419309 205.234071 
L 316.320721 205.393198 
L 317.222133 204.86132 
L 318.123545 204.653146 
L 319.024957 204.668768 
L 319.926369 205.005188 
L 320.827781 202.764685 
L 321.729192 196.76688 
L 323.532016 191.547637 
L 324.433428 189.414309 
L 325.33484 186.012683 
L 326.236252 183.841934 
L 327.137664 183.179992 
L 328.039076 187.149465 
L 328.940488 186.799965 
L 329.8419 186.196152 
L 330.743312 184.523495 
L 333.447548 183.338393 
L 336.151784 178.781456 
L 337.053195 176.305168 
L 337.954607 175.863752 
L 338.856019 174.069025 
L 339.757431 171.877204 
L 342.461667 170.018535 
L 343.363079 170.637244 
L 344.264491 169.770397 
L 345.165903 168.424352 
L 346.067315 168.594379 
L 346.968727 167.099378 
L 348.771551 168.669583 
L 349.672963 168.44506 
L 350.574375 167.937523 
L 351.475786 168.138431 
L 352.377198 167.044519 
L 353.27861 167.88339 
L 354.180022 166.729533 
L 355.081434 166.260143 
L 355.982846 166.947879 
L 356.884258 163.421639 
L 357.78567 161.869599 
L 358.687082 160.989311 
L 359.588494 159.643265 
L 360.489906 159.502666 
L 361.391318 159.892493 
L 362.29273 160.902844 
L 363.194142 164.736441 
L 364.996966 169.596738 
L 365.898378 171.533154 
L 366.799789 173.747136 
L 367.701201 176.54277 
L 368.602613 177.013613 
L 369.504025 179.067741 
L 371.306849 182.184899 
L 372.208261 184.5878 
L 373.109673 185.481531 
L 374.011085 184.84066 
L 375.813909 186.735297 
L 376.715321 186.787976 
L 377.616733 187.026668 
L 378.518145 185.486254 
L 379.419557 185.212321 
L 380.320969 185.633392 
L 381.22238 185.765272 
L 382.123792 183.719864 
L 383.926616 180.345122 
L 384.828028 179.302436 
L 386.630852 174.832329 
L 387.532264 171.027797 
L 388.433676 169.291561 
L 389.335088 166.910822 
L 390.2365 164.982762 
L 391.137912 159.536453 
L 392.039324 155.590959 
L 392.940736 149.85655 
L 393.842148 145.927404 
L 394.74356 141.146308 
L 395.644972 138.563935 
L 396.546383 135.464215 
L 397.447795 137.838777 
L 398.349207 135.016259 
L 399.250619 129.611731 
L 400.152031 126.23045 
L 401.053443 121.162706 
L 404.659091 93.903917 
L 404.659091 93.903917 
" style="fill:none;stroke:#2ca02c;stroke-linecap:square;stroke-width:1.5;"/>
   </g>
   <g id="line2d_18">
    <path clip-path="url(#pdb6279e196)" d="M 73.840909 217.520326 
L 135.136921 217.429523 
L 137.841157 217.144142 
L 139.643981 216.742014 
L 143.249628 216.527979 
L 144.15104 216.093422 
L 145.953864 215.613463 
L 146.855276 215.302138 
L 147.756688 214.413566 
L 148.6581 213.816861 
L 149.559512 212.785598 
L 151.362336 211.721906 
L 152.263748 210.820362 
L 153.16516 210.483094 
L 154.066572 209.678839 
L 155.869396 207.499567 
L 157.672219 204.833851 
L 158.573631 204.237146 
L 159.475043 203.076165 
L 160.376455 203.017791 
L 161.277867 204.75602 
L 162.179279 203.737729 
L 163.080691 204.042568 
L 164.883515 203.822046 
L 165.784927 204.165801 
L 166.686339 204.237146 
L 167.587751 202.498917 
L 168.489163 204.172286 
L 170.291987 204.697647 
L 171.193399 204.937626 
L 172.094811 204.509555 
L 172.996222 204.496583 
L 173.897634 204.820879 
L 175.700458 204.781964 
L 176.60187 205.793768 
L 178.404694 206.734228 
L 179.306106 207.752519 
L 180.207518 208.083301 
L 181.10893 208.621633 
L 182.010342 209.374 
L 183.813166 209.451832 
L 184.714578 210.016107 
L 185.61599 210.158798 
L 186.517402 210.781447 
L 187.418813 210.833334 
L 188.320225 211.25492 
L 189.221637 210.937109 
L 190.123049 211.39761 
L 191.024461 211.657047 
L 192.827285 211.144659 
L 193.728697 211.313293 
L 194.630109 210.891708 
L 195.531521 211.287349 
L 196.432933 211.436526 
L 197.334345 211.040884 
L 198.235757 211.19006 
L 199.137169 210.943595 
L 200.939993 210.852792 
L 201.841405 210.995482 
L 202.742816 210.963053 
L 204.54564 211.209518 
L 205.447052 211.819195 
L 206.348464 212.052689 
L 207.249876 212.694795 
L 209.954112 213.855777 
L 210.855524 213.953065 
L 214.461172 214.919469 
L 216.263996 215.191878 
L 217.165407 215.477258 
L 218.066819 215.295652 
L 220.771055 215.276195 
L 223.475291 214.900011 
L 224.376703 214.9973 
L 225.278115 215.295652 
L 226.179527 215.425371 
L 227.080939 215.029729 
L 227.982351 214.971356 
L 229.785175 215.101075 
L 230.686587 214.601658 
L 232.48941 214.244932 
L 233.390822 214.731377 
L 234.292234 214.43951 
L 236.095058 214.698947 
L 236.99647 215.243765 
L 237.897882 215.496716 
L 239.700706 215.639407 
L 240.602118 216.339887 
L 245.109178 217.059825 
L 246.912001 217.033881 
L 248.714825 216.878219 
L 251.419061 216.806874 
L 253.221885 216.683641 
L 255.024709 216.651211 
L 257.728945 216.171253 
L 258.630357 216.229626 
L 259.531769 216.035048 
L 261.334593 215.976675 
L 263.137416 216.320429 
L 264.038828 216.378802 
L 264.94024 216.281513 
L 265.841652 216.417718 
L 266.743064 216.411232 
L 267.644476 216.527979 
L 269.4473 216.547437 
L 271.250124 216.631754 
L 273.95436 216.806874 
L 279.362831 216.716071 
L 282.968479 216.456634 
L 286.574127 216.300971 
L 288.376951 216.197196 
L 289.278363 216.158281 
L 291.081187 215.795069 
L 292.88401 215.594005 
L 294.686834 215.386455 
L 296.489658 214.874067 
L 298.292482 213.622283 
L 299.193894 212.824514 
L 300.095306 212.487246 
L 302.799542 210.976025 
L 303.700954 210.651728 
L 304.602366 210.911165 
L 305.503778 210.690644 
L 307.306601 209.925304 
L 310.010837 209.043218 
L 311.813661 206.701798 
L 312.715073 205.534331 
L 314.517897 203.633954 
L 315.419309 202.576748 
L 316.320721 202.23948 
L 317.222133 201.688176 
L 318.123545 201.694662 
L 319.024957 201.370366 
L 319.926369 200.449364 
L 320.827781 199.113263 
L 321.729192 198.659248 
L 322.630604 196.64861 
L 323.532016 196.265941 
L 324.433428 193.905063 
L 325.33484 192.34844 
L 326.236252 190.376718 
L 328.039076 189.818928 
L 328.940488 190.525895 
L 329.8419 188.327165 
L 330.743312 187.068895 
L 331.644724 186.491648 
L 332.546136 185.110145 
L 333.447548 184.805306 
L 334.34896 181.672603 
L 335.250372 180.771059 
L 336.151784 178.280463 
L 337.053195 178.176688 
L 337.954607 175.536916 
L 338.856019 176.950848 
L 339.757431 172.734995 
L 340.658843 171.736162 
L 341.560255 168.285648 
L 342.461667 167.902979 
L 343.363079 164.971339 
L 344.264491 163.408231 
L 345.165903 157.077965 
L 346.067315 157.227142 
L 346.968727 159.075631 
L 347.870139 155.910498 
L 348.771551 156.48126 
L 349.672963 157.856277 
L 350.574375 158.524327 
L 352.377198 163.246083 
L 353.27861 163.732527 
L 355.081434 172.747967 
L 355.982846 174.525111 
L 356.884258 177.151912 
L 357.78567 180.751602 
L 358.687082 180.91375 
L 359.588494 177.093538 
L 360.489906 177.346489 
L 361.391318 175.653662 
L 362.29273 177.534581 
L 363.194142 176.360628 
L 364.095554 174.914267 
L 364.996966 174.375935 
L 365.898378 177.781047 
L 366.799789 177.781047 
L 367.701201 178.494499 
L 368.602613 176.749784 
L 369.504025 175.433141 
L 370.405437 174.881837 
L 371.306849 172.099374 
L 372.208261 170.828132 
L 373.109673 171.411866 
L 374.011085 170.944879 
L 374.912497 167.228442 
L 375.813909 165.788566 
L 376.715321 163.414717 
L 377.616733 162.117531 
L 378.518145 156.202365 
L 379.419557 148.296019 
L 380.320969 147.563109 
L 381.22238 142.646776 
L 382.123792 139.436242 
L 383.926616 128.980927 
L 384.828028 141.407964 
L 385.72944 146.551305 
L 386.630852 147.621483 
L 387.532264 158.699447 
L 388.433676 97.083134 
L 390.2365 89.702148 
L 391.137912 74.563993 
L 392.039324 65.90528 
L 392.940736 51.986479 
L 393.842148 35.88192 
L 394.74356 96.246449 
L 395.644972 114.413533 
L 396.546383 119.783881 
L 397.447795 108.057324 
L 399.250619 111.566211 
L 400.152031 116.31391 
L 401.053443 118.454266 
L 401.954855 118.454266 
L 402.856267 115.036182 
L 403.757679 115.885839 
L 404.659091 118.318061 
L 404.659091 118.318061 
" style="fill:none;stroke:#d62728;stroke-linecap:square;stroke-width:1.5;"/>
   </g>
   <g id="line2d_19"/>
   <g id="line2d_20"/>
   <g id="line2d_21"/>
   <g id="line2d_22"/>
   <g id="patch_3">
    <path d="M 57.3 226.602246 
L 57.3 26.8 
" style="fill:none;stroke:#000000;stroke-linecap:square;stroke-linejoin:miter;stroke-width:0.8;"/>
   </g>
   <g id="patch_4">
    <path d="M 421.2 226.602246 
L 421.2 26.8 
" style="fill:none;stroke:#000000;stroke-linecap:square;stroke-linejoin:miter;stroke-width:0.8;"/>
   </g>
   <g id="patch_5">
    <path d="M 57.3 226.602246 
L 421.2 226.602246 
" style="fill:none;stroke:#000000;stroke-linecap:square;stroke-linejoin:miter;stroke-width:0.8;"/>
   </g>
   <g id="patch_6">
    <path d="M 57.3 26.8 
L 421.2 26.8 
" style="fill:none;stroke:#000000;stroke-linecap:square;stroke-linejoin:miter;stroke-width:0.8;"/>
   </g>
   <g id="text_17">
    <!-- Positive tests per million people by Nation (7 day rolling) -->
    <g transform="translate(68.850938 20.8)scale(0.12 -0.12)">
     <defs>
      <path d="M 48.6875 27.296875 
Q 48.6875 37.203125 44.609375 42.84375 
Q 40.53125 48.484375 33.40625 48.484375 
Q 26.265625 48.484375 22.1875 42.84375 
Q 18.109375 37.203125 18.109375 27.296875 
Q 18.109375 17.390625 22.1875 11.75 
Q 26.265625 6.109375 33.40625 6.109375 
Q 40.53125 6.109375 44.609375 11.75 
Q 48.6875 17.390625 48.6875 27.296875 
z
M 18.109375 46.390625 
Q 20.953125 51.265625 25.265625 53.625 
Q 29.59375 56 35.59375 56 
Q 45.5625 56 51.78125 48.09375 
Q 58.015625 40.1875 58.015625 27.296875 
Q 58.015625 14.40625 51.78125 6.484375 
Q 45.5625 -1.421875 35.59375 -1.421875 
Q 29.59375 -1.421875 25.265625 0.953125 
Q 20.953125 3.328125 18.109375 8.203125 
L 18.109375 0 
L 9.078125 0 
L 9.078125 75.984375 
L 18.109375 75.984375 
z
" id="DejaVuSans-98"/>
      <path d="M 32.171875 -5.078125 
Q 28.375 -14.84375 24.75 -17.8125 
Q 21.140625 -20.796875 15.09375 -20.796875 
L 7.90625 -20.796875 
L 7.90625 -13.28125 
L 13.1875 -13.28125 
Q 16.890625 -13.28125 18.9375 -11.515625 
Q 21 -9.765625 23.484375 -3.21875 
L 25.09375 0.875 
L 2.984375 54.6875 
L 12.5 54.6875 
L 29.59375 11.921875 
L 46.6875 54.6875 
L 56.203125 54.6875 
z
" id="DejaVuSans-121"/>
      <path d="M 9.8125 72.90625 
L 23.09375 72.90625 
L 55.421875 11.921875 
L 55.421875 72.90625 
L 64.984375 72.90625 
L 64.984375 0 
L 51.703125 0 
L 19.390625 60.984375 
L 19.390625 0 
L 9.8125 0 
z
" id="DejaVuSans-78"/>
      <path d="M 31 75.875 
Q 24.46875 64.65625 21.28125 53.65625 
Q 18.109375 42.671875 18.109375 31.390625 
Q 18.109375 20.125 21.3125 9.0625 
Q 24.515625 -2 31 -13.1875 
L 23.1875 -13.1875 
Q 15.875 -1.703125 12.234375 9.375 
Q 8.59375 20.453125 8.59375 31.390625 
Q 8.59375 42.28125 12.203125 53.3125 
Q 15.828125 64.359375 23.1875 75.875 
z
" id="DejaVuSans-40"/>
      <path d="M 45.40625 46.390625 
L 45.40625 75.984375 
L 54.390625 75.984375 
L 54.390625 0 
L 45.40625 0 
L 45.40625 8.203125 
Q 42.578125 3.328125 38.25 0.953125 
Q 33.9375 -1.421875 27.875 -1.421875 
Q 17.96875 -1.421875 11.734375 6.484375 
Q 5.515625 14.40625 5.515625 27.296875 
Q 5.515625 40.1875 11.734375 48.09375 
Q 17.96875 56 27.875 56 
Q 33.9375 56 38.25 53.625 
Q 42.578125 51.265625 45.40625 46.390625 
z
M 14.796875 27.296875 
Q 14.796875 17.390625 18.875 11.75 
Q 22.953125 6.109375 30.078125 6.109375 
Q 37.203125 6.109375 41.296875 11.75 
Q 45.40625 17.390625 45.40625 27.296875 
Q 45.40625 37.203125 41.296875 42.84375 
Q 37.203125 48.484375 30.078125 48.484375 
Q 22.953125 48.484375 18.875 42.84375 
Q 14.796875 37.203125 14.796875 27.296875 
z
" id="DejaVuSans-100"/>
      <path d="M 45.40625 27.984375 
Q 45.40625 37.75 41.375 43.109375 
Q 37.359375 48.484375 30.078125 48.484375 
Q 22.859375 48.484375 18.828125 43.109375 
Q 14.796875 37.75 14.796875 27.984375 
Q 14.796875 18.265625 18.828125 12.890625 
Q 22.859375 7.515625 30.078125 7.515625 
Q 37.359375 7.515625 41.375 12.890625 
Q 45.40625 18.265625 45.40625 27.984375 
z
M 54.390625 6.78125 
Q 54.390625 -7.171875 48.1875 -13.984375 
Q 42 -20.796875 29.203125 -20.796875 
Q 24.46875 -20.796875 20.265625 -20.09375 
Q 16.0625 -19.390625 12.109375 -17.921875 
L 12.109375 -9.1875 
Q 16.0625 -11.328125 19.921875 -12.34375 
Q 23.78125 -13.375 27.78125 -13.375 
Q 36.625 -13.375 41.015625 -8.765625 
Q 45.40625 -4.15625 45.40625 5.171875 
L 45.40625 9.625 
Q 42.625 4.78125 38.28125 2.390625 
Q 33.9375 0 27.875 0 
Q 17.828125 0 11.671875 7.65625 
Q 5.515625 15.328125 5.515625 27.984375 
Q 5.515625 40.671875 11.671875 48.328125 
Q 17.828125 56 27.875 56 
Q 33.9375 56 38.28125 53.609375 
Q 42.625 51.21875 45.40625 46.390625 
L 45.40625 54.6875 
L 54.390625 54.6875 
z
" id="DejaVuSans-103"/>
      <path d="M 8.015625 75.875 
L 15.828125 75.875 
Q 23.140625 64.359375 26.78125 53.3125 
Q 30.421875 42.28125 30.421875 31.390625 
Q 30.421875 20.453125 26.78125 9.375 
Q 23.140625 -1.703125 15.828125 -13.1875 
L 8.015625 -13.1875 
Q 14.5 -2 17.703125 9.0625 
Q 20.90625 20.125 20.90625 31.390625 
Q 20.90625 42.671875 17.703125 53.65625 
Q 14.5 64.65625 8.015625 75.875 
z
" id="DejaVuSans-41"/>
     </defs>
     <use xlink:href="#DejaVuSans-80"/>
     <use x="56.677734" xlink:href="#DejaVuSans-111"/>
     <use x="117.859375" xlink:href="#DejaVuSans-115"/>
     <use x="169.958984" xlink:href="#DejaVuSans-105"/>
     <use x="197.742188" xlink:href="#DejaVuSans-116"/>
     <use x="236.951172" xlink:href="#DejaVuSans-105"/>
     <use x="264.734375" xlink:href="#DejaVuSans-118"/>
     <use x="323.914062" xlink:href="#DejaVuSans-101"/>
     <use x="385.4375" xlink:href="#DejaVuSans-32"/>
     <use x="417.224609" xlink:href="#DejaVuSans-116"/>
     <use x="456.433594" xlink:href="#DejaVuSans-101"/>
     <use x="517.957031" xlink:href="#DejaVuSans-115"/>
     <use x="570.056641" xlink:href="#DejaVuSans-116"/>
     <use x="609.265625" xlink:href="#DejaVuSans-115"/>
     <use x="661.365234" xlink:href="#DejaVuSans-32"/>
     <use x="693.152344" xlink:href="#DejaVuSans-112"/>
     <use x="756.628906" xlink:href="#DejaVuSans-101"/>
     <use x="818.152344" xlink:href="#DejaVuSans-114"/>
     <use x="859.265625" xlink:href="#DejaVuSans-32"/>
     <use x="891.052734" xlink:href="#DejaVuSans-109"/>
     <use x="988.464844" xlink:href="#DejaVuSans-105"/>
     <use x="1016.248047" xlink:href="#DejaVuSans-108"/>
     <use x="1044.03125" xlink:href="#DejaVuSans-108"/>
     <use x="1071.814453" xlink:href="#DejaVuSans-105"/>
     <use x="1099.597656" xlink:href="#DejaVuSans-111"/>
     <use x="1160.779297" xlink:href="#DejaVuSans-110"/>
     <use x="1224.158203" xlink:href="#DejaVuSans-32"/>
     <use x="1255.945312" xlink:href="#DejaVuSans-112"/>
     <use x="1319.421875" xlink:href="#DejaVuSans-101"/>
     <use x="1380.945312" xlink:href="#DejaVuSans-111"/>
     <use x="1442.126953" xlink:href="#DejaVuSans-112"/>
     <use x="1505.603516" xlink:href="#DejaVuSans-108"/>
     <use x="1533.386719" xlink:href="#DejaVuSans-101"/>
     <use x="1594.910156" xlink:href="#DejaVuSans-32"/>
     <use x="1626.697266" xlink:href="#DejaVuSans-98"/>
     <use x="1690.173828" xlink:href="#DejaVuSans-121"/>
     <use x="1749.353516" xlink:href="#DejaVuSans-32"/>
     <use x="1781.140625" xlink:href="#DejaVuSans-78"/>
     <use x="1855.945312" xlink:href="#DejaVuSans-97"/>
     <use x="1917.224609" xlink:href="#DejaVuSans-116"/>
     <use x="1956.433594" xlink:href="#DejaVuSans-105"/>
     <use x="1984.216797" xlink:href="#DejaVuSans-111"/>
     <use x="2045.398438" xlink:href="#DejaVuSans-110"/>
     <use x="2108.777344" xlink:href="#DejaVuSans-32"/>
     <use x="2140.564453" xlink:href="#DejaVuSans-40"/>
     <use x="2179.578125" xlink:href="#DejaVuSans-55"/>
     <use x="2243.201172" xlink:href="#DejaVuSans-32"/>
     <use x="2274.988281" xlink:href="#DejaVuSans-100"/>
     <use x="2338.464844" xlink:href="#DejaVuSans-97"/>
     <use x="2399.744141" xlink:href="#DejaVuSans-121"/>
     <use x="2458.923828" xlink:href="#DejaVuSans-32"/>
     <use x="2490.710938" xlink:href="#DejaVuSans-114"/>
     <use x="2529.574219" xlink:href="#DejaVuSans-111"/>
     <use x="2590.755859" xlink:href="#DejaVuSans-108"/>
     <use x="2618.539062" xlink:href="#DejaVuSans-108"/>
     <use x="2646.322266" xlink:href="#DejaVuSans-105"/>
     <use x="2674.105469" xlink:href="#DejaVuSans-110"/>
     <use x="2737.484375" xlink:href="#DejaVuSans-103"/>
     <use x="2800.960938" xlink:href="#DejaVuSans-41"/>
    </g>
   </g>
   <g id="legend_1">
    <g id="patch_7">
     <path d="M 64.3 108.190625 
L 178.454688 108.190625 
Q 180.454688 108.190625 180.454688 106.190625 
L 180.454688 33.8 
Q 180.454688 31.8 178.454688 31.8 
L 64.3 31.8 
Q 62.3 31.8 62.3 33.8 
L 62.3 106.190625 
Q 62.3 108.190625 64.3 108.190625 
z
" style="fill:#ffffff;opacity:0.8;stroke:#cccccc;stroke-linejoin:miter;"/>
    </g>
    <g id="text_18">
     <!-- Nation -->
     <g transform="translate(104.995313 43.398437)scale(0.1 -0.1)">
      <use xlink:href="#DejaVuSans-78"/>
      <use x="74.804688" xlink:href="#DejaVuSans-97"/>
      <use x="136.083984" xlink:href="#DejaVuSans-116"/>
      <use x="175.292969" xlink:href="#DejaVuSans-105"/>
      <use x="203.076172" xlink:href="#DejaVuSans-111"/>
      <use x="264.257812" xlink:href="#DejaVuSans-110"/>
     </g>
    </g>
    <g id="line2d_23">
     <path d="M 66.3 54.576562 
L 86.3 54.576562 
" style="fill:none;stroke:#1f77b4;stroke-linecap:square;stroke-width:1.5;"/>
    </g>
    <g id="line2d_24"/>
    <g id="text_19">
     <!-- Northern Ireland -->
     <g transform="translate(94.3 58.076562)scale(0.1 -0.1)">
      <defs>
       <path d="M 54.890625 33.015625 
L 54.890625 0 
L 45.90625 0 
L 45.90625 32.71875 
Q 45.90625 40.484375 42.875 44.328125 
Q 39.84375 48.1875 33.796875 48.1875 
Q 26.515625 48.1875 22.3125 43.546875 
Q 18.109375 38.921875 18.109375 30.90625 
L 18.109375 0 
L 9.078125 0 
L 9.078125 75.984375 
L 18.109375 75.984375 
L 18.109375 46.1875 
Q 21.34375 51.125 25.703125 53.5625 
Q 30.078125 56 35.796875 56 
Q 45.21875 56 50.046875 50.171875 
Q 54.890625 44.34375 54.890625 33.015625 
z
" id="DejaVuSans-104"/>
       <path d="M 9.8125 72.90625 
L 19.671875 72.90625 
L 19.671875 0 
L 9.8125 0 
z
" id="DejaVuSans-73"/>
      </defs>
      <use xlink:href="#DejaVuSans-78"/>
      <use x="74.804688" xlink:href="#DejaVuSans-111"/>
      <use x="135.986328" xlink:href="#DejaVuSans-114"/>
      <use x="177.099609" xlink:href="#DejaVuSans-116"/>
      <use x="216.308594" xlink:href="#DejaVuSans-104"/>
      <use x="279.6875" xlink:href="#DejaVuSans-101"/>
      <use x="341.210938" xlink:href="#DejaVuSans-114"/>
      <use x="380.574219" xlink:href="#DejaVuSans-110"/>
      <use x="443.953125" xlink:href="#DejaVuSans-32"/>
      <use x="475.740234" xlink:href="#DejaVuSans-73"/>
      <use x="505.232422" xlink:href="#DejaVuSans-114"/>
      <use x="544.095703" xlink:href="#DejaVuSans-101"/>
      <use x="605.619141" xlink:href="#DejaVuSans-108"/>
      <use x="633.402344" xlink:href="#DejaVuSans-97"/>
      <use x="694.681641" xlink:href="#DejaVuSans-110"/>
      <use x="758.060547" xlink:href="#DejaVuSans-100"/>
     </g>
    </g>
    <g id="line2d_25">
     <path d="M 66.3 69.254687 
L 86.3 69.254687 
" style="fill:none;stroke:#ff7f0e;stroke-linecap:square;stroke-width:1.5;"/>
    </g>
    <g id="line2d_26"/>
    <g id="text_20">
     <!-- Scotland -->
     <g transform="translate(94.3 72.754687)scale(0.1 -0.1)">
      <defs>
       <path d="M 53.515625 70.515625 
L 53.515625 60.890625 
Q 47.90625 63.578125 42.921875 64.890625 
Q 37.9375 66.21875 33.296875 66.21875 
Q 25.25 66.21875 20.875 63.09375 
Q 16.5 59.96875 16.5 54.203125 
Q 16.5 49.359375 19.40625 46.890625 
Q 22.3125 44.4375 30.421875 42.921875 
L 36.375 41.703125 
Q 47.40625 39.59375 52.65625 34.296875 
Q 57.90625 29 57.90625 20.125 
Q 57.90625 9.515625 50.796875 4.046875 
Q 43.703125 -1.421875 29.984375 -1.421875 
Q 24.8125 -1.421875 18.96875 -0.25 
Q 13.140625 0.921875 6.890625 3.21875 
L 6.890625 13.375 
Q 12.890625 10.015625 18.65625 8.296875 
Q 24.421875 6.59375 29.984375 6.59375 
Q 38.421875 6.59375 43.015625 9.90625 
Q 47.609375 13.234375 47.609375 19.390625 
Q 47.609375 24.75 44.3125 27.78125 
Q 41.015625 30.8125 33.5 32.328125 
L 27.484375 33.5 
Q 16.453125 35.6875 11.515625 40.375 
Q 6.59375 45.0625 6.59375 53.421875 
Q 6.59375 63.09375 13.40625 68.65625 
Q 20.21875 74.21875 32.171875 74.21875 
Q 37.3125 74.21875 42.625 73.28125 
Q 47.953125 72.359375 53.515625 70.515625 
z
" id="DejaVuSans-83"/>
       <path d="M 48.78125 52.59375 
L 48.78125 44.1875 
Q 44.96875 46.296875 41.140625 47.34375 
Q 37.3125 48.390625 33.40625 48.390625 
Q 24.65625 48.390625 19.8125 42.84375 
Q 14.984375 37.3125 14.984375 27.296875 
Q 14.984375 17.28125 19.8125 11.734375 
Q 24.65625 6.203125 33.40625 6.203125 
Q 37.3125 6.203125 41.140625 7.25 
Q 44.96875 8.296875 48.78125 10.40625 
L 48.78125 2.09375 
Q 45.015625 0.34375 40.984375 -0.53125 
Q 36.96875 -1.421875 32.421875 -1.421875 
Q 20.0625 -1.421875 12.78125 6.34375 
Q 5.515625 14.109375 5.515625 27.296875 
Q 5.515625 40.671875 12.859375 48.328125 
Q 20.21875 56 33.015625 56 
Q 37.15625 56 41.109375 55.140625 
Q 45.0625 54.296875 48.78125 52.59375 
z
" id="DejaVuSans-99"/>
      </defs>
      <use xlink:href="#DejaVuSans-83"/>
      <use x="63.476562" xlink:href="#DejaVuSans-99"/>
      <use x="118.457031" xlink:href="#DejaVuSans-111"/>
      <use x="179.638672" xlink:href="#DejaVuSans-116"/>
      <use x="218.847656" xlink:href="#DejaVuSans-108"/>
      <use x="246.630859" xlink:href="#DejaVuSans-97"/>
      <use x="307.910156" xlink:href="#DejaVuSans-110"/>
      <use x="371.289062" xlink:href="#DejaVuSans-100"/>
     </g>
    </g>
    <g id="line2d_27">
     <path d="M 66.3 83.932812 
L 86.3 83.932812 
" style="fill:none;stroke:#2ca02c;stroke-linecap:square;stroke-width:1.5;"/>
    </g>
    <g id="line2d_28"/>
    <g id="text_21">
     <!-- England -->
     <g transform="translate(94.3 87.432812)scale(0.1 -0.1)">
      <defs>
       <path d="M 9.8125 72.90625 
L 55.90625 72.90625 
L 55.90625 64.59375 
L 19.671875 64.59375 
L 19.671875 43.015625 
L 54.390625 43.015625 
L 54.390625 34.71875 
L 19.671875 34.71875 
L 19.671875 8.296875 
L 56.78125 8.296875 
L 56.78125 0 
L 9.8125 0 
z
" id="DejaVuSans-69"/>
      </defs>
      <use xlink:href="#DejaVuSans-69"/>
      <use x="63.183594" xlink:href="#DejaVuSans-110"/>
      <use x="126.5625" xlink:href="#DejaVuSans-103"/>
      <use x="190.039062" xlink:href="#DejaVuSans-108"/>
      <use x="217.822266" xlink:href="#DejaVuSans-97"/>
      <use x="279.101562" xlink:href="#DejaVuSans-110"/>
      <use x="342.480469" xlink:href="#DejaVuSans-100"/>
     </g>
    </g>
    <g id="line2d_29">
     <path d="M 66.3 98.610937 
L 86.3 98.610937 
" style="fill:none;stroke:#d62728;stroke-linecap:square;stroke-width:1.5;"/>
    </g>
    <g id="line2d_30"/>
    <g id="text_22">
     <!-- Wales -->
     <g transform="translate(94.3 102.110937)scale(0.1 -0.1)">
      <defs>
       <path d="M 3.328125 72.90625 
L 13.28125 72.90625 
L 28.609375 11.28125 
L 43.890625 72.90625 
L 54.984375 72.90625 
L 70.3125 11.28125 
L 85.59375 72.90625 
L 95.609375 72.90625 
L 77.296875 0 
L 64.890625 0 
L 49.515625 63.28125 
L 33.984375 0 
L 21.578125 0 
z
" id="DejaVuSans-87"/>
      </defs>
      <use xlink:href="#DejaVuSans-87"/>
      <use x="92.501953" xlink:href="#DejaVuSans-97"/>
      <use x="153.78125" xlink:href="#DejaVuSans-108"/>
      <use x="181.564453" xlink:href="#DejaVuSans-101"/>
      <use x="243.087891" xlink:href="#DejaVuSans-115"/>
     </g>
    </g>
   </g>
  </g>
 </g>
 <defs>
  <clipPath id="pdb6279e196">
   <rect height="199.802246" width="363.9" x="57.3" y="26.8"/>
  </clipPath>
 </defs>
</svg>
