<?xml version="1.0" encoding="utf-8" standalone="no"?>
<!DOCTYPE svg PUBLIC "-//W3C//DTD SVG 1.1//EN"
  "http://www.w3.org/Graphics/SVG/1.1/DTD/svg11.dtd">
<!-- Created with matplotlib (https://matplotlib.org/) -->
<svg height="360pt" version="1.1" viewBox="0 0 540 360" width="540pt" xmlns="http://www.w3.org/2000/svg" xmlns:xlink="http://www.w3.org/1999/xlink">
 <metadata>
  <rdf:RDF xmlns:cc="http://creativecommons.org/ns#" xmlns:dc="http://purl.org/dc/elements/1.1/" xmlns:rdf="http://www.w3.org/1999/02/22-rdf-syntax-ns#">
   <cc:Work>
    <dc:type rdf:resource="http://purl.org/dc/dcmitype/StillImage"/>
    <dc:date>2020-11-02T15:08:45.516729</dc:date>
    <dc:format>image/svg+xml</dc:format>
    <dc:creator>
     <cc:Agent>
      <dc:title>Matplotlib v3.3.2, https://matplotlib.org/</dc:title>
     </cc:Agent>
    </dc:creator>
   </cc:Work>
  </rdf:RDF>
 </metadata>
 <defs>
  <style type="text/css">*{stroke-linecap:butt;stroke-linejoin:round;}</style>
 </defs>
 <g id="figure_1">
  <g id="patch_1">
   <path d="M 0 360 
L 540 360 
L 540 0 
L 0 0 
z
" style="fill:none;"/>
  </g>
  <g id="axes_1">
   <g id="patch_2">
    <path d="M 43.29002 295.102246 
L 529.2 295.102246 
L 529.2 26.8 
L 43.29002 26.8 
z
" style="fill:#ffffff;"/>
   </g>
   <g id="matplotlib.axis_1">
    <g id="xtick_1">
     <g id="line2d_1">
      <defs>
       <path d="M 0 0 
L 0 3.5 
" id="m0113812045" style="stroke:#000000;"/>
      </defs>
      <g>
       <use style="stroke:#000000;" x="53.478216" xlink:href="#m0113812045" y="295.102246"/>
      </g>
     </g>
     <g id="text_1">
      <!-- 2020-01 -->
      <g transform="translate(16.253395 333.074092)rotate(-30)scale(0.1 -0.1)">
       <defs>
        <path d="M 19.1875 8.296875 
L 53.609375 8.296875 
L 53.609375 0 
L 7.328125 0 
L 7.328125 8.296875 
Q 12.9375 14.109375 22.625 23.890625 
Q 32.328125 33.6875 34.8125 36.53125 
Q 39.546875 41.84375 41.421875 45.53125 
Q 43.3125 49.21875 43.3125 52.78125 
Q 43.3125 58.59375 39.234375 62.25 
Q 35.15625 65.921875 28.609375 65.921875 
Q 23.96875 65.921875 18.8125 64.3125 
Q 13.671875 62.703125 7.8125 59.421875 
L 7.8125 69.390625 
Q 13.765625 71.78125 18.9375 73 
Q 24.125 74.21875 28.421875 74.21875 
Q 39.75 74.21875 46.484375 68.546875 
Q 53.21875 62.890625 53.21875 53.421875 
Q 53.21875 48.921875 51.53125 44.890625 
Q 49.859375 40.875 45.40625 35.40625 
Q 44.1875 33.984375 37.640625 27.21875 
Q 31.109375 20.453125 19.1875 8.296875 
z
" id="DejaVuSans-50"/>
        <path d="M 31.78125 66.40625 
Q 24.171875 66.40625 20.328125 58.90625 
Q 16.5 51.421875 16.5 36.375 
Q 16.5 21.390625 20.328125 13.890625 
Q 24.171875 6.390625 31.78125 6.390625 
Q 39.453125 6.390625 43.28125 13.890625 
Q 47.125 21.390625 47.125 36.375 
Q 47.125 51.421875 43.28125 58.90625 
Q 39.453125 66.40625 31.78125 66.40625 
z
M 31.78125 74.21875 
Q 44.046875 74.21875 50.515625 64.515625 
Q 56.984375 54.828125 56.984375 36.375 
Q 56.984375 17.96875 50.515625 8.265625 
Q 44.046875 -1.421875 31.78125 -1.421875 
Q 19.53125 -1.421875 13.0625 8.265625 
Q 6.59375 17.96875 6.59375 36.375 
Q 6.59375 54.828125 13.0625 64.515625 
Q 19.53125 74.21875 31.78125 74.21875 
z
" id="DejaVuSans-48"/>
        <path d="M 4.890625 31.390625 
L 31.203125 31.390625 
L 31.203125 23.390625 
L 4.890625 23.390625 
z
" id="DejaVuSans-45"/>
        <path d="M 12.40625 8.296875 
L 28.515625 8.296875 
L 28.515625 63.921875 
L 10.984375 60.40625 
L 10.984375 69.390625 
L 28.421875 72.90625 
L 38.28125 72.90625 
L 38.28125 8.296875 
L 54.390625 8.296875 
L 54.390625 0 
L 12.40625 0 
z
" id="DejaVuSans-49"/>
       </defs>
       <use xlink:href="#DejaVuSans-50"/>
       <use x="63.623047" xlink:href="#DejaVuSans-48"/>
       <use x="127.246094" xlink:href="#DejaVuSans-50"/>
       <use x="190.869141" xlink:href="#DejaVuSans-48"/>
       <use x="254.492188" xlink:href="#DejaVuSans-45"/>
       <use x="290.576172" xlink:href="#DejaVuSans-48"/>
       <use x="354.199219" xlink:href="#DejaVuSans-49"/>
      </g>
     </g>
    </g>
    <g id="xtick_2">
     <g id="line2d_2">
      <g>
       <use style="stroke:#000000;" x="99.585376" xlink:href="#m0113812045" y="295.102246"/>
      </g>
     </g>
     <g id="text_2">
      <!-- 2020-02 -->
      <g transform="translate(62.360555 333.074092)rotate(-30)scale(0.1 -0.1)">
       <use xlink:href="#DejaVuSans-50"/>
       <use x="63.623047" xlink:href="#DejaVuSans-48"/>
       <use x="127.246094" xlink:href="#DejaVuSans-50"/>
       <use x="190.869141" xlink:href="#DejaVuSans-48"/>
       <use x="254.492188" xlink:href="#DejaVuSans-45"/>
       <use x="290.576172" xlink:href="#DejaVuSans-48"/>
       <use x="354.199219" xlink:href="#DejaVuSans-50"/>
      </g>
     </g>
    </g>
    <g id="xtick_3">
     <g id="line2d_3">
      <g>
       <use style="stroke:#000000;" x="142.717881" xlink:href="#m0113812045" y="295.102246"/>
      </g>
     </g>
     <g id="text_3">
      <!-- 2020-03 -->
      <g transform="translate(105.49306 333.074092)rotate(-30)scale(0.1 -0.1)">
       <defs>
        <path d="M 40.578125 39.3125 
Q 47.65625 37.796875 51.625 33 
Q 55.609375 28.21875 55.609375 21.1875 
Q 55.609375 10.40625 48.1875 4.484375 
Q 40.765625 -1.421875 27.09375 -1.421875 
Q 22.515625 -1.421875 17.65625 -0.515625 
Q 12.796875 0.390625 7.625 2.203125 
L 7.625 11.71875 
Q 11.71875 9.328125 16.59375 8.109375 
Q 21.484375 6.890625 26.8125 6.890625 
Q 36.078125 6.890625 40.9375 10.546875 
Q 45.796875 14.203125 45.796875 21.1875 
Q 45.796875 27.640625 41.28125 31.265625 
Q 36.765625 34.90625 28.71875 34.90625 
L 20.21875 34.90625 
L 20.21875 43.015625 
L 29.109375 43.015625 
Q 36.375 43.015625 40.234375 45.921875 
Q 44.09375 48.828125 44.09375 54.296875 
Q 44.09375 59.90625 40.109375 62.90625 
Q 36.140625 65.921875 28.71875 65.921875 
Q 24.65625 65.921875 20.015625 65.03125 
Q 15.375 64.15625 9.8125 62.3125 
L 9.8125 71.09375 
Q 15.4375 72.65625 20.34375 73.4375 
Q 25.25 74.21875 29.59375 74.21875 
Q 40.828125 74.21875 47.359375 69.109375 
Q 53.90625 64.015625 53.90625 55.328125 
Q 53.90625 49.265625 50.4375 45.09375 
Q 46.96875 40.921875 40.578125 39.3125 
z
" id="DejaVuSans-51"/>
       </defs>
       <use xlink:href="#DejaVuSans-50"/>
       <use x="63.623047" xlink:href="#DejaVuSans-48"/>
       <use x="127.246094" xlink:href="#DejaVuSans-50"/>
       <use x="190.869141" xlink:href="#DejaVuSans-48"/>
       <use x="254.492188" xlink:href="#DejaVuSans-45"/>
       <use x="290.576172" xlink:href="#DejaVuSans-48"/>
       <use x="354.199219" xlink:href="#DejaVuSans-51"/>
      </g>
     </g>
    </g>
    <g id="xtick_4">
     <g id="line2d_4">
      <g>
       <use style="stroke:#000000;" x="188.825042" xlink:href="#m0113812045" y="295.102246"/>
      </g>
     </g>
     <g id="text_4">
      <!-- 2020-04 -->
      <g transform="translate(151.600221 333.074092)rotate(-30)scale(0.1 -0.1)">
       <defs>
        <path d="M 37.796875 64.3125 
L 12.890625 25.390625 
L 37.796875 25.390625 
z
M 35.203125 72.90625 
L 47.609375 72.90625 
L 47.609375 25.390625 
L 58.015625 25.390625 
L 58.015625 17.1875 
L 47.609375 17.1875 
L 47.609375 0 
L 37.796875 0 
L 37.796875 17.1875 
L 4.890625 17.1875 
L 4.890625 26.703125 
z
" id="DejaVuSans-52"/>
       </defs>
       <use xlink:href="#DejaVuSans-50"/>
       <use x="63.623047" xlink:href="#DejaVuSans-48"/>
       <use x="127.246094" xlink:href="#DejaVuSans-50"/>
       <use x="190.869141" xlink:href="#DejaVuSans-48"/>
       <use x="254.492188" xlink:href="#DejaVuSans-45"/>
       <use x="290.576172" xlink:href="#DejaVuSans-48"/>
       <use x="354.199219" xlink:href="#DejaVuSans-52"/>
      </g>
     </g>
    </g>
    <g id="xtick_5">
     <g id="line2d_5">
      <g>
       <use style="stroke:#000000;" x="233.444875" xlink:href="#m0113812045" y="295.102246"/>
      </g>
     </g>
     <g id="text_5">
      <!-- 2020-05 -->
      <g transform="translate(196.220054 333.074092)rotate(-30)scale(0.1 -0.1)">
       <defs>
        <path d="M 10.796875 72.90625 
L 49.515625 72.90625 
L 49.515625 64.59375 
L 19.828125 64.59375 
L 19.828125 46.734375 
Q 21.96875 47.46875 24.109375 47.828125 
Q 26.265625 48.1875 28.421875 48.1875 
Q 40.625 48.1875 47.75 41.5 
Q 54.890625 34.8125 54.890625 23.390625 
Q 54.890625 11.625 47.5625 5.09375 
Q 40.234375 -1.421875 26.90625 -1.421875 
Q 22.3125 -1.421875 17.546875 -0.640625 
Q 12.796875 0.140625 7.71875 1.703125 
L 7.71875 11.625 
Q 12.109375 9.234375 16.796875 8.0625 
Q 21.484375 6.890625 26.703125 6.890625 
Q 35.15625 6.890625 40.078125 11.328125 
Q 45.015625 15.765625 45.015625 23.390625 
Q 45.015625 31 40.078125 35.4375 
Q 35.15625 39.890625 26.703125 39.890625 
Q 22.75 39.890625 18.8125 39.015625 
Q 14.890625 38.140625 10.796875 36.28125 
z
" id="DejaVuSans-53"/>
       </defs>
       <use xlink:href="#DejaVuSans-50"/>
       <use x="63.623047" xlink:href="#DejaVuSans-48"/>
       <use x="127.246094" xlink:href="#DejaVuSans-50"/>
       <use x="190.869141" xlink:href="#DejaVuSans-48"/>
       <use x="254.492188" xlink:href="#DejaVuSans-45"/>
       <use x="290.576172" xlink:href="#DejaVuSans-48"/>
       <use x="354.199219" xlink:href="#DejaVuSans-53"/>
      </g>
     </g>
    </g>
    <g id="xtick_6">
     <g id="line2d_6">
      <g>
       <use style="stroke:#000000;" x="279.552035" xlink:href="#m0113812045" y="295.102246"/>
      </g>
     </g>
     <g id="text_6">
      <!-- 2020-06 -->
      <g transform="translate(242.327214 333.074092)rotate(-30)scale(0.1 -0.1)">
       <defs>
        <path d="M 33.015625 40.375 
Q 26.375 40.375 22.484375 35.828125 
Q 18.609375 31.296875 18.609375 23.390625 
Q 18.609375 15.53125 22.484375 10.953125 
Q 26.375 6.390625 33.015625 6.390625 
Q 39.65625 6.390625 43.53125 10.953125 
Q 47.40625 15.53125 47.40625 23.390625 
Q 47.40625 31.296875 43.53125 35.828125 
Q 39.65625 40.375 33.015625 40.375 
z
M 52.59375 71.296875 
L 52.59375 62.3125 
Q 48.875 64.0625 45.09375 64.984375 
Q 41.3125 65.921875 37.59375 65.921875 
Q 27.828125 65.921875 22.671875 59.328125 
Q 17.53125 52.734375 16.796875 39.40625 
Q 19.671875 43.65625 24.015625 45.921875 
Q 28.375 48.1875 33.59375 48.1875 
Q 44.578125 48.1875 50.953125 41.515625 
Q 57.328125 34.859375 57.328125 23.390625 
Q 57.328125 12.15625 50.6875 5.359375 
Q 44.046875 -1.421875 33.015625 -1.421875 
Q 20.359375 -1.421875 13.671875 8.265625 
Q 6.984375 17.96875 6.984375 36.375 
Q 6.984375 53.65625 15.1875 63.9375 
Q 23.390625 74.21875 37.203125 74.21875 
Q 40.921875 74.21875 44.703125 73.484375 
Q 48.484375 72.75 52.59375 71.296875 
z
" id="DejaVuSans-54"/>
       </defs>
       <use xlink:href="#DejaVuSans-50"/>
       <use x="63.623047" xlink:href="#DejaVuSans-48"/>
       <use x="127.246094" xlink:href="#DejaVuSans-50"/>
       <use x="190.869141" xlink:href="#DejaVuSans-48"/>
       <use x="254.492188" xlink:href="#DejaVuSans-45"/>
       <use x="290.576172" xlink:href="#DejaVuSans-48"/>
       <use x="354.199219" xlink:href="#DejaVuSans-54"/>
      </g>
     </g>
    </g>
    <g id="xtick_7">
     <g id="line2d_7">
      <g>
       <use style="stroke:#000000;" x="324.171868" xlink:href="#m0113812045" y="295.102246"/>
      </g>
     </g>
     <g id="text_7">
      <!-- 2020-07 -->
      <g transform="translate(286.947047 333.074092)rotate(-30)scale(0.1 -0.1)">
       <defs>
        <path d="M 8.203125 72.90625 
L 55.078125 72.90625 
L 55.078125 68.703125 
L 28.609375 0 
L 18.3125 0 
L 43.21875 64.59375 
L 8.203125 64.59375 
z
" id="DejaVuSans-55"/>
       </defs>
       <use xlink:href="#DejaVuSans-50"/>
       <use x="63.623047" xlink:href="#DejaVuSans-48"/>
       <use x="127.246094" xlink:href="#DejaVuSans-50"/>
       <use x="190.869141" xlink:href="#DejaVuSans-48"/>
       <use x="254.492188" xlink:href="#DejaVuSans-45"/>
       <use x="290.576172" xlink:href="#DejaVuSans-48"/>
       <use x="354.199219" xlink:href="#DejaVuSans-55"/>
      </g>
     </g>
    </g>
    <g id="xtick_8">
     <g id="line2d_8">
      <g>
       <use style="stroke:#000000;" x="370.279029" xlink:href="#m0113812045" y="295.102246"/>
      </g>
     </g>
     <g id="text_8">
      <!-- 2020-08 -->
      <g transform="translate(333.054208 333.074092)rotate(-30)scale(0.1 -0.1)">
       <defs>
        <path d="M 31.78125 34.625 
Q 24.75 34.625 20.71875 30.859375 
Q 16.703125 27.09375 16.703125 20.515625 
Q 16.703125 13.921875 20.71875 10.15625 
Q 24.75 6.390625 31.78125 6.390625 
Q 38.8125 6.390625 42.859375 10.171875 
Q 46.921875 13.96875 46.921875 20.515625 
Q 46.921875 27.09375 42.890625 30.859375 
Q 38.875 34.625 31.78125 34.625 
z
M 21.921875 38.8125 
Q 15.578125 40.375 12.03125 44.71875 
Q 8.5 49.078125 8.5 55.328125 
Q 8.5 64.0625 14.71875 69.140625 
Q 20.953125 74.21875 31.78125 74.21875 
Q 42.671875 74.21875 48.875 69.140625 
Q 55.078125 64.0625 55.078125 55.328125 
Q 55.078125 49.078125 51.53125 44.71875 
Q 48 40.375 41.703125 38.8125 
Q 48.828125 37.15625 52.796875 32.3125 
Q 56.78125 27.484375 56.78125 20.515625 
Q 56.78125 9.90625 50.3125 4.234375 
Q 43.84375 -1.421875 31.78125 -1.421875 
Q 19.734375 -1.421875 13.25 4.234375 
Q 6.78125 9.90625 6.78125 20.515625 
Q 6.78125 27.484375 10.78125 32.3125 
Q 14.796875 37.15625 21.921875 38.8125 
z
M 18.3125 54.390625 
Q 18.3125 48.734375 21.84375 45.5625 
Q 25.390625 42.390625 31.78125 42.390625 
Q 38.140625 42.390625 41.71875 45.5625 
Q 45.3125 48.734375 45.3125 54.390625 
Q 45.3125 60.0625 41.71875 63.234375 
Q 38.140625 66.40625 31.78125 66.40625 
Q 25.390625 66.40625 21.84375 63.234375 
Q 18.3125 60.0625 18.3125 54.390625 
z
" id="DejaVuSans-56"/>
       </defs>
       <use xlink:href="#DejaVuSans-50"/>
       <use x="63.623047" xlink:href="#DejaVuSans-48"/>
       <use x="127.246094" xlink:href="#DejaVuSans-50"/>
       <use x="190.869141" xlink:href="#DejaVuSans-48"/>
       <use x="254.492188" xlink:href="#DejaVuSans-45"/>
       <use x="290.576172" xlink:href="#DejaVuSans-48"/>
       <use x="354.199219" xlink:href="#DejaVuSans-56"/>
      </g>
     </g>
    </g>
    <g id="xtick_9">
     <g id="line2d_9">
      <g>
       <use style="stroke:#000000;" x="416.386189" xlink:href="#m0113812045" y="295.102246"/>
      </g>
     </g>
     <g id="text_9">
      <!-- 2020-09 -->
      <g transform="translate(379.161368 333.074092)rotate(-30)scale(0.1 -0.1)">
       <defs>
        <path d="M 10.984375 1.515625 
L 10.984375 10.5 
Q 14.703125 8.734375 18.5 7.8125 
Q 22.3125 6.890625 25.984375 6.890625 
Q 35.75 6.890625 40.890625 13.453125 
Q 46.046875 20.015625 46.78125 33.40625 
Q 43.953125 29.203125 39.59375 26.953125 
Q 35.25 24.703125 29.984375 24.703125 
Q 19.046875 24.703125 12.671875 31.3125 
Q 6.296875 37.9375 6.296875 49.421875 
Q 6.296875 60.640625 12.9375 67.421875 
Q 19.578125 74.21875 30.609375 74.21875 
Q 43.265625 74.21875 49.921875 64.515625 
Q 56.59375 54.828125 56.59375 36.375 
Q 56.59375 19.140625 48.40625 8.859375 
Q 40.234375 -1.421875 26.421875 -1.421875 
Q 22.703125 -1.421875 18.890625 -0.6875 
Q 15.09375 0.046875 10.984375 1.515625 
z
M 30.609375 32.421875 
Q 37.25 32.421875 41.125 36.953125 
Q 45.015625 41.5 45.015625 49.421875 
Q 45.015625 57.28125 41.125 61.84375 
Q 37.25 66.40625 30.609375 66.40625 
Q 23.96875 66.40625 20.09375 61.84375 
Q 16.21875 57.28125 16.21875 49.421875 
Q 16.21875 41.5 20.09375 36.953125 
Q 23.96875 32.421875 30.609375 32.421875 
z
" id="DejaVuSans-57"/>
       </defs>
       <use xlink:href="#DejaVuSans-50"/>
       <use x="63.623047" xlink:href="#DejaVuSans-48"/>
       <use x="127.246094" xlink:href="#DejaVuSans-50"/>
       <use x="190.869141" xlink:href="#DejaVuSans-48"/>
       <use x="254.492188" xlink:href="#DejaVuSans-45"/>
       <use x="290.576172" xlink:href="#DejaVuSans-48"/>
       <use x="354.199219" xlink:href="#DejaVuSans-57"/>
      </g>
     </g>
    </g>
    <g id="xtick_10">
     <g id="line2d_10">
      <g>
       <use style="stroke:#000000;" x="461.006022" xlink:href="#m0113812045" y="295.102246"/>
      </g>
     </g>
     <g id="text_10">
      <!-- 2020-10 -->
      <g transform="translate(423.781201 333.074092)rotate(-30)scale(0.1 -0.1)">
       <use xlink:href="#DejaVuSans-50"/>
       <use x="63.623047" xlink:href="#DejaVuSans-48"/>
       <use x="127.246094" xlink:href="#DejaVuSans-50"/>
       <use x="190.869141" xlink:href="#DejaVuSans-48"/>
       <use x="254.492188" xlink:href="#DejaVuSans-45"/>
       <use x="290.576172" xlink:href="#DejaVuSans-49"/>
       <use x="354.199219" xlink:href="#DejaVuSans-48"/>
      </g>
     </g>
    </g>
    <g id="xtick_11">
     <g id="line2d_11">
      <g>
       <use style="stroke:#000000;" x="507.113183" xlink:href="#m0113812045" y="295.102246"/>
      </g>
     </g>
     <g id="text_11">
      <!-- 2020-11 -->
      <g transform="translate(469.888362 333.074092)rotate(-30)scale(0.1 -0.1)">
       <use xlink:href="#DejaVuSans-50"/>
       <use x="63.623047" xlink:href="#DejaVuSans-48"/>
       <use x="127.246094" xlink:href="#DejaVuSans-50"/>
       <use x="190.869141" xlink:href="#DejaVuSans-48"/>
       <use x="254.492188" xlink:href="#DejaVuSans-45"/>
       <use x="290.576172" xlink:href="#DejaVuSans-49"/>
       <use x="354.199219" xlink:href="#DejaVuSans-49"/>
      </g>
     </g>
    </g>
    <g id="text_12">
     <!-- Date -->
     <g transform="translate(273.099151 347.233436)scale(0.11 -0.11)">
      <defs>
       <path d="M 19.671875 64.796875 
L 19.671875 8.109375 
L 31.59375 8.109375 
Q 46.6875 8.109375 53.6875 14.9375 
Q 60.6875 21.78125 60.6875 36.53125 
Q 60.6875 51.171875 53.6875 57.984375 
Q 46.6875 64.796875 31.59375 64.796875 
z
M 9.8125 72.90625 
L 30.078125 72.90625 
Q 51.265625 72.90625 61.171875 64.09375 
Q 71.09375 55.28125 71.09375 36.53125 
Q 71.09375 17.671875 61.125 8.828125 
Q 51.171875 0 30.078125 0 
L 9.8125 0 
z
" id="DejaVuSans-68"/>
       <path d="M 34.28125 27.484375 
Q 23.390625 27.484375 19.1875 25 
Q 14.984375 22.515625 14.984375 16.5 
Q 14.984375 11.71875 18.140625 8.90625 
Q 21.296875 6.109375 26.703125 6.109375 
Q 34.1875 6.109375 38.703125 11.40625 
Q 43.21875 16.703125 43.21875 25.484375 
L 43.21875 27.484375 
z
M 52.203125 31.203125 
L 52.203125 0 
L 43.21875 0 
L 43.21875 8.296875 
Q 40.140625 3.328125 35.546875 0.953125 
Q 30.953125 -1.421875 24.3125 -1.421875 
Q 15.921875 -1.421875 10.953125 3.296875 
Q 6 8.015625 6 15.921875 
Q 6 25.140625 12.171875 29.828125 
Q 18.359375 34.515625 30.609375 34.515625 
L 43.21875 34.515625 
L 43.21875 35.40625 
Q 43.21875 41.609375 39.140625 45 
Q 35.0625 48.390625 27.6875 48.390625 
Q 23 48.390625 18.546875 47.265625 
Q 14.109375 46.140625 10.015625 43.890625 
L 10.015625 52.203125 
Q 14.9375 54.109375 19.578125 55.046875 
Q 24.21875 56 28.609375 56 
Q 40.484375 56 46.34375 49.84375 
Q 52.203125 43.703125 52.203125 31.203125 
z
" id="DejaVuSans-97"/>
       <path d="M 18.3125 70.21875 
L 18.3125 54.6875 
L 36.8125 54.6875 
L 36.8125 47.703125 
L 18.3125 47.703125 
L 18.3125 18.015625 
Q 18.3125 11.328125 20.140625 9.421875 
Q 21.96875 7.515625 27.59375 7.515625 
L 36.8125 7.515625 
L 36.8125 0 
L 27.59375 0 
Q 17.1875 0 13.234375 3.875 
Q 9.28125 7.765625 9.28125 18.015625 
L 9.28125 47.703125 
L 2.6875 47.703125 
L 2.6875 54.6875 
L 9.28125 54.6875 
L 9.28125 70.21875 
z
" id="DejaVuSans-116"/>
       <path d="M 56.203125 29.59375 
L 56.203125 25.203125 
L 14.890625 25.203125 
Q 15.484375 15.921875 20.484375 11.0625 
Q 25.484375 6.203125 34.421875 6.203125 
Q 39.59375 6.203125 44.453125 7.46875 
Q 49.3125 8.734375 54.109375 11.28125 
L 54.109375 2.78125 
Q 49.265625 0.734375 44.1875 -0.34375 
Q 39.109375 -1.421875 33.890625 -1.421875 
Q 20.796875 -1.421875 13.15625 6.1875 
Q 5.515625 13.8125 5.515625 26.8125 
Q 5.515625 40.234375 12.765625 48.109375 
Q 20.015625 56 32.328125 56 
Q 43.359375 56 49.78125 48.890625 
Q 56.203125 41.796875 56.203125 29.59375 
z
M 47.21875 32.234375 
Q 47.125 39.59375 43.09375 43.984375 
Q 39.0625 48.390625 32.421875 48.390625 
Q 24.90625 48.390625 20.390625 44.140625 
Q 15.875 39.890625 15.1875 32.171875 
z
" id="DejaVuSans-101"/>
      </defs>
      <use xlink:href="#DejaVuSans-68"/>
      <use x="77.001953" xlink:href="#DejaVuSans-97"/>
      <use x="138.28125" xlink:href="#DejaVuSans-116"/>
      <use x="177.490234" xlink:href="#DejaVuSans-101"/>
     </g>
    </g>
   </g>
   <g id="matplotlib.axis_2">
    <g id="ytick_1">
     <g id="line2d_12">
      <defs>
       <path d="M 0 0 
L -3.5 0 
" id="mb519e1f72c" style="stroke:#000000;"/>
      </defs>
      <g>
       <use style="stroke:#000000;" x="43.29002" xlink:href="#mb519e1f72c" y="282.906689"/>
      </g>
     </g>
     <g id="text_13">
      <!-- 0 -->
      <g transform="translate(26.42752 286.705908)scale(0.1 -0.1)">
       <use xlink:href="#DejaVuSans-48"/>
      </g>
     </g>
    </g>
    <g id="ytick_2">
     <g id="line2d_13">
      <g>
       <use style="stroke:#000000;" x="43.29002" xlink:href="#mb519e1f72c" y="237.72495"/>
      </g>
     </g>
     <g id="text_14">
      <!-- 100 -->
      <g transform="translate(13.70252 241.524169)scale(0.1 -0.1)">
       <use xlink:href="#DejaVuSans-49"/>
       <use x="63.623047" xlink:href="#DejaVuSans-48"/>
       <use x="127.246094" xlink:href="#DejaVuSans-48"/>
      </g>
     </g>
    </g>
    <g id="ytick_3">
     <g id="line2d_14">
      <g>
       <use style="stroke:#000000;" x="43.29002" xlink:href="#mb519e1f72c" y="192.543211"/>
      </g>
     </g>
     <g id="text_15">
      <!-- 200 -->
      <g transform="translate(13.70252 196.34243)scale(0.1 -0.1)">
       <use xlink:href="#DejaVuSans-50"/>
       <use x="63.623047" xlink:href="#DejaVuSans-48"/>
       <use x="127.246094" xlink:href="#DejaVuSans-48"/>
      </g>
     </g>
    </g>
    <g id="ytick_4">
     <g id="line2d_15">
      <g>
       <use style="stroke:#000000;" x="43.29002" xlink:href="#mb519e1f72c" y="147.361472"/>
      </g>
     </g>
     <g id="text_16">
      <!-- 300 -->
      <g transform="translate(13.70252 151.160691)scale(0.1 -0.1)">
       <use xlink:href="#DejaVuSans-51"/>
       <use x="63.623047" xlink:href="#DejaVuSans-48"/>
       <use x="127.246094" xlink:href="#DejaVuSans-48"/>
      </g>
     </g>
    </g>
    <g id="ytick_5">
     <g id="line2d_16">
      <g>
       <use style="stroke:#000000;" x="43.29002" xlink:href="#mb519e1f72c" y="102.179733"/>
      </g>
     </g>
     <g id="text_17">
      <!-- 400 -->
      <g transform="translate(13.70252 105.978952)scale(0.1 -0.1)">
       <use xlink:href="#DejaVuSans-52"/>
       <use x="63.623047" xlink:href="#DejaVuSans-48"/>
       <use x="127.246094" xlink:href="#DejaVuSans-48"/>
      </g>
     </g>
    </g>
    <g id="ytick_6">
     <g id="line2d_17">
      <g>
       <use style="stroke:#000000;" x="43.29002" xlink:href="#mb519e1f72c" y="56.997994"/>
      </g>
     </g>
     <g id="text_18">
      <!-- 500 -->
      <g transform="translate(13.70252 60.797213)scale(0.1 -0.1)">
       <use xlink:href="#DejaVuSans-53"/>
       <use x="63.623047" xlink:href="#DejaVuSans-48"/>
       <use x="127.246094" xlink:href="#DejaVuSans-48"/>
      </g>
     </g>
    </g>
   </g>
   <g id="line2d_18">
    <path clip-path="url(#pffbc1411e0)" d="M 65.376838 282.906689 
L 148.667192 282.801191 
L 159.078487 282.466349 
L 162.053142 282.142974 
L 163.54047 281.919364 
L 165.027798 281.854001 
L 166.515125 281.492784 
L 169.489781 280.303637 
L 170.977109 279.765825 
L 172.464436 278.99523 
L 173.951764 278.671855 
L 175.439092 277.873739 
L 176.92642 276.845131 
L 178.413748 276.266038 
L 179.901075 274.84984 
L 181.388403 272.696301 
L 182.875731 271.244555 
L 184.363059 269.495808 
L 185.850386 267.989019 
L 187.337714 266.663411 
L 188.825042 263.796613 
L 190.31237 261.762333 
L 191.799697 260.535344 
L 193.287025 259.651223 
L 194.774353 256.15717 
L 196.261681 254.931327 
L 197.749008 254.284577 
L 199.236336 252.956676 
L 200.723664 252.710131 
L 202.210992 251.922335 
L 203.698319 250.85474 
L 205.185647 252.500282 
L 206.672975 252.703251 
L 208.160303 251.698725 
L 209.64763 253.533476 
L 211.134958 254.313245 
L 214.109614 254.968022 
L 215.596942 255.042558 
L 217.084269 255.728297 
L 218.571597 256.60783 
L 220.058925 256.800479 
L 221.546253 256.839467 
L 223.03358 257.964399 
L 224.520908 258.79233 
L 226.008236 260.460807 
L 227.495564 260.617907 
L 228.982891 261.877005 
L 230.470219 263.73125 
L 234.932202 265.68182 
L 236.41953 265.834333 
L 237.906858 266.727628 
L 239.394186 266.896195 
L 240.881513 266.657678 
L 242.368841 267.060176 
L 245.343497 268.993545 
L 246.830825 270.154025 
L 248.318152 270.835176 
L 249.80548 271.723883 
L 251.292808 272.257108 
L 252.780136 273.339611 
L 254.267463 274.007001 
L 257.242119 274.502384 
L 258.729447 274.588388 
L 260.216774 274.829199 
L 263.19143 275.582594 
L 264.678758 275.615848 
L 267.653413 276.029814 
L 273.602724 277.448306 
L 275.090052 278.04804 
L 279.552035 278.882851 
L 281.039363 278.937894 
L 289.96333 280.00549 
L 291.450657 279.768119 
L 292.937985 280.22566 
L 295.912641 280.43895 
L 297.399968 280.496285 
L 300.374624 280.277262 
L 301.861952 280.734803 
L 303.349279 280.518073 
L 307.811263 280.678614 
L 322.68454 281.562734 
L 324.171868 281.482464 
L 327.146524 280.807046 
L 330.121179 279.961914 
L 331.608507 279.695875 
L 334.583162 278.772766 
L 336.07049 278.664975 
L 337.557818 278.690203 
L 339.045146 278.429897 
L 342.019801 278.098496 
L 343.507129 278.327839 
L 346.481785 278.465446 
L 347.969112 278.287704 
L 350.943768 278.233808 
L 364.329718 277.743013 
L 367.304373 277.409317 
L 368.791701 277.264831 
L 371.766356 277.302672 
L 373.253684 277.02746 
L 377.715668 276.811877 
L 380.690323 276.881826 
L 382.177651 276.52405 
L 383.664979 276.704085 
L 385.152306 276.224756 
L 386.639634 276.086003 
L 388.126962 275.818818 
L 389.61429 275.259219 
L 391.101617 274.966805 
L 395.563601 275.151427 
L 397.050928 275.401412 
L 398.538256 275.428933 
L 400.025584 275.8601 
L 401.512912 275.715613 
L 403.000239 275.731667 
L 407.462223 275.29362 
L 408.949551 274.932404 
L 410.436878 274.705353 
L 411.924206 274.899149 
L 413.411534 274.2696 
L 414.898862 273.821233 
L 416.386189 273.848754 
L 417.873517 273.431348 
L 419.360845 273.251313 
L 422.3355 271.933733 
L 423.822828 270.684956 
L 425.310156 269.10363 
L 429.772139 265.467383 
L 432.746795 262.021492 
L 434.234122 261.722198 
L 435.72145 262.030665 
L 437.208778 261.394236 
L 438.696106 260.121378 
L 440.183433 259.880567 
L 443.158089 258.437994 
L 444.645417 257.931144 
L 447.620072 254.453145 
L 449.1074 252.518629 
L 450.594728 249.25736 
L 452.082056 247.018964 
L 453.569383 245.871098 
L 455.056711 244.126938 
L 456.544039 244.629201 
L 458.031367 242.950404 
L 459.518694 242.293334 
L 461.006022 242.342643 
L 462.49335 243.404505 
L 463.980678 236.332687 
L 465.468005 217.401499 
L 468.442661 200.927731 
L 469.929989 194.194195 
L 471.417316 183.457463 
L 472.904644 176.605815 
L 474.391972 174.516493 
L 475.8793 187.045547 
L 477.366628 185.942403 
L 478.853955 184.036556 
L 480.341283 178.757061 
L 481.828611 177.395905 
L 483.315939 175.785911 
L 484.803266 175.016463 
L 486.290594 170.061489 
L 487.777922 164.651267 
L 489.26525 160.633163 
L 490.752577 152.817125 
L 492.239905 151.423861 
L 493.727233 145.759068 
L 495.214561 138.840911 
L 496.701888 136.79631 
L 498.189216 135.05559 
L 499.676544 132.974295 
L 501.163872 134.927158 
L 502.651199 132.191086 
L 504.138527 127.942491 
L 505.625855 128.479155 
L 507.113183 123.760406 
L 507.113183 123.760406 
" style="fill:none;stroke:#1f77b4;stroke-linecap:square;stroke-width:1.75;"/>
   </g>
   <g id="line2d_19">
    <path clip-path="url(#pffbc1411e0)" d="M 65.376838 282.906689 
L 148.667192 282.835803 
L 157.591159 282.516816 
L 162.053142 281.666183 
L 163.54047 281.311752 
L 166.515125 280.921878 
L 172.464436 279.929473 
L 173.951764 279.799515 
L 176.92642 278.310907 
L 178.413748 277.094029 
L 179.901075 275.487277 
L 181.388403 274.199513 
L 182.875731 272.604576 
L 185.850386 270.33622 
L 187.337714 266.260269 
L 188.825042 264.110058 
L 190.31237 262.727779 
L 191.799697 259.963221 
L 193.287025 258.096553 
L 194.774353 255.473767 
L 196.261681 254.575877 
L 197.749008 256.489801 
L 199.236336 256.265329 
L 200.723664 255.083894 
L 202.210992 256.040856 
L 203.698319 256.383472 
L 205.185647 256.844232 
L 206.672975 258.025667 
L 208.160303 257.753937 
L 209.64763 257.115962 
L 211.134958 257.564907 
L 212.622286 257.694865 
L 214.109614 256.560688 
L 215.596942 256.029042 
L 217.084269 254.753092 
L 218.571597 255.568282 
L 220.058925 255.851827 
L 221.546253 255.650983 
L 223.03358 255.875455 
L 224.520908 256.548873 
L 226.008236 257.659422 
L 227.495564 258.439169 
L 228.982891 258.699085 
L 231.957547 259.939592 
L 233.444875 259.786005 
L 234.932202 260.742968 
L 236.41953 261.959846 
L 239.394186 262.633264 
L 240.881513 263.117652 
L 242.368841 264.346345 
L 243.856169 265.244235 
L 245.343497 266.626514 
L 246.830825 266.496556 
L 249.80548 267.24086 
L 251.292808 268.493182 
L 252.780136 268.812169 
L 254.267463 269.780946 
L 255.754791 269.414701 
L 258.729447 271.482212 
L 263.19143 274.175884 
L 264.678758 274.530315 
L 266.166085 275.888965 
L 267.653413 276.243396 
L 269.140741 276.267024 
L 272.115396 277.129472 
L 273.602724 277.80289 
L 275.090052 278.677152 
L 276.57738 278.877996 
L 279.552035 279.811329 
L 281.039363 279.527785 
L 282.526691 279.787701 
L 284.014019 279.775886 
L 285.501346 279.89403 
L 286.988674 280.295718 
L 289.96333 280.295718 
L 291.450657 280.756478 
L 292.937985 281.004579 
L 294.425313 281.382638 
L 297.399968 281.406267 
L 303.349279 281.075465 
L 306.323935 281.146351 
L 309.29859 281.075465 
L 310.785918 281.25268 
L 313.760574 281.429896 
L 318.222557 281.748883 
L 321.197213 282.06787 
L 339.045146 282.280529 
L 342.019801 282.138757 
L 347.969112 282.103313 
L 349.45644 281.937913 
L 352.431096 281.878841 
L 353.918423 281.654368 
L 359.867734 281.429896 
L 361.355062 281.654368 
L 362.84239 281.701626 
L 364.329718 281.914284 
L 365.817045 281.772512 
L 370.279029 281.748883 
L 371.766356 281.429896 
L 374.741012 281.028208 
L 377.715668 279.953102 
L 379.202995 279.799515 
L 380.690323 279.303312 
L 385.152306 278.629894 
L 388.126962 279.055211 
L 389.61429 278.795295 
L 392.588945 278.960696 
L 397.050928 278.996139 
L 398.538256 278.641709 
L 400.025584 278.570823 
L 401.512912 277.720189 
L 404.487567 276.775041 
L 405.974895 276.834113 
L 407.462223 276.633269 
L 408.949551 276.739598 
L 410.436878 276.975885 
L 411.924206 277.389388 
L 413.411534 276.916814 
L 414.898862 275.806265 
L 416.386189 274.506686 
L 417.873517 273.455209 
L 419.360845 273.065335 
L 420.848173 271.789385 
L 422.3355 271.163225 
L 423.822828 270.159005 
L 425.310156 270.324406 
L 426.797484 270.06449 
L 428.284811 270.029047 
L 429.772139 269.320186 
L 431.259467 269.131157 
L 432.746795 268.186009 
L 434.234122 267.760692 
L 435.72145 268.658583 
L 437.208778 267.583477 
L 438.696106 266.307527 
L 440.183433 264.783476 
L 441.670761 264.452674 
L 443.158089 262.928623 
L 444.645417 262.916808 
L 446.132745 260.731153 
L 447.620072 259.360689 
L 449.1074 256.773346 
L 450.594728 254.705835 
L 453.569383 246.211317 
L 455.056711 245.041696 
L 456.544039 245.431569 
L 458.031367 240.434099 
L 459.518694 238.614689 
L 462.49335 233.652662 
L 463.980678 233.061944 
L 465.468005 228.170803 
L 466.955333 222.558987 
L 468.442661 222.629873 
L 469.929989 217.738732 
L 471.417316 213.49738 
L 472.904644 207.932821 
L 474.391972 205.038305 
L 475.8793 202.699063 
L 477.366628 199.580075 
L 478.853955 193.708343 
L 480.341283 189.277961 
L 481.828611 185.450112 
L 483.315939 186.040829 
L 484.803266 184.174162 
L 486.290594 191.735346 
L 487.777922 191.357287 
L 489.26525 189.478805 
L 490.752577 185.816356 
L 492.239905 181.551376 
L 493.727233 179.129434 
L 495.214561 175.986817 
L 496.701888 164.326053 
L 498.189216 162.802002 
L 499.676544 164.326053 
L 501.163872 170.670359 
L 502.651199 177.56994 
L 504.138527 178.987662 
L 505.625855 182.910026 
L 507.113183 184.741251 
L 507.113183 184.741251 
" style="fill:none;stroke:#ff7f0e;stroke-linecap:square;stroke-width:1.75;"/>
   </g>
   <g id="line2d_20">
    <path clip-path="url(#pffbc1411e0)" d="M 65.376838 282.906689 
L 156.103831 282.80433 
L 160.565814 282.169702 
L 162.053142 281.719321 
L 163.54047 281.023277 
L 165.027798 280.450064 
L 166.515125 280.245346 
L 168.002453 280.163458 
L 170.977109 279.774493 
L 172.464436 278.402877 
L 173.951764 277.727305 
L 175.439092 276.887958 
L 176.92642 275.905308 
L 178.413748 273.100662 
L 179.901075 271.217249 
L 181.388403 267.962221 
L 184.363059 264.604834 
L 185.850386 261.759244 
L 187.337714 260.694706 
L 188.825042 258.156194 
L 191.799697 251.277644 
L 193.287025 246.876191 
L 194.774353 242.863704 
L 196.261681 240.980292 
L 197.749008 237.315826 
L 199.236336 237.131579 
L 200.723664 242.618041 
L 202.210992 239.403957 
L 203.698319 240.366135 
L 205.185647 239.895282 
L 206.672975 239.670092 
L 208.160303 240.755101 
L 209.64763 240.980292 
L 211.134958 235.493829 
L 212.622286 240.775573 
L 214.109614 241.758223 
L 217.084269 243.191254 
L 218.571597 241.84011 
L 220.058925 241.799166 
L 221.546253 242.82276 
L 223.03358 242.843232 
L 224.520908 242.699929 
L 226.008236 245.893541 
L 228.982891 248.861963 
L 230.470219 252.076047 
L 231.957547 253.120113 
L 233.444875 254.819278 
L 234.932202 257.194016 
L 237.906858 257.439678 
L 239.394186 259.220731 
L 240.881513 259.671112 
L 242.368841 261.636412 
L 243.856169 261.800187 
L 245.343497 263.130859 
L 246.830825 262.127737 
L 248.318152 263.58124 
L 249.80548 264.400115 
L 252.780136 262.782837 
L 254.267463 263.315106 
L 255.754791 261.984434 
L 257.242119 263.233218 
L 258.729447 263.704072 
L 260.216774 262.455287 
L 261.704102 262.92614 
L 263.19143 262.148209 
L 264.678758 261.902547 
L 266.166085 261.861603 
L 267.653413 262.311984 
L 269.140741 262.209625 
L 270.628069 262.721422 
L 272.115396 262.987556 
L 273.602724 264.911912 
L 275.090052 265.6489 
L 276.57738 267.675615 
L 278.064708 268.862984 
L 279.552035 269.825162 
L 281.039363 271.340081 
L 282.526691 271.647159 
L 284.014019 272.404618 
L 285.501346 272.936887 
L 288.476002 274.697468 
L 289.96333 275.04549 
L 291.450657 275.557287 
L 292.937985 276.458049 
L 294.425313 275.884837 
L 298.887296 275.823421 
L 303.349279 274.636052 
L 304.836607 274.94313 
L 306.323935 275.884837 
L 307.811263 276.294274 
L 309.29859 275.04549 
L 310.785918 274.861243 
L 312.273246 275.147849 
L 313.760574 275.27068 
L 315.247902 273.694346 
L 316.735229 272.998302 
L 318.222557 272.568393 
L 319.709885 274.103784 
L 321.197213 273.182549 
L 322.68454 273.694346 
L 324.171868 274.001424 
L 325.659196 275.721062 
L 327.146524 276.519465 
L 330.121179 276.969846 
L 331.608507 279.180808 
L 336.07049 280.572896 
L 337.557818 280.900446 
L 339.045146 281.453186 
L 342.019801 281.371299 
L 343.507129 280.982333 
L 349.45644 280.654783 
L 350.943768 280.347705 
L 355.405751 280.163458 
L 359.867734 278.64854 
L 361.355062 278.832786 
L 362.84239 278.21863 
L 364.329718 278.239102 
L 365.817045 278.034383 
L 367.304373 278.730427 
L 368.791701 279.119393 
L 370.279029 279.30364 
L 371.766356 278.996561 
L 373.253684 279.426471 
L 374.741012 279.405999 
L 376.22834 279.774493 
L 377.715668 279.651661 
L 379.202995 279.835908 
L 380.690323 279.876852 
L 385.152306 280.531952 
L 386.639634 280.654783 
L 389.61429 280.634311 
L 391.101617 280.470536 
L 392.588945 280.634311 
L 394.076273 280.593368 
L 401.512912 279.549302 
L 405.974895 279.324111 
L 408.949551 278.730427 
L 410.436878 278.730427 
L 411.924206 278.607596 
L 413.411534 277.870608 
L 416.386189 276.990318 
L 417.873517 276.826543 
L 420.848173 276.171443 
L 423.822828 274.554165 
L 426.797484 270.603093 
L 428.284811 268.085053 
L 429.772139 267.020515 
L 432.746795 263.560768 
L 434.234122 262.250569 
L 435.72145 261.226975 
L 437.208778 262.04585 
L 438.696106 261.349806 
L 440.183433 259.998662 
L 443.158089 257.951475 
L 444.645417 257.194016 
L 446.132745 256.14995 
L 447.620072 252.64926 
L 450.594728 245.074666 
L 452.082056 242.310963 
L 455.056711 235.739492 
L 456.544039 234.674954 
L 458.031367 232.934845 
L 459.518694 232.955317 
L 461.006022 231.931723 
L 462.49335 229.024717 
L 463.980678 224.807511 
L 465.468005 223.37448 
L 466.955333 217.028199 
L 468.442661 215.820358 
L 469.929989 208.368596 
L 471.417316 203.455347 
L 472.904644 197.231897 
L 474.391972 196.187831 
L 475.8793 195.471316 
L 477.366628 197.70275 
L 478.853955 190.762785 
L 480.341283 186.791241 
L 481.828611 184.969244 
L 483.315939 180.608735 
L 484.803266 179.646557 
L 486.290594 169.758642 
L 487.777922 166.913052 
L 489.26525 159.051852 
L 490.752577 158.724302 
L 492.239905 150.392249 
L 493.727233 154.855118 
L 495.214561 141.5484 
L 496.701888 138.395731 
L 498.189216 127.504694 
L 499.676544 126.296854 
L 501.163872 117.043567 
L 502.651199 112.109845 
L 504.138527 92.129296 
L 505.625855 92.600149 
L 507.113183 98.434633 
L 507.113183 98.434633 
" style="fill:none;stroke:#2ca02c;stroke-linecap:square;stroke-width:1.75;"/>
   </g>
   <g id="line2d_21">
    <path clip-path="url(#pffbc1411e0)" d="M 65.376838 282.906689 
L 150.15452 282.83852 
L 153.129176 282.599926 
L 156.103831 282.497671 
L 159.078487 282.395417 
L 160.565814 282.122738 
L 163.54047 281.815974 
L 165.027798 281.679635 
L 166.515125 281.338787 
L 168.002453 281.202447 
L 169.489781 280.929768 
L 170.977109 280.963853 
L 172.464436 280.384411 
L 173.951764 280.077647 
L 176.92642 279.157357 
L 178.413748 278.100727 
L 181.388403 276.464654 
L 182.875731 275.544363 
L 184.363059 273.294764 
L 185.850386 269.784025 
L 187.337714 268.795565 
L 188.825042 266.545965 
L 190.31237 264.739468 
L 191.799697 261.467323 
L 193.287025 259.933506 
L 194.774353 259.763081 
L 196.261681 261.603663 
L 197.749008 260.10393 
L 199.236336 260.751542 
L 200.723664 258.945045 
L 202.210992 259.558572 
L 203.698319 258.399688 
L 205.185647 258.467857 
L 206.672975 258.229263 
L 208.160303 258.638281 
L 209.64763 257.377142 
L 211.134958 258.229263 
L 212.622286 257.377142 
L 214.109614 256.695445 
L 215.596942 254.309506 
L 217.084269 254.070913 
L 218.571597 255.945579 
L 220.058925 256.116003 
L 221.546253 255.127543 
L 223.03358 256.184173 
L 224.520908 257.683906 
L 226.008236 260.308439 
L 227.495564 260.887881 
L 228.982891 260.751542 
L 230.470219 262.830717 
L 231.957547 265.182571 
L 233.444875 265.830183 
L 234.932202 267.125407 
L 236.41953 267.261747 
L 237.906858 267.159492 
L 239.394186 266.784559 
L 240.881513 266.852729 
L 242.368841 267.63668 
L 243.856169 269.306837 
L 245.343497 269.647686 
L 248.318152 272.238134 
L 249.80548 272.272218 
L 251.292808 272.033625 
L 254.267463 272.851661 
L 257.242119 273.840121 
L 258.729447 274.317309 
L 260.216774 275.135345 
L 261.704102 276.566909 
L 263.19143 276.430569 
L 264.678758 276.532824 
L 266.166085 276.498739 
L 267.653413 276.600993 
L 269.140741 275.817042 
L 272.115396 275.271685 
L 273.602724 276.157891 
L 275.090052 276.3624 
L 276.57738 277.316775 
L 278.064708 277.930302 
L 281.039363 279.668629 
L 282.526691 280.282156 
L 284.014019 279.702714 
L 285.501346 280.179902 
L 288.476002 280.179902 
L 289.96333 280.384411 
L 291.450657 280.418496 
L 292.937985 280.248072 
L 294.425313 281.236532 
L 295.912641 280.793429 
L 297.399968 281.168362 
L 300.374624 281.202447 
L 301.861952 281.236532 
L 304.836607 281.509211 
L 306.323935 281.952314 
L 315.247902 282.531756 
L 324.171868 282.293162 
L 325.659196 282.088653 
L 330.121179 282.190908 
L 331.608507 282.395417 
L 334.583162 282.224992 
L 336.07049 282.361332 
L 344.994457 282.293162 
L 347.969112 281.338787 
L 355.405751 281.338787 
L 356.893079 281.611465 
L 358.380407 281.747805 
L 362.84239 281.747805 
L 364.329718 281.509211 
L 367.304373 281.509211 
L 368.791701 281.679635 
L 376.22834 281.679635 
L 377.715668 280.486666 
L 379.202995 280.316241 
L 383.664979 280.316241 
L 385.152306 278.952848 
L 386.639634 278.305236 
L 388.126962 279.498205 
L 389.61429 277.487199 
L 391.101617 275.271685 
L 392.588945 274.351394 
L 394.076273 273.022085 
L 395.563601 273.260679 
L 397.050928 273.090255 
L 398.538256 271.624606 
L 400.025584 273.465188 
L 401.512912 273.260679 
L 403.000239 270.124873 
L 404.487567 271.113334 
L 405.974895 270.908825 
L 407.462223 269.613601 
L 408.949551 269.000074 
L 410.436878 266.784559 
L 411.924206 266.171032 
L 413.411534 268.556971 
L 414.898862 266.920898 
L 419.360845 266.614135 
L 420.848173 267.432171 
L 422.3355 266.44371 
L 423.822828 264.500874 
L 425.310156 261.671832 
L 426.797484 261.978596 
L 428.284811 262.728463 
L 429.772139 262.694378 
L 431.259467 261.774087 
L 432.746795 262.251275 
L 434.234122 262.898887 
L 435.72145 263.989602 
L 437.208778 262.660293 
L 438.696106 259.933506 
L 441.670761 254.957119 
L 443.158089 250.935107 
L 444.645417 247.901556 
L 446.132745 247.356199 
L 447.620072 247.492538 
L 449.1074 244.390817 
L 450.594728 243.027424 
L 452.082056 239.278091 
L 453.569383 235.971861 
L 455.056711 235.596928 
L 456.544039 232.358868 
L 458.031367 224.008082 
L 459.518694 217.054774 
L 461.006022 214.668835 
L 462.49335 192.138754 
L 463.980678 178.266223 
L 465.468005 168.892891 
L 466.955333 155.395294 
L 468.442661 143.499684 
L 469.929989 129.729407 
L 471.417316 107.097072 
L 472.904644 102.120685 
L 474.391972 96.121753 
L 475.8793 75.534508 
L 477.366628 66.638364 
L 478.853955 60.025904 
L 480.341283 46.766901 
L 481.828611 52.220476 
L 483.315939 44.755895 
L 484.803266 40.35895 
L 487.777922 44.142368 
L 489.26525 42.438126 
L 490.752577 48.505228 
L 492.239905 38.995557 
L 493.727233 40.597544 
L 498.189216 51.402439 
L 501.163872 64.695528 
L 502.651199 72.194193 
L 504.138527 95.576395 
L 505.625855 104.915642 
L 507.113183 112.107544 
L 507.113183 112.107544 
" style="fill:none;stroke:#d62728;stroke-linecap:square;stroke-width:1.75;"/>
   </g>
   <g id="patch_3">
    <path d="M 43.29002 295.102246 
L 43.29002 26.8 
" style="fill:none;stroke:#000000;stroke-linecap:square;stroke-linejoin:miter;stroke-width:0.8;"/>
   </g>
   <g id="patch_4">
    <path d="M 529.2 295.102246 
L 529.2 26.8 
" style="fill:none;stroke:#000000;stroke-linecap:square;stroke-linejoin:miter;stroke-width:0.8;"/>
   </g>
   <g id="patch_5">
    <path d="M 43.29002 295.102246 
L 529.2 295.102246 
" style="fill:none;stroke:#000000;stroke-linecap:square;stroke-linejoin:miter;stroke-width:0.8;"/>
   </g>
   <g id="patch_6">
    <path d="M 43.29002 26.8 
L 529.2 26.8 
" style="fill:none;stroke:#000000;stroke-linecap:square;stroke-linejoin:miter;stroke-width:0.8;"/>
   </g>
   <g id="text_19">
    <!-- New Cases per Million (7 day rolling) -->
    <g transform="translate(176.469385 20.8)scale(0.12 -0.12)">
     <defs>
      <path d="M 9.8125 72.90625 
L 23.09375 72.90625 
L 55.421875 11.921875 
L 55.421875 72.90625 
L 64.984375 72.90625 
L 64.984375 0 
L 51.703125 0 
L 19.390625 60.984375 
L 19.390625 0 
L 9.8125 0 
z
" id="DejaVuSans-78"/>
      <path d="M 4.203125 54.6875 
L 13.1875 54.6875 
L 24.421875 12.015625 
L 35.59375 54.6875 
L 46.1875 54.6875 
L 57.421875 12.015625 
L 68.609375 54.6875 
L 77.59375 54.6875 
L 63.28125 0 
L 52.6875 0 
L 40.921875 44.828125 
L 29.109375 0 
L 18.5 0 
z
" id="DejaVuSans-119"/>
      <path id="DejaVuSans-32"/>
      <path d="M 64.40625 67.28125 
L 64.40625 56.890625 
Q 59.421875 61.53125 53.78125 63.8125 
Q 48.140625 66.109375 41.796875 66.109375 
Q 29.296875 66.109375 22.65625 58.46875 
Q 16.015625 50.828125 16.015625 36.375 
Q 16.015625 21.96875 22.65625 14.328125 
Q 29.296875 6.6875 41.796875 6.6875 
Q 48.140625 6.6875 53.78125 8.984375 
Q 59.421875 11.28125 64.40625 15.921875 
L 64.40625 5.609375 
Q 59.234375 2.09375 53.4375 0.328125 
Q 47.65625 -1.421875 41.21875 -1.421875 
Q 24.65625 -1.421875 15.125 8.703125 
Q 5.609375 18.84375 5.609375 36.375 
Q 5.609375 53.953125 15.125 64.078125 
Q 24.65625 74.21875 41.21875 74.21875 
Q 47.75 74.21875 53.53125 72.484375 
Q 59.328125 70.75 64.40625 67.28125 
z
" id="DejaVuSans-67"/>
      <path d="M 44.28125 53.078125 
L 44.28125 44.578125 
Q 40.484375 46.53125 36.375 47.5 
Q 32.28125 48.484375 27.875 48.484375 
Q 21.1875 48.484375 17.84375 46.4375 
Q 14.5 44.390625 14.5 40.28125 
Q 14.5 37.15625 16.890625 35.375 
Q 19.28125 33.59375 26.515625 31.984375 
L 29.59375 31.296875 
Q 39.15625 29.25 43.1875 25.515625 
Q 47.21875 21.78125 47.21875 15.09375 
Q 47.21875 7.46875 41.1875 3.015625 
Q 35.15625 -1.421875 24.609375 -1.421875 
Q 20.21875 -1.421875 15.453125 -0.5625 
Q 10.6875 0.296875 5.421875 2 
L 5.421875 11.28125 
Q 10.40625 8.6875 15.234375 7.390625 
Q 20.0625 6.109375 24.8125 6.109375 
Q 31.15625 6.109375 34.5625 8.28125 
Q 37.984375 10.453125 37.984375 14.40625 
Q 37.984375 18.0625 35.515625 20.015625 
Q 33.0625 21.96875 24.703125 23.78125 
L 21.578125 24.515625 
Q 13.234375 26.265625 9.515625 29.90625 
Q 5.8125 33.546875 5.8125 39.890625 
Q 5.8125 47.609375 11.28125 51.796875 
Q 16.75 56 26.8125 56 
Q 31.78125 56 36.171875 55.265625 
Q 40.578125 54.546875 44.28125 53.078125 
z
" id="DejaVuSans-115"/>
      <path d="M 18.109375 8.203125 
L 18.109375 -20.796875 
L 9.078125 -20.796875 
L 9.078125 54.6875 
L 18.109375 54.6875 
L 18.109375 46.390625 
Q 20.953125 51.265625 25.265625 53.625 
Q 29.59375 56 35.59375 56 
Q 45.5625 56 51.78125 48.09375 
Q 58.015625 40.1875 58.015625 27.296875 
Q 58.015625 14.40625 51.78125 6.484375 
Q 45.5625 -1.421875 35.59375 -1.421875 
Q 29.59375 -1.421875 25.265625 0.953125 
Q 20.953125 3.328125 18.109375 8.203125 
z
M 48.6875 27.296875 
Q 48.6875 37.203125 44.609375 42.84375 
Q 40.53125 48.484375 33.40625 48.484375 
Q 26.265625 48.484375 22.1875 42.84375 
Q 18.109375 37.203125 18.109375 27.296875 
Q 18.109375 17.390625 22.1875 11.75 
Q 26.265625 6.109375 33.40625 6.109375 
Q 40.53125 6.109375 44.609375 11.75 
Q 48.6875 17.390625 48.6875 27.296875 
z
" id="DejaVuSans-112"/>
      <path d="M 41.109375 46.296875 
Q 39.59375 47.171875 37.8125 47.578125 
Q 36.03125 48 33.890625 48 
Q 26.265625 48 22.1875 43.046875 
Q 18.109375 38.09375 18.109375 28.8125 
L 18.109375 0 
L 9.078125 0 
L 9.078125 54.6875 
L 18.109375 54.6875 
L 18.109375 46.1875 
Q 20.953125 51.171875 25.484375 53.578125 
Q 30.03125 56 36.53125 56 
Q 37.453125 56 38.578125 55.875 
Q 39.703125 55.765625 41.0625 55.515625 
z
" id="DejaVuSans-114"/>
      <path d="M 9.8125 72.90625 
L 24.515625 72.90625 
L 43.109375 23.296875 
L 61.8125 72.90625 
L 76.515625 72.90625 
L 76.515625 0 
L 66.890625 0 
L 66.890625 64.015625 
L 48.09375 14.015625 
L 38.1875 14.015625 
L 19.390625 64.015625 
L 19.390625 0 
L 9.8125 0 
z
" id="DejaVuSans-77"/>
      <path d="M 9.421875 54.6875 
L 18.40625 54.6875 
L 18.40625 0 
L 9.421875 0 
z
M 9.421875 75.984375 
L 18.40625 75.984375 
L 18.40625 64.59375 
L 9.421875 64.59375 
z
" id="DejaVuSans-105"/>
      <path d="M 9.421875 75.984375 
L 18.40625 75.984375 
L 18.40625 0 
L 9.421875 0 
z
" id="DejaVuSans-108"/>
      <path d="M 30.609375 48.390625 
Q 23.390625 48.390625 19.1875 42.75 
Q 14.984375 37.109375 14.984375 27.296875 
Q 14.984375 17.484375 19.15625 11.84375 
Q 23.34375 6.203125 30.609375 6.203125 
Q 37.796875 6.203125 41.984375 11.859375 
Q 46.1875 17.53125 46.1875 27.296875 
Q 46.1875 37.015625 41.984375 42.703125 
Q 37.796875 48.390625 30.609375 48.390625 
z
M 30.609375 56 
Q 42.328125 56 49.015625 48.375 
Q 55.71875 40.765625 55.71875 27.296875 
Q 55.71875 13.875 49.015625 6.21875 
Q 42.328125 -1.421875 30.609375 -1.421875 
Q 18.84375 -1.421875 12.171875 6.21875 
Q 5.515625 13.875 5.515625 27.296875 
Q 5.515625 40.765625 12.171875 48.375 
Q 18.84375 56 30.609375 56 
z
" id="DejaVuSans-111"/>
      <path d="M 54.890625 33.015625 
L 54.890625 0 
L 45.90625 0 
L 45.90625 32.71875 
Q 45.90625 40.484375 42.875 44.328125 
Q 39.84375 48.1875 33.796875 48.1875 
Q 26.515625 48.1875 22.3125 43.546875 
Q 18.109375 38.921875 18.109375 30.90625 
L 18.109375 0 
L 9.078125 0 
L 9.078125 54.6875 
L 18.109375 54.6875 
L 18.109375 46.1875 
Q 21.34375 51.125 25.703125 53.5625 
Q 30.078125 56 35.796875 56 
Q 45.21875 56 50.046875 50.171875 
Q 54.890625 44.34375 54.890625 33.015625 
z
" id="DejaVuSans-110"/>
      <path d="M 31 75.875 
Q 24.46875 64.65625 21.28125 53.65625 
Q 18.109375 42.671875 18.109375 31.390625 
Q 18.109375 20.125 21.3125 9.0625 
Q 24.515625 -2 31 -13.1875 
L 23.1875 -13.1875 
Q 15.875 -1.703125 12.234375 9.375 
Q 8.59375 20.453125 8.59375 31.390625 
Q 8.59375 42.28125 12.203125 53.3125 
Q 15.828125 64.359375 23.1875 75.875 
z
" id="DejaVuSans-40"/>
      <path d="M 45.40625 46.390625 
L 45.40625 75.984375 
L 54.390625 75.984375 
L 54.390625 0 
L 45.40625 0 
L 45.40625 8.203125 
Q 42.578125 3.328125 38.25 0.953125 
Q 33.9375 -1.421875 27.875 -1.421875 
Q 17.96875 -1.421875 11.734375 6.484375 
Q 5.515625 14.40625 5.515625 27.296875 
Q 5.515625 40.1875 11.734375 48.09375 
Q 17.96875 56 27.875 56 
Q 33.9375 56 38.25 53.625 
Q 42.578125 51.265625 45.40625 46.390625 
z
M 14.796875 27.296875 
Q 14.796875 17.390625 18.875 11.75 
Q 22.953125 6.109375 30.078125 6.109375 
Q 37.203125 6.109375 41.296875 11.75 
Q 45.40625 17.390625 45.40625 27.296875 
Q 45.40625 37.203125 41.296875 42.84375 
Q 37.203125 48.484375 30.078125 48.484375 
Q 22.953125 48.484375 18.875 42.84375 
Q 14.796875 37.203125 14.796875 27.296875 
z
" id="DejaVuSans-100"/>
      <path d="M 32.171875 -5.078125 
Q 28.375 -14.84375 24.75 -17.8125 
Q 21.140625 -20.796875 15.09375 -20.796875 
L 7.90625 -20.796875 
L 7.90625 -13.28125 
L 13.1875 -13.28125 
Q 16.890625 -13.28125 18.9375 -11.515625 
Q 21 -9.765625 23.484375 -3.21875 
L 25.09375 0.875 
L 2.984375 54.6875 
L 12.5 54.6875 
L 29.59375 11.921875 
L 46.6875 54.6875 
L 56.203125 54.6875 
z
" id="DejaVuSans-121"/>
      <path d="M 45.40625 27.984375 
Q 45.40625 37.75 41.375 43.109375 
Q 37.359375 48.484375 30.078125 48.484375 
Q 22.859375 48.484375 18.828125 43.109375 
Q 14.796875 37.75 14.796875 27.984375 
Q 14.796875 18.265625 18.828125 12.890625 
Q 22.859375 7.515625 30.078125 7.515625 
Q 37.359375 7.515625 41.375 12.890625 
Q 45.40625 18.265625 45.40625 27.984375 
z
M 54.390625 6.78125 
Q 54.390625 -7.171875 48.1875 -13.984375 
Q 42 -20.796875 29.203125 -20.796875 
Q 24.46875 -20.796875 20.265625 -20.09375 
Q 16.0625 -19.390625 12.109375 -17.921875 
L 12.109375 -9.1875 
Q 16.0625 -11.328125 19.921875 -12.34375 
Q 23.78125 -13.375 27.78125 -13.375 
Q 36.625 -13.375 41.015625 -8.765625 
Q 45.40625 -4.15625 45.40625 5.171875 
L 45.40625 9.625 
Q 42.625 4.78125 38.28125 2.390625 
Q 33.9375 0 27.875 0 
Q 17.828125 0 11.671875 7.65625 
Q 5.515625 15.328125 5.515625 27.984375 
Q 5.515625 40.671875 11.671875 48.328125 
Q 17.828125 56 27.875 56 
Q 33.9375 56 38.28125 53.609375 
Q 42.625 51.21875 45.40625 46.390625 
L 45.40625 54.6875 
L 54.390625 54.6875 
z
" id="DejaVuSans-103"/>
      <path d="M 8.015625 75.875 
L 15.828125 75.875 
Q 23.140625 64.359375 26.78125 53.3125 
Q 30.421875 42.28125 30.421875 31.390625 
Q 30.421875 20.453125 26.78125 9.375 
Q 23.140625 -1.703125 15.828125 -13.1875 
L 8.015625 -13.1875 
Q 14.5 -2 17.703125 9.0625 
Q 20.90625 20.125 20.90625 31.390625 
Q 20.90625 42.671875 17.703125 53.65625 
Q 14.5 64.65625 8.015625 75.875 
z
" id="DejaVuSans-41"/>
     </defs>
     <use xlink:href="#DejaVuSans-78"/>
     <use x="74.804688" xlink:href="#DejaVuSans-101"/>
     <use x="136.328125" xlink:href="#DejaVuSans-119"/>
     <use x="218.115234" xlink:href="#DejaVuSans-32"/>
     <use x="249.902344" xlink:href="#DejaVuSans-67"/>
     <use x="319.726562" xlink:href="#DejaVuSans-97"/>
     <use x="381.005859" xlink:href="#DejaVuSans-115"/>
     <use x="433.105469" xlink:href="#DejaVuSans-101"/>
     <use x="494.628906" xlink:href="#DejaVuSans-115"/>
     <use x="546.728516" xlink:href="#DejaVuSans-32"/>
     <use x="578.515625" xlink:href="#DejaVuSans-112"/>
     <use x="641.992188" xlink:href="#DejaVuSans-101"/>
     <use x="703.515625" xlink:href="#DejaVuSans-114"/>
     <use x="744.628906" xlink:href="#DejaVuSans-32"/>
     <use x="776.416016" xlink:href="#DejaVuSans-77"/>
     <use x="862.695312" xlink:href="#DejaVuSans-105"/>
     <use x="890.478516" xlink:href="#DejaVuSans-108"/>
     <use x="918.261719" xlink:href="#DejaVuSans-108"/>
     <use x="946.044922" xlink:href="#DejaVuSans-105"/>
     <use x="973.828125" xlink:href="#DejaVuSans-111"/>
     <use x="1035.009766" xlink:href="#DejaVuSans-110"/>
     <use x="1098.388672" xlink:href="#DejaVuSans-32"/>
     <use x="1130.175781" xlink:href="#DejaVuSans-40"/>
     <use x="1169.189453" xlink:href="#DejaVuSans-55"/>
     <use x="1232.8125" xlink:href="#DejaVuSans-32"/>
     <use x="1264.599609" xlink:href="#DejaVuSans-100"/>
     <use x="1328.076172" xlink:href="#DejaVuSans-97"/>
     <use x="1389.355469" xlink:href="#DejaVuSans-121"/>
     <use x="1448.535156" xlink:href="#DejaVuSans-32"/>
     <use x="1480.322266" xlink:href="#DejaVuSans-114"/>
     <use x="1519.185547" xlink:href="#DejaVuSans-111"/>
     <use x="1580.367188" xlink:href="#DejaVuSans-108"/>
     <use x="1608.150391" xlink:href="#DejaVuSans-108"/>
     <use x="1635.933594" xlink:href="#DejaVuSans-105"/>
     <use x="1663.716797" xlink:href="#DejaVuSans-110"/>
     <use x="1727.095703" xlink:href="#DejaVuSans-103"/>
     <use x="1790.572266" xlink:href="#DejaVuSans-41"/>
    </g>
   </g>
   <g id="legend_1">
    <g id="patch_7">
     <path d="M 50.29002 93.5125 
L 185.457208 93.5125 
Q 187.457208 93.5125 187.457208 91.5125 
L 187.457208 33.8 
Q 187.457208 31.8 185.457208 31.8 
L 50.29002 31.8 
Q 48.29002 31.8 48.29002 33.8 
L 48.29002 91.5125 
Q 48.29002 93.5125 50.29002 93.5125 
z
" style="fill:#ffffff;opacity:0.8;stroke:#cccccc;stroke-linejoin:miter;stroke-width:0.3;"/>
    </g>
    <g id="line2d_22">
     <path d="M 52.29002 39.898438 
L 72.29002 39.898438 
" style="fill:none;stroke:#1f77b4;stroke-linecap:square;stroke-width:1.75;"/>
    </g>
    <g id="line2d_23"/>
    <g id="text_20">
     <!-- ENGLAND -->
     <g transform="translate(80.29002 43.398438)scale(0.1 -0.1)">
      <defs>
       <path d="M 9.8125 72.90625 
L 55.90625 72.90625 
L 55.90625 64.59375 
L 19.671875 64.59375 
L 19.671875 43.015625 
L 54.390625 43.015625 
L 54.390625 34.71875 
L 19.671875 34.71875 
L 19.671875 8.296875 
L 56.78125 8.296875 
L 56.78125 0 
L 9.8125 0 
z
" id="DejaVuSans-69"/>
       <path d="M 59.515625 10.40625 
L 59.515625 29.984375 
L 43.40625 29.984375 
L 43.40625 38.09375 
L 69.28125 38.09375 
L 69.28125 6.78125 
Q 63.578125 2.734375 56.6875 0.65625 
Q 49.8125 -1.421875 42 -1.421875 
Q 24.90625 -1.421875 15.25 8.5625 
Q 5.609375 18.5625 5.609375 36.375 
Q 5.609375 54.25 15.25 64.234375 
Q 24.90625 74.21875 42 74.21875 
Q 49.125 74.21875 55.546875 72.453125 
Q 61.96875 70.703125 67.390625 67.28125 
L 67.390625 56.78125 
Q 61.921875 61.421875 55.765625 63.765625 
Q 49.609375 66.109375 42.828125 66.109375 
Q 29.4375 66.109375 22.71875 58.640625 
Q 16.015625 51.171875 16.015625 36.375 
Q 16.015625 21.625 22.71875 14.15625 
Q 29.4375 6.6875 42.828125 6.6875 
Q 48.046875 6.6875 52.140625 7.59375 
Q 56.25 8.5 59.515625 10.40625 
z
" id="DejaVuSans-71"/>
       <path d="M 9.8125 72.90625 
L 19.671875 72.90625 
L 19.671875 8.296875 
L 55.171875 8.296875 
L 55.171875 0 
L 9.8125 0 
z
" id="DejaVuSans-76"/>
       <path d="M 34.1875 63.1875 
L 20.796875 26.90625 
L 47.609375 26.90625 
z
M 28.609375 72.90625 
L 39.796875 72.90625 
L 67.578125 0 
L 57.328125 0 
L 50.6875 18.703125 
L 17.828125 18.703125 
L 11.1875 0 
L 0.78125 0 
z
" id="DejaVuSans-65"/>
      </defs>
      <use xlink:href="#DejaVuSans-69"/>
      <use x="63.183594" xlink:href="#DejaVuSans-78"/>
      <use x="137.988281" xlink:href="#DejaVuSans-71"/>
      <use x="215.478516" xlink:href="#DejaVuSans-76"/>
      <use x="273.441406" xlink:href="#DejaVuSans-65"/>
      <use x="341.849609" xlink:href="#DejaVuSans-78"/>
      <use x="416.654297" xlink:href="#DejaVuSans-68"/>
     </g>
    </g>
    <g id="line2d_24">
     <path d="M 52.29002 54.576563 
L 72.29002 54.576563 
" style="fill:none;stroke:#ff7f0e;stroke-linecap:square;stroke-width:1.75;"/>
    </g>
    <g id="line2d_25"/>
    <g id="text_21">
     <!-- SCOTLAND -->
     <g transform="translate(80.29002 58.076563)scale(0.1 -0.1)">
      <defs>
       <path d="M 53.515625 70.515625 
L 53.515625 60.890625 
Q 47.90625 63.578125 42.921875 64.890625 
Q 37.9375 66.21875 33.296875 66.21875 
Q 25.25 66.21875 20.875 63.09375 
Q 16.5 59.96875 16.5 54.203125 
Q 16.5 49.359375 19.40625 46.890625 
Q 22.3125 44.4375 30.421875 42.921875 
L 36.375 41.703125 
Q 47.40625 39.59375 52.65625 34.296875 
Q 57.90625 29 57.90625 20.125 
Q 57.90625 9.515625 50.796875 4.046875 
Q 43.703125 -1.421875 29.984375 -1.421875 
Q 24.8125 -1.421875 18.96875 -0.25 
Q 13.140625 0.921875 6.890625 3.21875 
L 6.890625 13.375 
Q 12.890625 10.015625 18.65625 8.296875 
Q 24.421875 6.59375 29.984375 6.59375 
Q 38.421875 6.59375 43.015625 9.90625 
Q 47.609375 13.234375 47.609375 19.390625 
Q 47.609375 24.75 44.3125 27.78125 
Q 41.015625 30.8125 33.5 32.328125 
L 27.484375 33.5 
Q 16.453125 35.6875 11.515625 40.375 
Q 6.59375 45.0625 6.59375 53.421875 
Q 6.59375 63.09375 13.40625 68.65625 
Q 20.21875 74.21875 32.171875 74.21875 
Q 37.3125 74.21875 42.625 73.28125 
Q 47.953125 72.359375 53.515625 70.515625 
z
" id="DejaVuSans-83"/>
       <path d="M 39.40625 66.21875 
Q 28.65625 66.21875 22.328125 58.203125 
Q 16.015625 50.203125 16.015625 36.375 
Q 16.015625 22.609375 22.328125 14.59375 
Q 28.65625 6.59375 39.40625 6.59375 
Q 50.140625 6.59375 56.421875 14.59375 
Q 62.703125 22.609375 62.703125 36.375 
Q 62.703125 50.203125 56.421875 58.203125 
Q 50.140625 66.21875 39.40625 66.21875 
z
M 39.40625 74.21875 
Q 54.734375 74.21875 63.90625 63.9375 
Q 73.09375 53.65625 73.09375 36.375 
Q 73.09375 19.140625 63.90625 8.859375 
Q 54.734375 -1.421875 39.40625 -1.421875 
Q 24.03125 -1.421875 14.8125 8.828125 
Q 5.609375 19.09375 5.609375 36.375 
Q 5.609375 53.65625 14.8125 63.9375 
Q 24.03125 74.21875 39.40625 74.21875 
z
" id="DejaVuSans-79"/>
       <path d="M -0.296875 72.90625 
L 61.375 72.90625 
L 61.375 64.59375 
L 35.5 64.59375 
L 35.5 0 
L 25.59375 0 
L 25.59375 64.59375 
L -0.296875 64.59375 
z
" id="DejaVuSans-84"/>
      </defs>
      <use xlink:href="#DejaVuSans-83"/>
      <use x="63.476562" xlink:href="#DejaVuSans-67"/>
      <use x="133.300781" xlink:href="#DejaVuSans-79"/>
      <use x="212.011719" xlink:href="#DejaVuSans-84"/>
      <use x="273.095703" xlink:href="#DejaVuSans-76"/>
      <use x="331.058594" xlink:href="#DejaVuSans-65"/>
      <use x="399.466797" xlink:href="#DejaVuSans-78"/>
      <use x="474.271484" xlink:href="#DejaVuSans-68"/>
     </g>
    </g>
    <g id="line2d_26">
     <path d="M 52.29002 69.254688 
L 72.29002 69.254688 
" style="fill:none;stroke:#2ca02c;stroke-linecap:square;stroke-width:1.75;"/>
    </g>
    <g id="line2d_27"/>
    <g id="text_22">
     <!-- WALES -->
     <g transform="translate(80.29002 72.754688)scale(0.1 -0.1)">
      <defs>
       <path d="M 3.328125 72.90625 
L 13.28125 72.90625 
L 28.609375 11.28125 
L 43.890625 72.90625 
L 54.984375 72.90625 
L 70.3125 11.28125 
L 85.59375 72.90625 
L 95.609375 72.90625 
L 77.296875 0 
L 64.890625 0 
L 49.515625 63.28125 
L 33.984375 0 
L 21.578125 0 
z
" id="DejaVuSans-87"/>
      </defs>
      <use xlink:href="#DejaVuSans-87"/>
      <use x="93.376953" xlink:href="#DejaVuSans-65"/>
      <use x="161.785156" xlink:href="#DejaVuSans-76"/>
      <use x="217.498047" xlink:href="#DejaVuSans-69"/>
      <use x="280.681641" xlink:href="#DejaVuSans-83"/>
     </g>
    </g>
    <g id="line2d_28">
     <path d="M 52.29002 83.932813 
L 72.29002 83.932813 
" style="fill:none;stroke:#d62728;stroke-linecap:square;stroke-width:1.75;"/>
    </g>
    <g id="line2d_29"/>
    <g id="text_23">
     <!-- NORTHERN IRELAND -->
     <g transform="translate(80.29002 87.432813)scale(0.1 -0.1)">
      <defs>
       <path d="M 44.390625 34.1875 
Q 47.5625 33.109375 50.5625 29.59375 
Q 53.5625 26.078125 56.59375 19.921875 
L 66.609375 0 
L 56 0 
L 46.6875 18.703125 
Q 43.0625 26.03125 39.671875 28.421875 
Q 36.28125 30.8125 30.421875 30.8125 
L 19.671875 30.8125 
L 19.671875 0 
L 9.8125 0 
L 9.8125 72.90625 
L 32.078125 72.90625 
Q 44.578125 72.90625 50.734375 67.671875 
Q 56.890625 62.453125 56.890625 51.90625 
Q 56.890625 45.015625 53.6875 40.46875 
Q 50.484375 35.9375 44.390625 34.1875 
z
M 19.671875 64.796875 
L 19.671875 38.921875 
L 32.078125 38.921875 
Q 39.203125 38.921875 42.84375 42.21875 
Q 46.484375 45.515625 46.484375 51.90625 
Q 46.484375 58.296875 42.84375 61.546875 
Q 39.203125 64.796875 32.078125 64.796875 
z
" id="DejaVuSans-82"/>
       <path d="M 9.8125 72.90625 
L 19.671875 72.90625 
L 19.671875 43.015625 
L 55.515625 43.015625 
L 55.515625 72.90625 
L 65.375 72.90625 
L 65.375 0 
L 55.515625 0 
L 55.515625 34.71875 
L 19.671875 34.71875 
L 19.671875 0 
L 9.8125 0 
z
" id="DejaVuSans-72"/>
       <path d="M 9.8125 72.90625 
L 19.671875 72.90625 
L 19.671875 0 
L 9.8125 0 
z
" id="DejaVuSans-73"/>
      </defs>
      <use xlink:href="#DejaVuSans-78"/>
      <use x="74.804688" xlink:href="#DejaVuSans-79"/>
      <use x="153.515625" xlink:href="#DejaVuSans-82"/>
      <use x="215.748047" xlink:href="#DejaVuSans-84"/>
      <use x="276.832031" xlink:href="#DejaVuSans-72"/>
      <use x="352.027344" xlink:href="#DejaVuSans-69"/>
      <use x="415.210938" xlink:href="#DejaVuSans-82"/>
      <use x="484.693359" xlink:href="#DejaVuSans-78"/>
      <use x="559.498047" xlink:href="#DejaVuSans-32"/>
      <use x="591.285156" xlink:href="#DejaVuSans-73"/>
      <use x="620.777344" xlink:href="#DejaVuSans-82"/>
      <use x="690.259766" xlink:href="#DejaVuSans-69"/>
      <use x="753.443359" xlink:href="#DejaVuSans-76"/>
      <use x="811.40625" xlink:href="#DejaVuSans-65"/>
      <use x="879.814453" xlink:href="#DejaVuSans-78"/>
      <use x="954.619141" xlink:href="#DejaVuSans-68"/>
     </g>
    </g>
   </g>
  </g>
 </g>
 <defs>
  <clipPath id="pffbc1411e0">
   <rect height="268.302246" width="485.90998" x="43.29002" y="26.8"/>
  </clipPath>
 </defs>
</svg>
