<?xml version="1.0" encoding="utf-8" standalone="no"?>
<!DOCTYPE svg PUBLIC "-//W3C//DTD SVG 1.1//EN"
  "http://www.w3.org/Graphics/SVG/1.1/DTD/svg11.dtd">
<!-- Created with matplotlib (https://matplotlib.org/) -->
<svg height="360pt" version="1.1" viewBox="0 0 540 360" width="540pt" xmlns="http://www.w3.org/2000/svg" xmlns:xlink="http://www.w3.org/1999/xlink">
 <metadata>
  <rdf:RDF xmlns:cc="http://creativecommons.org/ns#" xmlns:dc="http://purl.org/dc/elements/1.1/" xmlns:rdf="http://www.w3.org/1999/02/22-rdf-syntax-ns#">
   <cc:Work>
    <dc:type rdf:resource="http://purl.org/dc/dcmitype/StillImage"/>
    <dc:date>2020-11-02T15:08:46.573478</dc:date>
    <dc:format>image/svg+xml</dc:format>
    <dc:creator>
     <cc:Agent>
      <dc:title>Matplotlib v3.3.2, https://matplotlib.org/</dc:title>
     </cc:Agent>
    </dc:creator>
   </cc:Work>
  </rdf:RDF>
 </metadata>
 <defs>
  <style type="text/css">*{stroke-linecap:butt;stroke-linejoin:round;}</style>
 </defs>
 <g id="figure_1">
  <g id="patch_1">
   <path d="M 0 360 
L 540 360 
L 540 0 
L 0 0 
z
" style="fill:none;"/>
  </g>
  <g id="axes_1">
   <g id="patch_2">
    <path d="M 43.359498 295.102246 
L 529.2 295.102246 
L 529.2 26.8 
L 43.359498 26.8 
z
" style="fill:#ffffff;"/>
   </g>
   <g id="matplotlib.axis_1">
    <g id="xtick_1">
     <g id="line2d_1">
      <defs>
       <path d="M 0 0 
L 0 3.5 
" id="m77182f2fce" style="stroke:#000000;"/>
      </defs>
      <g>
       <use style="stroke:#000000;" x="53.465579" xlink:href="#m77182f2fce" y="295.102246"/>
      </g>
     </g>
     <g id="text_1">
      <!-- 2020-01 -->
      <g transform="translate(16.240758 333.074092)rotate(-30)scale(0.1 -0.1)">
       <defs>
        <path d="M 19.1875 8.296875 
L 53.609375 8.296875 
L 53.609375 0 
L 7.328125 0 
L 7.328125 8.296875 
Q 12.9375 14.109375 22.625 23.890625 
Q 32.328125 33.6875 34.8125 36.53125 
Q 39.546875 41.84375 41.421875 45.53125 
Q 43.3125 49.21875 43.3125 52.78125 
Q 43.3125 58.59375 39.234375 62.25 
Q 35.15625 65.921875 28.609375 65.921875 
Q 23.96875 65.921875 18.8125 64.3125 
Q 13.671875 62.703125 7.8125 59.421875 
L 7.8125 69.390625 
Q 13.765625 71.78125 18.9375 73 
Q 24.125 74.21875 28.421875 74.21875 
Q 39.75 74.21875 46.484375 68.546875 
Q 53.21875 62.890625 53.21875 53.421875 
Q 53.21875 48.921875 51.53125 44.890625 
Q 49.859375 40.875 45.40625 35.40625 
Q 44.1875 33.984375 37.640625 27.21875 
Q 31.109375 20.453125 19.1875 8.296875 
z
" id="DejaVuSans-50"/>
        <path d="M 31.78125 66.40625 
Q 24.171875 66.40625 20.328125 58.90625 
Q 16.5 51.421875 16.5 36.375 
Q 16.5 21.390625 20.328125 13.890625 
Q 24.171875 6.390625 31.78125 6.390625 
Q 39.453125 6.390625 43.28125 13.890625 
Q 47.125 21.390625 47.125 36.375 
Q 47.125 51.421875 43.28125 58.90625 
Q 39.453125 66.40625 31.78125 66.40625 
z
M 31.78125 74.21875 
Q 44.046875 74.21875 50.515625 64.515625 
Q 56.984375 54.828125 56.984375 36.375 
Q 56.984375 17.96875 50.515625 8.265625 
Q 44.046875 -1.421875 31.78125 -1.421875 
Q 19.53125 -1.421875 13.0625 8.265625 
Q 6.59375 17.96875 6.59375 36.375 
Q 6.59375 54.828125 13.0625 64.515625 
Q 19.53125 74.21875 31.78125 74.21875 
z
" id="DejaVuSans-48"/>
        <path d="M 4.890625 31.390625 
L 31.203125 31.390625 
L 31.203125 23.390625 
L 4.890625 23.390625 
z
" id="DejaVuSans-45"/>
        <path d="M 12.40625 8.296875 
L 28.515625 8.296875 
L 28.515625 63.921875 
L 10.984375 60.40625 
L 10.984375 69.390625 
L 28.421875 72.90625 
L 38.28125 72.90625 
L 38.28125 8.296875 
L 54.390625 8.296875 
L 54.390625 0 
L 12.40625 0 
z
" id="DejaVuSans-49"/>
       </defs>
       <use xlink:href="#DejaVuSans-50"/>
       <use x="63.623047" xlink:href="#DejaVuSans-48"/>
       <use x="127.246094" xlink:href="#DejaVuSans-50"/>
       <use x="190.869141" xlink:href="#DejaVuSans-48"/>
       <use x="254.492188" xlink:href="#DejaVuSans-45"/>
       <use x="290.576172" xlink:href="#DejaVuSans-48"/>
       <use x="354.199219" xlink:href="#DejaVuSans-49"/>
      </g>
     </g>
    </g>
    <g id="xtick_2">
     <g id="line2d_2">
      <g>
       <use style="stroke:#000000;" x="99.878693" xlink:href="#m77182f2fce" y="295.102246"/>
      </g>
     </g>
     <g id="text_2">
      <!-- 2020-02 -->
      <g transform="translate(62.653873 333.074092)rotate(-30)scale(0.1 -0.1)">
       <use xlink:href="#DejaVuSans-50"/>
       <use x="63.623047" xlink:href="#DejaVuSans-48"/>
       <use x="127.246094" xlink:href="#DejaVuSans-50"/>
       <use x="190.869141" xlink:href="#DejaVuSans-48"/>
       <use x="254.492188" xlink:href="#DejaVuSans-45"/>
       <use x="290.576172" xlink:href="#DejaVuSans-48"/>
       <use x="354.199219" xlink:href="#DejaVuSans-50"/>
      </g>
     </g>
    </g>
    <g id="xtick_3">
     <g id="line2d_3">
      <g>
       <use style="stroke:#000000;" x="143.297413" xlink:href="#m77182f2fce" y="295.102246"/>
      </g>
     </g>
     <g id="text_3">
      <!-- 2020-03 -->
      <g transform="translate(106.072592 333.074092)rotate(-30)scale(0.1 -0.1)">
       <defs>
        <path d="M 40.578125 39.3125 
Q 47.65625 37.796875 51.625 33 
Q 55.609375 28.21875 55.609375 21.1875 
Q 55.609375 10.40625 48.1875 4.484375 
Q 40.765625 -1.421875 27.09375 -1.421875 
Q 22.515625 -1.421875 17.65625 -0.515625 
Q 12.796875 0.390625 7.625 2.203125 
L 7.625 11.71875 
Q 11.71875 9.328125 16.59375 8.109375 
Q 21.484375 6.890625 26.8125 6.890625 
Q 36.078125 6.890625 40.9375 10.546875 
Q 45.796875 14.203125 45.796875 21.1875 
Q 45.796875 27.640625 41.28125 31.265625 
Q 36.765625 34.90625 28.71875 34.90625 
L 20.21875 34.90625 
L 20.21875 43.015625 
L 29.109375 43.015625 
Q 36.375 43.015625 40.234375 45.921875 
Q 44.09375 48.828125 44.09375 54.296875 
Q 44.09375 59.90625 40.109375 62.90625 
Q 36.140625 65.921875 28.71875 65.921875 
Q 24.65625 65.921875 20.015625 65.03125 
Q 15.375 64.15625 9.8125 62.3125 
L 9.8125 71.09375 
Q 15.4375 72.65625 20.34375 73.4375 
Q 25.25 74.21875 29.59375 74.21875 
Q 40.828125 74.21875 47.359375 69.109375 
Q 53.90625 64.015625 53.90625 55.328125 
Q 53.90625 49.265625 50.4375 45.09375 
Q 46.96875 40.921875 40.578125 39.3125 
z
" id="DejaVuSans-51"/>
       </defs>
       <use xlink:href="#DejaVuSans-50"/>
       <use x="63.623047" xlink:href="#DejaVuSans-48"/>
       <use x="127.246094" xlink:href="#DejaVuSans-50"/>
       <use x="190.869141" xlink:href="#DejaVuSans-48"/>
       <use x="254.492188" xlink:href="#DejaVuSans-45"/>
       <use x="290.576172" xlink:href="#DejaVuSans-48"/>
       <use x="354.199219" xlink:href="#DejaVuSans-51"/>
      </g>
     </g>
    </g>
    <g id="xtick_4">
     <g id="line2d_4">
      <g>
       <use style="stroke:#000000;" x="189.710527" xlink:href="#m77182f2fce" y="295.102246"/>
      </g>
     </g>
     <g id="text_4">
      <!-- 2020-04 -->
      <g transform="translate(152.485707 333.074092)rotate(-30)scale(0.1 -0.1)">
       <defs>
        <path d="M 37.796875 64.3125 
L 12.890625 25.390625 
L 37.796875 25.390625 
z
M 35.203125 72.90625 
L 47.609375 72.90625 
L 47.609375 25.390625 
L 58.015625 25.390625 
L 58.015625 17.1875 
L 47.609375 17.1875 
L 47.609375 0 
L 37.796875 0 
L 37.796875 17.1875 
L 4.890625 17.1875 
L 4.890625 26.703125 
z
" id="DejaVuSans-52"/>
       </defs>
       <use xlink:href="#DejaVuSans-50"/>
       <use x="63.623047" xlink:href="#DejaVuSans-48"/>
       <use x="127.246094" xlink:href="#DejaVuSans-50"/>
       <use x="190.869141" xlink:href="#DejaVuSans-48"/>
       <use x="254.492188" xlink:href="#DejaVuSans-45"/>
       <use x="290.576172" xlink:href="#DejaVuSans-48"/>
       <use x="354.199219" xlink:href="#DejaVuSans-52"/>
      </g>
     </g>
    </g>
    <g id="xtick_5">
     <g id="line2d_5">
      <g>
       <use style="stroke:#000000;" x="234.626444" xlink:href="#m77182f2fce" y="295.102246"/>
      </g>
     </g>
     <g id="text_5">
      <!-- 2020-05 -->
      <g transform="translate(197.401624 333.074092)rotate(-30)scale(0.1 -0.1)">
       <defs>
        <path d="M 10.796875 72.90625 
L 49.515625 72.90625 
L 49.515625 64.59375 
L 19.828125 64.59375 
L 19.828125 46.734375 
Q 21.96875 47.46875 24.109375 47.828125 
Q 26.265625 48.1875 28.421875 48.1875 
Q 40.625 48.1875 47.75 41.5 
Q 54.890625 34.8125 54.890625 23.390625 
Q 54.890625 11.625 47.5625 5.09375 
Q 40.234375 -1.421875 26.90625 -1.421875 
Q 22.3125 -1.421875 17.546875 -0.640625 
Q 12.796875 0.140625 7.71875 1.703125 
L 7.71875 11.625 
Q 12.109375 9.234375 16.796875 8.0625 
Q 21.484375 6.890625 26.703125 6.890625 
Q 35.15625 6.890625 40.078125 11.328125 
Q 45.015625 15.765625 45.015625 23.390625 
Q 45.015625 31 40.078125 35.4375 
Q 35.15625 39.890625 26.703125 39.890625 
Q 22.75 39.890625 18.8125 39.015625 
Q 14.890625 38.140625 10.796875 36.28125 
z
" id="DejaVuSans-53"/>
       </defs>
       <use xlink:href="#DejaVuSans-50"/>
       <use x="63.623047" xlink:href="#DejaVuSans-48"/>
       <use x="127.246094" xlink:href="#DejaVuSans-50"/>
       <use x="190.869141" xlink:href="#DejaVuSans-48"/>
       <use x="254.492188" xlink:href="#DejaVuSans-45"/>
       <use x="290.576172" xlink:href="#DejaVuSans-48"/>
       <use x="354.199219" xlink:href="#DejaVuSans-53"/>
      </g>
     </g>
    </g>
    <g id="xtick_6">
     <g id="line2d_6">
      <g>
       <use style="stroke:#000000;" x="281.039559" xlink:href="#m77182f2fce" y="295.102246"/>
      </g>
     </g>
     <g id="text_6">
      <!-- 2020-06 -->
      <g transform="translate(243.814738 333.074092)rotate(-30)scale(0.1 -0.1)">
       <defs>
        <path d="M 33.015625 40.375 
Q 26.375 40.375 22.484375 35.828125 
Q 18.609375 31.296875 18.609375 23.390625 
Q 18.609375 15.53125 22.484375 10.953125 
Q 26.375 6.390625 33.015625 6.390625 
Q 39.65625 6.390625 43.53125 10.953125 
Q 47.40625 15.53125 47.40625 23.390625 
Q 47.40625 31.296875 43.53125 35.828125 
Q 39.65625 40.375 33.015625 40.375 
z
M 52.59375 71.296875 
L 52.59375 62.3125 
Q 48.875 64.0625 45.09375 64.984375 
Q 41.3125 65.921875 37.59375 65.921875 
Q 27.828125 65.921875 22.671875 59.328125 
Q 17.53125 52.734375 16.796875 39.40625 
Q 19.671875 43.65625 24.015625 45.921875 
Q 28.375 48.1875 33.59375 48.1875 
Q 44.578125 48.1875 50.953125 41.515625 
Q 57.328125 34.859375 57.328125 23.390625 
Q 57.328125 12.15625 50.6875 5.359375 
Q 44.046875 -1.421875 33.015625 -1.421875 
Q 20.359375 -1.421875 13.671875 8.265625 
Q 6.984375 17.96875 6.984375 36.375 
Q 6.984375 53.65625 15.1875 63.9375 
Q 23.390625 74.21875 37.203125 74.21875 
Q 40.921875 74.21875 44.703125 73.484375 
Q 48.484375 72.75 52.59375 71.296875 
z
" id="DejaVuSans-54"/>
       </defs>
       <use xlink:href="#DejaVuSans-50"/>
       <use x="63.623047" xlink:href="#DejaVuSans-48"/>
       <use x="127.246094" xlink:href="#DejaVuSans-50"/>
       <use x="190.869141" xlink:href="#DejaVuSans-48"/>
       <use x="254.492188" xlink:href="#DejaVuSans-45"/>
       <use x="290.576172" xlink:href="#DejaVuSans-48"/>
       <use x="354.199219" xlink:href="#DejaVuSans-54"/>
      </g>
     </g>
    </g>
    <g id="xtick_7">
     <g id="line2d_7">
      <g>
       <use style="stroke:#000000;" x="325.955476" xlink:href="#m77182f2fce" y="295.102246"/>
      </g>
     </g>
     <g id="text_7">
      <!-- 2020-07 -->
      <g transform="translate(288.730655 333.074092)rotate(-30)scale(0.1 -0.1)">
       <defs>
        <path d="M 8.203125 72.90625 
L 55.078125 72.90625 
L 55.078125 68.703125 
L 28.609375 0 
L 18.3125 0 
L 43.21875 64.59375 
L 8.203125 64.59375 
z
" id="DejaVuSans-55"/>
       </defs>
       <use xlink:href="#DejaVuSans-50"/>
       <use x="63.623047" xlink:href="#DejaVuSans-48"/>
       <use x="127.246094" xlink:href="#DejaVuSans-50"/>
       <use x="190.869141" xlink:href="#DejaVuSans-48"/>
       <use x="254.492188" xlink:href="#DejaVuSans-45"/>
       <use x="290.576172" xlink:href="#DejaVuSans-48"/>
       <use x="354.199219" xlink:href="#DejaVuSans-55"/>
      </g>
     </g>
    </g>
    <g id="xtick_8">
     <g id="line2d_8">
      <g>
       <use style="stroke:#000000;" x="372.36859" xlink:href="#m77182f2fce" y="295.102246"/>
      </g>
     </g>
     <g id="text_8">
      <!-- 2020-08 -->
      <g transform="translate(335.143769 333.074092)rotate(-30)scale(0.1 -0.1)">
       <defs>
        <path d="M 31.78125 34.625 
Q 24.75 34.625 20.71875 30.859375 
Q 16.703125 27.09375 16.703125 20.515625 
Q 16.703125 13.921875 20.71875 10.15625 
Q 24.75 6.390625 31.78125 6.390625 
Q 38.8125 6.390625 42.859375 10.171875 
Q 46.921875 13.96875 46.921875 20.515625 
Q 46.921875 27.09375 42.890625 30.859375 
Q 38.875 34.625 31.78125 34.625 
z
M 21.921875 38.8125 
Q 15.578125 40.375 12.03125 44.71875 
Q 8.5 49.078125 8.5 55.328125 
Q 8.5 64.0625 14.71875 69.140625 
Q 20.953125 74.21875 31.78125 74.21875 
Q 42.671875 74.21875 48.875 69.140625 
Q 55.078125 64.0625 55.078125 55.328125 
Q 55.078125 49.078125 51.53125 44.71875 
Q 48 40.375 41.703125 38.8125 
Q 48.828125 37.15625 52.796875 32.3125 
Q 56.78125 27.484375 56.78125 20.515625 
Q 56.78125 9.90625 50.3125 4.234375 
Q 43.84375 -1.421875 31.78125 -1.421875 
Q 19.734375 -1.421875 13.25 4.234375 
Q 6.78125 9.90625 6.78125 20.515625 
Q 6.78125 27.484375 10.78125 32.3125 
Q 14.796875 37.15625 21.921875 38.8125 
z
M 18.3125 54.390625 
Q 18.3125 48.734375 21.84375 45.5625 
Q 25.390625 42.390625 31.78125 42.390625 
Q 38.140625 42.390625 41.71875 45.5625 
Q 45.3125 48.734375 45.3125 54.390625 
Q 45.3125 60.0625 41.71875 63.234375 
Q 38.140625 66.40625 31.78125 66.40625 
Q 25.390625 66.40625 21.84375 63.234375 
Q 18.3125 60.0625 18.3125 54.390625 
z
" id="DejaVuSans-56"/>
       </defs>
       <use xlink:href="#DejaVuSans-50"/>
       <use x="63.623047" xlink:href="#DejaVuSans-48"/>
       <use x="127.246094" xlink:href="#DejaVuSans-50"/>
       <use x="190.869141" xlink:href="#DejaVuSans-48"/>
       <use x="254.492188" xlink:href="#DejaVuSans-45"/>
       <use x="290.576172" xlink:href="#DejaVuSans-48"/>
       <use x="354.199219" xlink:href="#DejaVuSans-56"/>
      </g>
     </g>
    </g>
    <g id="xtick_9">
     <g id="line2d_9">
      <g>
       <use style="stroke:#000000;" x="418.781704" xlink:href="#m77182f2fce" y="295.102246"/>
      </g>
     </g>
     <g id="text_9">
      <!-- 2020-09 -->
      <g transform="translate(381.556883 333.074092)rotate(-30)scale(0.1 -0.1)">
       <defs>
        <path d="M 10.984375 1.515625 
L 10.984375 10.5 
Q 14.703125 8.734375 18.5 7.8125 
Q 22.3125 6.890625 25.984375 6.890625 
Q 35.75 6.890625 40.890625 13.453125 
Q 46.046875 20.015625 46.78125 33.40625 
Q 43.953125 29.203125 39.59375 26.953125 
Q 35.25 24.703125 29.984375 24.703125 
Q 19.046875 24.703125 12.671875 31.3125 
Q 6.296875 37.9375 6.296875 49.421875 
Q 6.296875 60.640625 12.9375 67.421875 
Q 19.578125 74.21875 30.609375 74.21875 
Q 43.265625 74.21875 49.921875 64.515625 
Q 56.59375 54.828125 56.59375 36.375 
Q 56.59375 19.140625 48.40625 8.859375 
Q 40.234375 -1.421875 26.421875 -1.421875 
Q 22.703125 -1.421875 18.890625 -0.6875 
Q 15.09375 0.046875 10.984375 1.515625 
z
M 30.609375 32.421875 
Q 37.25 32.421875 41.125 36.953125 
Q 45.015625 41.5 45.015625 49.421875 
Q 45.015625 57.28125 41.125 61.84375 
Q 37.25 66.40625 30.609375 66.40625 
Q 23.96875 66.40625 20.09375 61.84375 
Q 16.21875 57.28125 16.21875 49.421875 
Q 16.21875 41.5 20.09375 36.953125 
Q 23.96875 32.421875 30.609375 32.421875 
z
" id="DejaVuSans-57"/>
       </defs>
       <use xlink:href="#DejaVuSans-50"/>
       <use x="63.623047" xlink:href="#DejaVuSans-48"/>
       <use x="127.246094" xlink:href="#DejaVuSans-50"/>
       <use x="190.869141" xlink:href="#DejaVuSans-48"/>
       <use x="254.492188" xlink:href="#DejaVuSans-45"/>
       <use x="290.576172" xlink:href="#DejaVuSans-48"/>
       <use x="354.199219" xlink:href="#DejaVuSans-57"/>
      </g>
     </g>
    </g>
    <g id="xtick_10">
     <g id="line2d_10">
      <g>
       <use style="stroke:#000000;" x="463.697621" xlink:href="#m77182f2fce" y="295.102246"/>
      </g>
     </g>
     <g id="text_10">
      <!-- 2020-10 -->
      <g transform="translate(426.4728 333.074092)rotate(-30)scale(0.1 -0.1)">
       <use xlink:href="#DejaVuSans-50"/>
       <use x="63.623047" xlink:href="#DejaVuSans-48"/>
       <use x="127.246094" xlink:href="#DejaVuSans-50"/>
       <use x="190.869141" xlink:href="#DejaVuSans-48"/>
       <use x="254.492188" xlink:href="#DejaVuSans-45"/>
       <use x="290.576172" xlink:href="#DejaVuSans-49"/>
       <use x="354.199219" xlink:href="#DejaVuSans-48"/>
      </g>
     </g>
    </g>
    <g id="xtick_11">
     <g id="line2d_11">
      <g>
       <use style="stroke:#000000;" x="510.110735" xlink:href="#m77182f2fce" y="295.102246"/>
      </g>
     </g>
     <g id="text_11">
      <!-- 2020-11 -->
      <g transform="translate(472.885914 333.074092)rotate(-30)scale(0.1 -0.1)">
       <use xlink:href="#DejaVuSans-50"/>
       <use x="63.623047" xlink:href="#DejaVuSans-48"/>
       <use x="127.246094" xlink:href="#DejaVuSans-50"/>
       <use x="190.869141" xlink:href="#DejaVuSans-48"/>
       <use x="254.492188" xlink:href="#DejaVuSans-45"/>
       <use x="290.576172" xlink:href="#DejaVuSans-49"/>
       <use x="354.199219" xlink:href="#DejaVuSans-49"/>
      </g>
     </g>
    </g>
    <g id="text_12">
     <!-- Date -->
     <g transform="translate(273.13389 347.233436)scale(0.11 -0.11)">
      <defs>
       <path d="M 19.671875 64.796875 
L 19.671875 8.109375 
L 31.59375 8.109375 
Q 46.6875 8.109375 53.6875 14.9375 
Q 60.6875 21.78125 60.6875 36.53125 
Q 60.6875 51.171875 53.6875 57.984375 
Q 46.6875 64.796875 31.59375 64.796875 
z
M 9.8125 72.90625 
L 30.078125 72.90625 
Q 51.265625 72.90625 61.171875 64.09375 
Q 71.09375 55.28125 71.09375 36.53125 
Q 71.09375 17.671875 61.125 8.828125 
Q 51.171875 0 30.078125 0 
L 9.8125 0 
z
" id="DejaVuSans-68"/>
       <path d="M 34.28125 27.484375 
Q 23.390625 27.484375 19.1875 25 
Q 14.984375 22.515625 14.984375 16.5 
Q 14.984375 11.71875 18.140625 8.90625 
Q 21.296875 6.109375 26.703125 6.109375 
Q 34.1875 6.109375 38.703125 11.40625 
Q 43.21875 16.703125 43.21875 25.484375 
L 43.21875 27.484375 
z
M 52.203125 31.203125 
L 52.203125 0 
L 43.21875 0 
L 43.21875 8.296875 
Q 40.140625 3.328125 35.546875 0.953125 
Q 30.953125 -1.421875 24.3125 -1.421875 
Q 15.921875 -1.421875 10.953125 3.296875 
Q 6 8.015625 6 15.921875 
Q 6 25.140625 12.171875 29.828125 
Q 18.359375 34.515625 30.609375 34.515625 
L 43.21875 34.515625 
L 43.21875 35.40625 
Q 43.21875 41.609375 39.140625 45 
Q 35.0625 48.390625 27.6875 48.390625 
Q 23 48.390625 18.546875 47.265625 
Q 14.109375 46.140625 10.015625 43.890625 
L 10.015625 52.203125 
Q 14.9375 54.109375 19.578125 55.046875 
Q 24.21875 56 28.609375 56 
Q 40.484375 56 46.34375 49.84375 
Q 52.203125 43.703125 52.203125 31.203125 
z
" id="DejaVuSans-97"/>
       <path d="M 18.3125 70.21875 
L 18.3125 54.6875 
L 36.8125 54.6875 
L 36.8125 47.703125 
L 18.3125 47.703125 
L 18.3125 18.015625 
Q 18.3125 11.328125 20.140625 9.421875 
Q 21.96875 7.515625 27.59375 7.515625 
L 36.8125 7.515625 
L 36.8125 0 
L 27.59375 0 
Q 17.1875 0 13.234375 3.875 
Q 9.28125 7.765625 9.28125 18.015625 
L 9.28125 47.703125 
L 2.6875 47.703125 
L 2.6875 54.6875 
L 9.28125 54.6875 
L 9.28125 70.21875 
z
" id="DejaVuSans-116"/>
       <path d="M 56.203125 29.59375 
L 56.203125 25.203125 
L 14.890625 25.203125 
Q 15.484375 15.921875 20.484375 11.0625 
Q 25.484375 6.203125 34.421875 6.203125 
Q 39.59375 6.203125 44.453125 7.46875 
Q 49.3125 8.734375 54.109375 11.28125 
L 54.109375 2.78125 
Q 49.265625 0.734375 44.1875 -0.34375 
Q 39.109375 -1.421875 33.890625 -1.421875 
Q 20.796875 -1.421875 13.15625 6.1875 
Q 5.515625 13.8125 5.515625 26.8125 
Q 5.515625 40.234375 12.765625 48.109375 
Q 20.015625 56 32.328125 56 
Q 43.359375 56 49.78125 48.890625 
Q 56.203125 41.796875 56.203125 29.59375 
z
M 47.21875 32.234375 
Q 47.125 39.59375 43.09375 43.984375 
Q 39.0625 48.390625 32.421875 48.390625 
Q 24.90625 48.390625 20.390625 44.140625 
Q 15.875 39.890625 15.1875 32.171875 
z
" id="DejaVuSans-101"/>
      </defs>
      <use xlink:href="#DejaVuSans-68"/>
      <use x="77.001953" xlink:href="#DejaVuSans-97"/>
      <use x="138.28125" xlink:href="#DejaVuSans-116"/>
      <use x="177.490234" xlink:href="#DejaVuSans-101"/>
     </g>
    </g>
   </g>
   <g id="matplotlib.axis_2">
    <g id="ytick_1">
     <g id="line2d_12">
      <defs>
       <path d="M 0 0 
L -3.5 0 
" id="mc27299abab" style="stroke:#000000;"/>
      </defs>
      <g>
       <use style="stroke:#000000;" x="43.359498" xlink:href="#mc27299abab" y="282.906689"/>
      </g>
     </g>
     <g id="text_13">
      <!-- 0 -->
      <g transform="translate(26.496998 286.705908)scale(0.1 -0.1)">
       <use xlink:href="#DejaVuSans-48"/>
      </g>
     </g>
    </g>
    <g id="ytick_2">
     <g id="line2d_13">
      <g>
       <use style="stroke:#000000;" x="43.359498" xlink:href="#mc27299abab" y="232.860803"/>
      </g>
     </g>
     <g id="text_14">
      <!-- 10 -->
      <g transform="translate(20.134498 236.660022)scale(0.1 -0.1)">
       <use xlink:href="#DejaVuSans-49"/>
       <use x="63.623047" xlink:href="#DejaVuSans-48"/>
      </g>
     </g>
    </g>
    <g id="ytick_3">
     <g id="line2d_14">
      <g>
       <use style="stroke:#000000;" x="43.359498" xlink:href="#mc27299abab" y="182.814917"/>
      </g>
     </g>
     <g id="text_15">
      <!-- 20 -->
      <g transform="translate(20.134498 186.614136)scale(0.1 -0.1)">
       <use xlink:href="#DejaVuSans-50"/>
       <use x="63.623047" xlink:href="#DejaVuSans-48"/>
      </g>
     </g>
    </g>
    <g id="ytick_4">
     <g id="line2d_15">
      <g>
       <use style="stroke:#000000;" x="43.359498" xlink:href="#mc27299abab" y="132.769031"/>
      </g>
     </g>
     <g id="text_16">
      <!-- 30 -->
      <g transform="translate(20.134498 136.56825)scale(0.1 -0.1)">
       <use xlink:href="#DejaVuSans-51"/>
       <use x="63.623047" xlink:href="#DejaVuSans-48"/>
      </g>
     </g>
    </g>
    <g id="ytick_5">
     <g id="line2d_16">
      <g>
       <use style="stroke:#000000;" x="43.359498" xlink:href="#mc27299abab" y="82.723145"/>
      </g>
     </g>
     <g id="text_17">
      <!-- 40 -->
      <g transform="translate(20.134498 86.522364)scale(0.1 -0.1)">
       <use xlink:href="#DejaVuSans-52"/>
       <use x="63.623047" xlink:href="#DejaVuSans-48"/>
      </g>
     </g>
    </g>
    <g id="ytick_6">
     <g id="line2d_17">
      <g>
       <use style="stroke:#000000;" x="43.359498" xlink:href="#mc27299abab" y="32.677259"/>
      </g>
     </g>
     <g id="text_18">
      <!-- 50 -->
      <g transform="translate(20.134498 36.476478)scale(0.1 -0.1)">
       <use xlink:href="#DejaVuSans-53"/>
       <use x="63.623047" xlink:href="#DejaVuSans-48"/>
      </g>
     </g>
    </g>
   </g>
   <g id="line2d_18">
    <path clip-path="url(#p4b9daeaff5)" d="M 65.443157 282.906689 
L 168.749766 282.906689 
L 170.246963 275.463481 
L 171.744161 266.686593 
L 173.241358 256.817356 
L 174.738555 245.906578 
L 176.235752 231.579038 
L 177.73295 211.967582 
L 179.230147 189.676063 
L 180.727344 176.301152 
L 182.224541 160.551019 
L 183.721739 146.629933 
L 185.218936 129.774751 
L 186.716133 108.321545 
L 188.21333 96.851892 
L 191.207725 63.357456 
L 192.704922 55.317267 
L 194.202119 46.172029 
L 195.699316 41.01513 
L 197.196514 42.767968 
L 198.693711 38.995557 
L 200.190908 45.092382 
L 201.688105 52.611801 
L 203.185303 57.286034 
L 204.6825 65.389731 
L 209.174091 96.547051 
L 210.671289 109.38849 
L 213.665683 123.169856 
L 215.16288 130.079592 
L 216.660078 134.093336 
L 219.654472 143.670433 
L 221.151669 147.455545 
L 222.648867 153.653985 
L 224.146064 158.696568 
L 225.643261 162.900837 
L 227.140458 166.292196 
L 228.637655 168.553103 
L 230.134853 171.080745 
L 231.63205 171.271271 
L 233.129247 172.058777 
L 234.626444 174.548314 
L 236.123642 175.818486 
L 237.620839 177.482412 
L 239.118036 180.657842 
L 240.615233 184.938322 
L 242.112431 188.17726 
L 243.609628 191.085954 
L 245.106825 195.379136 
L 246.604022 197.690849 
L 248.10122 201.768101 
L 249.598417 204.664093 
L 251.095614 206.124791 
L 254.090008 212.107301 
L 255.587206 212.17081 
L 257.084403 213.783928 
L 258.5816 214.838171 
L 260.078797 216.5275 
L 261.575995 217.696058 
L 263.073192 218.610582 
L 264.570389 219.220264 
L 266.067586 220.490436 
L 269.061981 224.847126 
L 270.559178 227.832031 
L 272.056375 230.04213 
L 276.547967 235.465764 
L 278.045164 235.94843 
L 279.542361 236.596218 
L 281.039559 236.291376 
L 282.536756 236.608919 
L 284.033953 237.853688 
L 287.028348 240.787785 
L 288.525545 242.82006 
L 290.022742 244.382372 
L 291.519939 246.592471 
L 293.017137 248.57394 
L 294.514334 249.704393 
L 296.011531 251.330213 
L 297.508728 252.371754 
L 299.005925 252.892525 
L 300.503123 253.108454 
L 302.00032 252.892525 
L 303.497517 253.438699 
L 304.994714 254.302415 
L 306.491912 254.531046 
L 307.989109 255.102624 
L 310.983503 257.28732 
L 312.480701 257.884301 
L 315.475095 259.80226 
L 316.972292 260.513557 
L 318.469489 260.577065 
L 319.966687 260.259522 
L 321.463884 261.021625 
L 322.961081 262.876077 
L 324.458278 263.968425 
L 325.955476 264.743229 
L 328.94987 267.397889 
L 330.447067 268.528342 
L 333.441462 269.112621 
L 334.938659 269.633392 
L 336.435856 270.395495 
L 337.933053 270.560617 
L 339.430251 271.09409 
L 340.927448 271.386229 
L 342.424645 272.135631 
L 343.921842 272.300753 
L 348.413434 273.227979 
L 349.910631 273.494715 
L 351.407829 274.117099 
L 352.905026 274.117099 
L 355.89942 275.311061 
L 357.396618 275.742919 
L 358.893815 275.806428 
L 361.888209 275.463481 
L 366.379801 275.742919 
L 367.876998 275.984252 
L 370.871393 276.898776 
L 373.865787 277.178214 
L 378.357379 277.457651 
L 379.854576 277.749791 
L 381.351773 277.686282 
L 382.84897 277.330634 
L 384.346168 277.381441 
L 385.843365 277.686282 
L 387.340562 277.622774 
L 388.837759 277.737089 
L 390.334957 277.635475 
L 391.832154 277.698984 
L 393.329351 278.207053 
L 394.826548 278.384877 
L 402.312535 278.70242 
L 403.809732 278.867542 
L 405.306929 278.804034 
L 406.804126 278.867542 
L 408.301323 278.816735 
L 409.798521 278.892946 
L 411.295718 278.588104 
L 412.792915 278.651613 
L 414.290112 278.308667 
L 415.78731 278.384877 
L 417.284507 278.245158 
L 418.781704 278.270561 
L 420.278901 277.927615 
L 421.776099 277.927615 
L 423.273296 277.635475 
L 430.759282 274.853799 
L 433.753676 273.050154 
L 435.250874 272.42777 
L 436.748071 271.564053 
L 439.742465 269.239638 
L 442.73686 267.931361 
L 447.228451 265.200491 
L 448.725649 263.892214 
L 450.222846 262.952287 
L 451.720043 261.288362 
L 453.21724 260.157908 
L 454.714438 259.28149 
L 456.211635 258.760719 
L 457.708832 258.709912 
L 460.703227 257.757283 
L 462.200424 257.579459 
L 463.697621 256.563322 
L 465.194818 255.331255 
L 466.692016 253.540312 
L 468.189213 250.530005 
L 469.68641 248.446922 
L 471.183607 245.728754 
L 472.680804 243.658374 
L 474.178002 241.816625 
L 475.675199 239.619227 
L 477.172396 237.980705 
L 478.669593 236.075447 
L 480.166791 233.636717 
L 481.663988 230.588304 
L 483.161185 227.857434 
L 484.658382 224.313654 
L 486.15558 223.195903 
L 487.652777 219.766438 
L 489.149974 216.692622 
L 490.647171 214.190383 
L 492.144368 212.145406 
L 493.641566 208.449206 
L 495.138763 205.97237 
L 496.63596 201.336242 
L 498.133157 198.73239 
L 499.630355 194.718646 
L 501.127552 189.409327 
L 502.624749 186.043371 
L 504.121946 182.969555 
L 505.619144 178.422339 
L 507.116341 191.085954 
L 507.116341 191.085954 
" style="fill:none;stroke:#1f77b4;stroke-linecap:square;stroke-width:1.75;"/>
   </g>
   <g id="line2d_19">
    <path clip-path="url(#p4b9daeaff5)" d="M 65.443157 282.906689 
L 141.800216 282.906689 
L 143.297413 282.252377 
L 147.789005 277.541326 
L 149.286202 275.054938 
L 150.783399 272.306825 
L 152.280597 271.129062 
L 153.777794 270.343887 
L 155.274991 269.427849 
L 158.269386 265.109386 
L 159.766583 264.455073 
L 161.26378 264.062486 
L 162.760977 262.361273 
L 164.258174 261.576098 
L 167.252569 258.697122 
L 168.749766 256.603322 
L 170.246963 254.247797 
L 171.744161 247.966395 
L 173.241358 242.601032 
L 174.738555 238.020844 
L 176.235752 229.514779 
L 177.73295 222.186478 
L 179.230147 211.848339 
L 180.727344 197.060873 
L 182.224541 187.377047 
L 183.721739 175.206832 
L 185.218936 164.083517 
L 186.716133 151.520715 
L 189.710527 128.096323 
L 191.207725 126.39511 
L 192.704922 117.758184 
L 194.202119 118.150771 
L 195.699316 115.140933 
L 197.196514 113.570583 
L 198.693711 115.271796 
L 200.190908 122.73096 
L 201.688105 127.703736 
L 203.185303 140.266538 
L 206.179697 159.765054 
L 207.676894 172.982169 
L 209.174091 182.142546 
L 210.671289 189.863435 
L 212.168486 194.181898 
L 213.665683 195.097936 
L 215.16288 195.752248 
L 216.660078 199.416399 
L 218.157275 203.865725 
L 222.648867 216.297664 
L 224.146064 218.65319 
L 225.643261 222.709928 
L 227.140458 225.065454 
L 228.637655 224.018553 
L 230.134853 223.756828 
L 231.63205 226.112354 
L 233.129247 227.420979 
L 234.626444 232.13203 
L 236.123642 231.739442 
L 237.620839 231.739442 
L 239.118036 234.74928 
L 240.615233 238.936881 
L 242.112431 239.067744 
L 243.609628 241.684994 
L 245.106825 244.694832 
L 246.604022 248.097258 
L 248.10122 249.798471 
L 249.598417 252.415721 
L 251.095614 252.808309 
L 252.592811 255.425559 
L 254.090008 256.603322 
L 255.587206 256.734184 
L 257.084403 256.99591 
L 258.5816 259.220572 
L 260.078797 260.005748 
L 261.575995 263.277311 
L 263.073192 264.324211 
L 264.570389 266.156286 
L 266.067586 268.250087 
L 267.564784 268.773537 
L 269.061981 268.904399 
L 270.559178 270.736475 
L 272.056375 270.47475 
L 275.05077 272.306825 
L 276.547967 272.961137 
L 278.045164 274.400625 
L 279.542361 274.1389 
L 281.039559 274.924075 
L 282.536756 276.232701 
L 284.033953 276.756151 
L 287.028348 276.756151 
L 288.525545 276.494426 
L 291.519939 277.541326 
L 296.011531 277.541326 
L 297.508728 278.719089 
L 299.005925 278.849951 
L 300.503123 278.849951 
L 302.00032 278.457364 
L 303.497517 278.457364 
L 304.994714 278.588226 
L 306.491912 278.980814 
L 307.989109 278.588226 
L 309.486306 278.849951 
L 310.983503 279.504264 
L 312.480701 279.765989 
L 313.977898 279.765989 
L 315.475095 280.158576 
L 316.972292 280.289439 
L 318.469489 280.812889 
L 321.463884 280.551164 
L 322.961081 280.943751 
L 324.458278 281.467202 
L 325.955476 281.598064 
L 327.452673 281.859789 
L 328.94987 281.728927 
L 330.447067 281.990652 
L 331.944265 282.121514 
L 333.441462 281.859789 
L 334.938659 281.728927 
L 336.435856 281.990652 
L 337.933053 281.990652 
L 340.927448 281.728927 
L 342.424645 281.728927 
L 343.921842 282.121514 
L 345.41904 282.252377 
L 346.916237 282.252377 
L 348.413434 281.990652 
L 351.407829 282.514102 
L 352.905026 282.383239 
L 355.89942 282.383239 
L 357.396618 282.252377 
L 358.893815 282.383239 
L 360.391012 282.383239 
L 361.888209 281.990652 
L 363.385406 282.252377 
L 364.882604 282.121514 
L 366.379801 282.121514 
L 367.876998 281.990652 
L 369.374195 282.121514 
L 370.871393 281.859789 
L 372.36859 282.121514 
L 373.865787 282.121514 
L 375.362984 281.990652 
L 376.860182 281.728927 
L 378.357379 281.598064 
L 379.854576 281.598064 
L 382.84897 281.336339 
L 384.346168 281.336339 
L 385.843365 281.205477 
L 388.837759 281.467202 
L 390.334957 281.336339 
L 391.832154 281.336339 
L 393.329351 280.682026 
L 399.31814 280.158576 
L 400.815337 279.635126 
L 402.312535 279.765989 
L 403.809732 280.158576 
L 405.306929 280.289439 
L 406.804126 280.289439 
L 408.301323 279.504264 
L 409.798521 279.111676 
L 411.295718 279.373401 
L 412.792915 278.980814 
L 414.290112 279.111676 
L 415.78731 278.849951 
L 417.284507 278.849951 
L 418.781704 279.765989 
L 420.278901 279.896851 
L 421.776099 279.896851 
L 423.273296 278.849951 
L 424.770493 278.457364 
L 426.26769 278.195638 
L 427.764887 277.803051 
L 429.262085 277.017876 
L 430.759282 277.017876 
L 432.256479 275.1858 
L 433.753676 275.054938 
L 438.245268 273.484588 
L 439.742465 272.830275 
L 441.239663 270.213024 
L 442.73686 270.47475 
L 444.234057 271.259925 
L 447.228451 269.951299 
L 448.725649 268.773537 
L 450.222846 266.810599 
L 451.720043 267.988362 
L 453.21724 266.287149 
L 454.714438 263.146448 
L 456.211635 261.70696 
L 457.708832 259.874885 
L 459.206029 257.781085 
L 460.703227 257.51936 
L 462.200424 254.509522 
L 463.697621 250.976233 
L 465.194818 249.405883 
L 466.692016 247.442945 
L 468.189213 246.13432 
L 469.68641 242.731894 
L 471.183607 235.665318 
L 472.680804 231.739442 
L 474.178002 228.206154 
L 475.675199 225.588904 
L 477.172396 223.364241 
L 478.669593 219.17664 
L 481.663988 213.026101 
L 483.161185 209.361951 
L 484.658382 208.576776 
L 486.15558 202.687962 
L 487.652777 201.117612 
L 489.149974 201.117612 
L 490.647171 197.846049 
L 492.144368 197.191736 
L 493.641566 196.275698 
L 495.138763 194.574485 
L 496.63596 196.275698 
L 498.133157 194.574485 
L 499.630355 191.041197 
L 501.127552 192.21896 
L 504.121946 195.228798 
L 507.116341 221.008715 
L 507.116341 221.008715 
" style="fill:none;stroke:#ff7f0e;stroke-linecap:square;stroke-width:1.75;"/>
   </g>
   <g id="line2d_20">
    <path clip-path="url(#p4b9daeaff5)" d="M 65.443157 282.906689 
L 174.738555 282.906689 
L 176.235752 275.650426 
L 177.73295 261.364658 
L 179.230147 221.001695 
L 180.727344 196.738566 
L 183.721739 141.40956 
L 185.218936 111.250717 
L 186.716133 85.173522 
L 188.21333 63.631491 
L 189.710527 57.055503 
L 191.207725 49.79924 
L 192.704922 51.613305 
L 194.202119 49.79924 
L 195.699316 49.572481 
L 197.196514 55.014679 
L 198.693711 46.397866 
L 200.190908 57.509019 
L 201.688105 60.456876 
L 203.185303 56.14847 
L 204.6825 62.4977 
L 206.179697 54.78792 
L 207.676894 53.200613 
L 209.174091 73.608853 
L 210.671289 75.19616 
L 212.168486 80.184841 
L 215.16288 69.980721 
L 216.660078 84.946764 
L 218.157275 88.574895 
L 219.654472 86.080555 
L 221.151669 91.522752 
L 222.648867 84.720005 
L 225.643261 92.203027 
L 227.140458 93.336818 
L 228.637655 97.645224 
L 230.134853 92.656543 
L 231.63205 92.656543 
L 233.129247 93.11006 
L 234.626444 99.45929 
L 236.123642 92.656543 
L 237.620839 93.336818 
L 239.118036 87.441104 
L 240.615233 88.121379 
L 242.112431 93.563576 
L 243.609628 96.511433 
L 245.106825 91.976268 
L 246.604022 100.139564 
L 248.10122 95.6044 
L 249.598417 98.552257 
L 251.095614 108.529618 
L 252.592811 104.901487 
L 254.090008 108.076102 
L 255.587206 116.919673 
L 257.084403 114.425332 
L 258.5816 118.053464 
L 260.078797 125.082968 
L 261.575995 122.135112 
L 263.073192 127.577309 
L 264.570389 127.577309 
L 266.067586 129.164616 
L 267.564784 128.257584 
L 269.061981 132.792748 
L 270.559178 131.658957 
L 272.056375 133.699781 
L 273.553572 131.20544 
L 275.05077 127.804067 
L 276.547967 123.722419 
L 278.045164 130.071649 
L 279.542361 132.339232 
L 281.039559 134.380055 
L 282.536756 132.112473 
L 284.033953 126.443518 
L 285.53115 131.658957 
L 287.028348 135.513847 
L 288.525545 135.740605 
L 290.022742 133.926539 
L 291.519939 137.101154 
L 293.017137 142.089835 
L 294.514334 149.799614 
L 296.011531 148.212307 
L 297.508728 146.398241 
L 299.005925 141.40956 
L 300.503123 146.851758 
L 302.00032 144.810934 
L 303.497517 142.316593 
L 304.994714 143.677142 
L 306.491912 147.532032 
L 307.989109 150.253131 
L 309.486306 160.684009 
L 310.983503 157.055877 
L 312.480701 157.282636 
L 313.977898 160.910767 
L 315.475095 158.643185 
L 316.972292 163.858624 
L 318.469489 161.591042 
L 319.966687 160.230493 
L 322.961081 169.754338 
L 324.458278 164.085382 
L 325.955476 172.02192 
L 327.452673 172.02192 
L 328.94987 177.237359 
L 330.447067 176.330326 
L 331.944265 172.702195 
L 333.441462 171.795162 
L 334.938659 180.865491 
L 336.435856 181.545765 
L 337.933053 179.051425 
L 339.430251 178.37115 
L 340.927448 178.824667 
L 342.424645 183.813347 
L 343.921842 183.813347 
L 345.41904 184.040106 
L 346.916237 187.441479 
L 348.413434 193.563951 
L 349.910631 195.604775 
L 351.407829 200.593456 
L 352.905026 198.325873 
L 354.402223 199.913181 
L 355.89942 203.768071 
L 357.396618 198.325873 
L 358.893815 189.255545 
L 360.391012 188.802028 
L 363.385406 191.523127 
L 364.882604 191.523127 
L 366.379801 190.842852 
L 367.876998 192.656918 
L 369.374195 200.593456 
L 370.871393 202.180763 
L 372.36859 196.511808 
L 373.865787 198.77939 
L 375.362984 201.954005 
L 376.860182 198.325873 
L 378.357379 196.058291 
L 379.854576 197.872357 
L 381.351773 198.099115 
L 382.84897 202.180763 
L 384.346168 198.552632 
L 385.843365 198.099115 
L 387.340562 202.180763 
L 388.837759 208.756752 
L 390.334957 204.675104 
L 391.832154 207.849719 
L 393.329351 208.529993 
L 394.826548 211.704608 
L 396.323746 210.117301 
L 397.820943 206.489169 
L 399.31814 206.489169 
L 400.815337 211.931367 
L 402.312535 208.529993 
L 403.809732 211.47785 
L 405.306929 213.972191 
L 406.804126 214.425707 
L 408.301323 217.600322 
L 409.798521 212.158125 
L 412.792915 198.552632 
L 414.290112 195.604775 
L 415.78731 194.017467 
L 417.284507 195.604775 
L 418.781704 191.06961 
L 420.278901 193.337193 
L 421.776099 193.337193 
L 423.273296 196.511808 
L 424.770493 202.180763 
L 426.26769 200.139939 
L 427.764887 196.285049 
L 429.262085 197.192082 
L 430.759282 197.872357 
L 432.256479 202.63428 
L 433.753676 202.407521 
L 435.250874 196.058291 
L 438.245268 190.162578 
L 439.742465 192.883676 
L 441.239663 190.842852 
L 442.73686 192.43016 
L 444.234057 199.006148 
L 445.731254 203.768071 
L 447.228451 209.890543 
L 448.725649 209.890543 
L 450.222846 212.158125 
L 451.720043 211.024334 
L 453.21724 199.232906 
L 456.211635 187.214721 
L 457.708832 180.865491 
L 459.206029 178.144392 
L 460.703227 167.486756 
L 462.200424 169.52758 
L 463.697621 172.928953 
L 465.194818 166.806481 
L 466.692016 162.724833 
L 468.189213 154.561537 
L 469.68641 157.282636 
L 471.183607 159.550218 
L 472.680804 154.108021 
L 474.178002 154.788295 
L 475.675199 162.498075 
L 477.172396 157.055877 
L 478.669593 160.003734 
L 480.166791 153.881262 
L 481.663988 149.799614 
L 483.161185 141.182802 
L 484.658382 135.287088 
L 486.15558 125.082968 
L 489.149974 121.001321 
L 490.647171 126.897034 
L 492.144368 131.658957 
L 493.641566 138.688462 
L 495.138763 137.554671 
L 496.63596 133.473023 
L 498.133157 136.647638 
L 499.630355 138.91522 
L 501.127552 135.287088 
L 502.624749 126.897034 
L 504.121946 128.937858 
L 505.619144 134.380055 
L 507.116341 140.275769 
L 507.116341 140.275769 
" style="fill:none;stroke:#2ca02c;stroke-linecap:square;stroke-width:1.75;"/>
   </g>
   <g id="line2d_21">
    <path clip-path="url(#p4b9daeaff5)" d="M 65.443157 282.906689 
L 143.297413 282.906689 
L 144.79461 282.529146 
L 147.789005 282.529146 
L 149.286202 282.151603 
L 150.783399 281.018973 
L 155.274991 281.018973 
L 156.772188 280.263886 
L 159.766583 277.998627 
L 161.26378 278.37617 
L 162.760977 277.621084 
L 164.258174 277.24354 
L 165.755372 276.11091 
L 167.252569 275.355824 
L 168.749766 273.845651 
L 170.246963 273.468108 
L 171.744161 270.447761 
L 173.241358 267.049872 
L 174.738555 264.407069 
L 176.235752 259.87655 
L 177.73295 255.723574 
L 179.230147 247.417622 
L 180.727344 238.356584 
L 182.224541 231.183262 
L 185.218936 210.795925 
L 186.716133 204.000146 
L 188.21333 192.296305 
L 192.704922 175.684401 
L 194.202119 174.551771 
L 195.699316 177.572117 
L 197.196514 175.306858 
L 198.693711 177.949661 
L 200.190908 182.48018 
L 201.688105 186.255613 
L 203.185303 195.694194 
L 204.6825 202.867516 
L 206.179697 204.755233 
L 207.676894 213.816271 
L 209.174091 220.234507 
L 210.671289 223.632396 
L 212.168486 224.009939 
L 213.665683 219.101877 
L 215.16288 222.122223 
L 216.660078 222.122223 
L 218.157275 215.703988 
L 219.654472 212.306098 
L 221.151669 210.795925 
L 222.648867 213.816271 
L 224.146064 217.214161 
L 225.643261 215.326444 
L 227.140458 219.47942 
L 228.637655 223.254853 
L 230.134853 231.560805 
L 231.63205 235.336237 
L 233.129247 233.826064 
L 234.626444 235.336237 
L 236.123642 238.356584 
L 237.620839 238.356584 
L 239.118036 242.887103 
L 240.615233 241.754473 
L 242.112431 241.754473 
L 243.609628 248.172709 
L 245.106825 252.325685 
L 246.604022 250.437968 
L 248.10122 247.795165 
L 249.598417 243.642189 
L 251.095614 243.264646 
L 252.592811 242.50956 
L 254.090008 240.999387 
L 255.587206 239.11167 
L 257.084403 241.37693 
L 258.5816 243.264646 
L 260.078797 246.662536 
L 261.575995 247.795165 
L 263.073192 252.703228 
L 264.570389 255.723574 
L 266.067586 259.121463 
L 267.564784 261.386723 
L 269.061981 264.784612 
L 270.559178 266.294786 
L 272.056375 266.672329 
L 273.553572 266.672329 
L 275.05077 267.049872 
L 276.547967 266.294786 
L 278.045164 265.917242 
L 279.542361 265.917242 
L 281.039559 268.560045 
L 282.536756 270.447761 
L 284.033953 271.202848 
L 285.53115 272.335478 
L 287.028348 273.845651 
L 288.525545 274.600737 
L 290.022742 275.733367 
L 291.519939 275.733367 
L 296.011531 272.335478 
L 297.508728 272.335478 
L 299.005925 271.957935 
L 300.503123 272.335478 
L 302.00032 273.090564 
L 303.497517 275.355824 
L 304.994714 277.24354 
L 306.491912 279.5088 
L 307.989109 279.5088 
L 309.486306 279.886343 
L 310.983503 278.753713 
L 313.977898 277.24354 
L 316.972292 277.24354 
L 318.469489 277.621084 
L 319.966687 278.753713 
L 321.463884 278.753713 
L 322.961081 279.5088 
L 324.458278 279.886343 
L 325.955476 280.64143 
L 327.452673 280.263886 
L 328.94987 280.263886 
L 330.447067 279.5088 
L 331.944265 280.64143 
L 333.441462 279.886343 
L 334.938659 280.263886 
L 336.435856 278.753713 
L 337.933053 278.753713 
L 339.430251 279.131257 
L 340.927448 279.886343 
L 342.424645 279.886343 
L 345.41904 280.64143 
L 346.916237 281.77406 
L 348.413434 281.396516 
L 349.910631 281.396516 
L 351.407829 280.64143 
L 352.905026 280.263886 
L 355.89942 280.263886 
L 357.396618 279.886343 
L 358.893815 280.64143 
L 360.391012 279.5088 
L 363.385406 280.263886 
L 366.379801 279.5088 
L 367.876998 279.5088 
L 369.374195 279.131257 
L 370.871393 279.886343 
L 372.36859 279.131257 
L 375.362984 278.37617 
L 376.860182 278.37617 
L 378.357379 278.753713 
L 379.854576 277.998627 
L 381.351773 278.37617 
L 382.84897 277.621084 
L 384.346168 277.24354 
L 385.843365 278.37617 
L 388.837759 277.621084 
L 390.334957 277.998627 
L 391.832154 277.24354 
L 393.329351 278.37617 
L 394.826548 278.37617 
L 396.323746 276.11091 
L 400.815337 271.580391 
L 402.312535 271.202848 
L 403.809732 271.202848 
L 405.306929 270.825305 
L 406.804126 270.825305 
L 408.301323 272.335478 
L 409.798521 274.600737 
L 411.295718 275.355824 
L 412.792915 274.600737 
L 415.78731 274.600737 
L 417.284507 274.978281 
L 418.781704 274.223194 
L 420.278901 274.223194 
L 421.776099 274.600737 
L 423.273296 275.733367 
L 424.770493 276.11091 
L 426.26769 275.733367 
L 427.764887 277.24354 
L 429.262085 274.978281 
L 430.759282 274.600737 
L 433.753676 271.580391 
L 435.250874 270.447761 
L 436.748071 270.070218 
L 438.245268 267.427415 
L 439.742465 269.315132 
L 441.239663 268.937588 
L 442.73686 269.692675 
L 444.234057 271.202848 
L 445.731254 271.580391 
L 447.228451 271.202848 
L 448.725649 269.692675 
L 450.222846 268.560045 
L 451.720043 264.784612 
L 453.21724 263.651983 
L 454.714438 261.764266 
L 456.211635 258.74392 
L 457.708832 257.233747 
L 459.206029 253.835858 
L 460.703227 254.213401 
L 462.200424 253.080771 
L 463.697621 251.193055 
L 465.194818 250.060425 
L 466.692016 245.907449 
L 468.189213 243.264646 
L 469.68641 242.887103 
L 471.183607 235.713781 
L 474.178002 224.765026 
L 475.675199 219.856963 
L 477.172396 217.591704 
L 478.669593 211.551012 
L 480.166791 209.285752 
L 481.663988 201.734887 
L 483.161185 199.84717 
L 484.658382 193.806478 
L 486.15558 185.122983 
L 487.652777 179.837377 
L 489.149974 177.194574 
L 490.647171 172.286512 
L 492.144368 170.398795 
L 493.641566 170.021252 
L 495.138763 170.021252 
L 496.63596 171.153882 
L 498.133157 168.888622 
L 499.630355 167.755992 
L 501.127552 170.398795 
L 502.624749 174.174228 
L 504.121946 177.572117 
L 505.619144 190.786132 
L 507.116341 207.020492 
L 507.116341 207.020492 
" style="fill:none;stroke:#d62728;stroke-linecap:square;stroke-width:1.75;"/>
   </g>
   <g id="patch_3">
    <path d="M 43.359498 295.102246 
L 43.359498 26.8 
" style="fill:none;stroke:#000000;stroke-linecap:square;stroke-linejoin:miter;stroke-width:0.8;"/>
   </g>
   <g id="patch_4">
    <path d="M 529.2 295.102246 
L 529.2 26.8 
" style="fill:none;stroke:#000000;stroke-linecap:square;stroke-linejoin:miter;stroke-width:0.8;"/>
   </g>
   <g id="patch_5">
    <path d="M 43.359498 295.102246 
L 529.2 295.102246 
" style="fill:none;stroke:#000000;stroke-linecap:square;stroke-linejoin:miter;stroke-width:0.8;"/>
   </g>
   <g id="patch_6">
    <path d="M 43.359498 26.8 
L 529.2 26.8 
" style="fill:none;stroke:#000000;stroke-linecap:square;stroke-linejoin:miter;stroke-width:0.8;"/>
   </g>
   <g id="text_19">
    <!-- New admissions per Million (7 day rolling) -->
    <g transform="translate(160.799124 20.8)scale(0.12 -0.12)">
     <defs>
      <path d="M 9.8125 72.90625 
L 23.09375 72.90625 
L 55.421875 11.921875 
L 55.421875 72.90625 
L 64.984375 72.90625 
L 64.984375 0 
L 51.703125 0 
L 19.390625 60.984375 
L 19.390625 0 
L 9.8125 0 
z
" id="DejaVuSans-78"/>
      <path d="M 4.203125 54.6875 
L 13.1875 54.6875 
L 24.421875 12.015625 
L 35.59375 54.6875 
L 46.1875 54.6875 
L 57.421875 12.015625 
L 68.609375 54.6875 
L 77.59375 54.6875 
L 63.28125 0 
L 52.6875 0 
L 40.921875 44.828125 
L 29.109375 0 
L 18.5 0 
z
" id="DejaVuSans-119"/>
      <path id="DejaVuSans-32"/>
      <path d="M 45.40625 46.390625 
L 45.40625 75.984375 
L 54.390625 75.984375 
L 54.390625 0 
L 45.40625 0 
L 45.40625 8.203125 
Q 42.578125 3.328125 38.25 0.953125 
Q 33.9375 -1.421875 27.875 -1.421875 
Q 17.96875 -1.421875 11.734375 6.484375 
Q 5.515625 14.40625 5.515625 27.296875 
Q 5.515625 40.1875 11.734375 48.09375 
Q 17.96875 56 27.875 56 
Q 33.9375 56 38.25 53.625 
Q 42.578125 51.265625 45.40625 46.390625 
z
M 14.796875 27.296875 
Q 14.796875 17.390625 18.875 11.75 
Q 22.953125 6.109375 30.078125 6.109375 
Q 37.203125 6.109375 41.296875 11.75 
Q 45.40625 17.390625 45.40625 27.296875 
Q 45.40625 37.203125 41.296875 42.84375 
Q 37.203125 48.484375 30.078125 48.484375 
Q 22.953125 48.484375 18.875 42.84375 
Q 14.796875 37.203125 14.796875 27.296875 
z
" id="DejaVuSans-100"/>
      <path d="M 52 44.1875 
Q 55.375 50.25 60.0625 53.125 
Q 64.75 56 71.09375 56 
Q 79.640625 56 84.28125 50.015625 
Q 88.921875 44.046875 88.921875 33.015625 
L 88.921875 0 
L 79.890625 0 
L 79.890625 32.71875 
Q 79.890625 40.578125 77.09375 44.375 
Q 74.3125 48.1875 68.609375 48.1875 
Q 61.625 48.1875 57.5625 43.546875 
Q 53.515625 38.921875 53.515625 30.90625 
L 53.515625 0 
L 44.484375 0 
L 44.484375 32.71875 
Q 44.484375 40.625 41.703125 44.40625 
Q 38.921875 48.1875 33.109375 48.1875 
Q 26.21875 48.1875 22.15625 43.53125 
Q 18.109375 38.875 18.109375 30.90625 
L 18.109375 0 
L 9.078125 0 
L 9.078125 54.6875 
L 18.109375 54.6875 
L 18.109375 46.1875 
Q 21.1875 51.21875 25.484375 53.609375 
Q 29.78125 56 35.6875 56 
Q 41.65625 56 45.828125 52.96875 
Q 50 49.953125 52 44.1875 
z
" id="DejaVuSans-109"/>
      <path d="M 9.421875 54.6875 
L 18.40625 54.6875 
L 18.40625 0 
L 9.421875 0 
z
M 9.421875 75.984375 
L 18.40625 75.984375 
L 18.40625 64.59375 
L 9.421875 64.59375 
z
" id="DejaVuSans-105"/>
      <path d="M 44.28125 53.078125 
L 44.28125 44.578125 
Q 40.484375 46.53125 36.375 47.5 
Q 32.28125 48.484375 27.875 48.484375 
Q 21.1875 48.484375 17.84375 46.4375 
Q 14.5 44.390625 14.5 40.28125 
Q 14.5 37.15625 16.890625 35.375 
Q 19.28125 33.59375 26.515625 31.984375 
L 29.59375 31.296875 
Q 39.15625 29.25 43.1875 25.515625 
Q 47.21875 21.78125 47.21875 15.09375 
Q 47.21875 7.46875 41.1875 3.015625 
Q 35.15625 -1.421875 24.609375 -1.421875 
Q 20.21875 -1.421875 15.453125 -0.5625 
Q 10.6875 0.296875 5.421875 2 
L 5.421875 11.28125 
Q 10.40625 8.6875 15.234375 7.390625 
Q 20.0625 6.109375 24.8125 6.109375 
Q 31.15625 6.109375 34.5625 8.28125 
Q 37.984375 10.453125 37.984375 14.40625 
Q 37.984375 18.0625 35.515625 20.015625 
Q 33.0625 21.96875 24.703125 23.78125 
L 21.578125 24.515625 
Q 13.234375 26.265625 9.515625 29.90625 
Q 5.8125 33.546875 5.8125 39.890625 
Q 5.8125 47.609375 11.28125 51.796875 
Q 16.75 56 26.8125 56 
Q 31.78125 56 36.171875 55.265625 
Q 40.578125 54.546875 44.28125 53.078125 
z
" id="DejaVuSans-115"/>
      <path d="M 30.609375 48.390625 
Q 23.390625 48.390625 19.1875 42.75 
Q 14.984375 37.109375 14.984375 27.296875 
Q 14.984375 17.484375 19.15625 11.84375 
Q 23.34375 6.203125 30.609375 6.203125 
Q 37.796875 6.203125 41.984375 11.859375 
Q 46.1875 17.53125 46.1875 27.296875 
Q 46.1875 37.015625 41.984375 42.703125 
Q 37.796875 48.390625 30.609375 48.390625 
z
M 30.609375 56 
Q 42.328125 56 49.015625 48.375 
Q 55.71875 40.765625 55.71875 27.296875 
Q 55.71875 13.875 49.015625 6.21875 
Q 42.328125 -1.421875 30.609375 -1.421875 
Q 18.84375 -1.421875 12.171875 6.21875 
Q 5.515625 13.875 5.515625 27.296875 
Q 5.515625 40.765625 12.171875 48.375 
Q 18.84375 56 30.609375 56 
z
" id="DejaVuSans-111"/>
      <path d="M 54.890625 33.015625 
L 54.890625 0 
L 45.90625 0 
L 45.90625 32.71875 
Q 45.90625 40.484375 42.875 44.328125 
Q 39.84375 48.1875 33.796875 48.1875 
Q 26.515625 48.1875 22.3125 43.546875 
Q 18.109375 38.921875 18.109375 30.90625 
L 18.109375 0 
L 9.078125 0 
L 9.078125 54.6875 
L 18.109375 54.6875 
L 18.109375 46.1875 
Q 21.34375 51.125 25.703125 53.5625 
Q 30.078125 56 35.796875 56 
Q 45.21875 56 50.046875 50.171875 
Q 54.890625 44.34375 54.890625 33.015625 
z
" id="DejaVuSans-110"/>
      <path d="M 18.109375 8.203125 
L 18.109375 -20.796875 
L 9.078125 -20.796875 
L 9.078125 54.6875 
L 18.109375 54.6875 
L 18.109375 46.390625 
Q 20.953125 51.265625 25.265625 53.625 
Q 29.59375 56 35.59375 56 
Q 45.5625 56 51.78125 48.09375 
Q 58.015625 40.1875 58.015625 27.296875 
Q 58.015625 14.40625 51.78125 6.484375 
Q 45.5625 -1.421875 35.59375 -1.421875 
Q 29.59375 -1.421875 25.265625 0.953125 
Q 20.953125 3.328125 18.109375 8.203125 
z
M 48.6875 27.296875 
Q 48.6875 37.203125 44.609375 42.84375 
Q 40.53125 48.484375 33.40625 48.484375 
Q 26.265625 48.484375 22.1875 42.84375 
Q 18.109375 37.203125 18.109375 27.296875 
Q 18.109375 17.390625 22.1875 11.75 
Q 26.265625 6.109375 33.40625 6.109375 
Q 40.53125 6.109375 44.609375 11.75 
Q 48.6875 17.390625 48.6875 27.296875 
z
" id="DejaVuSans-112"/>
      <path d="M 41.109375 46.296875 
Q 39.59375 47.171875 37.8125 47.578125 
Q 36.03125 48 33.890625 48 
Q 26.265625 48 22.1875 43.046875 
Q 18.109375 38.09375 18.109375 28.8125 
L 18.109375 0 
L 9.078125 0 
L 9.078125 54.6875 
L 18.109375 54.6875 
L 18.109375 46.1875 
Q 20.953125 51.171875 25.484375 53.578125 
Q 30.03125 56 36.53125 56 
Q 37.453125 56 38.578125 55.875 
Q 39.703125 55.765625 41.0625 55.515625 
z
" id="DejaVuSans-114"/>
      <path d="M 9.8125 72.90625 
L 24.515625 72.90625 
L 43.109375 23.296875 
L 61.8125 72.90625 
L 76.515625 72.90625 
L 76.515625 0 
L 66.890625 0 
L 66.890625 64.015625 
L 48.09375 14.015625 
L 38.1875 14.015625 
L 19.390625 64.015625 
L 19.390625 0 
L 9.8125 0 
z
" id="DejaVuSans-77"/>
      <path d="M 9.421875 75.984375 
L 18.40625 75.984375 
L 18.40625 0 
L 9.421875 0 
z
" id="DejaVuSans-108"/>
      <path d="M 31 75.875 
Q 24.46875 64.65625 21.28125 53.65625 
Q 18.109375 42.671875 18.109375 31.390625 
Q 18.109375 20.125 21.3125 9.0625 
Q 24.515625 -2 31 -13.1875 
L 23.1875 -13.1875 
Q 15.875 -1.703125 12.234375 9.375 
Q 8.59375 20.453125 8.59375 31.390625 
Q 8.59375 42.28125 12.203125 53.3125 
Q 15.828125 64.359375 23.1875 75.875 
z
" id="DejaVuSans-40"/>
      <path d="M 32.171875 -5.078125 
Q 28.375 -14.84375 24.75 -17.8125 
Q 21.140625 -20.796875 15.09375 -20.796875 
L 7.90625 -20.796875 
L 7.90625 -13.28125 
L 13.1875 -13.28125 
Q 16.890625 -13.28125 18.9375 -11.515625 
Q 21 -9.765625 23.484375 -3.21875 
L 25.09375 0.875 
L 2.984375 54.6875 
L 12.5 54.6875 
L 29.59375 11.921875 
L 46.6875 54.6875 
L 56.203125 54.6875 
z
" id="DejaVuSans-121"/>
      <path d="M 45.40625 27.984375 
Q 45.40625 37.75 41.375 43.109375 
Q 37.359375 48.484375 30.078125 48.484375 
Q 22.859375 48.484375 18.828125 43.109375 
Q 14.796875 37.75 14.796875 27.984375 
Q 14.796875 18.265625 18.828125 12.890625 
Q 22.859375 7.515625 30.078125 7.515625 
Q 37.359375 7.515625 41.375 12.890625 
Q 45.40625 18.265625 45.40625 27.984375 
z
M 54.390625 6.78125 
Q 54.390625 -7.171875 48.1875 -13.984375 
Q 42 -20.796875 29.203125 -20.796875 
Q 24.46875 -20.796875 20.265625 -20.09375 
Q 16.0625 -19.390625 12.109375 -17.921875 
L 12.109375 -9.1875 
Q 16.0625 -11.328125 19.921875 -12.34375 
Q 23.78125 -13.375 27.78125 -13.375 
Q 36.625 -13.375 41.015625 -8.765625 
Q 45.40625 -4.15625 45.40625 5.171875 
L 45.40625 9.625 
Q 42.625 4.78125 38.28125 2.390625 
Q 33.9375 0 27.875 0 
Q 17.828125 0 11.671875 7.65625 
Q 5.515625 15.328125 5.515625 27.984375 
Q 5.515625 40.671875 11.671875 48.328125 
Q 17.828125 56 27.875 56 
Q 33.9375 56 38.28125 53.609375 
Q 42.625 51.21875 45.40625 46.390625 
L 45.40625 54.6875 
L 54.390625 54.6875 
z
" id="DejaVuSans-103"/>
      <path d="M 8.015625 75.875 
L 15.828125 75.875 
Q 23.140625 64.359375 26.78125 53.3125 
Q 30.421875 42.28125 30.421875 31.390625 
Q 30.421875 20.453125 26.78125 9.375 
Q 23.140625 -1.703125 15.828125 -13.1875 
L 8.015625 -13.1875 
Q 14.5 -2 17.703125 9.0625 
Q 20.90625 20.125 20.90625 31.390625 
Q 20.90625 42.671875 17.703125 53.65625 
Q 14.5 64.65625 8.015625 75.875 
z
" id="DejaVuSans-41"/>
     </defs>
     <use xlink:href="#DejaVuSans-78"/>
     <use x="74.804688" xlink:href="#DejaVuSans-101"/>
     <use x="136.328125" xlink:href="#DejaVuSans-119"/>
     <use x="218.115234" xlink:href="#DejaVuSans-32"/>
     <use x="249.902344" xlink:href="#DejaVuSans-97"/>
     <use x="311.181641" xlink:href="#DejaVuSans-100"/>
     <use x="374.658203" xlink:href="#DejaVuSans-109"/>
     <use x="472.070312" xlink:href="#DejaVuSans-105"/>
     <use x="499.853516" xlink:href="#DejaVuSans-115"/>
     <use x="551.953125" xlink:href="#DejaVuSans-115"/>
     <use x="604.052734" xlink:href="#DejaVuSans-105"/>
     <use x="631.835938" xlink:href="#DejaVuSans-111"/>
     <use x="693.017578" xlink:href="#DejaVuSans-110"/>
     <use x="756.396484" xlink:href="#DejaVuSans-115"/>
     <use x="808.496094" xlink:href="#DejaVuSans-32"/>
     <use x="840.283203" xlink:href="#DejaVuSans-112"/>
     <use x="903.759766" xlink:href="#DejaVuSans-101"/>
     <use x="965.283203" xlink:href="#DejaVuSans-114"/>
     <use x="1006.396484" xlink:href="#DejaVuSans-32"/>
     <use x="1038.183594" xlink:href="#DejaVuSans-77"/>
     <use x="1124.462891" xlink:href="#DejaVuSans-105"/>
     <use x="1152.246094" xlink:href="#DejaVuSans-108"/>
     <use x="1180.029297" xlink:href="#DejaVuSans-108"/>
     <use x="1207.8125" xlink:href="#DejaVuSans-105"/>
     <use x="1235.595703" xlink:href="#DejaVuSans-111"/>
     <use x="1296.777344" xlink:href="#DejaVuSans-110"/>
     <use x="1360.15625" xlink:href="#DejaVuSans-32"/>
     <use x="1391.943359" xlink:href="#DejaVuSans-40"/>
     <use x="1430.957031" xlink:href="#DejaVuSans-55"/>
     <use x="1494.580078" xlink:href="#DejaVuSans-32"/>
     <use x="1526.367188" xlink:href="#DejaVuSans-100"/>
     <use x="1589.84375" xlink:href="#DejaVuSans-97"/>
     <use x="1651.123047" xlink:href="#DejaVuSans-121"/>
     <use x="1710.302734" xlink:href="#DejaVuSans-32"/>
     <use x="1742.089844" xlink:href="#DejaVuSans-114"/>
     <use x="1780.953125" xlink:href="#DejaVuSans-111"/>
     <use x="1842.134766" xlink:href="#DejaVuSans-108"/>
     <use x="1869.917969" xlink:href="#DejaVuSans-108"/>
     <use x="1897.701172" xlink:href="#DejaVuSans-105"/>
     <use x="1925.484375" xlink:href="#DejaVuSans-110"/>
     <use x="1988.863281" xlink:href="#DejaVuSans-103"/>
     <use x="2052.339844" xlink:href="#DejaVuSans-41"/>
    </g>
   </g>
   <g id="legend_1">
    <g id="patch_7">
     <path d="M 387.032813 93.5125 
L 522.2 93.5125 
Q 524.2 93.5125 524.2 91.5125 
L 524.2 33.8 
Q 524.2 31.8 522.2 31.8 
L 387.032813 31.8 
Q 385.032813 31.8 385.032813 33.8 
L 385.032813 91.5125 
Q 385.032813 93.5125 387.032813 93.5125 
z
" style="fill:#ffffff;opacity:0.8;stroke:#cccccc;stroke-linejoin:miter;stroke-width:0.3;"/>
    </g>
    <g id="line2d_22">
     <path d="M 389.032813 39.898438 
L 409.032813 39.898438 
" style="fill:none;stroke:#1f77b4;stroke-linecap:square;stroke-width:1.75;"/>
    </g>
    <g id="line2d_23"/>
    <g id="text_20">
     <!-- ENGLAND -->
     <g transform="translate(417.032813 43.398438)scale(0.1 -0.1)">
      <defs>
       <path d="M 9.8125 72.90625 
L 55.90625 72.90625 
L 55.90625 64.59375 
L 19.671875 64.59375 
L 19.671875 43.015625 
L 54.390625 43.015625 
L 54.390625 34.71875 
L 19.671875 34.71875 
L 19.671875 8.296875 
L 56.78125 8.296875 
L 56.78125 0 
L 9.8125 0 
z
" id="DejaVuSans-69"/>
       <path d="M 59.515625 10.40625 
L 59.515625 29.984375 
L 43.40625 29.984375 
L 43.40625 38.09375 
L 69.28125 38.09375 
L 69.28125 6.78125 
Q 63.578125 2.734375 56.6875 0.65625 
Q 49.8125 -1.421875 42 -1.421875 
Q 24.90625 -1.421875 15.25 8.5625 
Q 5.609375 18.5625 5.609375 36.375 
Q 5.609375 54.25 15.25 64.234375 
Q 24.90625 74.21875 42 74.21875 
Q 49.125 74.21875 55.546875 72.453125 
Q 61.96875 70.703125 67.390625 67.28125 
L 67.390625 56.78125 
Q 61.921875 61.421875 55.765625 63.765625 
Q 49.609375 66.109375 42.828125 66.109375 
Q 29.4375 66.109375 22.71875 58.640625 
Q 16.015625 51.171875 16.015625 36.375 
Q 16.015625 21.625 22.71875 14.15625 
Q 29.4375 6.6875 42.828125 6.6875 
Q 48.046875 6.6875 52.140625 7.59375 
Q 56.25 8.5 59.515625 10.40625 
z
" id="DejaVuSans-71"/>
       <path d="M 9.8125 72.90625 
L 19.671875 72.90625 
L 19.671875 8.296875 
L 55.171875 8.296875 
L 55.171875 0 
L 9.8125 0 
z
" id="DejaVuSans-76"/>
       <path d="M 34.1875 63.1875 
L 20.796875 26.90625 
L 47.609375 26.90625 
z
M 28.609375 72.90625 
L 39.796875 72.90625 
L 67.578125 0 
L 57.328125 0 
L 50.6875 18.703125 
L 17.828125 18.703125 
L 11.1875 0 
L 0.78125 0 
z
" id="DejaVuSans-65"/>
      </defs>
      <use xlink:href="#DejaVuSans-69"/>
      <use x="63.183594" xlink:href="#DejaVuSans-78"/>
      <use x="137.988281" xlink:href="#DejaVuSans-71"/>
      <use x="215.478516" xlink:href="#DejaVuSans-76"/>
      <use x="273.441406" xlink:href="#DejaVuSans-65"/>
      <use x="341.849609" xlink:href="#DejaVuSans-78"/>
      <use x="416.654297" xlink:href="#DejaVuSans-68"/>
     </g>
    </g>
    <g id="line2d_24">
     <path d="M 389.032813 54.576563 
L 409.032813 54.576563 
" style="fill:none;stroke:#ff7f0e;stroke-linecap:square;stroke-width:1.75;"/>
    </g>
    <g id="line2d_25"/>
    <g id="text_21">
     <!-- SCOTLAND -->
     <g transform="translate(417.032813 58.076563)scale(0.1 -0.1)">
      <defs>
       <path d="M 53.515625 70.515625 
L 53.515625 60.890625 
Q 47.90625 63.578125 42.921875 64.890625 
Q 37.9375 66.21875 33.296875 66.21875 
Q 25.25 66.21875 20.875 63.09375 
Q 16.5 59.96875 16.5 54.203125 
Q 16.5 49.359375 19.40625 46.890625 
Q 22.3125 44.4375 30.421875 42.921875 
L 36.375 41.703125 
Q 47.40625 39.59375 52.65625 34.296875 
Q 57.90625 29 57.90625 20.125 
Q 57.90625 9.515625 50.796875 4.046875 
Q 43.703125 -1.421875 29.984375 -1.421875 
Q 24.8125 -1.421875 18.96875 -0.25 
Q 13.140625 0.921875 6.890625 3.21875 
L 6.890625 13.375 
Q 12.890625 10.015625 18.65625 8.296875 
Q 24.421875 6.59375 29.984375 6.59375 
Q 38.421875 6.59375 43.015625 9.90625 
Q 47.609375 13.234375 47.609375 19.390625 
Q 47.609375 24.75 44.3125 27.78125 
Q 41.015625 30.8125 33.5 32.328125 
L 27.484375 33.5 
Q 16.453125 35.6875 11.515625 40.375 
Q 6.59375 45.0625 6.59375 53.421875 
Q 6.59375 63.09375 13.40625 68.65625 
Q 20.21875 74.21875 32.171875 74.21875 
Q 37.3125 74.21875 42.625 73.28125 
Q 47.953125 72.359375 53.515625 70.515625 
z
" id="DejaVuSans-83"/>
       <path d="M 64.40625 67.28125 
L 64.40625 56.890625 
Q 59.421875 61.53125 53.78125 63.8125 
Q 48.140625 66.109375 41.796875 66.109375 
Q 29.296875 66.109375 22.65625 58.46875 
Q 16.015625 50.828125 16.015625 36.375 
Q 16.015625 21.96875 22.65625 14.328125 
Q 29.296875 6.6875 41.796875 6.6875 
Q 48.140625 6.6875 53.78125 8.984375 
Q 59.421875 11.28125 64.40625 15.921875 
L 64.40625 5.609375 
Q 59.234375 2.09375 53.4375 0.328125 
Q 47.65625 -1.421875 41.21875 -1.421875 
Q 24.65625 -1.421875 15.125 8.703125 
Q 5.609375 18.84375 5.609375 36.375 
Q 5.609375 53.953125 15.125 64.078125 
Q 24.65625 74.21875 41.21875 74.21875 
Q 47.75 74.21875 53.53125 72.484375 
Q 59.328125 70.75 64.40625 67.28125 
z
" id="DejaVuSans-67"/>
       <path d="M 39.40625 66.21875 
Q 28.65625 66.21875 22.328125 58.203125 
Q 16.015625 50.203125 16.015625 36.375 
Q 16.015625 22.609375 22.328125 14.59375 
Q 28.65625 6.59375 39.40625 6.59375 
Q 50.140625 6.59375 56.421875 14.59375 
Q 62.703125 22.609375 62.703125 36.375 
Q 62.703125 50.203125 56.421875 58.203125 
Q 50.140625 66.21875 39.40625 66.21875 
z
M 39.40625 74.21875 
Q 54.734375 74.21875 63.90625 63.9375 
Q 73.09375 53.65625 73.09375 36.375 
Q 73.09375 19.140625 63.90625 8.859375 
Q 54.734375 -1.421875 39.40625 -1.421875 
Q 24.03125 -1.421875 14.8125 8.828125 
Q 5.609375 19.09375 5.609375 36.375 
Q 5.609375 53.65625 14.8125 63.9375 
Q 24.03125 74.21875 39.40625 74.21875 
z
" id="DejaVuSans-79"/>
       <path d="M -0.296875 72.90625 
L 61.375 72.90625 
L 61.375 64.59375 
L 35.5 64.59375 
L 35.5 0 
L 25.59375 0 
L 25.59375 64.59375 
L -0.296875 64.59375 
z
" id="DejaVuSans-84"/>
      </defs>
      <use xlink:href="#DejaVuSans-83"/>
      <use x="63.476562" xlink:href="#DejaVuSans-67"/>
      <use x="133.300781" xlink:href="#DejaVuSans-79"/>
      <use x="212.011719" xlink:href="#DejaVuSans-84"/>
      <use x="273.095703" xlink:href="#DejaVuSans-76"/>
      <use x="331.058594" xlink:href="#DejaVuSans-65"/>
      <use x="399.466797" xlink:href="#DejaVuSans-78"/>
      <use x="474.271484" xlink:href="#DejaVuSans-68"/>
     </g>
    </g>
    <g id="line2d_26">
     <path d="M 389.032813 69.254688 
L 409.032813 69.254688 
" style="fill:none;stroke:#2ca02c;stroke-linecap:square;stroke-width:1.75;"/>
    </g>
    <g id="line2d_27"/>
    <g id="text_22">
     <!-- WALES -->
     <g transform="translate(417.032813 72.754688)scale(0.1 -0.1)">
      <defs>
       <path d="M 3.328125 72.90625 
L 13.28125 72.90625 
L 28.609375 11.28125 
L 43.890625 72.90625 
L 54.984375 72.90625 
L 70.3125 11.28125 
L 85.59375 72.90625 
L 95.609375 72.90625 
L 77.296875 0 
L 64.890625 0 
L 49.515625 63.28125 
L 33.984375 0 
L 21.578125 0 
z
" id="DejaVuSans-87"/>
      </defs>
      <use xlink:href="#DejaVuSans-87"/>
      <use x="93.376953" xlink:href="#DejaVuSans-65"/>
      <use x="161.785156" xlink:href="#DejaVuSans-76"/>
      <use x="217.498047" xlink:href="#DejaVuSans-69"/>
      <use x="280.681641" xlink:href="#DejaVuSans-83"/>
     </g>
    </g>
    <g id="line2d_28">
     <path d="M 389.032813 83.932813 
L 409.032813 83.932813 
" style="fill:none;stroke:#d62728;stroke-linecap:square;stroke-width:1.75;"/>
    </g>
    <g id="line2d_29"/>
    <g id="text_23">
     <!-- NORTHERN IRELAND -->
     <g transform="translate(417.032813 87.432813)scale(0.1 -0.1)">
      <defs>
       <path d="M 44.390625 34.1875 
Q 47.5625 33.109375 50.5625 29.59375 
Q 53.5625 26.078125 56.59375 19.921875 
L 66.609375 0 
L 56 0 
L 46.6875 18.703125 
Q 43.0625 26.03125 39.671875 28.421875 
Q 36.28125 30.8125 30.421875 30.8125 
L 19.671875 30.8125 
L 19.671875 0 
L 9.8125 0 
L 9.8125 72.90625 
L 32.078125 72.90625 
Q 44.578125 72.90625 50.734375 67.671875 
Q 56.890625 62.453125 56.890625 51.90625 
Q 56.890625 45.015625 53.6875 40.46875 
Q 50.484375 35.9375 44.390625 34.1875 
z
M 19.671875 64.796875 
L 19.671875 38.921875 
L 32.078125 38.921875 
Q 39.203125 38.921875 42.84375 42.21875 
Q 46.484375 45.515625 46.484375 51.90625 
Q 46.484375 58.296875 42.84375 61.546875 
Q 39.203125 64.796875 32.078125 64.796875 
z
" id="DejaVuSans-82"/>
       <path d="M 9.8125 72.90625 
L 19.671875 72.90625 
L 19.671875 43.015625 
L 55.515625 43.015625 
L 55.515625 72.90625 
L 65.375 72.90625 
L 65.375 0 
L 55.515625 0 
L 55.515625 34.71875 
L 19.671875 34.71875 
L 19.671875 0 
L 9.8125 0 
z
" id="DejaVuSans-72"/>
       <path d="M 9.8125 72.90625 
L 19.671875 72.90625 
L 19.671875 0 
L 9.8125 0 
z
" id="DejaVuSans-73"/>
      </defs>
      <use xlink:href="#DejaVuSans-78"/>
      <use x="74.804688" xlink:href="#DejaVuSans-79"/>
      <use x="153.515625" xlink:href="#DejaVuSans-82"/>
      <use x="215.748047" xlink:href="#DejaVuSans-84"/>
      <use x="276.832031" xlink:href="#DejaVuSans-72"/>
      <use x="352.027344" xlink:href="#DejaVuSans-69"/>
      <use x="415.210938" xlink:href="#DejaVuSans-82"/>
      <use x="484.693359" xlink:href="#DejaVuSans-78"/>
      <use x="559.498047" xlink:href="#DejaVuSans-32"/>
      <use x="591.285156" xlink:href="#DejaVuSans-73"/>
      <use x="620.777344" xlink:href="#DejaVuSans-82"/>
      <use x="690.259766" xlink:href="#DejaVuSans-69"/>
      <use x="753.443359" xlink:href="#DejaVuSans-76"/>
      <use x="811.40625" xlink:href="#DejaVuSans-65"/>
      <use x="879.814453" xlink:href="#DejaVuSans-78"/>
      <use x="954.619141" xlink:href="#DejaVuSans-68"/>
     </g>
    </g>
   </g>
  </g>
 </g>
 <defs>
  <clipPath id="p4b9daeaff5">
   <rect height="268.302246" width="485.840502" x="43.359498" y="26.8"/>
  </clipPath>
 </defs>
</svg>
