<?xml version="1.0" encoding="utf-8" standalone="no"?>
<!DOCTYPE svg PUBLIC "-//W3C//DTD SVG 1.1//EN"
  "http://www.w3.org/Graphics/SVG/1.1/DTD/svg11.dtd">
<!-- Created with matplotlib (https://matplotlib.org/) -->
<svg height="360pt" version="1.1" viewBox="0 0 540 360" width="540pt" xmlns="http://www.w3.org/2000/svg" xmlns:xlink="http://www.w3.org/1999/xlink">
 <metadata>
  <rdf:RDF xmlns:cc="http://creativecommons.org/ns#" xmlns:dc="http://purl.org/dc/elements/1.1/" xmlns:rdf="http://www.w3.org/1999/02/22-rdf-syntax-ns#">
   <cc:Work>
    <dc:type rdf:resource="http://purl.org/dc/dcmitype/StillImage"/>
    <dc:date>2020-11-02T15:08:45.845439</dc:date>
    <dc:format>image/svg+xml</dc:format>
    <dc:creator>
     <cc:Agent>
      <dc:title>Matplotlib v3.3.2, https://matplotlib.org/</dc:title>
     </cc:Agent>
    </dc:creator>
   </cc:Work>
  </rdf:RDF>
 </metadata>
 <defs>
  <style type="text/css">*{stroke-linecap:butt;stroke-linejoin:round;}</style>
 </defs>
 <g id="figure_1">
  <g id="patch_1">
   <path d="M 0 360 
L 540 360 
L 540 0 
L 0 0 
z
" style="fill:none;"/>
  </g>
  <g id="axes_1">
   <g id="patch_2">
    <path d="M 43.29002 295.102246 
L 529.2 295.102246 
L 529.2 26.8 
L 43.29002 26.8 
z
" style="fill:#ffffff;"/>
   </g>
   <g id="matplotlib.axis_1">
    <g id="xtick_1">
     <g id="line2d_1">
      <defs>
       <path d="M 0 0 
L 0 3.5 
" id="mc86626a43c" style="stroke:#000000;"/>
      </defs>
      <g>
       <use style="stroke:#000000;" x="53.478216" xlink:href="#mc86626a43c" y="295.102246"/>
      </g>
     </g>
     <g id="text_1">
      <!-- 2020-01 -->
      <g transform="translate(16.253395 333.074092)rotate(-30)scale(0.1 -0.1)">
       <defs>
        <path d="M 19.1875 8.296875 
L 53.609375 8.296875 
L 53.609375 0 
L 7.328125 0 
L 7.328125 8.296875 
Q 12.9375 14.109375 22.625 23.890625 
Q 32.328125 33.6875 34.8125 36.53125 
Q 39.546875 41.84375 41.421875 45.53125 
Q 43.3125 49.21875 43.3125 52.78125 
Q 43.3125 58.59375 39.234375 62.25 
Q 35.15625 65.921875 28.609375 65.921875 
Q 23.96875 65.921875 18.8125 64.3125 
Q 13.671875 62.703125 7.8125 59.421875 
L 7.8125 69.390625 
Q 13.765625 71.78125 18.9375 73 
Q 24.125 74.21875 28.421875 74.21875 
Q 39.75 74.21875 46.484375 68.546875 
Q 53.21875 62.890625 53.21875 53.421875 
Q 53.21875 48.921875 51.53125 44.890625 
Q 49.859375 40.875 45.40625 35.40625 
Q 44.1875 33.984375 37.640625 27.21875 
Q 31.109375 20.453125 19.1875 8.296875 
z
" id="DejaVuSans-50"/>
        <path d="M 31.78125 66.40625 
Q 24.171875 66.40625 20.328125 58.90625 
Q 16.5 51.421875 16.5 36.375 
Q 16.5 21.390625 20.328125 13.890625 
Q 24.171875 6.390625 31.78125 6.390625 
Q 39.453125 6.390625 43.28125 13.890625 
Q 47.125 21.390625 47.125 36.375 
Q 47.125 51.421875 43.28125 58.90625 
Q 39.453125 66.40625 31.78125 66.40625 
z
M 31.78125 74.21875 
Q 44.046875 74.21875 50.515625 64.515625 
Q 56.984375 54.828125 56.984375 36.375 
Q 56.984375 17.96875 50.515625 8.265625 
Q 44.046875 -1.421875 31.78125 -1.421875 
Q 19.53125 -1.421875 13.0625 8.265625 
Q 6.59375 17.96875 6.59375 36.375 
Q 6.59375 54.828125 13.0625 64.515625 
Q 19.53125 74.21875 31.78125 74.21875 
z
" id="DejaVuSans-48"/>
        <path d="M 4.890625 31.390625 
L 31.203125 31.390625 
L 31.203125 23.390625 
L 4.890625 23.390625 
z
" id="DejaVuSans-45"/>
        <path d="M 12.40625 8.296875 
L 28.515625 8.296875 
L 28.515625 63.921875 
L 10.984375 60.40625 
L 10.984375 69.390625 
L 28.421875 72.90625 
L 38.28125 72.90625 
L 38.28125 8.296875 
L 54.390625 8.296875 
L 54.390625 0 
L 12.40625 0 
z
" id="DejaVuSans-49"/>
       </defs>
       <use xlink:href="#DejaVuSans-50"/>
       <use x="63.623047" xlink:href="#DejaVuSans-48"/>
       <use x="127.246094" xlink:href="#DejaVuSans-50"/>
       <use x="190.869141" xlink:href="#DejaVuSans-48"/>
       <use x="254.492188" xlink:href="#DejaVuSans-45"/>
       <use x="290.576172" xlink:href="#DejaVuSans-48"/>
       <use x="354.199219" xlink:href="#DejaVuSans-49"/>
      </g>
     </g>
    </g>
    <g id="xtick_2">
     <g id="line2d_2">
      <g>
       <use style="stroke:#000000;" x="99.585376" xlink:href="#mc86626a43c" y="295.102246"/>
      </g>
     </g>
     <g id="text_2">
      <!-- 2020-02 -->
      <g transform="translate(62.360555 333.074092)rotate(-30)scale(0.1 -0.1)">
       <use xlink:href="#DejaVuSans-50"/>
       <use x="63.623047" xlink:href="#DejaVuSans-48"/>
       <use x="127.246094" xlink:href="#DejaVuSans-50"/>
       <use x="190.869141" xlink:href="#DejaVuSans-48"/>
       <use x="254.492188" xlink:href="#DejaVuSans-45"/>
       <use x="290.576172" xlink:href="#DejaVuSans-48"/>
       <use x="354.199219" xlink:href="#DejaVuSans-50"/>
      </g>
     </g>
    </g>
    <g id="xtick_3">
     <g id="line2d_3">
      <g>
       <use style="stroke:#000000;" x="142.717881" xlink:href="#mc86626a43c" y="295.102246"/>
      </g>
     </g>
     <g id="text_3">
      <!-- 2020-03 -->
      <g transform="translate(105.49306 333.074092)rotate(-30)scale(0.1 -0.1)">
       <defs>
        <path d="M 40.578125 39.3125 
Q 47.65625 37.796875 51.625 33 
Q 55.609375 28.21875 55.609375 21.1875 
Q 55.609375 10.40625 48.1875 4.484375 
Q 40.765625 -1.421875 27.09375 -1.421875 
Q 22.515625 -1.421875 17.65625 -0.515625 
Q 12.796875 0.390625 7.625 2.203125 
L 7.625 11.71875 
Q 11.71875 9.328125 16.59375 8.109375 
Q 21.484375 6.890625 26.8125 6.890625 
Q 36.078125 6.890625 40.9375 10.546875 
Q 45.796875 14.203125 45.796875 21.1875 
Q 45.796875 27.640625 41.28125 31.265625 
Q 36.765625 34.90625 28.71875 34.90625 
L 20.21875 34.90625 
L 20.21875 43.015625 
L 29.109375 43.015625 
Q 36.375 43.015625 40.234375 45.921875 
Q 44.09375 48.828125 44.09375 54.296875 
Q 44.09375 59.90625 40.109375 62.90625 
Q 36.140625 65.921875 28.71875 65.921875 
Q 24.65625 65.921875 20.015625 65.03125 
Q 15.375 64.15625 9.8125 62.3125 
L 9.8125 71.09375 
Q 15.4375 72.65625 20.34375 73.4375 
Q 25.25 74.21875 29.59375 74.21875 
Q 40.828125 74.21875 47.359375 69.109375 
Q 53.90625 64.015625 53.90625 55.328125 
Q 53.90625 49.265625 50.4375 45.09375 
Q 46.96875 40.921875 40.578125 39.3125 
z
" id="DejaVuSans-51"/>
       </defs>
       <use xlink:href="#DejaVuSans-50"/>
       <use x="63.623047" xlink:href="#DejaVuSans-48"/>
       <use x="127.246094" xlink:href="#DejaVuSans-50"/>
       <use x="190.869141" xlink:href="#DejaVuSans-48"/>
       <use x="254.492188" xlink:href="#DejaVuSans-45"/>
       <use x="290.576172" xlink:href="#DejaVuSans-48"/>
       <use x="354.199219" xlink:href="#DejaVuSans-51"/>
      </g>
     </g>
    </g>
    <g id="xtick_4">
     <g id="line2d_4">
      <g>
       <use style="stroke:#000000;" x="188.825042" xlink:href="#mc86626a43c" y="295.102246"/>
      </g>
     </g>
     <g id="text_4">
      <!-- 2020-04 -->
      <g transform="translate(151.600221 333.074092)rotate(-30)scale(0.1 -0.1)">
       <defs>
        <path d="M 37.796875 64.3125 
L 12.890625 25.390625 
L 37.796875 25.390625 
z
M 35.203125 72.90625 
L 47.609375 72.90625 
L 47.609375 25.390625 
L 58.015625 25.390625 
L 58.015625 17.1875 
L 47.609375 17.1875 
L 47.609375 0 
L 37.796875 0 
L 37.796875 17.1875 
L 4.890625 17.1875 
L 4.890625 26.703125 
z
" id="DejaVuSans-52"/>
       </defs>
       <use xlink:href="#DejaVuSans-50"/>
       <use x="63.623047" xlink:href="#DejaVuSans-48"/>
       <use x="127.246094" xlink:href="#DejaVuSans-50"/>
       <use x="190.869141" xlink:href="#DejaVuSans-48"/>
       <use x="254.492188" xlink:href="#DejaVuSans-45"/>
       <use x="290.576172" xlink:href="#DejaVuSans-48"/>
       <use x="354.199219" xlink:href="#DejaVuSans-52"/>
      </g>
     </g>
    </g>
    <g id="xtick_5">
     <g id="line2d_5">
      <g>
       <use style="stroke:#000000;" x="233.444875" xlink:href="#mc86626a43c" y="295.102246"/>
      </g>
     </g>
     <g id="text_5">
      <!-- 2020-05 -->
      <g transform="translate(196.220054 333.074092)rotate(-30)scale(0.1 -0.1)">
       <defs>
        <path d="M 10.796875 72.90625 
L 49.515625 72.90625 
L 49.515625 64.59375 
L 19.828125 64.59375 
L 19.828125 46.734375 
Q 21.96875 47.46875 24.109375 47.828125 
Q 26.265625 48.1875 28.421875 48.1875 
Q 40.625 48.1875 47.75 41.5 
Q 54.890625 34.8125 54.890625 23.390625 
Q 54.890625 11.625 47.5625 5.09375 
Q 40.234375 -1.421875 26.90625 -1.421875 
Q 22.3125 -1.421875 17.546875 -0.640625 
Q 12.796875 0.140625 7.71875 1.703125 
L 7.71875 11.625 
Q 12.109375 9.234375 16.796875 8.0625 
Q 21.484375 6.890625 26.703125 6.890625 
Q 35.15625 6.890625 40.078125 11.328125 
Q 45.015625 15.765625 45.015625 23.390625 
Q 45.015625 31 40.078125 35.4375 
Q 35.15625 39.890625 26.703125 39.890625 
Q 22.75 39.890625 18.8125 39.015625 
Q 14.890625 38.140625 10.796875 36.28125 
z
" id="DejaVuSans-53"/>
       </defs>
       <use xlink:href="#DejaVuSans-50"/>
       <use x="63.623047" xlink:href="#DejaVuSans-48"/>
       <use x="127.246094" xlink:href="#DejaVuSans-50"/>
       <use x="190.869141" xlink:href="#DejaVuSans-48"/>
       <use x="254.492188" xlink:href="#DejaVuSans-45"/>
       <use x="290.576172" xlink:href="#DejaVuSans-48"/>
       <use x="354.199219" xlink:href="#DejaVuSans-53"/>
      </g>
     </g>
    </g>
    <g id="xtick_6">
     <g id="line2d_6">
      <g>
       <use style="stroke:#000000;" x="279.552035" xlink:href="#mc86626a43c" y="295.102246"/>
      </g>
     </g>
     <g id="text_6">
      <!-- 2020-06 -->
      <g transform="translate(242.327214 333.074092)rotate(-30)scale(0.1 -0.1)">
       <defs>
        <path d="M 33.015625 40.375 
Q 26.375 40.375 22.484375 35.828125 
Q 18.609375 31.296875 18.609375 23.390625 
Q 18.609375 15.53125 22.484375 10.953125 
Q 26.375 6.390625 33.015625 6.390625 
Q 39.65625 6.390625 43.53125 10.953125 
Q 47.40625 15.53125 47.40625 23.390625 
Q 47.40625 31.296875 43.53125 35.828125 
Q 39.65625 40.375 33.015625 40.375 
z
M 52.59375 71.296875 
L 52.59375 62.3125 
Q 48.875 64.0625 45.09375 64.984375 
Q 41.3125 65.921875 37.59375 65.921875 
Q 27.828125 65.921875 22.671875 59.328125 
Q 17.53125 52.734375 16.796875 39.40625 
Q 19.671875 43.65625 24.015625 45.921875 
Q 28.375 48.1875 33.59375 48.1875 
Q 44.578125 48.1875 50.953125 41.515625 
Q 57.328125 34.859375 57.328125 23.390625 
Q 57.328125 12.15625 50.6875 5.359375 
Q 44.046875 -1.421875 33.015625 -1.421875 
Q 20.359375 -1.421875 13.671875 8.265625 
Q 6.984375 17.96875 6.984375 36.375 
Q 6.984375 53.65625 15.1875 63.9375 
Q 23.390625 74.21875 37.203125 74.21875 
Q 40.921875 74.21875 44.703125 73.484375 
Q 48.484375 72.75 52.59375 71.296875 
z
" id="DejaVuSans-54"/>
       </defs>
       <use xlink:href="#DejaVuSans-50"/>
       <use x="63.623047" xlink:href="#DejaVuSans-48"/>
       <use x="127.246094" xlink:href="#DejaVuSans-50"/>
       <use x="190.869141" xlink:href="#DejaVuSans-48"/>
       <use x="254.492188" xlink:href="#DejaVuSans-45"/>
       <use x="290.576172" xlink:href="#DejaVuSans-48"/>
       <use x="354.199219" xlink:href="#DejaVuSans-54"/>
      </g>
     </g>
    </g>
    <g id="xtick_7">
     <g id="line2d_7">
      <g>
       <use style="stroke:#000000;" x="324.171868" xlink:href="#mc86626a43c" y="295.102246"/>
      </g>
     </g>
     <g id="text_7">
      <!-- 2020-07 -->
      <g transform="translate(286.947047 333.074092)rotate(-30)scale(0.1 -0.1)">
       <defs>
        <path d="M 8.203125 72.90625 
L 55.078125 72.90625 
L 55.078125 68.703125 
L 28.609375 0 
L 18.3125 0 
L 43.21875 64.59375 
L 8.203125 64.59375 
z
" id="DejaVuSans-55"/>
       </defs>
       <use xlink:href="#DejaVuSans-50"/>
       <use x="63.623047" xlink:href="#DejaVuSans-48"/>
       <use x="127.246094" xlink:href="#DejaVuSans-50"/>
       <use x="190.869141" xlink:href="#DejaVuSans-48"/>
       <use x="254.492188" xlink:href="#DejaVuSans-45"/>
       <use x="290.576172" xlink:href="#DejaVuSans-48"/>
       <use x="354.199219" xlink:href="#DejaVuSans-55"/>
      </g>
     </g>
    </g>
    <g id="xtick_8">
     <g id="line2d_8">
      <g>
       <use style="stroke:#000000;" x="370.279029" xlink:href="#mc86626a43c" y="295.102246"/>
      </g>
     </g>
     <g id="text_8">
      <!-- 2020-08 -->
      <g transform="translate(333.054208 333.074092)rotate(-30)scale(0.1 -0.1)">
       <defs>
        <path d="M 31.78125 34.625 
Q 24.75 34.625 20.71875 30.859375 
Q 16.703125 27.09375 16.703125 20.515625 
Q 16.703125 13.921875 20.71875 10.15625 
Q 24.75 6.390625 31.78125 6.390625 
Q 38.8125 6.390625 42.859375 10.171875 
Q 46.921875 13.96875 46.921875 20.515625 
Q 46.921875 27.09375 42.890625 30.859375 
Q 38.875 34.625 31.78125 34.625 
z
M 21.921875 38.8125 
Q 15.578125 40.375 12.03125 44.71875 
Q 8.5 49.078125 8.5 55.328125 
Q 8.5 64.0625 14.71875 69.140625 
Q 20.953125 74.21875 31.78125 74.21875 
Q 42.671875 74.21875 48.875 69.140625 
Q 55.078125 64.0625 55.078125 55.328125 
Q 55.078125 49.078125 51.53125 44.71875 
Q 48 40.375 41.703125 38.8125 
Q 48.828125 37.15625 52.796875 32.3125 
Q 56.78125 27.484375 56.78125 20.515625 
Q 56.78125 9.90625 50.3125 4.234375 
Q 43.84375 -1.421875 31.78125 -1.421875 
Q 19.734375 -1.421875 13.25 4.234375 
Q 6.78125 9.90625 6.78125 20.515625 
Q 6.78125 27.484375 10.78125 32.3125 
Q 14.796875 37.15625 21.921875 38.8125 
z
M 18.3125 54.390625 
Q 18.3125 48.734375 21.84375 45.5625 
Q 25.390625 42.390625 31.78125 42.390625 
Q 38.140625 42.390625 41.71875 45.5625 
Q 45.3125 48.734375 45.3125 54.390625 
Q 45.3125 60.0625 41.71875 63.234375 
Q 38.140625 66.40625 31.78125 66.40625 
Q 25.390625 66.40625 21.84375 63.234375 
Q 18.3125 60.0625 18.3125 54.390625 
z
" id="DejaVuSans-56"/>
       </defs>
       <use xlink:href="#DejaVuSans-50"/>
       <use x="63.623047" xlink:href="#DejaVuSans-48"/>
       <use x="127.246094" xlink:href="#DejaVuSans-50"/>
       <use x="190.869141" xlink:href="#DejaVuSans-48"/>
       <use x="254.492188" xlink:href="#DejaVuSans-45"/>
       <use x="290.576172" xlink:href="#DejaVuSans-48"/>
       <use x="354.199219" xlink:href="#DejaVuSans-56"/>
      </g>
     </g>
    </g>
    <g id="xtick_9">
     <g id="line2d_9">
      <g>
       <use style="stroke:#000000;" x="416.386189" xlink:href="#mc86626a43c" y="295.102246"/>
      </g>
     </g>
     <g id="text_9">
      <!-- 2020-09 -->
      <g transform="translate(379.161368 333.074092)rotate(-30)scale(0.1 -0.1)">
       <defs>
        <path d="M 10.984375 1.515625 
L 10.984375 10.5 
Q 14.703125 8.734375 18.5 7.8125 
Q 22.3125 6.890625 25.984375 6.890625 
Q 35.75 6.890625 40.890625 13.453125 
Q 46.046875 20.015625 46.78125 33.40625 
Q 43.953125 29.203125 39.59375 26.953125 
Q 35.25 24.703125 29.984375 24.703125 
Q 19.046875 24.703125 12.671875 31.3125 
Q 6.296875 37.9375 6.296875 49.421875 
Q 6.296875 60.640625 12.9375 67.421875 
Q 19.578125 74.21875 30.609375 74.21875 
Q 43.265625 74.21875 49.921875 64.515625 
Q 56.59375 54.828125 56.59375 36.375 
Q 56.59375 19.140625 48.40625 8.859375 
Q 40.234375 -1.421875 26.421875 -1.421875 
Q 22.703125 -1.421875 18.890625 -0.6875 
Q 15.09375 0.046875 10.984375 1.515625 
z
M 30.609375 32.421875 
Q 37.25 32.421875 41.125 36.953125 
Q 45.015625 41.5 45.015625 49.421875 
Q 45.015625 57.28125 41.125 61.84375 
Q 37.25 66.40625 30.609375 66.40625 
Q 23.96875 66.40625 20.09375 61.84375 
Q 16.21875 57.28125 16.21875 49.421875 
Q 16.21875 41.5 20.09375 36.953125 
Q 23.96875 32.421875 30.609375 32.421875 
z
" id="DejaVuSans-57"/>
       </defs>
       <use xlink:href="#DejaVuSans-50"/>
       <use x="63.623047" xlink:href="#DejaVuSans-48"/>
       <use x="127.246094" xlink:href="#DejaVuSans-50"/>
       <use x="190.869141" xlink:href="#DejaVuSans-48"/>
       <use x="254.492188" xlink:href="#DejaVuSans-45"/>
       <use x="290.576172" xlink:href="#DejaVuSans-48"/>
       <use x="354.199219" xlink:href="#DejaVuSans-57"/>
      </g>
     </g>
    </g>
    <g id="xtick_10">
     <g id="line2d_10">
      <g>
       <use style="stroke:#000000;" x="461.006022" xlink:href="#mc86626a43c" y="295.102246"/>
      </g>
     </g>
     <g id="text_10">
      <!-- 2020-10 -->
      <g transform="translate(423.781201 333.074092)rotate(-30)scale(0.1 -0.1)">
       <use xlink:href="#DejaVuSans-50"/>
       <use x="63.623047" xlink:href="#DejaVuSans-48"/>
       <use x="127.246094" xlink:href="#DejaVuSans-50"/>
       <use x="190.869141" xlink:href="#DejaVuSans-48"/>
       <use x="254.492188" xlink:href="#DejaVuSans-45"/>
       <use x="290.576172" xlink:href="#DejaVuSans-49"/>
       <use x="354.199219" xlink:href="#DejaVuSans-48"/>
      </g>
     </g>
    </g>
    <g id="xtick_11">
     <g id="line2d_11">
      <g>
       <use style="stroke:#000000;" x="507.113183" xlink:href="#mc86626a43c" y="295.102246"/>
      </g>
     </g>
     <g id="text_11">
      <!-- 2020-11 -->
      <g transform="translate(469.888362 333.074092)rotate(-30)scale(0.1 -0.1)">
       <use xlink:href="#DejaVuSans-50"/>
       <use x="63.623047" xlink:href="#DejaVuSans-48"/>
       <use x="127.246094" xlink:href="#DejaVuSans-50"/>
       <use x="190.869141" xlink:href="#DejaVuSans-48"/>
       <use x="254.492188" xlink:href="#DejaVuSans-45"/>
       <use x="290.576172" xlink:href="#DejaVuSans-49"/>
       <use x="354.199219" xlink:href="#DejaVuSans-49"/>
      </g>
     </g>
    </g>
    <g id="text_12">
     <!-- Date -->
     <g transform="translate(273.099151 347.233436)scale(0.11 -0.11)">
      <defs>
       <path d="M 19.671875 64.796875 
L 19.671875 8.109375 
L 31.59375 8.109375 
Q 46.6875 8.109375 53.6875 14.9375 
Q 60.6875 21.78125 60.6875 36.53125 
Q 60.6875 51.171875 53.6875 57.984375 
Q 46.6875 64.796875 31.59375 64.796875 
z
M 9.8125 72.90625 
L 30.078125 72.90625 
Q 51.265625 72.90625 61.171875 64.09375 
Q 71.09375 55.28125 71.09375 36.53125 
Q 71.09375 17.671875 61.125 8.828125 
Q 51.171875 0 30.078125 0 
L 9.8125 0 
z
" id="DejaVuSans-68"/>
       <path d="M 34.28125 27.484375 
Q 23.390625 27.484375 19.1875 25 
Q 14.984375 22.515625 14.984375 16.5 
Q 14.984375 11.71875 18.140625 8.90625 
Q 21.296875 6.109375 26.703125 6.109375 
Q 34.1875 6.109375 38.703125 11.40625 
Q 43.21875 16.703125 43.21875 25.484375 
L 43.21875 27.484375 
z
M 52.203125 31.203125 
L 52.203125 0 
L 43.21875 0 
L 43.21875 8.296875 
Q 40.140625 3.328125 35.546875 0.953125 
Q 30.953125 -1.421875 24.3125 -1.421875 
Q 15.921875 -1.421875 10.953125 3.296875 
Q 6 8.015625 6 15.921875 
Q 6 25.140625 12.171875 29.828125 
Q 18.359375 34.515625 30.609375 34.515625 
L 43.21875 34.515625 
L 43.21875 35.40625 
Q 43.21875 41.609375 39.140625 45 
Q 35.0625 48.390625 27.6875 48.390625 
Q 23 48.390625 18.546875 47.265625 
Q 14.109375 46.140625 10.015625 43.890625 
L 10.015625 52.203125 
Q 14.9375 54.109375 19.578125 55.046875 
Q 24.21875 56 28.609375 56 
Q 40.484375 56 46.34375 49.84375 
Q 52.203125 43.703125 52.203125 31.203125 
z
" id="DejaVuSans-97"/>
       <path d="M 18.3125 70.21875 
L 18.3125 54.6875 
L 36.8125 54.6875 
L 36.8125 47.703125 
L 18.3125 47.703125 
L 18.3125 18.015625 
Q 18.3125 11.328125 20.140625 9.421875 
Q 21.96875 7.515625 27.59375 7.515625 
L 36.8125 7.515625 
L 36.8125 0 
L 27.59375 0 
Q 17.1875 0 13.234375 3.875 
Q 9.28125 7.765625 9.28125 18.015625 
L 9.28125 47.703125 
L 2.6875 47.703125 
L 2.6875 54.6875 
L 9.28125 54.6875 
L 9.28125 70.21875 
z
" id="DejaVuSans-116"/>
       <path d="M 56.203125 29.59375 
L 56.203125 25.203125 
L 14.890625 25.203125 
Q 15.484375 15.921875 20.484375 11.0625 
Q 25.484375 6.203125 34.421875 6.203125 
Q 39.59375 6.203125 44.453125 7.46875 
Q 49.3125 8.734375 54.109375 11.28125 
L 54.109375 2.78125 
Q 49.265625 0.734375 44.1875 -0.34375 
Q 39.109375 -1.421875 33.890625 -1.421875 
Q 20.796875 -1.421875 13.15625 6.1875 
Q 5.515625 13.8125 5.515625 26.8125 
Q 5.515625 40.234375 12.765625 48.109375 
Q 20.015625 56 32.328125 56 
Q 43.359375 56 49.78125 48.890625 
Q 56.203125 41.796875 56.203125 29.59375 
z
M 47.21875 32.234375 
Q 47.125 39.59375 43.09375 43.984375 
Q 39.0625 48.390625 32.421875 48.390625 
Q 24.90625 48.390625 20.390625 44.140625 
Q 15.875 39.890625 15.1875 32.171875 
z
" id="DejaVuSans-101"/>
      </defs>
      <use xlink:href="#DejaVuSans-68"/>
      <use x="77.001953" xlink:href="#DejaVuSans-97"/>
      <use x="138.28125" xlink:href="#DejaVuSans-116"/>
      <use x="177.490234" xlink:href="#DejaVuSans-101"/>
     </g>
    </g>
   </g>
   <g id="matplotlib.axis_2">
    <g id="ytick_1">
     <g id="line2d_12">
      <defs>
       <path d="M 0 0 
L -3.5 0 
" id="m42182d6c97" style="stroke:#000000;"/>
      </defs>
      <g>
       <use style="stroke:#000000;" x="43.29002" xlink:href="#m42182d6c97" y="282.906689"/>
      </g>
     </g>
     <g id="text_13">
      <!-- 0 -->
      <g transform="translate(26.42752 286.705908)scale(0.1 -0.1)">
       <use xlink:href="#DejaVuSans-48"/>
      </g>
     </g>
    </g>
    <g id="ytick_2">
     <g id="line2d_13">
      <g>
       <use style="stroke:#000000;" x="43.29002" xlink:href="#m42182d6c97" y="250.866978"/>
      </g>
     </g>
     <g id="text_14">
      <!-- 2 -->
      <g transform="translate(26.42752 254.666196)scale(0.1 -0.1)">
       <use xlink:href="#DejaVuSans-50"/>
      </g>
     </g>
    </g>
    <g id="ytick_3">
     <g id="line2d_14">
      <g>
       <use style="stroke:#000000;" x="43.29002" xlink:href="#m42182d6c97" y="218.827266"/>
      </g>
     </g>
     <g id="text_15">
      <!-- 4 -->
      <g transform="translate(26.42752 222.626485)scale(0.1 -0.1)">
       <use xlink:href="#DejaVuSans-52"/>
      </g>
     </g>
    </g>
    <g id="ytick_4">
     <g id="line2d_15">
      <g>
       <use style="stroke:#000000;" x="43.29002" xlink:href="#m42182d6c97" y="186.787555"/>
      </g>
     </g>
     <g id="text_16">
      <!-- 6 -->
      <g transform="translate(26.42752 190.586773)scale(0.1 -0.1)">
       <use xlink:href="#DejaVuSans-54"/>
      </g>
     </g>
    </g>
    <g id="ytick_5">
     <g id="line2d_16">
      <g>
       <use style="stroke:#000000;" x="43.29002" xlink:href="#m42182d6c97" y="154.747843"/>
      </g>
     </g>
     <g id="text_17">
      <!-- 8 -->
      <g transform="translate(26.42752 158.547062)scale(0.1 -0.1)">
       <use xlink:href="#DejaVuSans-56"/>
      </g>
     </g>
    </g>
    <g id="ytick_6">
     <g id="line2d_17">
      <g>
       <use style="stroke:#000000;" x="43.29002" xlink:href="#m42182d6c97" y="122.708131"/>
      </g>
     </g>
     <g id="text_18">
      <!-- 10 -->
      <g transform="translate(20.06502 126.50735)scale(0.1 -0.1)">
       <use xlink:href="#DejaVuSans-49"/>
       <use x="63.623047" xlink:href="#DejaVuSans-48"/>
      </g>
     </g>
    </g>
    <g id="ytick_7">
     <g id="line2d_18">
      <g>
       <use style="stroke:#000000;" x="43.29002" xlink:href="#m42182d6c97" y="90.66842"/>
      </g>
     </g>
     <g id="text_19">
      <!-- 12 -->
      <g transform="translate(20.06502 94.467639)scale(0.1 -0.1)">
       <use xlink:href="#DejaVuSans-49"/>
       <use x="63.623047" xlink:href="#DejaVuSans-50"/>
      </g>
     </g>
    </g>
    <g id="ytick_8">
     <g id="line2d_19">
      <g>
       <use style="stroke:#000000;" x="43.29002" xlink:href="#m42182d6c97" y="58.628708"/>
      </g>
     </g>
     <g id="text_20">
      <!-- 14 -->
      <g transform="translate(20.06502 62.427927)scale(0.1 -0.1)">
       <use xlink:href="#DejaVuSans-49"/>
       <use x="63.623047" xlink:href="#DejaVuSans-52"/>
      </g>
     </g>
    </g>
   </g>
   <g id="line2d_20">
    <path clip-path="url(#p55f76d58d6)" d="M 65.376838 282.906689 
L 153.129176 282.825372 
L 154.616503 282.784713 
L 156.103831 282.622079 
L 160.565814 282.540762 
L 165.027798 280.426513 
L 166.515125 279.979268 
L 168.002453 278.637533 
L 169.489781 277.011188 
L 170.977109 275.75077 
L 172.464436 274.287059 
L 173.951764 273.880473 
L 175.439092 272.050835 
L 176.92642 266.84653 
L 178.413748 260.951028 
L 179.901075 255.787382 
L 182.875731 236.921777 
L 184.363059 229.969151 
L 185.850386 218.340782 
L 187.337714 209.19259 
L 190.31237 173.860239 
L 194.774353 126.045688 
L 196.261681 118.808451 
L 197.749008 92.746268 
L 199.236336 80.182751 
L 202.210992 48.956921 
L 203.698319 46.680038 
L 205.185647 45.622914 
L 206.672975 38.995557 
L 208.160303 39.076874 
L 209.64763 46.883331 
L 211.134958 50.298656 
L 212.622286 58.79631 
L 214.109614 48.265725 
L 215.596942 57.373258 
L 217.084269 63.797322 
L 218.571597 59.365531 
L 220.058925 59.568824 
L 221.546253 72.254318 
L 223.03358 72.457611 
L 224.520908 83.638734 
L 226.008236 85.793642 
L 228.982891 106.163617 
L 230.470219 111.083311 
L 231.957547 113.156901 
L 233.444875 121.20731 
L 234.932202 131.128016 
L 236.41953 135.397173 
L 237.906858 137.104835 
L 239.394186 146.17171 
L 240.881513 149.221108 
L 242.368841 155.970441 
L 243.856169 161.05277 
L 245.343497 171.583355 
L 246.830825 172.884431 
L 248.318152 175.852512 
L 249.80548 179.918375 
L 251.292808 186.708366 
L 252.780136 189.717105 
L 254.267463 198.580687 
L 255.754791 193.620334 
L 257.242119 199.597153 
L 258.729447 201.223498 
L 260.216774 204.964092 
L 261.704102 209.151931 
L 263.19143 212.526598 
L 264.678758 213.461746 
L 266.166085 219.601199 
L 267.653413 206.631096 
L 269.140741 208.58271 
L 270.628069 222.487962 
L 272.115396 216.91773 
L 273.602724 213.05516 
L 275.090052 213.502405 
L 276.57738 216.755095 
L 278.064708 229.887833 
L 279.552035 230.172444 
L 281.039363 225.171432 
L 282.526691 232.408669 
L 284.014019 240.662371 
L 285.501346 240.946981 
L 288.476002 240.174467 
L 289.96333 241.597519 
L 291.450657 243.589792 
L 292.937985 246.63919 
L 294.425313 248.590804 
L 295.912641 253.551157 
L 297.399968 254.852233 
L 298.887296 255.909358 
L 300.374624 256.681872 
L 301.861952 259.649952 
L 303.349279 261.804859 
L 304.836607 261.967494 
L 306.323935 263.756474 
L 307.811263 264.854257 
L 309.29859 264.569646 
L 310.785918 265.05755 
L 312.273246 265.95204 
L 313.760574 266.602578 
L 315.247902 265.34216 
L 316.735229 265.220184 
L 318.222557 266.561919 
L 319.709885 266.643237 
L 321.197213 266.480602 
L 322.68454 267.984971 
L 324.171868 267.334433 
L 325.659196 269.773951 
L 327.146524 271.034369 
L 328.633851 271.318979 
L 330.121179 271.725566 
L 331.608507 271.969517 
L 333.095835 271.847541 
L 334.583162 273.392569 
L 336.07049 273.473887 
L 340.532473 274.734304 
L 342.019801 274.85628 
L 343.507129 275.181549 
L 344.994457 276.319991 
L 346.481785 276.563943 
L 349.45644 277.214481 
L 352.431096 277.092505 
L 353.918423 277.783702 
L 355.405751 278.108971 
L 356.893079 278.678192 
L 359.867734 278.149629 
L 361.355062 278.271605 
L 362.84239 278.556216 
L 364.329718 278.71885 
L 365.817045 278.190288 
L 367.304373 278.556216 
L 368.791701 279.288071 
L 374.741012 279.897951 
L 376.22834 280.589147 
L 377.715668 279.979268 
L 380.690323 280.711123 
L 382.177651 280.589147 
L 383.664979 279.938609 
L 385.152306 280.182561 
L 391.101617 279.735316 
L 392.588945 279.816633 
L 394.076273 280.385854 
L 397.050928 280.385854 
L 398.538256 280.873758 
L 400.025584 281.199027 
L 401.512912 280.589147 
L 404.487567 280.548489 
L 405.974895 280.345196 
L 407.462223 280.426513 
L 408.949551 280.263878 
L 410.436878 279.979268 
L 413.411534 280.304537 
L 414.898862 280.345196 
L 416.386189 280.914416 
L 417.873517 281.158368 
L 420.848173 281.11771 
L 423.822828 281.11771 
L 425.310156 281.11771 
L 426.797484 280.101244 
L 429.772139 279.979268 
L 432.746795 280.182561 
L 435.72145 279.857292 
L 437.208778 279.938609 
L 438.696106 279.572682 
L 440.183433 279.369388 
L 441.670761 278.678192 
L 444.645417 277.621067 
L 446.132745 277.53975 
L 447.620072 277.092505 
L 449.1074 276.441967 
L 450.594728 275.669453 
L 453.569383 275.018915 
L 455.056711 275.100232 
L 456.544039 274.937597 
L 459.518694 272.457421 
L 461.006022 272.010176 
L 462.49335 270.912393 
L 463.980678 270.546465 
L 465.468005 269.895927 
L 466.955333 269.651975 
L 468.442661 269.855268 
L 469.929989 269.733293 
L 472.904644 267.984971 
L 474.391972 267.375092 
L 475.8793 266.155333 
L 477.366628 265.179526 
L 478.853955 262.699349 
L 483.315939 257.61702 
L 484.803266 254.608282 
L 486.290594 254.730257 
L 487.777922 253.551157 
L 489.26525 249.932539 
L 490.752577 248.468828 
L 492.239905 246.476555 
L 493.727233 243.711768 
L 495.214561 243.183206 
L 496.701888 240.011833 
L 498.189216 239.279977 
L 499.676544 234.848186 
L 501.163872 231.107592 
L 502.651199 228.912026 
L 504.138527 227.366998 
L 505.625855 221.796766 
L 507.113183 222.000059 
L 507.113183 222.000059 
" style="fill:none;stroke:#1f77b4;stroke-linecap:square;stroke-width:1.75;"/>
   </g>
   <g id="line2d_21">
    <path clip-path="url(#p55f76d58d6)" d="M 65.376838 282.906689 
L 165.027798 282.906689 
L 168.002453 282.068899 
L 169.489781 280.812213 
L 170.977109 280.812213 
L 172.464436 280.393317 
L 173.951764 279.136631 
L 175.439092 277.46105 
L 176.92642 277.042155 
L 178.413748 274.947678 
L 179.901075 274.947678 
L 181.388403 271.596516 
L 182.875731 269.083144 
L 184.363059 269.920934 
L 185.850386 269.083144 
L 187.337714 260.705237 
L 188.825042 251.48954 
L 190.31237 240.598262 
L 193.287025 208.343322 
L 194.774353 207.924426 
L 196.261681 209.600008 
L 197.749008 187.817451 
L 199.236336 170.223847 
L 200.723664 148.44129 
L 202.210992 147.603499 
L 203.698319 147.184604 
L 205.185647 137.968907 
L 206.672975 135.03664 
L 208.160303 149.279081 
L 209.64763 143.414546 
L 211.134958 143.833442 
L 212.622286 139.644488 
L 214.109614 135.87443 
L 215.596942 141.738965 
L 217.084269 140.482279 
L 218.571597 127.915419 
L 220.058925 130.847686 
L 221.546253 140.063384 
L 223.03358 137.550012 
L 224.520908 141.32007 
L 226.008236 137.968907 
L 227.495564 137.550012 
L 228.982891 137.550012 
L 230.470219 135.03664 
L 231.957547 134.198849 
L 233.444875 144.252337 
L 234.932202 145.509023 
L 236.41953 148.022395 
L 237.906858 151.373557 
L 239.394186 162.264836 
L 240.881513 162.264836 
L 242.368841 162.683731 
L 243.856169 158.913673 
L 245.343497 162.264836 
L 246.830825 163.102626 
L 248.318152 163.102626 
L 249.80548 160.589255 
L 251.292808 169.804952 
L 252.780136 180.277335 
L 254.267463 181.534021 
L 255.754791 179.439544 
L 257.242119 179.858439 
L 258.729447 181.115125 
L 260.216774 189.911927 
L 261.704102 194.519776 
L 263.19143 193.26309 
L 264.678758 202.478787 
L 266.166085 212.95117 
L 267.653413 212.95117 
L 269.140741 212.532275 
L 270.628069 217.140123 
L 272.115396 232.63925 
L 273.602724 243.111633 
L 275.090052 246.881691 
L 276.57738 244.368319 
L 278.064708 244.368319 
L 279.552035 245.20611 
L 281.039363 247.719482 
L 282.526691 248.557273 
L 284.014019 249.813959 
L 285.501346 250.232854 
L 286.988674 256.935179 
L 288.476002 260.705237 
L 289.96333 261.124132 
L 291.450657 263.218609 
L 292.937985 262.799714 
L 294.425313 264.475295 
L 295.912641 269.083144 
L 297.399968 269.502039 
L 298.887296 269.083144 
L 300.374624 269.083144 
L 301.861952 269.920934 
L 304.836607 272.434306 
L 306.323935 271.17762 
L 307.811263 272.434306 
L 309.29859 272.853202 
L 310.785918 272.853202 
L 312.273246 273.272097 
L 313.760574 275.366573 
L 315.247902 275.366573 
L 316.735229 277.879945 
L 318.222557 278.717736 
L 321.197213 278.717736 
L 322.68454 279.136631 
L 324.171868 280.393317 
L 325.659196 280.812213 
L 327.146524 280.393317 
L 331.608507 280.393317 
L 333.095835 281.231108 
L 334.583162 281.231108 
L 337.557818 282.068899 
L 342.019801 282.068899 
L 344.994457 282.906689 
L 346.481785 282.487794 
L 355.405751 282.487794 
L 356.893079 282.906689 
L 395.563601 282.906689 
L 397.050928 282.487794 
L 405.974895 282.487794 
L 407.462223 282.068899 
L 416.386189 282.068899 
L 417.873517 282.487794 
L 419.360845 282.068899 
L 425.310156 282.068899 
L 426.797484 280.812213 
L 429.772139 281.650003 
L 435.72145 281.650003 
L 437.208778 282.487794 
L 438.696106 282.068899 
L 440.183433 282.068899 
L 441.670761 281.650003 
L 443.158089 280.393317 
L 447.620072 280.393317 
L 449.1074 279.974422 
L 450.594728 279.136631 
L 452.082056 279.136631 
L 453.569383 280.393317 
L 455.056711 279.974422 
L 456.544039 279.974422 
L 458.031367 280.393317 
L 459.518694 278.298841 
L 461.006022 277.879945 
L 462.49335 276.623259 
L 463.980678 274.947678 
L 465.468005 275.366573 
L 466.955333 275.366573 
L 468.442661 274.528783 
L 469.929989 277.042155 
L 474.391972 274.528783 
L 477.366628 274.528783 
L 478.853955 272.434306 
L 480.341283 266.569772 
L 481.828611 263.218609 
L 483.315939 261.961923 
L 484.803266 258.191865 
L 486.290594 258.191865 
L 487.777922 257.77297 
L 489.26525 254.421807 
L 490.752577 248.976168 
L 492.239905 247.300587 
L 493.727233 243.530529 
L 495.214561 245.20611 
L 496.701888 244.787215 
L 498.189216 244.787215 
L 499.676544 240.598262 
L 501.163872 240.598262 
L 502.651199 232.220355 
L 504.138527 228.031402 
L 505.625855 222.585763 
L 507.113183 220.491286 
L 507.113183 220.491286 
" style="fill:none;stroke:#ff7f0e;stroke-linecap:square;stroke-width:1.75;"/>
   </g>
   <g id="line2d_22">
    <path clip-path="url(#p55f76d58d6)" d="M 65.376838 282.906689 
L 170.977109 282.906689 
L 172.464436 281.454968 
L 173.951764 274.922222 
L 175.439092 272.018779 
L 176.92642 271.292919 
L 178.413748 267.663615 
L 181.388403 258.953288 
L 182.875731 257.501566 
L 184.363059 256.775706 
L 185.850386 249.517099 
L 187.337714 245.161935 
L 188.825042 227.741279 
L 190.31237 218.305091 
L 191.799697 205.239599 
L 193.287025 198.706853 
L 194.774353 197.255132 
L 196.261681 187.818943 
L 197.749008 179.108615 
L 199.236336 176.205173 
L 200.723664 160.236238 
L 202.210992 156.606935 
L 203.698319 139.91214 
L 205.185647 135.556976 
L 206.672975 144.267304 
L 208.160303 144.267304 
L 209.64763 124.669066 
L 211.134958 131.201812 
L 212.622286 144.267304 
L 214.109614 150.074189 
L 215.596942 133.379394 
L 217.084269 137.734558 
L 218.571597 133.379394 
L 220.058925 166.043123 
L 221.546253 176.931033 
L 223.03358 105.070828 
L 224.520908 108.700131 
L 226.008236 128.298369 
L 227.495564 129.02423 
L 228.982891 134.831115 
L 230.470219 92.731197 
L 231.957547 89.101893 
L 233.444875 156.606935 
L 234.932202 141.363861 
L 236.41953 141.363861 
L 237.906858 137.008697 
L 239.394186 130.475951 
L 240.881513 168.220705 
L 242.368841 171.124148 
L 243.856169 163.139681 
L 245.343497 188.544804 
L 246.830825 189.996525 
L 248.318152 196.529271 
L 249.80548 203.787878 
L 251.292808 203.062017 
L 252.780136 208.868902 
L 254.267463 222.660255 
L 255.754791 216.127509 
L 257.242119 216.127509 
L 258.729447 216.853369 
L 260.216774 216.127509 
L 261.704102 221.934394 
L 263.19143 222.660255 
L 264.678758 224.111976 
L 266.166085 232.822304 
L 267.653413 236.451607 
L 269.140741 234.274025 
L 270.628069 240.806771 
L 272.115396 242.984353 
L 273.602724 239.35505 
L 275.090052 237.177468 
L 276.57738 231.370583 
L 278.064708 228.46714 
L 279.552035 229.918861 
L 281.039363 230.644722 
L 282.526691 226.289558 
L 285.501346 234.999886 
L 286.988674 237.903328 
L 288.476002 242.258492 
L 289.96333 243.710214 
L 291.450657 242.258492 
L 292.937985 248.065378 
L 294.425313 249.517099 
L 295.912641 245.161935 
L 297.399968 248.065378 
L 298.887296 249.517099 
L 300.374624 248.791238 
L 301.861952 249.517099 
L 303.349279 248.791238 
L 304.836607 249.517099 
L 306.323935 253.872263 
L 307.811263 257.501566 
L 309.29859 258.953288 
L 312.273246 263.308452 
L 313.760574 264.760173 
L 315.247902 264.034312 
L 316.735229 265.486034 
L 318.222557 262.582591 
L 319.709885 261.85673 
L 321.197213 260.405009 
L 324.171868 263.308452 
L 325.659196 261.85673 
L 328.633851 261.85673 
L 330.121179 262.582591 
L 331.608507 264.760173 
L 333.095835 264.760173 
L 334.583162 266.211894 
L 336.07049 270.567058 
L 337.557818 272.018779 
L 339.045146 274.922222 
L 340.532473 275.648083 
L 342.019801 275.648083 
L 343.507129 276.373943 
L 346.481785 279.277386 
L 347.969112 278.551525 
L 349.45644 279.277386 
L 350.943768 278.551525 
L 352.431096 278.551525 
L 353.918423 280.003247 
L 355.405751 280.729107 
L 356.893079 280.729107 
L 358.380407 281.454968 
L 364.329718 281.454968 
L 365.817045 278.551525 
L 367.304373 278.551525 
L 368.791701 274.196361 
L 371.766356 271.292919 
L 373.253684 271.292919 
L 374.741012 270.567058 
L 376.22834 272.74464 
L 377.715668 270.567058 
L 379.202995 269.841197 
L 380.690323 270.567058 
L 382.177651 272.74464 
L 383.664979 272.74464 
L 385.152306 272.018779 
L 386.639634 269.841197 
L 388.126962 272.018779 
L 389.61429 277.099804 
L 391.101617 277.099804 
L 392.588945 275.648083 
L 394.076273 275.648083 
L 395.563601 277.099804 
L 397.050928 280.729107 
L 403.000239 280.729107 
L 404.487567 280.003247 
L 405.974895 280.003247 
L 408.949551 278.551525 
L 410.436878 278.551525 
L 411.924206 279.277386 
L 413.411534 280.729107 
L 414.898862 281.454968 
L 416.386189 280.729107 
L 419.360845 282.180829 
L 420.848173 282.180829 
L 422.3355 281.454968 
L 425.310156 281.454968 
L 426.797484 282.180829 
L 431.259467 282.180829 
L 432.746795 282.906689 
L 438.696106 282.906689 
L 440.183433 280.729107 
L 441.670761 280.003247 
L 443.158089 278.551525 
L 447.620072 278.551525 
L 449.1074 277.099804 
L 450.594728 278.551525 
L 452.082056 277.099804 
L 453.569383 276.373943 
L 456.544039 276.373943 
L 458.031367 274.196361 
L 459.518694 274.922222 
L 461.006022 271.292919 
L 462.49335 271.292919 
L 463.980678 269.841197 
L 466.955333 269.841197 
L 468.442661 264.760173 
L 469.929989 263.308452 
L 471.417316 266.937755 
L 472.904644 267.663615 
L 474.391972 256.049845 
L 475.8793 254.598124 
L 477.366628 251.694681 
L 478.853955 255.323984 
L 480.341283 250.24296 
L 481.828611 243.710214 
L 483.315939 241.532632 
L 484.803266 253.146402 
L 486.290594 252.420542 
L 487.777922 254.598124 
L 489.26525 250.96882 
L 490.752577 248.065378 
L 492.239905 250.24296 
L 493.727233 244.436074 
L 495.214561 236.451607 
L 496.701888 234.999886 
L 498.189216 231.370583 
L 499.676544 233.548165 
L 501.163872 216.853369 
L 502.651199 206.69132 
L 504.138527 208.143041 
L 505.625855 210.320623 
L 507.113183 202.336156 
L 507.113183 202.336156 
" style="fill:none;stroke:#2ca02c;stroke-linecap:square;stroke-width:1.75;"/>
   </g>
   <g id="line2d_23">
    <path clip-path="url(#p55f76d58d6)" d="M 65.376838 282.906689 
L 170.977109 282.906689 
L 172.464436 281.698161 
L 173.951764 281.698161 
L 175.439092 280.489632 
L 178.413748 275.655517 
L 181.388403 268.404346 
L 182.875731 267.195817 
L 184.363059 259.944645 
L 185.850386 259.944645 
L 187.337714 255.11053 
L 188.825042 255.11053 
L 190.31237 251.484944 
L 191.799697 240.608186 
L 193.287025 233.357015 
L 194.774353 232.148486 
L 196.261681 224.897314 
L 197.749008 228.5229 
L 199.236336 224.897314 
L 202.210992 229.731429 
L 203.698319 221.271728 
L 205.185647 216.437613 
L 206.672975 217.646142 
L 208.160303 209.186442 
L 209.64763 207.977913 
L 211.134958 191.058512 
L 212.622286 181.390283 
L 214.109614 178.973225 
L 215.596942 191.058512 
L 217.084269 182.598811 
L 218.571597 178.973225 
L 220.058925 149.968538 
L 221.546253 156.011181 
L 223.03358 159.636767 
L 224.520908 160.845295 
L 226.008236 156.011181 
L 227.495564 159.636767 
L 228.982891 151.177066 
L 230.470219 176.556168 
L 231.957547 181.390283 
L 233.444875 177.764697 
L 234.932202 183.80734 
L 236.41953 183.80734 
L 237.906858 188.641454 
L 239.394186 192.26704 
L 240.881513 186.224397 
L 242.368841 192.26704 
L 243.856169 209.186442 
L 245.343497 217.646142 
L 246.830825 217.646142 
L 248.318152 221.271728 
L 249.80548 230.939957 
L 251.292808 245.442301 
L 252.780136 244.233772 
L 254.267463 230.939957 
L 255.754791 230.939957 
L 257.242119 233.357015 
L 258.729447 229.731429 
L 260.216774 232.148486 
L 261.704102 228.5229 
L 263.19143 226.105843 
L 264.678758 240.608186 
L 266.166085 244.233772 
L 267.653413 246.65083 
L 269.140741 244.233772 
L 270.628069 252.693473 
L 272.115396 256.319059 
L 273.602724 262.361702 
L 278.064708 262.361702 
L 279.552035 270.821403 
L 281.039363 268.404346 
L 282.526691 261.153174 
L 284.014019 262.361702 
L 285.501346 264.77876 
L 286.988674 264.77876 
L 289.96333 267.195817 
L 291.450657 269.612874 
L 292.937985 279.281103 
L 295.912641 279.281103 
L 297.399968 278.072575 
L 300.374624 278.072575 
L 303.349279 275.655517 
L 304.836607 276.864046 
L 306.323935 276.864046 
L 307.811263 278.072575 
L 318.222557 278.072575 
L 321.197213 275.655517 
L 324.171868 278.072575 
L 327.146524 275.655517 
L 331.608507 279.281103 
L 334.583162 279.281103 
L 336.07049 280.489632 
L 337.557818 282.906689 
L 340.532473 282.906689 
L 342.019801 280.489632 
L 350.943768 280.489632 
L 352.431096 282.906689 
L 382.177651 282.906689 
L 383.664979 281.698161 
L 388.126962 281.698161 
L 389.61429 280.489632 
L 392.588945 280.489632 
L 394.076273 281.698161 
L 395.563601 280.489632 
L 398.538256 280.489632 
L 400.025584 281.698161 
L 404.487567 281.698161 
L 405.974895 282.906689 
L 407.462223 282.906689 
L 408.949551 281.698161 
L 416.386189 281.698161 
L 417.873517 279.281103 
L 419.360845 279.281103 
L 420.848173 278.072575 
L 423.822828 278.072575 
L 425.310156 276.864046 
L 426.797484 274.446989 
L 428.284811 276.864046 
L 429.772139 276.864046 
L 431.259467 278.072575 
L 434.234122 278.072575 
L 435.72145 276.864046 
L 437.208778 278.072575 
L 438.696106 275.655517 
L 440.183433 276.864046 
L 441.670761 274.446989 
L 446.132745 274.446989 
L 447.620072 275.655517 
L 449.1074 278.072575 
L 450.594728 278.072575 
L 452.082056 280.489632 
L 453.569383 279.281103 
L 455.056711 279.281103 
L 456.544039 281.698161 
L 458.031367 281.698161 
L 459.518694 280.489632 
L 461.006022 278.072575 
L 462.49335 276.864046 
L 463.980678 276.864046 
L 465.468005 275.655517 
L 466.955333 275.655517 
L 468.442661 274.446989 
L 469.929989 274.446989 
L 474.391972 278.072575 
L 475.8793 278.072575 
L 477.366628 274.446989 
L 478.853955 267.195817 
L 481.828611 259.944645 
L 484.803266 255.11053 
L 486.290594 250.276416 
L 487.777922 246.65083 
L 489.26525 251.484944 
L 492.239905 249.067887 
L 493.727233 245.442301 
L 495.214561 240.608186 
L 496.701888 236.982601 
L 498.189216 238.191129 
L 499.676544 226.105843 
L 501.163872 221.271728 
L 502.651199 217.646142 
L 504.138527 212.812027 
L 505.625855 206.769384 
L 507.113183 206.769384 
L 507.113183 206.769384 
" style="fill:none;stroke:#d62728;stroke-linecap:square;stroke-width:1.75;"/>
   </g>
   <g id="patch_3">
    <path d="M 43.29002 295.102246 
L 43.29002 26.8 
" style="fill:none;stroke:#000000;stroke-linecap:square;stroke-linejoin:miter;stroke-width:0.8;"/>
   </g>
   <g id="patch_4">
    <path d="M 529.2 295.102246 
L 529.2 26.8 
" style="fill:none;stroke:#000000;stroke-linecap:square;stroke-linejoin:miter;stroke-width:0.8;"/>
   </g>
   <g id="patch_5">
    <path d="M 43.29002 295.102246 
L 529.2 295.102246 
" style="fill:none;stroke:#000000;stroke-linecap:square;stroke-linejoin:miter;stroke-width:0.8;"/>
   </g>
   <g id="patch_6">
    <path d="M 43.29002 26.8 
L 529.2 26.8 
" style="fill:none;stroke:#000000;stroke-linecap:square;stroke-linejoin:miter;stroke-width:0.8;"/>
   </g>
   <g id="text_21">
    <!-- New Deaths per Million (7 day rolling) -->
    <g transform="translate(173.01001 20.8)scale(0.12 -0.12)">
     <defs>
      <path d="M 9.8125 72.90625 
L 23.09375 72.90625 
L 55.421875 11.921875 
L 55.421875 72.90625 
L 64.984375 72.90625 
L 64.984375 0 
L 51.703125 0 
L 19.390625 60.984375 
L 19.390625 0 
L 9.8125 0 
z
" id="DejaVuSans-78"/>
      <path d="M 4.203125 54.6875 
L 13.1875 54.6875 
L 24.421875 12.015625 
L 35.59375 54.6875 
L 46.1875 54.6875 
L 57.421875 12.015625 
L 68.609375 54.6875 
L 77.59375 54.6875 
L 63.28125 0 
L 52.6875 0 
L 40.921875 44.828125 
L 29.109375 0 
L 18.5 0 
z
" id="DejaVuSans-119"/>
      <path id="DejaVuSans-32"/>
      <path d="M 54.890625 33.015625 
L 54.890625 0 
L 45.90625 0 
L 45.90625 32.71875 
Q 45.90625 40.484375 42.875 44.328125 
Q 39.84375 48.1875 33.796875 48.1875 
Q 26.515625 48.1875 22.3125 43.546875 
Q 18.109375 38.921875 18.109375 30.90625 
L 18.109375 0 
L 9.078125 0 
L 9.078125 75.984375 
L 18.109375 75.984375 
L 18.109375 46.1875 
Q 21.34375 51.125 25.703125 53.5625 
Q 30.078125 56 35.796875 56 
Q 45.21875 56 50.046875 50.171875 
Q 54.890625 44.34375 54.890625 33.015625 
z
" id="DejaVuSans-104"/>
      <path d="M 44.28125 53.078125 
L 44.28125 44.578125 
Q 40.484375 46.53125 36.375 47.5 
Q 32.28125 48.484375 27.875 48.484375 
Q 21.1875 48.484375 17.84375 46.4375 
Q 14.5 44.390625 14.5 40.28125 
Q 14.5 37.15625 16.890625 35.375 
Q 19.28125 33.59375 26.515625 31.984375 
L 29.59375 31.296875 
Q 39.15625 29.25 43.1875 25.515625 
Q 47.21875 21.78125 47.21875 15.09375 
Q 47.21875 7.46875 41.1875 3.015625 
Q 35.15625 -1.421875 24.609375 -1.421875 
Q 20.21875 -1.421875 15.453125 -0.5625 
Q 10.6875 0.296875 5.421875 2 
L 5.421875 11.28125 
Q 10.40625 8.6875 15.234375 7.390625 
Q 20.0625 6.109375 24.8125 6.109375 
Q 31.15625 6.109375 34.5625 8.28125 
Q 37.984375 10.453125 37.984375 14.40625 
Q 37.984375 18.0625 35.515625 20.015625 
Q 33.0625 21.96875 24.703125 23.78125 
L 21.578125 24.515625 
Q 13.234375 26.265625 9.515625 29.90625 
Q 5.8125 33.546875 5.8125 39.890625 
Q 5.8125 47.609375 11.28125 51.796875 
Q 16.75 56 26.8125 56 
Q 31.78125 56 36.171875 55.265625 
Q 40.578125 54.546875 44.28125 53.078125 
z
" id="DejaVuSans-115"/>
      <path d="M 18.109375 8.203125 
L 18.109375 -20.796875 
L 9.078125 -20.796875 
L 9.078125 54.6875 
L 18.109375 54.6875 
L 18.109375 46.390625 
Q 20.953125 51.265625 25.265625 53.625 
Q 29.59375 56 35.59375 56 
Q 45.5625 56 51.78125 48.09375 
Q 58.015625 40.1875 58.015625 27.296875 
Q 58.015625 14.40625 51.78125 6.484375 
Q 45.5625 -1.421875 35.59375 -1.421875 
Q 29.59375 -1.421875 25.265625 0.953125 
Q 20.953125 3.328125 18.109375 8.203125 
z
M 48.6875 27.296875 
Q 48.6875 37.203125 44.609375 42.84375 
Q 40.53125 48.484375 33.40625 48.484375 
Q 26.265625 48.484375 22.1875 42.84375 
Q 18.109375 37.203125 18.109375 27.296875 
Q 18.109375 17.390625 22.1875 11.75 
Q 26.265625 6.109375 33.40625 6.109375 
Q 40.53125 6.109375 44.609375 11.75 
Q 48.6875 17.390625 48.6875 27.296875 
z
" id="DejaVuSans-112"/>
      <path d="M 41.109375 46.296875 
Q 39.59375 47.171875 37.8125 47.578125 
Q 36.03125 48 33.890625 48 
Q 26.265625 48 22.1875 43.046875 
Q 18.109375 38.09375 18.109375 28.8125 
L 18.109375 0 
L 9.078125 0 
L 9.078125 54.6875 
L 18.109375 54.6875 
L 18.109375 46.1875 
Q 20.953125 51.171875 25.484375 53.578125 
Q 30.03125 56 36.53125 56 
Q 37.453125 56 38.578125 55.875 
Q 39.703125 55.765625 41.0625 55.515625 
z
" id="DejaVuSans-114"/>
      <path d="M 9.8125 72.90625 
L 24.515625 72.90625 
L 43.109375 23.296875 
L 61.8125 72.90625 
L 76.515625 72.90625 
L 76.515625 0 
L 66.890625 0 
L 66.890625 64.015625 
L 48.09375 14.015625 
L 38.1875 14.015625 
L 19.390625 64.015625 
L 19.390625 0 
L 9.8125 0 
z
" id="DejaVuSans-77"/>
      <path d="M 9.421875 54.6875 
L 18.40625 54.6875 
L 18.40625 0 
L 9.421875 0 
z
M 9.421875 75.984375 
L 18.40625 75.984375 
L 18.40625 64.59375 
L 9.421875 64.59375 
z
" id="DejaVuSans-105"/>
      <path d="M 9.421875 75.984375 
L 18.40625 75.984375 
L 18.40625 0 
L 9.421875 0 
z
" id="DejaVuSans-108"/>
      <path d="M 30.609375 48.390625 
Q 23.390625 48.390625 19.1875 42.75 
Q 14.984375 37.109375 14.984375 27.296875 
Q 14.984375 17.484375 19.15625 11.84375 
Q 23.34375 6.203125 30.609375 6.203125 
Q 37.796875 6.203125 41.984375 11.859375 
Q 46.1875 17.53125 46.1875 27.296875 
Q 46.1875 37.015625 41.984375 42.703125 
Q 37.796875 48.390625 30.609375 48.390625 
z
M 30.609375 56 
Q 42.328125 56 49.015625 48.375 
Q 55.71875 40.765625 55.71875 27.296875 
Q 55.71875 13.875 49.015625 6.21875 
Q 42.328125 -1.421875 30.609375 -1.421875 
Q 18.84375 -1.421875 12.171875 6.21875 
Q 5.515625 13.875 5.515625 27.296875 
Q 5.515625 40.765625 12.171875 48.375 
Q 18.84375 56 30.609375 56 
z
" id="DejaVuSans-111"/>
      <path d="M 54.890625 33.015625 
L 54.890625 0 
L 45.90625 0 
L 45.90625 32.71875 
Q 45.90625 40.484375 42.875 44.328125 
Q 39.84375 48.1875 33.796875 48.1875 
Q 26.515625 48.1875 22.3125 43.546875 
Q 18.109375 38.921875 18.109375 30.90625 
L 18.109375 0 
L 9.078125 0 
L 9.078125 54.6875 
L 18.109375 54.6875 
L 18.109375 46.1875 
Q 21.34375 51.125 25.703125 53.5625 
Q 30.078125 56 35.796875 56 
Q 45.21875 56 50.046875 50.171875 
Q 54.890625 44.34375 54.890625 33.015625 
z
" id="DejaVuSans-110"/>
      <path d="M 31 75.875 
Q 24.46875 64.65625 21.28125 53.65625 
Q 18.109375 42.671875 18.109375 31.390625 
Q 18.109375 20.125 21.3125 9.0625 
Q 24.515625 -2 31 -13.1875 
L 23.1875 -13.1875 
Q 15.875 -1.703125 12.234375 9.375 
Q 8.59375 20.453125 8.59375 31.390625 
Q 8.59375 42.28125 12.203125 53.3125 
Q 15.828125 64.359375 23.1875 75.875 
z
" id="DejaVuSans-40"/>
      <path d="M 45.40625 46.390625 
L 45.40625 75.984375 
L 54.390625 75.984375 
L 54.390625 0 
L 45.40625 0 
L 45.40625 8.203125 
Q 42.578125 3.328125 38.25 0.953125 
Q 33.9375 -1.421875 27.875 -1.421875 
Q 17.96875 -1.421875 11.734375 6.484375 
Q 5.515625 14.40625 5.515625 27.296875 
Q 5.515625 40.1875 11.734375 48.09375 
Q 17.96875 56 27.875 56 
Q 33.9375 56 38.25 53.625 
Q 42.578125 51.265625 45.40625 46.390625 
z
M 14.796875 27.296875 
Q 14.796875 17.390625 18.875 11.75 
Q 22.953125 6.109375 30.078125 6.109375 
Q 37.203125 6.109375 41.296875 11.75 
Q 45.40625 17.390625 45.40625 27.296875 
Q 45.40625 37.203125 41.296875 42.84375 
Q 37.203125 48.484375 30.078125 48.484375 
Q 22.953125 48.484375 18.875 42.84375 
Q 14.796875 37.203125 14.796875 27.296875 
z
" id="DejaVuSans-100"/>
      <path d="M 32.171875 -5.078125 
Q 28.375 -14.84375 24.75 -17.8125 
Q 21.140625 -20.796875 15.09375 -20.796875 
L 7.90625 -20.796875 
L 7.90625 -13.28125 
L 13.1875 -13.28125 
Q 16.890625 -13.28125 18.9375 -11.515625 
Q 21 -9.765625 23.484375 -3.21875 
L 25.09375 0.875 
L 2.984375 54.6875 
L 12.5 54.6875 
L 29.59375 11.921875 
L 46.6875 54.6875 
L 56.203125 54.6875 
z
" id="DejaVuSans-121"/>
      <path d="M 45.40625 27.984375 
Q 45.40625 37.75 41.375 43.109375 
Q 37.359375 48.484375 30.078125 48.484375 
Q 22.859375 48.484375 18.828125 43.109375 
Q 14.796875 37.75 14.796875 27.984375 
Q 14.796875 18.265625 18.828125 12.890625 
Q 22.859375 7.515625 30.078125 7.515625 
Q 37.359375 7.515625 41.375 12.890625 
Q 45.40625 18.265625 45.40625 27.984375 
z
M 54.390625 6.78125 
Q 54.390625 -7.171875 48.1875 -13.984375 
Q 42 -20.796875 29.203125 -20.796875 
Q 24.46875 -20.796875 20.265625 -20.09375 
Q 16.0625 -19.390625 12.109375 -17.921875 
L 12.109375 -9.1875 
Q 16.0625 -11.328125 19.921875 -12.34375 
Q 23.78125 -13.375 27.78125 -13.375 
Q 36.625 -13.375 41.015625 -8.765625 
Q 45.40625 -4.15625 45.40625 5.171875 
L 45.40625 9.625 
Q 42.625 4.78125 38.28125 2.390625 
Q 33.9375 0 27.875 0 
Q 17.828125 0 11.671875 7.65625 
Q 5.515625 15.328125 5.515625 27.984375 
Q 5.515625 40.671875 11.671875 48.328125 
Q 17.828125 56 27.875 56 
Q 33.9375 56 38.28125 53.609375 
Q 42.625 51.21875 45.40625 46.390625 
L 45.40625 54.6875 
L 54.390625 54.6875 
z
" id="DejaVuSans-103"/>
      <path d="M 8.015625 75.875 
L 15.828125 75.875 
Q 23.140625 64.359375 26.78125 53.3125 
Q 30.421875 42.28125 30.421875 31.390625 
Q 30.421875 20.453125 26.78125 9.375 
Q 23.140625 -1.703125 15.828125 -13.1875 
L 8.015625 -13.1875 
Q 14.5 -2 17.703125 9.0625 
Q 20.90625 20.125 20.90625 31.390625 
Q 20.90625 42.671875 17.703125 53.65625 
Q 14.5 64.65625 8.015625 75.875 
z
" id="DejaVuSans-41"/>
     </defs>
     <use xlink:href="#DejaVuSans-78"/>
     <use x="74.804688" xlink:href="#DejaVuSans-101"/>
     <use x="136.328125" xlink:href="#DejaVuSans-119"/>
     <use x="218.115234" xlink:href="#DejaVuSans-32"/>
     <use x="249.902344" xlink:href="#DejaVuSans-68"/>
     <use x="326.904297" xlink:href="#DejaVuSans-101"/>
     <use x="388.427734" xlink:href="#DejaVuSans-97"/>
     <use x="449.707031" xlink:href="#DejaVuSans-116"/>
     <use x="488.916016" xlink:href="#DejaVuSans-104"/>
     <use x="552.294922" xlink:href="#DejaVuSans-115"/>
     <use x="604.394531" xlink:href="#DejaVuSans-32"/>
     <use x="636.181641" xlink:href="#DejaVuSans-112"/>
     <use x="699.658203" xlink:href="#DejaVuSans-101"/>
     <use x="761.181641" xlink:href="#DejaVuSans-114"/>
     <use x="802.294922" xlink:href="#DejaVuSans-32"/>
     <use x="834.082031" xlink:href="#DejaVuSans-77"/>
     <use x="920.361328" xlink:href="#DejaVuSans-105"/>
     <use x="948.144531" xlink:href="#DejaVuSans-108"/>
     <use x="975.927734" xlink:href="#DejaVuSans-108"/>
     <use x="1003.710938" xlink:href="#DejaVuSans-105"/>
     <use x="1031.494141" xlink:href="#DejaVuSans-111"/>
     <use x="1092.675781" xlink:href="#DejaVuSans-110"/>
     <use x="1156.054688" xlink:href="#DejaVuSans-32"/>
     <use x="1187.841797" xlink:href="#DejaVuSans-40"/>
     <use x="1226.855469" xlink:href="#DejaVuSans-55"/>
     <use x="1290.478516" xlink:href="#DejaVuSans-32"/>
     <use x="1322.265625" xlink:href="#DejaVuSans-100"/>
     <use x="1385.742188" xlink:href="#DejaVuSans-97"/>
     <use x="1447.021484" xlink:href="#DejaVuSans-121"/>
     <use x="1506.201172" xlink:href="#DejaVuSans-32"/>
     <use x="1537.988281" xlink:href="#DejaVuSans-114"/>
     <use x="1576.851562" xlink:href="#DejaVuSans-111"/>
     <use x="1638.033203" xlink:href="#DejaVuSans-108"/>
     <use x="1665.816406" xlink:href="#DejaVuSans-108"/>
     <use x="1693.599609" xlink:href="#DejaVuSans-105"/>
     <use x="1721.382812" xlink:href="#DejaVuSans-110"/>
     <use x="1784.761719" xlink:href="#DejaVuSans-103"/>
     <use x="1848.238281" xlink:href="#DejaVuSans-41"/>
    </g>
   </g>
   <g id="legend_1">
    <g id="patch_7">
     <path d="M 387.032813 93.5125 
L 522.2 93.5125 
Q 524.2 93.5125 524.2 91.5125 
L 524.2 33.8 
Q 524.2 31.8 522.2 31.8 
L 387.032813 31.8 
Q 385.032813 31.8 385.032813 33.8 
L 385.032813 91.5125 
Q 385.032813 93.5125 387.032813 93.5125 
z
" style="fill:#ffffff;opacity:0.8;stroke:#cccccc;stroke-linejoin:miter;stroke-width:0.3;"/>
    </g>
    <g id="line2d_24">
     <path d="M 389.032813 39.898438 
L 409.032813 39.898438 
" style="fill:none;stroke:#1f77b4;stroke-linecap:square;stroke-width:1.75;"/>
    </g>
    <g id="line2d_25"/>
    <g id="text_22">
     <!-- ENGLAND -->
     <g transform="translate(417.032813 43.398438)scale(0.1 -0.1)">
      <defs>
       <path d="M 9.8125 72.90625 
L 55.90625 72.90625 
L 55.90625 64.59375 
L 19.671875 64.59375 
L 19.671875 43.015625 
L 54.390625 43.015625 
L 54.390625 34.71875 
L 19.671875 34.71875 
L 19.671875 8.296875 
L 56.78125 8.296875 
L 56.78125 0 
L 9.8125 0 
z
" id="DejaVuSans-69"/>
       <path d="M 59.515625 10.40625 
L 59.515625 29.984375 
L 43.40625 29.984375 
L 43.40625 38.09375 
L 69.28125 38.09375 
L 69.28125 6.78125 
Q 63.578125 2.734375 56.6875 0.65625 
Q 49.8125 -1.421875 42 -1.421875 
Q 24.90625 -1.421875 15.25 8.5625 
Q 5.609375 18.5625 5.609375 36.375 
Q 5.609375 54.25 15.25 64.234375 
Q 24.90625 74.21875 42 74.21875 
Q 49.125 74.21875 55.546875 72.453125 
Q 61.96875 70.703125 67.390625 67.28125 
L 67.390625 56.78125 
Q 61.921875 61.421875 55.765625 63.765625 
Q 49.609375 66.109375 42.828125 66.109375 
Q 29.4375 66.109375 22.71875 58.640625 
Q 16.015625 51.171875 16.015625 36.375 
Q 16.015625 21.625 22.71875 14.15625 
Q 29.4375 6.6875 42.828125 6.6875 
Q 48.046875 6.6875 52.140625 7.59375 
Q 56.25 8.5 59.515625 10.40625 
z
" id="DejaVuSans-71"/>
       <path d="M 9.8125 72.90625 
L 19.671875 72.90625 
L 19.671875 8.296875 
L 55.171875 8.296875 
L 55.171875 0 
L 9.8125 0 
z
" id="DejaVuSans-76"/>
       <path d="M 34.1875 63.1875 
L 20.796875 26.90625 
L 47.609375 26.90625 
z
M 28.609375 72.90625 
L 39.796875 72.90625 
L 67.578125 0 
L 57.328125 0 
L 50.6875 18.703125 
L 17.828125 18.703125 
L 11.1875 0 
L 0.78125 0 
z
" id="DejaVuSans-65"/>
      </defs>
      <use xlink:href="#DejaVuSans-69"/>
      <use x="63.183594" xlink:href="#DejaVuSans-78"/>
      <use x="137.988281" xlink:href="#DejaVuSans-71"/>
      <use x="215.478516" xlink:href="#DejaVuSans-76"/>
      <use x="273.441406" xlink:href="#DejaVuSans-65"/>
      <use x="341.849609" xlink:href="#DejaVuSans-78"/>
      <use x="416.654297" xlink:href="#DejaVuSans-68"/>
     </g>
    </g>
    <g id="line2d_26">
     <path d="M 389.032813 54.576563 
L 409.032813 54.576563 
" style="fill:none;stroke:#ff7f0e;stroke-linecap:square;stroke-width:1.75;"/>
    </g>
    <g id="line2d_27"/>
    <g id="text_23">
     <!-- SCOTLAND -->
     <g transform="translate(417.032813 58.076563)scale(0.1 -0.1)">
      <defs>
       <path d="M 53.515625 70.515625 
L 53.515625 60.890625 
Q 47.90625 63.578125 42.921875 64.890625 
Q 37.9375 66.21875 33.296875 66.21875 
Q 25.25 66.21875 20.875 63.09375 
Q 16.5 59.96875 16.5 54.203125 
Q 16.5 49.359375 19.40625 46.890625 
Q 22.3125 44.4375 30.421875 42.921875 
L 36.375 41.703125 
Q 47.40625 39.59375 52.65625 34.296875 
Q 57.90625 29 57.90625 20.125 
Q 57.90625 9.515625 50.796875 4.046875 
Q 43.703125 -1.421875 29.984375 -1.421875 
Q 24.8125 -1.421875 18.96875 -0.25 
Q 13.140625 0.921875 6.890625 3.21875 
L 6.890625 13.375 
Q 12.890625 10.015625 18.65625 8.296875 
Q 24.421875 6.59375 29.984375 6.59375 
Q 38.421875 6.59375 43.015625 9.90625 
Q 47.609375 13.234375 47.609375 19.390625 
Q 47.609375 24.75 44.3125 27.78125 
Q 41.015625 30.8125 33.5 32.328125 
L 27.484375 33.5 
Q 16.453125 35.6875 11.515625 40.375 
Q 6.59375 45.0625 6.59375 53.421875 
Q 6.59375 63.09375 13.40625 68.65625 
Q 20.21875 74.21875 32.171875 74.21875 
Q 37.3125 74.21875 42.625 73.28125 
Q 47.953125 72.359375 53.515625 70.515625 
z
" id="DejaVuSans-83"/>
       <path d="M 64.40625 67.28125 
L 64.40625 56.890625 
Q 59.421875 61.53125 53.78125 63.8125 
Q 48.140625 66.109375 41.796875 66.109375 
Q 29.296875 66.109375 22.65625 58.46875 
Q 16.015625 50.828125 16.015625 36.375 
Q 16.015625 21.96875 22.65625 14.328125 
Q 29.296875 6.6875 41.796875 6.6875 
Q 48.140625 6.6875 53.78125 8.984375 
Q 59.421875 11.28125 64.40625 15.921875 
L 64.40625 5.609375 
Q 59.234375 2.09375 53.4375 0.328125 
Q 47.65625 -1.421875 41.21875 -1.421875 
Q 24.65625 -1.421875 15.125 8.703125 
Q 5.609375 18.84375 5.609375 36.375 
Q 5.609375 53.953125 15.125 64.078125 
Q 24.65625 74.21875 41.21875 74.21875 
Q 47.75 74.21875 53.53125 72.484375 
Q 59.328125 70.75 64.40625 67.28125 
z
" id="DejaVuSans-67"/>
       <path d="M 39.40625 66.21875 
Q 28.65625 66.21875 22.328125 58.203125 
Q 16.015625 50.203125 16.015625 36.375 
Q 16.015625 22.609375 22.328125 14.59375 
Q 28.65625 6.59375 39.40625 6.59375 
Q 50.140625 6.59375 56.421875 14.59375 
Q 62.703125 22.609375 62.703125 36.375 
Q 62.703125 50.203125 56.421875 58.203125 
Q 50.140625 66.21875 39.40625 66.21875 
z
M 39.40625 74.21875 
Q 54.734375 74.21875 63.90625 63.9375 
Q 73.09375 53.65625 73.09375 36.375 
Q 73.09375 19.140625 63.90625 8.859375 
Q 54.734375 -1.421875 39.40625 -1.421875 
Q 24.03125 -1.421875 14.8125 8.828125 
Q 5.609375 19.09375 5.609375 36.375 
Q 5.609375 53.65625 14.8125 63.9375 
Q 24.03125 74.21875 39.40625 74.21875 
z
" id="DejaVuSans-79"/>
       <path d="M -0.296875 72.90625 
L 61.375 72.90625 
L 61.375 64.59375 
L 35.5 64.59375 
L 35.5 0 
L 25.59375 0 
L 25.59375 64.59375 
L -0.296875 64.59375 
z
" id="DejaVuSans-84"/>
      </defs>
      <use xlink:href="#DejaVuSans-83"/>
      <use x="63.476562" xlink:href="#DejaVuSans-67"/>
      <use x="133.300781" xlink:href="#DejaVuSans-79"/>
      <use x="212.011719" xlink:href="#DejaVuSans-84"/>
      <use x="273.095703" xlink:href="#DejaVuSans-76"/>
      <use x="331.058594" xlink:href="#DejaVuSans-65"/>
      <use x="399.466797" xlink:href="#DejaVuSans-78"/>
      <use x="474.271484" xlink:href="#DejaVuSans-68"/>
     </g>
    </g>
    <g id="line2d_28">
     <path d="M 389.032813 69.254688 
L 409.032813 69.254688 
" style="fill:none;stroke:#2ca02c;stroke-linecap:square;stroke-width:1.75;"/>
    </g>
    <g id="line2d_29"/>
    <g id="text_24">
     <!-- WALES -->
     <g transform="translate(417.032813 72.754688)scale(0.1 -0.1)">
      <defs>
       <path d="M 3.328125 72.90625 
L 13.28125 72.90625 
L 28.609375 11.28125 
L 43.890625 72.90625 
L 54.984375 72.90625 
L 70.3125 11.28125 
L 85.59375 72.90625 
L 95.609375 72.90625 
L 77.296875 0 
L 64.890625 0 
L 49.515625 63.28125 
L 33.984375 0 
L 21.578125 0 
z
" id="DejaVuSans-87"/>
      </defs>
      <use xlink:href="#DejaVuSans-87"/>
      <use x="93.376953" xlink:href="#DejaVuSans-65"/>
      <use x="161.785156" xlink:href="#DejaVuSans-76"/>
      <use x="217.498047" xlink:href="#DejaVuSans-69"/>
      <use x="280.681641" xlink:href="#DejaVuSans-83"/>
     </g>
    </g>
    <g id="line2d_30">
     <path d="M 389.032813 83.932813 
L 409.032813 83.932813 
" style="fill:none;stroke:#d62728;stroke-linecap:square;stroke-width:1.75;"/>
    </g>
    <g id="line2d_31"/>
    <g id="text_25">
     <!-- NORTHERN IRELAND -->
     <g transform="translate(417.032813 87.432813)scale(0.1 -0.1)">
      <defs>
       <path d="M 44.390625 34.1875 
Q 47.5625 33.109375 50.5625 29.59375 
Q 53.5625 26.078125 56.59375 19.921875 
L 66.609375 0 
L 56 0 
L 46.6875 18.703125 
Q 43.0625 26.03125 39.671875 28.421875 
Q 36.28125 30.8125 30.421875 30.8125 
L 19.671875 30.8125 
L 19.671875 0 
L 9.8125 0 
L 9.8125 72.90625 
L 32.078125 72.90625 
Q 44.578125 72.90625 50.734375 67.671875 
Q 56.890625 62.453125 56.890625 51.90625 
Q 56.890625 45.015625 53.6875 40.46875 
Q 50.484375 35.9375 44.390625 34.1875 
z
M 19.671875 64.796875 
L 19.671875 38.921875 
L 32.078125 38.921875 
Q 39.203125 38.921875 42.84375 42.21875 
Q 46.484375 45.515625 46.484375 51.90625 
Q 46.484375 58.296875 42.84375 61.546875 
Q 39.203125 64.796875 32.078125 64.796875 
z
" id="DejaVuSans-82"/>
       <path d="M 9.8125 72.90625 
L 19.671875 72.90625 
L 19.671875 43.015625 
L 55.515625 43.015625 
L 55.515625 72.90625 
L 65.375 72.90625 
L 65.375 0 
L 55.515625 0 
L 55.515625 34.71875 
L 19.671875 34.71875 
L 19.671875 0 
L 9.8125 0 
z
" id="DejaVuSans-72"/>
       <path d="M 9.8125 72.90625 
L 19.671875 72.90625 
L 19.671875 0 
L 9.8125 0 
z
" id="DejaVuSans-73"/>
      </defs>
      <use xlink:href="#DejaVuSans-78"/>
      <use x="74.804688" xlink:href="#DejaVuSans-79"/>
      <use x="153.515625" xlink:href="#DejaVuSans-82"/>
      <use x="215.748047" xlink:href="#DejaVuSans-84"/>
      <use x="276.832031" xlink:href="#DejaVuSans-72"/>
      <use x="352.027344" xlink:href="#DejaVuSans-69"/>
      <use x="415.210938" xlink:href="#DejaVuSans-82"/>
      <use x="484.693359" xlink:href="#DejaVuSans-78"/>
      <use x="559.498047" xlink:href="#DejaVuSans-32"/>
      <use x="591.285156" xlink:href="#DejaVuSans-73"/>
      <use x="620.777344" xlink:href="#DejaVuSans-82"/>
      <use x="690.259766" xlink:href="#DejaVuSans-69"/>
      <use x="753.443359" xlink:href="#DejaVuSans-76"/>
      <use x="811.40625" xlink:href="#DejaVuSans-65"/>
      <use x="879.814453" xlink:href="#DejaVuSans-78"/>
      <use x="954.619141" xlink:href="#DejaVuSans-68"/>
     </g>
    </g>
   </g>
  </g>
 </g>
 <defs>
  <clipPath id="p55f76d58d6">
   <rect height="268.302246" width="485.90998" x="43.29002" y="26.8"/>
  </clipPath>
 </defs>
</svg>
