<?xml version="1.0" encoding="utf-8" standalone="no"?>
<!DOCTYPE svg PUBLIC "-//W3C//DTD SVG 1.1//EN"
  "http://www.w3.org/Graphics/SVG/1.1/DTD/svg11.dtd">
<!-- Created with matplotlib (https://matplotlib.org/) -->
<svg height="360pt" version="1.1" viewBox="0 0 540 360" width="540pt" xmlns="http://www.w3.org/2000/svg" xmlns:xlink="http://www.w3.org/1999/xlink">
 <metadata>
  <rdf:RDF xmlns:cc="http://creativecommons.org/ns#" xmlns:dc="http://purl.org/dc/elements/1.1/" xmlns:rdf="http://www.w3.org/1999/02/22-rdf-syntax-ns#">
   <cc:Work>
    <dc:type rdf:resource="http://purl.org/dc/dcmitype/StillImage"/>
    <dc:date>2020-11-02T15:08:46.180778</dc:date>
    <dc:format>image/svg+xml</dc:format>
    <dc:creator>
     <cc:Agent>
      <dc:title>Matplotlib v3.3.2, https://matplotlib.org/</dc:title>
     </cc:Agent>
    </dc:creator>
   </cc:Work>
  </rdf:RDF>
 </metadata>
 <defs>
  <style type="text/css">*{stroke-linecap:butt;stroke-linejoin:round;}</style>
 </defs>
 <g id="figure_1">
  <g id="patch_1">
   <path d="M 0 360 
L 540 360 
L 540 0 
L 0 0 
z
" style="fill:none;"/>
  </g>
  <g id="axes_1">
   <g id="patch_2">
    <path d="M 43.675 295.102246 
L 529.2 295.102246 
L 529.2 26.8 
L 43.675 26.8 
z
" style="fill:#ffffff;"/>
   </g>
   <g id="matplotlib.axis_1">
    <g id="xtick_1">
     <g id="line2d_1">
      <defs>
       <path d="M 0 0 
L 0 3.5 
" id="m38b31e491b" style="stroke:#000000;"/>
      </defs>
      <g>
       <use style="stroke:#000000;" x="55.031057" xlink:href="#m38b31e491b" y="295.102246"/>
      </g>
     </g>
     <g id="text_1">
      <!-- 2020-04 -->
      <g transform="translate(17.806236 333.074092)rotate(-30)scale(0.1 -0.1)">
       <defs>
        <path d="M 19.1875 8.296875 
L 53.609375 8.296875 
L 53.609375 0 
L 7.328125 0 
L 7.328125 8.296875 
Q 12.9375 14.109375 22.625 23.890625 
Q 32.328125 33.6875 34.8125 36.53125 
Q 39.546875 41.84375 41.421875 45.53125 
Q 43.3125 49.21875 43.3125 52.78125 
Q 43.3125 58.59375 39.234375 62.25 
Q 35.15625 65.921875 28.609375 65.921875 
Q 23.96875 65.921875 18.8125 64.3125 
Q 13.671875 62.703125 7.8125 59.421875 
L 7.8125 69.390625 
Q 13.765625 71.78125 18.9375 73 
Q 24.125 74.21875 28.421875 74.21875 
Q 39.75 74.21875 46.484375 68.546875 
Q 53.21875 62.890625 53.21875 53.421875 
Q 53.21875 48.921875 51.53125 44.890625 
Q 49.859375 40.875 45.40625 35.40625 
Q 44.1875 33.984375 37.640625 27.21875 
Q 31.109375 20.453125 19.1875 8.296875 
z
" id="DejaVuSans-50"/>
        <path d="M 31.78125 66.40625 
Q 24.171875 66.40625 20.328125 58.90625 
Q 16.5 51.421875 16.5 36.375 
Q 16.5 21.390625 20.328125 13.890625 
Q 24.171875 6.390625 31.78125 6.390625 
Q 39.453125 6.390625 43.28125 13.890625 
Q 47.125 21.390625 47.125 36.375 
Q 47.125 51.421875 43.28125 58.90625 
Q 39.453125 66.40625 31.78125 66.40625 
z
M 31.78125 74.21875 
Q 44.046875 74.21875 50.515625 64.515625 
Q 56.984375 54.828125 56.984375 36.375 
Q 56.984375 17.96875 50.515625 8.265625 
Q 44.046875 -1.421875 31.78125 -1.421875 
Q 19.53125 -1.421875 13.0625 8.265625 
Q 6.59375 17.96875 6.59375 36.375 
Q 6.59375 54.828125 13.0625 64.515625 
Q 19.53125 74.21875 31.78125 74.21875 
z
" id="DejaVuSans-48"/>
        <path d="M 4.890625 31.390625 
L 31.203125 31.390625 
L 31.203125 23.390625 
L 4.890625 23.390625 
z
" id="DejaVuSans-45"/>
        <path d="M 37.796875 64.3125 
L 12.890625 25.390625 
L 37.796875 25.390625 
z
M 35.203125 72.90625 
L 47.609375 72.90625 
L 47.609375 25.390625 
L 58.015625 25.390625 
L 58.015625 17.1875 
L 47.609375 17.1875 
L 47.609375 0 
L 37.796875 0 
L 37.796875 17.1875 
L 4.890625 17.1875 
L 4.890625 26.703125 
z
" id="DejaVuSans-52"/>
       </defs>
       <use xlink:href="#DejaVuSans-50"/>
       <use x="63.623047" xlink:href="#DejaVuSans-48"/>
       <use x="127.246094" xlink:href="#DejaVuSans-50"/>
       <use x="190.869141" xlink:href="#DejaVuSans-48"/>
       <use x="254.492188" xlink:href="#DejaVuSans-45"/>
       <use x="290.576172" xlink:href="#DejaVuSans-48"/>
       <use x="354.199219" xlink:href="#DejaVuSans-52"/>
      </g>
     </g>
    </g>
    <g id="xtick_2">
     <g id="line2d_2">
      <g>
       <use style="stroke:#000000;" x="119.310624" xlink:href="#m38b31e491b" y="295.102246"/>
      </g>
     </g>
     <g id="text_2">
      <!-- 2020-05 -->
      <g transform="translate(82.085804 333.074092)rotate(-30)scale(0.1 -0.1)">
       <defs>
        <path d="M 10.796875 72.90625 
L 49.515625 72.90625 
L 49.515625 64.59375 
L 19.828125 64.59375 
L 19.828125 46.734375 
Q 21.96875 47.46875 24.109375 47.828125 
Q 26.265625 48.1875 28.421875 48.1875 
Q 40.625 48.1875 47.75 41.5 
Q 54.890625 34.8125 54.890625 23.390625 
Q 54.890625 11.625 47.5625 5.09375 
Q 40.234375 -1.421875 26.90625 -1.421875 
Q 22.3125 -1.421875 17.546875 -0.640625 
Q 12.796875 0.140625 7.71875 1.703125 
L 7.71875 11.625 
Q 12.109375 9.234375 16.796875 8.0625 
Q 21.484375 6.890625 26.703125 6.890625 
Q 35.15625 6.890625 40.078125 11.328125 
Q 45.015625 15.765625 45.015625 23.390625 
Q 45.015625 31 40.078125 35.4375 
Q 35.15625 39.890625 26.703125 39.890625 
Q 22.75 39.890625 18.8125 39.015625 
Q 14.890625 38.140625 10.796875 36.28125 
z
" id="DejaVuSans-53"/>
       </defs>
       <use xlink:href="#DejaVuSans-50"/>
       <use x="63.623047" xlink:href="#DejaVuSans-48"/>
       <use x="127.246094" xlink:href="#DejaVuSans-50"/>
       <use x="190.869141" xlink:href="#DejaVuSans-48"/>
       <use x="254.492188" xlink:href="#DejaVuSans-45"/>
       <use x="290.576172" xlink:href="#DejaVuSans-48"/>
       <use x="354.199219" xlink:href="#DejaVuSans-53"/>
      </g>
     </g>
    </g>
    <g id="xtick_3">
     <g id="line2d_3">
      <g>
       <use style="stroke:#000000;" x="185.732844" xlink:href="#m38b31e491b" y="295.102246"/>
      </g>
     </g>
     <g id="text_3">
      <!-- 2020-06 -->
      <g transform="translate(148.508023 333.074092)rotate(-30)scale(0.1 -0.1)">
       <defs>
        <path d="M 33.015625 40.375 
Q 26.375 40.375 22.484375 35.828125 
Q 18.609375 31.296875 18.609375 23.390625 
Q 18.609375 15.53125 22.484375 10.953125 
Q 26.375 6.390625 33.015625 6.390625 
Q 39.65625 6.390625 43.53125 10.953125 
Q 47.40625 15.53125 47.40625 23.390625 
Q 47.40625 31.296875 43.53125 35.828125 
Q 39.65625 40.375 33.015625 40.375 
z
M 52.59375 71.296875 
L 52.59375 62.3125 
Q 48.875 64.0625 45.09375 64.984375 
Q 41.3125 65.921875 37.59375 65.921875 
Q 27.828125 65.921875 22.671875 59.328125 
Q 17.53125 52.734375 16.796875 39.40625 
Q 19.671875 43.65625 24.015625 45.921875 
Q 28.375 48.1875 33.59375 48.1875 
Q 44.578125 48.1875 50.953125 41.515625 
Q 57.328125 34.859375 57.328125 23.390625 
Q 57.328125 12.15625 50.6875 5.359375 
Q 44.046875 -1.421875 33.015625 -1.421875 
Q 20.359375 -1.421875 13.671875 8.265625 
Q 6.984375 17.96875 6.984375 36.375 
Q 6.984375 53.65625 15.1875 63.9375 
Q 23.390625 74.21875 37.203125 74.21875 
Q 40.921875 74.21875 44.703125 73.484375 
Q 48.484375 72.75 52.59375 71.296875 
z
" id="DejaVuSans-54"/>
       </defs>
       <use xlink:href="#DejaVuSans-50"/>
       <use x="63.623047" xlink:href="#DejaVuSans-48"/>
       <use x="127.246094" xlink:href="#DejaVuSans-50"/>
       <use x="190.869141" xlink:href="#DejaVuSans-48"/>
       <use x="254.492188" xlink:href="#DejaVuSans-45"/>
       <use x="290.576172" xlink:href="#DejaVuSans-48"/>
       <use x="354.199219" xlink:href="#DejaVuSans-54"/>
      </g>
     </g>
    </g>
    <g id="xtick_4">
     <g id="line2d_4">
      <g>
       <use style="stroke:#000000;" x="250.012412" xlink:href="#m38b31e491b" y="295.102246"/>
      </g>
     </g>
     <g id="text_4">
      <!-- 2020-07 -->
      <g transform="translate(212.787591 333.074092)rotate(-30)scale(0.1 -0.1)">
       <defs>
        <path d="M 8.203125 72.90625 
L 55.078125 72.90625 
L 55.078125 68.703125 
L 28.609375 0 
L 18.3125 0 
L 43.21875 64.59375 
L 8.203125 64.59375 
z
" id="DejaVuSans-55"/>
       </defs>
       <use xlink:href="#DejaVuSans-50"/>
       <use x="63.623047" xlink:href="#DejaVuSans-48"/>
       <use x="127.246094" xlink:href="#DejaVuSans-50"/>
       <use x="190.869141" xlink:href="#DejaVuSans-48"/>
       <use x="254.492188" xlink:href="#DejaVuSans-45"/>
       <use x="290.576172" xlink:href="#DejaVuSans-48"/>
       <use x="354.199219" xlink:href="#DejaVuSans-55"/>
      </g>
     </g>
    </g>
    <g id="xtick_5">
     <g id="line2d_5">
      <g>
       <use style="stroke:#000000;" x="316.434632" xlink:href="#m38b31e491b" y="295.102246"/>
      </g>
     </g>
     <g id="text_5">
      <!-- 2020-08 -->
      <g transform="translate(279.209811 333.074092)rotate(-30)scale(0.1 -0.1)">
       <defs>
        <path d="M 31.78125 34.625 
Q 24.75 34.625 20.71875 30.859375 
Q 16.703125 27.09375 16.703125 20.515625 
Q 16.703125 13.921875 20.71875 10.15625 
Q 24.75 6.390625 31.78125 6.390625 
Q 38.8125 6.390625 42.859375 10.171875 
Q 46.921875 13.96875 46.921875 20.515625 
Q 46.921875 27.09375 42.890625 30.859375 
Q 38.875 34.625 31.78125 34.625 
z
M 21.921875 38.8125 
Q 15.578125 40.375 12.03125 44.71875 
Q 8.5 49.078125 8.5 55.328125 
Q 8.5 64.0625 14.71875 69.140625 
Q 20.953125 74.21875 31.78125 74.21875 
Q 42.671875 74.21875 48.875 69.140625 
Q 55.078125 64.0625 55.078125 55.328125 
Q 55.078125 49.078125 51.53125 44.71875 
Q 48 40.375 41.703125 38.8125 
Q 48.828125 37.15625 52.796875 32.3125 
Q 56.78125 27.484375 56.78125 20.515625 
Q 56.78125 9.90625 50.3125 4.234375 
Q 43.84375 -1.421875 31.78125 -1.421875 
Q 19.734375 -1.421875 13.25 4.234375 
Q 6.78125 9.90625 6.78125 20.515625 
Q 6.78125 27.484375 10.78125 32.3125 
Q 14.796875 37.15625 21.921875 38.8125 
z
M 18.3125 54.390625 
Q 18.3125 48.734375 21.84375 45.5625 
Q 25.390625 42.390625 31.78125 42.390625 
Q 38.140625 42.390625 41.71875 45.5625 
Q 45.3125 48.734375 45.3125 54.390625 
Q 45.3125 60.0625 41.71875 63.234375 
Q 38.140625 66.40625 31.78125 66.40625 
Q 25.390625 66.40625 21.84375 63.234375 
Q 18.3125 60.0625 18.3125 54.390625 
z
" id="DejaVuSans-56"/>
       </defs>
       <use xlink:href="#DejaVuSans-50"/>
       <use x="63.623047" xlink:href="#DejaVuSans-48"/>
       <use x="127.246094" xlink:href="#DejaVuSans-50"/>
       <use x="190.869141" xlink:href="#DejaVuSans-48"/>
       <use x="254.492188" xlink:href="#DejaVuSans-45"/>
       <use x="290.576172" xlink:href="#DejaVuSans-48"/>
       <use x="354.199219" xlink:href="#DejaVuSans-56"/>
      </g>
     </g>
    </g>
    <g id="xtick_6">
     <g id="line2d_6">
      <g>
       <use style="stroke:#000000;" x="382.856851" xlink:href="#m38b31e491b" y="295.102246"/>
      </g>
     </g>
     <g id="text_6">
      <!-- 2020-09 -->
      <g transform="translate(345.63203 333.074092)rotate(-30)scale(0.1 -0.1)">
       <defs>
        <path d="M 10.984375 1.515625 
L 10.984375 10.5 
Q 14.703125 8.734375 18.5 7.8125 
Q 22.3125 6.890625 25.984375 6.890625 
Q 35.75 6.890625 40.890625 13.453125 
Q 46.046875 20.015625 46.78125 33.40625 
Q 43.953125 29.203125 39.59375 26.953125 
Q 35.25 24.703125 29.984375 24.703125 
Q 19.046875 24.703125 12.671875 31.3125 
Q 6.296875 37.9375 6.296875 49.421875 
Q 6.296875 60.640625 12.9375 67.421875 
Q 19.578125 74.21875 30.609375 74.21875 
Q 43.265625 74.21875 49.921875 64.515625 
Q 56.59375 54.828125 56.59375 36.375 
Q 56.59375 19.140625 48.40625 8.859375 
Q 40.234375 -1.421875 26.421875 -1.421875 
Q 22.703125 -1.421875 18.890625 -0.6875 
Q 15.09375 0.046875 10.984375 1.515625 
z
M 30.609375 32.421875 
Q 37.25 32.421875 41.125 36.953125 
Q 45.015625 41.5 45.015625 49.421875 
Q 45.015625 57.28125 41.125 61.84375 
Q 37.25 66.40625 30.609375 66.40625 
Q 23.96875 66.40625 20.09375 61.84375 
Q 16.21875 57.28125 16.21875 49.421875 
Q 16.21875 41.5 20.09375 36.953125 
Q 23.96875 32.421875 30.609375 32.421875 
z
" id="DejaVuSans-57"/>
       </defs>
       <use xlink:href="#DejaVuSans-50"/>
       <use x="63.623047" xlink:href="#DejaVuSans-48"/>
       <use x="127.246094" xlink:href="#DejaVuSans-50"/>
       <use x="190.869141" xlink:href="#DejaVuSans-48"/>
       <use x="254.492188" xlink:href="#DejaVuSans-45"/>
       <use x="290.576172" xlink:href="#DejaVuSans-48"/>
       <use x="354.199219" xlink:href="#DejaVuSans-57"/>
      </g>
     </g>
    </g>
    <g id="xtick_7">
     <g id="line2d_7">
      <g>
       <use style="stroke:#000000;" x="447.136419" xlink:href="#m38b31e491b" y="295.102246"/>
      </g>
     </g>
     <g id="text_7">
      <!-- 2020-10 -->
      <g transform="translate(409.911598 333.074092)rotate(-30)scale(0.1 -0.1)">
       <defs>
        <path d="M 12.40625 8.296875 
L 28.515625 8.296875 
L 28.515625 63.921875 
L 10.984375 60.40625 
L 10.984375 69.390625 
L 28.421875 72.90625 
L 38.28125 72.90625 
L 38.28125 8.296875 
L 54.390625 8.296875 
L 54.390625 0 
L 12.40625 0 
z
" id="DejaVuSans-49"/>
       </defs>
       <use xlink:href="#DejaVuSans-50"/>
       <use x="63.623047" xlink:href="#DejaVuSans-48"/>
       <use x="127.246094" xlink:href="#DejaVuSans-50"/>
       <use x="190.869141" xlink:href="#DejaVuSans-48"/>
       <use x="254.492188" xlink:href="#DejaVuSans-45"/>
       <use x="290.576172" xlink:href="#DejaVuSans-49"/>
       <use x="354.199219" xlink:href="#DejaVuSans-48"/>
      </g>
     </g>
    </g>
    <g id="xtick_8">
     <g id="line2d_8">
      <g>
       <use style="stroke:#000000;" x="513.558639" xlink:href="#m38b31e491b" y="295.102246"/>
      </g>
     </g>
     <g id="text_8">
      <!-- 2020-11 -->
      <g transform="translate(476.333818 333.074092)rotate(-30)scale(0.1 -0.1)">
       <use xlink:href="#DejaVuSans-50"/>
       <use x="63.623047" xlink:href="#DejaVuSans-48"/>
       <use x="127.246094" xlink:href="#DejaVuSans-50"/>
       <use x="190.869141" xlink:href="#DejaVuSans-48"/>
       <use x="254.492188" xlink:href="#DejaVuSans-45"/>
       <use x="290.576172" xlink:href="#DejaVuSans-49"/>
       <use x="354.199219" xlink:href="#DejaVuSans-49"/>
      </g>
     </g>
    </g>
    <g id="text_9">
     <!-- Date -->
     <g transform="translate(273.291641 347.233436)scale(0.11 -0.11)">
      <defs>
       <path d="M 19.671875 64.796875 
L 19.671875 8.109375 
L 31.59375 8.109375 
Q 46.6875 8.109375 53.6875 14.9375 
Q 60.6875 21.78125 60.6875 36.53125 
Q 60.6875 51.171875 53.6875 57.984375 
Q 46.6875 64.796875 31.59375 64.796875 
z
M 9.8125 72.90625 
L 30.078125 72.90625 
Q 51.265625 72.90625 61.171875 64.09375 
Q 71.09375 55.28125 71.09375 36.53125 
Q 71.09375 17.671875 61.125 8.828125 
Q 51.171875 0 30.078125 0 
L 9.8125 0 
z
" id="DejaVuSans-68"/>
       <path d="M 34.28125 27.484375 
Q 23.390625 27.484375 19.1875 25 
Q 14.984375 22.515625 14.984375 16.5 
Q 14.984375 11.71875 18.140625 8.90625 
Q 21.296875 6.109375 26.703125 6.109375 
Q 34.1875 6.109375 38.703125 11.40625 
Q 43.21875 16.703125 43.21875 25.484375 
L 43.21875 27.484375 
z
M 52.203125 31.203125 
L 52.203125 0 
L 43.21875 0 
L 43.21875 8.296875 
Q 40.140625 3.328125 35.546875 0.953125 
Q 30.953125 -1.421875 24.3125 -1.421875 
Q 15.921875 -1.421875 10.953125 3.296875 
Q 6 8.015625 6 15.921875 
Q 6 25.140625 12.171875 29.828125 
Q 18.359375 34.515625 30.609375 34.515625 
L 43.21875 34.515625 
L 43.21875 35.40625 
Q 43.21875 41.609375 39.140625 45 
Q 35.0625 48.390625 27.6875 48.390625 
Q 23 48.390625 18.546875 47.265625 
Q 14.109375 46.140625 10.015625 43.890625 
L 10.015625 52.203125 
Q 14.9375 54.109375 19.578125 55.046875 
Q 24.21875 56 28.609375 56 
Q 40.484375 56 46.34375 49.84375 
Q 52.203125 43.703125 52.203125 31.203125 
z
" id="DejaVuSans-97"/>
       <path d="M 18.3125 70.21875 
L 18.3125 54.6875 
L 36.8125 54.6875 
L 36.8125 47.703125 
L 18.3125 47.703125 
L 18.3125 18.015625 
Q 18.3125 11.328125 20.140625 9.421875 
Q 21.96875 7.515625 27.59375 7.515625 
L 36.8125 7.515625 
L 36.8125 0 
L 27.59375 0 
Q 17.1875 0 13.234375 3.875 
Q 9.28125 7.765625 9.28125 18.015625 
L 9.28125 47.703125 
L 2.6875 47.703125 
L 2.6875 54.6875 
L 9.28125 54.6875 
L 9.28125 70.21875 
z
" id="DejaVuSans-116"/>
       <path d="M 56.203125 29.59375 
L 56.203125 25.203125 
L 14.890625 25.203125 
Q 15.484375 15.921875 20.484375 11.0625 
Q 25.484375 6.203125 34.421875 6.203125 
Q 39.59375 6.203125 44.453125 7.46875 
Q 49.3125 8.734375 54.109375 11.28125 
L 54.109375 2.78125 
Q 49.265625 0.734375 44.1875 -0.34375 
Q 39.109375 -1.421875 33.890625 -1.421875 
Q 20.796875 -1.421875 13.15625 6.1875 
Q 5.515625 13.8125 5.515625 26.8125 
Q 5.515625 40.234375 12.765625 48.109375 
Q 20.015625 56 32.328125 56 
Q 43.359375 56 49.78125 48.890625 
Q 56.203125 41.796875 56.203125 29.59375 
z
M 47.21875 32.234375 
Q 47.125 39.59375 43.09375 43.984375 
Q 39.0625 48.390625 32.421875 48.390625 
Q 24.90625 48.390625 20.390625 44.140625 
Q 15.875 39.890625 15.1875 32.171875 
z
" id="DejaVuSans-101"/>
      </defs>
      <use xlink:href="#DejaVuSans-68"/>
      <use x="77.001953" xlink:href="#DejaVuSans-97"/>
      <use x="138.28125" xlink:href="#DejaVuSans-116"/>
      <use x="177.490234" xlink:href="#DejaVuSans-101"/>
     </g>
    </g>
   </g>
   <g id="matplotlib.axis_2">
    <g id="ytick_1">
     <g id="line2d_9">
      <defs>
       <path d="M 0 0 
L -3.5 0 
" id="md202dc23c5" style="stroke:#000000;"/>
      </defs>
      <g>
       <use style="stroke:#000000;" x="43.675" xlink:href="#md202dc23c5" y="282.325949"/>
      </g>
     </g>
     <g id="text_10">
      <!-- 0.00 -->
      <g transform="translate(10.909375 286.125167)scale(0.1 -0.1)">
       <defs>
        <path d="M 10.6875 12.40625 
L 21 12.40625 
L 21 0 
L 10.6875 0 
z
" id="DejaVuSans-46"/>
       </defs>
       <use xlink:href="#DejaVuSans-48"/>
       <use x="63.623047" xlink:href="#DejaVuSans-46"/>
       <use x="95.410156" xlink:href="#DejaVuSans-48"/>
       <use x="159.033203" xlink:href="#DejaVuSans-48"/>
      </g>
     </g>
    </g>
    <g id="ytick_2">
     <g id="line2d_10">
      <g>
       <use style="stroke:#000000;" x="43.675" xlink:href="#md202dc23c5" y="250.385205"/>
      </g>
     </g>
     <g id="text_11">
      <!-- 0.05 -->
      <g transform="translate(10.909375 254.184424)scale(0.1 -0.1)">
       <use xlink:href="#DejaVuSans-48"/>
       <use x="63.623047" xlink:href="#DejaVuSans-46"/>
       <use x="95.410156" xlink:href="#DejaVuSans-48"/>
       <use x="159.033203" xlink:href="#DejaVuSans-53"/>
      </g>
     </g>
    </g>
    <g id="ytick_3">
     <g id="line2d_11">
      <g>
       <use style="stroke:#000000;" x="43.675" xlink:href="#md202dc23c5" y="218.444461"/>
      </g>
     </g>
     <g id="text_12">
      <!-- 0.10 -->
      <g transform="translate(10.909375 222.24368)scale(0.1 -0.1)">
       <use xlink:href="#DejaVuSans-48"/>
       <use x="63.623047" xlink:href="#DejaVuSans-46"/>
       <use x="95.410156" xlink:href="#DejaVuSans-49"/>
       <use x="159.033203" xlink:href="#DejaVuSans-48"/>
      </g>
     </g>
    </g>
    <g id="ytick_4">
     <g id="line2d_12">
      <g>
       <use style="stroke:#000000;" x="43.675" xlink:href="#md202dc23c5" y="186.503718"/>
      </g>
     </g>
     <g id="text_13">
      <!-- 0.15 -->
      <g transform="translate(10.909375 190.302937)scale(0.1 -0.1)">
       <use xlink:href="#DejaVuSans-48"/>
       <use x="63.623047" xlink:href="#DejaVuSans-46"/>
       <use x="95.410156" xlink:href="#DejaVuSans-49"/>
       <use x="159.033203" xlink:href="#DejaVuSans-53"/>
      </g>
     </g>
    </g>
    <g id="ytick_5">
     <g id="line2d_13">
      <g>
       <use style="stroke:#000000;" x="43.675" xlink:href="#md202dc23c5" y="154.562974"/>
      </g>
     </g>
     <g id="text_14">
      <!-- 0.20 -->
      <g transform="translate(10.909375 158.362193)scale(0.1 -0.1)">
       <use xlink:href="#DejaVuSans-48"/>
       <use x="63.623047" xlink:href="#DejaVuSans-46"/>
       <use x="95.410156" xlink:href="#DejaVuSans-50"/>
       <use x="159.033203" xlink:href="#DejaVuSans-48"/>
      </g>
     </g>
    </g>
    <g id="ytick_6">
     <g id="line2d_14">
      <g>
       <use style="stroke:#000000;" x="43.675" xlink:href="#md202dc23c5" y="122.622231"/>
      </g>
     </g>
     <g id="text_15">
      <!-- 0.25 -->
      <g transform="translate(10.909375 126.421449)scale(0.1 -0.1)">
       <use xlink:href="#DejaVuSans-48"/>
       <use x="63.623047" xlink:href="#DejaVuSans-46"/>
       <use x="95.410156" xlink:href="#DejaVuSans-50"/>
       <use x="159.033203" xlink:href="#DejaVuSans-53"/>
      </g>
     </g>
    </g>
    <g id="ytick_7">
     <g id="line2d_15">
      <g>
       <use style="stroke:#000000;" x="43.675" xlink:href="#md202dc23c5" y="90.681487"/>
      </g>
     </g>
     <g id="text_16">
      <!-- 0.30 -->
      <g transform="translate(10.909375 94.480706)scale(0.1 -0.1)">
       <defs>
        <path d="M 40.578125 39.3125 
Q 47.65625 37.796875 51.625 33 
Q 55.609375 28.21875 55.609375 21.1875 
Q 55.609375 10.40625 48.1875 4.484375 
Q 40.765625 -1.421875 27.09375 -1.421875 
Q 22.515625 -1.421875 17.65625 -0.515625 
Q 12.796875 0.390625 7.625 2.203125 
L 7.625 11.71875 
Q 11.71875 9.328125 16.59375 8.109375 
Q 21.484375 6.890625 26.8125 6.890625 
Q 36.078125 6.890625 40.9375 10.546875 
Q 45.796875 14.203125 45.796875 21.1875 
Q 45.796875 27.640625 41.28125 31.265625 
Q 36.765625 34.90625 28.71875 34.90625 
L 20.21875 34.90625 
L 20.21875 43.015625 
L 29.109375 43.015625 
Q 36.375 43.015625 40.234375 45.921875 
Q 44.09375 48.828125 44.09375 54.296875 
Q 44.09375 59.90625 40.109375 62.90625 
Q 36.140625 65.921875 28.71875 65.921875 
Q 24.65625 65.921875 20.015625 65.03125 
Q 15.375 64.15625 9.8125 62.3125 
L 9.8125 71.09375 
Q 15.4375 72.65625 20.34375 73.4375 
Q 25.25 74.21875 29.59375 74.21875 
Q 40.828125 74.21875 47.359375 69.109375 
Q 53.90625 64.015625 53.90625 55.328125 
Q 53.90625 49.265625 50.4375 45.09375 
Q 46.96875 40.921875 40.578125 39.3125 
z
" id="DejaVuSans-51"/>
       </defs>
       <use xlink:href="#DejaVuSans-48"/>
       <use x="63.623047" xlink:href="#DejaVuSans-46"/>
       <use x="95.410156" xlink:href="#DejaVuSans-51"/>
       <use x="159.033203" xlink:href="#DejaVuSans-48"/>
      </g>
     </g>
    </g>
    <g id="ytick_8">
     <g id="line2d_16">
      <g>
       <use style="stroke:#000000;" x="43.675" xlink:href="#md202dc23c5" y="58.740744"/>
      </g>
     </g>
     <g id="text_17">
      <!-- 0.35 -->
      <g transform="translate(10.909375 62.539962)scale(0.1 -0.1)">
       <use xlink:href="#DejaVuSans-48"/>
       <use x="63.623047" xlink:href="#DejaVuSans-46"/>
       <use x="95.410156" xlink:href="#DejaVuSans-51"/>
       <use x="159.033203" xlink:href="#DejaVuSans-53"/>
      </g>
     </g>
    </g>
    <g id="ytick_9">
     <g id="line2d_17">
      <g>
       <use style="stroke:#000000;" x="43.675" xlink:href="#md202dc23c5" y="26.8"/>
      </g>
     </g>
     <g id="text_18">
      <!-- 0.40 -->
      <g transform="translate(10.909375 30.599219)scale(0.1 -0.1)">
       <use xlink:href="#DejaVuSans-48"/>
       <use x="63.623047" xlink:href="#DejaVuSans-46"/>
       <use x="95.410156" xlink:href="#DejaVuSans-52"/>
       <use x="159.033203" xlink:href="#DejaVuSans-48"/>
      </g>
     </g>
    </g>
   </g>
   <g id="line2d_18">
    <path clip-path="url(#pe08fe180f8)" d="M 65.744318 73.575979 
L 67.88697 69.840035 
L 70.029623 69.661384 
L 72.172275 73.623561 
L 74.314927 74.301629 
L 76.457579 70.306031 
L 78.600232 85.819583 
L 80.742884 84.735203 
L 82.885536 79.405712 
L 85.028188 90.473053 
L 87.170841 95.968291 
L 89.313493 100.122889 
L 91.456145 104.695714 
L 93.598797 107.826425 
L 95.74145 117.63468 
L 97.884102 130.726457 
L 100.026754 134.978412 
L 102.169406 136.708851 
L 104.312059 145.911801 
L 106.454711 151.9072 
L 108.597363 167.718017 
L 110.740015 169.412953 
L 112.882668 177.248827 
L 115.02532 189.533859 
L 117.167972 199.628426 
L 121.453277 217.263987 
L 123.595929 221.89117 
L 125.738581 231.611477 
L 127.881233 234.74326 
L 130.023886 234.031671 
L 132.166538 233.547403 
L 134.30919 234.690271 
L 136.451842 237.868234 
L 138.594495 242.337012 
L 140.737147 244.482165 
L 142.879799 246.902157 
L 145.022451 248.142324 
L 147.165104 250.991315 
L 149.307756 253.220967 
L 151.450408 254.568729 
L 155.735713 255.846924 
L 157.878365 256.857664 
L 162.163669 260.188842 
L 164.306322 260.177914 
L 166.448974 260.747324 
L 170.734278 262.695528 
L 172.876931 263.434503 
L 175.019583 263.967924 
L 177.162235 264.909304 
L 179.304887 266.683941 
L 181.44754 267.552373 
L 183.590192 269.571952 
L 185.732844 271.34307 
L 190.018149 274.05116 
L 194.303453 276.234552 
L 196.446105 278.099274 
L 198.588758 278.239225 
L 200.73141 278.581443 
L 202.874062 278.366319 
L 205.016714 278.878895 
L 209.302019 279.173493 
L 211.444671 279.28346 
L 215.729976 278.885642 
L 217.872628 279.401132 
L 220.01528 279.185091 
L 226.443237 279.332984 
L 230.728541 279.523166 
L 237.156498 279.708249 
L 245.727107 280.401598 
L 250.012412 280.305423 
L 254.297716 279.502529 
L 256.440368 278.676856 
L 258.583021 277.724732 
L 260.725673 277.279651 
L 265.010977 276.04868 
L 267.15363 275.841323 
L 269.296282 275.759932 
L 271.438934 275.421141 
L 273.581586 274.961783 
L 275.724239 274.971314 
L 280.009543 276.043219 
L 282.152195 276.582685 
L 284.294848 276.929991 
L 286.4375 277.804634 
L 288.580152 278.959816 
L 295.008109 278.89946 
L 299.293414 278.645619 
L 301.436066 278.764113 
L 305.72137 278.586075 
L 314.291979 278.305418 
L 316.434632 278.284411 
L 320.719936 278.519128 
L 327.147893 278.455798 
L 331.433197 278.594098 
L 333.57585 278.475743 
L 335.718502 278.617529 
L 337.861154 278.338064 
L 340.003806 278.334906 
L 346.431763 277.79632 
L 357.145024 278.232126 
L 359.287677 278.515335 
L 365.715633 278.241088 
L 372.14359 277.895336 
L 374.286242 277.705032 
L 376.428895 277.777419 
L 378.571547 277.376429 
L 380.714199 277.166091 
L 382.856851 277.143419 
L 384.999504 276.923985 
L 389.284808 276.613188 
L 391.42746 276.246753 
L 397.855417 274.55448 
L 399.998069 274.121145 
L 402.140722 273.816105 
L 406.426026 272.871189 
L 408.568678 273.091655 
L 410.711331 273.469093 
L 412.853983 273.422426 
L 414.996635 273.09968 
L 417.139287 273.044119 
L 421.424592 272.728473 
L 423.567244 272.559387 
L 425.709896 271.624546 
L 429.995201 270.105367 
L 432.137853 268.972381 
L 434.280505 268.255421 
L 436.423158 267.728511 
L 438.56581 267.079076 
L 440.708462 267.400733 
L 442.851114 266.572063 
L 444.993767 266.370468 
L 447.136419 266.295418 
L 449.279071 266.554426 
L 451.421723 264.280398 
L 453.564376 256.328681 
L 455.707028 253.302911 
L 459.992332 247.816025 
L 462.134985 244.406551 
L 464.277637 242.399837 
L 466.420289 241.515763 
L 468.562941 247.098566 
L 470.705594 245.389897 
L 472.848246 244.765294 
L 474.990898 243.854385 
L 479.276203 243.398487 
L 481.418855 243.584344 
L 485.704159 241.876987 
L 487.846812 240.822593 
L 489.989464 238.399265 
L 492.132116 238.810903 
L 494.274768 237.379507 
L 496.417421 235.291291 
L 498.560073 234.804769 
L 500.702725 233.534909 
L 502.845377 232.789426 
L 504.98803 233.586315 
L 507.130682 232.764339 
L 507.130682 232.764339 
" style="fill:none;stroke:#1f77b4;stroke-linecap:square;stroke-width:1.75;"/>
   </g>
   <g id="line2d_19">
    <path clip-path="url(#pe08fe180f8)" d="M 65.744318 131.218612 
L 70.029623 148.446965 
L 72.172275 143.080043 
L 74.314927 150.764364 
L 76.457579 143.388569 
L 78.600232 144.118417 
L 80.742884 153.278817 
L 82.885536 152.274671 
L 85.028188 150.174264 
L 87.170841 153.796874 
L 89.313493 156.132615 
L 91.456145 151.963315 
L 93.598797 157.524892 
L 95.74145 150.292084 
L 97.884102 156.497708 
L 100.026754 160.589398 
L 102.169406 160.689398 
L 104.312059 162.765032 
L 106.454711 169.313741 
L 108.597363 184.905169 
L 110.740015 195.193061 
L 112.882668 199.044189 
L 115.02532 207.878083 
L 117.167972 220.739042 
L 119.310624 227.39727 
L 121.453277 236.098387 
L 123.595929 241.562109 
L 125.738581 244.474302 
L 127.881233 246.40035 
L 130.023886 247.97262 
L 132.166538 250.072031 
L 134.30919 250.572336 
L 136.451842 253.515252 
L 138.594495 252.995563 
L 140.737147 253.775451 
L 142.879799 254.678019 
L 145.022451 256.966395 
L 147.165104 257.821645 
L 149.307756 260.489644 
L 151.450408 260.629178 
L 153.59306 262.874425 
L 155.735713 264.88493 
L 157.878365 266.438311 
L 160.021017 267.693113 
L 162.163669 269.315463 
L 164.306322 269.40975 
L 166.448974 271.426239 
L 168.591626 272.635095 
L 170.734278 272.64179 
L 175.019583 273.347325 
L 177.162235 274.2156 
L 179.304887 275.300249 
L 181.44754 275.344131 
L 183.590192 275.896895 
L 185.732844 276.658366 
L 187.875496 276.159927 
L 190.018149 276.584856 
L 192.160801 276.576164 
L 194.303453 276.86701 
L 196.446105 277.935527 
L 200.73141 278.070596 
L 202.874062 278.810998 
L 205.016714 279.196882 
L 207.159367 279.717567 
L 211.444671 279.872104 
L 228.585889 279.057006 
L 230.728541 279.309914 
L 232.871194 279.356704 
L 241.441803 280.108011 
L 243.584455 280.595787 
L 245.727107 280.793422 
L 252.155064 280.842004 
L 256.440368 281.084138 
L 260.725673 281.076094 
L 265.010977 281.349327 
L 269.296282 281.435648 
L 271.438934 281.647506 
L 273.581586 281.4928 
L 282.152195 281.423325 
L 284.294848 281.506199 
L 295.008109 281.104927 
L 301.436066 280.941577 
L 303.578718 281.368174 
L 312.149327 281.514753 
L 314.291979 281.460308 
L 316.434632 281.531619 
L 320.719936 280.954091 
L 325.005241 280.599184 
L 327.147893 280.246202 
L 329.290545 280.15609 
L 331.433197 279.909877 
L 335.718502 279.912312 
L 337.861154 279.690974 
L 340.003806 279.715496 
L 342.146459 279.863263 
L 344.289111 279.74424 
L 355.002372 279.941593 
L 365.715633 279.184452 
L 367.858286 279.424231 
L 372.14359 279.50441 
L 378.571547 280.193087 
L 382.856851 279.544989 
L 384.999504 279.104574 
L 387.142156 278.99639 
L 389.284808 278.287773 
L 391.42746 277.888947 
L 393.570113 276.759944 
L 395.712765 276.751048 
L 397.855417 276.146885 
L 399.998069 275.986446 
L 402.140722 275.334419 
L 404.283374 275.387921 
L 406.426026 274.984649 
L 408.568678 274.744705 
L 410.711331 275.04931 
L 412.853983 274.250085 
L 417.139287 273.417697 
L 419.28194 273.523929 
L 421.424592 272.48116 
L 423.567244 272.457816 
L 425.709896 270.969825 
L 427.852549 269.965619 
L 429.995201 268.389705 
L 432.137853 267.383053 
L 434.280505 265.245513 
L 436.423158 263.721119 
L 438.56581 263.11854 
L 440.708462 263.435442 
L 442.851114 261.65254 
L 444.993767 260.459898 
L 447.136419 259.569629 
L 449.279071 259.282596 
L 451.421723 258.004738 
L 453.564376 255.857127 
L 455.707028 252.856355 
L 457.84968 253.353293 
L 459.992332 252.315626 
L 462.134985 250.781772 
L 464.277637 248.193082 
L 466.420289 248.030671 
L 468.562941 245.885497 
L 470.705594 245.950832 
L 472.848246 244.816976 
L 474.990898 242.723489 
L 477.13355 241.829897 
L 479.276203 240.37901 
L 481.418855 238.744034 
L 483.561507 243.753829 
L 485.704159 241.810706 
L 487.846812 240.510595 
L 489.989464 239.661594 
L 492.132116 237.299828 
L 494.274768 237.544071 
L 496.417421 237.033619 
L 498.560073 232.012644 
L 500.702725 232.463568 
L 502.845377 233.090663 
L 504.98803 235.089158 
L 507.130682 239.1973 
L 507.130682 239.1973 
" style="fill:none;stroke:#ff7f0e;stroke-linecap:square;stroke-width:1.75;"/>
   </g>
   <g id="line2d_20">
    <path clip-path="url(#pe08fe180f8)" d="M 65.744318 82.271404 
L 67.88697 60.779428 
L 67.996979 -1 
M 84.93572 -1 
L 85.028188 50.655584 
L 87.170841 15.057378 
L 89.313493 36.851608 
L 91.456145 42.49082 
L 93.598797 52.892011 
L 95.74145 70.639106 
L 100.026754 74.990071 
L 102.169406 90.959418 
L 104.312059 102.35246 
L 106.454711 92.378616 
L 108.597363 112.478405 
L 110.740015 121.30664 
L 112.882668 121.240605 
L 115.02532 141.637074 
L 117.167972 147.108814 
L 119.310624 154.000144 
L 121.453277 175.268286 
L 123.595929 177.705685 
L 125.738581 173.310195 
L 127.881233 184.345404 
L 130.023886 185.300158 
L 132.166538 193.620296 
L 134.30919 191.117922 
L 136.451842 199.719278 
L 138.594495 194.789515 
L 140.737147 205.254235 
L 142.879799 214.248624 
L 145.022451 214.204308 
L 147.165104 212.985282 
L 149.307756 218.681224 
L 151.450408 214.438702 
L 153.59306 222.270249 
L 155.735713 226.940038 
L 157.878365 226.075434 
L 160.021017 229.965123 
L 162.163669 229.741241 
L 164.306322 230.873938 
L 166.448974 233.496199 
L 168.591626 237.00284 
L 170.734278 238.625939 
L 172.876931 242.472854 
L 175.019583 242.22699 
L 177.162235 248.275839 
L 179.304887 250.225075 
L 181.44754 254.657435 
L 183.590192 256.265926 
L 185.732844 257.297861 
L 187.875496 260.583188 
L 190.018149 263.399924 
L 192.160801 264.732788 
L 196.446105 267.935818 
L 198.588758 269.358107 
L 200.73141 270.285507 
L 202.874062 271.667441 
L 205.016714 273.500128 
L 207.159367 273.0008 
L 209.302019 273.416182 
L 211.444671 273.073082 
L 213.587323 273.043698 
L 215.729976 272.39842 
L 217.872628 270.479454 
L 220.01528 269.392946 
L 222.157932 269.375164 
L 224.300585 268.245841 
L 226.443237 268.94639 
L 228.585889 266.741836 
L 230.728541 266.62361 
L 232.871194 267.955954 
L 235.013846 268.699895 
L 237.156498 266.315914 
L 239.29915 267.414061 
L 241.441803 266.862428 
L 243.584455 269.532413 
L 245.727107 268.358716 
L 247.869759 269.266066 
L 250.012412 269.347623 
L 252.155064 271.553823 
L 254.297716 272.576666 
L 258.583021 273.081482 
L 260.725673 276.021898 
L 265.010977 277.605238 
L 267.15363 278.80793 
L 269.296282 279.202183 
L 271.438934 279.89477 
L 275.724239 279.847631 
L 277.866891 279.414762 
L 282.152195 279.622922 
L 286.4375 279.445279 
L 288.580152 279.529925 
L 290.722805 279.501519 
L 292.865457 279.163254 
L 297.150761 278.905282 
L 301.436066 278.616382 
L 303.578718 278.761816 
L 305.72137 278.199608 
L 307.864023 278.494595 
L 310.006675 278.365525 
L 314.291979 279.272021 
L 316.434632 279.389464 
L 318.577284 279.187465 
L 320.719936 279.537418 
L 322.862588 279.622951 
L 325.005241 279.910831 
L 327.147893 279.787668 
L 331.433197 279.812009 
L 333.57585 279.931599 
L 337.861154 280.508548 
L 340.003806 280.65539 
L 344.289111 280.671917 
L 346.431763 280.570802 
L 348.574415 280.685774 
L 352.85972 280.419375 
L 355.002372 280.106566 
L 357.145024 279.967248 
L 361.430329 279.382476 
L 374.286242 278.62611 
L 376.428895 278.684044 
L 378.571547 277.8995 
L 380.714199 277.446165 
L 382.856851 277.279716 
L 389.284808 277.147733 
L 391.42746 276.628772 
L 393.570113 276.263484 
L 395.712765 275.322883 
L 397.855417 274.584865 
L 399.998069 273.299618 
L 406.426026 272.185703 
L 408.568678 272.223137 
L 410.711331 271.802271 
L 412.853983 272.206049 
L 414.996635 272.283092 
L 417.139287 271.925098 
L 419.28194 271.367868 
L 421.424592 270.498783 
L 423.567244 270.138363 
L 425.709896 270.068305 
L 427.852549 268.420958 
L 429.995201 267.056166 
L 432.137853 265.551914 
L 434.280505 264.689348 
L 436.423158 264.014992 
L 438.56581 262.823997 
L 440.708462 262.34585 
L 442.851114 260.742545 
L 444.993767 260.085729 
L 447.136419 259.198027 
L 449.279071 257.954927 
L 451.421723 254.969065 
L 453.564376 254.307197 
L 455.707028 251.638534 
L 457.84968 252.222788 
L 459.992332 249.211976 
L 462.134985 248.382239 
L 464.277637 245.12744 
L 468.562941 244.680444 
L 470.705594 246.194248 
L 472.848246 242.713125 
L 474.990898 239.797774 
L 477.13355 237.687064 
L 479.276203 234.682562 
L 481.418855 235.856253 
L 483.561507 231.797278 
L 485.704159 231.027012 
L 487.846812 227.12573 
L 489.989464 228.559728 
L 492.132116 225.659191 
L 494.274768 230.971967 
L 496.417421 225.14818 
L 498.560073 226.231476 
L 500.702725 220.032558 
L 502.845377 218.661772 
L 504.98803 214.935457 
L 507.130682 214.682353 
L 507.130682 214.682353 
" style="fill:none;stroke:#2ca02c;stroke-linecap:square;stroke-width:1.75;"/>
   </g>
   <g id="line2d_21">
    <path clip-path="url(#pe08fe180f8)" d="M 110.740015 210.531162 
L 112.882668 212.298748 
L 115.02532 219.284505 
L 117.167972 231.129222 
L 119.310624 233.69612 
L 121.453277 239.552762 
L 125.738581 248.710414 
L 130.023886 248.683234 
L 132.166538 250.807121 
L 134.30919 254.399019 
L 136.451842 255.212653 
L 138.594495 257.273804 
L 140.737147 259.827659 
L 142.879799 260.101644 
L 145.022451 259.768741 
L 147.165104 260.229127 
L 149.307756 261.030814 
L 151.450408 262.343191 
L 153.59306 262.921486 
L 157.878365 265.832629 
L 160.021017 268.667295 
L 162.163669 268.405727 
L 166.448974 268.754374 
L 168.591626 269.415119 
L 170.734278 267.100857 
L 175.019583 265.781466 
L 177.162235 267.424695 
L 179.304887 267.562389 
L 181.44754 269.33521 
L 183.590192 270.882954 
L 185.732844 273.40038 
L 187.875496 275.177313 
L 190.018149 276.488509 
L 192.160801 275.565611 
L 194.303453 276.631482 
L 196.446105 276.4931 
L 198.588758 276.64081 
L 200.73141 277.413259 
L 202.874062 277.474926 
L 205.016714 277.16629 
L 207.159367 278.89953 
L 209.302019 277.999375 
L 211.444671 278.865794 
L 213.587323 278.639391 
L 222.157932 279.29991 
L 224.300585 280.189233 
L 226.443237 280.419492 
L 228.585889 280.526089 
L 230.728541 280.806297 
L 232.871194 280.933754 
L 235.013846 281.301789 
L 237.156498 281.29506 
L 241.441803 280.932527 
L 243.584455 281.331195 
L 245.727107 280.542646 
L 247.869759 280.307441 
L 250.012412 280.361148 
L 252.155064 280.017443 
M 348.574415 276.844653 
L 350.717068 275.920208 
L 352.85972 275.934869 
L 355.002372 276.550079 
L 357.145024 275.337309 
L 359.287677 276.150802 
L 361.430329 276.351778 
L 363.572981 273.378001 
L 367.858286 274.574255 
L 370.000938 274.23211 
L 372.14359 274.579765 
L 374.286242 273.537539 
L 376.428895 272.709618 
L 378.571547 275.517927 
L 380.714199 274.571856 
L 382.856851 274.502237 
L 384.999504 274.635116 
L 387.142156 274.527365 
L 389.284808 274.997022 
L 393.570113 274.051179 
L 395.712765 270.745103 
L 397.855417 270.665576 
L 402.140722 271.1798 
L 404.283374 271.123774 
L 406.426026 271.742928 
L 408.568678 271.686022 
L 410.711331 273.94712 
L 412.853983 273.701903 
L 417.139287 271.243443 
L 419.28194 270.552046 
L 421.424592 268.558922 
L 423.567244 267.511089 
L 425.709896 267.235058 
L 427.852549 267.450531 
L 429.995201 266.018617 
L 432.137853 265.780002 
L 434.280505 264.534794 
L 436.423158 261.889734 
L 438.56581 261.396589 
L 440.708462 260.1598 
L 442.851114 257.331263 
L 444.993767 254.126122 
L 447.136419 253.731042 
L 449.279071 246.473908 
L 451.421723 240.957 
L 453.564376 238.327295 
L 455.707028 234.405319 
L 457.84968 231.848227 
L 459.992332 230.643618 
L 462.134985 225.446071 
L 464.277637 225.907478 
L 466.420289 229.63951 
L 468.562941 221.595023 
L 470.705594 217.00507 
L 472.848246 215.822839 
L 474.990898 209.997165 
L 477.13355 211.583928 
L 479.276203 206.000312 
L 481.418855 205.095552 
L 483.561507 203.665481 
L 485.704159 204.749514 
L 487.846812 202.928185 
L 489.989464 206.190072 
L 492.132116 202.678674 
L 494.274768 203.158371 
L 496.417421 200.707629 
L 498.560073 199.082001 
L 500.702725 201.396946 
L 502.845377 201.630449 
L 504.98803 202.531379 
L 507.130682 201.687348 
L 507.130682 201.687348 
" style="fill:none;stroke:#d62728;stroke-linecap:square;stroke-width:1.75;"/>
   </g>
   <g id="patch_3">
    <path d="M 43.675 295.102246 
L 43.675 26.8 
" style="fill:none;stroke:#000000;stroke-linecap:square;stroke-linejoin:miter;stroke-width:0.8;"/>
   </g>
   <g id="patch_4">
    <path d="M 529.2 295.102246 
L 529.2 26.8 
" style="fill:none;stroke:#000000;stroke-linecap:square;stroke-linejoin:miter;stroke-width:0.8;"/>
   </g>
   <g id="patch_5">
    <path d="M 43.675 295.102246 
L 529.2 295.102246 
" style="fill:none;stroke:#000000;stroke-linecap:square;stroke-linejoin:miter;stroke-width:0.8;"/>
   </g>
   <g id="patch_6">
    <path d="M 43.675 26.8 
L 529.2 26.8 
" style="fill:none;stroke:#000000;stroke-linecap:square;stroke-linejoin:miter;stroke-width:0.8;"/>
   </g>
   <g id="text_19">
    <!-- Positivity rate (7 day rolling) -->
    <g transform="translate(201.46625 20.8)scale(0.12 -0.12)">
     <defs>
      <path d="M 19.671875 64.796875 
L 19.671875 37.40625 
L 32.078125 37.40625 
Q 38.96875 37.40625 42.71875 40.96875 
Q 46.484375 44.53125 46.484375 51.125 
Q 46.484375 57.671875 42.71875 61.234375 
Q 38.96875 64.796875 32.078125 64.796875 
z
M 9.8125 72.90625 
L 32.078125 72.90625 
Q 44.34375 72.90625 50.609375 67.359375 
Q 56.890625 61.8125 56.890625 51.125 
Q 56.890625 40.328125 50.609375 34.8125 
Q 44.34375 29.296875 32.078125 29.296875 
L 19.671875 29.296875 
L 19.671875 0 
L 9.8125 0 
z
" id="DejaVuSans-80"/>
      <path d="M 30.609375 48.390625 
Q 23.390625 48.390625 19.1875 42.75 
Q 14.984375 37.109375 14.984375 27.296875 
Q 14.984375 17.484375 19.15625 11.84375 
Q 23.34375 6.203125 30.609375 6.203125 
Q 37.796875 6.203125 41.984375 11.859375 
Q 46.1875 17.53125 46.1875 27.296875 
Q 46.1875 37.015625 41.984375 42.703125 
Q 37.796875 48.390625 30.609375 48.390625 
z
M 30.609375 56 
Q 42.328125 56 49.015625 48.375 
Q 55.71875 40.765625 55.71875 27.296875 
Q 55.71875 13.875 49.015625 6.21875 
Q 42.328125 -1.421875 30.609375 -1.421875 
Q 18.84375 -1.421875 12.171875 6.21875 
Q 5.515625 13.875 5.515625 27.296875 
Q 5.515625 40.765625 12.171875 48.375 
Q 18.84375 56 30.609375 56 
z
" id="DejaVuSans-111"/>
      <path d="M 44.28125 53.078125 
L 44.28125 44.578125 
Q 40.484375 46.53125 36.375 47.5 
Q 32.28125 48.484375 27.875 48.484375 
Q 21.1875 48.484375 17.84375 46.4375 
Q 14.5 44.390625 14.5 40.28125 
Q 14.5 37.15625 16.890625 35.375 
Q 19.28125 33.59375 26.515625 31.984375 
L 29.59375 31.296875 
Q 39.15625 29.25 43.1875 25.515625 
Q 47.21875 21.78125 47.21875 15.09375 
Q 47.21875 7.46875 41.1875 3.015625 
Q 35.15625 -1.421875 24.609375 -1.421875 
Q 20.21875 -1.421875 15.453125 -0.5625 
Q 10.6875 0.296875 5.421875 2 
L 5.421875 11.28125 
Q 10.40625 8.6875 15.234375 7.390625 
Q 20.0625 6.109375 24.8125 6.109375 
Q 31.15625 6.109375 34.5625 8.28125 
Q 37.984375 10.453125 37.984375 14.40625 
Q 37.984375 18.0625 35.515625 20.015625 
Q 33.0625 21.96875 24.703125 23.78125 
L 21.578125 24.515625 
Q 13.234375 26.265625 9.515625 29.90625 
Q 5.8125 33.546875 5.8125 39.890625 
Q 5.8125 47.609375 11.28125 51.796875 
Q 16.75 56 26.8125 56 
Q 31.78125 56 36.171875 55.265625 
Q 40.578125 54.546875 44.28125 53.078125 
z
" id="DejaVuSans-115"/>
      <path d="M 9.421875 54.6875 
L 18.40625 54.6875 
L 18.40625 0 
L 9.421875 0 
z
M 9.421875 75.984375 
L 18.40625 75.984375 
L 18.40625 64.59375 
L 9.421875 64.59375 
z
" id="DejaVuSans-105"/>
      <path d="M 2.984375 54.6875 
L 12.5 54.6875 
L 29.59375 8.796875 
L 46.6875 54.6875 
L 56.203125 54.6875 
L 35.6875 0 
L 23.484375 0 
z
" id="DejaVuSans-118"/>
      <path d="M 32.171875 -5.078125 
Q 28.375 -14.84375 24.75 -17.8125 
Q 21.140625 -20.796875 15.09375 -20.796875 
L 7.90625 -20.796875 
L 7.90625 -13.28125 
L 13.1875 -13.28125 
Q 16.890625 -13.28125 18.9375 -11.515625 
Q 21 -9.765625 23.484375 -3.21875 
L 25.09375 0.875 
L 2.984375 54.6875 
L 12.5 54.6875 
L 29.59375 11.921875 
L 46.6875 54.6875 
L 56.203125 54.6875 
z
" id="DejaVuSans-121"/>
      <path id="DejaVuSans-32"/>
      <path d="M 41.109375 46.296875 
Q 39.59375 47.171875 37.8125 47.578125 
Q 36.03125 48 33.890625 48 
Q 26.265625 48 22.1875 43.046875 
Q 18.109375 38.09375 18.109375 28.8125 
L 18.109375 0 
L 9.078125 0 
L 9.078125 54.6875 
L 18.109375 54.6875 
L 18.109375 46.1875 
Q 20.953125 51.171875 25.484375 53.578125 
Q 30.03125 56 36.53125 56 
Q 37.453125 56 38.578125 55.875 
Q 39.703125 55.765625 41.0625 55.515625 
z
" id="DejaVuSans-114"/>
      <path d="M 31 75.875 
Q 24.46875 64.65625 21.28125 53.65625 
Q 18.109375 42.671875 18.109375 31.390625 
Q 18.109375 20.125 21.3125 9.0625 
Q 24.515625 -2 31 -13.1875 
L 23.1875 -13.1875 
Q 15.875 -1.703125 12.234375 9.375 
Q 8.59375 20.453125 8.59375 31.390625 
Q 8.59375 42.28125 12.203125 53.3125 
Q 15.828125 64.359375 23.1875 75.875 
z
" id="DejaVuSans-40"/>
      <path d="M 45.40625 46.390625 
L 45.40625 75.984375 
L 54.390625 75.984375 
L 54.390625 0 
L 45.40625 0 
L 45.40625 8.203125 
Q 42.578125 3.328125 38.25 0.953125 
Q 33.9375 -1.421875 27.875 -1.421875 
Q 17.96875 -1.421875 11.734375 6.484375 
Q 5.515625 14.40625 5.515625 27.296875 
Q 5.515625 40.1875 11.734375 48.09375 
Q 17.96875 56 27.875 56 
Q 33.9375 56 38.25 53.625 
Q 42.578125 51.265625 45.40625 46.390625 
z
M 14.796875 27.296875 
Q 14.796875 17.390625 18.875 11.75 
Q 22.953125 6.109375 30.078125 6.109375 
Q 37.203125 6.109375 41.296875 11.75 
Q 45.40625 17.390625 45.40625 27.296875 
Q 45.40625 37.203125 41.296875 42.84375 
Q 37.203125 48.484375 30.078125 48.484375 
Q 22.953125 48.484375 18.875 42.84375 
Q 14.796875 37.203125 14.796875 27.296875 
z
" id="DejaVuSans-100"/>
      <path d="M 9.421875 75.984375 
L 18.40625 75.984375 
L 18.40625 0 
L 9.421875 0 
z
" id="DejaVuSans-108"/>
      <path d="M 54.890625 33.015625 
L 54.890625 0 
L 45.90625 0 
L 45.90625 32.71875 
Q 45.90625 40.484375 42.875 44.328125 
Q 39.84375 48.1875 33.796875 48.1875 
Q 26.515625 48.1875 22.3125 43.546875 
Q 18.109375 38.921875 18.109375 30.90625 
L 18.109375 0 
L 9.078125 0 
L 9.078125 54.6875 
L 18.109375 54.6875 
L 18.109375 46.1875 
Q 21.34375 51.125 25.703125 53.5625 
Q 30.078125 56 35.796875 56 
Q 45.21875 56 50.046875 50.171875 
Q 54.890625 44.34375 54.890625 33.015625 
z
" id="DejaVuSans-110"/>
      <path d="M 45.40625 27.984375 
Q 45.40625 37.75 41.375 43.109375 
Q 37.359375 48.484375 30.078125 48.484375 
Q 22.859375 48.484375 18.828125 43.109375 
Q 14.796875 37.75 14.796875 27.984375 
Q 14.796875 18.265625 18.828125 12.890625 
Q 22.859375 7.515625 30.078125 7.515625 
Q 37.359375 7.515625 41.375 12.890625 
Q 45.40625 18.265625 45.40625 27.984375 
z
M 54.390625 6.78125 
Q 54.390625 -7.171875 48.1875 -13.984375 
Q 42 -20.796875 29.203125 -20.796875 
Q 24.46875 -20.796875 20.265625 -20.09375 
Q 16.0625 -19.390625 12.109375 -17.921875 
L 12.109375 -9.1875 
Q 16.0625 -11.328125 19.921875 -12.34375 
Q 23.78125 -13.375 27.78125 -13.375 
Q 36.625 -13.375 41.015625 -8.765625 
Q 45.40625 -4.15625 45.40625 5.171875 
L 45.40625 9.625 
Q 42.625 4.78125 38.28125 2.390625 
Q 33.9375 0 27.875 0 
Q 17.828125 0 11.671875 7.65625 
Q 5.515625 15.328125 5.515625 27.984375 
Q 5.515625 40.671875 11.671875 48.328125 
Q 17.828125 56 27.875 56 
Q 33.9375 56 38.28125 53.609375 
Q 42.625 51.21875 45.40625 46.390625 
L 45.40625 54.6875 
L 54.390625 54.6875 
z
" id="DejaVuSans-103"/>
      <path d="M 8.015625 75.875 
L 15.828125 75.875 
Q 23.140625 64.359375 26.78125 53.3125 
Q 30.421875 42.28125 30.421875 31.390625 
Q 30.421875 20.453125 26.78125 9.375 
Q 23.140625 -1.703125 15.828125 -13.1875 
L 8.015625 -13.1875 
Q 14.5 -2 17.703125 9.0625 
Q 20.90625 20.125 20.90625 31.390625 
Q 20.90625 42.671875 17.703125 53.65625 
Q 14.5 64.65625 8.015625 75.875 
z
" id="DejaVuSans-41"/>
     </defs>
     <use xlink:href="#DejaVuSans-80"/>
     <use x="56.677734" xlink:href="#DejaVuSans-111"/>
     <use x="117.859375" xlink:href="#DejaVuSans-115"/>
     <use x="169.958984" xlink:href="#DejaVuSans-105"/>
     <use x="197.742188" xlink:href="#DejaVuSans-116"/>
     <use x="236.951172" xlink:href="#DejaVuSans-105"/>
     <use x="264.734375" xlink:href="#DejaVuSans-118"/>
     <use x="323.914062" xlink:href="#DejaVuSans-105"/>
     <use x="351.697266" xlink:href="#DejaVuSans-116"/>
     <use x="390.90625" xlink:href="#DejaVuSans-121"/>
     <use x="450.085938" xlink:href="#DejaVuSans-32"/>
     <use x="481.873047" xlink:href="#DejaVuSans-114"/>
     <use x="522.986328" xlink:href="#DejaVuSans-97"/>
     <use x="584.265625" xlink:href="#DejaVuSans-116"/>
     <use x="623.474609" xlink:href="#DejaVuSans-101"/>
     <use x="684.998047" xlink:href="#DejaVuSans-32"/>
     <use x="716.785156" xlink:href="#DejaVuSans-40"/>
     <use x="755.798828" xlink:href="#DejaVuSans-55"/>
     <use x="819.421875" xlink:href="#DejaVuSans-32"/>
     <use x="851.208984" xlink:href="#DejaVuSans-100"/>
     <use x="914.685547" xlink:href="#DejaVuSans-97"/>
     <use x="975.964844" xlink:href="#DejaVuSans-121"/>
     <use x="1035.144531" xlink:href="#DejaVuSans-32"/>
     <use x="1066.931641" xlink:href="#DejaVuSans-114"/>
     <use x="1105.794922" xlink:href="#DejaVuSans-111"/>
     <use x="1166.976562" xlink:href="#DejaVuSans-108"/>
     <use x="1194.759766" xlink:href="#DejaVuSans-108"/>
     <use x="1222.542969" xlink:href="#DejaVuSans-105"/>
     <use x="1250.326172" xlink:href="#DejaVuSans-110"/>
     <use x="1313.705078" xlink:href="#DejaVuSans-103"/>
     <use x="1377.181641" xlink:href="#DejaVuSans-41"/>
    </g>
   </g>
   <g id="legend_1">
    <g id="patch_7">
     <path d="M 387.032813 93.5125 
L 522.2 93.5125 
Q 524.2 93.5125 524.2 91.5125 
L 524.2 33.8 
Q 524.2 31.8 522.2 31.8 
L 387.032813 31.8 
Q 385.032813 31.8 385.032813 33.8 
L 385.032813 91.5125 
Q 385.032813 93.5125 387.032813 93.5125 
z
" style="fill:#ffffff;opacity:0.8;stroke:#cccccc;stroke-linejoin:miter;stroke-width:0.3;"/>
    </g>
    <g id="line2d_22">
     <path d="M 389.032813 39.898438 
L 409.032813 39.898438 
" style="fill:none;stroke:#1f77b4;stroke-linecap:square;stroke-width:1.75;"/>
    </g>
    <g id="line2d_23"/>
    <g id="text_20">
     <!-- ENGLAND -->
     <g transform="translate(417.032813 43.398438)scale(0.1 -0.1)">
      <defs>
       <path d="M 9.8125 72.90625 
L 55.90625 72.90625 
L 55.90625 64.59375 
L 19.671875 64.59375 
L 19.671875 43.015625 
L 54.390625 43.015625 
L 54.390625 34.71875 
L 19.671875 34.71875 
L 19.671875 8.296875 
L 56.78125 8.296875 
L 56.78125 0 
L 9.8125 0 
z
" id="DejaVuSans-69"/>
       <path d="M 9.8125 72.90625 
L 23.09375 72.90625 
L 55.421875 11.921875 
L 55.421875 72.90625 
L 64.984375 72.90625 
L 64.984375 0 
L 51.703125 0 
L 19.390625 60.984375 
L 19.390625 0 
L 9.8125 0 
z
" id="DejaVuSans-78"/>
       <path d="M 59.515625 10.40625 
L 59.515625 29.984375 
L 43.40625 29.984375 
L 43.40625 38.09375 
L 69.28125 38.09375 
L 69.28125 6.78125 
Q 63.578125 2.734375 56.6875 0.65625 
Q 49.8125 -1.421875 42 -1.421875 
Q 24.90625 -1.421875 15.25 8.5625 
Q 5.609375 18.5625 5.609375 36.375 
Q 5.609375 54.25 15.25 64.234375 
Q 24.90625 74.21875 42 74.21875 
Q 49.125 74.21875 55.546875 72.453125 
Q 61.96875 70.703125 67.390625 67.28125 
L 67.390625 56.78125 
Q 61.921875 61.421875 55.765625 63.765625 
Q 49.609375 66.109375 42.828125 66.109375 
Q 29.4375 66.109375 22.71875 58.640625 
Q 16.015625 51.171875 16.015625 36.375 
Q 16.015625 21.625 22.71875 14.15625 
Q 29.4375 6.6875 42.828125 6.6875 
Q 48.046875 6.6875 52.140625 7.59375 
Q 56.25 8.5 59.515625 10.40625 
z
" id="DejaVuSans-71"/>
       <path d="M 9.8125 72.90625 
L 19.671875 72.90625 
L 19.671875 8.296875 
L 55.171875 8.296875 
L 55.171875 0 
L 9.8125 0 
z
" id="DejaVuSans-76"/>
       <path d="M 34.1875 63.1875 
L 20.796875 26.90625 
L 47.609375 26.90625 
z
M 28.609375 72.90625 
L 39.796875 72.90625 
L 67.578125 0 
L 57.328125 0 
L 50.6875 18.703125 
L 17.828125 18.703125 
L 11.1875 0 
L 0.78125 0 
z
" id="DejaVuSans-65"/>
      </defs>
      <use xlink:href="#DejaVuSans-69"/>
      <use x="63.183594" xlink:href="#DejaVuSans-78"/>
      <use x="137.988281" xlink:href="#DejaVuSans-71"/>
      <use x="215.478516" xlink:href="#DejaVuSans-76"/>
      <use x="273.441406" xlink:href="#DejaVuSans-65"/>
      <use x="341.849609" xlink:href="#DejaVuSans-78"/>
      <use x="416.654297" xlink:href="#DejaVuSans-68"/>
     </g>
    </g>
    <g id="line2d_24">
     <path d="M 389.032813 54.576563 
L 409.032813 54.576563 
" style="fill:none;stroke:#ff7f0e;stroke-linecap:square;stroke-width:1.75;"/>
    </g>
    <g id="line2d_25"/>
    <g id="text_21">
     <!-- SCOTLAND -->
     <g transform="translate(417.032813 58.076563)scale(0.1 -0.1)">
      <defs>
       <path d="M 53.515625 70.515625 
L 53.515625 60.890625 
Q 47.90625 63.578125 42.921875 64.890625 
Q 37.9375 66.21875 33.296875 66.21875 
Q 25.25 66.21875 20.875 63.09375 
Q 16.5 59.96875 16.5 54.203125 
Q 16.5 49.359375 19.40625 46.890625 
Q 22.3125 44.4375 30.421875 42.921875 
L 36.375 41.703125 
Q 47.40625 39.59375 52.65625 34.296875 
Q 57.90625 29 57.90625 20.125 
Q 57.90625 9.515625 50.796875 4.046875 
Q 43.703125 -1.421875 29.984375 -1.421875 
Q 24.8125 -1.421875 18.96875 -0.25 
Q 13.140625 0.921875 6.890625 3.21875 
L 6.890625 13.375 
Q 12.890625 10.015625 18.65625 8.296875 
Q 24.421875 6.59375 29.984375 6.59375 
Q 38.421875 6.59375 43.015625 9.90625 
Q 47.609375 13.234375 47.609375 19.390625 
Q 47.609375 24.75 44.3125 27.78125 
Q 41.015625 30.8125 33.5 32.328125 
L 27.484375 33.5 
Q 16.453125 35.6875 11.515625 40.375 
Q 6.59375 45.0625 6.59375 53.421875 
Q 6.59375 63.09375 13.40625 68.65625 
Q 20.21875 74.21875 32.171875 74.21875 
Q 37.3125 74.21875 42.625 73.28125 
Q 47.953125 72.359375 53.515625 70.515625 
z
" id="DejaVuSans-83"/>
       <path d="M 64.40625 67.28125 
L 64.40625 56.890625 
Q 59.421875 61.53125 53.78125 63.8125 
Q 48.140625 66.109375 41.796875 66.109375 
Q 29.296875 66.109375 22.65625 58.46875 
Q 16.015625 50.828125 16.015625 36.375 
Q 16.015625 21.96875 22.65625 14.328125 
Q 29.296875 6.6875 41.796875 6.6875 
Q 48.140625 6.6875 53.78125 8.984375 
Q 59.421875 11.28125 64.40625 15.921875 
L 64.40625 5.609375 
Q 59.234375 2.09375 53.4375 0.328125 
Q 47.65625 -1.421875 41.21875 -1.421875 
Q 24.65625 -1.421875 15.125 8.703125 
Q 5.609375 18.84375 5.609375 36.375 
Q 5.609375 53.953125 15.125 64.078125 
Q 24.65625 74.21875 41.21875 74.21875 
Q 47.75 74.21875 53.53125 72.484375 
Q 59.328125 70.75 64.40625 67.28125 
z
" id="DejaVuSans-67"/>
       <path d="M 39.40625 66.21875 
Q 28.65625 66.21875 22.328125 58.203125 
Q 16.015625 50.203125 16.015625 36.375 
Q 16.015625 22.609375 22.328125 14.59375 
Q 28.65625 6.59375 39.40625 6.59375 
Q 50.140625 6.59375 56.421875 14.59375 
Q 62.703125 22.609375 62.703125 36.375 
Q 62.703125 50.203125 56.421875 58.203125 
Q 50.140625 66.21875 39.40625 66.21875 
z
M 39.40625 74.21875 
Q 54.734375 74.21875 63.90625 63.9375 
Q 73.09375 53.65625 73.09375 36.375 
Q 73.09375 19.140625 63.90625 8.859375 
Q 54.734375 -1.421875 39.40625 -1.421875 
Q 24.03125 -1.421875 14.8125 8.828125 
Q 5.609375 19.09375 5.609375 36.375 
Q 5.609375 53.65625 14.8125 63.9375 
Q 24.03125 74.21875 39.40625 74.21875 
z
" id="DejaVuSans-79"/>
       <path d="M -0.296875 72.90625 
L 61.375 72.90625 
L 61.375 64.59375 
L 35.5 64.59375 
L 35.5 0 
L 25.59375 0 
L 25.59375 64.59375 
L -0.296875 64.59375 
z
" id="DejaVuSans-84"/>
      </defs>
      <use xlink:href="#DejaVuSans-83"/>
      <use x="63.476562" xlink:href="#DejaVuSans-67"/>
      <use x="133.300781" xlink:href="#DejaVuSans-79"/>
      <use x="212.011719" xlink:href="#DejaVuSans-84"/>
      <use x="273.095703" xlink:href="#DejaVuSans-76"/>
      <use x="331.058594" xlink:href="#DejaVuSans-65"/>
      <use x="399.466797" xlink:href="#DejaVuSans-78"/>
      <use x="474.271484" xlink:href="#DejaVuSans-68"/>
     </g>
    </g>
    <g id="line2d_26">
     <path d="M 389.032813 69.254688 
L 409.032813 69.254688 
" style="fill:none;stroke:#2ca02c;stroke-linecap:square;stroke-width:1.75;"/>
    </g>
    <g id="line2d_27"/>
    <g id="text_22">
     <!-- WALES -->
     <g transform="translate(417.032813 72.754688)scale(0.1 -0.1)">
      <defs>
       <path d="M 3.328125 72.90625 
L 13.28125 72.90625 
L 28.609375 11.28125 
L 43.890625 72.90625 
L 54.984375 72.90625 
L 70.3125 11.28125 
L 85.59375 72.90625 
L 95.609375 72.90625 
L 77.296875 0 
L 64.890625 0 
L 49.515625 63.28125 
L 33.984375 0 
L 21.578125 0 
z
" id="DejaVuSans-87"/>
      </defs>
      <use xlink:href="#DejaVuSans-87"/>
      <use x="93.376953" xlink:href="#DejaVuSans-65"/>
      <use x="161.785156" xlink:href="#DejaVuSans-76"/>
      <use x="217.498047" xlink:href="#DejaVuSans-69"/>
      <use x="280.681641" xlink:href="#DejaVuSans-83"/>
     </g>
    </g>
    <g id="line2d_28">
     <path d="M 389.032813 83.932813 
L 409.032813 83.932813 
" style="fill:none;stroke:#d62728;stroke-linecap:square;stroke-width:1.75;"/>
    </g>
    <g id="line2d_29"/>
    <g id="text_23">
     <!-- NORTHERN IRELAND -->
     <g transform="translate(417.032813 87.432813)scale(0.1 -0.1)">
      <defs>
       <path d="M 44.390625 34.1875 
Q 47.5625 33.109375 50.5625 29.59375 
Q 53.5625 26.078125 56.59375 19.921875 
L 66.609375 0 
L 56 0 
L 46.6875 18.703125 
Q 43.0625 26.03125 39.671875 28.421875 
Q 36.28125 30.8125 30.421875 30.8125 
L 19.671875 30.8125 
L 19.671875 0 
L 9.8125 0 
L 9.8125 72.90625 
L 32.078125 72.90625 
Q 44.578125 72.90625 50.734375 67.671875 
Q 56.890625 62.453125 56.890625 51.90625 
Q 56.890625 45.015625 53.6875 40.46875 
Q 50.484375 35.9375 44.390625 34.1875 
z
M 19.671875 64.796875 
L 19.671875 38.921875 
L 32.078125 38.921875 
Q 39.203125 38.921875 42.84375 42.21875 
Q 46.484375 45.515625 46.484375 51.90625 
Q 46.484375 58.296875 42.84375 61.546875 
Q 39.203125 64.796875 32.078125 64.796875 
z
" id="DejaVuSans-82"/>
       <path d="M 9.8125 72.90625 
L 19.671875 72.90625 
L 19.671875 43.015625 
L 55.515625 43.015625 
L 55.515625 72.90625 
L 65.375 72.90625 
L 65.375 0 
L 55.515625 0 
L 55.515625 34.71875 
L 19.671875 34.71875 
L 19.671875 0 
L 9.8125 0 
z
" id="DejaVuSans-72"/>
       <path d="M 9.8125 72.90625 
L 19.671875 72.90625 
L 19.671875 0 
L 9.8125 0 
z
" id="DejaVuSans-73"/>
      </defs>
      <use xlink:href="#DejaVuSans-78"/>
      <use x="74.804688" xlink:href="#DejaVuSans-79"/>
      <use x="153.515625" xlink:href="#DejaVuSans-82"/>
      <use x="215.748047" xlink:href="#DejaVuSans-84"/>
      <use x="276.832031" xlink:href="#DejaVuSans-72"/>
      <use x="352.027344" xlink:href="#DejaVuSans-69"/>
      <use x="415.210938" xlink:href="#DejaVuSans-82"/>
      <use x="484.693359" xlink:href="#DejaVuSans-78"/>
      <use x="559.498047" xlink:href="#DejaVuSans-32"/>
      <use x="591.285156" xlink:href="#DejaVuSans-73"/>
      <use x="620.777344" xlink:href="#DejaVuSans-82"/>
      <use x="690.259766" xlink:href="#DejaVuSans-69"/>
      <use x="753.443359" xlink:href="#DejaVuSans-76"/>
      <use x="811.40625" xlink:href="#DejaVuSans-65"/>
      <use x="879.814453" xlink:href="#DejaVuSans-78"/>
      <use x="954.619141" xlink:href="#DejaVuSans-68"/>
     </g>
    </g>
   </g>
  </g>
 </g>
 <defs>
  <clipPath id="pe08fe180f8">
   <rect height="268.302246" width="485.525" x="43.675" y="26.8"/>
  </clipPath>
 </defs>
</svg>
