<?xml version="1.0" encoding="utf-8" standalone="no"?>
<!DOCTYPE svg PUBLIC "-//W3C//DTD SVG 1.1//EN"
  "http://www.w3.org/Graphics/SVG/1.1/DTD/svg11.dtd">
<!-- Created with matplotlib (https://matplotlib.org/) -->
<svg height="288pt" version="1.1" viewBox="0 0 432 288" width="432pt" xmlns="http://www.w3.org/2000/svg" xmlns:xlink="http://www.w3.org/1999/xlink">
 <metadata>
  <rdf:RDF xmlns:cc="http://creativecommons.org/ns#" xmlns:dc="http://purl.org/dc/elements/1.1/" xmlns:rdf="http://www.w3.org/1999/02/22-rdf-syntax-ns#">
   <cc:Work>
    <dc:type rdf:resource="http://purl.org/dc/dcmitype/StillImage"/>
    <dc:date>2020-11-21T10:24:41.604606</dc:date>
    <dc:format>image/svg+xml</dc:format>
    <dc:creator>
     <cc:Agent>
      <dc:title>Matplotlib v3.3.2, https://matplotlib.org/</dc:title>
     </cc:Agent>
    </dc:creator>
   </cc:Work>
  </rdf:RDF>
 </metadata>
 <defs>
  <style type="text/css">*{stroke-linecap:butt;stroke-linejoin:round;}</style>
 </defs>
 <g id="figure_1">
  <g id="patch_1">
   <path d="M 0 288 
L 432 288 
L 432 0 
L 0 0 
z
" style="fill:none;"/>
  </g>
  <g id="axes_1">
   <g id="patch_2">
    <path d="M 50.925 226.602246 
L 421.2 226.602246 
L 421.2 26.8 
L 50.925 26.8 
z
" style="fill:#ffffff;"/>
   </g>
   <g id="matplotlib.axis_1">
    <g id="xtick_1">
     <g id="line2d_1">
      <defs>
       <path d="M 0 0 
L 0 3.5 
" id="ma4d7c7cb0d" style="stroke:#000000;stroke-width:0.8;"/>
      </defs>
      <g>
       <use style="stroke:#000000;stroke-width:0.8;" x="65.664914" xlink:href="#ma4d7c7cb0d" y="226.602246"/>
      </g>
     </g>
     <g id="text_1">
      <!-- 2020-01 -->
      <g transform="translate(28.440093 261.074092)rotate(-30)scale(0.1 -0.1)">
       <defs>
        <path d="M 19.1875 8.296875 
L 53.609375 8.296875 
L 53.609375 0 
L 7.328125 0 
L 7.328125 8.296875 
Q 12.9375 14.109375 22.625 23.890625 
Q 32.328125 33.6875 34.8125 36.53125 
Q 39.546875 41.84375 41.421875 45.53125 
Q 43.3125 49.21875 43.3125 52.78125 
Q 43.3125 58.59375 39.234375 62.25 
Q 35.15625 65.921875 28.609375 65.921875 
Q 23.96875 65.921875 18.8125 64.3125 
Q 13.671875 62.703125 7.8125 59.421875 
L 7.8125 69.390625 
Q 13.765625 71.78125 18.9375 73 
Q 24.125 74.21875 28.421875 74.21875 
Q 39.75 74.21875 46.484375 68.546875 
Q 53.21875 62.890625 53.21875 53.421875 
Q 53.21875 48.921875 51.53125 44.890625 
Q 49.859375 40.875 45.40625 35.40625 
Q 44.1875 33.984375 37.640625 27.21875 
Q 31.109375 20.453125 19.1875 8.296875 
z
" id="DejaVuSans-50"/>
        <path d="M 31.78125 66.40625 
Q 24.171875 66.40625 20.328125 58.90625 
Q 16.5 51.421875 16.5 36.375 
Q 16.5 21.390625 20.328125 13.890625 
Q 24.171875 6.390625 31.78125 6.390625 
Q 39.453125 6.390625 43.28125 13.890625 
Q 47.125 21.390625 47.125 36.375 
Q 47.125 51.421875 43.28125 58.90625 
Q 39.453125 66.40625 31.78125 66.40625 
z
M 31.78125 74.21875 
Q 44.046875 74.21875 50.515625 64.515625 
Q 56.984375 54.828125 56.984375 36.375 
Q 56.984375 17.96875 50.515625 8.265625 
Q 44.046875 -1.421875 31.78125 -1.421875 
Q 19.53125 -1.421875 13.0625 8.265625 
Q 6.59375 17.96875 6.59375 36.375 
Q 6.59375 54.828125 13.0625 64.515625 
Q 19.53125 74.21875 31.78125 74.21875 
z
" id="DejaVuSans-48"/>
        <path d="M 4.890625 31.390625 
L 31.203125 31.390625 
L 31.203125 23.390625 
L 4.890625 23.390625 
z
" id="DejaVuSans-45"/>
        <path d="M 12.40625 8.296875 
L 28.515625 8.296875 
L 28.515625 63.921875 
L 10.984375 60.40625 
L 10.984375 69.390625 
L 28.421875 72.90625 
L 38.28125 72.90625 
L 38.28125 8.296875 
L 54.390625 8.296875 
L 54.390625 0 
L 12.40625 0 
z
" id="DejaVuSans-49"/>
       </defs>
       <use xlink:href="#DejaVuSans-50"/>
       <use x="63.623047" xlink:href="#DejaVuSans-48"/>
       <use x="127.246094" xlink:href="#DejaVuSans-50"/>
       <use x="190.869141" xlink:href="#DejaVuSans-48"/>
       <use x="254.492188" xlink:href="#DejaVuSans-45"/>
       <use x="290.576172" xlink:href="#DejaVuSans-48"/>
       <use x="354.199219" xlink:href="#DejaVuSans-49"/>
      </g>
     </g>
    </g>
    <g id="xtick_2">
     <g id="line2d_2">
      <g>
       <use style="stroke:#000000;stroke-width:0.8;" x="98.071817" xlink:href="#ma4d7c7cb0d" y="226.602246"/>
      </g>
     </g>
     <g id="text_2">
      <!-- 2020-02 -->
      <g transform="translate(60.846996 261.074092)rotate(-30)scale(0.1 -0.1)">
       <use xlink:href="#DejaVuSans-50"/>
       <use x="63.623047" xlink:href="#DejaVuSans-48"/>
       <use x="127.246094" xlink:href="#DejaVuSans-50"/>
       <use x="190.869141" xlink:href="#DejaVuSans-48"/>
       <use x="254.492188" xlink:href="#DejaVuSans-45"/>
       <use x="290.576172" xlink:href="#DejaVuSans-48"/>
       <use x="354.199219" xlink:href="#DejaVuSans-50"/>
      </g>
     </g>
    </g>
    <g id="xtick_3">
     <g id="line2d_3">
      <g>
       <use style="stroke:#000000;stroke-width:0.8;" x="128.387952" xlink:href="#ma4d7c7cb0d" y="226.602246"/>
      </g>
     </g>
     <g id="text_3">
      <!-- 2020-03 -->
      <g transform="translate(91.163131 261.074092)rotate(-30)scale(0.1 -0.1)">
       <defs>
        <path d="M 40.578125 39.3125 
Q 47.65625 37.796875 51.625 33 
Q 55.609375 28.21875 55.609375 21.1875 
Q 55.609375 10.40625 48.1875 4.484375 
Q 40.765625 -1.421875 27.09375 -1.421875 
Q 22.515625 -1.421875 17.65625 -0.515625 
Q 12.796875 0.390625 7.625 2.203125 
L 7.625 11.71875 
Q 11.71875 9.328125 16.59375 8.109375 
Q 21.484375 6.890625 26.8125 6.890625 
Q 36.078125 6.890625 40.9375 10.546875 
Q 45.796875 14.203125 45.796875 21.1875 
Q 45.796875 27.640625 41.28125 31.265625 
Q 36.765625 34.90625 28.71875 34.90625 
L 20.21875 34.90625 
L 20.21875 43.015625 
L 29.109375 43.015625 
Q 36.375 43.015625 40.234375 45.921875 
Q 44.09375 48.828125 44.09375 54.296875 
Q 44.09375 59.90625 40.109375 62.90625 
Q 36.140625 65.921875 28.71875 65.921875 
Q 24.65625 65.921875 20.015625 65.03125 
Q 15.375 64.15625 9.8125 62.3125 
L 9.8125 71.09375 
Q 15.4375 72.65625 20.34375 73.4375 
Q 25.25 74.21875 29.59375 74.21875 
Q 40.828125 74.21875 47.359375 69.109375 
Q 53.90625 64.015625 53.90625 55.328125 
Q 53.90625 49.265625 50.4375 45.09375 
Q 46.96875 40.921875 40.578125 39.3125 
z
" id="DejaVuSans-51"/>
       </defs>
       <use xlink:href="#DejaVuSans-50"/>
       <use x="63.623047" xlink:href="#DejaVuSans-48"/>
       <use x="127.246094" xlink:href="#DejaVuSans-50"/>
       <use x="190.869141" xlink:href="#DejaVuSans-48"/>
       <use x="254.492188" xlink:href="#DejaVuSans-45"/>
       <use x="290.576172" xlink:href="#DejaVuSans-48"/>
       <use x="354.199219" xlink:href="#DejaVuSans-51"/>
      </g>
     </g>
    </g>
    <g id="xtick_4">
     <g id="line2d_4">
      <g>
       <use style="stroke:#000000;stroke-width:0.8;" x="160.794855" xlink:href="#ma4d7c7cb0d" y="226.602246"/>
      </g>
     </g>
     <g id="text_4">
      <!-- 2020-04 -->
      <g transform="translate(123.570034 261.074092)rotate(-30)scale(0.1 -0.1)">
       <defs>
        <path d="M 37.796875 64.3125 
L 12.890625 25.390625 
L 37.796875 25.390625 
z
M 35.203125 72.90625 
L 47.609375 72.90625 
L 47.609375 25.390625 
L 58.015625 25.390625 
L 58.015625 17.1875 
L 47.609375 17.1875 
L 47.609375 0 
L 37.796875 0 
L 37.796875 17.1875 
L 4.890625 17.1875 
L 4.890625 26.703125 
z
" id="DejaVuSans-52"/>
       </defs>
       <use xlink:href="#DejaVuSans-50"/>
       <use x="63.623047" xlink:href="#DejaVuSans-48"/>
       <use x="127.246094" xlink:href="#DejaVuSans-50"/>
       <use x="190.869141" xlink:href="#DejaVuSans-48"/>
       <use x="254.492188" xlink:href="#DejaVuSans-45"/>
       <use x="290.576172" xlink:href="#DejaVuSans-48"/>
       <use x="354.199219" xlink:href="#DejaVuSans-52"/>
      </g>
     </g>
    </g>
    <g id="xtick_5">
     <g id="line2d_5">
      <g>
       <use style="stroke:#000000;stroke-width:0.8;" x="192.156374" xlink:href="#ma4d7c7cb0d" y="226.602246"/>
      </g>
     </g>
     <g id="text_5">
      <!-- 2020-05 -->
      <g transform="translate(154.931553 261.074092)rotate(-30)scale(0.1 -0.1)">
       <defs>
        <path d="M 10.796875 72.90625 
L 49.515625 72.90625 
L 49.515625 64.59375 
L 19.828125 64.59375 
L 19.828125 46.734375 
Q 21.96875 47.46875 24.109375 47.828125 
Q 26.265625 48.1875 28.421875 48.1875 
Q 40.625 48.1875 47.75 41.5 
Q 54.890625 34.8125 54.890625 23.390625 
Q 54.890625 11.625 47.5625 5.09375 
Q 40.234375 -1.421875 26.90625 -1.421875 
Q 22.3125 -1.421875 17.546875 -0.640625 
Q 12.796875 0.140625 7.71875 1.703125 
L 7.71875 11.625 
Q 12.109375 9.234375 16.796875 8.0625 
Q 21.484375 6.890625 26.703125 6.890625 
Q 35.15625 6.890625 40.078125 11.328125 
Q 45.015625 15.765625 45.015625 23.390625 
Q 45.015625 31 40.078125 35.4375 
Q 35.15625 39.890625 26.703125 39.890625 
Q 22.75 39.890625 18.8125 39.015625 
Q 14.890625 38.140625 10.796875 36.28125 
z
" id="DejaVuSans-53"/>
       </defs>
       <use xlink:href="#DejaVuSans-50"/>
       <use x="63.623047" xlink:href="#DejaVuSans-48"/>
       <use x="127.246094" xlink:href="#DejaVuSans-50"/>
       <use x="190.869141" xlink:href="#DejaVuSans-48"/>
       <use x="254.492188" xlink:href="#DejaVuSans-45"/>
       <use x="290.576172" xlink:href="#DejaVuSans-48"/>
       <use x="354.199219" xlink:href="#DejaVuSans-53"/>
      </g>
     </g>
    </g>
    <g id="xtick_6">
     <g id="line2d_6">
      <g>
       <use style="stroke:#000000;stroke-width:0.8;" x="224.563276" xlink:href="#ma4d7c7cb0d" y="226.602246"/>
      </g>
     </g>
     <g id="text_6">
      <!-- 2020-06 -->
      <g transform="translate(187.338456 261.074092)rotate(-30)scale(0.1 -0.1)">
       <defs>
        <path d="M 33.015625 40.375 
Q 26.375 40.375 22.484375 35.828125 
Q 18.609375 31.296875 18.609375 23.390625 
Q 18.609375 15.53125 22.484375 10.953125 
Q 26.375 6.390625 33.015625 6.390625 
Q 39.65625 6.390625 43.53125 10.953125 
Q 47.40625 15.53125 47.40625 23.390625 
Q 47.40625 31.296875 43.53125 35.828125 
Q 39.65625 40.375 33.015625 40.375 
z
M 52.59375 71.296875 
L 52.59375 62.3125 
Q 48.875 64.0625 45.09375 64.984375 
Q 41.3125 65.921875 37.59375 65.921875 
Q 27.828125 65.921875 22.671875 59.328125 
Q 17.53125 52.734375 16.796875 39.40625 
Q 19.671875 43.65625 24.015625 45.921875 
Q 28.375 48.1875 33.59375 48.1875 
Q 44.578125 48.1875 50.953125 41.515625 
Q 57.328125 34.859375 57.328125 23.390625 
Q 57.328125 12.15625 50.6875 5.359375 
Q 44.046875 -1.421875 33.015625 -1.421875 
Q 20.359375 -1.421875 13.671875 8.265625 
Q 6.984375 17.96875 6.984375 36.375 
Q 6.984375 53.65625 15.1875 63.9375 
Q 23.390625 74.21875 37.203125 74.21875 
Q 40.921875 74.21875 44.703125 73.484375 
Q 48.484375 72.75 52.59375 71.296875 
z
" id="DejaVuSans-54"/>
       </defs>
       <use xlink:href="#DejaVuSans-50"/>
       <use x="63.623047" xlink:href="#DejaVuSans-48"/>
       <use x="127.246094" xlink:href="#DejaVuSans-50"/>
       <use x="190.869141" xlink:href="#DejaVuSans-48"/>
       <use x="254.492188" xlink:href="#DejaVuSans-45"/>
       <use x="290.576172" xlink:href="#DejaVuSans-48"/>
       <use x="354.199219" xlink:href="#DejaVuSans-54"/>
      </g>
     </g>
    </g>
    <g id="xtick_7">
     <g id="line2d_7">
      <g>
       <use style="stroke:#000000;stroke-width:0.8;" x="255.924795" xlink:href="#ma4d7c7cb0d" y="226.602246"/>
      </g>
     </g>
     <g id="text_7">
      <!-- 2020-07 -->
      <g transform="translate(218.699974 261.074092)rotate(-30)scale(0.1 -0.1)">
       <defs>
        <path d="M 8.203125 72.90625 
L 55.078125 72.90625 
L 55.078125 68.703125 
L 28.609375 0 
L 18.3125 0 
L 43.21875 64.59375 
L 8.203125 64.59375 
z
" id="DejaVuSans-55"/>
       </defs>
       <use xlink:href="#DejaVuSans-50"/>
       <use x="63.623047" xlink:href="#DejaVuSans-48"/>
       <use x="127.246094" xlink:href="#DejaVuSans-50"/>
       <use x="190.869141" xlink:href="#DejaVuSans-48"/>
       <use x="254.492188" xlink:href="#DejaVuSans-45"/>
       <use x="290.576172" xlink:href="#DejaVuSans-48"/>
       <use x="354.199219" xlink:href="#DejaVuSans-55"/>
      </g>
     </g>
    </g>
    <g id="xtick_8">
     <g id="line2d_8">
      <g>
       <use style="stroke:#000000;stroke-width:0.8;" x="288.331698" xlink:href="#ma4d7c7cb0d" y="226.602246"/>
      </g>
     </g>
     <g id="text_8">
      <!-- 2020-08 -->
      <g transform="translate(251.106877 261.074092)rotate(-30)scale(0.1 -0.1)">
       <defs>
        <path d="M 31.78125 34.625 
Q 24.75 34.625 20.71875 30.859375 
Q 16.703125 27.09375 16.703125 20.515625 
Q 16.703125 13.921875 20.71875 10.15625 
Q 24.75 6.390625 31.78125 6.390625 
Q 38.8125 6.390625 42.859375 10.171875 
Q 46.921875 13.96875 46.921875 20.515625 
Q 46.921875 27.09375 42.890625 30.859375 
Q 38.875 34.625 31.78125 34.625 
z
M 21.921875 38.8125 
Q 15.578125 40.375 12.03125 44.71875 
Q 8.5 49.078125 8.5 55.328125 
Q 8.5 64.0625 14.71875 69.140625 
Q 20.953125 74.21875 31.78125 74.21875 
Q 42.671875 74.21875 48.875 69.140625 
Q 55.078125 64.0625 55.078125 55.328125 
Q 55.078125 49.078125 51.53125 44.71875 
Q 48 40.375 41.703125 38.8125 
Q 48.828125 37.15625 52.796875 32.3125 
Q 56.78125 27.484375 56.78125 20.515625 
Q 56.78125 9.90625 50.3125 4.234375 
Q 43.84375 -1.421875 31.78125 -1.421875 
Q 19.734375 -1.421875 13.25 4.234375 
Q 6.78125 9.90625 6.78125 20.515625 
Q 6.78125 27.484375 10.78125 32.3125 
Q 14.796875 37.15625 21.921875 38.8125 
z
M 18.3125 54.390625 
Q 18.3125 48.734375 21.84375 45.5625 
Q 25.390625 42.390625 31.78125 42.390625 
Q 38.140625 42.390625 41.71875 45.5625 
Q 45.3125 48.734375 45.3125 54.390625 
Q 45.3125 60.0625 41.71875 63.234375 
Q 38.140625 66.40625 31.78125 66.40625 
Q 25.390625 66.40625 21.84375 63.234375 
Q 18.3125 60.0625 18.3125 54.390625 
z
" id="DejaVuSans-56"/>
       </defs>
       <use xlink:href="#DejaVuSans-50"/>
       <use x="63.623047" xlink:href="#DejaVuSans-48"/>
       <use x="127.246094" xlink:href="#DejaVuSans-50"/>
       <use x="190.869141" xlink:href="#DejaVuSans-48"/>
       <use x="254.492188" xlink:href="#DejaVuSans-45"/>
       <use x="290.576172" xlink:href="#DejaVuSans-48"/>
       <use x="354.199219" xlink:href="#DejaVuSans-56"/>
      </g>
     </g>
    </g>
    <g id="xtick_9">
     <g id="line2d_9">
      <g>
       <use style="stroke:#000000;stroke-width:0.8;" x="320.738601" xlink:href="#ma4d7c7cb0d" y="226.602246"/>
      </g>
     </g>
     <g id="text_9">
      <!-- 2020-09 -->
      <g transform="translate(283.51378 261.074092)rotate(-30)scale(0.1 -0.1)">
       <defs>
        <path d="M 10.984375 1.515625 
L 10.984375 10.5 
Q 14.703125 8.734375 18.5 7.8125 
Q 22.3125 6.890625 25.984375 6.890625 
Q 35.75 6.890625 40.890625 13.453125 
Q 46.046875 20.015625 46.78125 33.40625 
Q 43.953125 29.203125 39.59375 26.953125 
Q 35.25 24.703125 29.984375 24.703125 
Q 19.046875 24.703125 12.671875 31.3125 
Q 6.296875 37.9375 6.296875 49.421875 
Q 6.296875 60.640625 12.9375 67.421875 
Q 19.578125 74.21875 30.609375 74.21875 
Q 43.265625 74.21875 49.921875 64.515625 
Q 56.59375 54.828125 56.59375 36.375 
Q 56.59375 19.140625 48.40625 8.859375 
Q 40.234375 -1.421875 26.421875 -1.421875 
Q 22.703125 -1.421875 18.890625 -0.6875 
Q 15.09375 0.046875 10.984375 1.515625 
z
M 30.609375 32.421875 
Q 37.25 32.421875 41.125 36.953125 
Q 45.015625 41.5 45.015625 49.421875 
Q 45.015625 57.28125 41.125 61.84375 
Q 37.25 66.40625 30.609375 66.40625 
Q 23.96875 66.40625 20.09375 61.84375 
Q 16.21875 57.28125 16.21875 49.421875 
Q 16.21875 41.5 20.09375 36.953125 
Q 23.96875 32.421875 30.609375 32.421875 
z
" id="DejaVuSans-57"/>
       </defs>
       <use xlink:href="#DejaVuSans-50"/>
       <use x="63.623047" xlink:href="#DejaVuSans-48"/>
       <use x="127.246094" xlink:href="#DejaVuSans-50"/>
       <use x="190.869141" xlink:href="#DejaVuSans-48"/>
       <use x="254.492188" xlink:href="#DejaVuSans-45"/>
       <use x="290.576172" xlink:href="#DejaVuSans-48"/>
       <use x="354.199219" xlink:href="#DejaVuSans-57"/>
      </g>
     </g>
    </g>
    <g id="xtick_10">
     <g id="line2d_10">
      <g>
       <use style="stroke:#000000;stroke-width:0.8;" x="352.10012" xlink:href="#ma4d7c7cb0d" y="226.602246"/>
      </g>
     </g>
     <g id="text_10">
      <!-- 2020-10 -->
      <g transform="translate(314.875299 261.074092)rotate(-30)scale(0.1 -0.1)">
       <use xlink:href="#DejaVuSans-50"/>
       <use x="63.623047" xlink:href="#DejaVuSans-48"/>
       <use x="127.246094" xlink:href="#DejaVuSans-50"/>
       <use x="190.869141" xlink:href="#DejaVuSans-48"/>
       <use x="254.492188" xlink:href="#DejaVuSans-45"/>
       <use x="290.576172" xlink:href="#DejaVuSans-49"/>
       <use x="354.199219" xlink:href="#DejaVuSans-48"/>
      </g>
     </g>
    </g>
    <g id="xtick_11">
     <g id="line2d_11">
      <g>
       <use style="stroke:#000000;stroke-width:0.8;" x="384.507023" xlink:href="#ma4d7c7cb0d" y="226.602246"/>
      </g>
     </g>
     <g id="text_11">
      <!-- 2020-11 -->
      <g transform="translate(347.282202 261.074092)rotate(-30)scale(0.1 -0.1)">
       <use xlink:href="#DejaVuSans-50"/>
       <use x="63.623047" xlink:href="#DejaVuSans-48"/>
       <use x="127.246094" xlink:href="#DejaVuSans-50"/>
       <use x="190.869141" xlink:href="#DejaVuSans-48"/>
       <use x="254.492188" xlink:href="#DejaVuSans-45"/>
       <use x="290.576172" xlink:href="#DejaVuSans-49"/>
       <use x="354.199219" xlink:href="#DejaVuSans-49"/>
      </g>
     </g>
    </g>
    <g id="xtick_12">
     <g id="line2d_12">
      <g>
       <use style="stroke:#000000;stroke-width:0.8;" x="415.868542" xlink:href="#ma4d7c7cb0d" y="226.602246"/>
      </g>
     </g>
     <g id="text_12">
      <!-- 2020-12 -->
      <g transform="translate(378.643721 261.074092)rotate(-30)scale(0.1 -0.1)">
       <use xlink:href="#DejaVuSans-50"/>
       <use x="63.623047" xlink:href="#DejaVuSans-48"/>
       <use x="127.246094" xlink:href="#DejaVuSans-50"/>
       <use x="190.869141" xlink:href="#DejaVuSans-48"/>
       <use x="254.492188" xlink:href="#DejaVuSans-45"/>
       <use x="290.576172" xlink:href="#DejaVuSans-49"/>
       <use x="354.199219" xlink:href="#DejaVuSans-50"/>
      </g>
     </g>
    </g>
    <g id="text_13">
     <!-- Date -->
     <g transform="translate(224.111719 274.473592)scale(0.1 -0.1)">
      <defs>
       <path d="M 19.671875 64.796875 
L 19.671875 8.109375 
L 31.59375 8.109375 
Q 46.6875 8.109375 53.6875 14.9375 
Q 60.6875 21.78125 60.6875 36.53125 
Q 60.6875 51.171875 53.6875 57.984375 
Q 46.6875 64.796875 31.59375 64.796875 
z
M 9.8125 72.90625 
L 30.078125 72.90625 
Q 51.265625 72.90625 61.171875 64.09375 
Q 71.09375 55.28125 71.09375 36.53125 
Q 71.09375 17.671875 61.125 8.828125 
Q 51.171875 0 30.078125 0 
L 9.8125 0 
z
" id="DejaVuSans-68"/>
       <path d="M 34.28125 27.484375 
Q 23.390625 27.484375 19.1875 25 
Q 14.984375 22.515625 14.984375 16.5 
Q 14.984375 11.71875 18.140625 8.90625 
Q 21.296875 6.109375 26.703125 6.109375 
Q 34.1875 6.109375 38.703125 11.40625 
Q 43.21875 16.703125 43.21875 25.484375 
L 43.21875 27.484375 
z
M 52.203125 31.203125 
L 52.203125 0 
L 43.21875 0 
L 43.21875 8.296875 
Q 40.140625 3.328125 35.546875 0.953125 
Q 30.953125 -1.421875 24.3125 -1.421875 
Q 15.921875 -1.421875 10.953125 3.296875 
Q 6 8.015625 6 15.921875 
Q 6 25.140625 12.171875 29.828125 
Q 18.359375 34.515625 30.609375 34.515625 
L 43.21875 34.515625 
L 43.21875 35.40625 
Q 43.21875 41.609375 39.140625 45 
Q 35.0625 48.390625 27.6875 48.390625 
Q 23 48.390625 18.546875 47.265625 
Q 14.109375 46.140625 10.015625 43.890625 
L 10.015625 52.203125 
Q 14.9375 54.109375 19.578125 55.046875 
Q 24.21875 56 28.609375 56 
Q 40.484375 56 46.34375 49.84375 
Q 52.203125 43.703125 52.203125 31.203125 
z
" id="DejaVuSans-97"/>
       <path d="M 18.3125 70.21875 
L 18.3125 54.6875 
L 36.8125 54.6875 
L 36.8125 47.703125 
L 18.3125 47.703125 
L 18.3125 18.015625 
Q 18.3125 11.328125 20.140625 9.421875 
Q 21.96875 7.515625 27.59375 7.515625 
L 36.8125 7.515625 
L 36.8125 0 
L 27.59375 0 
Q 17.1875 0 13.234375 3.875 
Q 9.28125 7.765625 9.28125 18.015625 
L 9.28125 47.703125 
L 2.6875 47.703125 
L 2.6875 54.6875 
L 9.28125 54.6875 
L 9.28125 70.21875 
z
" id="DejaVuSans-116"/>
       <path d="M 56.203125 29.59375 
L 56.203125 25.203125 
L 14.890625 25.203125 
Q 15.484375 15.921875 20.484375 11.0625 
Q 25.484375 6.203125 34.421875 6.203125 
Q 39.59375 6.203125 44.453125 7.46875 
Q 49.3125 8.734375 54.109375 11.28125 
L 54.109375 2.78125 
Q 49.265625 0.734375 44.1875 -0.34375 
Q 39.109375 -1.421875 33.890625 -1.421875 
Q 20.796875 -1.421875 13.15625 6.1875 
Q 5.515625 13.8125 5.515625 26.8125 
Q 5.515625 40.234375 12.765625 48.109375 
Q 20.015625 56 32.328125 56 
Q 43.359375 56 49.78125 48.890625 
Q 56.203125 41.796875 56.203125 29.59375 
z
M 47.21875 32.234375 
Q 47.125 39.59375 43.09375 43.984375 
Q 39.0625 48.390625 32.421875 48.390625 
Q 24.90625 48.390625 20.390625 44.140625 
Q 15.875 39.890625 15.1875 32.171875 
z
" id="DejaVuSans-101"/>
      </defs>
      <use xlink:href="#DejaVuSans-68"/>
      <use x="77.001953" xlink:href="#DejaVuSans-97"/>
      <use x="138.28125" xlink:href="#DejaVuSans-116"/>
      <use x="177.490234" xlink:href="#DejaVuSans-101"/>
     </g>
    </g>
   </g>
   <g id="matplotlib.axis_2">
    <g id="ytick_1">
     <g id="line2d_13">
      <defs>
       <path d="M 0 0 
L -3.5 0 
" id="m830d8f7ed3" style="stroke:#000000;stroke-width:0.8;"/>
      </defs>
      <g>
       <use style="stroke:#000000;stroke-width:0.8;" x="50.925" xlink:href="#m830d8f7ed3" y="217.520326"/>
      </g>
     </g>
     <g id="text_14">
      <!-- 0 -->
      <g transform="translate(37.5625 221.319544)scale(0.1 -0.1)">
       <use xlink:href="#DejaVuSans-48"/>
      </g>
     </g>
    </g>
    <g id="ytick_2">
     <g id="line2d_14">
      <g>
       <use style="stroke:#000000;stroke-width:0.8;" x="50.925" xlink:href="#m830d8f7ed3" y="183.873895"/>
      </g>
     </g>
     <g id="text_15">
      <!-- 100 -->
      <g transform="translate(24.8375 187.673114)scale(0.1 -0.1)">
       <use xlink:href="#DejaVuSans-49"/>
       <use x="63.623047" xlink:href="#DejaVuSans-48"/>
       <use x="127.246094" xlink:href="#DejaVuSans-48"/>
      </g>
     </g>
    </g>
    <g id="ytick_3">
     <g id="line2d_15">
      <g>
       <use style="stroke:#000000;stroke-width:0.8;" x="50.925" xlink:href="#m830d8f7ed3" y="150.227464"/>
      </g>
     </g>
     <g id="text_16">
      <!-- 200 -->
      <g transform="translate(24.8375 154.026683)scale(0.1 -0.1)">
       <use xlink:href="#DejaVuSans-50"/>
       <use x="63.623047" xlink:href="#DejaVuSans-48"/>
       <use x="127.246094" xlink:href="#DejaVuSans-48"/>
      </g>
     </g>
    </g>
    <g id="ytick_4">
     <g id="line2d_16">
      <g>
       <use style="stroke:#000000;stroke-width:0.8;" x="50.925" xlink:href="#m830d8f7ed3" y="116.581034"/>
      </g>
     </g>
     <g id="text_17">
      <!-- 300 -->
      <g transform="translate(24.8375 120.380252)scale(0.1 -0.1)">
       <use xlink:href="#DejaVuSans-51"/>
       <use x="63.623047" xlink:href="#DejaVuSans-48"/>
       <use x="127.246094" xlink:href="#DejaVuSans-48"/>
      </g>
     </g>
    </g>
    <g id="ytick_5">
     <g id="line2d_17">
      <g>
       <use style="stroke:#000000;stroke-width:0.8;" x="50.925" xlink:href="#m830d8f7ed3" y="82.934603"/>
      </g>
     </g>
     <g id="text_18">
      <!-- 400 -->
      <g transform="translate(24.8375 86.733822)scale(0.1 -0.1)">
       <use xlink:href="#DejaVuSans-52"/>
       <use x="63.623047" xlink:href="#DejaVuSans-48"/>
       <use x="127.246094" xlink:href="#DejaVuSans-48"/>
      </g>
     </g>
    </g>
    <g id="ytick_6">
     <g id="line2d_18">
      <g>
       <use style="stroke:#000000;stroke-width:0.8;" x="50.925" xlink:href="#m830d8f7ed3" y="49.288172"/>
      </g>
     </g>
     <g id="text_19">
      <!-- 500 -->
      <g transform="translate(24.8375 53.087391)scale(0.1 -0.1)">
       <use xlink:href="#DejaVuSans-53"/>
       <use x="63.623047" xlink:href="#DejaVuSans-48"/>
       <use x="127.246094" xlink:href="#DejaVuSans-48"/>
      </g>
     </g>
    </g>
    <g id="text_20">
     <!-- New cases per million population -->
     <g transform="translate(18.757813 209.63081)rotate(-90)scale(0.1 -0.1)">
      <defs>
       <path d="M 9.8125 72.90625 
L 23.09375 72.90625 
L 55.421875 11.921875 
L 55.421875 72.90625 
L 64.984375 72.90625 
L 64.984375 0 
L 51.703125 0 
L 19.390625 60.984375 
L 19.390625 0 
L 9.8125 0 
z
" id="DejaVuSans-78"/>
       <path d="M 4.203125 54.6875 
L 13.1875 54.6875 
L 24.421875 12.015625 
L 35.59375 54.6875 
L 46.1875 54.6875 
L 57.421875 12.015625 
L 68.609375 54.6875 
L 77.59375 54.6875 
L 63.28125 0 
L 52.6875 0 
L 40.921875 44.828125 
L 29.109375 0 
L 18.5 0 
z
" id="DejaVuSans-119"/>
       <path id="DejaVuSans-32"/>
       <path d="M 48.78125 52.59375 
L 48.78125 44.1875 
Q 44.96875 46.296875 41.140625 47.34375 
Q 37.3125 48.390625 33.40625 48.390625 
Q 24.65625 48.390625 19.8125 42.84375 
Q 14.984375 37.3125 14.984375 27.296875 
Q 14.984375 17.28125 19.8125 11.734375 
Q 24.65625 6.203125 33.40625 6.203125 
Q 37.3125 6.203125 41.140625 7.25 
Q 44.96875 8.296875 48.78125 10.40625 
L 48.78125 2.09375 
Q 45.015625 0.34375 40.984375 -0.53125 
Q 36.96875 -1.421875 32.421875 -1.421875 
Q 20.0625 -1.421875 12.78125 6.34375 
Q 5.515625 14.109375 5.515625 27.296875 
Q 5.515625 40.671875 12.859375 48.328125 
Q 20.21875 56 33.015625 56 
Q 37.15625 56 41.109375 55.140625 
Q 45.0625 54.296875 48.78125 52.59375 
z
" id="DejaVuSans-99"/>
       <path d="M 44.28125 53.078125 
L 44.28125 44.578125 
Q 40.484375 46.53125 36.375 47.5 
Q 32.28125 48.484375 27.875 48.484375 
Q 21.1875 48.484375 17.84375 46.4375 
Q 14.5 44.390625 14.5 40.28125 
Q 14.5 37.15625 16.890625 35.375 
Q 19.28125 33.59375 26.515625 31.984375 
L 29.59375 31.296875 
Q 39.15625 29.25 43.1875 25.515625 
Q 47.21875 21.78125 47.21875 15.09375 
Q 47.21875 7.46875 41.1875 3.015625 
Q 35.15625 -1.421875 24.609375 -1.421875 
Q 20.21875 -1.421875 15.453125 -0.5625 
Q 10.6875 0.296875 5.421875 2 
L 5.421875 11.28125 
Q 10.40625 8.6875 15.234375 7.390625 
Q 20.0625 6.109375 24.8125 6.109375 
Q 31.15625 6.109375 34.5625 8.28125 
Q 37.984375 10.453125 37.984375 14.40625 
Q 37.984375 18.0625 35.515625 20.015625 
Q 33.0625 21.96875 24.703125 23.78125 
L 21.578125 24.515625 
Q 13.234375 26.265625 9.515625 29.90625 
Q 5.8125 33.546875 5.8125 39.890625 
Q 5.8125 47.609375 11.28125 51.796875 
Q 16.75 56 26.8125 56 
Q 31.78125 56 36.171875 55.265625 
Q 40.578125 54.546875 44.28125 53.078125 
z
" id="DejaVuSans-115"/>
       <path d="M 18.109375 8.203125 
L 18.109375 -20.796875 
L 9.078125 -20.796875 
L 9.078125 54.6875 
L 18.109375 54.6875 
L 18.109375 46.390625 
Q 20.953125 51.265625 25.265625 53.625 
Q 29.59375 56 35.59375 56 
Q 45.5625 56 51.78125 48.09375 
Q 58.015625 40.1875 58.015625 27.296875 
Q 58.015625 14.40625 51.78125 6.484375 
Q 45.5625 -1.421875 35.59375 -1.421875 
Q 29.59375 -1.421875 25.265625 0.953125 
Q 20.953125 3.328125 18.109375 8.203125 
z
M 48.6875 27.296875 
Q 48.6875 37.203125 44.609375 42.84375 
Q 40.53125 48.484375 33.40625 48.484375 
Q 26.265625 48.484375 22.1875 42.84375 
Q 18.109375 37.203125 18.109375 27.296875 
Q 18.109375 17.390625 22.1875 11.75 
Q 26.265625 6.109375 33.40625 6.109375 
Q 40.53125 6.109375 44.609375 11.75 
Q 48.6875 17.390625 48.6875 27.296875 
z
" id="DejaVuSans-112"/>
       <path d="M 41.109375 46.296875 
Q 39.59375 47.171875 37.8125 47.578125 
Q 36.03125 48 33.890625 48 
Q 26.265625 48 22.1875 43.046875 
Q 18.109375 38.09375 18.109375 28.8125 
L 18.109375 0 
L 9.078125 0 
L 9.078125 54.6875 
L 18.109375 54.6875 
L 18.109375 46.1875 
Q 20.953125 51.171875 25.484375 53.578125 
Q 30.03125 56 36.53125 56 
Q 37.453125 56 38.578125 55.875 
Q 39.703125 55.765625 41.0625 55.515625 
z
" id="DejaVuSans-114"/>
       <path d="M 52 44.1875 
Q 55.375 50.25 60.0625 53.125 
Q 64.75 56 71.09375 56 
Q 79.640625 56 84.28125 50.015625 
Q 88.921875 44.046875 88.921875 33.015625 
L 88.921875 0 
L 79.890625 0 
L 79.890625 32.71875 
Q 79.890625 40.578125 77.09375 44.375 
Q 74.3125 48.1875 68.609375 48.1875 
Q 61.625 48.1875 57.5625 43.546875 
Q 53.515625 38.921875 53.515625 30.90625 
L 53.515625 0 
L 44.484375 0 
L 44.484375 32.71875 
Q 44.484375 40.625 41.703125 44.40625 
Q 38.921875 48.1875 33.109375 48.1875 
Q 26.21875 48.1875 22.15625 43.53125 
Q 18.109375 38.875 18.109375 30.90625 
L 18.109375 0 
L 9.078125 0 
L 9.078125 54.6875 
L 18.109375 54.6875 
L 18.109375 46.1875 
Q 21.1875 51.21875 25.484375 53.609375 
Q 29.78125 56 35.6875 56 
Q 41.65625 56 45.828125 52.96875 
Q 50 49.953125 52 44.1875 
z
" id="DejaVuSans-109"/>
       <path d="M 9.421875 54.6875 
L 18.40625 54.6875 
L 18.40625 0 
L 9.421875 0 
z
M 9.421875 75.984375 
L 18.40625 75.984375 
L 18.40625 64.59375 
L 9.421875 64.59375 
z
" id="DejaVuSans-105"/>
       <path d="M 9.421875 75.984375 
L 18.40625 75.984375 
L 18.40625 0 
L 9.421875 0 
z
" id="DejaVuSans-108"/>
       <path d="M 30.609375 48.390625 
Q 23.390625 48.390625 19.1875 42.75 
Q 14.984375 37.109375 14.984375 27.296875 
Q 14.984375 17.484375 19.15625 11.84375 
Q 23.34375 6.203125 30.609375 6.203125 
Q 37.796875 6.203125 41.984375 11.859375 
Q 46.1875 17.53125 46.1875 27.296875 
Q 46.1875 37.015625 41.984375 42.703125 
Q 37.796875 48.390625 30.609375 48.390625 
z
M 30.609375 56 
Q 42.328125 56 49.015625 48.375 
Q 55.71875 40.765625 55.71875 27.296875 
Q 55.71875 13.875 49.015625 6.21875 
Q 42.328125 -1.421875 30.609375 -1.421875 
Q 18.84375 -1.421875 12.171875 6.21875 
Q 5.515625 13.875 5.515625 27.296875 
Q 5.515625 40.765625 12.171875 48.375 
Q 18.84375 56 30.609375 56 
z
" id="DejaVuSans-111"/>
       <path d="M 54.890625 33.015625 
L 54.890625 0 
L 45.90625 0 
L 45.90625 32.71875 
Q 45.90625 40.484375 42.875 44.328125 
Q 39.84375 48.1875 33.796875 48.1875 
Q 26.515625 48.1875 22.3125 43.546875 
Q 18.109375 38.921875 18.109375 30.90625 
L 18.109375 0 
L 9.078125 0 
L 9.078125 54.6875 
L 18.109375 54.6875 
L 18.109375 46.1875 
Q 21.34375 51.125 25.703125 53.5625 
Q 30.078125 56 35.796875 56 
Q 45.21875 56 50.046875 50.171875 
Q 54.890625 44.34375 54.890625 33.015625 
z
" id="DejaVuSans-110"/>
       <path d="M 8.5 21.578125 
L 8.5 54.6875 
L 17.484375 54.6875 
L 17.484375 21.921875 
Q 17.484375 14.15625 20.5 10.265625 
Q 23.53125 6.390625 29.59375 6.390625 
Q 36.859375 6.390625 41.078125 11.03125 
Q 45.3125 15.671875 45.3125 23.6875 
L 45.3125 54.6875 
L 54.296875 54.6875 
L 54.296875 0 
L 45.3125 0 
L 45.3125 8.40625 
Q 42.046875 3.421875 37.71875 1 
Q 33.40625 -1.421875 27.6875 -1.421875 
Q 18.265625 -1.421875 13.375 4.4375 
Q 8.5 10.296875 8.5 21.578125 
z
M 31.109375 56 
z
" id="DejaVuSans-117"/>
      </defs>
      <use xlink:href="#DejaVuSans-78"/>
      <use x="74.804688" xlink:href="#DejaVuSans-101"/>
      <use x="136.328125" xlink:href="#DejaVuSans-119"/>
      <use x="218.115234" xlink:href="#DejaVuSans-32"/>
      <use x="249.902344" xlink:href="#DejaVuSans-99"/>
      <use x="304.882812" xlink:href="#DejaVuSans-97"/>
      <use x="366.162109" xlink:href="#DejaVuSans-115"/>
      <use x="418.261719" xlink:href="#DejaVuSans-101"/>
      <use x="479.785156" xlink:href="#DejaVuSans-115"/>
      <use x="531.884766" xlink:href="#DejaVuSans-32"/>
      <use x="563.671875" xlink:href="#DejaVuSans-112"/>
      <use x="627.148438" xlink:href="#DejaVuSans-101"/>
      <use x="688.671875" xlink:href="#DejaVuSans-114"/>
      <use x="729.785156" xlink:href="#DejaVuSans-32"/>
      <use x="761.572266" xlink:href="#DejaVuSans-109"/>
      <use x="858.984375" xlink:href="#DejaVuSans-105"/>
      <use x="886.767578" xlink:href="#DejaVuSans-108"/>
      <use x="914.550781" xlink:href="#DejaVuSans-108"/>
      <use x="942.333984" xlink:href="#DejaVuSans-105"/>
      <use x="970.117188" xlink:href="#DejaVuSans-111"/>
      <use x="1031.298828" xlink:href="#DejaVuSans-110"/>
      <use x="1094.677734" xlink:href="#DejaVuSans-32"/>
      <use x="1126.464844" xlink:href="#DejaVuSans-112"/>
      <use x="1189.941406" xlink:href="#DejaVuSans-111"/>
      <use x="1251.123047" xlink:href="#DejaVuSans-112"/>
      <use x="1314.599609" xlink:href="#DejaVuSans-117"/>
      <use x="1377.978516" xlink:href="#DejaVuSans-108"/>
      <use x="1405.761719" xlink:href="#DejaVuSans-97"/>
      <use x="1467.041016" xlink:href="#DejaVuSans-116"/>
      <use x="1506.25" xlink:href="#DejaVuSans-105"/>
      <use x="1534.033203" xlink:href="#DejaVuSans-111"/>
      <use x="1595.214844" xlink:href="#DejaVuSans-110"/>
     </g>
    </g>
   </g>
   <g id="line2d_19">
    <path clip-path="url(#p36ce953016)" d="M 67.755682 217.520326 
L 134.660256 217.418795 
L 136.751023 217.215734 
L 139.887175 217.139586 
L 140.932559 216.936524 
L 144.068711 216.606549 
L 145.114095 216.352723 
L 148.250247 216.073513 
L 149.295631 215.642008 
L 151.386399 215.083589 
L 152.431783 214.728232 
L 153.477167 213.941369 
L 155.567935 212.723001 
L 156.613319 212.037668 
L 157.658703 210.362412 
L 158.704087 207.747997 
L 159.749471 207.011899 
L 160.794855 205.336643 
L 161.840239 203.991361 
L 162.885623 201.554625 
L 163.931006 200.412404 
L 164.97639 200.285491 
L 166.021774 201.656155 
L 167.067158 200.539318 
L 168.112542 201.021588 
L 169.157926 199.676307 
L 170.20331 200.133195 
L 171.248694 199.270184 
L 172.294078 199.320949 
L 173.339462 199.143271 
L 174.384846 199.447863 
L 175.43023 198.508704 
L 176.475614 199.143271 
L 178.566382 198.00105 
L 179.611766 196.224263 
L 180.65715 196.046585 
L 181.702534 197.442632 
L 182.747918 197.569545 
L 183.793302 196.833447 
L 184.838686 197.62031 
L 185.88407 198.737148 
L 186.929454 200.691614 
L 187.974838 201.123119 
L 189.020222 201.021588 
L 190.065606 202.569932 
L 191.11099 204.321336 
L 192.156374 204.803607 
L 193.201757 205.768148 
L 194.247141 205.869679 
L 195.292525 205.793531 
L 196.337909 205.514322 
L 197.383293 205.565087 
L 198.428677 206.148888 
L 199.474061 207.392639 
L 200.519445 207.646466 
L 202.610213 209.575549 
L 203.655597 209.600932 
L 204.700981 209.423253 
L 207.837133 210.43856 
L 209.927901 211.123892 
L 210.973285 211.733076 
L 212.018669 212.799149 
L 213.064053 212.697618 
L 216.200205 212.824531 
L 217.245589 212.24073 
L 219.336357 211.834607 
L 220.381741 212.494557 
L 221.427125 212.646853 
L 222.472508 213.357567 
L 223.517892 213.814455 
L 225.60866 215.108972 
L 226.654044 215.56586 
L 227.699428 215.134354 
L 228.744812 215.489712 
L 230.83558 215.489712 
L 231.880964 215.642008 
L 232.926348 215.667391 
L 233.971732 215.540477 
L 235.017116 216.276575 
L 236.0625 215.9466 
L 237.107884 216.225809 
L 239.198652 216.251192 
L 241.28942 216.403488 
L 242.334804 216.479636 
L 243.380188 216.809611 
L 249.652492 217.241116 
L 255.924795 217.063438 
L 256.970179 216.911142 
L 260.106331 216.98729 
L 261.151715 217.139586 
L 263.242483 217.012672 
L 265.333251 217.114203 
L 270.560171 217.063438 
L 272.650939 216.352723 
L 277.877859 216.352723 
L 279.968626 216.657315 
L 283.104778 216.657315 
L 284.150162 216.479636 
L 286.24093 216.479636 
L 287.286314 216.606549 
L 292.513234 216.606549 
L 293.558618 215.718156 
L 294.604002 215.591243 
L 297.740154 215.591243 
L 298.785538 214.575936 
L 299.830922 214.093665 
L 300.876306 214.982058 
L 302.967074 211.834607 
L 304.012458 211.149275 
L 305.057842 210.159351 
L 306.103226 210.337029 
L 307.14861 210.210116 
L 308.193994 209.118661 
L 309.239377 210.489325 
L 310.284761 210.337029 
L 311.330145 208.001823 
L 312.375529 208.737921 
L 313.420913 208.585625 
L 314.466297 207.621083 
L 315.511681 207.164195 
L 316.557065 205.514322 
L 317.602449 205.057433 
L 318.647833 206.834221 
L 319.693217 205.615852 
L 322.829369 205.387408 
L 323.874753 205.996592 
L 324.920137 205.260495 
L 325.965521 203.813682 
L 327.010905 201.706921 
L 328.056289 201.935365 
L 329.101673 202.493783 
L 330.147057 202.468401 
L 331.192441 201.783069 
L 332.237825 202.138426 
L 333.283209 202.620697 
L 334.328593 203.432942 
L 335.373977 202.443018 
L 337.464744 198.610235 
L 338.510128 196.706534 
L 339.555512 193.711379 
L 340.600896 191.452321 
L 341.64628 191.046198 
L 342.691664 191.147729 
L 343.737048 188.837906 
L 344.782432 187.822599 
L 345.827816 185.030505 
L 346.8732 182.568385 
L 347.918584 182.289176 
L 348.963968 179.877822 
L 350.009352 173.659067 
L 351.054736 168.481002 
L 352.10012 166.704215 
L 353.145504 149.926268 
L 354.190888 139.595521 
L 355.236272 132.615286 
L 356.281656 122.563747 
L 357.32704 113.705195 
L 358.372424 103.450595 
L 359.417808 86.5965 
L 360.463192 82.89063 
L 361.508576 78.42328 
L 362.55396 63.092145 
L 363.599344 56.467268 
L 364.644728 51.543029 
L 365.690112 41.66917 
L 366.735495 45.730397 
L 367.780879 40.171592 
L 368.826263 36.897227 
L 370.917031 39.714704 
L 371.962415 38.44557 
L 373.007799 42.963686 
L 374.053183 35.88192 
L 375.098567 37.074906 
L 378.234719 45.121213 
L 380.325487 55.020455 
L 381.370871 60.604643 
L 382.416255 78.017157 
L 383.461639 84.972009 
L 384.507023 90.327753 
L 385.552407 96.267298 
L 387.643175 104.212075 
L 388.688559 111.979173 
L 389.733943 111.243075 
L 390.779327 114.314379 
L 391.824711 121.040787 
L 392.870095 121.599206 
L 393.915479 123.020635 
L 394.960863 120.177776 
L 396.006246 119.365531 
L 397.05163 119.060939 
L 398.097014 119.492444 
L 399.142398 118.172545 
L 400.187782 121.726119 
L 401.233166 120.837726 
L 402.27855 127.767195 
L 403.323934 129.315538 
L 404.369318 135.356614 
L 404.369318 135.356614 
" style="fill:none;stroke:#1f77b4;stroke-linecap:square;stroke-width:1.5;"/>
   </g>
   <g id="line2d_20">
    <path clip-path="url(#p36ce953016)" d="M 67.755682 217.520326 
L 133.614872 217.423547 
L 138.841791 217.22999 
L 141.977943 216.596532 
L 143.023327 216.33259 
L 145.114095 216.042255 
L 149.295631 215.30322 
L 150.341015 215.206441 
L 152.431783 214.097888 
L 153.477167 213.19169 
L 154.522551 211.995157 
L 155.567935 211.036171 
L 156.613319 209.848435 
L 158.704087 208.159212 
L 159.749471 205.123888 
L 160.794855 203.522645 
L 161.840239 202.493274 
L 162.885623 200.434533 
L 163.931006 199.044443 
L 164.97639 197.091278 
L 166.021774 196.422627 
L 167.067158 197.847909 
L 168.112542 197.680746 
L 169.157926 196.800943 
L 170.20331 197.513584 
L 172.294078 198.11185 
L 173.339462 198.991654 
L 174.384846 198.789299 
L 175.43023 198.314205 
L 176.475614 198.648531 
L 177.520998 198.745309 
L 178.566382 197.900697 
L 179.611766 197.504786 
L 180.65715 196.554597 
L 181.702534 197.161662 
L 182.747918 197.372815 
L 183.793302 197.223248 
L 184.838686 197.390411 
L 185.88407 197.891899 
L 186.929454 198.718915 
L 187.974838 199.299586 
L 189.020222 199.493143 
L 191.11099 200.416937 
L 192.156374 200.302562 
L 193.201757 201.015203 
L 194.247141 201.921402 
L 196.337909 202.42289 
L 197.383293 202.783609 
L 198.428677 203.698606 
L 199.474061 204.367257 
L 200.519445 205.396627 
L 201.564829 205.299849 
L 203.655597 205.854125 
L 204.700981 206.786717 
L 205.746365 207.024264 
L 206.791749 207.745704 
L 207.837133 207.472965 
L 209.927901 209.012621 
L 213.064053 211.018574 
L 214.109437 211.282516 
L 215.154821 212.29429 
L 216.200205 212.558231 
L 217.245589 212.575827 
L 219.336357 213.218084 
L 220.381741 213.719573 
L 221.427125 214.370628 
L 222.472508 214.520194 
L 224.563276 215.215239 
L 225.60866 215.004086 
L 226.654044 215.197643 
L 228.744812 215.276826 
L 229.790196 215.575959 
L 231.880964 215.575959 
L 232.926348 215.919082 
L 236.0625 216.402975 
L 238.153268 216.341388 
L 241.28942 216.15663 
L 243.380188 216.209418 
L 245.470956 216.15663 
L 247.561724 216.314994 
L 253.834027 216.895665 
L 266.378635 217.05403 
L 268.469403 216.948453 
L 273.696323 216.798886 
L 276.832475 216.587733 
L 281.01401 216.420571 
L 282.059394 216.587733 
L 283.104778 216.622926 
L 284.150162 216.78129 
L 286.24093 216.666916 
L 287.286314 216.578935 
L 288.331698 216.658118 
L 290.422466 216.2886 
L 291.46785 216.121437 
L 293.558618 215.320816 
L 294.604002 215.206441 
L 295.649386 214.836924 
L 298.785538 214.335435 
L 300.876306 214.652165 
L 301.92169 214.458608 
L 305.057842 214.608175 
L 307.14861 214.608175 
L 308.193994 214.344233 
L 309.239377 214.291445 
L 310.284761 213.657986 
L 312.375529 212.954143 
L 313.420913 212.998133 
L 314.466297 212.848567 
L 316.557065 213.10371 
L 317.602449 213.411641 
L 318.647833 213.05972 
L 321.783985 210.481894 
L 322.829369 210.191559 
L 323.874753 209.24137 
L 324.920137 208.775074 
L 325.965521 208.027241 
L 327.010905 208.150414 
L 328.056289 207.956857 
L 329.101673 207.930463 
L 330.147057 207.40258 
L 331.192441 207.261812 
L 332.237825 206.557968 
L 333.283209 206.241239 
L 334.328593 206.90989 
L 335.373977 206.109268 
L 336.419361 205.15908 
L 337.464744 204.024133 
L 338.510128 203.777788 
L 339.555512 202.642841 
L 340.600896 202.634043 
L 341.64628 201.006405 
L 342.691664 199.985833 
L 343.737048 198.059062 
L 344.782432 196.519405 
L 346.8732 190.193615 
L 347.918584 189.322609 
L 348.963968 189.612944 
L 350.009352 185.891373 
L 351.054736 184.536475 
L 353.145504 180.841299 
L 354.190888 180.401397 
L 355.236272 176.759008 
L 356.281656 172.57994 
L 357.32704 172.632728 
L 358.372424 168.990339 
L 359.417808 165.831843 
L 360.463192 161.687967 
L 361.508576 159.532447 
L 362.55396 157.790435 
L 363.599344 155.467753 
L 364.644728 151.095127 
L 365.690112 147.795862 
L 366.735495 144.945297 
L 367.780879 145.385199 
L 368.826263 143.995109 
L 369.871647 149.625854 
L 370.917031 149.344317 
L 371.962415 147.945429 
L 373.007799 145.218037 
L 374.053183 142.041944 
L 375.098567 140.238346 
L 376.143951 137.898068 
L 377.189335 129.214403 
L 378.234719 128.079455 
L 379.280103 129.214403 
L 381.370871 139.077005 
L 382.416255 140.13277 
L 383.461639 143.053719 
L 385.552407 145.92188 
L 386.597791 148.807637 
L 387.643175 146.77529 
L 388.688559 146.001062 
L 389.733943 147.839852 
L 390.779327 143.484823 
L 392.870095 144.118282 
L 394.960863 147.100817 
L 396.006246 147.136009 
L 397.05163 144.628568 
L 398.097014 148.834031 
L 399.142398 148.446917 
L 400.187782 150.162535 
L 401.233166 146.50255 
L 402.27855 146.476156 
L 403.323934 147.558315 
L 404.369318 150.54085 
L 404.369318 150.54085 
" style="fill:none;stroke:#ff7f0e;stroke-linecap:square;stroke-width:1.5;"/>
   </g>
   <g id="line2d_21">
    <path clip-path="url(#p36ce953016)" d="M 67.755682 217.520326 
L 133.614872 217.412728 
L 140.932559 217.089934 
L 145.114095 216.467404 
L 147.204863 215.581856 
L 148.250247 215.181353 
L 149.295631 214.607497 
L 150.341015 214.366683 
L 151.386399 213.772333 
L 152.431783 213.006339 
L 153.477167 212.575093 
L 154.522551 211.520463 
L 155.567935 209.916742 
L 156.613319 208.83564 
L 157.658703 207.533364 
L 159.749471 205.424104 
L 160.794855 203.289225 
L 161.840239 201.774316 
L 162.885623 200.860588 
L 163.931006 200.202191 
L 164.97639 197.600201 
L 166.021774 196.687327 
L 167.067158 196.205699 
L 168.112542 195.216823 
L 169.157926 195.033223 
L 170.20331 194.446559 
L 171.248694 193.65153 
L 172.294078 194.87695 
L 173.339462 195.0281 
L 174.384846 194.280038 
L 175.43023 195.64636 
L 176.475614 196.227047 
L 178.566382 196.714654 
L 179.611766 196.77016 
L 180.65715 197.280823 
L 181.702534 197.935804 
L 182.747918 198.079268 
L 183.793302 198.108302 
L 184.838686 198.946029 
L 185.88407 199.562582 
L 186.929454 200.805081 
L 187.974838 200.922072 
L 189.020222 201.859711 
L 190.065606 203.24055 
L 193.201757 204.693122 
L 194.247141 204.806697 
L 195.292525 205.471925 
L 196.337909 205.597456 
L 197.383293 205.419834 
L 198.428677 205.719571 
L 200.519445 207.159333 
L 201.564829 208.023532 
L 202.610213 208.530779 
L 203.655597 209.192592 
L 204.700981 209.589679 
L 205.746365 210.395809 
L 206.791749 210.892809 
L 209.927901 211.325762 
L 212.018669 211.780064 
L 213.064053 212.066138 
L 215.154821 212.224973 
L 217.245589 212.674151 
L 218.290973 212.985844 
L 220.381741 213.455517 
L 221.427125 213.902134 
L 224.563276 214.52381 
L 226.654044 214.690331 
L 228.744812 214.858559 
L 229.790196 215.108767 
L 231.880964 215.359829 
L 232.926348 215.183061 
L 233.971732 215.523787 
L 236.0625 215.682622 
L 238.153268 215.670667 
L 239.198652 215.562215 
L 240.244036 215.902942 
L 241.28942 215.741545 
L 245.470956 215.926852 
L 249.652492 216.138632 
L 252.788643 216.440077 
L 254.879411 216.519495 
L 255.924795 216.459718 
L 258.015563 215.956741 
L 260.106331 215.327378 
L 261.151715 215.129262 
L 263.242483 214.441831 
L 268.469403 213.939707 
L 270.560171 214.195893 
L 271.605555 214.212972 
L 272.650939 214.080609 
L 275.787091 214.008024 
L 283.104778 213.801367 
L 287.286314 213.318885 
L 289.377082 213.347065 
L 290.422466 213.142117 
L 294.604002 212.996945 
L 295.649386 213.033665 
L 296.69477 212.767232 
L 297.740154 212.901303 
L 298.785538 212.544351 
L 300.876306 212.242052 
L 301.92169 211.825324 
L 302.967074 211.607566 
L 306.103226 211.745052 
L 307.14861 211.931214 
L 308.193994 211.951709 
L 309.239377 212.272794 
L 310.284761 212.165196 
L 311.330145 212.177152 
L 314.466297 211.850942 
L 316.557065 211.412865 
L 317.602449 211.557183 
L 318.647833 211.088364 
L 319.693217 210.754469 
L 320.738601 210.774964 
L 321.783985 210.464125 
L 322.829369 210.330055 
L 324.920137 209.348865 
L 325.965521 208.418912 
L 327.010905 207.241313 
L 330.147057 204.533433 
L 332.237825 201.967309 
L 333.283209 201.744427 
L 334.328593 201.97414 
L 335.373977 201.500197 
L 336.419361 200.552311 
L 337.464744 200.372981 
L 339.555512 199.298711 
L 340.600896 198.921264 
L 342.691664 196.331229 
L 343.737048 194.890613 
L 344.782432 192.461976 
L 345.827816 190.795062 
L 346.8732 189.940257 
L 347.918584 188.641397 
L 348.963968 189.015428 
L 350.009352 187.765243 
L 351.054736 187.275929 
L 352.10012 187.312649 
L 353.145504 188.103408 
L 354.190888 182.837089 
L 355.236272 168.739206 
L 357.32704 156.47134 
L 358.372424 151.456937 
L 359.417808 143.46139 
L 360.463192 138.35903 
L 361.508576 136.803131 
L 362.55396 146.133404 
L 363.599344 145.311903 
L 364.644728 143.892635 
L 365.690112 139.961043 
L 366.735495 138.947403 
L 367.780879 137.748455 
L 368.826263 137.175454 
L 371.962415 126.464341 
L 373.007799 120.643808 
L 374.053183 119.606257 
L 375.098567 115.387737 
L 376.143951 110.235849 
L 377.189335 108.713253 
L 378.234719 107.416955 
L 379.280103 105.867033 
L 380.325487 107.321312 
L 381.370871 105.283784 
L 382.416255 102.119894 
L 383.461639 102.519544 
L 384.507023 99.005534 
L 385.552407 100.733077 
L 386.597791 102.696312 
L 387.643175 102.16857 
L 388.688559 100.975599 
L 389.733943 101.447835 
L 390.779327 98.876587 
L 391.824711 100.848361 
L 392.870095 98.136211 
L 393.915479 97.032906 
L 394.960863 98.649436 
L 396.006246 90.360984 
L 397.05163 86.712903 
L 398.097014 84.643779 
L 399.142398 81.479889 
L 400.187782 81.14941 
L 401.233166 82.0657 
L 402.27855 84.440538 
L 403.323934 93.451434 
L 404.369318 99.168638 
L 404.369318 99.168638 
" style="fill:none;stroke:#2ca02c;stroke-linecap:square;stroke-width:1.5;"/>
   </g>
   <g id="line2d_22">
    <path clip-path="url(#p36ce953016)" d="M 67.755682 217.520326 
L 137.796407 217.4441 
L 140.932559 216.971498 
L 141.977943 216.636103 
L 144.068711 215.690899 
L 148.250247 215.187807 
L 149.295631 214.166378 
L 151.386399 213.038231 
L 152.431783 212.306461 
L 153.477167 210.217866 
L 154.522551 208.815306 
L 155.567935 206.391316 
L 157.658703 203.8911 
L 158.704087 201.772015 
L 159.749471 200.979264 
L 160.794855 199.088856 
L 162.885623 193.966463 
L 164.97639 187.700678 
L 166.021774 186.298118 
L 167.067158 183.569224 
L 168.112542 183.432017 
L 169.157926 187.517736 
L 170.20331 185.124236 
L 171.248694 185.840761 
L 172.294078 185.490121 
L 173.339462 185.322424 
L 174.384846 186.130421 
L 175.43023 186.298118 
L 176.475614 182.212399 
L 177.520998 186.145666 
L 178.566382 186.877436 
L 180.65715 187.944602 
L 181.702534 186.938417 
L 182.747918 186.907927 
L 183.793302 187.670188 
L 184.838686 187.685433 
L 185.88407 187.578716 
L 186.929454 189.95697 
L 189.020222 192.167527 
L 190.065606 194.561026 
L 191.11099 195.338533 
L 192.156374 196.603886 
L 193.201757 198.372331 
L 195.292525 198.555274 
L 196.337909 199.881608 
L 197.383293 200.217003 
L 198.428677 201.680544 
L 199.474061 201.802505 
L 200.519445 202.793445 
L 201.564829 202.046429 
L 202.610213 203.128839 
L 203.655597 203.738648 
L 205.746365 202.534276 
L 206.791749 202.930651 
L 207.837133 201.939712 
L 208.882517 202.869671 
L 209.927901 203.220311 
L 210.973285 202.290352 
L 212.018669 202.640992 
L 213.064053 202.061674 
L 214.109437 201.878731 
L 215.154821 201.848241 
L 216.200205 202.183636 
L 217.245589 202.10741 
L 218.290973 202.48854 
L 219.336357 202.686728 
L 220.381741 204.119779 
L 221.427125 204.668606 
L 222.472508 206.177883 
L 223.517892 207.062106 
L 224.563276 207.778631 
L 225.60866 208.906777 
L 226.654044 209.135455 
L 227.699428 209.699529 
L 228.744812 210.095904 
L 230.83558 211.406993 
L 231.880964 211.666162 
L 232.926348 212.047292 
L 233.971732 212.718082 
L 235.017116 212.291216 
L 238.153268 212.24548 
L 241.28942 211.361257 
L 242.334804 211.589936 
L 243.380188 212.291216 
L 244.425572 212.59612 
L 245.470956 211.666162 
L 246.51634 211.528955 
L 247.561724 211.742388 
L 248.607108 211.833859 
L 249.652492 210.659977 
L 250.697875 210.14164 
L 251.743259 209.82149 
L 252.788643 210.964882 
L 253.834027 210.278847 
L 254.879411 210.659977 
L 255.924795 210.888656 
L 256.970179 212.169254 
L 258.015563 212.763817 
L 260.106331 213.099212 
L 261.151715 214.745696 
L 264.287867 215.782371 
L 265.333251 216.026294 
L 266.378635 216.437915 
L 268.469403 216.376934 
L 269.514787 216.087275 
L 277.877859 215.477466 
L 281.01401 214.34932 
L 282.059394 214.486527 
L 283.104778 214.029171 
L 284.150162 214.044416 
L 285.195546 213.891964 
L 286.24093 214.410301 
L 287.286314 214.69996 
L 288.331698 214.837167 
L 289.377082 214.608489 
L 290.422466 214.928639 
L 291.46785 214.913393 
L 292.513234 215.187807 
L 293.558618 215.096336 
L 299.830922 215.843352 
L 301.92169 215.828106 
L 302.967074 215.706145 
L 304.012458 215.828106 
L 305.057842 215.797616 
L 310.284761 215.02011 
L 313.420913 214.852412 
L 315.511681 214.410301 
L 317.602449 214.31883 
L 318.647833 213.770002 
L 320.738601 213.114458 
L 322.829369 212.763817 
L 323.874753 212.504649 
L 325.965521 211.300277 
L 328.056289 208.357949 
L 329.101673 206.482787 
L 330.147057 205.690036 
L 332.237825 203.113594 
L 333.283209 202.1379 
L 334.328593 201.375639 
L 335.373977 201.985448 
L 336.419361 201.467111 
L 337.464744 200.460926 
L 339.555512 198.936404 
L 340.600896 198.372331 
L 341.64628 197.594825 
L 343.737048 192.091301 
L 344.782432 189.347162 
L 345.827816 187.289057 
L 347.918584 182.395342 
L 348.963968 181.602591 
L 350.009352 180.306747 
L 351.054736 180.321992 
L 352.10012 179.559731 
L 353.145504 177.39491 
L 354.190888 174.254395 
L 355.236272 173.18723 
L 356.281656 168.461212 
L 357.32704 167.561744 
L 358.372424 162.012485 
L 359.417808 158.353632 
L 360.463192 153.719086 
L 361.508576 152.94158 
L 362.55396 152.407997 
L 363.599344 154.069726 
L 364.644728 148.901597 
L 365.690112 145.944024 
L 366.735495 144.5872 
L 367.780879 141.339968 
L 368.826263 140.623443 
L 369.871647 133.260003 
L 370.917031 131.140917 
L 371.962415 125.286753 
L 373.007799 125.04283 
L 374.053183 118.838026 
L 375.098567 122.161483 
L 376.143951 112.252091 
L 377.189335 109.904328 
L 378.234719 101.793871 
L 379.280103 100.894403 
L 380.325487 94.003565 
L 381.370871 90.329467 
L 382.416255 75.450134 
L 383.461639 75.800774 
L 384.507023 80.145661 
L 385.552407 72.705994 
L 386.597791 74.047574 
L 387.643175 77.27956 
L 388.688559 78.849817 
L 389.733943 84.719227 
L 390.779327 89.948337 
L 391.824711 91.091728 
L 393.915479 112.282582 
L 394.960863 116.459772 
L 396.006246 122.634085 
L 397.05163 131.095181 
L 398.097014 131.476312 
L 399.142398 122.496878 
L 400.187782 123.091442 
L 401.233166 119.11244 
L 402.27855 123.533553 
L 403.323934 120.774168 
L 404.369318 117.374485 
L 404.369318 117.374485 
" style="fill:none;stroke:#d62728;stroke-linecap:square;stroke-width:1.5;"/>
   </g>
   <g id="line2d_23"/>
   <g id="line2d_24"/>
   <g id="line2d_25"/>
   <g id="line2d_26"/>
   <g id="patch_3">
    <path d="M 50.925 226.602246 
L 50.925 26.8 
" style="fill:none;stroke:#000000;stroke-linecap:square;stroke-linejoin:miter;stroke-width:0.8;"/>
   </g>
   <g id="patch_4">
    <path d="M 421.2 226.602246 
L 421.2 26.8 
" style="fill:none;stroke:#000000;stroke-linecap:square;stroke-linejoin:miter;stroke-width:0.8;"/>
   </g>
   <g id="patch_5">
    <path d="M 50.925 226.602246 
L 421.2 226.602246 
" style="fill:none;stroke:#000000;stroke-linecap:square;stroke-linejoin:miter;stroke-width:0.8;"/>
   </g>
   <g id="patch_6">
    <path d="M 50.925 26.8 
L 421.2 26.8 
" style="fill:none;stroke:#000000;stroke-linecap:square;stroke-linejoin:miter;stroke-width:0.8;"/>
   </g>
   <g id="text_21">
    <!-- New cases per million people by Nation (7 day rolling) -->
    <g transform="translate(73.430625 20.8)scale(0.12 -0.12)">
     <defs>
      <path d="M 48.6875 27.296875 
Q 48.6875 37.203125 44.609375 42.84375 
Q 40.53125 48.484375 33.40625 48.484375 
Q 26.265625 48.484375 22.1875 42.84375 
Q 18.109375 37.203125 18.109375 27.296875 
Q 18.109375 17.390625 22.1875 11.75 
Q 26.265625 6.109375 33.40625 6.109375 
Q 40.53125 6.109375 44.609375 11.75 
Q 48.6875 17.390625 48.6875 27.296875 
z
M 18.109375 46.390625 
Q 20.953125 51.265625 25.265625 53.625 
Q 29.59375 56 35.59375 56 
Q 45.5625 56 51.78125 48.09375 
Q 58.015625 40.1875 58.015625 27.296875 
Q 58.015625 14.40625 51.78125 6.484375 
Q 45.5625 -1.421875 35.59375 -1.421875 
Q 29.59375 -1.421875 25.265625 0.953125 
Q 20.953125 3.328125 18.109375 8.203125 
L 18.109375 0 
L 9.078125 0 
L 9.078125 75.984375 
L 18.109375 75.984375 
z
" id="DejaVuSans-98"/>
      <path d="M 32.171875 -5.078125 
Q 28.375 -14.84375 24.75 -17.8125 
Q 21.140625 -20.796875 15.09375 -20.796875 
L 7.90625 -20.796875 
L 7.90625 -13.28125 
L 13.1875 -13.28125 
Q 16.890625 -13.28125 18.9375 -11.515625 
Q 21 -9.765625 23.484375 -3.21875 
L 25.09375 0.875 
L 2.984375 54.6875 
L 12.5 54.6875 
L 29.59375 11.921875 
L 46.6875 54.6875 
L 56.203125 54.6875 
z
" id="DejaVuSans-121"/>
      <path d="M 31 75.875 
Q 24.46875 64.65625 21.28125 53.65625 
Q 18.109375 42.671875 18.109375 31.390625 
Q 18.109375 20.125 21.3125 9.0625 
Q 24.515625 -2 31 -13.1875 
L 23.1875 -13.1875 
Q 15.875 -1.703125 12.234375 9.375 
Q 8.59375 20.453125 8.59375 31.390625 
Q 8.59375 42.28125 12.203125 53.3125 
Q 15.828125 64.359375 23.1875 75.875 
z
" id="DejaVuSans-40"/>
      <path d="M 45.40625 46.390625 
L 45.40625 75.984375 
L 54.390625 75.984375 
L 54.390625 0 
L 45.40625 0 
L 45.40625 8.203125 
Q 42.578125 3.328125 38.25 0.953125 
Q 33.9375 -1.421875 27.875 -1.421875 
Q 17.96875 -1.421875 11.734375 6.484375 
Q 5.515625 14.40625 5.515625 27.296875 
Q 5.515625 40.1875 11.734375 48.09375 
Q 17.96875 56 27.875 56 
Q 33.9375 56 38.25 53.625 
Q 42.578125 51.265625 45.40625 46.390625 
z
M 14.796875 27.296875 
Q 14.796875 17.390625 18.875 11.75 
Q 22.953125 6.109375 30.078125 6.109375 
Q 37.203125 6.109375 41.296875 11.75 
Q 45.40625 17.390625 45.40625 27.296875 
Q 45.40625 37.203125 41.296875 42.84375 
Q 37.203125 48.484375 30.078125 48.484375 
Q 22.953125 48.484375 18.875 42.84375 
Q 14.796875 37.203125 14.796875 27.296875 
z
" id="DejaVuSans-100"/>
      <path d="M 45.40625 27.984375 
Q 45.40625 37.75 41.375 43.109375 
Q 37.359375 48.484375 30.078125 48.484375 
Q 22.859375 48.484375 18.828125 43.109375 
Q 14.796875 37.75 14.796875 27.984375 
Q 14.796875 18.265625 18.828125 12.890625 
Q 22.859375 7.515625 30.078125 7.515625 
Q 37.359375 7.515625 41.375 12.890625 
Q 45.40625 18.265625 45.40625 27.984375 
z
M 54.390625 6.78125 
Q 54.390625 -7.171875 48.1875 -13.984375 
Q 42 -20.796875 29.203125 -20.796875 
Q 24.46875 -20.796875 20.265625 -20.09375 
Q 16.0625 -19.390625 12.109375 -17.921875 
L 12.109375 -9.1875 
Q 16.0625 -11.328125 19.921875 -12.34375 
Q 23.78125 -13.375 27.78125 -13.375 
Q 36.625 -13.375 41.015625 -8.765625 
Q 45.40625 -4.15625 45.40625 5.171875 
L 45.40625 9.625 
Q 42.625 4.78125 38.28125 2.390625 
Q 33.9375 0 27.875 0 
Q 17.828125 0 11.671875 7.65625 
Q 5.515625 15.328125 5.515625 27.984375 
Q 5.515625 40.671875 11.671875 48.328125 
Q 17.828125 56 27.875 56 
Q 33.9375 56 38.28125 53.609375 
Q 42.625 51.21875 45.40625 46.390625 
L 45.40625 54.6875 
L 54.390625 54.6875 
z
" id="DejaVuSans-103"/>
      <path d="M 8.015625 75.875 
L 15.828125 75.875 
Q 23.140625 64.359375 26.78125 53.3125 
Q 30.421875 42.28125 30.421875 31.390625 
Q 30.421875 20.453125 26.78125 9.375 
Q 23.140625 -1.703125 15.828125 -13.1875 
L 8.015625 -13.1875 
Q 14.5 -2 17.703125 9.0625 
Q 20.90625 20.125 20.90625 31.390625 
Q 20.90625 42.671875 17.703125 53.65625 
Q 14.5 64.65625 8.015625 75.875 
z
" id="DejaVuSans-41"/>
     </defs>
     <use xlink:href="#DejaVuSans-78"/>
     <use x="74.804688" xlink:href="#DejaVuSans-101"/>
     <use x="136.328125" xlink:href="#DejaVuSans-119"/>
     <use x="218.115234" xlink:href="#DejaVuSans-32"/>
     <use x="249.902344" xlink:href="#DejaVuSans-99"/>
     <use x="304.882812" xlink:href="#DejaVuSans-97"/>
     <use x="366.162109" xlink:href="#DejaVuSans-115"/>
     <use x="418.261719" xlink:href="#DejaVuSans-101"/>
     <use x="479.785156" xlink:href="#DejaVuSans-115"/>
     <use x="531.884766" xlink:href="#DejaVuSans-32"/>
     <use x="563.671875" xlink:href="#DejaVuSans-112"/>
     <use x="627.148438" xlink:href="#DejaVuSans-101"/>
     <use x="688.671875" xlink:href="#DejaVuSans-114"/>
     <use x="729.785156" xlink:href="#DejaVuSans-32"/>
     <use x="761.572266" xlink:href="#DejaVuSans-109"/>
     <use x="858.984375" xlink:href="#DejaVuSans-105"/>
     <use x="886.767578" xlink:href="#DejaVuSans-108"/>
     <use x="914.550781" xlink:href="#DejaVuSans-108"/>
     <use x="942.333984" xlink:href="#DejaVuSans-105"/>
     <use x="970.117188" xlink:href="#DejaVuSans-111"/>
     <use x="1031.298828" xlink:href="#DejaVuSans-110"/>
     <use x="1094.677734" xlink:href="#DejaVuSans-32"/>
     <use x="1126.464844" xlink:href="#DejaVuSans-112"/>
     <use x="1189.941406" xlink:href="#DejaVuSans-101"/>
     <use x="1251.464844" xlink:href="#DejaVuSans-111"/>
     <use x="1312.646484" xlink:href="#DejaVuSans-112"/>
     <use x="1376.123047" xlink:href="#DejaVuSans-108"/>
     <use x="1403.90625" xlink:href="#DejaVuSans-101"/>
     <use x="1465.429688" xlink:href="#DejaVuSans-32"/>
     <use x="1497.216797" xlink:href="#DejaVuSans-98"/>
     <use x="1560.693359" xlink:href="#DejaVuSans-121"/>
     <use x="1619.873047" xlink:href="#DejaVuSans-32"/>
     <use x="1651.660156" xlink:href="#DejaVuSans-78"/>
     <use x="1726.464844" xlink:href="#DejaVuSans-97"/>
     <use x="1787.744141" xlink:href="#DejaVuSans-116"/>
     <use x="1826.953125" xlink:href="#DejaVuSans-105"/>
     <use x="1854.736328" xlink:href="#DejaVuSans-111"/>
     <use x="1915.917969" xlink:href="#DejaVuSans-110"/>
     <use x="1979.296875" xlink:href="#DejaVuSans-32"/>
     <use x="2011.083984" xlink:href="#DejaVuSans-40"/>
     <use x="2050.097656" xlink:href="#DejaVuSans-55"/>
     <use x="2113.720703" xlink:href="#DejaVuSans-32"/>
     <use x="2145.507812" xlink:href="#DejaVuSans-100"/>
     <use x="2208.984375" xlink:href="#DejaVuSans-97"/>
     <use x="2270.263672" xlink:href="#DejaVuSans-121"/>
     <use x="2329.443359" xlink:href="#DejaVuSans-32"/>
     <use x="2361.230469" xlink:href="#DejaVuSans-114"/>
     <use x="2400.09375" xlink:href="#DejaVuSans-111"/>
     <use x="2461.275391" xlink:href="#DejaVuSans-108"/>
     <use x="2489.058594" xlink:href="#DejaVuSans-108"/>
     <use x="2516.841797" xlink:href="#DejaVuSans-105"/>
     <use x="2544.625" xlink:href="#DejaVuSans-110"/>
     <use x="2608.003906" xlink:href="#DejaVuSans-103"/>
     <use x="2671.480469" xlink:href="#DejaVuSans-41"/>
    </g>
   </g>
   <g id="legend_1">
    <g id="patch_7">
     <path d="M 57.925 108.190625 
L 172.079688 108.190625 
Q 174.079688 108.190625 174.079688 106.190625 
L 174.079688 33.8 
Q 174.079688 31.8 172.079688 31.8 
L 57.925 31.8 
Q 55.925 31.8 55.925 33.8 
L 55.925 106.190625 
Q 55.925 108.190625 57.925 108.190625 
z
" style="fill:#ffffff;opacity:0.8;stroke:#cccccc;stroke-linejoin:miter;"/>
    </g>
    <g id="text_22">
     <!-- Nation -->
     <g transform="translate(98.620313 43.398437)scale(0.1 -0.1)">
      <use xlink:href="#DejaVuSans-78"/>
      <use x="74.804688" xlink:href="#DejaVuSans-97"/>
      <use x="136.083984" xlink:href="#DejaVuSans-116"/>
      <use x="175.292969" xlink:href="#DejaVuSans-105"/>
      <use x="203.076172" xlink:href="#DejaVuSans-111"/>
      <use x="264.257812" xlink:href="#DejaVuSans-110"/>
     </g>
    </g>
    <g id="line2d_27">
     <path d="M 59.925 54.576562 
L 79.925 54.576562 
" style="fill:none;stroke:#1f77b4;stroke-linecap:square;stroke-width:1.5;"/>
    </g>
    <g id="line2d_28"/>
    <g id="text_23">
     <!-- Northern Ireland -->
     <g transform="translate(87.925 58.076562)scale(0.1 -0.1)">
      <defs>
       <path d="M 54.890625 33.015625 
L 54.890625 0 
L 45.90625 0 
L 45.90625 32.71875 
Q 45.90625 40.484375 42.875 44.328125 
Q 39.84375 48.1875 33.796875 48.1875 
Q 26.515625 48.1875 22.3125 43.546875 
Q 18.109375 38.921875 18.109375 30.90625 
L 18.109375 0 
L 9.078125 0 
L 9.078125 75.984375 
L 18.109375 75.984375 
L 18.109375 46.1875 
Q 21.34375 51.125 25.703125 53.5625 
Q 30.078125 56 35.796875 56 
Q 45.21875 56 50.046875 50.171875 
Q 54.890625 44.34375 54.890625 33.015625 
z
" id="DejaVuSans-104"/>
       <path d="M 9.8125 72.90625 
L 19.671875 72.90625 
L 19.671875 0 
L 9.8125 0 
z
" id="DejaVuSans-73"/>
      </defs>
      <use xlink:href="#DejaVuSans-78"/>
      <use x="74.804688" xlink:href="#DejaVuSans-111"/>
      <use x="135.986328" xlink:href="#DejaVuSans-114"/>
      <use x="177.099609" xlink:href="#DejaVuSans-116"/>
      <use x="216.308594" xlink:href="#DejaVuSans-104"/>
      <use x="279.6875" xlink:href="#DejaVuSans-101"/>
      <use x="341.210938" xlink:href="#DejaVuSans-114"/>
      <use x="380.574219" xlink:href="#DejaVuSans-110"/>
      <use x="443.953125" xlink:href="#DejaVuSans-32"/>
      <use x="475.740234" xlink:href="#DejaVuSans-73"/>
      <use x="505.232422" xlink:href="#DejaVuSans-114"/>
      <use x="544.095703" xlink:href="#DejaVuSans-101"/>
      <use x="605.619141" xlink:href="#DejaVuSans-108"/>
      <use x="633.402344" xlink:href="#DejaVuSans-97"/>
      <use x="694.681641" xlink:href="#DejaVuSans-110"/>
      <use x="758.060547" xlink:href="#DejaVuSans-100"/>
     </g>
    </g>
    <g id="line2d_29">
     <path d="M 59.925 69.254687 
L 79.925 69.254687 
" style="fill:none;stroke:#ff7f0e;stroke-linecap:square;stroke-width:1.5;"/>
    </g>
    <g id="line2d_30"/>
    <g id="text_24">
     <!-- Scotland -->
     <g transform="translate(87.925 72.754687)scale(0.1 -0.1)">
      <defs>
       <path d="M 53.515625 70.515625 
L 53.515625 60.890625 
Q 47.90625 63.578125 42.921875 64.890625 
Q 37.9375 66.21875 33.296875 66.21875 
Q 25.25 66.21875 20.875 63.09375 
Q 16.5 59.96875 16.5 54.203125 
Q 16.5 49.359375 19.40625 46.890625 
Q 22.3125 44.4375 30.421875 42.921875 
L 36.375 41.703125 
Q 47.40625 39.59375 52.65625 34.296875 
Q 57.90625 29 57.90625 20.125 
Q 57.90625 9.515625 50.796875 4.046875 
Q 43.703125 -1.421875 29.984375 -1.421875 
Q 24.8125 -1.421875 18.96875 -0.25 
Q 13.140625 0.921875 6.890625 3.21875 
L 6.890625 13.375 
Q 12.890625 10.015625 18.65625 8.296875 
Q 24.421875 6.59375 29.984375 6.59375 
Q 38.421875 6.59375 43.015625 9.90625 
Q 47.609375 13.234375 47.609375 19.390625 
Q 47.609375 24.75 44.3125 27.78125 
Q 41.015625 30.8125 33.5 32.328125 
L 27.484375 33.5 
Q 16.453125 35.6875 11.515625 40.375 
Q 6.59375 45.0625 6.59375 53.421875 
Q 6.59375 63.09375 13.40625 68.65625 
Q 20.21875 74.21875 32.171875 74.21875 
Q 37.3125 74.21875 42.625 73.28125 
Q 47.953125 72.359375 53.515625 70.515625 
z
" id="DejaVuSans-83"/>
      </defs>
      <use xlink:href="#DejaVuSans-83"/>
      <use x="63.476562" xlink:href="#DejaVuSans-99"/>
      <use x="118.457031" xlink:href="#DejaVuSans-111"/>
      <use x="179.638672" xlink:href="#DejaVuSans-116"/>
      <use x="218.847656" xlink:href="#DejaVuSans-108"/>
      <use x="246.630859" xlink:href="#DejaVuSans-97"/>
      <use x="307.910156" xlink:href="#DejaVuSans-110"/>
      <use x="371.289062" xlink:href="#DejaVuSans-100"/>
     </g>
    </g>
    <g id="line2d_31">
     <path d="M 59.925 83.932812 
L 79.925 83.932812 
" style="fill:none;stroke:#2ca02c;stroke-linecap:square;stroke-width:1.5;"/>
    </g>
    <g id="line2d_32"/>
    <g id="text_25">
     <!-- England -->
     <g transform="translate(87.925 87.432812)scale(0.1 -0.1)">
      <defs>
       <path d="M 9.8125 72.90625 
L 55.90625 72.90625 
L 55.90625 64.59375 
L 19.671875 64.59375 
L 19.671875 43.015625 
L 54.390625 43.015625 
L 54.390625 34.71875 
L 19.671875 34.71875 
L 19.671875 8.296875 
L 56.78125 8.296875 
L 56.78125 0 
L 9.8125 0 
z
" id="DejaVuSans-69"/>
      </defs>
      <use xlink:href="#DejaVuSans-69"/>
      <use x="63.183594" xlink:href="#DejaVuSans-110"/>
      <use x="126.5625" xlink:href="#DejaVuSans-103"/>
      <use x="190.039062" xlink:href="#DejaVuSans-108"/>
      <use x="217.822266" xlink:href="#DejaVuSans-97"/>
      <use x="279.101562" xlink:href="#DejaVuSans-110"/>
      <use x="342.480469" xlink:href="#DejaVuSans-100"/>
     </g>
    </g>
    <g id="line2d_33">
     <path d="M 59.925 98.610937 
L 79.925 98.610937 
" style="fill:none;stroke:#d62728;stroke-linecap:square;stroke-width:1.5;"/>
    </g>
    <g id="line2d_34"/>
    <g id="text_26">
     <!-- Wales -->
     <g transform="translate(87.925 102.110937)scale(0.1 -0.1)">
      <defs>
       <path d="M 3.328125 72.90625 
L 13.28125 72.90625 
L 28.609375 11.28125 
L 43.890625 72.90625 
L 54.984375 72.90625 
L 70.3125 11.28125 
L 85.59375 72.90625 
L 95.609375 72.90625 
L 77.296875 0 
L 64.890625 0 
L 49.515625 63.28125 
L 33.984375 0 
L 21.578125 0 
z
" id="DejaVuSans-87"/>
      </defs>
      <use xlink:href="#DejaVuSans-87"/>
      <use x="92.501953" xlink:href="#DejaVuSans-97"/>
      <use x="153.78125" xlink:href="#DejaVuSans-108"/>
      <use x="181.564453" xlink:href="#DejaVuSans-101"/>
      <use x="243.087891" xlink:href="#DejaVuSans-115"/>
     </g>
    </g>
   </g>
  </g>
 </g>
 <defs>
  <clipPath id="p36ce953016">
   <rect height="199.802246" width="370.275" x="50.925" y="26.8"/>
  </clipPath>
 </defs>
</svg>
