<?xml version="1.0" encoding="utf-8" standalone="no"?>
<!DOCTYPE svg PUBLIC "-//W3C//DTD SVG 1.1//EN"
  "http://www.w3.org/Graphics/SVG/1.1/DTD/svg11.dtd">
<!-- Created with matplotlib (https://matplotlib.org/) -->
<svg height="396pt" version="1.1" viewBox="0 0 576 396" width="576pt" xmlns="http://www.w3.org/2000/svg" xmlns:xlink="http://www.w3.org/1999/xlink">
 <defs>
  <style type="text/css">
*{stroke-linecap:butt;stroke-linejoin:round;}
  </style>
 </defs>
 <g id="figure_1">
  <g id="patch_1">
   <path d="M 0 396 
L 576 396 
L 576 0 
L 0 0 
z
" style="fill:#ffffff;"/>
  </g>
  <g id="axes_1">
   <g id="patch_2">
    <path d="M 72 346.5 
L 518.4 346.5 
L 518.4 47.52 
L 72 47.52 
z
" style="fill:#ffffff;"/>
   </g>
   <g id="matplotlib.axis_1">
    <g id="xtick_1">
     <g id="line2d_1">
      <defs>
       <path d="M 0 0 
L 0 3.5 
" id="ma42d211155" style="stroke:#000000;"/>
      </defs>
      <g>
       <use style="stroke:#000000;" x="80.442203" xlink:href="#ma42d211155" y="346.5"/>
      </g>
     </g>
     <g id="text_1">
      <!-- 2020-01 -->
      <defs>
       <path d="M 19.1875 8.296875 
L 53.609375 8.296875 
L 53.609375 0 
L 7.328125 0 
L 7.328125 8.296875 
Q 12.9375 14.109375 22.625 23.890625 
Q 32.328125 33.6875 34.8125 36.53125 
Q 39.546875 41.84375 41.421875 45.53125 
Q 43.3125 49.21875 43.3125 52.78125 
Q 43.3125 58.59375 39.234375 62.25 
Q 35.15625 65.921875 28.609375 65.921875 
Q 23.96875 65.921875 18.8125 64.3125 
Q 13.671875 62.703125 7.8125 59.421875 
L 7.8125 69.390625 
Q 13.765625 71.78125 18.9375 73 
Q 24.125 74.21875 28.421875 74.21875 
Q 39.75 74.21875 46.484375 68.546875 
Q 53.21875 62.890625 53.21875 53.421875 
Q 53.21875 48.921875 51.53125 44.890625 
Q 49.859375 40.875 45.40625 35.40625 
Q 44.1875 33.984375 37.640625 27.21875 
Q 31.109375 20.453125 19.1875 8.296875 
z
" id="DejaVuSans-50"/>
       <path d="M 31.78125 66.40625 
Q 24.171875 66.40625 20.328125 58.90625 
Q 16.5 51.421875 16.5 36.375 
Q 16.5 21.390625 20.328125 13.890625 
Q 24.171875 6.390625 31.78125 6.390625 
Q 39.453125 6.390625 43.28125 13.890625 
Q 47.125 21.390625 47.125 36.375 
Q 47.125 51.421875 43.28125 58.90625 
Q 39.453125 66.40625 31.78125 66.40625 
z
M 31.78125 74.21875 
Q 44.046875 74.21875 50.515625 64.515625 
Q 56.984375 54.828125 56.984375 36.375 
Q 56.984375 17.96875 50.515625 8.265625 
Q 44.046875 -1.421875 31.78125 -1.421875 
Q 19.53125 -1.421875 13.0625 8.265625 
Q 6.59375 17.96875 6.59375 36.375 
Q 6.59375 54.828125 13.0625 64.515625 
Q 19.53125 74.21875 31.78125 74.21875 
z
" id="DejaVuSans-48"/>
       <path d="M 4.890625 31.390625 
L 31.203125 31.390625 
L 31.203125 23.390625 
L 4.890625 23.390625 
z
" id="DejaVuSans-45"/>
       <path d="M 12.40625 8.296875 
L 28.515625 8.296875 
L 28.515625 63.921875 
L 10.984375 60.40625 
L 10.984375 69.390625 
L 28.421875 72.90625 
L 38.28125 72.90625 
L 38.28125 8.296875 
L 54.390625 8.296875 
L 54.390625 0 
L 12.40625 0 
z
" id="DejaVuSans-49"/>
      </defs>
      <g transform="translate(43.217382 384.471846)rotate(-30)scale(0.1 -0.1)">
       <use xlink:href="#DejaVuSans-50"/>
       <use x="63.623047" xlink:href="#DejaVuSans-48"/>
       <use x="127.246094" xlink:href="#DejaVuSans-50"/>
       <use x="190.869141" xlink:href="#DejaVuSans-48"/>
       <use x="254.492188" xlink:href="#DejaVuSans-45"/>
       <use x="290.576172" xlink:href="#DejaVuSans-48"/>
       <use x="354.199219" xlink:href="#DejaVuSans-49"/>
      </g>
     </g>
    </g>
    <g id="xtick_2">
     <g id="line2d_2">
      <g>
       <use style="stroke:#000000;" x="126.355939" xlink:href="#ma42d211155" y="346.5"/>
      </g>
     </g>
     <g id="text_2">
      <!-- 2020-02 -->
      <g transform="translate(89.131118 384.471846)rotate(-30)scale(0.1 -0.1)">
       <use xlink:href="#DejaVuSans-50"/>
       <use x="63.623047" xlink:href="#DejaVuSans-48"/>
       <use x="127.246094" xlink:href="#DejaVuSans-50"/>
       <use x="190.869141" xlink:href="#DejaVuSans-48"/>
       <use x="254.492188" xlink:href="#DejaVuSans-45"/>
       <use x="290.576172" xlink:href="#DejaVuSans-48"/>
       <use x="354.199219" xlink:href="#DejaVuSans-50"/>
      </g>
     </g>
    </g>
    <g id="xtick_3">
     <g id="line2d_3">
      <g>
       <use style="stroke:#000000;" x="169.307498" xlink:href="#ma42d211155" y="346.5"/>
      </g>
     </g>
     <g id="text_3">
      <!-- 2020-03 -->
      <defs>
       <path d="M 40.578125 39.3125 
Q 47.65625 37.796875 51.625 33 
Q 55.609375 28.21875 55.609375 21.1875 
Q 55.609375 10.40625 48.1875 4.484375 
Q 40.765625 -1.421875 27.09375 -1.421875 
Q 22.515625 -1.421875 17.65625 -0.515625 
Q 12.796875 0.390625 7.625 2.203125 
L 7.625 11.71875 
Q 11.71875 9.328125 16.59375 8.109375 
Q 21.484375 6.890625 26.8125 6.890625 
Q 36.078125 6.890625 40.9375 10.546875 
Q 45.796875 14.203125 45.796875 21.1875 
Q 45.796875 27.640625 41.28125 31.265625 
Q 36.765625 34.90625 28.71875 34.90625 
L 20.21875 34.90625 
L 20.21875 43.015625 
L 29.109375 43.015625 
Q 36.375 43.015625 40.234375 45.921875 
Q 44.09375 48.828125 44.09375 54.296875 
Q 44.09375 59.90625 40.109375 62.90625 
Q 36.140625 65.921875 28.71875 65.921875 
Q 24.65625 65.921875 20.015625 65.03125 
Q 15.375 64.15625 9.8125 62.3125 
L 9.8125 71.09375 
Q 15.4375 72.65625 20.34375 73.4375 
Q 25.25 74.21875 29.59375 74.21875 
Q 40.828125 74.21875 47.359375 69.109375 
Q 53.90625 64.015625 53.90625 55.328125 
Q 53.90625 49.265625 50.4375 45.09375 
Q 46.96875 40.921875 40.578125 39.3125 
z
" id="DejaVuSans-51"/>
      </defs>
      <g transform="translate(132.082678 384.471846)rotate(-30)scale(0.1 -0.1)">
       <use xlink:href="#DejaVuSans-50"/>
       <use x="63.623047" xlink:href="#DejaVuSans-48"/>
       <use x="127.246094" xlink:href="#DejaVuSans-50"/>
       <use x="190.869141" xlink:href="#DejaVuSans-48"/>
       <use x="254.492188" xlink:href="#DejaVuSans-45"/>
       <use x="290.576172" xlink:href="#DejaVuSans-48"/>
       <use x="354.199219" xlink:href="#DejaVuSans-51"/>
      </g>
     </g>
    </g>
    <g id="xtick_4">
     <g id="line2d_4">
      <g>
       <use style="stroke:#000000;" x="215.221234" xlink:href="#ma42d211155" y="346.5"/>
      </g>
     </g>
     <g id="text_4">
      <!-- 2020-04 -->
      <defs>
       <path d="M 37.796875 64.3125 
L 12.890625 25.390625 
L 37.796875 25.390625 
z
M 35.203125 72.90625 
L 47.609375 72.90625 
L 47.609375 25.390625 
L 58.015625 25.390625 
L 58.015625 17.1875 
L 47.609375 17.1875 
L 47.609375 0 
L 37.796875 0 
L 37.796875 17.1875 
L 4.890625 17.1875 
L 4.890625 26.703125 
z
" id="DejaVuSans-52"/>
      </defs>
      <g transform="translate(177.996413 384.471846)rotate(-30)scale(0.1 -0.1)">
       <use xlink:href="#DejaVuSans-50"/>
       <use x="63.623047" xlink:href="#DejaVuSans-48"/>
       <use x="127.246094" xlink:href="#DejaVuSans-50"/>
       <use x="190.869141" xlink:href="#DejaVuSans-48"/>
       <use x="254.492188" xlink:href="#DejaVuSans-45"/>
       <use x="290.576172" xlink:href="#DejaVuSans-48"/>
       <use x="354.199219" xlink:href="#DejaVuSans-52"/>
      </g>
     </g>
    </g>
    <g id="xtick_5">
     <g id="line2d_5">
      <g>
       <use style="stroke:#000000;" x="259.653882" xlink:href="#ma42d211155" y="346.5"/>
      </g>
     </g>
     <g id="text_5">
      <!-- 2020-05 -->
      <defs>
       <path d="M 10.796875 72.90625 
L 49.515625 72.90625 
L 49.515625 64.59375 
L 19.828125 64.59375 
L 19.828125 46.734375 
Q 21.96875 47.46875 24.109375 47.828125 
Q 26.265625 48.1875 28.421875 48.1875 
Q 40.625 48.1875 47.75 41.5 
Q 54.890625 34.8125 54.890625 23.390625 
Q 54.890625 11.625 47.5625 5.09375 
Q 40.234375 -1.421875 26.90625 -1.421875 
Q 22.3125 -1.421875 17.546875 -0.640625 
Q 12.796875 0.140625 7.71875 1.703125 
L 7.71875 11.625 
Q 12.109375 9.234375 16.796875 8.0625 
Q 21.484375 6.890625 26.703125 6.890625 
Q 35.15625 6.890625 40.078125 11.328125 
Q 45.015625 15.765625 45.015625 23.390625 
Q 45.015625 31 40.078125 35.4375 
Q 35.15625 39.890625 26.703125 39.890625 
Q 22.75 39.890625 18.8125 39.015625 
Q 14.890625 38.140625 10.796875 36.28125 
z
" id="DejaVuSans-53"/>
      </defs>
      <g transform="translate(222.429061 384.471846)rotate(-30)scale(0.1 -0.1)">
       <use xlink:href="#DejaVuSans-50"/>
       <use x="63.623047" xlink:href="#DejaVuSans-48"/>
       <use x="127.246094" xlink:href="#DejaVuSans-50"/>
       <use x="190.869141" xlink:href="#DejaVuSans-48"/>
       <use x="254.492188" xlink:href="#DejaVuSans-45"/>
       <use x="290.576172" xlink:href="#DejaVuSans-48"/>
       <use x="354.199219" xlink:href="#DejaVuSans-53"/>
      </g>
     </g>
    </g>
    <g id="xtick_6">
     <g id="line2d_6">
      <g>
       <use style="stroke:#000000;" x="305.567618" xlink:href="#ma42d211155" y="346.5"/>
      </g>
     </g>
     <g id="text_6">
      <!-- 2020-06 -->
      <defs>
       <path d="M 33.015625 40.375 
Q 26.375 40.375 22.484375 35.828125 
Q 18.609375 31.296875 18.609375 23.390625 
Q 18.609375 15.53125 22.484375 10.953125 
Q 26.375 6.390625 33.015625 6.390625 
Q 39.65625 6.390625 43.53125 10.953125 
Q 47.40625 15.53125 47.40625 23.390625 
Q 47.40625 31.296875 43.53125 35.828125 
Q 39.65625 40.375 33.015625 40.375 
z
M 52.59375 71.296875 
L 52.59375 62.3125 
Q 48.875 64.0625 45.09375 64.984375 
Q 41.3125 65.921875 37.59375 65.921875 
Q 27.828125 65.921875 22.671875 59.328125 
Q 17.53125 52.734375 16.796875 39.40625 
Q 19.671875 43.65625 24.015625 45.921875 
Q 28.375 48.1875 33.59375 48.1875 
Q 44.578125 48.1875 50.953125 41.515625 
Q 57.328125 34.859375 57.328125 23.390625 
Q 57.328125 12.15625 50.6875 5.359375 
Q 44.046875 -1.421875 33.015625 -1.421875 
Q 20.359375 -1.421875 13.671875 8.265625 
Q 6.984375 17.96875 6.984375 36.375 
Q 6.984375 53.65625 15.1875 63.9375 
Q 23.390625 74.21875 37.203125 74.21875 
Q 40.921875 74.21875 44.703125 73.484375 
Q 48.484375 72.75 52.59375 71.296875 
z
" id="DejaVuSans-54"/>
      </defs>
      <g transform="translate(268.342797 384.471846)rotate(-30)scale(0.1 -0.1)">
       <use xlink:href="#DejaVuSans-50"/>
       <use x="63.623047" xlink:href="#DejaVuSans-48"/>
       <use x="127.246094" xlink:href="#DejaVuSans-50"/>
       <use x="190.869141" xlink:href="#DejaVuSans-48"/>
       <use x="254.492188" xlink:href="#DejaVuSans-45"/>
       <use x="290.576172" xlink:href="#DejaVuSans-48"/>
       <use x="354.199219" xlink:href="#DejaVuSans-54"/>
      </g>
     </g>
    </g>
    <g id="xtick_7">
     <g id="line2d_7">
      <g>
       <use style="stroke:#000000;" x="350.000265" xlink:href="#ma42d211155" y="346.5"/>
      </g>
     </g>
     <g id="text_7">
      <!-- 2020-07 -->
      <defs>
       <path d="M 8.203125 72.90625 
L 55.078125 72.90625 
L 55.078125 68.703125 
L 28.609375 0 
L 18.3125 0 
L 43.21875 64.59375 
L 8.203125 64.59375 
z
" id="DejaVuSans-55"/>
      </defs>
      <g transform="translate(312.775445 384.471846)rotate(-30)scale(0.1 -0.1)">
       <use xlink:href="#DejaVuSans-50"/>
       <use x="63.623047" xlink:href="#DejaVuSans-48"/>
       <use x="127.246094" xlink:href="#DejaVuSans-50"/>
       <use x="190.869141" xlink:href="#DejaVuSans-48"/>
       <use x="254.492188" xlink:href="#DejaVuSans-45"/>
       <use x="290.576172" xlink:href="#DejaVuSans-48"/>
       <use x="354.199219" xlink:href="#DejaVuSans-55"/>
      </g>
     </g>
    </g>
    <g id="xtick_8">
     <g id="line2d_8">
      <g>
       <use style="stroke:#000000;" x="395.914001" xlink:href="#ma42d211155" y="346.5"/>
      </g>
     </g>
     <g id="text_8">
      <!-- 2020-08 -->
      <defs>
       <path d="M 31.78125 34.625 
Q 24.75 34.625 20.71875 30.859375 
Q 16.703125 27.09375 16.703125 20.515625 
Q 16.703125 13.921875 20.71875 10.15625 
Q 24.75 6.390625 31.78125 6.390625 
Q 38.8125 6.390625 42.859375 10.171875 
Q 46.921875 13.96875 46.921875 20.515625 
Q 46.921875 27.09375 42.890625 30.859375 
Q 38.875 34.625 31.78125 34.625 
z
M 21.921875 38.8125 
Q 15.578125 40.375 12.03125 44.71875 
Q 8.5 49.078125 8.5 55.328125 
Q 8.5 64.0625 14.71875 69.140625 
Q 20.953125 74.21875 31.78125 74.21875 
Q 42.671875 74.21875 48.875 69.140625 
Q 55.078125 64.0625 55.078125 55.328125 
Q 55.078125 49.078125 51.53125 44.71875 
Q 48 40.375 41.703125 38.8125 
Q 48.828125 37.15625 52.796875 32.3125 
Q 56.78125 27.484375 56.78125 20.515625 
Q 56.78125 9.90625 50.3125 4.234375 
Q 43.84375 -1.421875 31.78125 -1.421875 
Q 19.734375 -1.421875 13.25 4.234375 
Q 6.78125 9.90625 6.78125 20.515625 
Q 6.78125 27.484375 10.78125 32.3125 
Q 14.796875 37.15625 21.921875 38.8125 
z
M 18.3125 54.390625 
Q 18.3125 48.734375 21.84375 45.5625 
Q 25.390625 42.390625 31.78125 42.390625 
Q 38.140625 42.390625 41.71875 45.5625 
Q 45.3125 48.734375 45.3125 54.390625 
Q 45.3125 60.0625 41.71875 63.234375 
Q 38.140625 66.40625 31.78125 66.40625 
Q 25.390625 66.40625 21.84375 63.234375 
Q 18.3125 60.0625 18.3125 54.390625 
z
" id="DejaVuSans-56"/>
      </defs>
      <g transform="translate(358.689181 384.471846)rotate(-30)scale(0.1 -0.1)">
       <use xlink:href="#DejaVuSans-50"/>
       <use x="63.623047" xlink:href="#DejaVuSans-48"/>
       <use x="127.246094" xlink:href="#DejaVuSans-50"/>
       <use x="190.869141" xlink:href="#DejaVuSans-48"/>
       <use x="254.492188" xlink:href="#DejaVuSans-45"/>
       <use x="290.576172" xlink:href="#DejaVuSans-48"/>
       <use x="354.199219" xlink:href="#DejaVuSans-56"/>
      </g>
     </g>
    </g>
    <g id="xtick_9">
     <g id="line2d_9">
      <g>
       <use style="stroke:#000000;" x="441.827737" xlink:href="#ma42d211155" y="346.5"/>
      </g>
     </g>
     <g id="text_9">
      <!-- 2020-09 -->
      <defs>
       <path d="M 10.984375 1.515625 
L 10.984375 10.5 
Q 14.703125 8.734375 18.5 7.8125 
Q 22.3125 6.890625 25.984375 6.890625 
Q 35.75 6.890625 40.890625 13.453125 
Q 46.046875 20.015625 46.78125 33.40625 
Q 43.953125 29.203125 39.59375 26.953125 
Q 35.25 24.703125 29.984375 24.703125 
Q 19.046875 24.703125 12.671875 31.3125 
Q 6.296875 37.9375 6.296875 49.421875 
Q 6.296875 60.640625 12.9375 67.421875 
Q 19.578125 74.21875 30.609375 74.21875 
Q 43.265625 74.21875 49.921875 64.515625 
Q 56.59375 54.828125 56.59375 36.375 
Q 56.59375 19.140625 48.40625 8.859375 
Q 40.234375 -1.421875 26.421875 -1.421875 
Q 22.703125 -1.421875 18.890625 -0.6875 
Q 15.09375 0.046875 10.984375 1.515625 
z
M 30.609375 32.421875 
Q 37.25 32.421875 41.125 36.953125 
Q 45.015625 41.5 45.015625 49.421875 
Q 45.015625 57.28125 41.125 61.84375 
Q 37.25 66.40625 30.609375 66.40625 
Q 23.96875 66.40625 20.09375 61.84375 
Q 16.21875 57.28125 16.21875 49.421875 
Q 16.21875 41.5 20.09375 36.953125 
Q 23.96875 32.421875 30.609375 32.421875 
z
" id="DejaVuSans-57"/>
      </defs>
      <g transform="translate(404.602916 384.471846)rotate(-30)scale(0.1 -0.1)">
       <use xlink:href="#DejaVuSans-50"/>
       <use x="63.623047" xlink:href="#DejaVuSans-48"/>
       <use x="127.246094" xlink:href="#DejaVuSans-50"/>
       <use x="190.869141" xlink:href="#DejaVuSans-48"/>
       <use x="254.492188" xlink:href="#DejaVuSans-45"/>
       <use x="290.576172" xlink:href="#DejaVuSans-48"/>
       <use x="354.199219" xlink:href="#DejaVuSans-57"/>
      </g>
     </g>
    </g>
    <g id="xtick_10">
     <g id="line2d_10">
      <g>
       <use style="stroke:#000000;" x="486.260385" xlink:href="#ma42d211155" y="346.5"/>
      </g>
     </g>
     <g id="text_10">
      <!-- 2020-10 -->
      <g transform="translate(449.035564 384.471846)rotate(-30)scale(0.1 -0.1)">
       <use xlink:href="#DejaVuSans-50"/>
       <use x="63.623047" xlink:href="#DejaVuSans-48"/>
       <use x="127.246094" xlink:href="#DejaVuSans-50"/>
       <use x="190.869141" xlink:href="#DejaVuSans-48"/>
       <use x="254.492188" xlink:href="#DejaVuSans-45"/>
       <use x="290.576172" xlink:href="#DejaVuSans-49"/>
       <use x="354.199219" xlink:href="#DejaVuSans-48"/>
      </g>
     </g>
    </g>
    <g id="text_11">
     <!-- Date -->
     <defs>
      <path d="M 19.671875 64.796875 
L 19.671875 8.109375 
L 31.59375 8.109375 
Q 46.6875 8.109375 53.6875 14.9375 
Q 60.6875 21.78125 60.6875 36.53125 
Q 60.6875 51.171875 53.6875 57.984375 
Q 46.6875 64.796875 31.59375 64.796875 
z
M 9.8125 72.90625 
L 30.078125 72.90625 
Q 51.265625 72.90625 61.171875 64.09375 
Q 71.09375 55.28125 71.09375 36.53125 
Q 71.09375 17.671875 61.125 8.828125 
Q 51.171875 0 30.078125 0 
L 9.8125 0 
z
" id="DejaVuSans-68"/>
      <path d="M 34.28125 27.484375 
Q 23.390625 27.484375 19.1875 25 
Q 14.984375 22.515625 14.984375 16.5 
Q 14.984375 11.71875 18.140625 8.90625 
Q 21.296875 6.109375 26.703125 6.109375 
Q 34.1875 6.109375 38.703125 11.40625 
Q 43.21875 16.703125 43.21875 25.484375 
L 43.21875 27.484375 
z
M 52.203125 31.203125 
L 52.203125 0 
L 43.21875 0 
L 43.21875 8.296875 
Q 40.140625 3.328125 35.546875 0.953125 
Q 30.953125 -1.421875 24.3125 -1.421875 
Q 15.921875 -1.421875 10.953125 3.296875 
Q 6 8.015625 6 15.921875 
Q 6 25.140625 12.171875 29.828125 
Q 18.359375 34.515625 30.609375 34.515625 
L 43.21875 34.515625 
L 43.21875 35.40625 
Q 43.21875 41.609375 39.140625 45 
Q 35.0625 48.390625 27.6875 48.390625 
Q 23 48.390625 18.546875 47.265625 
Q 14.109375 46.140625 10.015625 43.890625 
L 10.015625 52.203125 
Q 14.9375 54.109375 19.578125 55.046875 
Q 24.21875 56 28.609375 56 
Q 40.484375 56 46.34375 49.84375 
Q 52.203125 43.703125 52.203125 31.203125 
z
" id="DejaVuSans-97"/>
      <path d="M 18.3125 70.21875 
L 18.3125 54.6875 
L 36.8125 54.6875 
L 36.8125 47.703125 
L 18.3125 47.703125 
L 18.3125 18.015625 
Q 18.3125 11.328125 20.140625 9.421875 
Q 21.96875 7.515625 27.59375 7.515625 
L 36.8125 7.515625 
L 36.8125 0 
L 27.59375 0 
Q 17.1875 0 13.234375 3.875 
Q 9.28125 7.765625 9.28125 18.015625 
L 9.28125 47.703125 
L 2.6875 47.703125 
L 2.6875 54.6875 
L 9.28125 54.6875 
L 9.28125 70.21875 
z
" id="DejaVuSans-116"/>
      <path d="M 56.203125 29.59375 
L 56.203125 25.203125 
L 14.890625 25.203125 
Q 15.484375 15.921875 20.484375 11.0625 
Q 25.484375 6.203125 34.421875 6.203125 
Q 39.59375 6.203125 44.453125 7.46875 
Q 49.3125 8.734375 54.109375 11.28125 
L 54.109375 2.78125 
Q 49.265625 0.734375 44.1875 -0.34375 
Q 39.109375 -1.421875 33.890625 -1.421875 
Q 20.796875 -1.421875 13.15625 6.1875 
Q 5.515625 13.8125 5.515625 26.8125 
Q 5.515625 40.234375 12.765625 48.109375 
Q 20.015625 56 32.328125 56 
Q 43.359375 56 49.78125 48.890625 
Q 56.203125 41.796875 56.203125 29.59375 
z
M 47.21875 32.234375 
Q 47.125 39.59375 43.09375 43.984375 
Q 39.0625 48.390625 32.421875 48.390625 
Q 24.90625 48.390625 20.390625 44.140625 
Q 15.875 39.890625 15.1875 32.171875 
z
" id="DejaVuSans-101"/>
     </defs>
     <g transform="translate(282.054141 398.63119)scale(0.11 -0.11)">
      <use xlink:href="#DejaVuSans-68"/>
      <use x="77.001953" xlink:href="#DejaVuSans-97"/>
      <use x="138.28125" xlink:href="#DejaVuSans-116"/>
      <use x="177.490234" xlink:href="#DejaVuSans-101"/>
     </g>
    </g>
   </g>
   <g id="matplotlib.axis_2">
    <g id="ytick_1">
     <g id="line2d_11">
      <defs>
       <path d="M 0 0 
L -3.5 0 
" id="m716c50a1a1" style="stroke:#000000;"/>
      </defs>
      <g>
       <use style="stroke:#000000;" x="72" xlink:href="#m716c50a1a1" y="332.91"/>
      </g>
     </g>
     <g id="text_12">
      <!-- 0 -->
      <g transform="translate(55.1375 336.709219)scale(0.1 -0.1)">
       <use xlink:href="#DejaVuSans-48"/>
      </g>
     </g>
    </g>
    <g id="ytick_2">
     <g id="line2d_12">
      <g>
       <use style="stroke:#000000;" x="72" xlink:href="#m716c50a1a1" y="297.206859"/>
      </g>
     </g>
     <g id="text_13">
      <!-- 2 -->
      <g transform="translate(55.1375 301.006078)scale(0.1 -0.1)">
       <use xlink:href="#DejaVuSans-50"/>
      </g>
     </g>
    </g>
    <g id="ytick_3">
     <g id="line2d_13">
      <g>
       <use style="stroke:#000000;" x="72" xlink:href="#m716c50a1a1" y="261.503718"/>
      </g>
     </g>
     <g id="text_14">
      <!-- 4 -->
      <g transform="translate(55.1375 265.302936)scale(0.1 -0.1)">
       <use xlink:href="#DejaVuSans-52"/>
      </g>
     </g>
    </g>
    <g id="ytick_4">
     <g id="line2d_14">
      <g>
       <use style="stroke:#000000;" x="72" xlink:href="#m716c50a1a1" y="225.800576"/>
      </g>
     </g>
     <g id="text_15">
      <!-- 6 -->
      <g transform="translate(55.1375 229.599795)scale(0.1 -0.1)">
       <use xlink:href="#DejaVuSans-54"/>
      </g>
     </g>
    </g>
    <g id="ytick_5">
     <g id="line2d_15">
      <g>
       <use style="stroke:#000000;" x="72" xlink:href="#m716c50a1a1" y="190.097435"/>
      </g>
     </g>
     <g id="text_16">
      <!-- 8 -->
      <g transform="translate(55.1375 193.896654)scale(0.1 -0.1)">
       <use xlink:href="#DejaVuSans-56"/>
      </g>
     </g>
    </g>
    <g id="ytick_6">
     <g id="line2d_16">
      <g>
       <use style="stroke:#000000;" x="72" xlink:href="#m716c50a1a1" y="154.394294"/>
      </g>
     </g>
     <g id="text_17">
      <!-- 10 -->
      <g transform="translate(48.775 158.193513)scale(0.1 -0.1)">
       <use xlink:href="#DejaVuSans-49"/>
       <use x="63.623047" xlink:href="#DejaVuSans-48"/>
      </g>
     </g>
    </g>
    <g id="ytick_7">
     <g id="line2d_17">
      <g>
       <use style="stroke:#000000;" x="72" xlink:href="#m716c50a1a1" y="118.691153"/>
      </g>
     </g>
     <g id="text_18">
      <!-- 12 -->
      <g transform="translate(48.775 122.490372)scale(0.1 -0.1)">
       <use xlink:href="#DejaVuSans-49"/>
       <use x="63.623047" xlink:href="#DejaVuSans-50"/>
      </g>
     </g>
    </g>
    <g id="ytick_8">
     <g id="line2d_18">
      <g>
       <use style="stroke:#000000;" x="72" xlink:href="#m716c50a1a1" y="82.988012"/>
      </g>
     </g>
     <g id="text_19">
      <!-- 14 -->
      <g transform="translate(48.775 86.78723)scale(0.1 -0.1)">
       <use xlink:href="#DejaVuSans-49"/>
       <use x="63.623047" xlink:href="#DejaVuSans-52"/>
      </g>
     </g>
    </g>
   </g>
   <g id="line2d_19">
    <path clip-path="url(#p39b086c8d5)" d="M 92.290909 332.91 
L 179.675116 332.819385 
L 181.156204 332.774077 
L 182.637293 332.592847 
L 187.080557 332.502232 
L 188.561646 331.732004 
L 190.042734 331.097698 
L 191.523822 330.146239 
L 193.00491 329.647856 
L 194.485999 328.152707 
L 195.967087 326.340405 
L 197.448175 324.935871 
L 198.929263 323.304799 
L 200.410352 322.851724 
L 201.89144 320.812884 
L 203.372528 315.013517 
L 204.853616 308.443922 
L 206.334705 302.689863 
L 209.296881 281.66716 
L 210.777969 273.919568 
L 212.259058 260.961609 
L 213.740146 250.76741 
L 216.702322 211.395148 
L 221.145587 158.113467 
L 222.626676 150.048723 
L 224.107764 121.006583 
L 225.588852 107.006549 
L 228.551029 72.21035 
L 230.032117 69.673127 
L 231.513205 68.495131 
L 232.994293 61.11 
L 234.475382 61.200615 
L 235.95647 69.899665 
L 237.437558 73.705499 
L 238.918646 83.174777 
L 240.399735 71.440122 
L 241.880823 81.589013 
L 243.361911 88.747606 
L 244.842999 83.809083 
L 246.324088 84.035621 
L 247.805176 98.171577 
L 249.286264 98.398115 
L 250.767352 110.857691 
L 252.248441 113.258991 
L 255.210617 135.958075 
L 256.691705 141.440288 
L 258.172794 143.750973 
L 259.653882 152.721869 
L 261.13497 163.776911 
L 262.616058 168.534204 
L 264.097147 170.437121 
L 265.578235 180.540705 
L 267.059323 183.938771 
L 268.540411 191.459825 
L 270.0215 197.123269 
L 271.502588 208.857925 
L 272.983676 210.307766 
L 274.464764 213.615218 
L 275.945853 218.145973 
L 277.426941 225.712334 
L 278.908029 229.065093 
L 280.389117 238.942139 
L 281.870206 233.414617 
L 283.351294 240.074827 
L 284.832382 241.88713 
L 286.31347 246.055424 
L 287.794559 250.722102 
L 289.275647 254.482629 
L 290.756735 255.524702 
L 292.237823 262.366143 
L 293.718912 247.913034 
L 295.2 250.087796 
L 296.681088 265.582979 
L 298.162177 259.375844 
L 299.643265 255.071627 
L 301.124353 255.57001 
L 302.605441 259.194614 
L 304.08653 273.828953 
L 305.567618 274.146106 
L 307.048706 268.573277 
L 308.529794 276.638021 
L 310.010883 285.835454 
L 311.491971 286.152607 
L 314.454147 285.291764 
L 315.935236 286.877528 
L 317.416324 289.097598 
L 318.897412 292.495664 
L 320.3785 294.670427 
L 321.859589 300.197948 
L 323.340677 301.64779 
L 324.821765 302.825786 
L 326.302853 303.686629 
L 327.783942 306.994081 
L 329.26503 309.395381 
L 330.746118 309.576611 
L 332.227206 311.570143 
L 333.708295 312.793447 
L 335.189383 312.476294 
L 336.670471 313.019985 
L 338.151559 314.016751 
L 339.632648 314.741672 
L 341.113736 313.337138 
L 342.594824 313.201215 
L 344.075912 314.696364 
L 345.557001 314.786979 
L 347.038089 314.605749 
L 348.519177 316.282129 
L 350.000265 315.557208 
L 351.481354 318.275661 
L 352.962442 319.680195 
L 354.44353 319.997348 
L 355.924618 320.450423 
L 357.405707 320.722269 
L 358.886795 320.586346 
L 360.367883 322.308033 
L 361.848971 322.398648 
L 366.292236 323.803182 
L 367.773324 323.939105 
L 369.254413 324.301565 
L 370.735501 325.570177 
L 372.216589 325.842022 
L 375.178766 326.566943 
L 378.140942 326.43102 
L 379.622031 327.201249 
L 381.103119 327.563709 
L 382.584207 328.198015 
L 385.546384 327.609017 
L 387.027472 327.744939 
L 388.50856 328.062092 
L 389.989648 328.243322 
L 391.470737 327.654324 
L 392.951825 328.062092 
L 394.432913 328.877628 
L 400.357266 329.557241 
L 401.838354 330.32747 
L 403.319443 329.647856 
L 406.281619 330.463392 
L 407.762707 330.32747 
L 409.243796 329.602549 
L 410.724884 329.874394 
L 416.649237 329.376011 
L 418.130325 329.466626 
L 419.611413 330.100932 
L 422.57359 330.100932 
L 424.054678 330.644622 
L 425.535766 331.007083 
L 427.016855 330.32747 
L 429.979031 330.282162 
L 431.460119 330.055624 
L 432.941208 330.146239 
L 434.422296 329.965009 
L 435.903384 329.647856 
L 438.865561 330.010317 
L 440.346649 330.055624 
L 441.827737 330.68993 
L 443.308825 330.961775 
L 446.271002 330.916468 
L 449.233179 330.916468 
L 450.714267 330.916468 
L 452.195355 329.783779 
L 455.157532 329.647856 
L 458.119708 329.874394 
L 461.081885 329.511934 
L 462.562973 329.602549 
L 464.044061 329.194781 
L 465.525149 328.968243 
L 467.006238 328.198015 
L 469.968414 327.020018 
L 471.449502 326.929403 
L 472.930591 326.43102 
L 474.411679 325.706099 
L 475.892767 324.845256 
L 478.854944 324.120335 
L 480.336032 324.21095 
L 481.81712 324.02972 
L 484.779297 321.265959 
L 486.260385 320.767576 
L 487.741473 319.544272 
L 489.222561 319.136504 
L 490.70365 318.411584 
L 492.184738 318.139738 
L 493.665826 318.366276 
L 495.146914 318.230353 
L 498.109091 316.282129 
L 498.109091 316.282129 
" style="fill:none;stroke:#1f77b4;stroke-linecap:square;stroke-width:1.75;"/>
   </g>
   <g id="line2d_20">
    <path clip-path="url(#p39b086c8d5)" d="M 92.290909 332.91 
L 191.523822 332.91 
L 194.485999 331.976416 
L 195.967087 330.57604 
L 197.448175 330.57604 
L 198.929263 330.109248 
L 200.410352 328.708873 
L 201.89144 326.841705 
L 203.372528 326.374913 
L 204.853616 324.040953 
L 206.334705 324.040953 
L 207.815793 320.306618 
L 209.296881 317.505866 
L 210.777969 318.43945 
L 212.259058 317.505866 
L 213.740146 308.170028 
L 215.221234 297.900605 
L 216.702322 285.764015 
L 219.664499 249.821036 
L 221.145587 249.354244 
L 222.626676 251.221412 
L 224.107764 226.948231 
L 225.588852 207.34297 
L 227.06994 183.069789 
L 228.551029 182.136205 
L 230.032117 181.669414 
L 231.513205 171.399991 
L 232.994293 168.132447 
L 234.475382 184.003373 
L 235.95647 177.468286 
L 237.437558 177.935078 
L 238.918646 173.267159 
L 240.399735 169.066031 
L 241.880823 175.601118 
L 243.361911 174.200743 
L 244.842999 160.196985 
L 246.324088 163.464528 
L 247.805176 173.733951 
L 249.286264 170.933199 
L 250.767352 175.134326 
L 252.248441 171.399991 
L 253.729529 170.933199 
L 255.210617 170.933199 
L 256.691705 168.132447 
L 258.172794 167.198864 
L 259.653882 178.40187 
L 261.13497 179.802246 
L 262.616058 182.602997 
L 264.097147 186.337333 
L 265.578235 198.473923 
L 267.059323 198.473923 
L 268.540411 198.940715 
L 270.0215 194.739588 
L 271.502588 198.473923 
L 272.983676 199.407507 
L 274.464764 199.407507 
L 275.945853 196.606755 
L 277.426941 206.876178 
L 278.908029 218.545976 
L 280.389117 219.946352 
L 281.870206 217.612392 
L 283.351294 218.079184 
L 284.832382 219.47956 
L 286.31347 229.282191 
L 287.794559 234.416902 
L 289.275647 233.016526 
L 290.756735 243.285949 
L 292.237823 254.955747 
L 293.718912 254.955747 
L 295.2 254.488955 
L 296.681088 259.623666 
L 298.162177 276.894968 
L 299.643265 288.564766 
L 301.124353 292.765894 
L 302.605441 289.965142 
L 304.08653 289.965142 
L 305.567618 290.898726 
L 307.048706 293.699478 
L 308.529794 294.633061 
L 310.010883 296.033437 
L 311.491971 296.500229 
L 312.973059 303.9689 
L 314.454147 308.170028 
L 315.935236 308.636819 
L 317.416324 310.970779 
L 318.897412 310.503987 
L 320.3785 312.371155 
L 321.859589 317.505866 
L 323.340677 317.972658 
L 324.821765 317.505866 
L 326.302853 317.505866 
L 327.783942 318.43945 
L 330.746118 321.240202 
L 332.227206 319.839826 
L 333.708295 321.240202 
L 335.189383 321.706994 
L 336.670471 321.706994 
L 338.151559 322.173786 
L 339.632648 324.507745 
L 341.113736 324.507745 
L 342.594824 327.308497 
L 344.075912 328.242081 
L 347.038089 328.242081 
L 348.519177 328.708873 
L 350.000265 330.109248 
L 351.481354 330.57604 
L 352.962442 330.109248 
L 357.405707 330.109248 
L 358.886795 331.042832 
L 360.367883 331.042832 
L 363.33006 331.976416 
L 367.773324 331.976416 
L 370.735501 332.91 
L 372.216589 332.443208 
L 381.103119 332.443208 
L 382.584207 332.91 
L 421.092502 332.91 
L 422.57359 332.443208 
L 431.460119 332.443208 
L 432.941208 331.976416 
L 441.827737 331.976416 
L 443.308825 332.443208 
L 444.789914 331.976416 
L 450.714267 331.976416 
L 452.195355 330.57604 
L 455.157532 331.509624 
L 461.081885 331.509624 
L 462.562973 332.443208 
L 464.044061 331.976416 
L 465.525149 331.976416 
L 467.006238 331.509624 
L 468.487326 330.109248 
L 472.930591 330.109248 
L 474.411679 329.642456 
L 475.892767 328.708873 
L 477.373855 328.708873 
L 478.854944 330.109248 
L 480.336032 329.642456 
L 481.81712 329.642456 
L 483.298208 330.109248 
L 484.779297 327.775289 
L 486.260385 327.308497 
L 487.741473 325.908121 
L 489.222561 324.040953 
L 490.70365 324.507745 
L 492.184738 324.507745 
L 493.665826 323.574161 
L 495.146914 326.374913 
L 498.109091 324.507745 
L 498.109091 324.507745 
" style="fill:none;stroke:#ff7f0e;stroke-linecap:square;stroke-width:1.75;"/>
   </g>
   <g id="line2d_21">
    <path clip-path="url(#p39b086c8d5)" d="M 92.290909 332.91 
L 197.448175 332.91 
L 198.929263 331.292288 
L 200.410352 324.012587 
L 201.89144 320.777163 
L 203.372528 319.968308 
L 204.853616 315.924029 
L 207.815793 306.21776 
L 209.296881 304.600048 
L 210.777969 303.791192 
L 212.259058 295.702635 
L 213.740146 290.8495 
L 215.221234 271.436961 
L 216.702322 260.921836 
L 218.183411 246.362433 
L 219.664499 239.082731 
L 221.145587 237.465019 
L 222.626676 226.949894 
L 224.107764 217.243625 
L 225.588852 214.008202 
L 227.06994 196.213375 
L 228.551029 192.169096 
L 230.032117 173.565413 
L 231.513205 168.712279 
L 232.994293 178.418548 
L 234.475382 178.418548 
L 235.95647 156.579442 
L 237.437558 163.859144 
L 238.918646 178.418548 
L 240.399735 184.889394 
L 241.880823 166.285711 
L 243.361911 171.138846 
L 244.842999 166.285711 
L 246.324088 202.684221 
L 247.805176 214.817058 
L 249.286264 134.740336 
L 250.767352 138.784615 
L 252.248441 160.623721 
L 253.729529 161.432577 
L 255.210617 167.903423 
L 256.691705 120.989788 
L 258.172794 116.945509 
L 259.653882 192.169096 
L 261.13497 175.183125 
L 262.616058 175.183125 
L 264.097147 170.32999 
L 265.578235 163.050288 
L 267.059323 205.110788 
L 268.540411 208.346211 
L 270.0215 199.448798 
L 271.502588 227.75875 
L 272.983676 229.376461 
L 274.464764 236.656163 
L 275.945853 244.744721 
L 277.426941 243.935865 
L 278.908029 250.406711 
L 280.389117 265.774971 
L 281.870206 258.495269 
L 283.351294 258.495269 
L 284.832382 259.304125 
L 286.31347 258.495269 
L 287.794559 264.966115 
L 289.275647 265.774971 
L 290.756735 267.392683 
L 292.237823 277.098952 
L 293.718912 281.143231 
L 295.2 278.716663 
L 296.681088 285.996365 
L 298.162177 288.422933 
L 299.643265 284.378654 
L 301.124353 281.952087 
L 302.605441 275.48124 
L 304.08653 272.245817 
L 305.567618 273.863529 
L 307.048706 274.672385 
L 308.529794 269.81925 
L 311.491971 279.525519 
L 312.973059 282.760942 
L 314.454147 287.614077 
L 315.935236 289.231788 
L 317.416324 287.614077 
L 318.897412 294.084923 
L 320.3785 295.702635 
L 321.859589 290.8495 
L 323.340677 294.084923 
L 324.821765 295.702635 
L 326.302853 294.893779 
L 327.783942 295.702635 
L 329.26503 294.893779 
L 330.746118 295.702635 
L 332.227206 300.555769 
L 333.708295 304.600048 
L 335.189383 306.21776 
L 338.151559 311.070894 
L 339.632648 312.688606 
L 341.113736 311.87975 
L 342.594824 313.497462 
L 344.075912 310.262038 
L 345.557001 309.453183 
L 347.038089 307.835471 
L 350.000265 311.070894 
L 351.481354 309.453183 
L 354.44353 309.453183 
L 355.924618 310.262038 
L 357.405707 312.688606 
L 358.886795 312.688606 
L 360.367883 314.306317 
L 361.848971 319.159452 
L 363.33006 320.777163 
L 364.811148 324.012587 
L 366.292236 324.821442 
L 367.773324 324.821442 
L 369.254413 325.630298 
L 372.216589 328.865721 
L 373.697678 328.056865 
L 375.178766 328.865721 
L 376.659854 328.056865 
L 378.140942 328.056865 
L 379.622031 329.674577 
L 381.103119 330.483433 
L 382.584207 330.483433 
L 384.065295 331.292288 
L 389.989648 331.292288 
L 391.470737 328.056865 
L 392.951825 328.056865 
L 394.432913 323.203731 
L 397.39509 319.968308 
L 398.876178 319.968308 
L 400.357266 319.159452 
L 401.838354 321.586019 
L 403.319443 319.159452 
L 404.800531 318.350596 
L 406.281619 319.159452 
L 407.762707 321.586019 
L 409.243796 321.586019 
L 410.724884 320.777163 
L 412.205972 318.350596 
L 413.68706 320.777163 
L 415.168149 326.439154 
L 416.649237 326.439154 
L 418.130325 324.821442 
L 419.611413 324.821442 
L 421.092502 326.439154 
L 422.57359 330.483433 
L 428.497943 330.483433 
L 429.979031 329.674577 
L 431.460119 329.674577 
L 434.422296 328.056865 
L 435.903384 328.056865 
L 437.384472 328.865721 
L 438.865561 330.483433 
L 440.346649 331.292288 
L 441.827737 330.483433 
L 444.789914 332.101144 
L 446.271002 332.101144 
L 447.75209 331.292288 
L 450.714267 331.292288 
L 452.195355 332.101144 
L 456.63862 332.101144 
L 458.119708 332.91 
L 464.044061 332.91 
L 465.525149 330.483433 
L 467.006238 329.674577 
L 468.487326 328.056865 
L 472.930591 328.056865 
L 474.411679 326.439154 
L 475.892767 328.056865 
L 477.373855 326.439154 
L 478.854944 325.630298 
L 481.81712 325.630298 
L 483.298208 323.203731 
L 484.779297 324.012587 
L 486.260385 319.968308 
L 487.741473 319.968308 
L 489.222561 318.350596 
L 492.184738 318.350596 
L 493.665826 312.688606 
L 495.146914 311.070894 
L 496.628003 315.115173 
L 498.109091 315.924029 
L 498.109091 315.924029 
" style="fill:none;stroke:#2ca02c;stroke-linecap:square;stroke-width:1.75;"/>
   </g>
   <g id="line2d_22">
    <path clip-path="url(#p39b086c8d5)" d="M 92.290909 332.91 
L 197.448175 332.91 
L 198.929263 331.563288 
L 200.410352 331.563288 
L 201.89144 330.216576 
L 204.853616 324.829727 
L 207.815793 316.749454 
L 209.296881 315.402742 
L 210.777969 307.322469 
L 212.259058 307.322469 
L 213.740146 301.93562 
L 215.221234 301.93562 
L 216.702322 297.895484 
L 218.183411 285.775074 
L 219.664499 277.694802 
L 221.145587 276.348089 
L 222.626676 268.267816 
L 224.107764 272.307953 
L 225.588852 268.267816 
L 228.551029 273.654665 
L 230.032117 264.22768 
L 231.513205 258.840831 
L 232.994293 260.187544 
L 234.475382 250.760558 
L 235.95647 249.413846 
L 237.437558 230.559876 
L 238.918646 219.786179 
L 240.399735 217.092754 
L 241.880823 230.559876 
L 243.361911 221.132891 
L 244.842999 217.092754 
L 246.324088 184.771663 
L 247.805176 191.505223 
L 249.286264 195.54536 
L 250.767352 196.892072 
L 252.248441 191.505223 
L 253.729529 195.54536 
L 255.210617 186.118375 
L 256.691705 214.39933 
L 258.172794 219.786179 
L 259.653882 215.746042 
L 261.13497 222.479603 
L 262.616058 222.479603 
L 264.097147 227.866452 
L 265.578235 231.906588 
L 267.059323 225.173027 
L 268.540411 231.906588 
L 270.0215 250.760558 
L 271.502588 260.187544 
L 272.983676 260.187544 
L 274.464764 264.22768 
L 275.945853 275.001377 
L 277.426941 291.161923 
L 278.908029 289.815211 
L 280.389117 275.001377 
L 281.870206 275.001377 
L 283.351294 277.694802 
L 284.832382 273.654665 
L 286.31347 276.348089 
L 287.794559 272.307953 
L 289.275647 269.614529 
L 290.756735 285.775074 
L 292.237823 289.815211 
L 293.718912 292.508635 
L 295.2 289.815211 
L 296.681088 299.242196 
L 298.162177 303.282333 
L 299.643265 310.015893 
L 304.08653 310.015893 
L 305.567618 319.442878 
L 307.048706 316.749454 
L 308.529794 308.669181 
L 310.010883 310.015893 
L 311.491971 312.709318 
L 312.973059 312.709318 
L 315.935236 315.402742 
L 317.416324 318.096166 
L 318.897412 328.869864 
L 321.859589 328.869864 
L 323.340677 327.523151 
L 326.302853 327.523151 
L 329.26503 324.829727 
L 330.746118 326.176439 
L 332.227206 326.176439 
L 333.708295 327.523151 
L 344.075912 327.523151 
L 347.038089 324.829727 
L 350.000265 327.523151 
L 352.962442 324.829727 
L 357.405707 328.869864 
L 360.367883 328.869864 
L 361.848971 330.216576 
L 363.33006 332.91 
L 366.292236 332.91 
L 367.773324 330.216576 
L 376.659854 330.216576 
L 378.140942 332.91 
L 407.762707 332.91 
L 409.243796 331.563288 
L 413.68706 331.563288 
L 415.168149 330.216576 
L 418.130325 330.216576 
L 419.611413 331.563288 
L 421.092502 330.216576 
L 424.054678 330.216576 
L 425.535766 331.563288 
L 429.979031 331.563288 
L 431.460119 332.91 
L 432.941208 332.91 
L 434.422296 331.563288 
L 441.827737 331.563288 
L 443.308825 328.869864 
L 444.789914 328.869864 
L 446.271002 327.523151 
L 449.233179 327.523151 
L 450.714267 326.176439 
L 452.195355 323.483015 
L 453.676443 326.176439 
L 455.157532 326.176439 
L 456.63862 327.523151 
L 459.600796 327.523151 
L 461.081885 326.176439 
L 462.562973 327.523151 
L 464.044061 324.829727 
L 465.525149 326.176439 
L 467.006238 323.483015 
L 471.449502 323.483015 
L 472.930591 324.829727 
L 474.411679 327.523151 
L 475.892767 327.523151 
L 477.373855 330.216576 
L 478.854944 328.869864 
L 480.336032 328.869864 
L 481.81712 331.563288 
L 483.298208 331.563288 
L 484.779297 330.216576 
L 486.260385 327.523151 
L 487.741473 326.176439 
L 489.222561 326.176439 
L 490.70365 324.829727 
L 492.184738 324.829727 
L 493.665826 323.483015 
L 495.146914 323.483015 
L 498.109091 326.176439 
L 498.109091 326.176439 
" style="fill:none;stroke:#d62728;stroke-linecap:square;stroke-width:1.75;"/>
   </g>
   <g id="patch_3">
    <path d="M 72 346.5 
L 72 47.52 
" style="fill:none;stroke:#000000;stroke-linecap:square;stroke-linejoin:miter;stroke-width:0.8;"/>
   </g>
   <g id="patch_4">
    <path d="M 518.4 346.5 
L 518.4 47.52 
" style="fill:none;stroke:#000000;stroke-linecap:square;stroke-linejoin:miter;stroke-width:0.8;"/>
   </g>
   <g id="patch_5">
    <path d="M 72 346.5 
L 518.4 346.5 
" style="fill:none;stroke:#000000;stroke-linecap:square;stroke-linejoin:miter;stroke-width:0.8;"/>
   </g>
   <g id="patch_6">
    <path d="M 72 47.52 
L 518.4 47.52 
" style="fill:none;stroke:#000000;stroke-linecap:square;stroke-linejoin:miter;stroke-width:0.8;"/>
   </g>
   <g id="text_20">
    <!-- New Cases per Million (7 day rolling) -->
    <defs>
     <path d="M 9.8125 72.90625 
L 23.09375 72.90625 
L 55.421875 11.921875 
L 55.421875 72.90625 
L 64.984375 72.90625 
L 64.984375 0 
L 51.703125 0 
L 19.390625 60.984375 
L 19.390625 0 
L 9.8125 0 
z
" id="DejaVuSans-78"/>
     <path d="M 4.203125 54.6875 
L 13.1875 54.6875 
L 24.421875 12.015625 
L 35.59375 54.6875 
L 46.1875 54.6875 
L 57.421875 12.015625 
L 68.609375 54.6875 
L 77.59375 54.6875 
L 63.28125 0 
L 52.6875 0 
L 40.921875 44.828125 
L 29.109375 0 
L 18.5 0 
z
" id="DejaVuSans-119"/>
     <path id="DejaVuSans-32"/>
     <path d="M 64.40625 67.28125 
L 64.40625 56.890625 
Q 59.421875 61.53125 53.78125 63.8125 
Q 48.140625 66.109375 41.796875 66.109375 
Q 29.296875 66.109375 22.65625 58.46875 
Q 16.015625 50.828125 16.015625 36.375 
Q 16.015625 21.96875 22.65625 14.328125 
Q 29.296875 6.6875 41.796875 6.6875 
Q 48.140625 6.6875 53.78125 8.984375 
Q 59.421875 11.28125 64.40625 15.921875 
L 64.40625 5.609375 
Q 59.234375 2.09375 53.4375 0.328125 
Q 47.65625 -1.421875 41.21875 -1.421875 
Q 24.65625 -1.421875 15.125 8.703125 
Q 5.609375 18.84375 5.609375 36.375 
Q 5.609375 53.953125 15.125 64.078125 
Q 24.65625 74.21875 41.21875 74.21875 
Q 47.75 74.21875 53.53125 72.484375 
Q 59.328125 70.75 64.40625 67.28125 
z
" id="DejaVuSans-67"/>
     <path d="M 44.28125 53.078125 
L 44.28125 44.578125 
Q 40.484375 46.53125 36.375 47.5 
Q 32.28125 48.484375 27.875 48.484375 
Q 21.1875 48.484375 17.84375 46.4375 
Q 14.5 44.390625 14.5 40.28125 
Q 14.5 37.15625 16.890625 35.375 
Q 19.28125 33.59375 26.515625 31.984375 
L 29.59375 31.296875 
Q 39.15625 29.25 43.1875 25.515625 
Q 47.21875 21.78125 47.21875 15.09375 
Q 47.21875 7.46875 41.1875 3.015625 
Q 35.15625 -1.421875 24.609375 -1.421875 
Q 20.21875 -1.421875 15.453125 -0.5625 
Q 10.6875 0.296875 5.421875 2 
L 5.421875 11.28125 
Q 10.40625 8.6875 15.234375 7.390625 
Q 20.0625 6.109375 24.8125 6.109375 
Q 31.15625 6.109375 34.5625 8.28125 
Q 37.984375 10.453125 37.984375 14.40625 
Q 37.984375 18.0625 35.515625 20.015625 
Q 33.0625 21.96875 24.703125 23.78125 
L 21.578125 24.515625 
Q 13.234375 26.265625 9.515625 29.90625 
Q 5.8125 33.546875 5.8125 39.890625 
Q 5.8125 47.609375 11.28125 51.796875 
Q 16.75 56 26.8125 56 
Q 31.78125 56 36.171875 55.265625 
Q 40.578125 54.546875 44.28125 53.078125 
z
" id="DejaVuSans-115"/>
     <path d="M 18.109375 8.203125 
L 18.109375 -20.796875 
L 9.078125 -20.796875 
L 9.078125 54.6875 
L 18.109375 54.6875 
L 18.109375 46.390625 
Q 20.953125 51.265625 25.265625 53.625 
Q 29.59375 56 35.59375 56 
Q 45.5625 56 51.78125 48.09375 
Q 58.015625 40.1875 58.015625 27.296875 
Q 58.015625 14.40625 51.78125 6.484375 
Q 45.5625 -1.421875 35.59375 -1.421875 
Q 29.59375 -1.421875 25.265625 0.953125 
Q 20.953125 3.328125 18.109375 8.203125 
z
M 48.6875 27.296875 
Q 48.6875 37.203125 44.609375 42.84375 
Q 40.53125 48.484375 33.40625 48.484375 
Q 26.265625 48.484375 22.1875 42.84375 
Q 18.109375 37.203125 18.109375 27.296875 
Q 18.109375 17.390625 22.1875 11.75 
Q 26.265625 6.109375 33.40625 6.109375 
Q 40.53125 6.109375 44.609375 11.75 
Q 48.6875 17.390625 48.6875 27.296875 
z
" id="DejaVuSans-112"/>
     <path d="M 41.109375 46.296875 
Q 39.59375 47.171875 37.8125 47.578125 
Q 36.03125 48 33.890625 48 
Q 26.265625 48 22.1875 43.046875 
Q 18.109375 38.09375 18.109375 28.8125 
L 18.109375 0 
L 9.078125 0 
L 9.078125 54.6875 
L 18.109375 54.6875 
L 18.109375 46.1875 
Q 20.953125 51.171875 25.484375 53.578125 
Q 30.03125 56 36.53125 56 
Q 37.453125 56 38.578125 55.875 
Q 39.703125 55.765625 41.0625 55.515625 
z
" id="DejaVuSans-114"/>
     <path d="M 9.8125 72.90625 
L 24.515625 72.90625 
L 43.109375 23.296875 
L 61.8125 72.90625 
L 76.515625 72.90625 
L 76.515625 0 
L 66.890625 0 
L 66.890625 64.015625 
L 48.09375 14.015625 
L 38.1875 14.015625 
L 19.390625 64.015625 
L 19.390625 0 
L 9.8125 0 
z
" id="DejaVuSans-77"/>
     <path d="M 9.421875 54.6875 
L 18.40625 54.6875 
L 18.40625 0 
L 9.421875 0 
z
M 9.421875 75.984375 
L 18.40625 75.984375 
L 18.40625 64.59375 
L 9.421875 64.59375 
z
" id="DejaVuSans-105"/>
     <path d="M 9.421875 75.984375 
L 18.40625 75.984375 
L 18.40625 0 
L 9.421875 0 
z
" id="DejaVuSans-108"/>
     <path d="M 30.609375 48.390625 
Q 23.390625 48.390625 19.1875 42.75 
Q 14.984375 37.109375 14.984375 27.296875 
Q 14.984375 17.484375 19.15625 11.84375 
Q 23.34375 6.203125 30.609375 6.203125 
Q 37.796875 6.203125 41.984375 11.859375 
Q 46.1875 17.53125 46.1875 27.296875 
Q 46.1875 37.015625 41.984375 42.703125 
Q 37.796875 48.390625 30.609375 48.390625 
z
M 30.609375 56 
Q 42.328125 56 49.015625 48.375 
Q 55.71875 40.765625 55.71875 27.296875 
Q 55.71875 13.875 49.015625 6.21875 
Q 42.328125 -1.421875 30.609375 -1.421875 
Q 18.84375 -1.421875 12.171875 6.21875 
Q 5.515625 13.875 5.515625 27.296875 
Q 5.515625 40.765625 12.171875 48.375 
Q 18.84375 56 30.609375 56 
z
" id="DejaVuSans-111"/>
     <path d="M 54.890625 33.015625 
L 54.890625 0 
L 45.90625 0 
L 45.90625 32.71875 
Q 45.90625 40.484375 42.875 44.328125 
Q 39.84375 48.1875 33.796875 48.1875 
Q 26.515625 48.1875 22.3125 43.546875 
Q 18.109375 38.921875 18.109375 30.90625 
L 18.109375 0 
L 9.078125 0 
L 9.078125 54.6875 
L 18.109375 54.6875 
L 18.109375 46.1875 
Q 21.34375 51.125 25.703125 53.5625 
Q 30.078125 56 35.796875 56 
Q 45.21875 56 50.046875 50.171875 
Q 54.890625 44.34375 54.890625 33.015625 
z
" id="DejaVuSans-110"/>
     <path d="M 31 75.875 
Q 24.46875 64.65625 21.28125 53.65625 
Q 18.109375 42.671875 18.109375 31.390625 
Q 18.109375 20.125 21.3125 9.0625 
Q 24.515625 -2 31 -13.1875 
L 23.1875 -13.1875 
Q 15.875 -1.703125 12.234375 9.375 
Q 8.59375 20.453125 8.59375 31.390625 
Q 8.59375 42.28125 12.203125 53.3125 
Q 15.828125 64.359375 23.1875 75.875 
z
" id="DejaVuSans-40"/>
     <path d="M 45.40625 46.390625 
L 45.40625 75.984375 
L 54.390625 75.984375 
L 54.390625 0 
L 45.40625 0 
L 45.40625 8.203125 
Q 42.578125 3.328125 38.25 0.953125 
Q 33.9375 -1.421875 27.875 -1.421875 
Q 17.96875 -1.421875 11.734375 6.484375 
Q 5.515625 14.40625 5.515625 27.296875 
Q 5.515625 40.1875 11.734375 48.09375 
Q 17.96875 56 27.875 56 
Q 33.9375 56 38.25 53.625 
Q 42.578125 51.265625 45.40625 46.390625 
z
M 14.796875 27.296875 
Q 14.796875 17.390625 18.875 11.75 
Q 22.953125 6.109375 30.078125 6.109375 
Q 37.203125 6.109375 41.296875 11.75 
Q 45.40625 17.390625 45.40625 27.296875 
Q 45.40625 37.203125 41.296875 42.84375 
Q 37.203125 48.484375 30.078125 48.484375 
Q 22.953125 48.484375 18.875 42.84375 
Q 14.796875 37.203125 14.796875 27.296875 
z
" id="DejaVuSans-100"/>
     <path d="M 32.171875 -5.078125 
Q 28.375 -14.84375 24.75 -17.8125 
Q 21.140625 -20.796875 15.09375 -20.796875 
L 7.90625 -20.796875 
L 7.90625 -13.28125 
L 13.1875 -13.28125 
Q 16.890625 -13.28125 18.9375 -11.515625 
Q 21 -9.765625 23.484375 -3.21875 
L 25.09375 0.875 
L 2.984375 54.6875 
L 12.5 54.6875 
L 29.59375 11.921875 
L 46.6875 54.6875 
L 56.203125 54.6875 
z
" id="DejaVuSans-121"/>
     <path d="M 45.40625 27.984375 
Q 45.40625 37.75 41.375 43.109375 
Q 37.359375 48.484375 30.078125 48.484375 
Q 22.859375 48.484375 18.828125 43.109375 
Q 14.796875 37.75 14.796875 27.984375 
Q 14.796875 18.265625 18.828125 12.890625 
Q 22.859375 7.515625 30.078125 7.515625 
Q 37.359375 7.515625 41.375 12.890625 
Q 45.40625 18.265625 45.40625 27.984375 
z
M 54.390625 6.78125 
Q 54.390625 -7.171875 48.1875 -13.984375 
Q 42 -20.796875 29.203125 -20.796875 
Q 24.46875 -20.796875 20.265625 -20.09375 
Q 16.0625 -19.390625 12.109375 -17.921875 
L 12.109375 -9.1875 
Q 16.0625 -11.328125 19.921875 -12.34375 
Q 23.78125 -13.375 27.78125 -13.375 
Q 36.625 -13.375 41.015625 -8.765625 
Q 45.40625 -4.15625 45.40625 5.171875 
L 45.40625 9.625 
Q 42.625 4.78125 38.28125 2.390625 
Q 33.9375 0 27.875 0 
Q 17.828125 0 11.671875 7.65625 
Q 5.515625 15.328125 5.515625 27.984375 
Q 5.515625 40.671875 11.671875 48.328125 
Q 17.828125 56 27.875 56 
Q 33.9375 56 38.28125 53.609375 
Q 42.625 51.21875 45.40625 46.390625 
L 45.40625 54.6875 
L 54.390625 54.6875 
z
" id="DejaVuSans-103"/>
     <path d="M 8.015625 75.875 
L 15.828125 75.875 
Q 23.140625 64.359375 26.78125 53.3125 
Q 30.421875 42.28125 30.421875 31.390625 
Q 30.421875 20.453125 26.78125 9.375 
Q 23.140625 -1.703125 15.828125 -13.1875 
L 8.015625 -13.1875 
Q 14.5 -2 17.703125 9.0625 
Q 20.90625 20.125 20.90625 31.390625 
Q 20.90625 42.671875 17.703125 53.65625 
Q 14.5 64.65625 8.015625 75.875 
z
" id="DejaVuSans-41"/>
    </defs>
    <g transform="translate(185.424375 41.52)scale(0.12 -0.12)">
     <use xlink:href="#DejaVuSans-78"/>
     <use x="74.804688" xlink:href="#DejaVuSans-101"/>
     <use x="136.328125" xlink:href="#DejaVuSans-119"/>
     <use x="218.115234" xlink:href="#DejaVuSans-32"/>
     <use x="249.902344" xlink:href="#DejaVuSans-67"/>
     <use x="319.726562" xlink:href="#DejaVuSans-97"/>
     <use x="381.005859" xlink:href="#DejaVuSans-115"/>
     <use x="433.105469" xlink:href="#DejaVuSans-101"/>
     <use x="494.628906" xlink:href="#DejaVuSans-115"/>
     <use x="546.728516" xlink:href="#DejaVuSans-32"/>
     <use x="578.515625" xlink:href="#DejaVuSans-112"/>
     <use x="641.992188" xlink:href="#DejaVuSans-101"/>
     <use x="703.515625" xlink:href="#DejaVuSans-114"/>
     <use x="744.628906" xlink:href="#DejaVuSans-32"/>
     <use x="776.416016" xlink:href="#DejaVuSans-77"/>
     <use x="862.695312" xlink:href="#DejaVuSans-105"/>
     <use x="890.478516" xlink:href="#DejaVuSans-108"/>
     <use x="918.261719" xlink:href="#DejaVuSans-108"/>
     <use x="946.044922" xlink:href="#DejaVuSans-105"/>
     <use x="973.828125" xlink:href="#DejaVuSans-111"/>
     <use x="1035.009766" xlink:href="#DejaVuSans-110"/>
     <use x="1098.388672" xlink:href="#DejaVuSans-32"/>
     <use x="1130.175781" xlink:href="#DejaVuSans-40"/>
     <use x="1169.189453" xlink:href="#DejaVuSans-55"/>
     <use x="1232.8125" xlink:href="#DejaVuSans-32"/>
     <use x="1264.599609" xlink:href="#DejaVuSans-100"/>
     <use x="1328.076172" xlink:href="#DejaVuSans-97"/>
     <use x="1389.355469" xlink:href="#DejaVuSans-121"/>
     <use x="1448.535156" xlink:href="#DejaVuSans-32"/>
     <use x="1480.322266" xlink:href="#DejaVuSans-114"/>
     <use x="1519.185547" xlink:href="#DejaVuSans-111"/>
     <use x="1580.367188" xlink:href="#DejaVuSans-108"/>
     <use x="1608.150391" xlink:href="#DejaVuSans-108"/>
     <use x="1635.933594" xlink:href="#DejaVuSans-105"/>
     <use x="1663.716797" xlink:href="#DejaVuSans-110"/>
     <use x="1727.095703" xlink:href="#DejaVuSans-103"/>
     <use x="1790.572266" xlink:href="#DejaVuSans-41"/>
    </g>
   </g>
   <g id="legend_1">
    <g id="patch_7">
     <path d="M 376.232812 114.2325 
L 511.4 114.2325 
Q 513.4 114.2325 513.4 112.2325 
L 513.4 54.52 
Q 513.4 52.52 511.4 52.52 
L 376.232812 52.52 
Q 374.232812 52.52 374.232812 54.52 
L 374.232812 112.2325 
Q 374.232812 114.2325 376.232812 114.2325 
z
" style="fill:#ffffff;opacity:0.8;stroke:#cccccc;stroke-linejoin:miter;stroke-width:0.3;"/>
    </g>
    <g id="line2d_23">
     <path d="M 378.232812 60.618437 
L 398.232812 60.618437 
" style="fill:none;stroke:#1f77b4;stroke-linecap:square;stroke-width:1.75;"/>
    </g>
    <g id="line2d_24"/>
    <g id="text_21">
     <!-- ENGLAND -->
     <defs>
      <path d="M 9.8125 72.90625 
L 55.90625 72.90625 
L 55.90625 64.59375 
L 19.671875 64.59375 
L 19.671875 43.015625 
L 54.390625 43.015625 
L 54.390625 34.71875 
L 19.671875 34.71875 
L 19.671875 8.296875 
L 56.78125 8.296875 
L 56.78125 0 
L 9.8125 0 
z
" id="DejaVuSans-69"/>
      <path d="M 59.515625 10.40625 
L 59.515625 29.984375 
L 43.40625 29.984375 
L 43.40625 38.09375 
L 69.28125 38.09375 
L 69.28125 6.78125 
Q 63.578125 2.734375 56.6875 0.65625 
Q 49.8125 -1.421875 42 -1.421875 
Q 24.90625 -1.421875 15.25 8.5625 
Q 5.609375 18.5625 5.609375 36.375 
Q 5.609375 54.25 15.25 64.234375 
Q 24.90625 74.21875 42 74.21875 
Q 49.125 74.21875 55.546875 72.453125 
Q 61.96875 70.703125 67.390625 67.28125 
L 67.390625 56.78125 
Q 61.921875 61.421875 55.765625 63.765625 
Q 49.609375 66.109375 42.828125 66.109375 
Q 29.4375 66.109375 22.71875 58.640625 
Q 16.015625 51.171875 16.015625 36.375 
Q 16.015625 21.625 22.71875 14.15625 
Q 29.4375 6.6875 42.828125 6.6875 
Q 48.046875 6.6875 52.140625 7.59375 
Q 56.25 8.5 59.515625 10.40625 
z
" id="DejaVuSans-71"/>
      <path d="M 9.8125 72.90625 
L 19.671875 72.90625 
L 19.671875 8.296875 
L 55.171875 8.296875 
L 55.171875 0 
L 9.8125 0 
z
" id="DejaVuSans-76"/>
      <path d="M 34.1875 63.1875 
L 20.796875 26.90625 
L 47.609375 26.90625 
z
M 28.609375 72.90625 
L 39.796875 72.90625 
L 67.578125 0 
L 57.328125 0 
L 50.6875 18.703125 
L 17.828125 18.703125 
L 11.1875 0 
L 0.78125 0 
z
" id="DejaVuSans-65"/>
     </defs>
     <g transform="translate(406.232812 64.118437)scale(0.1 -0.1)">
      <use xlink:href="#DejaVuSans-69"/>
      <use x="63.183594" xlink:href="#DejaVuSans-78"/>
      <use x="137.988281" xlink:href="#DejaVuSans-71"/>
      <use x="215.478516" xlink:href="#DejaVuSans-76"/>
      <use x="273.441406" xlink:href="#DejaVuSans-65"/>
      <use x="341.849609" xlink:href="#DejaVuSans-78"/>
      <use x="416.654297" xlink:href="#DejaVuSans-68"/>
     </g>
    </g>
    <g id="line2d_25">
     <path d="M 378.232812 75.296562 
L 398.232812 75.296562 
" style="fill:none;stroke:#ff7f0e;stroke-linecap:square;stroke-width:1.75;"/>
    </g>
    <g id="line2d_26"/>
    <g id="text_22">
     <!-- SCOTLAND -->
     <defs>
      <path d="M 53.515625 70.515625 
L 53.515625 60.890625 
Q 47.90625 63.578125 42.921875 64.890625 
Q 37.9375 66.21875 33.296875 66.21875 
Q 25.25 66.21875 20.875 63.09375 
Q 16.5 59.96875 16.5 54.203125 
Q 16.5 49.359375 19.40625 46.890625 
Q 22.3125 44.4375 30.421875 42.921875 
L 36.375 41.703125 
Q 47.40625 39.59375 52.65625 34.296875 
Q 57.90625 29 57.90625 20.125 
Q 57.90625 9.515625 50.796875 4.046875 
Q 43.703125 -1.421875 29.984375 -1.421875 
Q 24.8125 -1.421875 18.96875 -0.25 
Q 13.140625 0.921875 6.890625 3.21875 
L 6.890625 13.375 
Q 12.890625 10.015625 18.65625 8.296875 
Q 24.421875 6.59375 29.984375 6.59375 
Q 38.421875 6.59375 43.015625 9.90625 
Q 47.609375 13.234375 47.609375 19.390625 
Q 47.609375 24.75 44.3125 27.78125 
Q 41.015625 30.8125 33.5 32.328125 
L 27.484375 33.5 
Q 16.453125 35.6875 11.515625 40.375 
Q 6.59375 45.0625 6.59375 53.421875 
Q 6.59375 63.09375 13.40625 68.65625 
Q 20.21875 74.21875 32.171875 74.21875 
Q 37.3125 74.21875 42.625 73.28125 
Q 47.953125 72.359375 53.515625 70.515625 
z
" id="DejaVuSans-83"/>
      <path d="M 39.40625 66.21875 
Q 28.65625 66.21875 22.328125 58.203125 
Q 16.015625 50.203125 16.015625 36.375 
Q 16.015625 22.609375 22.328125 14.59375 
Q 28.65625 6.59375 39.40625 6.59375 
Q 50.140625 6.59375 56.421875 14.59375 
Q 62.703125 22.609375 62.703125 36.375 
Q 62.703125 50.203125 56.421875 58.203125 
Q 50.140625 66.21875 39.40625 66.21875 
z
M 39.40625 74.21875 
Q 54.734375 74.21875 63.90625 63.9375 
Q 73.09375 53.65625 73.09375 36.375 
Q 73.09375 19.140625 63.90625 8.859375 
Q 54.734375 -1.421875 39.40625 -1.421875 
Q 24.03125 -1.421875 14.8125 8.828125 
Q 5.609375 19.09375 5.609375 36.375 
Q 5.609375 53.65625 14.8125 63.9375 
Q 24.03125 74.21875 39.40625 74.21875 
z
" id="DejaVuSans-79"/>
      <path d="M -0.296875 72.90625 
L 61.375 72.90625 
L 61.375 64.59375 
L 35.5 64.59375 
L 35.5 0 
L 25.59375 0 
L 25.59375 64.59375 
L -0.296875 64.59375 
z
" id="DejaVuSans-84"/>
     </defs>
     <g transform="translate(406.232812 78.796562)scale(0.1 -0.1)">
      <use xlink:href="#DejaVuSans-83"/>
      <use x="63.476562" xlink:href="#DejaVuSans-67"/>
      <use x="133.300781" xlink:href="#DejaVuSans-79"/>
      <use x="212.011719" xlink:href="#DejaVuSans-84"/>
      <use x="273.095703" xlink:href="#DejaVuSans-76"/>
      <use x="331.058594" xlink:href="#DejaVuSans-65"/>
      <use x="399.466797" xlink:href="#DejaVuSans-78"/>
      <use x="474.271484" xlink:href="#DejaVuSans-68"/>
     </g>
    </g>
    <g id="line2d_27">
     <path d="M 378.232812 89.974687 
L 398.232812 89.974687 
" style="fill:none;stroke:#2ca02c;stroke-linecap:square;stroke-width:1.75;"/>
    </g>
    <g id="line2d_28"/>
    <g id="text_23">
     <!-- WALES -->
     <defs>
      <path d="M 3.328125 72.90625 
L 13.28125 72.90625 
L 28.609375 11.28125 
L 43.890625 72.90625 
L 54.984375 72.90625 
L 70.3125 11.28125 
L 85.59375 72.90625 
L 95.609375 72.90625 
L 77.296875 0 
L 64.890625 0 
L 49.515625 63.28125 
L 33.984375 0 
L 21.578125 0 
z
" id="DejaVuSans-87"/>
     </defs>
     <g transform="translate(406.232812 93.474687)scale(0.1 -0.1)">
      <use xlink:href="#DejaVuSans-87"/>
      <use x="93.376953" xlink:href="#DejaVuSans-65"/>
      <use x="161.785156" xlink:href="#DejaVuSans-76"/>
      <use x="217.498047" xlink:href="#DejaVuSans-69"/>
      <use x="280.681641" xlink:href="#DejaVuSans-83"/>
     </g>
    </g>
    <g id="line2d_29">
     <path d="M 378.232812 104.652812 
L 398.232812 104.652812 
" style="fill:none;stroke:#d62728;stroke-linecap:square;stroke-width:1.75;"/>
    </g>
    <g id="line2d_30"/>
    <g id="text_24">
     <!-- NORTHERN IRELAND -->
     <defs>
      <path d="M 44.390625 34.1875 
Q 47.5625 33.109375 50.5625 29.59375 
Q 53.5625 26.078125 56.59375 19.921875 
L 66.609375 0 
L 56 0 
L 46.6875 18.703125 
Q 43.0625 26.03125 39.671875 28.421875 
Q 36.28125 30.8125 30.421875 30.8125 
L 19.671875 30.8125 
L 19.671875 0 
L 9.8125 0 
L 9.8125 72.90625 
L 32.078125 72.90625 
Q 44.578125 72.90625 50.734375 67.671875 
Q 56.890625 62.453125 56.890625 51.90625 
Q 56.890625 45.015625 53.6875 40.46875 
Q 50.484375 35.9375 44.390625 34.1875 
z
M 19.671875 64.796875 
L 19.671875 38.921875 
L 32.078125 38.921875 
Q 39.203125 38.921875 42.84375 42.21875 
Q 46.484375 45.515625 46.484375 51.90625 
Q 46.484375 58.296875 42.84375 61.546875 
Q 39.203125 64.796875 32.078125 64.796875 
z
" id="DejaVuSans-82"/>
      <path d="M 9.8125 72.90625 
L 19.671875 72.90625 
L 19.671875 43.015625 
L 55.515625 43.015625 
L 55.515625 72.90625 
L 65.375 72.90625 
L 65.375 0 
L 55.515625 0 
L 55.515625 34.71875 
L 19.671875 34.71875 
L 19.671875 0 
L 9.8125 0 
z
" id="DejaVuSans-72"/>
      <path d="M 9.8125 72.90625 
L 19.671875 72.90625 
L 19.671875 0 
L 9.8125 0 
z
" id="DejaVuSans-73"/>
     </defs>
     <g transform="translate(406.232812 108.152812)scale(0.1 -0.1)">
      <use xlink:href="#DejaVuSans-78"/>
      <use x="74.804688" xlink:href="#DejaVuSans-79"/>
      <use x="153.515625" xlink:href="#DejaVuSans-82"/>
      <use x="215.748047" xlink:href="#DejaVuSans-84"/>
      <use x="276.832031" xlink:href="#DejaVuSans-72"/>
      <use x="352.027344" xlink:href="#DejaVuSans-69"/>
      <use x="415.210938" xlink:href="#DejaVuSans-82"/>
      <use x="484.693359" xlink:href="#DejaVuSans-78"/>
      <use x="559.498047" xlink:href="#DejaVuSans-32"/>
      <use x="591.285156" xlink:href="#DejaVuSans-73"/>
      <use x="620.777344" xlink:href="#DejaVuSans-82"/>
      <use x="690.259766" xlink:href="#DejaVuSans-69"/>
      <use x="753.443359" xlink:href="#DejaVuSans-76"/>
      <use x="811.40625" xlink:href="#DejaVuSans-65"/>
      <use x="879.814453" xlink:href="#DejaVuSans-78"/>
      <use x="954.619141" xlink:href="#DejaVuSans-68"/>
     </g>
    </g>
   </g>
  </g>
 </g>
 <defs>
  <clipPath id="p39b086c8d5">
   <rect height="298.98" width="446.4" x="72" y="47.52"/>
  </clipPath>
 </defs>
</svg>
