<?xml version="1.0" encoding="utf-8" standalone="no"?>
<!DOCTYPE svg PUBLIC "-//W3C//DTD SVG 1.1//EN"
  "http://www.w3.org/Graphics/SVG/1.1/DTD/svg11.dtd">
<!-- Created with matplotlib (https://matplotlib.org/) -->
<svg height="360pt" version="1.1" viewBox="0 0 540 360" width="540pt" xmlns="http://www.w3.org/2000/svg" xmlns:xlink="http://www.w3.org/1999/xlink">
 <defs>
  <style type="text/css">
*{stroke-linecap:butt;stroke-linejoin:round;}
  </style>
 </defs>
 <g id="figure_1">
  <g id="patch_1">
   <path d="M 0 360 
L 540 360 
L 540 0 
L 0 0 
z
" style="fill:#ffffff;"/>
  </g>
  <g id="axes_1">
   <g id="patch_2">
    <path d="M 44.069754 295.102246 
L 529.2 295.102246 
L 529.2 26.8 
L 44.069754 26.8 
z
" style="fill:#ffffff;"/>
   </g>
   <g id="matplotlib.axis_1">
    <g id="xtick_1">
     <g id="line2d_1">
      <defs>
       <path d="M 0 0 
L 0 3.5 
" id="m08d39e7e9c" style="stroke:#000000;"/>
      </defs>
      <g>
       <use style="stroke:#000000;" x="53.337724" xlink:href="#m08d39e7e9c" y="295.102246"/>
      </g>
     </g>
     <g id="text_1">
      <!-- 2020-01 -->
      <defs>
       <path d="M 19.1875 8.296875 
L 53.609375 8.296875 
L 53.609375 0 
L 7.328125 0 
L 7.328125 8.296875 
Q 12.9375 14.109375 22.625 23.890625 
Q 32.328125 33.6875 34.8125 36.53125 
Q 39.546875 41.84375 41.421875 45.53125 
Q 43.3125 49.21875 43.3125 52.78125 
Q 43.3125 58.59375 39.234375 62.25 
Q 35.15625 65.921875 28.609375 65.921875 
Q 23.96875 65.921875 18.8125 64.3125 
Q 13.671875 62.703125 7.8125 59.421875 
L 7.8125 69.390625 
Q 13.765625 71.78125 18.9375 73 
Q 24.125 74.21875 28.421875 74.21875 
Q 39.75 74.21875 46.484375 68.546875 
Q 53.21875 62.890625 53.21875 53.421875 
Q 53.21875 48.921875 51.53125 44.890625 
Q 49.859375 40.875 45.40625 35.40625 
Q 44.1875 33.984375 37.640625 27.21875 
Q 31.109375 20.453125 19.1875 8.296875 
z
" id="DejaVuSans-50"/>
       <path d="M 31.78125 66.40625 
Q 24.171875 66.40625 20.328125 58.90625 
Q 16.5 51.421875 16.5 36.375 
Q 16.5 21.390625 20.328125 13.890625 
Q 24.171875 6.390625 31.78125 6.390625 
Q 39.453125 6.390625 43.28125 13.890625 
Q 47.125 21.390625 47.125 36.375 
Q 47.125 51.421875 43.28125 58.90625 
Q 39.453125 66.40625 31.78125 66.40625 
z
M 31.78125 74.21875 
Q 44.046875 74.21875 50.515625 64.515625 
Q 56.984375 54.828125 56.984375 36.375 
Q 56.984375 17.96875 50.515625 8.265625 
Q 44.046875 -1.421875 31.78125 -1.421875 
Q 19.53125 -1.421875 13.0625 8.265625 
Q 6.59375 17.96875 6.59375 36.375 
Q 6.59375 54.828125 13.0625 64.515625 
Q 19.53125 74.21875 31.78125 74.21875 
z
" id="DejaVuSans-48"/>
       <path d="M 4.890625 31.390625 
L 31.203125 31.390625 
L 31.203125 23.390625 
L 4.890625 23.390625 
z
" id="DejaVuSans-45"/>
       <path d="M 12.40625 8.296875 
L 28.515625 8.296875 
L 28.515625 63.921875 
L 10.984375 60.40625 
L 10.984375 69.390625 
L 28.421875 72.90625 
L 38.28125 72.90625 
L 38.28125 8.296875 
L 54.390625 8.296875 
L 54.390625 0 
L 12.40625 0 
z
" id="DejaVuSans-49"/>
      </defs>
      <g transform="translate(16.112903 333.074092)rotate(-30)scale(0.1 -0.1)">
       <use xlink:href="#DejaVuSans-50"/>
       <use x="63.623047" xlink:href="#DejaVuSans-48"/>
       <use x="127.246094" xlink:href="#DejaVuSans-50"/>
       <use x="190.869141" xlink:href="#DejaVuSans-48"/>
       <use x="254.492188" xlink:href="#DejaVuSans-45"/>
       <use x="290.576172" xlink:href="#DejaVuSans-48"/>
       <use x="354.199219" xlink:href="#DejaVuSans-49"/>
      </g>
     </g>
    </g>
    <g id="xtick_2">
     <g id="line2d_2">
      <g>
       <use style="stroke:#000000;" x="102.873421" xlink:href="#m08d39e7e9c" y="295.102246"/>
      </g>
     </g>
     <g id="text_2">
      <!-- 2020-02 -->
      <g transform="translate(65.6486 333.074092)rotate(-30)scale(0.1 -0.1)">
       <use xlink:href="#DejaVuSans-50"/>
       <use x="63.623047" xlink:href="#DejaVuSans-48"/>
       <use x="127.246094" xlink:href="#DejaVuSans-50"/>
       <use x="190.869141" xlink:href="#DejaVuSans-48"/>
       <use x="254.492188" xlink:href="#DejaVuSans-45"/>
       <use x="290.576172" xlink:href="#DejaVuSans-48"/>
       <use x="354.199219" xlink:href="#DejaVuSans-50"/>
      </g>
     </g>
    </g>
    <g id="xtick_3">
     <g id="line2d_3">
      <g>
       <use style="stroke:#000000;" x="149.213266" xlink:href="#m08d39e7e9c" y="295.102246"/>
      </g>
     </g>
     <g id="text_3">
      <!-- 2020-03 -->
      <defs>
       <path d="M 40.578125 39.3125 
Q 47.65625 37.796875 51.625 33 
Q 55.609375 28.21875 55.609375 21.1875 
Q 55.609375 10.40625 48.1875 4.484375 
Q 40.765625 -1.421875 27.09375 -1.421875 
Q 22.515625 -1.421875 17.65625 -0.515625 
Q 12.796875 0.390625 7.625 2.203125 
L 7.625 11.71875 
Q 11.71875 9.328125 16.59375 8.109375 
Q 21.484375 6.890625 26.8125 6.890625 
Q 36.078125 6.890625 40.9375 10.546875 
Q 45.796875 14.203125 45.796875 21.1875 
Q 45.796875 27.640625 41.28125 31.265625 
Q 36.765625 34.90625 28.71875 34.90625 
L 20.21875 34.90625 
L 20.21875 43.015625 
L 29.109375 43.015625 
Q 36.375 43.015625 40.234375 45.921875 
Q 44.09375 48.828125 44.09375 54.296875 
Q 44.09375 59.90625 40.109375 62.90625 
Q 36.140625 65.921875 28.71875 65.921875 
Q 24.65625 65.921875 20.015625 65.03125 
Q 15.375 64.15625 9.8125 62.3125 
L 9.8125 71.09375 
Q 15.4375 72.65625 20.34375 73.4375 
Q 25.25 74.21875 29.59375 74.21875 
Q 40.828125 74.21875 47.359375 69.109375 
Q 53.90625 64.015625 53.90625 55.328125 
Q 53.90625 49.265625 50.4375 45.09375 
Q 46.96875 40.921875 40.578125 39.3125 
z
" id="DejaVuSans-51"/>
      </defs>
      <g transform="translate(111.988445 333.074092)rotate(-30)scale(0.1 -0.1)">
       <use xlink:href="#DejaVuSans-50"/>
       <use x="63.623047" xlink:href="#DejaVuSans-48"/>
       <use x="127.246094" xlink:href="#DejaVuSans-50"/>
       <use x="190.869141" xlink:href="#DejaVuSans-48"/>
       <use x="254.492188" xlink:href="#DejaVuSans-45"/>
       <use x="290.576172" xlink:href="#DejaVuSans-48"/>
       <use x="354.199219" xlink:href="#DejaVuSans-51"/>
      </g>
     </g>
    </g>
    <g id="xtick_4">
     <g id="line2d_4">
      <g>
       <use style="stroke:#000000;" x="198.748963" xlink:href="#m08d39e7e9c" y="295.102246"/>
      </g>
     </g>
     <g id="text_4">
      <!-- 2020-04 -->
      <defs>
       <path d="M 37.796875 64.3125 
L 12.890625 25.390625 
L 37.796875 25.390625 
z
M 35.203125 72.90625 
L 47.609375 72.90625 
L 47.609375 25.390625 
L 58.015625 25.390625 
L 58.015625 17.1875 
L 47.609375 17.1875 
L 47.609375 0 
L 37.796875 0 
L 37.796875 17.1875 
L 4.890625 17.1875 
L 4.890625 26.703125 
z
" id="DejaVuSans-52"/>
      </defs>
      <g transform="translate(161.524142 333.074092)rotate(-30)scale(0.1 -0.1)">
       <use xlink:href="#DejaVuSans-50"/>
       <use x="63.623047" xlink:href="#DejaVuSans-48"/>
       <use x="127.246094" xlink:href="#DejaVuSans-50"/>
       <use x="190.869141" xlink:href="#DejaVuSans-48"/>
       <use x="254.492188" xlink:href="#DejaVuSans-45"/>
       <use x="290.576172" xlink:href="#DejaVuSans-48"/>
       <use x="354.199219" xlink:href="#DejaVuSans-52"/>
      </g>
     </g>
    </g>
    <g id="xtick_5">
     <g id="line2d_5">
      <g>
       <use style="stroke:#000000;" x="246.686735" xlink:href="#m08d39e7e9c" y="295.102246"/>
      </g>
     </g>
     <g id="text_5">
      <!-- 2020-05 -->
      <defs>
       <path d="M 10.796875 72.90625 
L 49.515625 72.90625 
L 49.515625 64.59375 
L 19.828125 64.59375 
L 19.828125 46.734375 
Q 21.96875 47.46875 24.109375 47.828125 
Q 26.265625 48.1875 28.421875 48.1875 
Q 40.625 48.1875 47.75 41.5 
Q 54.890625 34.8125 54.890625 23.390625 
Q 54.890625 11.625 47.5625 5.09375 
Q 40.234375 -1.421875 26.90625 -1.421875 
Q 22.3125 -1.421875 17.546875 -0.640625 
Q 12.796875 0.140625 7.71875 1.703125 
L 7.71875 11.625 
Q 12.109375 9.234375 16.796875 8.0625 
Q 21.484375 6.890625 26.703125 6.890625 
Q 35.15625 6.890625 40.078125 11.328125 
Q 45.015625 15.765625 45.015625 23.390625 
Q 45.015625 31 40.078125 35.4375 
Q 35.15625 39.890625 26.703125 39.890625 
Q 22.75 39.890625 18.8125 39.015625 
Q 14.890625 38.140625 10.796875 36.28125 
z
" id="DejaVuSans-53"/>
      </defs>
      <g transform="translate(209.461914 333.074092)rotate(-30)scale(0.1 -0.1)">
       <use xlink:href="#DejaVuSans-50"/>
       <use x="63.623047" xlink:href="#DejaVuSans-48"/>
       <use x="127.246094" xlink:href="#DejaVuSans-50"/>
       <use x="190.869141" xlink:href="#DejaVuSans-48"/>
       <use x="254.492188" xlink:href="#DejaVuSans-45"/>
       <use x="290.576172" xlink:href="#DejaVuSans-48"/>
       <use x="354.199219" xlink:href="#DejaVuSans-53"/>
      </g>
     </g>
    </g>
    <g id="xtick_6">
     <g id="line2d_6">
      <g>
       <use style="stroke:#000000;" x="296.222432" xlink:href="#m08d39e7e9c" y="295.102246"/>
      </g>
     </g>
     <g id="text_6">
      <!-- 2020-06 -->
      <defs>
       <path d="M 33.015625 40.375 
Q 26.375 40.375 22.484375 35.828125 
Q 18.609375 31.296875 18.609375 23.390625 
Q 18.609375 15.53125 22.484375 10.953125 
Q 26.375 6.390625 33.015625 6.390625 
Q 39.65625 6.390625 43.53125 10.953125 
Q 47.40625 15.53125 47.40625 23.390625 
Q 47.40625 31.296875 43.53125 35.828125 
Q 39.65625 40.375 33.015625 40.375 
z
M 52.59375 71.296875 
L 52.59375 62.3125 
Q 48.875 64.0625 45.09375 64.984375 
Q 41.3125 65.921875 37.59375 65.921875 
Q 27.828125 65.921875 22.671875 59.328125 
Q 17.53125 52.734375 16.796875 39.40625 
Q 19.671875 43.65625 24.015625 45.921875 
Q 28.375 48.1875 33.59375 48.1875 
Q 44.578125 48.1875 50.953125 41.515625 
Q 57.328125 34.859375 57.328125 23.390625 
Q 57.328125 12.15625 50.6875 5.359375 
Q 44.046875 -1.421875 33.015625 -1.421875 
Q 20.359375 -1.421875 13.671875 8.265625 
Q 6.984375 17.96875 6.984375 36.375 
Q 6.984375 53.65625 15.1875 63.9375 
Q 23.390625 74.21875 37.203125 74.21875 
Q 40.921875 74.21875 44.703125 73.484375 
Q 48.484375 72.75 52.59375 71.296875 
z
" id="DejaVuSans-54"/>
      </defs>
      <g transform="translate(258.997611 333.074092)rotate(-30)scale(0.1 -0.1)">
       <use xlink:href="#DejaVuSans-50"/>
       <use x="63.623047" xlink:href="#DejaVuSans-48"/>
       <use x="127.246094" xlink:href="#DejaVuSans-50"/>
       <use x="190.869141" xlink:href="#DejaVuSans-48"/>
       <use x="254.492188" xlink:href="#DejaVuSans-45"/>
       <use x="290.576172" xlink:href="#DejaVuSans-48"/>
       <use x="354.199219" xlink:href="#DejaVuSans-54"/>
      </g>
     </g>
    </g>
    <g id="xtick_7">
     <g id="line2d_7">
      <g>
       <use style="stroke:#000000;" x="344.160203" xlink:href="#m08d39e7e9c" y="295.102246"/>
      </g>
     </g>
     <g id="text_7">
      <!-- 2020-07 -->
      <defs>
       <path d="M 8.203125 72.90625 
L 55.078125 72.90625 
L 55.078125 68.703125 
L 28.609375 0 
L 18.3125 0 
L 43.21875 64.59375 
L 8.203125 64.59375 
z
" id="DejaVuSans-55"/>
      </defs>
      <g transform="translate(306.935382 333.074092)rotate(-30)scale(0.1 -0.1)">
       <use xlink:href="#DejaVuSans-50"/>
       <use x="63.623047" xlink:href="#DejaVuSans-48"/>
       <use x="127.246094" xlink:href="#DejaVuSans-50"/>
       <use x="190.869141" xlink:href="#DejaVuSans-48"/>
       <use x="254.492188" xlink:href="#DejaVuSans-45"/>
       <use x="290.576172" xlink:href="#DejaVuSans-48"/>
       <use x="354.199219" xlink:href="#DejaVuSans-55"/>
      </g>
     </g>
    </g>
    <g id="xtick_8">
     <g id="line2d_8">
      <g>
       <use style="stroke:#000000;" x="393.6959" xlink:href="#m08d39e7e9c" y="295.102246"/>
      </g>
     </g>
     <g id="text_8">
      <!-- 2020-08 -->
      <defs>
       <path d="M 31.78125 34.625 
Q 24.75 34.625 20.71875 30.859375 
Q 16.703125 27.09375 16.703125 20.515625 
Q 16.703125 13.921875 20.71875 10.15625 
Q 24.75 6.390625 31.78125 6.390625 
Q 38.8125 6.390625 42.859375 10.171875 
Q 46.921875 13.96875 46.921875 20.515625 
Q 46.921875 27.09375 42.890625 30.859375 
Q 38.875 34.625 31.78125 34.625 
z
M 21.921875 38.8125 
Q 15.578125 40.375 12.03125 44.71875 
Q 8.5 49.078125 8.5 55.328125 
Q 8.5 64.0625 14.71875 69.140625 
Q 20.953125 74.21875 31.78125 74.21875 
Q 42.671875 74.21875 48.875 69.140625 
Q 55.078125 64.0625 55.078125 55.328125 
Q 55.078125 49.078125 51.53125 44.71875 
Q 48 40.375 41.703125 38.8125 
Q 48.828125 37.15625 52.796875 32.3125 
Q 56.78125 27.484375 56.78125 20.515625 
Q 56.78125 9.90625 50.3125 4.234375 
Q 43.84375 -1.421875 31.78125 -1.421875 
Q 19.734375 -1.421875 13.25 4.234375 
Q 6.78125 9.90625 6.78125 20.515625 
Q 6.78125 27.484375 10.78125 32.3125 
Q 14.796875 37.15625 21.921875 38.8125 
z
M 18.3125 54.390625 
Q 18.3125 48.734375 21.84375 45.5625 
Q 25.390625 42.390625 31.78125 42.390625 
Q 38.140625 42.390625 41.71875 45.5625 
Q 45.3125 48.734375 45.3125 54.390625 
Q 45.3125 60.0625 41.71875 63.234375 
Q 38.140625 66.40625 31.78125 66.40625 
Q 25.390625 66.40625 21.84375 63.234375 
Q 18.3125 60.0625 18.3125 54.390625 
z
" id="DejaVuSans-56"/>
      </defs>
      <g transform="translate(356.471079 333.074092)rotate(-30)scale(0.1 -0.1)">
       <use xlink:href="#DejaVuSans-50"/>
       <use x="63.623047" xlink:href="#DejaVuSans-48"/>
       <use x="127.246094" xlink:href="#DejaVuSans-50"/>
       <use x="190.869141" xlink:href="#DejaVuSans-48"/>
       <use x="254.492188" xlink:href="#DejaVuSans-45"/>
       <use x="290.576172" xlink:href="#DejaVuSans-48"/>
       <use x="354.199219" xlink:href="#DejaVuSans-56"/>
      </g>
     </g>
    </g>
    <g id="xtick_9">
     <g id="line2d_9">
      <g>
       <use style="stroke:#000000;" x="443.231597" xlink:href="#m08d39e7e9c" y="295.102246"/>
      </g>
     </g>
     <g id="text_9">
      <!-- 2020-09 -->
      <defs>
       <path d="M 10.984375 1.515625 
L 10.984375 10.5 
Q 14.703125 8.734375 18.5 7.8125 
Q 22.3125 6.890625 25.984375 6.890625 
Q 35.75 6.890625 40.890625 13.453125 
Q 46.046875 20.015625 46.78125 33.40625 
Q 43.953125 29.203125 39.59375 26.953125 
Q 35.25 24.703125 29.984375 24.703125 
Q 19.046875 24.703125 12.671875 31.3125 
Q 6.296875 37.9375 6.296875 49.421875 
Q 6.296875 60.640625 12.9375 67.421875 
Q 19.578125 74.21875 30.609375 74.21875 
Q 43.265625 74.21875 49.921875 64.515625 
Q 56.59375 54.828125 56.59375 36.375 
Q 56.59375 19.140625 48.40625 8.859375 
Q 40.234375 -1.421875 26.421875 -1.421875 
Q 22.703125 -1.421875 18.890625 -0.6875 
Q 15.09375 0.046875 10.984375 1.515625 
z
M 30.609375 32.421875 
Q 37.25 32.421875 41.125 36.953125 
Q 45.015625 41.5 45.015625 49.421875 
Q 45.015625 57.28125 41.125 61.84375 
Q 37.25 66.40625 30.609375 66.40625 
Q 23.96875 66.40625 20.09375 61.84375 
Q 16.21875 57.28125 16.21875 49.421875 
Q 16.21875 41.5 20.09375 36.953125 
Q 23.96875 32.421875 30.609375 32.421875 
z
" id="DejaVuSans-57"/>
      </defs>
      <g transform="translate(406.006776 333.074092)rotate(-30)scale(0.1 -0.1)">
       <use xlink:href="#DejaVuSans-50"/>
       <use x="63.623047" xlink:href="#DejaVuSans-48"/>
       <use x="127.246094" xlink:href="#DejaVuSans-50"/>
       <use x="190.869141" xlink:href="#DejaVuSans-48"/>
       <use x="254.492188" xlink:href="#DejaVuSans-45"/>
       <use x="290.576172" xlink:href="#DejaVuSans-48"/>
       <use x="354.199219" xlink:href="#DejaVuSans-57"/>
      </g>
     </g>
    </g>
    <g id="xtick_10">
     <g id="line2d_10">
      <g>
       <use style="stroke:#000000;" x="491.169368" xlink:href="#m08d39e7e9c" y="295.102246"/>
      </g>
     </g>
     <g id="text_10">
      <!-- 2020-10 -->
      <g transform="translate(453.944547 333.074092)rotate(-30)scale(0.1 -0.1)">
       <use xlink:href="#DejaVuSans-50"/>
       <use x="63.623047" xlink:href="#DejaVuSans-48"/>
       <use x="127.246094" xlink:href="#DejaVuSans-50"/>
       <use x="190.869141" xlink:href="#DejaVuSans-48"/>
       <use x="254.492188" xlink:href="#DejaVuSans-45"/>
       <use x="290.576172" xlink:href="#DejaVuSans-49"/>
       <use x="354.199219" xlink:href="#DejaVuSans-48"/>
      </g>
     </g>
    </g>
    <g id="text_11">
     <!-- Date -->
     <defs>
      <path d="M 19.671875 64.796875 
L 19.671875 8.109375 
L 31.59375 8.109375 
Q 46.6875 8.109375 53.6875 14.9375 
Q 60.6875 21.78125 60.6875 36.53125 
Q 60.6875 51.171875 53.6875 57.984375 
Q 46.6875 64.796875 31.59375 64.796875 
z
M 9.8125 72.90625 
L 30.078125 72.90625 
Q 51.265625 72.90625 61.171875 64.09375 
Q 71.09375 55.28125 71.09375 36.53125 
Q 71.09375 17.671875 61.125 8.828125 
Q 51.171875 0 30.078125 0 
L 9.8125 0 
z
" id="DejaVuSans-68"/>
      <path d="M 34.28125 27.484375 
Q 23.390625 27.484375 19.1875 25 
Q 14.984375 22.515625 14.984375 16.5 
Q 14.984375 11.71875 18.140625 8.90625 
Q 21.296875 6.109375 26.703125 6.109375 
Q 34.1875 6.109375 38.703125 11.40625 
Q 43.21875 16.703125 43.21875 25.484375 
L 43.21875 27.484375 
z
M 52.203125 31.203125 
L 52.203125 0 
L 43.21875 0 
L 43.21875 8.296875 
Q 40.140625 3.328125 35.546875 0.953125 
Q 30.953125 -1.421875 24.3125 -1.421875 
Q 15.921875 -1.421875 10.953125 3.296875 
Q 6 8.015625 6 15.921875 
Q 6 25.140625 12.171875 29.828125 
Q 18.359375 34.515625 30.609375 34.515625 
L 43.21875 34.515625 
L 43.21875 35.40625 
Q 43.21875 41.609375 39.140625 45 
Q 35.0625 48.390625 27.6875 48.390625 
Q 23 48.390625 18.546875 47.265625 
Q 14.109375 46.140625 10.015625 43.890625 
L 10.015625 52.203125 
Q 14.9375 54.109375 19.578125 55.046875 
Q 24.21875 56 28.609375 56 
Q 40.484375 56 46.34375 49.84375 
Q 52.203125 43.703125 52.203125 31.203125 
z
" id="DejaVuSans-97"/>
      <path d="M 18.3125 70.21875 
L 18.3125 54.6875 
L 36.8125 54.6875 
L 36.8125 47.703125 
L 18.3125 47.703125 
L 18.3125 18.015625 
Q 18.3125 11.328125 20.140625 9.421875 
Q 21.96875 7.515625 27.59375 7.515625 
L 36.8125 7.515625 
L 36.8125 0 
L 27.59375 0 
Q 17.1875 0 13.234375 3.875 
Q 9.28125 7.765625 9.28125 18.015625 
L 9.28125 47.703125 
L 2.6875 47.703125 
L 2.6875 54.6875 
L 9.28125 54.6875 
L 9.28125 70.21875 
z
" id="DejaVuSans-116"/>
      <path d="M 56.203125 29.59375 
L 56.203125 25.203125 
L 14.890625 25.203125 
Q 15.484375 15.921875 20.484375 11.0625 
Q 25.484375 6.203125 34.421875 6.203125 
Q 39.59375 6.203125 44.453125 7.46875 
Q 49.3125 8.734375 54.109375 11.28125 
L 54.109375 2.78125 
Q 49.265625 0.734375 44.1875 -0.34375 
Q 39.109375 -1.421875 33.890625 -1.421875 
Q 20.796875 -1.421875 13.15625 6.1875 
Q 5.515625 13.8125 5.515625 26.8125 
Q 5.515625 40.234375 12.765625 48.109375 
Q 20.015625 56 32.328125 56 
Q 43.359375 56 49.78125 48.890625 
Q 56.203125 41.796875 56.203125 29.59375 
z
M 47.21875 32.234375 
Q 47.125 39.59375 43.09375 43.984375 
Q 39.0625 48.390625 32.421875 48.390625 
Q 24.90625 48.390625 20.390625 44.140625 
Q 15.875 39.890625 15.1875 32.171875 
z
" id="DejaVuSans-101"/>
     </defs>
     <g transform="translate(273.489018 347.233436)scale(0.11 -0.11)">
      <use xlink:href="#DejaVuSans-68"/>
      <use x="77.001953" xlink:href="#DejaVuSans-97"/>
      <use x="138.28125" xlink:href="#DejaVuSans-116"/>
      <use x="177.490234" xlink:href="#DejaVuSans-101"/>
     </g>
    </g>
   </g>
   <g id="matplotlib.axis_2">
    <g id="ytick_1">
     <g id="line2d_11">
      <defs>
       <path d="M 0 0 
L -3.5 0 
" id="md7ef9c876f" style="stroke:#000000;"/>
      </defs>
      <g>
       <use style="stroke:#000000;" x="44.069754" xlink:href="#md7ef9c876f" y="282.906689"/>
      </g>
     </g>
     <g id="text_12">
      <!-- 0 -->
      <g transform="translate(27.207254 286.705908)scale(0.1 -0.1)">
       <use xlink:href="#DejaVuSans-48"/>
      </g>
     </g>
    </g>
    <g id="ytick_2">
     <g id="line2d_12">
      <g>
       <use style="stroke:#000000;" x="44.069754" xlink:href="#md7ef9c876f" y="229.763934"/>
      </g>
     </g>
     <g id="text_13">
      <!-- 100 -->
      <g transform="translate(14.482254 233.563153)scale(0.1 -0.1)">
       <use xlink:href="#DejaVuSans-49"/>
       <use x="63.623047" xlink:href="#DejaVuSans-48"/>
       <use x="127.246094" xlink:href="#DejaVuSans-48"/>
      </g>
     </g>
    </g>
    <g id="ytick_3">
     <g id="line2d_13">
      <g>
       <use style="stroke:#000000;" x="44.069754" xlink:href="#md7ef9c876f" y="176.621178"/>
      </g>
     </g>
     <g id="text_14">
      <!-- 200 -->
      <g transform="translate(14.482254 180.420397)scale(0.1 -0.1)">
       <use xlink:href="#DejaVuSans-50"/>
       <use x="63.623047" xlink:href="#DejaVuSans-48"/>
       <use x="127.246094" xlink:href="#DejaVuSans-48"/>
      </g>
     </g>
    </g>
    <g id="ytick_4">
     <g id="line2d_14">
      <g>
       <use style="stroke:#000000;" x="44.069754" xlink:href="#md7ef9c876f" y="123.478423"/>
      </g>
     </g>
     <g id="text_15">
      <!-- 300 -->
      <g transform="translate(14.482254 127.277642)scale(0.1 -0.1)">
       <use xlink:href="#DejaVuSans-51"/>
       <use x="63.623047" xlink:href="#DejaVuSans-48"/>
       <use x="127.246094" xlink:href="#DejaVuSans-48"/>
      </g>
     </g>
    </g>
    <g id="ytick_5">
     <g id="line2d_15">
      <g>
       <use style="stroke:#000000;" x="44.069754" xlink:href="#md7ef9c876f" y="70.335668"/>
      </g>
     </g>
     <g id="text_16">
      <!-- 400 -->
      <g transform="translate(14.482254 74.134886)scale(0.1 -0.1)">
       <use xlink:href="#DejaVuSans-52"/>
       <use x="63.623047" xlink:href="#DejaVuSans-48"/>
       <use x="127.246094" xlink:href="#DejaVuSans-48"/>
      </g>
     </g>
    </g>
   </g>
   <g id="line2d_16">
    <path clip-path="url(#p8ee5700e91)" d="M 66.121129 282.906689 
L 154.007043 282.816322 
L 165.192523 282.48857 
L 168.388375 282.226909 
L 174.780078 281.243655 
L 177.975929 279.844979 
L 179.573855 279.212405 
L 181.17178 278.306031 
L 182.769706 277.925678 
L 184.367632 276.986933 
L 185.965558 275.777086 
L 187.563483 275.095956 
L 189.161409 273.430224 
L 190.759335 270.897232 
L 192.35726 269.189688 
L 193.955186 267.132812 
L 195.553112 265.360527 
L 197.151037 263.801348 
L 198.748963 260.42942 
L 200.346889 258.0367 
L 201.944815 256.593515 
L 203.54274 255.553613 
L 205.140666 251.443908 
L 206.738592 250.002071 
L 208.336517 249.241365 
L 209.934443 247.679488 
L 211.532369 247.389502 
L 213.130295 246.462896 
L 214.72822 245.20719 
L 216.326146 247.142677 
L 217.924072 247.381409 
L 219.521997 246.199886 
L 221.119923 248.35792 
L 222.717849 249.275084 
L 225.9137 250.045232 
L 227.511626 250.132902 
L 229.109552 250.939467 
L 230.707477 251.973975 
L 232.305403 252.200568 
L 233.903329 252.246426 
L 235.501255 253.569571 
L 237.09918 254.543383 
L 238.697106 256.505845 
L 240.295032 256.690627 
L 241.892957 258.171578 
L 243.490883 260.35254 
L 245.088809 261.161803 
L 246.686735 261.840235 
L 248.28466 262.6468 
L 249.882586 262.826186 
L 251.480512 263.876879 
L 253.078437 264.075148 
L 254.676363 263.794604 
L 256.274289 264.268023 
L 259.47014 266.54205 
L 261.068066 267.907007 
L 262.665992 268.708177 
L 264.263917 269.753474 
L 265.861843 270.380653 
L 267.459769 271.653893 
L 269.057694 272.438877 
L 272.253546 273.021546 
L 273.851472 273.122704 
L 275.449397 273.405946 
L 278.645249 274.292089 
L 280.243174 274.331203 
L 283.439026 274.818109 
L 289.830729 276.486539 
L 291.428654 277.191946 
L 296.222432 278.173852 
L 297.820357 278.238593 
L 301.016209 278.555554 
L 302.614134 278.70257 
L 304.21206 279.09776 
L 305.809986 279.221847 
L 307.407911 279.494299 
L 309.005837 279.215103 
L 310.603763 279.753263 
L 313.799614 280.004134 
L 315.39754 280.071573 
L 318.593391 279.813957 
L 320.191317 280.352117 
L 321.789243 280.097199 
L 326.58302 280.286027 
L 342.562277 281.32593 
L 344.160203 281.231516 
L 347.356054 280.43709 
L 350.551906 279.443045 
L 352.149831 279.13013 
L 355.345683 278.04437 
L 356.943608 277.917585 
L 358.541534 277.947258 
L 360.13946 277.641087 
L 363.335311 277.251292 
L 364.933237 277.521047 
L 368.129088 277.682899 
L 369.727014 277.47384 
L 372.922866 277.410447 
L 385.706271 277.032792 
L 392.097974 276.270736 
L 395.293826 276.315245 
L 396.891751 275.99154 
L 401.685528 275.737971 
L 404.88138 275.820246 
L 406.479305 275.39943 
L 408.077231 275.611187 
L 409.675157 275.047401 
L 411.273083 274.884199 
L 412.871008 274.569936 
L 414.468934 273.911735 
L 416.06686 273.567799 
L 420.860637 273.784951 
L 422.458563 274.078983 
L 424.056488 274.111353 
L 425.654414 274.618491 
L 427.25234 274.448546 
L 428.850265 274.467429 
L 433.644043 273.952198 
L 435.241968 273.527336 
L 436.839894 273.260279 
L 438.43782 273.488221 
L 440.035745 272.747746 
L 441.633671 272.220377 
L 443.231597 272.252747 
L 444.829523 271.761794 
L 446.427448 271.550037 
L 449.6233 270.000299 
L 451.221225 268.531488 
L 452.819151 266.671533 
L 457.612928 262.39458 
L 460.80878 258.341523 
L 462.406705 257.989493 
L 464.004631 258.352313 
L 465.602557 257.603745 
L 467.200482 256.106609 
L 468.798408 255.823367 
L 471.99426 254.126613 
L 473.592185 253.530456 
L 476.788037 249.439634 
L 478.385962 247.164257 
L 479.983888 243.328352 
L 481.581814 240.695551 
L 483.17974 239.345432 
L 484.777665 237.293951 
L 486.375591 237.884713 
L 487.973517 235.910112 
L 489.571442 235.137266 
L 491.169368 235.195263 
L 492.767294 236.444225 
L 494.36522 228.126354 
L 495.963145 205.859493 
L 499.158997 186.483049 
L 500.756922 178.563065 
L 502.354848 165.934522 
L 503.952774 157.875615 
L 505.550699 155.418155 
L 507.148625 170.154827 
L 507.148625 170.154827 
" style="fill:none;stroke:#1f77b4;stroke-linecap:square;stroke-width:1.75;"/>
   </g>
   <g id="line2d_17">
    <path clip-path="url(#p8ee5700e91)" d="M 66.121129 282.906689 
L 155.604969 282.823313 
L 165.192523 282.44812 
L 168.388375 281.878383 
L 171.584226 281.030724 
L 174.780078 280.572155 
L 181.17178 279.404888 
L 182.769706 279.252031 
L 185.965558 277.501131 
L 187.563483 276.069839 
L 189.161409 274.179978 
L 190.759335 272.66531 
L 192.35726 270.789345 
L 195.553112 268.121305 
L 197.151037 263.327172 
L 198.748963 260.798094 
L 200.346889 259.172257 
L 201.944815 255.920584 
L 203.54274 253.72501 
L 205.140666 250.64009 
L 206.738592 249.583991 
L 208.336517 251.835149 
L 209.934443 251.571125 
L 211.532369 250.181521 
L 213.130295 251.3071 
L 214.72822 251.710085 
L 216.326146 252.25203 
L 217.924072 253.641634 
L 219.521997 253.322025 
L 221.119923 252.571639 
L 222.717849 253.099689 
L 224.315775 253.252545 
L 225.9137 251.918526 
L 227.511626 251.293204 
L 229.109552 249.792432 
L 230.707477 250.751258 
L 232.305403 251.084763 
L 233.903329 250.848531 
L 235.501255 251.112555 
L 237.09918 251.90463 
L 238.697106 253.210857 
L 240.295032 254.127996 
L 241.892957 254.433708 
L 245.088809 255.892792 
L 246.686735 255.712144 
L 248.28466 256.837723 
L 249.882586 258.269015 
L 253.078437 259.061089 
L 254.676363 259.630826 
L 256.274289 261.076014 
L 257.872214 262.132113 
L 259.47014 263.75795 
L 261.068066 263.605093 
L 264.263917 264.480544 
L 265.861843 265.953523 
L 267.459769 266.328717 
L 269.057694 267.468192 
L 270.65562 267.037414 
L 273.851472 269.469221 
L 278.645249 272.637518 
L 280.243174 273.054399 
L 281.8411 274.652443 
L 283.439026 275.069324 
L 285.036952 275.097116 
L 286.634877 275.541789 
L 288.232803 276.111527 
L 289.830729 276.903601 
L 291.428654 277.931908 
L 293.02658 278.168141 
L 296.222432 279.265927 
L 297.820357 278.932423 
L 299.418283 279.238135 
L 301.016209 279.224239 
L 302.614134 279.3632 
L 304.21206 279.835665 
L 307.407911 279.835665 
L 309.005837 280.37761 
L 310.603763 280.669427 
L 312.201689 281.1141 
L 315.39754 281.141893 
L 321.789243 280.752804 
L 324.985094 280.83618 
L 328.180946 280.752804 
L 329.778871 280.961244 
L 331.376797 281.002932 
L 336.170574 281.392021 
L 342.562277 281.947863 
L 352.149831 282.086823 
L 355.345683 282.211887 
L 360.13946 282.170199 
L 363.335311 282.003447 
L 369.727014 281.961759 
L 371.32494 281.767214 
L 374.520791 281.697734 
L 376.118717 281.433709 
L 382.51042 281.169685 
L 384.108346 281.433709 
L 385.706271 281.489293 
L 387.304197 281.739422 
L 388.902123 281.57267 
L 390.500048 281.558774 
L 392.097974 281.419813 
L 393.6959 281.544878 
L 395.293826 281.169685 
L 398.489677 280.697219 
L 401.685528 279.43268 
L 403.283454 279.252031 
L 404.88138 278.668398 
L 409.675157 277.876324 
L 412.871008 278.376581 
L 414.468934 278.070868 
L 417.664785 278.265413 
L 422.458563 278.307101 
L 424.056488 277.89022 
L 425.654414 277.806844 
L 427.25234 276.806329 
L 430.448191 275.694646 
L 432.046117 275.764126 
L 433.644043 275.527893 
L 435.241968 275.652958 
L 436.839894 275.930878 
L 438.43782 276.41724 
L 440.035745 275.861398 
L 441.633671 274.555171 
L 443.231597 273.026607 
L 444.829523 271.789859 
L 446.427448 271.33129 
L 448.025374 269.830518 
L 449.6233 269.094028 
L 451.221225 267.912865 
L 452.819151 268.107409 
L 454.417077 267.801696 
L 456.015002 267.760008 
L 457.612928 266.926246 
L 459.210854 266.70391 
L 460.80878 265.592227 
L 462.406705 265.091969 
L 464.004631 266.148068 
L 465.602557 264.883529 
L 467.200482 263.382757 
L 468.798408 261.590168 
L 470.396334 261.201079 
L 471.99426 259.40849 
L 473.592185 259.394594 
L 475.190111 256.823827 
L 476.788037 255.211886 
L 478.385962 252.168654 
L 479.983888 249.736848 
L 483.17974 239.745597 
L 484.777665 238.369889 
L 486.375591 238.828458 
L 487.973517 232.950434 
L 489.571442 230.810444 
L 492.767294 224.974109 
L 494.36522 224.279307 
L 495.963145 218.526347 
L 497.561071 211.925729 
L 499.158997 212.009106 
L 500.756922 206.256146 
L 502.354848 201.267469 
L 503.952774 194.722435 
L 505.550699 191.317906 
L 507.148625 188.56649 
L 507.148625 188.56649 
" style="fill:none;stroke:#ff7f0e;stroke-linecap:square;stroke-width:1.75;"/>
   </g>
   <g id="line2d_18">
    <path clip-path="url(#p8ee5700e91)" d="M 66.121129 282.906689 
L 161.996672 282.834452 
L 163.594598 282.786294 
L 168.388375 282.039845 
L 169.9863 281.510106 
L 171.584226 280.69142 
L 173.182152 280.017207 
L 174.780078 279.776417 
L 176.378003 279.680101 
L 179.573855 279.2226 
L 181.17178 277.609306 
L 182.769706 276.814698 
L 184.367632 275.827459 
L 185.965558 274.671666 
L 187.563483 271.372841 
L 189.161409 269.157572 
L 190.759335 265.329008 
L 193.955186 261.38005 
L 195.553112 258.033066 
L 197.151037 256.780958 
L 198.748963 253.79516 
L 201.944815 245.704611 
L 203.54274 240.527622 
L 205.140666 235.808135 
L 206.738592 233.592866 
L 208.336517 229.282722 
L 209.934443 229.066011 
L 211.532369 235.519187 
L 213.130295 231.738782 
L 214.72822 232.870495 
L 216.326146 232.316678 
L 217.924072 232.051809 
L 219.521997 233.327997 
L 221.119923 233.592866 
L 222.717849 227.13969 
L 224.315775 233.352076 
L 225.9137 234.507868 
L 229.109552 236.193399 
L 230.707477 234.604184 
L 232.305403 234.556026 
L 233.903329 235.759977 
L 235.501255 235.784056 
L 237.09918 235.615503 
L 238.697106 239.371829 
L 241.892957 242.863287 
L 243.490883 246.643692 
L 245.088809 247.871722 
L 246.686735 249.87028 
L 248.28466 252.663446 
L 251.480512 252.952394 
L 253.078437 255.047268 
L 254.676363 255.577007 
L 256.274289 257.888592 
L 257.872214 258.081224 
L 259.47014 259.64636 
L 261.068066 258.466489 
L 262.665992 260.176099 
L 264.263917 261.139259 
L 267.459769 259.237017 
L 269.057694 259.863072 
L 270.65562 258.297936 
L 272.253546 259.766756 
L 273.851472 260.320573 
L 275.449397 258.851753 
L 277.047323 259.40557 
L 278.645249 258.490568 
L 280.243174 258.20162 
L 281.8411 258.153461 
L 283.439026 258.6832 
L 285.036952 258.562805 
L 286.634877 259.16478 
L 288.232803 259.477807 
L 289.830729 261.741235 
L 291.428654 262.608079 
L 293.02658 264.991902 
L 294.624506 266.388485 
L 296.222432 267.520198 
L 297.820357 269.302046 
L 299.418283 269.663231 
L 301.016209 270.554154 
L 302.614134 271.180209 
L 305.809986 273.251004 
L 307.407911 273.660347 
L 309.005837 274.262323 
L 310.603763 275.321799 
L 312.201689 274.647587 
L 316.995466 274.57535 
L 321.789243 273.178767 
L 323.387169 273.539952 
L 324.985094 274.647587 
L 326.58302 275.129167 
L 328.180946 273.660347 
L 329.778871 273.443636 
L 331.376797 273.780742 
L 332.974723 273.925217 
L 334.572649 272.071132 
L 336.170574 271.252446 
L 337.7685 270.746787 
L 339.366426 272.552713 
L 340.964351 271.469157 
L 342.562277 272.071132 
L 344.160203 272.432318 
L 345.758129 274.454955 
L 347.356054 275.394037 
L 350.551906 275.923775 
L 352.149831 278.524309 
L 353.747757 279.102205 
L 355.345683 279.559706 
L 356.943608 280.161682 
L 358.541534 280.546946 
L 360.13946 281.197079 
L 363.335311 281.100763 
L 364.933237 280.643262 
L 371.32494 280.257998 
L 372.922866 279.896812 
L 377.716643 279.680101 
L 382.51042 277.898254 
L 384.108346 278.114965 
L 385.706271 277.392595 
L 387.304197 277.416674 
L 388.902123 277.175884 
L 390.500048 277.99457 
L 392.097974 278.452071 
L 393.6959 278.668783 
L 395.293826 278.307597 
L 396.891751 278.813257 
L 398.489677 278.789178 
L 400.087603 279.2226 
L 401.685528 279.078126 
L 403.283454 279.294837 
L 404.88138 279.342995 
L 409.675157 280.113524 
L 411.273083 280.257998 
L 414.468934 280.233919 
L 416.06686 280.041286 
L 417.664785 280.233919 
L 419.262711 280.185761 
L 422.458563 279.607864 
L 424.056488 279.511548 
L 425.654414 279.126284 
L 427.25234 278.957731 
L 430.448191 278.789178 
L 432.046117 278.692862 
L 435.241968 277.99457 
L 436.839894 277.99457 
L 438.43782 277.850096 
L 440.035745 276.983252 
L 443.231597 275.947854 
L 444.829523 275.755222 
L 448.025374 274.984693 
L 451.221225 273.082451 
L 454.417077 268.435201 
L 456.015002 265.473482 
L 457.612928 264.221373 
L 460.80878 260.15202 
L 462.406705 258.610963 
L 464.004631 257.407012 
L 465.602557 258.370173 
L 467.200482 257.551486 
L 468.798408 255.962271 
L 471.99426 253.55437 
L 473.592185 252.663446 
L 475.190111 251.435416 
L 476.788037 247.317905 
L 479.983888 238.408669 
L 481.581814 235.158002 
L 484.777665 227.428638 
L 486.375591 226.176529 
L 487.973517 224.129813 
L 489.571442 224.153892 
L 491.169368 222.949941 
L 492.767294 219.530721 
L 494.36522 214.570444 
L 495.963145 212.884912 
L 497.561071 205.420418 
L 499.158997 203.999756 
L 500.756922 195.234994 
L 502.354848 189.456031 
L 503.952774 182.13601 
L 505.550699 180.90798 
L 507.148625 180.065214 
L 507.148625 180.065214 
" style="fill:none;stroke:#2ca02c;stroke-linecap:square;stroke-width:1.75;"/>
   </g>
   <g id="line2d_19">
    <path clip-path="url(#p8ee5700e91)" d="M 66.121129 282.906689 
L 157.202895 282.826508 
L 158.80082 282.746327 
L 161.996672 282.425602 
L 165.192523 282.345421 
L 166.790449 282.305331 
L 168.388375 281.984606 
L 169.9863 281.864334 
L 177.975929 280.581435 
L 179.573855 280.621526 
L 181.17178 279.939986 
L 182.769706 279.579171 
L 185.965558 278.496725 
L 187.563483 277.253917 
L 190.759335 275.329568 
L 192.35726 274.247122 
L 193.955186 271.601144 
L 195.553112 267.471813 
L 197.151037 266.309186 
L 198.748963 263.663207 
L 200.346889 261.538406 
L 201.944815 257.68971 
L 203.54274 255.885634 
L 205.140666 255.685181 
L 206.738592 257.850072 
L 208.336517 256.086086 
L 209.934443 256.847808 
L 211.532369 254.723007 
L 213.130295 255.444637 
L 214.72822 254.081557 
L 216.326146 254.161738 
L 217.924072 253.881104 
L 219.521997 254.362191 
L 221.119923 252.878839 
L 222.717849 253.881104 
L 224.315775 252.878839 
L 225.9137 252.077028 
L 227.511626 249.270687 
L 229.109552 248.990053 
L 230.707477 251.195035 
L 232.305403 251.395488 
L 233.903329 250.232861 
L 235.501255 251.475669 
L 237.09918 253.239655 
L 238.697106 256.32663 
L 240.295032 257.00817 
L 241.892957 256.847808 
L 243.490883 259.293333 
L 245.088809 262.059584 
L 246.686735 262.821305 
L 248.28466 264.344747 
L 249.882586 264.50511 
L 251.480512 264.384838 
L 253.078437 263.943842 
L 254.676363 264.024023 
L 256.274289 264.946106 
L 257.872214 266.910545 
L 259.47014 267.311451 
L 262.665992 270.358336 
L 264.263917 270.398426 
L 265.861843 270.117792 
L 269.057694 271.079966 
L 270.65562 271.721415 
L 273.851472 272.803861 
L 275.449397 273.766035 
L 277.047323 275.44984 
L 278.645249 275.289478 
L 280.243174 275.40975 
L 281.8411 275.369659 
L 283.439026 275.489931 
L 285.036952 274.567847 
L 288.232803 273.926398 
L 289.830729 274.968753 
L 291.428654 275.209297 
L 293.02658 276.331833 
L 294.624506 277.053464 
L 297.820357 279.098084 
L 299.418283 279.819714 
L 301.016209 279.138174 
L 302.614134 279.699442 
L 305.809986 279.699442 
L 307.407911 279.939986 
L 309.005837 279.980076 
L 310.603763 279.779624 
L 312.201689 280.942251 
L 313.799614 280.421073 
L 315.39754 280.862069 
L 316.995466 280.821979 
L 321.789243 281.142703 
L 323.387169 281.262975 
L 324.985094 281.784153 
L 334.572649 282.465693 
L 337.7685 282.345421 
L 339.366426 282.465693 
L 342.562277 282.144968 
L 344.160203 282.185059 
L 345.758129 281.944515 
L 348.95398 282.024696 
L 350.551906 282.064787 
L 352.149831 282.305331 
L 355.345683 282.104878 
L 356.943608 282.26524 
L 363.335311 282.26524 
L 364.933237 282.385512 
L 366.531163 282.185059 
L 369.727014 281.062522 
L 377.716643 281.062522 
L 379.314568 281.383247 
L 380.912494 281.543609 
L 385.706271 281.543609 
L 387.304197 281.262975 
L 390.500048 281.262975 
L 392.097974 281.463428 
L 400.087603 281.463428 
L 401.685528 280.060258 
L 403.283454 279.859805 
L 408.077231 279.859805 
L 409.675157 278.256181 
L 411.273083 277.49446 
L 412.871008 278.897631 
L 414.468934 276.532286 
L 416.06686 273.926398 
L 417.664785 272.843952 
L 419.262711 271.280419 
L 420.860637 271.561053 
L 422.458563 271.3606 
L 424.056488 269.636705 
L 425.654414 271.801597 
L 427.25234 271.561053 
L 428.850265 267.872719 
L 430.448191 269.035346 
L 432.046117 268.794803 
L 433.644043 267.27136 
L 435.241968 266.54973 
L 436.839894 263.943842 
L 438.43782 263.222211 
L 440.035745 266.028552 
L 441.633671 264.104204 
L 443.231597 264.024023 
L 444.829523 264.064113 
L 446.427448 263.743389 
L 448.025374 264.705563 
L 449.6233 263.542936 
L 451.221225 261.257772 
L 452.819151 257.930253 
L 454.417077 258.291069 
L 456.015002 259.173062 
L 457.612928 259.132971 
L 459.210854 258.050525 
L 460.80878 258.611793 
L 462.406705 259.373515 
L 464.004631 260.656413 
L 465.602557 259.092881 
L 467.200482 255.885634 
L 470.396334 250.032408 
L 471.99426 245.301719 
L 473.592185 241.733656 
L 475.190111 241.092207 
L 476.788037 241.252569 
L 478.385962 237.604326 
L 479.983888 236.000702 
L 481.581814 231.590738 
L 483.17974 227.701951 
L 484.777665 227.260954 
L 486.375591 223.452348 
L 487.973517 213.630155 
L 489.571442 205.451675 
L 491.169368 202.645334 
L 492.767294 176.145456 
L 494.36522 159.828587 
L 495.963145 148.803675 
L 497.561071 132.927803 
L 499.158997 118.936188 
L 500.756922 102.73959 
L 502.354848 76.11944 
L 503.952774 70.266215 
L 505.550699 63.210271 
L 507.148625 38.995557 
L 507.148625 38.995557 
" style="fill:none;stroke:#d62728;stroke-linecap:square;stroke-width:1.75;"/>
   </g>
   <g id="patch_3">
    <path d="M 44.069754 295.102246 
L 44.069754 26.8 
" style="fill:none;stroke:#000000;stroke-linecap:square;stroke-linejoin:miter;stroke-width:0.8;"/>
   </g>
   <g id="patch_4">
    <path d="M 529.2 295.102246 
L 529.2 26.8 
" style="fill:none;stroke:#000000;stroke-linecap:square;stroke-linejoin:miter;stroke-width:0.8;"/>
   </g>
   <g id="patch_5">
    <path d="M 44.069754 295.102246 
L 529.2 295.102246 
" style="fill:none;stroke:#000000;stroke-linecap:square;stroke-linejoin:miter;stroke-width:0.8;"/>
   </g>
   <g id="patch_6">
    <path d="M 44.069754 26.8 
L 529.2 26.8 
" style="fill:none;stroke:#000000;stroke-linecap:square;stroke-linejoin:miter;stroke-width:0.8;"/>
   </g>
   <g id="text_17">
    <!-- New Cases per Million (7 day rolling) -->
    <defs>
     <path d="M 9.8125 72.90625 
L 23.09375 72.90625 
L 55.421875 11.921875 
L 55.421875 72.90625 
L 64.984375 72.90625 
L 64.984375 0 
L 51.703125 0 
L 19.390625 60.984375 
L 19.390625 0 
L 9.8125 0 
z
" id="DejaVuSans-78"/>
     <path d="M 4.203125 54.6875 
L 13.1875 54.6875 
L 24.421875 12.015625 
L 35.59375 54.6875 
L 46.1875 54.6875 
L 57.421875 12.015625 
L 68.609375 54.6875 
L 77.59375 54.6875 
L 63.28125 0 
L 52.6875 0 
L 40.921875 44.828125 
L 29.109375 0 
L 18.5 0 
z
" id="DejaVuSans-119"/>
     <path id="DejaVuSans-32"/>
     <path d="M 64.40625 67.28125 
L 64.40625 56.890625 
Q 59.421875 61.53125 53.78125 63.8125 
Q 48.140625 66.109375 41.796875 66.109375 
Q 29.296875 66.109375 22.65625 58.46875 
Q 16.015625 50.828125 16.015625 36.375 
Q 16.015625 21.96875 22.65625 14.328125 
Q 29.296875 6.6875 41.796875 6.6875 
Q 48.140625 6.6875 53.78125 8.984375 
Q 59.421875 11.28125 64.40625 15.921875 
L 64.40625 5.609375 
Q 59.234375 2.09375 53.4375 0.328125 
Q 47.65625 -1.421875 41.21875 -1.421875 
Q 24.65625 -1.421875 15.125 8.703125 
Q 5.609375 18.84375 5.609375 36.375 
Q 5.609375 53.953125 15.125 64.078125 
Q 24.65625 74.21875 41.21875 74.21875 
Q 47.75 74.21875 53.53125 72.484375 
Q 59.328125 70.75 64.40625 67.28125 
z
" id="DejaVuSans-67"/>
     <path d="M 44.28125 53.078125 
L 44.28125 44.578125 
Q 40.484375 46.53125 36.375 47.5 
Q 32.28125 48.484375 27.875 48.484375 
Q 21.1875 48.484375 17.84375 46.4375 
Q 14.5 44.390625 14.5 40.28125 
Q 14.5 37.15625 16.890625 35.375 
Q 19.28125 33.59375 26.515625 31.984375 
L 29.59375 31.296875 
Q 39.15625 29.25 43.1875 25.515625 
Q 47.21875 21.78125 47.21875 15.09375 
Q 47.21875 7.46875 41.1875 3.015625 
Q 35.15625 -1.421875 24.609375 -1.421875 
Q 20.21875 -1.421875 15.453125 -0.5625 
Q 10.6875 0.296875 5.421875 2 
L 5.421875 11.28125 
Q 10.40625 8.6875 15.234375 7.390625 
Q 20.0625 6.109375 24.8125 6.109375 
Q 31.15625 6.109375 34.5625 8.28125 
Q 37.984375 10.453125 37.984375 14.40625 
Q 37.984375 18.0625 35.515625 20.015625 
Q 33.0625 21.96875 24.703125 23.78125 
L 21.578125 24.515625 
Q 13.234375 26.265625 9.515625 29.90625 
Q 5.8125 33.546875 5.8125 39.890625 
Q 5.8125 47.609375 11.28125 51.796875 
Q 16.75 56 26.8125 56 
Q 31.78125 56 36.171875 55.265625 
Q 40.578125 54.546875 44.28125 53.078125 
z
" id="DejaVuSans-115"/>
     <path d="M 18.109375 8.203125 
L 18.109375 -20.796875 
L 9.078125 -20.796875 
L 9.078125 54.6875 
L 18.109375 54.6875 
L 18.109375 46.390625 
Q 20.953125 51.265625 25.265625 53.625 
Q 29.59375 56 35.59375 56 
Q 45.5625 56 51.78125 48.09375 
Q 58.015625 40.1875 58.015625 27.296875 
Q 58.015625 14.40625 51.78125 6.484375 
Q 45.5625 -1.421875 35.59375 -1.421875 
Q 29.59375 -1.421875 25.265625 0.953125 
Q 20.953125 3.328125 18.109375 8.203125 
z
M 48.6875 27.296875 
Q 48.6875 37.203125 44.609375 42.84375 
Q 40.53125 48.484375 33.40625 48.484375 
Q 26.265625 48.484375 22.1875 42.84375 
Q 18.109375 37.203125 18.109375 27.296875 
Q 18.109375 17.390625 22.1875 11.75 
Q 26.265625 6.109375 33.40625 6.109375 
Q 40.53125 6.109375 44.609375 11.75 
Q 48.6875 17.390625 48.6875 27.296875 
z
" id="DejaVuSans-112"/>
     <path d="M 41.109375 46.296875 
Q 39.59375 47.171875 37.8125 47.578125 
Q 36.03125 48 33.890625 48 
Q 26.265625 48 22.1875 43.046875 
Q 18.109375 38.09375 18.109375 28.8125 
L 18.109375 0 
L 9.078125 0 
L 9.078125 54.6875 
L 18.109375 54.6875 
L 18.109375 46.1875 
Q 20.953125 51.171875 25.484375 53.578125 
Q 30.03125 56 36.53125 56 
Q 37.453125 56 38.578125 55.875 
Q 39.703125 55.765625 41.0625 55.515625 
z
" id="DejaVuSans-114"/>
     <path d="M 9.8125 72.90625 
L 24.515625 72.90625 
L 43.109375 23.296875 
L 61.8125 72.90625 
L 76.515625 72.90625 
L 76.515625 0 
L 66.890625 0 
L 66.890625 64.015625 
L 48.09375 14.015625 
L 38.1875 14.015625 
L 19.390625 64.015625 
L 19.390625 0 
L 9.8125 0 
z
" id="DejaVuSans-77"/>
     <path d="M 9.421875 54.6875 
L 18.40625 54.6875 
L 18.40625 0 
L 9.421875 0 
z
M 9.421875 75.984375 
L 18.40625 75.984375 
L 18.40625 64.59375 
L 9.421875 64.59375 
z
" id="DejaVuSans-105"/>
     <path d="M 9.421875 75.984375 
L 18.40625 75.984375 
L 18.40625 0 
L 9.421875 0 
z
" id="DejaVuSans-108"/>
     <path d="M 30.609375 48.390625 
Q 23.390625 48.390625 19.1875 42.75 
Q 14.984375 37.109375 14.984375 27.296875 
Q 14.984375 17.484375 19.15625 11.84375 
Q 23.34375 6.203125 30.609375 6.203125 
Q 37.796875 6.203125 41.984375 11.859375 
Q 46.1875 17.53125 46.1875 27.296875 
Q 46.1875 37.015625 41.984375 42.703125 
Q 37.796875 48.390625 30.609375 48.390625 
z
M 30.609375 56 
Q 42.328125 56 49.015625 48.375 
Q 55.71875 40.765625 55.71875 27.296875 
Q 55.71875 13.875 49.015625 6.21875 
Q 42.328125 -1.421875 30.609375 -1.421875 
Q 18.84375 -1.421875 12.171875 6.21875 
Q 5.515625 13.875 5.515625 27.296875 
Q 5.515625 40.765625 12.171875 48.375 
Q 18.84375 56 30.609375 56 
z
" id="DejaVuSans-111"/>
     <path d="M 54.890625 33.015625 
L 54.890625 0 
L 45.90625 0 
L 45.90625 32.71875 
Q 45.90625 40.484375 42.875 44.328125 
Q 39.84375 48.1875 33.796875 48.1875 
Q 26.515625 48.1875 22.3125 43.546875 
Q 18.109375 38.921875 18.109375 30.90625 
L 18.109375 0 
L 9.078125 0 
L 9.078125 54.6875 
L 18.109375 54.6875 
L 18.109375 46.1875 
Q 21.34375 51.125 25.703125 53.5625 
Q 30.078125 56 35.796875 56 
Q 45.21875 56 50.046875 50.171875 
Q 54.890625 44.34375 54.890625 33.015625 
z
" id="DejaVuSans-110"/>
     <path d="M 31 75.875 
Q 24.46875 64.65625 21.28125 53.65625 
Q 18.109375 42.671875 18.109375 31.390625 
Q 18.109375 20.125 21.3125 9.0625 
Q 24.515625 -2 31 -13.1875 
L 23.1875 -13.1875 
Q 15.875 -1.703125 12.234375 9.375 
Q 8.59375 20.453125 8.59375 31.390625 
Q 8.59375 42.28125 12.203125 53.3125 
Q 15.828125 64.359375 23.1875 75.875 
z
" id="DejaVuSans-40"/>
     <path d="M 45.40625 46.390625 
L 45.40625 75.984375 
L 54.390625 75.984375 
L 54.390625 0 
L 45.40625 0 
L 45.40625 8.203125 
Q 42.578125 3.328125 38.25 0.953125 
Q 33.9375 -1.421875 27.875 -1.421875 
Q 17.96875 -1.421875 11.734375 6.484375 
Q 5.515625 14.40625 5.515625 27.296875 
Q 5.515625 40.1875 11.734375 48.09375 
Q 17.96875 56 27.875 56 
Q 33.9375 56 38.25 53.625 
Q 42.578125 51.265625 45.40625 46.390625 
z
M 14.796875 27.296875 
Q 14.796875 17.390625 18.875 11.75 
Q 22.953125 6.109375 30.078125 6.109375 
Q 37.203125 6.109375 41.296875 11.75 
Q 45.40625 17.390625 45.40625 27.296875 
Q 45.40625 37.203125 41.296875 42.84375 
Q 37.203125 48.484375 30.078125 48.484375 
Q 22.953125 48.484375 18.875 42.84375 
Q 14.796875 37.203125 14.796875 27.296875 
z
" id="DejaVuSans-100"/>
     <path d="M 32.171875 -5.078125 
Q 28.375 -14.84375 24.75 -17.8125 
Q 21.140625 -20.796875 15.09375 -20.796875 
L 7.90625 -20.796875 
L 7.90625 -13.28125 
L 13.1875 -13.28125 
Q 16.890625 -13.28125 18.9375 -11.515625 
Q 21 -9.765625 23.484375 -3.21875 
L 25.09375 0.875 
L 2.984375 54.6875 
L 12.5 54.6875 
L 29.59375 11.921875 
L 46.6875 54.6875 
L 56.203125 54.6875 
z
" id="DejaVuSans-121"/>
     <path d="M 45.40625 27.984375 
Q 45.40625 37.75 41.375 43.109375 
Q 37.359375 48.484375 30.078125 48.484375 
Q 22.859375 48.484375 18.828125 43.109375 
Q 14.796875 37.75 14.796875 27.984375 
Q 14.796875 18.265625 18.828125 12.890625 
Q 22.859375 7.515625 30.078125 7.515625 
Q 37.359375 7.515625 41.375 12.890625 
Q 45.40625 18.265625 45.40625 27.984375 
z
M 54.390625 6.78125 
Q 54.390625 -7.171875 48.1875 -13.984375 
Q 42 -20.796875 29.203125 -20.796875 
Q 24.46875 -20.796875 20.265625 -20.09375 
Q 16.0625 -19.390625 12.109375 -17.921875 
L 12.109375 -9.1875 
Q 16.0625 -11.328125 19.921875 -12.34375 
Q 23.78125 -13.375 27.78125 -13.375 
Q 36.625 -13.375 41.015625 -8.765625 
Q 45.40625 -4.15625 45.40625 5.171875 
L 45.40625 9.625 
Q 42.625 4.78125 38.28125 2.390625 
Q 33.9375 0 27.875 0 
Q 17.828125 0 11.671875 7.65625 
Q 5.515625 15.328125 5.515625 27.984375 
Q 5.515625 40.671875 11.671875 48.328125 
Q 17.828125 56 27.875 56 
Q 33.9375 56 38.28125 53.609375 
Q 42.625 51.21875 45.40625 46.390625 
L 45.40625 54.6875 
L 54.390625 54.6875 
z
" id="DejaVuSans-103"/>
     <path d="M 8.015625 75.875 
L 15.828125 75.875 
Q 23.140625 64.359375 26.78125 53.3125 
Q 30.421875 42.28125 30.421875 31.390625 
Q 30.421875 20.453125 26.78125 9.375 
Q 23.140625 -1.703125 15.828125 -13.1875 
L 8.015625 -13.1875 
Q 14.5 -2 17.703125 9.0625 
Q 20.90625 20.125 20.90625 31.390625 
Q 20.90625 42.671875 17.703125 53.65625 
Q 14.5 64.65625 8.015625 75.875 
z
" id="DejaVuSans-41"/>
    </defs>
    <g transform="translate(176.859252 20.8)scale(0.12 -0.12)">
     <use xlink:href="#DejaVuSans-78"/>
     <use x="74.804688" xlink:href="#DejaVuSans-101"/>
     <use x="136.328125" xlink:href="#DejaVuSans-119"/>
     <use x="218.115234" xlink:href="#DejaVuSans-32"/>
     <use x="249.902344" xlink:href="#DejaVuSans-67"/>
     <use x="319.726562" xlink:href="#DejaVuSans-97"/>
     <use x="381.005859" xlink:href="#DejaVuSans-115"/>
     <use x="433.105469" xlink:href="#DejaVuSans-101"/>
     <use x="494.628906" xlink:href="#DejaVuSans-115"/>
     <use x="546.728516" xlink:href="#DejaVuSans-32"/>
     <use x="578.515625" xlink:href="#DejaVuSans-112"/>
     <use x="641.992188" xlink:href="#DejaVuSans-101"/>
     <use x="703.515625" xlink:href="#DejaVuSans-114"/>
     <use x="744.628906" xlink:href="#DejaVuSans-32"/>
     <use x="776.416016" xlink:href="#DejaVuSans-77"/>
     <use x="862.695312" xlink:href="#DejaVuSans-105"/>
     <use x="890.478516" xlink:href="#DejaVuSans-108"/>
     <use x="918.261719" xlink:href="#DejaVuSans-108"/>
     <use x="946.044922" xlink:href="#DejaVuSans-105"/>
     <use x="973.828125" xlink:href="#DejaVuSans-111"/>
     <use x="1035.009766" xlink:href="#DejaVuSans-110"/>
     <use x="1098.388672" xlink:href="#DejaVuSans-32"/>
     <use x="1130.175781" xlink:href="#DejaVuSans-40"/>
     <use x="1169.189453" xlink:href="#DejaVuSans-55"/>
     <use x="1232.8125" xlink:href="#DejaVuSans-32"/>
     <use x="1264.599609" xlink:href="#DejaVuSans-100"/>
     <use x="1328.076172" xlink:href="#DejaVuSans-97"/>
     <use x="1389.355469" xlink:href="#DejaVuSans-121"/>
     <use x="1448.535156" xlink:href="#DejaVuSans-32"/>
     <use x="1480.322266" xlink:href="#DejaVuSans-114"/>
     <use x="1519.185547" xlink:href="#DejaVuSans-111"/>
     <use x="1580.367188" xlink:href="#DejaVuSans-108"/>
     <use x="1608.150391" xlink:href="#DejaVuSans-108"/>
     <use x="1635.933594" xlink:href="#DejaVuSans-105"/>
     <use x="1663.716797" xlink:href="#DejaVuSans-110"/>
     <use x="1727.095703" xlink:href="#DejaVuSans-103"/>
     <use x="1790.572266" xlink:href="#DejaVuSans-41"/>
    </g>
   </g>
   <g id="legend_1">
    <g id="patch_7">
     <path d="M 51.069754 93.5125 
L 186.236942 93.5125 
Q 188.236942 93.5125 188.236942 91.5125 
L 188.236942 33.8 
Q 188.236942 31.8 186.236942 31.8 
L 51.069754 31.8 
Q 49.069754 31.8 49.069754 33.8 
L 49.069754 91.5125 
Q 49.069754 93.5125 51.069754 93.5125 
z
" style="fill:#ffffff;opacity:0.8;stroke:#cccccc;stroke-linejoin:miter;stroke-width:0.3;"/>
    </g>
    <g id="line2d_20">
     <path d="M 53.069754 39.898438 
L 73.069754 39.898438 
" style="fill:none;stroke:#1f77b4;stroke-linecap:square;stroke-width:1.75;"/>
    </g>
    <g id="line2d_21"/>
    <g id="text_18">
     <!-- ENGLAND -->
     <defs>
      <path d="M 9.8125 72.90625 
L 55.90625 72.90625 
L 55.90625 64.59375 
L 19.671875 64.59375 
L 19.671875 43.015625 
L 54.390625 43.015625 
L 54.390625 34.71875 
L 19.671875 34.71875 
L 19.671875 8.296875 
L 56.78125 8.296875 
L 56.78125 0 
L 9.8125 0 
z
" id="DejaVuSans-69"/>
      <path d="M 59.515625 10.40625 
L 59.515625 29.984375 
L 43.40625 29.984375 
L 43.40625 38.09375 
L 69.28125 38.09375 
L 69.28125 6.78125 
Q 63.578125 2.734375 56.6875 0.65625 
Q 49.8125 -1.421875 42 -1.421875 
Q 24.90625 -1.421875 15.25 8.5625 
Q 5.609375 18.5625 5.609375 36.375 
Q 5.609375 54.25 15.25 64.234375 
Q 24.90625 74.21875 42 74.21875 
Q 49.125 74.21875 55.546875 72.453125 
Q 61.96875 70.703125 67.390625 67.28125 
L 67.390625 56.78125 
Q 61.921875 61.421875 55.765625 63.765625 
Q 49.609375 66.109375 42.828125 66.109375 
Q 29.4375 66.109375 22.71875 58.640625 
Q 16.015625 51.171875 16.015625 36.375 
Q 16.015625 21.625 22.71875 14.15625 
Q 29.4375 6.6875 42.828125 6.6875 
Q 48.046875 6.6875 52.140625 7.59375 
Q 56.25 8.5 59.515625 10.40625 
z
" id="DejaVuSans-71"/>
      <path d="M 9.8125 72.90625 
L 19.671875 72.90625 
L 19.671875 8.296875 
L 55.171875 8.296875 
L 55.171875 0 
L 9.8125 0 
z
" id="DejaVuSans-76"/>
      <path d="M 34.1875 63.1875 
L 20.796875 26.90625 
L 47.609375 26.90625 
z
M 28.609375 72.90625 
L 39.796875 72.90625 
L 67.578125 0 
L 57.328125 0 
L 50.6875 18.703125 
L 17.828125 18.703125 
L 11.1875 0 
L 0.78125 0 
z
" id="DejaVuSans-65"/>
     </defs>
     <g transform="translate(81.069754 43.398438)scale(0.1 -0.1)">
      <use xlink:href="#DejaVuSans-69"/>
      <use x="63.183594" xlink:href="#DejaVuSans-78"/>
      <use x="137.988281" xlink:href="#DejaVuSans-71"/>
      <use x="215.478516" xlink:href="#DejaVuSans-76"/>
      <use x="273.441406" xlink:href="#DejaVuSans-65"/>
      <use x="341.849609" xlink:href="#DejaVuSans-78"/>
      <use x="416.654297" xlink:href="#DejaVuSans-68"/>
     </g>
    </g>
    <g id="line2d_22">
     <path d="M 53.069754 54.576563 
L 73.069754 54.576563 
" style="fill:none;stroke:#ff7f0e;stroke-linecap:square;stroke-width:1.75;"/>
    </g>
    <g id="line2d_23"/>
    <g id="text_19">
     <!-- SCOTLAND -->
     <defs>
      <path d="M 53.515625 70.515625 
L 53.515625 60.890625 
Q 47.90625 63.578125 42.921875 64.890625 
Q 37.9375 66.21875 33.296875 66.21875 
Q 25.25 66.21875 20.875 63.09375 
Q 16.5 59.96875 16.5 54.203125 
Q 16.5 49.359375 19.40625 46.890625 
Q 22.3125 44.4375 30.421875 42.921875 
L 36.375 41.703125 
Q 47.40625 39.59375 52.65625 34.296875 
Q 57.90625 29 57.90625 20.125 
Q 57.90625 9.515625 50.796875 4.046875 
Q 43.703125 -1.421875 29.984375 -1.421875 
Q 24.8125 -1.421875 18.96875 -0.25 
Q 13.140625 0.921875 6.890625 3.21875 
L 6.890625 13.375 
Q 12.890625 10.015625 18.65625 8.296875 
Q 24.421875 6.59375 29.984375 6.59375 
Q 38.421875 6.59375 43.015625 9.90625 
Q 47.609375 13.234375 47.609375 19.390625 
Q 47.609375 24.75 44.3125 27.78125 
Q 41.015625 30.8125 33.5 32.328125 
L 27.484375 33.5 
Q 16.453125 35.6875 11.515625 40.375 
Q 6.59375 45.0625 6.59375 53.421875 
Q 6.59375 63.09375 13.40625 68.65625 
Q 20.21875 74.21875 32.171875 74.21875 
Q 37.3125 74.21875 42.625 73.28125 
Q 47.953125 72.359375 53.515625 70.515625 
z
" id="DejaVuSans-83"/>
      <path d="M 39.40625 66.21875 
Q 28.65625 66.21875 22.328125 58.203125 
Q 16.015625 50.203125 16.015625 36.375 
Q 16.015625 22.609375 22.328125 14.59375 
Q 28.65625 6.59375 39.40625 6.59375 
Q 50.140625 6.59375 56.421875 14.59375 
Q 62.703125 22.609375 62.703125 36.375 
Q 62.703125 50.203125 56.421875 58.203125 
Q 50.140625 66.21875 39.40625 66.21875 
z
M 39.40625 74.21875 
Q 54.734375 74.21875 63.90625 63.9375 
Q 73.09375 53.65625 73.09375 36.375 
Q 73.09375 19.140625 63.90625 8.859375 
Q 54.734375 -1.421875 39.40625 -1.421875 
Q 24.03125 -1.421875 14.8125 8.828125 
Q 5.609375 19.09375 5.609375 36.375 
Q 5.609375 53.65625 14.8125 63.9375 
Q 24.03125 74.21875 39.40625 74.21875 
z
" id="DejaVuSans-79"/>
      <path d="M -0.296875 72.90625 
L 61.375 72.90625 
L 61.375 64.59375 
L 35.5 64.59375 
L 35.5 0 
L 25.59375 0 
L 25.59375 64.59375 
L -0.296875 64.59375 
z
" id="DejaVuSans-84"/>
     </defs>
     <g transform="translate(81.069754 58.076563)scale(0.1 -0.1)">
      <use xlink:href="#DejaVuSans-83"/>
      <use x="63.476562" xlink:href="#DejaVuSans-67"/>
      <use x="133.300781" xlink:href="#DejaVuSans-79"/>
      <use x="212.011719" xlink:href="#DejaVuSans-84"/>
      <use x="273.095703" xlink:href="#DejaVuSans-76"/>
      <use x="331.058594" xlink:href="#DejaVuSans-65"/>
      <use x="399.466797" xlink:href="#DejaVuSans-78"/>
      <use x="474.271484" xlink:href="#DejaVuSans-68"/>
     </g>
    </g>
    <g id="line2d_24">
     <path d="M 53.069754 69.254688 
L 73.069754 69.254688 
" style="fill:none;stroke:#2ca02c;stroke-linecap:square;stroke-width:1.75;"/>
    </g>
    <g id="line2d_25"/>
    <g id="text_20">
     <!-- WALES -->
     <defs>
      <path d="M 3.328125 72.90625 
L 13.28125 72.90625 
L 28.609375 11.28125 
L 43.890625 72.90625 
L 54.984375 72.90625 
L 70.3125 11.28125 
L 85.59375 72.90625 
L 95.609375 72.90625 
L 77.296875 0 
L 64.890625 0 
L 49.515625 63.28125 
L 33.984375 0 
L 21.578125 0 
z
" id="DejaVuSans-87"/>
     </defs>
     <g transform="translate(81.069754 72.754688)scale(0.1 -0.1)">
      <use xlink:href="#DejaVuSans-87"/>
      <use x="93.376953" xlink:href="#DejaVuSans-65"/>
      <use x="161.785156" xlink:href="#DejaVuSans-76"/>
      <use x="217.498047" xlink:href="#DejaVuSans-69"/>
      <use x="280.681641" xlink:href="#DejaVuSans-83"/>
     </g>
    </g>
    <g id="line2d_26">
     <path d="M 53.069754 83.932813 
L 73.069754 83.932813 
" style="fill:none;stroke:#d62728;stroke-linecap:square;stroke-width:1.75;"/>
    </g>
    <g id="line2d_27"/>
    <g id="text_21">
     <!-- NORTHERN IRELAND -->
     <defs>
      <path d="M 44.390625 34.1875 
Q 47.5625 33.109375 50.5625 29.59375 
Q 53.5625 26.078125 56.59375 19.921875 
L 66.609375 0 
L 56 0 
L 46.6875 18.703125 
Q 43.0625 26.03125 39.671875 28.421875 
Q 36.28125 30.8125 30.421875 30.8125 
L 19.671875 30.8125 
L 19.671875 0 
L 9.8125 0 
L 9.8125 72.90625 
L 32.078125 72.90625 
Q 44.578125 72.90625 50.734375 67.671875 
Q 56.890625 62.453125 56.890625 51.90625 
Q 56.890625 45.015625 53.6875 40.46875 
Q 50.484375 35.9375 44.390625 34.1875 
z
M 19.671875 64.796875 
L 19.671875 38.921875 
L 32.078125 38.921875 
Q 39.203125 38.921875 42.84375 42.21875 
Q 46.484375 45.515625 46.484375 51.90625 
Q 46.484375 58.296875 42.84375 61.546875 
Q 39.203125 64.796875 32.078125 64.796875 
z
" id="DejaVuSans-82"/>
      <path d="M 9.8125 72.90625 
L 19.671875 72.90625 
L 19.671875 43.015625 
L 55.515625 43.015625 
L 55.515625 72.90625 
L 65.375 72.90625 
L 65.375 0 
L 55.515625 0 
L 55.515625 34.71875 
L 19.671875 34.71875 
L 19.671875 0 
L 9.8125 0 
z
" id="DejaVuSans-72"/>
      <path d="M 9.8125 72.90625 
L 19.671875 72.90625 
L 19.671875 0 
L 9.8125 0 
z
" id="DejaVuSans-73"/>
     </defs>
     <g transform="translate(81.069754 87.432813)scale(0.1 -0.1)">
      <use xlink:href="#DejaVuSans-78"/>
      <use x="74.804688" xlink:href="#DejaVuSans-79"/>
      <use x="153.515625" xlink:href="#DejaVuSans-82"/>
      <use x="215.748047" xlink:href="#DejaVuSans-84"/>
      <use x="276.832031" xlink:href="#DejaVuSans-72"/>
      <use x="352.027344" xlink:href="#DejaVuSans-69"/>
      <use x="415.210938" xlink:href="#DejaVuSans-82"/>
      <use x="484.693359" xlink:href="#DejaVuSans-78"/>
      <use x="559.498047" xlink:href="#DejaVuSans-32"/>
      <use x="591.285156" xlink:href="#DejaVuSans-73"/>
      <use x="620.777344" xlink:href="#DejaVuSans-82"/>
      <use x="690.259766" xlink:href="#DejaVuSans-69"/>
      <use x="753.443359" xlink:href="#DejaVuSans-76"/>
      <use x="811.40625" xlink:href="#DejaVuSans-65"/>
      <use x="879.814453" xlink:href="#DejaVuSans-78"/>
      <use x="954.619141" xlink:href="#DejaVuSans-68"/>
     </g>
    </g>
   </g>
  </g>
 </g>
 <defs>
  <clipPath id="p8ee5700e91">
   <rect height="268.302246" width="485.130246" x="44.069754" y="26.8"/>
  </clipPath>
 </defs>
</svg>
