<?xml version="1.0" encoding="utf-8" standalone="no"?>
<!DOCTYPE svg PUBLIC "-//W3C//DTD SVG 1.1//EN"
  "http://www.w3.org/Graphics/SVG/1.1/DTD/svg11.dtd">
<!-- Created with matplotlib (https://matplotlib.org/) -->
<svg height="396pt" version="1.1" viewBox="0 0 576 396" width="576pt" xmlns="http://www.w3.org/2000/svg" xmlns:xlink="http://www.w3.org/1999/xlink">
 <defs>
  <style type="text/css">
*{stroke-linecap:butt;stroke-linejoin:round;}
  </style>
 </defs>
 <g id="figure_1">
  <g id="patch_1">
   <path d="M 0 396 
L 576 396 
L 576 0 
L 0 0 
z
" style="fill:#ffffff;"/>
  </g>
  <g id="axes_1">
   <g id="patch_2">
    <path d="M 43.622611 331.102246 
L 565.2 331.102246 
L 565.2 26.8 
L 43.622611 26.8 
z
" style="fill:#ffffff;"/>
   </g>
   <g id="matplotlib.axis_1">
    <g id="xtick_1">
     <g id="line2d_1">
      <defs>
       <path d="M 0 0 
L 0 3.5 
" id="mcf8f4b1bff" style="stroke:#000000;"/>
      </defs>
      <g>
       <use style="stroke:#000000;" x="53.486549" xlink:href="#mcf8f4b1bff" y="331.102246"/>
      </g>
     </g>
     <g id="text_1">
      <!-- 2020-01 -->
      <defs>
       <path d="M 19.1875 8.296875 
L 53.609375 8.296875 
L 53.609375 0 
L 7.328125 0 
L 7.328125 8.296875 
Q 12.9375 14.109375 22.625 23.890625 
Q 32.328125 33.6875 34.8125 36.53125 
Q 39.546875 41.84375 41.421875 45.53125 
Q 43.3125 49.21875 43.3125 52.78125 
Q 43.3125 58.59375 39.234375 62.25 
Q 35.15625 65.921875 28.609375 65.921875 
Q 23.96875 65.921875 18.8125 64.3125 
Q 13.671875 62.703125 7.8125 59.421875 
L 7.8125 69.390625 
Q 13.765625 71.78125 18.9375 73 
Q 24.125 74.21875 28.421875 74.21875 
Q 39.75 74.21875 46.484375 68.546875 
Q 53.21875 62.890625 53.21875 53.421875 
Q 53.21875 48.921875 51.53125 44.890625 
Q 49.859375 40.875 45.40625 35.40625 
Q 44.1875 33.984375 37.640625 27.21875 
Q 31.109375 20.453125 19.1875 8.296875 
z
" id="DejaVuSans-50"/>
       <path d="M 31.78125 66.40625 
Q 24.171875 66.40625 20.328125 58.90625 
Q 16.5 51.421875 16.5 36.375 
Q 16.5 21.390625 20.328125 13.890625 
Q 24.171875 6.390625 31.78125 6.390625 
Q 39.453125 6.390625 43.28125 13.890625 
Q 47.125 21.390625 47.125 36.375 
Q 47.125 51.421875 43.28125 58.90625 
Q 39.453125 66.40625 31.78125 66.40625 
z
M 31.78125 74.21875 
Q 44.046875 74.21875 50.515625 64.515625 
Q 56.984375 54.828125 56.984375 36.375 
Q 56.984375 17.96875 50.515625 8.265625 
Q 44.046875 -1.421875 31.78125 -1.421875 
Q 19.53125 -1.421875 13.0625 8.265625 
Q 6.59375 17.96875 6.59375 36.375 
Q 6.59375 54.828125 13.0625 64.515625 
Q 19.53125 74.21875 31.78125 74.21875 
z
" id="DejaVuSans-48"/>
       <path d="M 4.890625 31.390625 
L 31.203125 31.390625 
L 31.203125 23.390625 
L 4.890625 23.390625 
z
" id="DejaVuSans-45"/>
       <path d="M 12.40625 8.296875 
L 28.515625 8.296875 
L 28.515625 63.921875 
L 10.984375 60.40625 
L 10.984375 69.390625 
L 28.421875 72.90625 
L 38.28125 72.90625 
L 38.28125 8.296875 
L 54.390625 8.296875 
L 54.390625 0 
L 12.40625 0 
z
" id="DejaVuSans-49"/>
      </defs>
      <g transform="translate(16.261729 369.074092)rotate(-30)scale(0.1 -0.1)">
       <use xlink:href="#DejaVuSans-50"/>
       <use x="63.623047" xlink:href="#DejaVuSans-48"/>
       <use x="127.246094" xlink:href="#DejaVuSans-50"/>
       <use x="190.869141" xlink:href="#DejaVuSans-48"/>
       <use x="254.492188" xlink:href="#DejaVuSans-45"/>
       <use x="290.576172" xlink:href="#DejaVuSans-48"/>
       <use x="354.199219" xlink:href="#DejaVuSans-49"/>
      </g>
     </g>
    </g>
    <g id="xtick_2">
     <g id="line2d_2">
      <g>
       <use style="stroke:#000000;" x="107.132532" xlink:href="#mcf8f4b1bff" y="331.102246"/>
      </g>
     </g>
     <g id="text_2">
      <!-- 2020-02 -->
      <g transform="translate(69.907711 369.074092)rotate(-30)scale(0.1 -0.1)">
       <use xlink:href="#DejaVuSans-50"/>
       <use x="63.623047" xlink:href="#DejaVuSans-48"/>
       <use x="127.246094" xlink:href="#DejaVuSans-50"/>
       <use x="190.869141" xlink:href="#DejaVuSans-48"/>
       <use x="254.492188" xlink:href="#DejaVuSans-45"/>
       <use x="290.576172" xlink:href="#DejaVuSans-48"/>
       <use x="354.199219" xlink:href="#DejaVuSans-50"/>
      </g>
     </g>
    </g>
    <g id="xtick_3">
     <g id="line2d_3">
      <g>
       <use style="stroke:#000000;" x="157.317483" xlink:href="#mcf8f4b1bff" y="331.102246"/>
      </g>
     </g>
     <g id="text_3">
      <!-- 2020-03 -->
      <defs>
       <path d="M 40.578125 39.3125 
Q 47.65625 37.796875 51.625 33 
Q 55.609375 28.21875 55.609375 21.1875 
Q 55.609375 10.40625 48.1875 4.484375 
Q 40.765625 -1.421875 27.09375 -1.421875 
Q 22.515625 -1.421875 17.65625 -0.515625 
Q 12.796875 0.390625 7.625 2.203125 
L 7.625 11.71875 
Q 11.71875 9.328125 16.59375 8.109375 
Q 21.484375 6.890625 26.8125 6.890625 
Q 36.078125 6.890625 40.9375 10.546875 
Q 45.796875 14.203125 45.796875 21.1875 
Q 45.796875 27.640625 41.28125 31.265625 
Q 36.765625 34.90625 28.71875 34.90625 
L 20.21875 34.90625 
L 20.21875 43.015625 
L 29.109375 43.015625 
Q 36.375 43.015625 40.234375 45.921875 
Q 44.09375 48.828125 44.09375 54.296875 
Q 44.09375 59.90625 40.109375 62.90625 
Q 36.140625 65.921875 28.71875 65.921875 
Q 24.65625 65.921875 20.015625 65.03125 
Q 15.375 64.15625 9.8125 62.3125 
L 9.8125 71.09375 
Q 15.4375 72.65625 20.34375 73.4375 
Q 25.25 74.21875 29.59375 74.21875 
Q 40.828125 74.21875 47.359375 69.109375 
Q 53.90625 64.015625 53.90625 55.328125 
Q 53.90625 49.265625 50.4375 45.09375 
Q 46.96875 40.921875 40.578125 39.3125 
z
" id="DejaVuSans-51"/>
      </defs>
      <g transform="translate(120.092662 369.074092)rotate(-30)scale(0.1 -0.1)">
       <use xlink:href="#DejaVuSans-50"/>
       <use x="63.623047" xlink:href="#DejaVuSans-48"/>
       <use x="127.246094" xlink:href="#DejaVuSans-50"/>
       <use x="190.869141" xlink:href="#DejaVuSans-48"/>
       <use x="254.492188" xlink:href="#DejaVuSans-45"/>
       <use x="290.576172" xlink:href="#DejaVuSans-48"/>
       <use x="354.199219" xlink:href="#DejaVuSans-51"/>
      </g>
     </g>
    </g>
    <g id="xtick_4">
     <g id="line2d_4">
      <g>
       <use style="stroke:#000000;" x="210.963465" xlink:href="#mcf8f4b1bff" y="331.102246"/>
      </g>
     </g>
     <g id="text_4">
      <!-- 2020-04 -->
      <defs>
       <path d="M 37.796875 64.3125 
L 12.890625 25.390625 
L 37.796875 25.390625 
z
M 35.203125 72.90625 
L 47.609375 72.90625 
L 47.609375 25.390625 
L 58.015625 25.390625 
L 58.015625 17.1875 
L 47.609375 17.1875 
L 47.609375 0 
L 37.796875 0 
L 37.796875 17.1875 
L 4.890625 17.1875 
L 4.890625 26.703125 
z
" id="DejaVuSans-52"/>
      </defs>
      <g transform="translate(173.738644 369.074092)rotate(-30)scale(0.1 -0.1)">
       <use xlink:href="#DejaVuSans-50"/>
       <use x="63.623047" xlink:href="#DejaVuSans-48"/>
       <use x="127.246094" xlink:href="#DejaVuSans-50"/>
       <use x="190.869141" xlink:href="#DejaVuSans-48"/>
       <use x="254.492188" xlink:href="#DejaVuSans-45"/>
       <use x="290.576172" xlink:href="#DejaVuSans-48"/>
       <use x="354.199219" xlink:href="#DejaVuSans-52"/>
      </g>
     </g>
    </g>
    <g id="xtick_5">
     <g id="line2d_5">
      <g>
       <use style="stroke:#000000;" x="262.878932" xlink:href="#mcf8f4b1bff" y="331.102246"/>
      </g>
     </g>
     <g id="text_5">
      <!-- 2020-05 -->
      <defs>
       <path d="M 10.796875 72.90625 
L 49.515625 72.90625 
L 49.515625 64.59375 
L 19.828125 64.59375 
L 19.828125 46.734375 
Q 21.96875 47.46875 24.109375 47.828125 
Q 26.265625 48.1875 28.421875 48.1875 
Q 40.625 48.1875 47.75 41.5 
Q 54.890625 34.8125 54.890625 23.390625 
Q 54.890625 11.625 47.5625 5.09375 
Q 40.234375 -1.421875 26.90625 -1.421875 
Q 22.3125 -1.421875 17.546875 -0.640625 
Q 12.796875 0.140625 7.71875 1.703125 
L 7.71875 11.625 
Q 12.109375 9.234375 16.796875 8.0625 
Q 21.484375 6.890625 26.703125 6.890625 
Q 35.15625 6.890625 40.078125 11.328125 
Q 45.015625 15.765625 45.015625 23.390625 
Q 45.015625 31 40.078125 35.4375 
Q 35.15625 39.890625 26.703125 39.890625 
Q 22.75 39.890625 18.8125 39.015625 
Q 14.890625 38.140625 10.796875 36.28125 
z
" id="DejaVuSans-53"/>
      </defs>
      <g transform="translate(225.654111 369.074092)rotate(-30)scale(0.1 -0.1)">
       <use xlink:href="#DejaVuSans-50"/>
       <use x="63.623047" xlink:href="#DejaVuSans-48"/>
       <use x="127.246094" xlink:href="#DejaVuSans-50"/>
       <use x="190.869141" xlink:href="#DejaVuSans-48"/>
       <use x="254.492188" xlink:href="#DejaVuSans-45"/>
       <use x="290.576172" xlink:href="#DejaVuSans-48"/>
       <use x="354.199219" xlink:href="#DejaVuSans-53"/>
      </g>
     </g>
    </g>
    <g id="xtick_6">
     <g id="line2d_6">
      <g>
       <use style="stroke:#000000;" x="316.524914" xlink:href="#mcf8f4b1bff" y="331.102246"/>
      </g>
     </g>
     <g id="text_6">
      <!-- 2020-06 -->
      <defs>
       <path d="M 33.015625 40.375 
Q 26.375 40.375 22.484375 35.828125 
Q 18.609375 31.296875 18.609375 23.390625 
Q 18.609375 15.53125 22.484375 10.953125 
Q 26.375 6.390625 33.015625 6.390625 
Q 39.65625 6.390625 43.53125 10.953125 
Q 47.40625 15.53125 47.40625 23.390625 
Q 47.40625 31.296875 43.53125 35.828125 
Q 39.65625 40.375 33.015625 40.375 
z
M 52.59375 71.296875 
L 52.59375 62.3125 
Q 48.875 64.0625 45.09375 64.984375 
Q 41.3125 65.921875 37.59375 65.921875 
Q 27.828125 65.921875 22.671875 59.328125 
Q 17.53125 52.734375 16.796875 39.40625 
Q 19.671875 43.65625 24.015625 45.921875 
Q 28.375 48.1875 33.59375 48.1875 
Q 44.578125 48.1875 50.953125 41.515625 
Q 57.328125 34.859375 57.328125 23.390625 
Q 57.328125 12.15625 50.6875 5.359375 
Q 44.046875 -1.421875 33.015625 -1.421875 
Q 20.359375 -1.421875 13.671875 8.265625 
Q 6.984375 17.96875 6.984375 36.375 
Q 6.984375 53.65625 15.1875 63.9375 
Q 23.390625 74.21875 37.203125 74.21875 
Q 40.921875 74.21875 44.703125 73.484375 
Q 48.484375 72.75 52.59375 71.296875 
z
" id="DejaVuSans-54"/>
      </defs>
      <g transform="translate(279.300093 369.074092)rotate(-30)scale(0.1 -0.1)">
       <use xlink:href="#DejaVuSans-50"/>
       <use x="63.623047" xlink:href="#DejaVuSans-48"/>
       <use x="127.246094" xlink:href="#DejaVuSans-50"/>
       <use x="190.869141" xlink:href="#DejaVuSans-48"/>
       <use x="254.492188" xlink:href="#DejaVuSans-45"/>
       <use x="290.576172" xlink:href="#DejaVuSans-48"/>
       <use x="354.199219" xlink:href="#DejaVuSans-54"/>
      </g>
     </g>
    </g>
    <g id="xtick_7">
     <g id="line2d_7">
      <g>
       <use style="stroke:#000000;" x="368.440381" xlink:href="#mcf8f4b1bff" y="331.102246"/>
      </g>
     </g>
     <g id="text_7">
      <!-- 2020-07 -->
      <defs>
       <path d="M 8.203125 72.90625 
L 55.078125 72.90625 
L 55.078125 68.703125 
L 28.609375 0 
L 18.3125 0 
L 43.21875 64.59375 
L 8.203125 64.59375 
z
" id="DejaVuSans-55"/>
      </defs>
      <g transform="translate(331.21556 369.074092)rotate(-30)scale(0.1 -0.1)">
       <use xlink:href="#DejaVuSans-50"/>
       <use x="63.623047" xlink:href="#DejaVuSans-48"/>
       <use x="127.246094" xlink:href="#DejaVuSans-50"/>
       <use x="190.869141" xlink:href="#DejaVuSans-48"/>
       <use x="254.492188" xlink:href="#DejaVuSans-45"/>
       <use x="290.576172" xlink:href="#DejaVuSans-48"/>
       <use x="354.199219" xlink:href="#DejaVuSans-55"/>
      </g>
     </g>
    </g>
    <g id="xtick_8">
     <g id="line2d_8">
      <g>
       <use style="stroke:#000000;" x="422.086363" xlink:href="#mcf8f4b1bff" y="331.102246"/>
      </g>
     </g>
     <g id="text_8">
      <!-- 2020-08 -->
      <defs>
       <path d="M 31.78125 34.625 
Q 24.75 34.625 20.71875 30.859375 
Q 16.703125 27.09375 16.703125 20.515625 
Q 16.703125 13.921875 20.71875 10.15625 
Q 24.75 6.390625 31.78125 6.390625 
Q 38.8125 6.390625 42.859375 10.171875 
Q 46.921875 13.96875 46.921875 20.515625 
Q 46.921875 27.09375 42.890625 30.859375 
Q 38.875 34.625 31.78125 34.625 
z
M 21.921875 38.8125 
Q 15.578125 40.375 12.03125 44.71875 
Q 8.5 49.078125 8.5 55.328125 
Q 8.5 64.0625 14.71875 69.140625 
Q 20.953125 74.21875 31.78125 74.21875 
Q 42.671875 74.21875 48.875 69.140625 
Q 55.078125 64.0625 55.078125 55.328125 
Q 55.078125 49.078125 51.53125 44.71875 
Q 48 40.375 41.703125 38.8125 
Q 48.828125 37.15625 52.796875 32.3125 
Q 56.78125 27.484375 56.78125 20.515625 
Q 56.78125 9.90625 50.3125 4.234375 
Q 43.84375 -1.421875 31.78125 -1.421875 
Q 19.734375 -1.421875 13.25 4.234375 
Q 6.78125 9.90625 6.78125 20.515625 
Q 6.78125 27.484375 10.78125 32.3125 
Q 14.796875 37.15625 21.921875 38.8125 
z
M 18.3125 54.390625 
Q 18.3125 48.734375 21.84375 45.5625 
Q 25.390625 42.390625 31.78125 42.390625 
Q 38.140625 42.390625 41.71875 45.5625 
Q 45.3125 48.734375 45.3125 54.390625 
Q 45.3125 60.0625 41.71875 63.234375 
Q 38.140625 66.40625 31.78125 66.40625 
Q 25.390625 66.40625 21.84375 63.234375 
Q 18.3125 60.0625 18.3125 54.390625 
z
" id="DejaVuSans-56"/>
      </defs>
      <g transform="translate(384.861543 369.074092)rotate(-30)scale(0.1 -0.1)">
       <use xlink:href="#DejaVuSans-50"/>
       <use x="63.623047" xlink:href="#DejaVuSans-48"/>
       <use x="127.246094" xlink:href="#DejaVuSans-50"/>
       <use x="190.869141" xlink:href="#DejaVuSans-48"/>
       <use x="254.492188" xlink:href="#DejaVuSans-45"/>
       <use x="290.576172" xlink:href="#DejaVuSans-48"/>
       <use x="354.199219" xlink:href="#DejaVuSans-56"/>
      </g>
     </g>
    </g>
    <g id="xtick_9">
     <g id="line2d_9">
      <g>
       <use style="stroke:#000000;" x="475.732346" xlink:href="#mcf8f4b1bff" y="331.102246"/>
      </g>
     </g>
     <g id="text_9">
      <!-- 2020-09 -->
      <defs>
       <path d="M 10.984375 1.515625 
L 10.984375 10.5 
Q 14.703125 8.734375 18.5 7.8125 
Q 22.3125 6.890625 25.984375 6.890625 
Q 35.75 6.890625 40.890625 13.453125 
Q 46.046875 20.015625 46.78125 33.40625 
Q 43.953125 29.203125 39.59375 26.953125 
Q 35.25 24.703125 29.984375 24.703125 
Q 19.046875 24.703125 12.671875 31.3125 
Q 6.296875 37.9375 6.296875 49.421875 
Q 6.296875 60.640625 12.9375 67.421875 
Q 19.578125 74.21875 30.609375 74.21875 
Q 43.265625 74.21875 49.921875 64.515625 
Q 56.59375 54.828125 56.59375 36.375 
Q 56.59375 19.140625 48.40625 8.859375 
Q 40.234375 -1.421875 26.421875 -1.421875 
Q 22.703125 -1.421875 18.890625 -0.6875 
Q 15.09375 0.046875 10.984375 1.515625 
z
M 30.609375 32.421875 
Q 37.25 32.421875 41.125 36.953125 
Q 45.015625 41.5 45.015625 49.421875 
Q 45.015625 57.28125 41.125 61.84375 
Q 37.25 66.40625 30.609375 66.40625 
Q 23.96875 66.40625 20.09375 61.84375 
Q 16.21875 57.28125 16.21875 49.421875 
Q 16.21875 41.5 20.09375 36.953125 
Q 23.96875 32.421875 30.609375 32.421875 
z
" id="DejaVuSans-57"/>
      </defs>
      <g transform="translate(438.507525 369.074092)rotate(-30)scale(0.1 -0.1)">
       <use xlink:href="#DejaVuSans-50"/>
       <use x="63.623047" xlink:href="#DejaVuSans-48"/>
       <use x="127.246094" xlink:href="#DejaVuSans-50"/>
       <use x="190.869141" xlink:href="#DejaVuSans-48"/>
       <use x="254.492188" xlink:href="#DejaVuSans-45"/>
       <use x="290.576172" xlink:href="#DejaVuSans-48"/>
       <use x="354.199219" xlink:href="#DejaVuSans-57"/>
      </g>
     </g>
    </g>
    <g id="xtick_10">
     <g id="line2d_10">
      <g>
       <use style="stroke:#000000;" x="527.647812" xlink:href="#mcf8f4b1bff" y="331.102246"/>
      </g>
     </g>
     <g id="text_10">
      <!-- 2020-10 -->
      <g transform="translate(490.422992 369.074092)rotate(-30)scale(0.1 -0.1)">
       <use xlink:href="#DejaVuSans-50"/>
       <use x="63.623047" xlink:href="#DejaVuSans-48"/>
       <use x="127.246094" xlink:href="#DejaVuSans-50"/>
       <use x="190.869141" xlink:href="#DejaVuSans-48"/>
       <use x="254.492188" xlink:href="#DejaVuSans-45"/>
       <use x="290.576172" xlink:href="#DejaVuSans-49"/>
       <use x="354.199219" xlink:href="#DejaVuSans-48"/>
      </g>
     </g>
    </g>
    <g id="text_11">
     <!-- Date -->
     <defs>
      <path d="M 19.671875 64.796875 
L 19.671875 8.109375 
L 31.59375 8.109375 
Q 46.6875 8.109375 53.6875 14.9375 
Q 60.6875 21.78125 60.6875 36.53125 
Q 60.6875 51.171875 53.6875 57.984375 
Q 46.6875 64.796875 31.59375 64.796875 
z
M 9.8125 72.90625 
L 30.078125 72.90625 
Q 51.265625 72.90625 61.171875 64.09375 
Q 71.09375 55.28125 71.09375 36.53125 
Q 71.09375 17.671875 61.125 8.828125 
Q 51.171875 0 30.078125 0 
L 9.8125 0 
z
" id="DejaVuSans-68"/>
      <path d="M 34.28125 27.484375 
Q 23.390625 27.484375 19.1875 25 
Q 14.984375 22.515625 14.984375 16.5 
Q 14.984375 11.71875 18.140625 8.90625 
Q 21.296875 6.109375 26.703125 6.109375 
Q 34.1875 6.109375 38.703125 11.40625 
Q 43.21875 16.703125 43.21875 25.484375 
L 43.21875 27.484375 
z
M 52.203125 31.203125 
L 52.203125 0 
L 43.21875 0 
L 43.21875 8.296875 
Q 40.140625 3.328125 35.546875 0.953125 
Q 30.953125 -1.421875 24.3125 -1.421875 
Q 15.921875 -1.421875 10.953125 3.296875 
Q 6 8.015625 6 15.921875 
Q 6 25.140625 12.171875 29.828125 
Q 18.359375 34.515625 30.609375 34.515625 
L 43.21875 34.515625 
L 43.21875 35.40625 
Q 43.21875 41.609375 39.140625 45 
Q 35.0625 48.390625 27.6875 48.390625 
Q 23 48.390625 18.546875 47.265625 
Q 14.109375 46.140625 10.015625 43.890625 
L 10.015625 52.203125 
Q 14.9375 54.109375 19.578125 55.046875 
Q 24.21875 56 28.609375 56 
Q 40.484375 56 46.34375 49.84375 
Q 52.203125 43.703125 52.203125 31.203125 
z
" id="DejaVuSans-97"/>
      <path d="M 18.3125 70.21875 
L 18.3125 54.6875 
L 36.8125 54.6875 
L 36.8125 47.703125 
L 18.3125 47.703125 
L 18.3125 18.015625 
Q 18.3125 11.328125 20.140625 9.421875 
Q 21.96875 7.515625 27.59375 7.515625 
L 36.8125 7.515625 
L 36.8125 0 
L 27.59375 0 
Q 17.1875 0 13.234375 3.875 
Q 9.28125 7.765625 9.28125 18.015625 
L 9.28125 47.703125 
L 2.6875 47.703125 
L 2.6875 54.6875 
L 9.28125 54.6875 
L 9.28125 70.21875 
z
" id="DejaVuSans-116"/>
      <path d="M 56.203125 29.59375 
L 56.203125 25.203125 
L 14.890625 25.203125 
Q 15.484375 15.921875 20.484375 11.0625 
Q 25.484375 6.203125 34.421875 6.203125 
Q 39.59375 6.203125 44.453125 7.46875 
Q 49.3125 8.734375 54.109375 11.28125 
L 54.109375 2.78125 
Q 49.265625 0.734375 44.1875 -0.34375 
Q 39.109375 -1.421875 33.890625 -1.421875 
Q 20.796875 -1.421875 13.15625 6.1875 
Q 5.515625 13.8125 5.515625 26.8125 
Q 5.515625 40.234375 12.765625 48.109375 
Q 20.015625 56 32.328125 56 
Q 43.359375 56 49.78125 48.890625 
Q 56.203125 41.796875 56.203125 29.59375 
z
M 47.21875 32.234375 
Q 47.125 39.59375 43.09375 43.984375 
Q 39.0625 48.390625 32.421875 48.390625 
Q 24.90625 48.390625 20.390625 44.140625 
Q 15.875 39.890625 15.1875 32.171875 
z
" id="DejaVuSans-101"/>
     </defs>
     <g transform="translate(291.265446 383.233436)scale(0.11 -0.11)">
      <use xlink:href="#DejaVuSans-68"/>
      <use x="77.001953" xlink:href="#DejaVuSans-97"/>
      <use x="138.28125" xlink:href="#DejaVuSans-116"/>
      <use x="177.490234" xlink:href="#DejaVuSans-101"/>
     </g>
    </g>
   </g>
   <g id="matplotlib.axis_2">
    <g id="ytick_1">
     <g id="line2d_11">
      <defs>
       <path d="M 0 0 
L -3.5 0 
" id="m868696d26a" style="stroke:#000000;"/>
      </defs>
      <g>
       <use style="stroke:#000000;" x="43.622611" xlink:href="#m868696d26a" y="317.270326"/>
      </g>
     </g>
     <g id="text_12">
      <!-- 0 -->
      <g transform="translate(26.760111 321.069544)scale(0.1 -0.1)">
       <use xlink:href="#DejaVuSans-48"/>
      </g>
     </g>
    </g>
    <g id="ytick_2">
     <g id="line2d_12">
      <g>
       <use style="stroke:#000000;" x="43.622611" xlink:href="#m868696d26a" y="282.70182"/>
      </g>
     </g>
     <g id="text_13">
      <!-- 50 -->
      <g transform="translate(20.397611 286.501038)scale(0.1 -0.1)">
       <use xlink:href="#DejaVuSans-53"/>
       <use x="63.623047" xlink:href="#DejaVuSans-48"/>
      </g>
     </g>
    </g>
    <g id="ytick_3">
     <g id="line2d_13">
      <g>
       <use style="stroke:#000000;" x="43.622611" xlink:href="#m868696d26a" y="248.133313"/>
      </g>
     </g>
     <g id="text_14">
      <!-- 100 -->
      <g transform="translate(14.035111 251.932532)scale(0.1 -0.1)">
       <use xlink:href="#DejaVuSans-49"/>
       <use x="63.623047" xlink:href="#DejaVuSans-48"/>
       <use x="127.246094" xlink:href="#DejaVuSans-48"/>
      </g>
     </g>
    </g>
    <g id="ytick_4">
     <g id="line2d_14">
      <g>
       <use style="stroke:#000000;" x="43.622611" xlink:href="#m868696d26a" y="213.564807"/>
      </g>
     </g>
     <g id="text_15">
      <!-- 150 -->
      <g transform="translate(14.035111 217.364026)scale(0.1 -0.1)">
       <use xlink:href="#DejaVuSans-49"/>
       <use x="63.623047" xlink:href="#DejaVuSans-53"/>
       <use x="127.246094" xlink:href="#DejaVuSans-48"/>
      </g>
     </g>
    </g>
    <g id="ytick_5">
     <g id="line2d_15">
      <g>
       <use style="stroke:#000000;" x="43.622611" xlink:href="#m868696d26a" y="178.996301"/>
      </g>
     </g>
     <g id="text_16">
      <!-- 200 -->
      <g transform="translate(14.035111 182.79552)scale(0.1 -0.1)">
       <use xlink:href="#DejaVuSans-50"/>
       <use x="63.623047" xlink:href="#DejaVuSans-48"/>
       <use x="127.246094" xlink:href="#DejaVuSans-48"/>
      </g>
     </g>
    </g>
    <g id="ytick_6">
     <g id="line2d_16">
      <g>
       <use style="stroke:#000000;" x="43.622611" xlink:href="#m868696d26a" y="144.427795"/>
      </g>
     </g>
     <g id="text_17">
      <!-- 250 -->
      <g transform="translate(14.035111 148.227014)scale(0.1 -0.1)">
       <use xlink:href="#DejaVuSans-50"/>
       <use x="63.623047" xlink:href="#DejaVuSans-53"/>
       <use x="127.246094" xlink:href="#DejaVuSans-48"/>
      </g>
     </g>
    </g>
    <g id="ytick_7">
     <g id="line2d_17">
      <g>
       <use style="stroke:#000000;" x="43.622611" xlink:href="#m868696d26a" y="109.859289"/>
      </g>
     </g>
     <g id="text_18">
      <!-- 300 -->
      <g transform="translate(14.035111 113.658507)scale(0.1 -0.1)">
       <use xlink:href="#DejaVuSans-51"/>
       <use x="63.623047" xlink:href="#DejaVuSans-48"/>
       <use x="127.246094" xlink:href="#DejaVuSans-48"/>
      </g>
     </g>
    </g>
    <g id="ytick_8">
     <g id="line2d_18">
      <g>
       <use style="stroke:#000000;" x="43.622611" xlink:href="#m868696d26a" y="75.290782"/>
      </g>
     </g>
     <g id="text_19">
      <!-- 350 -->
      <g transform="translate(14.035111 79.090001)scale(0.1 -0.1)">
       <use xlink:href="#DejaVuSans-51"/>
       <use x="63.623047" xlink:href="#DejaVuSans-53"/>
       <use x="127.246094" xlink:href="#DejaVuSans-48"/>
      </g>
     </g>
    </g>
    <g id="ytick_9">
     <g id="line2d_19">
      <g>
       <use style="stroke:#000000;" x="43.622611" xlink:href="#m868696d26a" y="40.722276"/>
      </g>
     </g>
     <g id="text_20">
      <!-- 400 -->
      <g transform="translate(14.035111 44.521495)scale(0.1 -0.1)">
       <use xlink:href="#DejaVuSans-52"/>
       <use x="63.623047" xlink:href="#DejaVuSans-48"/>
       <use x="127.246094" xlink:href="#DejaVuSans-48"/>
      </g>
     </g>
    </g>
   </g>
   <g id="line2d_20">
    <path clip-path="url(#pd40463306b)" d="M 67.330674 317.270326 
L 160.778514 317.208911 
L 176.353154 316.596518 
L 179.814185 316.10169 
L 181.544701 315.759522 
L 183.275216 315.659504 
L 185.005732 315.106771 
L 186.736247 314.120625 
L 190.197279 312.464181 
L 191.927794 311.285018 
L 193.65831 310.79019 
L 195.388825 309.568914 
L 197.119341 307.994941 
L 198.849856 307.108814 
L 200.580372 304.94175 
L 202.310887 301.646409 
L 204.041403 299.424949 
L 205.771919 296.74902 
L 207.502434 294.443334 
L 209.23295 292.414892 
L 210.963465 288.028123 
L 212.693981 284.915272 
L 214.424496 283.037734 
L 216.155012 281.684855 
L 217.885527 276.338261 
L 219.616043 274.462478 
L 221.346559 273.472823 
L 223.077074 271.440872 
L 224.80759 271.063609 
L 226.538105 269.858125 
L 228.268621 268.224492 
L 229.999136 270.742498 
L 231.729652 271.053081 
L 233.460167 269.515957 
L 235.190683 272.323489 
L 236.921199 273.516691 
L 240.38223 274.518629 
L 242.112745 274.632685 
L 243.843261 275.682 
L 245.573776 277.027861 
L 247.304292 277.322652 
L 249.034808 277.382312 
L 250.765323 279.10368 
L 252.495839 280.370579 
L 254.226354 282.923678 
L 255.95687 283.164073 
L 257.687385 285.090742 
L 259.417901 287.928105 
L 261.148416 288.980929 
L 262.878932 289.863547 
L 264.609448 290.912862 
L 266.339963 291.146238 
L 268.070479 292.513156 
L 269.800994 292.771098 
L 271.53151 292.406118 
L 273.262025 293.022021 
L 276.723056 295.980458 
L 278.453572 297.756222 
L 280.184088 298.798518 
L 281.914603 300.158417 
L 283.645119 300.974356 
L 285.375634 302.6308 
L 287.10615 303.65204 
L 290.567181 304.410073 
L 292.297696 304.541676 
L 294.028212 304.910165 
L 297.489243 306.063008 
L 299.219759 306.113895 
L 302.68079 306.747344 
L 309.602852 308.917917 
L 311.333368 309.835629 
L 316.524914 311.113057 
L 318.25543 311.197283 
L 321.716461 311.609639 
L 323.446977 311.800902 
L 325.177492 312.315031 
L 326.908008 312.476464 
L 328.638523 312.830915 
L 330.369039 312.467691 
L 332.099554 313.167819 
L 333.83007 313.390667 
L 337.291101 313.58193 
L 340.752132 313.246781 
L 342.482648 313.946909 
L 344.213163 313.61527 
L 347.674194 313.776703 
L 354.596257 314.141682 
L 356.326772 314.396115 
L 358.057288 314.431209 
L 361.518319 314.922527 
L 366.709865 315.213808 
L 368.440381 315.090979 
L 371.901412 314.057456 
L 375.362443 312.764236 
L 377.092959 312.357144 
L 380.55399 310.944605 
L 382.284505 310.779662 
L 384.015021 310.818266 
L 385.745537 310.419947 
L 389.206568 309.912837 
L 390.937083 310.263778 
L 392.667599 310.439249 
L 394.398114 310.474343 
L 396.12863 310.202363 
L 397.859146 310.21991 
L 403.050692 310.005836 
L 404.781208 309.983025 
L 408.242239 309.705781 
L 409.972754 309.856686 
L 413.433786 309.628574 
L 420.355848 308.637164 
L 423.816879 308.695069 
L 425.547394 308.27394 
L 430.738941 307.944055 
L 434.199972 308.051092 
L 435.930488 307.503623 
L 437.661003 307.779112 
L 439.391519 307.045644 
L 441.122034 306.833325 
L 442.85255 306.424478 
L 444.583066 305.56818 
L 446.313581 305.12073 
L 451.505128 305.403238 
L 453.235643 305.785764 
L 454.966159 305.827877 
L 456.696674 306.487647 
L 458.42719 306.266554 
L 460.157706 306.29112 
L 465.349252 305.620822 
L 467.079768 305.068089 
L 468.810283 304.720657 
L 470.540799 305.017202 
L 472.271315 304.053868 
L 474.00183 303.367777 
L 475.732346 303.40989 
L 477.462861 302.771176 
L 479.193377 302.495687 
L 482.654408 300.479528 
L 484.384923 298.568652 
L 486.115439 296.14891 
L 491.306986 290.584732 
L 494.768017 285.311835 
L 496.498532 284.853857 
L 498.229048 285.325873 
L 499.959563 284.35201 
L 501.690079 282.404285 
L 503.420595 282.035796 
L 506.881626 279.828374 
L 508.612141 279.052793 
L 512.073172 273.730765 
L 513.803688 270.770573 
L 515.534203 265.780185 
L 517.264719 262.354995 
L 518.995235 260.598533 
L 520.72575 257.929623 
L 522.456266 258.698185 
L 524.186781 256.129293 
L 525.917297 255.123845 
L 527.647812 255.199298 
L 529.378328 256.824157 
L 531.108844 246.002875 
L 532.839359 217.034406 
L 536.30039 191.826277 
L 538.030906 181.522633 
L 539.761421 165.093306 
L 541.491937 154.608927 
L 541.491937 154.608927 
" style="fill:none;stroke:#1f77b4;stroke-linecap:square;stroke-width:1.75;"/>
   </g>
   <g id="line2d_21">
    <path clip-path="url(#pd40463306b)" d="M 67.330674 317.270326 
L 164.239545 317.161856 
L 174.622638 316.673742 
L 178.08367 315.932532 
L 181.544701 314.829756 
L 183.275216 314.594738 
L 188.466763 313.546196 
L 190.197279 312.985769 
L 193.65831 312.515734 
L 197.119341 310.237868 
L 198.849856 308.375804 
L 200.580372 305.917155 
L 202.310887 303.946621 
L 204.041403 301.506051 
L 207.502434 298.035018 
L 209.23295 291.798005 
L 210.963465 288.507755 
L 212.693981 286.392594 
L 214.424496 282.162273 
L 216.155012 279.305902 
L 217.885527 275.29252 
L 219.616043 273.918569 
L 221.346559 276.847253 
L 223.077074 276.503766 
L 224.80759 274.695936 
L 226.538105 276.160278 
L 228.268621 276.684549 
L 229.999136 277.389602 
L 231.729652 279.197432 
L 233.460167 278.781631 
L 235.190683 277.805403 
L 236.921199 278.492378 
L 238.651714 278.69124 
L 240.38223 276.955723 
L 242.112745 276.1422 
L 243.843261 274.189744 
L 245.573776 275.437146 
L 247.304292 275.871025 
L 249.034808 275.563694 
L 250.765323 275.907182 
L 252.495839 276.937645 
L 254.226354 278.637005 
L 255.95687 279.830172 
L 257.687385 280.227895 
L 261.148416 282.126116 
L 262.878932 281.891098 
L 264.609448 283.35544 
L 266.339963 285.217505 
L 269.800994 286.247968 
L 271.53151 286.989178 
L 273.262025 288.869321 
L 274.992541 290.243272 
L 276.723056 292.358432 
L 278.453572 292.159571 
L 280.184088 292.665763 
L 281.914603 293.298504 
L 283.645119 295.214803 
L 285.375634 295.702917 
L 287.10615 297.185338 
L 288.836665 296.62491 
L 292.297696 299.788612 
L 297.489243 303.910464 
L 299.219759 304.452813 
L 300.950274 306.531817 
L 302.68079 307.074166 
L 304.411305 307.110323 
L 306.141821 307.688828 
L 307.872336 308.430038 
L 309.602852 309.460501 
L 311.333368 310.798295 
L 313.063883 311.105626 
L 316.524914 312.533812 
L 318.25543 312.099933 
L 319.985945 312.497655 
L 321.716461 312.479577 
L 323.446977 312.66036 
L 325.177492 313.275022 
L 328.638523 313.275022 
L 330.369039 313.980076 
L 332.099554 314.35972 
L 333.83007 314.938225 
L 337.291101 314.974382 
L 344.213163 314.46819 
L 347.674194 314.576659 
L 351.135225 314.46819 
L 352.865741 314.739364 
L 354.596257 314.793599 
L 358.057288 315.119008 
L 361.518319 315.498653 
L 363.248834 315.824062 
L 364.97935 315.986767 
L 382.284505 316.348333 
L 384.015021 316.239863 
L 385.745537 316.312176 
L 387.476052 316.131393 
L 396.12863 316.041001 
L 397.859146 315.787905 
L 401.320177 315.697514 
L 403.050692 315.354026 
L 409.972754 315.010539 
L 411.70327 315.354026 
L 413.433786 315.426339 
L 415.164301 315.751749 
L 416.894817 315.534809 
L 418.625332 315.516731 
L 420.355848 315.335948 
L 422.086363 315.498653 
L 423.816879 315.010539 
L 427.27791 314.395876 
L 429.008426 313.636588 
L 430.738941 312.750751 
L 432.469457 312.515734 
L 434.199972 311.756445 
L 439.391519 310.725982 
L 442.85255 311.376801 
L 444.583066 310.979078 
L 448.044097 311.232174 
L 453.235643 311.286409 
L 454.966159 310.74406 
L 456.696674 310.635591 
L 458.42719 309.333953 
L 461.888221 307.88769 
L 463.618737 307.978081 
L 465.349252 307.67075 
L 467.079768 307.833455 
L 468.810283 308.195021 
L 470.540799 308.827761 
L 472.271315 308.104629 
L 474.00183 306.405269 
L 475.732346 304.416656 
L 477.462861 302.807688 
L 479.193377 302.211104 
L 480.923892 300.258648 
L 482.654408 299.300498 
L 484.384923 297.763843 
L 486.115439 298.016939 
L 487.845955 297.619217 
L 489.57647 297.564982 
L 491.306986 296.480284 
L 493.037501 296.191031 
L 494.768017 294.744768 
L 496.498532 294.093949 
L 498.229048 295.467899 
L 499.959563 293.822774 
L 501.690079 291.870318 
L 503.420595 289.538218 
L 505.15111 289.032026 
L 506.881626 286.699925 
L 508.612141 286.681847 
L 510.342657 283.337362 
L 512.073172 281.24028 
L 513.803688 277.281133 
L 515.534203 274.117431 
L 518.995235 261.119135 
L 520.72575 259.329384 
L 522.456266 259.925967 
L 524.186781 252.278848 
L 525.917297 249.49479 
L 529.378328 241.901905 
L 531.108844 240.99799 
L 532.839359 233.513575 
L 534.569875 224.926384 
L 536.30039 225.034854 
L 538.030906 217.550439 
L 539.761421 211.06033 
L 541.491937 202.545452 
L 541.491937 202.545452 
" style="fill:none;stroke:#ff7f0e;stroke-linecap:square;stroke-width:1.75;"/>
   </g>
   <g id="line2d_22">
    <path clip-path="url(#pd40463306b)" d="M 67.330674 317.270326 
L 171.161607 317.176348 
L 172.892123 317.113696 
L 176.353154 316.549827 
L 178.08367 316.142589 
L 179.814185 315.453416 
L 181.544701 314.388332 
L 183.275216 313.511203 
L 185.005732 313.197943 
L 186.736247 313.072639 
L 190.197279 312.477444 
L 191.927794 310.378601 
L 193.65831 309.344842 
L 195.388825 308.060475 
L 197.119341 306.556826 
L 198.849856 302.265161 
L 200.580372 299.383166 
L 202.310887 294.402329 
L 205.771919 289.264861 
L 207.502434 284.910544 
L 209.23295 283.281591 
L 210.963465 279.397164 
L 214.424496 268.87162 
L 216.155012 262.136525 
L 217.885527 255.996624 
L 219.616043 253.11463 
L 221.346559 247.507272 
L 223.077074 247.225338 
L 224.80759 255.620712 
L 226.538105 250.702527 
L 228.268621 252.17485 
L 229.999136 251.454351 
L 231.729652 251.109765 
L 233.460167 252.770044 
L 235.190683 253.11463 
L 236.921199 244.719256 
L 238.651714 252.80137 
L 240.38223 254.305019 
L 243.843261 256.497841 
L 245.573776 254.430323 
L 247.304292 254.367671 
L 249.034808 255.933972 
L 250.765323 255.965298 
L 252.495839 255.746016 
L 254.226354 260.632876 
L 257.687385 265.175149 
L 259.417901 270.093335 
L 261.148416 271.690962 
L 262.878932 274.291022 
L 264.609448 277.924841 
L 266.339963 278.050145 
L 268.070479 278.300753 
L 269.800994 281.026117 
L 271.53151 281.715289 
L 273.262025 284.722588 
L 274.992541 284.973196 
L 276.723056 287.009387 
L 278.453572 285.474412 
L 280.184088 287.69856 
L 281.914603 288.951601 
L 285.375634 286.476845 
L 287.10615 287.291322 
L 288.836665 285.25513 
L 290.567181 287.166017 
L 292.297696 287.886516 
L 294.028212 285.975629 
L 295.758728 286.696127 
L 297.489243 285.505738 
L 299.219759 285.129826 
L 300.950274 285.067174 
L 302.68079 285.756346 
L 304.411305 285.599716 
L 306.141821 286.382867 
L 307.872336 286.790105 
L 309.602852 289.734751 
L 311.333368 290.862488 
L 313.063883 293.963764 
L 314.794399 295.780674 
L 316.524914 297.252997 
L 318.25543 299.571123 
L 319.985945 300.041013 
L 321.716461 301.200076 
L 323.446977 302.014552 
L 326.908008 304.70859 
L 328.638523 305.241133 
L 330.369039 306.024283 
L 332.099554 307.402628 
L 333.83007 306.5255 
L 339.021617 306.431522 
L 344.213163 304.614612 
L 345.943679 305.084503 
L 347.674194 306.5255 
L 349.40471 307.15202 
L 351.135225 305.241133 
L 352.865741 304.959199 
L 354.596257 305.397763 
L 356.326772 305.585719 
L 358.057288 303.173615 
L 359.787803 302.10853 
L 361.518319 301.450684 
L 363.248834 303.800136 
L 364.97935 302.390465 
L 366.709865 303.173615 
L 368.440381 303.643506 
L 370.170897 306.274892 
L 371.901412 307.496606 
L 375.362443 308.185779 
L 377.092959 311.568989 
L 378.823474 312.320814 
L 380.55399 312.916008 
L 382.284505 313.699159 
L 384.015021 314.200375 
L 385.745537 315.046178 
L 389.206568 314.920874 
L 390.937083 314.32568 
L 396.12863 313.918441 
L 397.859146 313.824463 
L 399.589661 313.354573 
L 404.781208 313.072639 
L 406.511723 312.289488 
L 408.242239 311.381033 
L 409.972754 310.754513 
L 411.70327 311.036447 
L 413.433786 310.096666 
L 415.164301 310.127992 
L 416.894817 309.814732 
L 418.625332 310.879817 
L 420.355848 311.475011 
L 422.086363 311.756946 
L 423.816879 311.287055 
L 425.547394 311.944902 
L 427.27791 311.913576 
L 429.008426 312.477444 
L 430.738941 312.289488 
L 432.469457 312.571422 
L 434.199972 312.634074 
L 439.391519 313.636507 
L 441.122034 313.824463 
L 444.583066 313.793137 
L 446.313581 313.542529 
L 448.044097 313.793137 
L 449.774612 313.730485 
L 453.235643 312.978661 
L 454.966159 312.853356 
L 456.696674 312.35214 
L 458.42719 312.132858 
L 461.888221 311.913576 
L 463.618737 311.788272 
L 467.079768 310.879817 
L 468.810283 310.879817 
L 470.540799 310.691861 
L 472.271315 309.564124 
L 475.732346 308.217105 
L 477.462861 307.966497 
L 480.923892 306.964064 
L 482.654408 305.805001 
L 484.384923 304.489308 
L 487.845955 298.443386 
L 489.57647 294.590285 
L 491.306986 292.961332 
L 494.768017 287.667234 
L 496.498532 285.662368 
L 498.229048 284.096067 
L 499.959563 285.349108 
L 501.690079 284.284023 
L 503.420595 282.216506 
L 506.881626 279.083903 
L 508.612141 277.924841 
L 510.342657 276.327213 
L 512.073172 270.970463 
L 515.534203 259.379835 
L 517.264719 255.150822 
L 520.72575 245.095168 
L 522.456266 243.466215 
L 524.186781 240.803503 
L 525.917297 240.834829 
L 527.647812 239.268528 
L 529.378328 234.820233 
L 531.108844 228.367072 
L 532.839359 226.17425 
L 534.569875 216.463183 
L 536.30039 214.614948 
L 538.030906 203.212275 
L 539.761421 195.69403 
L 541.491937 186.170919 
L 541.491937 186.170919 
" style="fill:none;stroke:#2ca02c;stroke-linecap:square;stroke-width:1.75;"/>
   </g>
   <g id="line2d_23">
    <path clip-path="url(#pd40463306b)" d="M 67.330674 317.270326 
L 165.970061 317.166013 
L 167.700576 317.061699 
L 171.161607 316.644447 
L 174.622638 316.540134 
L 176.353154 316.487977 
L 178.08367 316.070725 
L 179.814185 315.914255 
L 188.466763 314.245245 
L 190.197279 314.297402 
L 191.927794 313.41074 
L 193.65831 312.941331 
L 197.119341 311.533104 
L 198.849856 309.91625 
L 202.310887 307.412735 
L 204.041403 306.004508 
L 205.771919 302.562175 
L 207.502434 297.190049 
L 209.23295 295.677509 
L 210.963465 292.235176 
L 212.693981 289.470878 
L 214.424496 284.463848 
L 216.155012 282.116803 
L 217.885527 281.85602 
L 219.616043 284.672474 
L 221.346559 282.377586 
L 223.077074 283.36856 
L 224.80759 280.604263 
L 226.538105 281.543081 
L 228.268621 279.769758 
L 229.999136 279.874071 
L 231.729652 279.508975 
L 233.460167 280.134853 
L 235.190683 278.205061 
L 236.921199 279.508975 
L 238.651714 278.205061 
L 240.38223 277.161929 
L 242.112745 273.51097 
L 243.843261 273.145874 
L 245.573776 276.014485 
L 247.304292 276.275268 
L 249.034808 274.762728 
L 250.765323 276.379581 
L 252.495839 278.67447 
L 254.226354 282.690525 
L 255.95687 283.577187 
L 257.687385 283.36856 
L 259.417901 286.550111 
L 261.148416 290.148913 
L 262.878932 291.139888 
L 264.609448 293.121837 
L 266.339963 293.330464 
L 268.070479 293.173994 
L 269.800994 292.600272 
L 271.53151 292.704585 
L 273.262025 293.904186 
L 274.992541 296.459857 
L 276.723056 296.981423 
L 280.184088 300.945322 
L 281.914603 300.997478 
L 283.645119 300.632382 
L 287.10615 301.88414 
L 288.836665 302.718645 
L 292.297696 304.126872 
L 294.028212 305.37863 
L 295.758728 307.569205 
L 297.489243 307.360579 
L 299.219759 307.517049 
L 300.950274 307.464892 
L 302.68079 307.621362 
L 304.411305 306.421761 
L 307.872336 305.587256 
L 309.602852 306.943326 
L 311.333368 307.256266 
L 313.063883 308.71665 
L 314.794399 309.655468 
L 316.524914 311.063695 
L 318.25543 312.315452 
L 319.985945 313.25427 
L 321.716461 312.367609 
L 323.446977 313.097801 
L 326.908008 313.097801 
L 328.638523 313.41074 
L 330.369039 313.462897 
L 332.099554 313.202114 
L 333.83007 314.714654 
L 335.560585 314.036619 
L 337.291101 314.610341 
L 339.021617 314.558184 
L 344.213163 314.975437 
L 345.943679 315.131907 
L 347.674194 315.809942 
L 358.057288 316.696604 
L 361.518319 316.540134 
L 363.248834 316.696604 
L 366.709865 316.279351 
L 368.440381 316.331508 
L 370.170897 316.018568 
L 373.631928 316.122881 
L 375.362443 316.175038 
L 377.092959 316.487977 
L 380.55399 316.227194 
L 382.284505 316.435821 
L 389.206568 316.435821 
L 390.937083 316.59229 
L 392.667599 316.331508 
L 396.12863 314.871124 
L 404.781208 314.871124 
L 406.511723 315.288376 
L 408.242239 315.497003 
L 413.433786 315.497003 
L 415.164301 315.131907 
L 418.625332 315.131907 
L 420.355848 315.392689 
L 429.008426 315.392689 
L 430.738941 313.56721 
L 432.469457 313.306427 
L 437.661003 313.306427 
L 439.391519 311.220164 
L 441.122034 310.22919 
L 442.85255 312.054669 
L 444.583066 308.977432 
L 446.313581 305.587256 
L 448.044097 304.179029 
L 449.774612 302.144923 
L 451.505128 302.510019 
L 453.235643 302.249236 
L 454.966159 300.006504 
L 456.696674 302.822958 
L 458.42719 302.510019 
L 460.157706 297.711615 
L 461.888221 299.224155 
L 463.618737 298.911216 
L 465.349252 296.929266 
L 467.079768 295.990448 
L 468.810283 292.600272 
L 470.540799 291.661454 
L 472.271315 295.312413 
L 474.00183 292.808898 
L 475.732346 292.704585 
L 477.462861 292.756742 
L 479.193377 292.339489 
L 480.923892 293.591246 
L 482.654408 292.078706 
L 484.384923 289.105782 
L 486.115439 284.776787 
L 487.845955 285.246197 
L 489.57647 286.393641 
L 491.306986 286.341484 
L 493.037501 284.933257 
L 494.768017 285.663449 
L 496.498532 286.654424 
L 498.229048 288.323434 
L 499.959563 286.289328 
L 501.690079 282.116803 
L 505.15111 274.501945 
L 506.881626 268.34747 
L 508.612141 263.705536 
L 510.342657 262.871031 
L 512.073172 263.079658 
L 513.803688 258.333411 
L 515.534203 256.247148 
L 517.264719 250.509926 
L 518.995235 245.45074 
L 520.72575 244.877017 
L 522.456266 239.922144 
L 524.186781 227.143786 
L 525.917297 216.503848 
L 527.647812 212.852888 
L 529.378328 178.377401 
L 531.108844 157.14968 
L 532.839359 142.806625 
L 534.569875 122.152627 
L 536.30039 103.949987 
L 538.030906 82.878736 
L 539.761421 48.246778 
L 541.491937 40.63192 
L 541.491937 40.63192 
" style="fill:none;stroke:#d62728;stroke-linecap:square;stroke-width:1.75;"/>
   </g>
   <g id="patch_3">
    <path d="M 43.622611 331.102246 
L 43.622611 26.8 
" style="fill:none;stroke:#000000;stroke-linecap:square;stroke-linejoin:miter;stroke-width:0.8;"/>
   </g>
   <g id="patch_4">
    <path d="M 565.2 331.102246 
L 565.2 26.8 
" style="fill:none;stroke:#000000;stroke-linecap:square;stroke-linejoin:miter;stroke-width:0.8;"/>
   </g>
   <g id="patch_5">
    <path d="M 43.622611 331.102246 
L 565.2 331.102246 
" style="fill:none;stroke:#000000;stroke-linecap:square;stroke-linejoin:miter;stroke-width:0.8;"/>
   </g>
   <g id="patch_6">
    <path d="M 43.622611 26.8 
L 565.2 26.8 
" style="fill:none;stroke:#000000;stroke-linecap:square;stroke-linejoin:miter;stroke-width:0.8;"/>
   </g>
   <g id="text_21">
    <!-- New Deaths per Million (7 day rolling) -->
    <defs>
     <path d="M 9.8125 72.90625 
L 23.09375 72.90625 
L 55.421875 11.921875 
L 55.421875 72.90625 
L 64.984375 72.90625 
L 64.984375 0 
L 51.703125 0 
L 19.390625 60.984375 
L 19.390625 0 
L 9.8125 0 
z
" id="DejaVuSans-78"/>
     <path d="M 4.203125 54.6875 
L 13.1875 54.6875 
L 24.421875 12.015625 
L 35.59375 54.6875 
L 46.1875 54.6875 
L 57.421875 12.015625 
L 68.609375 54.6875 
L 77.59375 54.6875 
L 63.28125 0 
L 52.6875 0 
L 40.921875 44.828125 
L 29.109375 0 
L 18.5 0 
z
" id="DejaVuSans-119"/>
     <path id="DejaVuSans-32"/>
     <path d="M 54.890625 33.015625 
L 54.890625 0 
L 45.90625 0 
L 45.90625 32.71875 
Q 45.90625 40.484375 42.875 44.328125 
Q 39.84375 48.1875 33.796875 48.1875 
Q 26.515625 48.1875 22.3125 43.546875 
Q 18.109375 38.921875 18.109375 30.90625 
L 18.109375 0 
L 9.078125 0 
L 9.078125 75.984375 
L 18.109375 75.984375 
L 18.109375 46.1875 
Q 21.34375 51.125 25.703125 53.5625 
Q 30.078125 56 35.796875 56 
Q 45.21875 56 50.046875 50.171875 
Q 54.890625 44.34375 54.890625 33.015625 
z
" id="DejaVuSans-104"/>
     <path d="M 44.28125 53.078125 
L 44.28125 44.578125 
Q 40.484375 46.53125 36.375 47.5 
Q 32.28125 48.484375 27.875 48.484375 
Q 21.1875 48.484375 17.84375 46.4375 
Q 14.5 44.390625 14.5 40.28125 
Q 14.5 37.15625 16.890625 35.375 
Q 19.28125 33.59375 26.515625 31.984375 
L 29.59375 31.296875 
Q 39.15625 29.25 43.1875 25.515625 
Q 47.21875 21.78125 47.21875 15.09375 
Q 47.21875 7.46875 41.1875 3.015625 
Q 35.15625 -1.421875 24.609375 -1.421875 
Q 20.21875 -1.421875 15.453125 -0.5625 
Q 10.6875 0.296875 5.421875 2 
L 5.421875 11.28125 
Q 10.40625 8.6875 15.234375 7.390625 
Q 20.0625 6.109375 24.8125 6.109375 
Q 31.15625 6.109375 34.5625 8.28125 
Q 37.984375 10.453125 37.984375 14.40625 
Q 37.984375 18.0625 35.515625 20.015625 
Q 33.0625 21.96875 24.703125 23.78125 
L 21.578125 24.515625 
Q 13.234375 26.265625 9.515625 29.90625 
Q 5.8125 33.546875 5.8125 39.890625 
Q 5.8125 47.609375 11.28125 51.796875 
Q 16.75 56 26.8125 56 
Q 31.78125 56 36.171875 55.265625 
Q 40.578125 54.546875 44.28125 53.078125 
z
" id="DejaVuSans-115"/>
     <path d="M 18.109375 8.203125 
L 18.109375 -20.796875 
L 9.078125 -20.796875 
L 9.078125 54.6875 
L 18.109375 54.6875 
L 18.109375 46.390625 
Q 20.953125 51.265625 25.265625 53.625 
Q 29.59375 56 35.59375 56 
Q 45.5625 56 51.78125 48.09375 
Q 58.015625 40.1875 58.015625 27.296875 
Q 58.015625 14.40625 51.78125 6.484375 
Q 45.5625 -1.421875 35.59375 -1.421875 
Q 29.59375 -1.421875 25.265625 0.953125 
Q 20.953125 3.328125 18.109375 8.203125 
z
M 48.6875 27.296875 
Q 48.6875 37.203125 44.609375 42.84375 
Q 40.53125 48.484375 33.40625 48.484375 
Q 26.265625 48.484375 22.1875 42.84375 
Q 18.109375 37.203125 18.109375 27.296875 
Q 18.109375 17.390625 22.1875 11.75 
Q 26.265625 6.109375 33.40625 6.109375 
Q 40.53125 6.109375 44.609375 11.75 
Q 48.6875 17.390625 48.6875 27.296875 
z
" id="DejaVuSans-112"/>
     <path d="M 41.109375 46.296875 
Q 39.59375 47.171875 37.8125 47.578125 
Q 36.03125 48 33.890625 48 
Q 26.265625 48 22.1875 43.046875 
Q 18.109375 38.09375 18.109375 28.8125 
L 18.109375 0 
L 9.078125 0 
L 9.078125 54.6875 
L 18.109375 54.6875 
L 18.109375 46.1875 
Q 20.953125 51.171875 25.484375 53.578125 
Q 30.03125 56 36.53125 56 
Q 37.453125 56 38.578125 55.875 
Q 39.703125 55.765625 41.0625 55.515625 
z
" id="DejaVuSans-114"/>
     <path d="M 9.8125 72.90625 
L 24.515625 72.90625 
L 43.109375 23.296875 
L 61.8125 72.90625 
L 76.515625 72.90625 
L 76.515625 0 
L 66.890625 0 
L 66.890625 64.015625 
L 48.09375 14.015625 
L 38.1875 14.015625 
L 19.390625 64.015625 
L 19.390625 0 
L 9.8125 0 
z
" id="DejaVuSans-77"/>
     <path d="M 9.421875 54.6875 
L 18.40625 54.6875 
L 18.40625 0 
L 9.421875 0 
z
M 9.421875 75.984375 
L 18.40625 75.984375 
L 18.40625 64.59375 
L 9.421875 64.59375 
z
" id="DejaVuSans-105"/>
     <path d="M 9.421875 75.984375 
L 18.40625 75.984375 
L 18.40625 0 
L 9.421875 0 
z
" id="DejaVuSans-108"/>
     <path d="M 30.609375 48.390625 
Q 23.390625 48.390625 19.1875 42.75 
Q 14.984375 37.109375 14.984375 27.296875 
Q 14.984375 17.484375 19.15625 11.84375 
Q 23.34375 6.203125 30.609375 6.203125 
Q 37.796875 6.203125 41.984375 11.859375 
Q 46.1875 17.53125 46.1875 27.296875 
Q 46.1875 37.015625 41.984375 42.703125 
Q 37.796875 48.390625 30.609375 48.390625 
z
M 30.609375 56 
Q 42.328125 56 49.015625 48.375 
Q 55.71875 40.765625 55.71875 27.296875 
Q 55.71875 13.875 49.015625 6.21875 
Q 42.328125 -1.421875 30.609375 -1.421875 
Q 18.84375 -1.421875 12.171875 6.21875 
Q 5.515625 13.875 5.515625 27.296875 
Q 5.515625 40.765625 12.171875 48.375 
Q 18.84375 56 30.609375 56 
z
" id="DejaVuSans-111"/>
     <path d="M 54.890625 33.015625 
L 54.890625 0 
L 45.90625 0 
L 45.90625 32.71875 
Q 45.90625 40.484375 42.875 44.328125 
Q 39.84375 48.1875 33.796875 48.1875 
Q 26.515625 48.1875 22.3125 43.546875 
Q 18.109375 38.921875 18.109375 30.90625 
L 18.109375 0 
L 9.078125 0 
L 9.078125 54.6875 
L 18.109375 54.6875 
L 18.109375 46.1875 
Q 21.34375 51.125 25.703125 53.5625 
Q 30.078125 56 35.796875 56 
Q 45.21875 56 50.046875 50.171875 
Q 54.890625 44.34375 54.890625 33.015625 
z
" id="DejaVuSans-110"/>
     <path d="M 31 75.875 
Q 24.46875 64.65625 21.28125 53.65625 
Q 18.109375 42.671875 18.109375 31.390625 
Q 18.109375 20.125 21.3125 9.0625 
Q 24.515625 -2 31 -13.1875 
L 23.1875 -13.1875 
Q 15.875 -1.703125 12.234375 9.375 
Q 8.59375 20.453125 8.59375 31.390625 
Q 8.59375 42.28125 12.203125 53.3125 
Q 15.828125 64.359375 23.1875 75.875 
z
" id="DejaVuSans-40"/>
     <path d="M 45.40625 46.390625 
L 45.40625 75.984375 
L 54.390625 75.984375 
L 54.390625 0 
L 45.40625 0 
L 45.40625 8.203125 
Q 42.578125 3.328125 38.25 0.953125 
Q 33.9375 -1.421875 27.875 -1.421875 
Q 17.96875 -1.421875 11.734375 6.484375 
Q 5.515625 14.40625 5.515625 27.296875 
Q 5.515625 40.1875 11.734375 48.09375 
Q 17.96875 56 27.875 56 
Q 33.9375 56 38.25 53.625 
Q 42.578125 51.265625 45.40625 46.390625 
z
M 14.796875 27.296875 
Q 14.796875 17.390625 18.875 11.75 
Q 22.953125 6.109375 30.078125 6.109375 
Q 37.203125 6.109375 41.296875 11.75 
Q 45.40625 17.390625 45.40625 27.296875 
Q 45.40625 37.203125 41.296875 42.84375 
Q 37.203125 48.484375 30.078125 48.484375 
Q 22.953125 48.484375 18.875 42.84375 
Q 14.796875 37.203125 14.796875 27.296875 
z
" id="DejaVuSans-100"/>
     <path d="M 32.171875 -5.078125 
Q 28.375 -14.84375 24.75 -17.8125 
Q 21.140625 -20.796875 15.09375 -20.796875 
L 7.90625 -20.796875 
L 7.90625 -13.28125 
L 13.1875 -13.28125 
Q 16.890625 -13.28125 18.9375 -11.515625 
Q 21 -9.765625 23.484375 -3.21875 
L 25.09375 0.875 
L 2.984375 54.6875 
L 12.5 54.6875 
L 29.59375 11.921875 
L 46.6875 54.6875 
L 56.203125 54.6875 
z
" id="DejaVuSans-121"/>
     <path d="M 45.40625 27.984375 
Q 45.40625 37.75 41.375 43.109375 
Q 37.359375 48.484375 30.078125 48.484375 
Q 22.859375 48.484375 18.828125 43.109375 
Q 14.796875 37.75 14.796875 27.984375 
Q 14.796875 18.265625 18.828125 12.890625 
Q 22.859375 7.515625 30.078125 7.515625 
Q 37.359375 7.515625 41.375 12.890625 
Q 45.40625 18.265625 45.40625 27.984375 
z
M 54.390625 6.78125 
Q 54.390625 -7.171875 48.1875 -13.984375 
Q 42 -20.796875 29.203125 -20.796875 
Q 24.46875 -20.796875 20.265625 -20.09375 
Q 16.0625 -19.390625 12.109375 -17.921875 
L 12.109375 -9.1875 
Q 16.0625 -11.328125 19.921875 -12.34375 
Q 23.78125 -13.375 27.78125 -13.375 
Q 36.625 -13.375 41.015625 -8.765625 
Q 45.40625 -4.15625 45.40625 5.171875 
L 45.40625 9.625 
Q 42.625 4.78125 38.28125 2.390625 
Q 33.9375 0 27.875 0 
Q 17.828125 0 11.671875 7.65625 
Q 5.515625 15.328125 5.515625 27.984375 
Q 5.515625 40.671875 11.671875 48.328125 
Q 17.828125 56 27.875 56 
Q 33.9375 56 38.28125 53.609375 
Q 42.625 51.21875 45.40625 46.390625 
L 45.40625 54.6875 
L 54.390625 54.6875 
z
" id="DejaVuSans-103"/>
     <path d="M 8.015625 75.875 
L 15.828125 75.875 
Q 23.140625 64.359375 26.78125 53.3125 
Q 30.421875 42.28125 30.421875 31.390625 
Q 30.421875 20.453125 26.78125 9.375 
Q 23.140625 -1.703125 15.828125 -13.1875 
L 8.015625 -13.1875 
Q 14.5 -2 17.703125 9.0625 
Q 20.90625 20.125 20.90625 31.390625 
Q 20.90625 42.671875 17.703125 53.65625 
Q 14.5 64.65625 8.015625 75.875 
z
" id="DejaVuSans-41"/>
    </defs>
    <g transform="translate(191.176305 20.8)scale(0.12 -0.12)">
     <use xlink:href="#DejaVuSans-78"/>
     <use x="74.804688" xlink:href="#DejaVuSans-101"/>
     <use x="136.328125" xlink:href="#DejaVuSans-119"/>
     <use x="218.115234" xlink:href="#DejaVuSans-32"/>
     <use x="249.902344" xlink:href="#DejaVuSans-68"/>
     <use x="326.904297" xlink:href="#DejaVuSans-101"/>
     <use x="388.427734" xlink:href="#DejaVuSans-97"/>
     <use x="449.707031" xlink:href="#DejaVuSans-116"/>
     <use x="488.916016" xlink:href="#DejaVuSans-104"/>
     <use x="552.294922" xlink:href="#DejaVuSans-115"/>
     <use x="604.394531" xlink:href="#DejaVuSans-32"/>
     <use x="636.181641" xlink:href="#DejaVuSans-112"/>
     <use x="699.658203" xlink:href="#DejaVuSans-101"/>
     <use x="761.181641" xlink:href="#DejaVuSans-114"/>
     <use x="802.294922" xlink:href="#DejaVuSans-32"/>
     <use x="834.082031" xlink:href="#DejaVuSans-77"/>
     <use x="920.361328" xlink:href="#DejaVuSans-105"/>
     <use x="948.144531" xlink:href="#DejaVuSans-108"/>
     <use x="975.927734" xlink:href="#DejaVuSans-108"/>
     <use x="1003.710938" xlink:href="#DejaVuSans-105"/>
     <use x="1031.494141" xlink:href="#DejaVuSans-111"/>
     <use x="1092.675781" xlink:href="#DejaVuSans-110"/>
     <use x="1156.054688" xlink:href="#DejaVuSans-32"/>
     <use x="1187.841797" xlink:href="#DejaVuSans-40"/>
     <use x="1226.855469" xlink:href="#DejaVuSans-55"/>
     <use x="1290.478516" xlink:href="#DejaVuSans-32"/>
     <use x="1322.265625" xlink:href="#DejaVuSans-100"/>
     <use x="1385.742188" xlink:href="#DejaVuSans-97"/>
     <use x="1447.021484" xlink:href="#DejaVuSans-121"/>
     <use x="1506.201172" xlink:href="#DejaVuSans-32"/>
     <use x="1537.988281" xlink:href="#DejaVuSans-114"/>
     <use x="1576.851562" xlink:href="#DejaVuSans-111"/>
     <use x="1638.033203" xlink:href="#DejaVuSans-108"/>
     <use x="1665.816406" xlink:href="#DejaVuSans-108"/>
     <use x="1693.599609" xlink:href="#DejaVuSans-105"/>
     <use x="1721.382812" xlink:href="#DejaVuSans-110"/>
     <use x="1784.761719" xlink:href="#DejaVuSans-103"/>
     <use x="1848.238281" xlink:href="#DejaVuSans-41"/>
    </g>
   </g>
   <g id="legend_1">
    <g id="patch_7">
     <path d="M 50.622611 93.5125 
L 185.789798 93.5125 
Q 187.789798 93.5125 187.789798 91.5125 
L 187.789798 33.8 
Q 187.789798 31.8 185.789798 31.8 
L 50.622611 31.8 
Q 48.622611 31.8 48.622611 33.8 
L 48.622611 91.5125 
Q 48.622611 93.5125 50.622611 93.5125 
z
" style="fill:#ffffff;opacity:0.8;stroke:#cccccc;stroke-linejoin:miter;stroke-width:0.3;"/>
    </g>
    <g id="line2d_24">
     <path d="M 52.622611 39.898438 
L 72.622611 39.898438 
" style="fill:none;stroke:#1f77b4;stroke-linecap:square;stroke-width:1.75;"/>
    </g>
    <g id="line2d_25"/>
    <g id="text_22">
     <!-- ENGLAND -->
     <defs>
      <path d="M 9.8125 72.90625 
L 55.90625 72.90625 
L 55.90625 64.59375 
L 19.671875 64.59375 
L 19.671875 43.015625 
L 54.390625 43.015625 
L 54.390625 34.71875 
L 19.671875 34.71875 
L 19.671875 8.296875 
L 56.78125 8.296875 
L 56.78125 0 
L 9.8125 0 
z
" id="DejaVuSans-69"/>
      <path d="M 59.515625 10.40625 
L 59.515625 29.984375 
L 43.40625 29.984375 
L 43.40625 38.09375 
L 69.28125 38.09375 
L 69.28125 6.78125 
Q 63.578125 2.734375 56.6875 0.65625 
Q 49.8125 -1.421875 42 -1.421875 
Q 24.90625 -1.421875 15.25 8.5625 
Q 5.609375 18.5625 5.609375 36.375 
Q 5.609375 54.25 15.25 64.234375 
Q 24.90625 74.21875 42 74.21875 
Q 49.125 74.21875 55.546875 72.453125 
Q 61.96875 70.703125 67.390625 67.28125 
L 67.390625 56.78125 
Q 61.921875 61.421875 55.765625 63.765625 
Q 49.609375 66.109375 42.828125 66.109375 
Q 29.4375 66.109375 22.71875 58.640625 
Q 16.015625 51.171875 16.015625 36.375 
Q 16.015625 21.625 22.71875 14.15625 
Q 29.4375 6.6875 42.828125 6.6875 
Q 48.046875 6.6875 52.140625 7.59375 
Q 56.25 8.5 59.515625 10.40625 
z
" id="DejaVuSans-71"/>
      <path d="M 9.8125 72.90625 
L 19.671875 72.90625 
L 19.671875 8.296875 
L 55.171875 8.296875 
L 55.171875 0 
L 9.8125 0 
z
" id="DejaVuSans-76"/>
      <path d="M 34.1875 63.1875 
L 20.796875 26.90625 
L 47.609375 26.90625 
z
M 28.609375 72.90625 
L 39.796875 72.90625 
L 67.578125 0 
L 57.328125 0 
L 50.6875 18.703125 
L 17.828125 18.703125 
L 11.1875 0 
L 0.78125 0 
z
" id="DejaVuSans-65"/>
     </defs>
     <g transform="translate(80.622611 43.398438)scale(0.1 -0.1)">
      <use xlink:href="#DejaVuSans-69"/>
      <use x="63.183594" xlink:href="#DejaVuSans-78"/>
      <use x="137.988281" xlink:href="#DejaVuSans-71"/>
      <use x="215.478516" xlink:href="#DejaVuSans-76"/>
      <use x="273.441406" xlink:href="#DejaVuSans-65"/>
      <use x="341.849609" xlink:href="#DejaVuSans-78"/>
      <use x="416.654297" xlink:href="#DejaVuSans-68"/>
     </g>
    </g>
    <g id="line2d_26">
     <path d="M 52.622611 54.576563 
L 72.622611 54.576563 
" style="fill:none;stroke:#ff7f0e;stroke-linecap:square;stroke-width:1.75;"/>
    </g>
    <g id="line2d_27"/>
    <g id="text_23">
     <!-- SCOTLAND -->
     <defs>
      <path d="M 53.515625 70.515625 
L 53.515625 60.890625 
Q 47.90625 63.578125 42.921875 64.890625 
Q 37.9375 66.21875 33.296875 66.21875 
Q 25.25 66.21875 20.875 63.09375 
Q 16.5 59.96875 16.5 54.203125 
Q 16.5 49.359375 19.40625 46.890625 
Q 22.3125 44.4375 30.421875 42.921875 
L 36.375 41.703125 
Q 47.40625 39.59375 52.65625 34.296875 
Q 57.90625 29 57.90625 20.125 
Q 57.90625 9.515625 50.796875 4.046875 
Q 43.703125 -1.421875 29.984375 -1.421875 
Q 24.8125 -1.421875 18.96875 -0.25 
Q 13.140625 0.921875 6.890625 3.21875 
L 6.890625 13.375 
Q 12.890625 10.015625 18.65625 8.296875 
Q 24.421875 6.59375 29.984375 6.59375 
Q 38.421875 6.59375 43.015625 9.90625 
Q 47.609375 13.234375 47.609375 19.390625 
Q 47.609375 24.75 44.3125 27.78125 
Q 41.015625 30.8125 33.5 32.328125 
L 27.484375 33.5 
Q 16.453125 35.6875 11.515625 40.375 
Q 6.59375 45.0625 6.59375 53.421875 
Q 6.59375 63.09375 13.40625 68.65625 
Q 20.21875 74.21875 32.171875 74.21875 
Q 37.3125 74.21875 42.625 73.28125 
Q 47.953125 72.359375 53.515625 70.515625 
z
" id="DejaVuSans-83"/>
      <path d="M 64.40625 67.28125 
L 64.40625 56.890625 
Q 59.421875 61.53125 53.78125 63.8125 
Q 48.140625 66.109375 41.796875 66.109375 
Q 29.296875 66.109375 22.65625 58.46875 
Q 16.015625 50.828125 16.015625 36.375 
Q 16.015625 21.96875 22.65625 14.328125 
Q 29.296875 6.6875 41.796875 6.6875 
Q 48.140625 6.6875 53.78125 8.984375 
Q 59.421875 11.28125 64.40625 15.921875 
L 64.40625 5.609375 
Q 59.234375 2.09375 53.4375 0.328125 
Q 47.65625 -1.421875 41.21875 -1.421875 
Q 24.65625 -1.421875 15.125 8.703125 
Q 5.609375 18.84375 5.609375 36.375 
Q 5.609375 53.953125 15.125 64.078125 
Q 24.65625 74.21875 41.21875 74.21875 
Q 47.75 74.21875 53.53125 72.484375 
Q 59.328125 70.75 64.40625 67.28125 
z
" id="DejaVuSans-67"/>
      <path d="M 39.40625 66.21875 
Q 28.65625 66.21875 22.328125 58.203125 
Q 16.015625 50.203125 16.015625 36.375 
Q 16.015625 22.609375 22.328125 14.59375 
Q 28.65625 6.59375 39.40625 6.59375 
Q 50.140625 6.59375 56.421875 14.59375 
Q 62.703125 22.609375 62.703125 36.375 
Q 62.703125 50.203125 56.421875 58.203125 
Q 50.140625 66.21875 39.40625 66.21875 
z
M 39.40625 74.21875 
Q 54.734375 74.21875 63.90625 63.9375 
Q 73.09375 53.65625 73.09375 36.375 
Q 73.09375 19.140625 63.90625 8.859375 
Q 54.734375 -1.421875 39.40625 -1.421875 
Q 24.03125 -1.421875 14.8125 8.828125 
Q 5.609375 19.09375 5.609375 36.375 
Q 5.609375 53.65625 14.8125 63.9375 
Q 24.03125 74.21875 39.40625 74.21875 
z
" id="DejaVuSans-79"/>
      <path d="M -0.296875 72.90625 
L 61.375 72.90625 
L 61.375 64.59375 
L 35.5 64.59375 
L 35.5 0 
L 25.59375 0 
L 25.59375 64.59375 
L -0.296875 64.59375 
z
" id="DejaVuSans-84"/>
     </defs>
     <g transform="translate(80.622611 58.076563)scale(0.1 -0.1)">
      <use xlink:href="#DejaVuSans-83"/>
      <use x="63.476562" xlink:href="#DejaVuSans-67"/>
      <use x="133.300781" xlink:href="#DejaVuSans-79"/>
      <use x="212.011719" xlink:href="#DejaVuSans-84"/>
      <use x="273.095703" xlink:href="#DejaVuSans-76"/>
      <use x="331.058594" xlink:href="#DejaVuSans-65"/>
      <use x="399.466797" xlink:href="#DejaVuSans-78"/>
      <use x="474.271484" xlink:href="#DejaVuSans-68"/>
     </g>
    </g>
    <g id="line2d_28">
     <path d="M 52.622611 69.254688 
L 72.622611 69.254688 
" style="fill:none;stroke:#2ca02c;stroke-linecap:square;stroke-width:1.75;"/>
    </g>
    <g id="line2d_29"/>
    <g id="text_24">
     <!-- WALES -->
     <defs>
      <path d="M 3.328125 72.90625 
L 13.28125 72.90625 
L 28.609375 11.28125 
L 43.890625 72.90625 
L 54.984375 72.90625 
L 70.3125 11.28125 
L 85.59375 72.90625 
L 95.609375 72.90625 
L 77.296875 0 
L 64.890625 0 
L 49.515625 63.28125 
L 33.984375 0 
L 21.578125 0 
z
" id="DejaVuSans-87"/>
     </defs>
     <g transform="translate(80.622611 72.754688)scale(0.1 -0.1)">
      <use xlink:href="#DejaVuSans-87"/>
      <use x="93.376953" xlink:href="#DejaVuSans-65"/>
      <use x="161.785156" xlink:href="#DejaVuSans-76"/>
      <use x="217.498047" xlink:href="#DejaVuSans-69"/>
      <use x="280.681641" xlink:href="#DejaVuSans-83"/>
     </g>
    </g>
    <g id="line2d_30">
     <path d="M 52.622611 83.932813 
L 72.622611 83.932813 
" style="fill:none;stroke:#d62728;stroke-linecap:square;stroke-width:1.75;"/>
    </g>
    <g id="line2d_31"/>
    <g id="text_25">
     <!-- NORTHERN IRELAND -->
     <defs>
      <path d="M 44.390625 34.1875 
Q 47.5625 33.109375 50.5625 29.59375 
Q 53.5625 26.078125 56.59375 19.921875 
L 66.609375 0 
L 56 0 
L 46.6875 18.703125 
Q 43.0625 26.03125 39.671875 28.421875 
Q 36.28125 30.8125 30.421875 30.8125 
L 19.671875 30.8125 
L 19.671875 0 
L 9.8125 0 
L 9.8125 72.90625 
L 32.078125 72.90625 
Q 44.578125 72.90625 50.734375 67.671875 
Q 56.890625 62.453125 56.890625 51.90625 
Q 56.890625 45.015625 53.6875 40.46875 
Q 50.484375 35.9375 44.390625 34.1875 
z
M 19.671875 64.796875 
L 19.671875 38.921875 
L 32.078125 38.921875 
Q 39.203125 38.921875 42.84375 42.21875 
Q 46.484375 45.515625 46.484375 51.90625 
Q 46.484375 58.296875 42.84375 61.546875 
Q 39.203125 64.796875 32.078125 64.796875 
z
" id="DejaVuSans-82"/>
      <path d="M 9.8125 72.90625 
L 19.671875 72.90625 
L 19.671875 43.015625 
L 55.515625 43.015625 
L 55.515625 72.90625 
L 65.375 72.90625 
L 65.375 0 
L 55.515625 0 
L 55.515625 34.71875 
L 19.671875 34.71875 
L 19.671875 0 
L 9.8125 0 
z
" id="DejaVuSans-72"/>
      <path d="M 9.8125 72.90625 
L 19.671875 72.90625 
L 19.671875 0 
L 9.8125 0 
z
" id="DejaVuSans-73"/>
     </defs>
     <g transform="translate(80.622611 87.432813)scale(0.1 -0.1)">
      <use xlink:href="#DejaVuSans-78"/>
      <use x="74.804688" xlink:href="#DejaVuSans-79"/>
      <use x="153.515625" xlink:href="#DejaVuSans-82"/>
      <use x="215.748047" xlink:href="#DejaVuSans-84"/>
      <use x="276.832031" xlink:href="#DejaVuSans-72"/>
      <use x="352.027344" xlink:href="#DejaVuSans-69"/>
      <use x="415.210938" xlink:href="#DejaVuSans-82"/>
      <use x="484.693359" xlink:href="#DejaVuSans-78"/>
      <use x="559.498047" xlink:href="#DejaVuSans-32"/>
      <use x="591.285156" xlink:href="#DejaVuSans-73"/>
      <use x="620.777344" xlink:href="#DejaVuSans-82"/>
      <use x="690.259766" xlink:href="#DejaVuSans-69"/>
      <use x="753.443359" xlink:href="#DejaVuSans-76"/>
      <use x="811.40625" xlink:href="#DejaVuSans-65"/>
      <use x="879.814453" xlink:href="#DejaVuSans-78"/>
      <use x="954.619141" xlink:href="#DejaVuSans-68"/>
     </g>
    </g>
   </g>
  </g>
 </g>
 <defs>
  <clipPath id="pd40463306b">
   <rect height="304.302246" width="521.577389" x="43.622611" y="26.8"/>
  </clipPath>
 </defs>
</svg>
