<?xml version="1.0" encoding="utf-8" standalone="no"?>
<!DOCTYPE svg PUBLIC "-//W3C//DTD SVG 1.1//EN"
  "http://www.w3.org/Graphics/SVG/1.1/DTD/svg11.dtd">
<!-- Created with matplotlib (https://matplotlib.org/) -->
<svg height="360pt" version="1.1" viewBox="0 0 540 360" width="540pt" xmlns="http://www.w3.org/2000/svg" xmlns:xlink="http://www.w3.org/1999/xlink">
 <defs>
  <style type="text/css">
*{stroke-linecap:butt;stroke-linejoin:round;}
  </style>
 </defs>
 <g id="figure_1">
  <g id="patch_1">
   <path d="M 0 360 
L 540 360 
L 540 0 
L 0 0 
z
" style="fill:#ffffff;"/>
  </g>
  <g id="axes_1">
   <g id="patch_2">
    <path d="M 43.537384 295.102246 
L 529.2 295.102246 
L 529.2 26.8 
L 43.537384 26.8 
z
" style="fill:#ffffff;"/>
   </g>
   <g id="matplotlib.axis_1">
    <g id="xtick_1">
     <g id="line2d_1">
      <defs>
       <path d="M 0 0 
L 0 3.5 
" id="mb6312ce2a6" style="stroke:#000000;"/>
      </defs>
      <g>
       <use style="stroke:#000000;" x="53.433331" xlink:href="#mb6312ce2a6" y="295.102246"/>
      </g>
     </g>
     <g id="text_1">
      <!-- 2020-01 -->
      <defs>
       <path d="M 19.1875 8.296875 
L 53.609375 8.296875 
L 53.609375 0 
L 7.328125 0 
L 7.328125 8.296875 
Q 12.9375 14.109375 22.625 23.890625 
Q 32.328125 33.6875 34.8125 36.53125 
Q 39.546875 41.84375 41.421875 45.53125 
Q 43.3125 49.21875 43.3125 52.78125 
Q 43.3125 58.59375 39.234375 62.25 
Q 35.15625 65.921875 28.609375 65.921875 
Q 23.96875 65.921875 18.8125 64.3125 
Q 13.671875 62.703125 7.8125 59.421875 
L 7.8125 69.390625 
Q 13.765625 71.78125 18.9375 73 
Q 24.125 74.21875 28.421875 74.21875 
Q 39.75 74.21875 46.484375 68.546875 
Q 53.21875 62.890625 53.21875 53.421875 
Q 53.21875 48.921875 51.53125 44.890625 
Q 49.859375 40.875 45.40625 35.40625 
Q 44.1875 33.984375 37.640625 27.21875 
Q 31.109375 20.453125 19.1875 8.296875 
z
" id="DejaVuSans-50"/>
       <path d="M 31.78125 66.40625 
Q 24.171875 66.40625 20.328125 58.90625 
Q 16.5 51.421875 16.5 36.375 
Q 16.5 21.390625 20.328125 13.890625 
Q 24.171875 6.390625 31.78125 6.390625 
Q 39.453125 6.390625 43.28125 13.890625 
Q 47.125 21.390625 47.125 36.375 
Q 47.125 51.421875 43.28125 58.90625 
Q 39.453125 66.40625 31.78125 66.40625 
z
M 31.78125 74.21875 
Q 44.046875 74.21875 50.515625 64.515625 
Q 56.984375 54.828125 56.984375 36.375 
Q 56.984375 17.96875 50.515625 8.265625 
Q 44.046875 -1.421875 31.78125 -1.421875 
Q 19.53125 -1.421875 13.0625 8.265625 
Q 6.59375 17.96875 6.59375 36.375 
Q 6.59375 54.828125 13.0625 64.515625 
Q 19.53125 74.21875 31.78125 74.21875 
z
" id="DejaVuSans-48"/>
       <path d="M 4.890625 31.390625 
L 31.203125 31.390625 
L 31.203125 23.390625 
L 4.890625 23.390625 
z
" id="DejaVuSans-45"/>
       <path d="M 12.40625 8.296875 
L 28.515625 8.296875 
L 28.515625 63.921875 
L 10.984375 60.40625 
L 10.984375 69.390625 
L 28.421875 72.90625 
L 38.28125 72.90625 
L 38.28125 8.296875 
L 54.390625 8.296875 
L 54.390625 0 
L 12.40625 0 
z
" id="DejaVuSans-49"/>
      </defs>
      <g transform="translate(16.20851 333.074092)rotate(-30)scale(0.1 -0.1)">
       <use xlink:href="#DejaVuSans-50"/>
       <use x="63.623047" xlink:href="#DejaVuSans-48"/>
       <use x="127.246094" xlink:href="#DejaVuSans-50"/>
       <use x="190.869141" xlink:href="#DejaVuSans-48"/>
       <use x="254.492188" xlink:href="#DejaVuSans-45"/>
       <use x="290.576172" xlink:href="#DejaVuSans-48"/>
       <use x="354.199219" xlink:href="#DejaVuSans-49"/>
      </g>
     </g>
    </g>
    <g id="xtick_2">
     <g id="line2d_2">
      <g>
       <use style="stroke:#000000;" x="100.629385" xlink:href="#mb6312ce2a6" y="295.102246"/>
      </g>
     </g>
     <g id="text_2">
      <!-- 2020-02 -->
      <g transform="translate(63.404564 333.074092)rotate(-30)scale(0.1 -0.1)">
       <use xlink:href="#DejaVuSans-50"/>
       <use x="63.623047" xlink:href="#DejaVuSans-48"/>
       <use x="127.246094" xlink:href="#DejaVuSans-50"/>
       <use x="190.869141" xlink:href="#DejaVuSans-48"/>
       <use x="254.492188" xlink:href="#DejaVuSans-45"/>
       <use x="290.576172" xlink:href="#DejaVuSans-48"/>
       <use x="354.199219" xlink:href="#DejaVuSans-50"/>
      </g>
     </g>
    </g>
    <g id="xtick_3">
     <g id="line2d_3">
      <g>
       <use style="stroke:#000000;" x="144.780531" xlink:href="#mb6312ce2a6" y="295.102246"/>
      </g>
     </g>
     <g id="text_3">
      <!-- 2020-03 -->
      <defs>
       <path d="M 40.578125 39.3125 
Q 47.65625 37.796875 51.625 33 
Q 55.609375 28.21875 55.609375 21.1875 
Q 55.609375 10.40625 48.1875 4.484375 
Q 40.765625 -1.421875 27.09375 -1.421875 
Q 22.515625 -1.421875 17.65625 -0.515625 
Q 12.796875 0.390625 7.625 2.203125 
L 7.625 11.71875 
Q 11.71875 9.328125 16.59375 8.109375 
Q 21.484375 6.890625 26.8125 6.890625 
Q 36.078125 6.890625 40.9375 10.546875 
Q 45.796875 14.203125 45.796875 21.1875 
Q 45.796875 27.640625 41.28125 31.265625 
Q 36.765625 34.90625 28.71875 34.90625 
L 20.21875 34.90625 
L 20.21875 43.015625 
L 29.109375 43.015625 
Q 36.375 43.015625 40.234375 45.921875 
Q 44.09375 48.828125 44.09375 54.296875 
Q 44.09375 59.90625 40.109375 62.90625 
Q 36.140625 65.921875 28.71875 65.921875 
Q 24.65625 65.921875 20.015625 65.03125 
Q 15.375 64.15625 9.8125 62.3125 
L 9.8125 71.09375 
Q 15.4375 72.65625 20.34375 73.4375 
Q 25.25 74.21875 29.59375 74.21875 
Q 40.828125 74.21875 47.359375 69.109375 
Q 53.90625 64.015625 53.90625 55.328125 
Q 53.90625 49.265625 50.4375 45.09375 
Q 46.96875 40.921875 40.578125 39.3125 
z
" id="DejaVuSans-51"/>
      </defs>
      <g transform="translate(107.555711 333.074092)rotate(-30)scale(0.1 -0.1)">
       <use xlink:href="#DejaVuSans-50"/>
       <use x="63.623047" xlink:href="#DejaVuSans-48"/>
       <use x="127.246094" xlink:href="#DejaVuSans-50"/>
       <use x="190.869141" xlink:href="#DejaVuSans-48"/>
       <use x="254.492188" xlink:href="#DejaVuSans-45"/>
       <use x="290.576172" xlink:href="#DejaVuSans-48"/>
       <use x="354.199219" xlink:href="#DejaVuSans-51"/>
      </g>
     </g>
    </g>
    <g id="xtick_4">
     <g id="line2d_4">
      <g>
       <use style="stroke:#000000;" x="191.976585" xlink:href="#mb6312ce2a6" y="295.102246"/>
      </g>
     </g>
     <g id="text_4">
      <!-- 2020-04 -->
      <defs>
       <path d="M 37.796875 64.3125 
L 12.890625 25.390625 
L 37.796875 25.390625 
z
M 35.203125 72.90625 
L 47.609375 72.90625 
L 47.609375 25.390625 
L 58.015625 25.390625 
L 58.015625 17.1875 
L 47.609375 17.1875 
L 47.609375 0 
L 37.796875 0 
L 37.796875 17.1875 
L 4.890625 17.1875 
L 4.890625 26.703125 
z
" id="DejaVuSans-52"/>
      </defs>
      <g transform="translate(154.751764 333.074092)rotate(-30)scale(0.1 -0.1)">
       <use xlink:href="#DejaVuSans-50"/>
       <use x="63.623047" xlink:href="#DejaVuSans-48"/>
       <use x="127.246094" xlink:href="#DejaVuSans-50"/>
       <use x="190.869141" xlink:href="#DejaVuSans-48"/>
       <use x="254.492188" xlink:href="#DejaVuSans-45"/>
       <use x="290.576172" xlink:href="#DejaVuSans-48"/>
       <use x="354.199219" xlink:href="#DejaVuSans-52"/>
      </g>
     </g>
    </g>
    <g id="xtick_5">
     <g id="line2d_5">
      <g>
       <use style="stroke:#000000;" x="237.650185" xlink:href="#mb6312ce2a6" y="295.102246"/>
      </g>
     </g>
     <g id="text_5">
      <!-- 2020-05 -->
      <defs>
       <path d="M 10.796875 72.90625 
L 49.515625 72.90625 
L 49.515625 64.59375 
L 19.828125 64.59375 
L 19.828125 46.734375 
Q 21.96875 47.46875 24.109375 47.828125 
Q 26.265625 48.1875 28.421875 48.1875 
Q 40.625 48.1875 47.75 41.5 
Q 54.890625 34.8125 54.890625 23.390625 
Q 54.890625 11.625 47.5625 5.09375 
Q 40.234375 -1.421875 26.90625 -1.421875 
Q 22.3125 -1.421875 17.546875 -0.640625 
Q 12.796875 0.140625 7.71875 1.703125 
L 7.71875 11.625 
Q 12.109375 9.234375 16.796875 8.0625 
Q 21.484375 6.890625 26.703125 6.890625 
Q 35.15625 6.890625 40.078125 11.328125 
Q 45.015625 15.765625 45.015625 23.390625 
Q 45.015625 31 40.078125 35.4375 
Q 35.15625 39.890625 26.703125 39.890625 
Q 22.75 39.890625 18.8125 39.015625 
Q 14.890625 38.140625 10.796875 36.28125 
z
" id="DejaVuSans-53"/>
      </defs>
      <g transform="translate(200.425364 333.074092)rotate(-30)scale(0.1 -0.1)">
       <use xlink:href="#DejaVuSans-50"/>
       <use x="63.623047" xlink:href="#DejaVuSans-48"/>
       <use x="127.246094" xlink:href="#DejaVuSans-50"/>
       <use x="190.869141" xlink:href="#DejaVuSans-48"/>
       <use x="254.492188" xlink:href="#DejaVuSans-45"/>
       <use x="290.576172" xlink:href="#DejaVuSans-48"/>
       <use x="354.199219" xlink:href="#DejaVuSans-53"/>
      </g>
     </g>
    </g>
    <g id="xtick_6">
     <g id="line2d_6">
      <g>
       <use style="stroke:#000000;" x="284.846239" xlink:href="#mb6312ce2a6" y="295.102246"/>
      </g>
     </g>
     <g id="text_6">
      <!-- 2020-06 -->
      <defs>
       <path d="M 33.015625 40.375 
Q 26.375 40.375 22.484375 35.828125 
Q 18.609375 31.296875 18.609375 23.390625 
Q 18.609375 15.53125 22.484375 10.953125 
Q 26.375 6.390625 33.015625 6.390625 
Q 39.65625 6.390625 43.53125 10.953125 
Q 47.40625 15.53125 47.40625 23.390625 
Q 47.40625 31.296875 43.53125 35.828125 
Q 39.65625 40.375 33.015625 40.375 
z
M 52.59375 71.296875 
L 52.59375 62.3125 
Q 48.875 64.0625 45.09375 64.984375 
Q 41.3125 65.921875 37.59375 65.921875 
Q 27.828125 65.921875 22.671875 59.328125 
Q 17.53125 52.734375 16.796875 39.40625 
Q 19.671875 43.65625 24.015625 45.921875 
Q 28.375 48.1875 33.59375 48.1875 
Q 44.578125 48.1875 50.953125 41.515625 
Q 57.328125 34.859375 57.328125 23.390625 
Q 57.328125 12.15625 50.6875 5.359375 
Q 44.046875 -1.421875 33.015625 -1.421875 
Q 20.359375 -1.421875 13.671875 8.265625 
Q 6.984375 17.96875 6.984375 36.375 
Q 6.984375 53.65625 15.1875 63.9375 
Q 23.390625 74.21875 37.203125 74.21875 
Q 40.921875 74.21875 44.703125 73.484375 
Q 48.484375 72.75 52.59375 71.296875 
z
" id="DejaVuSans-54"/>
      </defs>
      <g transform="translate(247.621418 333.074092)rotate(-30)scale(0.1 -0.1)">
       <use xlink:href="#DejaVuSans-50"/>
       <use x="63.623047" xlink:href="#DejaVuSans-48"/>
       <use x="127.246094" xlink:href="#DejaVuSans-50"/>
       <use x="190.869141" xlink:href="#DejaVuSans-48"/>
       <use x="254.492188" xlink:href="#DejaVuSans-45"/>
       <use x="290.576172" xlink:href="#DejaVuSans-48"/>
       <use x="354.199219" xlink:href="#DejaVuSans-54"/>
      </g>
     </g>
    </g>
    <g id="xtick_7">
     <g id="line2d_7">
      <g>
       <use style="stroke:#000000;" x="330.519839" xlink:href="#mb6312ce2a6" y="295.102246"/>
      </g>
     </g>
     <g id="text_7">
      <!-- 2020-07 -->
      <defs>
       <path d="M 8.203125 72.90625 
L 55.078125 72.90625 
L 55.078125 68.703125 
L 28.609375 0 
L 18.3125 0 
L 43.21875 64.59375 
L 8.203125 64.59375 
z
" id="DejaVuSans-55"/>
      </defs>
      <g transform="translate(293.295018 333.074092)rotate(-30)scale(0.1 -0.1)">
       <use xlink:href="#DejaVuSans-50"/>
       <use x="63.623047" xlink:href="#DejaVuSans-48"/>
       <use x="127.246094" xlink:href="#DejaVuSans-50"/>
       <use x="190.869141" xlink:href="#DejaVuSans-48"/>
       <use x="254.492188" xlink:href="#DejaVuSans-45"/>
       <use x="290.576172" xlink:href="#DejaVuSans-48"/>
       <use x="354.199219" xlink:href="#DejaVuSans-55"/>
      </g>
     </g>
    </g>
    <g id="xtick_8">
     <g id="line2d_8">
      <g>
       <use style="stroke:#000000;" x="377.715893" xlink:href="#mb6312ce2a6" y="295.102246"/>
      </g>
     </g>
     <g id="text_8">
      <!-- 2020-08 -->
      <defs>
       <path d="M 31.78125 34.625 
Q 24.75 34.625 20.71875 30.859375 
Q 16.703125 27.09375 16.703125 20.515625 
Q 16.703125 13.921875 20.71875 10.15625 
Q 24.75 6.390625 31.78125 6.390625 
Q 38.8125 6.390625 42.859375 10.171875 
Q 46.921875 13.96875 46.921875 20.515625 
Q 46.921875 27.09375 42.890625 30.859375 
Q 38.875 34.625 31.78125 34.625 
z
M 21.921875 38.8125 
Q 15.578125 40.375 12.03125 44.71875 
Q 8.5 49.078125 8.5 55.328125 
Q 8.5 64.0625 14.71875 69.140625 
Q 20.953125 74.21875 31.78125 74.21875 
Q 42.671875 74.21875 48.875 69.140625 
Q 55.078125 64.0625 55.078125 55.328125 
Q 55.078125 49.078125 51.53125 44.71875 
Q 48 40.375 41.703125 38.8125 
Q 48.828125 37.15625 52.796875 32.3125 
Q 56.78125 27.484375 56.78125 20.515625 
Q 56.78125 9.90625 50.3125 4.234375 
Q 43.84375 -1.421875 31.78125 -1.421875 
Q 19.734375 -1.421875 13.25 4.234375 
Q 6.78125 9.90625 6.78125 20.515625 
Q 6.78125 27.484375 10.78125 32.3125 
Q 14.796875 37.15625 21.921875 38.8125 
z
M 18.3125 54.390625 
Q 18.3125 48.734375 21.84375 45.5625 
Q 25.390625 42.390625 31.78125 42.390625 
Q 38.140625 42.390625 41.71875 45.5625 
Q 45.3125 48.734375 45.3125 54.390625 
Q 45.3125 60.0625 41.71875 63.234375 
Q 38.140625 66.40625 31.78125 66.40625 
Q 25.390625 66.40625 21.84375 63.234375 
Q 18.3125 60.0625 18.3125 54.390625 
z
" id="DejaVuSans-56"/>
      </defs>
      <g transform="translate(340.491072 333.074092)rotate(-30)scale(0.1 -0.1)">
       <use xlink:href="#DejaVuSans-50"/>
       <use x="63.623047" xlink:href="#DejaVuSans-48"/>
       <use x="127.246094" xlink:href="#DejaVuSans-50"/>
       <use x="190.869141" xlink:href="#DejaVuSans-48"/>
       <use x="254.492188" xlink:href="#DejaVuSans-45"/>
       <use x="290.576172" xlink:href="#DejaVuSans-48"/>
       <use x="354.199219" xlink:href="#DejaVuSans-56"/>
      </g>
     </g>
    </g>
    <g id="xtick_9">
     <g id="line2d_9">
      <g>
       <use style="stroke:#000000;" x="424.911946" xlink:href="#mb6312ce2a6" y="295.102246"/>
      </g>
     </g>
     <g id="text_9">
      <!-- 2020-09 -->
      <defs>
       <path d="M 10.984375 1.515625 
L 10.984375 10.5 
Q 14.703125 8.734375 18.5 7.8125 
Q 22.3125 6.890625 25.984375 6.890625 
Q 35.75 6.890625 40.890625 13.453125 
Q 46.046875 20.015625 46.78125 33.40625 
Q 43.953125 29.203125 39.59375 26.953125 
Q 35.25 24.703125 29.984375 24.703125 
Q 19.046875 24.703125 12.671875 31.3125 
Q 6.296875 37.9375 6.296875 49.421875 
Q 6.296875 60.640625 12.9375 67.421875 
Q 19.578125 74.21875 30.609375 74.21875 
Q 43.265625 74.21875 49.921875 64.515625 
Q 56.59375 54.828125 56.59375 36.375 
Q 56.59375 19.140625 48.40625 8.859375 
Q 40.234375 -1.421875 26.421875 -1.421875 
Q 22.703125 -1.421875 18.890625 -0.6875 
Q 15.09375 0.046875 10.984375 1.515625 
z
M 30.609375 32.421875 
Q 37.25 32.421875 41.125 36.953125 
Q 45.015625 41.5 45.015625 49.421875 
Q 45.015625 57.28125 41.125 61.84375 
Q 37.25 66.40625 30.609375 66.40625 
Q 23.96875 66.40625 20.09375 61.84375 
Q 16.21875 57.28125 16.21875 49.421875 
Q 16.21875 41.5 20.09375 36.953125 
Q 23.96875 32.421875 30.609375 32.421875 
z
" id="DejaVuSans-57"/>
      </defs>
      <g transform="translate(387.687125 333.074092)rotate(-30)scale(0.1 -0.1)">
       <use xlink:href="#DejaVuSans-50"/>
       <use x="63.623047" xlink:href="#DejaVuSans-48"/>
       <use x="127.246094" xlink:href="#DejaVuSans-50"/>
       <use x="190.869141" xlink:href="#DejaVuSans-48"/>
       <use x="254.492188" xlink:href="#DejaVuSans-45"/>
       <use x="290.576172" xlink:href="#DejaVuSans-48"/>
       <use x="354.199219" xlink:href="#DejaVuSans-57"/>
      </g>
     </g>
    </g>
    <g id="xtick_10">
     <g id="line2d_10">
      <g>
       <use style="stroke:#000000;" x="470.585546" xlink:href="#mb6312ce2a6" y="295.102246"/>
      </g>
     </g>
     <g id="text_10">
      <!-- 2020-10 -->
      <g transform="translate(433.360726 333.074092)rotate(-30)scale(0.1 -0.1)">
       <use xlink:href="#DejaVuSans-50"/>
       <use x="63.623047" xlink:href="#DejaVuSans-48"/>
       <use x="127.246094" xlink:href="#DejaVuSans-50"/>
       <use x="190.869141" xlink:href="#DejaVuSans-48"/>
       <use x="254.492188" xlink:href="#DejaVuSans-45"/>
       <use x="290.576172" xlink:href="#DejaVuSans-49"/>
       <use x="354.199219" xlink:href="#DejaVuSans-48"/>
      </g>
     </g>
    </g>
    <g id="xtick_11">
     <g id="line2d_11">
      <g>
       <use style="stroke:#000000;" x="517.7816" xlink:href="#mb6312ce2a6" y="295.102246"/>
      </g>
     </g>
     <g id="text_11">
      <!-- 2020-11 -->
      <g transform="translate(480.556779 333.074092)rotate(-30)scale(0.1 -0.1)">
       <use xlink:href="#DejaVuSans-50"/>
       <use x="63.623047" xlink:href="#DejaVuSans-48"/>
       <use x="127.246094" xlink:href="#DejaVuSans-50"/>
       <use x="190.869141" xlink:href="#DejaVuSans-48"/>
       <use x="254.492188" xlink:href="#DejaVuSans-45"/>
       <use x="290.576172" xlink:href="#DejaVuSans-49"/>
       <use x="354.199219" xlink:href="#DejaVuSans-49"/>
      </g>
     </g>
    </g>
    <g id="text_12">
     <!-- Date -->
     <defs>
      <path d="M 19.671875 64.796875 
L 19.671875 8.109375 
L 31.59375 8.109375 
Q 46.6875 8.109375 53.6875 14.9375 
Q 60.6875 21.78125 60.6875 36.53125 
Q 60.6875 51.171875 53.6875 57.984375 
Q 46.6875 64.796875 31.59375 64.796875 
z
M 9.8125 72.90625 
L 30.078125 72.90625 
Q 51.265625 72.90625 61.171875 64.09375 
Q 71.09375 55.28125 71.09375 36.53125 
Q 71.09375 17.671875 61.125 8.828125 
Q 51.171875 0 30.078125 0 
L 9.8125 0 
z
" id="DejaVuSans-68"/>
      <path d="M 34.28125 27.484375 
Q 23.390625 27.484375 19.1875 25 
Q 14.984375 22.515625 14.984375 16.5 
Q 14.984375 11.71875 18.140625 8.90625 
Q 21.296875 6.109375 26.703125 6.109375 
Q 34.1875 6.109375 38.703125 11.40625 
Q 43.21875 16.703125 43.21875 25.484375 
L 43.21875 27.484375 
z
M 52.203125 31.203125 
L 52.203125 0 
L 43.21875 0 
L 43.21875 8.296875 
Q 40.140625 3.328125 35.546875 0.953125 
Q 30.953125 -1.421875 24.3125 -1.421875 
Q 15.921875 -1.421875 10.953125 3.296875 
Q 6 8.015625 6 15.921875 
Q 6 25.140625 12.171875 29.828125 
Q 18.359375 34.515625 30.609375 34.515625 
L 43.21875 34.515625 
L 43.21875 35.40625 
Q 43.21875 41.609375 39.140625 45 
Q 35.0625 48.390625 27.6875 48.390625 
Q 23 48.390625 18.546875 47.265625 
Q 14.109375 46.140625 10.015625 43.890625 
L 10.015625 52.203125 
Q 14.9375 54.109375 19.578125 55.046875 
Q 24.21875 56 28.609375 56 
Q 40.484375 56 46.34375 49.84375 
Q 52.203125 43.703125 52.203125 31.203125 
z
" id="DejaVuSans-97"/>
      <path d="M 18.3125 70.21875 
L 18.3125 54.6875 
L 36.8125 54.6875 
L 36.8125 47.703125 
L 18.3125 47.703125 
L 18.3125 18.015625 
Q 18.3125 11.328125 20.140625 9.421875 
Q 21.96875 7.515625 27.59375 7.515625 
L 36.8125 7.515625 
L 36.8125 0 
L 27.59375 0 
Q 17.1875 0 13.234375 3.875 
Q 9.28125 7.765625 9.28125 18.015625 
L 9.28125 47.703125 
L 2.6875 47.703125 
L 2.6875 54.6875 
L 9.28125 54.6875 
L 9.28125 70.21875 
z
" id="DejaVuSans-116"/>
      <path d="M 56.203125 29.59375 
L 56.203125 25.203125 
L 14.890625 25.203125 
Q 15.484375 15.921875 20.484375 11.0625 
Q 25.484375 6.203125 34.421875 6.203125 
Q 39.59375 6.203125 44.453125 7.46875 
Q 49.3125 8.734375 54.109375 11.28125 
L 54.109375 2.78125 
Q 49.265625 0.734375 44.1875 -0.34375 
Q 39.109375 -1.421875 33.890625 -1.421875 
Q 20.796875 -1.421875 13.15625 6.1875 
Q 5.515625 13.8125 5.515625 26.8125 
Q 5.515625 40.234375 12.765625 48.109375 
Q 20.015625 56 32.328125 56 
Q 43.359375 56 49.78125 48.890625 
Q 56.203125 41.796875 56.203125 29.59375 
z
M 47.21875 32.234375 
Q 47.125 39.59375 43.09375 43.984375 
Q 39.0625 48.390625 32.421875 48.390625 
Q 24.90625 48.390625 20.390625 44.140625 
Q 15.875 39.890625 15.1875 32.171875 
z
" id="DejaVuSans-101"/>
     </defs>
     <g transform="translate(273.222833 347.233436)scale(0.11 -0.11)">
      <use xlink:href="#DejaVuSans-68"/>
      <use x="77.001953" xlink:href="#DejaVuSans-97"/>
      <use x="138.28125" xlink:href="#DejaVuSans-116"/>
      <use x="177.490234" xlink:href="#DejaVuSans-101"/>
     </g>
    </g>
   </g>
   <g id="matplotlib.axis_2">
    <g id="ytick_1">
     <g id="line2d_12">
      <defs>
       <path d="M 0 0 
L -3.5 0 
" id="mc5cc520f0f" style="stroke:#000000;"/>
      </defs>
      <g>
       <use style="stroke:#000000;" x="43.537384" xlink:href="#mc5cc520f0f" y="282.906689"/>
      </g>
     </g>
     <g id="text_13">
      <!-- 0 -->
      <g transform="translate(26.674884 286.705908)scale(0.1 -0.1)">
       <use xlink:href="#DejaVuSans-48"/>
      </g>
     </g>
    </g>
    <g id="ytick_2">
     <g id="line2d_13">
      <g>
       <use style="stroke:#000000;" x="43.537384" xlink:href="#mc5cc520f0f" y="250.866978"/>
      </g>
     </g>
     <g id="text_14">
      <!-- 2 -->
      <g transform="translate(26.674884 254.666196)scale(0.1 -0.1)">
       <use xlink:href="#DejaVuSans-50"/>
      </g>
     </g>
    </g>
    <g id="ytick_3">
     <g id="line2d_14">
      <g>
       <use style="stroke:#000000;" x="43.537384" xlink:href="#mc5cc520f0f" y="218.827266"/>
      </g>
     </g>
     <g id="text_15">
      <!-- 4 -->
      <g transform="translate(26.674884 222.626485)scale(0.1 -0.1)">
       <use xlink:href="#DejaVuSans-52"/>
      </g>
     </g>
    </g>
    <g id="ytick_4">
     <g id="line2d_15">
      <g>
       <use style="stroke:#000000;" x="43.537384" xlink:href="#mc5cc520f0f" y="186.787555"/>
      </g>
     </g>
     <g id="text_16">
      <!-- 6 -->
      <g transform="translate(26.674884 190.586773)scale(0.1 -0.1)">
       <use xlink:href="#DejaVuSans-54"/>
      </g>
     </g>
    </g>
    <g id="ytick_5">
     <g id="line2d_16">
      <g>
       <use style="stroke:#000000;" x="43.537384" xlink:href="#mc5cc520f0f" y="154.747843"/>
      </g>
     </g>
     <g id="text_17">
      <!-- 8 -->
      <g transform="translate(26.674884 158.547062)scale(0.1 -0.1)">
       <use xlink:href="#DejaVuSans-56"/>
      </g>
     </g>
    </g>
    <g id="ytick_6">
     <g id="line2d_17">
      <g>
       <use style="stroke:#000000;" x="43.537384" xlink:href="#mc5cc520f0f" y="122.708131"/>
      </g>
     </g>
     <g id="text_18">
      <!-- 10 -->
      <g transform="translate(20.312384 126.50735)scale(0.1 -0.1)">
       <use xlink:href="#DejaVuSans-49"/>
       <use x="63.623047" xlink:href="#DejaVuSans-48"/>
      </g>
     </g>
    </g>
    <g id="ytick_7">
     <g id="line2d_18">
      <g>
       <use style="stroke:#000000;" x="43.537384" xlink:href="#mc5cc520f0f" y="90.66842"/>
      </g>
     </g>
     <g id="text_19">
      <!-- 12 -->
      <g transform="translate(20.312384 94.467639)scale(0.1 -0.1)">
       <use xlink:href="#DejaVuSans-49"/>
       <use x="63.623047" xlink:href="#DejaVuSans-50"/>
      </g>
     </g>
    </g>
    <g id="ytick_8">
     <g id="line2d_19">
      <g>
       <use style="stroke:#000000;" x="43.537384" xlink:href="#mc5cc520f0f" y="58.628708"/>
      </g>
     </g>
     <g id="text_20">
      <!-- 14 -->
      <g transform="translate(20.312384 62.427927)scale(0.1 -0.1)">
       <use xlink:href="#DejaVuSans-49"/>
       <use x="63.623047" xlink:href="#DejaVuSans-52"/>
      </g>
     </g>
    </g>
   </g>
   <g id="line2d_20">
    <path clip-path="url(#p7fb8fc7049)" d="M 65.612958 282.906689 
L 155.437705 282.825372 
L 156.960158 282.784713 
L 158.482612 282.622079 
L 163.049972 282.540762 
L 167.617332 280.426513 
L 169.139785 279.979268 
L 170.662238 278.637533 
L 172.184692 277.011188 
L 173.707145 275.75077 
L 175.229598 274.287059 
L 176.752052 273.880473 
L 178.274505 272.050835 
L 179.796958 266.84653 
L 181.319412 260.951028 
L 182.841865 255.787382 
L 185.886772 236.921777 
L 187.409225 229.969151 
L 188.931678 218.340782 
L 190.454132 209.19259 
L 193.499038 173.860239 
L 198.066398 126.045688 
L 199.588852 118.808451 
L 201.111305 92.746268 
L 202.633758 80.182751 
L 205.678665 48.956921 
L 207.201118 46.680038 
L 208.723572 45.622914 
L 210.246025 38.995557 
L 211.768478 39.076874 
L 213.290932 46.883331 
L 214.813385 50.298656 
L 216.335838 58.79631 
L 217.858292 48.265725 
L 219.380745 57.373258 
L 220.903199 63.797322 
L 222.425652 59.365531 
L 223.948105 59.568824 
L 225.470559 72.254318 
L 226.993012 72.457611 
L 228.515465 83.638734 
L 230.037919 85.793642 
L 233.082825 106.163617 
L 234.605279 111.083311 
L 236.127732 113.156901 
L 237.650185 121.20731 
L 239.172639 131.128016 
L 240.695092 135.397173 
L 242.217545 137.104835 
L 243.739999 146.17171 
L 245.262452 149.221108 
L 246.784905 155.970441 
L 248.307359 161.05277 
L 249.829812 171.583355 
L 251.352265 172.884431 
L 252.874719 175.852512 
L 254.397172 179.918375 
L 255.919625 186.708366 
L 257.442079 189.717105 
L 258.964532 198.580687 
L 260.486985 193.620334 
L 262.009439 199.597153 
L 263.531892 201.223498 
L 265.054345 204.964092 
L 266.576799 209.151931 
L 268.099252 212.526598 
L 269.621705 213.461746 
L 271.144159 219.601199 
L 272.666612 206.631096 
L 274.189065 208.58271 
L 275.711519 222.487962 
L 277.233972 216.91773 
L 278.756425 213.05516 
L 280.278879 213.502405 
L 281.801332 216.755095 
L 283.323785 229.887833 
L 284.846239 230.172444 
L 286.368692 225.171432 
L 287.891145 232.408669 
L 289.413599 240.662371 
L 290.936052 240.946981 
L 293.980959 240.174467 
L 295.503412 241.597519 
L 297.025866 243.589792 
L 298.548319 246.63919 
L 300.070772 248.590804 
L 301.593226 253.551157 
L 303.115679 254.852233 
L 304.638132 255.909358 
L 306.160586 256.681872 
L 307.683039 259.649952 
L 309.205492 261.804859 
L 310.727946 261.967494 
L 312.250399 263.756474 
L 313.772852 264.854257 
L 315.295306 264.569646 
L 316.817759 265.05755 
L 318.340212 265.95204 
L 319.862666 266.602578 
L 321.385119 265.34216 
L 322.907572 265.220184 
L 324.430026 266.561919 
L 325.952479 266.643237 
L 327.474932 266.480602 
L 328.997386 267.984971 
L 330.519839 267.334433 
L 332.042292 269.773951 
L 333.564746 271.034369 
L 335.087199 271.318979 
L 336.609652 271.725566 
L 338.132106 271.969517 
L 339.654559 271.847541 
L 341.177012 273.392569 
L 342.699466 273.473887 
L 347.266826 274.734304 
L 348.789279 274.85628 
L 350.311732 275.181549 
L 351.834186 276.319991 
L 353.356639 276.563943 
L 356.401546 277.214481 
L 359.446453 277.092505 
L 360.968906 277.783702 
L 362.491359 278.108971 
L 364.013813 278.678192 
L 367.058719 278.149629 
L 368.581173 278.271605 
L 370.103626 278.556216 
L 371.626079 278.71885 
L 373.148533 278.190288 
L 374.670986 278.556216 
L 376.193439 279.288071 
L 382.283253 279.897951 
L 383.805706 280.589147 
L 385.328159 279.979268 
L 388.373066 280.711123 
L 389.895519 280.589147 
L 391.417973 279.938609 
L 392.940426 280.182561 
L 399.030239 279.735316 
L 400.552693 279.816633 
L 402.075146 280.385854 
L 405.120053 280.385854 
L 406.642506 280.873758 
L 408.164959 281.199027 
L 409.687413 280.589147 
L 412.732319 280.548489 
L 414.254773 280.345196 
L 415.777226 280.426513 
L 417.299679 280.263878 
L 418.822133 279.979268 
L 421.867039 280.304537 
L 423.389493 280.345196 
L 424.911946 280.914416 
L 426.4344 281.158368 
L 429.479306 281.11771 
L 432.524213 281.11771 
L 434.046666 281.11771 
L 435.56912 280.101244 
L 438.614026 279.979268 
L 441.658933 280.182561 
L 444.70384 279.857292 
L 446.226293 279.938609 
L 447.748746 279.572682 
L 449.2712 279.369388 
L 450.793653 278.678192 
L 453.83856 277.621067 
L 455.361013 277.53975 
L 456.883466 277.092505 
L 458.40592 276.441967 
L 459.928373 275.669453 
L 462.97328 275.018915 
L 464.495733 275.100232 
L 466.018186 274.937597 
L 469.063093 272.457421 
L 470.585546 272.010176 
L 472.108 270.912393 
L 473.630453 270.546465 
L 475.152906 269.895927 
L 476.67536 269.651975 
L 478.197813 269.855268 
L 479.720266 269.733293 
L 482.765173 267.984971 
L 484.287626 267.375092 
L 485.81008 266.155333 
L 487.332533 265.179526 
L 488.854986 262.699349 
L 493.422346 257.61702 
L 494.9448 254.608282 
L 496.467253 254.730257 
L 497.989707 253.551157 
L 499.51216 249.932539 
L 501.034613 248.468828 
L 502.557067 246.476555 
L 504.07952 243.711768 
L 505.601973 243.183206 
L 507.124427 240.011833 
L 507.124427 240.011833 
" style="fill:none;stroke:#1f77b4;stroke-linecap:square;stroke-width:1.75;"/>
   </g>
   <g id="line2d_21">
    <path clip-path="url(#p7fb8fc7049)" d="M 65.612958 282.906689 
L 167.617332 282.906689 
L 170.662238 282.068899 
L 172.184692 280.812213 
L 173.707145 280.812213 
L 175.229598 280.393317 
L 176.752052 279.136631 
L 178.274505 277.46105 
L 179.796958 277.042155 
L 181.319412 274.947678 
L 182.841865 274.947678 
L 184.364318 271.596516 
L 185.886772 269.083144 
L 187.409225 269.920934 
L 188.931678 269.083144 
L 190.454132 260.705237 
L 191.976585 251.48954 
L 193.499038 240.598262 
L 196.543945 208.343322 
L 198.066398 207.924426 
L 199.588852 209.600008 
L 201.111305 187.817451 
L 202.633758 170.223847 
L 204.156212 148.44129 
L 205.678665 147.603499 
L 207.201118 147.184604 
L 208.723572 137.968907 
L 210.246025 135.03664 
L 211.768478 149.279081 
L 213.290932 143.414546 
L 214.813385 143.833442 
L 216.335838 139.644488 
L 217.858292 135.87443 
L 219.380745 141.738965 
L 220.903199 140.482279 
L 222.425652 127.915419 
L 223.948105 130.847686 
L 225.470559 140.063384 
L 226.993012 137.550012 
L 228.515465 141.32007 
L 230.037919 137.968907 
L 231.560372 137.550012 
L 233.082825 137.550012 
L 234.605279 135.03664 
L 236.127732 134.198849 
L 237.650185 144.252337 
L 239.172639 145.509023 
L 240.695092 148.022395 
L 242.217545 151.373557 
L 243.739999 162.264836 
L 245.262452 162.264836 
L 246.784905 162.683731 
L 248.307359 158.913673 
L 249.829812 162.264836 
L 251.352265 163.102626 
L 252.874719 163.102626 
L 254.397172 160.589255 
L 255.919625 169.804952 
L 257.442079 180.277335 
L 258.964532 181.534021 
L 260.486985 179.439544 
L 262.009439 179.858439 
L 263.531892 181.115125 
L 265.054345 189.911927 
L 266.576799 194.519776 
L 268.099252 193.26309 
L 269.621705 202.478787 
L 271.144159 212.95117 
L 272.666612 212.95117 
L 274.189065 212.532275 
L 275.711519 217.140123 
L 277.233972 232.63925 
L 278.756425 243.111633 
L 280.278879 246.881691 
L 281.801332 244.368319 
L 283.323785 244.368319 
L 284.846239 245.20611 
L 286.368692 247.719482 
L 287.891145 248.557273 
L 289.413599 249.813959 
L 290.936052 250.232854 
L 292.458506 256.935179 
L 293.980959 260.705237 
L 295.503412 261.124132 
L 297.025866 263.218609 
L 298.548319 262.799714 
L 300.070772 264.475295 
L 301.593226 269.083144 
L 303.115679 269.502039 
L 304.638132 269.083144 
L 306.160586 269.083144 
L 307.683039 269.920934 
L 310.727946 272.434306 
L 312.250399 271.17762 
L 313.772852 272.434306 
L 315.295306 272.853202 
L 316.817759 272.853202 
L 318.340212 273.272097 
L 319.862666 275.366573 
L 321.385119 275.366573 
L 322.907572 277.879945 
L 324.430026 278.717736 
L 327.474932 278.717736 
L 328.997386 279.136631 
L 330.519839 280.393317 
L 332.042292 280.812213 
L 333.564746 280.393317 
L 338.132106 280.393317 
L 339.654559 281.231108 
L 341.177012 281.231108 
L 344.221919 282.068899 
L 348.789279 282.068899 
L 351.834186 282.906689 
L 353.356639 282.487794 
L 362.491359 282.487794 
L 364.013813 282.906689 
L 403.597599 282.906689 
L 405.120053 282.487794 
L 414.254773 282.487794 
L 415.777226 282.068899 
L 424.911946 282.068899 
L 426.4344 282.487794 
L 427.956853 282.068899 
L 434.046666 282.068899 
L 435.56912 280.812213 
L 438.614026 281.650003 
L 444.70384 281.650003 
L 446.226293 282.487794 
L 447.748746 282.068899 
L 449.2712 282.068899 
L 450.793653 281.650003 
L 452.316106 280.393317 
L 456.883466 280.393317 
L 458.40592 279.974422 
L 459.928373 279.136631 
L 461.450826 279.136631 
L 462.97328 280.393317 
L 464.495733 279.974422 
L 466.018186 279.974422 
L 467.54064 280.393317 
L 469.063093 278.298841 
L 470.585546 277.879945 
L 472.108 276.623259 
L 473.630453 274.947678 
L 475.152906 275.366573 
L 476.67536 275.366573 
L 478.197813 274.528783 
L 479.720266 277.042155 
L 484.287626 274.528783 
L 487.332533 274.528783 
L 488.854986 272.434306 
L 490.37744 266.569772 
L 491.899893 263.218609 
L 493.422346 261.961923 
L 494.9448 258.191865 
L 496.467253 258.191865 
L 497.989707 257.77297 
L 499.51216 254.421807 
L 501.034613 248.976168 
L 502.557067 247.300587 
L 504.07952 243.530529 
L 505.601973 245.20611 
L 507.124427 244.787215 
L 507.124427 244.787215 
" style="fill:none;stroke:#ff7f0e;stroke-linecap:square;stroke-width:1.75;"/>
   </g>
   <g id="line2d_22">
    <path clip-path="url(#p7fb8fc7049)" d="M 65.612958 282.906689 
L 173.707145 282.906689 
L 175.229598 281.454968 
L 176.752052 274.922222 
L 178.274505 272.018779 
L 179.796958 271.292919 
L 181.319412 267.663615 
L 184.364318 258.953288 
L 185.886772 257.501566 
L 187.409225 256.775706 
L 188.931678 249.517099 
L 190.454132 245.161935 
L 191.976585 227.741279 
L 193.499038 218.305091 
L 195.021492 205.239599 
L 196.543945 198.706853 
L 198.066398 197.255132 
L 199.588852 187.818943 
L 201.111305 179.108615 
L 202.633758 176.205173 
L 204.156212 160.236238 
L 205.678665 156.606935 
L 207.201118 139.91214 
L 208.723572 135.556976 
L 210.246025 144.267304 
L 211.768478 144.267304 
L 213.290932 124.669066 
L 214.813385 131.201812 
L 216.335838 144.267304 
L 217.858292 150.074189 
L 219.380745 133.379394 
L 220.903199 137.734558 
L 222.425652 133.379394 
L 223.948105 166.043123 
L 225.470559 176.931033 
L 226.993012 105.070828 
L 228.515465 108.700131 
L 230.037919 128.298369 
L 231.560372 129.02423 
L 233.082825 134.831115 
L 234.605279 92.731197 
L 236.127732 89.101893 
L 237.650185 156.606935 
L 239.172639 141.363861 
L 240.695092 141.363861 
L 242.217545 137.008697 
L 243.739999 130.475951 
L 245.262452 168.220705 
L 246.784905 171.124148 
L 248.307359 163.139681 
L 249.829812 188.544804 
L 251.352265 189.996525 
L 252.874719 196.529271 
L 254.397172 203.787878 
L 255.919625 203.062017 
L 257.442079 208.868902 
L 258.964532 222.660255 
L 260.486985 216.127509 
L 262.009439 216.127509 
L 263.531892 216.853369 
L 265.054345 216.127509 
L 266.576799 221.934394 
L 268.099252 222.660255 
L 269.621705 224.111976 
L 271.144159 232.822304 
L 272.666612 236.451607 
L 274.189065 234.274025 
L 275.711519 240.806771 
L 277.233972 242.984353 
L 278.756425 239.35505 
L 280.278879 237.177468 
L 281.801332 231.370583 
L 283.323785 228.46714 
L 284.846239 229.918861 
L 286.368692 230.644722 
L 287.891145 226.289558 
L 290.936052 234.999886 
L 292.458506 237.903328 
L 293.980959 242.258492 
L 295.503412 243.710214 
L 297.025866 242.258492 
L 298.548319 248.065378 
L 300.070772 249.517099 
L 301.593226 245.161935 
L 303.115679 248.065378 
L 304.638132 249.517099 
L 306.160586 248.791238 
L 307.683039 249.517099 
L 309.205492 248.791238 
L 310.727946 249.517099 
L 312.250399 253.872263 
L 313.772852 257.501566 
L 315.295306 258.953288 
L 318.340212 263.308452 
L 319.862666 264.760173 
L 321.385119 264.034312 
L 322.907572 265.486034 
L 324.430026 262.582591 
L 325.952479 261.85673 
L 327.474932 260.405009 
L 330.519839 263.308452 
L 332.042292 261.85673 
L 335.087199 261.85673 
L 336.609652 262.582591 
L 338.132106 264.760173 
L 339.654559 264.760173 
L 341.177012 266.211894 
L 342.699466 270.567058 
L 344.221919 272.018779 
L 345.744372 274.922222 
L 347.266826 275.648083 
L 348.789279 275.648083 
L 350.311732 276.373943 
L 353.356639 279.277386 
L 354.879092 278.551525 
L 356.401546 279.277386 
L 357.923999 278.551525 
L 359.446453 278.551525 
L 360.968906 280.003247 
L 362.491359 280.729107 
L 364.013813 280.729107 
L 365.536266 281.454968 
L 371.626079 281.454968 
L 373.148533 278.551525 
L 374.670986 278.551525 
L 376.193439 274.196361 
L 379.238346 271.292919 
L 380.760799 271.292919 
L 382.283253 270.567058 
L 383.805706 272.74464 
L 385.328159 270.567058 
L 386.850613 269.841197 
L 388.373066 270.567058 
L 389.895519 272.74464 
L 391.417973 272.74464 
L 392.940426 272.018779 
L 394.462879 269.841197 
L 395.985333 272.018779 
L 397.507786 277.099804 
L 399.030239 277.099804 
L 400.552693 275.648083 
L 402.075146 275.648083 
L 403.597599 277.099804 
L 405.120053 280.729107 
L 411.209866 280.729107 
L 412.732319 280.003247 
L 414.254773 280.003247 
L 417.299679 278.551525 
L 418.822133 278.551525 
L 420.344586 279.277386 
L 421.867039 280.729107 
L 423.389493 281.454968 
L 424.911946 280.729107 
L 427.956853 282.180829 
L 429.479306 282.180829 
L 431.00176 281.454968 
L 434.046666 281.454968 
L 435.56912 282.180829 
L 440.13648 282.180829 
L 441.658933 282.906689 
L 447.748746 282.906689 
L 449.2712 280.729107 
L 450.793653 280.003247 
L 452.316106 278.551525 
L 456.883466 278.551525 
L 458.40592 277.099804 
L 459.928373 278.551525 
L 461.450826 277.099804 
L 462.97328 276.373943 
L 466.018186 276.373943 
L 467.54064 274.196361 
L 469.063093 274.922222 
L 470.585546 271.292919 
L 472.108 271.292919 
L 473.630453 269.841197 
L 476.67536 269.841197 
L 478.197813 264.760173 
L 479.720266 263.308452 
L 481.24272 266.937755 
L 482.765173 267.663615 
L 484.287626 256.049845 
L 485.81008 254.598124 
L 487.332533 251.694681 
L 488.854986 255.323984 
L 490.37744 250.24296 
L 491.899893 243.710214 
L 493.422346 241.532632 
L 494.9448 253.146402 
L 496.467253 252.420542 
L 497.989707 254.598124 
L 499.51216 250.96882 
L 501.034613 248.065378 
L 502.557067 250.24296 
L 504.07952 244.436074 
L 505.601973 236.451607 
L 507.124427 234.999886 
L 507.124427 234.999886 
" style="fill:none;stroke:#2ca02c;stroke-linecap:square;stroke-width:1.75;"/>
   </g>
   <g id="line2d_23">
    <path clip-path="url(#p7fb8fc7049)" d="M 65.612958 282.906689 
L 173.707145 282.906689 
L 175.229598 281.698161 
L 176.752052 281.698161 
L 178.274505 280.489632 
L 181.319412 275.655517 
L 184.364318 268.404346 
L 185.886772 267.195817 
L 187.409225 259.944645 
L 188.931678 259.944645 
L 190.454132 255.11053 
L 191.976585 255.11053 
L 193.499038 251.484944 
L 195.021492 240.608186 
L 196.543945 233.357015 
L 198.066398 232.148486 
L 199.588852 224.897314 
L 201.111305 228.5229 
L 202.633758 224.897314 
L 205.678665 229.731429 
L 207.201118 221.271728 
L 208.723572 216.437613 
L 210.246025 217.646142 
L 211.768478 209.186442 
L 213.290932 207.977913 
L 214.813385 191.058512 
L 216.335838 181.390283 
L 217.858292 178.973225 
L 219.380745 191.058512 
L 220.903199 182.598811 
L 222.425652 178.973225 
L 223.948105 149.968538 
L 225.470559 156.011181 
L 226.993012 159.636767 
L 228.515465 160.845295 
L 230.037919 156.011181 
L 231.560372 159.636767 
L 233.082825 151.177066 
L 234.605279 176.556168 
L 236.127732 181.390283 
L 237.650185 177.764697 
L 239.172639 183.80734 
L 240.695092 183.80734 
L 242.217545 188.641454 
L 243.739999 192.26704 
L 245.262452 186.224397 
L 246.784905 192.26704 
L 248.307359 209.186442 
L 249.829812 217.646142 
L 251.352265 217.646142 
L 252.874719 221.271728 
L 254.397172 230.939957 
L 255.919625 245.442301 
L 257.442079 244.233772 
L 258.964532 230.939957 
L 260.486985 230.939957 
L 262.009439 233.357015 
L 263.531892 229.731429 
L 265.054345 232.148486 
L 266.576799 228.5229 
L 268.099252 226.105843 
L 269.621705 240.608186 
L 271.144159 244.233772 
L 272.666612 246.65083 
L 274.189065 244.233772 
L 275.711519 252.693473 
L 277.233972 256.319059 
L 278.756425 262.361702 
L 283.323785 262.361702 
L 284.846239 270.821403 
L 286.368692 268.404346 
L 287.891145 261.153174 
L 289.413599 262.361702 
L 290.936052 264.77876 
L 292.458506 264.77876 
L 295.503412 267.195817 
L 297.025866 269.612874 
L 298.548319 279.281103 
L 301.593226 279.281103 
L 303.115679 278.072575 
L 306.160586 278.072575 
L 309.205492 275.655517 
L 310.727946 276.864046 
L 312.250399 276.864046 
L 313.772852 278.072575 
L 324.430026 278.072575 
L 327.474932 275.655517 
L 330.519839 278.072575 
L 333.564746 275.655517 
L 338.132106 279.281103 
L 341.177012 279.281103 
L 342.699466 280.489632 
L 344.221919 282.906689 
L 347.266826 282.906689 
L 348.789279 280.489632 
L 357.923999 280.489632 
L 359.446453 282.906689 
L 389.895519 282.906689 
L 391.417973 281.698161 
L 395.985333 281.698161 
L 397.507786 280.489632 
L 400.552693 280.489632 
L 402.075146 281.698161 
L 403.597599 280.489632 
L 406.642506 280.489632 
L 408.164959 281.698161 
L 412.732319 281.698161 
L 414.254773 282.906689 
L 415.777226 282.906689 
L 417.299679 281.698161 
L 424.911946 281.698161 
L 426.4344 279.281103 
L 427.956853 279.281103 
L 429.479306 278.072575 
L 432.524213 278.072575 
L 434.046666 276.864046 
L 435.56912 274.446989 
L 437.091573 276.864046 
L 438.614026 276.864046 
L 440.13648 278.072575 
L 443.181386 278.072575 
L 444.70384 276.864046 
L 446.226293 278.072575 
L 447.748746 275.655517 
L 449.2712 276.864046 
L 450.793653 274.446989 
L 455.361013 274.446989 
L 456.883466 275.655517 
L 458.40592 278.072575 
L 459.928373 278.072575 
L 461.450826 280.489632 
L 462.97328 279.281103 
L 464.495733 279.281103 
L 466.018186 281.698161 
L 467.54064 281.698161 
L 469.063093 280.489632 
L 470.585546 278.072575 
L 472.108 276.864046 
L 473.630453 276.864046 
L 475.152906 275.655517 
L 476.67536 275.655517 
L 478.197813 274.446989 
L 479.720266 274.446989 
L 484.287626 278.072575 
L 485.81008 278.072575 
L 487.332533 274.446989 
L 488.854986 267.195817 
L 491.899893 259.944645 
L 494.9448 255.11053 
L 496.467253 250.276416 
L 497.989707 246.65083 
L 499.51216 251.484944 
L 502.557067 249.067887 
L 504.07952 245.442301 
L 505.601973 240.608186 
L 507.124427 236.982601 
L 507.124427 236.982601 
" style="fill:none;stroke:#d62728;stroke-linecap:square;stroke-width:1.75;"/>
   </g>
   <g id="patch_3">
    <path d="M 43.537384 295.102246 
L 43.537384 26.8 
" style="fill:none;stroke:#000000;stroke-linecap:square;stroke-linejoin:miter;stroke-width:0.8;"/>
   </g>
   <g id="patch_4">
    <path d="M 529.2 295.102246 
L 529.2 26.8 
" style="fill:none;stroke:#000000;stroke-linecap:square;stroke-linejoin:miter;stroke-width:0.8;"/>
   </g>
   <g id="patch_5">
    <path d="M 43.537384 295.102246 
L 529.2 295.102246 
" style="fill:none;stroke:#000000;stroke-linecap:square;stroke-linejoin:miter;stroke-width:0.8;"/>
   </g>
   <g id="patch_6">
    <path d="M 43.537384 26.8 
L 529.2 26.8 
" style="fill:none;stroke:#000000;stroke-linecap:square;stroke-linejoin:miter;stroke-width:0.8;"/>
   </g>
   <g id="text_21">
    <!-- New Deaths per Million (7 day rolling) -->
    <defs>
     <path d="M 9.8125 72.90625 
L 23.09375 72.90625 
L 55.421875 11.921875 
L 55.421875 72.90625 
L 64.984375 72.90625 
L 64.984375 0 
L 51.703125 0 
L 19.390625 60.984375 
L 19.390625 0 
L 9.8125 0 
z
" id="DejaVuSans-78"/>
     <path d="M 4.203125 54.6875 
L 13.1875 54.6875 
L 24.421875 12.015625 
L 35.59375 54.6875 
L 46.1875 54.6875 
L 57.421875 12.015625 
L 68.609375 54.6875 
L 77.59375 54.6875 
L 63.28125 0 
L 52.6875 0 
L 40.921875 44.828125 
L 29.109375 0 
L 18.5 0 
z
" id="DejaVuSans-119"/>
     <path id="DejaVuSans-32"/>
     <path d="M 54.890625 33.015625 
L 54.890625 0 
L 45.90625 0 
L 45.90625 32.71875 
Q 45.90625 40.484375 42.875 44.328125 
Q 39.84375 48.1875 33.796875 48.1875 
Q 26.515625 48.1875 22.3125 43.546875 
Q 18.109375 38.921875 18.109375 30.90625 
L 18.109375 0 
L 9.078125 0 
L 9.078125 75.984375 
L 18.109375 75.984375 
L 18.109375 46.1875 
Q 21.34375 51.125 25.703125 53.5625 
Q 30.078125 56 35.796875 56 
Q 45.21875 56 50.046875 50.171875 
Q 54.890625 44.34375 54.890625 33.015625 
z
" id="DejaVuSans-104"/>
     <path d="M 44.28125 53.078125 
L 44.28125 44.578125 
Q 40.484375 46.53125 36.375 47.5 
Q 32.28125 48.484375 27.875 48.484375 
Q 21.1875 48.484375 17.84375 46.4375 
Q 14.5 44.390625 14.5 40.28125 
Q 14.5 37.15625 16.890625 35.375 
Q 19.28125 33.59375 26.515625 31.984375 
L 29.59375 31.296875 
Q 39.15625 29.25 43.1875 25.515625 
Q 47.21875 21.78125 47.21875 15.09375 
Q 47.21875 7.46875 41.1875 3.015625 
Q 35.15625 -1.421875 24.609375 -1.421875 
Q 20.21875 -1.421875 15.453125 -0.5625 
Q 10.6875 0.296875 5.421875 2 
L 5.421875 11.28125 
Q 10.40625 8.6875 15.234375 7.390625 
Q 20.0625 6.109375 24.8125 6.109375 
Q 31.15625 6.109375 34.5625 8.28125 
Q 37.984375 10.453125 37.984375 14.40625 
Q 37.984375 18.0625 35.515625 20.015625 
Q 33.0625 21.96875 24.703125 23.78125 
L 21.578125 24.515625 
Q 13.234375 26.265625 9.515625 29.90625 
Q 5.8125 33.546875 5.8125 39.890625 
Q 5.8125 47.609375 11.28125 51.796875 
Q 16.75 56 26.8125 56 
Q 31.78125 56 36.171875 55.265625 
Q 40.578125 54.546875 44.28125 53.078125 
z
" id="DejaVuSans-115"/>
     <path d="M 18.109375 8.203125 
L 18.109375 -20.796875 
L 9.078125 -20.796875 
L 9.078125 54.6875 
L 18.109375 54.6875 
L 18.109375 46.390625 
Q 20.953125 51.265625 25.265625 53.625 
Q 29.59375 56 35.59375 56 
Q 45.5625 56 51.78125 48.09375 
Q 58.015625 40.1875 58.015625 27.296875 
Q 58.015625 14.40625 51.78125 6.484375 
Q 45.5625 -1.421875 35.59375 -1.421875 
Q 29.59375 -1.421875 25.265625 0.953125 
Q 20.953125 3.328125 18.109375 8.203125 
z
M 48.6875 27.296875 
Q 48.6875 37.203125 44.609375 42.84375 
Q 40.53125 48.484375 33.40625 48.484375 
Q 26.265625 48.484375 22.1875 42.84375 
Q 18.109375 37.203125 18.109375 27.296875 
Q 18.109375 17.390625 22.1875 11.75 
Q 26.265625 6.109375 33.40625 6.109375 
Q 40.53125 6.109375 44.609375 11.75 
Q 48.6875 17.390625 48.6875 27.296875 
z
" id="DejaVuSans-112"/>
     <path d="M 41.109375 46.296875 
Q 39.59375 47.171875 37.8125 47.578125 
Q 36.03125 48 33.890625 48 
Q 26.265625 48 22.1875 43.046875 
Q 18.109375 38.09375 18.109375 28.8125 
L 18.109375 0 
L 9.078125 0 
L 9.078125 54.6875 
L 18.109375 54.6875 
L 18.109375 46.1875 
Q 20.953125 51.171875 25.484375 53.578125 
Q 30.03125 56 36.53125 56 
Q 37.453125 56 38.578125 55.875 
Q 39.703125 55.765625 41.0625 55.515625 
z
" id="DejaVuSans-114"/>
     <path d="M 9.8125 72.90625 
L 24.515625 72.90625 
L 43.109375 23.296875 
L 61.8125 72.90625 
L 76.515625 72.90625 
L 76.515625 0 
L 66.890625 0 
L 66.890625 64.015625 
L 48.09375 14.015625 
L 38.1875 14.015625 
L 19.390625 64.015625 
L 19.390625 0 
L 9.8125 0 
z
" id="DejaVuSans-77"/>
     <path d="M 9.421875 54.6875 
L 18.40625 54.6875 
L 18.40625 0 
L 9.421875 0 
z
M 9.421875 75.984375 
L 18.40625 75.984375 
L 18.40625 64.59375 
L 9.421875 64.59375 
z
" id="DejaVuSans-105"/>
     <path d="M 9.421875 75.984375 
L 18.40625 75.984375 
L 18.40625 0 
L 9.421875 0 
z
" id="DejaVuSans-108"/>
     <path d="M 30.609375 48.390625 
Q 23.390625 48.390625 19.1875 42.75 
Q 14.984375 37.109375 14.984375 27.296875 
Q 14.984375 17.484375 19.15625 11.84375 
Q 23.34375 6.203125 30.609375 6.203125 
Q 37.796875 6.203125 41.984375 11.859375 
Q 46.1875 17.53125 46.1875 27.296875 
Q 46.1875 37.015625 41.984375 42.703125 
Q 37.796875 48.390625 30.609375 48.390625 
z
M 30.609375 56 
Q 42.328125 56 49.015625 48.375 
Q 55.71875 40.765625 55.71875 27.296875 
Q 55.71875 13.875 49.015625 6.21875 
Q 42.328125 -1.421875 30.609375 -1.421875 
Q 18.84375 -1.421875 12.171875 6.21875 
Q 5.515625 13.875 5.515625 27.296875 
Q 5.515625 40.765625 12.171875 48.375 
Q 18.84375 56 30.609375 56 
z
" id="DejaVuSans-111"/>
     <path d="M 54.890625 33.015625 
L 54.890625 0 
L 45.90625 0 
L 45.90625 32.71875 
Q 45.90625 40.484375 42.875 44.328125 
Q 39.84375 48.1875 33.796875 48.1875 
Q 26.515625 48.1875 22.3125 43.546875 
Q 18.109375 38.921875 18.109375 30.90625 
L 18.109375 0 
L 9.078125 0 
L 9.078125 54.6875 
L 18.109375 54.6875 
L 18.109375 46.1875 
Q 21.34375 51.125 25.703125 53.5625 
Q 30.078125 56 35.796875 56 
Q 45.21875 56 50.046875 50.171875 
Q 54.890625 44.34375 54.890625 33.015625 
z
" id="DejaVuSans-110"/>
     <path d="M 31 75.875 
Q 24.46875 64.65625 21.28125 53.65625 
Q 18.109375 42.671875 18.109375 31.390625 
Q 18.109375 20.125 21.3125 9.0625 
Q 24.515625 -2 31 -13.1875 
L 23.1875 -13.1875 
Q 15.875 -1.703125 12.234375 9.375 
Q 8.59375 20.453125 8.59375 31.390625 
Q 8.59375 42.28125 12.203125 53.3125 
Q 15.828125 64.359375 23.1875 75.875 
z
" id="DejaVuSans-40"/>
     <path d="M 45.40625 46.390625 
L 45.40625 75.984375 
L 54.390625 75.984375 
L 54.390625 0 
L 45.40625 0 
L 45.40625 8.203125 
Q 42.578125 3.328125 38.25 0.953125 
Q 33.9375 -1.421875 27.875 -1.421875 
Q 17.96875 -1.421875 11.734375 6.484375 
Q 5.515625 14.40625 5.515625 27.296875 
Q 5.515625 40.1875 11.734375 48.09375 
Q 17.96875 56 27.875 56 
Q 33.9375 56 38.25 53.625 
Q 42.578125 51.265625 45.40625 46.390625 
z
M 14.796875 27.296875 
Q 14.796875 17.390625 18.875 11.75 
Q 22.953125 6.109375 30.078125 6.109375 
Q 37.203125 6.109375 41.296875 11.75 
Q 45.40625 17.390625 45.40625 27.296875 
Q 45.40625 37.203125 41.296875 42.84375 
Q 37.203125 48.484375 30.078125 48.484375 
Q 22.953125 48.484375 18.875 42.84375 
Q 14.796875 37.203125 14.796875 27.296875 
z
" id="DejaVuSans-100"/>
     <path d="M 32.171875 -5.078125 
Q 28.375 -14.84375 24.75 -17.8125 
Q 21.140625 -20.796875 15.09375 -20.796875 
L 7.90625 -20.796875 
L 7.90625 -13.28125 
L 13.1875 -13.28125 
Q 16.890625 -13.28125 18.9375 -11.515625 
Q 21 -9.765625 23.484375 -3.21875 
L 25.09375 0.875 
L 2.984375 54.6875 
L 12.5 54.6875 
L 29.59375 11.921875 
L 46.6875 54.6875 
L 56.203125 54.6875 
z
" id="DejaVuSans-121"/>
     <path d="M 45.40625 27.984375 
Q 45.40625 37.75 41.375 43.109375 
Q 37.359375 48.484375 30.078125 48.484375 
Q 22.859375 48.484375 18.828125 43.109375 
Q 14.796875 37.75 14.796875 27.984375 
Q 14.796875 18.265625 18.828125 12.890625 
Q 22.859375 7.515625 30.078125 7.515625 
Q 37.359375 7.515625 41.375 12.890625 
Q 45.40625 18.265625 45.40625 27.984375 
z
M 54.390625 6.78125 
Q 54.390625 -7.171875 48.1875 -13.984375 
Q 42 -20.796875 29.203125 -20.796875 
Q 24.46875 -20.796875 20.265625 -20.09375 
Q 16.0625 -19.390625 12.109375 -17.921875 
L 12.109375 -9.1875 
Q 16.0625 -11.328125 19.921875 -12.34375 
Q 23.78125 -13.375 27.78125 -13.375 
Q 36.625 -13.375 41.015625 -8.765625 
Q 45.40625 -4.15625 45.40625 5.171875 
L 45.40625 9.625 
Q 42.625 4.78125 38.28125 2.390625 
Q 33.9375 0 27.875 0 
Q 17.828125 0 11.671875 7.65625 
Q 5.515625 15.328125 5.515625 27.984375 
Q 5.515625 40.671875 11.671875 48.328125 
Q 17.828125 56 27.875 56 
Q 33.9375 56 38.28125 53.609375 
Q 42.625 51.21875 45.40625 46.390625 
L 45.40625 54.6875 
L 54.390625 54.6875 
z
" id="DejaVuSans-103"/>
     <path d="M 8.015625 75.875 
L 15.828125 75.875 
Q 23.140625 64.359375 26.78125 53.3125 
Q 30.421875 42.28125 30.421875 31.390625 
Q 30.421875 20.453125 26.78125 9.375 
Q 23.140625 -1.703125 15.828125 -13.1875 
L 8.015625 -13.1875 
Q 14.5 -2 17.703125 9.0625 
Q 20.90625 20.125 20.90625 31.390625 
Q 20.90625 42.671875 17.703125 53.65625 
Q 14.5 64.65625 8.015625 75.875 
z
" id="DejaVuSans-41"/>
    </defs>
    <g transform="translate(173.133692 20.8)scale(0.12 -0.12)">
     <use xlink:href="#DejaVuSans-78"/>
     <use x="74.804688" xlink:href="#DejaVuSans-101"/>
     <use x="136.328125" xlink:href="#DejaVuSans-119"/>
     <use x="218.115234" xlink:href="#DejaVuSans-32"/>
     <use x="249.902344" xlink:href="#DejaVuSans-68"/>
     <use x="326.904297" xlink:href="#DejaVuSans-101"/>
     <use x="388.427734" xlink:href="#DejaVuSans-97"/>
     <use x="449.707031" xlink:href="#DejaVuSans-116"/>
     <use x="488.916016" xlink:href="#DejaVuSans-104"/>
     <use x="552.294922" xlink:href="#DejaVuSans-115"/>
     <use x="604.394531" xlink:href="#DejaVuSans-32"/>
     <use x="636.181641" xlink:href="#DejaVuSans-112"/>
     <use x="699.658203" xlink:href="#DejaVuSans-101"/>
     <use x="761.181641" xlink:href="#DejaVuSans-114"/>
     <use x="802.294922" xlink:href="#DejaVuSans-32"/>
     <use x="834.082031" xlink:href="#DejaVuSans-77"/>
     <use x="920.361328" xlink:href="#DejaVuSans-105"/>
     <use x="948.144531" xlink:href="#DejaVuSans-108"/>
     <use x="975.927734" xlink:href="#DejaVuSans-108"/>
     <use x="1003.710938" xlink:href="#DejaVuSans-105"/>
     <use x="1031.494141" xlink:href="#DejaVuSans-111"/>
     <use x="1092.675781" xlink:href="#DejaVuSans-110"/>
     <use x="1156.054688" xlink:href="#DejaVuSans-32"/>
     <use x="1187.841797" xlink:href="#DejaVuSans-40"/>
     <use x="1226.855469" xlink:href="#DejaVuSans-55"/>
     <use x="1290.478516" xlink:href="#DejaVuSans-32"/>
     <use x="1322.265625" xlink:href="#DejaVuSans-100"/>
     <use x="1385.742188" xlink:href="#DejaVuSans-97"/>
     <use x="1447.021484" xlink:href="#DejaVuSans-121"/>
     <use x="1506.201172" xlink:href="#DejaVuSans-32"/>
     <use x="1537.988281" xlink:href="#DejaVuSans-114"/>
     <use x="1576.851562" xlink:href="#DejaVuSans-111"/>
     <use x="1638.033203" xlink:href="#DejaVuSans-108"/>
     <use x="1665.816406" xlink:href="#DejaVuSans-108"/>
     <use x="1693.599609" xlink:href="#DejaVuSans-105"/>
     <use x="1721.382812" xlink:href="#DejaVuSans-110"/>
     <use x="1784.761719" xlink:href="#DejaVuSans-103"/>
     <use x="1848.238281" xlink:href="#DejaVuSans-41"/>
    </g>
   </g>
   <g id="legend_1">
    <g id="patch_7">
     <path d="M 387.032813 93.5125 
L 522.2 93.5125 
Q 524.2 93.5125 524.2 91.5125 
L 524.2 33.8 
Q 524.2 31.8 522.2 31.8 
L 387.032813 31.8 
Q 385.032813 31.8 385.032813 33.8 
L 385.032813 91.5125 
Q 385.032813 93.5125 387.032813 93.5125 
z
" style="fill:#ffffff;opacity:0.8;stroke:#cccccc;stroke-linejoin:miter;stroke-width:0.3;"/>
    </g>
    <g id="line2d_24">
     <path d="M 389.032813 39.898438 
L 409.032813 39.898438 
" style="fill:none;stroke:#1f77b4;stroke-linecap:square;stroke-width:1.75;"/>
    </g>
    <g id="line2d_25"/>
    <g id="text_22">
     <!-- ENGLAND -->
     <defs>
      <path d="M 9.8125 72.90625 
L 55.90625 72.90625 
L 55.90625 64.59375 
L 19.671875 64.59375 
L 19.671875 43.015625 
L 54.390625 43.015625 
L 54.390625 34.71875 
L 19.671875 34.71875 
L 19.671875 8.296875 
L 56.78125 8.296875 
L 56.78125 0 
L 9.8125 0 
z
" id="DejaVuSans-69"/>
      <path d="M 59.515625 10.40625 
L 59.515625 29.984375 
L 43.40625 29.984375 
L 43.40625 38.09375 
L 69.28125 38.09375 
L 69.28125 6.78125 
Q 63.578125 2.734375 56.6875 0.65625 
Q 49.8125 -1.421875 42 -1.421875 
Q 24.90625 -1.421875 15.25 8.5625 
Q 5.609375 18.5625 5.609375 36.375 
Q 5.609375 54.25 15.25 64.234375 
Q 24.90625 74.21875 42 74.21875 
Q 49.125 74.21875 55.546875 72.453125 
Q 61.96875 70.703125 67.390625 67.28125 
L 67.390625 56.78125 
Q 61.921875 61.421875 55.765625 63.765625 
Q 49.609375 66.109375 42.828125 66.109375 
Q 29.4375 66.109375 22.71875 58.640625 
Q 16.015625 51.171875 16.015625 36.375 
Q 16.015625 21.625 22.71875 14.15625 
Q 29.4375 6.6875 42.828125 6.6875 
Q 48.046875 6.6875 52.140625 7.59375 
Q 56.25 8.5 59.515625 10.40625 
z
" id="DejaVuSans-71"/>
      <path d="M 9.8125 72.90625 
L 19.671875 72.90625 
L 19.671875 8.296875 
L 55.171875 8.296875 
L 55.171875 0 
L 9.8125 0 
z
" id="DejaVuSans-76"/>
      <path d="M 34.1875 63.1875 
L 20.796875 26.90625 
L 47.609375 26.90625 
z
M 28.609375 72.90625 
L 39.796875 72.90625 
L 67.578125 0 
L 57.328125 0 
L 50.6875 18.703125 
L 17.828125 18.703125 
L 11.1875 0 
L 0.78125 0 
z
" id="DejaVuSans-65"/>
     </defs>
     <g transform="translate(417.032813 43.398438)scale(0.1 -0.1)">
      <use xlink:href="#DejaVuSans-69"/>
      <use x="63.183594" xlink:href="#DejaVuSans-78"/>
      <use x="137.988281" xlink:href="#DejaVuSans-71"/>
      <use x="215.478516" xlink:href="#DejaVuSans-76"/>
      <use x="273.441406" xlink:href="#DejaVuSans-65"/>
      <use x="341.849609" xlink:href="#DejaVuSans-78"/>
      <use x="416.654297" xlink:href="#DejaVuSans-68"/>
     </g>
    </g>
    <g id="line2d_26">
     <path d="M 389.032813 54.576563 
L 409.032813 54.576563 
" style="fill:none;stroke:#ff7f0e;stroke-linecap:square;stroke-width:1.75;"/>
    </g>
    <g id="line2d_27"/>
    <g id="text_23">
     <!-- SCOTLAND -->
     <defs>
      <path d="M 53.515625 70.515625 
L 53.515625 60.890625 
Q 47.90625 63.578125 42.921875 64.890625 
Q 37.9375 66.21875 33.296875 66.21875 
Q 25.25 66.21875 20.875 63.09375 
Q 16.5 59.96875 16.5 54.203125 
Q 16.5 49.359375 19.40625 46.890625 
Q 22.3125 44.4375 30.421875 42.921875 
L 36.375 41.703125 
Q 47.40625 39.59375 52.65625 34.296875 
Q 57.90625 29 57.90625 20.125 
Q 57.90625 9.515625 50.796875 4.046875 
Q 43.703125 -1.421875 29.984375 -1.421875 
Q 24.8125 -1.421875 18.96875 -0.25 
Q 13.140625 0.921875 6.890625 3.21875 
L 6.890625 13.375 
Q 12.890625 10.015625 18.65625 8.296875 
Q 24.421875 6.59375 29.984375 6.59375 
Q 38.421875 6.59375 43.015625 9.90625 
Q 47.609375 13.234375 47.609375 19.390625 
Q 47.609375 24.75 44.3125 27.78125 
Q 41.015625 30.8125 33.5 32.328125 
L 27.484375 33.5 
Q 16.453125 35.6875 11.515625 40.375 
Q 6.59375 45.0625 6.59375 53.421875 
Q 6.59375 63.09375 13.40625 68.65625 
Q 20.21875 74.21875 32.171875 74.21875 
Q 37.3125 74.21875 42.625 73.28125 
Q 47.953125 72.359375 53.515625 70.515625 
z
" id="DejaVuSans-83"/>
      <path d="M 64.40625 67.28125 
L 64.40625 56.890625 
Q 59.421875 61.53125 53.78125 63.8125 
Q 48.140625 66.109375 41.796875 66.109375 
Q 29.296875 66.109375 22.65625 58.46875 
Q 16.015625 50.828125 16.015625 36.375 
Q 16.015625 21.96875 22.65625 14.328125 
Q 29.296875 6.6875 41.796875 6.6875 
Q 48.140625 6.6875 53.78125 8.984375 
Q 59.421875 11.28125 64.40625 15.921875 
L 64.40625 5.609375 
Q 59.234375 2.09375 53.4375 0.328125 
Q 47.65625 -1.421875 41.21875 -1.421875 
Q 24.65625 -1.421875 15.125 8.703125 
Q 5.609375 18.84375 5.609375 36.375 
Q 5.609375 53.953125 15.125 64.078125 
Q 24.65625 74.21875 41.21875 74.21875 
Q 47.75 74.21875 53.53125 72.484375 
Q 59.328125 70.75 64.40625 67.28125 
z
" id="DejaVuSans-67"/>
      <path d="M 39.40625 66.21875 
Q 28.65625 66.21875 22.328125 58.203125 
Q 16.015625 50.203125 16.015625 36.375 
Q 16.015625 22.609375 22.328125 14.59375 
Q 28.65625 6.59375 39.40625 6.59375 
Q 50.140625 6.59375 56.421875 14.59375 
Q 62.703125 22.609375 62.703125 36.375 
Q 62.703125 50.203125 56.421875 58.203125 
Q 50.140625 66.21875 39.40625 66.21875 
z
M 39.40625 74.21875 
Q 54.734375 74.21875 63.90625 63.9375 
Q 73.09375 53.65625 73.09375 36.375 
Q 73.09375 19.140625 63.90625 8.859375 
Q 54.734375 -1.421875 39.40625 -1.421875 
Q 24.03125 -1.421875 14.8125 8.828125 
Q 5.609375 19.09375 5.609375 36.375 
Q 5.609375 53.65625 14.8125 63.9375 
Q 24.03125 74.21875 39.40625 74.21875 
z
" id="DejaVuSans-79"/>
      <path d="M -0.296875 72.90625 
L 61.375 72.90625 
L 61.375 64.59375 
L 35.5 64.59375 
L 35.5 0 
L 25.59375 0 
L 25.59375 64.59375 
L -0.296875 64.59375 
z
" id="DejaVuSans-84"/>
     </defs>
     <g transform="translate(417.032813 58.076563)scale(0.1 -0.1)">
      <use xlink:href="#DejaVuSans-83"/>
      <use x="63.476562" xlink:href="#DejaVuSans-67"/>
      <use x="133.300781" xlink:href="#DejaVuSans-79"/>
      <use x="212.011719" xlink:href="#DejaVuSans-84"/>
      <use x="273.095703" xlink:href="#DejaVuSans-76"/>
      <use x="331.058594" xlink:href="#DejaVuSans-65"/>
      <use x="399.466797" xlink:href="#DejaVuSans-78"/>
      <use x="474.271484" xlink:href="#DejaVuSans-68"/>
     </g>
    </g>
    <g id="line2d_28">
     <path d="M 389.032813 69.254688 
L 409.032813 69.254688 
" style="fill:none;stroke:#2ca02c;stroke-linecap:square;stroke-width:1.75;"/>
    </g>
    <g id="line2d_29"/>
    <g id="text_24">
     <!-- WALES -->
     <defs>
      <path d="M 3.328125 72.90625 
L 13.28125 72.90625 
L 28.609375 11.28125 
L 43.890625 72.90625 
L 54.984375 72.90625 
L 70.3125 11.28125 
L 85.59375 72.90625 
L 95.609375 72.90625 
L 77.296875 0 
L 64.890625 0 
L 49.515625 63.28125 
L 33.984375 0 
L 21.578125 0 
z
" id="DejaVuSans-87"/>
     </defs>
     <g transform="translate(417.032813 72.754688)scale(0.1 -0.1)">
      <use xlink:href="#DejaVuSans-87"/>
      <use x="93.376953" xlink:href="#DejaVuSans-65"/>
      <use x="161.785156" xlink:href="#DejaVuSans-76"/>
      <use x="217.498047" xlink:href="#DejaVuSans-69"/>
      <use x="280.681641" xlink:href="#DejaVuSans-83"/>
     </g>
    </g>
    <g id="line2d_30">
     <path d="M 389.032813 83.932813 
L 409.032813 83.932813 
" style="fill:none;stroke:#d62728;stroke-linecap:square;stroke-width:1.75;"/>
    </g>
    <g id="line2d_31"/>
    <g id="text_25">
     <!-- NORTHERN IRELAND -->
     <defs>
      <path d="M 44.390625 34.1875 
Q 47.5625 33.109375 50.5625 29.59375 
Q 53.5625 26.078125 56.59375 19.921875 
L 66.609375 0 
L 56 0 
L 46.6875 18.703125 
Q 43.0625 26.03125 39.671875 28.421875 
Q 36.28125 30.8125 30.421875 30.8125 
L 19.671875 30.8125 
L 19.671875 0 
L 9.8125 0 
L 9.8125 72.90625 
L 32.078125 72.90625 
Q 44.578125 72.90625 50.734375 67.671875 
Q 56.890625 62.453125 56.890625 51.90625 
Q 56.890625 45.015625 53.6875 40.46875 
Q 50.484375 35.9375 44.390625 34.1875 
z
M 19.671875 64.796875 
L 19.671875 38.921875 
L 32.078125 38.921875 
Q 39.203125 38.921875 42.84375 42.21875 
Q 46.484375 45.515625 46.484375 51.90625 
Q 46.484375 58.296875 42.84375 61.546875 
Q 39.203125 64.796875 32.078125 64.796875 
z
" id="DejaVuSans-82"/>
      <path d="M 9.8125 72.90625 
L 19.671875 72.90625 
L 19.671875 43.015625 
L 55.515625 43.015625 
L 55.515625 72.90625 
L 65.375 72.90625 
L 65.375 0 
L 55.515625 0 
L 55.515625 34.71875 
L 19.671875 34.71875 
L 19.671875 0 
L 9.8125 0 
z
" id="DejaVuSans-72"/>
      <path d="M 9.8125 72.90625 
L 19.671875 72.90625 
L 19.671875 0 
L 9.8125 0 
z
" id="DejaVuSans-73"/>
     </defs>
     <g transform="translate(417.032813 87.432813)scale(0.1 -0.1)">
      <use xlink:href="#DejaVuSans-78"/>
      <use x="74.804688" xlink:href="#DejaVuSans-79"/>
      <use x="153.515625" xlink:href="#DejaVuSans-82"/>
      <use x="215.748047" xlink:href="#DejaVuSans-84"/>
      <use x="276.832031" xlink:href="#DejaVuSans-72"/>
      <use x="352.027344" xlink:href="#DejaVuSans-69"/>
      <use x="415.210938" xlink:href="#DejaVuSans-82"/>
      <use x="484.693359" xlink:href="#DejaVuSans-78"/>
      <use x="559.498047" xlink:href="#DejaVuSans-32"/>
      <use x="591.285156" xlink:href="#DejaVuSans-73"/>
      <use x="620.777344" xlink:href="#DejaVuSans-82"/>
      <use x="690.259766" xlink:href="#DejaVuSans-69"/>
      <use x="753.443359" xlink:href="#DejaVuSans-76"/>
      <use x="811.40625" xlink:href="#DejaVuSans-65"/>
      <use x="879.814453" xlink:href="#DejaVuSans-78"/>
      <use x="954.619141" xlink:href="#DejaVuSans-68"/>
     </g>
    </g>
   </g>
  </g>
 </g>
 <defs>
  <clipPath id="p7fb8fc7049">
   <rect height="268.302246" width="485.662616" x="43.537384" y="26.8"/>
  </clipPath>
 </defs>
</svg>
