<?xml version="1.0" encoding="utf-8" standalone="no"?>
<!DOCTYPE svg PUBLIC "-//W3C//DTD SVG 1.1//EN"
  "http://www.w3.org/Graphics/SVG/1.1/DTD/svg11.dtd">
<!-- Created with matplotlib (https://matplotlib.org/) -->
<svg height="288pt" version="1.1" viewBox="0 0 432 288" width="432pt" xmlns="http://www.w3.org/2000/svg" xmlns:xlink="http://www.w3.org/1999/xlink">
 <metadata>
  <rdf:RDF xmlns:cc="http://creativecommons.org/ns#" xmlns:dc="http://purl.org/dc/elements/1.1/" xmlns:rdf="http://www.w3.org/1999/02/22-rdf-syntax-ns#">
   <cc:Work>
    <dc:type rdf:resource="http://purl.org/dc/dcmitype/StillImage"/>
    <dc:date>2021-01-05T14:22:24.902785</dc:date>
    <dc:format>image/svg+xml</dc:format>
    <dc:creator>
     <cc:Agent>
      <dc:title>Matplotlib v3.3.2, https://matplotlib.org/</dc:title>
     </cc:Agent>
    </dc:creator>
   </cc:Work>
  </rdf:RDF>
 </metadata>
 <defs>
  <style type="text/css">*{stroke-linecap:butt;stroke-linejoin:round;}</style>
 </defs>
 <g id="figure_1">
  <g id="patch_1">
   <path d="M 0 288 
L 432 288 
L 432 0 
L 0 0 
z
" style="fill:none;"/>
  </g>
  <g id="axes_1">
   <g id="patch_2">
    <path d="M 44.55 226.602246 
L 421.2 226.602246 
L 421.2 26.8 
L 44.55 26.8 
z
" style="fill:#ffffff;"/>
   </g>
   <g id="matplotlib.axis_1">
    <g id="xtick_1">
     <g id="line2d_1">
      <defs>
       <path d="M 0 0 
L 0 3.5 
" id="mbf6dc150b7" style="stroke:#000000;stroke-width:0.8;"/>
      </defs>
      <g>
       <use style="stroke:#000000;stroke-width:0.8;" x="59.804465" xlink:href="#mbf6dc150b7" y="226.602246"/>
      </g>
     </g>
     <g id="text_1">
      <!-- 2020-01 -->
      <g transform="translate(22.579644 261.074092)rotate(-30)scale(0.1 -0.1)">
       <defs>
        <path d="M 19.1875 8.296875 
L 53.609375 8.296875 
L 53.609375 0 
L 7.328125 0 
L 7.328125 8.296875 
Q 12.9375 14.109375 22.625 23.890625 
Q 32.328125 33.6875 34.8125 36.53125 
Q 39.546875 41.84375 41.421875 45.53125 
Q 43.3125 49.21875 43.3125 52.78125 
Q 43.3125 58.59375 39.234375 62.25 
Q 35.15625 65.921875 28.609375 65.921875 
Q 23.96875 65.921875 18.8125 64.3125 
Q 13.671875 62.703125 7.8125 59.421875 
L 7.8125 69.390625 
Q 13.765625 71.78125 18.9375 73 
Q 24.125 74.21875 28.421875 74.21875 
Q 39.75 74.21875 46.484375 68.546875 
Q 53.21875 62.890625 53.21875 53.421875 
Q 53.21875 48.921875 51.53125 44.890625 
Q 49.859375 40.875 45.40625 35.40625 
Q 44.1875 33.984375 37.640625 27.21875 
Q 31.109375 20.453125 19.1875 8.296875 
z
" id="DejaVuSans-50"/>
        <path d="M 31.78125 66.40625 
Q 24.171875 66.40625 20.328125 58.90625 
Q 16.5 51.421875 16.5 36.375 
Q 16.5 21.390625 20.328125 13.890625 
Q 24.171875 6.390625 31.78125 6.390625 
Q 39.453125 6.390625 43.28125 13.890625 
Q 47.125 21.390625 47.125 36.375 
Q 47.125 51.421875 43.28125 58.90625 
Q 39.453125 66.40625 31.78125 66.40625 
z
M 31.78125 74.21875 
Q 44.046875 74.21875 50.515625 64.515625 
Q 56.984375 54.828125 56.984375 36.375 
Q 56.984375 17.96875 50.515625 8.265625 
Q 44.046875 -1.421875 31.78125 -1.421875 
Q 19.53125 -1.421875 13.0625 8.265625 
Q 6.59375 17.96875 6.59375 36.375 
Q 6.59375 54.828125 13.0625 64.515625 
Q 19.53125 74.21875 31.78125 74.21875 
z
" id="DejaVuSans-48"/>
        <path d="M 4.890625 31.390625 
L 31.203125 31.390625 
L 31.203125 23.390625 
L 4.890625 23.390625 
z
" id="DejaVuSans-45"/>
        <path d="M 12.40625 8.296875 
L 28.515625 8.296875 
L 28.515625 63.921875 
L 10.984375 60.40625 
L 10.984375 69.390625 
L 28.421875 72.90625 
L 38.28125 72.90625 
L 38.28125 8.296875 
L 54.390625 8.296875 
L 54.390625 0 
L 12.40625 0 
z
" id="DejaVuSans-49"/>
       </defs>
       <use xlink:href="#DejaVuSans-50"/>
       <use x="63.623047" xlink:href="#DejaVuSans-48"/>
       <use x="127.246094" xlink:href="#DejaVuSans-50"/>
       <use x="190.869141" xlink:href="#DejaVuSans-48"/>
       <use x="254.492188" xlink:href="#DejaVuSans-45"/>
       <use x="290.576172" xlink:href="#DejaVuSans-48"/>
       <use x="354.199219" xlink:href="#DejaVuSans-49"/>
      </g>
     </g>
    </g>
    <g id="xtick_2">
     <g id="line2d_2">
      <g>
       <use style="stroke:#000000;stroke-width:0.8;" x="115.784153" xlink:href="#mbf6dc150b7" y="226.602246"/>
      </g>
     </g>
     <g id="text_2">
      <!-- 2020-03 -->
      <g transform="translate(78.559332 261.074092)rotate(-30)scale(0.1 -0.1)">
       <defs>
        <path d="M 40.578125 39.3125 
Q 47.65625 37.796875 51.625 33 
Q 55.609375 28.21875 55.609375 21.1875 
Q 55.609375 10.40625 48.1875 4.484375 
Q 40.765625 -1.421875 27.09375 -1.421875 
Q 22.515625 -1.421875 17.65625 -0.515625 
Q 12.796875 0.390625 7.625 2.203125 
L 7.625 11.71875 
Q 11.71875 9.328125 16.59375 8.109375 
Q 21.484375 6.890625 26.8125 6.890625 
Q 36.078125 6.890625 40.9375 10.546875 
Q 45.796875 14.203125 45.796875 21.1875 
Q 45.796875 27.640625 41.28125 31.265625 
Q 36.765625 34.90625 28.71875 34.90625 
L 20.21875 34.90625 
L 20.21875 43.015625 
L 29.109375 43.015625 
Q 36.375 43.015625 40.234375 45.921875 
Q 44.09375 48.828125 44.09375 54.296875 
Q 44.09375 59.90625 40.109375 62.90625 
Q 36.140625 65.921875 28.71875 65.921875 
Q 24.65625 65.921875 20.015625 65.03125 
Q 15.375 64.15625 9.8125 62.3125 
L 9.8125 71.09375 
Q 15.4375 72.65625 20.34375 73.4375 
Q 25.25 74.21875 29.59375 74.21875 
Q 40.828125 74.21875 47.359375 69.109375 
Q 53.90625 64.015625 53.90625 55.328125 
Q 53.90625 49.265625 50.4375 45.09375 
Q 46.96875 40.921875 40.578125 39.3125 
z
" id="DejaVuSans-51"/>
       </defs>
       <use xlink:href="#DejaVuSans-50"/>
       <use x="63.623047" xlink:href="#DejaVuSans-48"/>
       <use x="127.246094" xlink:href="#DejaVuSans-50"/>
       <use x="190.869141" xlink:href="#DejaVuSans-48"/>
       <use x="254.492188" xlink:href="#DejaVuSans-45"/>
       <use x="290.576172" xlink:href="#DejaVuSans-48"/>
       <use x="354.199219" xlink:href="#DejaVuSans-51"/>
      </g>
     </g>
    </g>
    <g id="xtick_3">
     <g id="line2d_3">
      <g>
       <use style="stroke:#000000;stroke-width:0.8;" x="172.696836" xlink:href="#mbf6dc150b7" y="226.602246"/>
      </g>
     </g>
     <g id="text_3">
      <!-- 2020-05 -->
      <g transform="translate(135.472015 261.074092)rotate(-30)scale(0.1 -0.1)">
       <defs>
        <path d="M 10.796875 72.90625 
L 49.515625 72.90625 
L 49.515625 64.59375 
L 19.828125 64.59375 
L 19.828125 46.734375 
Q 21.96875 47.46875 24.109375 47.828125 
Q 26.265625 48.1875 28.421875 48.1875 
Q 40.625 48.1875 47.75 41.5 
Q 54.890625 34.8125 54.890625 23.390625 
Q 54.890625 11.625 47.5625 5.09375 
Q 40.234375 -1.421875 26.90625 -1.421875 
Q 22.3125 -1.421875 17.546875 -0.640625 
Q 12.796875 0.140625 7.71875 1.703125 
L 7.71875 11.625 
Q 12.109375 9.234375 16.796875 8.0625 
Q 21.484375 6.890625 26.703125 6.890625 
Q 35.15625 6.890625 40.078125 11.328125 
Q 45.015625 15.765625 45.015625 23.390625 
Q 45.015625 31 40.078125 35.4375 
Q 35.15625 39.890625 26.703125 39.890625 
Q 22.75 39.890625 18.8125 39.015625 
Q 14.890625 38.140625 10.796875 36.28125 
z
" id="DejaVuSans-53"/>
       </defs>
       <use xlink:href="#DejaVuSans-50"/>
       <use x="63.623047" xlink:href="#DejaVuSans-48"/>
       <use x="127.246094" xlink:href="#DejaVuSans-50"/>
       <use x="190.869141" xlink:href="#DejaVuSans-48"/>
       <use x="254.492188" xlink:href="#DejaVuSans-45"/>
       <use x="290.576172" xlink:href="#DejaVuSans-48"/>
       <use x="354.199219" xlink:href="#DejaVuSans-53"/>
      </g>
     </g>
    </g>
    <g id="xtick_4">
     <g id="line2d_4">
      <g>
       <use style="stroke:#000000;stroke-width:0.8;" x="229.609518" xlink:href="#mbf6dc150b7" y="226.602246"/>
      </g>
     </g>
     <g id="text_4">
      <!-- 2020-07 -->
      <g transform="translate(192.384697 261.074092)rotate(-30)scale(0.1 -0.1)">
       <defs>
        <path d="M 8.203125 72.90625 
L 55.078125 72.90625 
L 55.078125 68.703125 
L 28.609375 0 
L 18.3125 0 
L 43.21875 64.59375 
L 8.203125 64.59375 
z
" id="DejaVuSans-55"/>
       </defs>
       <use xlink:href="#DejaVuSans-50"/>
       <use x="63.623047" xlink:href="#DejaVuSans-48"/>
       <use x="127.246094" xlink:href="#DejaVuSans-50"/>
       <use x="190.869141" xlink:href="#DejaVuSans-48"/>
       <use x="254.492188" xlink:href="#DejaVuSans-45"/>
       <use x="290.576172" xlink:href="#DejaVuSans-48"/>
       <use x="354.199219" xlink:href="#DejaVuSans-55"/>
      </g>
     </g>
    </g>
    <g id="xtick_5">
     <g id="line2d_5">
      <g>
       <use style="stroke:#000000;stroke-width:0.8;" x="287.455196" xlink:href="#mbf6dc150b7" y="226.602246"/>
      </g>
     </g>
     <g id="text_5">
      <!-- 2020-09 -->
      <g transform="translate(250.230375 261.074092)rotate(-30)scale(0.1 -0.1)">
       <defs>
        <path d="M 10.984375 1.515625 
L 10.984375 10.5 
Q 14.703125 8.734375 18.5 7.8125 
Q 22.3125 6.890625 25.984375 6.890625 
Q 35.75 6.890625 40.890625 13.453125 
Q 46.046875 20.015625 46.78125 33.40625 
Q 43.953125 29.203125 39.59375 26.953125 
Q 35.25 24.703125 29.984375 24.703125 
Q 19.046875 24.703125 12.671875 31.3125 
Q 6.296875 37.9375 6.296875 49.421875 
Q 6.296875 60.640625 12.9375 67.421875 
Q 19.578125 74.21875 30.609375 74.21875 
Q 43.265625 74.21875 49.921875 64.515625 
Q 56.59375 54.828125 56.59375 36.375 
Q 56.59375 19.140625 48.40625 8.859375 
Q 40.234375 -1.421875 26.421875 -1.421875 
Q 22.703125 -1.421875 18.890625 -0.6875 
Q 15.09375 0.046875 10.984375 1.515625 
z
M 30.609375 32.421875 
Q 37.25 32.421875 41.125 36.953125 
Q 45.015625 41.5 45.015625 49.421875 
Q 45.015625 57.28125 41.125 61.84375 
Q 37.25 66.40625 30.609375 66.40625 
Q 23.96875 66.40625 20.09375 61.84375 
Q 16.21875 57.28125 16.21875 49.421875 
Q 16.21875 41.5 20.09375 36.953125 
Q 23.96875 32.421875 30.609375 32.421875 
z
" id="DejaVuSans-57"/>
       </defs>
       <use xlink:href="#DejaVuSans-50"/>
       <use x="63.623047" xlink:href="#DejaVuSans-48"/>
       <use x="127.246094" xlink:href="#DejaVuSans-50"/>
       <use x="190.869141" xlink:href="#DejaVuSans-48"/>
       <use x="254.492188" xlink:href="#DejaVuSans-45"/>
       <use x="290.576172" xlink:href="#DejaVuSans-48"/>
       <use x="354.199219" xlink:href="#DejaVuSans-57"/>
      </g>
     </g>
    </g>
    <g id="xtick_6">
     <g id="line2d_6">
      <g>
       <use style="stroke:#000000;stroke-width:0.8;" x="344.367878" xlink:href="#mbf6dc150b7" y="226.602246"/>
      </g>
     </g>
     <g id="text_6">
      <!-- 2020-11 -->
      <g transform="translate(307.143058 261.074092)rotate(-30)scale(0.1 -0.1)">
       <use xlink:href="#DejaVuSans-50"/>
       <use x="63.623047" xlink:href="#DejaVuSans-48"/>
       <use x="127.246094" xlink:href="#DejaVuSans-50"/>
       <use x="190.869141" xlink:href="#DejaVuSans-48"/>
       <use x="254.492188" xlink:href="#DejaVuSans-45"/>
       <use x="290.576172" xlink:href="#DejaVuSans-49"/>
       <use x="354.199219" xlink:href="#DejaVuSans-49"/>
      </g>
     </g>
    </g>
    <g id="xtick_7">
     <g id="line2d_7">
      <g>
       <use style="stroke:#000000;stroke-width:0.8;" x="401.280561" xlink:href="#mbf6dc150b7" y="226.602246"/>
      </g>
     </g>
     <g id="text_7">
      <!-- 2021-01 -->
      <g transform="translate(364.05574 261.074092)rotate(-30)scale(0.1 -0.1)">
       <use xlink:href="#DejaVuSans-50"/>
       <use x="63.623047" xlink:href="#DejaVuSans-48"/>
       <use x="127.246094" xlink:href="#DejaVuSans-50"/>
       <use x="190.869141" xlink:href="#DejaVuSans-49"/>
       <use x="254.492188" xlink:href="#DejaVuSans-45"/>
       <use x="290.576172" xlink:href="#DejaVuSans-48"/>
       <use x="354.199219" xlink:href="#DejaVuSans-49"/>
      </g>
     </g>
    </g>
    <g id="text_8">
     <!-- Date -->
     <g transform="translate(220.924219 274.473592)scale(0.1 -0.1)">
      <defs>
       <path d="M 19.671875 64.796875 
L 19.671875 8.109375 
L 31.59375 8.109375 
Q 46.6875 8.109375 53.6875 14.9375 
Q 60.6875 21.78125 60.6875 36.53125 
Q 60.6875 51.171875 53.6875 57.984375 
Q 46.6875 64.796875 31.59375 64.796875 
z
M 9.8125 72.90625 
L 30.078125 72.90625 
Q 51.265625 72.90625 61.171875 64.09375 
Q 71.09375 55.28125 71.09375 36.53125 
Q 71.09375 17.671875 61.125 8.828125 
Q 51.171875 0 30.078125 0 
L 9.8125 0 
z
" id="DejaVuSans-68"/>
       <path d="M 34.28125 27.484375 
Q 23.390625 27.484375 19.1875 25 
Q 14.984375 22.515625 14.984375 16.5 
Q 14.984375 11.71875 18.140625 8.90625 
Q 21.296875 6.109375 26.703125 6.109375 
Q 34.1875 6.109375 38.703125 11.40625 
Q 43.21875 16.703125 43.21875 25.484375 
L 43.21875 27.484375 
z
M 52.203125 31.203125 
L 52.203125 0 
L 43.21875 0 
L 43.21875 8.296875 
Q 40.140625 3.328125 35.546875 0.953125 
Q 30.953125 -1.421875 24.3125 -1.421875 
Q 15.921875 -1.421875 10.953125 3.296875 
Q 6 8.015625 6 15.921875 
Q 6 25.140625 12.171875 29.828125 
Q 18.359375 34.515625 30.609375 34.515625 
L 43.21875 34.515625 
L 43.21875 35.40625 
Q 43.21875 41.609375 39.140625 45 
Q 35.0625 48.390625 27.6875 48.390625 
Q 23 48.390625 18.546875 47.265625 
Q 14.109375 46.140625 10.015625 43.890625 
L 10.015625 52.203125 
Q 14.9375 54.109375 19.578125 55.046875 
Q 24.21875 56 28.609375 56 
Q 40.484375 56 46.34375 49.84375 
Q 52.203125 43.703125 52.203125 31.203125 
z
" id="DejaVuSans-97"/>
       <path d="M 18.3125 70.21875 
L 18.3125 54.6875 
L 36.8125 54.6875 
L 36.8125 47.703125 
L 18.3125 47.703125 
L 18.3125 18.015625 
Q 18.3125 11.328125 20.140625 9.421875 
Q 21.96875 7.515625 27.59375 7.515625 
L 36.8125 7.515625 
L 36.8125 0 
L 27.59375 0 
Q 17.1875 0 13.234375 3.875 
Q 9.28125 7.765625 9.28125 18.015625 
L 9.28125 47.703125 
L 2.6875 47.703125 
L 2.6875 54.6875 
L 9.28125 54.6875 
L 9.28125 70.21875 
z
" id="DejaVuSans-116"/>
       <path d="M 56.203125 29.59375 
L 56.203125 25.203125 
L 14.890625 25.203125 
Q 15.484375 15.921875 20.484375 11.0625 
Q 25.484375 6.203125 34.421875 6.203125 
Q 39.59375 6.203125 44.453125 7.46875 
Q 49.3125 8.734375 54.109375 11.28125 
L 54.109375 2.78125 
Q 49.265625 0.734375 44.1875 -0.34375 
Q 39.109375 -1.421875 33.890625 -1.421875 
Q 20.796875 -1.421875 13.15625 6.1875 
Q 5.515625 13.8125 5.515625 26.8125 
Q 5.515625 40.234375 12.765625 48.109375 
Q 20.015625 56 32.328125 56 
Q 43.359375 56 49.78125 48.890625 
Q 56.203125 41.796875 56.203125 29.59375 
z
M 47.21875 32.234375 
Q 47.125 39.59375 43.09375 43.984375 
Q 39.0625 48.390625 32.421875 48.390625 
Q 24.90625 48.390625 20.390625 44.140625 
Q 15.875 39.890625 15.1875 32.171875 
z
" id="DejaVuSans-101"/>
      </defs>
      <use xlink:href="#DejaVuSans-68"/>
      <use x="77.001953" xlink:href="#DejaVuSans-97"/>
      <use x="138.28125" xlink:href="#DejaVuSans-116"/>
      <use x="177.490234" xlink:href="#DejaVuSans-101"/>
     </g>
    </g>
   </g>
   <g id="matplotlib.axis_2">
    <g id="ytick_1">
     <g id="line2d_8">
      <defs>
       <path d="M 0 0 
L -3.5 0 
" id="m25b3998f83" style="stroke:#000000;stroke-width:0.8;"/>
      </defs>
      <g>
       <use style="stroke:#000000;stroke-width:0.8;" x="44.55" xlink:href="#m25b3998f83" y="217.520326"/>
      </g>
     </g>
     <g id="text_9">
      <!-- 0 -->
      <g transform="translate(31.1875 221.319544)scale(0.1 -0.1)">
       <use xlink:href="#DejaVuSans-48"/>
      </g>
     </g>
    </g>
    <g id="ytick_2">
     <g id="line2d_9">
      <g>
       <use style="stroke:#000000;stroke-width:0.8;" x="44.55" xlink:href="#m25b3998f83" y="193.660643"/>
      </g>
     </g>
     <g id="text_10">
      <!-- 2 -->
      <g transform="translate(31.1875 197.459862)scale(0.1 -0.1)">
       <use xlink:href="#DejaVuSans-50"/>
      </g>
     </g>
    </g>
    <g id="ytick_3">
     <g id="line2d_10">
      <g>
       <use style="stroke:#000000;stroke-width:0.8;" x="44.55" xlink:href="#m25b3998f83" y="169.800961"/>
      </g>
     </g>
     <g id="text_11">
      <!-- 4 -->
      <g transform="translate(31.1875 173.60018)scale(0.1 -0.1)">
       <defs>
        <path d="M 37.796875 64.3125 
L 12.890625 25.390625 
L 37.796875 25.390625 
z
M 35.203125 72.90625 
L 47.609375 72.90625 
L 47.609375 25.390625 
L 58.015625 25.390625 
L 58.015625 17.1875 
L 47.609375 17.1875 
L 47.609375 0 
L 37.796875 0 
L 37.796875 17.1875 
L 4.890625 17.1875 
L 4.890625 26.703125 
z
" id="DejaVuSans-52"/>
       </defs>
       <use xlink:href="#DejaVuSans-52"/>
      </g>
     </g>
    </g>
    <g id="ytick_4">
     <g id="line2d_11">
      <g>
       <use style="stroke:#000000;stroke-width:0.8;" x="44.55" xlink:href="#m25b3998f83" y="145.941279"/>
      </g>
     </g>
     <g id="text_12">
      <!-- 6 -->
      <g transform="translate(31.1875 149.740498)scale(0.1 -0.1)">
       <defs>
        <path d="M 33.015625 40.375 
Q 26.375 40.375 22.484375 35.828125 
Q 18.609375 31.296875 18.609375 23.390625 
Q 18.609375 15.53125 22.484375 10.953125 
Q 26.375 6.390625 33.015625 6.390625 
Q 39.65625 6.390625 43.53125 10.953125 
Q 47.40625 15.53125 47.40625 23.390625 
Q 47.40625 31.296875 43.53125 35.828125 
Q 39.65625 40.375 33.015625 40.375 
z
M 52.59375 71.296875 
L 52.59375 62.3125 
Q 48.875 64.0625 45.09375 64.984375 
Q 41.3125 65.921875 37.59375 65.921875 
Q 27.828125 65.921875 22.671875 59.328125 
Q 17.53125 52.734375 16.796875 39.40625 
Q 19.671875 43.65625 24.015625 45.921875 
Q 28.375 48.1875 33.59375 48.1875 
Q 44.578125 48.1875 50.953125 41.515625 
Q 57.328125 34.859375 57.328125 23.390625 
Q 57.328125 12.15625 50.6875 5.359375 
Q 44.046875 -1.421875 33.015625 -1.421875 
Q 20.359375 -1.421875 13.671875 8.265625 
Q 6.984375 17.96875 6.984375 36.375 
Q 6.984375 53.65625 15.1875 63.9375 
Q 23.390625 74.21875 37.203125 74.21875 
Q 40.921875 74.21875 44.703125 73.484375 
Q 48.484375 72.75 52.59375 71.296875 
z
" id="DejaVuSans-54"/>
       </defs>
       <use xlink:href="#DejaVuSans-54"/>
      </g>
     </g>
    </g>
    <g id="ytick_5">
     <g id="line2d_12">
      <g>
       <use style="stroke:#000000;stroke-width:0.8;" x="44.55" xlink:href="#m25b3998f83" y="122.081597"/>
      </g>
     </g>
     <g id="text_13">
      <!-- 8 -->
      <g transform="translate(31.1875 125.880815)scale(0.1 -0.1)">
       <defs>
        <path d="M 31.78125 34.625 
Q 24.75 34.625 20.71875 30.859375 
Q 16.703125 27.09375 16.703125 20.515625 
Q 16.703125 13.921875 20.71875 10.15625 
Q 24.75 6.390625 31.78125 6.390625 
Q 38.8125 6.390625 42.859375 10.171875 
Q 46.921875 13.96875 46.921875 20.515625 
Q 46.921875 27.09375 42.890625 30.859375 
Q 38.875 34.625 31.78125 34.625 
z
M 21.921875 38.8125 
Q 15.578125 40.375 12.03125 44.71875 
Q 8.5 49.078125 8.5 55.328125 
Q 8.5 64.0625 14.71875 69.140625 
Q 20.953125 74.21875 31.78125 74.21875 
Q 42.671875 74.21875 48.875 69.140625 
Q 55.078125 64.0625 55.078125 55.328125 
Q 55.078125 49.078125 51.53125 44.71875 
Q 48 40.375 41.703125 38.8125 
Q 48.828125 37.15625 52.796875 32.3125 
Q 56.78125 27.484375 56.78125 20.515625 
Q 56.78125 9.90625 50.3125 4.234375 
Q 43.84375 -1.421875 31.78125 -1.421875 
Q 19.734375 -1.421875 13.25 4.234375 
Q 6.78125 9.90625 6.78125 20.515625 
Q 6.78125 27.484375 10.78125 32.3125 
Q 14.796875 37.15625 21.921875 38.8125 
z
M 18.3125 54.390625 
Q 18.3125 48.734375 21.84375 45.5625 
Q 25.390625 42.390625 31.78125 42.390625 
Q 38.140625 42.390625 41.71875 45.5625 
Q 45.3125 48.734375 45.3125 54.390625 
Q 45.3125 60.0625 41.71875 63.234375 
Q 38.140625 66.40625 31.78125 66.40625 
Q 25.390625 66.40625 21.84375 63.234375 
Q 18.3125 60.0625 18.3125 54.390625 
z
" id="DejaVuSans-56"/>
       </defs>
       <use xlink:href="#DejaVuSans-56"/>
      </g>
     </g>
    </g>
    <g id="ytick_6">
     <g id="line2d_13">
      <g>
       <use style="stroke:#000000;stroke-width:0.8;" x="44.55" xlink:href="#m25b3998f83" y="98.221914"/>
      </g>
     </g>
     <g id="text_14">
      <!-- 10 -->
      <g transform="translate(24.825 102.021133)scale(0.1 -0.1)">
       <use xlink:href="#DejaVuSans-49"/>
       <use x="63.623047" xlink:href="#DejaVuSans-48"/>
      </g>
     </g>
    </g>
    <g id="ytick_7">
     <g id="line2d_14">
      <g>
       <use style="stroke:#000000;stroke-width:0.8;" x="44.55" xlink:href="#m25b3998f83" y="74.362232"/>
      </g>
     </g>
     <g id="text_15">
      <!-- 12 -->
      <g transform="translate(24.825 78.161451)scale(0.1 -0.1)">
       <use xlink:href="#DejaVuSans-49"/>
       <use x="63.623047" xlink:href="#DejaVuSans-50"/>
      </g>
     </g>
    </g>
    <g id="ytick_8">
     <g id="line2d_15">
      <g>
       <use style="stroke:#000000;stroke-width:0.8;" x="44.55" xlink:href="#m25b3998f83" y="50.50255"/>
      </g>
     </g>
     <g id="text_16">
      <!-- 14 -->
      <g transform="translate(24.825 54.301769)scale(0.1 -0.1)">
       <use xlink:href="#DejaVuSans-49"/>
       <use x="63.623047" xlink:href="#DejaVuSans-52"/>
      </g>
     </g>
    </g>
    <g id="text_17">
     <!-- New deaths per million population -->
     <g transform="translate(18.745313 212.580029)rotate(-90)scale(0.1 -0.1)">
      <defs>
       <path d="M 9.8125 72.90625 
L 23.09375 72.90625 
L 55.421875 11.921875 
L 55.421875 72.90625 
L 64.984375 72.90625 
L 64.984375 0 
L 51.703125 0 
L 19.390625 60.984375 
L 19.390625 0 
L 9.8125 0 
z
" id="DejaVuSans-78"/>
       <path d="M 4.203125 54.6875 
L 13.1875 54.6875 
L 24.421875 12.015625 
L 35.59375 54.6875 
L 46.1875 54.6875 
L 57.421875 12.015625 
L 68.609375 54.6875 
L 77.59375 54.6875 
L 63.28125 0 
L 52.6875 0 
L 40.921875 44.828125 
L 29.109375 0 
L 18.5 0 
z
" id="DejaVuSans-119"/>
       <path id="DejaVuSans-32"/>
       <path d="M 45.40625 46.390625 
L 45.40625 75.984375 
L 54.390625 75.984375 
L 54.390625 0 
L 45.40625 0 
L 45.40625 8.203125 
Q 42.578125 3.328125 38.25 0.953125 
Q 33.9375 -1.421875 27.875 -1.421875 
Q 17.96875 -1.421875 11.734375 6.484375 
Q 5.515625 14.40625 5.515625 27.296875 
Q 5.515625 40.1875 11.734375 48.09375 
Q 17.96875 56 27.875 56 
Q 33.9375 56 38.25 53.625 
Q 42.578125 51.265625 45.40625 46.390625 
z
M 14.796875 27.296875 
Q 14.796875 17.390625 18.875 11.75 
Q 22.953125 6.109375 30.078125 6.109375 
Q 37.203125 6.109375 41.296875 11.75 
Q 45.40625 17.390625 45.40625 27.296875 
Q 45.40625 37.203125 41.296875 42.84375 
Q 37.203125 48.484375 30.078125 48.484375 
Q 22.953125 48.484375 18.875 42.84375 
Q 14.796875 37.203125 14.796875 27.296875 
z
" id="DejaVuSans-100"/>
       <path d="M 54.890625 33.015625 
L 54.890625 0 
L 45.90625 0 
L 45.90625 32.71875 
Q 45.90625 40.484375 42.875 44.328125 
Q 39.84375 48.1875 33.796875 48.1875 
Q 26.515625 48.1875 22.3125 43.546875 
Q 18.109375 38.921875 18.109375 30.90625 
L 18.109375 0 
L 9.078125 0 
L 9.078125 75.984375 
L 18.109375 75.984375 
L 18.109375 46.1875 
Q 21.34375 51.125 25.703125 53.5625 
Q 30.078125 56 35.796875 56 
Q 45.21875 56 50.046875 50.171875 
Q 54.890625 44.34375 54.890625 33.015625 
z
" id="DejaVuSans-104"/>
       <path d="M 44.28125 53.078125 
L 44.28125 44.578125 
Q 40.484375 46.53125 36.375 47.5 
Q 32.28125 48.484375 27.875 48.484375 
Q 21.1875 48.484375 17.84375 46.4375 
Q 14.5 44.390625 14.5 40.28125 
Q 14.5 37.15625 16.890625 35.375 
Q 19.28125 33.59375 26.515625 31.984375 
L 29.59375 31.296875 
Q 39.15625 29.25 43.1875 25.515625 
Q 47.21875 21.78125 47.21875 15.09375 
Q 47.21875 7.46875 41.1875 3.015625 
Q 35.15625 -1.421875 24.609375 -1.421875 
Q 20.21875 -1.421875 15.453125 -0.5625 
Q 10.6875 0.296875 5.421875 2 
L 5.421875 11.28125 
Q 10.40625 8.6875 15.234375 7.390625 
Q 20.0625 6.109375 24.8125 6.109375 
Q 31.15625 6.109375 34.5625 8.28125 
Q 37.984375 10.453125 37.984375 14.40625 
Q 37.984375 18.0625 35.515625 20.015625 
Q 33.0625 21.96875 24.703125 23.78125 
L 21.578125 24.515625 
Q 13.234375 26.265625 9.515625 29.90625 
Q 5.8125 33.546875 5.8125 39.890625 
Q 5.8125 47.609375 11.28125 51.796875 
Q 16.75 56 26.8125 56 
Q 31.78125 56 36.171875 55.265625 
Q 40.578125 54.546875 44.28125 53.078125 
z
" id="DejaVuSans-115"/>
       <path d="M 18.109375 8.203125 
L 18.109375 -20.796875 
L 9.078125 -20.796875 
L 9.078125 54.6875 
L 18.109375 54.6875 
L 18.109375 46.390625 
Q 20.953125 51.265625 25.265625 53.625 
Q 29.59375 56 35.59375 56 
Q 45.5625 56 51.78125 48.09375 
Q 58.015625 40.1875 58.015625 27.296875 
Q 58.015625 14.40625 51.78125 6.484375 
Q 45.5625 -1.421875 35.59375 -1.421875 
Q 29.59375 -1.421875 25.265625 0.953125 
Q 20.953125 3.328125 18.109375 8.203125 
z
M 48.6875 27.296875 
Q 48.6875 37.203125 44.609375 42.84375 
Q 40.53125 48.484375 33.40625 48.484375 
Q 26.265625 48.484375 22.1875 42.84375 
Q 18.109375 37.203125 18.109375 27.296875 
Q 18.109375 17.390625 22.1875 11.75 
Q 26.265625 6.109375 33.40625 6.109375 
Q 40.53125 6.109375 44.609375 11.75 
Q 48.6875 17.390625 48.6875 27.296875 
z
" id="DejaVuSans-112"/>
       <path d="M 41.109375 46.296875 
Q 39.59375 47.171875 37.8125 47.578125 
Q 36.03125 48 33.890625 48 
Q 26.265625 48 22.1875 43.046875 
Q 18.109375 38.09375 18.109375 28.8125 
L 18.109375 0 
L 9.078125 0 
L 9.078125 54.6875 
L 18.109375 54.6875 
L 18.109375 46.1875 
Q 20.953125 51.171875 25.484375 53.578125 
Q 30.03125 56 36.53125 56 
Q 37.453125 56 38.578125 55.875 
Q 39.703125 55.765625 41.0625 55.515625 
z
" id="DejaVuSans-114"/>
       <path d="M 52 44.1875 
Q 55.375 50.25 60.0625 53.125 
Q 64.75 56 71.09375 56 
Q 79.640625 56 84.28125 50.015625 
Q 88.921875 44.046875 88.921875 33.015625 
L 88.921875 0 
L 79.890625 0 
L 79.890625 32.71875 
Q 79.890625 40.578125 77.09375 44.375 
Q 74.3125 48.1875 68.609375 48.1875 
Q 61.625 48.1875 57.5625 43.546875 
Q 53.515625 38.921875 53.515625 30.90625 
L 53.515625 0 
L 44.484375 0 
L 44.484375 32.71875 
Q 44.484375 40.625 41.703125 44.40625 
Q 38.921875 48.1875 33.109375 48.1875 
Q 26.21875 48.1875 22.15625 43.53125 
Q 18.109375 38.875 18.109375 30.90625 
L 18.109375 0 
L 9.078125 0 
L 9.078125 54.6875 
L 18.109375 54.6875 
L 18.109375 46.1875 
Q 21.1875 51.21875 25.484375 53.609375 
Q 29.78125 56 35.6875 56 
Q 41.65625 56 45.828125 52.96875 
Q 50 49.953125 52 44.1875 
z
" id="DejaVuSans-109"/>
       <path d="M 9.421875 54.6875 
L 18.40625 54.6875 
L 18.40625 0 
L 9.421875 0 
z
M 9.421875 75.984375 
L 18.40625 75.984375 
L 18.40625 64.59375 
L 9.421875 64.59375 
z
" id="DejaVuSans-105"/>
       <path d="M 9.421875 75.984375 
L 18.40625 75.984375 
L 18.40625 0 
L 9.421875 0 
z
" id="DejaVuSans-108"/>
       <path d="M 30.609375 48.390625 
Q 23.390625 48.390625 19.1875 42.75 
Q 14.984375 37.109375 14.984375 27.296875 
Q 14.984375 17.484375 19.15625 11.84375 
Q 23.34375 6.203125 30.609375 6.203125 
Q 37.796875 6.203125 41.984375 11.859375 
Q 46.1875 17.53125 46.1875 27.296875 
Q 46.1875 37.015625 41.984375 42.703125 
Q 37.796875 48.390625 30.609375 48.390625 
z
M 30.609375 56 
Q 42.328125 56 49.015625 48.375 
Q 55.71875 40.765625 55.71875 27.296875 
Q 55.71875 13.875 49.015625 6.21875 
Q 42.328125 -1.421875 30.609375 -1.421875 
Q 18.84375 -1.421875 12.171875 6.21875 
Q 5.515625 13.875 5.515625 27.296875 
Q 5.515625 40.765625 12.171875 48.375 
Q 18.84375 56 30.609375 56 
z
" id="DejaVuSans-111"/>
       <path d="M 54.890625 33.015625 
L 54.890625 0 
L 45.90625 0 
L 45.90625 32.71875 
Q 45.90625 40.484375 42.875 44.328125 
Q 39.84375 48.1875 33.796875 48.1875 
Q 26.515625 48.1875 22.3125 43.546875 
Q 18.109375 38.921875 18.109375 30.90625 
L 18.109375 0 
L 9.078125 0 
L 9.078125 54.6875 
L 18.109375 54.6875 
L 18.109375 46.1875 
Q 21.34375 51.125 25.703125 53.5625 
Q 30.078125 56 35.796875 56 
Q 45.21875 56 50.046875 50.171875 
Q 54.890625 44.34375 54.890625 33.015625 
z
" id="DejaVuSans-110"/>
       <path d="M 8.5 21.578125 
L 8.5 54.6875 
L 17.484375 54.6875 
L 17.484375 21.921875 
Q 17.484375 14.15625 20.5 10.265625 
Q 23.53125 6.390625 29.59375 6.390625 
Q 36.859375 6.390625 41.078125 11.03125 
Q 45.3125 15.671875 45.3125 23.6875 
L 45.3125 54.6875 
L 54.296875 54.6875 
L 54.296875 0 
L 45.3125 0 
L 45.3125 8.40625 
Q 42.046875 3.421875 37.71875 1 
Q 33.40625 -1.421875 27.6875 -1.421875 
Q 18.265625 -1.421875 13.375 4.4375 
Q 8.5 10.296875 8.5 21.578125 
z
M 31.109375 56 
z
" id="DejaVuSans-117"/>
      </defs>
      <use xlink:href="#DejaVuSans-78"/>
      <use x="74.804688" xlink:href="#DejaVuSans-101"/>
      <use x="136.328125" xlink:href="#DejaVuSans-119"/>
      <use x="218.115234" xlink:href="#DejaVuSans-32"/>
      <use x="249.902344" xlink:href="#DejaVuSans-100"/>
      <use x="313.378906" xlink:href="#DejaVuSans-101"/>
      <use x="374.902344" xlink:href="#DejaVuSans-97"/>
      <use x="436.181641" xlink:href="#DejaVuSans-116"/>
      <use x="475.390625" xlink:href="#DejaVuSans-104"/>
      <use x="538.769531" xlink:href="#DejaVuSans-115"/>
      <use x="590.869141" xlink:href="#DejaVuSans-32"/>
      <use x="622.65625" xlink:href="#DejaVuSans-112"/>
      <use x="686.132812" xlink:href="#DejaVuSans-101"/>
      <use x="747.65625" xlink:href="#DejaVuSans-114"/>
      <use x="788.769531" xlink:href="#DejaVuSans-32"/>
      <use x="820.556641" xlink:href="#DejaVuSans-109"/>
      <use x="917.96875" xlink:href="#DejaVuSans-105"/>
      <use x="945.751953" xlink:href="#DejaVuSans-108"/>
      <use x="973.535156" xlink:href="#DejaVuSans-108"/>
      <use x="1001.318359" xlink:href="#DejaVuSans-105"/>
      <use x="1029.101562" xlink:href="#DejaVuSans-111"/>
      <use x="1090.283203" xlink:href="#DejaVuSans-110"/>
      <use x="1153.662109" xlink:href="#DejaVuSans-32"/>
      <use x="1185.449219" xlink:href="#DejaVuSans-112"/>
      <use x="1248.925781" xlink:href="#DejaVuSans-111"/>
      <use x="1310.107422" xlink:href="#DejaVuSans-112"/>
      <use x="1373.583984" xlink:href="#DejaVuSans-117"/>
      <use x="1436.962891" xlink:href="#DejaVuSans-108"/>
      <use x="1464.746094" xlink:href="#DejaVuSans-97"/>
      <use x="1526.025391" xlink:href="#DejaVuSans-116"/>
      <use x="1565.234375" xlink:href="#DejaVuSans-105"/>
      <use x="1593.017578" xlink:href="#DejaVuSans-111"/>
      <use x="1654.199219" xlink:href="#DejaVuSans-110"/>
     </g>
    </g>
   </g>
   <g id="line2d_16">
    <path clip-path="url(#p930d1e100d)" d="M 61.670455 217.520326 
L 133.511054 217.520326 
L 134.444049 216.620345 
L 135.377044 216.620345 
L 136.310038 215.720365 
L 138.176028 212.120444 
L 140.042018 206.720562 
L 140.975012 205.820582 
L 141.908007 200.4207 
L 142.841002 200.4207 
L 143.773997 196.820779 
L 144.706992 196.820779 
L 145.639986 194.120838 
L 146.572981 186.021015 
L 147.505976 180.621133 
L 148.438971 179.721153 
L 149.371966 174.321271 
L 150.30496 177.021212 
L 151.237955 174.321271 
L 153.103945 177.921192 
L 154.03694 171.62133 
L 154.969934 168.021409 
L 155.902929 168.921389 
L 156.835924 162.621527 
L 157.768919 161.721546 
L 158.701914 149.121822 
L 159.634908 141.921979 
L 160.567903 140.122019 
L 161.500898 149.121822 
L 162.433893 142.82196 
L 163.366888 140.122019 
L 164.299882 118.522491 
L 165.232877 123.022393 
L 166.165872 125.722334 
L 167.098867 126.622314 
L 168.031862 123.022393 
L 168.964856 125.722334 
L 169.897851 119.422472 
L 170.830846 138.322058 
L 171.763841 141.921979 
L 172.696836 139.222039 
L 173.62983 143.72194 
L 174.562825 143.72194 
L 175.49582 147.321861 
L 176.428815 150.021802 
L 177.36181 145.521901 
L 178.294804 150.021802 
L 179.227799 162.621527 
L 180.160794 168.921389 
L 181.093789 168.921389 
L 182.026784 171.62133 
L 182.959778 178.821172 
L 183.892773 189.620936 
L 184.825768 188.720956 
L 185.758763 178.821172 
L 186.691757 178.821172 
L 187.624752 180.621133 
L 188.557747 177.921192 
L 189.490742 179.721153 
L 190.423737 177.021212 
L 191.356731 175.221251 
L 192.289726 186.021015 
L 193.222721 188.720956 
L 194.155716 190.520916 
L 195.088711 188.720956 
L 196.021705 195.020818 
L 196.9547 197.720759 
L 197.887695 202.22066 
L 200.686679 202.22066 
L 201.619674 208.520523 
L 202.552669 206.720562 
L 203.485664 201.32068 
L 204.418659 202.22066 
L 205.351653 204.020621 
L 206.284648 204.020621 
L 208.150638 205.820582 
L 209.083633 207.620542 
L 210.016627 214.820385 
L 211.882617 214.820385 
L 212.815612 213.920404 
L 214.681601 213.920404 
L 216.547591 212.120444 
L 217.480586 213.020424 
L 218.413581 213.020424 
L 219.346575 213.920404 
L 225.877539 213.920404 
L 227.743529 212.120444 
L 229.609518 213.920404 
L 231.475508 212.120444 
L 234.274492 214.820385 
L 236.140482 214.820385 
L 237.073477 215.720365 
L 238.006471 217.520326 
L 239.872461 217.520326 
L 240.805456 215.720365 
L 246.403425 215.720365 
L 247.336419 217.520326 
L 265.996315 217.520326 
L 266.92931 216.620345 
L 269.728295 216.620345 
L 270.661289 215.720365 
L 272.527279 215.720365 
L 273.460274 216.620345 
L 274.393269 215.720365 
L 276.259258 215.720365 
L 277.192253 216.620345 
L 279.991237 216.620345 
L 280.924232 217.520326 
L 281.857227 217.520326 
L 282.790222 216.620345 
L 287.455196 216.620345 
L 288.38819 214.820385 
L 289.321185 214.820385 
L 290.25418 213.920404 
L 292.12017 213.920404 
L 293.053164 213.020424 
L 293.986159 211.220464 
L 294.919154 213.020424 
L 295.852149 213.020424 
L 296.785144 213.920404 
L 298.651133 213.920404 
L 299.584128 213.020424 
L 300.517123 213.920404 
L 301.450118 212.120444 
L 302.383112 213.020424 
L 303.316107 211.220464 
L 306.115092 211.220464 
L 307.048086 212.120444 
L 307.981081 213.920404 
L 308.914076 213.920404 
L 309.847071 215.720365 
L 310.780066 214.820385 
L 311.71306 214.820385 
L 312.646055 216.620345 
L 313.57905 216.620345 
L 314.512045 215.720365 
L 315.44504 213.920404 
L 316.378034 213.020424 
L 317.311029 213.020424 
L 318.244024 212.120444 
L 319.177019 212.120444 
L 320.110014 211.220464 
L 321.043008 211.220464 
L 323.841993 213.920404 
L 324.774988 213.920404 
L 325.707982 211.220464 
L 326.640977 205.820582 
L 328.506967 200.4207 
L 330.372956 196.820779 
L 331.305951 193.220857 
L 332.238946 190.520916 
L 333.171941 194.120838 
L 335.03793 192.320877 
L 335.970925 189.620936 
L 336.90392 186.021015 
L 337.836915 183.321074 
L 338.76991 184.221054 
L 339.702904 175.221251 
L 340.635899 171.62133 
L 341.568894 168.921389 
L 342.501889 165.321468 
L 343.434884 160.821566 
L 344.367878 160.821566 
L 345.300873 158.121625 
L 346.233868 164.421487 
L 347.166863 163.521507 
L 348.099858 159.921586 
L 349.032852 160.821566 
L 349.965847 158.121625 
L 350.898842 159.021605 
L 351.831837 157.221645 
L 352.764832 152.721743 
L 353.697826 154.521704 
L 355.563816 149.121822 
L 356.496811 152.721743 
L 357.429806 150.921783 
L 358.3628 147.321861 
L 359.295795 149.121822 
L 360.22879 146.421881 
L 361.161785 149.121822 
L 362.09478 148.221842 
L 363.027774 148.221842 
L 363.960769 147.321861 
L 364.893764 157.221645 
L 365.826759 155.421684 
L 367.692748 162.621527 
L 368.625743 162.621527 
L 369.558738 163.521507 
L 370.491733 169.821369 
L 371.424728 163.521507 
L 372.357722 159.921586 
L 373.290717 162.621527 
L 374.223712 159.921586 
L 375.156707 165.321468 
L 376.089702 167.121428 
L 377.022696 159.921586 
L 378.888686 161.721546 
L 379.821681 154.521704 
L 380.754676 151.821763 
L 381.68767 146.421881 
L 382.620665 144.62192 
L 383.55366 150.921783 
L 384.486655 154.521704 
L 385.419649 161.721546 
L 386.352644 165.321468 
L 387.285639 167.121428 
L 388.218634 167.121428 
L 389.151629 159.921586 
L 390.084623 151.821763 
L 391.017618 150.021802 
L 391.950613 141.021999 
L 392.883608 129.322255 
L 393.816603 130.222235 
L 394.749597 141.021999 
L 395.682592 138.322058 
L 396.615587 150.021802 
L 397.548582 138.322058 
L 398.481577 140.122019 
L 399.414571 153.621724 
L 401.280561 153.621724 
L 403.146551 142.82196 
L 404.079545 150.021802 
L 404.079545 150.021802 
" style="fill:none;stroke:#1f77b4;stroke-linecap:square;stroke-width:1.5;"/>
   </g>
   <g id="line2d_17">
    <path clip-path="url(#p930d1e100d)" d="M 61.670455 217.520326 
L 129.779075 217.520326 
L 131.645064 216.896431 
L 132.578059 215.960588 
L 133.511054 215.960588 
L 134.444049 215.64864 
L 135.377044 214.712798 
L 136.310038 213.465008 
L 137.243033 213.15306 
L 138.176028 211.593322 
L 139.109023 211.593322 
L 140.042018 209.097742 
L 140.975012 207.226057 
L 141.908007 207.849952 
L 142.841002 207.226057 
L 144.706992 194.12426 
L 145.639986 186.013624 
L 147.505976 161.993663 
L 148.438971 161.681715 
L 149.371966 162.929505 
L 150.30496 146.708233 
L 151.237955 133.606436 
L 152.17095 117.385164 
L 153.103945 116.761269 
L 154.03694 116.449321 
L 154.969934 109.586475 
L 155.902929 107.402843 
L 156.835924 118.009059 
L 157.768919 113.641794 
L 158.701914 113.953741 
L 160.567903 108.026738 
L 161.500898 112.394003 
L 162.433893 111.458161 
L 163.366888 102.099734 
L 164.299882 104.283367 
L 165.232877 111.146213 
L 166.165872 109.274528 
L 167.098867 112.082056 
L 168.031862 109.586475 
L 168.964856 109.274528 
L 169.897851 109.274528 
L 170.830846 107.402843 
L 171.763841 106.778948 
L 172.696836 114.265689 
L 173.62983 115.201531 
L 174.562825 117.073217 
L 175.49582 119.568797 
L 176.428815 127.679433 
L 177.36181 127.679433 
L 178.294804 127.991381 
L 179.227799 125.183853 
L 180.160794 127.679433 
L 181.093789 128.303328 
L 182.026784 128.303328 
L 182.959778 126.431643 
L 183.892773 133.294489 
L 184.825768 141.093177 
L 185.758763 142.02902 
L 186.691757 140.469282 
L 187.624752 140.78123 
L 188.557747 141.717072 
L 189.490742 148.267971 
L 190.423737 151.699394 
L 191.356731 150.763551 
L 192.289726 157.626397 
L 193.222721 165.425086 
L 194.155716 165.425086 
L 195.088711 165.113138 
L 196.021705 168.544561 
L 196.9547 180.08662 
L 197.887695 187.885309 
L 198.82069 190.692837 
L 199.753685 188.821152 
L 200.686679 188.821152 
L 201.619674 189.445047 
L 202.552669 191.316732 
L 203.485664 191.940627 
L 204.418659 192.87647 
L 205.351653 193.188417 
L 206.284648 198.179578 
L 207.217643 200.987106 
L 208.150638 201.299053 
L 209.083633 202.858791 
L 210.016627 202.546844 
L 210.949622 203.794634 
L 211.882617 207.226057 
L 212.815612 207.538004 
L 213.748607 207.226057 
L 214.681601 207.226057 
L 215.614596 207.849952 
L 217.480586 209.721637 
L 218.413581 208.785794 
L 219.346575 209.721637 
L 220.27957 210.033585 
L 221.212565 210.033585 
L 222.14556 210.345532 
L 223.078555 211.90527 
L 224.011549 211.90527 
L 224.944544 213.776955 
L 225.877539 214.40085 
L 227.743529 214.40085 
L 228.676523 214.712798 
L 229.609518 215.64864 
L 230.542513 215.960588 
L 231.475508 215.64864 
L 234.274492 215.64864 
L 235.207487 216.272536 
L 236.140482 216.272536 
L 238.006471 216.896431 
L 240.805456 216.896431 
L 242.671445 217.520326 
L 243.60444 217.208378 
L 249.202409 217.208378 
L 250.135404 217.520326 
L 274.393269 217.520326 
L 275.326263 217.208378 
L 280.924232 217.208378 
L 281.857227 216.896431 
L 287.455196 216.896431 
L 288.38819 217.208378 
L 289.321185 216.896431 
L 293.053164 216.896431 
L 293.986159 215.960588 
L 295.852149 216.584483 
L 299.584128 216.584483 
L 300.517123 217.208378 
L 301.450118 216.896431 
L 302.383112 216.896431 
L 303.316107 216.584483 
L 304.249102 215.64864 
L 307.048086 215.64864 
L 307.981081 215.336693 
L 308.914076 214.712798 
L 309.847071 214.712798 
L 310.780066 215.64864 
L 311.71306 215.336693 
L 312.646055 215.336693 
L 313.57905 215.64864 
L 314.512045 214.088903 
L 315.44504 213.776955 
L 316.378034 212.841113 
L 317.311029 211.593322 
L 318.244024 211.90527 
L 319.177019 211.90527 
L 320.110014 211.281375 
L 321.043008 213.15306 
L 323.841993 211.281375 
L 325.707982 211.281375 
L 326.640977 209.721637 
L 327.573972 205.354371 
L 328.506967 202.858791 
L 329.439962 201.922948 
L 330.372956 199.115421 
L 331.305951 199.115421 
L 332.238946 198.803473 
L 333.171941 196.307893 
L 334.104936 192.252575 
L 335.03793 191.004784 
L 335.970925 188.197257 
L 336.90392 189.445047 
L 337.836915 189.133099 
L 338.76991 189.133099 
L 339.702904 186.013624 
L 340.635899 186.013624 
L 341.568894 179.774673 
L 342.501889 176.655197 
L 343.434884 172.599879 
L 344.367878 171.040142 
L 345.300873 171.352089 
L 346.233868 170.416247 
L 347.166863 163.553401 
L 348.099858 162.929505 
L 349.032852 161.993663 
L 349.965847 157.31445 
L 350.898842 158.250292 
L 351.831837 157.938345 
L 352.764832 154.506922 
L 353.697826 150.139656 
L 354.630821 148.267971 
L 355.563816 140.469282 
L 357.429806 142.340968 
L 358.3628 140.78123 
L 359.295795 141.405125 
L 360.22879 144.5246 
L 361.161785 142.964863 
L 362.09478 150.451604 
L 363.027774 150.139656 
L 363.960769 147.956023 
L 364.893764 149.827709 
L 365.826759 148.579918 
L 366.759754 151.699394 
L 367.692748 151.387446 
L 368.625743 149.827709 
L 369.558738 147.644076 
L 370.491733 149.203814 
L 371.424728 148.267971 
L 372.357722 150.451604 
L 373.290717 152.323289 
L 374.223712 152.323289 
L 375.156707 151.075499 
L 376.089702 157.938345 
L 377.022696 157.002502 
L 377.955691 157.626397 
L 378.888686 157.938345 
L 379.821681 157.626397 
L 380.754676 157.938345 
L 381.68767 161.369768 
L 382.620665 156.06666 
L 383.55366 157.002502 
L 384.486655 157.31445 
L 385.419649 160.121978 
L 386.352644 160.433925 
L 387.285639 166.672876 
L 388.218634 164.801191 
L 389.151629 164.177296 
L 390.084623 163.865348 
L 391.017618 163.865348 
L 391.950613 157.938345 
L 392.883608 155.130817 
L 393.816603 151.075499 
L 394.749597 148.891866 
L 395.682592 161.681715 
L 396.615587 162.30561 
L 397.548582 162.30561 
L 398.481577 173.535722 
L 399.414571 174.783512 
L 400.347566 166.984824 
L 401.280561 180.398568 
L 402.213556 180.398568 
L 403.146551 180.710515 
L 404.079545 180.710515 
L 404.079545 180.710515 
" style="fill:none;stroke:#ff7f0e;stroke-linecap:square;stroke-width:1.5;"/>
   </g>
   <g id="line2d_18">
    <path clip-path="url(#p930d1e100d)" d="M 61.670455 217.520326 
L 123.248111 217.429491 
L 124.181106 217.308379 
L 126.98009 217.247823 
L 129.779075 215.673361 
L 130.71207 215.340301 
L 131.645064 214.341124 
L 132.578059 213.129999 
L 134.444049 211.101366 
L 135.377044 210.798584 
L 136.310038 209.436069 
L 137.243033 205.560471 
L 138.176028 201.170144 
L 139.109023 197.324824 
L 140.975012 183.275779 
L 141.908007 178.098221 
L 142.841002 169.438681 
L 143.773997 162.626105 
L 145.639986 136.314424 
L 148.438971 100.707362 
L 149.371966 95.317858 
L 150.30496 75.909587 
L 151.237955 66.55365 
L 153.103945 43.300058 
L 154.03694 41.604484 
L 154.969934 40.817253 
L 155.902929 35.88192 
L 156.835924 35.942476 
L 157.768919 41.755874 
L 158.701914 44.299236 
L 159.634908 50.627362 
L 160.567903 42.78533 
L 161.500898 49.567628 
L 162.433893 54.35157 
L 163.366888 51.051255 
L 164.299882 51.202646 
L 165.232877 60.649417 
L 166.165872 60.800808 
L 167.098867 69.127289 
L 168.031862 70.732029 
L 169.897851 85.901364 
L 170.830846 89.565016 
L 171.763841 91.1092 
L 172.696836 97.104267 
L 173.62983 104.492126 
L 174.562825 107.671328 
L 175.49582 108.943009 
L 176.428815 115.695029 
L 177.36181 117.965887 
L 178.294804 122.992054 
L 179.227799 126.776818 
L 180.160794 134.61885 
L 181.093789 135.587749 
L 182.026784 137.798052 
L 182.959778 140.825863 
L 183.892773 145.882308 
L 184.825768 148.122889 
L 185.758763 154.723517 
L 186.691757 151.029588 
L 187.624752 155.48047 
L 188.557747 156.691595 
L 191.356731 165.10891 
L 192.289726 165.805307 
L 193.222721 170.377302 
L 194.155716 160.718584 
L 195.088711 162.171933 
L 196.021705 172.527048 
L 196.9547 168.378947 
L 197.887695 165.502526 
L 198.82069 165.835585 
L 199.753685 168.257834 
L 200.686679 178.037665 
L 201.619674 178.249612 
L 202.552669 174.525404 
L 203.485664 179.914908 
L 204.418659 186.061365 
L 205.351653 186.273312 
L 207.217643 185.698028 
L 208.150638 186.757762 
L 209.083633 188.24139 
L 210.016627 190.512248 
L 210.949622 191.965598 
L 211.882617 195.659527 
L 212.815612 196.628427 
L 213.748607 197.415658 
L 214.681601 197.990942 
L 215.614596 200.201245 
L 216.547591 201.805985 
L 217.480586 201.927097 
L 218.413581 203.259334 
L 219.346575 204.076843 
L 220.27957 203.864896 
L 221.212565 204.228234 
L 222.14556 204.894352 
L 223.078555 205.378802 
L 224.011549 204.44018 
L 224.944544 204.349346 
L 225.877539 205.348524 
L 226.810534 205.40908 
L 227.743529 205.287968 
L 228.676523 206.408258 
L 229.609518 205.923808 
L 230.542513 207.740495 
L 231.475508 208.679116 
L 234.274492 209.375513 
L 235.207487 209.284679 
L 236.140482 210.435247 
L 237.073477 210.495803 
L 239.872461 211.434425 
L 240.805456 211.525259 
L 241.738451 211.767484 
L 242.671445 212.615271 
L 244.537435 213.069443 
L 245.47043 213.28139 
L 247.336419 213.190555 
L 248.269414 213.705283 
L 249.202409 213.947508 
L 250.135404 214.371402 
L 252.001393 213.977786 
L 252.934388 214.068621 
L 254.800378 214.40168 
L 255.733373 214.008064 
L 256.666367 214.280568 
L 257.599362 214.825574 
L 261.331341 215.279745 
L 262.264336 215.794473 
L 263.197331 215.340301 
L 265.063321 215.885308 
L 265.996315 215.794473 
L 266.92931 215.310023 
L 267.862305 215.491692 
L 271.594284 215.158633 
L 272.527279 215.219189 
L 273.460274 215.643083 
L 275.326263 215.643083 
L 276.259258 216.00642 
L 277.192253 216.248645 
L 278.125248 215.794473 
L 282.790222 215.552248 
L 283.723216 215.340301 
L 285.589206 215.582526 
L 286.522201 215.612805 
L 287.455196 216.036698 
L 288.38819 216.218367 
L 292.12017 216.188089 
L 293.053164 216.188089 
L 293.986159 215.431136 
L 296.785144 215.431136 
L 297.718138 215.491692 
L 301.450118 215.03752 
L 302.383112 214.88613 
L 304.249102 213.977786 
L 305.182097 213.584171 
L 306.115092 213.523615 
L 307.048086 213.190555 
L 308.914076 212.130821 
L 310.780066 211.646372 
L 311.71306 211.706928 
L 312.646055 211.585815 
L 314.512045 209.73885 
L 315.44504 209.405791 
L 316.378034 208.588282 
L 317.311029 208.315779 
L 318.244024 207.831329 
L 319.177019 207.649661 
L 320.110014 207.801051 
L 321.043008 207.710217 
L 322.908998 206.408258 
L 323.841993 205.954086 
L 324.774988 205.045743 
L 325.707982 204.319068 
L 326.640977 202.472103 
L 329.439962 198.687339 
L 330.372956 196.446758 
L 331.305951 196.537593 
L 332.238946 195.659527 
L 333.171941 192.964775 
L 334.104936 191.874763 
L 335.03793 190.391136 
L 335.970925 188.332224 
L 336.90392 187.938608 
L 337.836915 185.576916 
L 338.76991 185.031909 
L 339.702904 181.731595 
L 340.635899 178.946009 
L 341.568894 177.31099 
L 342.501889 176.160422 
L 343.434884 172.01232 
L 344.367878 172.163711 
L 346.233868 169.983687 
L 347.166863 165.381414 
L 349.032852 160.536915 
L 349.965847 159.02301 
L 350.898842 159.1744 
L 351.831837 157.660494 
L 353.697826 151.877375 
L 354.630821 146.669539 
L 355.563816 147.365936 
L 356.496811 145.307024 
L 358.3628 144.338124 
L 359.295795 142.581994 
L 361.161785 145.85203 
L 362.09478 141.128644 
L 363.027774 145.064799 
L 363.960769 138.191667 
L 364.893764 138.100833 
L 365.826759 137.586105 
L 366.759754 132.105766 
L 367.692748 132.257157 
L 368.625743 131.802985 
L 369.558738 127.836552 
L 370.491733 133.1655 
L 372.357722 133.438003 
L 373.290717 134.921631 
L 374.223712 137.434714 
L 375.156707 138.252223 
L 376.089702 139.856963 
L 377.022696 139.645017 
L 377.955691 140.008354 
L 378.888686 139.796407 
L 379.821681 142.945331 
L 380.754676 140.190023 
L 381.68767 142.339769 
L 382.620665 139.43307 
L 383.55366 141.340591 
L 384.486655 140.825863 
L 385.419649 142.975609 
L 386.352644 140.371691 
L 387.285639 139.796407 
L 388.218634 138.282502 
L 389.151629 138.252223 
L 390.084623 135.133578 
L 391.017618 135.012465 
L 391.950613 130.743251 
L 392.883608 128.078777 
L 393.816603 127.170434 
L 394.749597 122.113989 
L 395.682592 130.167967 
L 396.615587 130.016576 
L 397.548582 126.26209 
L 398.481577 133.771063 
L 399.414571 124.869297 
L 400.347566 114.211401 
L 401.280561 112.909442 
L 402.213556 107.64105 
L 403.146551 103.220446 
L 404.079545 101.767096 
L 404.079545 101.767096 
" style="fill:none;stroke:#2ca02c;stroke-linecap:square;stroke-width:1.5;"/>
   </g>
   <g id="line2d_19">
    <path clip-path="url(#p930d1e100d)" d="M 61.670455 217.520326 
L 133.511054 217.520326 
L 134.444049 216.439242 
L 135.377044 211.574365 
L 136.310038 209.412198 
L 137.243033 208.871656 
L 138.176028 206.168947 
L 140.042018 199.682445 
L 140.975012 198.601361 
L 141.908007 198.060819 
L 142.841002 192.655401 
L 143.773997 189.41215 
L 144.706992 176.439146 
L 145.639986 169.412102 
L 146.572981 159.682349 
L 147.505976 154.817472 
L 148.438971 153.736389 
L 150.30496 140.222843 
L 151.237955 138.060675 
L 152.17095 126.168755 
L 153.103945 123.466045 
L 154.03694 111.033583 
L 154.969934 107.790332 
L 155.902929 114.276834 
L 156.835924 114.276834 
L 157.768919 99.682204 
L 158.701914 104.547081 
L 159.634908 114.276834 
L 160.567903 118.601169 
L 161.500898 106.168707 
L 162.433893 109.411958 
L 163.366888 106.168707 
L 164.299882 130.493089 
L 165.232877 138.601217 
L 166.165872 85.087575 
L 167.098867 87.790284 
L 168.031862 102.384914 
L 168.964856 102.925456 
L 169.897851 107.24979 
L 170.830846 75.898363 
L 171.763841 73.195654 
L 172.696836 123.466045 
L 173.62983 112.114667 
L 174.562825 112.114667 
L 175.49582 108.871416 
L 176.428815 104.006539 
L 177.36181 132.114715 
L 178.294804 134.276882 
L 179.227799 128.330922 
L 180.160794 147.249886 
L 181.093789 148.33097 
L 182.959778 158.601265 
L 183.892773 158.060723 
L 184.825768 162.385058 
L 185.758763 172.655353 
L 186.691757 167.790476 
L 187.624752 167.790476 
L 188.557747 168.331018 
L 189.490742 167.790476 
L 190.423737 172.114811 
L 191.356731 172.655353 
L 192.289726 173.736437 
L 193.222721 180.222939 
L 194.155716 182.925648 
L 195.088711 181.304022 
L 196.021705 186.168899 
L 196.9547 187.790524 
L 197.887695 185.087815 
L 198.82069 183.46619 
L 199.753685 179.141855 
L 200.686679 176.979688 
L 201.619674 178.060771 
L 202.552669 178.601313 
L 203.485664 175.358062 
L 205.351653 181.844564 
L 206.284648 184.006732 
L 207.217643 187.249983 
L 208.150638 188.331066 
L 209.083633 187.249983 
L 210.016627 191.574317 
L 210.949622 192.655401 
L 211.882617 189.41215 
L 212.815612 191.574317 
L 213.748607 192.655401 
L 214.681601 192.114859 
L 215.614596 192.655401 
L 216.547591 192.114859 
L 217.480586 192.655401 
L 218.413581 195.898652 
L 219.346575 198.601361 
L 220.27957 199.682445 
L 222.14556 202.925696 
L 223.078555 204.00678 
L 224.011549 203.466238 
L 224.944544 204.547322 
L 225.877539 202.385154 
L 226.810534 201.844612 
L 227.743529 200.763529 
L 229.609518 202.925696 
L 230.542513 201.844612 
L 232.408503 201.844612 
L 233.341497 202.385154 
L 234.274492 204.00678 
L 235.207487 204.00678 
L 236.140482 205.087863 
L 237.073477 208.331114 
L 238.006471 209.412198 
L 238.939466 211.574365 
L 239.872461 212.114907 
L 240.805456 212.114907 
L 241.738451 212.655449 
L 243.60444 214.817616 
L 244.537435 214.277075 
L 245.47043 214.817616 
L 246.403425 214.277075 
L 247.336419 214.277075 
L 248.269414 215.358158 
L 249.202409 215.8987 
L 250.135404 215.8987 
L 251.068399 216.439242 
L 254.800378 216.439242 
L 255.733373 214.277075 
L 256.666367 214.277075 
L 257.599362 211.033824 
L 259.465352 208.871656 
L 260.398347 208.871656 
L 261.331341 208.331114 
L 262.264336 209.95274 
L 263.197331 208.331114 
L 264.130326 207.790573 
L 265.063321 208.331114 
L 265.996315 209.95274 
L 266.92931 209.95274 
L 267.862305 209.412198 
L 268.7953 207.790573 
L 269.728295 209.412198 
L 270.661289 213.195991 
L 271.594284 213.195991 
L 272.527279 212.114907 
L 273.460274 212.114907 
L 274.393269 213.195991 
L 275.326263 215.8987 
L 279.058243 215.8987 
L 279.991237 215.358158 
L 280.924232 215.358158 
L 282.790222 214.277075 
L 283.723216 214.277075 
L 284.656211 214.817616 
L 285.589206 215.8987 
L 286.522201 216.439242 
L 287.455196 215.8987 
L 289.321185 216.979784 
L 290.25418 216.979784 
L 291.187175 216.439242 
L 293.053164 216.439242 
L 293.986159 216.979784 
L 296.785144 216.979784 
L 297.718138 217.520326 
L 301.450118 217.520326 
L 302.383112 215.8987 
L 303.316107 215.358158 
L 304.249102 214.277075 
L 307.048086 214.277075 
L 307.981081 213.195991 
L 308.914076 214.277075 
L 309.847071 213.195991 
L 310.780066 212.655449 
L 312.646055 212.655449 
L 313.57905 211.033824 
L 314.512045 211.574365 
L 315.44504 208.871656 
L 316.378034 208.871656 
L 317.311029 207.790573 
L 319.177019 207.790573 
L 320.110014 204.00678 
L 321.043008 202.925696 
L 321.976003 205.628405 
L 322.908998 206.168947 
L 323.841993 197.520278 
L 324.774988 196.439194 
L 325.707982 194.277027 
L 326.640977 196.979736 
L 327.573972 193.195943 
L 328.506967 188.331066 
L 329.439962 186.709441 
L 330.372956 195.35811 
L 331.305951 194.817568 
L 332.238946 196.439194 
L 333.171941 193.736485 
L 334.104936 191.574317 
L 335.03793 193.195943 
L 335.970925 188.871608 
L 336.90392 182.925648 
L 337.836915 181.844564 
L 338.76991 179.141855 
L 339.702904 180.763481 
L 340.635899 168.331018 
L 341.568894 160.763432 
L 342.501889 161.844516 
L 343.434884 163.466142 
L 344.367878 157.520181 
L 346.233868 160.763432 
L 347.166863 156.97964 
L 348.099858 152.114763 
L 349.032852 151.033679 
L 349.965847 140.763384 
L 350.898842 139.141759 
L 351.831837 136.43905 
L 352.764832 126.709296 
L 353.697826 126.168755 
L 354.630821 124.006587 
L 355.563816 115.357918 
L 356.496811 121.84442 
L 357.429806 123.466045 
L 358.3628 126.709296 
L 359.295795 120.222794 
L 360.22879 122.384962 
L 361.161785 128.330922 
L 362.09478 127.249838 
L 363.027774 122.925504 
L 363.960769 125.628213 
L 364.893764 121.84442 
L 365.826759 128.871464 
L 366.759754 128.871464 
L 367.692748 126.168755 
L 368.625743 131.574173 
L 369.558738 131.033631 
L 370.491733 128.330922 
L 371.424728 131.574173 
L 372.357722 130.493089 
L 373.290717 125.087671 
L 374.223712 127.249838 
L 375.156707 120.763336 
L 376.089702 123.466045 
L 377.022696 124.547129 
L 377.955691 125.087671 
L 378.888686 120.763336 
L 379.821681 131.574173 
L 380.754676 126.709296 
L 381.68767 128.871464 
L 382.620665 125.087671 
L 383.55366 132.655257 
L 384.486655 115.89846 
L 385.419649 127.79038 
L 386.352644 128.330922 
L 387.285639 118.060627 
L 388.218634 113.19575 
L 389.151629 111.033583 
L 390.084623 73.736196 
L 391.017618 86.168658 
L 391.950613 78.060531 
L 392.883608 66.709152 
L 393.816603 60.763192 
L 394.749597 81.303782 
L 395.682592 81.303782 
L 396.615587 80.76324 
L 397.548582 78.060531 
L 398.481577 73.195654 
L 399.414571 93.736244 
L 400.347566 92.655161 
L 401.280561 92.655161 
L 402.213556 73.736196 
L 403.146551 81.303782 
L 404.079545 75.898363 
L 404.079545 75.898363 
" style="fill:none;stroke:#d62728;stroke-linecap:square;stroke-width:1.5;"/>
   </g>
   <g id="line2d_20"/>
   <g id="line2d_21"/>
   <g id="line2d_22"/>
   <g id="line2d_23"/>
   <g id="patch_3">
    <path d="M 44.55 226.602246 
L 44.55 26.8 
" style="fill:none;stroke:#000000;stroke-linecap:square;stroke-linejoin:miter;stroke-width:0.8;"/>
   </g>
   <g id="patch_4">
    <path d="M 421.2 226.602246 
L 421.2 26.8 
" style="fill:none;stroke:#000000;stroke-linecap:square;stroke-linejoin:miter;stroke-width:0.8;"/>
   </g>
   <g id="patch_5">
    <path d="M 44.55 226.602246 
L 421.2 226.602246 
" style="fill:none;stroke:#000000;stroke-linecap:square;stroke-linejoin:miter;stroke-width:0.8;"/>
   </g>
   <g id="patch_6">
    <path d="M 44.55 26.8 
L 421.2 26.8 
" style="fill:none;stroke:#000000;stroke-linecap:square;stroke-linejoin:miter;stroke-width:0.8;"/>
   </g>
   <g id="text_18">
    <!-- New deaths per million people by Nation (7 day rolling) -->
    <g transform="translate(66.704062 20.8)scale(0.12 -0.12)">
     <defs>
      <path d="M 48.6875 27.296875 
Q 48.6875 37.203125 44.609375 42.84375 
Q 40.53125 48.484375 33.40625 48.484375 
Q 26.265625 48.484375 22.1875 42.84375 
Q 18.109375 37.203125 18.109375 27.296875 
Q 18.109375 17.390625 22.1875 11.75 
Q 26.265625 6.109375 33.40625 6.109375 
Q 40.53125 6.109375 44.609375 11.75 
Q 48.6875 17.390625 48.6875 27.296875 
z
M 18.109375 46.390625 
Q 20.953125 51.265625 25.265625 53.625 
Q 29.59375 56 35.59375 56 
Q 45.5625 56 51.78125 48.09375 
Q 58.015625 40.1875 58.015625 27.296875 
Q 58.015625 14.40625 51.78125 6.484375 
Q 45.5625 -1.421875 35.59375 -1.421875 
Q 29.59375 -1.421875 25.265625 0.953125 
Q 20.953125 3.328125 18.109375 8.203125 
L 18.109375 0 
L 9.078125 0 
L 9.078125 75.984375 
L 18.109375 75.984375 
z
" id="DejaVuSans-98"/>
      <path d="M 32.171875 -5.078125 
Q 28.375 -14.84375 24.75 -17.8125 
Q 21.140625 -20.796875 15.09375 -20.796875 
L 7.90625 -20.796875 
L 7.90625 -13.28125 
L 13.1875 -13.28125 
Q 16.890625 -13.28125 18.9375 -11.515625 
Q 21 -9.765625 23.484375 -3.21875 
L 25.09375 0.875 
L 2.984375 54.6875 
L 12.5 54.6875 
L 29.59375 11.921875 
L 46.6875 54.6875 
L 56.203125 54.6875 
z
" id="DejaVuSans-121"/>
      <path d="M 31 75.875 
Q 24.46875 64.65625 21.28125 53.65625 
Q 18.109375 42.671875 18.109375 31.390625 
Q 18.109375 20.125 21.3125 9.0625 
Q 24.515625 -2 31 -13.1875 
L 23.1875 -13.1875 
Q 15.875 -1.703125 12.234375 9.375 
Q 8.59375 20.453125 8.59375 31.390625 
Q 8.59375 42.28125 12.203125 53.3125 
Q 15.828125 64.359375 23.1875 75.875 
z
" id="DejaVuSans-40"/>
      <path d="M 45.40625 27.984375 
Q 45.40625 37.75 41.375 43.109375 
Q 37.359375 48.484375 30.078125 48.484375 
Q 22.859375 48.484375 18.828125 43.109375 
Q 14.796875 37.75 14.796875 27.984375 
Q 14.796875 18.265625 18.828125 12.890625 
Q 22.859375 7.515625 30.078125 7.515625 
Q 37.359375 7.515625 41.375 12.890625 
Q 45.40625 18.265625 45.40625 27.984375 
z
M 54.390625 6.78125 
Q 54.390625 -7.171875 48.1875 -13.984375 
Q 42 -20.796875 29.203125 -20.796875 
Q 24.46875 -20.796875 20.265625 -20.09375 
Q 16.0625 -19.390625 12.109375 -17.921875 
L 12.109375 -9.1875 
Q 16.0625 -11.328125 19.921875 -12.34375 
Q 23.78125 -13.375 27.78125 -13.375 
Q 36.625 -13.375 41.015625 -8.765625 
Q 45.40625 -4.15625 45.40625 5.171875 
L 45.40625 9.625 
Q 42.625 4.78125 38.28125 2.390625 
Q 33.9375 0 27.875 0 
Q 17.828125 0 11.671875 7.65625 
Q 5.515625 15.328125 5.515625 27.984375 
Q 5.515625 40.671875 11.671875 48.328125 
Q 17.828125 56 27.875 56 
Q 33.9375 56 38.28125 53.609375 
Q 42.625 51.21875 45.40625 46.390625 
L 45.40625 54.6875 
L 54.390625 54.6875 
z
" id="DejaVuSans-103"/>
      <path d="M 8.015625 75.875 
L 15.828125 75.875 
Q 23.140625 64.359375 26.78125 53.3125 
Q 30.421875 42.28125 30.421875 31.390625 
Q 30.421875 20.453125 26.78125 9.375 
Q 23.140625 -1.703125 15.828125 -13.1875 
L 8.015625 -13.1875 
Q 14.5 -2 17.703125 9.0625 
Q 20.90625 20.125 20.90625 31.390625 
Q 20.90625 42.671875 17.703125 53.65625 
Q 14.5 64.65625 8.015625 75.875 
z
" id="DejaVuSans-41"/>
     </defs>
     <use xlink:href="#DejaVuSans-78"/>
     <use x="74.804688" xlink:href="#DejaVuSans-101"/>
     <use x="136.328125" xlink:href="#DejaVuSans-119"/>
     <use x="218.115234" xlink:href="#DejaVuSans-32"/>
     <use x="249.902344" xlink:href="#DejaVuSans-100"/>
     <use x="313.378906" xlink:href="#DejaVuSans-101"/>
     <use x="374.902344" xlink:href="#DejaVuSans-97"/>
     <use x="436.181641" xlink:href="#DejaVuSans-116"/>
     <use x="475.390625" xlink:href="#DejaVuSans-104"/>
     <use x="538.769531" xlink:href="#DejaVuSans-115"/>
     <use x="590.869141" xlink:href="#DejaVuSans-32"/>
     <use x="622.65625" xlink:href="#DejaVuSans-112"/>
     <use x="686.132812" xlink:href="#DejaVuSans-101"/>
     <use x="747.65625" xlink:href="#DejaVuSans-114"/>
     <use x="788.769531" xlink:href="#DejaVuSans-32"/>
     <use x="820.556641" xlink:href="#DejaVuSans-109"/>
     <use x="917.96875" xlink:href="#DejaVuSans-105"/>
     <use x="945.751953" xlink:href="#DejaVuSans-108"/>
     <use x="973.535156" xlink:href="#DejaVuSans-108"/>
     <use x="1001.318359" xlink:href="#DejaVuSans-105"/>
     <use x="1029.101562" xlink:href="#DejaVuSans-111"/>
     <use x="1090.283203" xlink:href="#DejaVuSans-110"/>
     <use x="1153.662109" xlink:href="#DejaVuSans-32"/>
     <use x="1185.449219" xlink:href="#DejaVuSans-112"/>
     <use x="1248.925781" xlink:href="#DejaVuSans-101"/>
     <use x="1310.449219" xlink:href="#DejaVuSans-111"/>
     <use x="1371.630859" xlink:href="#DejaVuSans-112"/>
     <use x="1435.107422" xlink:href="#DejaVuSans-108"/>
     <use x="1462.890625" xlink:href="#DejaVuSans-101"/>
     <use x="1524.414062" xlink:href="#DejaVuSans-32"/>
     <use x="1556.201172" xlink:href="#DejaVuSans-98"/>
     <use x="1619.677734" xlink:href="#DejaVuSans-121"/>
     <use x="1678.857422" xlink:href="#DejaVuSans-32"/>
     <use x="1710.644531" xlink:href="#DejaVuSans-78"/>
     <use x="1785.449219" xlink:href="#DejaVuSans-97"/>
     <use x="1846.728516" xlink:href="#DejaVuSans-116"/>
     <use x="1885.9375" xlink:href="#DejaVuSans-105"/>
     <use x="1913.720703" xlink:href="#DejaVuSans-111"/>
     <use x="1974.902344" xlink:href="#DejaVuSans-110"/>
     <use x="2038.28125" xlink:href="#DejaVuSans-32"/>
     <use x="2070.068359" xlink:href="#DejaVuSans-40"/>
     <use x="2109.082031" xlink:href="#DejaVuSans-55"/>
     <use x="2172.705078" xlink:href="#DejaVuSans-32"/>
     <use x="2204.492188" xlink:href="#DejaVuSans-100"/>
     <use x="2267.96875" xlink:href="#DejaVuSans-97"/>
     <use x="2329.248047" xlink:href="#DejaVuSans-121"/>
     <use x="2388.427734" xlink:href="#DejaVuSans-32"/>
     <use x="2420.214844" xlink:href="#DejaVuSans-114"/>
     <use x="2459.078125" xlink:href="#DejaVuSans-111"/>
     <use x="2520.259766" xlink:href="#DejaVuSans-108"/>
     <use x="2548.042969" xlink:href="#DejaVuSans-108"/>
     <use x="2575.826172" xlink:href="#DejaVuSans-105"/>
     <use x="2603.609375" xlink:href="#DejaVuSans-110"/>
     <use x="2666.988281" xlink:href="#DejaVuSans-103"/>
     <use x="2730.464844" xlink:href="#DejaVuSans-41"/>
    </g>
   </g>
   <g id="legend_1">
    <g id="patch_7">
     <path d="M 175.797656 108.190625 
L 289.952344 108.190625 
Q 291.952344 108.190625 291.952344 106.190625 
L 291.952344 33.8 
Q 291.952344 31.8 289.952344 31.8 
L 175.797656 31.8 
Q 173.797656 31.8 173.797656 33.8 
L 173.797656 106.190625 
Q 173.797656 108.190625 175.797656 108.190625 
z
" style="fill:#ffffff;opacity:0.8;stroke:#cccccc;stroke-linejoin:miter;"/>
    </g>
    <g id="text_19">
     <!-- Nation -->
     <g transform="translate(216.492969 43.398437)scale(0.1 -0.1)">
      <use xlink:href="#DejaVuSans-78"/>
      <use x="74.804688" xlink:href="#DejaVuSans-97"/>
      <use x="136.083984" xlink:href="#DejaVuSans-116"/>
      <use x="175.292969" xlink:href="#DejaVuSans-105"/>
      <use x="203.076172" xlink:href="#DejaVuSans-111"/>
      <use x="264.257812" xlink:href="#DejaVuSans-110"/>
     </g>
    </g>
    <g id="line2d_24">
     <path d="M 177.797656 54.576562 
L 197.797656 54.576562 
" style="fill:none;stroke:#1f77b4;stroke-linecap:square;stroke-width:1.5;"/>
    </g>
    <g id="line2d_25"/>
    <g id="text_20">
     <!-- Northern Ireland -->
     <g transform="translate(205.797656 58.076562)scale(0.1 -0.1)">
      <defs>
       <path d="M 9.8125 72.90625 
L 19.671875 72.90625 
L 19.671875 0 
L 9.8125 0 
z
" id="DejaVuSans-73"/>
      </defs>
      <use xlink:href="#DejaVuSans-78"/>
      <use x="74.804688" xlink:href="#DejaVuSans-111"/>
      <use x="135.986328" xlink:href="#DejaVuSans-114"/>
      <use x="177.099609" xlink:href="#DejaVuSans-116"/>
      <use x="216.308594" xlink:href="#DejaVuSans-104"/>
      <use x="279.6875" xlink:href="#DejaVuSans-101"/>
      <use x="341.210938" xlink:href="#DejaVuSans-114"/>
      <use x="380.574219" xlink:href="#DejaVuSans-110"/>
      <use x="443.953125" xlink:href="#DejaVuSans-32"/>
      <use x="475.740234" xlink:href="#DejaVuSans-73"/>
      <use x="505.232422" xlink:href="#DejaVuSans-114"/>
      <use x="544.095703" xlink:href="#DejaVuSans-101"/>
      <use x="605.619141" xlink:href="#DejaVuSans-108"/>
      <use x="633.402344" xlink:href="#DejaVuSans-97"/>
      <use x="694.681641" xlink:href="#DejaVuSans-110"/>
      <use x="758.060547" xlink:href="#DejaVuSans-100"/>
     </g>
    </g>
    <g id="line2d_26">
     <path d="M 177.797656 69.254687 
L 197.797656 69.254687 
" style="fill:none;stroke:#ff7f0e;stroke-linecap:square;stroke-width:1.5;"/>
    </g>
    <g id="line2d_27"/>
    <g id="text_21">
     <!-- Scotland -->
     <g transform="translate(205.797656 72.754687)scale(0.1 -0.1)">
      <defs>
       <path d="M 53.515625 70.515625 
L 53.515625 60.890625 
Q 47.90625 63.578125 42.921875 64.890625 
Q 37.9375 66.21875 33.296875 66.21875 
Q 25.25 66.21875 20.875 63.09375 
Q 16.5 59.96875 16.5 54.203125 
Q 16.5 49.359375 19.40625 46.890625 
Q 22.3125 44.4375 30.421875 42.921875 
L 36.375 41.703125 
Q 47.40625 39.59375 52.65625 34.296875 
Q 57.90625 29 57.90625 20.125 
Q 57.90625 9.515625 50.796875 4.046875 
Q 43.703125 -1.421875 29.984375 -1.421875 
Q 24.8125 -1.421875 18.96875 -0.25 
Q 13.140625 0.921875 6.890625 3.21875 
L 6.890625 13.375 
Q 12.890625 10.015625 18.65625 8.296875 
Q 24.421875 6.59375 29.984375 6.59375 
Q 38.421875 6.59375 43.015625 9.90625 
Q 47.609375 13.234375 47.609375 19.390625 
Q 47.609375 24.75 44.3125 27.78125 
Q 41.015625 30.8125 33.5 32.328125 
L 27.484375 33.5 
Q 16.453125 35.6875 11.515625 40.375 
Q 6.59375 45.0625 6.59375 53.421875 
Q 6.59375 63.09375 13.40625 68.65625 
Q 20.21875 74.21875 32.171875 74.21875 
Q 37.3125 74.21875 42.625 73.28125 
Q 47.953125 72.359375 53.515625 70.515625 
z
" id="DejaVuSans-83"/>
       <path d="M 48.78125 52.59375 
L 48.78125 44.1875 
Q 44.96875 46.296875 41.140625 47.34375 
Q 37.3125 48.390625 33.40625 48.390625 
Q 24.65625 48.390625 19.8125 42.84375 
Q 14.984375 37.3125 14.984375 27.296875 
Q 14.984375 17.28125 19.8125 11.734375 
Q 24.65625 6.203125 33.40625 6.203125 
Q 37.3125 6.203125 41.140625 7.25 
Q 44.96875 8.296875 48.78125 10.40625 
L 48.78125 2.09375 
Q 45.015625 0.34375 40.984375 -0.53125 
Q 36.96875 -1.421875 32.421875 -1.421875 
Q 20.0625 -1.421875 12.78125 6.34375 
Q 5.515625 14.109375 5.515625 27.296875 
Q 5.515625 40.671875 12.859375 48.328125 
Q 20.21875 56 33.015625 56 
Q 37.15625 56 41.109375 55.140625 
Q 45.0625 54.296875 48.78125 52.59375 
z
" id="DejaVuSans-99"/>
      </defs>
      <use xlink:href="#DejaVuSans-83"/>
      <use x="63.476562" xlink:href="#DejaVuSans-99"/>
      <use x="118.457031" xlink:href="#DejaVuSans-111"/>
      <use x="179.638672" xlink:href="#DejaVuSans-116"/>
      <use x="218.847656" xlink:href="#DejaVuSans-108"/>
      <use x="246.630859" xlink:href="#DejaVuSans-97"/>
      <use x="307.910156" xlink:href="#DejaVuSans-110"/>
      <use x="371.289062" xlink:href="#DejaVuSans-100"/>
     </g>
    </g>
    <g id="line2d_28">
     <path d="M 177.797656 83.932812 
L 197.797656 83.932812 
" style="fill:none;stroke:#2ca02c;stroke-linecap:square;stroke-width:1.5;"/>
    </g>
    <g id="line2d_29"/>
    <g id="text_22">
     <!-- England -->
     <g transform="translate(205.797656 87.432812)scale(0.1 -0.1)">
      <defs>
       <path d="M 9.8125 72.90625 
L 55.90625 72.90625 
L 55.90625 64.59375 
L 19.671875 64.59375 
L 19.671875 43.015625 
L 54.390625 43.015625 
L 54.390625 34.71875 
L 19.671875 34.71875 
L 19.671875 8.296875 
L 56.78125 8.296875 
L 56.78125 0 
L 9.8125 0 
z
" id="DejaVuSans-69"/>
      </defs>
      <use xlink:href="#DejaVuSans-69"/>
      <use x="63.183594" xlink:href="#DejaVuSans-110"/>
      <use x="126.5625" xlink:href="#DejaVuSans-103"/>
      <use x="190.039062" xlink:href="#DejaVuSans-108"/>
      <use x="217.822266" xlink:href="#DejaVuSans-97"/>
      <use x="279.101562" xlink:href="#DejaVuSans-110"/>
      <use x="342.480469" xlink:href="#DejaVuSans-100"/>
     </g>
    </g>
    <g id="line2d_30">
     <path d="M 177.797656 98.610937 
L 197.797656 98.610937 
" style="fill:none;stroke:#d62728;stroke-linecap:square;stroke-width:1.5;"/>
    </g>
    <g id="line2d_31"/>
    <g id="text_23">
     <!-- Wales -->
     <g transform="translate(205.797656 102.110937)scale(0.1 -0.1)">
      <defs>
       <path d="M 3.328125 72.90625 
L 13.28125 72.90625 
L 28.609375 11.28125 
L 43.890625 72.90625 
L 54.984375 72.90625 
L 70.3125 11.28125 
L 85.59375 72.90625 
L 95.609375 72.90625 
L 77.296875 0 
L 64.890625 0 
L 49.515625 63.28125 
L 33.984375 0 
L 21.578125 0 
z
" id="DejaVuSans-87"/>
      </defs>
      <use xlink:href="#DejaVuSans-87"/>
      <use x="92.501953" xlink:href="#DejaVuSans-97"/>
      <use x="153.78125" xlink:href="#DejaVuSans-108"/>
      <use x="181.564453" xlink:href="#DejaVuSans-101"/>
      <use x="243.087891" xlink:href="#DejaVuSans-115"/>
     </g>
    </g>
   </g>
  </g>
 </g>
 <defs>
  <clipPath id="p930d1e100d">
   <rect height="199.802246" width="376.65" x="44.55" y="26.8"/>
  </clipPath>
 </defs>
</svg>
