<?xml version="1.0" encoding="utf-8" standalone="no"?>
<!DOCTYPE svg PUBLIC "-//W3C//DTD SVG 1.1//EN"
  "http://www.w3.org/Graphics/SVG/1.1/DTD/svg11.dtd">
<!-- Created with matplotlib (https://matplotlib.org/) -->
<svg height="360pt" version="1.1" viewBox="0 0 540 360" width="540pt" xmlns="http://www.w3.org/2000/svg" xmlns:xlink="http://www.w3.org/1999/xlink">
 <defs>
  <style type="text/css">
*{stroke-linecap:butt;stroke-linejoin:round;}
  </style>
 </defs>
 <g id="figure_1">
  <g id="patch_1">
   <path d="M 0 360 
L 540 360 
L 540 0 
L 0 0 
z
" style="fill:#ffffff;"/>
  </g>
  <g id="axes_1">
   <g id="patch_2">
    <path d="M 44.150248 295.102246 
L 529.2 295.102246 
L 529.2 26.8 
L 44.150248 26.8 
z
" style="fill:#ffffff;"/>
   </g>
   <g id="matplotlib.axis_1">
    <g id="xtick_1">
     <g id="line2d_1">
      <defs>
       <path d="M 0 0 
L 0 3.5 
" id="m12275ab26a" style="stroke:#000000;"/>
      </defs>
      <g>
       <use style="stroke:#000000;" x="53.323386" xlink:href="#m12275ab26a" y="295.102246"/>
      </g>
     </g>
     <g id="text_1">
      <!-- 2020-01 -->
      <defs>
       <path d="M 19.1875 8.296875 
L 53.609375 8.296875 
L 53.609375 0 
L 7.328125 0 
L 7.328125 8.296875 
Q 12.9375 14.109375 22.625 23.890625 
Q 32.328125 33.6875 34.8125 36.53125 
Q 39.546875 41.84375 41.421875 45.53125 
Q 43.3125 49.21875 43.3125 52.78125 
Q 43.3125 58.59375 39.234375 62.25 
Q 35.15625 65.921875 28.609375 65.921875 
Q 23.96875 65.921875 18.8125 64.3125 
Q 13.671875 62.703125 7.8125 59.421875 
L 7.8125 69.390625 
Q 13.765625 71.78125 18.9375 73 
Q 24.125 74.21875 28.421875 74.21875 
Q 39.75 74.21875 46.484375 68.546875 
Q 53.21875 62.890625 53.21875 53.421875 
Q 53.21875 48.921875 51.53125 44.890625 
Q 49.859375 40.875 45.40625 35.40625 
Q 44.1875 33.984375 37.640625 27.21875 
Q 31.109375 20.453125 19.1875 8.296875 
z
" id="DejaVuSans-50"/>
       <path d="M 31.78125 66.40625 
Q 24.171875 66.40625 20.328125 58.90625 
Q 16.5 51.421875 16.5 36.375 
Q 16.5 21.390625 20.328125 13.890625 
Q 24.171875 6.390625 31.78125 6.390625 
Q 39.453125 6.390625 43.28125 13.890625 
Q 47.125 21.390625 47.125 36.375 
Q 47.125 51.421875 43.28125 58.90625 
Q 39.453125 66.40625 31.78125 66.40625 
z
M 31.78125 74.21875 
Q 44.046875 74.21875 50.515625 64.515625 
Q 56.984375 54.828125 56.984375 36.375 
Q 56.984375 17.96875 50.515625 8.265625 
Q 44.046875 -1.421875 31.78125 -1.421875 
Q 19.53125 -1.421875 13.0625 8.265625 
Q 6.59375 17.96875 6.59375 36.375 
Q 6.59375 54.828125 13.0625 64.515625 
Q 19.53125 74.21875 31.78125 74.21875 
z
" id="DejaVuSans-48"/>
       <path d="M 4.890625 31.390625 
L 31.203125 31.390625 
L 31.203125 23.390625 
L 4.890625 23.390625 
z
" id="DejaVuSans-45"/>
       <path d="M 12.40625 8.296875 
L 28.515625 8.296875 
L 28.515625 63.921875 
L 10.984375 60.40625 
L 10.984375 69.390625 
L 28.421875 72.90625 
L 38.28125 72.90625 
L 38.28125 8.296875 
L 54.390625 8.296875 
L 54.390625 0 
L 12.40625 0 
z
" id="DejaVuSans-49"/>
      </defs>
      <g transform="translate(16.098565 333.074092)rotate(-30)scale(0.1 -0.1)">
       <use xlink:href="#DejaVuSans-50"/>
       <use x="63.623047" xlink:href="#DejaVuSans-48"/>
       <use x="127.246094" xlink:href="#DejaVuSans-50"/>
       <use x="190.869141" xlink:href="#DejaVuSans-48"/>
       <use x="254.492188" xlink:href="#DejaVuSans-45"/>
       <use x="290.576172" xlink:href="#DejaVuSans-48"/>
       <use x="354.199219" xlink:href="#DejaVuSans-49"/>
      </g>
     </g>
    </g>
    <g id="xtick_2">
     <g id="line2d_2">
      <g>
       <use style="stroke:#000000;" x="103.212378" xlink:href="#m12275ab26a" y="295.102246"/>
      </g>
     </g>
     <g id="text_2">
      <!-- 2020-02 -->
      <g transform="translate(65.987557 333.074092)rotate(-30)scale(0.1 -0.1)">
       <use xlink:href="#DejaVuSans-50"/>
       <use x="63.623047" xlink:href="#DejaVuSans-48"/>
       <use x="127.246094" xlink:href="#DejaVuSans-50"/>
       <use x="190.869141" xlink:href="#DejaVuSans-48"/>
       <use x="254.492188" xlink:href="#DejaVuSans-45"/>
       <use x="290.576172" xlink:href="#DejaVuSans-48"/>
       <use x="354.199219" xlink:href="#DejaVuSans-50"/>
      </g>
     </g>
    </g>
    <g id="xtick_3">
     <g id="line2d_3">
      <g>
       <use style="stroke:#000000;" x="149.882726" xlink:href="#m12275ab26a" y="295.102246"/>
      </g>
     </g>
     <g id="text_3">
      <!-- 2020-03 -->
      <defs>
       <path d="M 40.578125 39.3125 
Q 47.65625 37.796875 51.625 33 
Q 55.609375 28.21875 55.609375 21.1875 
Q 55.609375 10.40625 48.1875 4.484375 
Q 40.765625 -1.421875 27.09375 -1.421875 
Q 22.515625 -1.421875 17.65625 -0.515625 
Q 12.796875 0.390625 7.625 2.203125 
L 7.625 11.71875 
Q 11.71875 9.328125 16.59375 8.109375 
Q 21.484375 6.890625 26.8125 6.890625 
Q 36.078125 6.890625 40.9375 10.546875 
Q 45.796875 14.203125 45.796875 21.1875 
Q 45.796875 27.640625 41.28125 31.265625 
Q 36.765625 34.90625 28.71875 34.90625 
L 20.21875 34.90625 
L 20.21875 43.015625 
L 29.109375 43.015625 
Q 36.375 43.015625 40.234375 45.921875 
Q 44.09375 48.828125 44.09375 54.296875 
Q 44.09375 59.90625 40.109375 62.90625 
Q 36.140625 65.921875 28.71875 65.921875 
Q 24.65625 65.921875 20.015625 65.03125 
Q 15.375 64.15625 9.8125 62.3125 
L 9.8125 71.09375 
Q 15.4375 72.65625 20.34375 73.4375 
Q 25.25 74.21875 29.59375 74.21875 
Q 40.828125 74.21875 47.359375 69.109375 
Q 53.90625 64.015625 53.90625 55.328125 
Q 53.90625 49.265625 50.4375 45.09375 
Q 46.96875 40.921875 40.578125 39.3125 
z
" id="DejaVuSans-51"/>
      </defs>
      <g transform="translate(112.657905 333.074092)rotate(-30)scale(0.1 -0.1)">
       <use xlink:href="#DejaVuSans-50"/>
       <use x="63.623047" xlink:href="#DejaVuSans-48"/>
       <use x="127.246094" xlink:href="#DejaVuSans-50"/>
       <use x="190.869141" xlink:href="#DejaVuSans-48"/>
       <use x="254.492188" xlink:href="#DejaVuSans-45"/>
       <use x="290.576172" xlink:href="#DejaVuSans-48"/>
       <use x="354.199219" xlink:href="#DejaVuSans-51"/>
      </g>
     </g>
    </g>
    <g id="xtick_4">
     <g id="line2d_4">
      <g>
       <use style="stroke:#000000;" x="199.771718" xlink:href="#m12275ab26a" y="295.102246"/>
      </g>
     </g>
     <g id="text_4">
      <!-- 2020-04 -->
      <defs>
       <path d="M 37.796875 64.3125 
L 12.890625 25.390625 
L 37.796875 25.390625 
z
M 35.203125 72.90625 
L 47.609375 72.90625 
L 47.609375 25.390625 
L 58.015625 25.390625 
L 58.015625 17.1875 
L 47.609375 17.1875 
L 47.609375 0 
L 37.796875 0 
L 37.796875 17.1875 
L 4.890625 17.1875 
L 4.890625 26.703125 
z
" id="DejaVuSans-52"/>
      </defs>
      <g transform="translate(162.546897 333.074092)rotate(-30)scale(0.1 -0.1)">
       <use xlink:href="#DejaVuSans-50"/>
       <use x="63.623047" xlink:href="#DejaVuSans-48"/>
       <use x="127.246094" xlink:href="#DejaVuSans-50"/>
       <use x="190.869141" xlink:href="#DejaVuSans-48"/>
       <use x="254.492188" xlink:href="#DejaVuSans-45"/>
       <use x="290.576172" xlink:href="#DejaVuSans-48"/>
       <use x="354.199219" xlink:href="#DejaVuSans-52"/>
      </g>
     </g>
    </g>
    <g id="xtick_5">
     <g id="line2d_5">
      <g>
       <use style="stroke:#000000;" x="248.051388" xlink:href="#m12275ab26a" y="295.102246"/>
      </g>
     </g>
     <g id="text_5">
      <!-- 2020-05 -->
      <defs>
       <path d="M 10.796875 72.90625 
L 49.515625 72.90625 
L 49.515625 64.59375 
L 19.828125 64.59375 
L 19.828125 46.734375 
Q 21.96875 47.46875 24.109375 47.828125 
Q 26.265625 48.1875 28.421875 48.1875 
Q 40.625 48.1875 47.75 41.5 
Q 54.890625 34.8125 54.890625 23.390625 
Q 54.890625 11.625 47.5625 5.09375 
Q 40.234375 -1.421875 26.90625 -1.421875 
Q 22.3125 -1.421875 17.546875 -0.640625 
Q 12.796875 0.140625 7.71875 1.703125 
L 7.71875 11.625 
Q 12.109375 9.234375 16.796875 8.0625 
Q 21.484375 6.890625 26.703125 6.890625 
Q 35.15625 6.890625 40.078125 11.328125 
Q 45.015625 15.765625 45.015625 23.390625 
Q 45.015625 31 40.078125 35.4375 
Q 35.15625 39.890625 26.703125 39.890625 
Q 22.75 39.890625 18.8125 39.015625 
Q 14.890625 38.140625 10.796875 36.28125 
z
" id="DejaVuSans-53"/>
      </defs>
      <g transform="translate(210.826567 333.074092)rotate(-30)scale(0.1 -0.1)">
       <use xlink:href="#DejaVuSans-50"/>
       <use x="63.623047" xlink:href="#DejaVuSans-48"/>
       <use x="127.246094" xlink:href="#DejaVuSans-50"/>
       <use x="190.869141" xlink:href="#DejaVuSans-48"/>
       <use x="254.492188" xlink:href="#DejaVuSans-45"/>
       <use x="290.576172" xlink:href="#DejaVuSans-48"/>
       <use x="354.199219" xlink:href="#DejaVuSans-53"/>
      </g>
     </g>
    </g>
    <g id="xtick_6">
     <g id="line2d_6">
      <g>
       <use style="stroke:#000000;" x="297.940381" xlink:href="#m12275ab26a" y="295.102246"/>
      </g>
     </g>
     <g id="text_6">
      <!-- 2020-06 -->
      <defs>
       <path d="M 33.015625 40.375 
Q 26.375 40.375 22.484375 35.828125 
Q 18.609375 31.296875 18.609375 23.390625 
Q 18.609375 15.53125 22.484375 10.953125 
Q 26.375 6.390625 33.015625 6.390625 
Q 39.65625 6.390625 43.53125 10.953125 
Q 47.40625 15.53125 47.40625 23.390625 
Q 47.40625 31.296875 43.53125 35.828125 
Q 39.65625 40.375 33.015625 40.375 
z
M 52.59375 71.296875 
L 52.59375 62.3125 
Q 48.875 64.0625 45.09375 64.984375 
Q 41.3125 65.921875 37.59375 65.921875 
Q 27.828125 65.921875 22.671875 59.328125 
Q 17.53125 52.734375 16.796875 39.40625 
Q 19.671875 43.65625 24.015625 45.921875 
Q 28.375 48.1875 33.59375 48.1875 
Q 44.578125 48.1875 50.953125 41.515625 
Q 57.328125 34.859375 57.328125 23.390625 
Q 57.328125 12.15625 50.6875 5.359375 
Q 44.046875 -1.421875 33.015625 -1.421875 
Q 20.359375 -1.421875 13.671875 8.265625 
Q 6.984375 17.96875 6.984375 36.375 
Q 6.984375 53.65625 15.1875 63.9375 
Q 23.390625 74.21875 37.203125 74.21875 
Q 40.921875 74.21875 44.703125 73.484375 
Q 48.484375 72.75 52.59375 71.296875 
z
" id="DejaVuSans-54"/>
      </defs>
      <g transform="translate(260.71556 333.074092)rotate(-30)scale(0.1 -0.1)">
       <use xlink:href="#DejaVuSans-50"/>
       <use x="63.623047" xlink:href="#DejaVuSans-48"/>
       <use x="127.246094" xlink:href="#DejaVuSans-50"/>
       <use x="190.869141" xlink:href="#DejaVuSans-48"/>
       <use x="254.492188" xlink:href="#DejaVuSans-45"/>
       <use x="290.576172" xlink:href="#DejaVuSans-48"/>
       <use x="354.199219" xlink:href="#DejaVuSans-54"/>
      </g>
     </g>
    </g>
    <g id="xtick_7">
     <g id="line2d_7">
      <g>
       <use style="stroke:#000000;" x="346.220051" xlink:href="#m12275ab26a" y="295.102246"/>
      </g>
     </g>
     <g id="text_7">
      <!-- 2020-07 -->
      <defs>
       <path d="M 8.203125 72.90625 
L 55.078125 72.90625 
L 55.078125 68.703125 
L 28.609375 0 
L 18.3125 0 
L 43.21875 64.59375 
L 8.203125 64.59375 
z
" id="DejaVuSans-55"/>
      </defs>
      <g transform="translate(308.99523 333.074092)rotate(-30)scale(0.1 -0.1)">
       <use xlink:href="#DejaVuSans-50"/>
       <use x="63.623047" xlink:href="#DejaVuSans-48"/>
       <use x="127.246094" xlink:href="#DejaVuSans-50"/>
       <use x="190.869141" xlink:href="#DejaVuSans-48"/>
       <use x="254.492188" xlink:href="#DejaVuSans-45"/>
       <use x="290.576172" xlink:href="#DejaVuSans-48"/>
       <use x="354.199219" xlink:href="#DejaVuSans-55"/>
      </g>
     </g>
    </g>
    <g id="xtick_8">
     <g id="line2d_8">
      <g>
       <use style="stroke:#000000;" x="396.109043" xlink:href="#m12275ab26a" y="295.102246"/>
      </g>
     </g>
     <g id="text_8">
      <!-- 2020-08 -->
      <defs>
       <path d="M 31.78125 34.625 
Q 24.75 34.625 20.71875 30.859375 
Q 16.703125 27.09375 16.703125 20.515625 
Q 16.703125 13.921875 20.71875 10.15625 
Q 24.75 6.390625 31.78125 6.390625 
Q 38.8125 6.390625 42.859375 10.171875 
Q 46.921875 13.96875 46.921875 20.515625 
Q 46.921875 27.09375 42.890625 30.859375 
Q 38.875 34.625 31.78125 34.625 
z
M 21.921875 38.8125 
Q 15.578125 40.375 12.03125 44.71875 
Q 8.5 49.078125 8.5 55.328125 
Q 8.5 64.0625 14.71875 69.140625 
Q 20.953125 74.21875 31.78125 74.21875 
Q 42.671875 74.21875 48.875 69.140625 
Q 55.078125 64.0625 55.078125 55.328125 
Q 55.078125 49.078125 51.53125 44.71875 
Q 48 40.375 41.703125 38.8125 
Q 48.828125 37.15625 52.796875 32.3125 
Q 56.78125 27.484375 56.78125 20.515625 
Q 56.78125 9.90625 50.3125 4.234375 
Q 43.84375 -1.421875 31.78125 -1.421875 
Q 19.734375 -1.421875 13.25 4.234375 
Q 6.78125 9.90625 6.78125 20.515625 
Q 6.78125 27.484375 10.78125 32.3125 
Q 14.796875 37.15625 21.921875 38.8125 
z
M 18.3125 54.390625 
Q 18.3125 48.734375 21.84375 45.5625 
Q 25.390625 42.390625 31.78125 42.390625 
Q 38.140625 42.390625 41.71875 45.5625 
Q 45.3125 48.734375 45.3125 54.390625 
Q 45.3125 60.0625 41.71875 63.234375 
Q 38.140625 66.40625 31.78125 66.40625 
Q 25.390625 66.40625 21.84375 63.234375 
Q 18.3125 60.0625 18.3125 54.390625 
z
" id="DejaVuSans-56"/>
      </defs>
      <g transform="translate(358.884222 333.074092)rotate(-30)scale(0.1 -0.1)">
       <use xlink:href="#DejaVuSans-50"/>
       <use x="63.623047" xlink:href="#DejaVuSans-48"/>
       <use x="127.246094" xlink:href="#DejaVuSans-50"/>
       <use x="190.869141" xlink:href="#DejaVuSans-48"/>
       <use x="254.492188" xlink:href="#DejaVuSans-45"/>
       <use x="290.576172" xlink:href="#DejaVuSans-48"/>
       <use x="354.199219" xlink:href="#DejaVuSans-56"/>
      </g>
     </g>
    </g>
    <g id="xtick_9">
     <g id="line2d_9">
      <g>
       <use style="stroke:#000000;" x="445.998035" xlink:href="#m12275ab26a" y="295.102246"/>
      </g>
     </g>
     <g id="text_9">
      <!-- 2020-09 -->
      <defs>
       <path d="M 10.984375 1.515625 
L 10.984375 10.5 
Q 14.703125 8.734375 18.5 7.8125 
Q 22.3125 6.890625 25.984375 6.890625 
Q 35.75 6.890625 40.890625 13.453125 
Q 46.046875 20.015625 46.78125 33.40625 
Q 43.953125 29.203125 39.59375 26.953125 
Q 35.25 24.703125 29.984375 24.703125 
Q 19.046875 24.703125 12.671875 31.3125 
Q 6.296875 37.9375 6.296875 49.421875 
Q 6.296875 60.640625 12.9375 67.421875 
Q 19.578125 74.21875 30.609375 74.21875 
Q 43.265625 74.21875 49.921875 64.515625 
Q 56.59375 54.828125 56.59375 36.375 
Q 56.59375 19.140625 48.40625 8.859375 
Q 40.234375 -1.421875 26.421875 -1.421875 
Q 22.703125 -1.421875 18.890625 -0.6875 
Q 15.09375 0.046875 10.984375 1.515625 
z
M 30.609375 32.421875 
Q 37.25 32.421875 41.125 36.953125 
Q 45.015625 41.5 45.015625 49.421875 
Q 45.015625 57.28125 41.125 61.84375 
Q 37.25 66.40625 30.609375 66.40625 
Q 23.96875 66.40625 20.09375 61.84375 
Q 16.21875 57.28125 16.21875 49.421875 
Q 16.21875 41.5 20.09375 36.953125 
Q 23.96875 32.421875 30.609375 32.421875 
z
" id="DejaVuSans-57"/>
      </defs>
      <g transform="translate(408.773214 333.074092)rotate(-30)scale(0.1 -0.1)">
       <use xlink:href="#DejaVuSans-50"/>
       <use x="63.623047" xlink:href="#DejaVuSans-48"/>
       <use x="127.246094" xlink:href="#DejaVuSans-50"/>
       <use x="190.869141" xlink:href="#DejaVuSans-48"/>
       <use x="254.492188" xlink:href="#DejaVuSans-45"/>
       <use x="290.576172" xlink:href="#DejaVuSans-48"/>
       <use x="354.199219" xlink:href="#DejaVuSans-57"/>
      </g>
     </g>
    </g>
    <g id="xtick_10">
     <g id="line2d_10">
      <g>
       <use style="stroke:#000000;" x="494.277705" xlink:href="#m12275ab26a" y="295.102246"/>
      </g>
     </g>
     <g id="text_10">
      <!-- 2020-10 -->
      <g transform="translate(457.052885 333.074092)rotate(-30)scale(0.1 -0.1)">
       <use xlink:href="#DejaVuSans-50"/>
       <use x="63.623047" xlink:href="#DejaVuSans-48"/>
       <use x="127.246094" xlink:href="#DejaVuSans-50"/>
       <use x="190.869141" xlink:href="#DejaVuSans-48"/>
       <use x="254.492188" xlink:href="#DejaVuSans-45"/>
       <use x="290.576172" xlink:href="#DejaVuSans-49"/>
       <use x="354.199219" xlink:href="#DejaVuSans-48"/>
      </g>
     </g>
    </g>
    <g id="text_11">
     <!-- Date -->
     <defs>
      <path d="M 19.671875 64.796875 
L 19.671875 8.109375 
L 31.59375 8.109375 
Q 46.6875 8.109375 53.6875 14.9375 
Q 60.6875 21.78125 60.6875 36.53125 
Q 60.6875 51.171875 53.6875 57.984375 
Q 46.6875 64.796875 31.59375 64.796875 
z
M 9.8125 72.90625 
L 30.078125 72.90625 
Q 51.265625 72.90625 61.171875 64.09375 
Q 71.09375 55.28125 71.09375 36.53125 
Q 71.09375 17.671875 61.125 8.828125 
Q 51.171875 0 30.078125 0 
L 9.8125 0 
z
" id="DejaVuSans-68"/>
      <path d="M 34.28125 27.484375 
Q 23.390625 27.484375 19.1875 25 
Q 14.984375 22.515625 14.984375 16.5 
Q 14.984375 11.71875 18.140625 8.90625 
Q 21.296875 6.109375 26.703125 6.109375 
Q 34.1875 6.109375 38.703125 11.40625 
Q 43.21875 16.703125 43.21875 25.484375 
L 43.21875 27.484375 
z
M 52.203125 31.203125 
L 52.203125 0 
L 43.21875 0 
L 43.21875 8.296875 
Q 40.140625 3.328125 35.546875 0.953125 
Q 30.953125 -1.421875 24.3125 -1.421875 
Q 15.921875 -1.421875 10.953125 3.296875 
Q 6 8.015625 6 15.921875 
Q 6 25.140625 12.171875 29.828125 
Q 18.359375 34.515625 30.609375 34.515625 
L 43.21875 34.515625 
L 43.21875 35.40625 
Q 43.21875 41.609375 39.140625 45 
Q 35.0625 48.390625 27.6875 48.390625 
Q 23 48.390625 18.546875 47.265625 
Q 14.109375 46.140625 10.015625 43.890625 
L 10.015625 52.203125 
Q 14.9375 54.109375 19.578125 55.046875 
Q 24.21875 56 28.609375 56 
Q 40.484375 56 46.34375 49.84375 
Q 52.203125 43.703125 52.203125 31.203125 
z
" id="DejaVuSans-97"/>
      <path d="M 18.3125 70.21875 
L 18.3125 54.6875 
L 36.8125 54.6875 
L 36.8125 47.703125 
L 18.3125 47.703125 
L 18.3125 18.015625 
Q 18.3125 11.328125 20.140625 9.421875 
Q 21.96875 7.515625 27.59375 7.515625 
L 36.8125 7.515625 
L 36.8125 0 
L 27.59375 0 
Q 17.1875 0 13.234375 3.875 
Q 9.28125 7.765625 9.28125 18.015625 
L 9.28125 47.703125 
L 2.6875 47.703125 
L 2.6875 54.6875 
L 9.28125 54.6875 
L 9.28125 70.21875 
z
" id="DejaVuSans-116"/>
      <path d="M 56.203125 29.59375 
L 56.203125 25.203125 
L 14.890625 25.203125 
Q 15.484375 15.921875 20.484375 11.0625 
Q 25.484375 6.203125 34.421875 6.203125 
Q 39.59375 6.203125 44.453125 7.46875 
Q 49.3125 8.734375 54.109375 11.28125 
L 54.109375 2.78125 
Q 49.265625 0.734375 44.1875 -0.34375 
Q 39.109375 -1.421875 33.890625 -1.421875 
Q 20.796875 -1.421875 13.15625 6.1875 
Q 5.515625 13.8125 5.515625 26.8125 
Q 5.515625 40.234375 12.765625 48.109375 
Q 20.015625 56 32.328125 56 
Q 43.359375 56 49.78125 48.890625 
Q 56.203125 41.796875 56.203125 29.59375 
z
M 47.21875 32.234375 
Q 47.125 39.59375 43.09375 43.984375 
Q 39.0625 48.390625 32.421875 48.390625 
Q 24.90625 48.390625 20.390625 44.140625 
Q 15.875 39.890625 15.1875 32.171875 
z
" id="DejaVuSans-101"/>
     </defs>
     <g transform="translate(273.529265 347.233436)scale(0.11 -0.11)">
      <use xlink:href="#DejaVuSans-68"/>
      <use x="77.001953" xlink:href="#DejaVuSans-97"/>
      <use x="138.28125" xlink:href="#DejaVuSans-116"/>
      <use x="177.490234" xlink:href="#DejaVuSans-101"/>
     </g>
    </g>
   </g>
   <g id="matplotlib.axis_2">
    <g id="ytick_1">
     <g id="line2d_11">
      <defs>
       <path d="M 0 0 
L -3.5 0 
" id="m95d428a414" style="stroke:#000000;"/>
      </defs>
      <g>
       <use style="stroke:#000000;" x="44.150248" xlink:href="#m95d428a414" y="282.906689"/>
      </g>
     </g>
     <g id="text_12">
      <!-- 0 -->
      <g transform="translate(27.287748 286.705908)scale(0.1 -0.1)">
       <use xlink:href="#DejaVuSans-48"/>
      </g>
     </g>
    </g>
    <g id="ytick_2">
     <g id="line2d_12">
      <g>
       <use style="stroke:#000000;" x="44.150248" xlink:href="#m95d428a414" y="252.427756"/>
      </g>
     </g>
     <g id="text_13">
      <!-- 50 -->
      <g transform="translate(20.925248 256.226975)scale(0.1 -0.1)">
       <use xlink:href="#DejaVuSans-53"/>
       <use x="63.623047" xlink:href="#DejaVuSans-48"/>
      </g>
     </g>
    </g>
    <g id="ytick_3">
     <g id="line2d_13">
      <g>
       <use style="stroke:#000000;" x="44.150248" xlink:href="#m95d428a414" y="221.948823"/>
      </g>
     </g>
     <g id="text_14">
      <!-- 100 -->
      <g transform="translate(14.562748 225.748042)scale(0.1 -0.1)">
       <use xlink:href="#DejaVuSans-49"/>
       <use x="63.623047" xlink:href="#DejaVuSans-48"/>
       <use x="127.246094" xlink:href="#DejaVuSans-48"/>
      </g>
     </g>
    </g>
    <g id="ytick_4">
     <g id="line2d_14">
      <g>
       <use style="stroke:#000000;" x="44.150248" xlink:href="#m95d428a414" y="191.46989"/>
      </g>
     </g>
     <g id="text_15">
      <!-- 150 -->
      <g transform="translate(14.562748 195.269108)scale(0.1 -0.1)">
       <use xlink:href="#DejaVuSans-49"/>
       <use x="63.623047" xlink:href="#DejaVuSans-53"/>
       <use x="127.246094" xlink:href="#DejaVuSans-48"/>
      </g>
     </g>
    </g>
    <g id="ytick_5">
     <g id="line2d_15">
      <g>
       <use style="stroke:#000000;" x="44.150248" xlink:href="#m95d428a414" y="160.990956"/>
      </g>
     </g>
     <g id="text_16">
      <!-- 200 -->
      <g transform="translate(14.562748 164.790175)scale(0.1 -0.1)">
       <use xlink:href="#DejaVuSans-50"/>
       <use x="63.623047" xlink:href="#DejaVuSans-48"/>
       <use x="127.246094" xlink:href="#DejaVuSans-48"/>
      </g>
     </g>
    </g>
    <g id="ytick_6">
     <g id="line2d_16">
      <g>
       <use style="stroke:#000000;" x="44.150248" xlink:href="#m95d428a414" y="130.512023"/>
      </g>
     </g>
     <g id="text_17">
      <!-- 250 -->
      <g transform="translate(14.562748 134.311242)scale(0.1 -0.1)">
       <use xlink:href="#DejaVuSans-50"/>
       <use x="63.623047" xlink:href="#DejaVuSans-53"/>
       <use x="127.246094" xlink:href="#DejaVuSans-48"/>
      </g>
     </g>
    </g>
    <g id="ytick_7">
     <g id="line2d_17">
      <g>
       <use style="stroke:#000000;" x="44.150248" xlink:href="#m95d428a414" y="100.03309"/>
      </g>
     </g>
     <g id="text_18">
      <!-- 300 -->
      <g transform="translate(14.562748 103.832309)scale(0.1 -0.1)">
       <use xlink:href="#DejaVuSans-51"/>
       <use x="63.623047" xlink:href="#DejaVuSans-48"/>
       <use x="127.246094" xlink:href="#DejaVuSans-48"/>
      </g>
     </g>
    </g>
    <g id="ytick_8">
     <g id="line2d_18">
      <g>
       <use style="stroke:#000000;" x="44.150248" xlink:href="#m95d428a414" y="69.554156"/>
      </g>
     </g>
     <g id="text_19">
      <!-- 350 -->
      <g transform="translate(14.562748 73.353375)scale(0.1 -0.1)">
       <use xlink:href="#DejaVuSans-51"/>
       <use x="63.623047" xlink:href="#DejaVuSans-53"/>
       <use x="127.246094" xlink:href="#DejaVuSans-48"/>
      </g>
     </g>
    </g>
    <g id="ytick_9">
     <g id="line2d_19">
      <g>
       <use style="stroke:#000000;" x="44.150248" xlink:href="#m95d428a414" y="39.075223"/>
      </g>
     </g>
     <g id="text_20">
      <!-- 400 -->
      <g transform="translate(14.562748 42.874442)scale(0.1 -0.1)">
       <use xlink:href="#DejaVuSans-52"/>
       <use x="63.623047" xlink:href="#DejaVuSans-48"/>
       <use x="127.246094" xlink:href="#DejaVuSans-48"/>
      </g>
     </g>
    </g>
   </g>
   <g id="line2d_20">
    <path clip-path="url(#p9f77715877)" d="M 66.197964 282.906689 
L 154.710693 282.803032 
L 165.975949 282.427082 
L 169.194594 282.126941 
L 174.022561 281.486433 
L 175.631883 280.999091 
L 177.241205 280.129609 
L 180.45985 278.669128 
L 182.069172 277.629464 
L 183.678495 277.193176 
L 185.287817 276.116381 
L 186.897139 274.728615 
L 188.506462 273.947319 
L 190.115784 272.036626 
L 191.725106 269.131135 
L 193.334429 267.172482 
L 194.943751 264.813124 
L 196.553073 262.780209 
L 198.162396 260.991739 
L 199.771718 257.123939 
L 201.38104 254.379349 
L 202.990363 252.723931 
L 204.599685 251.531102 
L 206.209007 246.817028 
L 207.81833 245.163157 
L 209.427652 244.290582 
L 211.036974 242.499017 
L 212.646297 242.166386 
L 214.255619 241.103515 
L 215.864941 239.663146 
L 217.474264 241.883263 
L 219.083586 242.157103 
L 220.692909 240.801827 
L 222.302231 243.277218 
L 223.911553 244.329259 
L 227.130198 245.212665 
L 228.73952 245.313228 
L 230.348843 246.238405 
L 231.958165 247.425046 
L 233.567487 247.684962 
L 235.17681 247.737564 
L 236.786132 249.255289 
L 238.395454 250.372309 
L 240.004777 252.623368 
L 241.614099 252.835324 
L 243.223421 254.534061 
L 244.832744 257.035754 
L 246.442066 257.964025 
L 248.051388 258.742227 
L 249.660711 259.667404 
L 251.270033 259.873171 
L 252.879355 261.078377 
L 254.488678 261.305804 
L 256.098 260.984003 
L 257.707322 261.527042 
L 260.925967 264.135486 
L 262.535289 265.701171 
L 264.144612 266.62016 
L 265.753934 267.819178 
L 267.363256 268.538589 
L 268.972579 269.99907 
L 270.581901 270.899493 
L 273.800546 271.567849 
L 275.409868 271.683883 
L 277.01919 272.008778 
L 280.237835 273.025236 
L 281.847157 273.070102 
L 285.065802 273.628612 
L 291.503091 275.5424 
L 293.112414 276.351543 
L 297.940381 277.477846 
L 299.549703 277.552108 
L 302.768348 277.915681 
L 304.37767 278.084317 
L 305.986992 278.537623 
L 307.596315 278.679958 
L 309.205637 278.992476 
L 310.814959 278.672223 
L 312.424282 279.289523 
L 315.642926 279.577288 
L 317.252249 279.654644 
L 320.470893 279.359144 
L 322.080216 279.976445 
L 323.689538 279.684039 
L 328.517505 279.900636 
L 344.610728 281.093465 
L 346.220051 280.985167 
L 349.438695 280.073913 
L 352.65734 278.933686 
L 354.266662 278.574754 
L 357.485307 277.329323 
L 359.094629 277.183894 
L 360.703952 277.21793 
L 362.313274 276.866734 
L 365.531919 276.419616 
L 367.141241 276.72904 
L 368.750563 276.883752 
L 370.359886 276.914695 
L 371.969208 276.674891 
L 375.187853 276.602177 
L 383.234464 276.237056 
L 384.843787 276.370109 
L 388.062431 276.168983 
L 394.499721 275.29486 
L 397.718365 275.345915 
L 399.327688 274.974607 
L 404.155655 274.683748 
L 407.374299 274.778122 
L 408.983622 274.295421 
L 410.592944 274.538319 
L 412.202266 273.891623 
L 413.811589 273.704421 
L 415.420911 273.343942 
L 417.030233 272.588948 
L 418.639556 272.194432 
L 423.467523 272.443519 
L 425.076845 272.780791 
L 426.686167 272.817922 
L 428.29549 273.399639 
L 429.904812 273.204702 
L 431.514134 273.226361 
L 436.342101 272.635362 
L 437.951424 272.148019 
L 439.560746 271.841689 
L 441.170068 272.103152 
L 442.779391 271.253784 
L 444.388713 270.64886 
L 445.998035 270.685991 
L 447.607358 270.122839 
L 449.21668 269.879941 
L 452.435325 268.102301 
L 454.044647 266.417488 
L 455.653969 264.284009 
L 460.481936 259.378093 
L 463.700581 254.728998 
L 465.309903 254.3252 
L 466.919226 254.741375 
L 468.528548 253.882724 
L 470.13787 252.165421 
L 471.747193 251.840526 
L 474.965837 249.894249 
L 476.57516 249.210422 
L 479.793804 244.518008 
L 481.403127 241.908017 
L 483.012449 237.508009 
L 484.621771 234.488031 
L 486.231094 232.939364 
L 487.840416 230.586195 
L 489.449738 231.263834 
L 491.059061 228.99885 
L 492.668383 228.112351 
L 494.277705 228.178877 
L 495.887028 229.61151 
L 497.49635 220.070423 
L 499.105672 194.529023 
L 502.324317 172.303102 
L 503.933639 163.218415 
L 505.542962 148.732733 
L 507.152284 139.488693 
L 507.152284 139.488693 
" style="fill:none;stroke:#1f77b4;stroke-linecap:square;stroke-width:1.75;"/>
   </g>
   <g id="line2d_21">
    <path clip-path="url(#p9f77715877)" d="M 66.197964 282.906689 
L 156.320015 282.811052 
L 165.975949 282.380683 
L 169.194594 281.727161 
L 172.413238 280.754847 
L 175.631883 280.228841 
L 177.241205 279.862231 
L 178.850528 279.623137 
L 180.45985 279.129011 
L 183.678495 278.714582 
L 186.897139 276.706196 
L 188.506462 275.06442 
L 190.115784 272.896638 
L 191.725106 271.159224 
L 193.334429 269.007382 
L 196.553073 265.946984 
L 198.162396 260.447832 
L 199.771718 257.546829 
L 201.38104 255.681899 
L 202.990363 251.95204 
L 204.599685 249.433587 
L 206.209007 245.895002 
L 207.81833 244.683594 
L 209.427652 247.265805 
L 211.036974 246.962953 
L 212.646297 245.368996 
L 214.255619 246.660101 
L 215.864941 247.122349 
L 217.474264 247.743992 
L 219.083586 249.33795 
L 220.692909 248.971339 
L 222.302231 248.110603 
L 223.911553 248.716306 
L 225.520876 248.891642 
L 227.130198 247.361443 
L 228.73952 246.644162 
L 230.348843 244.922688 
L 231.958165 246.022519 
L 233.567487 246.405068 
L 235.17681 246.134096 
L 236.786132 246.436947 
L 238.395454 247.345503 
L 240.004777 248.843823 
L 241.614099 249.895835 
L 243.223421 250.246505 
L 246.442066 251.92016 
L 248.051388 251.712946 
L 249.660711 253.004051 
L 251.270033 254.645827 
L 254.488678 255.554383 
L 256.098 256.207905 
L 257.707322 257.865621 
L 259.316645 259.077028 
L 260.925967 260.941958 
L 262.535289 260.766623 
L 265.753934 261.770816 
L 267.363256 263.460411 
L 268.972579 263.890779 
L 270.581901 265.197824 
L 272.191223 264.703698 
L 275.409868 267.493123 
L 280.237835 271.127345 
L 281.847157 271.605532 
L 283.45648 273.438583 
L 285.065802 273.91677 
L 286.675124 273.94865 
L 288.284447 274.458716 
L 289.893769 275.112238 
L 291.503091 276.020794 
L 293.112414 277.200322 
L 294.721736 277.471295 
L 297.940381 278.730521 
L 299.549703 278.347972 
L 301.159025 278.698642 
L 302.768348 278.682703 
L 304.37767 278.842098 
L 305.986992 279.384044 
L 309.205637 279.384044 
L 310.814959 280.005687 
L 312.424282 280.340418 
L 314.033604 280.850484 
L 317.252249 280.882364 
L 323.689538 280.436056 
L 326.908183 280.531693 
L 330.126827 280.436056 
L 331.73615 280.675149 
L 333.345472 280.722968 
L 336.564117 281.00988 
L 339.782761 281.344611 
L 341.392084 281.631524 
L 343.001406 281.77498 
L 359.094629 282.093771 
L 360.703952 281.998134 
L 362.313274 282.061892 
L 363.922596 281.902496 
L 371.969208 281.822798 
L 373.57853 281.599644 
L 376.797175 281.519947 
L 378.406497 281.217095 
L 384.843787 280.914243 
L 386.453109 281.217095 
L 388.062431 281.280853 
L 389.671754 281.567765 
L 391.281076 281.37649 
L 392.890398 281.360551 
L 394.499721 281.201155 
L 396.109043 281.344611 
L 397.718365 280.914243 
L 400.93701 280.372297 
L 404.155655 278.921796 
L 405.764977 278.714582 
L 407.374299 278.04512 
L 412.202266 277.136564 
L 415.420911 277.710389 
L 417.030233 277.359718 
L 420.248878 277.582872 
L 425.076845 277.630691 
L 426.686167 277.152504 
L 428.29549 277.056866 
L 429.904812 275.909217 
L 433.123457 274.634051 
L 434.732779 274.713749 
L 436.342101 274.442776 
L 437.951424 274.586232 
L 439.560746 274.905024 
L 441.170068 275.462909 
L 442.779391 274.825326 
L 444.388713 273.327006 
L 445.998035 271.573653 
L 447.607358 270.155031 
L 449.21668 269.629025 
L 450.826002 267.907552 
L 452.435325 267.062754 
L 454.044647 265.707891 
L 455.653969 265.931045 
L 457.263292 265.580374 
L 458.872614 265.532555 
L 460.481936 264.576181 
L 462.091259 264.321148 
L 463.700581 263.045982 
L 465.309903 262.472157 
L 466.919226 263.683565 
L 468.528548 262.233064 
L 470.13787 260.51159 
L 471.747193 258.455385 
L 473.356515 258.009077 
L 474.965837 255.952872 
L 476.57516 255.936933 
L 478.184482 252.988112 
L 479.793804 251.139121 
L 481.403127 247.648355 
L 483.012449 244.85893 
L 486.231094 233.398377 
L 487.840416 231.820359 
L 489.449738 232.346365 
L 491.059061 225.603926 
L 492.668383 223.149232 
L 495.887028 216.454612 
L 497.49635 215.657633 
L 499.105672 209.05865 
L 500.714995 201.487353 
L 502.324317 201.58299 
L 503.933639 194.984007 
L 505.542962 189.261701 
L 507.152284 181.754162 
L 507.152284 181.754162 
" style="fill:none;stroke:#ff7f0e;stroke-linecap:square;stroke-width:1.75;"/>
   </g>
   <g id="line2d_22">
    <path clip-path="url(#p9f77715877)" d="M 66.197964 282.906689 
L 162.757304 282.823829 
L 164.366627 282.768589 
L 169.194594 281.912368 
L 170.803916 281.304727 
L 172.413238 280.365645 
L 174.022561 279.592284 
L 175.631883 279.316083 
L 177.241205 279.205603 
L 180.45985 278.680822 
L 182.069172 276.830279 
L 183.678495 275.918817 
L 185.287817 274.786395 
L 186.897139 273.460633 
L 188.506462 269.676687 
L 190.115784 267.135642 
L 191.725106 262.744055 
L 194.943751 258.214367 
L 196.553073 254.375181 
L 198.162396 252.938938 
L 199.771718 249.514052 
L 202.990363 240.233717 
L 204.599685 234.295406 
L 206.209007 228.881877 
L 207.81833 226.340833 
L 209.427652 221.396844 
L 211.036974 221.148264 
L 212.646297 228.550437 
L 214.255619 224.214089 
L 215.864941 225.512231 
L 217.474264 224.87697 
L 219.083586 224.57315 
L 220.692909 226.037012 
L 222.302231 226.340833 
L 223.911553 218.93866 
L 225.520876 226.064632 
L 227.130198 227.390395 
L 230.348843 229.323798 
L 231.958165 227.500875 
L 233.567487 227.445635 
L 235.17681 228.826637 
L 236.786132 228.854257 
L 238.395454 228.660917 
L 240.004777 232.969644 
L 243.223421 236.974551 
L 244.832744 241.310898 
L 246.442066 242.719521 
L 248.051388 245.011985 
L 249.660711 248.21591 
L 252.879355 248.547351 
L 254.488678 250.950295 
L 256.098 251.557936 
L 257.707322 254.20946 
L 259.316645 254.430421 
L 260.925967 256.225724 
L 262.535289 254.872342 
L 264.144612 256.833365 
L 265.753934 257.938167 
L 268.972579 255.756183 
L 270.581901 256.474304 
L 272.191223 254.679001 
L 273.800546 256.363824 
L 275.409868 256.999085 
L 277.01919 255.314262 
L 278.628513 255.949523 
L 280.237835 254.899962 
L 281.847157 254.568521 
L 283.45648 254.513281 
L 285.065802 255.120922 
L 286.675124 254.982822 
L 288.284447 255.673323 
L 289.893769 256.032384 
L 291.503091 258.628668 
L 293.112414 259.62299 
L 294.721736 262.357374 
L 296.331058 263.959337 
L 297.940381 265.257479 
L 299.549703 267.301363 
L 301.159025 267.715663 
L 302.768348 268.737605 
L 304.37767 269.455726 
L 307.596315 271.83105 
L 309.205637 272.300591 
L 310.814959 272.991092 
L 312.424282 274.206374 
L 314.033604 273.433013 
L 318.861571 273.350153 
L 323.689538 271.74819 
L 325.29886 272.162491 
L 326.908183 273.433013 
L 328.517505 273.985414 
L 330.126827 272.300591 
L 331.73615 272.052011 
L 333.345472 272.438691 
L 334.954794 272.604412 
L 336.564117 270.477668 
L 338.173439 269.538587 
L 339.782761 268.958566 
L 341.392084 271.030069 
L 343.001406 269.787167 
L 344.610728 270.477668 
L 346.220051 270.891969 
L 347.829373 273.212053 
L 349.438695 274.289235 
L 352.65734 274.896876 
L 354.266662 277.879841 
L 355.875985 278.542722 
L 357.485307 279.067503 
L 359.094629 279.758004 
L 360.703952 280.199925 
L 362.313274 280.945666 
L 365.531919 280.835186 
L 367.141241 280.310405 
L 373.57853 279.868484 
L 375.187853 279.454183 
L 380.01582 279.205603 
L 384.843787 277.16172 
L 386.453109 277.4103 
L 388.062431 276.581699 
L 389.671754 276.609319 
L 391.281076 276.333118 
L 392.890398 277.2722 
L 394.499721 277.796981 
L 396.109043 278.045561 
L 397.718365 277.63126 
L 399.327688 278.211281 
L 400.93701 278.183661 
L 402.546332 278.680822 
L 404.155655 278.515102 
L 405.764977 278.763682 
L 407.374299 278.818922 
L 412.202266 279.702764 
L 413.811589 279.868484 
L 417.030233 279.840864 
L 418.639556 279.619904 
L 420.248878 279.840864 
L 421.8582 279.785624 
L 425.076845 279.122743 
L 426.686167 279.012263 
L 428.29549 278.570342 
L 429.904812 278.377002 
L 433.123457 278.183661 
L 434.732779 278.073181 
L 437.951424 277.2722 
L 439.560746 277.2722 
L 441.170068 277.106479 
L 442.779391 276.112158 
L 445.998035 274.924496 
L 447.607358 274.703535 
L 450.826002 273.819694 
L 452.435325 272.797752 
L 454.044647 271.63771 
L 457.263292 266.307041 
L 458.872614 262.909775 
L 460.481936 261.473533 
L 463.700581 256.805745 
L 465.309903 255.038062 
L 466.919226 253.657059 
L 468.528548 254.761861 
L 470.13787 253.82278 
L 471.747193 251.999857 
L 474.965837 249.237852 
L 476.57516 248.21591 
L 478.184482 246.807288 
L 479.793804 242.08426 
L 483.012449 231.864842 
L 484.621771 228.136136 
L 487.840416 219.270101 
L 489.449738 217.833858 
L 491.059061 215.486154 
L 492.668383 215.513774 
L 494.277705 214.132772 
L 495.887028 210.210725 
L 497.49635 204.520996 
L 499.105672 202.587592 
L 500.714995 194.025378 
L 502.324317 192.395795 
L 503.933639 182.342098 
L 505.542962 175.713287 
L 507.152284 167.316792 
L 507.152284 167.316792 
" style="fill:none;stroke:#2ca02c;stroke-linecap:square;stroke-width:1.75;"/>
   </g>
   <g id="line2d_23">
    <path clip-path="url(#p9f77715877)" d="M 66.197964 282.906689 
L 157.929337 282.814717 
L 159.53866 282.722744 
L 162.757304 282.354854 
L 165.975949 282.262882 
L 167.585271 282.216895 
L 169.194594 281.849005 
L 170.803916 281.711047 
L 178.850528 280.239486 
L 180.45985 280.285472 
L 182.069172 279.503706 
L 183.678495 279.08983 
L 186.897139 277.848201 
L 188.506462 276.422626 
L 191.725106 274.215286 
L 193.334429 272.973657 
L 194.943751 269.938563 
L 196.553073 265.201979 
L 198.162396 263.868377 
L 199.771718 260.833284 
L 201.38104 258.396012 
L 202.990363 253.981331 
L 204.599685 251.911949 
L 206.209007 251.682018 
L 207.81833 254.165276 
L 209.427652 252.14188 
L 211.036974 253.015619 
L 212.646297 250.578347 
L 214.255619 251.4061 
L 215.864941 249.842567 
L 217.474264 249.93454 
L 219.083586 249.612636 
L 220.692909 250.164471 
L 222.302231 248.462979 
L 223.911553 249.612636 
L 225.520876 248.462979 
L 227.130198 247.543254 
L 228.73952 244.324216 
L 230.348843 244.002312 
L 231.958165 246.531556 
L 233.567487 246.761488 
L 235.17681 245.427886 
L 236.786132 246.85346 
L 238.395454 248.876856 
L 240.004777 252.417798 
L 241.614099 253.199564 
L 243.223421 253.015619 
L 244.832744 255.820781 
L 246.442066 258.993833 
L 248.051388 259.867572 
L 249.660711 261.61505 
L 251.270033 261.798995 
L 252.879355 261.661036 
L 254.488678 261.155187 
L 256.098 261.24716 
L 257.707322 262.304844 
L 259.316645 264.558171 
L 260.925967 265.018033 
L 264.144612 268.512989 
L 265.753934 268.558976 
L 267.363256 268.237072 
L 270.581901 269.340742 
L 272.191223 270.076522 
L 275.409868 271.318151 
L 277.01919 272.421822 
L 278.628513 274.353245 
L 280.237835 274.1693 
L 281.847157 274.307258 
L 283.45648 274.261272 
L 285.065802 274.399231 
L 286.675124 273.341547 
L 289.893769 272.605767 
L 291.503091 273.801409 
L 293.112414 274.077327 
L 294.721736 275.364942 
L 296.331058 276.192695 
L 299.549703 278.537994 
L 301.159025 279.365747 
L 302.768348 278.583981 
L 304.37767 279.227788 
L 307.596315 279.227788 
L 309.205637 279.503706 
L 310.814959 279.549692 
L 312.424282 279.319761 
L 314.033604 280.653362 
L 315.642926 280.055541 
L 317.252249 280.56139 
L 318.861571 280.515404 
L 323.689538 280.883294 
L 325.29886 281.021253 
L 326.908183 281.619074 
L 336.564117 282.40084 
L 339.782761 282.262882 
L 341.392084 282.40084 
L 344.610728 282.03295 
L 346.220051 282.078937 
L 347.829373 281.803019 
L 351.048018 281.894992 
L 352.65734 281.940978 
L 354.266662 282.216895 
L 357.485307 281.986964 
L 359.094629 282.170909 
L 365.531919 282.170909 
L 367.141241 282.308868 
L 368.750563 282.078937 
L 371.969208 280.791321 
L 380.01582 280.791321 
L 381.625142 281.159211 
L 383.234464 281.343156 
L 388.062431 281.343156 
L 389.671754 281.021253 
L 392.890398 281.021253 
L 394.499721 281.251184 
L 402.546332 281.251184 
L 404.155655 279.641665 
L 405.764977 279.411733 
L 410.592944 279.411733 
L 412.202266 277.572283 
L 413.811589 276.698544 
L 415.420911 278.308063 
L 417.030233 275.594874 
L 418.639556 272.605767 
L 420.248878 271.364138 
L 421.8582 269.570673 
L 423.467523 269.892577 
L 425.076845 269.662646 
L 426.686167 267.685237 
L 428.29549 270.168495 
L 429.904812 269.892577 
L 431.514134 265.661841 
L 433.123457 266.995443 
L 434.732779 266.719525 
L 436.342101 264.972047 
L 437.951424 264.144295 
L 439.560746 261.155187 
L 441.170068 260.327435 
L 442.779391 263.546473 
L 444.388713 261.339133 
L 445.998035 261.24716 
L 447.607358 261.293146 
L 449.21668 260.925256 
L 450.826002 262.028926 
L 452.435325 260.695325 
L 454.044647 258.074108 
L 455.653969 254.257248 
L 457.263292 254.671125 
L 458.872614 255.682822 
L 460.481936 255.636836 
L 462.091259 254.395207 
L 463.700581 255.039015 
L 465.309903 255.912754 
L 466.919226 257.384314 
L 468.528548 255.59085 
L 470.13787 251.911949 
L 473.356515 245.197955 
L 474.965837 239.771576 
L 476.57516 235.678798 
L 478.184482 234.943018 
L 479.793804 235.126963 
L 481.403127 230.942213 
L 483.012449 229.102763 
L 484.621771 224.044274 
L 486.231094 219.583607 
L 487.840416 219.077758 
L 489.449738 214.709063 
L 491.059061 203.442429 
L 492.668383 194.061231 
L 494.277705 190.842193 
L 495.887028 160.445274 
L 497.49635 141.728866 
L 499.105672 129.082644 
L 500.714995 110.872084 
L 502.324317 94.822878 
L 503.933639 76.244429 
L 505.542962 45.709551 
L 507.152284 38.995557 
L 507.152284 38.995557 
" style="fill:none;stroke:#d62728;stroke-linecap:square;stroke-width:1.75;"/>
   </g>
   <g id="patch_3">
    <path d="M 44.150248 295.102246 
L 44.150248 26.8 
" style="fill:none;stroke:#000000;stroke-linecap:square;stroke-linejoin:miter;stroke-width:0.8;"/>
   </g>
   <g id="patch_4">
    <path d="M 529.2 295.102246 
L 529.2 26.8 
" style="fill:none;stroke:#000000;stroke-linecap:square;stroke-linejoin:miter;stroke-width:0.8;"/>
   </g>
   <g id="patch_5">
    <path d="M 44.150248 295.102246 
L 529.2 295.102246 
" style="fill:none;stroke:#000000;stroke-linecap:square;stroke-linejoin:miter;stroke-width:0.8;"/>
   </g>
   <g id="patch_6">
    <path d="M 44.150248 26.8 
L 529.2 26.8 
" style="fill:none;stroke:#000000;stroke-linecap:square;stroke-linejoin:miter;stroke-width:0.8;"/>
   </g>
   <g id="text_21">
    <!-- New Deaths per Million (7 day rolling) -->
    <defs>
     <path d="M 9.8125 72.90625 
L 23.09375 72.90625 
L 55.421875 11.921875 
L 55.421875 72.90625 
L 64.984375 72.90625 
L 64.984375 0 
L 51.703125 0 
L 19.390625 60.984375 
L 19.390625 0 
L 9.8125 0 
z
" id="DejaVuSans-78"/>
     <path d="M 4.203125 54.6875 
L 13.1875 54.6875 
L 24.421875 12.015625 
L 35.59375 54.6875 
L 46.1875 54.6875 
L 57.421875 12.015625 
L 68.609375 54.6875 
L 77.59375 54.6875 
L 63.28125 0 
L 52.6875 0 
L 40.921875 44.828125 
L 29.109375 0 
L 18.5 0 
z
" id="DejaVuSans-119"/>
     <path id="DejaVuSans-32"/>
     <path d="M 54.890625 33.015625 
L 54.890625 0 
L 45.90625 0 
L 45.90625 32.71875 
Q 45.90625 40.484375 42.875 44.328125 
Q 39.84375 48.1875 33.796875 48.1875 
Q 26.515625 48.1875 22.3125 43.546875 
Q 18.109375 38.921875 18.109375 30.90625 
L 18.109375 0 
L 9.078125 0 
L 9.078125 75.984375 
L 18.109375 75.984375 
L 18.109375 46.1875 
Q 21.34375 51.125 25.703125 53.5625 
Q 30.078125 56 35.796875 56 
Q 45.21875 56 50.046875 50.171875 
Q 54.890625 44.34375 54.890625 33.015625 
z
" id="DejaVuSans-104"/>
     <path d="M 44.28125 53.078125 
L 44.28125 44.578125 
Q 40.484375 46.53125 36.375 47.5 
Q 32.28125 48.484375 27.875 48.484375 
Q 21.1875 48.484375 17.84375 46.4375 
Q 14.5 44.390625 14.5 40.28125 
Q 14.5 37.15625 16.890625 35.375 
Q 19.28125 33.59375 26.515625 31.984375 
L 29.59375 31.296875 
Q 39.15625 29.25 43.1875 25.515625 
Q 47.21875 21.78125 47.21875 15.09375 
Q 47.21875 7.46875 41.1875 3.015625 
Q 35.15625 -1.421875 24.609375 -1.421875 
Q 20.21875 -1.421875 15.453125 -0.5625 
Q 10.6875 0.296875 5.421875 2 
L 5.421875 11.28125 
Q 10.40625 8.6875 15.234375 7.390625 
Q 20.0625 6.109375 24.8125 6.109375 
Q 31.15625 6.109375 34.5625 8.28125 
Q 37.984375 10.453125 37.984375 14.40625 
Q 37.984375 18.0625 35.515625 20.015625 
Q 33.0625 21.96875 24.703125 23.78125 
L 21.578125 24.515625 
Q 13.234375 26.265625 9.515625 29.90625 
Q 5.8125 33.546875 5.8125 39.890625 
Q 5.8125 47.609375 11.28125 51.796875 
Q 16.75 56 26.8125 56 
Q 31.78125 56 36.171875 55.265625 
Q 40.578125 54.546875 44.28125 53.078125 
z
" id="DejaVuSans-115"/>
     <path d="M 18.109375 8.203125 
L 18.109375 -20.796875 
L 9.078125 -20.796875 
L 9.078125 54.6875 
L 18.109375 54.6875 
L 18.109375 46.390625 
Q 20.953125 51.265625 25.265625 53.625 
Q 29.59375 56 35.59375 56 
Q 45.5625 56 51.78125 48.09375 
Q 58.015625 40.1875 58.015625 27.296875 
Q 58.015625 14.40625 51.78125 6.484375 
Q 45.5625 -1.421875 35.59375 -1.421875 
Q 29.59375 -1.421875 25.265625 0.953125 
Q 20.953125 3.328125 18.109375 8.203125 
z
M 48.6875 27.296875 
Q 48.6875 37.203125 44.609375 42.84375 
Q 40.53125 48.484375 33.40625 48.484375 
Q 26.265625 48.484375 22.1875 42.84375 
Q 18.109375 37.203125 18.109375 27.296875 
Q 18.109375 17.390625 22.1875 11.75 
Q 26.265625 6.109375 33.40625 6.109375 
Q 40.53125 6.109375 44.609375 11.75 
Q 48.6875 17.390625 48.6875 27.296875 
z
" id="DejaVuSans-112"/>
     <path d="M 41.109375 46.296875 
Q 39.59375 47.171875 37.8125 47.578125 
Q 36.03125 48 33.890625 48 
Q 26.265625 48 22.1875 43.046875 
Q 18.109375 38.09375 18.109375 28.8125 
L 18.109375 0 
L 9.078125 0 
L 9.078125 54.6875 
L 18.109375 54.6875 
L 18.109375 46.1875 
Q 20.953125 51.171875 25.484375 53.578125 
Q 30.03125 56 36.53125 56 
Q 37.453125 56 38.578125 55.875 
Q 39.703125 55.765625 41.0625 55.515625 
z
" id="DejaVuSans-114"/>
     <path d="M 9.8125 72.90625 
L 24.515625 72.90625 
L 43.109375 23.296875 
L 61.8125 72.90625 
L 76.515625 72.90625 
L 76.515625 0 
L 66.890625 0 
L 66.890625 64.015625 
L 48.09375 14.015625 
L 38.1875 14.015625 
L 19.390625 64.015625 
L 19.390625 0 
L 9.8125 0 
z
" id="DejaVuSans-77"/>
     <path d="M 9.421875 54.6875 
L 18.40625 54.6875 
L 18.40625 0 
L 9.421875 0 
z
M 9.421875 75.984375 
L 18.40625 75.984375 
L 18.40625 64.59375 
L 9.421875 64.59375 
z
" id="DejaVuSans-105"/>
     <path d="M 9.421875 75.984375 
L 18.40625 75.984375 
L 18.40625 0 
L 9.421875 0 
z
" id="DejaVuSans-108"/>
     <path d="M 30.609375 48.390625 
Q 23.390625 48.390625 19.1875 42.75 
Q 14.984375 37.109375 14.984375 27.296875 
Q 14.984375 17.484375 19.15625 11.84375 
Q 23.34375 6.203125 30.609375 6.203125 
Q 37.796875 6.203125 41.984375 11.859375 
Q 46.1875 17.53125 46.1875 27.296875 
Q 46.1875 37.015625 41.984375 42.703125 
Q 37.796875 48.390625 30.609375 48.390625 
z
M 30.609375 56 
Q 42.328125 56 49.015625 48.375 
Q 55.71875 40.765625 55.71875 27.296875 
Q 55.71875 13.875 49.015625 6.21875 
Q 42.328125 -1.421875 30.609375 -1.421875 
Q 18.84375 -1.421875 12.171875 6.21875 
Q 5.515625 13.875 5.515625 27.296875 
Q 5.515625 40.765625 12.171875 48.375 
Q 18.84375 56 30.609375 56 
z
" id="DejaVuSans-111"/>
     <path d="M 54.890625 33.015625 
L 54.890625 0 
L 45.90625 0 
L 45.90625 32.71875 
Q 45.90625 40.484375 42.875 44.328125 
Q 39.84375 48.1875 33.796875 48.1875 
Q 26.515625 48.1875 22.3125 43.546875 
Q 18.109375 38.921875 18.109375 30.90625 
L 18.109375 0 
L 9.078125 0 
L 9.078125 54.6875 
L 18.109375 54.6875 
L 18.109375 46.1875 
Q 21.34375 51.125 25.703125 53.5625 
Q 30.078125 56 35.796875 56 
Q 45.21875 56 50.046875 50.171875 
Q 54.890625 44.34375 54.890625 33.015625 
z
" id="DejaVuSans-110"/>
     <path d="M 31 75.875 
Q 24.46875 64.65625 21.28125 53.65625 
Q 18.109375 42.671875 18.109375 31.390625 
Q 18.109375 20.125 21.3125 9.0625 
Q 24.515625 -2 31 -13.1875 
L 23.1875 -13.1875 
Q 15.875 -1.703125 12.234375 9.375 
Q 8.59375 20.453125 8.59375 31.390625 
Q 8.59375 42.28125 12.203125 53.3125 
Q 15.828125 64.359375 23.1875 75.875 
z
" id="DejaVuSans-40"/>
     <path d="M 45.40625 46.390625 
L 45.40625 75.984375 
L 54.390625 75.984375 
L 54.390625 0 
L 45.40625 0 
L 45.40625 8.203125 
Q 42.578125 3.328125 38.25 0.953125 
Q 33.9375 -1.421875 27.875 -1.421875 
Q 17.96875 -1.421875 11.734375 6.484375 
Q 5.515625 14.40625 5.515625 27.296875 
Q 5.515625 40.1875 11.734375 48.09375 
Q 17.96875 56 27.875 56 
Q 33.9375 56 38.25 53.625 
Q 42.578125 51.265625 45.40625 46.390625 
z
M 14.796875 27.296875 
Q 14.796875 17.390625 18.875 11.75 
Q 22.953125 6.109375 30.078125 6.109375 
Q 37.203125 6.109375 41.296875 11.75 
Q 45.40625 17.390625 45.40625 27.296875 
Q 45.40625 37.203125 41.296875 42.84375 
Q 37.203125 48.484375 30.078125 48.484375 
Q 22.953125 48.484375 18.875 42.84375 
Q 14.796875 37.203125 14.796875 27.296875 
z
" id="DejaVuSans-100"/>
     <path d="M 32.171875 -5.078125 
Q 28.375 -14.84375 24.75 -17.8125 
Q 21.140625 -20.796875 15.09375 -20.796875 
L 7.90625 -20.796875 
L 7.90625 -13.28125 
L 13.1875 -13.28125 
Q 16.890625 -13.28125 18.9375 -11.515625 
Q 21 -9.765625 23.484375 -3.21875 
L 25.09375 0.875 
L 2.984375 54.6875 
L 12.5 54.6875 
L 29.59375 11.921875 
L 46.6875 54.6875 
L 56.203125 54.6875 
z
" id="DejaVuSans-121"/>
     <path d="M 45.40625 27.984375 
Q 45.40625 37.75 41.375 43.109375 
Q 37.359375 48.484375 30.078125 48.484375 
Q 22.859375 48.484375 18.828125 43.109375 
Q 14.796875 37.75 14.796875 27.984375 
Q 14.796875 18.265625 18.828125 12.890625 
Q 22.859375 7.515625 30.078125 7.515625 
Q 37.359375 7.515625 41.375 12.890625 
Q 45.40625 18.265625 45.40625 27.984375 
z
M 54.390625 6.78125 
Q 54.390625 -7.171875 48.1875 -13.984375 
Q 42 -20.796875 29.203125 -20.796875 
Q 24.46875 -20.796875 20.265625 -20.09375 
Q 16.0625 -19.390625 12.109375 -17.921875 
L 12.109375 -9.1875 
Q 16.0625 -11.328125 19.921875 -12.34375 
Q 23.78125 -13.375 27.78125 -13.375 
Q 36.625 -13.375 41.015625 -8.765625 
Q 45.40625 -4.15625 45.40625 5.171875 
L 45.40625 9.625 
Q 42.625 4.78125 38.28125 2.390625 
Q 33.9375 0 27.875 0 
Q 17.828125 0 11.671875 7.65625 
Q 5.515625 15.328125 5.515625 27.984375 
Q 5.515625 40.671875 11.671875 48.328125 
Q 17.828125 56 27.875 56 
Q 33.9375 56 38.28125 53.609375 
Q 42.625 51.21875 45.40625 46.390625 
L 45.40625 54.6875 
L 54.390625 54.6875 
z
" id="DejaVuSans-103"/>
     <path d="M 8.015625 75.875 
L 15.828125 75.875 
Q 23.140625 64.359375 26.78125 53.3125 
Q 30.421875 42.28125 30.421875 31.390625 
Q 30.421875 20.453125 26.78125 9.375 
Q 23.140625 -1.703125 15.828125 -13.1875 
L 8.015625 -13.1875 
Q 14.5 -2 17.703125 9.0625 
Q 20.90625 20.125 20.90625 31.390625 
Q 20.90625 42.671875 17.703125 53.65625 
Q 14.5 64.65625 8.015625 75.875 
z
" id="DejaVuSans-41"/>
    </defs>
    <g transform="translate(173.440124 20.8)scale(0.12 -0.12)">
     <use xlink:href="#DejaVuSans-78"/>
     <use x="74.804688" xlink:href="#DejaVuSans-101"/>
     <use x="136.328125" xlink:href="#DejaVuSans-119"/>
     <use x="218.115234" xlink:href="#DejaVuSans-32"/>
     <use x="249.902344" xlink:href="#DejaVuSans-68"/>
     <use x="326.904297" xlink:href="#DejaVuSans-101"/>
     <use x="388.427734" xlink:href="#DejaVuSans-97"/>
     <use x="449.707031" xlink:href="#DejaVuSans-116"/>
     <use x="488.916016" xlink:href="#DejaVuSans-104"/>
     <use x="552.294922" xlink:href="#DejaVuSans-115"/>
     <use x="604.394531" xlink:href="#DejaVuSans-32"/>
     <use x="636.181641" xlink:href="#DejaVuSans-112"/>
     <use x="699.658203" xlink:href="#DejaVuSans-101"/>
     <use x="761.181641" xlink:href="#DejaVuSans-114"/>
     <use x="802.294922" xlink:href="#DejaVuSans-32"/>
     <use x="834.082031" xlink:href="#DejaVuSans-77"/>
     <use x="920.361328" xlink:href="#DejaVuSans-105"/>
     <use x="948.144531" xlink:href="#DejaVuSans-108"/>
     <use x="975.927734" xlink:href="#DejaVuSans-108"/>
     <use x="1003.710938" xlink:href="#DejaVuSans-105"/>
     <use x="1031.494141" xlink:href="#DejaVuSans-111"/>
     <use x="1092.675781" xlink:href="#DejaVuSans-110"/>
     <use x="1156.054688" xlink:href="#DejaVuSans-32"/>
     <use x="1187.841797" xlink:href="#DejaVuSans-40"/>
     <use x="1226.855469" xlink:href="#DejaVuSans-55"/>
     <use x="1290.478516" xlink:href="#DejaVuSans-32"/>
     <use x="1322.265625" xlink:href="#DejaVuSans-100"/>
     <use x="1385.742188" xlink:href="#DejaVuSans-97"/>
     <use x="1447.021484" xlink:href="#DejaVuSans-121"/>
     <use x="1506.201172" xlink:href="#DejaVuSans-32"/>
     <use x="1537.988281" xlink:href="#DejaVuSans-114"/>
     <use x="1576.851562" xlink:href="#DejaVuSans-111"/>
     <use x="1638.033203" xlink:href="#DejaVuSans-108"/>
     <use x="1665.816406" xlink:href="#DejaVuSans-108"/>
     <use x="1693.599609" xlink:href="#DejaVuSans-105"/>
     <use x="1721.382812" xlink:href="#DejaVuSans-110"/>
     <use x="1784.761719" xlink:href="#DejaVuSans-103"/>
     <use x="1848.238281" xlink:href="#DejaVuSans-41"/>
    </g>
   </g>
   <g id="legend_1">
    <g id="patch_7">
     <path d="M 51.150248 93.5125 
L 186.317436 93.5125 
Q 188.317436 93.5125 188.317436 91.5125 
L 188.317436 33.8 
Q 188.317436 31.8 186.317436 31.8 
L 51.150248 31.8 
Q 49.150248 31.8 49.150248 33.8 
L 49.150248 91.5125 
Q 49.150248 93.5125 51.150248 93.5125 
z
" style="fill:#ffffff;opacity:0.8;stroke:#cccccc;stroke-linejoin:miter;stroke-width:0.3;"/>
    </g>
    <g id="line2d_24">
     <path d="M 53.150248 39.898438 
L 73.150248 39.898438 
" style="fill:none;stroke:#1f77b4;stroke-linecap:square;stroke-width:1.75;"/>
    </g>
    <g id="line2d_25"/>
    <g id="text_22">
     <!-- ENGLAND -->
     <defs>
      <path d="M 9.8125 72.90625 
L 55.90625 72.90625 
L 55.90625 64.59375 
L 19.671875 64.59375 
L 19.671875 43.015625 
L 54.390625 43.015625 
L 54.390625 34.71875 
L 19.671875 34.71875 
L 19.671875 8.296875 
L 56.78125 8.296875 
L 56.78125 0 
L 9.8125 0 
z
" id="DejaVuSans-69"/>
      <path d="M 59.515625 10.40625 
L 59.515625 29.984375 
L 43.40625 29.984375 
L 43.40625 38.09375 
L 69.28125 38.09375 
L 69.28125 6.78125 
Q 63.578125 2.734375 56.6875 0.65625 
Q 49.8125 -1.421875 42 -1.421875 
Q 24.90625 -1.421875 15.25 8.5625 
Q 5.609375 18.5625 5.609375 36.375 
Q 5.609375 54.25 15.25 64.234375 
Q 24.90625 74.21875 42 74.21875 
Q 49.125 74.21875 55.546875 72.453125 
Q 61.96875 70.703125 67.390625 67.28125 
L 67.390625 56.78125 
Q 61.921875 61.421875 55.765625 63.765625 
Q 49.609375 66.109375 42.828125 66.109375 
Q 29.4375 66.109375 22.71875 58.640625 
Q 16.015625 51.171875 16.015625 36.375 
Q 16.015625 21.625 22.71875 14.15625 
Q 29.4375 6.6875 42.828125 6.6875 
Q 48.046875 6.6875 52.140625 7.59375 
Q 56.25 8.5 59.515625 10.40625 
z
" id="DejaVuSans-71"/>
      <path d="M 9.8125 72.90625 
L 19.671875 72.90625 
L 19.671875 8.296875 
L 55.171875 8.296875 
L 55.171875 0 
L 9.8125 0 
z
" id="DejaVuSans-76"/>
      <path d="M 34.1875 63.1875 
L 20.796875 26.90625 
L 47.609375 26.90625 
z
M 28.609375 72.90625 
L 39.796875 72.90625 
L 67.578125 0 
L 57.328125 0 
L 50.6875 18.703125 
L 17.828125 18.703125 
L 11.1875 0 
L 0.78125 0 
z
" id="DejaVuSans-65"/>
     </defs>
     <g transform="translate(81.150248 43.398438)scale(0.1 -0.1)">
      <use xlink:href="#DejaVuSans-69"/>
      <use x="63.183594" xlink:href="#DejaVuSans-78"/>
      <use x="137.988281" xlink:href="#DejaVuSans-71"/>
      <use x="215.478516" xlink:href="#DejaVuSans-76"/>
      <use x="273.441406" xlink:href="#DejaVuSans-65"/>
      <use x="341.849609" xlink:href="#DejaVuSans-78"/>
      <use x="416.654297" xlink:href="#DejaVuSans-68"/>
     </g>
    </g>
    <g id="line2d_26">
     <path d="M 53.150248 54.576563 
L 73.150248 54.576563 
" style="fill:none;stroke:#ff7f0e;stroke-linecap:square;stroke-width:1.75;"/>
    </g>
    <g id="line2d_27"/>
    <g id="text_23">
     <!-- SCOTLAND -->
     <defs>
      <path d="M 53.515625 70.515625 
L 53.515625 60.890625 
Q 47.90625 63.578125 42.921875 64.890625 
Q 37.9375 66.21875 33.296875 66.21875 
Q 25.25 66.21875 20.875 63.09375 
Q 16.5 59.96875 16.5 54.203125 
Q 16.5 49.359375 19.40625 46.890625 
Q 22.3125 44.4375 30.421875 42.921875 
L 36.375 41.703125 
Q 47.40625 39.59375 52.65625 34.296875 
Q 57.90625 29 57.90625 20.125 
Q 57.90625 9.515625 50.796875 4.046875 
Q 43.703125 -1.421875 29.984375 -1.421875 
Q 24.8125 -1.421875 18.96875 -0.25 
Q 13.140625 0.921875 6.890625 3.21875 
L 6.890625 13.375 
Q 12.890625 10.015625 18.65625 8.296875 
Q 24.421875 6.59375 29.984375 6.59375 
Q 38.421875 6.59375 43.015625 9.90625 
Q 47.609375 13.234375 47.609375 19.390625 
Q 47.609375 24.75 44.3125 27.78125 
Q 41.015625 30.8125 33.5 32.328125 
L 27.484375 33.5 
Q 16.453125 35.6875 11.515625 40.375 
Q 6.59375 45.0625 6.59375 53.421875 
Q 6.59375 63.09375 13.40625 68.65625 
Q 20.21875 74.21875 32.171875 74.21875 
Q 37.3125 74.21875 42.625 73.28125 
Q 47.953125 72.359375 53.515625 70.515625 
z
" id="DejaVuSans-83"/>
      <path d="M 64.40625 67.28125 
L 64.40625 56.890625 
Q 59.421875 61.53125 53.78125 63.8125 
Q 48.140625 66.109375 41.796875 66.109375 
Q 29.296875 66.109375 22.65625 58.46875 
Q 16.015625 50.828125 16.015625 36.375 
Q 16.015625 21.96875 22.65625 14.328125 
Q 29.296875 6.6875 41.796875 6.6875 
Q 48.140625 6.6875 53.78125 8.984375 
Q 59.421875 11.28125 64.40625 15.921875 
L 64.40625 5.609375 
Q 59.234375 2.09375 53.4375 0.328125 
Q 47.65625 -1.421875 41.21875 -1.421875 
Q 24.65625 -1.421875 15.125 8.703125 
Q 5.609375 18.84375 5.609375 36.375 
Q 5.609375 53.953125 15.125 64.078125 
Q 24.65625 74.21875 41.21875 74.21875 
Q 47.75 74.21875 53.53125 72.484375 
Q 59.328125 70.75 64.40625 67.28125 
z
" id="DejaVuSans-67"/>
      <path d="M 39.40625 66.21875 
Q 28.65625 66.21875 22.328125 58.203125 
Q 16.015625 50.203125 16.015625 36.375 
Q 16.015625 22.609375 22.328125 14.59375 
Q 28.65625 6.59375 39.40625 6.59375 
Q 50.140625 6.59375 56.421875 14.59375 
Q 62.703125 22.609375 62.703125 36.375 
Q 62.703125 50.203125 56.421875 58.203125 
Q 50.140625 66.21875 39.40625 66.21875 
z
M 39.40625 74.21875 
Q 54.734375 74.21875 63.90625 63.9375 
Q 73.09375 53.65625 73.09375 36.375 
Q 73.09375 19.140625 63.90625 8.859375 
Q 54.734375 -1.421875 39.40625 -1.421875 
Q 24.03125 -1.421875 14.8125 8.828125 
Q 5.609375 19.09375 5.609375 36.375 
Q 5.609375 53.65625 14.8125 63.9375 
Q 24.03125 74.21875 39.40625 74.21875 
z
" id="DejaVuSans-79"/>
      <path d="M -0.296875 72.90625 
L 61.375 72.90625 
L 61.375 64.59375 
L 35.5 64.59375 
L 35.5 0 
L 25.59375 0 
L 25.59375 64.59375 
L -0.296875 64.59375 
z
" id="DejaVuSans-84"/>
     </defs>
     <g transform="translate(81.150248 58.076563)scale(0.1 -0.1)">
      <use xlink:href="#DejaVuSans-83"/>
      <use x="63.476562" xlink:href="#DejaVuSans-67"/>
      <use x="133.300781" xlink:href="#DejaVuSans-79"/>
      <use x="212.011719" xlink:href="#DejaVuSans-84"/>
      <use x="273.095703" xlink:href="#DejaVuSans-76"/>
      <use x="331.058594" xlink:href="#DejaVuSans-65"/>
      <use x="399.466797" xlink:href="#DejaVuSans-78"/>
      <use x="474.271484" xlink:href="#DejaVuSans-68"/>
     </g>
    </g>
    <g id="line2d_28">
     <path d="M 53.150248 69.254688 
L 73.150248 69.254688 
" style="fill:none;stroke:#2ca02c;stroke-linecap:square;stroke-width:1.75;"/>
    </g>
    <g id="line2d_29"/>
    <g id="text_24">
     <!-- WALES -->
     <defs>
      <path d="M 3.328125 72.90625 
L 13.28125 72.90625 
L 28.609375 11.28125 
L 43.890625 72.90625 
L 54.984375 72.90625 
L 70.3125 11.28125 
L 85.59375 72.90625 
L 95.609375 72.90625 
L 77.296875 0 
L 64.890625 0 
L 49.515625 63.28125 
L 33.984375 0 
L 21.578125 0 
z
" id="DejaVuSans-87"/>
     </defs>
     <g transform="translate(81.150248 72.754688)scale(0.1 -0.1)">
      <use xlink:href="#DejaVuSans-87"/>
      <use x="93.376953" xlink:href="#DejaVuSans-65"/>
      <use x="161.785156" xlink:href="#DejaVuSans-76"/>
      <use x="217.498047" xlink:href="#DejaVuSans-69"/>
      <use x="280.681641" xlink:href="#DejaVuSans-83"/>
     </g>
    </g>
    <g id="line2d_30">
     <path d="M 53.150248 83.932813 
L 73.150248 83.932813 
" style="fill:none;stroke:#d62728;stroke-linecap:square;stroke-width:1.75;"/>
    </g>
    <g id="line2d_31"/>
    <g id="text_25">
     <!-- NORTHERN IRELAND -->
     <defs>
      <path d="M 44.390625 34.1875 
Q 47.5625 33.109375 50.5625 29.59375 
Q 53.5625 26.078125 56.59375 19.921875 
L 66.609375 0 
L 56 0 
L 46.6875 18.703125 
Q 43.0625 26.03125 39.671875 28.421875 
Q 36.28125 30.8125 30.421875 30.8125 
L 19.671875 30.8125 
L 19.671875 0 
L 9.8125 0 
L 9.8125 72.90625 
L 32.078125 72.90625 
Q 44.578125 72.90625 50.734375 67.671875 
Q 56.890625 62.453125 56.890625 51.90625 
Q 56.890625 45.015625 53.6875 40.46875 
Q 50.484375 35.9375 44.390625 34.1875 
z
M 19.671875 64.796875 
L 19.671875 38.921875 
L 32.078125 38.921875 
Q 39.203125 38.921875 42.84375 42.21875 
Q 46.484375 45.515625 46.484375 51.90625 
Q 46.484375 58.296875 42.84375 61.546875 
Q 39.203125 64.796875 32.078125 64.796875 
z
" id="DejaVuSans-82"/>
      <path d="M 9.8125 72.90625 
L 19.671875 72.90625 
L 19.671875 43.015625 
L 55.515625 43.015625 
L 55.515625 72.90625 
L 65.375 72.90625 
L 65.375 0 
L 55.515625 0 
L 55.515625 34.71875 
L 19.671875 34.71875 
L 19.671875 0 
L 9.8125 0 
z
" id="DejaVuSans-72"/>
      <path d="M 9.8125 72.90625 
L 19.671875 72.90625 
L 19.671875 0 
L 9.8125 0 
z
" id="DejaVuSans-73"/>
     </defs>
     <g transform="translate(81.150248 87.432813)scale(0.1 -0.1)">
      <use xlink:href="#DejaVuSans-78"/>
      <use x="74.804688" xlink:href="#DejaVuSans-79"/>
      <use x="153.515625" xlink:href="#DejaVuSans-82"/>
      <use x="215.748047" xlink:href="#DejaVuSans-84"/>
      <use x="276.832031" xlink:href="#DejaVuSans-72"/>
      <use x="352.027344" xlink:href="#DejaVuSans-69"/>
      <use x="415.210938" xlink:href="#DejaVuSans-82"/>
      <use x="484.693359" xlink:href="#DejaVuSans-78"/>
      <use x="559.498047" xlink:href="#DejaVuSans-32"/>
      <use x="591.285156" xlink:href="#DejaVuSans-73"/>
      <use x="620.777344" xlink:href="#DejaVuSans-82"/>
      <use x="690.259766" xlink:href="#DejaVuSans-69"/>
      <use x="753.443359" xlink:href="#DejaVuSans-76"/>
      <use x="811.40625" xlink:href="#DejaVuSans-65"/>
      <use x="879.814453" xlink:href="#DejaVuSans-78"/>
      <use x="954.619141" xlink:href="#DejaVuSans-68"/>
     </g>
    </g>
   </g>
  </g>
 </g>
 <defs>
  <clipPath id="p9f77715877">
   <rect height="268.302246" width="485.049752" x="44.150248" y="26.8"/>
  </clipPath>
 </defs>
</svg>
