<?xml version="1.0" encoding="utf-8" standalone="no"?>
<!DOCTYPE svg PUBLIC "-//W3C//DTD SVG 1.1//EN"
  "http://www.w3.org/Graphics/SVG/1.1/DTD/svg11.dtd">
<!-- Created with matplotlib (https://matplotlib.org/) -->
<svg height="360pt" version="1.1" viewBox="0 0 540 360" width="540pt" xmlns="http://www.w3.org/2000/svg" xmlns:xlink="http://www.w3.org/1999/xlink">
 <defs>
  <style type="text/css">
*{stroke-linecap:butt;stroke-linejoin:round;}
  </style>
 </defs>
 <g id="figure_1">
  <g id="patch_1">
   <path d="M 0 360 
L 540 360 
L 540 0 
L 0 0 
z
" style="fill:#ffffff;"/>
  </g>
  <g id="axes_1">
   <g id="patch_2">
    <path d="M 43.675 295.102246 
L 529.2 295.102246 
L 529.2 26.8 
L 43.675 26.8 
z
" style="fill:#ffffff;"/>
   </g>
   <g id="matplotlib.axis_1">
    <g id="xtick_1">
     <g id="line2d_1">
      <defs>
       <path d="M 0 0 
L 0 3.5 
" id="m54a9549154" style="stroke:#000000;"/>
      </defs>
      <g>
       <use style="stroke:#000000;" x="54.654209" xlink:href="#m54a9549154" y="295.102246"/>
      </g>
     </g>
     <g id="text_1">
      <!-- 2020-04 -->
      <defs>
       <path d="M 19.1875 8.296875 
L 53.609375 8.296875 
L 53.609375 0 
L 7.328125 0 
L 7.328125 8.296875 
Q 12.9375 14.109375 22.625 23.890625 
Q 32.328125 33.6875 34.8125 36.53125 
Q 39.546875 41.84375 41.421875 45.53125 
Q 43.3125 49.21875 43.3125 52.78125 
Q 43.3125 58.59375 39.234375 62.25 
Q 35.15625 65.921875 28.609375 65.921875 
Q 23.96875 65.921875 18.8125 64.3125 
Q 13.671875 62.703125 7.8125 59.421875 
L 7.8125 69.390625 
Q 13.765625 71.78125 18.9375 73 
Q 24.125 74.21875 28.421875 74.21875 
Q 39.75 74.21875 46.484375 68.546875 
Q 53.21875 62.890625 53.21875 53.421875 
Q 53.21875 48.921875 51.53125 44.890625 
Q 49.859375 40.875 45.40625 35.40625 
Q 44.1875 33.984375 37.640625 27.21875 
Q 31.109375 20.453125 19.1875 8.296875 
z
" id="DejaVuSans-50"/>
       <path d="M 31.78125 66.40625 
Q 24.171875 66.40625 20.328125 58.90625 
Q 16.5 51.421875 16.5 36.375 
Q 16.5 21.390625 20.328125 13.890625 
Q 24.171875 6.390625 31.78125 6.390625 
Q 39.453125 6.390625 43.28125 13.890625 
Q 47.125 21.390625 47.125 36.375 
Q 47.125 51.421875 43.28125 58.90625 
Q 39.453125 66.40625 31.78125 66.40625 
z
M 31.78125 74.21875 
Q 44.046875 74.21875 50.515625 64.515625 
Q 56.984375 54.828125 56.984375 36.375 
Q 56.984375 17.96875 50.515625 8.265625 
Q 44.046875 -1.421875 31.78125 -1.421875 
Q 19.53125 -1.421875 13.0625 8.265625 
Q 6.59375 17.96875 6.59375 36.375 
Q 6.59375 54.828125 13.0625 64.515625 
Q 19.53125 74.21875 31.78125 74.21875 
z
" id="DejaVuSans-48"/>
       <path d="M 4.890625 31.390625 
L 31.203125 31.390625 
L 31.203125 23.390625 
L 4.890625 23.390625 
z
" id="DejaVuSans-45"/>
       <path d="M 37.796875 64.3125 
L 12.890625 25.390625 
L 37.796875 25.390625 
z
M 35.203125 72.90625 
L 47.609375 72.90625 
L 47.609375 25.390625 
L 58.015625 25.390625 
L 58.015625 17.1875 
L 47.609375 17.1875 
L 47.609375 0 
L 37.796875 0 
L 37.796875 17.1875 
L 4.890625 17.1875 
L 4.890625 26.703125 
z
" id="DejaVuSans-52"/>
      </defs>
      <g transform="translate(17.429388 333.074092)rotate(-30)scale(0.1 -0.1)">
       <use xlink:href="#DejaVuSans-50"/>
       <use x="63.623047" xlink:href="#DejaVuSans-48"/>
       <use x="127.246094" xlink:href="#DejaVuSans-50"/>
       <use x="190.869141" xlink:href="#DejaVuSans-48"/>
       <use x="254.492188" xlink:href="#DejaVuSans-45"/>
       <use x="290.576172" xlink:href="#DejaVuSans-48"/>
       <use x="354.199219" xlink:href="#DejaVuSans-52"/>
      </g>
     </g>
    </g>
    <g id="xtick_2">
     <g id="line2d_2">
      <g>
       <use style="stroke:#000000;" x="121.194866" xlink:href="#m54a9549154" y="295.102246"/>
      </g>
     </g>
     <g id="text_2">
      <!-- 2020-05 -->
      <defs>
       <path d="M 10.796875 72.90625 
L 49.515625 72.90625 
L 49.515625 64.59375 
L 19.828125 64.59375 
L 19.828125 46.734375 
Q 21.96875 47.46875 24.109375 47.828125 
Q 26.265625 48.1875 28.421875 48.1875 
Q 40.625 48.1875 47.75 41.5 
Q 54.890625 34.8125 54.890625 23.390625 
Q 54.890625 11.625 47.5625 5.09375 
Q 40.234375 -1.421875 26.90625 -1.421875 
Q 22.3125 -1.421875 17.546875 -0.640625 
Q 12.796875 0.140625 7.71875 1.703125 
L 7.71875 11.625 
Q 12.109375 9.234375 16.796875 8.0625 
Q 21.484375 6.890625 26.703125 6.890625 
Q 35.15625 6.890625 40.078125 11.328125 
Q 45.015625 15.765625 45.015625 23.390625 
Q 45.015625 31 40.078125 35.4375 
Q 35.15625 39.890625 26.703125 39.890625 
Q 22.75 39.890625 18.8125 39.015625 
Q 14.890625 38.140625 10.796875 36.28125 
z
" id="DejaVuSans-53"/>
      </defs>
      <g transform="translate(83.970046 333.074092)rotate(-30)scale(0.1 -0.1)">
       <use xlink:href="#DejaVuSans-50"/>
       <use x="63.623047" xlink:href="#DejaVuSans-48"/>
       <use x="127.246094" xlink:href="#DejaVuSans-50"/>
       <use x="190.869141" xlink:href="#DejaVuSans-48"/>
       <use x="254.492188" xlink:href="#DejaVuSans-45"/>
       <use x="290.576172" xlink:href="#DejaVuSans-48"/>
       <use x="354.199219" xlink:href="#DejaVuSans-53"/>
      </g>
     </g>
    </g>
    <g id="xtick_3">
     <g id="line2d_3">
      <g>
       <use style="stroke:#000000;" x="189.953546" xlink:href="#m54a9549154" y="295.102246"/>
      </g>
     </g>
     <g id="text_3">
      <!-- 2020-06 -->
      <defs>
       <path d="M 33.015625 40.375 
Q 26.375 40.375 22.484375 35.828125 
Q 18.609375 31.296875 18.609375 23.390625 
Q 18.609375 15.53125 22.484375 10.953125 
Q 26.375 6.390625 33.015625 6.390625 
Q 39.65625 6.390625 43.53125 10.953125 
Q 47.40625 15.53125 47.40625 23.390625 
Q 47.40625 31.296875 43.53125 35.828125 
Q 39.65625 40.375 33.015625 40.375 
z
M 52.59375 71.296875 
L 52.59375 62.3125 
Q 48.875 64.0625 45.09375 64.984375 
Q 41.3125 65.921875 37.59375 65.921875 
Q 27.828125 65.921875 22.671875 59.328125 
Q 17.53125 52.734375 16.796875 39.40625 
Q 19.671875 43.65625 24.015625 45.921875 
Q 28.375 48.1875 33.59375 48.1875 
Q 44.578125 48.1875 50.953125 41.515625 
Q 57.328125 34.859375 57.328125 23.390625 
Q 57.328125 12.15625 50.6875 5.359375 
Q 44.046875 -1.421875 33.015625 -1.421875 
Q 20.359375 -1.421875 13.671875 8.265625 
Q 6.984375 17.96875 6.984375 36.375 
Q 6.984375 53.65625 15.1875 63.9375 
Q 23.390625 74.21875 37.203125 74.21875 
Q 40.921875 74.21875 44.703125 73.484375 
Q 48.484375 72.75 52.59375 71.296875 
z
" id="DejaVuSans-54"/>
      </defs>
      <g transform="translate(152.728725 333.074092)rotate(-30)scale(0.1 -0.1)">
       <use xlink:href="#DejaVuSans-50"/>
       <use x="63.623047" xlink:href="#DejaVuSans-48"/>
       <use x="127.246094" xlink:href="#DejaVuSans-50"/>
       <use x="190.869141" xlink:href="#DejaVuSans-48"/>
       <use x="254.492188" xlink:href="#DejaVuSans-45"/>
       <use x="290.576172" xlink:href="#DejaVuSans-48"/>
       <use x="354.199219" xlink:href="#DejaVuSans-54"/>
      </g>
     </g>
    </g>
    <g id="xtick_4">
     <g id="line2d_4">
      <g>
       <use style="stroke:#000000;" x="256.494204" xlink:href="#m54a9549154" y="295.102246"/>
      </g>
     </g>
     <g id="text_4">
      <!-- 2020-07 -->
      <defs>
       <path d="M 8.203125 72.90625 
L 55.078125 72.90625 
L 55.078125 68.703125 
L 28.609375 0 
L 18.3125 0 
L 43.21875 64.59375 
L 8.203125 64.59375 
z
" id="DejaVuSans-55"/>
      </defs>
      <g transform="translate(219.269383 333.074092)rotate(-30)scale(0.1 -0.1)">
       <use xlink:href="#DejaVuSans-50"/>
       <use x="63.623047" xlink:href="#DejaVuSans-48"/>
       <use x="127.246094" xlink:href="#DejaVuSans-50"/>
       <use x="190.869141" xlink:href="#DejaVuSans-48"/>
       <use x="254.492188" xlink:href="#DejaVuSans-45"/>
       <use x="290.576172" xlink:href="#DejaVuSans-48"/>
       <use x="354.199219" xlink:href="#DejaVuSans-55"/>
      </g>
     </g>
    </g>
    <g id="xtick_5">
     <g id="line2d_5">
      <g>
       <use style="stroke:#000000;" x="325.252884" xlink:href="#m54a9549154" y="295.102246"/>
      </g>
     </g>
     <g id="text_5">
      <!-- 2020-08 -->
      <defs>
       <path d="M 31.78125 34.625 
Q 24.75 34.625 20.71875 30.859375 
Q 16.703125 27.09375 16.703125 20.515625 
Q 16.703125 13.921875 20.71875 10.15625 
Q 24.75 6.390625 31.78125 6.390625 
Q 38.8125 6.390625 42.859375 10.171875 
Q 46.921875 13.96875 46.921875 20.515625 
Q 46.921875 27.09375 42.890625 30.859375 
Q 38.875 34.625 31.78125 34.625 
z
M 21.921875 38.8125 
Q 15.578125 40.375 12.03125 44.71875 
Q 8.5 49.078125 8.5 55.328125 
Q 8.5 64.0625 14.71875 69.140625 
Q 20.953125 74.21875 31.78125 74.21875 
Q 42.671875 74.21875 48.875 69.140625 
Q 55.078125 64.0625 55.078125 55.328125 
Q 55.078125 49.078125 51.53125 44.71875 
Q 48 40.375 41.703125 38.8125 
Q 48.828125 37.15625 52.796875 32.3125 
Q 56.78125 27.484375 56.78125 20.515625 
Q 56.78125 9.90625 50.3125 4.234375 
Q 43.84375 -1.421875 31.78125 -1.421875 
Q 19.734375 -1.421875 13.25 4.234375 
Q 6.78125 9.90625 6.78125 20.515625 
Q 6.78125 27.484375 10.78125 32.3125 
Q 14.796875 37.15625 21.921875 38.8125 
z
M 18.3125 54.390625 
Q 18.3125 48.734375 21.84375 45.5625 
Q 25.390625 42.390625 31.78125 42.390625 
Q 38.140625 42.390625 41.71875 45.5625 
Q 45.3125 48.734375 45.3125 54.390625 
Q 45.3125 60.0625 41.71875 63.234375 
Q 38.140625 66.40625 31.78125 66.40625 
Q 25.390625 66.40625 21.84375 63.234375 
Q 18.3125 60.0625 18.3125 54.390625 
z
" id="DejaVuSans-56"/>
      </defs>
      <g transform="translate(288.028063 333.074092)rotate(-30)scale(0.1 -0.1)">
       <use xlink:href="#DejaVuSans-50"/>
       <use x="63.623047" xlink:href="#DejaVuSans-48"/>
       <use x="127.246094" xlink:href="#DejaVuSans-50"/>
       <use x="190.869141" xlink:href="#DejaVuSans-48"/>
       <use x="254.492188" xlink:href="#DejaVuSans-45"/>
       <use x="290.576172" xlink:href="#DejaVuSans-48"/>
       <use x="354.199219" xlink:href="#DejaVuSans-56"/>
      </g>
     </g>
    </g>
    <g id="xtick_6">
     <g id="line2d_6">
      <g>
       <use style="stroke:#000000;" x="394.011563" xlink:href="#m54a9549154" y="295.102246"/>
      </g>
     </g>
     <g id="text_6">
      <!-- 2020-09 -->
      <defs>
       <path d="M 10.984375 1.515625 
L 10.984375 10.5 
Q 14.703125 8.734375 18.5 7.8125 
Q 22.3125 6.890625 25.984375 6.890625 
Q 35.75 6.890625 40.890625 13.453125 
Q 46.046875 20.015625 46.78125 33.40625 
Q 43.953125 29.203125 39.59375 26.953125 
Q 35.25 24.703125 29.984375 24.703125 
Q 19.046875 24.703125 12.671875 31.3125 
Q 6.296875 37.9375 6.296875 49.421875 
Q 6.296875 60.640625 12.9375 67.421875 
Q 19.578125 74.21875 30.609375 74.21875 
Q 43.265625 74.21875 49.921875 64.515625 
Q 56.59375 54.828125 56.59375 36.375 
Q 56.59375 19.140625 48.40625 8.859375 
Q 40.234375 -1.421875 26.421875 -1.421875 
Q 22.703125 -1.421875 18.890625 -0.6875 
Q 15.09375 0.046875 10.984375 1.515625 
z
M 30.609375 32.421875 
Q 37.25 32.421875 41.125 36.953125 
Q 45.015625 41.5 45.015625 49.421875 
Q 45.015625 57.28125 41.125 61.84375 
Q 37.25 66.40625 30.609375 66.40625 
Q 23.96875 66.40625 20.09375 61.84375 
Q 16.21875 57.28125 16.21875 49.421875 
Q 16.21875 41.5 20.09375 36.953125 
Q 23.96875 32.421875 30.609375 32.421875 
z
" id="DejaVuSans-57"/>
      </defs>
      <g transform="translate(356.786743 333.074092)rotate(-30)scale(0.1 -0.1)">
       <use xlink:href="#DejaVuSans-50"/>
       <use x="63.623047" xlink:href="#DejaVuSans-48"/>
       <use x="127.246094" xlink:href="#DejaVuSans-50"/>
       <use x="190.869141" xlink:href="#DejaVuSans-48"/>
       <use x="254.492188" xlink:href="#DejaVuSans-45"/>
       <use x="290.576172" xlink:href="#DejaVuSans-48"/>
       <use x="354.199219" xlink:href="#DejaVuSans-57"/>
      </g>
     </g>
    </g>
    <g id="xtick_7">
     <g id="line2d_7">
      <g>
       <use style="stroke:#000000;" x="460.552221" xlink:href="#m54a9549154" y="295.102246"/>
      </g>
     </g>
     <g id="text_7">
      <!-- 2020-10 -->
      <defs>
       <path d="M 12.40625 8.296875 
L 28.515625 8.296875 
L 28.515625 63.921875 
L 10.984375 60.40625 
L 10.984375 69.390625 
L 28.421875 72.90625 
L 38.28125 72.90625 
L 38.28125 8.296875 
L 54.390625 8.296875 
L 54.390625 0 
L 12.40625 0 
z
" id="DejaVuSans-49"/>
      </defs>
      <g transform="translate(423.327401 333.074092)rotate(-30)scale(0.1 -0.1)">
       <use xlink:href="#DejaVuSans-50"/>
       <use x="63.623047" xlink:href="#DejaVuSans-48"/>
       <use x="127.246094" xlink:href="#DejaVuSans-50"/>
       <use x="190.869141" xlink:href="#DejaVuSans-48"/>
       <use x="254.492188" xlink:href="#DejaVuSans-45"/>
       <use x="290.576172" xlink:href="#DejaVuSans-49"/>
       <use x="354.199219" xlink:href="#DejaVuSans-48"/>
      </g>
     </g>
    </g>
    <g id="text_8">
     <!-- Date -->
     <defs>
      <path d="M 19.671875 64.796875 
L 19.671875 8.109375 
L 31.59375 8.109375 
Q 46.6875 8.109375 53.6875 14.9375 
Q 60.6875 21.78125 60.6875 36.53125 
Q 60.6875 51.171875 53.6875 57.984375 
Q 46.6875 64.796875 31.59375 64.796875 
z
M 9.8125 72.90625 
L 30.078125 72.90625 
Q 51.265625 72.90625 61.171875 64.09375 
Q 71.09375 55.28125 71.09375 36.53125 
Q 71.09375 17.671875 61.125 8.828125 
Q 51.171875 0 30.078125 0 
L 9.8125 0 
z
" id="DejaVuSans-68"/>
      <path d="M 34.28125 27.484375 
Q 23.390625 27.484375 19.1875 25 
Q 14.984375 22.515625 14.984375 16.5 
Q 14.984375 11.71875 18.140625 8.90625 
Q 21.296875 6.109375 26.703125 6.109375 
Q 34.1875 6.109375 38.703125 11.40625 
Q 43.21875 16.703125 43.21875 25.484375 
L 43.21875 27.484375 
z
M 52.203125 31.203125 
L 52.203125 0 
L 43.21875 0 
L 43.21875 8.296875 
Q 40.140625 3.328125 35.546875 0.953125 
Q 30.953125 -1.421875 24.3125 -1.421875 
Q 15.921875 -1.421875 10.953125 3.296875 
Q 6 8.015625 6 15.921875 
Q 6 25.140625 12.171875 29.828125 
Q 18.359375 34.515625 30.609375 34.515625 
L 43.21875 34.515625 
L 43.21875 35.40625 
Q 43.21875 41.609375 39.140625 45 
Q 35.0625 48.390625 27.6875 48.390625 
Q 23 48.390625 18.546875 47.265625 
Q 14.109375 46.140625 10.015625 43.890625 
L 10.015625 52.203125 
Q 14.9375 54.109375 19.578125 55.046875 
Q 24.21875 56 28.609375 56 
Q 40.484375 56 46.34375 49.84375 
Q 52.203125 43.703125 52.203125 31.203125 
z
" id="DejaVuSans-97"/>
      <path d="M 18.3125 70.21875 
L 18.3125 54.6875 
L 36.8125 54.6875 
L 36.8125 47.703125 
L 18.3125 47.703125 
L 18.3125 18.015625 
Q 18.3125 11.328125 20.140625 9.421875 
Q 21.96875 7.515625 27.59375 7.515625 
L 36.8125 7.515625 
L 36.8125 0 
L 27.59375 0 
Q 17.1875 0 13.234375 3.875 
Q 9.28125 7.765625 9.28125 18.015625 
L 9.28125 47.703125 
L 2.6875 47.703125 
L 2.6875 54.6875 
L 9.28125 54.6875 
L 9.28125 70.21875 
z
" id="DejaVuSans-116"/>
      <path d="M 56.203125 29.59375 
L 56.203125 25.203125 
L 14.890625 25.203125 
Q 15.484375 15.921875 20.484375 11.0625 
Q 25.484375 6.203125 34.421875 6.203125 
Q 39.59375 6.203125 44.453125 7.46875 
Q 49.3125 8.734375 54.109375 11.28125 
L 54.109375 2.78125 
Q 49.265625 0.734375 44.1875 -0.34375 
Q 39.109375 -1.421875 33.890625 -1.421875 
Q 20.796875 -1.421875 13.15625 6.1875 
Q 5.515625 13.8125 5.515625 26.8125 
Q 5.515625 40.234375 12.765625 48.109375 
Q 20.015625 56 32.328125 56 
Q 43.359375 56 49.78125 48.890625 
Q 56.203125 41.796875 56.203125 29.59375 
z
M 47.21875 32.234375 
Q 47.125 39.59375 43.09375 43.984375 
Q 39.0625 48.390625 32.421875 48.390625 
Q 24.90625 48.390625 20.390625 44.140625 
Q 15.875 39.890625 15.1875 32.171875 
z
" id="DejaVuSans-101"/>
     </defs>
     <g transform="translate(273.291641 347.233436)scale(0.11 -0.11)">
      <use xlink:href="#DejaVuSans-68"/>
      <use x="77.001953" xlink:href="#DejaVuSans-97"/>
      <use x="138.28125" xlink:href="#DejaVuSans-116"/>
      <use x="177.490234" xlink:href="#DejaVuSans-101"/>
     </g>
    </g>
   </g>
   <g id="matplotlib.axis_2">
    <g id="ytick_1">
     <g id="line2d_8">
      <defs>
       <path d="M 0 0 
L -3.5 0 
" id="mb50650c3e4" style="stroke:#000000;"/>
      </defs>
      <g>
       <use style="stroke:#000000;" x="43.675" xlink:href="#mb50650c3e4" y="282.325949"/>
      </g>
     </g>
     <g id="text_9">
      <!-- 0.00 -->
      <defs>
       <path d="M 10.6875 12.40625 
L 21 12.40625 
L 21 0 
L 10.6875 0 
z
" id="DejaVuSans-46"/>
      </defs>
      <g transform="translate(10.909375 286.125167)scale(0.1 -0.1)">
       <use xlink:href="#DejaVuSans-48"/>
       <use x="63.623047" xlink:href="#DejaVuSans-46"/>
       <use x="95.410156" xlink:href="#DejaVuSans-48"/>
       <use x="159.033203" xlink:href="#DejaVuSans-48"/>
      </g>
     </g>
    </g>
    <g id="ytick_2">
     <g id="line2d_9">
      <g>
       <use style="stroke:#000000;" x="43.675" xlink:href="#mb50650c3e4" y="248.255822"/>
      </g>
     </g>
     <g id="text_10">
      <!-- 0.02 -->
      <g transform="translate(10.909375 252.055041)scale(0.1 -0.1)">
       <use xlink:href="#DejaVuSans-48"/>
       <use x="63.623047" xlink:href="#DejaVuSans-46"/>
       <use x="95.410156" xlink:href="#DejaVuSans-48"/>
       <use x="159.033203" xlink:href="#DejaVuSans-50"/>
      </g>
     </g>
    </g>
    <g id="ytick_3">
     <g id="line2d_10">
      <g>
       <use style="stroke:#000000;" x="43.675" xlink:href="#mb50650c3e4" y="214.185696"/>
      </g>
     </g>
     <g id="text_11">
      <!-- 0.04 -->
      <g transform="translate(10.909375 217.984914)scale(0.1 -0.1)">
       <use xlink:href="#DejaVuSans-48"/>
       <use x="63.623047" xlink:href="#DejaVuSans-46"/>
       <use x="95.410156" xlink:href="#DejaVuSans-48"/>
       <use x="159.033203" xlink:href="#DejaVuSans-52"/>
      </g>
     </g>
    </g>
    <g id="ytick_4">
     <g id="line2d_11">
      <g>
       <use style="stroke:#000000;" x="43.675" xlink:href="#mb50650c3e4" y="180.115569"/>
      </g>
     </g>
     <g id="text_12">
      <!-- 0.06 -->
      <g transform="translate(10.909375 183.914788)scale(0.1 -0.1)">
       <use xlink:href="#DejaVuSans-48"/>
       <use x="63.623047" xlink:href="#DejaVuSans-46"/>
       <use x="95.410156" xlink:href="#DejaVuSans-48"/>
       <use x="159.033203" xlink:href="#DejaVuSans-54"/>
      </g>
     </g>
    </g>
    <g id="ytick_5">
     <g id="line2d_12">
      <g>
       <use style="stroke:#000000;" x="43.675" xlink:href="#mb50650c3e4" y="146.045443"/>
      </g>
     </g>
     <g id="text_13">
      <!-- 0.08 -->
      <g transform="translate(10.909375 149.844661)scale(0.1 -0.1)">
       <use xlink:href="#DejaVuSans-48"/>
       <use x="63.623047" xlink:href="#DejaVuSans-46"/>
       <use x="95.410156" xlink:href="#DejaVuSans-48"/>
       <use x="159.033203" xlink:href="#DejaVuSans-56"/>
      </g>
     </g>
    </g>
    <g id="ytick_6">
     <g id="line2d_13">
      <g>
       <use style="stroke:#000000;" x="43.675" xlink:href="#mb50650c3e4" y="111.975316"/>
      </g>
     </g>
     <g id="text_14">
      <!-- 0.10 -->
      <g transform="translate(10.909375 115.774535)scale(0.1 -0.1)">
       <use xlink:href="#DejaVuSans-48"/>
       <use x="63.623047" xlink:href="#DejaVuSans-46"/>
       <use x="95.410156" xlink:href="#DejaVuSans-49"/>
       <use x="159.033203" xlink:href="#DejaVuSans-48"/>
      </g>
     </g>
    </g>
    <g id="ytick_7">
     <g id="line2d_14">
      <g>
       <use style="stroke:#000000;" x="43.675" xlink:href="#mb50650c3e4" y="77.90519"/>
      </g>
     </g>
     <g id="text_15">
      <!-- 0.12 -->
      <g transform="translate(10.909375 81.704408)scale(0.1 -0.1)">
       <use xlink:href="#DejaVuSans-48"/>
       <use x="63.623047" xlink:href="#DejaVuSans-46"/>
       <use x="95.410156" xlink:href="#DejaVuSans-49"/>
       <use x="159.033203" xlink:href="#DejaVuSans-50"/>
      </g>
     </g>
    </g>
    <g id="ytick_8">
     <g id="line2d_15">
      <g>
       <use style="stroke:#000000;" x="43.675" xlink:href="#mb50650c3e4" y="43.835063"/>
      </g>
     </g>
     <g id="text_16">
      <!-- 0.14 -->
      <g transform="translate(10.909375 47.634282)scale(0.1 -0.1)">
       <use xlink:href="#DejaVuSans-48"/>
       <use x="63.623047" xlink:href="#DejaVuSans-46"/>
       <use x="95.410156" xlink:href="#DejaVuSans-49"/>
       <use x="159.033203" xlink:href="#DejaVuSans-52"/>
      </g>
     </g>
    </g>
   </g>
   <g id="line2d_16">
    <path clip-path="url(#p4cca3e63c8)" d="M 114.20959 -1 
L 114.540801 2.12029 
L 116.758823 34.880376 
L 118.976844 61.799221 
L 123.412888 108.827384 
L 125.63091 121.166539 
L 127.848932 147.087357 
L 130.066954 155.438779 
L 132.284976 153.541208 
L 134.502998 152.249827 
L 136.72102 155.297475 
L 138.939042 163.772043 
L 141.157064 175.688784 
L 143.375086 181.409194 
L 145.593108 187.862504 
L 147.81113 191.169616 
L 150.029151 198.766926 
L 152.247173 204.712666 
L 154.465195 208.306697 
L 156.683217 209.882536 
L 158.901239 211.715217 
L 161.119261 214.410524 
L 163.337283 219.008392 
L 165.555305 223.293664 
L 167.773327 223.264522 
L 169.991349 224.78295 
L 174.427393 229.978161 
L 176.645415 231.948761 
L 178.863437 233.371217 
L 181.081458 235.881562 
L 183.29948 240.613929 
L 185.517502 242.929747 
L 187.735524 248.315291 
L 189.953546 253.038272 
L 194.38959 260.259847 
L 198.825634 266.082224 
L 201.043656 271.054817 
L 203.261678 271.428018 
L 205.4797 272.340601 
L 207.697722 271.766936 
L 209.915743 273.133805 
L 212.133765 273.601823 
L 216.569809 274.212645 
L 221.005853 273.151798 
L 223.223875 274.526437 
L 225.441897 273.950329 
L 229.877941 274.2223 
L 232.095963 274.34471 
L 234.313985 274.679665 
L 238.750029 274.96832 
L 240.96805 275.381048 
L 243.186072 275.345417 
L 245.404094 275.791939 
L 247.622116 276.444348 
L 252.05816 277.194348 
L 254.276182 277.178497 
L 256.494204 276.937881 
L 258.712226 275.941664 
L 260.930248 274.796831 
L 263.14827 272.595035 
L 265.366292 270.056037 
L 267.584314 268.869156 
L 272.020357 265.586566 
L 274.238379 265.033615 
L 276.456401 264.816571 
L 278.674423 263.913129 
L 280.892445 262.688173 
L 283.110467 262.71359 
L 285.328489 264.265555 
L 287.546511 265.572002 
L 289.764533 267.01058 
L 291.982555 267.936728 
L 294.200577 270.26911 
L 296.418599 273.349594 
L 303.072664 273.188645 
L 305.290686 272.7746 
L 307.508708 272.511738 
L 309.72673 272.827721 
L 311.944752 272.718093 
L 316.380796 272.097661 
L 318.598818 271.822342 
L 320.81684 271.83456 
L 323.034862 271.604534 
L 325.252884 271.548516 
L 327.470906 271.964049 
L 329.688928 272.174426 
L 336.342993 272.005546 
L 340.779037 272.374348 
L 342.997059 272.058733 
L 345.215081 272.436831 
L 347.433103 271.691589 
L 349.651125 271.683168 
L 351.869147 271.213849 
L 354.087169 270.460886 
L 356.305191 270.24694 
L 367.3953 271.40909 
L 369.613322 272.164313 
L 371.831344 271.841572 
L 374.049366 271.79041 
L 376.267388 271.432986 
L 380.703432 270.947901 
L 385.139476 270.003505 
L 387.357498 270.196538 
L 389.57552 269.127231 
L 391.793542 268.56633 
L 394.011563 268.505869 
L 396.229585 267.920711 
L 398.447607 267.649484 
L 400.665629 267.091921 
L 402.883651 266.114759 
L 405.101673 264.566976 
L 407.319695 262.722587 
L 411.755739 260.446472 
L 413.973761 259.633032 
L 418.409805 257.113257 
L 420.627827 257.701166 
L 422.845849 258.707666 
L 425.06387 258.583221 
L 427.281892 257.722567 
L 429.499914 257.574403 
L 431.717936 257.005007 
L 433.935958 256.73268 
L 436.15398 256.281783 
L 438.372002 253.788874 
L 442.808046 249.73773 
L 445.026068 246.716436 
L 447.24409 244.804542 
L 449.462112 243.399448 
L 451.680134 241.667621 
L 453.898156 242.525373 
L 456.116177 240.315588 
L 458.334199 239.778 
L 460.552221 239.577867 
L 462.770243 240.268556 
L 464.988265 234.20448 
L 467.206287 212.999903 
L 469.424309 204.931181 
L 473.860353 190.299486 
L 476.078375 181.207555 
L 478.296397 175.856317 
L 480.514419 173.498787 
L 482.732441 188.386261 
L 484.950463 183.829811 
L 487.168484 182.164204 
L 489.386506 179.735112 
L 491.604528 179.02859 
L 493.82255 178.519386 
L 496.040572 179.015003 
L 500.476616 174.46205 
L 502.694638 171.650333 
L 504.91266 165.188126 
L 507.130682 166.285828 
L 507.130682 166.285828 
" style="fill:none;stroke:#1f77b4;stroke-linecap:square;stroke-width:1.75;"/>
   </g>
   <g id="line2d_17">
    <path clip-path="url(#p4cca3e63c8)" d="M 108.849114 -1 
L 110.104757 22.537203 
L 112.322779 49.971582 
L 114.540801 60.241258 
L 116.758823 83.798308 
L 118.976844 118.094197 
L 121.194866 135.849471 
L 123.412888 159.052451 
L 125.63091 173.622376 
L 127.848932 181.388225 
L 130.066954 186.524352 
L 132.284976 190.717071 
L 134.502998 196.315502 
L 136.72102 197.649649 
L 138.939042 205.497424 
L 141.157064 204.111588 
L 143.375086 206.191288 
L 145.593108 208.598136 
L 147.81113 214.700473 
L 150.029151 216.981139 
L 152.247173 224.095802 
L 154.465195 224.467894 
L 156.683217 230.45522 
L 158.901239 235.816565 
L 161.119261 239.958915 
L 163.337283 243.305053 
L 165.555305 247.63132 
L 167.773327 247.882753 
L 169.991349 253.260057 
L 172.209371 256.483673 
L 174.427393 256.501526 
L 178.863437 258.382952 
L 181.081458 260.698353 
L 183.29948 263.590751 
L 185.517502 263.70777 
L 187.735524 265.181806 
L 189.953546 267.212395 
L 192.171568 265.883224 
L 194.38959 267.016369 
L 196.607612 266.993191 
L 198.825634 267.768778 
L 201.043656 270.618159 
L 203.261678 270.944343 
L 205.4797 270.978341 
L 207.697722 272.952748 
L 209.915743 273.98177 
L 212.133765 275.370264 
L 214.351787 275.643605 
L 216.569809 275.782364 
L 218.787831 275.531157 
L 221.005853 275.000888 
L 223.223875 274.99332 
L 225.441897 274.535215 
L 227.659919 274.729305 
L 229.877941 274.433251 
L 232.095963 273.930858 
L 234.313985 273.60877 
L 236.532007 274.28319 
L 238.750029 274.407964 
L 245.404094 275.728601 
L 247.622116 276.411448 
L 249.840138 277.712185 
L 252.05816 278.239212 
L 258.712226 278.368762 
L 260.930248 278.751746 
L 263.14827 279.014453 
L 265.366292 278.94481 
L 267.584314 278.993004 
L 269.802336 279.466926 
L 274.238379 279.87759 
L 276.456401 279.951813 
L 278.674423 280.516768 
L 280.892445 280.104218 
L 289.764533 279.918953 
L 291.982555 280.139949 
L 296.418599 279.538304 
L 298.636621 279.55782 
L 300.854643 279.113793 
L 307.508708 278.934797 
L 309.72673 278.634291 
L 311.944752 279.771883 
L 314.162774 279.940741 
L 316.380796 280.389728 
L 318.598818 280.194712 
L 320.81684 280.162761 
L 323.034862 280.017574 
L 325.252884 280.207735 
L 327.470906 279.303633 
L 329.688928 278.667662 
L 331.90695 278.294338 
L 334.124971 277.721243 
L 336.342993 276.779958 
L 338.561015 276.53966 
L 340.779037 275.883092 
L 345.215081 275.889585 
L 347.433103 275.299349 
L 349.651125 275.364742 
L 351.869147 275.758787 
L 354.087169 275.441392 
L 365.177278 275.967666 
L 367.3953 275.561955 
L 369.613322 275.449708 
L 376.267388 273.948623 
L 378.48541 274.588035 
L 380.703432 274.635754 
L 382.921454 274.801846 
L 385.139476 275.358539 
L 387.357498 276.151726 
L 389.57552 276.638319 
L 394.011563 274.910056 
L 396.229585 273.735617 
L 398.447607 273.447126 
L 400.665629 271.557481 
L 402.883651 270.493944 
L 405.101673 267.483269 
L 407.319695 267.459548 
L 409.537717 265.848445 
L 411.755739 265.420608 
L 413.973761 263.68187 
L 416.191783 263.824542 
L 418.409805 262.74915 
L 420.627827 262.109299 
L 422.845849 262.921578 
L 425.06387 260.790312 
L 427.281892 259.568258 
L 429.499914 258.570612 
L 431.717936 258.853897 
L 433.935958 256.073178 
L 436.15398 256.010928 
L 438.372002 252.042952 
L 440.590024 249.36507 
L 442.808046 245.162633 
L 445.026068 242.478227 
L 447.24409 236.77812 
L 449.462112 232.713069 
L 451.680134 231.106193 
L 453.898156 231.951266 
L 456.116177 227.196859 
L 458.334199 224.016481 
L 460.552221 221.642429 
L 462.770243 220.877009 
L 464.988265 217.469388 
L 467.206287 211.742425 
L 469.424309 203.740366 
L 471.642331 205.065533 
L 473.860353 202.298421 
L 476.078375 198.208145 
L 478.296397 191.30497 
L 480.514419 190.871875 
L 482.732441 185.151411 
L 484.950463 185.325639 
L 487.168484 182.302023 
L 489.386506 176.71939 
L 491.604528 174.336477 
L 493.82255 170.467446 
L 496.040572 166.107509 
L 498.258594 179.466964 
L 500.476616 174.285302 
L 502.694638 170.81834 
L 504.91266 168.554335 
L 507.130682 162.256294 
L 507.130682 162.256294 
" style="fill:none;stroke:#ff7f0e;stroke-linecap:square;stroke-width:1.75;"/>
   </g>
   <g id="line2d_18">
    <path clip-path="url(#p4cca3e63c8)" d="M 124.150377 -1 
L 125.63091 3.33858 
L 126.451899 -1 
M 128.405391 -1 
L 130.066954 21.044498 
L 132.284976 23.590507 
L 134.502998 45.777541 
L 136.72102 39.104545 
L 138.939042 62.041495 
L 141.157064 48.895459 
L 143.375086 76.801379 
L 145.593108 100.786418 
L 147.81113 100.66824 
L 150.029151 97.417504 
L 152.247173 112.606683 
L 154.465195 101.293291 
L 156.683217 122.177415 
L 158.901239 134.630187 
L 161.119261 132.324576 
L 163.337283 142.697079 
L 165.555305 142.100062 
L 167.773327 145.120588 
L 169.991349 152.113282 
L 172.209371 161.464327 
L 174.427393 165.792589 
L 176.645415 176.05103 
L 178.863437 175.395393 
L 181.081458 191.525657 
L 183.29948 196.72362 
L 185.517502 208.543245 
L 187.735524 212.832554 
L 189.953546 215.584382 
L 192.171568 224.345254 
L 194.38959 231.856549 
L 196.607612 235.410855 
L 198.825634 239.855864 
L 201.043656 243.952268 
L 203.261678 247.745038 
L 205.4797 250.218103 
L 207.697722 253.903261 
L 209.915743 258.790428 
L 212.133765 257.458886 
L 214.351787 258.566571 
L 216.569809 257.651638 
L 218.787831 257.57328 
L 221.005853 255.85254 
L 223.223875 250.735297 
L 225.441897 247.837942 
L 227.659919 247.790522 
L 229.877941 244.778994 
L 232.095963 246.647126 
L 234.313985 240.768314 
L 236.532007 240.453047 
L 238.750029 244.005964 
L 240.96805 245.989807 
L 243.186072 239.632524 
L 245.404094 242.560916 
L 247.622116 241.089893 
L 249.840138 248.209854 
L 252.05816 245.079996 
L 254.276182 247.499595 
L 256.494204 247.717081 
L 258.712226 253.60028 
L 260.930248 256.327861 
L 265.366292 257.674038 
L 267.584314 265.515147 
L 272.020357 269.737388 
L 274.238379 272.944564 
L 276.456401 273.995907 
L 278.674423 275.842807 
L 280.892445 275.715035 
L 283.110467 275.717101 
L 285.328489 274.562785 
L 287.546511 274.923462 
L 289.764533 275.117878 
L 294.200577 274.644163 
L 296.418599 274.869887 
L 298.636621 274.794135 
L 300.854643 273.892097 
L 303.072664 273.635525 
L 309.72673 272.433771 
L 311.944752 272.821596 
L 314.162774 271.322373 
L 316.380796 272.109005 
L 318.598818 271.764819 
L 320.81684 273.082263 
L 323.034862 274.182142 
L 325.252884 274.495323 
L 327.470906 273.956658 
L 329.688928 274.889868 
L 331.90695 275.117956 
L 334.124971 275.885636 
L 336.342993 275.557201 
L 340.779037 275.622111 
L 342.997059 275.941017 
L 345.215081 276.818397 
L 347.433103 277.479548 
L 349.651125 277.871126 
L 354.087169 277.915198 
L 356.305191 277.645558 
L 358.523213 277.952151 
L 360.741235 277.703853 
L 362.959257 277.241752 
L 365.177278 276.407595 
L 367.3953 276.03608 
L 369.613322 275.152242 
L 371.831344 274.47669 
L 374.049366 274.110295 
L 376.267388 273.937906 
L 380.703432 273.22383 
L 382.921454 272.453825 
L 385.139476 272.459711 
L 387.357498 272.614203 
L 389.57552 270.522085 
L 391.793542 269.313194 
L 394.011563 268.869329 
L 396.229585 268.741061 
L 398.447607 268.770484 
L 400.665629 268.517373 
L 402.883651 267.133477 
L 405.101673 266.159377 
L 407.319695 263.651108 
L 409.537717 261.683059 
L 411.755739 258.255734 
L 413.973761 257.200475 
L 416.191783 255.964471 
L 418.409805 255.285294 
L 420.627827 255.385119 
L 422.845849 254.262808 
L 425.06387 255.33955 
L 427.281892 255.544997 
L 429.499914 254.590347 
L 431.717936 253.1044 
L 433.935958 250.786842 
L 436.15398 249.825721 
L 438.372002 249.638899 
L 440.590024 245.245975 
L 442.808046 241.606528 
L 445.026068 237.59519 
L 447.24409 235.295014 
L 449.462112 233.496732 
L 451.680134 230.320745 
L 453.898156 229.045686 
L 456.116177 224.770206 
L 458.334199 223.018697 
L 460.552221 220.651492 
L 462.770243 217.336557 
L 464.988265 209.374258 
L 467.206287 207.609277 
L 469.424309 200.492843 
L 471.642331 202.050854 
L 473.860353 194.022022 
L 476.078375 191.80939 
L 478.296397 183.129927 
L 480.514419 182.439361 
L 482.732441 181.937937 
L 484.950463 185.974747 
L 487.168484 176.691754 
L 489.386506 168.917484 
L 491.604528 163.288922 
L 493.82255 155.276919 
L 496.040572 158.40676 
L 498.258594 147.582828 
L 500.476616 145.528785 
L 502.694638 135.125364 
L 504.91266 138.94936 
L 507.130682 131.214596 
L 507.130682 131.214596 
" style="fill:none;stroke:#2ca02c;stroke-linecap:square;stroke-width:1.75;"/>
   </g>
   <g id="line2d_19">
    <path clip-path="url(#p4cca3e63c8)" d="M 112.322779 90.873185 
L 114.540801 95.586748 
L 116.758823 114.215432 
L 118.976844 145.801345 
L 121.194866 152.646405 
L 123.412888 168.264117 
L 127.848932 192.684523 
L 132.284976 192.612042 
L 134.502998 198.275743 
L 136.72102 207.854136 
L 138.939042 210.023828 
L 141.157064 215.520229 
L 143.375086 222.33051 
L 145.593108 223.061137 
L 147.81113 222.173396 
L 150.029151 223.401092 
L 152.247173 225.538923 
L 154.465195 229.038596 
L 156.683217 230.580714 
L 158.901239 234.341386 
L 161.119261 238.343764 
L 163.337283 245.902873 
L 165.555305 245.205358 
L 167.773327 245.747201 
L 169.991349 246.135084 
L 172.209371 247.897069 
L 174.427393 241.725705 
L 178.863437 238.207328 
L 181.081458 242.589273 
L 183.29948 242.956457 
L 185.517502 247.683979 
L 187.735524 251.811296 
L 189.953546 258.524432 
L 192.171568 263.262919 
L 194.38959 266.759443 
L 196.607612 264.298381 
L 198.825634 267.140704 
L 201.043656 266.771686 
L 203.261678 267.165578 
L 205.4797 269.225443 
L 207.697722 269.389887 
L 209.915743 268.566859 
L 212.133765 273.188833 
L 214.351787 270.788418 
L 216.569809 273.098869 
L 218.787831 272.49513 
L 221.005853 272.926948 
L 223.223875 273.174884 
L 227.659919 274.256512 
L 229.877941 276.62804 
L 232.095963 277.242063 
L 234.313985 277.526323 
L 236.532007 278.273544 
L 238.750029 278.61343 
L 240.96805 279.594857 
L 243.186072 279.576913 
L 247.622116 278.610157 
L 249.840138 279.673274 
L 252.05816 277.570474 
L 254.276182 276.943262 
L 256.494204 277.086481 
L 258.712226 276.169933 
M 358.523213 267.709159 
L 360.741235 265.243974 
L 362.959257 265.283069 
L 365.177278 266.92363 
L 367.3953 263.689577 
L 369.613322 265.85889 
L 371.831344 266.394827 
L 374.049366 258.464756 
L 376.267388 260.208025 
L 378.48541 261.654766 
L 380.703432 260.74238 
L 382.921454 261.669458 
L 385.139476 258.89019 
L 387.357498 256.6824 
L 389.57552 264.171225 
L 391.793542 261.648368 
L 394.011563 261.462718 
L 396.229585 261.817062 
L 398.447607 261.529725 
L 400.665629 262.782146 
L 405.101673 260.259897 
L 407.319695 251.443693 
L 409.537717 251.231621 
L 411.755739 251.992093 
L 413.973761 252.602886 
L 416.191783 252.453482 
L 418.409805 254.10456 
L 420.627827 253.952811 
L 422.845849 259.982406 
L 425.06387 259.328494 
L 429.499914 252.772601 
L 431.717936 250.928876 
L 433.935958 245.613878 
L 436.15398 242.819656 
L 438.372002 242.083574 
L 440.590024 242.658169 
L 442.808046 238.83973 
L 445.026068 238.203424 
L 447.24409 234.882871 
L 449.462112 227.829376 
L 451.680134 226.514323 
L 453.898156 223.216218 
L 456.116177 215.673453 
L 458.334199 207.126411 
L 460.552221 206.072865 
L 462.770243 186.720507 
L 464.988265 172.008753 
L 467.206287 164.996205 
L 469.424309 154.537603 
L 471.642331 147.718691 
L 473.860353 144.506401 
L 476.078375 130.646276 
L 478.296397 131.876694 
L 480.514419 141.82878 
L 482.732441 120.376814 
L 484.950463 108.136939 
L 487.168484 104.984322 
L 489.386506 89.449193 
L 491.604528 93.680559 
L 493.82255 78.790918 
L 496.040572 76.378224 
L 498.258594 72.564702 
L 500.476616 75.455456 
L 502.694638 70.598579 
L 504.91266 79.296945 
L 507.130682 69.933216 
L 507.130682 69.933216 
" style="fill:none;stroke:#d62728;stroke-linecap:square;stroke-width:1.75;"/>
   </g>
   <g id="patch_3">
    <path d="M 43.675 295.102246 
L 43.675 26.8 
" style="fill:none;stroke:#000000;stroke-linecap:square;stroke-linejoin:miter;stroke-width:0.8;"/>
   </g>
   <g id="patch_4">
    <path d="M 529.2 295.102246 
L 529.2 26.8 
" style="fill:none;stroke:#000000;stroke-linecap:square;stroke-linejoin:miter;stroke-width:0.8;"/>
   </g>
   <g id="patch_5">
    <path d="M 43.675 295.102246 
L 529.2 295.102246 
" style="fill:none;stroke:#000000;stroke-linecap:square;stroke-linejoin:miter;stroke-width:0.8;"/>
   </g>
   <g id="patch_6">
    <path d="M 43.675 26.8 
L 529.2 26.8 
" style="fill:none;stroke:#000000;stroke-linecap:square;stroke-linejoin:miter;stroke-width:0.8;"/>
   </g>
   <g id="text_17">
    <!-- Positivity rate (7 day rolling) -->
    <defs>
     <path d="M 19.671875 64.796875 
L 19.671875 37.40625 
L 32.078125 37.40625 
Q 38.96875 37.40625 42.71875 40.96875 
Q 46.484375 44.53125 46.484375 51.125 
Q 46.484375 57.671875 42.71875 61.234375 
Q 38.96875 64.796875 32.078125 64.796875 
z
M 9.8125 72.90625 
L 32.078125 72.90625 
Q 44.34375 72.90625 50.609375 67.359375 
Q 56.890625 61.8125 56.890625 51.125 
Q 56.890625 40.328125 50.609375 34.8125 
Q 44.34375 29.296875 32.078125 29.296875 
L 19.671875 29.296875 
L 19.671875 0 
L 9.8125 0 
z
" id="DejaVuSans-80"/>
     <path d="M 30.609375 48.390625 
Q 23.390625 48.390625 19.1875 42.75 
Q 14.984375 37.109375 14.984375 27.296875 
Q 14.984375 17.484375 19.15625 11.84375 
Q 23.34375 6.203125 30.609375 6.203125 
Q 37.796875 6.203125 41.984375 11.859375 
Q 46.1875 17.53125 46.1875 27.296875 
Q 46.1875 37.015625 41.984375 42.703125 
Q 37.796875 48.390625 30.609375 48.390625 
z
M 30.609375 56 
Q 42.328125 56 49.015625 48.375 
Q 55.71875 40.765625 55.71875 27.296875 
Q 55.71875 13.875 49.015625 6.21875 
Q 42.328125 -1.421875 30.609375 -1.421875 
Q 18.84375 -1.421875 12.171875 6.21875 
Q 5.515625 13.875 5.515625 27.296875 
Q 5.515625 40.765625 12.171875 48.375 
Q 18.84375 56 30.609375 56 
z
" id="DejaVuSans-111"/>
     <path d="M 44.28125 53.078125 
L 44.28125 44.578125 
Q 40.484375 46.53125 36.375 47.5 
Q 32.28125 48.484375 27.875 48.484375 
Q 21.1875 48.484375 17.84375 46.4375 
Q 14.5 44.390625 14.5 40.28125 
Q 14.5 37.15625 16.890625 35.375 
Q 19.28125 33.59375 26.515625 31.984375 
L 29.59375 31.296875 
Q 39.15625 29.25 43.1875 25.515625 
Q 47.21875 21.78125 47.21875 15.09375 
Q 47.21875 7.46875 41.1875 3.015625 
Q 35.15625 -1.421875 24.609375 -1.421875 
Q 20.21875 -1.421875 15.453125 -0.5625 
Q 10.6875 0.296875 5.421875 2 
L 5.421875 11.28125 
Q 10.40625 8.6875 15.234375 7.390625 
Q 20.0625 6.109375 24.8125 6.109375 
Q 31.15625 6.109375 34.5625 8.28125 
Q 37.984375 10.453125 37.984375 14.40625 
Q 37.984375 18.0625 35.515625 20.015625 
Q 33.0625 21.96875 24.703125 23.78125 
L 21.578125 24.515625 
Q 13.234375 26.265625 9.515625 29.90625 
Q 5.8125 33.546875 5.8125 39.890625 
Q 5.8125 47.609375 11.28125 51.796875 
Q 16.75 56 26.8125 56 
Q 31.78125 56 36.171875 55.265625 
Q 40.578125 54.546875 44.28125 53.078125 
z
" id="DejaVuSans-115"/>
     <path d="M 9.421875 54.6875 
L 18.40625 54.6875 
L 18.40625 0 
L 9.421875 0 
z
M 9.421875 75.984375 
L 18.40625 75.984375 
L 18.40625 64.59375 
L 9.421875 64.59375 
z
" id="DejaVuSans-105"/>
     <path d="M 2.984375 54.6875 
L 12.5 54.6875 
L 29.59375 8.796875 
L 46.6875 54.6875 
L 56.203125 54.6875 
L 35.6875 0 
L 23.484375 0 
z
" id="DejaVuSans-118"/>
     <path d="M 32.171875 -5.078125 
Q 28.375 -14.84375 24.75 -17.8125 
Q 21.140625 -20.796875 15.09375 -20.796875 
L 7.90625 -20.796875 
L 7.90625 -13.28125 
L 13.1875 -13.28125 
Q 16.890625 -13.28125 18.9375 -11.515625 
Q 21 -9.765625 23.484375 -3.21875 
L 25.09375 0.875 
L 2.984375 54.6875 
L 12.5 54.6875 
L 29.59375 11.921875 
L 46.6875 54.6875 
L 56.203125 54.6875 
z
" id="DejaVuSans-121"/>
     <path id="DejaVuSans-32"/>
     <path d="M 41.109375 46.296875 
Q 39.59375 47.171875 37.8125 47.578125 
Q 36.03125 48 33.890625 48 
Q 26.265625 48 22.1875 43.046875 
Q 18.109375 38.09375 18.109375 28.8125 
L 18.109375 0 
L 9.078125 0 
L 9.078125 54.6875 
L 18.109375 54.6875 
L 18.109375 46.1875 
Q 20.953125 51.171875 25.484375 53.578125 
Q 30.03125 56 36.53125 56 
Q 37.453125 56 38.578125 55.875 
Q 39.703125 55.765625 41.0625 55.515625 
z
" id="DejaVuSans-114"/>
     <path d="M 31 75.875 
Q 24.46875 64.65625 21.28125 53.65625 
Q 18.109375 42.671875 18.109375 31.390625 
Q 18.109375 20.125 21.3125 9.0625 
Q 24.515625 -2 31 -13.1875 
L 23.1875 -13.1875 
Q 15.875 -1.703125 12.234375 9.375 
Q 8.59375 20.453125 8.59375 31.390625 
Q 8.59375 42.28125 12.203125 53.3125 
Q 15.828125 64.359375 23.1875 75.875 
z
" id="DejaVuSans-40"/>
     <path d="M 45.40625 46.390625 
L 45.40625 75.984375 
L 54.390625 75.984375 
L 54.390625 0 
L 45.40625 0 
L 45.40625 8.203125 
Q 42.578125 3.328125 38.25 0.953125 
Q 33.9375 -1.421875 27.875 -1.421875 
Q 17.96875 -1.421875 11.734375 6.484375 
Q 5.515625 14.40625 5.515625 27.296875 
Q 5.515625 40.1875 11.734375 48.09375 
Q 17.96875 56 27.875 56 
Q 33.9375 56 38.25 53.625 
Q 42.578125 51.265625 45.40625 46.390625 
z
M 14.796875 27.296875 
Q 14.796875 17.390625 18.875 11.75 
Q 22.953125 6.109375 30.078125 6.109375 
Q 37.203125 6.109375 41.296875 11.75 
Q 45.40625 17.390625 45.40625 27.296875 
Q 45.40625 37.203125 41.296875 42.84375 
Q 37.203125 48.484375 30.078125 48.484375 
Q 22.953125 48.484375 18.875 42.84375 
Q 14.796875 37.203125 14.796875 27.296875 
z
" id="DejaVuSans-100"/>
     <path d="M 9.421875 75.984375 
L 18.40625 75.984375 
L 18.40625 0 
L 9.421875 0 
z
" id="DejaVuSans-108"/>
     <path d="M 54.890625 33.015625 
L 54.890625 0 
L 45.90625 0 
L 45.90625 32.71875 
Q 45.90625 40.484375 42.875 44.328125 
Q 39.84375 48.1875 33.796875 48.1875 
Q 26.515625 48.1875 22.3125 43.546875 
Q 18.109375 38.921875 18.109375 30.90625 
L 18.109375 0 
L 9.078125 0 
L 9.078125 54.6875 
L 18.109375 54.6875 
L 18.109375 46.1875 
Q 21.34375 51.125 25.703125 53.5625 
Q 30.078125 56 35.796875 56 
Q 45.21875 56 50.046875 50.171875 
Q 54.890625 44.34375 54.890625 33.015625 
z
" id="DejaVuSans-110"/>
     <path d="M 45.40625 27.984375 
Q 45.40625 37.75 41.375 43.109375 
Q 37.359375 48.484375 30.078125 48.484375 
Q 22.859375 48.484375 18.828125 43.109375 
Q 14.796875 37.75 14.796875 27.984375 
Q 14.796875 18.265625 18.828125 12.890625 
Q 22.859375 7.515625 30.078125 7.515625 
Q 37.359375 7.515625 41.375 12.890625 
Q 45.40625 18.265625 45.40625 27.984375 
z
M 54.390625 6.78125 
Q 54.390625 -7.171875 48.1875 -13.984375 
Q 42 -20.796875 29.203125 -20.796875 
Q 24.46875 -20.796875 20.265625 -20.09375 
Q 16.0625 -19.390625 12.109375 -17.921875 
L 12.109375 -9.1875 
Q 16.0625 -11.328125 19.921875 -12.34375 
Q 23.78125 -13.375 27.78125 -13.375 
Q 36.625 -13.375 41.015625 -8.765625 
Q 45.40625 -4.15625 45.40625 5.171875 
L 45.40625 9.625 
Q 42.625 4.78125 38.28125 2.390625 
Q 33.9375 0 27.875 0 
Q 17.828125 0 11.671875 7.65625 
Q 5.515625 15.328125 5.515625 27.984375 
Q 5.515625 40.671875 11.671875 48.328125 
Q 17.828125 56 27.875 56 
Q 33.9375 56 38.28125 53.609375 
Q 42.625 51.21875 45.40625 46.390625 
L 45.40625 54.6875 
L 54.390625 54.6875 
z
" id="DejaVuSans-103"/>
     <path d="M 8.015625 75.875 
L 15.828125 75.875 
Q 23.140625 64.359375 26.78125 53.3125 
Q 30.421875 42.28125 30.421875 31.390625 
Q 30.421875 20.453125 26.78125 9.375 
Q 23.140625 -1.703125 15.828125 -13.1875 
L 8.015625 -13.1875 
Q 14.5 -2 17.703125 9.0625 
Q 20.90625 20.125 20.90625 31.390625 
Q 20.90625 42.671875 17.703125 53.65625 
Q 14.5 64.65625 8.015625 75.875 
z
" id="DejaVuSans-41"/>
    </defs>
    <g transform="translate(201.46625 20.8)scale(0.12 -0.12)">
     <use xlink:href="#DejaVuSans-80"/>
     <use x="56.677734" xlink:href="#DejaVuSans-111"/>
     <use x="117.859375" xlink:href="#DejaVuSans-115"/>
     <use x="169.958984" xlink:href="#DejaVuSans-105"/>
     <use x="197.742188" xlink:href="#DejaVuSans-116"/>
     <use x="236.951172" xlink:href="#DejaVuSans-105"/>
     <use x="264.734375" xlink:href="#DejaVuSans-118"/>
     <use x="323.914062" xlink:href="#DejaVuSans-105"/>
     <use x="351.697266" xlink:href="#DejaVuSans-116"/>
     <use x="390.90625" xlink:href="#DejaVuSans-121"/>
     <use x="450.085938" xlink:href="#DejaVuSans-32"/>
     <use x="481.873047" xlink:href="#DejaVuSans-114"/>
     <use x="522.986328" xlink:href="#DejaVuSans-97"/>
     <use x="584.265625" xlink:href="#DejaVuSans-116"/>
     <use x="623.474609" xlink:href="#DejaVuSans-101"/>
     <use x="684.998047" xlink:href="#DejaVuSans-32"/>
     <use x="716.785156" xlink:href="#DejaVuSans-40"/>
     <use x="755.798828" xlink:href="#DejaVuSans-55"/>
     <use x="819.421875" xlink:href="#DejaVuSans-32"/>
     <use x="851.208984" xlink:href="#DejaVuSans-100"/>
     <use x="914.685547" xlink:href="#DejaVuSans-97"/>
     <use x="975.964844" xlink:href="#DejaVuSans-121"/>
     <use x="1035.144531" xlink:href="#DejaVuSans-32"/>
     <use x="1066.931641" xlink:href="#DejaVuSans-114"/>
     <use x="1105.794922" xlink:href="#DejaVuSans-111"/>
     <use x="1166.976562" xlink:href="#DejaVuSans-108"/>
     <use x="1194.759766" xlink:href="#DejaVuSans-108"/>
     <use x="1222.542969" xlink:href="#DejaVuSans-105"/>
     <use x="1250.326172" xlink:href="#DejaVuSans-110"/>
     <use x="1313.705078" xlink:href="#DejaVuSans-103"/>
     <use x="1377.181641" xlink:href="#DejaVuSans-41"/>
    </g>
   </g>
   <g id="legend_1">
    <g id="patch_7">
     <path d="M 218.853906 93.5125 
L 354.021094 93.5125 
Q 356.021094 93.5125 356.021094 91.5125 
L 356.021094 33.8 
Q 356.021094 31.8 354.021094 31.8 
L 218.853906 31.8 
Q 216.853906 31.8 216.853906 33.8 
L 216.853906 91.5125 
Q 216.853906 93.5125 218.853906 93.5125 
z
" style="fill:#ffffff;opacity:0.8;stroke:#cccccc;stroke-linejoin:miter;stroke-width:0.3;"/>
    </g>
    <g id="line2d_20">
     <path d="M 220.853906 39.898438 
L 240.853906 39.898438 
" style="fill:none;stroke:#1f77b4;stroke-linecap:square;stroke-width:1.75;"/>
    </g>
    <g id="line2d_21"/>
    <g id="text_18">
     <!-- ENGLAND -->
     <defs>
      <path d="M 9.8125 72.90625 
L 55.90625 72.90625 
L 55.90625 64.59375 
L 19.671875 64.59375 
L 19.671875 43.015625 
L 54.390625 43.015625 
L 54.390625 34.71875 
L 19.671875 34.71875 
L 19.671875 8.296875 
L 56.78125 8.296875 
L 56.78125 0 
L 9.8125 0 
z
" id="DejaVuSans-69"/>
      <path d="M 9.8125 72.90625 
L 23.09375 72.90625 
L 55.421875 11.921875 
L 55.421875 72.90625 
L 64.984375 72.90625 
L 64.984375 0 
L 51.703125 0 
L 19.390625 60.984375 
L 19.390625 0 
L 9.8125 0 
z
" id="DejaVuSans-78"/>
      <path d="M 59.515625 10.40625 
L 59.515625 29.984375 
L 43.40625 29.984375 
L 43.40625 38.09375 
L 69.28125 38.09375 
L 69.28125 6.78125 
Q 63.578125 2.734375 56.6875 0.65625 
Q 49.8125 -1.421875 42 -1.421875 
Q 24.90625 -1.421875 15.25 8.5625 
Q 5.609375 18.5625 5.609375 36.375 
Q 5.609375 54.25 15.25 64.234375 
Q 24.90625 74.21875 42 74.21875 
Q 49.125 74.21875 55.546875 72.453125 
Q 61.96875 70.703125 67.390625 67.28125 
L 67.390625 56.78125 
Q 61.921875 61.421875 55.765625 63.765625 
Q 49.609375 66.109375 42.828125 66.109375 
Q 29.4375 66.109375 22.71875 58.640625 
Q 16.015625 51.171875 16.015625 36.375 
Q 16.015625 21.625 22.71875 14.15625 
Q 29.4375 6.6875 42.828125 6.6875 
Q 48.046875 6.6875 52.140625 7.59375 
Q 56.25 8.5 59.515625 10.40625 
z
" id="DejaVuSans-71"/>
      <path d="M 9.8125 72.90625 
L 19.671875 72.90625 
L 19.671875 8.296875 
L 55.171875 8.296875 
L 55.171875 0 
L 9.8125 0 
z
" id="DejaVuSans-76"/>
      <path d="M 34.1875 63.1875 
L 20.796875 26.90625 
L 47.609375 26.90625 
z
M 28.609375 72.90625 
L 39.796875 72.90625 
L 67.578125 0 
L 57.328125 0 
L 50.6875 18.703125 
L 17.828125 18.703125 
L 11.1875 0 
L 0.78125 0 
z
" id="DejaVuSans-65"/>
     </defs>
     <g transform="translate(248.853906 43.398438)scale(0.1 -0.1)">
      <use xlink:href="#DejaVuSans-69"/>
      <use x="63.183594" xlink:href="#DejaVuSans-78"/>
      <use x="137.988281" xlink:href="#DejaVuSans-71"/>
      <use x="215.478516" xlink:href="#DejaVuSans-76"/>
      <use x="273.441406" xlink:href="#DejaVuSans-65"/>
      <use x="341.849609" xlink:href="#DejaVuSans-78"/>
      <use x="416.654297" xlink:href="#DejaVuSans-68"/>
     </g>
    </g>
    <g id="line2d_22">
     <path d="M 220.853906 54.576563 
L 240.853906 54.576563 
" style="fill:none;stroke:#ff7f0e;stroke-linecap:square;stroke-width:1.75;"/>
    </g>
    <g id="line2d_23"/>
    <g id="text_19">
     <!-- SCOTLAND -->
     <defs>
      <path d="M 53.515625 70.515625 
L 53.515625 60.890625 
Q 47.90625 63.578125 42.921875 64.890625 
Q 37.9375 66.21875 33.296875 66.21875 
Q 25.25 66.21875 20.875 63.09375 
Q 16.5 59.96875 16.5 54.203125 
Q 16.5 49.359375 19.40625 46.890625 
Q 22.3125 44.4375 30.421875 42.921875 
L 36.375 41.703125 
Q 47.40625 39.59375 52.65625 34.296875 
Q 57.90625 29 57.90625 20.125 
Q 57.90625 9.515625 50.796875 4.046875 
Q 43.703125 -1.421875 29.984375 -1.421875 
Q 24.8125 -1.421875 18.96875 -0.25 
Q 13.140625 0.921875 6.890625 3.21875 
L 6.890625 13.375 
Q 12.890625 10.015625 18.65625 8.296875 
Q 24.421875 6.59375 29.984375 6.59375 
Q 38.421875 6.59375 43.015625 9.90625 
Q 47.609375 13.234375 47.609375 19.390625 
Q 47.609375 24.75 44.3125 27.78125 
Q 41.015625 30.8125 33.5 32.328125 
L 27.484375 33.5 
Q 16.453125 35.6875 11.515625 40.375 
Q 6.59375 45.0625 6.59375 53.421875 
Q 6.59375 63.09375 13.40625 68.65625 
Q 20.21875 74.21875 32.171875 74.21875 
Q 37.3125 74.21875 42.625 73.28125 
Q 47.953125 72.359375 53.515625 70.515625 
z
" id="DejaVuSans-83"/>
      <path d="M 64.40625 67.28125 
L 64.40625 56.890625 
Q 59.421875 61.53125 53.78125 63.8125 
Q 48.140625 66.109375 41.796875 66.109375 
Q 29.296875 66.109375 22.65625 58.46875 
Q 16.015625 50.828125 16.015625 36.375 
Q 16.015625 21.96875 22.65625 14.328125 
Q 29.296875 6.6875 41.796875 6.6875 
Q 48.140625 6.6875 53.78125 8.984375 
Q 59.421875 11.28125 64.40625 15.921875 
L 64.40625 5.609375 
Q 59.234375 2.09375 53.4375 0.328125 
Q 47.65625 -1.421875 41.21875 -1.421875 
Q 24.65625 -1.421875 15.125 8.703125 
Q 5.609375 18.84375 5.609375 36.375 
Q 5.609375 53.953125 15.125 64.078125 
Q 24.65625 74.21875 41.21875 74.21875 
Q 47.75 74.21875 53.53125 72.484375 
Q 59.328125 70.75 64.40625 67.28125 
z
" id="DejaVuSans-67"/>
      <path d="M 39.40625 66.21875 
Q 28.65625 66.21875 22.328125 58.203125 
Q 16.015625 50.203125 16.015625 36.375 
Q 16.015625 22.609375 22.328125 14.59375 
Q 28.65625 6.59375 39.40625 6.59375 
Q 50.140625 6.59375 56.421875 14.59375 
Q 62.703125 22.609375 62.703125 36.375 
Q 62.703125 50.203125 56.421875 58.203125 
Q 50.140625 66.21875 39.40625 66.21875 
z
M 39.40625 74.21875 
Q 54.734375 74.21875 63.90625 63.9375 
Q 73.09375 53.65625 73.09375 36.375 
Q 73.09375 19.140625 63.90625 8.859375 
Q 54.734375 -1.421875 39.40625 -1.421875 
Q 24.03125 -1.421875 14.8125 8.828125 
Q 5.609375 19.09375 5.609375 36.375 
Q 5.609375 53.65625 14.8125 63.9375 
Q 24.03125 74.21875 39.40625 74.21875 
z
" id="DejaVuSans-79"/>
      <path d="M -0.296875 72.90625 
L 61.375 72.90625 
L 61.375 64.59375 
L 35.5 64.59375 
L 35.5 0 
L 25.59375 0 
L 25.59375 64.59375 
L -0.296875 64.59375 
z
" id="DejaVuSans-84"/>
     </defs>
     <g transform="translate(248.853906 58.076563)scale(0.1 -0.1)">
      <use xlink:href="#DejaVuSans-83"/>
      <use x="63.476562" xlink:href="#DejaVuSans-67"/>
      <use x="133.300781" xlink:href="#DejaVuSans-79"/>
      <use x="212.011719" xlink:href="#DejaVuSans-84"/>
      <use x="273.095703" xlink:href="#DejaVuSans-76"/>
      <use x="331.058594" xlink:href="#DejaVuSans-65"/>
      <use x="399.466797" xlink:href="#DejaVuSans-78"/>
      <use x="474.271484" xlink:href="#DejaVuSans-68"/>
     </g>
    </g>
    <g id="line2d_24">
     <path d="M 220.853906 69.254688 
L 240.853906 69.254688 
" style="fill:none;stroke:#2ca02c;stroke-linecap:square;stroke-width:1.75;"/>
    </g>
    <g id="line2d_25"/>
    <g id="text_20">
     <!-- WALES -->
     <defs>
      <path d="M 3.328125 72.90625 
L 13.28125 72.90625 
L 28.609375 11.28125 
L 43.890625 72.90625 
L 54.984375 72.90625 
L 70.3125 11.28125 
L 85.59375 72.90625 
L 95.609375 72.90625 
L 77.296875 0 
L 64.890625 0 
L 49.515625 63.28125 
L 33.984375 0 
L 21.578125 0 
z
" id="DejaVuSans-87"/>
     </defs>
     <g transform="translate(248.853906 72.754688)scale(0.1 -0.1)">
      <use xlink:href="#DejaVuSans-87"/>
      <use x="93.376953" xlink:href="#DejaVuSans-65"/>
      <use x="161.785156" xlink:href="#DejaVuSans-76"/>
      <use x="217.498047" xlink:href="#DejaVuSans-69"/>
      <use x="280.681641" xlink:href="#DejaVuSans-83"/>
     </g>
    </g>
    <g id="line2d_26">
     <path d="M 220.853906 83.932813 
L 240.853906 83.932813 
" style="fill:none;stroke:#d62728;stroke-linecap:square;stroke-width:1.75;"/>
    </g>
    <g id="line2d_27"/>
    <g id="text_21">
     <!-- NORTHERN IRELAND -->
     <defs>
      <path d="M 44.390625 34.1875 
Q 47.5625 33.109375 50.5625 29.59375 
Q 53.5625 26.078125 56.59375 19.921875 
L 66.609375 0 
L 56 0 
L 46.6875 18.703125 
Q 43.0625 26.03125 39.671875 28.421875 
Q 36.28125 30.8125 30.421875 30.8125 
L 19.671875 30.8125 
L 19.671875 0 
L 9.8125 0 
L 9.8125 72.90625 
L 32.078125 72.90625 
Q 44.578125 72.90625 50.734375 67.671875 
Q 56.890625 62.453125 56.890625 51.90625 
Q 56.890625 45.015625 53.6875 40.46875 
Q 50.484375 35.9375 44.390625 34.1875 
z
M 19.671875 64.796875 
L 19.671875 38.921875 
L 32.078125 38.921875 
Q 39.203125 38.921875 42.84375 42.21875 
Q 46.484375 45.515625 46.484375 51.90625 
Q 46.484375 58.296875 42.84375 61.546875 
Q 39.203125 64.796875 32.078125 64.796875 
z
" id="DejaVuSans-82"/>
      <path d="M 9.8125 72.90625 
L 19.671875 72.90625 
L 19.671875 43.015625 
L 55.515625 43.015625 
L 55.515625 72.90625 
L 65.375 72.90625 
L 65.375 0 
L 55.515625 0 
L 55.515625 34.71875 
L 19.671875 34.71875 
L 19.671875 0 
L 9.8125 0 
z
" id="DejaVuSans-72"/>
      <path d="M 9.8125 72.90625 
L 19.671875 72.90625 
L 19.671875 0 
L 9.8125 0 
z
" id="DejaVuSans-73"/>
     </defs>
     <g transform="translate(248.853906 87.432813)scale(0.1 -0.1)">
      <use xlink:href="#DejaVuSans-78"/>
      <use x="74.804688" xlink:href="#DejaVuSans-79"/>
      <use x="153.515625" xlink:href="#DejaVuSans-82"/>
      <use x="215.748047" xlink:href="#DejaVuSans-84"/>
      <use x="276.832031" xlink:href="#DejaVuSans-72"/>
      <use x="352.027344" xlink:href="#DejaVuSans-69"/>
      <use x="415.210938" xlink:href="#DejaVuSans-82"/>
      <use x="484.693359" xlink:href="#DejaVuSans-78"/>
      <use x="559.498047" xlink:href="#DejaVuSans-32"/>
      <use x="591.285156" xlink:href="#DejaVuSans-73"/>
      <use x="620.777344" xlink:href="#DejaVuSans-82"/>
      <use x="690.259766" xlink:href="#DejaVuSans-69"/>
      <use x="753.443359" xlink:href="#DejaVuSans-76"/>
      <use x="811.40625" xlink:href="#DejaVuSans-65"/>
      <use x="879.814453" xlink:href="#DejaVuSans-78"/>
      <use x="954.619141" xlink:href="#DejaVuSans-68"/>
     </g>
    </g>
   </g>
  </g>
 </g>
 <defs>
  <clipPath id="p4cca3e63c8">
   <rect height="268.302246" width="485.525" x="43.675" y="26.8"/>
  </clipPath>
 </defs>
</svg>
