<?xml version="1.0" encoding="utf-8" standalone="no"?>
<!DOCTYPE svg PUBLIC "-//W3C//DTD SVG 1.1//EN"
  "http://www.w3.org/Graphics/SVG/1.1/DTD/svg11.dtd">
<!-- Created with matplotlib (https://matplotlib.org/) -->
<svg height="396pt" version="1.1" viewBox="0 0 576 396" width="576pt" xmlns="http://www.w3.org/2000/svg" xmlns:xlink="http://www.w3.org/1999/xlink">
 <defs>
  <style type="text/css">
*{stroke-linecap:butt;stroke-linejoin:round;}
  </style>
 </defs>
 <g id="figure_1">
  <g id="patch_1">
   <path d="M 0 396 
L 576 396 
L 576 0 
L 0 0 
z
" style="fill:#ffffff;"/>
  </g>
  <g id="axes_1">
   <g id="patch_2">
    <path d="M 72 346.5 
L 518.4 346.5 
L 518.4 47.52 
L 72 47.52 
z
" style="fill:#ffffff;"/>
   </g>
   <g id="matplotlib.axis_1">
    <g id="xtick_1">
     <g id="line2d_1">
      <defs>
       <path d="M 0 0 
L 0 3.5 
" id="m27ed2b7505" style="stroke:#000000;"/>
      </defs>
      <g>
       <use style="stroke:#000000;" x="80.442203" xlink:href="#m27ed2b7505" y="346.5"/>
      </g>
     </g>
     <g id="text_1">
      <!-- 2020-01 -->
      <defs>
       <path d="M 19.1875 8.296875 
L 53.609375 8.296875 
L 53.609375 0 
L 7.328125 0 
L 7.328125 8.296875 
Q 12.9375 14.109375 22.625 23.890625 
Q 32.328125 33.6875 34.8125 36.53125 
Q 39.546875 41.84375 41.421875 45.53125 
Q 43.3125 49.21875 43.3125 52.78125 
Q 43.3125 58.59375 39.234375 62.25 
Q 35.15625 65.921875 28.609375 65.921875 
Q 23.96875 65.921875 18.8125 64.3125 
Q 13.671875 62.703125 7.8125 59.421875 
L 7.8125 69.390625 
Q 13.765625 71.78125 18.9375 73 
Q 24.125 74.21875 28.421875 74.21875 
Q 39.75 74.21875 46.484375 68.546875 
Q 53.21875 62.890625 53.21875 53.421875 
Q 53.21875 48.921875 51.53125 44.890625 
Q 49.859375 40.875 45.40625 35.40625 
Q 44.1875 33.984375 37.640625 27.21875 
Q 31.109375 20.453125 19.1875 8.296875 
z
" id="DejaVuSans-50"/>
       <path d="M 31.78125 66.40625 
Q 24.171875 66.40625 20.328125 58.90625 
Q 16.5 51.421875 16.5 36.375 
Q 16.5 21.390625 20.328125 13.890625 
Q 24.171875 6.390625 31.78125 6.390625 
Q 39.453125 6.390625 43.28125 13.890625 
Q 47.125 21.390625 47.125 36.375 
Q 47.125 51.421875 43.28125 58.90625 
Q 39.453125 66.40625 31.78125 66.40625 
z
M 31.78125 74.21875 
Q 44.046875 74.21875 50.515625 64.515625 
Q 56.984375 54.828125 56.984375 36.375 
Q 56.984375 17.96875 50.515625 8.265625 
Q 44.046875 -1.421875 31.78125 -1.421875 
Q 19.53125 -1.421875 13.0625 8.265625 
Q 6.59375 17.96875 6.59375 36.375 
Q 6.59375 54.828125 13.0625 64.515625 
Q 19.53125 74.21875 31.78125 74.21875 
z
" id="DejaVuSans-48"/>
       <path d="M 4.890625 31.390625 
L 31.203125 31.390625 
L 31.203125 23.390625 
L 4.890625 23.390625 
z
" id="DejaVuSans-45"/>
       <path d="M 12.40625 8.296875 
L 28.515625 8.296875 
L 28.515625 63.921875 
L 10.984375 60.40625 
L 10.984375 69.390625 
L 28.421875 72.90625 
L 38.28125 72.90625 
L 38.28125 8.296875 
L 54.390625 8.296875 
L 54.390625 0 
L 12.40625 0 
z
" id="DejaVuSans-49"/>
      </defs>
      <g transform="translate(43.217382 384.471846)rotate(-30)scale(0.1 -0.1)">
       <use xlink:href="#DejaVuSans-50"/>
       <use x="63.623047" xlink:href="#DejaVuSans-48"/>
       <use x="127.246094" xlink:href="#DejaVuSans-50"/>
       <use x="190.869141" xlink:href="#DejaVuSans-48"/>
       <use x="254.492188" xlink:href="#DejaVuSans-45"/>
       <use x="290.576172" xlink:href="#DejaVuSans-48"/>
       <use x="354.199219" xlink:href="#DejaVuSans-49"/>
      </g>
     </g>
    </g>
    <g id="xtick_2">
     <g id="line2d_2">
      <g>
       <use style="stroke:#000000;" x="126.355939" xlink:href="#m27ed2b7505" y="346.5"/>
      </g>
     </g>
     <g id="text_2">
      <!-- 2020-02 -->
      <g transform="translate(89.131118 384.471846)rotate(-30)scale(0.1 -0.1)">
       <use xlink:href="#DejaVuSans-50"/>
       <use x="63.623047" xlink:href="#DejaVuSans-48"/>
       <use x="127.246094" xlink:href="#DejaVuSans-50"/>
       <use x="190.869141" xlink:href="#DejaVuSans-48"/>
       <use x="254.492188" xlink:href="#DejaVuSans-45"/>
       <use x="290.576172" xlink:href="#DejaVuSans-48"/>
       <use x="354.199219" xlink:href="#DejaVuSans-50"/>
      </g>
     </g>
    </g>
    <g id="xtick_3">
     <g id="line2d_3">
      <g>
       <use style="stroke:#000000;" x="169.307498" xlink:href="#m27ed2b7505" y="346.5"/>
      </g>
     </g>
     <g id="text_3">
      <!-- 2020-03 -->
      <defs>
       <path d="M 40.578125 39.3125 
Q 47.65625 37.796875 51.625 33 
Q 55.609375 28.21875 55.609375 21.1875 
Q 55.609375 10.40625 48.1875 4.484375 
Q 40.765625 -1.421875 27.09375 -1.421875 
Q 22.515625 -1.421875 17.65625 -0.515625 
Q 12.796875 0.390625 7.625 2.203125 
L 7.625 11.71875 
Q 11.71875 9.328125 16.59375 8.109375 
Q 21.484375 6.890625 26.8125 6.890625 
Q 36.078125 6.890625 40.9375 10.546875 
Q 45.796875 14.203125 45.796875 21.1875 
Q 45.796875 27.640625 41.28125 31.265625 
Q 36.765625 34.90625 28.71875 34.90625 
L 20.21875 34.90625 
L 20.21875 43.015625 
L 29.109375 43.015625 
Q 36.375 43.015625 40.234375 45.921875 
Q 44.09375 48.828125 44.09375 54.296875 
Q 44.09375 59.90625 40.109375 62.90625 
Q 36.140625 65.921875 28.71875 65.921875 
Q 24.65625 65.921875 20.015625 65.03125 
Q 15.375 64.15625 9.8125 62.3125 
L 9.8125 71.09375 
Q 15.4375 72.65625 20.34375 73.4375 
Q 25.25 74.21875 29.59375 74.21875 
Q 40.828125 74.21875 47.359375 69.109375 
Q 53.90625 64.015625 53.90625 55.328125 
Q 53.90625 49.265625 50.4375 45.09375 
Q 46.96875 40.921875 40.578125 39.3125 
z
" id="DejaVuSans-51"/>
      </defs>
      <g transform="translate(132.082678 384.471846)rotate(-30)scale(0.1 -0.1)">
       <use xlink:href="#DejaVuSans-50"/>
       <use x="63.623047" xlink:href="#DejaVuSans-48"/>
       <use x="127.246094" xlink:href="#DejaVuSans-50"/>
       <use x="190.869141" xlink:href="#DejaVuSans-48"/>
       <use x="254.492188" xlink:href="#DejaVuSans-45"/>
       <use x="290.576172" xlink:href="#DejaVuSans-48"/>
       <use x="354.199219" xlink:href="#DejaVuSans-51"/>
      </g>
     </g>
    </g>
    <g id="xtick_4">
     <g id="line2d_4">
      <g>
       <use style="stroke:#000000;" x="215.221234" xlink:href="#m27ed2b7505" y="346.5"/>
      </g>
     </g>
     <g id="text_4">
      <!-- 2020-04 -->
      <defs>
       <path d="M 37.796875 64.3125 
L 12.890625 25.390625 
L 37.796875 25.390625 
z
M 35.203125 72.90625 
L 47.609375 72.90625 
L 47.609375 25.390625 
L 58.015625 25.390625 
L 58.015625 17.1875 
L 47.609375 17.1875 
L 47.609375 0 
L 37.796875 0 
L 37.796875 17.1875 
L 4.890625 17.1875 
L 4.890625 26.703125 
z
" id="DejaVuSans-52"/>
      </defs>
      <g transform="translate(177.996413 384.471846)rotate(-30)scale(0.1 -0.1)">
       <use xlink:href="#DejaVuSans-50"/>
       <use x="63.623047" xlink:href="#DejaVuSans-48"/>
       <use x="127.246094" xlink:href="#DejaVuSans-50"/>
       <use x="190.869141" xlink:href="#DejaVuSans-48"/>
       <use x="254.492188" xlink:href="#DejaVuSans-45"/>
       <use x="290.576172" xlink:href="#DejaVuSans-48"/>
       <use x="354.199219" xlink:href="#DejaVuSans-52"/>
      </g>
     </g>
    </g>
    <g id="xtick_5">
     <g id="line2d_5">
      <g>
       <use style="stroke:#000000;" x="259.653882" xlink:href="#m27ed2b7505" y="346.5"/>
      </g>
     </g>
     <g id="text_5">
      <!-- 2020-05 -->
      <defs>
       <path d="M 10.796875 72.90625 
L 49.515625 72.90625 
L 49.515625 64.59375 
L 19.828125 64.59375 
L 19.828125 46.734375 
Q 21.96875 47.46875 24.109375 47.828125 
Q 26.265625 48.1875 28.421875 48.1875 
Q 40.625 48.1875 47.75 41.5 
Q 54.890625 34.8125 54.890625 23.390625 
Q 54.890625 11.625 47.5625 5.09375 
Q 40.234375 -1.421875 26.90625 -1.421875 
Q 22.3125 -1.421875 17.546875 -0.640625 
Q 12.796875 0.140625 7.71875 1.703125 
L 7.71875 11.625 
Q 12.109375 9.234375 16.796875 8.0625 
Q 21.484375 6.890625 26.703125 6.890625 
Q 35.15625 6.890625 40.078125 11.328125 
Q 45.015625 15.765625 45.015625 23.390625 
Q 45.015625 31 40.078125 35.4375 
Q 35.15625 39.890625 26.703125 39.890625 
Q 22.75 39.890625 18.8125 39.015625 
Q 14.890625 38.140625 10.796875 36.28125 
z
" id="DejaVuSans-53"/>
      </defs>
      <g transform="translate(222.429061 384.471846)rotate(-30)scale(0.1 -0.1)">
       <use xlink:href="#DejaVuSans-50"/>
       <use x="63.623047" xlink:href="#DejaVuSans-48"/>
       <use x="127.246094" xlink:href="#DejaVuSans-50"/>
       <use x="190.869141" xlink:href="#DejaVuSans-48"/>
       <use x="254.492188" xlink:href="#DejaVuSans-45"/>
       <use x="290.576172" xlink:href="#DejaVuSans-48"/>
       <use x="354.199219" xlink:href="#DejaVuSans-53"/>
      </g>
     </g>
    </g>
    <g id="xtick_6">
     <g id="line2d_6">
      <g>
       <use style="stroke:#000000;" x="305.567618" xlink:href="#m27ed2b7505" y="346.5"/>
      </g>
     </g>
     <g id="text_6">
      <!-- 2020-06 -->
      <defs>
       <path d="M 33.015625 40.375 
Q 26.375 40.375 22.484375 35.828125 
Q 18.609375 31.296875 18.609375 23.390625 
Q 18.609375 15.53125 22.484375 10.953125 
Q 26.375 6.390625 33.015625 6.390625 
Q 39.65625 6.390625 43.53125 10.953125 
Q 47.40625 15.53125 47.40625 23.390625 
Q 47.40625 31.296875 43.53125 35.828125 
Q 39.65625 40.375 33.015625 40.375 
z
M 52.59375 71.296875 
L 52.59375 62.3125 
Q 48.875 64.0625 45.09375 64.984375 
Q 41.3125 65.921875 37.59375 65.921875 
Q 27.828125 65.921875 22.671875 59.328125 
Q 17.53125 52.734375 16.796875 39.40625 
Q 19.671875 43.65625 24.015625 45.921875 
Q 28.375 48.1875 33.59375 48.1875 
Q 44.578125 48.1875 50.953125 41.515625 
Q 57.328125 34.859375 57.328125 23.390625 
Q 57.328125 12.15625 50.6875 5.359375 
Q 44.046875 -1.421875 33.015625 -1.421875 
Q 20.359375 -1.421875 13.671875 8.265625 
Q 6.984375 17.96875 6.984375 36.375 
Q 6.984375 53.65625 15.1875 63.9375 
Q 23.390625 74.21875 37.203125 74.21875 
Q 40.921875 74.21875 44.703125 73.484375 
Q 48.484375 72.75 52.59375 71.296875 
z
" id="DejaVuSans-54"/>
      </defs>
      <g transform="translate(268.342797 384.471846)rotate(-30)scale(0.1 -0.1)">
       <use xlink:href="#DejaVuSans-50"/>
       <use x="63.623047" xlink:href="#DejaVuSans-48"/>
       <use x="127.246094" xlink:href="#DejaVuSans-50"/>
       <use x="190.869141" xlink:href="#DejaVuSans-48"/>
       <use x="254.492188" xlink:href="#DejaVuSans-45"/>
       <use x="290.576172" xlink:href="#DejaVuSans-48"/>
       <use x="354.199219" xlink:href="#DejaVuSans-54"/>
      </g>
     </g>
    </g>
    <g id="xtick_7">
     <g id="line2d_7">
      <g>
       <use style="stroke:#000000;" x="350.000265" xlink:href="#m27ed2b7505" y="346.5"/>
      </g>
     </g>
     <g id="text_7">
      <!-- 2020-07 -->
      <defs>
       <path d="M 8.203125 72.90625 
L 55.078125 72.90625 
L 55.078125 68.703125 
L 28.609375 0 
L 18.3125 0 
L 43.21875 64.59375 
L 8.203125 64.59375 
z
" id="DejaVuSans-55"/>
      </defs>
      <g transform="translate(312.775445 384.471846)rotate(-30)scale(0.1 -0.1)">
       <use xlink:href="#DejaVuSans-50"/>
       <use x="63.623047" xlink:href="#DejaVuSans-48"/>
       <use x="127.246094" xlink:href="#DejaVuSans-50"/>
       <use x="190.869141" xlink:href="#DejaVuSans-48"/>
       <use x="254.492188" xlink:href="#DejaVuSans-45"/>
       <use x="290.576172" xlink:href="#DejaVuSans-48"/>
       <use x="354.199219" xlink:href="#DejaVuSans-55"/>
      </g>
     </g>
    </g>
    <g id="xtick_8">
     <g id="line2d_8">
      <g>
       <use style="stroke:#000000;" x="395.914001" xlink:href="#m27ed2b7505" y="346.5"/>
      </g>
     </g>
     <g id="text_8">
      <!-- 2020-08 -->
      <defs>
       <path d="M 31.78125 34.625 
Q 24.75 34.625 20.71875 30.859375 
Q 16.703125 27.09375 16.703125 20.515625 
Q 16.703125 13.921875 20.71875 10.15625 
Q 24.75 6.390625 31.78125 6.390625 
Q 38.8125 6.390625 42.859375 10.171875 
Q 46.921875 13.96875 46.921875 20.515625 
Q 46.921875 27.09375 42.890625 30.859375 
Q 38.875 34.625 31.78125 34.625 
z
M 21.921875 38.8125 
Q 15.578125 40.375 12.03125 44.71875 
Q 8.5 49.078125 8.5 55.328125 
Q 8.5 64.0625 14.71875 69.140625 
Q 20.953125 74.21875 31.78125 74.21875 
Q 42.671875 74.21875 48.875 69.140625 
Q 55.078125 64.0625 55.078125 55.328125 
Q 55.078125 49.078125 51.53125 44.71875 
Q 48 40.375 41.703125 38.8125 
Q 48.828125 37.15625 52.796875 32.3125 
Q 56.78125 27.484375 56.78125 20.515625 
Q 56.78125 9.90625 50.3125 4.234375 
Q 43.84375 -1.421875 31.78125 -1.421875 
Q 19.734375 -1.421875 13.25 4.234375 
Q 6.78125 9.90625 6.78125 20.515625 
Q 6.78125 27.484375 10.78125 32.3125 
Q 14.796875 37.15625 21.921875 38.8125 
z
M 18.3125 54.390625 
Q 18.3125 48.734375 21.84375 45.5625 
Q 25.390625 42.390625 31.78125 42.390625 
Q 38.140625 42.390625 41.71875 45.5625 
Q 45.3125 48.734375 45.3125 54.390625 
Q 45.3125 60.0625 41.71875 63.234375 
Q 38.140625 66.40625 31.78125 66.40625 
Q 25.390625 66.40625 21.84375 63.234375 
Q 18.3125 60.0625 18.3125 54.390625 
z
" id="DejaVuSans-56"/>
      </defs>
      <g transform="translate(358.689181 384.471846)rotate(-30)scale(0.1 -0.1)">
       <use xlink:href="#DejaVuSans-50"/>
       <use x="63.623047" xlink:href="#DejaVuSans-48"/>
       <use x="127.246094" xlink:href="#DejaVuSans-50"/>
       <use x="190.869141" xlink:href="#DejaVuSans-48"/>
       <use x="254.492188" xlink:href="#DejaVuSans-45"/>
       <use x="290.576172" xlink:href="#DejaVuSans-48"/>
       <use x="354.199219" xlink:href="#DejaVuSans-56"/>
      </g>
     </g>
    </g>
    <g id="xtick_9">
     <g id="line2d_9">
      <g>
       <use style="stroke:#000000;" x="441.827737" xlink:href="#m27ed2b7505" y="346.5"/>
      </g>
     </g>
     <g id="text_9">
      <!-- 2020-09 -->
      <defs>
       <path d="M 10.984375 1.515625 
L 10.984375 10.5 
Q 14.703125 8.734375 18.5 7.8125 
Q 22.3125 6.890625 25.984375 6.890625 
Q 35.75 6.890625 40.890625 13.453125 
Q 46.046875 20.015625 46.78125 33.40625 
Q 43.953125 29.203125 39.59375 26.953125 
Q 35.25 24.703125 29.984375 24.703125 
Q 19.046875 24.703125 12.671875 31.3125 
Q 6.296875 37.9375 6.296875 49.421875 
Q 6.296875 60.640625 12.9375 67.421875 
Q 19.578125 74.21875 30.609375 74.21875 
Q 43.265625 74.21875 49.921875 64.515625 
Q 56.59375 54.828125 56.59375 36.375 
Q 56.59375 19.140625 48.40625 8.859375 
Q 40.234375 -1.421875 26.421875 -1.421875 
Q 22.703125 -1.421875 18.890625 -0.6875 
Q 15.09375 0.046875 10.984375 1.515625 
z
M 30.609375 32.421875 
Q 37.25 32.421875 41.125 36.953125 
Q 45.015625 41.5 45.015625 49.421875 
Q 45.015625 57.28125 41.125 61.84375 
Q 37.25 66.40625 30.609375 66.40625 
Q 23.96875 66.40625 20.09375 61.84375 
Q 16.21875 57.28125 16.21875 49.421875 
Q 16.21875 41.5 20.09375 36.953125 
Q 23.96875 32.421875 30.609375 32.421875 
z
" id="DejaVuSans-57"/>
      </defs>
      <g transform="translate(404.602916 384.471846)rotate(-30)scale(0.1 -0.1)">
       <use xlink:href="#DejaVuSans-50"/>
       <use x="63.623047" xlink:href="#DejaVuSans-48"/>
       <use x="127.246094" xlink:href="#DejaVuSans-50"/>
       <use x="190.869141" xlink:href="#DejaVuSans-48"/>
       <use x="254.492188" xlink:href="#DejaVuSans-45"/>
       <use x="290.576172" xlink:href="#DejaVuSans-48"/>
       <use x="354.199219" xlink:href="#DejaVuSans-57"/>
      </g>
     </g>
    </g>
    <g id="xtick_10">
     <g id="line2d_10">
      <g>
       <use style="stroke:#000000;" x="486.260385" xlink:href="#m27ed2b7505" y="346.5"/>
      </g>
     </g>
     <g id="text_10">
      <!-- 2020-10 -->
      <g transform="translate(449.035564 384.471846)rotate(-30)scale(0.1 -0.1)">
       <use xlink:href="#DejaVuSans-50"/>
       <use x="63.623047" xlink:href="#DejaVuSans-48"/>
       <use x="127.246094" xlink:href="#DejaVuSans-50"/>
       <use x="190.869141" xlink:href="#DejaVuSans-48"/>
       <use x="254.492188" xlink:href="#DejaVuSans-45"/>
       <use x="290.576172" xlink:href="#DejaVuSans-49"/>
       <use x="354.199219" xlink:href="#DejaVuSans-48"/>
      </g>
     </g>
    </g>
    <g id="text_11">
     <!-- Date -->
     <defs>
      <path d="M 19.671875 64.796875 
L 19.671875 8.109375 
L 31.59375 8.109375 
Q 46.6875 8.109375 53.6875 14.9375 
Q 60.6875 21.78125 60.6875 36.53125 
Q 60.6875 51.171875 53.6875 57.984375 
Q 46.6875 64.796875 31.59375 64.796875 
z
M 9.8125 72.90625 
L 30.078125 72.90625 
Q 51.265625 72.90625 61.171875 64.09375 
Q 71.09375 55.28125 71.09375 36.53125 
Q 71.09375 17.671875 61.125 8.828125 
Q 51.171875 0 30.078125 0 
L 9.8125 0 
z
" id="DejaVuSans-68"/>
      <path d="M 34.28125 27.484375 
Q 23.390625 27.484375 19.1875 25 
Q 14.984375 22.515625 14.984375 16.5 
Q 14.984375 11.71875 18.140625 8.90625 
Q 21.296875 6.109375 26.703125 6.109375 
Q 34.1875 6.109375 38.703125 11.40625 
Q 43.21875 16.703125 43.21875 25.484375 
L 43.21875 27.484375 
z
M 52.203125 31.203125 
L 52.203125 0 
L 43.21875 0 
L 43.21875 8.296875 
Q 40.140625 3.328125 35.546875 0.953125 
Q 30.953125 -1.421875 24.3125 -1.421875 
Q 15.921875 -1.421875 10.953125 3.296875 
Q 6 8.015625 6 15.921875 
Q 6 25.140625 12.171875 29.828125 
Q 18.359375 34.515625 30.609375 34.515625 
L 43.21875 34.515625 
L 43.21875 35.40625 
Q 43.21875 41.609375 39.140625 45 
Q 35.0625 48.390625 27.6875 48.390625 
Q 23 48.390625 18.546875 47.265625 
Q 14.109375 46.140625 10.015625 43.890625 
L 10.015625 52.203125 
Q 14.9375 54.109375 19.578125 55.046875 
Q 24.21875 56 28.609375 56 
Q 40.484375 56 46.34375 49.84375 
Q 52.203125 43.703125 52.203125 31.203125 
z
" id="DejaVuSans-97"/>
      <path d="M 18.3125 70.21875 
L 18.3125 54.6875 
L 36.8125 54.6875 
L 36.8125 47.703125 
L 18.3125 47.703125 
L 18.3125 18.015625 
Q 18.3125 11.328125 20.140625 9.421875 
Q 21.96875 7.515625 27.59375 7.515625 
L 36.8125 7.515625 
L 36.8125 0 
L 27.59375 0 
Q 17.1875 0 13.234375 3.875 
Q 9.28125 7.765625 9.28125 18.015625 
L 9.28125 47.703125 
L 2.6875 47.703125 
L 2.6875 54.6875 
L 9.28125 54.6875 
L 9.28125 70.21875 
z
" id="DejaVuSans-116"/>
      <path d="M 56.203125 29.59375 
L 56.203125 25.203125 
L 14.890625 25.203125 
Q 15.484375 15.921875 20.484375 11.0625 
Q 25.484375 6.203125 34.421875 6.203125 
Q 39.59375 6.203125 44.453125 7.46875 
Q 49.3125 8.734375 54.109375 11.28125 
L 54.109375 2.78125 
Q 49.265625 0.734375 44.1875 -0.34375 
Q 39.109375 -1.421875 33.890625 -1.421875 
Q 20.796875 -1.421875 13.15625 6.1875 
Q 5.515625 13.8125 5.515625 26.8125 
Q 5.515625 40.234375 12.765625 48.109375 
Q 20.015625 56 32.328125 56 
Q 43.359375 56 49.78125 48.890625 
Q 56.203125 41.796875 56.203125 29.59375 
z
M 47.21875 32.234375 
Q 47.125 39.59375 43.09375 43.984375 
Q 39.0625 48.390625 32.421875 48.390625 
Q 24.90625 48.390625 20.390625 44.140625 
Q 15.875 39.890625 15.1875 32.171875 
z
" id="DejaVuSans-101"/>
     </defs>
     <g transform="translate(282.054141 398.63119)scale(0.11 -0.11)">
      <use xlink:href="#DejaVuSans-68"/>
      <use x="77.001953" xlink:href="#DejaVuSans-97"/>
      <use x="138.28125" xlink:href="#DejaVuSans-116"/>
      <use x="177.490234" xlink:href="#DejaVuSans-101"/>
     </g>
    </g>
   </g>
   <g id="matplotlib.axis_2">
    <g id="ytick_1">
     <g id="line2d_11">
      <defs>
       <path d="M 0 0 
L -3.5 0 
" id="m99ba3d9b4e" style="stroke:#000000;"/>
      </defs>
      <g>
       <use style="stroke:#000000;" x="72" xlink:href="#m99ba3d9b4e" y="332.91"/>
      </g>
     </g>
     <g id="text_12">
      <!-- 0 -->
      <g transform="translate(55.1375 336.709219)scale(0.1 -0.1)">
       <use xlink:href="#DejaVuSans-48"/>
      </g>
     </g>
    </g>
    <g id="ytick_2">
     <g id="line2d_12">
      <g>
       <use style="stroke:#000000;" x="72" xlink:href="#m99ba3d9b4e" y="298.946097"/>
      </g>
     </g>
     <g id="text_13">
      <!-- 50 -->
      <g transform="translate(48.775 302.745316)scale(0.1 -0.1)">
       <use xlink:href="#DejaVuSans-53"/>
       <use x="63.623047" xlink:href="#DejaVuSans-48"/>
      </g>
     </g>
    </g>
    <g id="ytick_3">
     <g id="line2d_13">
      <g>
       <use style="stroke:#000000;" x="72" xlink:href="#m99ba3d9b4e" y="264.982194"/>
      </g>
     </g>
     <g id="text_14">
      <!-- 100 -->
      <g transform="translate(42.4125 268.781413)scale(0.1 -0.1)">
       <use xlink:href="#DejaVuSans-49"/>
       <use x="63.623047" xlink:href="#DejaVuSans-48"/>
       <use x="127.246094" xlink:href="#DejaVuSans-48"/>
      </g>
     </g>
    </g>
    <g id="ytick_4">
     <g id="line2d_14">
      <g>
       <use style="stroke:#000000;" x="72" xlink:href="#m99ba3d9b4e" y="231.018291"/>
      </g>
     </g>
     <g id="text_15">
      <!-- 150 -->
      <g transform="translate(42.4125 234.81751)scale(0.1 -0.1)">
       <use xlink:href="#DejaVuSans-49"/>
       <use x="63.623047" xlink:href="#DejaVuSans-53"/>
       <use x="127.246094" xlink:href="#DejaVuSans-48"/>
      </g>
     </g>
    </g>
    <g id="ytick_5">
     <g id="line2d_15">
      <g>
       <use style="stroke:#000000;" x="72" xlink:href="#m99ba3d9b4e" y="197.054388"/>
      </g>
     </g>
     <g id="text_16">
      <!-- 200 -->
      <g transform="translate(42.4125 200.853607)scale(0.1 -0.1)">
       <use xlink:href="#DejaVuSans-50"/>
       <use x="63.623047" xlink:href="#DejaVuSans-48"/>
       <use x="127.246094" xlink:href="#DejaVuSans-48"/>
      </g>
     </g>
    </g>
    <g id="ytick_6">
     <g id="line2d_16">
      <g>
       <use style="stroke:#000000;" x="72" xlink:href="#m99ba3d9b4e" y="163.090485"/>
      </g>
     </g>
     <g id="text_17">
      <!-- 250 -->
      <g transform="translate(42.4125 166.889704)scale(0.1 -0.1)">
       <use xlink:href="#DejaVuSans-50"/>
       <use x="63.623047" xlink:href="#DejaVuSans-53"/>
       <use x="127.246094" xlink:href="#DejaVuSans-48"/>
      </g>
     </g>
    </g>
    <g id="ytick_7">
     <g id="line2d_17">
      <g>
       <use style="stroke:#000000;" x="72" xlink:href="#m99ba3d9b4e" y="129.126582"/>
      </g>
     </g>
     <g id="text_18">
      <!-- 300 -->
      <g transform="translate(42.4125 132.925801)scale(0.1 -0.1)">
       <use xlink:href="#DejaVuSans-51"/>
       <use x="63.623047" xlink:href="#DejaVuSans-48"/>
       <use x="127.246094" xlink:href="#DejaVuSans-48"/>
      </g>
     </g>
    </g>
    <g id="ytick_8">
     <g id="line2d_18">
      <g>
       <use style="stroke:#000000;" x="72" xlink:href="#m99ba3d9b4e" y="95.162679"/>
      </g>
     </g>
     <g id="text_19">
      <!-- 350 -->
      <g transform="translate(42.4125 98.961897)scale(0.1 -0.1)">
       <use xlink:href="#DejaVuSans-51"/>
       <use x="63.623047" xlink:href="#DejaVuSans-53"/>
       <use x="127.246094" xlink:href="#DejaVuSans-48"/>
      </g>
     </g>
    </g>
    <g id="ytick_9">
     <g id="line2d_19">
      <g>
       <use style="stroke:#000000;" x="72" xlink:href="#m99ba3d9b4e" y="61.198776"/>
      </g>
     </g>
     <g id="text_20">
      <!-- 400 -->
      <g transform="translate(42.4125 64.997994)scale(0.1 -0.1)">
       <use xlink:href="#DejaVuSans-52"/>
       <use x="63.623047" xlink:href="#DejaVuSans-48"/>
       <use x="127.246094" xlink:href="#DejaVuSans-48"/>
      </g>
     </g>
    </g>
   </g>
   <g id="line2d_20">
    <path clip-path="url(#p7484460922)" d="M 92.290909 332.91 
L 172.269675 332.849659 
L 185.599469 332.247977 
L 188.561646 331.761804 
L 190.042734 331.425621 
L 191.523822 331.327352 
L 193.00491 330.784286 
L 194.485999 329.815388 
L 197.448175 328.187915 
L 198.929263 327.029375 
L 200.410352 326.543202 
L 201.89144 325.343286 
L 203.372528 323.796842 
L 204.853616 322.926213 
L 206.334705 320.797051 
L 207.815793 317.559345 
L 209.296881 315.376739 
L 210.777969 312.747612 
L 212.259058 310.482252 
L 213.740146 308.489288 
L 215.221234 304.179243 
L 216.702322 301.120836 
L 218.183411 299.276137 
L 219.664499 297.946919 
L 221.145587 292.693837 
L 222.626676 290.850862 
L 224.107764 289.878516 
L 225.588852 287.882103 
L 227.06994 287.511439 
L 228.551029 286.327039 
L 230.032117 284.721978 
L 231.513205 287.195944 
L 232.994293 287.501095 
L 234.475382 285.990855 
L 235.95647 288.749284 
L 237.437558 289.921616 
L 240.399735 290.90603 
L 241.880823 291.018091 
L 243.361911 292.049054 
L 244.842999 293.371376 
L 246.324088 293.661011 
L 247.805176 293.719627 
L 249.286264 295.410889 
L 250.767352 296.65563 
L 252.248441 299.164075 
L 253.729529 299.400266 
L 255.210617 301.293237 
L 256.691705 304.080974 
L 258.172794 305.115385 
L 259.653882 305.982566 
L 261.13497 307.013529 
L 262.616058 307.242823 
L 264.097147 308.585833 
L 265.578235 308.839263 
L 267.059323 308.480668 
L 268.540411 309.085798 
L 271.502588 311.992492 
L 272.983676 313.737198 
L 274.464764 314.761265 
L 275.945853 316.097378 
L 277.426941 316.899047 
L 278.908029 318.526519 
L 280.389117 319.529898 
L 283.351294 320.274674 
L 284.832382 320.403975 
L 286.31347 320.766019 
L 289.275647 321.898698 
L 290.756735 321.948695 
L 293.718912 322.571065 
L 299.643265 324.703675 
L 301.124353 325.605337 
L 305.567618 326.860422 
L 307.048706 326.943174 
L 310.010883 327.348319 
L 311.491971 327.536237 
L 312.973059 328.041374 
L 314.454147 328.199983 
L 315.935236 328.548235 
L 317.416324 328.191363 
L 318.897412 328.879246 
L 320.3785 329.098197 
L 323.340677 329.286115 
L 326.302853 328.956827 
L 327.783942 329.64471 
L 329.26503 329.318871 
L 332.227206 329.477481 
L 338.151559 329.836076 
L 339.632648 330.086059 
L 341.113736 330.120539 
L 344.075912 330.603264 
L 348.519177 330.889451 
L 350.000265 330.76877 
L 352.962442 329.753323 
L 355.924618 328.482722 
L 357.405707 328.08275 
L 360.367883 326.694916 
L 361.848971 326.532858 
L 363.33006 326.570787 
L 364.811148 326.179434 
L 367.773324 325.681193 
L 369.254413 326.025997 
L 370.735501 326.198399 
L 372.216589 326.232879 
L 373.697678 325.965656 
L 375.178766 325.982896 
L 379.622031 325.772566 
L 381.103119 325.750154 
L 384.065295 325.477759 
L 385.546384 325.626025 
L 388.50856 325.401902 
L 394.432913 324.427832 
L 397.39509 324.484725 
L 398.876178 324.070961 
L 403.319443 323.746845 
L 406.281619 323.85201 
L 407.762707 323.314117 
L 409.243796 323.584788 
L 410.724884 322.864148 
L 412.205972 322.655542 
L 413.68706 322.253846 
L 415.168149 321.412525 
L 416.649237 320.972901 
L 421.092502 321.250468 
L 422.57359 321.626303 
L 424.054678 321.66768 
L 425.535766 322.315911 
L 427.016855 322.098684 
L 428.497943 322.122821 
L 432.941208 321.464246 
L 434.422296 320.92118 
L 435.903384 320.579825 
L 437.384472 320.871184 
L 438.865561 319.924698 
L 440.346649 319.250607 
L 441.827737 319.291983 
L 443.308825 318.664441 
L 444.789914 318.39377 
L 447.75209 316.412874 
L 449.233179 314.535418 
L 450.714267 312.157998 
L 455.157532 306.691137 
L 458.119708 301.510464 
L 459.600796 301.060495 
L 461.081885 301.524256 
L 462.562973 300.567426 
L 464.044061 298.653766 
L 465.525149 298.291722 
L 468.487326 296.122908 
L 469.968414 295.360892 
L 472.930591 290.131946 
L 474.411679 287.223528 
L 475.892767 282.320422 
L 477.373855 278.955139 
L 478.854944 277.229397 
L 480.336032 274.607166 
L 481.81712 275.362286 
L 483.298208 272.838324 
L 484.779297 271.850461 
L 486.260385 271.924594 
L 487.741473 273.521035 
L 489.222561 262.889017 
L 490.70365 234.427207 
L 493.665826 209.659967 
L 495.146914 199.536535 
L 496.628003 183.394556 
L 498.109091 173.093549 
L 498.109091 173.093549 
" style="fill:none;stroke:#1f77b4;stroke-linecap:square;stroke-width:1.75;"/>
   </g>
   <g id="line2d_21">
    <path clip-path="url(#p7484460922)" d="M 92.290909 332.91 
L 175.231851 332.803427 
L 184.118381 332.32385 
L 187.080557 331.595604 
L 190.042734 330.512115 
L 191.523822 330.281208 
L 195.967087 329.251006 
L 197.448175 328.70038 
L 200.410352 328.238566 
L 203.372528 326.00054 
L 204.853616 324.171043 
L 206.334705 321.755396 
L 207.815793 319.819327 
L 209.296881 317.421442 
L 212.259058 314.011117 
L 213.740146 307.88319 
L 215.221234 304.650487 
L 216.702322 302.57232 
L 218.183411 298.415987 
L 219.664499 295.609574 
L 221.145587 291.666386 
L 222.626676 290.316466 
L 224.107764 293.193927 
L 225.588852 292.856447 
L 227.06994 291.080236 
L 228.551029 292.518967 
L 230.032117 293.034068 
L 231.513205 293.72679 
L 232.994293 295.503001 
L 234.475382 295.094473 
L 235.95647 294.135319 
L 237.437558 294.810279 
L 238.918646 295.005662 
L 240.399735 293.3005 
L 241.880823 292.501205 
L 243.361911 290.582897 
L 244.842999 291.808483 
L 246.324088 292.234773 
L 247.805176 291.932818 
L 249.286264 292.270298 
L 250.767352 293.282738 
L 252.248441 294.952376 
L 253.729529 296.124675 
L 255.210617 296.515441 
L 258.172794 298.380463 
L 259.653882 298.149555 
L 261.13497 299.588286 
L 262.616058 301.417783 
L 265.578235 302.430223 
L 267.059323 303.15847 
L 268.540411 305.005729 
L 270.0215 306.355649 
L 271.502588 308.433816 
L 272.983676 308.238432 
L 274.464764 308.735771 
L 275.945853 309.357445 
L 277.426941 311.240229 
L 278.908029 311.719806 
L 280.389117 313.176298 
L 281.870206 312.625673 
L 284.832382 315.734042 
L 289.275647 319.783802 
L 290.756735 320.316666 
L 292.237823 322.359308 
L 293.718912 322.892171 
L 295.2 322.927695 
L 296.681088 323.496083 
L 298.162177 324.224329 
L 299.643265 325.236769 
L 301.124353 326.551165 
L 302.605441 326.853121 
L 305.567618 328.256328 
L 307.048706 327.830037 
L 308.529794 328.220804 
L 310.010883 328.203041 
L 311.491971 328.380663 
L 312.973059 328.984574 
L 315.935236 328.984574 
L 317.416324 329.677296 
L 318.897412 330.050301 
L 320.3785 330.618688 
L 323.340677 330.654212 
L 329.26503 330.156873 
L 332.227206 330.263446 
L 335.189383 330.156873 
L 336.670471 330.423305 
L 338.151559 330.476591 
L 341.113736 330.796309 
L 344.075912 331.169313 
L 345.557001 331.489031 
L 347.038089 331.64889 
L 361.848971 332.004133 
L 363.33006 331.89756 
L 364.811148 331.968608 
L 366.292236 331.790987 
L 373.697678 331.702177 
L 375.178766 331.453507 
L 378.140942 331.364697 
L 379.622031 331.027217 
L 385.546384 330.689737 
L 387.027472 331.027217 
L 388.50856 331.098265 
L 389.989648 331.417983 
L 391.470737 331.204838 
L 392.951825 331.187076 
L 394.432913 331.009454 
L 395.914001 331.169313 
L 397.39509 330.689737 
L 400.357266 330.085825 
L 403.319443 328.469473 
L 404.800531 328.238566 
L 406.281619 327.492557 
L 410.724884 326.480117 
L 413.68706 327.119553 
L 415.168149 326.728787 
L 418.130325 326.977456 
L 422.57359 327.030742 
L 424.054678 326.497879 
L 425.535766 326.391306 
L 427.016855 325.112435 
L 429.979031 323.691466 
L 431.460119 323.780277 
L 432.941208 323.478321 
L 434.422296 323.63818 
L 435.903384 323.993422 
L 437.384472 324.615096 
L 438.865561 323.904611 
L 440.346649 322.234973 
L 441.827737 320.281141 
L 443.308825 318.700314 
L 444.789914 318.114164 
L 446.271002 316.195857 
L 447.75209 315.254465 
L 449.233179 313.744686 
L 450.714267 313.993355 
L 452.195355 313.602589 
L 453.676443 313.549303 
L 455.157532 312.483576 
L 456.63862 312.199382 
L 458.119708 310.778414 
L 459.600796 310.138978 
L 461.081885 311.488898 
L 462.562973 309.872546 
L 464.044061 307.954239 
L 465.525149 305.662927 
L 467.006238 305.165588 
L 468.487326 302.874276 
L 469.968414 302.856514 
L 471.449502 299.570524 
L 472.930591 297.510119 
L 474.411679 293.620218 
L 475.892767 290.511849 
L 478.854944 277.740894 
L 480.336032 275.982445 
L 481.81712 276.568594 
L 483.298208 269.055223 
L 484.779297 266.319858 
L 487.741473 258.859773 
L 489.222561 257.971668 
L 490.70365 250.618155 
L 492.184738 242.181154 
L 493.665826 242.287727 
L 495.146914 234.934214 
L 496.628003 228.557617 
L 498.109091 220.191665 
L 498.109091 220.191665 
" style="fill:none;stroke:#ff7f0e;stroke-linecap:square;stroke-width:1.75;"/>
   </g>
   <g id="line2d_22">
    <path clip-path="url(#p7484460922)" d="M 92.290909 332.91 
L 181.156204 332.817666 
L 182.637293 332.756109 
L 185.599469 332.202103 
L 187.080557 331.801987 
L 188.561646 331.124868 
L 190.042734 330.078412 
L 191.523822 329.216624 
L 193.00491 328.908843 
L 194.485999 328.78573 
L 197.448175 328.200946 
L 198.929263 326.138811 
L 200.410352 325.123133 
L 201.89144 323.861229 
L 203.372528 322.383879 
L 204.853616 318.167275 
L 206.334705 315.335687 
L 207.815793 310.441964 
L 210.777969 305.394351 
L 212.259058 301.116191 
L 213.740146 299.515728 
L 215.221234 295.69924 
L 218.183411 285.357788 
L 219.664499 278.740489 
L 221.145587 272.707976 
L 222.626676 269.876388 
L 224.107764 264.367102 
L 225.588852 264.090099 
L 227.06994 272.338638 
L 228.551029 267.506472 
L 230.032117 268.953044 
L 231.513205 268.245147 
L 232.994293 267.906587 
L 234.475382 269.537828 
L 235.95647 269.876388 
L 237.437558 261.627849 
L 238.918646 269.568606 
L 240.399735 271.045957 
L 243.361911 273.200426 
L 244.842999 271.169069 
L 246.324088 271.107513 
L 247.805176 272.646419 
L 249.286264 272.677198 
L 250.767352 272.461751 
L 252.248441 277.263139 
L 255.210617 281.725968 
L 256.691705 286.558135 
L 258.172794 288.127819 
L 259.653882 290.682404 
L 261.13497 294.252667 
L 262.616058 294.37578 
L 264.097147 294.622005 
L 265.578235 297.299702 
L 267.059323 297.976821 
L 268.540411 300.931522 
L 270.0215 301.177747 
L 271.502588 303.178325 
L 272.983676 301.670197 
L 274.464764 303.855444 
L 275.945853 305.08657 
L 278.908029 302.655097 
L 280.389117 303.455329 
L 281.870206 301.45475 
L 283.351294 303.332216 
L 284.832382 304.040113 
L 286.31347 302.162647 
L 287.794559 302.870544 
L 289.275647 301.700975 
L 290.756735 301.331638 
L 292.237823 301.270081 
L 293.718912 301.9472 
L 295.2 301.79331 
L 296.681088 302.562763 
L 298.162177 302.962879 
L 299.643265 305.856023 
L 301.124353 306.964036 
L 302.605441 310.011071 
L 304.08653 311.796202 
L 305.567618 313.242774 
L 307.048706 315.520356 
L 308.529794 315.982028 
L 310.010883 317.120819 
L 311.491971 317.92105 
L 314.454147 320.567969 
L 315.935236 321.091198 
L 317.416324 321.860651 
L 318.897412 323.214889 
L 320.3785 322.353101 
L 324.821765 322.260767 
L 329.26503 320.475635 
L 330.746118 320.937307 
L 332.227206 322.353101 
L 333.708295 322.968664 
L 335.189383 321.091198 
L 336.670471 320.814195 
L 338.151559 321.245088 
L 339.632648 321.429757 
L 341.113736 319.059841 
L 342.594824 318.013385 
L 344.075912 317.367044 
L 345.557001 319.675404 
L 347.038089 318.290388 
L 348.519177 319.059841 
L 350.000265 319.521513 
L 351.481354 322.106876 
L 352.962442 323.307223 
L 355.924618 323.984342 
L 357.405707 327.30838 
L 358.886795 328.047055 
L 360.367883 328.63184 
L 361.848971 329.401293 
L 363.33006 329.893743 
L 364.811148 330.724753 
L 367.773324 330.60164 
L 369.254413 330.016856 
L 373.697678 329.61674 
L 375.178766 329.524406 
L 376.659854 329.062734 
L 381.103119 328.78573 
L 385.546384 326.508149 
L 387.027472 326.785152 
L 388.50856 325.861808 
L 389.989648 325.892586 
L 391.470737 325.584805 
L 392.951825 326.631261 
L 394.432913 327.216046 
L 395.914001 327.493049 
L 397.39509 327.031377 
L 398.876178 327.677718 
L 400.357266 327.64694 
L 401.838354 328.200946 
L 403.319443 328.016277 
L 404.800531 328.29328 
L 406.281619 328.354837 
L 410.724884 329.339737 
L 412.205972 329.524406 
L 415.168149 329.493627 
L 416.649237 329.247402 
L 418.130325 329.493627 
L 419.611413 329.432071 
L 422.57359 328.693396 
L 424.054678 328.570284 
L 425.535766 328.077833 
L 427.016855 327.862387 
L 429.979031 327.64694 
L 431.460119 327.523827 
L 434.422296 326.631261 
L 435.903384 326.631261 
L 437.384472 326.446592 
L 438.865561 325.33858 
L 441.827737 324.01512 
L 443.308825 323.768895 
L 446.271002 322.783995 
L 447.75209 321.645204 
L 449.233179 320.352523 
L 452.195355 314.412343 
L 453.676443 310.626633 
L 455.157532 309.02617 
L 458.119708 303.824666 
L 459.600796 301.854866 
L 461.081885 300.315959 
L 462.562973 301.547084 
L 464.044061 300.500628 
L 465.525149 298.469271 
L 468.487326 295.391458 
L 469.968414 294.252667 
L 471.449502 292.682983 
L 472.930591 287.419922 
L 475.892767 276.032014 
L 477.373855 271.876966 
L 480.336032 261.997186 
L 481.81712 260.396723 
L 483.298208 257.780582 
L 484.779297 257.81136 
L 486.260385 256.272454 
L 487.741473 251.901959 
L 489.222561 245.561664 
L 490.70365 243.407195 
L 492.184738 233.865974 
L 493.665826 232.050065 
L 495.146914 220.846825 
L 496.628003 213.460073 
L 498.109091 204.103522 
L 498.109091 204.103522 
" style="fill:none;stroke:#2ca02c;stroke-linecap:square;stroke-width:1.75;"/>
   </g>
   <g id="line2d_23">
    <path clip-path="url(#p7484460922)" d="M 92.290909 332.91 
L 176.71294 332.807511 
L 178.194028 332.705023 
L 181.156204 332.295068 
L 184.118381 332.192579 
L 185.599469 332.141335 
L 187.080557 331.73138 
L 188.561646 331.577647 
L 195.967087 329.937828 
L 197.448175 329.989072 
L 198.929263 329.117919 
L 200.410352 328.656719 
L 203.372528 327.273122 
L 204.853616 325.684548 
L 207.815793 323.224819 
L 209.296881 321.841222 
L 210.777969 318.459095 
L 212.259058 313.180928 
L 213.740146 311.694842 
L 215.221234 308.312715 
L 216.702322 305.596765 
L 218.183411 300.677308 
L 219.664499 298.371312 
L 221.145587 298.11509 
L 222.626676 300.882285 
L 224.107764 298.627534 
L 225.588852 299.601176 
L 227.06994 296.885226 
L 228.551029 297.807624 
L 230.032117 296.065317 
L 231.513205 296.167805 
L 232.994293 295.809095 
L 234.475382 296.424027 
L 235.95647 294.527986 
L 237.437558 295.809095 
L 238.918646 294.527986 
L 240.399735 293.5031 
L 241.880823 289.915995 
L 243.361911 289.557285 
L 244.842999 292.375724 
L 246.324088 292.631946 
L 247.805176 291.14586 
L 249.286264 292.734434 
L 250.767352 294.989186 
L 252.248441 298.935 
L 253.729529 299.806154 
L 255.210617 299.601176 
L 256.691705 302.727081 
L 258.172794 306.262941 
L 259.653882 307.236584 
L 261.13497 309.183869 
L 262.616058 309.388846 
L 264.097147 309.235113 
L 265.578235 308.671425 
L 267.059323 308.773914 
L 268.540411 309.952534 
L 270.0215 312.463507 
L 271.502588 312.97595 
L 274.464764 316.87052 
L 275.945853 316.921765 
L 277.426941 316.563054 
L 280.389117 317.792919 
L 281.870206 318.612828 
L 284.832382 319.996425 
L 286.31347 321.22629 
L 287.794559 323.378552 
L 289.275647 323.173575 
L 290.756735 323.327308 
L 292.237823 323.276063 
L 293.718912 323.429796 
L 295.2 322.251176 
L 298.162177 321.431267 
L 299.643265 322.76362 
L 301.124353 323.071086 
L 302.605441 324.505928 
L 304.08653 325.428326 
L 305.567618 326.811923 
L 307.048706 328.041787 
L 308.529794 328.964186 
L 310.010883 328.093032 
L 311.491971 328.810452 
L 314.454147 328.810452 
L 315.935236 329.117919 
L 317.416324 329.169163 
L 318.897412 328.912941 
L 320.3785 330.399027 
L 321.859589 329.732851 
L 323.340677 330.296538 
L 324.821765 330.245294 
L 329.26503 330.655249 
L 330.746118 330.808982 
L 332.227206 331.475158 
L 341.113736 332.346312 
L 344.075912 332.192579 
L 345.557001 332.346312 
L 348.519177 331.936357 
L 350.000265 331.987602 
L 351.481354 331.680136 
L 354.44353 331.782624 
L 355.924618 331.833869 
L 357.405707 332.141335 
L 360.367883 331.885113 
L 361.848971 332.09009 
L 367.773324 332.09009 
L 369.254413 332.243824 
L 370.735501 331.987602 
L 373.697678 330.55276 
L 381.103119 330.55276 
L 382.584207 330.962715 
L 384.065295 331.167692 
L 388.50856 331.167692 
L 389.989648 330.808982 
L 392.951825 330.808982 
L 394.432913 331.065204 
L 401.838354 331.065204 
L 403.319443 329.271652 
L 404.800531 329.01543 
L 409.243796 329.01543 
L 410.724884 326.965656 
L 412.205972 325.992014 
L 413.68706 327.785566 
L 415.168149 324.762149 
L 416.649237 321.431267 
L 418.130325 320.04767 
L 419.611413 318.04914 
L 421.092502 318.407851 
L 422.57359 318.151629 
L 424.054678 315.948122 
L 425.535766 318.715317 
L 427.016855 318.407851 
L 428.497943 313.693371 
L 429.979031 315.179457 
L 431.460119 314.871991 
L 432.941208 312.924706 
L 434.422296 312.002308 
L 435.903384 308.671425 
L 437.384472 307.749027 
L 438.865561 311.336131 
L 440.346649 308.876403 
L 441.827737 308.773914 
L 443.308825 308.825158 
L 444.789914 308.415204 
L 446.271002 309.645068 
L 447.75209 308.158982 
L 449.233179 305.238054 
L 450.714267 300.984774 
L 452.195355 301.445973 
L 453.676443 302.573348 
L 455.157532 302.522104 
L 456.63862 301.138507 
L 458.119708 301.855928 
L 459.600796 302.82957 
L 461.081885 304.469389 
L 462.562973 302.47086 
L 464.044061 298.371312 
L 467.006238 290.889638 
L 468.487326 284.842805 
L 469.968414 280.282059 
L 471.449502 279.462149 
L 472.930591 279.667127 
L 474.411679 275.003891 
L 475.892767 272.954118 
L 477.373855 267.31724 
L 478.854944 262.346538 
L 480.336032 261.782851 
L 481.81712 256.914638 
L 483.298208 244.359774 
L 484.779297 233.905928 
L 486.260385 230.318824 
L 487.741473 196.446312 
L 489.222561 175.589864 
L 490.70365 161.49767 
L 492.184738 141.20491 
L 493.665826 123.320633 
L 495.146914 102.617919 
L 496.628003 68.591674 
L 498.109091 61.11 
L 498.109091 61.11 
" style="fill:none;stroke:#d62728;stroke-linecap:square;stroke-width:1.75;"/>
   </g>
   <g id="patch_3">
    <path d="M 72 346.5 
L 72 47.52 
" style="fill:none;stroke:#000000;stroke-linecap:square;stroke-linejoin:miter;stroke-width:0.8;"/>
   </g>
   <g id="patch_4">
    <path d="M 518.4 346.5 
L 518.4 47.52 
" style="fill:none;stroke:#000000;stroke-linecap:square;stroke-linejoin:miter;stroke-width:0.8;"/>
   </g>
   <g id="patch_5">
    <path d="M 72 346.5 
L 518.4 346.5 
" style="fill:none;stroke:#000000;stroke-linecap:square;stroke-linejoin:miter;stroke-width:0.8;"/>
   </g>
   <g id="patch_6">
    <path d="M 72 47.52 
L 518.4 47.52 
" style="fill:none;stroke:#000000;stroke-linecap:square;stroke-linejoin:miter;stroke-width:0.8;"/>
   </g>
   <g id="text_21">
    <!-- New Deaths per Million (7 day rolling) -->
    <defs>
     <path d="M 9.8125 72.90625 
L 23.09375 72.90625 
L 55.421875 11.921875 
L 55.421875 72.90625 
L 64.984375 72.90625 
L 64.984375 0 
L 51.703125 0 
L 19.390625 60.984375 
L 19.390625 0 
L 9.8125 0 
z
" id="DejaVuSans-78"/>
     <path d="M 4.203125 54.6875 
L 13.1875 54.6875 
L 24.421875 12.015625 
L 35.59375 54.6875 
L 46.1875 54.6875 
L 57.421875 12.015625 
L 68.609375 54.6875 
L 77.59375 54.6875 
L 63.28125 0 
L 52.6875 0 
L 40.921875 44.828125 
L 29.109375 0 
L 18.5 0 
z
" id="DejaVuSans-119"/>
     <path id="DejaVuSans-32"/>
     <path d="M 54.890625 33.015625 
L 54.890625 0 
L 45.90625 0 
L 45.90625 32.71875 
Q 45.90625 40.484375 42.875 44.328125 
Q 39.84375 48.1875 33.796875 48.1875 
Q 26.515625 48.1875 22.3125 43.546875 
Q 18.109375 38.921875 18.109375 30.90625 
L 18.109375 0 
L 9.078125 0 
L 9.078125 75.984375 
L 18.109375 75.984375 
L 18.109375 46.1875 
Q 21.34375 51.125 25.703125 53.5625 
Q 30.078125 56 35.796875 56 
Q 45.21875 56 50.046875 50.171875 
Q 54.890625 44.34375 54.890625 33.015625 
z
" id="DejaVuSans-104"/>
     <path d="M 44.28125 53.078125 
L 44.28125 44.578125 
Q 40.484375 46.53125 36.375 47.5 
Q 32.28125 48.484375 27.875 48.484375 
Q 21.1875 48.484375 17.84375 46.4375 
Q 14.5 44.390625 14.5 40.28125 
Q 14.5 37.15625 16.890625 35.375 
Q 19.28125 33.59375 26.515625 31.984375 
L 29.59375 31.296875 
Q 39.15625 29.25 43.1875 25.515625 
Q 47.21875 21.78125 47.21875 15.09375 
Q 47.21875 7.46875 41.1875 3.015625 
Q 35.15625 -1.421875 24.609375 -1.421875 
Q 20.21875 -1.421875 15.453125 -0.5625 
Q 10.6875 0.296875 5.421875 2 
L 5.421875 11.28125 
Q 10.40625 8.6875 15.234375 7.390625 
Q 20.0625 6.109375 24.8125 6.109375 
Q 31.15625 6.109375 34.5625 8.28125 
Q 37.984375 10.453125 37.984375 14.40625 
Q 37.984375 18.0625 35.515625 20.015625 
Q 33.0625 21.96875 24.703125 23.78125 
L 21.578125 24.515625 
Q 13.234375 26.265625 9.515625 29.90625 
Q 5.8125 33.546875 5.8125 39.890625 
Q 5.8125 47.609375 11.28125 51.796875 
Q 16.75 56 26.8125 56 
Q 31.78125 56 36.171875 55.265625 
Q 40.578125 54.546875 44.28125 53.078125 
z
" id="DejaVuSans-115"/>
     <path d="M 18.109375 8.203125 
L 18.109375 -20.796875 
L 9.078125 -20.796875 
L 9.078125 54.6875 
L 18.109375 54.6875 
L 18.109375 46.390625 
Q 20.953125 51.265625 25.265625 53.625 
Q 29.59375 56 35.59375 56 
Q 45.5625 56 51.78125 48.09375 
Q 58.015625 40.1875 58.015625 27.296875 
Q 58.015625 14.40625 51.78125 6.484375 
Q 45.5625 -1.421875 35.59375 -1.421875 
Q 29.59375 -1.421875 25.265625 0.953125 
Q 20.953125 3.328125 18.109375 8.203125 
z
M 48.6875 27.296875 
Q 48.6875 37.203125 44.609375 42.84375 
Q 40.53125 48.484375 33.40625 48.484375 
Q 26.265625 48.484375 22.1875 42.84375 
Q 18.109375 37.203125 18.109375 27.296875 
Q 18.109375 17.390625 22.1875 11.75 
Q 26.265625 6.109375 33.40625 6.109375 
Q 40.53125 6.109375 44.609375 11.75 
Q 48.6875 17.390625 48.6875 27.296875 
z
" id="DejaVuSans-112"/>
     <path d="M 41.109375 46.296875 
Q 39.59375 47.171875 37.8125 47.578125 
Q 36.03125 48 33.890625 48 
Q 26.265625 48 22.1875 43.046875 
Q 18.109375 38.09375 18.109375 28.8125 
L 18.109375 0 
L 9.078125 0 
L 9.078125 54.6875 
L 18.109375 54.6875 
L 18.109375 46.1875 
Q 20.953125 51.171875 25.484375 53.578125 
Q 30.03125 56 36.53125 56 
Q 37.453125 56 38.578125 55.875 
Q 39.703125 55.765625 41.0625 55.515625 
z
" id="DejaVuSans-114"/>
     <path d="M 9.8125 72.90625 
L 24.515625 72.90625 
L 43.109375 23.296875 
L 61.8125 72.90625 
L 76.515625 72.90625 
L 76.515625 0 
L 66.890625 0 
L 66.890625 64.015625 
L 48.09375 14.015625 
L 38.1875 14.015625 
L 19.390625 64.015625 
L 19.390625 0 
L 9.8125 0 
z
" id="DejaVuSans-77"/>
     <path d="M 9.421875 54.6875 
L 18.40625 54.6875 
L 18.40625 0 
L 9.421875 0 
z
M 9.421875 75.984375 
L 18.40625 75.984375 
L 18.40625 64.59375 
L 9.421875 64.59375 
z
" id="DejaVuSans-105"/>
     <path d="M 9.421875 75.984375 
L 18.40625 75.984375 
L 18.40625 0 
L 9.421875 0 
z
" id="DejaVuSans-108"/>
     <path d="M 30.609375 48.390625 
Q 23.390625 48.390625 19.1875 42.75 
Q 14.984375 37.109375 14.984375 27.296875 
Q 14.984375 17.484375 19.15625 11.84375 
Q 23.34375 6.203125 30.609375 6.203125 
Q 37.796875 6.203125 41.984375 11.859375 
Q 46.1875 17.53125 46.1875 27.296875 
Q 46.1875 37.015625 41.984375 42.703125 
Q 37.796875 48.390625 30.609375 48.390625 
z
M 30.609375 56 
Q 42.328125 56 49.015625 48.375 
Q 55.71875 40.765625 55.71875 27.296875 
Q 55.71875 13.875 49.015625 6.21875 
Q 42.328125 -1.421875 30.609375 -1.421875 
Q 18.84375 -1.421875 12.171875 6.21875 
Q 5.515625 13.875 5.515625 27.296875 
Q 5.515625 40.765625 12.171875 48.375 
Q 18.84375 56 30.609375 56 
z
" id="DejaVuSans-111"/>
     <path d="M 54.890625 33.015625 
L 54.890625 0 
L 45.90625 0 
L 45.90625 32.71875 
Q 45.90625 40.484375 42.875 44.328125 
Q 39.84375 48.1875 33.796875 48.1875 
Q 26.515625 48.1875 22.3125 43.546875 
Q 18.109375 38.921875 18.109375 30.90625 
L 18.109375 0 
L 9.078125 0 
L 9.078125 54.6875 
L 18.109375 54.6875 
L 18.109375 46.1875 
Q 21.34375 51.125 25.703125 53.5625 
Q 30.078125 56 35.796875 56 
Q 45.21875 56 50.046875 50.171875 
Q 54.890625 44.34375 54.890625 33.015625 
z
" id="DejaVuSans-110"/>
     <path d="M 31 75.875 
Q 24.46875 64.65625 21.28125 53.65625 
Q 18.109375 42.671875 18.109375 31.390625 
Q 18.109375 20.125 21.3125 9.0625 
Q 24.515625 -2 31 -13.1875 
L 23.1875 -13.1875 
Q 15.875 -1.703125 12.234375 9.375 
Q 8.59375 20.453125 8.59375 31.390625 
Q 8.59375 42.28125 12.203125 53.3125 
Q 15.828125 64.359375 23.1875 75.875 
z
" id="DejaVuSans-40"/>
     <path d="M 45.40625 46.390625 
L 45.40625 75.984375 
L 54.390625 75.984375 
L 54.390625 0 
L 45.40625 0 
L 45.40625 8.203125 
Q 42.578125 3.328125 38.25 0.953125 
Q 33.9375 -1.421875 27.875 -1.421875 
Q 17.96875 -1.421875 11.734375 6.484375 
Q 5.515625 14.40625 5.515625 27.296875 
Q 5.515625 40.1875 11.734375 48.09375 
Q 17.96875 56 27.875 56 
Q 33.9375 56 38.25 53.625 
Q 42.578125 51.265625 45.40625 46.390625 
z
M 14.796875 27.296875 
Q 14.796875 17.390625 18.875 11.75 
Q 22.953125 6.109375 30.078125 6.109375 
Q 37.203125 6.109375 41.296875 11.75 
Q 45.40625 17.390625 45.40625 27.296875 
Q 45.40625 37.203125 41.296875 42.84375 
Q 37.203125 48.484375 30.078125 48.484375 
Q 22.953125 48.484375 18.875 42.84375 
Q 14.796875 37.203125 14.796875 27.296875 
z
" id="DejaVuSans-100"/>
     <path d="M 32.171875 -5.078125 
Q 28.375 -14.84375 24.75 -17.8125 
Q 21.140625 -20.796875 15.09375 -20.796875 
L 7.90625 -20.796875 
L 7.90625 -13.28125 
L 13.1875 -13.28125 
Q 16.890625 -13.28125 18.9375 -11.515625 
Q 21 -9.765625 23.484375 -3.21875 
L 25.09375 0.875 
L 2.984375 54.6875 
L 12.5 54.6875 
L 29.59375 11.921875 
L 46.6875 54.6875 
L 56.203125 54.6875 
z
" id="DejaVuSans-121"/>
     <path d="M 45.40625 27.984375 
Q 45.40625 37.75 41.375 43.109375 
Q 37.359375 48.484375 30.078125 48.484375 
Q 22.859375 48.484375 18.828125 43.109375 
Q 14.796875 37.75 14.796875 27.984375 
Q 14.796875 18.265625 18.828125 12.890625 
Q 22.859375 7.515625 30.078125 7.515625 
Q 37.359375 7.515625 41.375 12.890625 
Q 45.40625 18.265625 45.40625 27.984375 
z
M 54.390625 6.78125 
Q 54.390625 -7.171875 48.1875 -13.984375 
Q 42 -20.796875 29.203125 -20.796875 
Q 24.46875 -20.796875 20.265625 -20.09375 
Q 16.0625 -19.390625 12.109375 -17.921875 
L 12.109375 -9.1875 
Q 16.0625 -11.328125 19.921875 -12.34375 
Q 23.78125 -13.375 27.78125 -13.375 
Q 36.625 -13.375 41.015625 -8.765625 
Q 45.40625 -4.15625 45.40625 5.171875 
L 45.40625 9.625 
Q 42.625 4.78125 38.28125 2.390625 
Q 33.9375 0 27.875 0 
Q 17.828125 0 11.671875 7.65625 
Q 5.515625 15.328125 5.515625 27.984375 
Q 5.515625 40.671875 11.671875 48.328125 
Q 17.828125 56 27.875 56 
Q 33.9375 56 38.28125 53.609375 
Q 42.625 51.21875 45.40625 46.390625 
L 45.40625 54.6875 
L 54.390625 54.6875 
z
" id="DejaVuSans-103"/>
     <path d="M 8.015625 75.875 
L 15.828125 75.875 
Q 23.140625 64.359375 26.78125 53.3125 
Q 30.421875 42.28125 30.421875 31.390625 
Q 30.421875 20.453125 26.78125 9.375 
Q 23.140625 -1.703125 15.828125 -13.1875 
L 8.015625 -13.1875 
Q 14.5 -2 17.703125 9.0625 
Q 20.90625 20.125 20.90625 31.390625 
Q 20.90625 42.671875 17.703125 53.65625 
Q 14.5 64.65625 8.015625 75.875 
z
" id="DejaVuSans-41"/>
    </defs>
    <g transform="translate(181.965 41.52)scale(0.12 -0.12)">
     <use xlink:href="#DejaVuSans-78"/>
     <use x="74.804688" xlink:href="#DejaVuSans-101"/>
     <use x="136.328125" xlink:href="#DejaVuSans-119"/>
     <use x="218.115234" xlink:href="#DejaVuSans-32"/>
     <use x="249.902344" xlink:href="#DejaVuSans-68"/>
     <use x="326.904297" xlink:href="#DejaVuSans-101"/>
     <use x="388.427734" xlink:href="#DejaVuSans-97"/>
     <use x="449.707031" xlink:href="#DejaVuSans-116"/>
     <use x="488.916016" xlink:href="#DejaVuSans-104"/>
     <use x="552.294922" xlink:href="#DejaVuSans-115"/>
     <use x="604.394531" xlink:href="#DejaVuSans-32"/>
     <use x="636.181641" xlink:href="#DejaVuSans-112"/>
     <use x="699.658203" xlink:href="#DejaVuSans-101"/>
     <use x="761.181641" xlink:href="#DejaVuSans-114"/>
     <use x="802.294922" xlink:href="#DejaVuSans-32"/>
     <use x="834.082031" xlink:href="#DejaVuSans-77"/>
     <use x="920.361328" xlink:href="#DejaVuSans-105"/>
     <use x="948.144531" xlink:href="#DejaVuSans-108"/>
     <use x="975.927734" xlink:href="#DejaVuSans-108"/>
     <use x="1003.710938" xlink:href="#DejaVuSans-105"/>
     <use x="1031.494141" xlink:href="#DejaVuSans-111"/>
     <use x="1092.675781" xlink:href="#DejaVuSans-110"/>
     <use x="1156.054688" xlink:href="#DejaVuSans-32"/>
     <use x="1187.841797" xlink:href="#DejaVuSans-40"/>
     <use x="1226.855469" xlink:href="#DejaVuSans-55"/>
     <use x="1290.478516" xlink:href="#DejaVuSans-32"/>
     <use x="1322.265625" xlink:href="#DejaVuSans-100"/>
     <use x="1385.742188" xlink:href="#DejaVuSans-97"/>
     <use x="1447.021484" xlink:href="#DejaVuSans-121"/>
     <use x="1506.201172" xlink:href="#DejaVuSans-32"/>
     <use x="1537.988281" xlink:href="#DejaVuSans-114"/>
     <use x="1576.851562" xlink:href="#DejaVuSans-111"/>
     <use x="1638.033203" xlink:href="#DejaVuSans-108"/>
     <use x="1665.816406" xlink:href="#DejaVuSans-108"/>
     <use x="1693.599609" xlink:href="#DejaVuSans-105"/>
     <use x="1721.382812" xlink:href="#DejaVuSans-110"/>
     <use x="1784.761719" xlink:href="#DejaVuSans-103"/>
     <use x="1848.238281" xlink:href="#DejaVuSans-41"/>
    </g>
   </g>
   <g id="legend_1">
    <g id="patch_7">
     <path d="M 79 114.2325 
L 214.167188 114.2325 
Q 216.167188 114.2325 216.167188 112.2325 
L 216.167188 54.52 
Q 216.167188 52.52 214.167188 52.52 
L 79 52.52 
Q 77 52.52 77 54.52 
L 77 112.2325 
Q 77 114.2325 79 114.2325 
z
" style="fill:#ffffff;opacity:0.8;stroke:#cccccc;stroke-linejoin:miter;stroke-width:0.3;"/>
    </g>
    <g id="line2d_24">
     <path d="M 81 60.618437 
L 101 60.618437 
" style="fill:none;stroke:#1f77b4;stroke-linecap:square;stroke-width:1.75;"/>
    </g>
    <g id="line2d_25"/>
    <g id="text_22">
     <!-- ENGLAND -->
     <defs>
      <path d="M 9.8125 72.90625 
L 55.90625 72.90625 
L 55.90625 64.59375 
L 19.671875 64.59375 
L 19.671875 43.015625 
L 54.390625 43.015625 
L 54.390625 34.71875 
L 19.671875 34.71875 
L 19.671875 8.296875 
L 56.78125 8.296875 
L 56.78125 0 
L 9.8125 0 
z
" id="DejaVuSans-69"/>
      <path d="M 59.515625 10.40625 
L 59.515625 29.984375 
L 43.40625 29.984375 
L 43.40625 38.09375 
L 69.28125 38.09375 
L 69.28125 6.78125 
Q 63.578125 2.734375 56.6875 0.65625 
Q 49.8125 -1.421875 42 -1.421875 
Q 24.90625 -1.421875 15.25 8.5625 
Q 5.609375 18.5625 5.609375 36.375 
Q 5.609375 54.25 15.25 64.234375 
Q 24.90625 74.21875 42 74.21875 
Q 49.125 74.21875 55.546875 72.453125 
Q 61.96875 70.703125 67.390625 67.28125 
L 67.390625 56.78125 
Q 61.921875 61.421875 55.765625 63.765625 
Q 49.609375 66.109375 42.828125 66.109375 
Q 29.4375 66.109375 22.71875 58.640625 
Q 16.015625 51.171875 16.015625 36.375 
Q 16.015625 21.625 22.71875 14.15625 
Q 29.4375 6.6875 42.828125 6.6875 
Q 48.046875 6.6875 52.140625 7.59375 
Q 56.25 8.5 59.515625 10.40625 
z
" id="DejaVuSans-71"/>
      <path d="M 9.8125 72.90625 
L 19.671875 72.90625 
L 19.671875 8.296875 
L 55.171875 8.296875 
L 55.171875 0 
L 9.8125 0 
z
" id="DejaVuSans-76"/>
      <path d="M 34.1875 63.1875 
L 20.796875 26.90625 
L 47.609375 26.90625 
z
M 28.609375 72.90625 
L 39.796875 72.90625 
L 67.578125 0 
L 57.328125 0 
L 50.6875 18.703125 
L 17.828125 18.703125 
L 11.1875 0 
L 0.78125 0 
z
" id="DejaVuSans-65"/>
     </defs>
     <g transform="translate(109 64.118437)scale(0.1 -0.1)">
      <use xlink:href="#DejaVuSans-69"/>
      <use x="63.183594" xlink:href="#DejaVuSans-78"/>
      <use x="137.988281" xlink:href="#DejaVuSans-71"/>
      <use x="215.478516" xlink:href="#DejaVuSans-76"/>
      <use x="273.441406" xlink:href="#DejaVuSans-65"/>
      <use x="341.849609" xlink:href="#DejaVuSans-78"/>
      <use x="416.654297" xlink:href="#DejaVuSans-68"/>
     </g>
    </g>
    <g id="line2d_26">
     <path d="M 81 75.296562 
L 101 75.296562 
" style="fill:none;stroke:#ff7f0e;stroke-linecap:square;stroke-width:1.75;"/>
    </g>
    <g id="line2d_27"/>
    <g id="text_23">
     <!-- SCOTLAND -->
     <defs>
      <path d="M 53.515625 70.515625 
L 53.515625 60.890625 
Q 47.90625 63.578125 42.921875 64.890625 
Q 37.9375 66.21875 33.296875 66.21875 
Q 25.25 66.21875 20.875 63.09375 
Q 16.5 59.96875 16.5 54.203125 
Q 16.5 49.359375 19.40625 46.890625 
Q 22.3125 44.4375 30.421875 42.921875 
L 36.375 41.703125 
Q 47.40625 39.59375 52.65625 34.296875 
Q 57.90625 29 57.90625 20.125 
Q 57.90625 9.515625 50.796875 4.046875 
Q 43.703125 -1.421875 29.984375 -1.421875 
Q 24.8125 -1.421875 18.96875 -0.25 
Q 13.140625 0.921875 6.890625 3.21875 
L 6.890625 13.375 
Q 12.890625 10.015625 18.65625 8.296875 
Q 24.421875 6.59375 29.984375 6.59375 
Q 38.421875 6.59375 43.015625 9.90625 
Q 47.609375 13.234375 47.609375 19.390625 
Q 47.609375 24.75 44.3125 27.78125 
Q 41.015625 30.8125 33.5 32.328125 
L 27.484375 33.5 
Q 16.453125 35.6875 11.515625 40.375 
Q 6.59375 45.0625 6.59375 53.421875 
Q 6.59375 63.09375 13.40625 68.65625 
Q 20.21875 74.21875 32.171875 74.21875 
Q 37.3125 74.21875 42.625 73.28125 
Q 47.953125 72.359375 53.515625 70.515625 
z
" id="DejaVuSans-83"/>
      <path d="M 64.40625 67.28125 
L 64.40625 56.890625 
Q 59.421875 61.53125 53.78125 63.8125 
Q 48.140625 66.109375 41.796875 66.109375 
Q 29.296875 66.109375 22.65625 58.46875 
Q 16.015625 50.828125 16.015625 36.375 
Q 16.015625 21.96875 22.65625 14.328125 
Q 29.296875 6.6875 41.796875 6.6875 
Q 48.140625 6.6875 53.78125 8.984375 
Q 59.421875 11.28125 64.40625 15.921875 
L 64.40625 5.609375 
Q 59.234375 2.09375 53.4375 0.328125 
Q 47.65625 -1.421875 41.21875 -1.421875 
Q 24.65625 -1.421875 15.125 8.703125 
Q 5.609375 18.84375 5.609375 36.375 
Q 5.609375 53.953125 15.125 64.078125 
Q 24.65625 74.21875 41.21875 74.21875 
Q 47.75 74.21875 53.53125 72.484375 
Q 59.328125 70.75 64.40625 67.28125 
z
" id="DejaVuSans-67"/>
      <path d="M 39.40625 66.21875 
Q 28.65625 66.21875 22.328125 58.203125 
Q 16.015625 50.203125 16.015625 36.375 
Q 16.015625 22.609375 22.328125 14.59375 
Q 28.65625 6.59375 39.40625 6.59375 
Q 50.140625 6.59375 56.421875 14.59375 
Q 62.703125 22.609375 62.703125 36.375 
Q 62.703125 50.203125 56.421875 58.203125 
Q 50.140625 66.21875 39.40625 66.21875 
z
M 39.40625 74.21875 
Q 54.734375 74.21875 63.90625 63.9375 
Q 73.09375 53.65625 73.09375 36.375 
Q 73.09375 19.140625 63.90625 8.859375 
Q 54.734375 -1.421875 39.40625 -1.421875 
Q 24.03125 -1.421875 14.8125 8.828125 
Q 5.609375 19.09375 5.609375 36.375 
Q 5.609375 53.65625 14.8125 63.9375 
Q 24.03125 74.21875 39.40625 74.21875 
z
" id="DejaVuSans-79"/>
      <path d="M -0.296875 72.90625 
L 61.375 72.90625 
L 61.375 64.59375 
L 35.5 64.59375 
L 35.5 0 
L 25.59375 0 
L 25.59375 64.59375 
L -0.296875 64.59375 
z
" id="DejaVuSans-84"/>
     </defs>
     <g transform="translate(109 78.796562)scale(0.1 -0.1)">
      <use xlink:href="#DejaVuSans-83"/>
      <use x="63.476562" xlink:href="#DejaVuSans-67"/>
      <use x="133.300781" xlink:href="#DejaVuSans-79"/>
      <use x="212.011719" xlink:href="#DejaVuSans-84"/>
      <use x="273.095703" xlink:href="#DejaVuSans-76"/>
      <use x="331.058594" xlink:href="#DejaVuSans-65"/>
      <use x="399.466797" xlink:href="#DejaVuSans-78"/>
      <use x="474.271484" xlink:href="#DejaVuSans-68"/>
     </g>
    </g>
    <g id="line2d_28">
     <path d="M 81 89.974687 
L 101 89.974687 
" style="fill:none;stroke:#2ca02c;stroke-linecap:square;stroke-width:1.75;"/>
    </g>
    <g id="line2d_29"/>
    <g id="text_24">
     <!-- WALES -->
     <defs>
      <path d="M 3.328125 72.90625 
L 13.28125 72.90625 
L 28.609375 11.28125 
L 43.890625 72.90625 
L 54.984375 72.90625 
L 70.3125 11.28125 
L 85.59375 72.90625 
L 95.609375 72.90625 
L 77.296875 0 
L 64.890625 0 
L 49.515625 63.28125 
L 33.984375 0 
L 21.578125 0 
z
" id="DejaVuSans-87"/>
     </defs>
     <g transform="translate(109 93.474687)scale(0.1 -0.1)">
      <use xlink:href="#DejaVuSans-87"/>
      <use x="93.376953" xlink:href="#DejaVuSans-65"/>
      <use x="161.785156" xlink:href="#DejaVuSans-76"/>
      <use x="217.498047" xlink:href="#DejaVuSans-69"/>
      <use x="280.681641" xlink:href="#DejaVuSans-83"/>
     </g>
    </g>
    <g id="line2d_30">
     <path d="M 81 104.652812 
L 101 104.652812 
" style="fill:none;stroke:#d62728;stroke-linecap:square;stroke-width:1.75;"/>
    </g>
    <g id="line2d_31"/>
    <g id="text_25">
     <!-- NORTHERN IRELAND -->
     <defs>
      <path d="M 44.390625 34.1875 
Q 47.5625 33.109375 50.5625 29.59375 
Q 53.5625 26.078125 56.59375 19.921875 
L 66.609375 0 
L 56 0 
L 46.6875 18.703125 
Q 43.0625 26.03125 39.671875 28.421875 
Q 36.28125 30.8125 30.421875 30.8125 
L 19.671875 30.8125 
L 19.671875 0 
L 9.8125 0 
L 9.8125 72.90625 
L 32.078125 72.90625 
Q 44.578125 72.90625 50.734375 67.671875 
Q 56.890625 62.453125 56.890625 51.90625 
Q 56.890625 45.015625 53.6875 40.46875 
Q 50.484375 35.9375 44.390625 34.1875 
z
M 19.671875 64.796875 
L 19.671875 38.921875 
L 32.078125 38.921875 
Q 39.203125 38.921875 42.84375 42.21875 
Q 46.484375 45.515625 46.484375 51.90625 
Q 46.484375 58.296875 42.84375 61.546875 
Q 39.203125 64.796875 32.078125 64.796875 
z
" id="DejaVuSans-82"/>
      <path d="M 9.8125 72.90625 
L 19.671875 72.90625 
L 19.671875 43.015625 
L 55.515625 43.015625 
L 55.515625 72.90625 
L 65.375 72.90625 
L 65.375 0 
L 55.515625 0 
L 55.515625 34.71875 
L 19.671875 34.71875 
L 19.671875 0 
L 9.8125 0 
z
" id="DejaVuSans-72"/>
      <path d="M 9.8125 72.90625 
L 19.671875 72.90625 
L 19.671875 0 
L 9.8125 0 
z
" id="DejaVuSans-73"/>
     </defs>
     <g transform="translate(109 108.152812)scale(0.1 -0.1)">
      <use xlink:href="#DejaVuSans-78"/>
      <use x="74.804688" xlink:href="#DejaVuSans-79"/>
      <use x="153.515625" xlink:href="#DejaVuSans-82"/>
      <use x="215.748047" xlink:href="#DejaVuSans-84"/>
      <use x="276.832031" xlink:href="#DejaVuSans-72"/>
      <use x="352.027344" xlink:href="#DejaVuSans-69"/>
      <use x="415.210938" xlink:href="#DejaVuSans-82"/>
      <use x="484.693359" xlink:href="#DejaVuSans-78"/>
      <use x="559.498047" xlink:href="#DejaVuSans-32"/>
      <use x="591.285156" xlink:href="#DejaVuSans-73"/>
      <use x="620.777344" xlink:href="#DejaVuSans-82"/>
      <use x="690.259766" xlink:href="#DejaVuSans-69"/>
      <use x="753.443359" xlink:href="#DejaVuSans-76"/>
      <use x="811.40625" xlink:href="#DejaVuSans-65"/>
      <use x="879.814453" xlink:href="#DejaVuSans-78"/>
      <use x="954.619141" xlink:href="#DejaVuSans-68"/>
     </g>
    </g>
   </g>
  </g>
 </g>
 <defs>
  <clipPath id="p7484460922">
   <rect height="298.98" width="446.4" x="72" y="47.52"/>
  </clipPath>
 </defs>
</svg>
