<?xml version="1.0" encoding="utf-8" standalone="no"?>
<!DOCTYPE svg PUBLIC "-//W3C//DTD SVG 1.1//EN"
  "http://www.w3.org/Graphics/SVG/1.1/DTD/svg11.dtd">
<!-- Created with matplotlib (https://matplotlib.org/) -->
<svg height="360pt" version="1.1" viewBox="0 0 540 360" width="540pt" xmlns="http://www.w3.org/2000/svg" xmlns:xlink="http://www.w3.org/1999/xlink">
 <defs>
  <style type="text/css">
*{stroke-linecap:butt;stroke-linejoin:round;}
  </style>
 </defs>
 <g id="figure_1">
  <g id="patch_1">
   <path d="M 0 360 
L 540 360 
L 540 0 
L 0 0 
z
" style="fill:#ffffff;"/>
  </g>
  <g id="axes_1">
   <g id="patch_2">
    <path d="M 45.381153 295.102246 
L 529.2 295.102246 
L 529.2 26.8 
L 45.381153 26.8 
z
" style="fill:#ffffff;"/>
   </g>
   <g id="matplotlib.axis_1">
    <g id="xtick_1">
     <g id="line2d_1">
      <defs>
       <path d="M 0 0 
L 0 3.5 
" id="md1905a8334" style="stroke:#000000;"/>
      </defs>
      <g>
       <use style="stroke:#000000;" x="53.107989" xlink:href="#md1905a8334" y="295.102246"/>
      </g>
     </g>
     <g id="text_1">
      <!-- 2020-04 -->
      <defs>
       <path d="M 19.1875 8.296875 
L 53.609375 8.296875 
L 53.609375 0 
L 7.328125 0 
L 7.328125 8.296875 
Q 12.9375 14.109375 22.625 23.890625 
Q 32.328125 33.6875 34.8125 36.53125 
Q 39.546875 41.84375 41.421875 45.53125 
Q 43.3125 49.21875 43.3125 52.78125 
Q 43.3125 58.59375 39.234375 62.25 
Q 35.15625 65.921875 28.609375 65.921875 
Q 23.96875 65.921875 18.8125 64.3125 
Q 13.671875 62.703125 7.8125 59.421875 
L 7.8125 69.390625 
Q 13.765625 71.78125 18.9375 73 
Q 24.125 74.21875 28.421875 74.21875 
Q 39.75 74.21875 46.484375 68.546875 
Q 53.21875 62.890625 53.21875 53.421875 
Q 53.21875 48.921875 51.53125 44.890625 
Q 49.859375 40.875 45.40625 35.40625 
Q 44.1875 33.984375 37.640625 27.21875 
Q 31.109375 20.453125 19.1875 8.296875 
z
" id="DejaVuSans-50"/>
       <path d="M 31.78125 66.40625 
Q 24.171875 66.40625 20.328125 58.90625 
Q 16.5 51.421875 16.5 36.375 
Q 16.5 21.390625 20.328125 13.890625 
Q 24.171875 6.390625 31.78125 6.390625 
Q 39.453125 6.390625 43.28125 13.890625 
Q 47.125 21.390625 47.125 36.375 
Q 47.125 51.421875 43.28125 58.90625 
Q 39.453125 66.40625 31.78125 66.40625 
z
M 31.78125 74.21875 
Q 44.046875 74.21875 50.515625 64.515625 
Q 56.984375 54.828125 56.984375 36.375 
Q 56.984375 17.96875 50.515625 8.265625 
Q 44.046875 -1.421875 31.78125 -1.421875 
Q 19.53125 -1.421875 13.0625 8.265625 
Q 6.59375 17.96875 6.59375 36.375 
Q 6.59375 54.828125 13.0625 64.515625 
Q 19.53125 74.21875 31.78125 74.21875 
z
" id="DejaVuSans-48"/>
       <path d="M 4.890625 31.390625 
L 31.203125 31.390625 
L 31.203125 23.390625 
L 4.890625 23.390625 
z
" id="DejaVuSans-45"/>
       <path d="M 37.796875 64.3125 
L 12.890625 25.390625 
L 37.796875 25.390625 
z
M 35.203125 72.90625 
L 47.609375 72.90625 
L 47.609375 25.390625 
L 58.015625 25.390625 
L 58.015625 17.1875 
L 47.609375 17.1875 
L 47.609375 0 
L 37.796875 0 
L 37.796875 17.1875 
L 4.890625 17.1875 
L 4.890625 26.703125 
z
" id="DejaVuSans-52"/>
      </defs>
      <g transform="translate(15.883169 333.074092)rotate(-30)scale(0.1 -0.1)">
       <use xlink:href="#DejaVuSans-50"/>
       <use x="63.623047" xlink:href="#DejaVuSans-48"/>
       <use x="127.246094" xlink:href="#DejaVuSans-50"/>
       <use x="190.869141" xlink:href="#DejaVuSans-48"/>
       <use x="254.492188" xlink:href="#DejaVuSans-45"/>
       <use x="290.576172" xlink:href="#DejaVuSans-48"/>
       <use x="354.199219" xlink:href="#DejaVuSans-52"/>
      </g>
     </g>
    </g>
    <g id="xtick_2">
     <g id="line2d_2">
      <g>
       <use style="stroke:#000000;" x="124.432635" xlink:href="#md1905a8334" y="295.102246"/>
      </g>
     </g>
     <g id="text_2">
      <!-- 2020-05 -->
      <defs>
       <path d="M 10.796875 72.90625 
L 49.515625 72.90625 
L 49.515625 64.59375 
L 19.828125 64.59375 
L 19.828125 46.734375 
Q 21.96875 47.46875 24.109375 47.828125 
Q 26.265625 48.1875 28.421875 48.1875 
Q 40.625 48.1875 47.75 41.5 
Q 54.890625 34.8125 54.890625 23.390625 
Q 54.890625 11.625 47.5625 5.09375 
Q 40.234375 -1.421875 26.90625 -1.421875 
Q 22.3125 -1.421875 17.546875 -0.640625 
Q 12.796875 0.140625 7.71875 1.703125 
L 7.71875 11.625 
Q 12.109375 9.234375 16.796875 8.0625 
Q 21.484375 6.890625 26.703125 6.890625 
Q 35.15625 6.890625 40.078125 11.328125 
Q 45.015625 15.765625 45.015625 23.390625 
Q 45.015625 31 40.078125 35.4375 
Q 35.15625 39.890625 26.703125 39.890625 
Q 22.75 39.890625 18.8125 39.015625 
Q 14.890625 38.140625 10.796875 36.28125 
z
" id="DejaVuSans-53"/>
      </defs>
      <g transform="translate(87.207814 333.074092)rotate(-30)scale(0.1 -0.1)">
       <use xlink:href="#DejaVuSans-50"/>
       <use x="63.623047" xlink:href="#DejaVuSans-48"/>
       <use x="127.246094" xlink:href="#DejaVuSans-50"/>
       <use x="190.869141" xlink:href="#DejaVuSans-48"/>
       <use x="254.492188" xlink:href="#DejaVuSans-45"/>
       <use x="290.576172" xlink:href="#DejaVuSans-48"/>
       <use x="354.199219" xlink:href="#DejaVuSans-53"/>
      </g>
     </g>
    </g>
    <g id="xtick_3">
     <g id="line2d_3">
      <g>
       <use style="stroke:#000000;" x="198.134769" xlink:href="#md1905a8334" y="295.102246"/>
      </g>
     </g>
     <g id="text_3">
      <!-- 2020-06 -->
      <defs>
       <path d="M 33.015625 40.375 
Q 26.375 40.375 22.484375 35.828125 
Q 18.609375 31.296875 18.609375 23.390625 
Q 18.609375 15.53125 22.484375 10.953125 
Q 26.375 6.390625 33.015625 6.390625 
Q 39.65625 6.390625 43.53125 10.953125 
Q 47.40625 15.53125 47.40625 23.390625 
Q 47.40625 31.296875 43.53125 35.828125 
Q 39.65625 40.375 33.015625 40.375 
z
M 52.59375 71.296875 
L 52.59375 62.3125 
Q 48.875 64.0625 45.09375 64.984375 
Q 41.3125 65.921875 37.59375 65.921875 
Q 27.828125 65.921875 22.671875 59.328125 
Q 17.53125 52.734375 16.796875 39.40625 
Q 19.671875 43.65625 24.015625 45.921875 
Q 28.375 48.1875 33.59375 48.1875 
Q 44.578125 48.1875 50.953125 41.515625 
Q 57.328125 34.859375 57.328125 23.390625 
Q 57.328125 12.15625 50.6875 5.359375 
Q 44.046875 -1.421875 33.015625 -1.421875 
Q 20.359375 -1.421875 13.671875 8.265625 
Q 6.984375 17.96875 6.984375 36.375 
Q 6.984375 53.65625 15.1875 63.9375 
Q 23.390625 74.21875 37.203125 74.21875 
Q 40.921875 74.21875 44.703125 73.484375 
Q 48.484375 72.75 52.59375 71.296875 
z
" id="DejaVuSans-54"/>
      </defs>
      <g transform="translate(160.909948 333.074092)rotate(-30)scale(0.1 -0.1)">
       <use xlink:href="#DejaVuSans-50"/>
       <use x="63.623047" xlink:href="#DejaVuSans-48"/>
       <use x="127.246094" xlink:href="#DejaVuSans-50"/>
       <use x="190.869141" xlink:href="#DejaVuSans-48"/>
       <use x="254.492188" xlink:href="#DejaVuSans-45"/>
       <use x="290.576172" xlink:href="#DejaVuSans-48"/>
       <use x="354.199219" xlink:href="#DejaVuSans-54"/>
      </g>
     </g>
    </g>
    <g id="xtick_4">
     <g id="line2d_4">
      <g>
       <use style="stroke:#000000;" x="269.459415" xlink:href="#md1905a8334" y="295.102246"/>
      </g>
     </g>
     <g id="text_4">
      <!-- 2020-07 -->
      <defs>
       <path d="M 8.203125 72.90625 
L 55.078125 72.90625 
L 55.078125 68.703125 
L 28.609375 0 
L 18.3125 0 
L 43.21875 64.59375 
L 8.203125 64.59375 
z
" id="DejaVuSans-55"/>
      </defs>
      <g transform="translate(232.234594 333.074092)rotate(-30)scale(0.1 -0.1)">
       <use xlink:href="#DejaVuSans-50"/>
       <use x="63.623047" xlink:href="#DejaVuSans-48"/>
       <use x="127.246094" xlink:href="#DejaVuSans-50"/>
       <use x="190.869141" xlink:href="#DejaVuSans-48"/>
       <use x="254.492188" xlink:href="#DejaVuSans-45"/>
       <use x="290.576172" xlink:href="#DejaVuSans-48"/>
       <use x="354.199219" xlink:href="#DejaVuSans-55"/>
      </g>
     </g>
    </g>
    <g id="xtick_5">
     <g id="line2d_5">
      <g>
       <use style="stroke:#000000;" x="343.161549" xlink:href="#md1905a8334" y="295.102246"/>
      </g>
     </g>
     <g id="text_5">
      <!-- 2020-08 -->
      <defs>
       <path d="M 31.78125 34.625 
Q 24.75 34.625 20.71875 30.859375 
Q 16.703125 27.09375 16.703125 20.515625 
Q 16.703125 13.921875 20.71875 10.15625 
Q 24.75 6.390625 31.78125 6.390625 
Q 38.8125 6.390625 42.859375 10.171875 
Q 46.921875 13.96875 46.921875 20.515625 
Q 46.921875 27.09375 42.890625 30.859375 
Q 38.875 34.625 31.78125 34.625 
z
M 21.921875 38.8125 
Q 15.578125 40.375 12.03125 44.71875 
Q 8.5 49.078125 8.5 55.328125 
Q 8.5 64.0625 14.71875 69.140625 
Q 20.953125 74.21875 31.78125 74.21875 
Q 42.671875 74.21875 48.875 69.140625 
Q 55.078125 64.0625 55.078125 55.328125 
Q 55.078125 49.078125 51.53125 44.71875 
Q 48 40.375 41.703125 38.8125 
Q 48.828125 37.15625 52.796875 32.3125 
Q 56.78125 27.484375 56.78125 20.515625 
Q 56.78125 9.90625 50.3125 4.234375 
Q 43.84375 -1.421875 31.78125 -1.421875 
Q 19.734375 -1.421875 13.25 4.234375 
Q 6.78125 9.90625 6.78125 20.515625 
Q 6.78125 27.484375 10.78125 32.3125 
Q 14.796875 37.15625 21.921875 38.8125 
z
M 18.3125 54.390625 
Q 18.3125 48.734375 21.84375 45.5625 
Q 25.390625 42.390625 31.78125 42.390625 
Q 38.140625 42.390625 41.71875 45.5625 
Q 45.3125 48.734375 45.3125 54.390625 
Q 45.3125 60.0625 41.71875 63.234375 
Q 38.140625 66.40625 31.78125 66.40625 
Q 25.390625 66.40625 21.84375 63.234375 
Q 18.3125 60.0625 18.3125 54.390625 
z
" id="DejaVuSans-56"/>
      </defs>
      <g transform="translate(305.936728 333.074092)rotate(-30)scale(0.1 -0.1)">
       <use xlink:href="#DejaVuSans-50"/>
       <use x="63.623047" xlink:href="#DejaVuSans-48"/>
       <use x="127.246094" xlink:href="#DejaVuSans-50"/>
       <use x="190.869141" xlink:href="#DejaVuSans-48"/>
       <use x="254.492188" xlink:href="#DejaVuSans-45"/>
       <use x="290.576172" xlink:href="#DejaVuSans-48"/>
       <use x="354.199219" xlink:href="#DejaVuSans-56"/>
      </g>
     </g>
    </g>
    <g id="xtick_6">
     <g id="line2d_6">
      <g>
       <use style="stroke:#000000;" x="416.863683" xlink:href="#md1905a8334" y="295.102246"/>
      </g>
     </g>
     <g id="text_6">
      <!-- 2020-09 -->
      <defs>
       <path d="M 10.984375 1.515625 
L 10.984375 10.5 
Q 14.703125 8.734375 18.5 7.8125 
Q 22.3125 6.890625 25.984375 6.890625 
Q 35.75 6.890625 40.890625 13.453125 
Q 46.046875 20.015625 46.78125 33.40625 
Q 43.953125 29.203125 39.59375 26.953125 
Q 35.25 24.703125 29.984375 24.703125 
Q 19.046875 24.703125 12.671875 31.3125 
Q 6.296875 37.9375 6.296875 49.421875 
Q 6.296875 60.640625 12.9375 67.421875 
Q 19.578125 74.21875 30.609375 74.21875 
Q 43.265625 74.21875 49.921875 64.515625 
Q 56.59375 54.828125 56.59375 36.375 
Q 56.59375 19.140625 48.40625 8.859375 
Q 40.234375 -1.421875 26.421875 -1.421875 
Q 22.703125 -1.421875 18.890625 -0.6875 
Q 15.09375 0.046875 10.984375 1.515625 
z
M 30.609375 32.421875 
Q 37.25 32.421875 41.125 36.953125 
Q 45.015625 41.5 45.015625 49.421875 
Q 45.015625 57.28125 41.125 61.84375 
Q 37.25 66.40625 30.609375 66.40625 
Q 23.96875 66.40625 20.09375 61.84375 
Q 16.21875 57.28125 16.21875 49.421875 
Q 16.21875 41.5 20.09375 36.953125 
Q 23.96875 32.421875 30.609375 32.421875 
z
" id="DejaVuSans-57"/>
      </defs>
      <g transform="translate(379.638862 333.074092)rotate(-30)scale(0.1 -0.1)">
       <use xlink:href="#DejaVuSans-50"/>
       <use x="63.623047" xlink:href="#DejaVuSans-48"/>
       <use x="127.246094" xlink:href="#DejaVuSans-50"/>
       <use x="190.869141" xlink:href="#DejaVuSans-48"/>
       <use x="254.492188" xlink:href="#DejaVuSans-45"/>
       <use x="290.576172" xlink:href="#DejaVuSans-48"/>
       <use x="354.199219" xlink:href="#DejaVuSans-57"/>
      </g>
     </g>
    </g>
    <g id="xtick_7">
     <g id="line2d_7">
      <g>
       <use style="stroke:#000000;" x="488.188329" xlink:href="#md1905a8334" y="295.102246"/>
      </g>
     </g>
     <g id="text_7">
      <!-- 2020-10 -->
      <defs>
       <path d="M 12.40625 8.296875 
L 28.515625 8.296875 
L 28.515625 63.921875 
L 10.984375 60.40625 
L 10.984375 69.390625 
L 28.421875 72.90625 
L 38.28125 72.90625 
L 38.28125 8.296875 
L 54.390625 8.296875 
L 54.390625 0 
L 12.40625 0 
z
" id="DejaVuSans-49"/>
      </defs>
      <g transform="translate(450.963508 333.074092)rotate(-30)scale(0.1 -0.1)">
       <use xlink:href="#DejaVuSans-50"/>
       <use x="63.623047" xlink:href="#DejaVuSans-48"/>
       <use x="127.246094" xlink:href="#DejaVuSans-50"/>
       <use x="190.869141" xlink:href="#DejaVuSans-48"/>
       <use x="254.492188" xlink:href="#DejaVuSans-45"/>
       <use x="290.576172" xlink:href="#DejaVuSans-49"/>
       <use x="354.199219" xlink:href="#DejaVuSans-48"/>
      </g>
     </g>
    </g>
    <g id="text_8">
     <!-- Date -->
     <defs>
      <path d="M 19.671875 64.796875 
L 19.671875 8.109375 
L 31.59375 8.109375 
Q 46.6875 8.109375 53.6875 14.9375 
Q 60.6875 21.78125 60.6875 36.53125 
Q 60.6875 51.171875 53.6875 57.984375 
Q 46.6875 64.796875 31.59375 64.796875 
z
M 9.8125 72.90625 
L 30.078125 72.90625 
Q 51.265625 72.90625 61.171875 64.09375 
Q 71.09375 55.28125 71.09375 36.53125 
Q 71.09375 17.671875 61.125 8.828125 
Q 51.171875 0 30.078125 0 
L 9.8125 0 
z
" id="DejaVuSans-68"/>
      <path d="M 34.28125 27.484375 
Q 23.390625 27.484375 19.1875 25 
Q 14.984375 22.515625 14.984375 16.5 
Q 14.984375 11.71875 18.140625 8.90625 
Q 21.296875 6.109375 26.703125 6.109375 
Q 34.1875 6.109375 38.703125 11.40625 
Q 43.21875 16.703125 43.21875 25.484375 
L 43.21875 27.484375 
z
M 52.203125 31.203125 
L 52.203125 0 
L 43.21875 0 
L 43.21875 8.296875 
Q 40.140625 3.328125 35.546875 0.953125 
Q 30.953125 -1.421875 24.3125 -1.421875 
Q 15.921875 -1.421875 10.953125 3.296875 
Q 6 8.015625 6 15.921875 
Q 6 25.140625 12.171875 29.828125 
Q 18.359375 34.515625 30.609375 34.515625 
L 43.21875 34.515625 
L 43.21875 35.40625 
Q 43.21875 41.609375 39.140625 45 
Q 35.0625 48.390625 27.6875 48.390625 
Q 23 48.390625 18.546875 47.265625 
Q 14.109375 46.140625 10.015625 43.890625 
L 10.015625 52.203125 
Q 14.9375 54.109375 19.578125 55.046875 
Q 24.21875 56 28.609375 56 
Q 40.484375 56 46.34375 49.84375 
Q 52.203125 43.703125 52.203125 31.203125 
z
" id="DejaVuSans-97"/>
      <path d="M 18.3125 70.21875 
L 18.3125 54.6875 
L 36.8125 54.6875 
L 36.8125 47.703125 
L 18.3125 47.703125 
L 18.3125 18.015625 
Q 18.3125 11.328125 20.140625 9.421875 
Q 21.96875 7.515625 27.59375 7.515625 
L 36.8125 7.515625 
L 36.8125 0 
L 27.59375 0 
Q 17.1875 0 13.234375 3.875 
Q 9.28125 7.765625 9.28125 18.015625 
L 9.28125 47.703125 
L 2.6875 47.703125 
L 2.6875 54.6875 
L 9.28125 54.6875 
L 9.28125 70.21875 
z
" id="DejaVuSans-116"/>
      <path d="M 56.203125 29.59375 
L 56.203125 25.203125 
L 14.890625 25.203125 
Q 15.484375 15.921875 20.484375 11.0625 
Q 25.484375 6.203125 34.421875 6.203125 
Q 39.59375 6.203125 44.453125 7.46875 
Q 49.3125 8.734375 54.109375 11.28125 
L 54.109375 2.78125 
Q 49.265625 0.734375 44.1875 -0.34375 
Q 39.109375 -1.421875 33.890625 -1.421875 
Q 20.796875 -1.421875 13.15625 6.1875 
Q 5.515625 13.8125 5.515625 26.8125 
Q 5.515625 40.234375 12.765625 48.109375 
Q 20.015625 56 32.328125 56 
Q 43.359375 56 49.78125 48.890625 
Q 56.203125 41.796875 56.203125 29.59375 
z
M 47.21875 32.234375 
Q 47.125 39.59375 43.09375 43.984375 
Q 39.0625 48.390625 32.421875 48.390625 
Q 24.90625 48.390625 20.390625 44.140625 
Q 15.875 39.890625 15.1875 32.171875 
z
" id="DejaVuSans-101"/>
     </defs>
     <g transform="translate(274.144717 347.233436)scale(0.11 -0.11)">
      <use xlink:href="#DejaVuSans-68"/>
      <use x="77.001953" xlink:href="#DejaVuSans-97"/>
      <use x="138.28125" xlink:href="#DejaVuSans-116"/>
      <use x="177.490234" xlink:href="#DejaVuSans-101"/>
     </g>
    </g>
   </g>
   <g id="matplotlib.axis_2">
    <g id="ytick_1">
     <g id="line2d_8">
      <defs>
       <path d="M 0 0 
L -3.5 0 
" id="m057f939f2c" style="stroke:#000000;"/>
      </defs>
      <g>
       <use style="stroke:#000000;" x="45.381153" xlink:href="#m057f939f2c" y="282.325949"/>
      </g>
     </g>
     <g id="text_9">
      <!-- 0.00 -->
      <defs>
       <path d="M 10.6875 12.40625 
L 21 12.40625 
L 21 0 
L 10.6875 0 
z
" id="DejaVuSans-46"/>
      </defs>
      <g transform="translate(12.615528 286.125167)scale(0.1 -0.1)">
       <use xlink:href="#DejaVuSans-48"/>
       <use x="63.623047" xlink:href="#DejaVuSans-46"/>
       <use x="95.410156" xlink:href="#DejaVuSans-48"/>
       <use x="159.033203" xlink:href="#DejaVuSans-48"/>
      </g>
     </g>
    </g>
    <g id="ytick_2">
     <g id="line2d_9">
      <g>
       <use style="stroke:#000000;" x="45.381153" xlink:href="#m057f939f2c" y="231.220759"/>
      </g>
     </g>
     <g id="text_10">
      <!-- 0.02 -->
      <g transform="translate(12.615528 235.019978)scale(0.1 -0.1)">
       <use xlink:href="#DejaVuSans-48"/>
       <use x="63.623047" xlink:href="#DejaVuSans-46"/>
       <use x="95.410156" xlink:href="#DejaVuSans-48"/>
       <use x="159.033203" xlink:href="#DejaVuSans-50"/>
      </g>
     </g>
    </g>
    <g id="ytick_3">
     <g id="line2d_10">
      <g>
       <use style="stroke:#000000;" x="45.381153" xlink:href="#m057f939f2c" y="180.115569"/>
      </g>
     </g>
     <g id="text_11">
      <!-- 0.04 -->
      <g transform="translate(12.615528 183.914788)scale(0.1 -0.1)">
       <use xlink:href="#DejaVuSans-48"/>
       <use x="63.623047" xlink:href="#DejaVuSans-46"/>
       <use x="95.410156" xlink:href="#DejaVuSans-48"/>
       <use x="159.033203" xlink:href="#DejaVuSans-52"/>
      </g>
     </g>
    </g>
    <g id="ytick_4">
     <g id="line2d_11">
      <g>
       <use style="stroke:#000000;" x="45.381153" xlink:href="#m057f939f2c" y="129.010379"/>
      </g>
     </g>
     <g id="text_12">
      <!-- 0.06 -->
      <g transform="translate(12.615528 132.809598)scale(0.1 -0.1)">
       <use xlink:href="#DejaVuSans-48"/>
       <use x="63.623047" xlink:href="#DejaVuSans-46"/>
       <use x="95.410156" xlink:href="#DejaVuSans-48"/>
       <use x="159.033203" xlink:href="#DejaVuSans-54"/>
      </g>
     </g>
    </g>
    <g id="ytick_5">
     <g id="line2d_12">
      <g>
       <use style="stroke:#000000;" x="45.381153" xlink:href="#m057f939f2c" y="77.90519"/>
      </g>
     </g>
     <g id="text_13">
      <!-- 0.08 -->
      <g transform="translate(12.615528 81.704408)scale(0.1 -0.1)">
       <use xlink:href="#DejaVuSans-48"/>
       <use x="63.623047" xlink:href="#DejaVuSans-46"/>
       <use x="95.410156" xlink:href="#DejaVuSans-48"/>
       <use x="159.033203" xlink:href="#DejaVuSans-56"/>
      </g>
     </g>
    </g>
    <g id="ytick_6">
     <g id="line2d_13">
      <g>
       <use style="stroke:#000000;" x="45.381153" xlink:href="#m057f939f2c" y="26.8"/>
      </g>
     </g>
     <g id="text_14">
      <!-- 0.10 -->
      <g transform="translate(12.615528 30.599219)scale(0.1 -0.1)">
       <use xlink:href="#DejaVuSans-48"/>
       <use x="63.623047" xlink:href="#DejaVuSans-46"/>
       <use x="95.410156" xlink:href="#DejaVuSans-49"/>
       <use x="159.033203" xlink:href="#DejaVuSans-48"/>
      </g>
     </g>
    </g>
   </g>
   <g id="line2d_14">
    <path clip-path="url(#pa8377539f5)" d="M 126.214834 -1 
L 126.810123 7.673565 
L 129.187612 29.48193 
L 131.5651 60.01178 
L 133.942588 85.405542 
L 138.697564 94.681953 
L 141.075053 98.683459 
L 143.452541 104.906455 
L 145.830029 119.884793 
L 148.207517 130.485327 
L 150.585005 141.799289 
L 152.962494 147.278187 
L 155.339982 158.618559 
L 157.71747 165.328735 
L 160.094958 169.314198 
L 162.472446 174.197614 
L 164.849935 174.074082 
L 167.227423 179.264769 
L 169.604911 184.837659 
L 171.982399 192.004116 
L 174.359887 194.632033 
L 176.737375 196.219971 
L 179.114864 199.158629 
L 181.492352 205.31956 
L 183.86984 209.808124 
L 186.247328 210.445724 
L 188.624816 214.061889 
L 191.002305 220.047424 
L 193.379793 223.935647 
L 195.757281 227.574214 
L 198.134769 234.216078 
L 200.512257 240.242144 
L 202.889746 247.594544 
L 205.267234 251.903893 
L 207.644722 256.5773 
L 210.02221 263.070254 
L 212.399698 266.125146 
L 214.777187 267.705297 
L 217.154675 266.246623 
L 219.532163 268.4518 
L 221.909651 269.206017 
L 226.664628 270.014417 
L 229.042116 269.612098 
L 231.419604 268.291069 
L 233.797092 271.140828 
L 236.17458 270.235417 
L 238.552068 270.376097 
L 240.929557 270.721437 
L 243.307045 270.904417 
L 245.684533 271.343724 
L 250.439509 271.79921 
L 252.816998 272.488238 
L 255.194486 272.459952 
L 264.704439 274.922781 
L 267.081927 274.980209 
L 269.459415 274.546053 
L 271.836903 273.199807 
L 274.214391 271.372894 
L 276.59188 269.342292 
L 278.969368 266.375743 
L 281.346856 263.856131 
L 286.101832 258.184442 
L 288.479321 257.414292 
L 290.856809 257.287623 
L 293.234297 255.371113 
L 295.611785 254.749514 
L 297.989273 252.512882 
L 300.366761 254.934623 
L 302.74425 257.042076 
L 305.121738 258.807853 
L 307.499226 260.05156 
L 309.876714 263.040467 
L 312.254202 265.497831 
L 314.631691 269.265219 
L 319.386667 269.223555 
L 324.141643 268.336874 
L 328.89662 268.305375 
L 331.274108 268.003552 
L 333.651596 267.164738 
L 336.029084 266.700838 
L 338.406573 266.517914 
L 343.161549 266.462924 
L 345.539037 266.553656 
L 347.916525 266.134155 
L 350.294014 266.867608 
L 352.671502 266.672143 
L 355.04899 266.71052 
L 359.803966 267.14476 
L 362.181454 266.463331 
L 364.558943 267.419899 
L 366.936431 266.19971 
L 371.691407 265.646619 
L 374.068895 264.284697 
L 376.446384 263.72086 
L 378.823872 264.221195 
L 383.578848 264.86676 
L 385.956336 265.57125 
L 388.333825 265.637999 
L 390.711313 266.8167 
L 395.466289 266.609206 
L 400.221266 265.696653 
L 402.598754 265.192477 
L 404.976242 264.422355 
L 407.35373 264.027818 
L 409.731218 264.155768 
L 412.108707 262.519316 
L 414.486195 261.368816 
L 416.863683 261.807999 
L 419.241171 260.641552 
L 421.618659 260.250503 
L 423.996147 258.903829 
L 426.373636 257.94072 
L 428.751124 255.202897 
L 431.128612 252.065989 
L 433.5061 250.026758 
L 435.883588 248.483633 
L 438.261077 246.790122 
L 443.016053 242.893137 
L 445.393541 244.164336 
L 447.771029 246.057818 
L 450.148518 245.756918 
L 452.526006 244.634002 
L 454.903494 245.0107 
L 459.65847 243.212166 
L 462.035959 243.087733 
L 464.413447 240.377321 
L 466.790935 236.464827 
L 469.168423 233.116551 
L 471.545911 228.024468 
L 473.9234 225.087335 
L 476.300888 223.738879 
L 478.678376 220.726386 
L 481.055864 221.760505 
L 483.433352 219.098187 
L 485.81084 217.455294 
L 488.188329 217.739772 
L 490.565817 218.980258 
L 492.943305 208.045832 
L 495.320793 182.289208 
L 497.698281 168.012295 
L 500.07577 157.307268 
L 502.453258 148.154469 
L 504.830746 131.099245 
L 507.208234 122.623605 
L 507.208234 122.623605 
" style="fill:none;stroke:#1f77b4;stroke-linecap:square;stroke-width:1.75;"/>
   </g>
   <g id="line2d_15">
    <path clip-path="url(#pa8377539f5)" d="M 121.806914 -1 
L 124.432635 38.480237 
L 126.810123 77.879612 
L 129.187612 108.697868 
L 131.5651 120.011386 
L 136.320076 143.606176 
L 138.697564 154.487251 
L 141.075053 160.703763 
L 143.452541 166.509555 
L 145.830029 165.767382 
L 148.207517 167.666487 
L 150.585005 171.419159 
L 152.962494 180.758408 
L 155.339982 184.437484 
L 157.71747 191.781002 
L 160.094958 194.260828 
L 162.472446 204.725824 
L 164.849935 213.099278 
L 167.227423 220.373997 
L 169.604911 226.720054 
L 171.982399 232.612955 
L 174.359887 235.442674 
L 176.737375 241.052142 
L 181.492352 244.437191 
L 183.86984 246.9291 
L 186.247328 248.56866 
L 188.624816 250.944773 
L 191.002305 255.52685 
L 193.379793 255.746519 
L 195.757281 259.039338 
L 198.134769 260.865494 
L 200.512257 258.866778 
L 202.889746 260.229807 
L 205.267234 260.295713 
L 207.644722 260.981718 
L 210.02221 264.082638 
L 212.399698 264.45154 
L 214.777187 264.940816 
L 217.154675 268.211629 
L 219.532163 269.803192 
L 221.909651 272.147753 
L 224.287139 272.230446 
L 226.664628 272.435183 
L 229.042116 272.035082 
L 231.419604 271.291031 
L 233.797092 271.254867 
L 236.17458 270.654546 
L 238.552068 270.984031 
L 240.929557 270.69882 
L 243.307045 269.952988 
L 245.684533 269.529973 
L 248.062021 270.696413 
L 250.439509 270.803605 
L 252.816998 271.651131 
L 255.194486 271.986381 
L 259.949462 273.806143 
L 262.32695 275.514003 
L 264.704439 276.493007 
L 267.081927 276.675144 
L 271.836903 276.721517 
L 274.214391 277.013097 
L 276.59188 277.491924 
L 278.969368 277.397081 
L 281.346856 277.500021 
L 283.724344 278.186471 
L 288.479321 278.599462 
L 293.234297 279.561096 
L 295.611785 279.83097 
L 300.366761 279.71292 
L 302.74425 279.88486 
L 305.121738 279.5421 
L 307.499226 279.492588 
L 312.254202 279.218532 
L 314.631691 279.085863 
L 317.009179 277.998479 
L 319.386667 277.889884 
L 324.141643 277.91087 
L 326.519132 277.707025 
L 328.89662 278.238431 
L 331.274108 278.606963 
L 333.651596 279.699216 
L 336.029084 279.234726 
L 338.406573 279.269692 
L 340.784061 279.001117 
L 343.161549 279.241069 
L 345.539037 278.028599 
L 347.916525 277.298464 
L 352.671502 274.945433 
L 355.04899 273.901737 
L 357.426478 273.433146 
L 359.803966 272.363951 
L 364.558943 272.269238 
L 366.936431 271.716969 
L 369.313919 272.255779 
L 371.691407 272.399732 
L 374.068895 271.88785 
L 376.446384 272.169247 
L 381.20136 272.30945 
L 383.578848 272.741052 
L 388.333825 272.173005 
L 390.711313 272.177048 
L 393.088801 270.417743 
L 395.466289 270.186763 
L 397.843777 269.179882 
L 407.35373 271.53533 
L 409.731218 272.988034 
L 412.108707 272.923916 
L 414.486195 272.641681 
L 416.863683 271.012628 
L 419.241171 270.027242 
L 421.618659 269.257239 
L 423.996147 267.268975 
L 426.373636 265.494969 
L 428.751124 263.048728 
L 431.128612 260.900564 
L 433.5061 260.206629 
L 435.883588 258.249489 
L 438.261077 256.588213 
L 440.638565 254.7369 
L 443.016053 253.609599 
L 445.393541 252.865709 
L 447.771029 255.17275 
L 450.148518 252.737244 
L 452.526006 249.107624 
L 454.903494 246.865657 
L 457.280982 247.608399 
L 459.65847 246.7255 
L 462.035959 245.586754 
L 466.790935 234.595924 
L 469.168423 227.434335 
L 471.545911 222.081492 
L 473.9234 214.188056 
L 476.300888 204.615619 
L 478.678376 203.549791 
L 481.055864 204.871404 
L 483.433352 193.618135 
L 485.81084 193.508453 
L 488.188329 187.524917 
L 490.565817 183.797588 
L 492.943305 186.081491 
L 495.320793 173.520094 
L 497.698281 162.965425 
L 500.07577 164.534927 
L 502.453258 157.299608 
L 504.830746 154.387267 
L 507.208234 146.215993 
L 507.208234 146.215993 
" style="fill:none;stroke:#ff7f0e;stroke-linecap:square;stroke-width:1.75;"/>
   </g>
   <g id="line2d_16">
    <path clip-path="url(#pa8377539f5)" d="M 149.934233 -1 
L 150.585005 6.44822 
L 152.962494 8.45772 
L 155.339982 6.554435 
L 157.71747 23.115747 
L 160.094958 21.980268 
L 162.472446 28.41114 
L 164.849935 43.765999 
L 167.227423 44.234724 
L 169.604911 63.241316 
L 171.982399 66.304342 
L 174.359887 70.592387 
L 176.737375 79.779021 
L 179.114864 92.641116 
L 181.492352 99.167155 
L 183.86984 113.839714 
L 186.247328 123.446231 
L 188.624816 139.423278 
L 191.002305 153.928944 
L 193.379793 172.09873 
L 195.757281 183.527181 
L 198.134769 188.781089 
L 200.512257 195.953563 
L 202.889746 199.532504 
L 205.267234 211.524358 
L 207.644722 215.86932 
L 210.02221 224.060926 
L 212.399698 229.924124 
L 214.777187 232.538653 
L 217.154675 237.420119 
L 219.532163 245.673421 
L 221.909651 243.665032 
L 224.287139 245.25825 
L 226.664628 245.948094 
L 229.042116 245.098338 
L 231.419604 242.496204 
L 233.797092 239.551511 
L 236.17458 233.709486 
L 238.552068 232.912612 
L 240.929557 236.467708 
L 243.307045 231.229394 
L 245.684533 225.721642 
L 248.062021 223.500844 
L 250.439509 225.641369 
L 252.816998 229.242577 
L 255.194486 222.215008 
L 257.571974 218.051431 
L 259.949462 222.315745 
L 262.32695 229.871459 
L 264.704439 226.722652 
L 267.081927 229.617295 
L 269.459415 231.916945 
L 271.836903 239.975495 
L 274.214391 243.761959 
L 278.969368 245.688353 
L 281.346856 257.40248 
L 283.724344 260.01492 
L 286.101832 262.865788 
L 288.479321 267.01197 
L 293.234297 273.142681 
L 297.989273 272.319601 
L 300.366761 270.799041 
L 302.74425 270.45139 
L 305.121738 271.468335 
L 307.499226 271.141967 
L 309.876714 271.036492 
L 312.254202 269.244738 
L 314.631691 269.812686 
L 317.009179 270.051723 
L 319.386667 268.422541 
L 321.764155 266.218129 
L 324.141643 265.237194 
L 326.519132 264.624419 
L 328.89662 267.275722 
L 331.274108 265.895296 
L 336.029084 265.95325 
L 338.406573 268.99768 
L 343.161549 270.901005 
L 345.539037 270.088866 
L 347.916525 271.051308 
L 350.294014 270.858728 
L 352.671502 272.945394 
L 355.04899 272.264976 
L 357.426478 272.757006 
L 359.803966 272.429263 
L 364.558943 273.540556 
L 366.936431 274.653029 
L 369.313919 275.300326 
L 374.068895 275.41224 
L 376.446384 274.95045 
L 378.823872 275.419827 
L 381.20136 275.336716 
L 383.578848 274.342666 
L 385.956336 273.535703 
L 388.333825 273.066878 
L 390.711313 271.477959 
L 393.088801 270.725258 
L 395.466289 270.243501 
L 397.843777 269.560533 
L 400.221266 269.404665 
L 402.598754 268.15903 
L 404.976242 267.449768 
L 407.35373 267.604761 
L 409.731218 267.178937 
L 414.486195 263.688271 
L 416.863683 261.515275 
L 419.241171 261.7804 
L 421.618659 261.166481 
L 423.996147 261.079576 
L 426.373636 259.68534 
L 428.751124 257.328339 
L 431.128612 252.291683 
L 433.5061 248.589412 
L 435.883588 244.582536 
L 438.261077 242.882099 
L 440.638565 240.059524 
L 443.016053 238.560018 
L 445.393541 238.783115 
L 447.771029 240.336206 
L 450.148518 242.890391 
L 452.526006 241.770781 
L 454.903494 240.28526 
L 457.280982 239.570962 
L 459.65847 237.425996 
L 462.035959 234.424855 
L 464.413447 232.455204 
L 466.790935 227.048429 
L 469.168423 219.661328 
L 471.545911 214.403987 
L 473.9234 209.904112 
L 476.300888 205.843382 
L 478.678376 202.854528 
L 481.055864 201.93612 
L 483.433352 198.799729 
L 485.81084 195.461813 
L 488.188329 191.078142 
L 492.943305 176.99424 
L 495.320793 170.664721 
L 497.698281 159.855442 
L 500.07577 158.276202 
L 502.453258 150.291465 
L 504.830746 142.823353 
L 507.208234 138.231051 
L 507.208234 138.231051 
" style="fill:none;stroke:#2ca02c;stroke-linecap:square;stroke-width:1.75;"/>
   </g>
   <g id="line2d_17">
    <path clip-path="url(#pa8377539f5)" d="M 117.957298 -1 
L 119.677659 39.32977 
L 122.055147 72.076662 
L 124.432635 98.447569 
L 126.810123 113.842641 
L 129.187612 124.442389 
L 131.5651 137.270287 
L 133.942588 143.820604 
L 138.697564 154.703079 
L 141.075053 169.882948 
L 143.452541 173.955975 
L 145.830029 185.336917 
L 148.207517 194.675349 
L 150.585005 191.787687 
L 152.962494 190.935467 
L 155.339982 194.512728 
L 157.71747 196.660031 
L 162.472446 205.188312 
L 164.849935 208.653841 
L 167.227423 218.245509 
L 169.604911 228.99456 
L 171.982399 228.950529 
L 174.359887 229.725164 
L 176.737375 229.626116 
L 179.114864 231.019259 
L 181.492352 224.206995 
L 183.86984 220.797884 
L 186.247328 218.124059 
L 188.624816 223.84515 
L 191.002305 225.210422 
L 193.379793 231.25778 
L 195.757281 235.855018 
L 200.512257 254.426177 
L 202.889746 259.817215 
L 205.267234 257.522621 
L 207.644722 261.40297 
L 210.02221 261.881328 
L 212.399698 262.065331 
L 214.777187 264.247439 
L 217.154675 264.913789 
L 219.532163 263.349748 
L 221.909651 268.976177 
L 224.287139 265.314827 
L 226.664628 267.833191 
L 229.042116 267.564128 
L 231.419604 267.748181 
L 233.797092 268.072045 
L 236.17458 269.853571 
L 238.552068 270.468731 
L 240.929557 273.981958 
L 245.684533 275.641928 
L 248.062021 276.565773 
L 250.439509 277.332657 
L 252.816998 278.805143 
L 255.194486 278.794716 
L 257.571974 278.394324 
L 259.949462 277.642445 
L 262.32695 278.58902 
L 264.704439 275.98917 
L 267.081927 274.205601 
L 269.459415 274.458823 
L 271.836903 272.592243 
L 274.214391 272.902563 
L 381.20136 258.092384 
L 383.578848 259.355411 
L 385.956336 258.299848 
L 388.333825 256.043971 
L 390.711313 258.763265 
L 393.088801 258.304899 
L 395.466289 254.365532 
L 397.843777 257.380378 
L 400.221266 256.178274 
L 404.976242 256.084232 
L 407.35373 253.285591 
L 409.731218 252.027685 
L 412.108707 254.019485 
L 414.486195 250.990711 
L 416.863683 251.96831 
L 419.241171 251.786788 
L 421.618659 251.888056 
L 423.996147 253.297498 
L 426.373636 252.130635 
L 428.751124 248.127529 
L 431.128612 245.042565 
L 433.5061 244.022146 
L 438.261077 244.469221 
L 440.638565 244.020038 
L 443.016053 246.413158 
L 445.393541 249.013881 
L 447.771029 249.156562 
L 450.148518 247.731839 
L 452.526006 244.795017 
L 454.903494 239.963614 
L 457.280982 234.767643 
L 459.65847 230.324427 
L 462.035959 224.270164 
L 464.413447 224.419903 
L 466.790935 224.88624 
L 471.545911 219.053752 
L 473.9234 214.746367 
L 476.300888 210.187935 
L 478.678376 206.890192 
L 481.055864 199.928998 
L 483.433352 184.058472 
L 485.81084 174.522882 
L 488.188329 169.867974 
L 490.565817 144.041898 
L 492.943305 125.97758 
L 497.698281 94.802926 
L 502.453258 71.954094 
L 504.830746 53.674974 
L 507.208234 55.879729 
L 507.208234 55.879729 
" style="fill:none;stroke:#d62728;stroke-linecap:square;stroke-width:1.75;"/>
   </g>
   <g id="patch_3">
    <path d="M 45.381153 295.102246 
L 45.381153 26.8 
" style="fill:none;stroke:#000000;stroke-linecap:square;stroke-linejoin:miter;stroke-width:0.8;"/>
   </g>
   <g id="patch_4">
    <path d="M 529.2 295.102246 
L 529.2 26.8 
" style="fill:none;stroke:#000000;stroke-linecap:square;stroke-linejoin:miter;stroke-width:0.8;"/>
   </g>
   <g id="patch_5">
    <path d="M 45.381153 295.102246 
L 529.2 295.102246 
" style="fill:none;stroke:#000000;stroke-linecap:square;stroke-linejoin:miter;stroke-width:0.8;"/>
   </g>
   <g id="patch_6">
    <path d="M 45.381153 26.8 
L 529.2 26.8 
" style="fill:none;stroke:#000000;stroke-linecap:square;stroke-linejoin:miter;stroke-width:0.8;"/>
   </g>
   <g id="text_15">
    <!-- Positivity rate (7 day rolling) -->
    <defs>
     <path d="M 19.671875 64.796875 
L 19.671875 37.40625 
L 32.078125 37.40625 
Q 38.96875 37.40625 42.71875 40.96875 
Q 46.484375 44.53125 46.484375 51.125 
Q 46.484375 57.671875 42.71875 61.234375 
Q 38.96875 64.796875 32.078125 64.796875 
z
M 9.8125 72.90625 
L 32.078125 72.90625 
Q 44.34375 72.90625 50.609375 67.359375 
Q 56.890625 61.8125 56.890625 51.125 
Q 56.890625 40.328125 50.609375 34.8125 
Q 44.34375 29.296875 32.078125 29.296875 
L 19.671875 29.296875 
L 19.671875 0 
L 9.8125 0 
z
" id="DejaVuSans-80"/>
     <path d="M 30.609375 48.390625 
Q 23.390625 48.390625 19.1875 42.75 
Q 14.984375 37.109375 14.984375 27.296875 
Q 14.984375 17.484375 19.15625 11.84375 
Q 23.34375 6.203125 30.609375 6.203125 
Q 37.796875 6.203125 41.984375 11.859375 
Q 46.1875 17.53125 46.1875 27.296875 
Q 46.1875 37.015625 41.984375 42.703125 
Q 37.796875 48.390625 30.609375 48.390625 
z
M 30.609375 56 
Q 42.328125 56 49.015625 48.375 
Q 55.71875 40.765625 55.71875 27.296875 
Q 55.71875 13.875 49.015625 6.21875 
Q 42.328125 -1.421875 30.609375 -1.421875 
Q 18.84375 -1.421875 12.171875 6.21875 
Q 5.515625 13.875 5.515625 27.296875 
Q 5.515625 40.765625 12.171875 48.375 
Q 18.84375 56 30.609375 56 
z
" id="DejaVuSans-111"/>
     <path d="M 44.28125 53.078125 
L 44.28125 44.578125 
Q 40.484375 46.53125 36.375 47.5 
Q 32.28125 48.484375 27.875 48.484375 
Q 21.1875 48.484375 17.84375 46.4375 
Q 14.5 44.390625 14.5 40.28125 
Q 14.5 37.15625 16.890625 35.375 
Q 19.28125 33.59375 26.515625 31.984375 
L 29.59375 31.296875 
Q 39.15625 29.25 43.1875 25.515625 
Q 47.21875 21.78125 47.21875 15.09375 
Q 47.21875 7.46875 41.1875 3.015625 
Q 35.15625 -1.421875 24.609375 -1.421875 
Q 20.21875 -1.421875 15.453125 -0.5625 
Q 10.6875 0.296875 5.421875 2 
L 5.421875 11.28125 
Q 10.40625 8.6875 15.234375 7.390625 
Q 20.0625 6.109375 24.8125 6.109375 
Q 31.15625 6.109375 34.5625 8.28125 
Q 37.984375 10.453125 37.984375 14.40625 
Q 37.984375 18.0625 35.515625 20.015625 
Q 33.0625 21.96875 24.703125 23.78125 
L 21.578125 24.515625 
Q 13.234375 26.265625 9.515625 29.90625 
Q 5.8125 33.546875 5.8125 39.890625 
Q 5.8125 47.609375 11.28125 51.796875 
Q 16.75 56 26.8125 56 
Q 31.78125 56 36.171875 55.265625 
Q 40.578125 54.546875 44.28125 53.078125 
z
" id="DejaVuSans-115"/>
     <path d="M 9.421875 54.6875 
L 18.40625 54.6875 
L 18.40625 0 
L 9.421875 0 
z
M 9.421875 75.984375 
L 18.40625 75.984375 
L 18.40625 64.59375 
L 9.421875 64.59375 
z
" id="DejaVuSans-105"/>
     <path d="M 2.984375 54.6875 
L 12.5 54.6875 
L 29.59375 8.796875 
L 46.6875 54.6875 
L 56.203125 54.6875 
L 35.6875 0 
L 23.484375 0 
z
" id="DejaVuSans-118"/>
     <path d="M 32.171875 -5.078125 
Q 28.375 -14.84375 24.75 -17.8125 
Q 21.140625 -20.796875 15.09375 -20.796875 
L 7.90625 -20.796875 
L 7.90625 -13.28125 
L 13.1875 -13.28125 
Q 16.890625 -13.28125 18.9375 -11.515625 
Q 21 -9.765625 23.484375 -3.21875 
L 25.09375 0.875 
L 2.984375 54.6875 
L 12.5 54.6875 
L 29.59375 11.921875 
L 46.6875 54.6875 
L 56.203125 54.6875 
z
" id="DejaVuSans-121"/>
     <path id="DejaVuSans-32"/>
     <path d="M 41.109375 46.296875 
Q 39.59375 47.171875 37.8125 47.578125 
Q 36.03125 48 33.890625 48 
Q 26.265625 48 22.1875 43.046875 
Q 18.109375 38.09375 18.109375 28.8125 
L 18.109375 0 
L 9.078125 0 
L 9.078125 54.6875 
L 18.109375 54.6875 
L 18.109375 46.1875 
Q 20.953125 51.171875 25.484375 53.578125 
Q 30.03125 56 36.53125 56 
Q 37.453125 56 38.578125 55.875 
Q 39.703125 55.765625 41.0625 55.515625 
z
" id="DejaVuSans-114"/>
     <path d="M 31 75.875 
Q 24.46875 64.65625 21.28125 53.65625 
Q 18.109375 42.671875 18.109375 31.390625 
Q 18.109375 20.125 21.3125 9.0625 
Q 24.515625 -2 31 -13.1875 
L 23.1875 -13.1875 
Q 15.875 -1.703125 12.234375 9.375 
Q 8.59375 20.453125 8.59375 31.390625 
Q 8.59375 42.28125 12.203125 53.3125 
Q 15.828125 64.359375 23.1875 75.875 
z
" id="DejaVuSans-40"/>
     <path d="M 45.40625 46.390625 
L 45.40625 75.984375 
L 54.390625 75.984375 
L 54.390625 0 
L 45.40625 0 
L 45.40625 8.203125 
Q 42.578125 3.328125 38.25 0.953125 
Q 33.9375 -1.421875 27.875 -1.421875 
Q 17.96875 -1.421875 11.734375 6.484375 
Q 5.515625 14.40625 5.515625 27.296875 
Q 5.515625 40.1875 11.734375 48.09375 
Q 17.96875 56 27.875 56 
Q 33.9375 56 38.25 53.625 
Q 42.578125 51.265625 45.40625 46.390625 
z
M 14.796875 27.296875 
Q 14.796875 17.390625 18.875 11.75 
Q 22.953125 6.109375 30.078125 6.109375 
Q 37.203125 6.109375 41.296875 11.75 
Q 45.40625 17.390625 45.40625 27.296875 
Q 45.40625 37.203125 41.296875 42.84375 
Q 37.203125 48.484375 30.078125 48.484375 
Q 22.953125 48.484375 18.875 42.84375 
Q 14.796875 37.203125 14.796875 27.296875 
z
" id="DejaVuSans-100"/>
     <path d="M 9.421875 75.984375 
L 18.40625 75.984375 
L 18.40625 0 
L 9.421875 0 
z
" id="DejaVuSans-108"/>
     <path d="M 54.890625 33.015625 
L 54.890625 0 
L 45.90625 0 
L 45.90625 32.71875 
Q 45.90625 40.484375 42.875 44.328125 
Q 39.84375 48.1875 33.796875 48.1875 
Q 26.515625 48.1875 22.3125 43.546875 
Q 18.109375 38.921875 18.109375 30.90625 
L 18.109375 0 
L 9.078125 0 
L 9.078125 54.6875 
L 18.109375 54.6875 
L 18.109375 46.1875 
Q 21.34375 51.125 25.703125 53.5625 
Q 30.078125 56 35.796875 56 
Q 45.21875 56 50.046875 50.171875 
Q 54.890625 44.34375 54.890625 33.015625 
z
" id="DejaVuSans-110"/>
     <path d="M 45.40625 27.984375 
Q 45.40625 37.75 41.375 43.109375 
Q 37.359375 48.484375 30.078125 48.484375 
Q 22.859375 48.484375 18.828125 43.109375 
Q 14.796875 37.75 14.796875 27.984375 
Q 14.796875 18.265625 18.828125 12.890625 
Q 22.859375 7.515625 30.078125 7.515625 
Q 37.359375 7.515625 41.375 12.890625 
Q 45.40625 18.265625 45.40625 27.984375 
z
M 54.390625 6.78125 
Q 54.390625 -7.171875 48.1875 -13.984375 
Q 42 -20.796875 29.203125 -20.796875 
Q 24.46875 -20.796875 20.265625 -20.09375 
Q 16.0625 -19.390625 12.109375 -17.921875 
L 12.109375 -9.1875 
Q 16.0625 -11.328125 19.921875 -12.34375 
Q 23.78125 -13.375 27.78125 -13.375 
Q 36.625 -13.375 41.015625 -8.765625 
Q 45.40625 -4.15625 45.40625 5.171875 
L 45.40625 9.625 
Q 42.625 4.78125 38.28125 2.390625 
Q 33.9375 0 27.875 0 
Q 17.828125 0 11.671875 7.65625 
Q 5.515625 15.328125 5.515625 27.984375 
Q 5.515625 40.671875 11.671875 48.328125 
Q 17.828125 56 27.875 56 
Q 33.9375 56 38.28125 53.609375 
Q 42.625 51.21875 45.40625 46.390625 
L 45.40625 54.6875 
L 54.390625 54.6875 
z
" id="DejaVuSans-103"/>
     <path d="M 8.015625 75.875 
L 15.828125 75.875 
Q 23.140625 64.359375 26.78125 53.3125 
Q 30.421875 42.28125 30.421875 31.390625 
Q 30.421875 20.453125 26.78125 9.375 
Q 23.140625 -1.703125 15.828125 -13.1875 
L 8.015625 -13.1875 
Q 14.5 -2 17.703125 9.0625 
Q 20.90625 20.125 20.90625 31.390625 
Q 20.90625 42.671875 17.703125 53.65625 
Q 14.5 64.65625 8.015625 75.875 
z
" id="DejaVuSans-41"/>
    </defs>
    <g transform="translate(202.319326 20.8)scale(0.12 -0.12)">
     <use xlink:href="#DejaVuSans-80"/>
     <use x="56.677734" xlink:href="#DejaVuSans-111"/>
     <use x="117.859375" xlink:href="#DejaVuSans-115"/>
     <use x="169.958984" xlink:href="#DejaVuSans-105"/>
     <use x="197.742188" xlink:href="#DejaVuSans-116"/>
     <use x="236.951172" xlink:href="#DejaVuSans-105"/>
     <use x="264.734375" xlink:href="#DejaVuSans-118"/>
     <use x="323.914062" xlink:href="#DejaVuSans-105"/>
     <use x="351.697266" xlink:href="#DejaVuSans-116"/>
     <use x="390.90625" xlink:href="#DejaVuSans-121"/>
     <use x="450.085938" xlink:href="#DejaVuSans-32"/>
     <use x="481.873047" xlink:href="#DejaVuSans-114"/>
     <use x="522.986328" xlink:href="#DejaVuSans-97"/>
     <use x="584.265625" xlink:href="#DejaVuSans-116"/>
     <use x="623.474609" xlink:href="#DejaVuSans-101"/>
     <use x="684.998047" xlink:href="#DejaVuSans-32"/>
     <use x="716.785156" xlink:href="#DejaVuSans-40"/>
     <use x="755.798828" xlink:href="#DejaVuSans-55"/>
     <use x="819.421875" xlink:href="#DejaVuSans-32"/>
     <use x="851.208984" xlink:href="#DejaVuSans-100"/>
     <use x="914.685547" xlink:href="#DejaVuSans-97"/>
     <use x="975.964844" xlink:href="#DejaVuSans-121"/>
     <use x="1035.144531" xlink:href="#DejaVuSans-32"/>
     <use x="1066.931641" xlink:href="#DejaVuSans-114"/>
     <use x="1105.794922" xlink:href="#DejaVuSans-111"/>
     <use x="1166.976562" xlink:href="#DejaVuSans-108"/>
     <use x="1194.759766" xlink:href="#DejaVuSans-108"/>
     <use x="1222.542969" xlink:href="#DejaVuSans-105"/>
     <use x="1250.326172" xlink:href="#DejaVuSans-110"/>
     <use x="1313.705078" xlink:href="#DejaVuSans-103"/>
     <use x="1377.181641" xlink:href="#DejaVuSans-41"/>
    </g>
   </g>
   <g id="legend_1">
    <g id="patch_7">
     <path d="M 219.706983 93.5125 
L 354.87417 93.5125 
Q 356.87417 93.5125 356.87417 91.5125 
L 356.87417 33.8 
Q 356.87417 31.8 354.87417 31.8 
L 219.706983 31.8 
Q 217.706983 31.8 217.706983 33.8 
L 217.706983 91.5125 
Q 217.706983 93.5125 219.706983 93.5125 
z
" style="fill:#ffffff;opacity:0.8;stroke:#cccccc;stroke-linejoin:miter;stroke-width:0.3;"/>
    </g>
    <g id="line2d_18">
     <path d="M 221.706983 39.898438 
L 241.706983 39.898438 
" style="fill:none;stroke:#1f77b4;stroke-linecap:square;stroke-width:1.75;"/>
    </g>
    <g id="line2d_19"/>
    <g id="text_16">
     <!-- ENGLAND -->
     <defs>
      <path d="M 9.8125 72.90625 
L 55.90625 72.90625 
L 55.90625 64.59375 
L 19.671875 64.59375 
L 19.671875 43.015625 
L 54.390625 43.015625 
L 54.390625 34.71875 
L 19.671875 34.71875 
L 19.671875 8.296875 
L 56.78125 8.296875 
L 56.78125 0 
L 9.8125 0 
z
" id="DejaVuSans-69"/>
      <path d="M 9.8125 72.90625 
L 23.09375 72.90625 
L 55.421875 11.921875 
L 55.421875 72.90625 
L 64.984375 72.90625 
L 64.984375 0 
L 51.703125 0 
L 19.390625 60.984375 
L 19.390625 0 
L 9.8125 0 
z
" id="DejaVuSans-78"/>
      <path d="M 59.515625 10.40625 
L 59.515625 29.984375 
L 43.40625 29.984375 
L 43.40625 38.09375 
L 69.28125 38.09375 
L 69.28125 6.78125 
Q 63.578125 2.734375 56.6875 0.65625 
Q 49.8125 -1.421875 42 -1.421875 
Q 24.90625 -1.421875 15.25 8.5625 
Q 5.609375 18.5625 5.609375 36.375 
Q 5.609375 54.25 15.25 64.234375 
Q 24.90625 74.21875 42 74.21875 
Q 49.125 74.21875 55.546875 72.453125 
Q 61.96875 70.703125 67.390625 67.28125 
L 67.390625 56.78125 
Q 61.921875 61.421875 55.765625 63.765625 
Q 49.609375 66.109375 42.828125 66.109375 
Q 29.4375 66.109375 22.71875 58.640625 
Q 16.015625 51.171875 16.015625 36.375 
Q 16.015625 21.625 22.71875 14.15625 
Q 29.4375 6.6875 42.828125 6.6875 
Q 48.046875 6.6875 52.140625 7.59375 
Q 56.25 8.5 59.515625 10.40625 
z
" id="DejaVuSans-71"/>
      <path d="M 9.8125 72.90625 
L 19.671875 72.90625 
L 19.671875 8.296875 
L 55.171875 8.296875 
L 55.171875 0 
L 9.8125 0 
z
" id="DejaVuSans-76"/>
      <path d="M 34.1875 63.1875 
L 20.796875 26.90625 
L 47.609375 26.90625 
z
M 28.609375 72.90625 
L 39.796875 72.90625 
L 67.578125 0 
L 57.328125 0 
L 50.6875 18.703125 
L 17.828125 18.703125 
L 11.1875 0 
L 0.78125 0 
z
" id="DejaVuSans-65"/>
     </defs>
     <g transform="translate(249.706983 43.398438)scale(0.1 -0.1)">
      <use xlink:href="#DejaVuSans-69"/>
      <use x="63.183594" xlink:href="#DejaVuSans-78"/>
      <use x="137.988281" xlink:href="#DejaVuSans-71"/>
      <use x="215.478516" xlink:href="#DejaVuSans-76"/>
      <use x="273.441406" xlink:href="#DejaVuSans-65"/>
      <use x="341.849609" xlink:href="#DejaVuSans-78"/>
      <use x="416.654297" xlink:href="#DejaVuSans-68"/>
     </g>
    </g>
    <g id="line2d_20">
     <path d="M 221.706983 54.576563 
L 241.706983 54.576563 
" style="fill:none;stroke:#ff7f0e;stroke-linecap:square;stroke-width:1.75;"/>
    </g>
    <g id="line2d_21"/>
    <g id="text_17">
     <!-- SCOTLAND -->
     <defs>
      <path d="M 53.515625 70.515625 
L 53.515625 60.890625 
Q 47.90625 63.578125 42.921875 64.890625 
Q 37.9375 66.21875 33.296875 66.21875 
Q 25.25 66.21875 20.875 63.09375 
Q 16.5 59.96875 16.5 54.203125 
Q 16.5 49.359375 19.40625 46.890625 
Q 22.3125 44.4375 30.421875 42.921875 
L 36.375 41.703125 
Q 47.40625 39.59375 52.65625 34.296875 
Q 57.90625 29 57.90625 20.125 
Q 57.90625 9.515625 50.796875 4.046875 
Q 43.703125 -1.421875 29.984375 -1.421875 
Q 24.8125 -1.421875 18.96875 -0.25 
Q 13.140625 0.921875 6.890625 3.21875 
L 6.890625 13.375 
Q 12.890625 10.015625 18.65625 8.296875 
Q 24.421875 6.59375 29.984375 6.59375 
Q 38.421875 6.59375 43.015625 9.90625 
Q 47.609375 13.234375 47.609375 19.390625 
Q 47.609375 24.75 44.3125 27.78125 
Q 41.015625 30.8125 33.5 32.328125 
L 27.484375 33.5 
Q 16.453125 35.6875 11.515625 40.375 
Q 6.59375 45.0625 6.59375 53.421875 
Q 6.59375 63.09375 13.40625 68.65625 
Q 20.21875 74.21875 32.171875 74.21875 
Q 37.3125 74.21875 42.625 73.28125 
Q 47.953125 72.359375 53.515625 70.515625 
z
" id="DejaVuSans-83"/>
      <path d="M 64.40625 67.28125 
L 64.40625 56.890625 
Q 59.421875 61.53125 53.78125 63.8125 
Q 48.140625 66.109375 41.796875 66.109375 
Q 29.296875 66.109375 22.65625 58.46875 
Q 16.015625 50.828125 16.015625 36.375 
Q 16.015625 21.96875 22.65625 14.328125 
Q 29.296875 6.6875 41.796875 6.6875 
Q 48.140625 6.6875 53.78125 8.984375 
Q 59.421875 11.28125 64.40625 15.921875 
L 64.40625 5.609375 
Q 59.234375 2.09375 53.4375 0.328125 
Q 47.65625 -1.421875 41.21875 -1.421875 
Q 24.65625 -1.421875 15.125 8.703125 
Q 5.609375 18.84375 5.609375 36.375 
Q 5.609375 53.953125 15.125 64.078125 
Q 24.65625 74.21875 41.21875 74.21875 
Q 47.75 74.21875 53.53125 72.484375 
Q 59.328125 70.75 64.40625 67.28125 
z
" id="DejaVuSans-67"/>
      <path d="M 39.40625 66.21875 
Q 28.65625 66.21875 22.328125 58.203125 
Q 16.015625 50.203125 16.015625 36.375 
Q 16.015625 22.609375 22.328125 14.59375 
Q 28.65625 6.59375 39.40625 6.59375 
Q 50.140625 6.59375 56.421875 14.59375 
Q 62.703125 22.609375 62.703125 36.375 
Q 62.703125 50.203125 56.421875 58.203125 
Q 50.140625 66.21875 39.40625 66.21875 
z
M 39.40625 74.21875 
Q 54.734375 74.21875 63.90625 63.9375 
Q 73.09375 53.65625 73.09375 36.375 
Q 73.09375 19.140625 63.90625 8.859375 
Q 54.734375 -1.421875 39.40625 -1.421875 
Q 24.03125 -1.421875 14.8125 8.828125 
Q 5.609375 19.09375 5.609375 36.375 
Q 5.609375 53.65625 14.8125 63.9375 
Q 24.03125 74.21875 39.40625 74.21875 
z
" id="DejaVuSans-79"/>
      <path d="M -0.296875 72.90625 
L 61.375 72.90625 
L 61.375 64.59375 
L 35.5 64.59375 
L 35.5 0 
L 25.59375 0 
L 25.59375 64.59375 
L -0.296875 64.59375 
z
" id="DejaVuSans-84"/>
     </defs>
     <g transform="translate(249.706983 58.076563)scale(0.1 -0.1)">
      <use xlink:href="#DejaVuSans-83"/>
      <use x="63.476562" xlink:href="#DejaVuSans-67"/>
      <use x="133.300781" xlink:href="#DejaVuSans-79"/>
      <use x="212.011719" xlink:href="#DejaVuSans-84"/>
      <use x="273.095703" xlink:href="#DejaVuSans-76"/>
      <use x="331.058594" xlink:href="#DejaVuSans-65"/>
      <use x="399.466797" xlink:href="#DejaVuSans-78"/>
      <use x="474.271484" xlink:href="#DejaVuSans-68"/>
     </g>
    </g>
    <g id="line2d_22">
     <path d="M 221.706983 69.254688 
L 241.706983 69.254688 
" style="fill:none;stroke:#2ca02c;stroke-linecap:square;stroke-width:1.75;"/>
    </g>
    <g id="line2d_23"/>
    <g id="text_18">
     <!-- WALES -->
     <defs>
      <path d="M 3.328125 72.90625 
L 13.28125 72.90625 
L 28.609375 11.28125 
L 43.890625 72.90625 
L 54.984375 72.90625 
L 70.3125 11.28125 
L 85.59375 72.90625 
L 95.609375 72.90625 
L 77.296875 0 
L 64.890625 0 
L 49.515625 63.28125 
L 33.984375 0 
L 21.578125 0 
z
" id="DejaVuSans-87"/>
     </defs>
     <g transform="translate(249.706983 72.754688)scale(0.1 -0.1)">
      <use xlink:href="#DejaVuSans-87"/>
      <use x="93.376953" xlink:href="#DejaVuSans-65"/>
      <use x="161.785156" xlink:href="#DejaVuSans-76"/>
      <use x="217.498047" xlink:href="#DejaVuSans-69"/>
      <use x="280.681641" xlink:href="#DejaVuSans-83"/>
     </g>
    </g>
    <g id="line2d_24">
     <path d="M 221.706983 83.932813 
L 241.706983 83.932813 
" style="fill:none;stroke:#d62728;stroke-linecap:square;stroke-width:1.75;"/>
    </g>
    <g id="line2d_25"/>
    <g id="text_19">
     <!-- NORTHERN IRELAND -->
     <defs>
      <path d="M 44.390625 34.1875 
Q 47.5625 33.109375 50.5625 29.59375 
Q 53.5625 26.078125 56.59375 19.921875 
L 66.609375 0 
L 56 0 
L 46.6875 18.703125 
Q 43.0625 26.03125 39.671875 28.421875 
Q 36.28125 30.8125 30.421875 30.8125 
L 19.671875 30.8125 
L 19.671875 0 
L 9.8125 0 
L 9.8125 72.90625 
L 32.078125 72.90625 
Q 44.578125 72.90625 50.734375 67.671875 
Q 56.890625 62.453125 56.890625 51.90625 
Q 56.890625 45.015625 53.6875 40.46875 
Q 50.484375 35.9375 44.390625 34.1875 
z
M 19.671875 64.796875 
L 19.671875 38.921875 
L 32.078125 38.921875 
Q 39.203125 38.921875 42.84375 42.21875 
Q 46.484375 45.515625 46.484375 51.90625 
Q 46.484375 58.296875 42.84375 61.546875 
Q 39.203125 64.796875 32.078125 64.796875 
z
" id="DejaVuSans-82"/>
      <path d="M 9.8125 72.90625 
L 19.671875 72.90625 
L 19.671875 43.015625 
L 55.515625 43.015625 
L 55.515625 72.90625 
L 65.375 72.90625 
L 65.375 0 
L 55.515625 0 
L 55.515625 34.71875 
L 19.671875 34.71875 
L 19.671875 0 
L 9.8125 0 
z
" id="DejaVuSans-72"/>
      <path d="M 9.8125 72.90625 
L 19.671875 72.90625 
L 19.671875 0 
L 9.8125 0 
z
" id="DejaVuSans-73"/>
     </defs>
     <g transform="translate(249.706983 87.432813)scale(0.1 -0.1)">
      <use xlink:href="#DejaVuSans-78"/>
      <use x="74.804688" xlink:href="#DejaVuSans-79"/>
      <use x="153.515625" xlink:href="#DejaVuSans-82"/>
      <use x="215.748047" xlink:href="#DejaVuSans-84"/>
      <use x="276.832031" xlink:href="#DejaVuSans-72"/>
      <use x="352.027344" xlink:href="#DejaVuSans-69"/>
      <use x="415.210938" xlink:href="#DejaVuSans-82"/>
      <use x="484.693359" xlink:href="#DejaVuSans-78"/>
      <use x="559.498047" xlink:href="#DejaVuSans-32"/>
      <use x="591.285156" xlink:href="#DejaVuSans-73"/>
      <use x="620.777344" xlink:href="#DejaVuSans-82"/>
      <use x="690.259766" xlink:href="#DejaVuSans-69"/>
      <use x="753.443359" xlink:href="#DejaVuSans-76"/>
      <use x="811.40625" xlink:href="#DejaVuSans-65"/>
      <use x="879.814453" xlink:href="#DejaVuSans-78"/>
      <use x="954.619141" xlink:href="#DejaVuSans-68"/>
     </g>
    </g>
   </g>
  </g>
 </g>
 <defs>
  <clipPath id="pa8377539f5">
   <rect height="268.302246" width="483.818847" x="45.381153" y="26.8"/>
  </clipPath>
 </defs>
</svg>
