<?xml version="1.0" encoding="utf-8" standalone="no"?>
<!DOCTYPE svg PUBLIC "-//W3C//DTD SVG 1.1//EN"
  "http://www.w3.org/Graphics/SVG/1.1/DTD/svg11.dtd">
<!-- Created with matplotlib (https://matplotlib.org/) -->
<svg height="360pt" version="1.1" viewBox="0 0 540 360" width="540pt" xmlns="http://www.w3.org/2000/svg" xmlns:xlink="http://www.w3.org/1999/xlink">
 <defs>
  <style type="text/css">
*{stroke-linecap:butt;stroke-linejoin:round;}
  </style>
 </defs>
 <g id="figure_1">
  <g id="patch_1">
   <path d="M 0 360 
L 540 360 
L 540 0 
L 0 0 
z
" style="fill:#ffffff;"/>
  </g>
  <g id="axes_1">
   <g id="patch_2">
    <path d="M 44.150248 295.102246 
L 529.2 295.102246 
L 529.2 26.8 
L 44.150248 26.8 
z
" style="fill:#ffffff;"/>
   </g>
   <g id="matplotlib.axis_1">
    <g id="xtick_1">
     <g id="line2d_1">
      <defs>
       <path d="M 0 0 
L 0 3.5 
" id="m500c8d38c6" style="stroke:#000000;"/>
      </defs>
      <g>
       <use style="stroke:#000000;" x="53.323386" xlink:href="#m500c8d38c6" y="295.102246"/>
      </g>
     </g>
     <g id="text_1">
      <!-- 2020-01 -->
      <defs>
       <path d="M 19.1875 8.296875 
L 53.609375 8.296875 
L 53.609375 0 
L 7.328125 0 
L 7.328125 8.296875 
Q 12.9375 14.109375 22.625 23.890625 
Q 32.328125 33.6875 34.8125 36.53125 
Q 39.546875 41.84375 41.421875 45.53125 
Q 43.3125 49.21875 43.3125 52.78125 
Q 43.3125 58.59375 39.234375 62.25 
Q 35.15625 65.921875 28.609375 65.921875 
Q 23.96875 65.921875 18.8125 64.3125 
Q 13.671875 62.703125 7.8125 59.421875 
L 7.8125 69.390625 
Q 13.765625 71.78125 18.9375 73 
Q 24.125 74.21875 28.421875 74.21875 
Q 39.75 74.21875 46.484375 68.546875 
Q 53.21875 62.890625 53.21875 53.421875 
Q 53.21875 48.921875 51.53125 44.890625 
Q 49.859375 40.875 45.40625 35.40625 
Q 44.1875 33.984375 37.640625 27.21875 
Q 31.109375 20.453125 19.1875 8.296875 
z
" id="DejaVuSans-50"/>
       <path d="M 31.78125 66.40625 
Q 24.171875 66.40625 20.328125 58.90625 
Q 16.5 51.421875 16.5 36.375 
Q 16.5 21.390625 20.328125 13.890625 
Q 24.171875 6.390625 31.78125 6.390625 
Q 39.453125 6.390625 43.28125 13.890625 
Q 47.125 21.390625 47.125 36.375 
Q 47.125 51.421875 43.28125 58.90625 
Q 39.453125 66.40625 31.78125 66.40625 
z
M 31.78125 74.21875 
Q 44.046875 74.21875 50.515625 64.515625 
Q 56.984375 54.828125 56.984375 36.375 
Q 56.984375 17.96875 50.515625 8.265625 
Q 44.046875 -1.421875 31.78125 -1.421875 
Q 19.53125 -1.421875 13.0625 8.265625 
Q 6.59375 17.96875 6.59375 36.375 
Q 6.59375 54.828125 13.0625 64.515625 
Q 19.53125 74.21875 31.78125 74.21875 
z
" id="DejaVuSans-48"/>
       <path d="M 4.890625 31.390625 
L 31.203125 31.390625 
L 31.203125 23.390625 
L 4.890625 23.390625 
z
" id="DejaVuSans-45"/>
       <path d="M 12.40625 8.296875 
L 28.515625 8.296875 
L 28.515625 63.921875 
L 10.984375 60.40625 
L 10.984375 69.390625 
L 28.421875 72.90625 
L 38.28125 72.90625 
L 38.28125 8.296875 
L 54.390625 8.296875 
L 54.390625 0 
L 12.40625 0 
z
" id="DejaVuSans-49"/>
      </defs>
      <g transform="translate(16.098565 333.074092)rotate(-30)scale(0.1 -0.1)">
       <use xlink:href="#DejaVuSans-50"/>
       <use x="63.623047" xlink:href="#DejaVuSans-48"/>
       <use x="127.246094" xlink:href="#DejaVuSans-50"/>
       <use x="190.869141" xlink:href="#DejaVuSans-48"/>
       <use x="254.492188" xlink:href="#DejaVuSans-45"/>
       <use x="290.576172" xlink:href="#DejaVuSans-48"/>
       <use x="354.199219" xlink:href="#DejaVuSans-49"/>
      </g>
     </g>
    </g>
    <g id="xtick_2">
     <g id="line2d_2">
      <g>
       <use style="stroke:#000000;" x="103.212378" xlink:href="#m500c8d38c6" y="295.102246"/>
      </g>
     </g>
     <g id="text_2">
      <!-- 2020-02 -->
      <g transform="translate(65.987557 333.074092)rotate(-30)scale(0.1 -0.1)">
       <use xlink:href="#DejaVuSans-50"/>
       <use x="63.623047" xlink:href="#DejaVuSans-48"/>
       <use x="127.246094" xlink:href="#DejaVuSans-50"/>
       <use x="190.869141" xlink:href="#DejaVuSans-48"/>
       <use x="254.492188" xlink:href="#DejaVuSans-45"/>
       <use x="290.576172" xlink:href="#DejaVuSans-48"/>
       <use x="354.199219" xlink:href="#DejaVuSans-50"/>
      </g>
     </g>
    </g>
    <g id="xtick_3">
     <g id="line2d_3">
      <g>
       <use style="stroke:#000000;" x="149.882726" xlink:href="#m500c8d38c6" y="295.102246"/>
      </g>
     </g>
     <g id="text_3">
      <!-- 2020-03 -->
      <defs>
       <path d="M 40.578125 39.3125 
Q 47.65625 37.796875 51.625 33 
Q 55.609375 28.21875 55.609375 21.1875 
Q 55.609375 10.40625 48.1875 4.484375 
Q 40.765625 -1.421875 27.09375 -1.421875 
Q 22.515625 -1.421875 17.65625 -0.515625 
Q 12.796875 0.390625 7.625 2.203125 
L 7.625 11.71875 
Q 11.71875 9.328125 16.59375 8.109375 
Q 21.484375 6.890625 26.8125 6.890625 
Q 36.078125 6.890625 40.9375 10.546875 
Q 45.796875 14.203125 45.796875 21.1875 
Q 45.796875 27.640625 41.28125 31.265625 
Q 36.765625 34.90625 28.71875 34.90625 
L 20.21875 34.90625 
L 20.21875 43.015625 
L 29.109375 43.015625 
Q 36.375 43.015625 40.234375 45.921875 
Q 44.09375 48.828125 44.09375 54.296875 
Q 44.09375 59.90625 40.109375 62.90625 
Q 36.140625 65.921875 28.71875 65.921875 
Q 24.65625 65.921875 20.015625 65.03125 
Q 15.375 64.15625 9.8125 62.3125 
L 9.8125 71.09375 
Q 15.4375 72.65625 20.34375 73.4375 
Q 25.25 74.21875 29.59375 74.21875 
Q 40.828125 74.21875 47.359375 69.109375 
Q 53.90625 64.015625 53.90625 55.328125 
Q 53.90625 49.265625 50.4375 45.09375 
Q 46.96875 40.921875 40.578125 39.3125 
z
" id="DejaVuSans-51"/>
      </defs>
      <g transform="translate(112.657905 333.074092)rotate(-30)scale(0.1 -0.1)">
       <use xlink:href="#DejaVuSans-50"/>
       <use x="63.623047" xlink:href="#DejaVuSans-48"/>
       <use x="127.246094" xlink:href="#DejaVuSans-50"/>
       <use x="190.869141" xlink:href="#DejaVuSans-48"/>
       <use x="254.492188" xlink:href="#DejaVuSans-45"/>
       <use x="290.576172" xlink:href="#DejaVuSans-48"/>
       <use x="354.199219" xlink:href="#DejaVuSans-51"/>
      </g>
     </g>
    </g>
    <g id="xtick_4">
     <g id="line2d_4">
      <g>
       <use style="stroke:#000000;" x="199.771718" xlink:href="#m500c8d38c6" y="295.102246"/>
      </g>
     </g>
     <g id="text_4">
      <!-- 2020-04 -->
      <defs>
       <path d="M 37.796875 64.3125 
L 12.890625 25.390625 
L 37.796875 25.390625 
z
M 35.203125 72.90625 
L 47.609375 72.90625 
L 47.609375 25.390625 
L 58.015625 25.390625 
L 58.015625 17.1875 
L 47.609375 17.1875 
L 47.609375 0 
L 37.796875 0 
L 37.796875 17.1875 
L 4.890625 17.1875 
L 4.890625 26.703125 
z
" id="DejaVuSans-52"/>
      </defs>
      <g transform="translate(162.546897 333.074092)rotate(-30)scale(0.1 -0.1)">
       <use xlink:href="#DejaVuSans-50"/>
       <use x="63.623047" xlink:href="#DejaVuSans-48"/>
       <use x="127.246094" xlink:href="#DejaVuSans-50"/>
       <use x="190.869141" xlink:href="#DejaVuSans-48"/>
       <use x="254.492188" xlink:href="#DejaVuSans-45"/>
       <use x="290.576172" xlink:href="#DejaVuSans-48"/>
       <use x="354.199219" xlink:href="#DejaVuSans-52"/>
      </g>
     </g>
    </g>
    <g id="xtick_5">
     <g id="line2d_5">
      <g>
       <use style="stroke:#000000;" x="248.051388" xlink:href="#m500c8d38c6" y="295.102246"/>
      </g>
     </g>
     <g id="text_5">
      <!-- 2020-05 -->
      <defs>
       <path d="M 10.796875 72.90625 
L 49.515625 72.90625 
L 49.515625 64.59375 
L 19.828125 64.59375 
L 19.828125 46.734375 
Q 21.96875 47.46875 24.109375 47.828125 
Q 26.265625 48.1875 28.421875 48.1875 
Q 40.625 48.1875 47.75 41.5 
Q 54.890625 34.8125 54.890625 23.390625 
Q 54.890625 11.625 47.5625 5.09375 
Q 40.234375 -1.421875 26.90625 -1.421875 
Q 22.3125 -1.421875 17.546875 -0.640625 
Q 12.796875 0.140625 7.71875 1.703125 
L 7.71875 11.625 
Q 12.109375 9.234375 16.796875 8.0625 
Q 21.484375 6.890625 26.703125 6.890625 
Q 35.15625 6.890625 40.078125 11.328125 
Q 45.015625 15.765625 45.015625 23.390625 
Q 45.015625 31 40.078125 35.4375 
Q 35.15625 39.890625 26.703125 39.890625 
Q 22.75 39.890625 18.8125 39.015625 
Q 14.890625 38.140625 10.796875 36.28125 
z
" id="DejaVuSans-53"/>
      </defs>
      <g transform="translate(210.826567 333.074092)rotate(-30)scale(0.1 -0.1)">
       <use xlink:href="#DejaVuSans-50"/>
       <use x="63.623047" xlink:href="#DejaVuSans-48"/>
       <use x="127.246094" xlink:href="#DejaVuSans-50"/>
       <use x="190.869141" xlink:href="#DejaVuSans-48"/>
       <use x="254.492188" xlink:href="#DejaVuSans-45"/>
       <use x="290.576172" xlink:href="#DejaVuSans-48"/>
       <use x="354.199219" xlink:href="#DejaVuSans-53"/>
      </g>
     </g>
    </g>
    <g id="xtick_6">
     <g id="line2d_6">
      <g>
       <use style="stroke:#000000;" x="297.940381" xlink:href="#m500c8d38c6" y="295.102246"/>
      </g>
     </g>
     <g id="text_6">
      <!-- 2020-06 -->
      <defs>
       <path d="M 33.015625 40.375 
Q 26.375 40.375 22.484375 35.828125 
Q 18.609375 31.296875 18.609375 23.390625 
Q 18.609375 15.53125 22.484375 10.953125 
Q 26.375 6.390625 33.015625 6.390625 
Q 39.65625 6.390625 43.53125 10.953125 
Q 47.40625 15.53125 47.40625 23.390625 
Q 47.40625 31.296875 43.53125 35.828125 
Q 39.65625 40.375 33.015625 40.375 
z
M 52.59375 71.296875 
L 52.59375 62.3125 
Q 48.875 64.0625 45.09375 64.984375 
Q 41.3125 65.921875 37.59375 65.921875 
Q 27.828125 65.921875 22.671875 59.328125 
Q 17.53125 52.734375 16.796875 39.40625 
Q 19.671875 43.65625 24.015625 45.921875 
Q 28.375 48.1875 33.59375 48.1875 
Q 44.578125 48.1875 50.953125 41.515625 
Q 57.328125 34.859375 57.328125 23.390625 
Q 57.328125 12.15625 50.6875 5.359375 
Q 44.046875 -1.421875 33.015625 -1.421875 
Q 20.359375 -1.421875 13.671875 8.265625 
Q 6.984375 17.96875 6.984375 36.375 
Q 6.984375 53.65625 15.1875 63.9375 
Q 23.390625 74.21875 37.203125 74.21875 
Q 40.921875 74.21875 44.703125 73.484375 
Q 48.484375 72.75 52.59375 71.296875 
z
" id="DejaVuSans-54"/>
      </defs>
      <g transform="translate(260.71556 333.074092)rotate(-30)scale(0.1 -0.1)">
       <use xlink:href="#DejaVuSans-50"/>
       <use x="63.623047" xlink:href="#DejaVuSans-48"/>
       <use x="127.246094" xlink:href="#DejaVuSans-50"/>
       <use x="190.869141" xlink:href="#DejaVuSans-48"/>
       <use x="254.492188" xlink:href="#DejaVuSans-45"/>
       <use x="290.576172" xlink:href="#DejaVuSans-48"/>
       <use x="354.199219" xlink:href="#DejaVuSans-54"/>
      </g>
     </g>
    </g>
    <g id="xtick_7">
     <g id="line2d_7">
      <g>
       <use style="stroke:#000000;" x="346.220051" xlink:href="#m500c8d38c6" y="295.102246"/>
      </g>
     </g>
     <g id="text_7">
      <!-- 2020-07 -->
      <defs>
       <path d="M 8.203125 72.90625 
L 55.078125 72.90625 
L 55.078125 68.703125 
L 28.609375 0 
L 18.3125 0 
L 43.21875 64.59375 
L 8.203125 64.59375 
z
" id="DejaVuSans-55"/>
      </defs>
      <g transform="translate(308.99523 333.074092)rotate(-30)scale(0.1 -0.1)">
       <use xlink:href="#DejaVuSans-50"/>
       <use x="63.623047" xlink:href="#DejaVuSans-48"/>
       <use x="127.246094" xlink:href="#DejaVuSans-50"/>
       <use x="190.869141" xlink:href="#DejaVuSans-48"/>
       <use x="254.492188" xlink:href="#DejaVuSans-45"/>
       <use x="290.576172" xlink:href="#DejaVuSans-48"/>
       <use x="354.199219" xlink:href="#DejaVuSans-55"/>
      </g>
     </g>
    </g>
    <g id="xtick_8">
     <g id="line2d_8">
      <g>
       <use style="stroke:#000000;" x="396.109043" xlink:href="#m500c8d38c6" y="295.102246"/>
      </g>
     </g>
     <g id="text_8">
      <!-- 2020-08 -->
      <defs>
       <path d="M 31.78125 34.625 
Q 24.75 34.625 20.71875 30.859375 
Q 16.703125 27.09375 16.703125 20.515625 
Q 16.703125 13.921875 20.71875 10.15625 
Q 24.75 6.390625 31.78125 6.390625 
Q 38.8125 6.390625 42.859375 10.171875 
Q 46.921875 13.96875 46.921875 20.515625 
Q 46.921875 27.09375 42.890625 30.859375 
Q 38.875 34.625 31.78125 34.625 
z
M 21.921875 38.8125 
Q 15.578125 40.375 12.03125 44.71875 
Q 8.5 49.078125 8.5 55.328125 
Q 8.5 64.0625 14.71875 69.140625 
Q 20.953125 74.21875 31.78125 74.21875 
Q 42.671875 74.21875 48.875 69.140625 
Q 55.078125 64.0625 55.078125 55.328125 
Q 55.078125 49.078125 51.53125 44.71875 
Q 48 40.375 41.703125 38.8125 
Q 48.828125 37.15625 52.796875 32.3125 
Q 56.78125 27.484375 56.78125 20.515625 
Q 56.78125 9.90625 50.3125 4.234375 
Q 43.84375 -1.421875 31.78125 -1.421875 
Q 19.734375 -1.421875 13.25 4.234375 
Q 6.78125 9.90625 6.78125 20.515625 
Q 6.78125 27.484375 10.78125 32.3125 
Q 14.796875 37.15625 21.921875 38.8125 
z
M 18.3125 54.390625 
Q 18.3125 48.734375 21.84375 45.5625 
Q 25.390625 42.390625 31.78125 42.390625 
Q 38.140625 42.390625 41.71875 45.5625 
Q 45.3125 48.734375 45.3125 54.390625 
Q 45.3125 60.0625 41.71875 63.234375 
Q 38.140625 66.40625 31.78125 66.40625 
Q 25.390625 66.40625 21.84375 63.234375 
Q 18.3125 60.0625 18.3125 54.390625 
z
" id="DejaVuSans-56"/>
      </defs>
      <g transform="translate(358.884222 333.074092)rotate(-30)scale(0.1 -0.1)">
       <use xlink:href="#DejaVuSans-50"/>
       <use x="63.623047" xlink:href="#DejaVuSans-48"/>
       <use x="127.246094" xlink:href="#DejaVuSans-50"/>
       <use x="190.869141" xlink:href="#DejaVuSans-48"/>
       <use x="254.492188" xlink:href="#DejaVuSans-45"/>
       <use x="290.576172" xlink:href="#DejaVuSans-48"/>
       <use x="354.199219" xlink:href="#DejaVuSans-56"/>
      </g>
     </g>
    </g>
    <g id="xtick_9">
     <g id="line2d_9">
      <g>
       <use style="stroke:#000000;" x="445.998035" xlink:href="#m500c8d38c6" y="295.102246"/>
      </g>
     </g>
     <g id="text_9">
      <!-- 2020-09 -->
      <defs>
       <path d="M 10.984375 1.515625 
L 10.984375 10.5 
Q 14.703125 8.734375 18.5 7.8125 
Q 22.3125 6.890625 25.984375 6.890625 
Q 35.75 6.890625 40.890625 13.453125 
Q 46.046875 20.015625 46.78125 33.40625 
Q 43.953125 29.203125 39.59375 26.953125 
Q 35.25 24.703125 29.984375 24.703125 
Q 19.046875 24.703125 12.671875 31.3125 
Q 6.296875 37.9375 6.296875 49.421875 
Q 6.296875 60.640625 12.9375 67.421875 
Q 19.578125 74.21875 30.609375 74.21875 
Q 43.265625 74.21875 49.921875 64.515625 
Q 56.59375 54.828125 56.59375 36.375 
Q 56.59375 19.140625 48.40625 8.859375 
Q 40.234375 -1.421875 26.421875 -1.421875 
Q 22.703125 -1.421875 18.890625 -0.6875 
Q 15.09375 0.046875 10.984375 1.515625 
z
M 30.609375 32.421875 
Q 37.25 32.421875 41.125 36.953125 
Q 45.015625 41.5 45.015625 49.421875 
Q 45.015625 57.28125 41.125 61.84375 
Q 37.25 66.40625 30.609375 66.40625 
Q 23.96875 66.40625 20.09375 61.84375 
Q 16.21875 57.28125 16.21875 49.421875 
Q 16.21875 41.5 20.09375 36.953125 
Q 23.96875 32.421875 30.609375 32.421875 
z
" id="DejaVuSans-57"/>
      </defs>
      <g transform="translate(408.773214 333.074092)rotate(-30)scale(0.1 -0.1)">
       <use xlink:href="#DejaVuSans-50"/>
       <use x="63.623047" xlink:href="#DejaVuSans-48"/>
       <use x="127.246094" xlink:href="#DejaVuSans-50"/>
       <use x="190.869141" xlink:href="#DejaVuSans-48"/>
       <use x="254.492188" xlink:href="#DejaVuSans-45"/>
       <use x="290.576172" xlink:href="#DejaVuSans-48"/>
       <use x="354.199219" xlink:href="#DejaVuSans-57"/>
      </g>
     </g>
    </g>
    <g id="xtick_10">
     <g id="line2d_10">
      <g>
       <use style="stroke:#000000;" x="494.277705" xlink:href="#m500c8d38c6" y="295.102246"/>
      </g>
     </g>
     <g id="text_10">
      <!-- 2020-10 -->
      <g transform="translate(457.052885 333.074092)rotate(-30)scale(0.1 -0.1)">
       <use xlink:href="#DejaVuSans-50"/>
       <use x="63.623047" xlink:href="#DejaVuSans-48"/>
       <use x="127.246094" xlink:href="#DejaVuSans-50"/>
       <use x="190.869141" xlink:href="#DejaVuSans-48"/>
       <use x="254.492188" xlink:href="#DejaVuSans-45"/>
       <use x="290.576172" xlink:href="#DejaVuSans-49"/>
       <use x="354.199219" xlink:href="#DejaVuSans-48"/>
      </g>
     </g>
    </g>
    <g id="text_11">
     <!-- Date -->
     <defs>
      <path d="M 19.671875 64.796875 
L 19.671875 8.109375 
L 31.59375 8.109375 
Q 46.6875 8.109375 53.6875 14.9375 
Q 60.6875 21.78125 60.6875 36.53125 
Q 60.6875 51.171875 53.6875 57.984375 
Q 46.6875 64.796875 31.59375 64.796875 
z
M 9.8125 72.90625 
L 30.078125 72.90625 
Q 51.265625 72.90625 61.171875 64.09375 
Q 71.09375 55.28125 71.09375 36.53125 
Q 71.09375 17.671875 61.125 8.828125 
Q 51.171875 0 30.078125 0 
L 9.8125 0 
z
" id="DejaVuSans-68"/>
      <path d="M 34.28125 27.484375 
Q 23.390625 27.484375 19.1875 25 
Q 14.984375 22.515625 14.984375 16.5 
Q 14.984375 11.71875 18.140625 8.90625 
Q 21.296875 6.109375 26.703125 6.109375 
Q 34.1875 6.109375 38.703125 11.40625 
Q 43.21875 16.703125 43.21875 25.484375 
L 43.21875 27.484375 
z
M 52.203125 31.203125 
L 52.203125 0 
L 43.21875 0 
L 43.21875 8.296875 
Q 40.140625 3.328125 35.546875 0.953125 
Q 30.953125 -1.421875 24.3125 -1.421875 
Q 15.921875 -1.421875 10.953125 3.296875 
Q 6 8.015625 6 15.921875 
Q 6 25.140625 12.171875 29.828125 
Q 18.359375 34.515625 30.609375 34.515625 
L 43.21875 34.515625 
L 43.21875 35.40625 
Q 43.21875 41.609375 39.140625 45 
Q 35.0625 48.390625 27.6875 48.390625 
Q 23 48.390625 18.546875 47.265625 
Q 14.109375 46.140625 10.015625 43.890625 
L 10.015625 52.203125 
Q 14.9375 54.109375 19.578125 55.046875 
Q 24.21875 56 28.609375 56 
Q 40.484375 56 46.34375 49.84375 
Q 52.203125 43.703125 52.203125 31.203125 
z
" id="DejaVuSans-97"/>
      <path d="M 18.3125 70.21875 
L 18.3125 54.6875 
L 36.8125 54.6875 
L 36.8125 47.703125 
L 18.3125 47.703125 
L 18.3125 18.015625 
Q 18.3125 11.328125 20.140625 9.421875 
Q 21.96875 7.515625 27.59375 7.515625 
L 36.8125 7.515625 
L 36.8125 0 
L 27.59375 0 
Q 17.1875 0 13.234375 3.875 
Q 9.28125 7.765625 9.28125 18.015625 
L 9.28125 47.703125 
L 2.6875 47.703125 
L 2.6875 54.6875 
L 9.28125 54.6875 
L 9.28125 70.21875 
z
" id="DejaVuSans-116"/>
      <path d="M 56.203125 29.59375 
L 56.203125 25.203125 
L 14.890625 25.203125 
Q 15.484375 15.921875 20.484375 11.0625 
Q 25.484375 6.203125 34.421875 6.203125 
Q 39.59375 6.203125 44.453125 7.46875 
Q 49.3125 8.734375 54.109375 11.28125 
L 54.109375 2.78125 
Q 49.265625 0.734375 44.1875 -0.34375 
Q 39.109375 -1.421875 33.890625 -1.421875 
Q 20.796875 -1.421875 13.15625 6.1875 
Q 5.515625 13.8125 5.515625 26.8125 
Q 5.515625 40.234375 12.765625 48.109375 
Q 20.015625 56 32.328125 56 
Q 43.359375 56 49.78125 48.890625 
Q 56.203125 41.796875 56.203125 29.59375 
z
M 47.21875 32.234375 
Q 47.125 39.59375 43.09375 43.984375 
Q 39.0625 48.390625 32.421875 48.390625 
Q 24.90625 48.390625 20.390625 44.140625 
Q 15.875 39.890625 15.1875 32.171875 
z
" id="DejaVuSans-101"/>
     </defs>
     <g transform="translate(273.529265 347.233436)scale(0.11 -0.11)">
      <use xlink:href="#DejaVuSans-68"/>
      <use x="77.001953" xlink:href="#DejaVuSans-97"/>
      <use x="138.28125" xlink:href="#DejaVuSans-116"/>
      <use x="177.490234" xlink:href="#DejaVuSans-101"/>
     </g>
    </g>
   </g>
   <g id="matplotlib.axis_2">
    <g id="ytick_1">
     <g id="line2d_11">
      <defs>
       <path d="M 0 0 
L -3.5 0 
" id="mfae7b7be38" style="stroke:#000000;"/>
      </defs>
      <g>
       <use style="stroke:#000000;" x="44.150248" xlink:href="#mfae7b7be38" y="282.906689"/>
      </g>
     </g>
     <g id="text_12">
      <!-- 0 -->
      <g transform="translate(27.287748 286.705908)scale(0.1 -0.1)">
       <use xlink:href="#DejaVuSans-48"/>
      </g>
     </g>
    </g>
    <g id="ytick_2">
     <g id="line2d_12">
      <g>
       <use style="stroke:#000000;" x="44.150248" xlink:href="#mfae7b7be38" y="232.860803"/>
      </g>
     </g>
     <g id="text_13">
      <!-- 10 -->
      <g transform="translate(20.925248 236.660022)scale(0.1 -0.1)">
       <use xlink:href="#DejaVuSans-49"/>
       <use x="63.623047" xlink:href="#DejaVuSans-48"/>
      </g>
     </g>
    </g>
    <g id="ytick_3">
     <g id="line2d_13">
      <g>
       <use style="stroke:#000000;" x="44.150248" xlink:href="#mfae7b7be38" y="182.814917"/>
      </g>
     </g>
     <g id="text_14">
      <!-- 20 -->
      <g transform="translate(20.925248 186.614136)scale(0.1 -0.1)">
       <use xlink:href="#DejaVuSans-50"/>
       <use x="63.623047" xlink:href="#DejaVuSans-48"/>
      </g>
     </g>
    </g>
    <g id="ytick_4">
     <g id="line2d_14">
      <g>
       <use style="stroke:#000000;" x="44.150248" xlink:href="#mfae7b7be38" y="132.769031"/>
      </g>
     </g>
     <g id="text_15">
      <!-- 30 -->
      <g transform="translate(20.925248 136.56825)scale(0.1 -0.1)">
       <use xlink:href="#DejaVuSans-51"/>
       <use x="63.623047" xlink:href="#DejaVuSans-48"/>
      </g>
     </g>
    </g>
    <g id="ytick_5">
     <g id="line2d_15">
      <g>
       <use style="stroke:#000000;" x="44.150248" xlink:href="#mfae7b7be38" y="82.723145"/>
      </g>
     </g>
     <g id="text_16">
      <!-- 40 -->
      <g transform="translate(20.925248 86.522364)scale(0.1 -0.1)">
       <use xlink:href="#DejaVuSans-52"/>
       <use x="63.623047" xlink:href="#DejaVuSans-48"/>
      </g>
     </g>
    </g>
    <g id="ytick_6">
     <g id="line2d_16">
      <g>
       <use style="stroke:#000000;" x="44.150248" xlink:href="#mfae7b7be38" y="32.677259"/>
      </g>
     </g>
     <g id="text_17">
      <!-- 50 -->
      <g transform="translate(20.925248 36.476478)scale(0.1 -0.1)">
       <use xlink:href="#DejaVuSans-53"/>
       <use x="63.623047" xlink:href="#DejaVuSans-48"/>
      </g>
     </g>
    </g>
   </g>
   <g id="line2d_17">
    <path clip-path="url(#p79f3416b12)" d="M 66.197964 282.906689 
L 177.241205 282.906689 
L 178.850528 275.463481 
L 180.45985 266.686593 
L 182.069172 256.817356 
L 183.678495 245.906578 
L 185.287817 231.579038 
L 186.897139 211.967582 
L 188.506462 189.676063 
L 190.115784 176.301152 
L 191.725106 160.551019 
L 193.334429 146.629933 
L 194.943751 129.774751 
L 196.553073 108.321545 
L 198.162396 96.851892 
L 201.38104 63.357456 
L 202.990363 55.317267 
L 204.599685 46.172029 
L 206.209007 41.01513 
L 207.81833 42.767968 
L 209.427652 38.995557 
L 211.036974 45.092382 
L 212.646297 52.611801 
L 214.255619 57.286034 
L 215.864941 65.389731 
L 220.692909 96.547051 
L 222.302231 109.38849 
L 223.911553 116.539558 
L 227.130198 130.079592 
L 228.73952 134.093336 
L 231.958165 143.670433 
L 233.567487 147.455545 
L 235.17681 153.653985 
L 236.786132 158.696568 
L 238.395454 162.900837 
L 240.004777 166.292196 
L 241.614099 168.553103 
L 243.223421 171.080745 
L 244.832744 171.271271 
L 246.442066 172.058777 
L 248.051388 174.548314 
L 249.660711 175.818486 
L 251.270033 177.482412 
L 252.879355 180.657842 
L 254.488678 184.938322 
L 256.098 188.17726 
L 257.707322 191.085954 
L 259.316645 195.379136 
L 260.925967 197.690849 
L 262.535289 201.768101 
L 264.144612 204.664093 
L 265.753934 206.124791 
L 268.972579 212.107301 
L 270.581901 212.17081 
L 272.191223 213.783928 
L 273.800546 214.838171 
L 275.409868 216.5275 
L 277.01919 217.696058 
L 278.628513 218.610582 
L 280.237835 219.220264 
L 281.847157 220.490436 
L 285.065802 224.847126 
L 286.675124 227.832031 
L 288.284447 230.04213 
L 293.112414 235.465764 
L 294.721736 235.94843 
L 296.331058 236.596218 
L 297.940381 236.291376 
L 299.549703 236.608919 
L 301.159025 237.853688 
L 304.37767 240.787785 
L 305.986992 242.82006 
L 307.596315 244.382372 
L 309.205637 246.592471 
L 310.814959 248.57394 
L 312.424282 249.704393 
L 314.033604 251.330213 
L 315.642926 252.371754 
L 317.252249 252.892525 
L 318.861571 253.108454 
L 320.470893 252.892525 
L 322.080216 253.438699 
L 323.689538 254.302415 
L 325.29886 254.531046 
L 326.908183 255.102624 
L 330.126827 257.28732 
L 331.73615 257.884301 
L 334.954794 259.80226 
L 336.564117 260.513557 
L 338.173439 260.577065 
L 339.782761 260.259522 
L 341.392084 261.021625 
L 343.001406 262.876077 
L 344.610728 263.968425 
L 346.220051 264.743229 
L 349.438695 267.397889 
L 351.048018 268.528342 
L 354.266662 269.112621 
L 355.875985 269.633392 
L 357.485307 270.395495 
L 359.094629 270.560617 
L 360.703952 271.09409 
L 362.313274 271.386229 
L 363.922596 272.135631 
L 365.531919 272.300753 
L 370.359886 273.227979 
L 371.969208 273.494715 
L 373.57853 274.117099 
L 375.187853 274.117099 
L 378.406497 275.311061 
L 380.01582 275.742919 
L 381.625142 275.806428 
L 384.843787 275.463481 
L 389.671754 275.742919 
L 391.281076 275.984252 
L 394.499721 276.898776 
L 397.718365 277.178214 
L 402.546332 277.457651 
L 404.155655 277.749791 
L 405.764977 277.686282 
L 407.374299 277.330634 
L 408.983622 277.381441 
L 410.592944 277.686282 
L 412.202266 277.622774 
L 413.811589 277.737089 
L 415.420911 277.635475 
L 417.030233 277.698984 
L 418.639556 278.207053 
L 420.248878 278.384877 
L 428.29549 278.70242 
L 429.904812 278.867542 
L 431.514134 278.804034 
L 433.123457 278.867542 
L 434.732779 278.816735 
L 436.342101 278.892946 
L 437.951424 278.588104 
L 439.560746 278.651613 
L 441.170068 278.308667 
L 442.779391 278.384877 
L 444.388713 278.245158 
L 445.998035 278.270561 
L 447.607358 277.927615 
L 449.21668 277.927615 
L 450.826002 277.635475 
L 458.872614 274.853799 
L 462.091259 273.050154 
L 463.700581 272.42777 
L 465.309903 271.564053 
L 468.528548 269.239638 
L 471.747193 267.931361 
L 476.57516 265.200491 
L 478.184482 263.892214 
L 479.793804 262.952287 
L 481.403127 261.288362 
L 483.012449 260.157908 
L 484.621771 259.28149 
L 486.231094 258.760719 
L 487.840416 258.709912 
L 491.059061 257.757283 
L 492.668383 257.579459 
L 494.277705 256.563322 
L 495.887028 255.331255 
L 497.49635 253.540312 
L 499.105672 250.530005 
L 500.714995 248.446922 
L 502.324317 245.728754 
L 503.933639 243.658374 
L 505.542962 241.816625 
L 507.152284 239.619227 
L 507.152284 239.619227 
" style="fill:none;stroke:#1f77b4;stroke-linecap:square;stroke-width:1.75;"/>
   </g>
   <g id="line2d_18">
    <path clip-path="url(#p79f3416b12)" d="M 66.197964 282.906689 
L 148.273403 282.906689 
L 149.882726 282.252377 
L 154.710693 277.541326 
L 156.320015 275.1858 
L 157.929337 272.437687 
L 159.53866 271.259925 
L 161.147982 270.47475 
L 162.757304 269.558712 
L 165.975949 265.240249 
L 167.585271 264.455073 
L 169.194594 264.062486 
L 170.803916 262.361273 
L 172.413238 261.576098 
L 175.631883 258.697122 
L 177.241205 256.603322 
L 178.850528 254.247797 
L 180.45985 247.966395 
L 182.069172 242.601032 
L 183.678495 238.020844 
L 185.287817 229.514779 
L 186.897139 222.186478 
L 188.506462 211.848339 
L 190.115784 197.060873 
L 191.725106 187.377047 
L 193.334429 175.206832 
L 194.943751 164.083517 
L 196.553073 151.651578 
L 199.771718 128.227186 
L 201.38104 126.525973 
L 202.990363 118.019909 
L 204.599685 118.412496 
L 206.209007 115.402658 
L 207.81833 113.701445 
L 209.427652 115.402658 
L 211.036974 122.861822 
L 212.646297 127.834598 
L 214.255619 140.266538 
L 217.474264 159.765054 
L 219.083586 172.982169 
L 220.692909 182.142546 
L 222.302231 189.863435 
L 223.911553 194.181898 
L 225.520876 195.097936 
L 227.130198 195.752248 
L 228.73952 199.285536 
L 230.348843 203.865725 
L 231.958165 207.922463 
L 233.567487 212.371789 
L 235.17681 216.428527 
L 236.786132 218.784052 
L 238.395454 222.840791 
L 240.004777 225.327179 
L 241.614099 224.149416 
L 243.223421 223.887691 
L 244.832744 226.112354 
L 246.442066 227.420979 
L 248.051388 232.13203 
L 249.660711 231.739442 
L 251.270033 231.739442 
L 252.879355 234.880143 
L 254.488678 239.067744 
L 256.098 239.198606 
L 257.707322 241.815857 
L 259.316645 244.825695 
L 260.925967 248.22812 
L 262.535289 249.929333 
L 264.144612 252.415721 
L 265.753934 252.808309 
L 267.363256 255.425559 
L 268.972579 256.603322 
L 270.581901 256.734184 
L 272.191223 256.99591 
L 273.800546 259.220572 
L 275.409868 260.005748 
L 277.01919 263.277311 
L 278.628513 264.324211 
L 280.237835 266.156286 
L 281.847157 268.250087 
L 283.45648 268.773537 
L 285.065802 268.904399 
L 286.675124 270.736475 
L 288.284447 270.47475 
L 291.503091 272.306825 
L 293.112414 272.961137 
L 294.721736 274.400625 
L 296.331058 274.1389 
L 297.940381 274.924075 
L 299.549703 276.101838 
L 301.159025 276.625288 
L 304.37767 276.625288 
L 305.986992 276.363563 
L 309.205637 277.410463 
L 310.814959 277.541326 
L 314.033604 277.541326 
L 315.642926 278.719089 
L 317.252249 278.849951 
L 318.861571 278.849951 
L 320.470893 278.457364 
L 322.080216 278.457364 
L 323.689538 278.719089 
L 325.29886 279.242539 
L 326.908183 278.849951 
L 328.517505 279.111676 
L 330.126827 279.765989 
L 331.73615 280.027714 
L 333.345472 280.027714 
L 334.954794 280.420301 
L 336.564117 280.420301 
L 338.173439 280.943751 
L 341.392084 280.682026 
L 343.001406 281.074614 
L 344.610728 281.598064 
L 346.220051 281.598064 
L 347.829373 281.859789 
L 349.438695 281.728927 
L 351.048018 281.990652 
L 352.65734 282.121514 
L 355.875985 281.859789 
L 357.485307 282.121514 
L 359.094629 282.121514 
L 362.313274 281.859789 
L 363.922596 281.859789 
L 365.531919 282.121514 
L 367.141241 282.252377 
L 368.750563 282.252377 
L 370.359886 282.121514 
L 373.57853 282.644964 
L 375.187853 282.514102 
L 378.406497 282.514102 
L 380.01582 282.383239 
L 381.625142 282.514102 
L 383.234464 282.514102 
L 384.843787 282.121514 
L 386.453109 282.383239 
L 388.062431 282.252377 
L 389.671754 282.252377 
L 391.281076 282.121514 
L 392.890398 282.121514 
L 394.499721 281.990652 
L 396.109043 282.252377 
L 397.718365 282.252377 
L 399.327688 282.383239 
L 400.93701 282.121514 
L 402.546332 281.990652 
L 408.983622 281.990652 
L 410.592944 281.598064 
L 412.202266 281.728927 
L 413.811589 282.121514 
L 415.420911 281.990652 
L 417.030233 281.728927 
L 418.639556 281.205477 
L 421.8582 280.943751 
L 423.467523 280.943751 
L 425.076845 280.682026 
L 426.686167 280.289439 
L 428.29549 280.420301 
L 429.904812 280.812889 
L 431.514134 280.943751 
L 433.123457 280.943751 
L 434.732779 280.289439 
L 436.342101 279.896851 
L 437.951424 280.027714 
L 439.560746 279.635126 
L 441.170068 279.635126 
L 442.779391 279.373401 
L 444.388713 279.504264 
L 445.998035 280.158576 
L 447.607358 280.158576 
L 449.21668 280.420301 
L 450.826002 279.765989 
L 452.435325 279.504264 
L 454.044647 279.504264 
L 455.653969 279.242539 
L 457.263292 278.719089 
L 458.872614 278.719089 
L 460.481936 277.148738 
L 462.091259 277.017876 
L 466.919226 275.447525 
L 468.528548 275.054938 
L 470.13787 272.961137 
L 471.747193 273.353725 
L 473.356515 274.008038 
L 474.965837 273.746313 
L 476.57516 272.961137 
L 478.184482 272.306825 
L 479.793804 269.951299 
L 481.403127 270.9982 
L 483.012449 269.427849 
L 484.621771 267.334049 
L 486.231094 266.156286 
L 487.840416 264.585936 
L 489.449738 262.492136 
L 491.059061 263.277311 
L 492.668383 260.398335 
L 494.277705 257.781085 
L 497.49635 254.247797 
L 499.105672 253.855209 
L 500.714995 251.499684 
L 502.324317 246.265183 
L 503.933639 244.171382 
L 505.542962 249.667608 
L 507.152284 254.378659 
L 507.152284 254.378659 
" style="fill:none;stroke:#ff7f0e;stroke-linecap:square;stroke-width:1.75;"/>
   </g>
   <g id="line2d_19">
    <path clip-path="url(#p79f3416b12)" d="M 66.197964 282.906689 
L 183.678495 282.906689 
L 185.287817 275.650426 
L 186.897139 261.364658 
L 188.506462 221.001695 
L 190.115784 196.738566 
L 193.334429 141.40956 
L 194.943751 111.250717 
L 196.553073 85.173522 
L 198.162396 63.631491 
L 199.771718 57.055503 
L 201.38104 49.79924 
L 202.990363 51.613305 
L 204.599685 49.79924 
L 206.209007 49.572481 
L 207.81833 55.014679 
L 209.427652 46.397866 
L 211.036974 57.509019 
L 212.646297 60.456876 
L 214.255619 56.14847 
L 215.864941 62.4977 
L 217.474264 54.78792 
L 219.083586 53.200613 
L 220.692909 73.608853 
L 222.302231 75.19616 
L 223.911553 80.184841 
L 227.130198 69.980721 
L 228.73952 84.946764 
L 230.348843 88.574895 
L 231.958165 86.080555 
L 233.567487 91.522752 
L 235.17681 84.720005 
L 238.395454 92.203027 
L 240.004777 93.336818 
L 241.614099 97.645224 
L 243.223421 92.656543 
L 244.832744 92.656543 
L 246.442066 93.11006 
L 248.051388 99.45929 
L 249.660711 92.656543 
L 251.270033 93.336818 
L 252.879355 87.441104 
L 254.488678 88.121379 
L 256.098 93.563576 
L 257.707322 96.511433 
L 259.316645 91.976268 
L 260.925967 100.139564 
L 262.535289 95.6044 
L 264.144612 98.552257 
L 265.753934 108.529618 
L 267.363256 104.901487 
L 268.972579 108.076102 
L 270.581901 116.919673 
L 272.191223 114.425332 
L 273.800546 118.053464 
L 275.409868 125.082968 
L 277.01919 122.135112 
L 278.628513 127.577309 
L 280.237835 127.577309 
L 281.847157 129.164616 
L 283.45648 128.257584 
L 285.065802 132.792748 
L 286.675124 131.658957 
L 288.284447 133.699781 
L 289.893769 131.20544 
L 291.503091 127.804067 
L 293.112414 123.722419 
L 294.721736 130.071649 
L 296.331058 132.339232 
L 297.940381 134.380055 
L 299.549703 132.112473 
L 301.159025 126.443518 
L 302.768348 131.658957 
L 304.37767 135.513847 
L 305.986992 135.740605 
L 307.596315 133.926539 
L 309.205637 137.101154 
L 310.814959 142.089835 
L 312.424282 149.799614 
L 314.033604 148.212307 
L 315.642926 146.398241 
L 317.252249 141.40956 
L 318.861571 146.851758 
L 320.470893 144.810934 
L 322.080216 142.316593 
L 323.689538 143.677142 
L 325.29886 147.532032 
L 326.908183 150.253131 
L 328.517505 160.684009 
L 330.126827 157.055877 
L 331.73615 157.282636 
L 333.345472 160.910767 
L 334.954794 158.643185 
L 336.564117 163.858624 
L 338.173439 161.591042 
L 339.782761 160.230493 
L 343.001406 169.754338 
L 344.610728 164.085382 
L 346.220051 172.02192 
L 347.829373 172.02192 
L 349.438695 177.237359 
L 351.048018 176.330326 
L 352.65734 172.702195 
L 354.266662 171.795162 
L 355.875985 180.865491 
L 357.485307 181.545765 
L 359.094629 179.051425 
L 360.703952 178.37115 
L 362.313274 178.824667 
L 363.922596 183.813347 
L 365.531919 183.813347 
L 367.141241 184.040106 
L 368.750563 187.441479 
L 370.359886 193.563951 
L 371.969208 195.604775 
L 373.57853 200.593456 
L 375.187853 198.325873 
L 376.797175 199.913181 
L 378.406497 203.768071 
L 380.01582 198.325873 
L 381.625142 189.255545 
L 383.234464 188.802028 
L 386.453109 191.523127 
L 388.062431 191.523127 
L 389.671754 190.842852 
L 391.281076 192.656918 
L 392.890398 200.593456 
L 394.499721 202.180763 
L 396.109043 196.511808 
L 397.718365 198.77939 
L 399.327688 201.954005 
L 400.93701 198.325873 
L 402.546332 196.058291 
L 404.155655 197.872357 
L 405.764977 198.099115 
L 407.374299 202.180763 
L 408.983622 198.552632 
L 410.592944 198.099115 
L 412.202266 202.180763 
L 413.811589 208.756752 
L 415.420911 204.675104 
L 417.030233 207.849719 
L 418.639556 208.529993 
L 420.248878 211.704608 
L 421.8582 210.117301 
L 423.467523 206.489169 
L 425.076845 206.489169 
L 426.686167 211.931367 
L 428.29549 208.529993 
L 429.904812 211.47785 
L 431.514134 213.972191 
L 433.123457 214.425707 
L 434.732779 217.600322 
L 436.342101 212.158125 
L 439.560746 198.552632 
L 441.170068 195.604775 
L 442.779391 194.017467 
L 444.388713 195.604775 
L 445.998035 191.06961 
L 447.607358 193.337193 
L 449.21668 193.337193 
L 450.826002 196.511808 
L 452.435325 202.180763 
L 454.044647 200.139939 
L 455.653969 196.285049 
L 457.263292 197.192082 
L 458.872614 197.872357 
L 460.481936 202.63428 
L 462.091259 202.407521 
L 463.700581 196.058291 
L 466.919226 190.162578 
L 468.528548 192.883676 
L 470.13787 190.842852 
L 471.747193 192.43016 
L 473.356515 199.006148 
L 474.965837 203.768071 
L 476.57516 209.890543 
L 478.184482 209.890543 
L 479.793804 212.158125 
L 481.403127 211.024334 
L 483.012449 199.232906 
L 486.231094 187.214721 
L 487.840416 180.865491 
L 489.449738 178.144392 
L 491.059061 167.486756 
L 492.668383 169.52758 
L 494.277705 172.928953 
L 495.887028 166.806481 
L 497.49635 162.724833 
L 499.105672 154.561537 
L 500.714995 157.282636 
L 502.324317 159.550218 
L 503.933639 154.108021 
L 505.542962 154.788295 
L 507.152284 162.498075 
L 507.152284 162.498075 
" style="fill:none;stroke:#2ca02c;stroke-linecap:square;stroke-width:1.75;"/>
   </g>
   <g id="line2d_20">
    <path clip-path="url(#p79f3416b12)" d="M 66.197964 282.906689 
L 149.882726 282.906689 
L 151.492048 282.529146 
L 154.710693 282.529146 
L 156.320015 282.151603 
L 157.929337 281.018973 
L 162.757304 281.018973 
L 164.366627 280.263886 
L 167.585271 277.998627 
L 169.194594 278.37617 
L 170.803916 277.621084 
L 172.413238 277.24354 
L 174.022561 276.11091 
L 175.631883 275.355824 
L 177.241205 273.845651 
L 178.850528 273.468108 
L 180.45985 270.447761 
L 182.069172 267.049872 
L 183.678495 264.407069 
L 185.287817 259.87655 
L 186.897139 255.723574 
L 188.506462 247.417622 
L 190.115784 238.356584 
L 191.725106 231.183262 
L 194.943751 210.795925 
L 196.553073 204.000146 
L 198.162396 192.296305 
L 202.990363 175.684401 
L 204.599685 174.551771 
L 206.209007 177.572117 
L 207.81833 175.306858 
L 209.427652 177.949661 
L 211.036974 182.48018 
L 212.646297 186.255613 
L 214.255619 195.694194 
L 215.864941 202.867516 
L 217.474264 204.755233 
L 219.083586 213.816271 
L 220.692909 220.234507 
L 222.302231 223.632396 
L 223.911553 224.009939 
L 225.520876 219.101877 
L 227.130198 222.122223 
L 228.73952 222.122223 
L 230.348843 215.703988 
L 231.958165 212.306098 
L 233.567487 210.795925 
L 235.17681 213.816271 
L 236.786132 217.214161 
L 238.395454 215.326444 
L 240.004777 219.47942 
L 241.614099 223.254853 
L 243.223421 231.560805 
L 244.832744 235.336237 
L 246.442066 234.203608 
L 248.051388 235.713781 
L 249.660711 238.734127 
L 251.270033 238.734127 
L 252.879355 243.264646 
L 254.488678 242.132016 
L 256.098 242.132016 
L 257.707322 248.172709 
L 259.316645 252.325685 
L 260.925967 250.437968 
L 262.535289 247.795165 
L 264.144612 243.642189 
L 265.753934 243.264646 
L 267.363256 242.50956 
L 268.972579 240.999387 
L 270.581901 239.11167 
L 272.191223 241.37693 
L 273.800546 243.264646 
L 275.409868 246.662536 
L 277.01919 247.795165 
L 278.628513 252.703228 
L 280.237835 255.723574 
L 281.847157 259.121463 
L 283.45648 261.386723 
L 285.065802 264.784612 
L 286.675124 266.294786 
L 288.284447 266.672329 
L 289.893769 266.672329 
L 291.503091 267.049872 
L 293.112414 266.294786 
L 294.721736 265.917242 
L 296.331058 265.917242 
L 297.940381 268.560045 
L 299.549703 270.447761 
L 301.159025 271.202848 
L 302.768348 272.335478 
L 304.37767 273.845651 
L 305.986992 274.600737 
L 307.596315 275.733367 
L 309.205637 275.733367 
L 314.033604 272.335478 
L 317.252249 272.335478 
L 318.861571 272.713021 
L 320.470893 273.468108 
L 322.080216 275.733367 
L 323.689538 277.621084 
L 325.29886 279.886343 
L 328.517505 279.886343 
L 330.126827 278.753713 
L 333.345472 277.24354 
L 336.564117 277.24354 
L 338.173439 277.621084 
L 339.782761 278.753713 
L 341.392084 278.753713 
L 343.001406 279.5088 
L 344.610728 279.886343 
L 346.220051 280.64143 
L 347.829373 280.263886 
L 349.438695 280.263886 
L 351.048018 279.5088 
L 352.65734 280.64143 
L 354.266662 279.886343 
L 355.875985 280.263886 
L 357.485307 278.753713 
L 359.094629 278.753713 
L 360.703952 279.131257 
L 362.313274 279.886343 
L 363.922596 279.886343 
L 367.141241 280.64143 
L 368.750563 281.77406 
L 370.359886 281.396516 
L 371.969208 281.396516 
L 373.57853 280.64143 
L 375.187853 280.263886 
L 378.406497 280.263886 
L 380.01582 279.886343 
L 381.625142 280.64143 
L 383.234464 279.5088 
L 386.453109 280.263886 
L 389.671754 279.5088 
L 391.281076 279.5088 
L 392.890398 279.131257 
L 394.499721 279.886343 
L 396.109043 279.131257 
L 399.327688 278.37617 
L 400.93701 278.37617 
L 402.546332 278.753713 
L 404.155655 277.998627 
L 405.764977 278.37617 
L 407.374299 277.621084 
L 408.983622 277.24354 
L 410.592944 278.37617 
L 413.811589 277.621084 
L 415.420911 277.998627 
L 417.030233 277.24354 
L 418.639556 278.37617 
L 420.248878 278.37617 
L 421.8582 276.11091 
L 426.686167 271.580391 
L 428.29549 270.825305 
L 431.514134 270.825305 
L 433.123457 270.070218 
L 434.732779 271.580391 
L 436.342101 273.845651 
L 437.951424 274.600737 
L 442.779391 273.468108 
L 444.388713 274.600737 
L 445.998035 273.845651 
L 447.607358 273.845651 
L 449.21668 274.600737 
L 450.826002 275.733367 
L 452.435325 276.488454 
L 454.044647 276.11091 
L 455.653969 277.621084 
L 457.263292 275.355824 
L 458.872614 274.978281 
L 460.481936 273.090564 
L 463.700581 270.825305 
L 465.309903 271.202848 
L 466.919226 268.937588 
L 468.528548 270.825305 
L 470.13787 270.447761 
L 471.747193 271.202848 
L 473.356515 272.335478 
L 476.57516 271.580391 
L 479.793804 269.315132 
L 481.403127 266.294786 
L 483.012449 264.784612 
L 486.231094 262.519353 
L 487.840416 260.254093 
L 489.449738 257.233747 
L 492.668383 258.74392 
L 494.277705 258.366377 
L 495.887028 257.61129 
L 497.49635 253.080771 
L 499.105672 251.193055 
L 500.714995 250.060425 
L 502.324317 244.397276 
L 503.933639 242.132016 
L 505.542962 243.642189 
L 507.152284 246.284992 
L 507.152284 246.284992 
" style="fill:none;stroke:#d62728;stroke-linecap:square;stroke-width:1.75;"/>
   </g>
   <g id="patch_3">
    <path d="M 44.150248 295.102246 
L 44.150248 26.8 
" style="fill:none;stroke:#000000;stroke-linecap:square;stroke-linejoin:miter;stroke-width:0.8;"/>
   </g>
   <g id="patch_4">
    <path d="M 529.2 295.102246 
L 529.2 26.8 
" style="fill:none;stroke:#000000;stroke-linecap:square;stroke-linejoin:miter;stroke-width:0.8;"/>
   </g>
   <g id="patch_5">
    <path d="M 44.150248 295.102246 
L 529.2 295.102246 
" style="fill:none;stroke:#000000;stroke-linecap:square;stroke-linejoin:miter;stroke-width:0.8;"/>
   </g>
   <g id="patch_6">
    <path d="M 44.150248 26.8 
L 529.2 26.8 
" style="fill:none;stroke:#000000;stroke-linecap:square;stroke-linejoin:miter;stroke-width:0.8;"/>
   </g>
   <g id="text_18">
    <!-- New admissions per Million (7 day rolling) -->
    <defs>
     <path d="M 9.8125 72.90625 
L 23.09375 72.90625 
L 55.421875 11.921875 
L 55.421875 72.90625 
L 64.984375 72.90625 
L 64.984375 0 
L 51.703125 0 
L 19.390625 60.984375 
L 19.390625 0 
L 9.8125 0 
z
" id="DejaVuSans-78"/>
     <path d="M 4.203125 54.6875 
L 13.1875 54.6875 
L 24.421875 12.015625 
L 35.59375 54.6875 
L 46.1875 54.6875 
L 57.421875 12.015625 
L 68.609375 54.6875 
L 77.59375 54.6875 
L 63.28125 0 
L 52.6875 0 
L 40.921875 44.828125 
L 29.109375 0 
L 18.5 0 
z
" id="DejaVuSans-119"/>
     <path id="DejaVuSans-32"/>
     <path d="M 45.40625 46.390625 
L 45.40625 75.984375 
L 54.390625 75.984375 
L 54.390625 0 
L 45.40625 0 
L 45.40625 8.203125 
Q 42.578125 3.328125 38.25 0.953125 
Q 33.9375 -1.421875 27.875 -1.421875 
Q 17.96875 -1.421875 11.734375 6.484375 
Q 5.515625 14.40625 5.515625 27.296875 
Q 5.515625 40.1875 11.734375 48.09375 
Q 17.96875 56 27.875 56 
Q 33.9375 56 38.25 53.625 
Q 42.578125 51.265625 45.40625 46.390625 
z
M 14.796875 27.296875 
Q 14.796875 17.390625 18.875 11.75 
Q 22.953125 6.109375 30.078125 6.109375 
Q 37.203125 6.109375 41.296875 11.75 
Q 45.40625 17.390625 45.40625 27.296875 
Q 45.40625 37.203125 41.296875 42.84375 
Q 37.203125 48.484375 30.078125 48.484375 
Q 22.953125 48.484375 18.875 42.84375 
Q 14.796875 37.203125 14.796875 27.296875 
z
" id="DejaVuSans-100"/>
     <path d="M 52 44.1875 
Q 55.375 50.25 60.0625 53.125 
Q 64.75 56 71.09375 56 
Q 79.640625 56 84.28125 50.015625 
Q 88.921875 44.046875 88.921875 33.015625 
L 88.921875 0 
L 79.890625 0 
L 79.890625 32.71875 
Q 79.890625 40.578125 77.09375 44.375 
Q 74.3125 48.1875 68.609375 48.1875 
Q 61.625 48.1875 57.5625 43.546875 
Q 53.515625 38.921875 53.515625 30.90625 
L 53.515625 0 
L 44.484375 0 
L 44.484375 32.71875 
Q 44.484375 40.625 41.703125 44.40625 
Q 38.921875 48.1875 33.109375 48.1875 
Q 26.21875 48.1875 22.15625 43.53125 
Q 18.109375 38.875 18.109375 30.90625 
L 18.109375 0 
L 9.078125 0 
L 9.078125 54.6875 
L 18.109375 54.6875 
L 18.109375 46.1875 
Q 21.1875 51.21875 25.484375 53.609375 
Q 29.78125 56 35.6875 56 
Q 41.65625 56 45.828125 52.96875 
Q 50 49.953125 52 44.1875 
z
" id="DejaVuSans-109"/>
     <path d="M 9.421875 54.6875 
L 18.40625 54.6875 
L 18.40625 0 
L 9.421875 0 
z
M 9.421875 75.984375 
L 18.40625 75.984375 
L 18.40625 64.59375 
L 9.421875 64.59375 
z
" id="DejaVuSans-105"/>
     <path d="M 44.28125 53.078125 
L 44.28125 44.578125 
Q 40.484375 46.53125 36.375 47.5 
Q 32.28125 48.484375 27.875 48.484375 
Q 21.1875 48.484375 17.84375 46.4375 
Q 14.5 44.390625 14.5 40.28125 
Q 14.5 37.15625 16.890625 35.375 
Q 19.28125 33.59375 26.515625 31.984375 
L 29.59375 31.296875 
Q 39.15625 29.25 43.1875 25.515625 
Q 47.21875 21.78125 47.21875 15.09375 
Q 47.21875 7.46875 41.1875 3.015625 
Q 35.15625 -1.421875 24.609375 -1.421875 
Q 20.21875 -1.421875 15.453125 -0.5625 
Q 10.6875 0.296875 5.421875 2 
L 5.421875 11.28125 
Q 10.40625 8.6875 15.234375 7.390625 
Q 20.0625 6.109375 24.8125 6.109375 
Q 31.15625 6.109375 34.5625 8.28125 
Q 37.984375 10.453125 37.984375 14.40625 
Q 37.984375 18.0625 35.515625 20.015625 
Q 33.0625 21.96875 24.703125 23.78125 
L 21.578125 24.515625 
Q 13.234375 26.265625 9.515625 29.90625 
Q 5.8125 33.546875 5.8125 39.890625 
Q 5.8125 47.609375 11.28125 51.796875 
Q 16.75 56 26.8125 56 
Q 31.78125 56 36.171875 55.265625 
Q 40.578125 54.546875 44.28125 53.078125 
z
" id="DejaVuSans-115"/>
     <path d="M 30.609375 48.390625 
Q 23.390625 48.390625 19.1875 42.75 
Q 14.984375 37.109375 14.984375 27.296875 
Q 14.984375 17.484375 19.15625 11.84375 
Q 23.34375 6.203125 30.609375 6.203125 
Q 37.796875 6.203125 41.984375 11.859375 
Q 46.1875 17.53125 46.1875 27.296875 
Q 46.1875 37.015625 41.984375 42.703125 
Q 37.796875 48.390625 30.609375 48.390625 
z
M 30.609375 56 
Q 42.328125 56 49.015625 48.375 
Q 55.71875 40.765625 55.71875 27.296875 
Q 55.71875 13.875 49.015625 6.21875 
Q 42.328125 -1.421875 30.609375 -1.421875 
Q 18.84375 -1.421875 12.171875 6.21875 
Q 5.515625 13.875 5.515625 27.296875 
Q 5.515625 40.765625 12.171875 48.375 
Q 18.84375 56 30.609375 56 
z
" id="DejaVuSans-111"/>
     <path d="M 54.890625 33.015625 
L 54.890625 0 
L 45.90625 0 
L 45.90625 32.71875 
Q 45.90625 40.484375 42.875 44.328125 
Q 39.84375 48.1875 33.796875 48.1875 
Q 26.515625 48.1875 22.3125 43.546875 
Q 18.109375 38.921875 18.109375 30.90625 
L 18.109375 0 
L 9.078125 0 
L 9.078125 54.6875 
L 18.109375 54.6875 
L 18.109375 46.1875 
Q 21.34375 51.125 25.703125 53.5625 
Q 30.078125 56 35.796875 56 
Q 45.21875 56 50.046875 50.171875 
Q 54.890625 44.34375 54.890625 33.015625 
z
" id="DejaVuSans-110"/>
     <path d="M 18.109375 8.203125 
L 18.109375 -20.796875 
L 9.078125 -20.796875 
L 9.078125 54.6875 
L 18.109375 54.6875 
L 18.109375 46.390625 
Q 20.953125 51.265625 25.265625 53.625 
Q 29.59375 56 35.59375 56 
Q 45.5625 56 51.78125 48.09375 
Q 58.015625 40.1875 58.015625 27.296875 
Q 58.015625 14.40625 51.78125 6.484375 
Q 45.5625 -1.421875 35.59375 -1.421875 
Q 29.59375 -1.421875 25.265625 0.953125 
Q 20.953125 3.328125 18.109375 8.203125 
z
M 48.6875 27.296875 
Q 48.6875 37.203125 44.609375 42.84375 
Q 40.53125 48.484375 33.40625 48.484375 
Q 26.265625 48.484375 22.1875 42.84375 
Q 18.109375 37.203125 18.109375 27.296875 
Q 18.109375 17.390625 22.1875 11.75 
Q 26.265625 6.109375 33.40625 6.109375 
Q 40.53125 6.109375 44.609375 11.75 
Q 48.6875 17.390625 48.6875 27.296875 
z
" id="DejaVuSans-112"/>
     <path d="M 41.109375 46.296875 
Q 39.59375 47.171875 37.8125 47.578125 
Q 36.03125 48 33.890625 48 
Q 26.265625 48 22.1875 43.046875 
Q 18.109375 38.09375 18.109375 28.8125 
L 18.109375 0 
L 9.078125 0 
L 9.078125 54.6875 
L 18.109375 54.6875 
L 18.109375 46.1875 
Q 20.953125 51.171875 25.484375 53.578125 
Q 30.03125 56 36.53125 56 
Q 37.453125 56 38.578125 55.875 
Q 39.703125 55.765625 41.0625 55.515625 
z
" id="DejaVuSans-114"/>
     <path d="M 9.8125 72.90625 
L 24.515625 72.90625 
L 43.109375 23.296875 
L 61.8125 72.90625 
L 76.515625 72.90625 
L 76.515625 0 
L 66.890625 0 
L 66.890625 64.015625 
L 48.09375 14.015625 
L 38.1875 14.015625 
L 19.390625 64.015625 
L 19.390625 0 
L 9.8125 0 
z
" id="DejaVuSans-77"/>
     <path d="M 9.421875 75.984375 
L 18.40625 75.984375 
L 18.40625 0 
L 9.421875 0 
z
" id="DejaVuSans-108"/>
     <path d="M 31 75.875 
Q 24.46875 64.65625 21.28125 53.65625 
Q 18.109375 42.671875 18.109375 31.390625 
Q 18.109375 20.125 21.3125 9.0625 
Q 24.515625 -2 31 -13.1875 
L 23.1875 -13.1875 
Q 15.875 -1.703125 12.234375 9.375 
Q 8.59375 20.453125 8.59375 31.390625 
Q 8.59375 42.28125 12.203125 53.3125 
Q 15.828125 64.359375 23.1875 75.875 
z
" id="DejaVuSans-40"/>
     <path d="M 32.171875 -5.078125 
Q 28.375 -14.84375 24.75 -17.8125 
Q 21.140625 -20.796875 15.09375 -20.796875 
L 7.90625 -20.796875 
L 7.90625 -13.28125 
L 13.1875 -13.28125 
Q 16.890625 -13.28125 18.9375 -11.515625 
Q 21 -9.765625 23.484375 -3.21875 
L 25.09375 0.875 
L 2.984375 54.6875 
L 12.5 54.6875 
L 29.59375 11.921875 
L 46.6875 54.6875 
L 56.203125 54.6875 
z
" id="DejaVuSans-121"/>
     <path d="M 45.40625 27.984375 
Q 45.40625 37.75 41.375 43.109375 
Q 37.359375 48.484375 30.078125 48.484375 
Q 22.859375 48.484375 18.828125 43.109375 
Q 14.796875 37.75 14.796875 27.984375 
Q 14.796875 18.265625 18.828125 12.890625 
Q 22.859375 7.515625 30.078125 7.515625 
Q 37.359375 7.515625 41.375 12.890625 
Q 45.40625 18.265625 45.40625 27.984375 
z
M 54.390625 6.78125 
Q 54.390625 -7.171875 48.1875 -13.984375 
Q 42 -20.796875 29.203125 -20.796875 
Q 24.46875 -20.796875 20.265625 -20.09375 
Q 16.0625 -19.390625 12.109375 -17.921875 
L 12.109375 -9.1875 
Q 16.0625 -11.328125 19.921875 -12.34375 
Q 23.78125 -13.375 27.78125 -13.375 
Q 36.625 -13.375 41.015625 -8.765625 
Q 45.40625 -4.15625 45.40625 5.171875 
L 45.40625 9.625 
Q 42.625 4.78125 38.28125 2.390625 
Q 33.9375 0 27.875 0 
Q 17.828125 0 11.671875 7.65625 
Q 5.515625 15.328125 5.515625 27.984375 
Q 5.515625 40.671875 11.671875 48.328125 
Q 17.828125 56 27.875 56 
Q 33.9375 56 38.28125 53.609375 
Q 42.625 51.21875 45.40625 46.390625 
L 45.40625 54.6875 
L 54.390625 54.6875 
z
" id="DejaVuSans-103"/>
     <path d="M 8.015625 75.875 
L 15.828125 75.875 
Q 23.140625 64.359375 26.78125 53.3125 
Q 30.421875 42.28125 30.421875 31.390625 
Q 30.421875 20.453125 26.78125 9.375 
Q 23.140625 -1.703125 15.828125 -13.1875 
L 8.015625 -13.1875 
Q 14.5 -2 17.703125 9.0625 
Q 20.90625 20.125 20.90625 31.390625 
Q 20.90625 42.671875 17.703125 53.65625 
Q 14.5 64.65625 8.015625 75.875 
z
" id="DejaVuSans-41"/>
    </defs>
    <g transform="translate(161.194499 20.8)scale(0.12 -0.12)">
     <use xlink:href="#DejaVuSans-78"/>
     <use x="74.804688" xlink:href="#DejaVuSans-101"/>
     <use x="136.328125" xlink:href="#DejaVuSans-119"/>
     <use x="218.115234" xlink:href="#DejaVuSans-32"/>
     <use x="249.902344" xlink:href="#DejaVuSans-97"/>
     <use x="311.181641" xlink:href="#DejaVuSans-100"/>
     <use x="374.658203" xlink:href="#DejaVuSans-109"/>
     <use x="472.070312" xlink:href="#DejaVuSans-105"/>
     <use x="499.853516" xlink:href="#DejaVuSans-115"/>
     <use x="551.953125" xlink:href="#DejaVuSans-115"/>
     <use x="604.052734" xlink:href="#DejaVuSans-105"/>
     <use x="631.835938" xlink:href="#DejaVuSans-111"/>
     <use x="693.017578" xlink:href="#DejaVuSans-110"/>
     <use x="756.396484" xlink:href="#DejaVuSans-115"/>
     <use x="808.496094" xlink:href="#DejaVuSans-32"/>
     <use x="840.283203" xlink:href="#DejaVuSans-112"/>
     <use x="903.759766" xlink:href="#DejaVuSans-101"/>
     <use x="965.283203" xlink:href="#DejaVuSans-114"/>
     <use x="1006.396484" xlink:href="#DejaVuSans-32"/>
     <use x="1038.183594" xlink:href="#DejaVuSans-77"/>
     <use x="1124.462891" xlink:href="#DejaVuSans-105"/>
     <use x="1152.246094" xlink:href="#DejaVuSans-108"/>
     <use x="1180.029297" xlink:href="#DejaVuSans-108"/>
     <use x="1207.8125" xlink:href="#DejaVuSans-105"/>
     <use x="1235.595703" xlink:href="#DejaVuSans-111"/>
     <use x="1296.777344" xlink:href="#DejaVuSans-110"/>
     <use x="1360.15625" xlink:href="#DejaVuSans-32"/>
     <use x="1391.943359" xlink:href="#DejaVuSans-40"/>
     <use x="1430.957031" xlink:href="#DejaVuSans-55"/>
     <use x="1494.580078" xlink:href="#DejaVuSans-32"/>
     <use x="1526.367188" xlink:href="#DejaVuSans-100"/>
     <use x="1589.84375" xlink:href="#DejaVuSans-97"/>
     <use x="1651.123047" xlink:href="#DejaVuSans-121"/>
     <use x="1710.302734" xlink:href="#DejaVuSans-32"/>
     <use x="1742.089844" xlink:href="#DejaVuSans-114"/>
     <use x="1780.953125" xlink:href="#DejaVuSans-111"/>
     <use x="1842.134766" xlink:href="#DejaVuSans-108"/>
     <use x="1869.917969" xlink:href="#DejaVuSans-108"/>
     <use x="1897.701172" xlink:href="#DejaVuSans-105"/>
     <use x="1925.484375" xlink:href="#DejaVuSans-110"/>
     <use x="1988.863281" xlink:href="#DejaVuSans-103"/>
     <use x="2052.339844" xlink:href="#DejaVuSans-41"/>
    </g>
   </g>
   <g id="legend_1">
    <g id="patch_7">
     <path d="M 387.032813 93.5125 
L 522.2 93.5125 
Q 524.2 93.5125 524.2 91.5125 
L 524.2 33.8 
Q 524.2 31.8 522.2 31.8 
L 387.032813 31.8 
Q 385.032813 31.8 385.032813 33.8 
L 385.032813 91.5125 
Q 385.032813 93.5125 387.032813 93.5125 
z
" style="fill:#ffffff;opacity:0.8;stroke:#cccccc;stroke-linejoin:miter;stroke-width:0.3;"/>
    </g>
    <g id="line2d_21">
     <path d="M 389.032813 39.898438 
L 409.032813 39.898438 
" style="fill:none;stroke:#1f77b4;stroke-linecap:square;stroke-width:1.75;"/>
    </g>
    <g id="line2d_22"/>
    <g id="text_19">
     <!-- ENGLAND -->
     <defs>
      <path d="M 9.8125 72.90625 
L 55.90625 72.90625 
L 55.90625 64.59375 
L 19.671875 64.59375 
L 19.671875 43.015625 
L 54.390625 43.015625 
L 54.390625 34.71875 
L 19.671875 34.71875 
L 19.671875 8.296875 
L 56.78125 8.296875 
L 56.78125 0 
L 9.8125 0 
z
" id="DejaVuSans-69"/>
      <path d="M 59.515625 10.40625 
L 59.515625 29.984375 
L 43.40625 29.984375 
L 43.40625 38.09375 
L 69.28125 38.09375 
L 69.28125 6.78125 
Q 63.578125 2.734375 56.6875 0.65625 
Q 49.8125 -1.421875 42 -1.421875 
Q 24.90625 -1.421875 15.25 8.5625 
Q 5.609375 18.5625 5.609375 36.375 
Q 5.609375 54.25 15.25 64.234375 
Q 24.90625 74.21875 42 74.21875 
Q 49.125 74.21875 55.546875 72.453125 
Q 61.96875 70.703125 67.390625 67.28125 
L 67.390625 56.78125 
Q 61.921875 61.421875 55.765625 63.765625 
Q 49.609375 66.109375 42.828125 66.109375 
Q 29.4375 66.109375 22.71875 58.640625 
Q 16.015625 51.171875 16.015625 36.375 
Q 16.015625 21.625 22.71875 14.15625 
Q 29.4375 6.6875 42.828125 6.6875 
Q 48.046875 6.6875 52.140625 7.59375 
Q 56.25 8.5 59.515625 10.40625 
z
" id="DejaVuSans-71"/>
      <path d="M 9.8125 72.90625 
L 19.671875 72.90625 
L 19.671875 8.296875 
L 55.171875 8.296875 
L 55.171875 0 
L 9.8125 0 
z
" id="DejaVuSans-76"/>
      <path d="M 34.1875 63.1875 
L 20.796875 26.90625 
L 47.609375 26.90625 
z
M 28.609375 72.90625 
L 39.796875 72.90625 
L 67.578125 0 
L 57.328125 0 
L 50.6875 18.703125 
L 17.828125 18.703125 
L 11.1875 0 
L 0.78125 0 
z
" id="DejaVuSans-65"/>
     </defs>
     <g transform="translate(417.032813 43.398438)scale(0.1 -0.1)">
      <use xlink:href="#DejaVuSans-69"/>
      <use x="63.183594" xlink:href="#DejaVuSans-78"/>
      <use x="137.988281" xlink:href="#DejaVuSans-71"/>
      <use x="215.478516" xlink:href="#DejaVuSans-76"/>
      <use x="273.441406" xlink:href="#DejaVuSans-65"/>
      <use x="341.849609" xlink:href="#DejaVuSans-78"/>
      <use x="416.654297" xlink:href="#DejaVuSans-68"/>
     </g>
    </g>
    <g id="line2d_23">
     <path d="M 389.032813 54.576563 
L 409.032813 54.576563 
" style="fill:none;stroke:#ff7f0e;stroke-linecap:square;stroke-width:1.75;"/>
    </g>
    <g id="line2d_24"/>
    <g id="text_20">
     <!-- SCOTLAND -->
     <defs>
      <path d="M 53.515625 70.515625 
L 53.515625 60.890625 
Q 47.90625 63.578125 42.921875 64.890625 
Q 37.9375 66.21875 33.296875 66.21875 
Q 25.25 66.21875 20.875 63.09375 
Q 16.5 59.96875 16.5 54.203125 
Q 16.5 49.359375 19.40625 46.890625 
Q 22.3125 44.4375 30.421875 42.921875 
L 36.375 41.703125 
Q 47.40625 39.59375 52.65625 34.296875 
Q 57.90625 29 57.90625 20.125 
Q 57.90625 9.515625 50.796875 4.046875 
Q 43.703125 -1.421875 29.984375 -1.421875 
Q 24.8125 -1.421875 18.96875 -0.25 
Q 13.140625 0.921875 6.890625 3.21875 
L 6.890625 13.375 
Q 12.890625 10.015625 18.65625 8.296875 
Q 24.421875 6.59375 29.984375 6.59375 
Q 38.421875 6.59375 43.015625 9.90625 
Q 47.609375 13.234375 47.609375 19.390625 
Q 47.609375 24.75 44.3125 27.78125 
Q 41.015625 30.8125 33.5 32.328125 
L 27.484375 33.5 
Q 16.453125 35.6875 11.515625 40.375 
Q 6.59375 45.0625 6.59375 53.421875 
Q 6.59375 63.09375 13.40625 68.65625 
Q 20.21875 74.21875 32.171875 74.21875 
Q 37.3125 74.21875 42.625 73.28125 
Q 47.953125 72.359375 53.515625 70.515625 
z
" id="DejaVuSans-83"/>
      <path d="M 64.40625 67.28125 
L 64.40625 56.890625 
Q 59.421875 61.53125 53.78125 63.8125 
Q 48.140625 66.109375 41.796875 66.109375 
Q 29.296875 66.109375 22.65625 58.46875 
Q 16.015625 50.828125 16.015625 36.375 
Q 16.015625 21.96875 22.65625 14.328125 
Q 29.296875 6.6875 41.796875 6.6875 
Q 48.140625 6.6875 53.78125 8.984375 
Q 59.421875 11.28125 64.40625 15.921875 
L 64.40625 5.609375 
Q 59.234375 2.09375 53.4375 0.328125 
Q 47.65625 -1.421875 41.21875 -1.421875 
Q 24.65625 -1.421875 15.125 8.703125 
Q 5.609375 18.84375 5.609375 36.375 
Q 5.609375 53.953125 15.125 64.078125 
Q 24.65625 74.21875 41.21875 74.21875 
Q 47.75 74.21875 53.53125 72.484375 
Q 59.328125 70.75 64.40625 67.28125 
z
" id="DejaVuSans-67"/>
      <path d="M 39.40625 66.21875 
Q 28.65625 66.21875 22.328125 58.203125 
Q 16.015625 50.203125 16.015625 36.375 
Q 16.015625 22.609375 22.328125 14.59375 
Q 28.65625 6.59375 39.40625 6.59375 
Q 50.140625 6.59375 56.421875 14.59375 
Q 62.703125 22.609375 62.703125 36.375 
Q 62.703125 50.203125 56.421875 58.203125 
Q 50.140625 66.21875 39.40625 66.21875 
z
M 39.40625 74.21875 
Q 54.734375 74.21875 63.90625 63.9375 
Q 73.09375 53.65625 73.09375 36.375 
Q 73.09375 19.140625 63.90625 8.859375 
Q 54.734375 -1.421875 39.40625 -1.421875 
Q 24.03125 -1.421875 14.8125 8.828125 
Q 5.609375 19.09375 5.609375 36.375 
Q 5.609375 53.65625 14.8125 63.9375 
Q 24.03125 74.21875 39.40625 74.21875 
z
" id="DejaVuSans-79"/>
      <path d="M -0.296875 72.90625 
L 61.375 72.90625 
L 61.375 64.59375 
L 35.5 64.59375 
L 35.5 0 
L 25.59375 0 
L 25.59375 64.59375 
L -0.296875 64.59375 
z
" id="DejaVuSans-84"/>
     </defs>
     <g transform="translate(417.032813 58.076563)scale(0.1 -0.1)">
      <use xlink:href="#DejaVuSans-83"/>
      <use x="63.476562" xlink:href="#DejaVuSans-67"/>
      <use x="133.300781" xlink:href="#DejaVuSans-79"/>
      <use x="212.011719" xlink:href="#DejaVuSans-84"/>
      <use x="273.095703" xlink:href="#DejaVuSans-76"/>
      <use x="331.058594" xlink:href="#DejaVuSans-65"/>
      <use x="399.466797" xlink:href="#DejaVuSans-78"/>
      <use x="474.271484" xlink:href="#DejaVuSans-68"/>
     </g>
    </g>
    <g id="line2d_25">
     <path d="M 389.032813 69.254688 
L 409.032813 69.254688 
" style="fill:none;stroke:#2ca02c;stroke-linecap:square;stroke-width:1.75;"/>
    </g>
    <g id="line2d_26"/>
    <g id="text_21">
     <!-- WALES -->
     <defs>
      <path d="M 3.328125 72.90625 
L 13.28125 72.90625 
L 28.609375 11.28125 
L 43.890625 72.90625 
L 54.984375 72.90625 
L 70.3125 11.28125 
L 85.59375 72.90625 
L 95.609375 72.90625 
L 77.296875 0 
L 64.890625 0 
L 49.515625 63.28125 
L 33.984375 0 
L 21.578125 0 
z
" id="DejaVuSans-87"/>
     </defs>
     <g transform="translate(417.032813 72.754688)scale(0.1 -0.1)">
      <use xlink:href="#DejaVuSans-87"/>
      <use x="93.376953" xlink:href="#DejaVuSans-65"/>
      <use x="161.785156" xlink:href="#DejaVuSans-76"/>
      <use x="217.498047" xlink:href="#DejaVuSans-69"/>
      <use x="280.681641" xlink:href="#DejaVuSans-83"/>
     </g>
    </g>
    <g id="line2d_27">
     <path d="M 389.032813 83.932813 
L 409.032813 83.932813 
" style="fill:none;stroke:#d62728;stroke-linecap:square;stroke-width:1.75;"/>
    </g>
    <g id="line2d_28"/>
    <g id="text_22">
     <!-- NORTHERN IRELAND -->
     <defs>
      <path d="M 44.390625 34.1875 
Q 47.5625 33.109375 50.5625 29.59375 
Q 53.5625 26.078125 56.59375 19.921875 
L 66.609375 0 
L 56 0 
L 46.6875 18.703125 
Q 43.0625 26.03125 39.671875 28.421875 
Q 36.28125 30.8125 30.421875 30.8125 
L 19.671875 30.8125 
L 19.671875 0 
L 9.8125 0 
L 9.8125 72.90625 
L 32.078125 72.90625 
Q 44.578125 72.90625 50.734375 67.671875 
Q 56.890625 62.453125 56.890625 51.90625 
Q 56.890625 45.015625 53.6875 40.46875 
Q 50.484375 35.9375 44.390625 34.1875 
z
M 19.671875 64.796875 
L 19.671875 38.921875 
L 32.078125 38.921875 
Q 39.203125 38.921875 42.84375 42.21875 
Q 46.484375 45.515625 46.484375 51.90625 
Q 46.484375 58.296875 42.84375 61.546875 
Q 39.203125 64.796875 32.078125 64.796875 
z
" id="DejaVuSans-82"/>
      <path d="M 9.8125 72.90625 
L 19.671875 72.90625 
L 19.671875 43.015625 
L 55.515625 43.015625 
L 55.515625 72.90625 
L 65.375 72.90625 
L 65.375 0 
L 55.515625 0 
L 55.515625 34.71875 
L 19.671875 34.71875 
L 19.671875 0 
L 9.8125 0 
z
" id="DejaVuSans-72"/>
      <path d="M 9.8125 72.90625 
L 19.671875 72.90625 
L 19.671875 0 
L 9.8125 0 
z
" id="DejaVuSans-73"/>
     </defs>
     <g transform="translate(417.032813 87.432813)scale(0.1 -0.1)">
      <use xlink:href="#DejaVuSans-78"/>
      <use x="74.804688" xlink:href="#DejaVuSans-79"/>
      <use x="153.515625" xlink:href="#DejaVuSans-82"/>
      <use x="215.748047" xlink:href="#DejaVuSans-84"/>
      <use x="276.832031" xlink:href="#DejaVuSans-72"/>
      <use x="352.027344" xlink:href="#DejaVuSans-69"/>
      <use x="415.210938" xlink:href="#DejaVuSans-82"/>
      <use x="484.693359" xlink:href="#DejaVuSans-78"/>
      <use x="559.498047" xlink:href="#DejaVuSans-32"/>
      <use x="591.285156" xlink:href="#DejaVuSans-73"/>
      <use x="620.777344" xlink:href="#DejaVuSans-82"/>
      <use x="690.259766" xlink:href="#DejaVuSans-69"/>
      <use x="753.443359" xlink:href="#DejaVuSans-76"/>
      <use x="811.40625" xlink:href="#DejaVuSans-65"/>
      <use x="879.814453" xlink:href="#DejaVuSans-78"/>
      <use x="954.619141" xlink:href="#DejaVuSans-68"/>
     </g>
    </g>
   </g>
  </g>
 </g>
 <defs>
  <clipPath id="p79f3416b12">
   <rect height="268.302246" width="485.049752" x="44.150248" y="26.8"/>
  </clipPath>
 </defs>
</svg>
