<?xml version="1.0" encoding="utf-8" standalone="no"?>
<!DOCTYPE svg PUBLIC "-//W3C//DTD SVG 1.1//EN"
  "http://www.w3.org/Graphics/SVG/1.1/DTD/svg11.dtd">
<!-- Created with matplotlib (https://matplotlib.org/) -->
<svg height="288pt" version="1.1" viewBox="0 0 432 288" width="432pt" xmlns="http://www.w3.org/2000/svg" xmlns:xlink="http://www.w3.org/1999/xlink">
 <metadata>
  <rdf:RDF xmlns:cc="http://creativecommons.org/ns#" xmlns:dc="http://purl.org/dc/elements/1.1/" xmlns:rdf="http://www.w3.org/1999/02/22-rdf-syntax-ns#">
   <cc:Work>
    <dc:type rdf:resource="http://purl.org/dc/dcmitype/StillImage"/>
    <dc:date>2020-11-21T10:24:44.702273</dc:date>
    <dc:format>image/svg+xml</dc:format>
    <dc:creator>
     <cc:Agent>
      <dc:title>Matplotlib v3.3.2, https://matplotlib.org/</dc:title>
     </cc:Agent>
    </dc:creator>
   </cc:Work>
  </rdf:RDF>
 </metadata>
 <defs>
  <style type="text/css">*{stroke-linecap:butt;stroke-linejoin:round;}</style>
 </defs>
 <g id="figure_1">
  <g id="patch_1">
   <path d="M 0 288 
L 432 288 
L 432 0 
L 0 0 
z
" style="fill:none;"/>
  </g>
  <g id="axes_1">
   <g id="patch_2">
    <path d="M 44.55 226.602246 
L 421.2 226.602246 
L 421.2 26.8 
L 44.55 26.8 
z
" style="fill:#ffffff;"/>
   </g>
   <g id="matplotlib.axis_1">
    <g id="xtick_1">
     <g id="line2d_1">
      <defs>
       <path d="M 0 0 
L 0 3.5 
" id="m6a87bb7b71" style="stroke:#000000;stroke-width:0.8;"/>
      </defs>
      <g>
       <use style="stroke:#000000;stroke-width:0.8;" x="79.913562" xlink:href="#m6a87bb7b71" y="226.602246"/>
      </g>
     </g>
     <g id="text_1">
      <!-- 2020-04 -->
      <g transform="translate(42.688741 261.074092)rotate(-30)scale(0.1 -0.1)">
       <defs>
        <path d="M 19.1875 8.296875 
L 53.609375 8.296875 
L 53.609375 0 
L 7.328125 0 
L 7.328125 8.296875 
Q 12.9375 14.109375 22.625 23.890625 
Q 32.328125 33.6875 34.8125 36.53125 
Q 39.546875 41.84375 41.421875 45.53125 
Q 43.3125 49.21875 43.3125 52.78125 
Q 43.3125 58.59375 39.234375 62.25 
Q 35.15625 65.921875 28.609375 65.921875 
Q 23.96875 65.921875 18.8125 64.3125 
Q 13.671875 62.703125 7.8125 59.421875 
L 7.8125 69.390625 
Q 13.765625 71.78125 18.9375 73 
Q 24.125 74.21875 28.421875 74.21875 
Q 39.75 74.21875 46.484375 68.546875 
Q 53.21875 62.890625 53.21875 53.421875 
Q 53.21875 48.921875 51.53125 44.890625 
Q 49.859375 40.875 45.40625 35.40625 
Q 44.1875 33.984375 37.640625 27.21875 
Q 31.109375 20.453125 19.1875 8.296875 
z
" id="DejaVuSans-50"/>
        <path d="M 31.78125 66.40625 
Q 24.171875 66.40625 20.328125 58.90625 
Q 16.5 51.421875 16.5 36.375 
Q 16.5 21.390625 20.328125 13.890625 
Q 24.171875 6.390625 31.78125 6.390625 
Q 39.453125 6.390625 43.28125 13.890625 
Q 47.125 21.390625 47.125 36.375 
Q 47.125 51.421875 43.28125 58.90625 
Q 39.453125 66.40625 31.78125 66.40625 
z
M 31.78125 74.21875 
Q 44.046875 74.21875 50.515625 64.515625 
Q 56.984375 54.828125 56.984375 36.375 
Q 56.984375 17.96875 50.515625 8.265625 
Q 44.046875 -1.421875 31.78125 -1.421875 
Q 19.53125 -1.421875 13.0625 8.265625 
Q 6.59375 17.96875 6.59375 36.375 
Q 6.59375 54.828125 13.0625 64.515625 
Q 19.53125 74.21875 31.78125 74.21875 
z
" id="DejaVuSans-48"/>
        <path d="M 4.890625 31.390625 
L 31.203125 31.390625 
L 31.203125 23.390625 
L 4.890625 23.390625 
z
" id="DejaVuSans-45"/>
        <path d="M 37.796875 64.3125 
L 12.890625 25.390625 
L 37.796875 25.390625 
z
M 35.203125 72.90625 
L 47.609375 72.90625 
L 47.609375 25.390625 
L 58.015625 25.390625 
L 58.015625 17.1875 
L 47.609375 17.1875 
L 47.609375 0 
L 37.796875 0 
L 37.796875 17.1875 
L 4.890625 17.1875 
L 4.890625 26.703125 
z
" id="DejaVuSans-52"/>
       </defs>
       <use xlink:href="#DejaVuSans-50"/>
       <use x="63.623047" xlink:href="#DejaVuSans-48"/>
       <use x="127.246094" xlink:href="#DejaVuSans-50"/>
       <use x="190.869141" xlink:href="#DejaVuSans-48"/>
       <use x="254.492188" xlink:href="#DejaVuSans-45"/>
       <use x="290.576172" xlink:href="#DejaVuSans-48"/>
       <use x="354.199219" xlink:href="#DejaVuSans-52"/>
      </g>
     </g>
    </g>
    <g id="xtick_2">
     <g id="line2d_2">
      <g>
       <use style="stroke:#000000;stroke-width:0.8;" x="122.01304" xlink:href="#m6a87bb7b71" y="226.602246"/>
      </g>
     </g>
     <g id="text_2">
      <!-- 2020-05 -->
      <g transform="translate(84.788219 261.074092)rotate(-30)scale(0.1 -0.1)">
       <defs>
        <path d="M 10.796875 72.90625 
L 49.515625 72.90625 
L 49.515625 64.59375 
L 19.828125 64.59375 
L 19.828125 46.734375 
Q 21.96875 47.46875 24.109375 47.828125 
Q 26.265625 48.1875 28.421875 48.1875 
Q 40.625 48.1875 47.75 41.5 
Q 54.890625 34.8125 54.890625 23.390625 
Q 54.890625 11.625 47.5625 5.09375 
Q 40.234375 -1.421875 26.90625 -1.421875 
Q 22.3125 -1.421875 17.546875 -0.640625 
Q 12.796875 0.140625 7.71875 1.703125 
L 7.71875 11.625 
Q 12.109375 9.234375 16.796875 8.0625 
Q 21.484375 6.890625 26.703125 6.890625 
Q 35.15625 6.890625 40.078125 11.328125 
Q 45.015625 15.765625 45.015625 23.390625 
Q 45.015625 31 40.078125 35.4375 
Q 35.15625 39.890625 26.703125 39.890625 
Q 22.75 39.890625 18.8125 39.015625 
Q 14.890625 38.140625 10.796875 36.28125 
z
" id="DejaVuSans-53"/>
       </defs>
       <use xlink:href="#DejaVuSans-50"/>
       <use x="63.623047" xlink:href="#DejaVuSans-48"/>
       <use x="127.246094" xlink:href="#DejaVuSans-50"/>
       <use x="190.869141" xlink:href="#DejaVuSans-48"/>
       <use x="254.492188" xlink:href="#DejaVuSans-45"/>
       <use x="290.576172" xlink:href="#DejaVuSans-48"/>
       <use x="354.199219" xlink:href="#DejaVuSans-53"/>
      </g>
     </g>
    </g>
    <g id="xtick_3">
     <g id="line2d_3">
      <g>
       <use style="stroke:#000000;stroke-width:0.8;" x="165.515835" xlink:href="#m6a87bb7b71" y="226.602246"/>
      </g>
     </g>
     <g id="text_3">
      <!-- 2020-06 -->
      <g transform="translate(128.291014 261.074092)rotate(-30)scale(0.1 -0.1)">
       <defs>
        <path d="M 33.015625 40.375 
Q 26.375 40.375 22.484375 35.828125 
Q 18.609375 31.296875 18.609375 23.390625 
Q 18.609375 15.53125 22.484375 10.953125 
Q 26.375 6.390625 33.015625 6.390625 
Q 39.65625 6.390625 43.53125 10.953125 
Q 47.40625 15.53125 47.40625 23.390625 
Q 47.40625 31.296875 43.53125 35.828125 
Q 39.65625 40.375 33.015625 40.375 
z
M 52.59375 71.296875 
L 52.59375 62.3125 
Q 48.875 64.0625 45.09375 64.984375 
Q 41.3125 65.921875 37.59375 65.921875 
Q 27.828125 65.921875 22.671875 59.328125 
Q 17.53125 52.734375 16.796875 39.40625 
Q 19.671875 43.65625 24.015625 45.921875 
Q 28.375 48.1875 33.59375 48.1875 
Q 44.578125 48.1875 50.953125 41.515625 
Q 57.328125 34.859375 57.328125 23.390625 
Q 57.328125 12.15625 50.6875 5.359375 
Q 44.046875 -1.421875 33.015625 -1.421875 
Q 20.359375 -1.421875 13.671875 8.265625 
Q 6.984375 17.96875 6.984375 36.375 
Q 6.984375 53.65625 15.1875 63.9375 
Q 23.390625 74.21875 37.203125 74.21875 
Q 40.921875 74.21875 44.703125 73.484375 
Q 48.484375 72.75 52.59375 71.296875 
z
" id="DejaVuSans-54"/>
       </defs>
       <use xlink:href="#DejaVuSans-50"/>
       <use x="63.623047" xlink:href="#DejaVuSans-48"/>
       <use x="127.246094" xlink:href="#DejaVuSans-50"/>
       <use x="190.869141" xlink:href="#DejaVuSans-48"/>
       <use x="254.492188" xlink:href="#DejaVuSans-45"/>
       <use x="290.576172" xlink:href="#DejaVuSans-48"/>
       <use x="354.199219" xlink:href="#DejaVuSans-54"/>
      </g>
     </g>
    </g>
    <g id="xtick_4">
     <g id="line2d_4">
      <g>
       <use style="stroke:#000000;stroke-width:0.8;" x="207.615313" xlink:href="#m6a87bb7b71" y="226.602246"/>
      </g>
     </g>
     <g id="text_4">
      <!-- 2020-07 -->
      <g transform="translate(170.390492 261.074092)rotate(-30)scale(0.1 -0.1)">
       <defs>
        <path d="M 8.203125 72.90625 
L 55.078125 72.90625 
L 55.078125 68.703125 
L 28.609375 0 
L 18.3125 0 
L 43.21875 64.59375 
L 8.203125 64.59375 
z
" id="DejaVuSans-55"/>
       </defs>
       <use xlink:href="#DejaVuSans-50"/>
       <use x="63.623047" xlink:href="#DejaVuSans-48"/>
       <use x="127.246094" xlink:href="#DejaVuSans-50"/>
       <use x="190.869141" xlink:href="#DejaVuSans-48"/>
       <use x="254.492188" xlink:href="#DejaVuSans-45"/>
       <use x="290.576172" xlink:href="#DejaVuSans-48"/>
       <use x="354.199219" xlink:href="#DejaVuSans-55"/>
      </g>
     </g>
    </g>
    <g id="xtick_5">
     <g id="line2d_5">
      <g>
       <use style="stroke:#000000;stroke-width:0.8;" x="251.118107" xlink:href="#m6a87bb7b71" y="226.602246"/>
      </g>
     </g>
     <g id="text_5">
      <!-- 2020-08 -->
      <g transform="translate(213.893286 261.074092)rotate(-30)scale(0.1 -0.1)">
       <defs>
        <path d="M 31.78125 34.625 
Q 24.75 34.625 20.71875 30.859375 
Q 16.703125 27.09375 16.703125 20.515625 
Q 16.703125 13.921875 20.71875 10.15625 
Q 24.75 6.390625 31.78125 6.390625 
Q 38.8125 6.390625 42.859375 10.171875 
Q 46.921875 13.96875 46.921875 20.515625 
Q 46.921875 27.09375 42.890625 30.859375 
Q 38.875 34.625 31.78125 34.625 
z
M 21.921875 38.8125 
Q 15.578125 40.375 12.03125 44.71875 
Q 8.5 49.078125 8.5 55.328125 
Q 8.5 64.0625 14.71875 69.140625 
Q 20.953125 74.21875 31.78125 74.21875 
Q 42.671875 74.21875 48.875 69.140625 
Q 55.078125 64.0625 55.078125 55.328125 
Q 55.078125 49.078125 51.53125 44.71875 
Q 48 40.375 41.703125 38.8125 
Q 48.828125 37.15625 52.796875 32.3125 
Q 56.78125 27.484375 56.78125 20.515625 
Q 56.78125 9.90625 50.3125 4.234375 
Q 43.84375 -1.421875 31.78125 -1.421875 
Q 19.734375 -1.421875 13.25 4.234375 
Q 6.78125 9.90625 6.78125 20.515625 
Q 6.78125 27.484375 10.78125 32.3125 
Q 14.796875 37.15625 21.921875 38.8125 
z
M 18.3125 54.390625 
Q 18.3125 48.734375 21.84375 45.5625 
Q 25.390625 42.390625 31.78125 42.390625 
Q 38.140625 42.390625 41.71875 45.5625 
Q 45.3125 48.734375 45.3125 54.390625 
Q 45.3125 60.0625 41.71875 63.234375 
Q 38.140625 66.40625 31.78125 66.40625 
Q 25.390625 66.40625 21.84375 63.234375 
Q 18.3125 60.0625 18.3125 54.390625 
z
" id="DejaVuSans-56"/>
       </defs>
       <use xlink:href="#DejaVuSans-50"/>
       <use x="63.623047" xlink:href="#DejaVuSans-48"/>
       <use x="127.246094" xlink:href="#DejaVuSans-50"/>
       <use x="190.869141" xlink:href="#DejaVuSans-48"/>
       <use x="254.492188" xlink:href="#DejaVuSans-45"/>
       <use x="290.576172" xlink:href="#DejaVuSans-48"/>
       <use x="354.199219" xlink:href="#DejaVuSans-56"/>
      </g>
     </g>
    </g>
    <g id="xtick_6">
     <g id="line2d_6">
      <g>
       <use style="stroke:#000000;stroke-width:0.8;" x="294.620902" xlink:href="#m6a87bb7b71" y="226.602246"/>
      </g>
     </g>
     <g id="text_6">
      <!-- 2020-09 -->
      <g transform="translate(257.396081 261.074092)rotate(-30)scale(0.1 -0.1)">
       <defs>
        <path d="M 10.984375 1.515625 
L 10.984375 10.5 
Q 14.703125 8.734375 18.5 7.8125 
Q 22.3125 6.890625 25.984375 6.890625 
Q 35.75 6.890625 40.890625 13.453125 
Q 46.046875 20.015625 46.78125 33.40625 
Q 43.953125 29.203125 39.59375 26.953125 
Q 35.25 24.703125 29.984375 24.703125 
Q 19.046875 24.703125 12.671875 31.3125 
Q 6.296875 37.9375 6.296875 49.421875 
Q 6.296875 60.640625 12.9375 67.421875 
Q 19.578125 74.21875 30.609375 74.21875 
Q 43.265625 74.21875 49.921875 64.515625 
Q 56.59375 54.828125 56.59375 36.375 
Q 56.59375 19.140625 48.40625 8.859375 
Q 40.234375 -1.421875 26.421875 -1.421875 
Q 22.703125 -1.421875 18.890625 -0.6875 
Q 15.09375 0.046875 10.984375 1.515625 
z
M 30.609375 32.421875 
Q 37.25 32.421875 41.125 36.953125 
Q 45.015625 41.5 45.015625 49.421875 
Q 45.015625 57.28125 41.125 61.84375 
Q 37.25 66.40625 30.609375 66.40625 
Q 23.96875 66.40625 20.09375 61.84375 
Q 16.21875 57.28125 16.21875 49.421875 
Q 16.21875 41.5 20.09375 36.953125 
Q 23.96875 32.421875 30.609375 32.421875 
z
" id="DejaVuSans-57"/>
       </defs>
       <use xlink:href="#DejaVuSans-50"/>
       <use x="63.623047" xlink:href="#DejaVuSans-48"/>
       <use x="127.246094" xlink:href="#DejaVuSans-50"/>
       <use x="190.869141" xlink:href="#DejaVuSans-48"/>
       <use x="254.492188" xlink:href="#DejaVuSans-45"/>
       <use x="290.576172" xlink:href="#DejaVuSans-48"/>
       <use x="354.199219" xlink:href="#DejaVuSans-57"/>
      </g>
     </g>
    </g>
    <g id="xtick_7">
     <g id="line2d_7">
      <g>
       <use style="stroke:#000000;stroke-width:0.8;" x="336.72038" xlink:href="#m6a87bb7b71" y="226.602246"/>
      </g>
     </g>
     <g id="text_7">
      <!-- 2020-10 -->
      <g transform="translate(299.495559 261.074092)rotate(-30)scale(0.1 -0.1)">
       <defs>
        <path d="M 12.40625 8.296875 
L 28.515625 8.296875 
L 28.515625 63.921875 
L 10.984375 60.40625 
L 10.984375 69.390625 
L 28.421875 72.90625 
L 38.28125 72.90625 
L 38.28125 8.296875 
L 54.390625 8.296875 
L 54.390625 0 
L 12.40625 0 
z
" id="DejaVuSans-49"/>
       </defs>
       <use xlink:href="#DejaVuSans-50"/>
       <use x="63.623047" xlink:href="#DejaVuSans-48"/>
       <use x="127.246094" xlink:href="#DejaVuSans-50"/>
       <use x="190.869141" xlink:href="#DejaVuSans-48"/>
       <use x="254.492188" xlink:href="#DejaVuSans-45"/>
       <use x="290.576172" xlink:href="#DejaVuSans-49"/>
       <use x="354.199219" xlink:href="#DejaVuSans-48"/>
      </g>
     </g>
    </g>
    <g id="xtick_8">
     <g id="line2d_8">
      <g>
       <use style="stroke:#000000;stroke-width:0.8;" x="380.223174" xlink:href="#m6a87bb7b71" y="226.602246"/>
      </g>
     </g>
     <g id="text_8">
      <!-- 2020-11 -->
      <g transform="translate(342.998354 261.074092)rotate(-30)scale(0.1 -0.1)">
       <use xlink:href="#DejaVuSans-50"/>
       <use x="63.623047" xlink:href="#DejaVuSans-48"/>
       <use x="127.246094" xlink:href="#DejaVuSans-50"/>
       <use x="190.869141" xlink:href="#DejaVuSans-48"/>
       <use x="254.492188" xlink:href="#DejaVuSans-45"/>
       <use x="290.576172" xlink:href="#DejaVuSans-49"/>
       <use x="354.199219" xlink:href="#DejaVuSans-49"/>
      </g>
     </g>
    </g>
    <g id="text_9">
     <!-- Date -->
     <g transform="translate(220.924219 274.473592)scale(0.1 -0.1)">
      <defs>
       <path d="M 19.671875 64.796875 
L 19.671875 8.109375 
L 31.59375 8.109375 
Q 46.6875 8.109375 53.6875 14.9375 
Q 60.6875 21.78125 60.6875 36.53125 
Q 60.6875 51.171875 53.6875 57.984375 
Q 46.6875 64.796875 31.59375 64.796875 
z
M 9.8125 72.90625 
L 30.078125 72.90625 
Q 51.265625 72.90625 61.171875 64.09375 
Q 71.09375 55.28125 71.09375 36.53125 
Q 71.09375 17.671875 61.125 8.828125 
Q 51.171875 0 30.078125 0 
L 9.8125 0 
z
" id="DejaVuSans-68"/>
       <path d="M 34.28125 27.484375 
Q 23.390625 27.484375 19.1875 25 
Q 14.984375 22.515625 14.984375 16.5 
Q 14.984375 11.71875 18.140625 8.90625 
Q 21.296875 6.109375 26.703125 6.109375 
Q 34.1875 6.109375 38.703125 11.40625 
Q 43.21875 16.703125 43.21875 25.484375 
L 43.21875 27.484375 
z
M 52.203125 31.203125 
L 52.203125 0 
L 43.21875 0 
L 43.21875 8.296875 
Q 40.140625 3.328125 35.546875 0.953125 
Q 30.953125 -1.421875 24.3125 -1.421875 
Q 15.921875 -1.421875 10.953125 3.296875 
Q 6 8.015625 6 15.921875 
Q 6 25.140625 12.171875 29.828125 
Q 18.359375 34.515625 30.609375 34.515625 
L 43.21875 34.515625 
L 43.21875 35.40625 
Q 43.21875 41.609375 39.140625 45 
Q 35.0625 48.390625 27.6875 48.390625 
Q 23 48.390625 18.546875 47.265625 
Q 14.109375 46.140625 10.015625 43.890625 
L 10.015625 52.203125 
Q 14.9375 54.109375 19.578125 55.046875 
Q 24.21875 56 28.609375 56 
Q 40.484375 56 46.34375 49.84375 
Q 52.203125 43.703125 52.203125 31.203125 
z
" id="DejaVuSans-97"/>
       <path d="M 18.3125 70.21875 
L 18.3125 54.6875 
L 36.8125 54.6875 
L 36.8125 47.703125 
L 18.3125 47.703125 
L 18.3125 18.015625 
Q 18.3125 11.328125 20.140625 9.421875 
Q 21.96875 7.515625 27.59375 7.515625 
L 36.8125 7.515625 
L 36.8125 0 
L 27.59375 0 
Q 17.1875 0 13.234375 3.875 
Q 9.28125 7.765625 9.28125 18.015625 
L 9.28125 47.703125 
L 2.6875 47.703125 
L 2.6875 54.6875 
L 9.28125 54.6875 
L 9.28125 70.21875 
z
" id="DejaVuSans-116"/>
       <path d="M 56.203125 29.59375 
L 56.203125 25.203125 
L 14.890625 25.203125 
Q 15.484375 15.921875 20.484375 11.0625 
Q 25.484375 6.203125 34.421875 6.203125 
Q 39.59375 6.203125 44.453125 7.46875 
Q 49.3125 8.734375 54.109375 11.28125 
L 54.109375 2.78125 
Q 49.265625 0.734375 44.1875 -0.34375 
Q 39.109375 -1.421875 33.890625 -1.421875 
Q 20.796875 -1.421875 13.15625 6.1875 
Q 5.515625 13.8125 5.515625 26.8125 
Q 5.515625 40.234375 12.765625 48.109375 
Q 20.015625 56 32.328125 56 
Q 43.359375 56 49.78125 48.890625 
Q 56.203125 41.796875 56.203125 29.59375 
z
M 47.21875 32.234375 
Q 47.125 39.59375 43.09375 43.984375 
Q 39.0625 48.390625 32.421875 48.390625 
Q 24.90625 48.390625 20.390625 44.140625 
Q 15.875 39.890625 15.1875 32.171875 
z
" id="DejaVuSans-101"/>
      </defs>
      <use xlink:href="#DejaVuSans-68"/>
      <use x="77.001953" xlink:href="#DejaVuSans-97"/>
      <use x="138.28125" xlink:href="#DejaVuSans-116"/>
      <use x="177.490234" xlink:href="#DejaVuSans-101"/>
     </g>
    </g>
   </g>
   <g id="matplotlib.axis_2">
    <g id="ytick_1">
     <g id="line2d_9">
      <defs>
       <path d="M 0 0 
L -3.5 0 
" id="m6862b7124f" style="stroke:#000000;stroke-width:0.8;"/>
      </defs>
      <g>
       <use style="stroke:#000000;stroke-width:0.8;" x="44.55" xlink:href="#m6862b7124f" y="218.018007"/>
      </g>
     </g>
     <g id="text_10">
      <!-- 0 -->
      <g transform="translate(31.1875 221.817226)scale(0.1 -0.1)">
       <use xlink:href="#DejaVuSans-48"/>
      </g>
     </g>
    </g>
    <g id="ytick_2">
     <g id="line2d_10">
      <g>
       <use style="stroke:#000000;stroke-width:0.8;" x="44.55" xlink:href="#m6862b7124f" y="174.423535"/>
      </g>
     </g>
     <g id="text_11">
      <!-- 20 -->
      <g transform="translate(24.825 178.222753)scale(0.1 -0.1)">
       <use xlink:href="#DejaVuSans-50"/>
       <use x="63.623047" xlink:href="#DejaVuSans-48"/>
      </g>
     </g>
    </g>
    <g id="ytick_3">
     <g id="line2d_11">
      <g>
       <use style="stroke:#000000;stroke-width:0.8;" x="44.55" xlink:href="#m6862b7124f" y="130.829062"/>
      </g>
     </g>
     <g id="text_12">
      <!-- 40 -->
      <g transform="translate(24.825 134.628281)scale(0.1 -0.1)">
       <use xlink:href="#DejaVuSans-52"/>
       <use x="63.623047" xlink:href="#DejaVuSans-48"/>
      </g>
     </g>
    </g>
    <g id="ytick_4">
     <g id="line2d_12">
      <g>
       <use style="stroke:#000000;stroke-width:0.8;" x="44.55" xlink:href="#m6862b7124f" y="87.23459"/>
      </g>
     </g>
     <g id="text_13">
      <!-- 60 -->
      <g transform="translate(24.825 91.033808)scale(0.1 -0.1)">
       <use xlink:href="#DejaVuSans-54"/>
       <use x="63.623047" xlink:href="#DejaVuSans-48"/>
      </g>
     </g>
    </g>
    <g id="ytick_5">
     <g id="line2d_13">
      <g>
       <use style="stroke:#000000;stroke-width:0.8;" x="44.55" xlink:href="#m6862b7124f" y="43.640117"/>
      </g>
     </g>
     <g id="text_14">
      <!-- 80 -->
      <g transform="translate(24.825 47.439336)scale(0.1 -0.1)">
       <use xlink:href="#DejaVuSans-56"/>
       <use x="63.623047" xlink:href="#DejaVuSans-48"/>
      </g>
     </g>
    </g>
    <g id="text_15">
     <!-- New admissions per million population -->
     <g transform="translate(18.745313 223.460498)rotate(-90)scale(0.1 -0.1)">
      <defs>
       <path d="M 9.8125 72.90625 
L 23.09375 72.90625 
L 55.421875 11.921875 
L 55.421875 72.90625 
L 64.984375 72.90625 
L 64.984375 0 
L 51.703125 0 
L 19.390625 60.984375 
L 19.390625 0 
L 9.8125 0 
z
" id="DejaVuSans-78"/>
       <path d="M 4.203125 54.6875 
L 13.1875 54.6875 
L 24.421875 12.015625 
L 35.59375 54.6875 
L 46.1875 54.6875 
L 57.421875 12.015625 
L 68.609375 54.6875 
L 77.59375 54.6875 
L 63.28125 0 
L 52.6875 0 
L 40.921875 44.828125 
L 29.109375 0 
L 18.5 0 
z
" id="DejaVuSans-119"/>
       <path id="DejaVuSans-32"/>
       <path d="M 45.40625 46.390625 
L 45.40625 75.984375 
L 54.390625 75.984375 
L 54.390625 0 
L 45.40625 0 
L 45.40625 8.203125 
Q 42.578125 3.328125 38.25 0.953125 
Q 33.9375 -1.421875 27.875 -1.421875 
Q 17.96875 -1.421875 11.734375 6.484375 
Q 5.515625 14.40625 5.515625 27.296875 
Q 5.515625 40.1875 11.734375 48.09375 
Q 17.96875 56 27.875 56 
Q 33.9375 56 38.25 53.625 
Q 42.578125 51.265625 45.40625 46.390625 
z
M 14.796875 27.296875 
Q 14.796875 17.390625 18.875 11.75 
Q 22.953125 6.109375 30.078125 6.109375 
Q 37.203125 6.109375 41.296875 11.75 
Q 45.40625 17.390625 45.40625 27.296875 
Q 45.40625 37.203125 41.296875 42.84375 
Q 37.203125 48.484375 30.078125 48.484375 
Q 22.953125 48.484375 18.875 42.84375 
Q 14.796875 37.203125 14.796875 27.296875 
z
" id="DejaVuSans-100"/>
       <path d="M 52 44.1875 
Q 55.375 50.25 60.0625 53.125 
Q 64.75 56 71.09375 56 
Q 79.640625 56 84.28125 50.015625 
Q 88.921875 44.046875 88.921875 33.015625 
L 88.921875 0 
L 79.890625 0 
L 79.890625 32.71875 
Q 79.890625 40.578125 77.09375 44.375 
Q 74.3125 48.1875 68.609375 48.1875 
Q 61.625 48.1875 57.5625 43.546875 
Q 53.515625 38.921875 53.515625 30.90625 
L 53.515625 0 
L 44.484375 0 
L 44.484375 32.71875 
Q 44.484375 40.625 41.703125 44.40625 
Q 38.921875 48.1875 33.109375 48.1875 
Q 26.21875 48.1875 22.15625 43.53125 
Q 18.109375 38.875 18.109375 30.90625 
L 18.109375 0 
L 9.078125 0 
L 9.078125 54.6875 
L 18.109375 54.6875 
L 18.109375 46.1875 
Q 21.1875 51.21875 25.484375 53.609375 
Q 29.78125 56 35.6875 56 
Q 41.65625 56 45.828125 52.96875 
Q 50 49.953125 52 44.1875 
z
" id="DejaVuSans-109"/>
       <path d="M 9.421875 54.6875 
L 18.40625 54.6875 
L 18.40625 0 
L 9.421875 0 
z
M 9.421875 75.984375 
L 18.40625 75.984375 
L 18.40625 64.59375 
L 9.421875 64.59375 
z
" id="DejaVuSans-105"/>
       <path d="M 44.28125 53.078125 
L 44.28125 44.578125 
Q 40.484375 46.53125 36.375 47.5 
Q 32.28125 48.484375 27.875 48.484375 
Q 21.1875 48.484375 17.84375 46.4375 
Q 14.5 44.390625 14.5 40.28125 
Q 14.5 37.15625 16.890625 35.375 
Q 19.28125 33.59375 26.515625 31.984375 
L 29.59375 31.296875 
Q 39.15625 29.25 43.1875 25.515625 
Q 47.21875 21.78125 47.21875 15.09375 
Q 47.21875 7.46875 41.1875 3.015625 
Q 35.15625 -1.421875 24.609375 -1.421875 
Q 20.21875 -1.421875 15.453125 -0.5625 
Q 10.6875 0.296875 5.421875 2 
L 5.421875 11.28125 
Q 10.40625 8.6875 15.234375 7.390625 
Q 20.0625 6.109375 24.8125 6.109375 
Q 31.15625 6.109375 34.5625 8.28125 
Q 37.984375 10.453125 37.984375 14.40625 
Q 37.984375 18.0625 35.515625 20.015625 
Q 33.0625 21.96875 24.703125 23.78125 
L 21.578125 24.515625 
Q 13.234375 26.265625 9.515625 29.90625 
Q 5.8125 33.546875 5.8125 39.890625 
Q 5.8125 47.609375 11.28125 51.796875 
Q 16.75 56 26.8125 56 
Q 31.78125 56 36.171875 55.265625 
Q 40.578125 54.546875 44.28125 53.078125 
z
" id="DejaVuSans-115"/>
       <path d="M 30.609375 48.390625 
Q 23.390625 48.390625 19.1875 42.75 
Q 14.984375 37.109375 14.984375 27.296875 
Q 14.984375 17.484375 19.15625 11.84375 
Q 23.34375 6.203125 30.609375 6.203125 
Q 37.796875 6.203125 41.984375 11.859375 
Q 46.1875 17.53125 46.1875 27.296875 
Q 46.1875 37.015625 41.984375 42.703125 
Q 37.796875 48.390625 30.609375 48.390625 
z
M 30.609375 56 
Q 42.328125 56 49.015625 48.375 
Q 55.71875 40.765625 55.71875 27.296875 
Q 55.71875 13.875 49.015625 6.21875 
Q 42.328125 -1.421875 30.609375 -1.421875 
Q 18.84375 -1.421875 12.171875 6.21875 
Q 5.515625 13.875 5.515625 27.296875 
Q 5.515625 40.765625 12.171875 48.375 
Q 18.84375 56 30.609375 56 
z
" id="DejaVuSans-111"/>
       <path d="M 54.890625 33.015625 
L 54.890625 0 
L 45.90625 0 
L 45.90625 32.71875 
Q 45.90625 40.484375 42.875 44.328125 
Q 39.84375 48.1875 33.796875 48.1875 
Q 26.515625 48.1875 22.3125 43.546875 
Q 18.109375 38.921875 18.109375 30.90625 
L 18.109375 0 
L 9.078125 0 
L 9.078125 54.6875 
L 18.109375 54.6875 
L 18.109375 46.1875 
Q 21.34375 51.125 25.703125 53.5625 
Q 30.078125 56 35.796875 56 
Q 45.21875 56 50.046875 50.171875 
Q 54.890625 44.34375 54.890625 33.015625 
z
" id="DejaVuSans-110"/>
       <path d="M 18.109375 8.203125 
L 18.109375 -20.796875 
L 9.078125 -20.796875 
L 9.078125 54.6875 
L 18.109375 54.6875 
L 18.109375 46.390625 
Q 20.953125 51.265625 25.265625 53.625 
Q 29.59375 56 35.59375 56 
Q 45.5625 56 51.78125 48.09375 
Q 58.015625 40.1875 58.015625 27.296875 
Q 58.015625 14.40625 51.78125 6.484375 
Q 45.5625 -1.421875 35.59375 -1.421875 
Q 29.59375 -1.421875 25.265625 0.953125 
Q 20.953125 3.328125 18.109375 8.203125 
z
M 48.6875 27.296875 
Q 48.6875 37.203125 44.609375 42.84375 
Q 40.53125 48.484375 33.40625 48.484375 
Q 26.265625 48.484375 22.1875 42.84375 
Q 18.109375 37.203125 18.109375 27.296875 
Q 18.109375 17.390625 22.1875 11.75 
Q 26.265625 6.109375 33.40625 6.109375 
Q 40.53125 6.109375 44.609375 11.75 
Q 48.6875 17.390625 48.6875 27.296875 
z
" id="DejaVuSans-112"/>
       <path d="M 41.109375 46.296875 
Q 39.59375 47.171875 37.8125 47.578125 
Q 36.03125 48 33.890625 48 
Q 26.265625 48 22.1875 43.046875 
Q 18.109375 38.09375 18.109375 28.8125 
L 18.109375 0 
L 9.078125 0 
L 9.078125 54.6875 
L 18.109375 54.6875 
L 18.109375 46.1875 
Q 20.953125 51.171875 25.484375 53.578125 
Q 30.03125 56 36.53125 56 
Q 37.453125 56 38.578125 55.875 
Q 39.703125 55.765625 41.0625 55.515625 
z
" id="DejaVuSans-114"/>
       <path d="M 9.421875 75.984375 
L 18.40625 75.984375 
L 18.40625 0 
L 9.421875 0 
z
" id="DejaVuSans-108"/>
       <path d="M 8.5 21.578125 
L 8.5 54.6875 
L 17.484375 54.6875 
L 17.484375 21.921875 
Q 17.484375 14.15625 20.5 10.265625 
Q 23.53125 6.390625 29.59375 6.390625 
Q 36.859375 6.390625 41.078125 11.03125 
Q 45.3125 15.671875 45.3125 23.6875 
L 45.3125 54.6875 
L 54.296875 54.6875 
L 54.296875 0 
L 45.3125 0 
L 45.3125 8.40625 
Q 42.046875 3.421875 37.71875 1 
Q 33.40625 -1.421875 27.6875 -1.421875 
Q 18.265625 -1.421875 13.375 4.4375 
Q 8.5 10.296875 8.5 21.578125 
z
M 31.109375 56 
z
" id="DejaVuSans-117"/>
      </defs>
      <use xlink:href="#DejaVuSans-78"/>
      <use x="74.804688" xlink:href="#DejaVuSans-101"/>
      <use x="136.328125" xlink:href="#DejaVuSans-119"/>
      <use x="218.115234" xlink:href="#DejaVuSans-32"/>
      <use x="249.902344" xlink:href="#DejaVuSans-97"/>
      <use x="311.181641" xlink:href="#DejaVuSans-100"/>
      <use x="374.658203" xlink:href="#DejaVuSans-109"/>
      <use x="472.070312" xlink:href="#DejaVuSans-105"/>
      <use x="499.853516" xlink:href="#DejaVuSans-115"/>
      <use x="551.953125" xlink:href="#DejaVuSans-115"/>
      <use x="604.052734" xlink:href="#DejaVuSans-105"/>
      <use x="631.835938" xlink:href="#DejaVuSans-111"/>
      <use x="693.017578" xlink:href="#DejaVuSans-110"/>
      <use x="756.396484" xlink:href="#DejaVuSans-115"/>
      <use x="808.496094" xlink:href="#DejaVuSans-32"/>
      <use x="840.283203" xlink:href="#DejaVuSans-112"/>
      <use x="903.759766" xlink:href="#DejaVuSans-101"/>
      <use x="965.283203" xlink:href="#DejaVuSans-114"/>
      <use x="1006.396484" xlink:href="#DejaVuSans-32"/>
      <use x="1038.183594" xlink:href="#DejaVuSans-109"/>
      <use x="1135.595703" xlink:href="#DejaVuSans-105"/>
      <use x="1163.378906" xlink:href="#DejaVuSans-108"/>
      <use x="1191.162109" xlink:href="#DejaVuSans-108"/>
      <use x="1218.945312" xlink:href="#DejaVuSans-105"/>
      <use x="1246.728516" xlink:href="#DejaVuSans-111"/>
      <use x="1307.910156" xlink:href="#DejaVuSans-110"/>
      <use x="1371.289062" xlink:href="#DejaVuSans-32"/>
      <use x="1403.076172" xlink:href="#DejaVuSans-112"/>
      <use x="1466.552734" xlink:href="#DejaVuSans-111"/>
      <use x="1527.734375" xlink:href="#DejaVuSans-112"/>
      <use x="1591.210938" xlink:href="#DejaVuSans-117"/>
      <use x="1654.589844" xlink:href="#DejaVuSans-108"/>
      <use x="1682.373047" xlink:href="#DejaVuSans-97"/>
      <use x="1743.652344" xlink:href="#DejaVuSans-116"/>
      <use x="1782.861328" xlink:href="#DejaVuSans-105"/>
      <use x="1810.644531" xlink:href="#DejaVuSans-111"/>
      <use x="1871.826172" xlink:href="#DejaVuSans-110"/>
     </g>
    </g>
   </g>
   <g id="line2d_14">
    <path clip-path="url(#pd7979deccd)" d="M 61.670455 206.792522 
L 63.07377 204.082923 
L 64.477086 203.179723 
L 65.880402 203.308751 
L 67.283718 201.45074 
L 68.687034 200.341094 
L 70.09035 197.66836 
L 71.493666 194.516376 
L 72.896982 191.087903 
L 74.300298 186.276981 
L 77.10693 178.756459 
L 78.510246 175.327986 
L 79.913562 174.332623 
L 81.316878 170.682958 
L 82.720194 169.687594 
L 84.12351 171.457129 
L 85.526826 170.185276 
L 86.930142 169.300509 
L 88.333458 167.64157 
L 89.736773 166.425015 
L 91.140089 168.139252 
L 92.543405 167.696868 
L 93.946721 166.093227 
L 95.350037 166.148525 
L 96.753353 167.862762 
L 98.156669 170.406468 
L 99.559985 171.623023 
L 100.963301 171.788917 
L 102.366617 173.392557 
L 103.769933 175.383284 
L 105.173249 178.314075 
L 106.576565 180.304802 
L 107.979881 181.244867 
L 109.383197 182.79321 
L 110.786513 184.67334 
L 112.189829 185.22632 
L 113.593145 186.940556 
L 114.996461 188.323005 
L 116.399776 188.765389 
L 117.803092 189.760752 
L 119.206408 191.640883 
L 120.609724 192.415054 
L 122.01304 194.073993 
L 123.416356 193.631609 
L 124.819672 192.470352 
L 126.222988 192.083266 
L 127.626304 193.299821 
L 129.02962 192.857438 
L 130.432936 193.797503 
L 131.836252 194.295185 
L 133.239568 195.567037 
L 134.642884 197.281274 
L 136.0462 198.276637 
L 137.449516 198.884915 
L 138.852832 199.216703 
L 140.256148 200.10147 
L 141.659463 200.267364 
L 143.062779 199.82498 
L 144.466095 200.599151 
L 145.869411 201.152131 
L 147.272727 200.37796 
L 148.676043 200.212066 
L 150.079359 199.327298 
L 151.482675 199.935576 
L 152.885991 201.318025 
L 154.289307 201.539217 
L 155.692623 202.202792 
L 157.095939 203.032261 
L 158.499255 204.138221 
L 159.902571 204.41471 
L 161.305887 205.188882 
L 162.709203 205.022988 
L 164.112519 205.022988 
L 165.515835 204.470008 
L 166.919151 204.193518 
L 168.322466 204.304114 
L 169.725782 206.073649 
L 171.129098 205.797159 
L 173.93573 206.018351 
L 175.339046 208.174971 
L 176.742362 209.55742 
L 179.548994 210.608081 
L 180.95231 212.045828 
L 183.758942 213.870661 
L 185.162258 213.760065 
L 186.565574 214.091852 
L 187.96889 214.810726 
L 190.775522 214.202448 
L 192.178838 214.589534 
L 193.582154 214.70013 
L 194.985469 215.142514 
L 200.598733 215.529599 
L 203.405365 214.866024 
L 204.808681 214.534236 
L 206.211997 214.42364 
L 207.615313 214.644832 
L 209.018629 215.197812 
L 210.421945 215.308407 
L 211.825261 215.640195 
L 214.631893 216.082579 
L 216.035209 216.524962 
L 217.438525 216.690856 
L 220.245156 216.469665 
L 221.648472 216.469665 
L 223.051788 216.635558 
L 227.261736 216.082579 
L 228.665052 216.193175 
L 230.068368 216.137877 
L 231.471684 216.359069 
L 232.875 216.359069 
L 237.084948 216.912048 
L 238.488264 216.967346 
L 239.89158 217.354432 
L 244.101528 216.912048 
L 249.714791 216.635558 
L 251.118107 216.85675 
L 252.521423 216.801452 
L 253.924739 216.912048 
L 255.328055 216.801452 
L 256.731371 216.912048 
L 260.941319 216.801452 
L 262.344635 217.022644 
L 267.957899 217.077942 
L 270.764531 217.188538 
L 272.167846 217.077942 
L 273.571162 217.13324 
L 274.974478 216.967346 
L 276.377794 216.967346 
L 279.184426 216.524962 
L 284.79769 216.85675 
L 289.007638 217.465028 
L 291.81427 217.40973 
L 294.620902 217.520326 
L 296.024218 217.299134 
L 301.637481 217.40973 
L 305.847429 217.077942 
L 307.250745 216.746154 
L 310.057377 216.635558 
L 311.460693 216.58026 
L 314.267325 216.746154 
L 315.670641 216.746154 
L 317.073957 216.912048 
L 318.477273 216.85675 
L 324.090537 215.584897 
L 325.493852 215.529599 
L 328.300484 215.031918 
L 331.107116 215.363705 
L 332.510432 215.584897 
L 336.72038 215.363705 
L 339.527012 214.755428 
L 340.930328 214.14715 
L 342.333644 213.262383 
L 343.73696 212.598808 
L 345.140276 211.71404 
L 346.543592 210.497485 
L 349.350224 209.55742 
L 350.753539 208.506759 
L 352.156855 207.843184 
L 353.560171 207.732588 
L 354.963487 206.350139 
L 357.770119 206.516033 
L 359.173435 205.465371 
L 360.576751 205.465371 
L 363.383383 203.253453 
L 366.190015 202.976963 
L 367.593331 202.202792 
L 368.996647 201.705111 
L 370.399963 200.046172 
L 371.803279 198.055445 
L 374.609911 195.788229 
L 376.013227 193.963397 
L 377.416542 191.530287 
L 378.819858 188.599495 
L 380.223174 187.93592 
L 381.62649 187.770026 
L 383.029806 186.498173 
L 385.836438 182.682614 
L 387.239754 181.410761 
L 388.64307 180.802483 
L 390.046386 178.867055 
L 391.449702 177.871692 
L 392.853018 178.258777 
L 394.256334 176.433945 
L 395.65965 172.839578 
L 397.062966 171.401831 
L 398.466282 171.678321 
L 399.869598 171.180639 
L 401.272914 171.401831 
L 402.67623 168.747529 
L 404.079545 169.189913 
L 404.079545 169.189913 
" style="fill:none;stroke:#1f77b4;stroke-linecap:square;stroke-width:1.5;"/>
   </g>
   <g id="line2d_15">
    <path clip-path="url(#pd7979deccd)" d="M 61.670455 198.280609 
L 63.07377 191.290281 
L 64.477086 189.851095 
L 65.880402 187.024124 
L 67.283718 184.670028 
L 68.687034 178.954407 
L 70.09035 172.140305 
L 72.896982 157.454741 
L 74.300298 151.609886 
L 75.703614 143.12163 
L 77.10693 132.166199 
L 78.510246 124.38285 
L 79.913562 113.985471 
L 81.316878 107.347596 
L 82.720194 105.967153 
L 84.12351 99.828587 
L 85.526826 99.593618 
L 86.930142 103.764318 
L 88.333458 105.585328 
L 89.736773 112.634399 
L 91.140089 118.743594 
L 92.543405 120.858315 
L 93.946721 127.437448 
L 95.350037 132.900477 
L 96.753353 136.013817 
L 98.156669 141.095022 
L 99.559985 149.730134 
L 102.366617 154.987566 
L 103.769933 158.100906 
L 105.173249 158.74707 
L 106.576565 160.30374 
L 107.979881 163.240853 
L 109.383197 163.94576 
L 110.786513 165.76677 
L 112.189829 168.322058 
L 113.593145 169.555646 
L 116.399776 173.814459 
L 117.803092 174.959933 
L 119.206408 174.813078 
L 120.609724 175.253644 
L 122.01304 175.4005 
L 123.416356 176.457861 
L 124.819672 178.2495 
L 126.222988 177.250881 
L 127.626304 178.308242 
L 129.02962 178.954407 
L 131.836252 181.333468 
L 133.239568 181.098499 
L 134.642884 181.832777 
L 136.0462 184.035612 
L 137.449516 184.740519 
L 138.852832 186.297189 
L 140.256148 187.002096 
L 141.659463 186.561529 
L 143.062779 187.031467 
L 144.466095 186.209075 
L 145.869411 186.532158 
L 147.272727 186.620271 
L 148.676043 186.5909 
L 150.079359 186.884611 
L 151.482675 188.41191 
L 152.885991 189.293044 
L 155.692623 192.935064 
L 157.095939 194.080538 
L 159.902571 195.314125 
L 161.305887 195.549094 
L 162.709203 195.460981 
L 164.112519 195.108527 
L 165.515835 195.049785 
L 166.919151 194.814816 
L 168.322466 195.226012 
L 169.725782 195.813434 
L 171.129098 197.047022 
L 172.532414 198.956145 
L 173.93573 200.042877 
L 175.339046 200.277846 
L 176.742362 200.953382 
L 178.145678 201.15898 
L 179.548994 201.68766 
L 180.95231 201.717031 
L 182.355626 201.070866 
L 183.758942 200.865268 
L 185.162258 201.100237 
L 186.565574 202.010742 
L 187.96889 203.156216 
L 189.372206 203.449928 
L 190.775522 203.890495 
L 192.178838 204.801 
L 193.582154 205.124082 
L 194.985469 205.799618 
L 197.792101 206.504525 
L 199.195417 207.297545 
L 200.598733 207.121319 
L 202.002049 207.121319 
L 203.405365 208.061195 
L 207.615313 209.294782 
L 209.018629 209.529751 
L 211.825261 210.880823 
L 213.228577 210.998308 
L 214.631893 211.292019 
L 217.438525 212.173153 
L 218.841841 212.34938 
L 220.245156 212.966173 
L 221.648472 213.083658 
L 223.051788 213.40674 
L 225.85842 213.788565 
L 227.261736 214.170389 
L 228.665052 214.43473 
L 234.278316 214.96341 
L 237.084948 215.080894 
L 241.294896 214.640328 
L 242.698212 214.610956 
L 244.101528 215.022152 
L 245.504844 215.169008 
L 246.908159 215.139637 
L 249.714791 215.462719 
L 252.521423 215.785802 
L 253.924739 215.638946 
L 255.328055 215.844544 
L 256.731371 215.903286 
L 259.538003 216.285111 
L 262.344635 215.962028 
L 263.747951 216.226368 
L 265.151267 216.285111 
L 266.554583 216.461337 
L 269.361215 215.991399 
L 270.764531 215.903286 
L 272.167846 215.932657 
L 274.974478 215.374606 
L 276.377794 215.286492 
L 284.79769 215.991399 
L 287.604322 215.873915 
L 289.007638 216.108884 
L 290.410954 216.020771 
L 291.81427 216.050142 
L 293.217586 215.844544 
L 294.620902 215.903286 
L 296.024218 215.844544 
L 297.427534 216.020771 
L 300.234165 215.22775 
L 301.637481 214.904668 
L 303.040797 214.757812 
L 305.847429 213.729823 
L 307.250745 213.054287 
L 308.654061 212.643091 
L 310.057377 212.701833 
L 311.460693 212.34938 
L 312.864009 211.879441 
L 318.477273 211.145163 
L 319.880589 210.52837 
L 321.283905 210.175916 
L 322.687221 210.352143 
L 324.090537 209.529751 
L 325.493852 209.001071 
L 328.300484 207.67937 
L 329.7038 207.41503 
L 331.107116 207.268174 
L 332.510432 206.445783 
L 333.913748 206.62201 
L 336.72038 206.475154 
L 338.123696 206.298927 
L 339.527012 206.269556 
L 340.930328 205.682133 
L 342.333644 204.536659 
L 345.140276 203.156216 
L 346.543592 202.715649 
L 347.946908 202.128227 
L 349.350224 201.393949 
L 350.753539 200.424701 
L 352.156855 200.072248 
L 353.560171 197.634444 
L 354.963487 196.22463 
L 356.366803 194.198022 
L 357.770119 192.876321 
L 359.173435 191.995188 
L 361.980067 188.235683 
L 363.383383 186.85524 
L 364.786699 184.858003 
L 366.190015 182.390829 
L 367.593331 180.951643 
L 368.996647 179.013149 
L 370.399963 177.397737 
L 371.803279 174.313768 
L 373.206595 172.551501 
L 374.609911 171.611625 
L 377.416542 168.351429 
L 378.819858 166.119224 
L 380.223174 164.533183 
L 381.62649 164.356956 
L 383.029806 164.562554 
L 384.433122 162.535946 
L 385.836438 161.478585 
L 388.64307 158.688328 
L 390.046386 156.103669 
L 391.449702 152.784731 
L 394.256334 144.854527 
L 395.65965 143.562197 
L 397.062966 140.830682 
L 398.466282 139.47961 
L 399.869598 140.419486 
L 401.272914 140.595713 
L 402.67623 141.594331 
L 404.079545 143.239115 
L 404.079545 143.239115 
" style="fill:none;stroke:#ff7f0e;stroke-linecap:square;stroke-width:1.5;"/>
   </g>
   <g id="line2d_16">
    <path clip-path="url(#pd7979deccd)" d="M 61.670455 205.85737 
L 63.07377 206.490736 
L 64.477086 204.168392 
L 65.880402 203.260567 
L 67.283718 200.790437 
L 68.687034 196.610218 
L 70.09035 193.877694 
L 71.493666 188.521222 
L 74.300298 174.695735 
L 75.703614 168.000146 
L 77.10693 159.567323 
L 78.510246 154.64516 
L 79.913562 142.086406 
L 81.316878 133.870737 
L 82.720194 129.057152 
L 84.12351 127.754226 
L 85.526826 123.736873 
L 86.930142 121.420561 
L 88.333458 116.245051 
L 89.736773 122.759678 
L 91.140089 125.908415 
L 92.543405 127.862803 
L 93.946721 128.007573 
L 95.350037 130.034346 
L 96.753353 133.617391 
L 98.156669 138.684323 
L 99.559985 141.326366 
L 100.963301 143.534101 
L 102.366617 146.538068 
L 103.769933 148.673418 
L 105.173249 150.193498 
L 106.576565 151.170692 
L 107.979881 153.088888 
L 109.383197 153.342235 
L 110.786513 155.079469 
L 112.189829 155.549969 
L 113.593145 156.744318 
L 116.399776 158.083436 
L 117.803092 159.06063 
L 119.206408 159.6759 
L 120.609724 160.942633 
L 122.01304 163.33133 
L 123.416356 164.272332 
L 124.819672 166.480066 
L 129.02962 174.985274 
L 130.432936 175.745314 
L 131.836252 177.66351 
L 133.239568 178.640704 
L 134.642884 180.414131 
L 136.0462 181.644671 
L 137.449516 181.31894 
L 138.852832 181.17417 
L 140.256148 182.766635 
L 141.659463 182.585673 
L 143.062779 184.395292 
L 145.869411 187.688798 
L 147.272727 189.715571 
L 148.676043 191.525189 
L 150.079359 191.669959 
L 151.482675 192.538576 
L 152.885991 192.466191 
L 154.289307 192.828115 
L 155.692623 194.058656 
L 157.095939 194.565349 
L 158.499255 195.433966 
L 159.902571 197.207392 
L 161.305887 197.714085 
L 162.709203 198.510318 
L 164.112519 198.763664 
L 165.515835 198.618895 
L 166.919151 199.16178 
L 168.322466 200.211359 
L 169.725782 201.007591 
L 171.129098 201.079976 
L 172.532414 202.129555 
L 173.93573 203.541058 
L 175.339046 204.228713 
L 176.742362 204.554444 
L 178.145678 204.373482 
L 179.548994 204.626829 
L 180.95231 205.495446 
L 182.355626 205.821177 
L 183.758942 205.676408 
L 185.162258 205.784985 
L 186.565574 205.748792 
L 187.96889 205.893562 
L 189.372206 205.640215 
L 190.775522 206.074524 
L 192.178838 206.32787 
L 193.582154 207.051718 
L 194.985469 206.725987 
L 196.388785 207.377449 
L 197.792101 208.246066 
L 199.195417 208.825144 
L 203.405365 208.499413 
L 204.808681 209.729954 
L 206.211997 210.12807 
L 207.615313 210.200454 
L 210.421945 210.74334 
L 213.228577 211.539572 
L 216.035209 211.430995 
L 217.438525 211.50338 
L 218.841841 211.792919 
L 221.648472 211.973881 
L 223.051788 212.082458 
L 224.455104 212.046266 
L 227.261736 212.589151 
L 228.665052 212.697728 
L 230.068368 212.951075 
L 231.471684 213.530153 
L 232.875 213.276806 
L 235.681632 214.724501 
L 238.488264 215.520733 
L 239.89158 215.520733 
L 241.294896 215.375964 
L 242.698212 215.701695 
L 244.101528 215.375964 
L 245.504844 215.303579 
L 246.908159 215.412156 
L 248.311475 215.122617 
L 249.714791 215.267387 
L 252.521423 215.15881 
L 255.328055 214.507347 
L 262.344635 214.579732 
L 263.747951 215.122617 
L 265.151267 215.195002 
L 266.554583 214.941655 
L 267.957899 215.267387 
L 274.974478 215.846465 
L 276.377794 216.136004 
L 279.184426 215.91885 
L 280.587742 216.063619 
L 284.79769 215.991234 
L 286.201006 215.737888 
L 287.604322 215.701695 
L 289.007638 215.810272 
L 294.620902 215.448349 
L 297.427534 215.593118 
L 298.830849 215.375964 
L 303.040797 215.050233 
L 304.444113 214.652116 
L 305.847429 213.747307 
L 311.460693 210.924302 
L 314.267325 209.295645 
L 315.670641 209.042298 
L 317.073957 207.956527 
L 318.477273 206.725987 
L 319.880589 206.074524 
L 322.687221 203.179134 
L 324.090537 202.853403 
L 325.493852 201.116169 
L 326.897168 200.899014 
L 328.300484 200.899014 
L 329.7038 200.247552 
L 332.510432 199.994205 
L 333.913748 198.329356 
L 335.317064 198.148394 
L 336.72038 197.315969 
L 338.123696 196.013044 
L 339.527012 194.239617 
L 340.930328 192.285229 
L 342.333644 190.801342 
L 343.73696 188.738377 
L 345.140276 187.073527 
L 346.543592 185.73441 
L 347.946908 184.06956 
L 349.350224 183.056174 
L 352.156855 179.292167 
L 353.560171 178.495935 
L 354.963487 177.518741 
L 356.366803 175.383391 
L 357.770119 174.91289 
L 359.173435 172.560385 
L 360.576751 171.148883 
L 361.980067 169.375456 
L 363.383383 166.08195 
L 364.786699 162.317943 
L 366.190015 160.218786 
L 367.593331 156.78051 
L 368.996647 154.355621 
L 371.803279 147.044762 
L 373.206595 146.067567 
L 374.609911 142.955023 
L 376.013227 139.516748 
L 377.416542 139.227209 
L 378.819858 137.489975 
L 380.223174 136.476588 
L 381.62649 135.065086 
L 383.029806 132.857351 
L 384.433122 133.074505 
L 385.836438 132.784966 
L 387.239754 130.541039 
L 390.046386 129.672422 
L 391.449702 128.043765 
L 392.853018 124.352143 
L 394.256334 121.131022 
L 395.65965 120.515751 
L 397.062966 118.452786 
L 399.869598 117.222245 
L 401.272914 117.403207 
L 402.67623 122.072023 
L 404.079545 124.895029 
L 404.079545 124.895029 
" style="fill:none;stroke:#2ca02c;stroke-linecap:square;stroke-width:1.5;"/>
   </g>
   <g id="line2d_17">
    <path clip-path="url(#pd7979deccd)" d="M 61.670455 159.645511 
L 63.07377 155.754011 
L 64.477086 151.295001 
L 65.880402 147.606183 
L 67.283718 137.123456 
L 68.687034 124.784159 
L 71.493666 104.956041 
L 72.896982 92.20443 
L 74.300298 83.865502 
L 75.703614 72.156257 
L 77.10693 59.022446 
L 78.510246 58.744481 
L 79.913562 55.547892 
L 81.316878 44.568304 
L 82.720194 44.290339 
L 84.12351 37.966652 
L 85.526826 35.88192 
L 86.930142 40.746295 
L 88.333458 38.070889 
L 89.736773 38.870036 
L 91.140089 48.633531 
L 92.543405 52.664013 
L 93.946721 61.107178 
L 96.753353 84.560413 
L 98.156669 94.115435 
L 99.559985 105.650952 
L 102.366617 117.429688 
L 103.769933 124.622013 
L 105.173249 127.888093 
L 106.576565 131.640611 
L 107.979881 137.165151 
L 109.383197 143.662565 
L 110.786513 147.901521 
L 112.189829 154.398935 
L 113.593145 159.471783 
L 114.996461 163.050573 
L 116.399776 164.683613 
L 117.803092 166.073435 
L 119.206408 166.525127 
L 120.609724 169.409006 
L 122.01304 168.36664 
L 123.416356 167.914948 
L 124.819672 168.853077 
L 126.222988 171.841193 
L 127.626304 174.273381 
L 129.02962 174.134398 
L 130.432936 173.474233 
L 131.836252 177.018278 
L 133.239568 179.276737 
L 134.642884 181.847907 
L 136.0462 184.766532 
L 137.449516 188.171594 
L 138.852832 192.514786 
L 140.256148 196.37154 
L 141.659463 197.135942 
L 143.062779 198.039325 
L 144.466095 199.255419 
L 145.869411 199.846093 
L 147.272727 199.533383 
L 148.676043 200.228294 
L 150.079359 200.749477 
L 151.482675 200.749477 
L 152.885991 201.305406 
L 154.289307 201.652861 
L 157.095939 203.285901 
L 158.499255 203.355392 
L 159.902571 204.015557 
L 161.305887 204.918941 
L 162.709203 205.370633 
L 165.515835 205.370633 
L 166.919151 205.926562 
L 171.129098 205.961307 
L 175.339046 204.189285 
L 176.742362 204.745213 
L 179.548994 206.586727 
L 180.95231 207.281637 
L 182.355626 208.185021 
L 183.758942 209.366369 
L 185.162258 210.06128 
L 186.565574 209.331624 
L 189.372206 208.185021 
L 190.775522 207.594347 
L 192.178838 207.629093 
L 193.582154 207.524856 
L 196.388785 206.690963 
L 200.598733 207.246892 
L 202.002049 206.899437 
L 203.405365 207.142655 
L 206.211997 209.957043 
L 207.615313 209.887552 
L 210.421945 211.242628 
L 211.825261 211.69432 
L 213.228577 211.520593 
L 214.631893 211.173137 
L 216.035209 211.242628 
L 217.438525 212.041776 
L 218.841841 212.041776 
L 220.245156 211.833302 
L 221.648472 211.798557 
L 223.051788 212.041776 
L 224.455104 212.458722 
L 231.471684 213.779052 
L 232.875 214.091762 
L 234.278316 214.230744 
L 237.084948 214.890909 
L 238.488264 215.238365 
L 241.294896 215.342601 
L 242.698212 215.27311 
L 245.504844 215.551074 
L 246.908159 215.551074 
L 248.311475 215.863784 
L 249.714791 216.315476 
L 252.521423 216.280731 
L 253.924739 216.558695 
L 256.731371 216.59344 
L 260.941319 216.454458 
L 262.344635 216.454458 
L 263.747951 216.21124 
L 265.151267 215.759548 
L 266.554583 216.002766 
L 270.764531 215.829039 
L 272.167846 215.933275 
L 273.571162 216.176494 
L 274.974478 216.59344 
L 276.377794 216.523949 
L 280.587742 216.767168 
L 283.394374 216.59344 
L 284.79769 216.489204 
L 287.604322 216.59344 
L 290.410954 216.280731 
L 294.620902 216.454458 
L 296.024218 216.245985 
L 297.427534 215.89853 
L 298.830849 215.89853 
L 300.234165 215.307856 
L 301.637481 215.099382 
L 303.040797 215.134128 
L 308.654061 214.543454 
L 310.057377 214.682436 
L 311.460693 214.300235 
L 312.864009 213.396851 
L 314.267325 212.875668 
L 317.073957 212.284994 
L 318.477273 211.312119 
L 324.090537 209.574843 
L 325.493852 209.192642 
L 326.897168 208.532477 
L 329.7038 208.845186 
L 332.510432 209.922298 
L 333.913748 209.887552 
L 335.317064 210.06128 
L 338.123696 209.922298 
L 339.527012 209.574843 
L 340.930328 209.43586 
L 342.333644 208.775695 
L 343.73696 208.532477 
L 345.140276 208.011294 
L 346.543592 208.393494 
L 347.946908 207.768075 
L 349.350224 207.316383 
L 352.156855 205.752834 
L 354.963487 203.668102 
L 356.366803 202.313026 
L 357.770119 201.89608 
L 359.173435 200.64524 
L 360.576751 199.081691 
L 361.980067 198.352035 
L 363.383383 197.796107 
L 364.786699 196.475776 
L 366.190015 195.43341 
L 367.593331 193.41817 
L 370.399963 191.889366 
L 371.803279 189.630906 
L 373.206595 188.935996 
L 374.609911 189.005487 
L 376.013227 187.89363 
L 377.416542 187.858884 
L 378.819858 187.024991 
L 380.223174 186.469063 
L 381.62649 187.129228 
L 383.029806 187.337701 
L 384.433122 186.9555 
L 387.239754 188.58854 
L 388.64307 189.387688 
L 390.046386 188.831759 
L 391.449702 188.831759 
L 392.853018 187.302956 
L 394.256334 186.920755 
L 398.466282 183.480947 
L 401.272914 182.160617 
L 402.67623 181.986889 
L 404.079545 180.42334 
L 404.079545 180.42334 
" style="fill:none;stroke:#d62728;stroke-linecap:square;stroke-width:1.5;"/>
   </g>
   <g id="line2d_18">
    <path clip-path="url(#pd7979deccd)" d="M 61.670455 203.510001 
L 63.07377 202.120936 
L 65.880402 198.185254 
L 67.283718 196.842492 
L 68.687034 194.095231 
L 70.09035 189.266578 
L 71.493666 183.22525 
L 72.896982 176.037393 
L 74.300298 169.907871 
L 75.703614 164.836683 
L 77.10693 150.10819 
L 78.510246 140.406788 
L 79.913562 128.103645 
L 81.316878 117.079324 
L 82.720194 107.069241 
L 85.526826 90.797343 
L 86.930142 92.032067 
L 88.333458 90.576857 
L 89.736773 93.046305 
L 91.140089 91.150121 
L 92.543405 95.295266 
L 96.753353 106.672365 
L 98.156669 111.346678 
L 99.559985 118.534535 
L 100.963301 128.368229 
L 102.366617 131.851915 
L 103.769933 136.570324 
L 106.576565 143.537695 
L 107.979881 143.93457 
L 109.383197 145.389781 
L 110.786513 148.564785 
L 112.189829 151.298817 
L 113.593145 151.475206 
L 114.996461 152.930416 
L 116.399776 153.062708 
L 117.803092 155.973129 
L 119.206408 155.399864 
L 120.609724 153.988751 
L 122.01304 155.31167 
L 123.416356 156.017226 
L 124.819672 155.31167 
L 126.222988 156.810977 
L 127.626304 156.502296 
L 129.02962 159.545009 
L 130.432936 160.956122 
L 131.836252 161.485289 
L 133.239568 162.323138 
L 134.642884 164.131126 
L 136.0462 163.513764 
L 137.449516 164.175224 
L 138.852832 162.9405 
L 141.659463 164.439807 
L 144.466095 163.381473 
L 145.869411 164.792586 
L 147.272727 165.36585 
L 148.676043 166.909255 
L 150.079359 166.865158 
L 151.482675 166.556477 
L 152.885991 168.893633 
L 154.289307 170.701622 
L 155.692623 172.906486 
L 157.095939 175.59642 
L 158.499255 175.728712 
L 159.902571 176.610658 
L 161.305887 178.330452 
L 162.709203 179.565176 
L 164.112519 179.65337 
L 165.515835 178.418646 
L 166.919151 178.021771 
L 168.322466 179.1683 
L 169.725782 180.094343 
L 171.129098 182.122818 
L 172.532414 183.930807 
L 173.93573 186.576644 
L 175.339046 190.148524 
L 176.742362 191.162761 
L 178.145678 191.559637 
L 179.548994 192.573874 
L 180.95231 191.824221 
L 182.355626 191.51554 
L 183.758942 190.898178 
L 185.162258 190.457205 
L 186.565574 191.118664 
L 187.96889 192.706166 
L 189.372206 194.029085 
L 190.775522 195.57249 
L 193.582154 197.99784 
L 194.985469 198.394716 
L 196.388785 199.761732 
L 197.792101 200.026315 
L 199.195417 200.820067 
L 200.598733 200.996456 
L 202.002049 200.379094 
L 203.405365 201.040553 
L 206.211997 203.818682 
L 207.615313 205.758962 
L 209.018629 207.346465 
L 210.421945 208.360702 
L 211.825261 209.639523 
L 214.631893 211.050636 
L 217.438525 211.579804 
L 218.841841 211.271123 
L 220.245156 212.197166 
L 221.648472 212.505847 
L 223.051788 213.167306 
L 224.455104 213.255501 
L 225.85842 213.123209 
L 227.261736 213.167306 
L 228.665052 213.343695 
L 230.068368 213.299598 
L 231.471684 213.387792 
L 232.875 213.167306 
L 235.681632 212.505847 
L 237.084948 212.373555 
L 238.488264 212.064874 
L 239.89158 211.535707 
L 242.698212 211.491609 
L 244.101528 212.108971 
L 246.908159 213.035014 
L 248.311475 213.299598 
L 249.714791 213.740571 
L 252.521423 213.784668 
L 253.924739 213.475987 
L 255.328055 213.696473 
L 256.731371 213.696473 
L 258.134687 214.049252 
L 259.538003 213.828765 
L 260.941319 212.505847 
L 262.344635 212.594041 
L 263.747951 212.94682 
L 265.151267 212.858625 
L 267.957899 213.035014 
L 269.361215 213.475987 
L 270.764531 215.107587 
L 272.167846 215.416268 
L 274.974478 215.636754 
L 276.377794 215.063489 
L 277.78111 215.328073 
L 279.184426 215.063489 
L 280.587742 215.195781 
L 281.991058 214.931197 
L 284.79769 215.019392 
L 286.201006 215.460365 
L 287.604322 214.710711 
L 289.007638 214.754808 
L 290.410954 214.137446 
L 291.81427 214.049252 
L 293.217586 213.828765 
L 296.024218 213.035014 
L 298.830849 212.94682 
L 300.234165 212.505847 
L 301.637481 211.535707 
L 303.040797 210.786053 
L 305.847429 210.433274 
L 307.250745 209.551329 
L 308.654061 208.360702 
L 311.460693 206.640908 
L 312.864009 205.935351 
L 314.267325 204.083266 
L 315.670641 202.848542 
L 317.073957 202.187082 
L 318.477273 202.054791 
L 319.880589 201.790207 
L 321.283905 201.128748 
L 322.687221 199.14437 
L 324.090537 198.350619 
L 325.493852 196.454435 
L 326.897168 195.484295 
L 328.300484 194.293669 
L 329.7038 193.676307 
L 331.107116 193.367626 
L 332.510432 192.573874 
L 335.317064 192.309291 
L 338.123696 187.94366 
L 339.527012 185.121433 
L 340.930328 179.1683 
L 342.333644 177.801284 
L 343.73696 173.259264 
L 345.140276 171.318984 
L 346.543592 169.114119 
L 347.946908 166.556477 
L 349.350224 164.483905 
L 350.753539 164.439807 
L 352.156855 160.956122 
L 353.560171 158.354382 
L 356.366803 151.387011 
L 357.770119 150.681455 
L 359.173435 146.492213 
L 360.576751 143.537695 
L 361.980067 143.096722 
L 363.383383 143.229014 
L 364.786699 141.950193 
L 366.190015 142.611652 
L 367.593331 139.127966 
L 368.996647 138.863383 
L 371.803279 133.439417 
L 374.609911 127.089408 
L 376.013227 122.811971 
L 377.416542 123.64982 
L 378.819858 123.561625 
L 380.223174 125.413711 
L 381.62649 125.678295 
L 383.029806 127.309894 
L 384.433122 127.794964 
L 385.836438 131.896012 
L 387.239754 134.056779 
L 388.64307 135.159211 
L 390.046386 134.938724 
L 391.449702 136.085254 
L 392.853018 135.203308 
L 394.256334 135.115114 
L 395.65965 132.513374 
L 397.062966 131.27865 
L 398.466282 132.645666 
L 399.869598 135.556086 
L 401.272914 134.453654 
L 402.67623 135.291503 
L 404.079545 138.157826 
L 404.079545 138.157826 
" style="fill:none;stroke:#9467bd;stroke-linecap:square;stroke-width:1.5;"/>
   </g>
   <g id="line2d_19">
    <path clip-path="url(#pd7979deccd)" d="M 61.670455 210.339413 
L 63.07377 210.339413 
L 64.477086 208.781437 
L 65.880402 207.000893 
L 67.283718 206.132878 
L 68.687034 202.215682 
L 70.09035 200.848479 
L 71.493666 194.31452 
L 72.896982 190.928307 
L 74.300298 186.779005 
L 75.703614 179.529648 
L 77.10693 174.664949 
L 78.510246 172.757223 
L 79.913562 168.417148 
L 81.316878 167.272513 
L 82.720194 162.598586 
L 84.12351 160.738554 
L 85.526826 159.832384 
L 86.930142 155.873854 
L 88.333458 155.015378 
L 89.736773 152.535335 
L 91.140089 152.15379 
L 92.543405 151.056848 
L 93.946721 150.961461 
L 95.350037 154.58614 
L 96.753353 155.396923 
L 98.156669 154.299981 
L 99.559985 159.355453 
L 102.366617 165.078629 
L 103.769933 163.838607 
L 105.173249 163.647835 
L 106.576565 167.844831 
L 107.979881 169.704863 
L 109.383197 169.371011 
L 110.786513 169.609477 
L 112.189829 170.229487 
L 113.593145 173.234155 
L 116.399776 173.186462 
L 119.206408 169.704863 
L 120.609724 166.366344 
L 122.01304 167.034047 
L 123.416356 167.844831 
L 124.819672 166.938661 
L 126.222988 167.797138 
L 127.626304 172.280292 
L 129.02962 173.663393 
L 130.432936 177.57423 
L 131.836252 180.292739 
L 133.239568 180.76967 
L 134.642884 185.348211 
L 136.0462 186.349767 
L 137.449516 185.109745 
L 138.852832 187.780561 
L 140.256148 189.115968 
L 141.659463 188.066719 
L 143.062779 189.44982 
L 144.466095 188.782116 
L 145.869411 189.115968 
L 147.272727 190.546762 
L 148.676043 189.545206 
L 151.482675 190.689842 
L 155.692623 195.268383 
L 157.095939 195.316076 
L 158.499255 197.033028 
L 161.305887 199.369992 
L 162.709203 199.179219 
L 164.112519 200.276162 
L 165.515835 199.94231 
L 166.919151 201.134638 
L 168.322466 201.659262 
L 169.725782 201.420797 
L 171.129098 201.897728 
L 172.532414 202.517739 
L 173.93573 202.374659 
L 175.339046 203.805453 
L 176.742362 204.568544 
L 178.145678 204.902396 
L 180.95231 206.33319 
L 182.355626 206.237803 
L 183.758942 205.951644 
L 185.162258 204.568544 
L 186.565574 205.093168 
L 187.96889 204.902396 
L 190.775522 205.188554 
L 192.178838 205.808565 
L 194.985469 207.239359 
L 196.388785 207.811677 
L 197.792101 208.908619 
L 200.598733 208.527074 
L 202.002049 208.717846 
L 203.405365 209.337857 
L 204.808681 210.387106 
L 207.615313 210.434799 
L 209.018629 211.388662 
L 210.421945 212.485604 
L 211.825261 212.390218 
L 213.228577 211.674821 
L 214.631893 211.627127 
L 217.438525 211.913286 
L 218.841841 212.58099 
L 220.245156 212.58099 
L 221.648472 212.819456 
L 223.051788 213.439466 
L 225.85842 213.630239 
L 227.261736 213.48716 
L 228.665052 213.057921 
L 230.068368 213.010228 
L 232.875 213.439466 
L 235.681632 214.441022 
L 237.084948 214.727181 
L 238.488264 214.393329 
L 239.89158 214.297943 
L 241.294896 213.916398 
L 242.698212 213.868705 
L 244.101528 213.391773 
L 245.504844 213.296387 
L 246.908159 213.534853 
L 248.311475 214.297943 
L 249.714791 214.631795 
L 251.118107 215.299499 
L 252.521423 215.299499 
L 253.924739 215.824123 
L 258.134687 216.348748 
L 260.941319 215.919509 
L 262.344635 216.110282 
L 265.151267 215.967203 
L 266.554583 216.157975 
L 267.957899 216.062589 
L 274.974478 216.587213 
L 276.377794 216.444134 
L 279.184426 216.873372 
L 281.991058 216.968758 
L 283.394374 217.207224 
L 284.79769 217.016451 
L 289.007638 216.968758 
L 290.410954 216.825679 
L 293.217586 216.873372 
L 294.620902 217.159531 
L 297.427534 216.873372 
L 300.234165 216.873372 
L 301.637481 216.873372 
L 303.040797 216.634906 
L 304.444113 216.634906 
L 305.847429 216.777986 
L 307.250745 216.777986 
L 312.864009 215.919509 
L 314.267325 215.394885 
L 317.073957 215.204112 
L 318.477273 215.299499 
L 319.880589 215.633351 
L 321.283905 215.537964 
L 324.090537 215.824123 
L 325.493852 215.871816 
L 326.897168 215.537964 
L 328.300484 214.965647 
L 332.510432 213.868705 
L 333.913748 213.916398 
L 335.317064 213.391773 
L 336.72038 213.48716 
L 338.123696 213.34408 
L 339.527012 213.010228 
L 340.930328 212.962535 
L 342.333644 212.485604 
L 345.140276 212.485604 
L 346.543592 211.913286 
L 347.946908 211.913286 
L 349.350224 212.056366 
L 350.753539 211.531741 
L 352.156855 211.484048 
L 353.560171 210.482492 
L 354.963487 210.005561 
L 356.366803 209.147084 
L 357.770119 208.956312 
L 359.173435 207.954756 
L 360.576751 207.287052 
L 361.980067 206.380883 
L 363.383383 206.33319 
L 364.786699 205.236247 
L 366.190015 204.759316 
L 367.593331 203.185443 
L 368.996647 202.946977 
L 370.399963 201.945421 
L 371.803279 201.373104 
L 376.013227 198.845368 
L 377.416542 198.320743 
L 378.819858 197.653039 
L 380.223174 197.414574 
L 381.62649 197.414574 
L 383.029806 196.222245 
L 384.433122 195.316076 
L 385.836438 195.363769 
L 387.239754 195.649928 
L 390.046386 195.411462 
L 391.449702 193.122192 
L 392.853018 191.834477 
L 394.256334 191.11908 
L 395.65965 188.257492 
L 397.062966 187.208243 
L 398.466282 185.825142 
L 399.869598 183.96511 
L 401.272914 184.966666 
L 402.67623 185.109745 
L 404.079545 184.775893 
L 404.079545 184.775893 
" style="fill:none;stroke:#8c564b;stroke-linecap:square;stroke-width:1.5;"/>
   </g>
   <g id="line2d_20">
    <path clip-path="url(#pd7979deccd)" d="M 61.670455 192.785854 
L 63.07377 194.378175 
L 64.477086 194.827291 
L 65.880402 194.868119 
L 68.687034 192.908341 
L 71.493666 190.336131 
L 72.896982 185.436684 
L 74.300298 179.872311 
L 75.703614 173.608018 
L 77.10693 166.50382 
L 81.316878 148.340869 
L 84.12351 141.341659 
L 85.526826 141.201675 
L 86.930142 140.88671 
L 88.333458 138.856939 
L 89.736773 140.781722 
L 91.140089 142.04158 
L 92.543405 144.246331 
L 93.946721 148.200885 
L 95.350037 149.915692 
L 96.753353 153.380301 
L 98.156669 159.259637 
L 99.559985 159.994554 
L 100.963301 158.594712 
L 102.366617 158.909677 
L 103.769933 160.83446 
L 105.173249 161.849345 
L 106.576565 161.849345 
L 107.979881 161.394396 
L 109.383197 162.304294 
L 110.786513 167.378721 
L 112.189829 168.253622 
L 113.593145 168.673575 
L 114.996461 169.268508 
L 116.399776 170.248397 
L 117.803092 171.82322 
L 119.206408 172.033196 
L 120.609724 172.628129 
L 122.01304 175.462809 
L 123.416356 176.372706 
L 124.819672 177.702556 
L 126.222988 180.362256 
L 127.626304 181.83209 
L 129.02962 184.246818 
L 130.432936 186.241593 
L 131.836252 188.446344 
L 133.239568 190.056162 
L 134.642884 190.231143 
L 136.0462 190.581103 
L 137.449516 190.651095 
L 138.852832 191.630985 
L 140.256148 191.421008 
L 141.659463 191.630985 
L 143.062779 192.505886 
L 144.466095 194.080708 
L 145.869411 194.395673 
L 147.272727 194.850621 
L 148.676043 194.570653 
L 150.079359 195.445554 
L 151.482675 195.690527 
L 152.885991 196.110479 
L 154.289307 196.670416 
L 157.095939 198.210242 
L 158.499255 199.435104 
L 159.902571 199.750069 
L 161.305887 200.205017 
L 162.709203 199.680076 
L 164.112519 200.79995 
L 165.515835 201.709847 
L 166.919151 201.394883 
L 168.322466 201.919824 
L 172.532414 204.404543 
L 173.93573 204.509532 
L 175.339046 205.13946 
L 176.742362 206.679287 
L 178.145678 207.869152 
L 179.548994 208.884038 
L 180.95231 209.373983 
L 182.355626 210.1089 
L 183.758942 210.003912 
L 185.162258 209.758939 
L 186.565574 209.828931 
L 187.96889 209.653951 
L 190.775522 209.933919 
L 192.178838 209.688947 
L 193.582154 210.353872 
L 196.388785 211.368758 
L 197.792101 211.403754 
L 199.195417 211.228773 
L 203.405365 211.578734 
L 204.808681 211.893698 
L 206.211997 211.543738 
L 207.615313 211.543738 
L 209.018629 211.78871 
L 210.421945 211.893698 
L 213.228577 212.558623 
L 214.631893 212.698607 
L 217.438525 213.258544 
L 218.841841 213.083564 
L 220.245156 213.188552 
L 223.051788 213.678497 
L 224.455104 213.468521 
L 225.85842 213.748489 
L 227.261736 213.888473 
L 228.665052 214.238434 
L 231.471684 214.483406 
L 232.875 214.308426 
L 234.278316 214.903359 
L 235.681632 215.183327 
L 238.488264 215.428299 
L 239.89158 215.358307 
L 242.698212 215.638276 
L 245.504844 215.288315 
L 248.311475 215.498292 
L 249.714791 215.638276 
L 251.118107 215.393303 
L 252.521423 215.533288 
L 253.924739 215.848252 
L 255.328055 215.95324 
L 256.731371 215.848252 
L 260.941319 216.443185 
L 263.747951 216.478181 
L 265.151267 216.688157 
L 266.554583 216.653161 
L 267.957899 216.373193 
L 269.361215 216.268205 
L 270.764531 216.408189 
L 274.974478 216.233209 
L 279.184426 216.898134 
L 286.201006 216.513177 
L 289.007638 216.058228 
L 290.410954 216.058228 
L 291.81427 216.268205 
L 294.620902 216.408189 
L 296.024218 216.233209 
L 297.427534 216.373193 
L 308.654061 215.743264 
L 312.864009 215.218323 
L 318.477273 215.568284 
L 319.880589 215.428299 
L 321.283905 215.533288 
L 324.090537 215.078339 
L 325.493852 214.693382 
L 328.300484 214.133446 
L 335.317064 214.44841 
L 336.72038 214.413414 
L 338.123696 214.62339 
L 339.527012 214.44841 
L 340.930328 214.028457 
L 343.73696 213.363532 
L 346.543592 211.998686 
L 347.946908 211.228773 
L 352.156855 209.968915 
L 353.560171 209.164006 
L 354.963487 209.268994 
L 356.366803 208.709058 
L 357.770119 208.744054 
L 359.173435 208.60407 
L 361.980067 207.659176 
L 363.383383 208.044133 
L 366.190015 206.224338 
L 367.593331 204.929484 
L 371.803279 201.674851 
L 373.206595 200.030037 
L 374.609911 199.4701 
L 376.013227 198.560203 
L 377.416542 198.070258 
L 378.819858 196.915388 
L 380.223174 196.180471 
L 381.62649 195.165586 
L 383.029806 195.270574 
L 384.433122 194.290685 
L 385.836438 192.995831 
L 387.239754 192.190921 
L 390.046386 188.65632 
L 391.449702 187.886407 
L 392.853018 186.871522 
L 395.65965 184.036842 
L 397.062966 184.386802 
L 398.466282 185.016731 
L 399.869598 185.261703 
L 401.272914 185.191711 
L 402.67623 184.106834 
L 404.079545 183.581893 
L 404.079545 183.581893 
" style="fill:none;stroke:#e377c2;stroke-linecap:square;stroke-width:1.5;"/>
   </g>
   <g id="line2d_21"/>
   <g id="line2d_22"/>
   <g id="line2d_23"/>
   <g id="line2d_24"/>
   <g id="line2d_25"/>
   <g id="line2d_26"/>
   <g id="line2d_27"/>
   <g id="patch_3">
    <path d="M 44.55 226.602246 
L 44.55 26.8 
" style="fill:none;stroke:#000000;stroke-linecap:square;stroke-linejoin:miter;stroke-width:0.8;"/>
   </g>
   <g id="patch_4">
    <path d="M 421.2 226.602246 
L 421.2 26.8 
" style="fill:none;stroke:#000000;stroke-linecap:square;stroke-linejoin:miter;stroke-width:0.8;"/>
   </g>
   <g id="patch_5">
    <path d="M 44.55 226.602246 
L 421.2 226.602246 
" style="fill:none;stroke:#000000;stroke-linecap:square;stroke-linejoin:miter;stroke-width:0.8;"/>
   </g>
   <g id="patch_6">
    <path d="M 44.55 26.8 
L 421.2 26.8 
" style="fill:none;stroke:#000000;stroke-linecap:square;stroke-linejoin:miter;stroke-width:0.8;"/>
   </g>
   <g id="text_16">
    <!-- New admissions per million people by NHS region (7 day rolling) -->
    <g transform="translate(39.615938 20.8)scale(0.12 -0.12)">
     <defs>
      <path d="M 48.6875 27.296875 
Q 48.6875 37.203125 44.609375 42.84375 
Q 40.53125 48.484375 33.40625 48.484375 
Q 26.265625 48.484375 22.1875 42.84375 
Q 18.109375 37.203125 18.109375 27.296875 
Q 18.109375 17.390625 22.1875 11.75 
Q 26.265625 6.109375 33.40625 6.109375 
Q 40.53125 6.109375 44.609375 11.75 
Q 48.6875 17.390625 48.6875 27.296875 
z
M 18.109375 46.390625 
Q 20.953125 51.265625 25.265625 53.625 
Q 29.59375 56 35.59375 56 
Q 45.5625 56 51.78125 48.09375 
Q 58.015625 40.1875 58.015625 27.296875 
Q 58.015625 14.40625 51.78125 6.484375 
Q 45.5625 -1.421875 35.59375 -1.421875 
Q 29.59375 -1.421875 25.265625 0.953125 
Q 20.953125 3.328125 18.109375 8.203125 
L 18.109375 0 
L 9.078125 0 
L 9.078125 75.984375 
L 18.109375 75.984375 
z
" id="DejaVuSans-98"/>
      <path d="M 32.171875 -5.078125 
Q 28.375 -14.84375 24.75 -17.8125 
Q 21.140625 -20.796875 15.09375 -20.796875 
L 7.90625 -20.796875 
L 7.90625 -13.28125 
L 13.1875 -13.28125 
Q 16.890625 -13.28125 18.9375 -11.515625 
Q 21 -9.765625 23.484375 -3.21875 
L 25.09375 0.875 
L 2.984375 54.6875 
L 12.5 54.6875 
L 29.59375 11.921875 
L 46.6875 54.6875 
L 56.203125 54.6875 
z
" id="DejaVuSans-121"/>
      <path d="M 9.8125 72.90625 
L 19.671875 72.90625 
L 19.671875 43.015625 
L 55.515625 43.015625 
L 55.515625 72.90625 
L 65.375 72.90625 
L 65.375 0 
L 55.515625 0 
L 55.515625 34.71875 
L 19.671875 34.71875 
L 19.671875 0 
L 9.8125 0 
z
" id="DejaVuSans-72"/>
      <path d="M 53.515625 70.515625 
L 53.515625 60.890625 
Q 47.90625 63.578125 42.921875 64.890625 
Q 37.9375 66.21875 33.296875 66.21875 
Q 25.25 66.21875 20.875 63.09375 
Q 16.5 59.96875 16.5 54.203125 
Q 16.5 49.359375 19.40625 46.890625 
Q 22.3125 44.4375 30.421875 42.921875 
L 36.375 41.703125 
Q 47.40625 39.59375 52.65625 34.296875 
Q 57.90625 29 57.90625 20.125 
Q 57.90625 9.515625 50.796875 4.046875 
Q 43.703125 -1.421875 29.984375 -1.421875 
Q 24.8125 -1.421875 18.96875 -0.25 
Q 13.140625 0.921875 6.890625 3.21875 
L 6.890625 13.375 
Q 12.890625 10.015625 18.65625 8.296875 
Q 24.421875 6.59375 29.984375 6.59375 
Q 38.421875 6.59375 43.015625 9.90625 
Q 47.609375 13.234375 47.609375 19.390625 
Q 47.609375 24.75 44.3125 27.78125 
Q 41.015625 30.8125 33.5 32.328125 
L 27.484375 33.5 
Q 16.453125 35.6875 11.515625 40.375 
Q 6.59375 45.0625 6.59375 53.421875 
Q 6.59375 63.09375 13.40625 68.65625 
Q 20.21875 74.21875 32.171875 74.21875 
Q 37.3125 74.21875 42.625 73.28125 
Q 47.953125 72.359375 53.515625 70.515625 
z
" id="DejaVuSans-83"/>
      <path d="M 45.40625 27.984375 
Q 45.40625 37.75 41.375 43.109375 
Q 37.359375 48.484375 30.078125 48.484375 
Q 22.859375 48.484375 18.828125 43.109375 
Q 14.796875 37.75 14.796875 27.984375 
Q 14.796875 18.265625 18.828125 12.890625 
Q 22.859375 7.515625 30.078125 7.515625 
Q 37.359375 7.515625 41.375 12.890625 
Q 45.40625 18.265625 45.40625 27.984375 
z
M 54.390625 6.78125 
Q 54.390625 -7.171875 48.1875 -13.984375 
Q 42 -20.796875 29.203125 -20.796875 
Q 24.46875 -20.796875 20.265625 -20.09375 
Q 16.0625 -19.390625 12.109375 -17.921875 
L 12.109375 -9.1875 
Q 16.0625 -11.328125 19.921875 -12.34375 
Q 23.78125 -13.375 27.78125 -13.375 
Q 36.625 -13.375 41.015625 -8.765625 
Q 45.40625 -4.15625 45.40625 5.171875 
L 45.40625 9.625 
Q 42.625 4.78125 38.28125 2.390625 
Q 33.9375 0 27.875 0 
Q 17.828125 0 11.671875 7.65625 
Q 5.515625 15.328125 5.515625 27.984375 
Q 5.515625 40.671875 11.671875 48.328125 
Q 17.828125 56 27.875 56 
Q 33.9375 56 38.28125 53.609375 
Q 42.625 51.21875 45.40625 46.390625 
L 45.40625 54.6875 
L 54.390625 54.6875 
z
" id="DejaVuSans-103"/>
      <path d="M 31 75.875 
Q 24.46875 64.65625 21.28125 53.65625 
Q 18.109375 42.671875 18.109375 31.390625 
Q 18.109375 20.125 21.3125 9.0625 
Q 24.515625 -2 31 -13.1875 
L 23.1875 -13.1875 
Q 15.875 -1.703125 12.234375 9.375 
Q 8.59375 20.453125 8.59375 31.390625 
Q 8.59375 42.28125 12.203125 53.3125 
Q 15.828125 64.359375 23.1875 75.875 
z
" id="DejaVuSans-40"/>
      <path d="M 8.015625 75.875 
L 15.828125 75.875 
Q 23.140625 64.359375 26.78125 53.3125 
Q 30.421875 42.28125 30.421875 31.390625 
Q 30.421875 20.453125 26.78125 9.375 
Q 23.140625 -1.703125 15.828125 -13.1875 
L 8.015625 -13.1875 
Q 14.5 -2 17.703125 9.0625 
Q 20.90625 20.125 20.90625 31.390625 
Q 20.90625 42.671875 17.703125 53.65625 
Q 14.5 64.65625 8.015625 75.875 
z
" id="DejaVuSans-41"/>
     </defs>
     <use xlink:href="#DejaVuSans-78"/>
     <use x="74.804688" xlink:href="#DejaVuSans-101"/>
     <use x="136.328125" xlink:href="#DejaVuSans-119"/>
     <use x="218.115234" xlink:href="#DejaVuSans-32"/>
     <use x="249.902344" xlink:href="#DejaVuSans-97"/>
     <use x="311.181641" xlink:href="#DejaVuSans-100"/>
     <use x="374.658203" xlink:href="#DejaVuSans-109"/>
     <use x="472.070312" xlink:href="#DejaVuSans-105"/>
     <use x="499.853516" xlink:href="#DejaVuSans-115"/>
     <use x="551.953125" xlink:href="#DejaVuSans-115"/>
     <use x="604.052734" xlink:href="#DejaVuSans-105"/>
     <use x="631.835938" xlink:href="#DejaVuSans-111"/>
     <use x="693.017578" xlink:href="#DejaVuSans-110"/>
     <use x="756.396484" xlink:href="#DejaVuSans-115"/>
     <use x="808.496094" xlink:href="#DejaVuSans-32"/>
     <use x="840.283203" xlink:href="#DejaVuSans-112"/>
     <use x="903.759766" xlink:href="#DejaVuSans-101"/>
     <use x="965.283203" xlink:href="#DejaVuSans-114"/>
     <use x="1006.396484" xlink:href="#DejaVuSans-32"/>
     <use x="1038.183594" xlink:href="#DejaVuSans-109"/>
     <use x="1135.595703" xlink:href="#DejaVuSans-105"/>
     <use x="1163.378906" xlink:href="#DejaVuSans-108"/>
     <use x="1191.162109" xlink:href="#DejaVuSans-108"/>
     <use x="1218.945312" xlink:href="#DejaVuSans-105"/>
     <use x="1246.728516" xlink:href="#DejaVuSans-111"/>
     <use x="1307.910156" xlink:href="#DejaVuSans-110"/>
     <use x="1371.289062" xlink:href="#DejaVuSans-32"/>
     <use x="1403.076172" xlink:href="#DejaVuSans-112"/>
     <use x="1466.552734" xlink:href="#DejaVuSans-101"/>
     <use x="1528.076172" xlink:href="#DejaVuSans-111"/>
     <use x="1589.257812" xlink:href="#DejaVuSans-112"/>
     <use x="1652.734375" xlink:href="#DejaVuSans-108"/>
     <use x="1680.517578" xlink:href="#DejaVuSans-101"/>
     <use x="1742.041016" xlink:href="#DejaVuSans-32"/>
     <use x="1773.828125" xlink:href="#DejaVuSans-98"/>
     <use x="1837.304688" xlink:href="#DejaVuSans-121"/>
     <use x="1896.484375" xlink:href="#DejaVuSans-32"/>
     <use x="1928.271484" xlink:href="#DejaVuSans-78"/>
     <use x="2003.076172" xlink:href="#DejaVuSans-72"/>
     <use x="2078.271484" xlink:href="#DejaVuSans-83"/>
     <use x="2141.748047" xlink:href="#DejaVuSans-32"/>
     <use x="2173.535156" xlink:href="#DejaVuSans-114"/>
     <use x="2212.398438" xlink:href="#DejaVuSans-101"/>
     <use x="2273.921875" xlink:href="#DejaVuSans-103"/>
     <use x="2337.398438" xlink:href="#DejaVuSans-105"/>
     <use x="2365.181641" xlink:href="#DejaVuSans-111"/>
     <use x="2426.363281" xlink:href="#DejaVuSans-110"/>
     <use x="2489.742188" xlink:href="#DejaVuSans-32"/>
     <use x="2521.529297" xlink:href="#DejaVuSans-40"/>
     <use x="2560.542969" xlink:href="#DejaVuSans-55"/>
     <use x="2624.166016" xlink:href="#DejaVuSans-32"/>
     <use x="2655.953125" xlink:href="#DejaVuSans-100"/>
     <use x="2719.429688" xlink:href="#DejaVuSans-97"/>
     <use x="2780.708984" xlink:href="#DejaVuSans-121"/>
     <use x="2839.888672" xlink:href="#DejaVuSans-32"/>
     <use x="2871.675781" xlink:href="#DejaVuSans-114"/>
     <use x="2910.539062" xlink:href="#DejaVuSans-111"/>
     <use x="2971.720703" xlink:href="#DejaVuSans-108"/>
     <use x="2999.503906" xlink:href="#DejaVuSans-108"/>
     <use x="3027.287109" xlink:href="#DejaVuSans-105"/>
     <use x="3055.070312" xlink:href="#DejaVuSans-110"/>
     <use x="3118.449219" xlink:href="#DejaVuSans-103"/>
     <use x="3181.925781" xlink:href="#DejaVuSans-41"/>
    </g>
   </g>
   <g id="legend_1">
    <g id="patch_7">
     <path d="M 155.344531 152.225 
L 310.405469 152.225 
Q 312.405469 152.225 312.405469 150.225 
L 312.405469 33.8 
Q 312.405469 31.8 310.405469 31.8 
L 155.344531 31.8 
Q 153.344531 31.8 153.344531 33.8 
L 153.344531 150.225 
Q 153.344531 152.225 155.344531 152.225 
z
" style="fill:#ffffff;opacity:0.8;stroke:#cccccc;stroke-linejoin:miter;"/>
    </g>
    <g id="text_17">
     <!-- NHS region -->
     <g transform="translate(204.8 43.398437)scale(0.1 -0.1)">
      <use xlink:href="#DejaVuSans-78"/>
      <use x="74.804688" xlink:href="#DejaVuSans-72"/>
      <use x="150" xlink:href="#DejaVuSans-83"/>
      <use x="213.476562" xlink:href="#DejaVuSans-32"/>
      <use x="245.263672" xlink:href="#DejaVuSans-114"/>
      <use x="284.126953" xlink:href="#DejaVuSans-101"/>
      <use x="345.650391" xlink:href="#DejaVuSans-103"/>
      <use x="409.126953" xlink:href="#DejaVuSans-105"/>
      <use x="436.910156" xlink:href="#DejaVuSans-111"/>
      <use x="498.091797" xlink:href="#DejaVuSans-110"/>
     </g>
    </g>
    <g id="line2d_28">
     <path d="M 157.344531 54.576562 
L 177.344531 54.576562 
" style="fill:none;stroke:#1f77b4;stroke-linecap:square;stroke-width:1.5;"/>
    </g>
    <g id="line2d_29"/>
    <g id="text_18">
     <!-- South West -->
     <g transform="translate(185.344531 58.076562)scale(0.1 -0.1)">
      <defs>
       <path d="M 54.890625 33.015625 
L 54.890625 0 
L 45.90625 0 
L 45.90625 32.71875 
Q 45.90625 40.484375 42.875 44.328125 
Q 39.84375 48.1875 33.796875 48.1875 
Q 26.515625 48.1875 22.3125 43.546875 
Q 18.109375 38.921875 18.109375 30.90625 
L 18.109375 0 
L 9.078125 0 
L 9.078125 75.984375 
L 18.109375 75.984375 
L 18.109375 46.1875 
Q 21.34375 51.125 25.703125 53.5625 
Q 30.078125 56 35.796875 56 
Q 45.21875 56 50.046875 50.171875 
Q 54.890625 44.34375 54.890625 33.015625 
z
" id="DejaVuSans-104"/>
       <path d="M 3.328125 72.90625 
L 13.28125 72.90625 
L 28.609375 11.28125 
L 43.890625 72.90625 
L 54.984375 72.90625 
L 70.3125 11.28125 
L 85.59375 72.90625 
L 95.609375 72.90625 
L 77.296875 0 
L 64.890625 0 
L 49.515625 63.28125 
L 33.984375 0 
L 21.578125 0 
z
" id="DejaVuSans-87"/>
      </defs>
      <use xlink:href="#DejaVuSans-83"/>
      <use x="63.476562" xlink:href="#DejaVuSans-111"/>
      <use x="124.658203" xlink:href="#DejaVuSans-117"/>
      <use x="188.037109" xlink:href="#DejaVuSans-116"/>
      <use x="227.246094" xlink:href="#DejaVuSans-104"/>
      <use x="290.625" xlink:href="#DejaVuSans-32"/>
      <use x="322.412109" xlink:href="#DejaVuSans-87"/>
      <use x="415.414062" xlink:href="#DejaVuSans-101"/>
      <use x="476.9375" xlink:href="#DejaVuSans-115"/>
      <use x="529.037109" xlink:href="#DejaVuSans-116"/>
     </g>
    </g>
    <g id="line2d_30">
     <path d="M 157.344531 69.254687 
L 177.344531 69.254687 
" style="fill:none;stroke:#ff7f0e;stroke-linecap:square;stroke-width:1.5;"/>
    </g>
    <g id="line2d_31"/>
    <g id="text_19">
     <!-- Midlands -->
     <g transform="translate(185.344531 72.754687)scale(0.1 -0.1)">
      <defs>
       <path d="M 9.8125 72.90625 
L 24.515625 72.90625 
L 43.109375 23.296875 
L 61.8125 72.90625 
L 76.515625 72.90625 
L 76.515625 0 
L 66.890625 0 
L 66.890625 64.015625 
L 48.09375 14.015625 
L 38.1875 14.015625 
L 19.390625 64.015625 
L 19.390625 0 
L 9.8125 0 
z
" id="DejaVuSans-77"/>
      </defs>
      <use xlink:href="#DejaVuSans-77"/>
      <use x="86.279297" xlink:href="#DejaVuSans-105"/>
      <use x="114.0625" xlink:href="#DejaVuSans-100"/>
      <use x="177.539062" xlink:href="#DejaVuSans-108"/>
      <use x="205.322266" xlink:href="#DejaVuSans-97"/>
      <use x="266.601562" xlink:href="#DejaVuSans-110"/>
      <use x="329.980469" xlink:href="#DejaVuSans-100"/>
      <use x="393.457031" xlink:href="#DejaVuSans-115"/>
     </g>
    </g>
    <g id="line2d_32">
     <path d="M 157.344531 83.932812 
L 177.344531 83.932812 
" style="fill:none;stroke:#2ca02c;stroke-linecap:square;stroke-width:1.5;"/>
    </g>
    <g id="line2d_33"/>
    <g id="text_20">
     <!-- North East and Yorkshire -->
     <g transform="translate(185.344531 87.432812)scale(0.1 -0.1)">
      <defs>
       <path d="M 9.8125 72.90625 
L 55.90625 72.90625 
L 55.90625 64.59375 
L 19.671875 64.59375 
L 19.671875 43.015625 
L 54.390625 43.015625 
L 54.390625 34.71875 
L 19.671875 34.71875 
L 19.671875 8.296875 
L 56.78125 8.296875 
L 56.78125 0 
L 9.8125 0 
z
" id="DejaVuSans-69"/>
       <path d="M -0.203125 72.90625 
L 10.40625 72.90625 
L 30.609375 42.921875 
L 50.6875 72.90625 
L 61.28125 72.90625 
L 35.5 34.71875 
L 35.5 0 
L 25.59375 0 
L 25.59375 34.71875 
z
" id="DejaVuSans-89"/>
       <path d="M 9.078125 75.984375 
L 18.109375 75.984375 
L 18.109375 31.109375 
L 44.921875 54.6875 
L 56.390625 54.6875 
L 27.390625 29.109375 
L 57.625 0 
L 45.90625 0 
L 18.109375 26.703125 
L 18.109375 0 
L 9.078125 0 
z
" id="DejaVuSans-107"/>
      </defs>
      <use xlink:href="#DejaVuSans-78"/>
      <use x="74.804688" xlink:href="#DejaVuSans-111"/>
      <use x="135.986328" xlink:href="#DejaVuSans-114"/>
      <use x="177.099609" xlink:href="#DejaVuSans-116"/>
      <use x="216.308594" xlink:href="#DejaVuSans-104"/>
      <use x="279.6875" xlink:href="#DejaVuSans-32"/>
      <use x="311.474609" xlink:href="#DejaVuSans-69"/>
      <use x="374.658203" xlink:href="#DejaVuSans-97"/>
      <use x="435.9375" xlink:href="#DejaVuSans-115"/>
      <use x="488.037109" xlink:href="#DejaVuSans-116"/>
      <use x="527.246094" xlink:href="#DejaVuSans-32"/>
      <use x="559.033203" xlink:href="#DejaVuSans-97"/>
      <use x="620.3125" xlink:href="#DejaVuSans-110"/>
      <use x="683.691406" xlink:href="#DejaVuSans-100"/>
      <use x="747.167969" xlink:href="#DejaVuSans-32"/>
      <use x="778.955078" xlink:href="#DejaVuSans-89"/>
      <use x="826.789062" xlink:href="#DejaVuSans-111"/>
      <use x="887.970703" xlink:href="#DejaVuSans-114"/>
      <use x="929.083984" xlink:href="#DejaVuSans-107"/>
      <use x="986.994141" xlink:href="#DejaVuSans-115"/>
      <use x="1039.09375" xlink:href="#DejaVuSans-104"/>
      <use x="1102.472656" xlink:href="#DejaVuSans-105"/>
      <use x="1130.255859" xlink:href="#DejaVuSans-114"/>
      <use x="1169.119141" xlink:href="#DejaVuSans-101"/>
     </g>
    </g>
    <g id="line2d_34">
     <path d="M 157.344531 98.610937 
L 177.344531 98.610937 
" style="fill:none;stroke:#d62728;stroke-linecap:square;stroke-width:1.5;"/>
    </g>
    <g id="line2d_35"/>
    <g id="text_21">
     <!-- London -->
     <g transform="translate(185.344531 102.110937)scale(0.1 -0.1)">
      <defs>
       <path d="M 9.8125 72.90625 
L 19.671875 72.90625 
L 19.671875 8.296875 
L 55.171875 8.296875 
L 55.171875 0 
L 9.8125 0 
z
" id="DejaVuSans-76"/>
      </defs>
      <use xlink:href="#DejaVuSans-76"/>
      <use x="53.962891" xlink:href="#DejaVuSans-111"/>
      <use x="115.144531" xlink:href="#DejaVuSans-110"/>
      <use x="178.523438" xlink:href="#DejaVuSans-100"/>
      <use x="242" xlink:href="#DejaVuSans-111"/>
      <use x="303.181641" xlink:href="#DejaVuSans-110"/>
     </g>
    </g>
    <g id="line2d_36">
     <path d="M 157.344531 113.289062 
L 177.344531 113.289062 
" style="fill:none;stroke:#9467bd;stroke-linecap:square;stroke-width:1.5;"/>
    </g>
    <g id="line2d_37"/>
    <g id="text_22">
     <!-- North West -->
     <g transform="translate(185.344531 116.789062)scale(0.1 -0.1)">
      <use xlink:href="#DejaVuSans-78"/>
      <use x="74.804688" xlink:href="#DejaVuSans-111"/>
      <use x="135.986328" xlink:href="#DejaVuSans-114"/>
      <use x="177.099609" xlink:href="#DejaVuSans-116"/>
      <use x="216.308594" xlink:href="#DejaVuSans-104"/>
      <use x="279.6875" xlink:href="#DejaVuSans-32"/>
      <use x="311.474609" xlink:href="#DejaVuSans-87"/>
      <use x="404.476562" xlink:href="#DejaVuSans-101"/>
      <use x="466" xlink:href="#DejaVuSans-115"/>
      <use x="518.099609" xlink:href="#DejaVuSans-116"/>
     </g>
    </g>
    <g id="line2d_38">
     <path d="M 157.344531 127.967187 
L 177.344531 127.967187 
" style="fill:none;stroke:#8c564b;stroke-linecap:square;stroke-width:1.5;"/>
    </g>
    <g id="line2d_39"/>
    <g id="text_23">
     <!-- East of England -->
     <g transform="translate(185.344531 131.467187)scale(0.1 -0.1)">
      <defs>
       <path d="M 37.109375 75.984375 
L 37.109375 68.5 
L 28.515625 68.5 
Q 23.6875 68.5 21.796875 66.546875 
Q 19.921875 64.59375 19.921875 59.515625 
L 19.921875 54.6875 
L 34.71875 54.6875 
L 34.71875 47.703125 
L 19.921875 47.703125 
L 19.921875 0 
L 10.890625 0 
L 10.890625 47.703125 
L 2.296875 47.703125 
L 2.296875 54.6875 
L 10.890625 54.6875 
L 10.890625 58.5 
Q 10.890625 67.625 15.140625 71.796875 
Q 19.390625 75.984375 28.609375 75.984375 
z
" id="DejaVuSans-102"/>
      </defs>
      <use xlink:href="#DejaVuSans-69"/>
      <use x="63.183594" xlink:href="#DejaVuSans-97"/>
      <use x="124.462891" xlink:href="#DejaVuSans-115"/>
      <use x="176.5625" xlink:href="#DejaVuSans-116"/>
      <use x="215.771484" xlink:href="#DejaVuSans-32"/>
      <use x="247.558594" xlink:href="#DejaVuSans-111"/>
      <use x="308.740234" xlink:href="#DejaVuSans-102"/>
      <use x="343.945312" xlink:href="#DejaVuSans-32"/>
      <use x="375.732422" xlink:href="#DejaVuSans-69"/>
      <use x="438.916016" xlink:href="#DejaVuSans-110"/>
      <use x="502.294922" xlink:href="#DejaVuSans-103"/>
      <use x="565.771484" xlink:href="#DejaVuSans-108"/>
      <use x="593.554688" xlink:href="#DejaVuSans-97"/>
      <use x="654.833984" xlink:href="#DejaVuSans-110"/>
      <use x="718.212891" xlink:href="#DejaVuSans-100"/>
     </g>
    </g>
    <g id="line2d_40">
     <path d="M 157.344531 142.645312 
L 177.344531 142.645312 
" style="fill:none;stroke:#e377c2;stroke-linecap:square;stroke-width:1.5;"/>
    </g>
    <g id="line2d_41"/>
    <g id="text_24">
     <!-- South East -->
     <g transform="translate(185.344531 146.145312)scale(0.1 -0.1)">
      <use xlink:href="#DejaVuSans-83"/>
      <use x="63.476562" xlink:href="#DejaVuSans-111"/>
      <use x="124.658203" xlink:href="#DejaVuSans-117"/>
      <use x="188.037109" xlink:href="#DejaVuSans-116"/>
      <use x="227.246094" xlink:href="#DejaVuSans-104"/>
      <use x="290.625" xlink:href="#DejaVuSans-32"/>
      <use x="322.412109" xlink:href="#DejaVuSans-69"/>
      <use x="385.595703" xlink:href="#DejaVuSans-97"/>
      <use x="446.875" xlink:href="#DejaVuSans-115"/>
      <use x="498.974609" xlink:href="#DejaVuSans-116"/>
     </g>
    </g>
   </g>
  </g>
 </g>
 <defs>
  <clipPath id="pd7979deccd">
   <rect height="199.802246" width="376.65" x="44.55" y="26.8"/>
  </clipPath>
 </defs>
</svg>
