<?xml version="1.0" encoding="utf-8" standalone="no"?>
<!DOCTYPE svg PUBLIC "-//W3C//DTD SVG 1.1//EN"
  "http://www.w3.org/Graphics/SVG/1.1/DTD/svg11.dtd">
<!-- Created with matplotlib (https://matplotlib.org/) -->
<svg height="288pt" version="1.1" viewBox="0 0 432 288" width="432pt" xmlns="http://www.w3.org/2000/svg" xmlns:xlink="http://www.w3.org/1999/xlink">
 <metadata>
  <rdf:RDF xmlns:cc="http://creativecommons.org/ns#" xmlns:dc="http://purl.org/dc/elements/1.1/" xmlns:rdf="http://www.w3.org/1999/02/22-rdf-syntax-ns#">
   <cc:Work>
    <dc:type rdf:resource="http://purl.org/dc/dcmitype/StillImage"/>
    <dc:date>2020-12-10T15:22:51.309926</dc:date>
    <dc:format>image/svg+xml</dc:format>
    <dc:creator>
     <cc:Agent>
      <dc:title>Matplotlib v3.3.2, https://matplotlib.org/</dc:title>
     </cc:Agent>
    </dc:creator>
   </cc:Work>
  </rdf:RDF>
 </metadata>
 <defs>
  <style type="text/css">*{stroke-linecap:butt;stroke-linejoin:round;}</style>
 </defs>
 <g id="figure_1">
  <g id="patch_1">
   <path d="M 0 288 
L 432 288 
L 432 0 
L 0 0 
z
" style="fill:none;"/>
  </g>
  <g id="axes_1">
   <g id="patch_2">
    <path d="M 44.55 226.602246 
L 421.2 226.602246 
L 421.2 26.8 
L 44.55 26.8 
z
" style="fill:#ffffff;"/>
   </g>
   <g id="matplotlib.axis_1">
    <g id="xtick_1">
     <g id="line2d_1">
      <defs>
       <path d="M 0 0 
L 0 3.5 
" id="m3a431a66cf" style="stroke:#000000;stroke-width:0.8;"/>
      </defs>
      <g>
       <use style="stroke:#000000;stroke-width:0.8;" x="78.660219" xlink:href="#m3a431a66cf" y="226.602246"/>
      </g>
     </g>
     <g id="text_1">
      <!-- 2020-04 -->
      <g transform="translate(41.435398 261.074092)rotate(-30)scale(0.1 -0.1)">
       <defs>
        <path d="M 19.1875 8.296875 
L 53.609375 8.296875 
L 53.609375 0 
L 7.328125 0 
L 7.328125 8.296875 
Q 12.9375 14.109375 22.625 23.890625 
Q 32.328125 33.6875 34.8125 36.53125 
Q 39.546875 41.84375 41.421875 45.53125 
Q 43.3125 49.21875 43.3125 52.78125 
Q 43.3125 58.59375 39.234375 62.25 
Q 35.15625 65.921875 28.609375 65.921875 
Q 23.96875 65.921875 18.8125 64.3125 
Q 13.671875 62.703125 7.8125 59.421875 
L 7.8125 69.390625 
Q 13.765625 71.78125 18.9375 73 
Q 24.125 74.21875 28.421875 74.21875 
Q 39.75 74.21875 46.484375 68.546875 
Q 53.21875 62.890625 53.21875 53.421875 
Q 53.21875 48.921875 51.53125 44.890625 
Q 49.859375 40.875 45.40625 35.40625 
Q 44.1875 33.984375 37.640625 27.21875 
Q 31.109375 20.453125 19.1875 8.296875 
z
" id="DejaVuSans-50"/>
        <path d="M 31.78125 66.40625 
Q 24.171875 66.40625 20.328125 58.90625 
Q 16.5 51.421875 16.5 36.375 
Q 16.5 21.390625 20.328125 13.890625 
Q 24.171875 6.390625 31.78125 6.390625 
Q 39.453125 6.390625 43.28125 13.890625 
Q 47.125 21.390625 47.125 36.375 
Q 47.125 51.421875 43.28125 58.90625 
Q 39.453125 66.40625 31.78125 66.40625 
z
M 31.78125 74.21875 
Q 44.046875 74.21875 50.515625 64.515625 
Q 56.984375 54.828125 56.984375 36.375 
Q 56.984375 17.96875 50.515625 8.265625 
Q 44.046875 -1.421875 31.78125 -1.421875 
Q 19.53125 -1.421875 13.0625 8.265625 
Q 6.59375 17.96875 6.59375 36.375 
Q 6.59375 54.828125 13.0625 64.515625 
Q 19.53125 74.21875 31.78125 74.21875 
z
" id="DejaVuSans-48"/>
        <path d="M 4.890625 31.390625 
L 31.203125 31.390625 
L 31.203125 23.390625 
L 4.890625 23.390625 
z
" id="DejaVuSans-45"/>
        <path d="M 37.796875 64.3125 
L 12.890625 25.390625 
L 37.796875 25.390625 
z
M 35.203125 72.90625 
L 47.609375 72.90625 
L 47.609375 25.390625 
L 58.015625 25.390625 
L 58.015625 17.1875 
L 47.609375 17.1875 
L 47.609375 0 
L 37.796875 0 
L 37.796875 17.1875 
L 4.890625 17.1875 
L 4.890625 26.703125 
z
" id="DejaVuSans-52"/>
       </defs>
       <use xlink:href="#DejaVuSans-50"/>
       <use x="63.623047" xlink:href="#DejaVuSans-48"/>
       <use x="127.246094" xlink:href="#DejaVuSans-50"/>
       <use x="190.869141" xlink:href="#DejaVuSans-48"/>
       <use x="254.492188" xlink:href="#DejaVuSans-45"/>
       <use x="290.576172" xlink:href="#DejaVuSans-48"/>
       <use x="354.199219" xlink:href="#DejaVuSans-52"/>
      </g>
     </g>
    </g>
    <g id="xtick_2">
     <g id="line2d_2">
      <g>
       <use style="stroke:#000000;stroke-width:0.8;" x="117.867366" xlink:href="#m3a431a66cf" y="226.602246"/>
      </g>
     </g>
     <g id="text_2">
      <!-- 2020-05 -->
      <g transform="translate(80.642546 261.074092)rotate(-30)scale(0.1 -0.1)">
       <defs>
        <path d="M 10.796875 72.90625 
L 49.515625 72.90625 
L 49.515625 64.59375 
L 19.828125 64.59375 
L 19.828125 46.734375 
Q 21.96875 47.46875 24.109375 47.828125 
Q 26.265625 48.1875 28.421875 48.1875 
Q 40.625 48.1875 47.75 41.5 
Q 54.890625 34.8125 54.890625 23.390625 
Q 54.890625 11.625 47.5625 5.09375 
Q 40.234375 -1.421875 26.90625 -1.421875 
Q 22.3125 -1.421875 17.546875 -0.640625 
Q 12.796875 0.140625 7.71875 1.703125 
L 7.71875 11.625 
Q 12.109375 9.234375 16.796875 8.0625 
Q 21.484375 6.890625 26.703125 6.890625 
Q 35.15625 6.890625 40.078125 11.328125 
Q 45.015625 15.765625 45.015625 23.390625 
Q 45.015625 31 40.078125 35.4375 
Q 35.15625 39.890625 26.703125 39.890625 
Q 22.75 39.890625 18.8125 39.015625 
Q 14.890625 38.140625 10.796875 36.28125 
z
" id="DejaVuSans-53"/>
       </defs>
       <use xlink:href="#DejaVuSans-50"/>
       <use x="63.623047" xlink:href="#DejaVuSans-48"/>
       <use x="127.246094" xlink:href="#DejaVuSans-50"/>
       <use x="190.869141" xlink:href="#DejaVuSans-48"/>
       <use x="254.492188" xlink:href="#DejaVuSans-45"/>
       <use x="290.576172" xlink:href="#DejaVuSans-48"/>
       <use x="354.199219" xlink:href="#DejaVuSans-53"/>
      </g>
     </g>
    </g>
    <g id="xtick_3">
     <g id="line2d_3">
      <g>
       <use style="stroke:#000000;stroke-width:0.8;" x="158.381419" xlink:href="#m3a431a66cf" y="226.602246"/>
      </g>
     </g>
     <g id="text_3">
      <!-- 2020-06 -->
      <g transform="translate(121.156598 261.074092)rotate(-30)scale(0.1 -0.1)">
       <defs>
        <path d="M 33.015625 40.375 
Q 26.375 40.375 22.484375 35.828125 
Q 18.609375 31.296875 18.609375 23.390625 
Q 18.609375 15.53125 22.484375 10.953125 
Q 26.375 6.390625 33.015625 6.390625 
Q 39.65625 6.390625 43.53125 10.953125 
Q 47.40625 15.53125 47.40625 23.390625 
Q 47.40625 31.296875 43.53125 35.828125 
Q 39.65625 40.375 33.015625 40.375 
z
M 52.59375 71.296875 
L 52.59375 62.3125 
Q 48.875 64.0625 45.09375 64.984375 
Q 41.3125 65.921875 37.59375 65.921875 
Q 27.828125 65.921875 22.671875 59.328125 
Q 17.53125 52.734375 16.796875 39.40625 
Q 19.671875 43.65625 24.015625 45.921875 
Q 28.375 48.1875 33.59375 48.1875 
Q 44.578125 48.1875 50.953125 41.515625 
Q 57.328125 34.859375 57.328125 23.390625 
Q 57.328125 12.15625 50.6875 5.359375 
Q 44.046875 -1.421875 33.015625 -1.421875 
Q 20.359375 -1.421875 13.671875 8.265625 
Q 6.984375 17.96875 6.984375 36.375 
Q 6.984375 53.65625 15.1875 63.9375 
Q 23.390625 74.21875 37.203125 74.21875 
Q 40.921875 74.21875 44.703125 73.484375 
Q 48.484375 72.75 52.59375 71.296875 
z
" id="DejaVuSans-54"/>
       </defs>
       <use xlink:href="#DejaVuSans-50"/>
       <use x="63.623047" xlink:href="#DejaVuSans-48"/>
       <use x="127.246094" xlink:href="#DejaVuSans-50"/>
       <use x="190.869141" xlink:href="#DejaVuSans-48"/>
       <use x="254.492188" xlink:href="#DejaVuSans-45"/>
       <use x="290.576172" xlink:href="#DejaVuSans-48"/>
       <use x="354.199219" xlink:href="#DejaVuSans-54"/>
      </g>
     </g>
    </g>
    <g id="xtick_4">
     <g id="line2d_4">
      <g>
       <use style="stroke:#000000;stroke-width:0.8;" x="197.588567" xlink:href="#m3a431a66cf" y="226.602246"/>
      </g>
     </g>
     <g id="text_4">
      <!-- 2020-07 -->
      <g transform="translate(160.363746 261.074092)rotate(-30)scale(0.1 -0.1)">
       <defs>
        <path d="M 8.203125 72.90625 
L 55.078125 72.90625 
L 55.078125 68.703125 
L 28.609375 0 
L 18.3125 0 
L 43.21875 64.59375 
L 8.203125 64.59375 
z
" id="DejaVuSans-55"/>
       </defs>
       <use xlink:href="#DejaVuSans-50"/>
       <use x="63.623047" xlink:href="#DejaVuSans-48"/>
       <use x="127.246094" xlink:href="#DejaVuSans-50"/>
       <use x="190.869141" xlink:href="#DejaVuSans-48"/>
       <use x="254.492188" xlink:href="#DejaVuSans-45"/>
       <use x="290.576172" xlink:href="#DejaVuSans-48"/>
       <use x="354.199219" xlink:href="#DejaVuSans-55"/>
      </g>
     </g>
    </g>
    <g id="xtick_5">
     <g id="line2d_5">
      <g>
       <use style="stroke:#000000;stroke-width:0.8;" x="238.10262" xlink:href="#m3a431a66cf" y="226.602246"/>
      </g>
     </g>
     <g id="text_5">
      <!-- 2020-08 -->
      <g transform="translate(200.877799 261.074092)rotate(-30)scale(0.1 -0.1)">
       <defs>
        <path d="M 31.78125 34.625 
Q 24.75 34.625 20.71875 30.859375 
Q 16.703125 27.09375 16.703125 20.515625 
Q 16.703125 13.921875 20.71875 10.15625 
Q 24.75 6.390625 31.78125 6.390625 
Q 38.8125 6.390625 42.859375 10.171875 
Q 46.921875 13.96875 46.921875 20.515625 
Q 46.921875 27.09375 42.890625 30.859375 
Q 38.875 34.625 31.78125 34.625 
z
M 21.921875 38.8125 
Q 15.578125 40.375 12.03125 44.71875 
Q 8.5 49.078125 8.5 55.328125 
Q 8.5 64.0625 14.71875 69.140625 
Q 20.953125 74.21875 31.78125 74.21875 
Q 42.671875 74.21875 48.875 69.140625 
Q 55.078125 64.0625 55.078125 55.328125 
Q 55.078125 49.078125 51.53125 44.71875 
Q 48 40.375 41.703125 38.8125 
Q 48.828125 37.15625 52.796875 32.3125 
Q 56.78125 27.484375 56.78125 20.515625 
Q 56.78125 9.90625 50.3125 4.234375 
Q 43.84375 -1.421875 31.78125 -1.421875 
Q 19.734375 -1.421875 13.25 4.234375 
Q 6.78125 9.90625 6.78125 20.515625 
Q 6.78125 27.484375 10.78125 32.3125 
Q 14.796875 37.15625 21.921875 38.8125 
z
M 18.3125 54.390625 
Q 18.3125 48.734375 21.84375 45.5625 
Q 25.390625 42.390625 31.78125 42.390625 
Q 38.140625 42.390625 41.71875 45.5625 
Q 45.3125 48.734375 45.3125 54.390625 
Q 45.3125 60.0625 41.71875 63.234375 
Q 38.140625 66.40625 31.78125 66.40625 
Q 25.390625 66.40625 21.84375 63.234375 
Q 18.3125 60.0625 18.3125 54.390625 
z
" id="DejaVuSans-56"/>
       </defs>
       <use xlink:href="#DejaVuSans-50"/>
       <use x="63.623047" xlink:href="#DejaVuSans-48"/>
       <use x="127.246094" xlink:href="#DejaVuSans-50"/>
       <use x="190.869141" xlink:href="#DejaVuSans-48"/>
       <use x="254.492188" xlink:href="#DejaVuSans-45"/>
       <use x="290.576172" xlink:href="#DejaVuSans-48"/>
       <use x="354.199219" xlink:href="#DejaVuSans-56"/>
      </g>
     </g>
    </g>
    <g id="xtick_6">
     <g id="line2d_6">
      <g>
       <use style="stroke:#000000;stroke-width:0.8;" x="278.616672" xlink:href="#m3a431a66cf" y="226.602246"/>
      </g>
     </g>
     <g id="text_6">
      <!-- 2020-09 -->
      <g transform="translate(241.391852 261.074092)rotate(-30)scale(0.1 -0.1)">
       <defs>
        <path d="M 10.984375 1.515625 
L 10.984375 10.5 
Q 14.703125 8.734375 18.5 7.8125 
Q 22.3125 6.890625 25.984375 6.890625 
Q 35.75 6.890625 40.890625 13.453125 
Q 46.046875 20.015625 46.78125 33.40625 
Q 43.953125 29.203125 39.59375 26.953125 
Q 35.25 24.703125 29.984375 24.703125 
Q 19.046875 24.703125 12.671875 31.3125 
Q 6.296875 37.9375 6.296875 49.421875 
Q 6.296875 60.640625 12.9375 67.421875 
Q 19.578125 74.21875 30.609375 74.21875 
Q 43.265625 74.21875 49.921875 64.515625 
Q 56.59375 54.828125 56.59375 36.375 
Q 56.59375 19.140625 48.40625 8.859375 
Q 40.234375 -1.421875 26.421875 -1.421875 
Q 22.703125 -1.421875 18.890625 -0.6875 
Q 15.09375 0.046875 10.984375 1.515625 
z
M 30.609375 32.421875 
Q 37.25 32.421875 41.125 36.953125 
Q 45.015625 41.5 45.015625 49.421875 
Q 45.015625 57.28125 41.125 61.84375 
Q 37.25 66.40625 30.609375 66.40625 
Q 23.96875 66.40625 20.09375 61.84375 
Q 16.21875 57.28125 16.21875 49.421875 
Q 16.21875 41.5 20.09375 36.953125 
Q 23.96875 32.421875 30.609375 32.421875 
z
" id="DejaVuSans-57"/>
       </defs>
       <use xlink:href="#DejaVuSans-50"/>
       <use x="63.623047" xlink:href="#DejaVuSans-48"/>
       <use x="127.246094" xlink:href="#DejaVuSans-50"/>
       <use x="190.869141" xlink:href="#DejaVuSans-48"/>
       <use x="254.492188" xlink:href="#DejaVuSans-45"/>
       <use x="290.576172" xlink:href="#DejaVuSans-48"/>
       <use x="354.199219" xlink:href="#DejaVuSans-57"/>
      </g>
     </g>
    </g>
    <g id="xtick_7">
     <g id="line2d_7">
      <g>
       <use style="stroke:#000000;stroke-width:0.8;" x="317.82382" xlink:href="#m3a431a66cf" y="226.602246"/>
      </g>
     </g>
     <g id="text_7">
      <!-- 2020-10 -->
      <g transform="translate(280.598999 261.074092)rotate(-30)scale(0.1 -0.1)">
       <defs>
        <path d="M 12.40625 8.296875 
L 28.515625 8.296875 
L 28.515625 63.921875 
L 10.984375 60.40625 
L 10.984375 69.390625 
L 28.421875 72.90625 
L 38.28125 72.90625 
L 38.28125 8.296875 
L 54.390625 8.296875 
L 54.390625 0 
L 12.40625 0 
z
" id="DejaVuSans-49"/>
       </defs>
       <use xlink:href="#DejaVuSans-50"/>
       <use x="63.623047" xlink:href="#DejaVuSans-48"/>
       <use x="127.246094" xlink:href="#DejaVuSans-50"/>
       <use x="190.869141" xlink:href="#DejaVuSans-48"/>
       <use x="254.492188" xlink:href="#DejaVuSans-45"/>
       <use x="290.576172" xlink:href="#DejaVuSans-49"/>
       <use x="354.199219" xlink:href="#DejaVuSans-48"/>
      </g>
     </g>
    </g>
    <g id="xtick_8">
     <g id="line2d_8">
      <g>
       <use style="stroke:#000000;stroke-width:0.8;" x="358.337873" xlink:href="#m3a431a66cf" y="226.602246"/>
      </g>
     </g>
     <g id="text_8">
      <!-- 2020-11 -->
      <g transform="translate(321.113052 261.074092)rotate(-30)scale(0.1 -0.1)">
       <use xlink:href="#DejaVuSans-50"/>
       <use x="63.623047" xlink:href="#DejaVuSans-48"/>
       <use x="127.246094" xlink:href="#DejaVuSans-50"/>
       <use x="190.869141" xlink:href="#DejaVuSans-48"/>
       <use x="254.492188" xlink:href="#DejaVuSans-45"/>
       <use x="290.576172" xlink:href="#DejaVuSans-49"/>
       <use x="354.199219" xlink:href="#DejaVuSans-49"/>
      </g>
     </g>
    </g>
    <g id="xtick_9">
     <g id="line2d_9">
      <g>
       <use style="stroke:#000000;stroke-width:0.8;" x="397.545021" xlink:href="#m3a431a66cf" y="226.602246"/>
      </g>
     </g>
     <g id="text_9">
      <!-- 2020-12 -->
      <g transform="translate(360.3202 261.074092)rotate(-30)scale(0.1 -0.1)">
       <use xlink:href="#DejaVuSans-50"/>
       <use x="63.623047" xlink:href="#DejaVuSans-48"/>
       <use x="127.246094" xlink:href="#DejaVuSans-50"/>
       <use x="190.869141" xlink:href="#DejaVuSans-48"/>
       <use x="254.492188" xlink:href="#DejaVuSans-45"/>
       <use x="290.576172" xlink:href="#DejaVuSans-49"/>
       <use x="354.199219" xlink:href="#DejaVuSans-50"/>
      </g>
     </g>
    </g>
    <g id="text_10">
     <!-- Date -->
     <g transform="translate(220.924219 274.473592)scale(0.1 -0.1)">
      <defs>
       <path d="M 19.671875 64.796875 
L 19.671875 8.109375 
L 31.59375 8.109375 
Q 46.6875 8.109375 53.6875 14.9375 
Q 60.6875 21.78125 60.6875 36.53125 
Q 60.6875 51.171875 53.6875 57.984375 
Q 46.6875 64.796875 31.59375 64.796875 
z
M 9.8125 72.90625 
L 30.078125 72.90625 
Q 51.265625 72.90625 61.171875 64.09375 
Q 71.09375 55.28125 71.09375 36.53125 
Q 71.09375 17.671875 61.125 8.828125 
Q 51.171875 0 30.078125 0 
L 9.8125 0 
z
" id="DejaVuSans-68"/>
       <path d="M 34.28125 27.484375 
Q 23.390625 27.484375 19.1875 25 
Q 14.984375 22.515625 14.984375 16.5 
Q 14.984375 11.71875 18.140625 8.90625 
Q 21.296875 6.109375 26.703125 6.109375 
Q 34.1875 6.109375 38.703125 11.40625 
Q 43.21875 16.703125 43.21875 25.484375 
L 43.21875 27.484375 
z
M 52.203125 31.203125 
L 52.203125 0 
L 43.21875 0 
L 43.21875 8.296875 
Q 40.140625 3.328125 35.546875 0.953125 
Q 30.953125 -1.421875 24.3125 -1.421875 
Q 15.921875 -1.421875 10.953125 3.296875 
Q 6 8.015625 6 15.921875 
Q 6 25.140625 12.171875 29.828125 
Q 18.359375 34.515625 30.609375 34.515625 
L 43.21875 34.515625 
L 43.21875 35.40625 
Q 43.21875 41.609375 39.140625 45 
Q 35.0625 48.390625 27.6875 48.390625 
Q 23 48.390625 18.546875 47.265625 
Q 14.109375 46.140625 10.015625 43.890625 
L 10.015625 52.203125 
Q 14.9375 54.109375 19.578125 55.046875 
Q 24.21875 56 28.609375 56 
Q 40.484375 56 46.34375 49.84375 
Q 52.203125 43.703125 52.203125 31.203125 
z
" id="DejaVuSans-97"/>
       <path d="M 18.3125 70.21875 
L 18.3125 54.6875 
L 36.8125 54.6875 
L 36.8125 47.703125 
L 18.3125 47.703125 
L 18.3125 18.015625 
Q 18.3125 11.328125 20.140625 9.421875 
Q 21.96875 7.515625 27.59375 7.515625 
L 36.8125 7.515625 
L 36.8125 0 
L 27.59375 0 
Q 17.1875 0 13.234375 3.875 
Q 9.28125 7.765625 9.28125 18.015625 
L 9.28125 47.703125 
L 2.6875 47.703125 
L 2.6875 54.6875 
L 9.28125 54.6875 
L 9.28125 70.21875 
z
" id="DejaVuSans-116"/>
       <path d="M 56.203125 29.59375 
L 56.203125 25.203125 
L 14.890625 25.203125 
Q 15.484375 15.921875 20.484375 11.0625 
Q 25.484375 6.203125 34.421875 6.203125 
Q 39.59375 6.203125 44.453125 7.46875 
Q 49.3125 8.734375 54.109375 11.28125 
L 54.109375 2.78125 
Q 49.265625 0.734375 44.1875 -0.34375 
Q 39.109375 -1.421875 33.890625 -1.421875 
Q 20.796875 -1.421875 13.15625 6.1875 
Q 5.515625 13.8125 5.515625 26.8125 
Q 5.515625 40.234375 12.765625 48.109375 
Q 20.015625 56 32.328125 56 
Q 43.359375 56 49.78125 48.890625 
Q 56.203125 41.796875 56.203125 29.59375 
z
M 47.21875 32.234375 
Q 47.125 39.59375 43.09375 43.984375 
Q 39.0625 48.390625 32.421875 48.390625 
Q 24.90625 48.390625 20.390625 44.140625 
Q 15.875 39.890625 15.1875 32.171875 
z
" id="DejaVuSans-101"/>
      </defs>
      <use xlink:href="#DejaVuSans-68"/>
      <use x="77.001953" xlink:href="#DejaVuSans-97"/>
      <use x="138.28125" xlink:href="#DejaVuSans-116"/>
      <use x="177.490234" xlink:href="#DejaVuSans-101"/>
     </g>
    </g>
   </g>
   <g id="matplotlib.axis_2">
    <g id="ytick_1">
     <g id="line2d_10">
      <defs>
       <path d="M 0 0 
L -3.5 0 
" id="m5c97679f2b" style="stroke:#000000;stroke-width:0.8;"/>
      </defs>
      <g>
       <use style="stroke:#000000;stroke-width:0.8;" x="44.55" xlink:href="#m5c97679f2b" y="218.018007"/>
      </g>
     </g>
     <g id="text_11">
      <!-- 0 -->
      <g transform="translate(31.1875 221.817226)scale(0.1 -0.1)">
       <use xlink:href="#DejaVuSans-48"/>
      </g>
     </g>
    </g>
    <g id="ytick_2">
     <g id="line2d_11">
      <g>
       <use style="stroke:#000000;stroke-width:0.8;" x="44.55" xlink:href="#m5c97679f2b" y="174.423535"/>
      </g>
     </g>
     <g id="text_12">
      <!-- 20 -->
      <g transform="translate(24.825 178.222753)scale(0.1 -0.1)">
       <use xlink:href="#DejaVuSans-50"/>
       <use x="63.623047" xlink:href="#DejaVuSans-48"/>
      </g>
     </g>
    </g>
    <g id="ytick_3">
     <g id="line2d_12">
      <g>
       <use style="stroke:#000000;stroke-width:0.8;" x="44.55" xlink:href="#m5c97679f2b" y="130.829062"/>
      </g>
     </g>
     <g id="text_13">
      <!-- 40 -->
      <g transform="translate(24.825 134.628281)scale(0.1 -0.1)">
       <use xlink:href="#DejaVuSans-52"/>
       <use x="63.623047" xlink:href="#DejaVuSans-48"/>
      </g>
     </g>
    </g>
    <g id="ytick_4">
     <g id="line2d_13">
      <g>
       <use style="stroke:#000000;stroke-width:0.8;" x="44.55" xlink:href="#m5c97679f2b" y="87.23459"/>
      </g>
     </g>
     <g id="text_14">
      <!-- 60 -->
      <g transform="translate(24.825 91.033808)scale(0.1 -0.1)">
       <use xlink:href="#DejaVuSans-54"/>
       <use x="63.623047" xlink:href="#DejaVuSans-48"/>
      </g>
     </g>
    </g>
    <g id="ytick_5">
     <g id="line2d_14">
      <g>
       <use style="stroke:#000000;stroke-width:0.8;" x="44.55" xlink:href="#m5c97679f2b" y="43.640117"/>
      </g>
     </g>
     <g id="text_15">
      <!-- 80 -->
      <g transform="translate(24.825 47.439336)scale(0.1 -0.1)">
       <use xlink:href="#DejaVuSans-56"/>
       <use x="63.623047" xlink:href="#DejaVuSans-48"/>
      </g>
     </g>
    </g>
    <g id="text_16">
     <!-- New admissions per million population -->
     <g transform="translate(18.745313 223.460498)rotate(-90)scale(0.1 -0.1)">
      <defs>
       <path d="M 9.8125 72.90625 
L 23.09375 72.90625 
L 55.421875 11.921875 
L 55.421875 72.90625 
L 64.984375 72.90625 
L 64.984375 0 
L 51.703125 0 
L 19.390625 60.984375 
L 19.390625 0 
L 9.8125 0 
z
" id="DejaVuSans-78"/>
       <path d="M 4.203125 54.6875 
L 13.1875 54.6875 
L 24.421875 12.015625 
L 35.59375 54.6875 
L 46.1875 54.6875 
L 57.421875 12.015625 
L 68.609375 54.6875 
L 77.59375 54.6875 
L 63.28125 0 
L 52.6875 0 
L 40.921875 44.828125 
L 29.109375 0 
L 18.5 0 
z
" id="DejaVuSans-119"/>
       <path id="DejaVuSans-32"/>
       <path d="M 45.40625 46.390625 
L 45.40625 75.984375 
L 54.390625 75.984375 
L 54.390625 0 
L 45.40625 0 
L 45.40625 8.203125 
Q 42.578125 3.328125 38.25 0.953125 
Q 33.9375 -1.421875 27.875 -1.421875 
Q 17.96875 -1.421875 11.734375 6.484375 
Q 5.515625 14.40625 5.515625 27.296875 
Q 5.515625 40.1875 11.734375 48.09375 
Q 17.96875 56 27.875 56 
Q 33.9375 56 38.25 53.625 
Q 42.578125 51.265625 45.40625 46.390625 
z
M 14.796875 27.296875 
Q 14.796875 17.390625 18.875 11.75 
Q 22.953125 6.109375 30.078125 6.109375 
Q 37.203125 6.109375 41.296875 11.75 
Q 45.40625 17.390625 45.40625 27.296875 
Q 45.40625 37.203125 41.296875 42.84375 
Q 37.203125 48.484375 30.078125 48.484375 
Q 22.953125 48.484375 18.875 42.84375 
Q 14.796875 37.203125 14.796875 27.296875 
z
" id="DejaVuSans-100"/>
       <path d="M 52 44.1875 
Q 55.375 50.25 60.0625 53.125 
Q 64.75 56 71.09375 56 
Q 79.640625 56 84.28125 50.015625 
Q 88.921875 44.046875 88.921875 33.015625 
L 88.921875 0 
L 79.890625 0 
L 79.890625 32.71875 
Q 79.890625 40.578125 77.09375 44.375 
Q 74.3125 48.1875 68.609375 48.1875 
Q 61.625 48.1875 57.5625 43.546875 
Q 53.515625 38.921875 53.515625 30.90625 
L 53.515625 0 
L 44.484375 0 
L 44.484375 32.71875 
Q 44.484375 40.625 41.703125 44.40625 
Q 38.921875 48.1875 33.109375 48.1875 
Q 26.21875 48.1875 22.15625 43.53125 
Q 18.109375 38.875 18.109375 30.90625 
L 18.109375 0 
L 9.078125 0 
L 9.078125 54.6875 
L 18.109375 54.6875 
L 18.109375 46.1875 
Q 21.1875 51.21875 25.484375 53.609375 
Q 29.78125 56 35.6875 56 
Q 41.65625 56 45.828125 52.96875 
Q 50 49.953125 52 44.1875 
z
" id="DejaVuSans-109"/>
       <path d="M 9.421875 54.6875 
L 18.40625 54.6875 
L 18.40625 0 
L 9.421875 0 
z
M 9.421875 75.984375 
L 18.40625 75.984375 
L 18.40625 64.59375 
L 9.421875 64.59375 
z
" id="DejaVuSans-105"/>
       <path d="M 44.28125 53.078125 
L 44.28125 44.578125 
Q 40.484375 46.53125 36.375 47.5 
Q 32.28125 48.484375 27.875 48.484375 
Q 21.1875 48.484375 17.84375 46.4375 
Q 14.5 44.390625 14.5 40.28125 
Q 14.5 37.15625 16.890625 35.375 
Q 19.28125 33.59375 26.515625 31.984375 
L 29.59375 31.296875 
Q 39.15625 29.25 43.1875 25.515625 
Q 47.21875 21.78125 47.21875 15.09375 
Q 47.21875 7.46875 41.1875 3.015625 
Q 35.15625 -1.421875 24.609375 -1.421875 
Q 20.21875 -1.421875 15.453125 -0.5625 
Q 10.6875 0.296875 5.421875 2 
L 5.421875 11.28125 
Q 10.40625 8.6875 15.234375 7.390625 
Q 20.0625 6.109375 24.8125 6.109375 
Q 31.15625 6.109375 34.5625 8.28125 
Q 37.984375 10.453125 37.984375 14.40625 
Q 37.984375 18.0625 35.515625 20.015625 
Q 33.0625 21.96875 24.703125 23.78125 
L 21.578125 24.515625 
Q 13.234375 26.265625 9.515625 29.90625 
Q 5.8125 33.546875 5.8125 39.890625 
Q 5.8125 47.609375 11.28125 51.796875 
Q 16.75 56 26.8125 56 
Q 31.78125 56 36.171875 55.265625 
Q 40.578125 54.546875 44.28125 53.078125 
z
" id="DejaVuSans-115"/>
       <path d="M 30.609375 48.390625 
Q 23.390625 48.390625 19.1875 42.75 
Q 14.984375 37.109375 14.984375 27.296875 
Q 14.984375 17.484375 19.15625 11.84375 
Q 23.34375 6.203125 30.609375 6.203125 
Q 37.796875 6.203125 41.984375 11.859375 
Q 46.1875 17.53125 46.1875 27.296875 
Q 46.1875 37.015625 41.984375 42.703125 
Q 37.796875 48.390625 30.609375 48.390625 
z
M 30.609375 56 
Q 42.328125 56 49.015625 48.375 
Q 55.71875 40.765625 55.71875 27.296875 
Q 55.71875 13.875 49.015625 6.21875 
Q 42.328125 -1.421875 30.609375 -1.421875 
Q 18.84375 -1.421875 12.171875 6.21875 
Q 5.515625 13.875 5.515625 27.296875 
Q 5.515625 40.765625 12.171875 48.375 
Q 18.84375 56 30.609375 56 
z
" id="DejaVuSans-111"/>
       <path d="M 54.890625 33.015625 
L 54.890625 0 
L 45.90625 0 
L 45.90625 32.71875 
Q 45.90625 40.484375 42.875 44.328125 
Q 39.84375 48.1875 33.796875 48.1875 
Q 26.515625 48.1875 22.3125 43.546875 
Q 18.109375 38.921875 18.109375 30.90625 
L 18.109375 0 
L 9.078125 0 
L 9.078125 54.6875 
L 18.109375 54.6875 
L 18.109375 46.1875 
Q 21.34375 51.125 25.703125 53.5625 
Q 30.078125 56 35.796875 56 
Q 45.21875 56 50.046875 50.171875 
Q 54.890625 44.34375 54.890625 33.015625 
z
" id="DejaVuSans-110"/>
       <path d="M 18.109375 8.203125 
L 18.109375 -20.796875 
L 9.078125 -20.796875 
L 9.078125 54.6875 
L 18.109375 54.6875 
L 18.109375 46.390625 
Q 20.953125 51.265625 25.265625 53.625 
Q 29.59375 56 35.59375 56 
Q 45.5625 56 51.78125 48.09375 
Q 58.015625 40.1875 58.015625 27.296875 
Q 58.015625 14.40625 51.78125 6.484375 
Q 45.5625 -1.421875 35.59375 -1.421875 
Q 29.59375 -1.421875 25.265625 0.953125 
Q 20.953125 3.328125 18.109375 8.203125 
z
M 48.6875 27.296875 
Q 48.6875 37.203125 44.609375 42.84375 
Q 40.53125 48.484375 33.40625 48.484375 
Q 26.265625 48.484375 22.1875 42.84375 
Q 18.109375 37.203125 18.109375 27.296875 
Q 18.109375 17.390625 22.1875 11.75 
Q 26.265625 6.109375 33.40625 6.109375 
Q 40.53125 6.109375 44.609375 11.75 
Q 48.6875 17.390625 48.6875 27.296875 
z
" id="DejaVuSans-112"/>
       <path d="M 41.109375 46.296875 
Q 39.59375 47.171875 37.8125 47.578125 
Q 36.03125 48 33.890625 48 
Q 26.265625 48 22.1875 43.046875 
Q 18.109375 38.09375 18.109375 28.8125 
L 18.109375 0 
L 9.078125 0 
L 9.078125 54.6875 
L 18.109375 54.6875 
L 18.109375 46.1875 
Q 20.953125 51.171875 25.484375 53.578125 
Q 30.03125 56 36.53125 56 
Q 37.453125 56 38.578125 55.875 
Q 39.703125 55.765625 41.0625 55.515625 
z
" id="DejaVuSans-114"/>
       <path d="M 9.421875 75.984375 
L 18.40625 75.984375 
L 18.40625 0 
L 9.421875 0 
z
" id="DejaVuSans-108"/>
       <path d="M 8.5 21.578125 
L 8.5 54.6875 
L 17.484375 54.6875 
L 17.484375 21.921875 
Q 17.484375 14.15625 20.5 10.265625 
Q 23.53125 6.390625 29.59375 6.390625 
Q 36.859375 6.390625 41.078125 11.03125 
Q 45.3125 15.671875 45.3125 23.6875 
L 45.3125 54.6875 
L 54.296875 54.6875 
L 54.296875 0 
L 45.3125 0 
L 45.3125 8.40625 
Q 42.046875 3.421875 37.71875 1 
Q 33.40625 -1.421875 27.6875 -1.421875 
Q 18.265625 -1.421875 13.375 4.4375 
Q 8.5 10.296875 8.5 21.578125 
z
M 31.109375 56 
z
" id="DejaVuSans-117"/>
      </defs>
      <use xlink:href="#DejaVuSans-78"/>
      <use x="74.804688" xlink:href="#DejaVuSans-101"/>
      <use x="136.328125" xlink:href="#DejaVuSans-119"/>
      <use x="218.115234" xlink:href="#DejaVuSans-32"/>
      <use x="249.902344" xlink:href="#DejaVuSans-97"/>
      <use x="311.181641" xlink:href="#DejaVuSans-100"/>
      <use x="374.658203" xlink:href="#DejaVuSans-109"/>
      <use x="472.070312" xlink:href="#DejaVuSans-105"/>
      <use x="499.853516" xlink:href="#DejaVuSans-115"/>
      <use x="551.953125" xlink:href="#DejaVuSans-115"/>
      <use x="604.052734" xlink:href="#DejaVuSans-105"/>
      <use x="631.835938" xlink:href="#DejaVuSans-111"/>
      <use x="693.017578" xlink:href="#DejaVuSans-110"/>
      <use x="756.396484" xlink:href="#DejaVuSans-115"/>
      <use x="808.496094" xlink:href="#DejaVuSans-32"/>
      <use x="840.283203" xlink:href="#DejaVuSans-112"/>
      <use x="903.759766" xlink:href="#DejaVuSans-101"/>
      <use x="965.283203" xlink:href="#DejaVuSans-114"/>
      <use x="1006.396484" xlink:href="#DejaVuSans-32"/>
      <use x="1038.183594" xlink:href="#DejaVuSans-109"/>
      <use x="1135.595703" xlink:href="#DejaVuSans-105"/>
      <use x="1163.378906" xlink:href="#DejaVuSans-108"/>
      <use x="1191.162109" xlink:href="#DejaVuSans-108"/>
      <use x="1218.945312" xlink:href="#DejaVuSans-105"/>
      <use x="1246.728516" xlink:href="#DejaVuSans-111"/>
      <use x="1307.910156" xlink:href="#DejaVuSans-110"/>
      <use x="1371.289062" xlink:href="#DejaVuSans-32"/>
      <use x="1403.076172" xlink:href="#DejaVuSans-112"/>
      <use x="1466.552734" xlink:href="#DejaVuSans-111"/>
      <use x="1527.734375" xlink:href="#DejaVuSans-112"/>
      <use x="1591.210938" xlink:href="#DejaVuSans-117"/>
      <use x="1654.589844" xlink:href="#DejaVuSans-108"/>
      <use x="1682.373047" xlink:href="#DejaVuSans-97"/>
      <use x="1743.652344" xlink:href="#DejaVuSans-116"/>
      <use x="1782.861328" xlink:href="#DejaVuSans-105"/>
      <use x="1810.644531" xlink:href="#DejaVuSans-111"/>
      <use x="1871.826172" xlink:href="#DejaVuSans-110"/>
     </g>
    </g>
   </g>
   <g id="line2d_15">
    <path clip-path="url(#pdb1e1c4ab0)" d="M 61.670455 206.792522 
L 62.977359 204.082923 
L 64.284264 203.179723 
L 65.591169 203.308751 
L 66.898074 201.45074 
L 68.204979 200.341094 
L 69.511884 197.66836 
L 72.125694 191.087903 
L 73.432599 186.276981 
L 76.046409 178.756459 
L 77.353314 175.327986 
L 78.660219 174.332623 
L 79.967124 170.682958 
L 81.274028 169.687594 
L 82.580933 171.457129 
L 83.887838 170.185276 
L 85.194743 169.300509 
L 86.501648 167.64157 
L 87.808553 166.425015 
L 89.115458 168.139252 
L 90.422363 167.696868 
L 91.729268 166.093227 
L 93.036173 166.148525 
L 94.343078 167.862762 
L 95.649983 170.406468 
L 96.956888 171.623023 
L 98.263793 171.788917 
L 99.570697 173.392557 
L 100.877602 175.383284 
L 102.184507 178.314075 
L 103.491412 180.304802 
L 104.798317 181.244867 
L 106.105222 182.79321 
L 107.412127 184.67334 
L 108.719032 185.22632 
L 110.025937 186.940556 
L 111.332842 188.323005 
L 112.639747 188.765389 
L 113.946652 189.760752 
L 115.253557 191.640883 
L 116.560461 192.415054 
L 117.867366 194.073993 
L 119.174271 193.631609 
L 120.481176 192.691544 
L 121.788081 192.636246 
L 123.094986 193.852801 
L 124.401891 193.410417 
L 125.708796 194.350482 
L 127.015701 194.848164 
L 128.322606 196.120017 
L 129.629511 197.613062 
L 132.243321 198.884915 
L 133.550226 199.216703 
L 134.85713 200.10147 
L 136.164035 200.267364 
L 137.47094 199.82498 
L 138.777845 200.599151 
L 140.08475 201.152131 
L 141.391655 200.37796 
L 142.69856 200.212066 
L 144.005465 199.327298 
L 145.31237 199.935576 
L 146.619275 201.318025 
L 147.92618 201.539217 
L 149.233085 202.202792 
L 150.53999 203.032261 
L 151.846895 204.138221 
L 153.153799 204.41471 
L 154.460704 205.188882 
L 155.767609 205.022988 
L 157.074514 205.022988 
L 158.381419 204.470008 
L 159.688324 204.193518 
L 160.995229 204.304114 
L 162.302134 206.073649 
L 163.609039 205.797159 
L 166.222849 206.018351 
L 167.529754 208.174971 
L 168.836659 209.55742 
L 171.450468 210.608081 
L 172.757373 212.045828 
L 175.371183 213.870661 
L 176.678088 213.760065 
L 177.984993 214.091852 
L 179.291898 214.810726 
L 181.905708 214.202448 
L 183.212613 214.589534 
L 184.519518 214.70013 
L 185.826423 215.142514 
L 191.054042 215.529599 
L 193.667852 214.866024 
L 194.974757 214.534236 
L 196.281662 214.42364 
L 197.588567 214.644832 
L 198.895472 215.197812 
L 200.202377 215.308407 
L 201.509282 215.640195 
L 204.123092 216.082579 
L 205.429997 216.524962 
L 206.736901 216.690856 
L 209.350711 216.469665 
L 210.657616 216.469665 
L 211.964521 216.635558 
L 215.885236 216.082579 
L 217.192141 216.193175 
L 218.499046 216.137877 
L 219.805951 216.359069 
L 221.112856 216.359069 
L 225.03357 216.912048 
L 226.340475 216.967346 
L 227.64738 217.354432 
L 231.568095 216.912048 
L 236.795715 216.635558 
L 238.10262 216.85675 
L 239.409525 216.801452 
L 240.71643 216.912048 
L 242.023334 216.801452 
L 243.330239 216.912048 
L 247.250954 216.801452 
L 248.557859 217.022644 
L 253.785479 217.077942 
L 256.399289 217.188538 
L 257.706194 217.077942 
L 259.013099 217.13324 
L 260.320003 216.967346 
L 261.626908 216.967346 
L 264.240718 216.524962 
L 269.468338 216.85675 
L 273.389053 217.465028 
L 276.002863 217.40973 
L 278.616672 217.520326 
L 279.923577 217.299134 
L 285.151197 217.40973 
L 289.071912 217.077942 
L 290.378817 216.746154 
L 292.992627 216.635558 
L 294.299532 216.58026 
L 296.913341 216.746154 
L 298.220246 216.746154 
L 299.527151 216.912048 
L 300.834056 216.85675 
L 306.061676 215.584897 
L 307.368581 215.529599 
L 309.982391 215.031918 
L 312.596201 215.363705 
L 313.903105 215.584897 
L 317.82382 215.363705 
L 320.43763 214.755428 
L 321.744535 214.14715 
L 323.05144 213.262383 
L 324.358345 212.598808 
L 325.66525 211.71404 
L 326.972155 210.497485 
L 329.585965 209.55742 
L 330.89287 208.506759 
L 332.199774 207.843184 
L 333.506679 207.732588 
L 334.813584 206.350139 
L 337.427394 206.516033 
L 338.734299 205.465371 
L 340.041204 205.465371 
L 342.655014 203.253453 
L 345.268824 202.976963 
L 346.575729 202.202792 
L 347.882634 201.705111 
L 349.189539 200.046172 
L 350.496443 198.055445 
L 353.110253 195.788229 
L 354.417158 193.963397 
L 355.724063 191.530287 
L 357.030968 188.599495 
L 358.337873 187.93592 
L 359.644778 187.770026 
L 360.951683 186.498173 
L 363.565493 182.682614 
L 364.872398 181.410761 
L 366.179303 180.802483 
L 367.486207 178.867055 
L 368.793112 177.871692 
L 370.100017 178.258777 
L 371.406922 176.433945 
L 372.713827 172.839578 
L 374.020732 171.401831 
L 375.327637 171.678321 
L 376.634542 171.180639 
L 377.941447 171.401831 
L 379.248352 168.747529 
L 380.555257 169.189913 
L 381.862162 173.392557 
L 383.169067 175.272688 
L 385.782876 175.549178 
L 387.089781 174.609112 
L 388.396686 175.936263 
L 389.703591 176.268051 
L 391.010496 175.880965 
L 392.317401 176.323349 
L 393.624306 176.489243 
L 394.931211 177.761096 
L 396.238116 179.862418 
L 398.851926 182.572018 
L 400.158831 183.346189 
L 402.772641 185.281618 
L 404.079545 185.392214 
L 404.079545 185.392214 
" style="fill:none;stroke:#1f77b4;stroke-linecap:square;stroke-width:1.5;"/>
   </g>
   <g id="line2d_16">
    <path clip-path="url(#pdb1e1c4ab0)" d="M 61.670455 198.280609 
L 62.977359 191.290281 
L 64.284264 189.851095 
L 65.591169 187.024124 
L 66.898074 184.670028 
L 68.204979 178.954407 
L 69.511884 172.140305 
L 72.125694 157.454741 
L 73.432599 151.609886 
L 74.739504 143.12163 
L 76.046409 132.166199 
L 77.353314 124.38285 
L 78.660219 113.985471 
L 79.967124 107.347596 
L 81.274028 105.967153 
L 82.580933 99.828587 
L 83.887838 99.593618 
L 85.194743 103.764318 
L 86.501648 105.585328 
L 87.808553 112.634399 
L 89.115458 118.743594 
L 90.422363 120.858315 
L 91.729268 127.437448 
L 93.036173 132.900477 
L 94.343078 136.013817 
L 95.649983 141.095022 
L 96.956888 149.730134 
L 99.570697 154.987566 
L 100.877602 158.100906 
L 102.184507 158.74707 
L 103.491412 160.30374 
L 104.798317 163.240853 
L 106.105222 163.94576 
L 107.412127 165.76677 
L 108.719032 168.322058 
L 110.025937 169.555646 
L 112.639747 173.814459 
L 113.946652 174.959933 
L 115.253557 174.813078 
L 116.560461 175.253644 
L 117.867366 175.4005 
L 119.174271 176.457861 
L 120.481176 178.455097 
L 121.788081 177.808933 
L 123.094986 178.866293 
L 124.401891 179.512458 
L 127.015701 181.891519 
L 128.322606 181.65655 
L 129.629511 182.185231 
L 130.936416 184.035612 
L 132.243321 184.740519 
L 133.550226 186.297189 
L 134.85713 187.002096 
L 136.164035 186.561529 
L 137.47094 187.031467 
L 138.777845 186.209075 
L 140.08475 186.532158 
L 141.391655 186.620271 
L 142.69856 186.5909 
L 144.005465 186.884611 
L 145.31237 188.41191 
L 146.619275 189.293044 
L 149.233085 192.935064 
L 150.53999 194.080538 
L 153.153799 195.314125 
L 154.460704 195.549094 
L 155.767609 195.460981 
L 157.074514 195.108527 
L 158.381419 195.049785 
L 159.688324 194.814816 
L 160.995229 195.226012 
L 162.302134 195.813434 
L 163.609039 197.047022 
L 164.915944 198.956145 
L 166.222849 200.042877 
L 167.529754 200.277846 
L 168.836659 200.953382 
L 170.143563 201.15898 
L 171.450468 201.68766 
L 172.757373 201.717031 
L 174.064278 201.070866 
L 175.371183 200.865268 
L 176.678088 201.100237 
L 177.984993 202.010742 
L 179.291898 203.156216 
L 180.598803 203.449928 
L 181.905708 203.890495 
L 183.212613 204.801 
L 184.519518 205.124082 
L 185.826423 205.799618 
L 188.440232 206.504525 
L 189.747137 207.297545 
L 191.054042 207.121319 
L 192.360947 207.121319 
L 193.667852 208.061195 
L 197.588567 209.294782 
L 198.895472 209.529751 
L 201.509282 210.880823 
L 202.816187 210.998308 
L 204.123092 211.292019 
L 206.736901 212.173153 
L 208.043806 212.34938 
L 209.350711 212.966173 
L 210.657616 213.083658 
L 211.964521 213.40674 
L 214.578331 213.788565 
L 215.885236 214.170389 
L 217.192141 214.43473 
L 222.419761 214.96341 
L 225.03357 215.080894 
L 228.954285 214.640328 
L 230.26119 214.610956 
L 231.568095 215.022152 
L 232.875 215.169008 
L 234.181905 215.139637 
L 236.795715 215.462719 
L 239.409525 215.785802 
L 240.71643 215.638946 
L 242.023334 215.844544 
L 243.330239 215.903286 
L 245.944049 216.285111 
L 248.557859 215.962028 
L 249.864764 216.226368 
L 251.171669 216.285111 
L 252.478574 216.461337 
L 255.092384 215.991399 
L 256.399289 215.903286 
L 257.706194 215.932657 
L 260.320003 215.374606 
L 261.626908 215.286492 
L 269.468338 215.991399 
L 272.082148 215.873915 
L 273.389053 216.108884 
L 274.695958 216.020771 
L 276.002863 216.050142 
L 277.309768 215.844544 
L 278.616672 215.903286 
L 279.923577 215.844544 
L 281.230482 216.020771 
L 283.844292 215.22775 
L 285.151197 214.904668 
L 286.458102 214.757812 
L 289.071912 213.729823 
L 290.378817 213.054287 
L 291.685722 212.643091 
L 292.992627 212.701833 
L 294.299532 212.34938 
L 295.606437 211.879441 
L 300.834056 211.145163 
L 302.140961 210.52837 
L 303.447866 210.175916 
L 304.754771 210.352143 
L 306.061676 209.529751 
L 307.368581 209.001071 
L 309.982391 207.67937 
L 311.289296 207.41503 
L 312.596201 207.268174 
L 313.903105 206.445783 
L 315.21001 206.62201 
L 317.82382 206.475154 
L 319.130725 206.298927 
L 320.43763 206.269556 
L 321.744535 205.682133 
L 323.05144 204.536659 
L 325.66525 203.156216 
L 326.972155 202.715649 
L 328.27906 202.128227 
L 329.585965 201.393949 
L 330.89287 200.424701 
L 332.199774 200.072248 
L 333.506679 197.634444 
L 334.813584 196.22463 
L 336.120489 194.198022 
L 337.427394 192.876321 
L 338.734299 191.995188 
L 341.348109 188.235683 
L 342.655014 186.85524 
L 343.961919 184.858003 
L 345.268824 182.390829 
L 346.575729 180.951643 
L 347.882634 179.013149 
L 349.189539 177.397737 
L 350.496443 174.313768 
L 351.803348 172.551501 
L 353.110253 171.611625 
L 355.724063 168.351429 
L 357.030968 166.119224 
L 358.337873 164.533183 
L 359.644778 164.356956 
L 360.951683 164.562554 
L 362.258588 162.535946 
L 363.565493 161.478585 
L 366.179303 158.688328 
L 367.486207 156.103669 
L 368.793112 152.784731 
L 371.406922 144.854527 
L 372.713827 143.562197 
L 374.020732 140.830682 
L 375.327637 139.47961 
L 376.634542 140.419486 
L 377.941447 140.595713 
L 379.248352 141.594331 
L 380.555257 143.239115 
L 381.862162 143.709053 
L 383.169067 145.089496 
L 384.475972 147.174846 
L 385.782876 147.909124 
L 387.089781 148.467175 
L 388.396686 149.201454 
L 389.703591 150.14133 
L 391.010496 152.549762 
L 392.317401 155.281277 
L 393.624306 155.927442 
L 394.931211 156.749834 
L 396.238116 159.334493 
L 397.545021 159.628204 
L 398.851926 160.244998 
L 400.158831 158.071534 
L 401.465736 154.429514 
L 402.772641 154.165174 
L 404.079545 152.814102 
L 404.079545 152.814102 
" style="fill:none;stroke:#ff7f0e;stroke-linecap:square;stroke-width:1.5;"/>
   </g>
   <g id="line2d_17">
    <path clip-path="url(#pdb1e1c4ab0)" d="M 61.670455 205.85737 
L 62.977359 206.490736 
L 64.284264 204.168392 
L 65.591169 203.260567 
L 66.898074 200.790437 
L 68.204979 196.610218 
L 69.511884 193.877694 
L 70.818789 188.521222 
L 73.432599 174.695735 
L 74.739504 168.000146 
L 76.046409 159.567323 
L 77.353314 154.64516 
L 78.660219 142.086406 
L 79.967124 133.870737 
L 81.274028 129.057152 
L 82.580933 127.754226 
L 83.887838 123.736873 
L 85.194743 121.420561 
L 86.501648 116.245051 
L 87.808553 122.759678 
L 89.115458 125.908415 
L 90.422363 127.862803 
L 91.729268 128.007573 
L 93.036173 130.034346 
L 94.343078 133.617391 
L 95.649983 138.684323 
L 96.956888 141.326366 
L 98.263793 143.534101 
L 99.570697 146.538068 
L 100.877602 148.673418 
L 102.184507 150.193498 
L 103.491412 151.170692 
L 104.798317 153.088888 
L 106.105222 153.342235 
L 107.412127 155.079469 
L 108.719032 155.549969 
L 110.025937 156.744318 
L 112.639747 158.083436 
L 113.946652 159.06063 
L 115.253557 159.6759 
L 116.560461 160.942633 
L 117.867366 163.33133 
L 119.174271 164.272332 
L 120.481176 166.769605 
L 124.401891 175.347198 
L 125.708796 176.107238 
L 127.015701 178.025434 
L 128.322606 179.002628 
L 129.629511 180.486515 
L 130.936416 181.644671 
L 132.243321 181.31894 
L 133.550226 181.17417 
L 134.85713 182.766635 
L 136.164035 182.585673 
L 137.47094 184.395292 
L 140.08475 187.688798 
L 141.391655 189.715571 
L 142.69856 191.525189 
L 144.005465 191.669959 
L 145.31237 192.538576 
L 146.619275 192.466191 
L 147.92618 192.828115 
L 149.233085 194.058656 
L 150.53999 194.565349 
L 151.846895 195.433966 
L 153.153799 197.207392 
L 154.460704 197.714085 
L 155.767609 198.510318 
L 157.074514 198.763664 
L 158.381419 198.618895 
L 159.688324 199.16178 
L 160.995229 200.211359 
L 162.302134 201.007591 
L 163.609039 201.079976 
L 164.915944 202.129555 
L 166.222849 203.541058 
L 167.529754 204.228713 
L 168.836659 204.554444 
L 170.143563 204.373482 
L 171.450468 204.626829 
L 172.757373 205.495446 
L 174.064278 205.821177 
L 175.371183 205.676408 
L 176.678088 205.784985 
L 177.984993 205.748792 
L 179.291898 205.893562 
L 180.598803 205.640215 
L 181.905708 206.074524 
L 183.212613 206.32787 
L 184.519518 207.051718 
L 185.826423 206.725987 
L 187.133328 207.377449 
L 188.440232 208.246066 
L 189.747137 208.825144 
L 193.667852 208.499413 
L 194.974757 209.729954 
L 196.281662 210.12807 
L 197.588567 210.200454 
L 200.202377 210.74334 
L 202.816187 211.539572 
L 205.429997 211.430995 
L 206.736901 211.50338 
L 208.043806 211.792919 
L 210.657616 211.973881 
L 211.964521 212.082458 
L 213.271426 212.046266 
L 215.885236 212.589151 
L 217.192141 212.697728 
L 218.499046 212.951075 
L 219.805951 213.530153 
L 221.112856 213.276806 
L 223.726666 214.724501 
L 226.340475 215.520733 
L 227.64738 215.520733 
L 228.954285 215.375964 
L 230.26119 215.701695 
L 231.568095 215.375964 
L 232.875 215.303579 
L 234.181905 215.412156 
L 235.48881 215.122617 
L 236.795715 215.267387 
L 239.409525 215.15881 
L 242.023334 214.507347 
L 248.557859 214.579732 
L 249.864764 215.122617 
L 251.171669 215.195002 
L 252.478574 214.941655 
L 253.785479 215.267387 
L 260.320003 215.846465 
L 261.626908 216.136004 
L 264.240718 215.91885 
L 265.547623 216.063619 
L 269.468338 215.991234 
L 270.775243 215.737888 
L 272.082148 215.701695 
L 273.389053 215.810272 
L 278.616672 215.448349 
L 281.230482 215.593118 
L 282.537387 215.375964 
L 286.458102 215.050233 
L 287.765007 214.652116 
L 289.071912 213.747307 
L 294.299532 210.924302 
L 296.913341 209.295645 
L 298.220246 209.042298 
L 299.527151 207.956527 
L 300.834056 206.725987 
L 302.140961 206.074524 
L 304.754771 203.179134 
L 306.061676 202.853403 
L 307.368581 201.116169 
L 308.675486 200.899014 
L 309.982391 200.899014 
L 311.289296 200.247552 
L 313.903105 199.994205 
L 315.21001 198.329356 
L 316.516915 198.148394 
L 317.82382 197.315969 
L 319.130725 196.013044 
L 325.66525 187.073527 
L 326.972155 185.73441 
L 328.27906 184.06956 
L 329.585965 183.056174 
L 332.199774 179.292167 
L 333.506679 178.495935 
L 334.813584 177.518741 
L 336.120489 175.383391 
L 337.427394 174.91289 
L 338.734299 172.560385 
L 340.041204 171.148883 
L 341.348109 169.375456 
L 342.655014 166.08195 
L 343.961919 162.317943 
L 345.268824 160.218786 
L 346.575729 156.78051 
L 347.882634 154.355621 
L 350.496443 147.044762 
L 351.803348 146.067567 
L 353.110253 142.955023 
L 354.417158 139.516748 
L 355.724063 139.227209 
L 357.030968 137.489975 
L 358.337873 136.476588 
L 359.644778 135.065086 
L 360.951683 132.857351 
L 362.258588 133.074505 
L 363.565493 132.784966 
L 364.872398 130.541039 
L 367.486207 129.672422 
L 368.793112 128.043765 
L 370.100017 124.352143 
L 371.406922 121.131022 
L 372.713827 120.515751 
L 374.020732 118.452786 
L 376.634542 117.222245 
L 377.941447 117.403207 
L 379.248352 122.072023 
L 380.555257 124.895029 
L 381.862162 125.510299 
L 383.169067 126.632262 
L 384.475972 129.346691 
L 387.089781 136.368011 
L 388.396686 138.539554 
L 389.703591 142.086406 
L 391.010496 145.054181 
L 392.317401 149.180112 
L 393.624306 151.351654 
L 394.931211 152.401233 
L 396.238116 154.826122 
L 398.851926 157.251011 
L 400.158831 157.866281 
L 401.465736 159.241592 
L 402.772641 158.553937 
L 404.079545 159.277784 
L 404.079545 159.277784 
" style="fill:none;stroke:#2ca02c;stroke-linecap:square;stroke-width:1.5;"/>
   </g>
   <g id="line2d_18">
    <path clip-path="url(#pdb1e1c4ab0)" d="M 61.670455 159.645511 
L 62.977359 155.754011 
L 64.284264 151.295001 
L 65.591169 147.606183 
L 66.898074 137.123456 
L 68.204979 124.784159 
L 70.818789 104.956041 
L 72.125694 92.20443 
L 73.432599 83.865502 
L 74.739504 72.156257 
L 76.046409 59.022446 
L 77.353314 58.744481 
L 78.660219 55.547892 
L 79.967124 44.568304 
L 81.274028 44.290339 
L 82.580933 37.966652 
L 83.887838 35.88192 
L 85.194743 40.746295 
L 86.501648 38.070889 
L 87.808553 38.870036 
L 89.115458 48.633531 
L 90.422363 52.664013 
L 91.729268 61.107178 
L 94.343078 84.560413 
L 95.649983 94.115435 
L 96.956888 105.650952 
L 99.570697 117.429688 
L 100.877602 124.622013 
L 102.184507 127.888093 
L 103.491412 131.640611 
L 104.798317 137.165151 
L 106.105222 143.662565 
L 107.412127 147.901521 
L 108.719032 154.398935 
L 110.025937 159.471783 
L 111.332842 163.050573 
L 112.639747 164.683613 
L 113.946652 166.073435 
L 115.253557 166.525127 
L 116.560461 169.409006 
L 117.867366 168.36664 
L 119.174271 167.914948 
L 120.481176 168.957314 
L 121.788081 172.153903 
L 123.094986 174.58609 
L 124.401891 174.447108 
L 125.708796 173.786943 
L 127.015701 177.330987 
L 129.629511 182.05638 
L 130.936416 184.766532 
L 132.243321 188.171594 
L 133.550226 192.514786 
L 134.85713 196.37154 
L 136.164035 197.135942 
L 137.47094 198.039325 
L 138.777845 199.255419 
L 140.08475 199.846093 
L 141.391655 199.533383 
L 142.69856 200.228294 
L 144.005465 200.749477 
L 145.31237 200.749477 
L 146.619275 201.305406 
L 147.92618 201.652861 
L 150.53999 203.285901 
L 151.846895 203.355392 
L 153.153799 204.015557 
L 154.460704 204.918941 
L 155.767609 205.370633 
L 158.381419 205.370633 
L 159.688324 205.926562 
L 163.609039 205.961307 
L 167.529754 204.189285 
L 168.836659 204.745213 
L 171.450468 206.586727 
L 172.757373 207.281637 
L 174.064278 208.185021 
L 175.371183 209.366369 
L 176.678088 210.06128 
L 177.984993 209.331624 
L 180.598803 208.185021 
L 181.905708 207.594347 
L 183.212613 207.629093 
L 184.519518 207.524856 
L 187.133328 206.690963 
L 191.054042 207.246892 
L 192.360947 206.899437 
L 193.667852 207.142655 
L 196.281662 209.957043 
L 197.588567 209.887552 
L 200.202377 211.242628 
L 201.509282 211.69432 
L 202.816187 211.520593 
L 204.123092 211.173137 
L 205.429997 211.242628 
L 206.736901 212.041776 
L 208.043806 212.041776 
L 209.350711 211.833302 
L 210.657616 211.798557 
L 211.964521 212.041776 
L 213.271426 212.458722 
L 219.805951 213.779052 
L 221.112856 214.091762 
L 222.419761 214.230744 
L 225.03357 214.890909 
L 226.340475 215.238365 
L 228.954285 215.342601 
L 230.26119 215.27311 
L 232.875 215.551074 
L 234.181905 215.551074 
L 235.48881 215.863784 
L 236.795715 216.315476 
L 239.409525 216.280731 
L 240.71643 216.558695 
L 243.330239 216.59344 
L 247.250954 216.454458 
L 248.557859 216.454458 
L 249.864764 216.21124 
L 251.171669 215.759548 
L 252.478574 216.002766 
L 256.399289 215.829039 
L 257.706194 215.933275 
L 259.013099 216.176494 
L 260.320003 216.59344 
L 261.626908 216.523949 
L 265.547623 216.767168 
L 268.161433 216.59344 
L 269.468338 216.489204 
L 272.082148 216.59344 
L 274.695958 216.280731 
L 278.616672 216.454458 
L 279.923577 216.245985 
L 281.230482 215.89853 
L 282.537387 215.89853 
L 283.844292 215.307856 
L 285.151197 215.099382 
L 286.458102 215.134128 
L 291.685722 214.543454 
L 292.992627 214.682436 
L 294.299532 214.300235 
L 295.606437 213.396851 
L 296.913341 212.875668 
L 299.527151 212.284994 
L 300.834056 211.312119 
L 306.061676 209.574843 
L 307.368581 209.192642 
L 308.675486 208.532477 
L 311.289296 208.845186 
L 313.903105 209.922298 
L 315.21001 209.887552 
L 316.516915 210.06128 
L 319.130725 209.922298 
L 320.43763 209.574843 
L 321.744535 209.43586 
L 323.05144 208.775695 
L 324.358345 208.532477 
L 325.66525 208.011294 
L 326.972155 208.393494 
L 328.27906 207.768075 
L 329.585965 207.316383 
L 332.199774 205.752834 
L 334.813584 203.668102 
L 336.120489 202.313026 
L 337.427394 201.89608 
L 338.734299 200.64524 
L 340.041204 199.081691 
L 341.348109 198.352035 
L 342.655014 197.796107 
L 343.961919 196.475776 
L 345.268824 195.43341 
L 346.575729 193.41817 
L 349.189539 191.889366 
L 350.496443 189.630906 
L 351.803348 188.935996 
L 353.110253 189.005487 
L 354.417158 187.89363 
L 355.724063 187.858884 
L 357.030968 187.024991 
L 358.337873 186.469063 
L 359.644778 187.129228 
L 360.951683 187.337701 
L 362.258588 186.9555 
L 364.872398 188.58854 
L 366.179303 189.387688 
L 367.486207 188.831759 
L 368.793112 188.831759 
L 370.100017 187.302956 
L 371.406922 186.920755 
L 375.327637 183.480947 
L 377.941447 182.160617 
L 379.248352 181.986889 
L 380.555257 180.42334 
L 381.862162 179.693684 
L 383.169067 180.388594 
L 384.475972 179.485211 
L 385.782876 180.353849 
L 387.089781 180.597068 
L 388.396686 181.326724 
L 389.703591 180.597068 
L 391.010496 181.222487 
L 392.317401 180.944523 
L 393.624306 182.959764 
L 394.931211 182.647054 
L 396.238116 182.6818 
L 397.545021 181.674179 
L 398.851926 182.994509 
L 400.158831 182.959764 
L 401.465736 181.361469 
L 402.772641 180.180121 
L 404.079545 179.311483 
L 404.079545 179.311483 
" style="fill:none;stroke:#d62728;stroke-linecap:square;stroke-width:1.5;"/>
   </g>
   <g id="line2d_19">
    <path clip-path="url(#pdb1e1c4ab0)" d="M 61.670455 203.510001 
L 62.977359 202.120936 
L 65.591169 198.185254 
L 66.898074 196.842492 
L 68.204979 194.095231 
L 69.511884 189.266578 
L 70.818789 183.22525 
L 72.125694 176.037393 
L 73.432599 169.907871 
L 74.739504 164.836683 
L 76.046409 150.10819 
L 77.353314 140.406788 
L 78.660219 128.103645 
L 79.967124 117.079324 
L 81.274028 107.069241 
L 83.887838 90.797343 
L 85.194743 92.032067 
L 86.501648 90.576857 
L 87.808553 93.046305 
L 89.115458 91.150121 
L 90.422363 95.295266 
L 94.343078 106.672365 
L 95.649983 111.346678 
L 96.956888 118.534535 
L 98.263793 128.368229 
L 99.570697 131.851915 
L 100.877602 136.570324 
L 103.491412 143.537695 
L 104.798317 143.93457 
L 106.105222 145.389781 
L 107.412127 148.564785 
L 108.719032 151.298817 
L 110.025937 151.475206 
L 111.332842 152.930416 
L 112.639747 153.062708 
L 113.946652 155.973129 
L 115.253557 155.399864 
L 116.560461 153.988751 
L 117.867366 155.31167 
L 119.174271 156.017226 
L 120.481176 155.443961 
L 121.788081 156.943269 
L 123.094986 156.634588 
L 124.401891 159.677301 
L 125.708796 161.088414 
L 127.015701 161.617581 
L 128.322606 162.45543 
L 129.629511 164.131126 
L 130.936416 163.513764 
L 132.243321 164.175224 
L 133.550226 162.9405 
L 136.164035 164.439807 
L 138.777845 163.381473 
L 140.08475 164.792586 
L 141.391655 165.36585 
L 142.69856 166.909255 
L 144.005465 166.865158 
L 145.31237 166.556477 
L 146.619275 168.893633 
L 147.92618 170.701622 
L 149.233085 172.906486 
L 150.53999 175.59642 
L 151.846895 175.728712 
L 153.153799 176.610658 
L 154.460704 178.330452 
L 155.767609 179.565176 
L 157.074514 179.65337 
L 158.381419 178.418646 
L 159.688324 178.021771 
L 160.995229 179.1683 
L 162.302134 180.094343 
L 163.609039 182.122818 
L 164.915944 183.930807 
L 166.222849 186.576644 
L 167.529754 190.148524 
L 168.836659 191.162761 
L 170.143563 191.559637 
L 171.450468 192.573874 
L 172.757373 191.824221 
L 174.064278 191.51554 
L 175.371183 190.898178 
L 176.678088 190.457205 
L 177.984993 191.118664 
L 179.291898 192.706166 
L 180.598803 194.029085 
L 181.905708 195.57249 
L 184.519518 197.99784 
L 185.826423 198.394716 
L 187.133328 199.761732 
L 188.440232 200.026315 
L 189.747137 200.820067 
L 191.054042 200.996456 
L 192.360947 200.379094 
L 193.667852 201.040553 
L 196.281662 203.818682 
L 197.588567 205.758962 
L 198.895472 207.346465 
L 200.202377 208.360702 
L 201.509282 209.639523 
L 204.123092 211.050636 
L 206.736901 211.579804 
L 208.043806 211.271123 
L 209.350711 212.197166 
L 210.657616 212.505847 
L 211.964521 213.167306 
L 213.271426 213.255501 
L 214.578331 213.123209 
L 215.885236 213.167306 
L 217.192141 213.343695 
L 218.499046 213.299598 
L 219.805951 213.387792 
L 221.112856 213.167306 
L 223.726666 212.505847 
L 225.03357 212.373555 
L 226.340475 212.064874 
L 227.64738 211.535707 
L 230.26119 211.491609 
L 231.568095 212.108971 
L 234.181905 213.035014 
L 235.48881 213.299598 
L 236.795715 213.740571 
L 239.409525 213.784668 
L 240.71643 213.475987 
L 242.023334 213.696473 
L 243.330239 213.696473 
L 244.637144 214.049252 
L 245.944049 213.828765 
L 247.250954 212.505847 
L 248.557859 212.594041 
L 249.864764 212.94682 
L 251.171669 212.858625 
L 253.785479 213.035014 
L 255.092384 213.475987 
L 256.399289 215.107587 
L 257.706194 215.416268 
L 260.320003 215.636754 
L 261.626908 215.063489 
L 262.933813 215.328073 
L 264.240718 215.063489 
L 265.547623 215.195781 
L 266.854528 214.931197 
L 269.468338 215.019392 
L 270.775243 215.460365 
L 272.082148 214.710711 
L 273.389053 214.754808 
L 274.695958 214.137446 
L 276.002863 214.049252 
L 277.309768 213.828765 
L 279.923577 213.035014 
L 282.537387 212.94682 
L 283.844292 212.505847 
L 285.151197 211.535707 
L 286.458102 210.786053 
L 289.071912 210.433274 
L 290.378817 209.551329 
L 291.685722 208.360702 
L 294.299532 206.640908 
L 295.606437 205.935351 
L 296.913341 204.083266 
L 298.220246 202.848542 
L 299.527151 202.187082 
L 300.834056 202.054791 
L 302.140961 201.790207 
L 303.447866 201.128748 
L 304.754771 199.14437 
L 306.061676 198.350619 
L 307.368581 196.454435 
L 308.675486 195.484295 
L 309.982391 194.293669 
L 311.289296 193.676307 
L 312.596201 193.367626 
L 313.903105 192.573874 
L 316.516915 192.309291 
L 319.130725 187.94366 
L 320.43763 185.121433 
L 321.744535 179.1683 
L 323.05144 177.801284 
L 324.358345 173.259264 
L 325.66525 171.318984 
L 326.972155 169.114119 
L 328.27906 166.556477 
L 329.585965 164.483905 
L 330.89287 164.439807 
L 332.199774 160.956122 
L 333.506679 158.354382 
L 336.120489 151.387011 
L 337.427394 150.681455 
L 338.734299 146.492213 
L 340.041204 143.537695 
L 341.348109 143.096722 
L 342.655014 143.229014 
L 343.961919 141.950193 
L 345.268824 142.611652 
L 346.575729 139.127966 
L 347.882634 138.863383 
L 350.496443 133.439417 
L 353.110253 127.089408 
L 354.417158 122.811971 
L 355.724063 123.64982 
L 357.030968 123.561625 
L 358.337873 125.413711 
L 359.644778 125.678295 
L 360.951683 127.309894 
L 362.258588 127.794964 
L 363.565493 131.896012 
L 364.872398 134.056779 
L 366.179303 135.159211 
L 367.486207 134.938724 
L 368.793112 136.085254 
L 370.100017 135.203308 
L 371.406922 135.115114 
L 372.713827 132.513374 
L 374.020732 131.27865 
L 375.327637 132.645666 
L 376.634542 135.556086 
L 377.941447 134.453654 
L 379.248352 135.291503 
L 380.555257 138.157826 
L 381.862162 141.685609 
L 383.169067 144.110959 
L 384.475972 145.830754 
L 385.782876 146.53631 
L 387.089781 151.210622 
L 388.396686 155.355767 
L 389.703591 156.810977 
L 391.010496 158.486674 
L 392.317401 158.133896 
L 393.624306 159.633203 
L 394.931211 160.647441 
L 396.238116 160.779733 
L 397.545021 159.500912 
L 398.851926 162.146749 
L 401.465736 163.469667 
L 402.772641 163.116889 
L 404.079545 163.601959 
L 404.079545 163.601959 
" style="fill:none;stroke:#9467bd;stroke-linecap:square;stroke-width:1.5;"/>
   </g>
   <g id="line2d_20">
    <path clip-path="url(#pdb1e1c4ab0)" d="M 61.670455 210.339413 
L 62.977359 210.339413 
L 64.284264 208.781437 
L 65.591169 207.000893 
L 66.898074 206.132878 
L 68.204979 202.215682 
L 69.511884 200.848479 
L 70.818789 194.31452 
L 72.125694 190.928307 
L 73.432599 186.779005 
L 74.739504 179.529648 
L 76.046409 174.664949 
L 77.353314 172.757223 
L 78.660219 168.417148 
L 79.967124 167.272513 
L 81.274028 162.598586 
L 82.580933 160.738554 
L 83.887838 159.832384 
L 85.194743 155.873854 
L 86.501648 155.015378 
L 87.808553 152.535335 
L 89.115458 152.15379 
L 90.422363 151.056848 
L 91.729268 150.961461 
L 93.036173 154.58614 
L 94.343078 155.396923 
L 95.649983 154.299981 
L 96.956888 159.355453 
L 99.570697 165.078629 
L 100.877602 163.838607 
L 102.184507 163.647835 
L 103.491412 167.844831 
L 104.798317 169.704863 
L 106.105222 169.371011 
L 107.412127 169.609477 
L 108.719032 170.229487 
L 110.025937 173.234155 
L 112.639747 173.186462 
L 115.253557 169.704863 
L 116.560461 166.366344 
L 117.867366 167.034047 
L 119.174271 167.844831 
L 120.481176 166.986354 
L 121.788081 167.98791 
L 123.094986 172.471065 
L 124.401891 173.854166 
L 125.708796 177.765002 
L 127.015701 180.483511 
L 128.322606 180.960442 
L 129.629511 185.49129 
L 130.936416 186.349767 
L 132.243321 185.109745 
L 133.550226 187.780561 
L 134.85713 189.115968 
L 136.164035 188.066719 
L 137.47094 189.44982 
L 138.777845 188.782116 
L 140.08475 189.115968 
L 141.391655 190.546762 
L 142.69856 189.545206 
L 145.31237 190.689842 
L 149.233085 195.268383 
L 150.53999 195.316076 
L 151.846895 197.033028 
L 154.460704 199.369992 
L 155.767609 199.179219 
L 157.074514 200.276162 
L 158.381419 199.94231 
L 159.688324 201.134638 
L 160.995229 201.659262 
L 162.302134 201.420797 
L 163.609039 201.897728 
L 164.915944 202.517739 
L 166.222849 202.374659 
L 167.529754 203.805453 
L 168.836659 204.568544 
L 170.143563 204.902396 
L 172.757373 206.33319 
L 174.064278 206.237803 
L 175.371183 205.951644 
L 176.678088 204.568544 
L 177.984993 205.093168 
L 179.291898 204.902396 
L 181.905708 205.188554 
L 183.212613 205.808565 
L 185.826423 207.239359 
L 187.133328 207.811677 
L 188.440232 208.908619 
L 191.054042 208.527074 
L 192.360947 208.717846 
L 193.667852 209.337857 
L 194.974757 210.387106 
L 197.588567 210.434799 
L 198.895472 211.388662 
L 200.202377 212.485604 
L 201.509282 212.390218 
L 202.816187 211.674821 
L 204.123092 211.627127 
L 206.736901 211.913286 
L 208.043806 212.58099 
L 209.350711 212.58099 
L 210.657616 212.819456 
L 211.964521 213.439466 
L 214.578331 213.630239 
L 215.885236 213.48716 
L 217.192141 213.057921 
L 218.499046 213.010228 
L 221.112856 213.439466 
L 223.726666 214.441022 
L 225.03357 214.727181 
L 226.340475 214.393329 
L 227.64738 214.297943 
L 228.954285 213.916398 
L 230.26119 213.868705 
L 231.568095 213.391773 
L 232.875 213.296387 
L 234.181905 213.534853 
L 235.48881 214.297943 
L 236.795715 214.631795 
L 238.10262 215.299499 
L 239.409525 215.299499 
L 240.71643 215.824123 
L 244.637144 216.348748 
L 247.250954 215.919509 
L 248.557859 216.110282 
L 251.171669 215.967203 
L 252.478574 216.157975 
L 253.785479 216.062589 
L 260.320003 216.587213 
L 261.626908 216.444134 
L 264.240718 216.873372 
L 266.854528 216.968758 
L 268.161433 217.207224 
L 269.468338 217.016451 
L 273.389053 216.968758 
L 274.695958 216.825679 
L 277.309768 216.873372 
L 278.616672 217.159531 
L 281.230482 216.873372 
L 283.844292 216.873372 
L 285.151197 216.873372 
L 286.458102 216.634906 
L 287.765007 216.634906 
L 289.071912 216.777986 
L 290.378817 216.777986 
L 295.606437 215.919509 
L 296.913341 215.394885 
L 299.527151 215.204112 
L 300.834056 215.299499 
L 302.140961 215.633351 
L 303.447866 215.537964 
L 306.061676 215.824123 
L 307.368581 215.871816 
L 308.675486 215.537964 
L 309.982391 214.965647 
L 313.903105 213.868705 
L 315.21001 213.916398 
L 316.516915 213.391773 
L 317.82382 213.48716 
L 319.130725 213.34408 
L 320.43763 213.010228 
L 321.744535 212.962535 
L 323.05144 212.485604 
L 325.66525 212.485604 
L 326.972155 211.913286 
L 328.27906 211.913286 
L 329.585965 212.056366 
L 330.89287 211.531741 
L 332.199774 211.484048 
L 333.506679 210.482492 
L 334.813584 210.005561 
L 336.120489 209.147084 
L 337.427394 208.956312 
L 338.734299 207.954756 
L 340.041204 207.287052 
L 341.348109 206.380883 
L 342.655014 206.33319 
L 343.961919 205.236247 
L 345.268824 204.759316 
L 346.575729 203.185443 
L 347.882634 202.946977 
L 349.189539 201.945421 
L 350.496443 201.373104 
L 354.417158 198.845368 
L 355.724063 198.320743 
L 357.030968 197.653039 
L 358.337873 197.414574 
L 359.644778 197.414574 
L 360.951683 196.222245 
L 362.258588 195.316076 
L 363.565493 195.363769 
L 364.872398 195.649928 
L 367.486207 195.411462 
L 368.793112 193.122192 
L 370.100017 191.834477 
L 371.406922 191.11908 
L 372.713827 188.257492 
L 374.020732 187.208243 
L 375.327637 185.825142 
L 376.634542 183.96511 
L 377.941447 184.966666 
L 379.248352 185.109745 
L 380.555257 184.775893 
L 381.862162 186.39746 
L 383.169067 185.348211 
L 384.475972 186.015915 
L 385.782876 184.966666 
L 387.089781 184.298962 
L 388.396686 184.155882 
L 391.010496 185.014359 
L 392.317401 186.969777 
L 393.624306 186.302073 
L 394.931211 188.400571 
L 396.238116 186.779005 
L 397.545021 185.872835 
L 398.851926 185.395904 
L 401.465736 181.53276 
L 404.079545 178.909638 
L 404.079545 178.909638 
" style="fill:none;stroke:#8c564b;stroke-linecap:square;stroke-width:1.5;"/>
   </g>
   <g id="line2d_21">
    <path clip-path="url(#pdb1e1c4ab0)" d="M 61.670455 192.785854 
L 62.977359 194.378175 
L 64.284264 194.827291 
L 65.591169 194.868119 
L 68.204979 192.908341 
L 70.818789 190.336131 
L 72.125694 185.436684 
L 73.432599 179.872311 
L 74.739504 173.608018 
L 76.046409 166.50382 
L 79.967124 148.340869 
L 82.580933 141.341659 
L 83.887838 141.201675 
L 85.194743 140.88671 
L 86.501648 138.856939 
L 87.808553 140.781722 
L 89.115458 142.04158 
L 90.422363 144.246331 
L 91.729268 148.200885 
L 93.036173 149.915692 
L 94.343078 153.380301 
L 95.649983 159.259637 
L 96.956888 159.994554 
L 98.263793 158.594712 
L 99.570697 158.909677 
L 100.877602 160.83446 
L 102.184507 161.849345 
L 103.491412 161.849345 
L 104.798317 161.394396 
L 106.105222 162.304294 
L 107.412127 167.378721 
L 108.719032 168.253622 
L 110.025937 168.673575 
L 111.332842 169.268508 
L 112.639747 170.248397 
L 113.946652 171.82322 
L 115.253557 172.033196 
L 116.560461 172.628129 
L 117.867366 175.462809 
L 119.174271 176.372706 
L 120.481176 177.947529 
L 121.788081 180.677221 
L 123.094986 182.147055 
L 124.401891 184.561782 
L 125.708796 186.556557 
L 127.015701 188.761308 
L 128.322606 190.371127 
L 129.629511 190.301135 
L 130.936416 190.581103 
L 132.243321 190.651095 
L 133.550226 191.630985 
L 134.85713 191.421008 
L 136.164035 191.630985 
L 137.47094 192.505886 
L 138.777845 194.080708 
L 140.08475 194.395673 
L 141.391655 194.850621 
L 142.69856 194.570653 
L 144.005465 195.445554 
L 145.31237 195.690527 
L 146.619275 196.110479 
L 147.92618 196.670416 
L 150.53999 198.210242 
L 151.846895 199.435104 
L 153.153799 199.750069 
L 154.460704 200.205017 
L 155.767609 199.680076 
L 157.074514 200.79995 
L 158.381419 201.709847 
L 159.688324 201.394883 
L 160.995229 201.919824 
L 164.915944 204.404543 
L 166.222849 204.509532 
L 167.529754 205.13946 
L 168.836659 206.679287 
L 170.143563 207.869152 
L 171.450468 208.884038 
L 172.757373 209.373983 
L 174.064278 210.1089 
L 175.371183 210.003912 
L 176.678088 209.758939 
L 177.984993 209.828931 
L 179.291898 209.653951 
L 181.905708 209.933919 
L 183.212613 209.688947 
L 184.519518 210.353872 
L 187.133328 211.368758 
L 188.440232 211.403754 
L 189.747137 211.228773 
L 193.667852 211.578734 
L 194.974757 211.893698 
L 196.281662 211.543738 
L 197.588567 211.543738 
L 198.895472 211.78871 
L 200.202377 211.893698 
L 202.816187 212.558623 
L 204.123092 212.698607 
L 206.736901 213.258544 
L 208.043806 213.083564 
L 209.350711 213.188552 
L 211.964521 213.678497 
L 213.271426 213.468521 
L 214.578331 213.748489 
L 215.885236 213.888473 
L 217.192141 214.238434 
L 219.805951 214.483406 
L 221.112856 214.308426 
L 222.419761 214.903359 
L 223.726666 215.183327 
L 226.340475 215.428299 
L 227.64738 215.358307 
L 230.26119 215.638276 
L 232.875 215.288315 
L 235.48881 215.498292 
L 236.795715 215.638276 
L 238.10262 215.393303 
L 239.409525 215.533288 
L 240.71643 215.848252 
L 242.023334 215.95324 
L 243.330239 215.848252 
L 247.250954 216.443185 
L 249.864764 216.478181 
L 251.171669 216.688157 
L 252.478574 216.653161 
L 253.785479 216.373193 
L 255.092384 216.268205 
L 256.399289 216.408189 
L 260.320003 216.233209 
L 264.240718 216.898134 
L 270.775243 216.513177 
L 273.389053 216.058228 
L 274.695958 216.058228 
L 276.002863 216.268205 
L 278.616672 216.408189 
L 279.923577 216.233209 
L 281.230482 216.373193 
L 291.685722 215.743264 
L 295.606437 215.218323 
L 300.834056 215.568284 
L 302.140961 215.428299 
L 303.447866 215.533288 
L 306.061676 215.078339 
L 307.368581 214.693382 
L 309.982391 214.133446 
L 316.516915 214.44841 
L 317.82382 214.413414 
L 319.130725 214.62339 
L 320.43763 214.44841 
L 321.744535 214.028457 
L 324.358345 213.363532 
L 326.972155 211.998686 
L 328.27906 211.228773 
L 332.199774 209.968915 
L 333.506679 209.164006 
L 334.813584 209.268994 
L 336.120489 208.709058 
L 337.427394 208.744054 
L 338.734299 208.60407 
L 341.348109 207.659176 
L 342.655014 208.044133 
L 345.268824 206.224338 
L 346.575729 204.929484 
L 350.496443 201.674851 
L 351.803348 200.030037 
L 353.110253 199.4701 
L 354.417158 198.560203 
L 355.724063 198.070258 
L 357.030968 196.915388 
L 358.337873 196.180471 
L 359.644778 195.165586 
L 360.951683 195.270574 
L 362.258588 194.290685 
L 363.565493 192.995831 
L 364.872398 192.190921 
L 367.486207 188.65632 
L 368.793112 187.886407 
L 370.100017 186.871522 
L 372.713827 184.036842 
L 374.020732 184.386802 
L 375.327637 185.016731 
L 376.634542 185.261703 
L 377.941447 185.191711 
L 379.248352 184.106834 
L 380.555257 183.581893 
L 381.862162 182.881972 
L 383.169067 181.202161 
L 384.475972 179.732327 
L 385.782876 179.242382 
L 387.089781 178.577458 
L 388.396686 178.332485 
L 389.703591 178.262493 
L 391.010496 180.537236 
L 392.317401 181.272153 
L 393.624306 182.217047 
L 394.931211 181.517126 
L 396.238116 181.727102 
L 397.545021 182.217047 
L 398.851926 181.762098 
L 400.158831 179.242382 
L 401.465736 177.457584 
L 402.772641 176.057742 
L 404.079545 174.972864 
L 404.079545 174.972864 
" style="fill:none;stroke:#e377c2;stroke-linecap:square;stroke-width:1.5;"/>
   </g>
   <g id="line2d_22"/>
   <g id="line2d_23"/>
   <g id="line2d_24"/>
   <g id="line2d_25"/>
   <g id="line2d_26"/>
   <g id="line2d_27"/>
   <g id="line2d_28"/>
   <g id="patch_3">
    <path d="M 44.55 226.602246 
L 44.55 26.8 
" style="fill:none;stroke:#000000;stroke-linecap:square;stroke-linejoin:miter;stroke-width:0.8;"/>
   </g>
   <g id="patch_4">
    <path d="M 421.2 226.602246 
L 421.2 26.8 
" style="fill:none;stroke:#000000;stroke-linecap:square;stroke-linejoin:miter;stroke-width:0.8;"/>
   </g>
   <g id="patch_5">
    <path d="M 44.55 226.602246 
L 421.2 226.602246 
" style="fill:none;stroke:#000000;stroke-linecap:square;stroke-linejoin:miter;stroke-width:0.8;"/>
   </g>
   <g id="patch_6">
    <path d="M 44.55 26.8 
L 421.2 26.8 
" style="fill:none;stroke:#000000;stroke-linecap:square;stroke-linejoin:miter;stroke-width:0.8;"/>
   </g>
   <g id="text_17">
    <!-- New admissions per million people by NHS region (7 day rolling) -->
    <g transform="translate(39.615938 20.8)scale(0.12 -0.12)">
     <defs>
      <path d="M 48.6875 27.296875 
Q 48.6875 37.203125 44.609375 42.84375 
Q 40.53125 48.484375 33.40625 48.484375 
Q 26.265625 48.484375 22.1875 42.84375 
Q 18.109375 37.203125 18.109375 27.296875 
Q 18.109375 17.390625 22.1875 11.75 
Q 26.265625 6.109375 33.40625 6.109375 
Q 40.53125 6.109375 44.609375 11.75 
Q 48.6875 17.390625 48.6875 27.296875 
z
M 18.109375 46.390625 
Q 20.953125 51.265625 25.265625 53.625 
Q 29.59375 56 35.59375 56 
Q 45.5625 56 51.78125 48.09375 
Q 58.015625 40.1875 58.015625 27.296875 
Q 58.015625 14.40625 51.78125 6.484375 
Q 45.5625 -1.421875 35.59375 -1.421875 
Q 29.59375 -1.421875 25.265625 0.953125 
Q 20.953125 3.328125 18.109375 8.203125 
L 18.109375 0 
L 9.078125 0 
L 9.078125 75.984375 
L 18.109375 75.984375 
z
" id="DejaVuSans-98"/>
      <path d="M 32.171875 -5.078125 
Q 28.375 -14.84375 24.75 -17.8125 
Q 21.140625 -20.796875 15.09375 -20.796875 
L 7.90625 -20.796875 
L 7.90625 -13.28125 
L 13.1875 -13.28125 
Q 16.890625 -13.28125 18.9375 -11.515625 
Q 21 -9.765625 23.484375 -3.21875 
L 25.09375 0.875 
L 2.984375 54.6875 
L 12.5 54.6875 
L 29.59375 11.921875 
L 46.6875 54.6875 
L 56.203125 54.6875 
z
" id="DejaVuSans-121"/>
      <path d="M 9.8125 72.90625 
L 19.671875 72.90625 
L 19.671875 43.015625 
L 55.515625 43.015625 
L 55.515625 72.90625 
L 65.375 72.90625 
L 65.375 0 
L 55.515625 0 
L 55.515625 34.71875 
L 19.671875 34.71875 
L 19.671875 0 
L 9.8125 0 
z
" id="DejaVuSans-72"/>
      <path d="M 53.515625 70.515625 
L 53.515625 60.890625 
Q 47.90625 63.578125 42.921875 64.890625 
Q 37.9375 66.21875 33.296875 66.21875 
Q 25.25 66.21875 20.875 63.09375 
Q 16.5 59.96875 16.5 54.203125 
Q 16.5 49.359375 19.40625 46.890625 
Q 22.3125 44.4375 30.421875 42.921875 
L 36.375 41.703125 
Q 47.40625 39.59375 52.65625 34.296875 
Q 57.90625 29 57.90625 20.125 
Q 57.90625 9.515625 50.796875 4.046875 
Q 43.703125 -1.421875 29.984375 -1.421875 
Q 24.8125 -1.421875 18.96875 -0.25 
Q 13.140625 0.921875 6.890625 3.21875 
L 6.890625 13.375 
Q 12.890625 10.015625 18.65625 8.296875 
Q 24.421875 6.59375 29.984375 6.59375 
Q 38.421875 6.59375 43.015625 9.90625 
Q 47.609375 13.234375 47.609375 19.390625 
Q 47.609375 24.75 44.3125 27.78125 
Q 41.015625 30.8125 33.5 32.328125 
L 27.484375 33.5 
Q 16.453125 35.6875 11.515625 40.375 
Q 6.59375 45.0625 6.59375 53.421875 
Q 6.59375 63.09375 13.40625 68.65625 
Q 20.21875 74.21875 32.171875 74.21875 
Q 37.3125 74.21875 42.625 73.28125 
Q 47.953125 72.359375 53.515625 70.515625 
z
" id="DejaVuSans-83"/>
      <path d="M 45.40625 27.984375 
Q 45.40625 37.75 41.375 43.109375 
Q 37.359375 48.484375 30.078125 48.484375 
Q 22.859375 48.484375 18.828125 43.109375 
Q 14.796875 37.75 14.796875 27.984375 
Q 14.796875 18.265625 18.828125 12.890625 
Q 22.859375 7.515625 30.078125 7.515625 
Q 37.359375 7.515625 41.375 12.890625 
Q 45.40625 18.265625 45.40625 27.984375 
z
M 54.390625 6.78125 
Q 54.390625 -7.171875 48.1875 -13.984375 
Q 42 -20.796875 29.203125 -20.796875 
Q 24.46875 -20.796875 20.265625 -20.09375 
Q 16.0625 -19.390625 12.109375 -17.921875 
L 12.109375 -9.1875 
Q 16.0625 -11.328125 19.921875 -12.34375 
Q 23.78125 -13.375 27.78125 -13.375 
Q 36.625 -13.375 41.015625 -8.765625 
Q 45.40625 -4.15625 45.40625 5.171875 
L 45.40625 9.625 
Q 42.625 4.78125 38.28125 2.390625 
Q 33.9375 0 27.875 0 
Q 17.828125 0 11.671875 7.65625 
Q 5.515625 15.328125 5.515625 27.984375 
Q 5.515625 40.671875 11.671875 48.328125 
Q 17.828125 56 27.875 56 
Q 33.9375 56 38.28125 53.609375 
Q 42.625 51.21875 45.40625 46.390625 
L 45.40625 54.6875 
L 54.390625 54.6875 
z
" id="DejaVuSans-103"/>
      <path d="M 31 75.875 
Q 24.46875 64.65625 21.28125 53.65625 
Q 18.109375 42.671875 18.109375 31.390625 
Q 18.109375 20.125 21.3125 9.0625 
Q 24.515625 -2 31 -13.1875 
L 23.1875 -13.1875 
Q 15.875 -1.703125 12.234375 9.375 
Q 8.59375 20.453125 8.59375 31.390625 
Q 8.59375 42.28125 12.203125 53.3125 
Q 15.828125 64.359375 23.1875 75.875 
z
" id="DejaVuSans-40"/>
      <path d="M 8.015625 75.875 
L 15.828125 75.875 
Q 23.140625 64.359375 26.78125 53.3125 
Q 30.421875 42.28125 30.421875 31.390625 
Q 30.421875 20.453125 26.78125 9.375 
Q 23.140625 -1.703125 15.828125 -13.1875 
L 8.015625 -13.1875 
Q 14.5 -2 17.703125 9.0625 
Q 20.90625 20.125 20.90625 31.390625 
Q 20.90625 42.671875 17.703125 53.65625 
Q 14.5 64.65625 8.015625 75.875 
z
" id="DejaVuSans-41"/>
     </defs>
     <use xlink:href="#DejaVuSans-78"/>
     <use x="74.804688" xlink:href="#DejaVuSans-101"/>
     <use x="136.328125" xlink:href="#DejaVuSans-119"/>
     <use x="218.115234" xlink:href="#DejaVuSans-32"/>
     <use x="249.902344" xlink:href="#DejaVuSans-97"/>
     <use x="311.181641" xlink:href="#DejaVuSans-100"/>
     <use x="374.658203" xlink:href="#DejaVuSans-109"/>
     <use x="472.070312" xlink:href="#DejaVuSans-105"/>
     <use x="499.853516" xlink:href="#DejaVuSans-115"/>
     <use x="551.953125" xlink:href="#DejaVuSans-115"/>
     <use x="604.052734" xlink:href="#DejaVuSans-105"/>
     <use x="631.835938" xlink:href="#DejaVuSans-111"/>
     <use x="693.017578" xlink:href="#DejaVuSans-110"/>
     <use x="756.396484" xlink:href="#DejaVuSans-115"/>
     <use x="808.496094" xlink:href="#DejaVuSans-32"/>
     <use x="840.283203" xlink:href="#DejaVuSans-112"/>
     <use x="903.759766" xlink:href="#DejaVuSans-101"/>
     <use x="965.283203" xlink:href="#DejaVuSans-114"/>
     <use x="1006.396484" xlink:href="#DejaVuSans-32"/>
     <use x="1038.183594" xlink:href="#DejaVuSans-109"/>
     <use x="1135.595703" xlink:href="#DejaVuSans-105"/>
     <use x="1163.378906" xlink:href="#DejaVuSans-108"/>
     <use x="1191.162109" xlink:href="#DejaVuSans-108"/>
     <use x="1218.945312" xlink:href="#DejaVuSans-105"/>
     <use x="1246.728516" xlink:href="#DejaVuSans-111"/>
     <use x="1307.910156" xlink:href="#DejaVuSans-110"/>
     <use x="1371.289062" xlink:href="#DejaVuSans-32"/>
     <use x="1403.076172" xlink:href="#DejaVuSans-112"/>
     <use x="1466.552734" xlink:href="#DejaVuSans-101"/>
     <use x="1528.076172" xlink:href="#DejaVuSans-111"/>
     <use x="1589.257812" xlink:href="#DejaVuSans-112"/>
     <use x="1652.734375" xlink:href="#DejaVuSans-108"/>
     <use x="1680.517578" xlink:href="#DejaVuSans-101"/>
     <use x="1742.041016" xlink:href="#DejaVuSans-32"/>
     <use x="1773.828125" xlink:href="#DejaVuSans-98"/>
     <use x="1837.304688" xlink:href="#DejaVuSans-121"/>
     <use x="1896.484375" xlink:href="#DejaVuSans-32"/>
     <use x="1928.271484" xlink:href="#DejaVuSans-78"/>
     <use x="2003.076172" xlink:href="#DejaVuSans-72"/>
     <use x="2078.271484" xlink:href="#DejaVuSans-83"/>
     <use x="2141.748047" xlink:href="#DejaVuSans-32"/>
     <use x="2173.535156" xlink:href="#DejaVuSans-114"/>
     <use x="2212.398438" xlink:href="#DejaVuSans-101"/>
     <use x="2273.921875" xlink:href="#DejaVuSans-103"/>
     <use x="2337.398438" xlink:href="#DejaVuSans-105"/>
     <use x="2365.181641" xlink:href="#DejaVuSans-111"/>
     <use x="2426.363281" xlink:href="#DejaVuSans-110"/>
     <use x="2489.742188" xlink:href="#DejaVuSans-32"/>
     <use x="2521.529297" xlink:href="#DejaVuSans-40"/>
     <use x="2560.542969" xlink:href="#DejaVuSans-55"/>
     <use x="2624.166016" xlink:href="#DejaVuSans-32"/>
     <use x="2655.953125" xlink:href="#DejaVuSans-100"/>
     <use x="2719.429688" xlink:href="#DejaVuSans-97"/>
     <use x="2780.708984" xlink:href="#DejaVuSans-121"/>
     <use x="2839.888672" xlink:href="#DejaVuSans-32"/>
     <use x="2871.675781" xlink:href="#DejaVuSans-114"/>
     <use x="2910.539062" xlink:href="#DejaVuSans-111"/>
     <use x="2971.720703" xlink:href="#DejaVuSans-108"/>
     <use x="2999.503906" xlink:href="#DejaVuSans-108"/>
     <use x="3027.287109" xlink:href="#DejaVuSans-105"/>
     <use x="3055.070312" xlink:href="#DejaVuSans-110"/>
     <use x="3118.449219" xlink:href="#DejaVuSans-103"/>
     <use x="3181.925781" xlink:href="#DejaVuSans-41"/>
    </g>
   </g>
   <g id="legend_1">
    <g id="patch_7">
     <path d="M 155.344531 152.225 
L 310.405469 152.225 
Q 312.405469 152.225 312.405469 150.225 
L 312.405469 33.8 
Q 312.405469 31.8 310.405469 31.8 
L 155.344531 31.8 
Q 153.344531 31.8 153.344531 33.8 
L 153.344531 150.225 
Q 153.344531 152.225 155.344531 152.225 
z
" style="fill:#ffffff;opacity:0.8;stroke:#cccccc;stroke-linejoin:miter;"/>
    </g>
    <g id="text_18">
     <!-- NHS region -->
     <g transform="translate(204.8 43.398437)scale(0.1 -0.1)">
      <use xlink:href="#DejaVuSans-78"/>
      <use x="74.804688" xlink:href="#DejaVuSans-72"/>
      <use x="150" xlink:href="#DejaVuSans-83"/>
      <use x="213.476562" xlink:href="#DejaVuSans-32"/>
      <use x="245.263672" xlink:href="#DejaVuSans-114"/>
      <use x="284.126953" xlink:href="#DejaVuSans-101"/>
      <use x="345.650391" xlink:href="#DejaVuSans-103"/>
      <use x="409.126953" xlink:href="#DejaVuSans-105"/>
      <use x="436.910156" xlink:href="#DejaVuSans-111"/>
      <use x="498.091797" xlink:href="#DejaVuSans-110"/>
     </g>
    </g>
    <g id="line2d_29">
     <path d="M 157.344531 54.576562 
L 177.344531 54.576562 
" style="fill:none;stroke:#1f77b4;stroke-linecap:square;stroke-width:1.5;"/>
    </g>
    <g id="line2d_30"/>
    <g id="text_19">
     <!-- South West -->
     <g transform="translate(185.344531 58.076562)scale(0.1 -0.1)">
      <defs>
       <path d="M 54.890625 33.015625 
L 54.890625 0 
L 45.90625 0 
L 45.90625 32.71875 
Q 45.90625 40.484375 42.875 44.328125 
Q 39.84375 48.1875 33.796875 48.1875 
Q 26.515625 48.1875 22.3125 43.546875 
Q 18.109375 38.921875 18.109375 30.90625 
L 18.109375 0 
L 9.078125 0 
L 9.078125 75.984375 
L 18.109375 75.984375 
L 18.109375 46.1875 
Q 21.34375 51.125 25.703125 53.5625 
Q 30.078125 56 35.796875 56 
Q 45.21875 56 50.046875 50.171875 
Q 54.890625 44.34375 54.890625 33.015625 
z
" id="DejaVuSans-104"/>
       <path d="M 3.328125 72.90625 
L 13.28125 72.90625 
L 28.609375 11.28125 
L 43.890625 72.90625 
L 54.984375 72.90625 
L 70.3125 11.28125 
L 85.59375 72.90625 
L 95.609375 72.90625 
L 77.296875 0 
L 64.890625 0 
L 49.515625 63.28125 
L 33.984375 0 
L 21.578125 0 
z
" id="DejaVuSans-87"/>
      </defs>
      <use xlink:href="#DejaVuSans-83"/>
      <use x="63.476562" xlink:href="#DejaVuSans-111"/>
      <use x="124.658203" xlink:href="#DejaVuSans-117"/>
      <use x="188.037109" xlink:href="#DejaVuSans-116"/>
      <use x="227.246094" xlink:href="#DejaVuSans-104"/>
      <use x="290.625" xlink:href="#DejaVuSans-32"/>
      <use x="322.412109" xlink:href="#DejaVuSans-87"/>
      <use x="415.414062" xlink:href="#DejaVuSans-101"/>
      <use x="476.9375" xlink:href="#DejaVuSans-115"/>
      <use x="529.037109" xlink:href="#DejaVuSans-116"/>
     </g>
    </g>
    <g id="line2d_31">
     <path d="M 157.344531 69.254687 
L 177.344531 69.254687 
" style="fill:none;stroke:#ff7f0e;stroke-linecap:square;stroke-width:1.5;"/>
    </g>
    <g id="line2d_32"/>
    <g id="text_20">
     <!-- Midlands -->
     <g transform="translate(185.344531 72.754687)scale(0.1 -0.1)">
      <defs>
       <path d="M 9.8125 72.90625 
L 24.515625 72.90625 
L 43.109375 23.296875 
L 61.8125 72.90625 
L 76.515625 72.90625 
L 76.515625 0 
L 66.890625 0 
L 66.890625 64.015625 
L 48.09375 14.015625 
L 38.1875 14.015625 
L 19.390625 64.015625 
L 19.390625 0 
L 9.8125 0 
z
" id="DejaVuSans-77"/>
      </defs>
      <use xlink:href="#DejaVuSans-77"/>
      <use x="86.279297" xlink:href="#DejaVuSans-105"/>
      <use x="114.0625" xlink:href="#DejaVuSans-100"/>
      <use x="177.539062" xlink:href="#DejaVuSans-108"/>
      <use x="205.322266" xlink:href="#DejaVuSans-97"/>
      <use x="266.601562" xlink:href="#DejaVuSans-110"/>
      <use x="329.980469" xlink:href="#DejaVuSans-100"/>
      <use x="393.457031" xlink:href="#DejaVuSans-115"/>
     </g>
    </g>
    <g id="line2d_33">
     <path d="M 157.344531 83.932812 
L 177.344531 83.932812 
" style="fill:none;stroke:#2ca02c;stroke-linecap:square;stroke-width:1.5;"/>
    </g>
    <g id="line2d_34"/>
    <g id="text_21">
     <!-- North East and Yorkshire -->
     <g transform="translate(185.344531 87.432812)scale(0.1 -0.1)">
      <defs>
       <path d="M 9.8125 72.90625 
L 55.90625 72.90625 
L 55.90625 64.59375 
L 19.671875 64.59375 
L 19.671875 43.015625 
L 54.390625 43.015625 
L 54.390625 34.71875 
L 19.671875 34.71875 
L 19.671875 8.296875 
L 56.78125 8.296875 
L 56.78125 0 
L 9.8125 0 
z
" id="DejaVuSans-69"/>
       <path d="M -0.203125 72.90625 
L 10.40625 72.90625 
L 30.609375 42.921875 
L 50.6875 72.90625 
L 61.28125 72.90625 
L 35.5 34.71875 
L 35.5 0 
L 25.59375 0 
L 25.59375 34.71875 
z
" id="DejaVuSans-89"/>
       <path d="M 9.078125 75.984375 
L 18.109375 75.984375 
L 18.109375 31.109375 
L 44.921875 54.6875 
L 56.390625 54.6875 
L 27.390625 29.109375 
L 57.625 0 
L 45.90625 0 
L 18.109375 26.703125 
L 18.109375 0 
L 9.078125 0 
z
" id="DejaVuSans-107"/>
      </defs>
      <use xlink:href="#DejaVuSans-78"/>
      <use x="74.804688" xlink:href="#DejaVuSans-111"/>
      <use x="135.986328" xlink:href="#DejaVuSans-114"/>
      <use x="177.099609" xlink:href="#DejaVuSans-116"/>
      <use x="216.308594" xlink:href="#DejaVuSans-104"/>
      <use x="279.6875" xlink:href="#DejaVuSans-32"/>
      <use x="311.474609" xlink:href="#DejaVuSans-69"/>
      <use x="374.658203" xlink:href="#DejaVuSans-97"/>
      <use x="435.9375" xlink:href="#DejaVuSans-115"/>
      <use x="488.037109" xlink:href="#DejaVuSans-116"/>
      <use x="527.246094" xlink:href="#DejaVuSans-32"/>
      <use x="559.033203" xlink:href="#DejaVuSans-97"/>
      <use x="620.3125" xlink:href="#DejaVuSans-110"/>
      <use x="683.691406" xlink:href="#DejaVuSans-100"/>
      <use x="747.167969" xlink:href="#DejaVuSans-32"/>
      <use x="778.955078" xlink:href="#DejaVuSans-89"/>
      <use x="826.789062" xlink:href="#DejaVuSans-111"/>
      <use x="887.970703" xlink:href="#DejaVuSans-114"/>
      <use x="929.083984" xlink:href="#DejaVuSans-107"/>
      <use x="986.994141" xlink:href="#DejaVuSans-115"/>
      <use x="1039.09375" xlink:href="#DejaVuSans-104"/>
      <use x="1102.472656" xlink:href="#DejaVuSans-105"/>
      <use x="1130.255859" xlink:href="#DejaVuSans-114"/>
      <use x="1169.119141" xlink:href="#DejaVuSans-101"/>
     </g>
    </g>
    <g id="line2d_35">
     <path d="M 157.344531 98.610937 
L 177.344531 98.610937 
" style="fill:none;stroke:#d62728;stroke-linecap:square;stroke-width:1.5;"/>
    </g>
    <g id="line2d_36"/>
    <g id="text_22">
     <!-- London -->
     <g transform="translate(185.344531 102.110937)scale(0.1 -0.1)">
      <defs>
       <path d="M 9.8125 72.90625 
L 19.671875 72.90625 
L 19.671875 8.296875 
L 55.171875 8.296875 
L 55.171875 0 
L 9.8125 0 
z
" id="DejaVuSans-76"/>
      </defs>
      <use xlink:href="#DejaVuSans-76"/>
      <use x="53.962891" xlink:href="#DejaVuSans-111"/>
      <use x="115.144531" xlink:href="#DejaVuSans-110"/>
      <use x="178.523438" xlink:href="#DejaVuSans-100"/>
      <use x="242" xlink:href="#DejaVuSans-111"/>
      <use x="303.181641" xlink:href="#DejaVuSans-110"/>
     </g>
    </g>
    <g id="line2d_37">
     <path d="M 157.344531 113.289062 
L 177.344531 113.289062 
" style="fill:none;stroke:#9467bd;stroke-linecap:square;stroke-width:1.5;"/>
    </g>
    <g id="line2d_38"/>
    <g id="text_23">
     <!-- North West -->
     <g transform="translate(185.344531 116.789062)scale(0.1 -0.1)">
      <use xlink:href="#DejaVuSans-78"/>
      <use x="74.804688" xlink:href="#DejaVuSans-111"/>
      <use x="135.986328" xlink:href="#DejaVuSans-114"/>
      <use x="177.099609" xlink:href="#DejaVuSans-116"/>
      <use x="216.308594" xlink:href="#DejaVuSans-104"/>
      <use x="279.6875" xlink:href="#DejaVuSans-32"/>
      <use x="311.474609" xlink:href="#DejaVuSans-87"/>
      <use x="404.476562" xlink:href="#DejaVuSans-101"/>
      <use x="466" xlink:href="#DejaVuSans-115"/>
      <use x="518.099609" xlink:href="#DejaVuSans-116"/>
     </g>
    </g>
    <g id="line2d_39">
     <path d="M 157.344531 127.967187 
L 177.344531 127.967187 
" style="fill:none;stroke:#8c564b;stroke-linecap:square;stroke-width:1.5;"/>
    </g>
    <g id="line2d_40"/>
    <g id="text_24">
     <!-- East of England -->
     <g transform="translate(185.344531 131.467187)scale(0.1 -0.1)">
      <defs>
       <path d="M 37.109375 75.984375 
L 37.109375 68.5 
L 28.515625 68.5 
Q 23.6875 68.5 21.796875 66.546875 
Q 19.921875 64.59375 19.921875 59.515625 
L 19.921875 54.6875 
L 34.71875 54.6875 
L 34.71875 47.703125 
L 19.921875 47.703125 
L 19.921875 0 
L 10.890625 0 
L 10.890625 47.703125 
L 2.296875 47.703125 
L 2.296875 54.6875 
L 10.890625 54.6875 
L 10.890625 58.5 
Q 10.890625 67.625 15.140625 71.796875 
Q 19.390625 75.984375 28.609375 75.984375 
z
" id="DejaVuSans-102"/>
      </defs>
      <use xlink:href="#DejaVuSans-69"/>
      <use x="63.183594" xlink:href="#DejaVuSans-97"/>
      <use x="124.462891" xlink:href="#DejaVuSans-115"/>
      <use x="176.5625" xlink:href="#DejaVuSans-116"/>
      <use x="215.771484" xlink:href="#DejaVuSans-32"/>
      <use x="247.558594" xlink:href="#DejaVuSans-111"/>
      <use x="308.740234" xlink:href="#DejaVuSans-102"/>
      <use x="343.945312" xlink:href="#DejaVuSans-32"/>
      <use x="375.732422" xlink:href="#DejaVuSans-69"/>
      <use x="438.916016" xlink:href="#DejaVuSans-110"/>
      <use x="502.294922" xlink:href="#DejaVuSans-103"/>
      <use x="565.771484" xlink:href="#DejaVuSans-108"/>
      <use x="593.554688" xlink:href="#DejaVuSans-97"/>
      <use x="654.833984" xlink:href="#DejaVuSans-110"/>
      <use x="718.212891" xlink:href="#DejaVuSans-100"/>
     </g>
    </g>
    <g id="line2d_41">
     <path d="M 157.344531 142.645312 
L 177.344531 142.645312 
" style="fill:none;stroke:#e377c2;stroke-linecap:square;stroke-width:1.5;"/>
    </g>
    <g id="line2d_42"/>
    <g id="text_25">
     <!-- South East -->
     <g transform="translate(185.344531 146.145312)scale(0.1 -0.1)">
      <use xlink:href="#DejaVuSans-83"/>
      <use x="63.476562" xlink:href="#DejaVuSans-111"/>
      <use x="124.658203" xlink:href="#DejaVuSans-117"/>
      <use x="188.037109" xlink:href="#DejaVuSans-116"/>
      <use x="227.246094" xlink:href="#DejaVuSans-104"/>
      <use x="290.625" xlink:href="#DejaVuSans-32"/>
      <use x="322.412109" xlink:href="#DejaVuSans-69"/>
      <use x="385.595703" xlink:href="#DejaVuSans-97"/>
      <use x="446.875" xlink:href="#DejaVuSans-115"/>
      <use x="498.974609" xlink:href="#DejaVuSans-116"/>
     </g>
    </g>
   </g>
  </g>
 </g>
 <defs>
  <clipPath id="pdb1e1c4ab0">
   <rect height="199.802246" width="376.65" x="44.55" y="26.8"/>
  </clipPath>
 </defs>
</svg>
