<?xml version="1.0" encoding="utf-8" standalone="no"?>
<!DOCTYPE svg PUBLIC "-//W3C//DTD SVG 1.1//EN"
  "http://www.w3.org/Graphics/SVG/1.1/DTD/svg11.dtd">
<!-- Created with matplotlib (https://matplotlib.org/) -->
<svg height="288pt" version="1.1" viewBox="0 0 432 288" width="432pt" xmlns="http://www.w3.org/2000/svg" xmlns:xlink="http://www.w3.org/1999/xlink">
 <metadata>
  <rdf:RDF xmlns:cc="http://creativecommons.org/ns#" xmlns:dc="http://purl.org/dc/elements/1.1/" xmlns:rdf="http://www.w3.org/1999/02/22-rdf-syntax-ns#">
   <cc:Work>
    <dc:type rdf:resource="http://purl.org/dc/dcmitype/StillImage"/>
    <dc:date>2020-11-20T15:13:51.408281</dc:date>
    <dc:format>image/svg+xml</dc:format>
    <dc:creator>
     <cc:Agent>
      <dc:title>Matplotlib v3.3.2, https://matplotlib.org/</dc:title>
     </cc:Agent>
    </dc:creator>
   </cc:Work>
  </rdf:RDF>
 </metadata>
 <defs>
  <style type="text/css">*{stroke-linecap:butt;stroke-linejoin:round;}</style>
 </defs>
 <g id="figure_1">
  <g id="patch_1">
   <path d="M 0 288 
L 432 288 
L 432 0 
L 0 0 
z
" style="fill:none;"/>
  </g>
  <g id="axes_1">
   <g id="patch_2">
    <path d="M 44.55 226.602246 
L 421.2 226.602246 
L 421.2 26.8 
L 44.55 26.8 
z
" style="fill:#ffffff;"/>
   </g>
   <g id="matplotlib.axis_1">
    <g id="xtick_1">
     <g id="line2d_1">
      <defs>
       <path d="M 0 0 
L 0 3.5 
" id="m07a7ee4f46" style="stroke:#000000;stroke-width:0.8;"/>
      </defs>
      <g>
       <use style="stroke:#000000;stroke-width:0.8;" x="80.064331" xlink:href="#m07a7ee4f46" y="226.602246"/>
      </g>
     </g>
     <g id="text_1">
      <!-- 2020-04 -->
      <g transform="translate(42.839511 261.074092)rotate(-30)scale(0.1 -0.1)">
       <defs>
        <path d="M 19.1875 8.296875 
L 53.609375 8.296875 
L 53.609375 0 
L 7.328125 0 
L 7.328125 8.296875 
Q 12.9375 14.109375 22.625 23.890625 
Q 32.328125 33.6875 34.8125 36.53125 
Q 39.546875 41.84375 41.421875 45.53125 
Q 43.3125 49.21875 43.3125 52.78125 
Q 43.3125 58.59375 39.234375 62.25 
Q 35.15625 65.921875 28.609375 65.921875 
Q 23.96875 65.921875 18.8125 64.3125 
Q 13.671875 62.703125 7.8125 59.421875 
L 7.8125 69.390625 
Q 13.765625 71.78125 18.9375 73 
Q 24.125 74.21875 28.421875 74.21875 
Q 39.75 74.21875 46.484375 68.546875 
Q 53.21875 62.890625 53.21875 53.421875 
Q 53.21875 48.921875 51.53125 44.890625 
Q 49.859375 40.875 45.40625 35.40625 
Q 44.1875 33.984375 37.640625 27.21875 
Q 31.109375 20.453125 19.1875 8.296875 
z
" id="DejaVuSans-50"/>
        <path d="M 31.78125 66.40625 
Q 24.171875 66.40625 20.328125 58.90625 
Q 16.5 51.421875 16.5 36.375 
Q 16.5 21.390625 20.328125 13.890625 
Q 24.171875 6.390625 31.78125 6.390625 
Q 39.453125 6.390625 43.28125 13.890625 
Q 47.125 21.390625 47.125 36.375 
Q 47.125 51.421875 43.28125 58.90625 
Q 39.453125 66.40625 31.78125 66.40625 
z
M 31.78125 74.21875 
Q 44.046875 74.21875 50.515625 64.515625 
Q 56.984375 54.828125 56.984375 36.375 
Q 56.984375 17.96875 50.515625 8.265625 
Q 44.046875 -1.421875 31.78125 -1.421875 
Q 19.53125 -1.421875 13.0625 8.265625 
Q 6.59375 17.96875 6.59375 36.375 
Q 6.59375 54.828125 13.0625 64.515625 
Q 19.53125 74.21875 31.78125 74.21875 
z
" id="DejaVuSans-48"/>
        <path d="M 4.890625 31.390625 
L 31.203125 31.390625 
L 31.203125 23.390625 
L 4.890625 23.390625 
z
" id="DejaVuSans-45"/>
        <path d="M 37.796875 64.3125 
L 12.890625 25.390625 
L 37.796875 25.390625 
z
M 35.203125 72.90625 
L 47.609375 72.90625 
L 47.609375 25.390625 
L 58.015625 25.390625 
L 58.015625 17.1875 
L 47.609375 17.1875 
L 47.609375 0 
L 37.796875 0 
L 37.796875 17.1875 
L 4.890625 17.1875 
L 4.890625 26.703125 
z
" id="DejaVuSans-52"/>
       </defs>
       <use xlink:href="#DejaVuSans-50"/>
       <use x="63.623047" xlink:href="#DejaVuSans-48"/>
       <use x="127.246094" xlink:href="#DejaVuSans-50"/>
       <use x="190.869141" xlink:href="#DejaVuSans-48"/>
       <use x="254.492188" xlink:href="#DejaVuSans-45"/>
       <use x="290.576172" xlink:href="#DejaVuSans-48"/>
       <use x="354.199219" xlink:href="#DejaVuSans-52"/>
      </g>
     </g>
    </g>
    <g id="xtick_2">
     <g id="line2d_2">
      <g>
       <use style="stroke:#000000;stroke-width:0.8;" x="122.511739" xlink:href="#m07a7ee4f46" y="226.602246"/>
      </g>
     </g>
     <g id="text_2">
      <!-- 2020-05 -->
      <g transform="translate(85.286918 261.074092)rotate(-30)scale(0.1 -0.1)">
       <defs>
        <path d="M 10.796875 72.90625 
L 49.515625 72.90625 
L 49.515625 64.59375 
L 19.828125 64.59375 
L 19.828125 46.734375 
Q 21.96875 47.46875 24.109375 47.828125 
Q 26.265625 48.1875 28.421875 48.1875 
Q 40.625 48.1875 47.75 41.5 
Q 54.890625 34.8125 54.890625 23.390625 
Q 54.890625 11.625 47.5625 5.09375 
Q 40.234375 -1.421875 26.90625 -1.421875 
Q 22.3125 -1.421875 17.546875 -0.640625 
Q 12.796875 0.140625 7.71875 1.703125 
L 7.71875 11.625 
Q 12.109375 9.234375 16.796875 8.0625 
Q 21.484375 6.890625 26.703125 6.890625 
Q 35.15625 6.890625 40.078125 11.328125 
Q 45.015625 15.765625 45.015625 23.390625 
Q 45.015625 31 40.078125 35.4375 
Q 35.15625 39.890625 26.703125 39.890625 
Q 22.75 39.890625 18.8125 39.015625 
Q 14.890625 38.140625 10.796875 36.28125 
z
" id="DejaVuSans-53"/>
       </defs>
       <use xlink:href="#DejaVuSans-50"/>
       <use x="63.623047" xlink:href="#DejaVuSans-48"/>
       <use x="127.246094" xlink:href="#DejaVuSans-50"/>
       <use x="190.869141" xlink:href="#DejaVuSans-48"/>
       <use x="254.492188" xlink:href="#DejaVuSans-45"/>
       <use x="290.576172" xlink:href="#DejaVuSans-48"/>
       <use x="354.199219" xlink:href="#DejaVuSans-53"/>
      </g>
     </g>
    </g>
    <g id="xtick_3">
     <g id="line2d_3">
      <g>
       <use style="stroke:#000000;stroke-width:0.8;" x="166.374061" xlink:href="#m07a7ee4f46" y="226.602246"/>
      </g>
     </g>
     <g id="text_3">
      <!-- 2020-06 -->
      <g transform="translate(129.14924 261.074092)rotate(-30)scale(0.1 -0.1)">
       <defs>
        <path d="M 33.015625 40.375 
Q 26.375 40.375 22.484375 35.828125 
Q 18.609375 31.296875 18.609375 23.390625 
Q 18.609375 15.53125 22.484375 10.953125 
Q 26.375 6.390625 33.015625 6.390625 
Q 39.65625 6.390625 43.53125 10.953125 
Q 47.40625 15.53125 47.40625 23.390625 
Q 47.40625 31.296875 43.53125 35.828125 
Q 39.65625 40.375 33.015625 40.375 
z
M 52.59375 71.296875 
L 52.59375 62.3125 
Q 48.875 64.0625 45.09375 64.984375 
Q 41.3125 65.921875 37.59375 65.921875 
Q 27.828125 65.921875 22.671875 59.328125 
Q 17.53125 52.734375 16.796875 39.40625 
Q 19.671875 43.65625 24.015625 45.921875 
Q 28.375 48.1875 33.59375 48.1875 
Q 44.578125 48.1875 50.953125 41.515625 
Q 57.328125 34.859375 57.328125 23.390625 
Q 57.328125 12.15625 50.6875 5.359375 
Q 44.046875 -1.421875 33.015625 -1.421875 
Q 20.359375 -1.421875 13.671875 8.265625 
Q 6.984375 17.96875 6.984375 36.375 
Q 6.984375 53.65625 15.1875 63.9375 
Q 23.390625 74.21875 37.203125 74.21875 
Q 40.921875 74.21875 44.703125 73.484375 
Q 48.484375 72.75 52.59375 71.296875 
z
" id="DejaVuSans-54"/>
       </defs>
       <use xlink:href="#DejaVuSans-50"/>
       <use x="63.623047" xlink:href="#DejaVuSans-48"/>
       <use x="127.246094" xlink:href="#DejaVuSans-50"/>
       <use x="190.869141" xlink:href="#DejaVuSans-48"/>
       <use x="254.492188" xlink:href="#DejaVuSans-45"/>
       <use x="290.576172" xlink:href="#DejaVuSans-48"/>
       <use x="354.199219" xlink:href="#DejaVuSans-54"/>
      </g>
     </g>
    </g>
    <g id="xtick_4">
     <g id="line2d_4">
      <g>
       <use style="stroke:#000000;stroke-width:0.8;" x="208.821469" xlink:href="#m07a7ee4f46" y="226.602246"/>
      </g>
     </g>
     <g id="text_4">
      <!-- 2020-07 -->
      <g transform="translate(171.596648 261.074092)rotate(-30)scale(0.1 -0.1)">
       <defs>
        <path d="M 8.203125 72.90625 
L 55.078125 72.90625 
L 55.078125 68.703125 
L 28.609375 0 
L 18.3125 0 
L 43.21875 64.59375 
L 8.203125 64.59375 
z
" id="DejaVuSans-55"/>
       </defs>
       <use xlink:href="#DejaVuSans-50"/>
       <use x="63.623047" xlink:href="#DejaVuSans-48"/>
       <use x="127.246094" xlink:href="#DejaVuSans-50"/>
       <use x="190.869141" xlink:href="#DejaVuSans-48"/>
       <use x="254.492188" xlink:href="#DejaVuSans-45"/>
       <use x="290.576172" xlink:href="#DejaVuSans-48"/>
       <use x="354.199219" xlink:href="#DejaVuSans-55"/>
      </g>
     </g>
    </g>
    <g id="xtick_5">
     <g id="line2d_5">
      <g>
       <use style="stroke:#000000;stroke-width:0.8;" x="252.68379" xlink:href="#m07a7ee4f46" y="226.602246"/>
      </g>
     </g>
     <g id="text_5">
      <!-- 2020-08 -->
      <g transform="translate(215.45897 261.074092)rotate(-30)scale(0.1 -0.1)">
       <defs>
        <path d="M 31.78125 34.625 
Q 24.75 34.625 20.71875 30.859375 
Q 16.703125 27.09375 16.703125 20.515625 
Q 16.703125 13.921875 20.71875 10.15625 
Q 24.75 6.390625 31.78125 6.390625 
Q 38.8125 6.390625 42.859375 10.171875 
Q 46.921875 13.96875 46.921875 20.515625 
Q 46.921875 27.09375 42.890625 30.859375 
Q 38.875 34.625 31.78125 34.625 
z
M 21.921875 38.8125 
Q 15.578125 40.375 12.03125 44.71875 
Q 8.5 49.078125 8.5 55.328125 
Q 8.5 64.0625 14.71875 69.140625 
Q 20.953125 74.21875 31.78125 74.21875 
Q 42.671875 74.21875 48.875 69.140625 
Q 55.078125 64.0625 55.078125 55.328125 
Q 55.078125 49.078125 51.53125 44.71875 
Q 48 40.375 41.703125 38.8125 
Q 48.828125 37.15625 52.796875 32.3125 
Q 56.78125 27.484375 56.78125 20.515625 
Q 56.78125 9.90625 50.3125 4.234375 
Q 43.84375 -1.421875 31.78125 -1.421875 
Q 19.734375 -1.421875 13.25 4.234375 
Q 6.78125 9.90625 6.78125 20.515625 
Q 6.78125 27.484375 10.78125 32.3125 
Q 14.796875 37.15625 21.921875 38.8125 
z
M 18.3125 54.390625 
Q 18.3125 48.734375 21.84375 45.5625 
Q 25.390625 42.390625 31.78125 42.390625 
Q 38.140625 42.390625 41.71875 45.5625 
Q 45.3125 48.734375 45.3125 54.390625 
Q 45.3125 60.0625 41.71875 63.234375 
Q 38.140625 66.40625 31.78125 66.40625 
Q 25.390625 66.40625 21.84375 63.234375 
Q 18.3125 60.0625 18.3125 54.390625 
z
" id="DejaVuSans-56"/>
       </defs>
       <use xlink:href="#DejaVuSans-50"/>
       <use x="63.623047" xlink:href="#DejaVuSans-48"/>
       <use x="127.246094" xlink:href="#DejaVuSans-50"/>
       <use x="190.869141" xlink:href="#DejaVuSans-48"/>
       <use x="254.492188" xlink:href="#DejaVuSans-45"/>
       <use x="290.576172" xlink:href="#DejaVuSans-48"/>
       <use x="354.199219" xlink:href="#DejaVuSans-56"/>
      </g>
     </g>
    </g>
    <g id="xtick_6">
     <g id="line2d_6">
      <g>
       <use style="stroke:#000000;stroke-width:0.8;" x="296.546112" xlink:href="#m07a7ee4f46" y="226.602246"/>
      </g>
     </g>
     <g id="text_6">
      <!-- 2020-09 -->
      <g transform="translate(259.321291 261.074092)rotate(-30)scale(0.1 -0.1)">
       <defs>
        <path d="M 10.984375 1.515625 
L 10.984375 10.5 
Q 14.703125 8.734375 18.5 7.8125 
Q 22.3125 6.890625 25.984375 6.890625 
Q 35.75 6.890625 40.890625 13.453125 
Q 46.046875 20.015625 46.78125 33.40625 
Q 43.953125 29.203125 39.59375 26.953125 
Q 35.25 24.703125 29.984375 24.703125 
Q 19.046875 24.703125 12.671875 31.3125 
Q 6.296875 37.9375 6.296875 49.421875 
Q 6.296875 60.640625 12.9375 67.421875 
Q 19.578125 74.21875 30.609375 74.21875 
Q 43.265625 74.21875 49.921875 64.515625 
Q 56.59375 54.828125 56.59375 36.375 
Q 56.59375 19.140625 48.40625 8.859375 
Q 40.234375 -1.421875 26.421875 -1.421875 
Q 22.703125 -1.421875 18.890625 -0.6875 
Q 15.09375 0.046875 10.984375 1.515625 
z
M 30.609375 32.421875 
Q 37.25 32.421875 41.125 36.953125 
Q 45.015625 41.5 45.015625 49.421875 
Q 45.015625 57.28125 41.125 61.84375 
Q 37.25 66.40625 30.609375 66.40625 
Q 23.96875 66.40625 20.09375 61.84375 
Q 16.21875 57.28125 16.21875 49.421875 
Q 16.21875 41.5 20.09375 36.953125 
Q 23.96875 32.421875 30.609375 32.421875 
z
" id="DejaVuSans-57"/>
       </defs>
       <use xlink:href="#DejaVuSans-50"/>
       <use x="63.623047" xlink:href="#DejaVuSans-48"/>
       <use x="127.246094" xlink:href="#DejaVuSans-50"/>
       <use x="190.869141" xlink:href="#DejaVuSans-48"/>
       <use x="254.492188" xlink:href="#DejaVuSans-45"/>
       <use x="290.576172" xlink:href="#DejaVuSans-48"/>
       <use x="354.199219" xlink:href="#DejaVuSans-57"/>
      </g>
     </g>
    </g>
    <g id="xtick_7">
     <g id="line2d_7">
      <g>
       <use style="stroke:#000000;stroke-width:0.8;" x="338.99352" xlink:href="#m07a7ee4f46" y="226.602246"/>
      </g>
     </g>
     <g id="text_7">
      <!-- 2020-10 -->
      <g transform="translate(301.768699 261.074092)rotate(-30)scale(0.1 -0.1)">
       <defs>
        <path d="M 12.40625 8.296875 
L 28.515625 8.296875 
L 28.515625 63.921875 
L 10.984375 60.40625 
L 10.984375 69.390625 
L 28.421875 72.90625 
L 38.28125 72.90625 
L 38.28125 8.296875 
L 54.390625 8.296875 
L 54.390625 0 
L 12.40625 0 
z
" id="DejaVuSans-49"/>
       </defs>
       <use xlink:href="#DejaVuSans-50"/>
       <use x="63.623047" xlink:href="#DejaVuSans-48"/>
       <use x="127.246094" xlink:href="#DejaVuSans-50"/>
       <use x="190.869141" xlink:href="#DejaVuSans-48"/>
       <use x="254.492188" xlink:href="#DejaVuSans-45"/>
       <use x="290.576172" xlink:href="#DejaVuSans-49"/>
       <use x="354.199219" xlink:href="#DejaVuSans-48"/>
      </g>
     </g>
    </g>
    <g id="xtick_8">
     <g id="line2d_8">
      <g>
       <use style="stroke:#000000;stroke-width:0.8;" x="382.855841" xlink:href="#m07a7ee4f46" y="226.602246"/>
      </g>
     </g>
     <g id="text_8">
      <!-- 2020-11 -->
      <g transform="translate(345.631021 261.074092)rotate(-30)scale(0.1 -0.1)">
       <use xlink:href="#DejaVuSans-50"/>
       <use x="63.623047" xlink:href="#DejaVuSans-48"/>
       <use x="127.246094" xlink:href="#DejaVuSans-50"/>
       <use x="190.869141" xlink:href="#DejaVuSans-48"/>
       <use x="254.492188" xlink:href="#DejaVuSans-45"/>
       <use x="290.576172" xlink:href="#DejaVuSans-49"/>
       <use x="354.199219" xlink:href="#DejaVuSans-49"/>
      </g>
     </g>
    </g>
    <g id="text_9">
     <!-- Date -->
     <g transform="translate(220.924219 274.473592)scale(0.1 -0.1)">
      <defs>
       <path d="M 19.671875 64.796875 
L 19.671875 8.109375 
L 31.59375 8.109375 
Q 46.6875 8.109375 53.6875 14.9375 
Q 60.6875 21.78125 60.6875 36.53125 
Q 60.6875 51.171875 53.6875 57.984375 
Q 46.6875 64.796875 31.59375 64.796875 
z
M 9.8125 72.90625 
L 30.078125 72.90625 
Q 51.265625 72.90625 61.171875 64.09375 
Q 71.09375 55.28125 71.09375 36.53125 
Q 71.09375 17.671875 61.125 8.828125 
Q 51.171875 0 30.078125 0 
L 9.8125 0 
z
" id="DejaVuSans-68"/>
       <path d="M 34.28125 27.484375 
Q 23.390625 27.484375 19.1875 25 
Q 14.984375 22.515625 14.984375 16.5 
Q 14.984375 11.71875 18.140625 8.90625 
Q 21.296875 6.109375 26.703125 6.109375 
Q 34.1875 6.109375 38.703125 11.40625 
Q 43.21875 16.703125 43.21875 25.484375 
L 43.21875 27.484375 
z
M 52.203125 31.203125 
L 52.203125 0 
L 43.21875 0 
L 43.21875 8.296875 
Q 40.140625 3.328125 35.546875 0.953125 
Q 30.953125 -1.421875 24.3125 -1.421875 
Q 15.921875 -1.421875 10.953125 3.296875 
Q 6 8.015625 6 15.921875 
Q 6 25.140625 12.171875 29.828125 
Q 18.359375 34.515625 30.609375 34.515625 
L 43.21875 34.515625 
L 43.21875 35.40625 
Q 43.21875 41.609375 39.140625 45 
Q 35.0625 48.390625 27.6875 48.390625 
Q 23 48.390625 18.546875 47.265625 
Q 14.109375 46.140625 10.015625 43.890625 
L 10.015625 52.203125 
Q 14.9375 54.109375 19.578125 55.046875 
Q 24.21875 56 28.609375 56 
Q 40.484375 56 46.34375 49.84375 
Q 52.203125 43.703125 52.203125 31.203125 
z
" id="DejaVuSans-97"/>
       <path d="M 18.3125 70.21875 
L 18.3125 54.6875 
L 36.8125 54.6875 
L 36.8125 47.703125 
L 18.3125 47.703125 
L 18.3125 18.015625 
Q 18.3125 11.328125 20.140625 9.421875 
Q 21.96875 7.515625 27.59375 7.515625 
L 36.8125 7.515625 
L 36.8125 0 
L 27.59375 0 
Q 17.1875 0 13.234375 3.875 
Q 9.28125 7.765625 9.28125 18.015625 
L 9.28125 47.703125 
L 2.6875 47.703125 
L 2.6875 54.6875 
L 9.28125 54.6875 
L 9.28125 70.21875 
z
" id="DejaVuSans-116"/>
       <path d="M 56.203125 29.59375 
L 56.203125 25.203125 
L 14.890625 25.203125 
Q 15.484375 15.921875 20.484375 11.0625 
Q 25.484375 6.203125 34.421875 6.203125 
Q 39.59375 6.203125 44.453125 7.46875 
Q 49.3125 8.734375 54.109375 11.28125 
L 54.109375 2.78125 
Q 49.265625 0.734375 44.1875 -0.34375 
Q 39.109375 -1.421875 33.890625 -1.421875 
Q 20.796875 -1.421875 13.15625 6.1875 
Q 5.515625 13.8125 5.515625 26.8125 
Q 5.515625 40.234375 12.765625 48.109375 
Q 20.015625 56 32.328125 56 
Q 43.359375 56 49.78125 48.890625 
Q 56.203125 41.796875 56.203125 29.59375 
z
M 47.21875 32.234375 
Q 47.125 39.59375 43.09375 43.984375 
Q 39.0625 48.390625 32.421875 48.390625 
Q 24.90625 48.390625 20.390625 44.140625 
Q 15.875 39.890625 15.1875 32.171875 
z
" id="DejaVuSans-101"/>
      </defs>
      <use xlink:href="#DejaVuSans-68"/>
      <use x="77.001953" xlink:href="#DejaVuSans-97"/>
      <use x="138.28125" xlink:href="#DejaVuSans-116"/>
      <use x="177.490234" xlink:href="#DejaVuSans-101"/>
     </g>
    </g>
   </g>
   <g id="matplotlib.axis_2">
    <g id="ytick_1">
     <g id="line2d_9">
      <defs>
       <path d="M 0 0 
L -3.5 0 
" id="m26a374a7aa" style="stroke:#000000;stroke-width:0.8;"/>
      </defs>
      <g>
       <use style="stroke:#000000;stroke-width:0.8;" x="44.55" xlink:href="#m26a374a7aa" y="218.018007"/>
      </g>
     </g>
     <g id="text_10">
      <!-- 0 -->
      <g transform="translate(31.1875 221.817226)scale(0.1 -0.1)">
       <use xlink:href="#DejaVuSans-48"/>
      </g>
     </g>
    </g>
    <g id="ytick_2">
     <g id="line2d_10">
      <g>
       <use style="stroke:#000000;stroke-width:0.8;" x="44.55" xlink:href="#m26a374a7aa" y="174.423535"/>
      </g>
     </g>
     <g id="text_11">
      <!-- 20 -->
      <g transform="translate(24.825 178.222753)scale(0.1 -0.1)">
       <use xlink:href="#DejaVuSans-50"/>
       <use x="63.623047" xlink:href="#DejaVuSans-48"/>
      </g>
     </g>
    </g>
    <g id="ytick_3">
     <g id="line2d_11">
      <g>
       <use style="stroke:#000000;stroke-width:0.8;" x="44.55" xlink:href="#m26a374a7aa" y="130.829062"/>
      </g>
     </g>
     <g id="text_12">
      <!-- 40 -->
      <g transform="translate(24.825 134.628281)scale(0.1 -0.1)">
       <use xlink:href="#DejaVuSans-52"/>
       <use x="63.623047" xlink:href="#DejaVuSans-48"/>
      </g>
     </g>
    </g>
    <g id="ytick_4">
     <g id="line2d_12">
      <g>
       <use style="stroke:#000000;stroke-width:0.8;" x="44.55" xlink:href="#m26a374a7aa" y="87.23459"/>
      </g>
     </g>
     <g id="text_13">
      <!-- 60 -->
      <g transform="translate(24.825 91.033808)scale(0.1 -0.1)">
       <use xlink:href="#DejaVuSans-54"/>
       <use x="63.623047" xlink:href="#DejaVuSans-48"/>
      </g>
     </g>
    </g>
    <g id="ytick_5">
     <g id="line2d_13">
      <g>
       <use style="stroke:#000000;stroke-width:0.8;" x="44.55" xlink:href="#m26a374a7aa" y="43.640117"/>
      </g>
     </g>
     <g id="text_14">
      <!-- 80 -->
      <g transform="translate(24.825 47.439336)scale(0.1 -0.1)">
       <use xlink:href="#DejaVuSans-56"/>
       <use x="63.623047" xlink:href="#DejaVuSans-48"/>
      </g>
     </g>
    </g>
    <g id="text_15">
     <!-- New admissions per million population -->
     <g transform="translate(18.745313 223.460498)rotate(-90)scale(0.1 -0.1)">
      <defs>
       <path d="M 9.8125 72.90625 
L 23.09375 72.90625 
L 55.421875 11.921875 
L 55.421875 72.90625 
L 64.984375 72.90625 
L 64.984375 0 
L 51.703125 0 
L 19.390625 60.984375 
L 19.390625 0 
L 9.8125 0 
z
" id="DejaVuSans-78"/>
       <path d="M 4.203125 54.6875 
L 13.1875 54.6875 
L 24.421875 12.015625 
L 35.59375 54.6875 
L 46.1875 54.6875 
L 57.421875 12.015625 
L 68.609375 54.6875 
L 77.59375 54.6875 
L 63.28125 0 
L 52.6875 0 
L 40.921875 44.828125 
L 29.109375 0 
L 18.5 0 
z
" id="DejaVuSans-119"/>
       <path id="DejaVuSans-32"/>
       <path d="M 45.40625 46.390625 
L 45.40625 75.984375 
L 54.390625 75.984375 
L 54.390625 0 
L 45.40625 0 
L 45.40625 8.203125 
Q 42.578125 3.328125 38.25 0.953125 
Q 33.9375 -1.421875 27.875 -1.421875 
Q 17.96875 -1.421875 11.734375 6.484375 
Q 5.515625 14.40625 5.515625 27.296875 
Q 5.515625 40.1875 11.734375 48.09375 
Q 17.96875 56 27.875 56 
Q 33.9375 56 38.25 53.625 
Q 42.578125 51.265625 45.40625 46.390625 
z
M 14.796875 27.296875 
Q 14.796875 17.390625 18.875 11.75 
Q 22.953125 6.109375 30.078125 6.109375 
Q 37.203125 6.109375 41.296875 11.75 
Q 45.40625 17.390625 45.40625 27.296875 
Q 45.40625 37.203125 41.296875 42.84375 
Q 37.203125 48.484375 30.078125 48.484375 
Q 22.953125 48.484375 18.875 42.84375 
Q 14.796875 37.203125 14.796875 27.296875 
z
" id="DejaVuSans-100"/>
       <path d="M 52 44.1875 
Q 55.375 50.25 60.0625 53.125 
Q 64.75 56 71.09375 56 
Q 79.640625 56 84.28125 50.015625 
Q 88.921875 44.046875 88.921875 33.015625 
L 88.921875 0 
L 79.890625 0 
L 79.890625 32.71875 
Q 79.890625 40.578125 77.09375 44.375 
Q 74.3125 48.1875 68.609375 48.1875 
Q 61.625 48.1875 57.5625 43.546875 
Q 53.515625 38.921875 53.515625 30.90625 
L 53.515625 0 
L 44.484375 0 
L 44.484375 32.71875 
Q 44.484375 40.625 41.703125 44.40625 
Q 38.921875 48.1875 33.109375 48.1875 
Q 26.21875 48.1875 22.15625 43.53125 
Q 18.109375 38.875 18.109375 30.90625 
L 18.109375 0 
L 9.078125 0 
L 9.078125 54.6875 
L 18.109375 54.6875 
L 18.109375 46.1875 
Q 21.1875 51.21875 25.484375 53.609375 
Q 29.78125 56 35.6875 56 
Q 41.65625 56 45.828125 52.96875 
Q 50 49.953125 52 44.1875 
z
" id="DejaVuSans-109"/>
       <path d="M 9.421875 54.6875 
L 18.40625 54.6875 
L 18.40625 0 
L 9.421875 0 
z
M 9.421875 75.984375 
L 18.40625 75.984375 
L 18.40625 64.59375 
L 9.421875 64.59375 
z
" id="DejaVuSans-105"/>
       <path d="M 44.28125 53.078125 
L 44.28125 44.578125 
Q 40.484375 46.53125 36.375 47.5 
Q 32.28125 48.484375 27.875 48.484375 
Q 21.1875 48.484375 17.84375 46.4375 
Q 14.5 44.390625 14.5 40.28125 
Q 14.5 37.15625 16.890625 35.375 
Q 19.28125 33.59375 26.515625 31.984375 
L 29.59375 31.296875 
Q 39.15625 29.25 43.1875 25.515625 
Q 47.21875 21.78125 47.21875 15.09375 
Q 47.21875 7.46875 41.1875 3.015625 
Q 35.15625 -1.421875 24.609375 -1.421875 
Q 20.21875 -1.421875 15.453125 -0.5625 
Q 10.6875 0.296875 5.421875 2 
L 5.421875 11.28125 
Q 10.40625 8.6875 15.234375 7.390625 
Q 20.0625 6.109375 24.8125 6.109375 
Q 31.15625 6.109375 34.5625 8.28125 
Q 37.984375 10.453125 37.984375 14.40625 
Q 37.984375 18.0625 35.515625 20.015625 
Q 33.0625 21.96875 24.703125 23.78125 
L 21.578125 24.515625 
Q 13.234375 26.265625 9.515625 29.90625 
Q 5.8125 33.546875 5.8125 39.890625 
Q 5.8125 47.609375 11.28125 51.796875 
Q 16.75 56 26.8125 56 
Q 31.78125 56 36.171875 55.265625 
Q 40.578125 54.546875 44.28125 53.078125 
z
" id="DejaVuSans-115"/>
       <path d="M 30.609375 48.390625 
Q 23.390625 48.390625 19.1875 42.75 
Q 14.984375 37.109375 14.984375 27.296875 
Q 14.984375 17.484375 19.15625 11.84375 
Q 23.34375 6.203125 30.609375 6.203125 
Q 37.796875 6.203125 41.984375 11.859375 
Q 46.1875 17.53125 46.1875 27.296875 
Q 46.1875 37.015625 41.984375 42.703125 
Q 37.796875 48.390625 30.609375 48.390625 
z
M 30.609375 56 
Q 42.328125 56 49.015625 48.375 
Q 55.71875 40.765625 55.71875 27.296875 
Q 55.71875 13.875 49.015625 6.21875 
Q 42.328125 -1.421875 30.609375 -1.421875 
Q 18.84375 -1.421875 12.171875 6.21875 
Q 5.515625 13.875 5.515625 27.296875 
Q 5.515625 40.765625 12.171875 48.375 
Q 18.84375 56 30.609375 56 
z
" id="DejaVuSans-111"/>
       <path d="M 54.890625 33.015625 
L 54.890625 0 
L 45.90625 0 
L 45.90625 32.71875 
Q 45.90625 40.484375 42.875 44.328125 
Q 39.84375 48.1875 33.796875 48.1875 
Q 26.515625 48.1875 22.3125 43.546875 
Q 18.109375 38.921875 18.109375 30.90625 
L 18.109375 0 
L 9.078125 0 
L 9.078125 54.6875 
L 18.109375 54.6875 
L 18.109375 46.1875 
Q 21.34375 51.125 25.703125 53.5625 
Q 30.078125 56 35.796875 56 
Q 45.21875 56 50.046875 50.171875 
Q 54.890625 44.34375 54.890625 33.015625 
z
" id="DejaVuSans-110"/>
       <path d="M 18.109375 8.203125 
L 18.109375 -20.796875 
L 9.078125 -20.796875 
L 9.078125 54.6875 
L 18.109375 54.6875 
L 18.109375 46.390625 
Q 20.953125 51.265625 25.265625 53.625 
Q 29.59375 56 35.59375 56 
Q 45.5625 56 51.78125 48.09375 
Q 58.015625 40.1875 58.015625 27.296875 
Q 58.015625 14.40625 51.78125 6.484375 
Q 45.5625 -1.421875 35.59375 -1.421875 
Q 29.59375 -1.421875 25.265625 0.953125 
Q 20.953125 3.328125 18.109375 8.203125 
z
M 48.6875 27.296875 
Q 48.6875 37.203125 44.609375 42.84375 
Q 40.53125 48.484375 33.40625 48.484375 
Q 26.265625 48.484375 22.1875 42.84375 
Q 18.109375 37.203125 18.109375 27.296875 
Q 18.109375 17.390625 22.1875 11.75 
Q 26.265625 6.109375 33.40625 6.109375 
Q 40.53125 6.109375 44.609375 11.75 
Q 48.6875 17.390625 48.6875 27.296875 
z
" id="DejaVuSans-112"/>
       <path d="M 41.109375 46.296875 
Q 39.59375 47.171875 37.8125 47.578125 
Q 36.03125 48 33.890625 48 
Q 26.265625 48 22.1875 43.046875 
Q 18.109375 38.09375 18.109375 28.8125 
L 18.109375 0 
L 9.078125 0 
L 9.078125 54.6875 
L 18.109375 54.6875 
L 18.109375 46.1875 
Q 20.953125 51.171875 25.484375 53.578125 
Q 30.03125 56 36.53125 56 
Q 37.453125 56 38.578125 55.875 
Q 39.703125 55.765625 41.0625 55.515625 
z
" id="DejaVuSans-114"/>
       <path d="M 9.421875 75.984375 
L 18.40625 75.984375 
L 18.40625 0 
L 9.421875 0 
z
" id="DejaVuSans-108"/>
       <path d="M 8.5 21.578125 
L 8.5 54.6875 
L 17.484375 54.6875 
L 17.484375 21.921875 
Q 17.484375 14.15625 20.5 10.265625 
Q 23.53125 6.390625 29.59375 6.390625 
Q 36.859375 6.390625 41.078125 11.03125 
Q 45.3125 15.671875 45.3125 23.6875 
L 45.3125 54.6875 
L 54.296875 54.6875 
L 54.296875 0 
L 45.3125 0 
L 45.3125 8.40625 
Q 42.046875 3.421875 37.71875 1 
Q 33.40625 -1.421875 27.6875 -1.421875 
Q 18.265625 -1.421875 13.375 4.4375 
Q 8.5 10.296875 8.5 21.578125 
z
M 31.109375 56 
z
" id="DejaVuSans-117"/>
      </defs>
      <use xlink:href="#DejaVuSans-78"/>
      <use x="74.804688" xlink:href="#DejaVuSans-101"/>
      <use x="136.328125" xlink:href="#DejaVuSans-119"/>
      <use x="218.115234" xlink:href="#DejaVuSans-32"/>
      <use x="249.902344" xlink:href="#DejaVuSans-97"/>
      <use x="311.181641" xlink:href="#DejaVuSans-100"/>
      <use x="374.658203" xlink:href="#DejaVuSans-109"/>
      <use x="472.070312" xlink:href="#DejaVuSans-105"/>
      <use x="499.853516" xlink:href="#DejaVuSans-115"/>
      <use x="551.953125" xlink:href="#DejaVuSans-115"/>
      <use x="604.052734" xlink:href="#DejaVuSans-105"/>
      <use x="631.835938" xlink:href="#DejaVuSans-111"/>
      <use x="693.017578" xlink:href="#DejaVuSans-110"/>
      <use x="756.396484" xlink:href="#DejaVuSans-115"/>
      <use x="808.496094" xlink:href="#DejaVuSans-32"/>
      <use x="840.283203" xlink:href="#DejaVuSans-112"/>
      <use x="903.759766" xlink:href="#DejaVuSans-101"/>
      <use x="965.283203" xlink:href="#DejaVuSans-114"/>
      <use x="1006.396484" xlink:href="#DejaVuSans-32"/>
      <use x="1038.183594" xlink:href="#DejaVuSans-109"/>
      <use x="1135.595703" xlink:href="#DejaVuSans-105"/>
      <use x="1163.378906" xlink:href="#DejaVuSans-108"/>
      <use x="1191.162109" xlink:href="#DejaVuSans-108"/>
      <use x="1218.945312" xlink:href="#DejaVuSans-105"/>
      <use x="1246.728516" xlink:href="#DejaVuSans-111"/>
      <use x="1307.910156" xlink:href="#DejaVuSans-110"/>
      <use x="1371.289062" xlink:href="#DejaVuSans-32"/>
      <use x="1403.076172" xlink:href="#DejaVuSans-112"/>
      <use x="1466.552734" xlink:href="#DejaVuSans-111"/>
      <use x="1527.734375" xlink:href="#DejaVuSans-112"/>
      <use x="1591.210938" xlink:href="#DejaVuSans-117"/>
      <use x="1654.589844" xlink:href="#DejaVuSans-108"/>
      <use x="1682.373047" xlink:href="#DejaVuSans-97"/>
      <use x="1743.652344" xlink:href="#DejaVuSans-116"/>
      <use x="1782.861328" xlink:href="#DejaVuSans-105"/>
      <use x="1810.644531" xlink:href="#DejaVuSans-111"/>
      <use x="1871.826172" xlink:href="#DejaVuSans-110"/>
     </g>
    </g>
   </g>
   <g id="line2d_14">
    <path clip-path="url(#p52a4d1fa9e)" d="M 61.670455 206.792522 
L 63.085368 204.082923 
L 64.500282 203.179723 
L 65.915195 203.308751 
L 67.330109 201.45074 
L 68.745023 200.341094 
L 70.159936 197.66836 
L 71.57485 194.516376 
L 72.989763 191.087903 
L 74.404677 186.276981 
L 77.234504 178.756459 
L 78.649418 175.327986 
L 80.064331 174.332623 
L 81.479245 170.682958 
L 82.894159 169.687594 
L 84.309072 171.457129 
L 85.723986 170.185276 
L 87.138899 169.300509 
L 88.553813 167.64157 
L 89.968727 166.425015 
L 91.38364 168.139252 
L 92.798554 167.696868 
L 94.213467 166.093227 
L 95.628381 166.148525 
L 97.043295 167.862762 
L 98.458208 170.406468 
L 99.873122 171.623023 
L 101.288035 171.788917 
L 102.702949 173.392557 
L 104.117863 175.383284 
L 105.532776 178.314075 
L 106.94769 180.304802 
L 108.362603 181.244867 
L 109.777517 182.79321 
L 111.192431 184.67334 
L 112.607344 185.22632 
L 114.022258 186.940556 
L 115.437171 188.323005 
L 116.852085 188.765389 
L 118.266998 189.760752 
L 119.681912 191.640883 
L 121.096826 192.415054 
L 122.511739 194.073993 
L 123.926653 193.631609 
L 125.341566 192.470352 
L 126.75648 192.083266 
L 128.171394 193.299821 
L 129.586307 192.857438 
L 131.001221 193.797503 
L 132.416134 194.295185 
L 133.831048 195.567037 
L 135.245962 197.281274 
L 136.660875 198.276637 
L 138.075789 198.884915 
L 139.490702 199.216703 
L 140.905616 200.10147 
L 142.32053 200.267364 
L 143.735443 199.82498 
L 145.150357 200.599151 
L 146.56527 201.152131 
L 147.980184 200.37796 
L 149.395098 200.212066 
L 150.810011 199.327298 
L 152.224925 199.935576 
L 153.639838 201.318025 
L 155.054752 201.539217 
L 156.469666 202.202792 
L 157.884579 203.032261 
L 159.299493 204.138221 
L 160.714406 204.41471 
L 162.12932 205.188882 
L 163.544234 205.022988 
L 164.959147 205.022988 
L 166.374061 204.470008 
L 167.788974 204.193518 
L 169.203888 204.304114 
L 170.618802 206.073649 
L 172.033715 205.797159 
L 174.863542 206.018351 
L 176.278456 208.174971 
L 177.69337 209.55742 
L 180.523197 210.608081 
L 181.93811 212.045828 
L 184.767938 213.870661 
L 186.182851 213.760065 
L 187.597765 214.091852 
L 189.012678 214.810726 
L 191.842506 214.202448 
L 193.257419 214.589534 
L 194.672333 214.70013 
L 196.087246 215.142514 
L 201.746901 215.529599 
L 204.576728 214.866024 
L 205.991642 214.534236 
L 207.406555 214.42364 
L 208.821469 214.644832 
L 210.236382 215.197812 
L 211.651296 215.308407 
L 213.06621 215.640195 
L 215.896037 216.082579 
L 217.31095 216.524962 
L 218.725864 216.690856 
L 221.555691 216.469665 
L 222.970605 216.469665 
L 224.385518 216.635558 
L 228.630259 216.082579 
L 230.045173 216.193175 
L 231.460086 216.137877 
L 232.875 216.359069 
L 234.289914 216.359069 
L 238.534654 216.912048 
L 239.949568 216.967346 
L 241.364482 217.354432 
L 245.609222 216.912048 
L 251.268877 216.635558 
L 252.68379 216.85675 
L 254.098704 216.801452 
L 255.513618 216.912048 
L 256.928531 216.801452 
L 258.343445 216.912048 
L 262.588186 216.801452 
L 264.003099 217.022644 
L 269.662754 217.077942 
L 272.492581 217.188538 
L 273.907494 217.077942 
L 275.322408 217.13324 
L 276.737322 216.967346 
L 278.152235 216.967346 
L 280.982062 216.524962 
L 286.641717 216.85675 
L 290.886458 217.465028 
L 293.716285 217.40973 
L 296.546112 217.520326 
L 297.961026 217.299134 
L 303.62068 217.40973 
L 307.865421 217.077942 
L 309.280334 216.746154 
L 312.110162 216.635558 
L 313.525075 216.58026 
L 316.354902 216.746154 
L 317.769816 216.746154 
L 319.18473 216.912048 
L 320.599643 216.85675 
L 326.259298 215.584897 
L 327.674211 215.529599 
L 330.504038 215.031918 
L 333.333866 215.363705 
L 334.748779 215.584897 
L 338.99352 215.363705 
L 341.823347 214.755428 
L 343.238261 214.14715 
L 344.653174 213.262383 
L 346.068088 212.598808 
L 347.483002 211.71404 
L 348.897915 210.497485 
L 351.727742 209.55742 
L 353.142656 208.506759 
L 354.557569 207.843184 
L 355.972483 207.732588 
L 357.387397 206.350139 
L 360.217224 206.516033 
L 361.632137 205.465371 
L 363.047051 205.465371 
L 365.876878 203.253453 
L 368.706705 202.976963 
L 370.121619 202.202792 
L 371.536533 201.705111 
L 372.951446 200.046172 
L 374.36636 198.055445 
L 377.196187 195.788229 
L 378.611101 193.963397 
L 380.026014 191.530287 
L 381.440928 188.599495 
L 382.855841 187.93592 
L 384.270755 187.770026 
L 385.685669 186.498173 
L 388.515496 182.682614 
L 389.930409 181.410761 
L 391.345323 180.802483 
L 392.760237 178.867055 
L 394.17515 177.871692 
L 395.590064 178.258777 
L 397.004977 176.433945 
L 398.419891 172.839578 
L 399.834805 171.401831 
L 401.249718 171.678321 
L 402.664632 171.180639 
L 404.079545 171.401831 
L 404.079545 171.401831 
" style="fill:none;stroke:#1f77b4;stroke-linecap:square;stroke-width:1.5;"/>
   </g>
   <g id="line2d_15">
    <path clip-path="url(#p52a4d1fa9e)" d="M 61.670455 198.280609 
L 63.085368 191.290281 
L 64.500282 189.851095 
L 65.915195 187.024124 
L 67.330109 184.670028 
L 68.745023 178.954407 
L 70.159936 172.140305 
L 72.989763 157.454741 
L 74.404677 151.609886 
L 75.819591 143.12163 
L 77.234504 132.166199 
L 78.649418 124.38285 
L 80.064331 113.985471 
L 81.479245 107.347596 
L 82.894159 105.967153 
L 84.309072 99.828587 
L 85.723986 99.593618 
L 87.138899 103.764318 
L 88.553813 105.585328 
L 89.968727 112.634399 
L 91.38364 118.743594 
L 92.798554 120.858315 
L 94.213467 127.437448 
L 95.628381 132.900477 
L 97.043295 136.013817 
L 98.458208 141.095022 
L 99.873122 149.730134 
L 102.702949 154.987566 
L 104.117863 158.100906 
L 105.532776 158.74707 
L 106.94769 160.30374 
L 108.362603 163.240853 
L 109.777517 163.94576 
L 111.192431 165.76677 
L 112.607344 168.322058 
L 114.022258 169.555646 
L 116.852085 173.814459 
L 118.266998 174.959933 
L 119.681912 174.813078 
L 121.096826 175.253644 
L 122.511739 175.4005 
L 123.926653 176.457861 
L 125.341566 178.2495 
L 126.75648 177.250881 
L 128.171394 178.308242 
L 129.586307 178.954407 
L 132.416134 181.333468 
L 133.831048 181.098499 
L 135.245962 181.832777 
L 136.660875 184.035612 
L 138.075789 184.740519 
L 139.490702 186.297189 
L 140.905616 187.002096 
L 142.32053 186.561529 
L 143.735443 187.031467 
L 145.150357 186.209075 
L 146.56527 186.532158 
L 147.980184 186.620271 
L 149.395098 186.5909 
L 150.810011 186.884611 
L 152.224925 188.41191 
L 153.639838 189.293044 
L 156.469666 192.935064 
L 157.884579 194.080538 
L 160.714406 195.314125 
L 162.12932 195.549094 
L 163.544234 195.460981 
L 164.959147 195.108527 
L 166.374061 195.049785 
L 167.788974 194.814816 
L 169.203888 195.226012 
L 170.618802 195.813434 
L 172.033715 197.047022 
L 173.448629 198.956145 
L 174.863542 200.042877 
L 176.278456 200.277846 
L 177.69337 200.953382 
L 179.108283 201.15898 
L 180.523197 201.68766 
L 181.93811 201.717031 
L 183.353024 201.070866 
L 184.767938 200.865268 
L 186.182851 201.100237 
L 187.597765 202.010742 
L 189.012678 203.156216 
L 190.427592 203.449928 
L 191.842506 203.890495 
L 193.257419 204.801 
L 194.672333 205.124082 
L 196.087246 205.799618 
L 198.917074 206.504525 
L 200.331987 207.297545 
L 201.746901 207.121319 
L 203.161814 207.121319 
L 204.576728 208.061195 
L 208.821469 209.294782 
L 210.236382 209.529751 
L 213.06621 210.880823 
L 214.481123 210.998308 
L 215.896037 211.292019 
L 218.725864 212.173153 
L 220.140778 212.34938 
L 221.555691 212.966173 
L 222.970605 213.083658 
L 224.385518 213.40674 
L 227.215346 213.788565 
L 228.630259 214.170389 
L 230.045173 214.43473 
L 235.704827 214.96341 
L 238.534654 215.080894 
L 242.779395 214.640328 
L 244.194309 214.610956 
L 245.609222 215.022152 
L 247.024136 215.169008 
L 248.43905 215.139637 
L 251.268877 215.462719 
L 254.098704 215.785802 
L 255.513618 215.638946 
L 256.928531 215.844544 
L 258.343445 215.903286 
L 261.173272 216.285111 
L 264.003099 215.962028 
L 265.418013 216.226368 
L 266.832926 216.285111 
L 268.24784 216.461337 
L 271.077667 215.991399 
L 272.492581 215.903286 
L 273.907494 215.932657 
L 276.737322 215.374606 
L 278.152235 215.286492 
L 286.641717 215.991399 
L 289.471544 215.873915 
L 290.886458 216.108884 
L 292.301371 216.020771 
L 293.716285 216.050142 
L 295.131198 215.844544 
L 296.546112 215.903286 
L 297.961026 215.844544 
L 299.375939 216.020771 
L 302.205766 215.22775 
L 303.62068 214.904668 
L 305.035594 214.757812 
L 307.865421 213.729823 
L 309.280334 213.054287 
L 310.695248 212.643091 
L 312.110162 212.701833 
L 313.525075 212.34938 
L 314.939989 211.879441 
L 320.599643 211.145163 
L 322.014557 210.52837 
L 323.42947 210.175916 
L 324.844384 210.352143 
L 326.259298 209.529751 
L 327.674211 209.001071 
L 330.504038 207.67937 
L 331.918952 207.41503 
L 333.333866 207.268174 
L 334.748779 206.445783 
L 336.163693 206.62201 
L 338.99352 206.475154 
L 340.408434 206.298927 
L 341.823347 206.269556 
L 343.238261 205.682133 
L 344.653174 204.536659 
L 347.483002 203.156216 
L 348.897915 202.715649 
L 350.312829 202.128227 
L 351.727742 201.393949 
L 353.142656 200.424701 
L 354.557569 200.072248 
L 355.972483 197.634444 
L 357.387397 196.22463 
L 358.80231 194.198022 
L 360.217224 192.876321 
L 361.632137 191.995188 
L 364.461965 188.235683 
L 365.876878 186.85524 
L 367.291792 184.858003 
L 368.706705 182.390829 
L 370.121619 180.951643 
L 371.536533 179.013149 
L 372.951446 177.397737 
L 374.36636 174.313768 
L 375.781273 172.551501 
L 377.196187 171.611625 
L 380.026014 168.351429 
L 381.440928 166.119224 
L 382.855841 164.533183 
L 384.270755 164.356956 
L 385.685669 164.562554 
L 387.100582 162.535946 
L 388.515496 161.478585 
L 391.345323 158.688328 
L 392.760237 156.103669 
L 394.17515 152.784731 
L 397.004977 144.854527 
L 398.419891 143.562197 
L 399.834805 140.830682 
L 401.249718 139.47961 
L 402.664632 140.419486 
L 404.079545 140.595713 
L 404.079545 140.595713 
" style="fill:none;stroke:#ff7f0e;stroke-linecap:square;stroke-width:1.5;"/>
   </g>
   <g id="line2d_16">
    <path clip-path="url(#p52a4d1fa9e)" d="M 61.670455 205.85737 
L 63.085368 206.490736 
L 64.500282 204.168392 
L 65.915195 203.260567 
L 67.330109 200.790437 
L 68.745023 196.610218 
L 70.159936 193.877694 
L 71.57485 188.521222 
L 74.404677 174.695735 
L 75.819591 168.000146 
L 77.234504 159.567323 
L 78.649418 154.64516 
L 80.064331 142.086406 
L 81.479245 133.870737 
L 82.894159 129.057152 
L 84.309072 127.754226 
L 85.723986 123.736873 
L 87.138899 121.420561 
L 88.553813 116.245051 
L 89.968727 122.759678 
L 91.38364 125.908415 
L 92.798554 127.862803 
L 94.213467 128.007573 
L 95.628381 130.034346 
L 97.043295 133.617391 
L 98.458208 138.684323 
L 99.873122 141.326366 
L 101.288035 143.534101 
L 102.702949 146.538068 
L 104.117863 148.673418 
L 105.532776 150.193498 
L 106.94769 151.170692 
L 108.362603 153.088888 
L 109.777517 153.342235 
L 111.192431 155.079469 
L 112.607344 155.549969 
L 114.022258 156.744318 
L 116.852085 158.083436 
L 118.266998 159.06063 
L 119.681912 159.6759 
L 121.096826 160.942633 
L 122.511739 163.33133 
L 123.926653 164.272332 
L 125.341566 166.480066 
L 129.586307 174.985274 
L 131.001221 175.745314 
L 132.416134 177.66351 
L 133.831048 178.640704 
L 135.245962 180.414131 
L 136.660875 181.644671 
L 138.075789 181.31894 
L 139.490702 181.17417 
L 140.905616 182.766635 
L 142.32053 182.585673 
L 143.735443 184.395292 
L 146.56527 187.688798 
L 147.980184 189.715571 
L 149.395098 191.525189 
L 150.810011 191.669959 
L 152.224925 192.538576 
L 153.639838 192.466191 
L 155.054752 192.828115 
L 156.469666 194.058656 
L 157.884579 194.565349 
L 159.299493 195.433966 
L 160.714406 197.207392 
L 162.12932 197.714085 
L 163.544234 198.510318 
L 164.959147 198.763664 
L 166.374061 198.618895 
L 167.788974 199.16178 
L 169.203888 200.211359 
L 170.618802 201.007591 
L 172.033715 201.079976 
L 173.448629 202.129555 
L 174.863542 203.541058 
L 176.278456 204.228713 
L 177.69337 204.554444 
L 179.108283 204.373482 
L 180.523197 204.626829 
L 181.93811 205.495446 
L 183.353024 205.821177 
L 184.767938 205.676408 
L 186.182851 205.784985 
L 187.597765 205.748792 
L 189.012678 205.893562 
L 190.427592 205.640215 
L 191.842506 206.074524 
L 193.257419 206.32787 
L 194.672333 207.051718 
L 196.087246 206.725987 
L 197.50216 207.377449 
L 198.917074 208.246066 
L 200.331987 208.825144 
L 204.576728 208.499413 
L 205.991642 209.729954 
L 207.406555 210.12807 
L 208.821469 210.200454 
L 211.651296 210.74334 
L 214.481123 211.539572 
L 217.31095 211.430995 
L 218.725864 211.50338 
L 220.140778 211.792919 
L 222.970605 211.973881 
L 224.385518 212.082458 
L 225.800432 212.046266 
L 228.630259 212.589151 
L 230.045173 212.697728 
L 231.460086 212.951075 
L 232.875 213.530153 
L 234.289914 213.276806 
L 237.119741 214.724501 
L 239.949568 215.520733 
L 241.364482 215.520733 
L 242.779395 215.375964 
L 244.194309 215.701695 
L 245.609222 215.375964 
L 247.024136 215.303579 
L 248.43905 215.412156 
L 249.853963 215.122617 
L 251.268877 215.267387 
L 254.098704 215.15881 
L 256.928531 214.507347 
L 264.003099 214.579732 
L 265.418013 215.122617 
L 266.832926 215.195002 
L 268.24784 214.941655 
L 269.662754 215.267387 
L 276.737322 215.846465 
L 278.152235 216.136004 
L 280.982062 215.91885 
L 282.396976 216.063619 
L 286.641717 215.991234 
L 288.05663 215.737888 
L 289.471544 215.701695 
L 290.886458 215.810272 
L 296.546112 215.448349 
L 299.375939 215.593118 
L 300.790853 215.375964 
L 305.035594 215.050233 
L 306.450507 214.652116 
L 307.865421 213.747307 
L 313.525075 210.924302 
L 316.354902 209.295645 
L 317.769816 209.042298 
L 319.18473 207.956527 
L 320.599643 206.725987 
L 322.014557 206.074524 
L 324.844384 203.179134 
L 326.259298 202.853403 
L 327.674211 201.116169 
L 329.089125 200.899014 
L 330.504038 200.899014 
L 331.918952 200.247552 
L 334.748779 199.994205 
L 336.163693 198.329356 
L 337.578606 198.148394 
L 338.99352 197.315969 
L 340.408434 196.013044 
L 341.823347 194.239617 
L 343.238261 192.285229 
L 344.653174 190.801342 
L 346.068088 188.738377 
L 347.483002 187.073527 
L 348.897915 185.73441 
L 350.312829 184.06956 
L 351.727742 183.056174 
L 354.557569 179.292167 
L 355.972483 178.495935 
L 357.387397 177.518741 
L 358.80231 175.383391 
L 360.217224 174.91289 
L 361.632137 172.560385 
L 363.047051 171.148883 
L 364.461965 169.375456 
L 365.876878 166.08195 
L 367.291792 162.317943 
L 368.706705 160.218786 
L 370.121619 156.78051 
L 371.536533 154.355621 
L 374.36636 147.044762 
L 375.781273 146.067567 
L 377.196187 142.955023 
L 378.611101 139.516748 
L 380.026014 139.227209 
L 381.440928 137.489975 
L 382.855841 136.476588 
L 384.270755 135.065086 
L 385.685669 132.857351 
L 387.100582 133.074505 
L 388.515496 132.784966 
L 389.930409 130.541039 
L 392.760237 129.672422 
L 394.17515 128.043765 
L 395.590064 124.352143 
L 397.004977 121.131022 
L 398.419891 120.515751 
L 399.834805 118.452786 
L 402.664632 117.222245 
L 404.079545 117.403207 
L 404.079545 117.403207 
" style="fill:none;stroke:#2ca02c;stroke-linecap:square;stroke-width:1.5;"/>
   </g>
   <g id="line2d_17">
    <path clip-path="url(#p52a4d1fa9e)" d="M 61.670455 159.645511 
L 63.085368 155.754011 
L 64.500282 151.295001 
L 65.915195 147.606183 
L 67.330109 137.123456 
L 68.745023 124.784159 
L 71.57485 104.956041 
L 72.989763 92.20443 
L 74.404677 83.865502 
L 75.819591 72.156257 
L 77.234504 59.022446 
L 78.649418 58.744481 
L 80.064331 55.547892 
L 81.479245 44.568304 
L 82.894159 44.290339 
L 84.309072 37.966652 
L 85.723986 35.88192 
L 87.138899 40.746295 
L 88.553813 38.070889 
L 89.968727 38.870036 
L 91.38364 48.633531 
L 92.798554 52.664013 
L 94.213467 61.107178 
L 97.043295 84.560413 
L 98.458208 94.115435 
L 99.873122 105.650952 
L 102.702949 117.429688 
L 104.117863 124.622013 
L 105.532776 127.888093 
L 106.94769 131.640611 
L 108.362603 137.165151 
L 109.777517 143.662565 
L 111.192431 147.901521 
L 112.607344 154.398935 
L 114.022258 159.471783 
L 115.437171 163.050573 
L 116.852085 164.683613 
L 118.266998 166.073435 
L 119.681912 166.525127 
L 121.096826 169.409006 
L 122.511739 168.36664 
L 123.926653 167.914948 
L 125.341566 168.853077 
L 126.75648 171.841193 
L 128.171394 174.273381 
L 129.586307 174.134398 
L 131.001221 173.474233 
L 132.416134 177.018278 
L 133.831048 179.276737 
L 135.245962 181.847907 
L 136.660875 184.766532 
L 138.075789 188.171594 
L 139.490702 192.514786 
L 140.905616 196.37154 
L 142.32053 197.135942 
L 143.735443 198.039325 
L 145.150357 199.255419 
L 146.56527 199.846093 
L 147.980184 199.533383 
L 149.395098 200.228294 
L 150.810011 200.749477 
L 152.224925 200.749477 
L 153.639838 201.305406 
L 155.054752 201.652861 
L 157.884579 203.285901 
L 159.299493 203.355392 
L 160.714406 204.015557 
L 162.12932 204.918941 
L 163.544234 205.370633 
L 166.374061 205.370633 
L 167.788974 205.926562 
L 172.033715 205.961307 
L 176.278456 204.189285 
L 177.69337 204.745213 
L 180.523197 206.586727 
L 181.93811 207.281637 
L 183.353024 208.185021 
L 184.767938 209.366369 
L 186.182851 210.06128 
L 187.597765 209.331624 
L 190.427592 208.185021 
L 191.842506 207.594347 
L 193.257419 207.629093 
L 194.672333 207.524856 
L 197.50216 206.690963 
L 201.746901 207.246892 
L 203.161814 206.899437 
L 204.576728 207.142655 
L 207.406555 209.957043 
L 208.821469 209.887552 
L 211.651296 211.242628 
L 213.06621 211.69432 
L 214.481123 211.520593 
L 215.896037 211.173137 
L 217.31095 211.242628 
L 218.725864 212.041776 
L 220.140778 212.041776 
L 221.555691 211.833302 
L 222.970605 211.798557 
L 224.385518 212.041776 
L 225.800432 212.458722 
L 232.875 213.779052 
L 234.289914 214.091762 
L 235.704827 214.230744 
L 238.534654 214.890909 
L 239.949568 215.238365 
L 242.779395 215.342601 
L 244.194309 215.27311 
L 247.024136 215.551074 
L 248.43905 215.551074 
L 249.853963 215.863784 
L 251.268877 216.315476 
L 254.098704 216.280731 
L 255.513618 216.558695 
L 258.343445 216.59344 
L 262.588186 216.454458 
L 264.003099 216.454458 
L 265.418013 216.21124 
L 266.832926 215.759548 
L 268.24784 216.002766 
L 272.492581 215.829039 
L 273.907494 215.933275 
L 275.322408 216.176494 
L 276.737322 216.59344 
L 278.152235 216.523949 
L 282.396976 216.767168 
L 285.226803 216.59344 
L 286.641717 216.489204 
L 289.471544 216.59344 
L 292.301371 216.280731 
L 296.546112 216.454458 
L 297.961026 216.245985 
L 299.375939 215.89853 
L 300.790853 215.89853 
L 302.205766 215.307856 
L 303.62068 215.099382 
L 305.035594 215.134128 
L 310.695248 214.543454 
L 312.110162 214.682436 
L 313.525075 214.300235 
L 314.939989 213.396851 
L 316.354902 212.875668 
L 319.18473 212.284994 
L 320.599643 211.312119 
L 326.259298 209.574843 
L 327.674211 209.192642 
L 329.089125 208.532477 
L 331.918952 208.845186 
L 334.748779 209.922298 
L 336.163693 209.887552 
L 337.578606 210.06128 
L 340.408434 209.922298 
L 341.823347 209.574843 
L 343.238261 209.43586 
L 344.653174 208.775695 
L 346.068088 208.532477 
L 347.483002 208.011294 
L 348.897915 208.393494 
L 350.312829 207.768075 
L 351.727742 207.316383 
L 354.557569 205.752834 
L 357.387397 203.668102 
L 358.80231 202.313026 
L 360.217224 201.89608 
L 361.632137 200.64524 
L 363.047051 199.081691 
L 364.461965 198.352035 
L 365.876878 197.796107 
L 367.291792 196.475776 
L 368.706705 195.43341 
L 370.121619 193.41817 
L 372.951446 191.889366 
L 374.36636 189.630906 
L 375.781273 188.935996 
L 377.196187 189.005487 
L 378.611101 187.89363 
L 380.026014 187.858884 
L 381.440928 187.024991 
L 382.855841 186.469063 
L 384.270755 187.129228 
L 385.685669 187.337701 
L 387.100582 186.9555 
L 389.930409 188.58854 
L 391.345323 189.387688 
L 392.760237 188.831759 
L 394.17515 188.831759 
L 395.590064 187.302956 
L 397.004977 186.920755 
L 401.249718 183.480947 
L 404.079545 182.160617 
L 404.079545 182.160617 
" style="fill:none;stroke:#d62728;stroke-linecap:square;stroke-width:1.5;"/>
   </g>
   <g id="line2d_18">
    <path clip-path="url(#p52a4d1fa9e)" d="M 61.670455 203.510001 
L 63.085368 202.120936 
L 65.915195 198.185254 
L 67.330109 196.842492 
L 68.745023 194.095231 
L 70.159936 189.266578 
L 71.57485 183.22525 
L 72.989763 176.037393 
L 74.404677 169.907871 
L 75.819591 164.836683 
L 77.234504 150.10819 
L 78.649418 140.406788 
L 80.064331 128.103645 
L 81.479245 117.079324 
L 82.894159 107.069241 
L 85.723986 90.797343 
L 87.138899 92.032067 
L 88.553813 90.576857 
L 89.968727 93.046305 
L 91.38364 91.150121 
L 92.798554 95.295266 
L 97.043295 106.672365 
L 98.458208 111.346678 
L 99.873122 118.534535 
L 101.288035 128.368229 
L 102.702949 131.851915 
L 104.117863 136.570324 
L 106.94769 143.537695 
L 108.362603 143.93457 
L 109.777517 145.389781 
L 111.192431 148.564785 
L 112.607344 151.298817 
L 114.022258 151.475206 
L 115.437171 152.930416 
L 116.852085 153.062708 
L 118.266998 155.973129 
L 119.681912 155.399864 
L 121.096826 153.988751 
L 122.511739 155.31167 
L 123.926653 156.017226 
L 125.341566 155.31167 
L 126.75648 156.810977 
L 128.171394 156.502296 
L 129.586307 159.545009 
L 131.001221 160.956122 
L 132.416134 161.485289 
L 133.831048 162.323138 
L 135.245962 164.131126 
L 136.660875 163.513764 
L 138.075789 164.175224 
L 139.490702 162.9405 
L 142.32053 164.439807 
L 145.150357 163.381473 
L 146.56527 164.792586 
L 147.980184 165.36585 
L 149.395098 166.909255 
L 150.810011 166.865158 
L 152.224925 166.556477 
L 153.639838 168.893633 
L 155.054752 170.701622 
L 156.469666 172.906486 
L 157.884579 175.59642 
L 159.299493 175.728712 
L 160.714406 176.610658 
L 162.12932 178.330452 
L 163.544234 179.565176 
L 164.959147 179.65337 
L 166.374061 178.418646 
L 167.788974 178.021771 
L 169.203888 179.1683 
L 170.618802 180.094343 
L 172.033715 182.122818 
L 173.448629 183.930807 
L 174.863542 186.576644 
L 176.278456 190.148524 
L 177.69337 191.162761 
L 179.108283 191.559637 
L 180.523197 192.573874 
L 181.93811 191.824221 
L 183.353024 191.51554 
L 184.767938 190.898178 
L 186.182851 190.457205 
L 187.597765 191.118664 
L 189.012678 192.706166 
L 190.427592 194.029085 
L 191.842506 195.57249 
L 194.672333 197.99784 
L 196.087246 198.394716 
L 197.50216 199.761732 
L 198.917074 200.026315 
L 200.331987 200.820067 
L 201.746901 200.996456 
L 203.161814 200.379094 
L 204.576728 201.040553 
L 207.406555 203.818682 
L 208.821469 205.758962 
L 210.236382 207.346465 
L 211.651296 208.360702 
L 213.06621 209.639523 
L 215.896037 211.050636 
L 218.725864 211.579804 
L 220.140778 211.271123 
L 221.555691 212.197166 
L 222.970605 212.505847 
L 224.385518 213.167306 
L 225.800432 213.255501 
L 227.215346 213.123209 
L 228.630259 213.167306 
L 230.045173 213.343695 
L 231.460086 213.299598 
L 232.875 213.387792 
L 234.289914 213.167306 
L 237.119741 212.505847 
L 238.534654 212.373555 
L 239.949568 212.064874 
L 241.364482 211.535707 
L 244.194309 211.491609 
L 245.609222 212.108971 
L 248.43905 213.035014 
L 249.853963 213.299598 
L 251.268877 213.740571 
L 254.098704 213.784668 
L 255.513618 213.475987 
L 256.928531 213.696473 
L 258.343445 213.696473 
L 259.758358 214.049252 
L 261.173272 213.828765 
L 262.588186 212.505847 
L 264.003099 212.594041 
L 265.418013 212.94682 
L 266.832926 212.858625 
L 269.662754 213.035014 
L 271.077667 213.475987 
L 272.492581 215.107587 
L 273.907494 215.416268 
L 276.737322 215.636754 
L 278.152235 215.063489 
L 279.567149 215.328073 
L 280.982062 215.063489 
L 282.396976 215.195781 
L 283.81189 214.931197 
L 286.641717 215.019392 
L 288.05663 215.460365 
L 289.471544 214.710711 
L 290.886458 214.754808 
L 292.301371 214.137446 
L 293.716285 214.049252 
L 295.131198 213.828765 
L 297.961026 213.035014 
L 300.790853 212.94682 
L 302.205766 212.505847 
L 303.62068 211.535707 
L 305.035594 210.786053 
L 307.865421 210.433274 
L 309.280334 209.551329 
L 310.695248 208.360702 
L 313.525075 206.640908 
L 314.939989 205.935351 
L 316.354902 204.083266 
L 317.769816 202.848542 
L 319.18473 202.187082 
L 320.599643 202.054791 
L 322.014557 201.790207 
L 323.42947 201.128748 
L 324.844384 199.14437 
L 326.259298 198.350619 
L 327.674211 196.454435 
L 329.089125 195.484295 
L 330.504038 194.293669 
L 331.918952 193.676307 
L 333.333866 193.367626 
L 334.748779 192.573874 
L 337.578606 192.309291 
L 340.408434 187.94366 
L 341.823347 185.121433 
L 343.238261 179.1683 
L 344.653174 177.801284 
L 346.068088 173.259264 
L 347.483002 171.318984 
L 348.897915 169.114119 
L 350.312829 166.556477 
L 351.727742 164.483905 
L 353.142656 164.439807 
L 354.557569 160.956122 
L 355.972483 158.354382 
L 358.80231 151.387011 
L 360.217224 150.681455 
L 361.632137 146.492213 
L 363.047051 143.537695 
L 364.461965 143.096722 
L 365.876878 143.229014 
L 367.291792 141.950193 
L 368.706705 142.611652 
L 370.121619 139.127966 
L 371.536533 138.863383 
L 374.36636 133.439417 
L 377.196187 127.089408 
L 378.611101 122.811971 
L 380.026014 123.64982 
L 381.440928 123.561625 
L 382.855841 125.413711 
L 384.270755 125.678295 
L 385.685669 127.309894 
L 387.100582 127.794964 
L 388.515496 131.896012 
L 389.930409 134.056779 
L 391.345323 135.159211 
L 392.760237 134.938724 
L 394.17515 136.085254 
L 395.590064 135.203308 
L 397.004977 135.115114 
L 398.419891 132.513374 
L 399.834805 131.27865 
L 401.249718 132.645666 
L 402.664632 135.556086 
L 404.079545 134.453654 
L 404.079545 134.453654 
" style="fill:none;stroke:#9467bd;stroke-linecap:square;stroke-width:1.5;"/>
   </g>
   <g id="line2d_19">
    <path clip-path="url(#p52a4d1fa9e)" d="M 61.670455 210.339413 
L 63.085368 210.339413 
L 64.500282 208.781437 
L 65.915195 207.000893 
L 67.330109 206.132878 
L 68.745023 202.215682 
L 70.159936 200.848479 
L 71.57485 194.31452 
L 72.989763 190.928307 
L 74.404677 186.779005 
L 75.819591 179.529648 
L 77.234504 174.664949 
L 78.649418 172.757223 
L 80.064331 168.417148 
L 81.479245 167.272513 
L 82.894159 162.598586 
L 84.309072 160.738554 
L 85.723986 159.832384 
L 87.138899 155.873854 
L 88.553813 155.015378 
L 89.968727 152.535335 
L 91.38364 152.15379 
L 92.798554 151.056848 
L 94.213467 150.961461 
L 95.628381 154.58614 
L 97.043295 155.396923 
L 98.458208 154.299981 
L 99.873122 159.355453 
L 102.702949 165.078629 
L 104.117863 163.838607 
L 105.532776 163.647835 
L 106.94769 167.844831 
L 108.362603 169.704863 
L 109.777517 169.371011 
L 111.192431 169.609477 
L 112.607344 170.229487 
L 114.022258 173.234155 
L 116.852085 173.186462 
L 119.681912 169.704863 
L 121.096826 166.366344 
L 122.511739 167.034047 
L 123.926653 167.844831 
L 125.341566 166.938661 
L 126.75648 167.797138 
L 128.171394 172.280292 
L 129.586307 173.663393 
L 131.001221 177.57423 
L 132.416134 180.292739 
L 133.831048 180.76967 
L 135.245962 185.348211 
L 136.660875 186.349767 
L 138.075789 185.109745 
L 139.490702 187.780561 
L 140.905616 189.115968 
L 142.32053 188.066719 
L 143.735443 189.44982 
L 145.150357 188.782116 
L 146.56527 189.115968 
L 147.980184 190.546762 
L 149.395098 189.545206 
L 152.224925 190.689842 
L 156.469666 195.268383 
L 157.884579 195.316076 
L 159.299493 197.033028 
L 162.12932 199.369992 
L 163.544234 199.179219 
L 164.959147 200.276162 
L 166.374061 199.94231 
L 167.788974 201.134638 
L 169.203888 201.659262 
L 170.618802 201.420797 
L 172.033715 201.897728 
L 173.448629 202.517739 
L 174.863542 202.374659 
L 176.278456 203.805453 
L 177.69337 204.568544 
L 179.108283 204.902396 
L 181.93811 206.33319 
L 183.353024 206.237803 
L 184.767938 205.951644 
L 186.182851 204.568544 
L 187.597765 205.093168 
L 189.012678 204.902396 
L 191.842506 205.188554 
L 193.257419 205.808565 
L 196.087246 207.239359 
L 197.50216 207.811677 
L 198.917074 208.908619 
L 201.746901 208.527074 
L 203.161814 208.717846 
L 204.576728 209.337857 
L 205.991642 210.387106 
L 208.821469 210.434799 
L 210.236382 211.388662 
L 211.651296 212.485604 
L 213.06621 212.390218 
L 214.481123 211.674821 
L 215.896037 211.627127 
L 218.725864 211.913286 
L 220.140778 212.58099 
L 221.555691 212.58099 
L 222.970605 212.819456 
L 224.385518 213.439466 
L 227.215346 213.630239 
L 228.630259 213.48716 
L 230.045173 213.057921 
L 231.460086 213.010228 
L 234.289914 213.439466 
L 237.119741 214.441022 
L 238.534654 214.727181 
L 239.949568 214.393329 
L 241.364482 214.297943 
L 242.779395 213.916398 
L 244.194309 213.868705 
L 245.609222 213.391773 
L 247.024136 213.296387 
L 248.43905 213.534853 
L 249.853963 214.297943 
L 251.268877 214.631795 
L 252.68379 215.299499 
L 254.098704 215.299499 
L 255.513618 215.824123 
L 259.758358 216.348748 
L 262.588186 215.919509 
L 264.003099 216.110282 
L 266.832926 215.967203 
L 268.24784 216.157975 
L 269.662754 216.062589 
L 276.737322 216.587213 
L 278.152235 216.444134 
L 280.982062 216.873372 
L 283.81189 216.968758 
L 285.226803 217.207224 
L 286.641717 217.016451 
L 290.886458 216.968758 
L 292.301371 216.825679 
L 295.131198 216.873372 
L 296.546112 217.159531 
L 299.375939 216.873372 
L 302.205766 216.873372 
L 303.62068 216.873372 
L 305.035594 216.634906 
L 306.450507 216.634906 
L 307.865421 216.777986 
L 309.280334 216.777986 
L 314.939989 215.919509 
L 316.354902 215.394885 
L 319.18473 215.204112 
L 320.599643 215.299499 
L 322.014557 215.633351 
L 323.42947 215.537964 
L 326.259298 215.824123 
L 327.674211 215.871816 
L 329.089125 215.537964 
L 330.504038 214.965647 
L 334.748779 213.868705 
L 336.163693 213.916398 
L 337.578606 213.391773 
L 338.99352 213.48716 
L 340.408434 213.34408 
L 341.823347 213.010228 
L 343.238261 212.962535 
L 344.653174 212.485604 
L 347.483002 212.485604 
L 348.897915 211.913286 
L 350.312829 211.913286 
L 351.727742 212.056366 
L 353.142656 211.531741 
L 354.557569 211.484048 
L 355.972483 210.482492 
L 357.387397 210.005561 
L 358.80231 209.147084 
L 360.217224 208.956312 
L 361.632137 207.954756 
L 363.047051 207.287052 
L 364.461965 206.380883 
L 365.876878 206.33319 
L 367.291792 205.236247 
L 368.706705 204.759316 
L 370.121619 203.185443 
L 371.536533 202.946977 
L 372.951446 201.945421 
L 374.36636 201.373104 
L 378.611101 198.845368 
L 380.026014 198.320743 
L 381.440928 197.653039 
L 382.855841 197.414574 
L 384.270755 197.414574 
L 385.685669 196.222245 
L 387.100582 195.316076 
L 388.515496 195.363769 
L 389.930409 195.649928 
L 392.760237 195.411462 
L 394.17515 193.122192 
L 395.590064 191.834477 
L 397.004977 191.11908 
L 398.419891 188.257492 
L 399.834805 187.208243 
L 401.249718 185.825142 
L 402.664632 183.96511 
L 404.079545 184.966666 
L 404.079545 184.966666 
" style="fill:none;stroke:#8c564b;stroke-linecap:square;stroke-width:1.5;"/>
   </g>
   <g id="line2d_20">
    <path clip-path="url(#p52a4d1fa9e)" d="M 61.670455 192.785854 
L 63.085368 194.378175 
L 64.500282 194.827291 
L 65.915195 194.868119 
L 68.745023 192.908341 
L 71.57485 190.336131 
L 72.989763 185.436684 
L 74.404677 179.872311 
L 75.819591 173.608018 
L 77.234504 166.50382 
L 81.479245 148.340869 
L 84.309072 141.341659 
L 85.723986 141.201675 
L 87.138899 140.88671 
L 88.553813 138.856939 
L 89.968727 140.781722 
L 91.38364 142.04158 
L 92.798554 144.246331 
L 94.213467 148.200885 
L 95.628381 149.915692 
L 97.043295 153.380301 
L 98.458208 159.259637 
L 99.873122 159.994554 
L 101.288035 158.594712 
L 102.702949 158.909677 
L 104.117863 160.83446 
L 105.532776 161.849345 
L 106.94769 161.849345 
L 108.362603 161.394396 
L 109.777517 162.304294 
L 111.192431 167.378721 
L 112.607344 168.253622 
L 114.022258 168.673575 
L 115.437171 169.268508 
L 116.852085 170.248397 
L 118.266998 171.82322 
L 119.681912 172.033196 
L 121.096826 172.628129 
L 122.511739 175.462809 
L 123.926653 176.372706 
L 125.341566 177.702556 
L 126.75648 180.362256 
L 128.171394 181.83209 
L 129.586307 184.246818 
L 131.001221 186.241593 
L 132.416134 188.446344 
L 133.831048 190.056162 
L 135.245962 190.231143 
L 136.660875 190.581103 
L 138.075789 190.651095 
L 139.490702 191.630985 
L 140.905616 191.421008 
L 142.32053 191.630985 
L 143.735443 192.505886 
L 145.150357 194.080708 
L 146.56527 194.395673 
L 147.980184 194.850621 
L 149.395098 194.570653 
L 150.810011 195.445554 
L 152.224925 195.690527 
L 153.639838 196.110479 
L 155.054752 196.670416 
L 157.884579 198.210242 
L 159.299493 199.435104 
L 160.714406 199.750069 
L 162.12932 200.205017 
L 163.544234 199.680076 
L 164.959147 200.79995 
L 166.374061 201.709847 
L 167.788974 201.394883 
L 169.203888 201.919824 
L 173.448629 204.404543 
L 174.863542 204.509532 
L 176.278456 205.13946 
L 177.69337 206.679287 
L 179.108283 207.869152 
L 180.523197 208.884038 
L 181.93811 209.373983 
L 183.353024 210.1089 
L 184.767938 210.003912 
L 186.182851 209.758939 
L 187.597765 209.828931 
L 189.012678 209.653951 
L 191.842506 209.933919 
L 193.257419 209.688947 
L 194.672333 210.353872 
L 197.50216 211.368758 
L 198.917074 211.403754 
L 200.331987 211.228773 
L 204.576728 211.578734 
L 205.991642 211.893698 
L 207.406555 211.543738 
L 208.821469 211.543738 
L 210.236382 211.78871 
L 211.651296 211.893698 
L 214.481123 212.558623 
L 215.896037 212.698607 
L 218.725864 213.258544 
L 220.140778 213.083564 
L 221.555691 213.188552 
L 224.385518 213.678497 
L 225.800432 213.468521 
L 227.215346 213.748489 
L 228.630259 213.888473 
L 230.045173 214.238434 
L 232.875 214.483406 
L 234.289914 214.308426 
L 235.704827 214.903359 
L 237.119741 215.183327 
L 239.949568 215.428299 
L 241.364482 215.358307 
L 244.194309 215.638276 
L 247.024136 215.288315 
L 249.853963 215.498292 
L 251.268877 215.638276 
L 252.68379 215.393303 
L 254.098704 215.533288 
L 255.513618 215.848252 
L 256.928531 215.95324 
L 258.343445 215.848252 
L 262.588186 216.443185 
L 265.418013 216.478181 
L 266.832926 216.688157 
L 268.24784 216.653161 
L 269.662754 216.373193 
L 271.077667 216.268205 
L 272.492581 216.408189 
L 276.737322 216.233209 
L 280.982062 216.898134 
L 288.05663 216.513177 
L 290.886458 216.058228 
L 292.301371 216.058228 
L 293.716285 216.268205 
L 296.546112 216.408189 
L 297.961026 216.233209 
L 299.375939 216.373193 
L 310.695248 215.743264 
L 314.939989 215.218323 
L 320.599643 215.568284 
L 322.014557 215.428299 
L 323.42947 215.533288 
L 326.259298 215.078339 
L 327.674211 214.693382 
L 330.504038 214.133446 
L 337.578606 214.44841 
L 338.99352 214.413414 
L 340.408434 214.62339 
L 341.823347 214.44841 
L 343.238261 214.028457 
L 346.068088 213.363532 
L 348.897915 211.998686 
L 350.312829 211.228773 
L 354.557569 209.968915 
L 355.972483 209.164006 
L 357.387397 209.268994 
L 358.80231 208.709058 
L 360.217224 208.744054 
L 361.632137 208.60407 
L 364.461965 207.659176 
L 365.876878 208.044133 
L 368.706705 206.224338 
L 370.121619 204.929484 
L 374.36636 201.674851 
L 375.781273 200.030037 
L 377.196187 199.4701 
L 378.611101 198.560203 
L 380.026014 198.070258 
L 381.440928 196.915388 
L 382.855841 196.180471 
L 384.270755 195.165586 
L 385.685669 195.270574 
L 387.100582 194.290685 
L 388.515496 192.995831 
L 389.930409 192.190921 
L 392.760237 188.65632 
L 394.17515 187.886407 
L 395.590064 186.871522 
L 398.419891 184.036842 
L 399.834805 184.386802 
L 401.249718 185.016731 
L 402.664632 185.261703 
L 404.079545 185.191711 
L 404.079545 185.191711 
" style="fill:none;stroke:#e377c2;stroke-linecap:square;stroke-width:1.5;"/>
   </g>
   <g id="line2d_21"/>
   <g id="line2d_22"/>
   <g id="line2d_23"/>
   <g id="line2d_24"/>
   <g id="line2d_25"/>
   <g id="line2d_26"/>
   <g id="line2d_27"/>
   <g id="patch_3">
    <path d="M 44.55 226.602246 
L 44.55 26.8 
" style="fill:none;stroke:#000000;stroke-linecap:square;stroke-linejoin:miter;stroke-width:0.8;"/>
   </g>
   <g id="patch_4">
    <path d="M 421.2 226.602246 
L 421.2 26.8 
" style="fill:none;stroke:#000000;stroke-linecap:square;stroke-linejoin:miter;stroke-width:0.8;"/>
   </g>
   <g id="patch_5">
    <path d="M 44.55 226.602246 
L 421.2 226.602246 
" style="fill:none;stroke:#000000;stroke-linecap:square;stroke-linejoin:miter;stroke-width:0.8;"/>
   </g>
   <g id="patch_6">
    <path d="M 44.55 26.8 
L 421.2 26.8 
" style="fill:none;stroke:#000000;stroke-linecap:square;stroke-linejoin:miter;stroke-width:0.8;"/>
   </g>
   <g id="text_16">
    <!-- New admissions per million people by NHS region (7 day rolling) -->
    <g transform="translate(39.615937 20.8)scale(0.12 -0.12)">
     <defs>
      <path d="M 48.6875 27.296875 
Q 48.6875 37.203125 44.609375 42.84375 
Q 40.53125 48.484375 33.40625 48.484375 
Q 26.265625 48.484375 22.1875 42.84375 
Q 18.109375 37.203125 18.109375 27.296875 
Q 18.109375 17.390625 22.1875 11.75 
Q 26.265625 6.109375 33.40625 6.109375 
Q 40.53125 6.109375 44.609375 11.75 
Q 48.6875 17.390625 48.6875 27.296875 
z
M 18.109375 46.390625 
Q 20.953125 51.265625 25.265625 53.625 
Q 29.59375 56 35.59375 56 
Q 45.5625 56 51.78125 48.09375 
Q 58.015625 40.1875 58.015625 27.296875 
Q 58.015625 14.40625 51.78125 6.484375 
Q 45.5625 -1.421875 35.59375 -1.421875 
Q 29.59375 -1.421875 25.265625 0.953125 
Q 20.953125 3.328125 18.109375 8.203125 
L 18.109375 0 
L 9.078125 0 
L 9.078125 75.984375 
L 18.109375 75.984375 
z
" id="DejaVuSans-98"/>
      <path d="M 32.171875 -5.078125 
Q 28.375 -14.84375 24.75 -17.8125 
Q 21.140625 -20.796875 15.09375 -20.796875 
L 7.90625 -20.796875 
L 7.90625 -13.28125 
L 13.1875 -13.28125 
Q 16.890625 -13.28125 18.9375 -11.515625 
Q 21 -9.765625 23.484375 -3.21875 
L 25.09375 0.875 
L 2.984375 54.6875 
L 12.5 54.6875 
L 29.59375 11.921875 
L 46.6875 54.6875 
L 56.203125 54.6875 
z
" id="DejaVuSans-121"/>
      <path d="M 9.8125 72.90625 
L 19.671875 72.90625 
L 19.671875 43.015625 
L 55.515625 43.015625 
L 55.515625 72.90625 
L 65.375 72.90625 
L 65.375 0 
L 55.515625 0 
L 55.515625 34.71875 
L 19.671875 34.71875 
L 19.671875 0 
L 9.8125 0 
z
" id="DejaVuSans-72"/>
      <path d="M 53.515625 70.515625 
L 53.515625 60.890625 
Q 47.90625 63.578125 42.921875 64.890625 
Q 37.9375 66.21875 33.296875 66.21875 
Q 25.25 66.21875 20.875 63.09375 
Q 16.5 59.96875 16.5 54.203125 
Q 16.5 49.359375 19.40625 46.890625 
Q 22.3125 44.4375 30.421875 42.921875 
L 36.375 41.703125 
Q 47.40625 39.59375 52.65625 34.296875 
Q 57.90625 29 57.90625 20.125 
Q 57.90625 9.515625 50.796875 4.046875 
Q 43.703125 -1.421875 29.984375 -1.421875 
Q 24.8125 -1.421875 18.96875 -0.25 
Q 13.140625 0.921875 6.890625 3.21875 
L 6.890625 13.375 
Q 12.890625 10.015625 18.65625 8.296875 
Q 24.421875 6.59375 29.984375 6.59375 
Q 38.421875 6.59375 43.015625 9.90625 
Q 47.609375 13.234375 47.609375 19.390625 
Q 47.609375 24.75 44.3125 27.78125 
Q 41.015625 30.8125 33.5 32.328125 
L 27.484375 33.5 
Q 16.453125 35.6875 11.515625 40.375 
Q 6.59375 45.0625 6.59375 53.421875 
Q 6.59375 63.09375 13.40625 68.65625 
Q 20.21875 74.21875 32.171875 74.21875 
Q 37.3125 74.21875 42.625 73.28125 
Q 47.953125 72.359375 53.515625 70.515625 
z
" id="DejaVuSans-83"/>
      <path d="M 45.40625 27.984375 
Q 45.40625 37.75 41.375 43.109375 
Q 37.359375 48.484375 30.078125 48.484375 
Q 22.859375 48.484375 18.828125 43.109375 
Q 14.796875 37.75 14.796875 27.984375 
Q 14.796875 18.265625 18.828125 12.890625 
Q 22.859375 7.515625 30.078125 7.515625 
Q 37.359375 7.515625 41.375 12.890625 
Q 45.40625 18.265625 45.40625 27.984375 
z
M 54.390625 6.78125 
Q 54.390625 -7.171875 48.1875 -13.984375 
Q 42 -20.796875 29.203125 -20.796875 
Q 24.46875 -20.796875 20.265625 -20.09375 
Q 16.0625 -19.390625 12.109375 -17.921875 
L 12.109375 -9.1875 
Q 16.0625 -11.328125 19.921875 -12.34375 
Q 23.78125 -13.375 27.78125 -13.375 
Q 36.625 -13.375 41.015625 -8.765625 
Q 45.40625 -4.15625 45.40625 5.171875 
L 45.40625 9.625 
Q 42.625 4.78125 38.28125 2.390625 
Q 33.9375 0 27.875 0 
Q 17.828125 0 11.671875 7.65625 
Q 5.515625 15.328125 5.515625 27.984375 
Q 5.515625 40.671875 11.671875 48.328125 
Q 17.828125 56 27.875 56 
Q 33.9375 56 38.28125 53.609375 
Q 42.625 51.21875 45.40625 46.390625 
L 45.40625 54.6875 
L 54.390625 54.6875 
z
" id="DejaVuSans-103"/>
      <path d="M 31 75.875 
Q 24.46875 64.65625 21.28125 53.65625 
Q 18.109375 42.671875 18.109375 31.390625 
Q 18.109375 20.125 21.3125 9.0625 
Q 24.515625 -2 31 -13.1875 
L 23.1875 -13.1875 
Q 15.875 -1.703125 12.234375 9.375 
Q 8.59375 20.453125 8.59375 31.390625 
Q 8.59375 42.28125 12.203125 53.3125 
Q 15.828125 64.359375 23.1875 75.875 
z
" id="DejaVuSans-40"/>
      <path d="M 8.015625 75.875 
L 15.828125 75.875 
Q 23.140625 64.359375 26.78125 53.3125 
Q 30.421875 42.28125 30.421875 31.390625 
Q 30.421875 20.453125 26.78125 9.375 
Q 23.140625 -1.703125 15.828125 -13.1875 
L 8.015625 -13.1875 
Q 14.5 -2 17.703125 9.0625 
Q 20.90625 20.125 20.90625 31.390625 
Q 20.90625 42.671875 17.703125 53.65625 
Q 14.5 64.65625 8.015625 75.875 
z
" id="DejaVuSans-41"/>
     </defs>
     <use xlink:href="#DejaVuSans-78"/>
     <use x="74.804688" xlink:href="#DejaVuSans-101"/>
     <use x="136.328125" xlink:href="#DejaVuSans-119"/>
     <use x="218.115234" xlink:href="#DejaVuSans-32"/>
     <use x="249.902344" xlink:href="#DejaVuSans-97"/>
     <use x="311.181641" xlink:href="#DejaVuSans-100"/>
     <use x="374.658203" xlink:href="#DejaVuSans-109"/>
     <use x="472.070312" xlink:href="#DejaVuSans-105"/>
     <use x="499.853516" xlink:href="#DejaVuSans-115"/>
     <use x="551.953125" xlink:href="#DejaVuSans-115"/>
     <use x="604.052734" xlink:href="#DejaVuSans-105"/>
     <use x="631.835938" xlink:href="#DejaVuSans-111"/>
     <use x="693.017578" xlink:href="#DejaVuSans-110"/>
     <use x="756.396484" xlink:href="#DejaVuSans-115"/>
     <use x="808.496094" xlink:href="#DejaVuSans-32"/>
     <use x="840.283203" xlink:href="#DejaVuSans-112"/>
     <use x="903.759766" xlink:href="#DejaVuSans-101"/>
     <use x="965.283203" xlink:href="#DejaVuSans-114"/>
     <use x="1006.396484" xlink:href="#DejaVuSans-32"/>
     <use x="1038.183594" xlink:href="#DejaVuSans-109"/>
     <use x="1135.595703" xlink:href="#DejaVuSans-105"/>
     <use x="1163.378906" xlink:href="#DejaVuSans-108"/>
     <use x="1191.162109" xlink:href="#DejaVuSans-108"/>
     <use x="1218.945312" xlink:href="#DejaVuSans-105"/>
     <use x="1246.728516" xlink:href="#DejaVuSans-111"/>
     <use x="1307.910156" xlink:href="#DejaVuSans-110"/>
     <use x="1371.289062" xlink:href="#DejaVuSans-32"/>
     <use x="1403.076172" xlink:href="#DejaVuSans-112"/>
     <use x="1466.552734" xlink:href="#DejaVuSans-101"/>
     <use x="1528.076172" xlink:href="#DejaVuSans-111"/>
     <use x="1589.257812" xlink:href="#DejaVuSans-112"/>
     <use x="1652.734375" xlink:href="#DejaVuSans-108"/>
     <use x="1680.517578" xlink:href="#DejaVuSans-101"/>
     <use x="1742.041016" xlink:href="#DejaVuSans-32"/>
     <use x="1773.828125" xlink:href="#DejaVuSans-98"/>
     <use x="1837.304688" xlink:href="#DejaVuSans-121"/>
     <use x="1896.484375" xlink:href="#DejaVuSans-32"/>
     <use x="1928.271484" xlink:href="#DejaVuSans-78"/>
     <use x="2003.076172" xlink:href="#DejaVuSans-72"/>
     <use x="2078.271484" xlink:href="#DejaVuSans-83"/>
     <use x="2141.748047" xlink:href="#DejaVuSans-32"/>
     <use x="2173.535156" xlink:href="#DejaVuSans-114"/>
     <use x="2212.398438" xlink:href="#DejaVuSans-101"/>
     <use x="2273.921875" xlink:href="#DejaVuSans-103"/>
     <use x="2337.398438" xlink:href="#DejaVuSans-105"/>
     <use x="2365.181641" xlink:href="#DejaVuSans-111"/>
     <use x="2426.363281" xlink:href="#DejaVuSans-110"/>
     <use x="2489.742188" xlink:href="#DejaVuSans-32"/>
     <use x="2521.529297" xlink:href="#DejaVuSans-40"/>
     <use x="2560.542969" xlink:href="#DejaVuSans-55"/>
     <use x="2624.166016" xlink:href="#DejaVuSans-32"/>
     <use x="2655.953125" xlink:href="#DejaVuSans-100"/>
     <use x="2719.429688" xlink:href="#DejaVuSans-97"/>
     <use x="2780.708984" xlink:href="#DejaVuSans-121"/>
     <use x="2839.888672" xlink:href="#DejaVuSans-32"/>
     <use x="2871.675781" xlink:href="#DejaVuSans-114"/>
     <use x="2910.539062" xlink:href="#DejaVuSans-111"/>
     <use x="2971.720703" xlink:href="#DejaVuSans-108"/>
     <use x="2999.503906" xlink:href="#DejaVuSans-108"/>
     <use x="3027.287109" xlink:href="#DejaVuSans-105"/>
     <use x="3055.070312" xlink:href="#DejaVuSans-110"/>
     <use x="3118.449219" xlink:href="#DejaVuSans-103"/>
     <use x="3181.925781" xlink:href="#DejaVuSans-41"/>
    </g>
   </g>
   <g id="legend_1">
    <g id="patch_7">
     <path d="M 155.344531 152.225 
L 310.405469 152.225 
Q 312.405469 152.225 312.405469 150.225 
L 312.405469 33.8 
Q 312.405469 31.8 310.405469 31.8 
L 155.344531 31.8 
Q 153.344531 31.8 153.344531 33.8 
L 153.344531 150.225 
Q 153.344531 152.225 155.344531 152.225 
z
" style="fill:#ffffff;opacity:0.8;stroke:#cccccc;stroke-linejoin:miter;"/>
    </g>
    <g id="text_17">
     <!-- NHS region -->
     <g transform="translate(204.8 43.398437)scale(0.1 -0.1)">
      <use xlink:href="#DejaVuSans-78"/>
      <use x="74.804688" xlink:href="#DejaVuSans-72"/>
      <use x="150" xlink:href="#DejaVuSans-83"/>
      <use x="213.476562" xlink:href="#DejaVuSans-32"/>
      <use x="245.263672" xlink:href="#DejaVuSans-114"/>
      <use x="284.126953" xlink:href="#DejaVuSans-101"/>
      <use x="345.650391" xlink:href="#DejaVuSans-103"/>
      <use x="409.126953" xlink:href="#DejaVuSans-105"/>
      <use x="436.910156" xlink:href="#DejaVuSans-111"/>
      <use x="498.091797" xlink:href="#DejaVuSans-110"/>
     </g>
    </g>
    <g id="line2d_28">
     <path d="M 157.344531 54.576562 
L 177.344531 54.576562 
" style="fill:none;stroke:#1f77b4;stroke-linecap:square;stroke-width:1.5;"/>
    </g>
    <g id="line2d_29"/>
    <g id="text_18">
     <!-- South West -->
     <g transform="translate(185.344531 58.076562)scale(0.1 -0.1)">
      <defs>
       <path d="M 54.890625 33.015625 
L 54.890625 0 
L 45.90625 0 
L 45.90625 32.71875 
Q 45.90625 40.484375 42.875 44.328125 
Q 39.84375 48.1875 33.796875 48.1875 
Q 26.515625 48.1875 22.3125 43.546875 
Q 18.109375 38.921875 18.109375 30.90625 
L 18.109375 0 
L 9.078125 0 
L 9.078125 75.984375 
L 18.109375 75.984375 
L 18.109375 46.1875 
Q 21.34375 51.125 25.703125 53.5625 
Q 30.078125 56 35.796875 56 
Q 45.21875 56 50.046875 50.171875 
Q 54.890625 44.34375 54.890625 33.015625 
z
" id="DejaVuSans-104"/>
       <path d="M 3.328125 72.90625 
L 13.28125 72.90625 
L 28.609375 11.28125 
L 43.890625 72.90625 
L 54.984375 72.90625 
L 70.3125 11.28125 
L 85.59375 72.90625 
L 95.609375 72.90625 
L 77.296875 0 
L 64.890625 0 
L 49.515625 63.28125 
L 33.984375 0 
L 21.578125 0 
z
" id="DejaVuSans-87"/>
      </defs>
      <use xlink:href="#DejaVuSans-83"/>
      <use x="63.476562" xlink:href="#DejaVuSans-111"/>
      <use x="124.658203" xlink:href="#DejaVuSans-117"/>
      <use x="188.037109" xlink:href="#DejaVuSans-116"/>
      <use x="227.246094" xlink:href="#DejaVuSans-104"/>
      <use x="290.625" xlink:href="#DejaVuSans-32"/>
      <use x="322.412109" xlink:href="#DejaVuSans-87"/>
      <use x="415.414062" xlink:href="#DejaVuSans-101"/>
      <use x="476.9375" xlink:href="#DejaVuSans-115"/>
      <use x="529.037109" xlink:href="#DejaVuSans-116"/>
     </g>
    </g>
    <g id="line2d_30">
     <path d="M 157.344531 69.254687 
L 177.344531 69.254687 
" style="fill:none;stroke:#ff7f0e;stroke-linecap:square;stroke-width:1.5;"/>
    </g>
    <g id="line2d_31"/>
    <g id="text_19">
     <!-- Midlands -->
     <g transform="translate(185.344531 72.754687)scale(0.1 -0.1)">
      <defs>
       <path d="M 9.8125 72.90625 
L 24.515625 72.90625 
L 43.109375 23.296875 
L 61.8125 72.90625 
L 76.515625 72.90625 
L 76.515625 0 
L 66.890625 0 
L 66.890625 64.015625 
L 48.09375 14.015625 
L 38.1875 14.015625 
L 19.390625 64.015625 
L 19.390625 0 
L 9.8125 0 
z
" id="DejaVuSans-77"/>
      </defs>
      <use xlink:href="#DejaVuSans-77"/>
      <use x="86.279297" xlink:href="#DejaVuSans-105"/>
      <use x="114.0625" xlink:href="#DejaVuSans-100"/>
      <use x="177.539062" xlink:href="#DejaVuSans-108"/>
      <use x="205.322266" xlink:href="#DejaVuSans-97"/>
      <use x="266.601562" xlink:href="#DejaVuSans-110"/>
      <use x="329.980469" xlink:href="#DejaVuSans-100"/>
      <use x="393.457031" xlink:href="#DejaVuSans-115"/>
     </g>
    </g>
    <g id="line2d_32">
     <path d="M 157.344531 83.932812 
L 177.344531 83.932812 
" style="fill:none;stroke:#2ca02c;stroke-linecap:square;stroke-width:1.5;"/>
    </g>
    <g id="line2d_33"/>
    <g id="text_20">
     <!-- North East and Yorkshire -->
     <g transform="translate(185.344531 87.432812)scale(0.1 -0.1)">
      <defs>
       <path d="M 9.8125 72.90625 
L 55.90625 72.90625 
L 55.90625 64.59375 
L 19.671875 64.59375 
L 19.671875 43.015625 
L 54.390625 43.015625 
L 54.390625 34.71875 
L 19.671875 34.71875 
L 19.671875 8.296875 
L 56.78125 8.296875 
L 56.78125 0 
L 9.8125 0 
z
" id="DejaVuSans-69"/>
       <path d="M -0.203125 72.90625 
L 10.40625 72.90625 
L 30.609375 42.921875 
L 50.6875 72.90625 
L 61.28125 72.90625 
L 35.5 34.71875 
L 35.5 0 
L 25.59375 0 
L 25.59375 34.71875 
z
" id="DejaVuSans-89"/>
       <path d="M 9.078125 75.984375 
L 18.109375 75.984375 
L 18.109375 31.109375 
L 44.921875 54.6875 
L 56.390625 54.6875 
L 27.390625 29.109375 
L 57.625 0 
L 45.90625 0 
L 18.109375 26.703125 
L 18.109375 0 
L 9.078125 0 
z
" id="DejaVuSans-107"/>
      </defs>
      <use xlink:href="#DejaVuSans-78"/>
      <use x="74.804688" xlink:href="#DejaVuSans-111"/>
      <use x="135.986328" xlink:href="#DejaVuSans-114"/>
      <use x="177.099609" xlink:href="#DejaVuSans-116"/>
      <use x="216.308594" xlink:href="#DejaVuSans-104"/>
      <use x="279.6875" xlink:href="#DejaVuSans-32"/>
      <use x="311.474609" xlink:href="#DejaVuSans-69"/>
      <use x="374.658203" xlink:href="#DejaVuSans-97"/>
      <use x="435.9375" xlink:href="#DejaVuSans-115"/>
      <use x="488.037109" xlink:href="#DejaVuSans-116"/>
      <use x="527.246094" xlink:href="#DejaVuSans-32"/>
      <use x="559.033203" xlink:href="#DejaVuSans-97"/>
      <use x="620.3125" xlink:href="#DejaVuSans-110"/>
      <use x="683.691406" xlink:href="#DejaVuSans-100"/>
      <use x="747.167969" xlink:href="#DejaVuSans-32"/>
      <use x="778.955078" xlink:href="#DejaVuSans-89"/>
      <use x="826.789062" xlink:href="#DejaVuSans-111"/>
      <use x="887.970703" xlink:href="#DejaVuSans-114"/>
      <use x="929.083984" xlink:href="#DejaVuSans-107"/>
      <use x="986.994141" xlink:href="#DejaVuSans-115"/>
      <use x="1039.09375" xlink:href="#DejaVuSans-104"/>
      <use x="1102.472656" xlink:href="#DejaVuSans-105"/>
      <use x="1130.255859" xlink:href="#DejaVuSans-114"/>
      <use x="1169.119141" xlink:href="#DejaVuSans-101"/>
     </g>
    </g>
    <g id="line2d_34">
     <path d="M 157.344531 98.610937 
L 177.344531 98.610937 
" style="fill:none;stroke:#d62728;stroke-linecap:square;stroke-width:1.5;"/>
    </g>
    <g id="line2d_35"/>
    <g id="text_21">
     <!-- London -->
     <g transform="translate(185.344531 102.110937)scale(0.1 -0.1)">
      <defs>
       <path d="M 9.8125 72.90625 
L 19.671875 72.90625 
L 19.671875 8.296875 
L 55.171875 8.296875 
L 55.171875 0 
L 9.8125 0 
z
" id="DejaVuSans-76"/>
      </defs>
      <use xlink:href="#DejaVuSans-76"/>
      <use x="53.962891" xlink:href="#DejaVuSans-111"/>
      <use x="115.144531" xlink:href="#DejaVuSans-110"/>
      <use x="178.523438" xlink:href="#DejaVuSans-100"/>
      <use x="242" xlink:href="#DejaVuSans-111"/>
      <use x="303.181641" xlink:href="#DejaVuSans-110"/>
     </g>
    </g>
    <g id="line2d_36">
     <path d="M 157.344531 113.289062 
L 177.344531 113.289062 
" style="fill:none;stroke:#9467bd;stroke-linecap:square;stroke-width:1.5;"/>
    </g>
    <g id="line2d_37"/>
    <g id="text_22">
     <!-- North West -->
     <g transform="translate(185.344531 116.789062)scale(0.1 -0.1)">
      <use xlink:href="#DejaVuSans-78"/>
      <use x="74.804688" xlink:href="#DejaVuSans-111"/>
      <use x="135.986328" xlink:href="#DejaVuSans-114"/>
      <use x="177.099609" xlink:href="#DejaVuSans-116"/>
      <use x="216.308594" xlink:href="#DejaVuSans-104"/>
      <use x="279.6875" xlink:href="#DejaVuSans-32"/>
      <use x="311.474609" xlink:href="#DejaVuSans-87"/>
      <use x="404.476562" xlink:href="#DejaVuSans-101"/>
      <use x="466" xlink:href="#DejaVuSans-115"/>
      <use x="518.099609" xlink:href="#DejaVuSans-116"/>
     </g>
    </g>
    <g id="line2d_38">
     <path d="M 157.344531 127.967187 
L 177.344531 127.967187 
" style="fill:none;stroke:#8c564b;stroke-linecap:square;stroke-width:1.5;"/>
    </g>
    <g id="line2d_39"/>
    <g id="text_23">
     <!-- East of England -->
     <g transform="translate(185.344531 131.467187)scale(0.1 -0.1)">
      <defs>
       <path d="M 37.109375 75.984375 
L 37.109375 68.5 
L 28.515625 68.5 
Q 23.6875 68.5 21.796875 66.546875 
Q 19.921875 64.59375 19.921875 59.515625 
L 19.921875 54.6875 
L 34.71875 54.6875 
L 34.71875 47.703125 
L 19.921875 47.703125 
L 19.921875 0 
L 10.890625 0 
L 10.890625 47.703125 
L 2.296875 47.703125 
L 2.296875 54.6875 
L 10.890625 54.6875 
L 10.890625 58.5 
Q 10.890625 67.625 15.140625 71.796875 
Q 19.390625 75.984375 28.609375 75.984375 
z
" id="DejaVuSans-102"/>
      </defs>
      <use xlink:href="#DejaVuSans-69"/>
      <use x="63.183594" xlink:href="#DejaVuSans-97"/>
      <use x="124.462891" xlink:href="#DejaVuSans-115"/>
      <use x="176.5625" xlink:href="#DejaVuSans-116"/>
      <use x="215.771484" xlink:href="#DejaVuSans-32"/>
      <use x="247.558594" xlink:href="#DejaVuSans-111"/>
      <use x="308.740234" xlink:href="#DejaVuSans-102"/>
      <use x="343.945312" xlink:href="#DejaVuSans-32"/>
      <use x="375.732422" xlink:href="#DejaVuSans-69"/>
      <use x="438.916016" xlink:href="#DejaVuSans-110"/>
      <use x="502.294922" xlink:href="#DejaVuSans-103"/>
      <use x="565.771484" xlink:href="#DejaVuSans-108"/>
      <use x="593.554688" xlink:href="#DejaVuSans-97"/>
      <use x="654.833984" xlink:href="#DejaVuSans-110"/>
      <use x="718.212891" xlink:href="#DejaVuSans-100"/>
     </g>
    </g>
    <g id="line2d_40">
     <path d="M 157.344531 142.645312 
L 177.344531 142.645312 
" style="fill:none;stroke:#e377c2;stroke-linecap:square;stroke-width:1.5;"/>
    </g>
    <g id="line2d_41"/>
    <g id="text_24">
     <!-- South East -->
     <g transform="translate(185.344531 146.145312)scale(0.1 -0.1)">
      <use xlink:href="#DejaVuSans-83"/>
      <use x="63.476562" xlink:href="#DejaVuSans-111"/>
      <use x="124.658203" xlink:href="#DejaVuSans-117"/>
      <use x="188.037109" xlink:href="#DejaVuSans-116"/>
      <use x="227.246094" xlink:href="#DejaVuSans-104"/>
      <use x="290.625" xlink:href="#DejaVuSans-32"/>
      <use x="322.412109" xlink:href="#DejaVuSans-69"/>
      <use x="385.595703" xlink:href="#DejaVuSans-97"/>
      <use x="446.875" xlink:href="#DejaVuSans-115"/>
      <use x="498.974609" xlink:href="#DejaVuSans-116"/>
     </g>
    </g>
   </g>
  </g>
 </g>
 <defs>
  <clipPath id="p52a4d1fa9e">
   <rect height="199.802246" width="376.65" x="44.55" y="26.8"/>
  </clipPath>
 </defs>
</svg>
