<?xml version="1.0" encoding="utf-8" standalone="no"?>
<!DOCTYPE svg PUBLIC "-//W3C//DTD SVG 1.1//EN"
  "http://www.w3.org/Graphics/SVG/1.1/DTD/svg11.dtd">
<!-- Created with matplotlib (https://matplotlib.org/) -->
<svg height="288pt" version="1.1" viewBox="0 0 432 288" width="432pt" xmlns="http://www.w3.org/2000/svg" xmlns:xlink="http://www.w3.org/1999/xlink">
 <metadata>
  <rdf:RDF xmlns:cc="http://creativecommons.org/ns#" xmlns:dc="http://purl.org/dc/elements/1.1/" xmlns:rdf="http://www.w3.org/1999/02/22-rdf-syntax-ns#">
   <cc:Work>
    <dc:type rdf:resource="http://purl.org/dc/dcmitype/StillImage"/>
    <dc:date>2021-01-05T14:14:02.831551</dc:date>
    <dc:format>image/svg+xml</dc:format>
    <dc:creator>
     <cc:Agent>
      <dc:title>Matplotlib v3.3.2, https://matplotlib.org/</dc:title>
     </cc:Agent>
    </dc:creator>
   </cc:Work>
  </rdf:RDF>
 </metadata>
 <defs>
  <style type="text/css">*{stroke-linecap:butt;stroke-linejoin:round;}</style>
 </defs>
 <g id="figure_1">
  <g id="patch_1">
   <path d="M 0 288 
L 432 288 
L 432 0 
L 0 0 
z
" style="fill:none;"/>
  </g>
  <g id="axes_1">
   <g id="patch_2">
    <path d="M 44.55 226.602246 
L 421.2 226.602246 
L 421.2 26.8 
L 44.55 26.8 
z
" style="fill:#ffffff;"/>
   </g>
   <g id="matplotlib.axis_1">
    <g id="xtick_1">
     <g id="line2d_1">
      <defs>
       <path d="M 0 0 
L 0 3.5 
" id="m203f81f5cd" style="stroke:#000000;stroke-width:0.8;"/>
      </defs>
      <g>
       <use style="stroke:#000000;stroke-width:0.8;" x="77.07294" xlink:href="#m203f81f5cd" y="226.602246"/>
      </g>
     </g>
     <g id="text_1">
      <!-- 2020-04 -->
      <g transform="translate(39.848119 261.074092)rotate(-30)scale(0.1 -0.1)">
       <defs>
        <path d="M 19.1875 8.296875 
L 53.609375 8.296875 
L 53.609375 0 
L 7.328125 0 
L 7.328125 8.296875 
Q 12.9375 14.109375 22.625 23.890625 
Q 32.328125 33.6875 34.8125 36.53125 
Q 39.546875 41.84375 41.421875 45.53125 
Q 43.3125 49.21875 43.3125 52.78125 
Q 43.3125 58.59375 39.234375 62.25 
Q 35.15625 65.921875 28.609375 65.921875 
Q 23.96875 65.921875 18.8125 64.3125 
Q 13.671875 62.703125 7.8125 59.421875 
L 7.8125 69.390625 
Q 13.765625 71.78125 18.9375 73 
Q 24.125 74.21875 28.421875 74.21875 
Q 39.75 74.21875 46.484375 68.546875 
Q 53.21875 62.890625 53.21875 53.421875 
Q 53.21875 48.921875 51.53125 44.890625 
Q 49.859375 40.875 45.40625 35.40625 
Q 44.1875 33.984375 37.640625 27.21875 
Q 31.109375 20.453125 19.1875 8.296875 
z
" id="DejaVuSans-50"/>
        <path d="M 31.78125 66.40625 
Q 24.171875 66.40625 20.328125 58.90625 
Q 16.5 51.421875 16.5 36.375 
Q 16.5 21.390625 20.328125 13.890625 
Q 24.171875 6.390625 31.78125 6.390625 
Q 39.453125 6.390625 43.28125 13.890625 
Q 47.125 21.390625 47.125 36.375 
Q 47.125 51.421875 43.28125 58.90625 
Q 39.453125 66.40625 31.78125 66.40625 
z
M 31.78125 74.21875 
Q 44.046875 74.21875 50.515625 64.515625 
Q 56.984375 54.828125 56.984375 36.375 
Q 56.984375 17.96875 50.515625 8.265625 
Q 44.046875 -1.421875 31.78125 -1.421875 
Q 19.53125 -1.421875 13.0625 8.265625 
Q 6.59375 17.96875 6.59375 36.375 
Q 6.59375 54.828125 13.0625 64.515625 
Q 19.53125 74.21875 31.78125 74.21875 
z
" id="DejaVuSans-48"/>
        <path d="M 4.890625 31.390625 
L 31.203125 31.390625 
L 31.203125 23.390625 
L 4.890625 23.390625 
z
" id="DejaVuSans-45"/>
        <path d="M 37.796875 64.3125 
L 12.890625 25.390625 
L 37.796875 25.390625 
z
M 35.203125 72.90625 
L 47.609375 72.90625 
L 47.609375 25.390625 
L 58.015625 25.390625 
L 58.015625 17.1875 
L 47.609375 17.1875 
L 47.609375 0 
L 37.796875 0 
L 37.796875 17.1875 
L 4.890625 17.1875 
L 4.890625 26.703125 
z
" id="DejaVuSans-52"/>
       </defs>
       <use xlink:href="#DejaVuSans-50"/>
       <use x="63.623047" xlink:href="#DejaVuSans-48"/>
       <use x="127.246094" xlink:href="#DejaVuSans-50"/>
       <use x="190.869141" xlink:href="#DejaVuSans-48"/>
       <use x="254.492188" xlink:href="#DejaVuSans-45"/>
       <use x="290.576172" xlink:href="#DejaVuSans-48"/>
       <use x="354.199219" xlink:href="#DejaVuSans-52"/>
      </g>
     </g>
    </g>
    <g id="xtick_2">
     <g id="line2d_2">
      <g>
       <use style="stroke:#000000;stroke-width:0.8;" x="112.617136" xlink:href="#m203f81f5cd" y="226.602246"/>
      </g>
     </g>
     <g id="text_2">
      <!-- 2020-05 -->
      <g transform="translate(75.392315 261.074092)rotate(-30)scale(0.1 -0.1)">
       <defs>
        <path d="M 10.796875 72.90625 
L 49.515625 72.90625 
L 49.515625 64.59375 
L 19.828125 64.59375 
L 19.828125 46.734375 
Q 21.96875 47.46875 24.109375 47.828125 
Q 26.265625 48.1875 28.421875 48.1875 
Q 40.625 48.1875 47.75 41.5 
Q 54.890625 34.8125 54.890625 23.390625 
Q 54.890625 11.625 47.5625 5.09375 
Q 40.234375 -1.421875 26.90625 -1.421875 
Q 22.3125 -1.421875 17.546875 -0.640625 
Q 12.796875 0.140625 7.71875 1.703125 
L 7.71875 11.625 
Q 12.109375 9.234375 16.796875 8.0625 
Q 21.484375 6.890625 26.703125 6.890625 
Q 35.15625 6.890625 40.078125 11.328125 
Q 45.015625 15.765625 45.015625 23.390625 
Q 45.015625 31 40.078125 35.4375 
Q 35.15625 39.890625 26.703125 39.890625 
Q 22.75 39.890625 18.8125 39.015625 
Q 14.890625 38.140625 10.796875 36.28125 
z
" id="DejaVuSans-53"/>
       </defs>
       <use xlink:href="#DejaVuSans-50"/>
       <use x="63.623047" xlink:href="#DejaVuSans-48"/>
       <use x="127.246094" xlink:href="#DejaVuSans-50"/>
       <use x="190.869141" xlink:href="#DejaVuSans-48"/>
       <use x="254.492188" xlink:href="#DejaVuSans-45"/>
       <use x="290.576172" xlink:href="#DejaVuSans-48"/>
       <use x="354.199219" xlink:href="#DejaVuSans-53"/>
      </g>
     </g>
    </g>
    <g id="xtick_3">
     <g id="line2d_3">
      <g>
       <use style="stroke:#000000;stroke-width:0.8;" x="149.346139" xlink:href="#m203f81f5cd" y="226.602246"/>
      </g>
     </g>
     <g id="text_3">
      <!-- 2020-06 -->
      <g transform="translate(112.121318 261.074092)rotate(-30)scale(0.1 -0.1)">
       <defs>
        <path d="M 33.015625 40.375 
Q 26.375 40.375 22.484375 35.828125 
Q 18.609375 31.296875 18.609375 23.390625 
Q 18.609375 15.53125 22.484375 10.953125 
Q 26.375 6.390625 33.015625 6.390625 
Q 39.65625 6.390625 43.53125 10.953125 
Q 47.40625 15.53125 47.40625 23.390625 
Q 47.40625 31.296875 43.53125 35.828125 
Q 39.65625 40.375 33.015625 40.375 
z
M 52.59375 71.296875 
L 52.59375 62.3125 
Q 48.875 64.0625 45.09375 64.984375 
Q 41.3125 65.921875 37.59375 65.921875 
Q 27.828125 65.921875 22.671875 59.328125 
Q 17.53125 52.734375 16.796875 39.40625 
Q 19.671875 43.65625 24.015625 45.921875 
Q 28.375 48.1875 33.59375 48.1875 
Q 44.578125 48.1875 50.953125 41.515625 
Q 57.328125 34.859375 57.328125 23.390625 
Q 57.328125 12.15625 50.6875 5.359375 
Q 44.046875 -1.421875 33.015625 -1.421875 
Q 20.359375 -1.421875 13.671875 8.265625 
Q 6.984375 17.96875 6.984375 36.375 
Q 6.984375 53.65625 15.1875 63.9375 
Q 23.390625 74.21875 37.203125 74.21875 
Q 40.921875 74.21875 44.703125 73.484375 
Q 48.484375 72.75 52.59375 71.296875 
z
" id="DejaVuSans-54"/>
       </defs>
       <use xlink:href="#DejaVuSans-50"/>
       <use x="63.623047" xlink:href="#DejaVuSans-48"/>
       <use x="127.246094" xlink:href="#DejaVuSans-50"/>
       <use x="190.869141" xlink:href="#DejaVuSans-48"/>
       <use x="254.492188" xlink:href="#DejaVuSans-45"/>
       <use x="290.576172" xlink:href="#DejaVuSans-48"/>
       <use x="354.199219" xlink:href="#DejaVuSans-54"/>
      </g>
     </g>
    </g>
    <g id="xtick_4">
     <g id="line2d_4">
      <g>
       <use style="stroke:#000000;stroke-width:0.8;" x="184.890335" xlink:href="#m203f81f5cd" y="226.602246"/>
      </g>
     </g>
     <g id="text_4">
      <!-- 2020-07 -->
      <g transform="translate(147.665514 261.074092)rotate(-30)scale(0.1 -0.1)">
       <defs>
        <path d="M 8.203125 72.90625 
L 55.078125 72.90625 
L 55.078125 68.703125 
L 28.609375 0 
L 18.3125 0 
L 43.21875 64.59375 
L 8.203125 64.59375 
z
" id="DejaVuSans-55"/>
       </defs>
       <use xlink:href="#DejaVuSans-50"/>
       <use x="63.623047" xlink:href="#DejaVuSans-48"/>
       <use x="127.246094" xlink:href="#DejaVuSans-50"/>
       <use x="190.869141" xlink:href="#DejaVuSans-48"/>
       <use x="254.492188" xlink:href="#DejaVuSans-45"/>
       <use x="290.576172" xlink:href="#DejaVuSans-48"/>
       <use x="354.199219" xlink:href="#DejaVuSans-55"/>
      </g>
     </g>
    </g>
    <g id="xtick_5">
     <g id="line2d_5">
      <g>
       <use style="stroke:#000000;stroke-width:0.8;" x="221.619338" xlink:href="#m203f81f5cd" y="226.602246"/>
      </g>
     </g>
     <g id="text_5">
      <!-- 2020-08 -->
      <g transform="translate(184.394517 261.074092)rotate(-30)scale(0.1 -0.1)">
       <defs>
        <path d="M 31.78125 34.625 
Q 24.75 34.625 20.71875 30.859375 
Q 16.703125 27.09375 16.703125 20.515625 
Q 16.703125 13.921875 20.71875 10.15625 
Q 24.75 6.390625 31.78125 6.390625 
Q 38.8125 6.390625 42.859375 10.171875 
Q 46.921875 13.96875 46.921875 20.515625 
Q 46.921875 27.09375 42.890625 30.859375 
Q 38.875 34.625 31.78125 34.625 
z
M 21.921875 38.8125 
Q 15.578125 40.375 12.03125 44.71875 
Q 8.5 49.078125 8.5 55.328125 
Q 8.5 64.0625 14.71875 69.140625 
Q 20.953125 74.21875 31.78125 74.21875 
Q 42.671875 74.21875 48.875 69.140625 
Q 55.078125 64.0625 55.078125 55.328125 
Q 55.078125 49.078125 51.53125 44.71875 
Q 48 40.375 41.703125 38.8125 
Q 48.828125 37.15625 52.796875 32.3125 
Q 56.78125 27.484375 56.78125 20.515625 
Q 56.78125 9.90625 50.3125 4.234375 
Q 43.84375 -1.421875 31.78125 -1.421875 
Q 19.734375 -1.421875 13.25 4.234375 
Q 6.78125 9.90625 6.78125 20.515625 
Q 6.78125 27.484375 10.78125 32.3125 
Q 14.796875 37.15625 21.921875 38.8125 
z
M 18.3125 54.390625 
Q 18.3125 48.734375 21.84375 45.5625 
Q 25.390625 42.390625 31.78125 42.390625 
Q 38.140625 42.390625 41.71875 45.5625 
Q 45.3125 48.734375 45.3125 54.390625 
Q 45.3125 60.0625 41.71875 63.234375 
Q 38.140625 66.40625 31.78125 66.40625 
Q 25.390625 66.40625 21.84375 63.234375 
Q 18.3125 60.0625 18.3125 54.390625 
z
" id="DejaVuSans-56"/>
       </defs>
       <use xlink:href="#DejaVuSans-50"/>
       <use x="63.623047" xlink:href="#DejaVuSans-48"/>
       <use x="127.246094" xlink:href="#DejaVuSans-50"/>
       <use x="190.869141" xlink:href="#DejaVuSans-48"/>
       <use x="254.492188" xlink:href="#DejaVuSans-45"/>
       <use x="290.576172" xlink:href="#DejaVuSans-48"/>
       <use x="354.199219" xlink:href="#DejaVuSans-56"/>
      </g>
     </g>
    </g>
    <g id="xtick_6">
     <g id="line2d_6">
      <g>
       <use style="stroke:#000000;stroke-width:0.8;" x="258.348341" xlink:href="#m203f81f5cd" y="226.602246"/>
      </g>
     </g>
     <g id="text_6">
      <!-- 2020-09 -->
      <g transform="translate(221.12352 261.074092)rotate(-30)scale(0.1 -0.1)">
       <defs>
        <path d="M 10.984375 1.515625 
L 10.984375 10.5 
Q 14.703125 8.734375 18.5 7.8125 
Q 22.3125 6.890625 25.984375 6.890625 
Q 35.75 6.890625 40.890625 13.453125 
Q 46.046875 20.015625 46.78125 33.40625 
Q 43.953125 29.203125 39.59375 26.953125 
Q 35.25 24.703125 29.984375 24.703125 
Q 19.046875 24.703125 12.671875 31.3125 
Q 6.296875 37.9375 6.296875 49.421875 
Q 6.296875 60.640625 12.9375 67.421875 
Q 19.578125 74.21875 30.609375 74.21875 
Q 43.265625 74.21875 49.921875 64.515625 
Q 56.59375 54.828125 56.59375 36.375 
Q 56.59375 19.140625 48.40625 8.859375 
Q 40.234375 -1.421875 26.421875 -1.421875 
Q 22.703125 -1.421875 18.890625 -0.6875 
Q 15.09375 0.046875 10.984375 1.515625 
z
M 30.609375 32.421875 
Q 37.25 32.421875 41.125 36.953125 
Q 45.015625 41.5 45.015625 49.421875 
Q 45.015625 57.28125 41.125 61.84375 
Q 37.25 66.40625 30.609375 66.40625 
Q 23.96875 66.40625 20.09375 61.84375 
Q 16.21875 57.28125 16.21875 49.421875 
Q 16.21875 41.5 20.09375 36.953125 
Q 23.96875 32.421875 30.609375 32.421875 
z
" id="DejaVuSans-57"/>
       </defs>
       <use xlink:href="#DejaVuSans-50"/>
       <use x="63.623047" xlink:href="#DejaVuSans-48"/>
       <use x="127.246094" xlink:href="#DejaVuSans-50"/>
       <use x="190.869141" xlink:href="#DejaVuSans-48"/>
       <use x="254.492188" xlink:href="#DejaVuSans-45"/>
       <use x="290.576172" xlink:href="#DejaVuSans-48"/>
       <use x="354.199219" xlink:href="#DejaVuSans-57"/>
      </g>
     </g>
    </g>
    <g id="xtick_7">
     <g id="line2d_7">
      <g>
       <use style="stroke:#000000;stroke-width:0.8;" x="293.892537" xlink:href="#m203f81f5cd" y="226.602246"/>
      </g>
     </g>
     <g id="text_7">
      <!-- 2020-10 -->
      <g transform="translate(256.667716 261.074092)rotate(-30)scale(0.1 -0.1)">
       <defs>
        <path d="M 12.40625 8.296875 
L 28.515625 8.296875 
L 28.515625 63.921875 
L 10.984375 60.40625 
L 10.984375 69.390625 
L 28.421875 72.90625 
L 38.28125 72.90625 
L 38.28125 8.296875 
L 54.390625 8.296875 
L 54.390625 0 
L 12.40625 0 
z
" id="DejaVuSans-49"/>
       </defs>
       <use xlink:href="#DejaVuSans-50"/>
       <use x="63.623047" xlink:href="#DejaVuSans-48"/>
       <use x="127.246094" xlink:href="#DejaVuSans-50"/>
       <use x="190.869141" xlink:href="#DejaVuSans-48"/>
       <use x="254.492188" xlink:href="#DejaVuSans-45"/>
       <use x="290.576172" xlink:href="#DejaVuSans-49"/>
       <use x="354.199219" xlink:href="#DejaVuSans-48"/>
      </g>
     </g>
    </g>
    <g id="xtick_8">
     <g id="line2d_8">
      <g>
       <use style="stroke:#000000;stroke-width:0.8;" x="330.62154" xlink:href="#m203f81f5cd" y="226.602246"/>
      </g>
     </g>
     <g id="text_8">
      <!-- 2020-11 -->
      <g transform="translate(293.396719 261.074092)rotate(-30)scale(0.1 -0.1)">
       <use xlink:href="#DejaVuSans-50"/>
       <use x="63.623047" xlink:href="#DejaVuSans-48"/>
       <use x="127.246094" xlink:href="#DejaVuSans-50"/>
       <use x="190.869141" xlink:href="#DejaVuSans-48"/>
       <use x="254.492188" xlink:href="#DejaVuSans-45"/>
       <use x="290.576172" xlink:href="#DejaVuSans-49"/>
       <use x="354.199219" xlink:href="#DejaVuSans-49"/>
      </g>
     </g>
    </g>
    <g id="xtick_9">
     <g id="line2d_9">
      <g>
       <use style="stroke:#000000;stroke-width:0.8;" x="366.165736" xlink:href="#m203f81f5cd" y="226.602246"/>
      </g>
     </g>
     <g id="text_9">
      <!-- 2020-12 -->
      <g transform="translate(328.940915 261.074092)rotate(-30)scale(0.1 -0.1)">
       <use xlink:href="#DejaVuSans-50"/>
       <use x="63.623047" xlink:href="#DejaVuSans-48"/>
       <use x="127.246094" xlink:href="#DejaVuSans-50"/>
       <use x="190.869141" xlink:href="#DejaVuSans-48"/>
       <use x="254.492188" xlink:href="#DejaVuSans-45"/>
       <use x="290.576172" xlink:href="#DejaVuSans-49"/>
       <use x="354.199219" xlink:href="#DejaVuSans-50"/>
      </g>
     </g>
    </g>
    <g id="xtick_10">
     <g id="line2d_10">
      <g>
       <use style="stroke:#000000;stroke-width:0.8;" x="402.894739" xlink:href="#m203f81f5cd" y="226.602246"/>
      </g>
     </g>
     <g id="text_10">
      <!-- 2021-01 -->
      <g transform="translate(365.669918 261.074092)rotate(-30)scale(0.1 -0.1)">
       <use xlink:href="#DejaVuSans-50"/>
       <use x="63.623047" xlink:href="#DejaVuSans-48"/>
       <use x="127.246094" xlink:href="#DejaVuSans-50"/>
       <use x="190.869141" xlink:href="#DejaVuSans-49"/>
       <use x="254.492188" xlink:href="#DejaVuSans-45"/>
       <use x="290.576172" xlink:href="#DejaVuSans-48"/>
       <use x="354.199219" xlink:href="#DejaVuSans-49"/>
      </g>
     </g>
    </g>
    <g id="text_11">
     <!-- Date -->
     <g transform="translate(220.924219 274.473592)scale(0.1 -0.1)">
      <defs>
       <path d="M 19.671875 64.796875 
L 19.671875 8.109375 
L 31.59375 8.109375 
Q 46.6875 8.109375 53.6875 14.9375 
Q 60.6875 21.78125 60.6875 36.53125 
Q 60.6875 51.171875 53.6875 57.984375 
Q 46.6875 64.796875 31.59375 64.796875 
z
M 9.8125 72.90625 
L 30.078125 72.90625 
Q 51.265625 72.90625 61.171875 64.09375 
Q 71.09375 55.28125 71.09375 36.53125 
Q 71.09375 17.671875 61.125 8.828125 
Q 51.171875 0 30.078125 0 
L 9.8125 0 
z
" id="DejaVuSans-68"/>
       <path d="M 34.28125 27.484375 
Q 23.390625 27.484375 19.1875 25 
Q 14.984375 22.515625 14.984375 16.5 
Q 14.984375 11.71875 18.140625 8.90625 
Q 21.296875 6.109375 26.703125 6.109375 
Q 34.1875 6.109375 38.703125 11.40625 
Q 43.21875 16.703125 43.21875 25.484375 
L 43.21875 27.484375 
z
M 52.203125 31.203125 
L 52.203125 0 
L 43.21875 0 
L 43.21875 8.296875 
Q 40.140625 3.328125 35.546875 0.953125 
Q 30.953125 -1.421875 24.3125 -1.421875 
Q 15.921875 -1.421875 10.953125 3.296875 
Q 6 8.015625 6 15.921875 
Q 6 25.140625 12.171875 29.828125 
Q 18.359375 34.515625 30.609375 34.515625 
L 43.21875 34.515625 
L 43.21875 35.40625 
Q 43.21875 41.609375 39.140625 45 
Q 35.0625 48.390625 27.6875 48.390625 
Q 23 48.390625 18.546875 47.265625 
Q 14.109375 46.140625 10.015625 43.890625 
L 10.015625 52.203125 
Q 14.9375 54.109375 19.578125 55.046875 
Q 24.21875 56 28.609375 56 
Q 40.484375 56 46.34375 49.84375 
Q 52.203125 43.703125 52.203125 31.203125 
z
" id="DejaVuSans-97"/>
       <path d="M 18.3125 70.21875 
L 18.3125 54.6875 
L 36.8125 54.6875 
L 36.8125 47.703125 
L 18.3125 47.703125 
L 18.3125 18.015625 
Q 18.3125 11.328125 20.140625 9.421875 
Q 21.96875 7.515625 27.59375 7.515625 
L 36.8125 7.515625 
L 36.8125 0 
L 27.59375 0 
Q 17.1875 0 13.234375 3.875 
Q 9.28125 7.765625 9.28125 18.015625 
L 9.28125 47.703125 
L 2.6875 47.703125 
L 2.6875 54.6875 
L 9.28125 54.6875 
L 9.28125 70.21875 
z
" id="DejaVuSans-116"/>
       <path d="M 56.203125 29.59375 
L 56.203125 25.203125 
L 14.890625 25.203125 
Q 15.484375 15.921875 20.484375 11.0625 
Q 25.484375 6.203125 34.421875 6.203125 
Q 39.59375 6.203125 44.453125 7.46875 
Q 49.3125 8.734375 54.109375 11.28125 
L 54.109375 2.78125 
Q 49.265625 0.734375 44.1875 -0.34375 
Q 39.109375 -1.421875 33.890625 -1.421875 
Q 20.796875 -1.421875 13.15625 6.1875 
Q 5.515625 13.8125 5.515625 26.8125 
Q 5.515625 40.234375 12.765625 48.109375 
Q 20.015625 56 32.328125 56 
Q 43.359375 56 49.78125 48.890625 
Q 56.203125 41.796875 56.203125 29.59375 
z
M 47.21875 32.234375 
Q 47.125 39.59375 43.09375 43.984375 
Q 39.0625 48.390625 32.421875 48.390625 
Q 24.90625 48.390625 20.390625 44.140625 
Q 15.875 39.890625 15.1875 32.171875 
z
" id="DejaVuSans-101"/>
      </defs>
      <use xlink:href="#DejaVuSans-68"/>
      <use x="77.001953" xlink:href="#DejaVuSans-97"/>
      <use x="138.28125" xlink:href="#DejaVuSans-116"/>
      <use x="177.490234" xlink:href="#DejaVuSans-101"/>
     </g>
    </g>
   </g>
   <g id="matplotlib.axis_2">
    <g id="ytick_1">
     <g id="line2d_11">
      <defs>
       <path d="M 0 0 
L -3.5 0 
" id="m611f642754" style="stroke:#000000;stroke-width:0.8;"/>
      </defs>
      <g>
       <use style="stroke:#000000;stroke-width:0.8;" x="44.55" xlink:href="#m611f642754" y="218.018007"/>
      </g>
     </g>
     <g id="text_12">
      <!-- 0 -->
      <g transform="translate(31.1875 221.817226)scale(0.1 -0.1)">
       <use xlink:href="#DejaVuSans-48"/>
      </g>
     </g>
    </g>
    <g id="ytick_2">
     <g id="line2d_12">
      <g>
       <use style="stroke:#000000;stroke-width:0.8;" x="44.55" xlink:href="#m611f642754" y="174.423535"/>
      </g>
     </g>
     <g id="text_13">
      <!-- 20 -->
      <g transform="translate(24.825 178.222753)scale(0.1 -0.1)">
       <use xlink:href="#DejaVuSans-50"/>
       <use x="63.623047" xlink:href="#DejaVuSans-48"/>
      </g>
     </g>
    </g>
    <g id="ytick_3">
     <g id="line2d_13">
      <g>
       <use style="stroke:#000000;stroke-width:0.8;" x="44.55" xlink:href="#m611f642754" y="130.829062"/>
      </g>
     </g>
     <g id="text_14">
      <!-- 40 -->
      <g transform="translate(24.825 134.628281)scale(0.1 -0.1)">
       <use xlink:href="#DejaVuSans-52"/>
       <use x="63.623047" xlink:href="#DejaVuSans-48"/>
      </g>
     </g>
    </g>
    <g id="ytick_4">
     <g id="line2d_14">
      <g>
       <use style="stroke:#000000;stroke-width:0.8;" x="44.55" xlink:href="#m611f642754" y="87.23459"/>
      </g>
     </g>
     <g id="text_15">
      <!-- 60 -->
      <g transform="translate(24.825 91.033808)scale(0.1 -0.1)">
       <use xlink:href="#DejaVuSans-54"/>
       <use x="63.623047" xlink:href="#DejaVuSans-48"/>
      </g>
     </g>
    </g>
    <g id="ytick_5">
     <g id="line2d_15">
      <g>
       <use style="stroke:#000000;stroke-width:0.8;" x="44.55" xlink:href="#m611f642754" y="43.640117"/>
      </g>
     </g>
     <g id="text_16">
      <!-- 80 -->
      <g transform="translate(24.825 47.439336)scale(0.1 -0.1)">
       <use xlink:href="#DejaVuSans-56"/>
       <use x="63.623047" xlink:href="#DejaVuSans-48"/>
      </g>
     </g>
    </g>
    <g id="text_17">
     <!-- New admissions per million population -->
     <g transform="translate(18.745313 223.460498)rotate(-90)scale(0.1 -0.1)">
      <defs>
       <path d="M 9.8125 72.90625 
L 23.09375 72.90625 
L 55.421875 11.921875 
L 55.421875 72.90625 
L 64.984375 72.90625 
L 64.984375 0 
L 51.703125 0 
L 19.390625 60.984375 
L 19.390625 0 
L 9.8125 0 
z
" id="DejaVuSans-78"/>
       <path d="M 4.203125 54.6875 
L 13.1875 54.6875 
L 24.421875 12.015625 
L 35.59375 54.6875 
L 46.1875 54.6875 
L 57.421875 12.015625 
L 68.609375 54.6875 
L 77.59375 54.6875 
L 63.28125 0 
L 52.6875 0 
L 40.921875 44.828125 
L 29.109375 0 
L 18.5 0 
z
" id="DejaVuSans-119"/>
       <path id="DejaVuSans-32"/>
       <path d="M 45.40625 46.390625 
L 45.40625 75.984375 
L 54.390625 75.984375 
L 54.390625 0 
L 45.40625 0 
L 45.40625 8.203125 
Q 42.578125 3.328125 38.25 0.953125 
Q 33.9375 -1.421875 27.875 -1.421875 
Q 17.96875 -1.421875 11.734375 6.484375 
Q 5.515625 14.40625 5.515625 27.296875 
Q 5.515625 40.1875 11.734375 48.09375 
Q 17.96875 56 27.875 56 
Q 33.9375 56 38.25 53.625 
Q 42.578125 51.265625 45.40625 46.390625 
z
M 14.796875 27.296875 
Q 14.796875 17.390625 18.875 11.75 
Q 22.953125 6.109375 30.078125 6.109375 
Q 37.203125 6.109375 41.296875 11.75 
Q 45.40625 17.390625 45.40625 27.296875 
Q 45.40625 37.203125 41.296875 42.84375 
Q 37.203125 48.484375 30.078125 48.484375 
Q 22.953125 48.484375 18.875 42.84375 
Q 14.796875 37.203125 14.796875 27.296875 
z
" id="DejaVuSans-100"/>
       <path d="M 52 44.1875 
Q 55.375 50.25 60.0625 53.125 
Q 64.75 56 71.09375 56 
Q 79.640625 56 84.28125 50.015625 
Q 88.921875 44.046875 88.921875 33.015625 
L 88.921875 0 
L 79.890625 0 
L 79.890625 32.71875 
Q 79.890625 40.578125 77.09375 44.375 
Q 74.3125 48.1875 68.609375 48.1875 
Q 61.625 48.1875 57.5625 43.546875 
Q 53.515625 38.921875 53.515625 30.90625 
L 53.515625 0 
L 44.484375 0 
L 44.484375 32.71875 
Q 44.484375 40.625 41.703125 44.40625 
Q 38.921875 48.1875 33.109375 48.1875 
Q 26.21875 48.1875 22.15625 43.53125 
Q 18.109375 38.875 18.109375 30.90625 
L 18.109375 0 
L 9.078125 0 
L 9.078125 54.6875 
L 18.109375 54.6875 
L 18.109375 46.1875 
Q 21.1875 51.21875 25.484375 53.609375 
Q 29.78125 56 35.6875 56 
Q 41.65625 56 45.828125 52.96875 
Q 50 49.953125 52 44.1875 
z
" id="DejaVuSans-109"/>
       <path d="M 9.421875 54.6875 
L 18.40625 54.6875 
L 18.40625 0 
L 9.421875 0 
z
M 9.421875 75.984375 
L 18.40625 75.984375 
L 18.40625 64.59375 
L 9.421875 64.59375 
z
" id="DejaVuSans-105"/>
       <path d="M 44.28125 53.078125 
L 44.28125 44.578125 
Q 40.484375 46.53125 36.375 47.5 
Q 32.28125 48.484375 27.875 48.484375 
Q 21.1875 48.484375 17.84375 46.4375 
Q 14.5 44.390625 14.5 40.28125 
Q 14.5 37.15625 16.890625 35.375 
Q 19.28125 33.59375 26.515625 31.984375 
L 29.59375 31.296875 
Q 39.15625 29.25 43.1875 25.515625 
Q 47.21875 21.78125 47.21875 15.09375 
Q 47.21875 7.46875 41.1875 3.015625 
Q 35.15625 -1.421875 24.609375 -1.421875 
Q 20.21875 -1.421875 15.453125 -0.5625 
Q 10.6875 0.296875 5.421875 2 
L 5.421875 11.28125 
Q 10.40625 8.6875 15.234375 7.390625 
Q 20.0625 6.109375 24.8125 6.109375 
Q 31.15625 6.109375 34.5625 8.28125 
Q 37.984375 10.453125 37.984375 14.40625 
Q 37.984375 18.0625 35.515625 20.015625 
Q 33.0625 21.96875 24.703125 23.78125 
L 21.578125 24.515625 
Q 13.234375 26.265625 9.515625 29.90625 
Q 5.8125 33.546875 5.8125 39.890625 
Q 5.8125 47.609375 11.28125 51.796875 
Q 16.75 56 26.8125 56 
Q 31.78125 56 36.171875 55.265625 
Q 40.578125 54.546875 44.28125 53.078125 
z
" id="DejaVuSans-115"/>
       <path d="M 30.609375 48.390625 
Q 23.390625 48.390625 19.1875 42.75 
Q 14.984375 37.109375 14.984375 27.296875 
Q 14.984375 17.484375 19.15625 11.84375 
Q 23.34375 6.203125 30.609375 6.203125 
Q 37.796875 6.203125 41.984375 11.859375 
Q 46.1875 17.53125 46.1875 27.296875 
Q 46.1875 37.015625 41.984375 42.703125 
Q 37.796875 48.390625 30.609375 48.390625 
z
M 30.609375 56 
Q 42.328125 56 49.015625 48.375 
Q 55.71875 40.765625 55.71875 27.296875 
Q 55.71875 13.875 49.015625 6.21875 
Q 42.328125 -1.421875 30.609375 -1.421875 
Q 18.84375 -1.421875 12.171875 6.21875 
Q 5.515625 13.875 5.515625 27.296875 
Q 5.515625 40.765625 12.171875 48.375 
Q 18.84375 56 30.609375 56 
z
" id="DejaVuSans-111"/>
       <path d="M 54.890625 33.015625 
L 54.890625 0 
L 45.90625 0 
L 45.90625 32.71875 
Q 45.90625 40.484375 42.875 44.328125 
Q 39.84375 48.1875 33.796875 48.1875 
Q 26.515625 48.1875 22.3125 43.546875 
Q 18.109375 38.921875 18.109375 30.90625 
L 18.109375 0 
L 9.078125 0 
L 9.078125 54.6875 
L 18.109375 54.6875 
L 18.109375 46.1875 
Q 21.34375 51.125 25.703125 53.5625 
Q 30.078125 56 35.796875 56 
Q 45.21875 56 50.046875 50.171875 
Q 54.890625 44.34375 54.890625 33.015625 
z
" id="DejaVuSans-110"/>
       <path d="M 18.109375 8.203125 
L 18.109375 -20.796875 
L 9.078125 -20.796875 
L 9.078125 54.6875 
L 18.109375 54.6875 
L 18.109375 46.390625 
Q 20.953125 51.265625 25.265625 53.625 
Q 29.59375 56 35.59375 56 
Q 45.5625 56 51.78125 48.09375 
Q 58.015625 40.1875 58.015625 27.296875 
Q 58.015625 14.40625 51.78125 6.484375 
Q 45.5625 -1.421875 35.59375 -1.421875 
Q 29.59375 -1.421875 25.265625 0.953125 
Q 20.953125 3.328125 18.109375 8.203125 
z
M 48.6875 27.296875 
Q 48.6875 37.203125 44.609375 42.84375 
Q 40.53125 48.484375 33.40625 48.484375 
Q 26.265625 48.484375 22.1875 42.84375 
Q 18.109375 37.203125 18.109375 27.296875 
Q 18.109375 17.390625 22.1875 11.75 
Q 26.265625 6.109375 33.40625 6.109375 
Q 40.53125 6.109375 44.609375 11.75 
Q 48.6875 17.390625 48.6875 27.296875 
z
" id="DejaVuSans-112"/>
       <path d="M 41.109375 46.296875 
Q 39.59375 47.171875 37.8125 47.578125 
Q 36.03125 48 33.890625 48 
Q 26.265625 48 22.1875 43.046875 
Q 18.109375 38.09375 18.109375 28.8125 
L 18.109375 0 
L 9.078125 0 
L 9.078125 54.6875 
L 18.109375 54.6875 
L 18.109375 46.1875 
Q 20.953125 51.171875 25.484375 53.578125 
Q 30.03125 56 36.53125 56 
Q 37.453125 56 38.578125 55.875 
Q 39.703125 55.765625 41.0625 55.515625 
z
" id="DejaVuSans-114"/>
       <path d="M 9.421875 75.984375 
L 18.40625 75.984375 
L 18.40625 0 
L 9.421875 0 
z
" id="DejaVuSans-108"/>
       <path d="M 8.5 21.578125 
L 8.5 54.6875 
L 17.484375 54.6875 
L 17.484375 21.921875 
Q 17.484375 14.15625 20.5 10.265625 
Q 23.53125 6.390625 29.59375 6.390625 
Q 36.859375 6.390625 41.078125 11.03125 
Q 45.3125 15.671875 45.3125 23.6875 
L 45.3125 54.6875 
L 54.296875 54.6875 
L 54.296875 0 
L 45.3125 0 
L 45.3125 8.40625 
Q 42.046875 3.421875 37.71875 1 
Q 33.40625 -1.421875 27.6875 -1.421875 
Q 18.265625 -1.421875 13.375 4.4375 
Q 8.5 10.296875 8.5 21.578125 
z
M 31.109375 56 
z
" id="DejaVuSans-117"/>
      </defs>
      <use xlink:href="#DejaVuSans-78"/>
      <use x="74.804688" xlink:href="#DejaVuSans-101"/>
      <use x="136.328125" xlink:href="#DejaVuSans-119"/>
      <use x="218.115234" xlink:href="#DejaVuSans-32"/>
      <use x="249.902344" xlink:href="#DejaVuSans-97"/>
      <use x="311.181641" xlink:href="#DejaVuSans-100"/>
      <use x="374.658203" xlink:href="#DejaVuSans-109"/>
      <use x="472.070312" xlink:href="#DejaVuSans-105"/>
      <use x="499.853516" xlink:href="#DejaVuSans-115"/>
      <use x="551.953125" xlink:href="#DejaVuSans-115"/>
      <use x="604.052734" xlink:href="#DejaVuSans-105"/>
      <use x="631.835938" xlink:href="#DejaVuSans-111"/>
      <use x="693.017578" xlink:href="#DejaVuSans-110"/>
      <use x="756.396484" xlink:href="#DejaVuSans-115"/>
      <use x="808.496094" xlink:href="#DejaVuSans-32"/>
      <use x="840.283203" xlink:href="#DejaVuSans-112"/>
      <use x="903.759766" xlink:href="#DejaVuSans-101"/>
      <use x="965.283203" xlink:href="#DejaVuSans-114"/>
      <use x="1006.396484" xlink:href="#DejaVuSans-32"/>
      <use x="1038.183594" xlink:href="#DejaVuSans-109"/>
      <use x="1135.595703" xlink:href="#DejaVuSans-105"/>
      <use x="1163.378906" xlink:href="#DejaVuSans-108"/>
      <use x="1191.162109" xlink:href="#DejaVuSans-108"/>
      <use x="1218.945312" xlink:href="#DejaVuSans-105"/>
      <use x="1246.728516" xlink:href="#DejaVuSans-111"/>
      <use x="1307.910156" xlink:href="#DejaVuSans-110"/>
      <use x="1371.289062" xlink:href="#DejaVuSans-32"/>
      <use x="1403.076172" xlink:href="#DejaVuSans-112"/>
      <use x="1466.552734" xlink:href="#DejaVuSans-111"/>
      <use x="1527.734375" xlink:href="#DejaVuSans-112"/>
      <use x="1591.210938" xlink:href="#DejaVuSans-117"/>
      <use x="1654.589844" xlink:href="#DejaVuSans-108"/>
      <use x="1682.373047" xlink:href="#DejaVuSans-97"/>
      <use x="1743.652344" xlink:href="#DejaVuSans-116"/>
      <use x="1782.861328" xlink:href="#DejaVuSans-105"/>
      <use x="1810.644531" xlink:href="#DejaVuSans-111"/>
      <use x="1871.826172" xlink:href="#DejaVuSans-110"/>
     </g>
    </g>
   </g>
   <g id="line2d_16">
    <path clip-path="url(#p7a35fcf44d)" d="M 61.670455 206.792522 
L 62.855261 204.082923 
L 64.040068 203.179723 
L 65.224874 203.308751 
L 66.409681 201.45074 
L 67.594487 200.341094 
L 68.779294 197.66836 
L 71.148907 191.087903 
L 72.333713 186.276981 
L 74.703327 178.756459 
L 75.888133 175.327986 
L 77.07294 174.332623 
L 78.257746 170.682958 
L 79.442553 169.687594 
L 80.627359 171.457129 
L 81.812166 170.185276 
L 82.996972 169.300509 
L 84.181779 167.64157 
L 85.366585 166.425015 
L 86.551392 168.139252 
L 87.736198 167.696868 
L 88.921005 166.093227 
L 90.105812 166.148525 
L 91.290618 167.862762 
L 92.475425 170.406468 
L 93.660231 171.623023 
L 94.845038 171.788917 
L 96.029844 173.392557 
L 97.214651 175.383284 
L 98.399457 178.314075 
L 99.584264 180.304802 
L 100.76907 181.244867 
L 101.953877 182.79321 
L 103.138684 184.67334 
L 104.32349 185.22632 
L 105.508297 186.940556 
L 106.693103 188.323005 
L 107.87791 188.765389 
L 109.062716 189.760752 
L 110.247523 191.640883 
L 111.432329 192.415054 
L 112.617136 194.073993 
L 113.801942 193.631609 
L 114.986749 192.691544 
L 116.171556 192.636246 
L 117.356362 193.852801 
L 118.541169 193.410417 
L 119.725975 194.350482 
L 120.910782 194.848164 
L 122.095588 196.120017 
L 123.280395 197.613062 
L 125.650008 198.884915 
L 126.834814 199.216703 
L 128.019621 200.10147 
L 129.204427 200.267364 
L 130.389234 199.82498 
L 131.574041 200.599151 
L 132.758847 201.152131 
L 133.943654 200.37796 
L 135.12846 200.212066 
L 136.313267 199.327298 
L 137.498073 199.935576 
L 138.68288 201.318025 
L 139.867686 201.539217 
L 141.052493 202.202792 
L 142.237299 203.032261 
L 143.422106 204.138221 
L 144.606913 204.41471 
L 145.791719 205.188882 
L 146.976526 205.022988 
L 148.161332 205.022988 
L 149.346139 204.470008 
L 150.530945 204.193518 
L 151.715752 204.304114 
L 152.900558 206.073649 
L 154.085365 205.797159 
L 156.454978 206.018351 
L 157.639785 208.174971 
L 158.824591 209.55742 
L 161.194204 210.608081 
L 162.379011 212.045828 
L 164.748624 213.870661 
L 165.93343 213.760065 
L 167.118237 214.091852 
L 168.303043 214.810726 
L 170.672656 214.202448 
L 171.857463 214.589534 
L 173.04227 214.70013 
L 174.227076 215.142514 
L 178.966302 215.529599 
L 181.335915 214.866024 
L 182.520722 214.534236 
L 183.705528 214.42364 
L 184.890335 214.644832 
L 186.075142 215.197812 
L 187.259948 215.308407 
L 188.444755 215.640195 
L 190.814368 216.082579 
L 191.999174 216.524962 
L 193.183981 216.690856 
L 195.553594 216.469665 
L 196.7384 216.469665 
L 197.923207 216.635558 
L 201.477627 216.082579 
L 202.662433 216.193175 
L 203.84724 216.137877 
L 205.032046 216.359069 
L 206.216853 216.359069 
L 209.771272 216.912048 
L 210.956079 216.967346 
L 212.140885 217.354432 
L 215.695305 216.912048 
L 220.434531 216.635558 
L 221.619338 216.85675 
L 222.804144 216.801452 
L 223.988951 216.912048 
L 225.173757 216.801452 
L 226.358564 216.912048 
L 229.912984 216.801452 
L 231.09779 217.022644 
L 235.837016 217.077942 
L 238.206629 217.188538 
L 239.391436 217.077942 
L 240.576243 217.13324 
L 241.761049 216.967346 
L 242.945856 216.967346 
L 245.315469 216.524962 
L 250.054695 216.85675 
L 253.609115 217.465028 
L 255.978728 217.40973 
L 258.348341 217.520326 
L 259.533147 217.299134 
L 264.272373 217.40973 
L 267.826793 217.077942 
L 269.0116 216.746154 
L 271.381213 216.635558 
L 272.566019 216.58026 
L 274.935632 216.746154 
L 276.120439 216.746154 
L 277.305245 216.912048 
L 278.490052 216.85675 
L 283.229278 215.584897 
L 284.414085 215.529599 
L 286.783698 215.031918 
L 289.153311 215.363705 
L 290.338117 215.584897 
L 293.892537 215.363705 
L 296.26215 214.755428 
L 297.446957 214.14715 
L 298.631763 213.262383 
L 299.81657 212.598808 
L 301.001376 211.71404 
L 302.186183 210.497485 
L 304.555796 209.55742 
L 305.740602 208.506759 
L 306.925409 207.843184 
L 308.110215 207.732588 
L 309.295022 206.350139 
L 311.664635 206.516033 
L 312.849442 205.465371 
L 314.034248 205.465371 
L 316.403861 203.253453 
L 318.773474 202.976963 
L 319.958281 202.202792 
L 321.143087 201.705111 
L 322.327894 200.046172 
L 323.512701 198.055445 
L 325.882314 195.788229 
L 327.06712 193.963397 
L 328.251927 191.530287 
L 329.436733 188.599495 
L 330.62154 187.93592 
L 331.806346 187.770026 
L 332.991153 186.498173 
L 335.360766 182.682614 
L 336.545573 181.410761 
L 337.730379 180.802483 
L 338.915186 178.867055 
L 340.099992 177.871692 
L 341.284799 178.258777 
L 342.469605 176.433945 
L 343.654412 172.839578 
L 344.839218 171.401831 
L 346.024025 171.678321 
L 347.208831 171.180639 
L 348.393638 171.401831 
L 349.578444 168.747529 
L 350.763251 169.189913 
L 351.948058 173.392557 
L 353.132864 175.272688 
L 355.502477 175.549178 
L 356.687284 174.609112 
L 357.87209 175.936263 
L 359.056897 176.268051 
L 360.241703 175.880965 
L 361.42651 176.323349 
L 362.611316 176.489243 
L 363.796123 177.761096 
L 364.98093 179.862418 
L 367.350543 182.572018 
L 368.535349 183.346189 
L 370.904962 185.281618 
L 372.089769 185.392214 
L 373.274575 183.733275 
L 374.459382 183.346189 
L 375.644188 181.466059 
L 376.828995 180.525994 
L 378.013802 178.645863 
L 379.198608 177.539904 
L 380.383415 176.102157 
L 381.568221 175.49388 
L 382.753028 174.000835 
L 383.937834 175.438582 
L 385.122641 173.834941 
L 389.861867 176.599839 
L 391.046673 175.604476 
L 392.23148 175.715072 
L 393.416287 178.037586 
L 394.601093 177.429308 
L 395.7859 176.157455 
L 396.970706 175.77037 
L 398.155513 172.950174 
L 399.340319 171.954811 
L 400.525126 165.48495 
L 401.709932 162.77535 
L 402.894739 158.793897 
L 404.079545 155.807808 
L 404.079545 155.807808 
" style="fill:none;stroke:#1f77b4;stroke-linecap:square;stroke-width:1.5;"/>
   </g>
   <g id="line2d_17">
    <path clip-path="url(#p7a35fcf44d)" d="M 61.670455 210.339413 
L 62.855261 210.339413 
L 64.040068 208.781437 
L 65.224874 207.000893 
L 66.409681 206.132878 
L 67.594487 202.215682 
L 68.779294 200.848479 
L 69.9641 194.31452 
L 71.148907 190.928307 
L 72.333713 186.779005 
L 73.51852 179.529648 
L 74.703327 174.664949 
L 75.888133 172.757223 
L 77.07294 168.417148 
L 78.257746 167.272513 
L 79.442553 162.598586 
L 80.627359 160.738554 
L 81.812166 159.832384 
L 82.996972 155.873854 
L 84.181779 155.015378 
L 85.366585 152.535335 
L 86.551392 152.15379 
L 87.736198 151.056848 
L 88.921005 150.961461 
L 90.105812 154.58614 
L 91.290618 155.396923 
L 92.475425 154.299981 
L 93.660231 159.355453 
L 96.029844 165.078629 
L 97.214651 163.838607 
L 98.399457 163.647835 
L 99.584264 167.844831 
L 100.76907 169.704863 
L 101.953877 169.371011 
L 103.138684 169.609477 
L 104.32349 170.229487 
L 105.508297 173.234155 
L 107.87791 173.186462 
L 110.247523 169.704863 
L 111.432329 166.366344 
L 112.617136 167.034047 
L 113.801942 167.844831 
L 114.986749 166.986354 
L 116.171556 167.98791 
L 117.356362 172.471065 
L 118.541169 173.854166 
L 119.725975 177.765002 
L 120.910782 180.483511 
L 122.095588 180.960442 
L 123.280395 185.49129 
L 124.465201 186.349767 
L 125.650008 185.109745 
L 126.834814 187.780561 
L 128.019621 189.115968 
L 129.204427 188.066719 
L 130.389234 189.44982 
L 131.574041 188.782116 
L 132.758847 189.115968 
L 133.943654 190.546762 
L 135.12846 189.545206 
L 137.498073 190.689842 
L 141.052493 195.268383 
L 142.237299 195.316076 
L 143.422106 197.033028 
L 145.791719 199.369992 
L 146.976526 199.179219 
L 148.161332 200.276162 
L 149.346139 199.94231 
L 150.530945 201.134638 
L 151.715752 201.659262 
L 152.900558 201.420797 
L 154.085365 201.897728 
L 155.270171 202.517739 
L 156.454978 202.374659 
L 157.639785 203.805453 
L 158.824591 204.568544 
L 160.009398 204.902396 
L 162.379011 206.33319 
L 163.563817 206.237803 
L 164.748624 205.951644 
L 165.93343 204.568544 
L 167.118237 205.093168 
L 168.303043 204.902396 
L 170.672656 205.188554 
L 171.857463 205.808565 
L 174.227076 207.239359 
L 175.411883 207.811677 
L 176.596689 208.908619 
L 178.966302 208.527074 
L 180.151109 208.717846 
L 181.335915 209.337857 
L 182.520722 210.387106 
L 184.890335 210.434799 
L 186.075142 211.388662 
L 187.259948 212.485604 
L 188.444755 212.390218 
L 189.629561 211.674821 
L 190.814368 211.627127 
L 193.183981 211.913286 
L 194.368787 212.58099 
L 195.553594 212.58099 
L 196.7384 212.819456 
L 197.923207 213.439466 
L 200.29282 213.630239 
L 201.477627 213.48716 
L 202.662433 213.057921 
L 203.84724 213.010228 
L 206.216853 213.439466 
L 208.586466 214.441022 
L 209.771272 214.727181 
L 210.956079 214.393329 
L 212.140885 214.297943 
L 213.325692 213.916398 
L 214.510499 213.868705 
L 215.695305 213.391773 
L 216.880112 213.296387 
L 218.064918 213.534853 
L 219.249725 214.297943 
L 220.434531 214.631795 
L 221.619338 215.299499 
L 222.804144 215.299499 
L 223.988951 215.824123 
L 227.543371 216.348748 
L 229.912984 215.919509 
L 231.09779 216.110282 
L 233.467403 215.967203 
L 234.65221 216.157975 
L 235.837016 216.062589 
L 241.761049 216.587213 
L 242.945856 216.444134 
L 245.315469 216.873372 
L 247.685082 216.968758 
L 248.869888 217.207224 
L 250.054695 217.016451 
L 253.609115 216.968758 
L 254.793921 216.825679 
L 257.163534 216.873372 
L 258.348341 217.159531 
L 260.717954 216.873372 
L 263.087567 216.873372 
L 264.272373 216.873372 
L 265.45718 216.634906 
L 266.641986 216.634906 
L 267.826793 216.777986 
L 269.0116 216.777986 
L 273.750826 215.919509 
L 274.935632 215.394885 
L 277.305245 215.204112 
L 278.490052 215.299499 
L 279.674858 215.633351 
L 280.859665 215.537964 
L 283.229278 215.824123 
L 284.414085 215.871816 
L 285.598891 215.537964 
L 286.783698 214.965647 
L 290.338117 213.868705 
L 291.522924 213.916398 
L 292.70773 213.391773 
L 293.892537 213.48716 
L 295.077344 213.34408 
L 296.26215 213.010228 
L 297.446957 212.962535 
L 298.631763 212.485604 
L 301.001376 212.485604 
L 302.186183 211.913286 
L 303.370989 211.913286 
L 304.555796 212.056366 
L 305.740602 211.531741 
L 306.925409 211.484048 
L 308.110215 210.482492 
L 309.295022 210.005561 
L 310.479829 209.147084 
L 311.664635 208.956312 
L 312.849442 207.954756 
L 314.034248 207.287052 
L 315.219055 206.380883 
L 316.403861 206.33319 
L 317.588668 205.236247 
L 318.773474 204.759316 
L 319.958281 203.185443 
L 321.143087 202.946977 
L 322.327894 201.945421 
L 323.512701 201.373104 
L 327.06712 198.845368 
L 328.251927 198.320743 
L 329.436733 197.653039 
L 330.62154 197.414574 
L 331.806346 197.414574 
L 332.991153 196.222245 
L 334.175959 195.316076 
L 335.360766 195.363769 
L 336.545573 195.649928 
L 338.915186 195.411462 
L 340.099992 193.122192 
L 341.284799 191.834477 
L 342.469605 191.11908 
L 343.654412 188.257492 
L 344.839218 187.208243 
L 346.024025 185.825142 
L 347.208831 183.96511 
L 348.393638 184.966666 
L 349.578444 185.109745 
L 350.763251 184.775893 
L 351.948058 186.39746 
L 353.132864 185.348211 
L 354.317671 186.015915 
L 355.502477 184.966666 
L 356.687284 184.298962 
L 357.87209 184.155882 
L 360.241703 185.014359 
L 361.42651 186.969777 
L 362.611316 186.302073 
L 363.796123 188.400571 
L 364.98093 186.779005 
L 366.165736 185.872835 
L 367.350543 185.395904 
L 369.720156 181.53276 
L 372.089769 178.909638 
L 373.274575 177.144992 
L 374.459382 172.900303 
L 375.644188 170.324874 
L 376.828995 169.752556 
L 378.013802 168.417148 
L 379.198608 165.174015 
L 380.383415 163.027824 
L 381.568221 157.924659 
L 382.753028 158.54467 
L 383.937834 155.110764 
L 385.122641 149.912212 
L 386.307447 147.146011 
L 387.492254 144.761354 
L 388.67706 139.515109 
L 389.861867 140.230506 
L 391.046673 134.984262 
L 392.23148 133.601161 
L 393.416287 133.696547 
L 394.601093 131.31189 
L 395.7859 130.310334 
L 396.970706 124.92101 
L 398.155513 118.53013 
L 400.525126 112.186944 
L 401.709932 107.56071 
L 402.894739 100.692898 
L 404.079545 91.201965 
L 404.079545 91.201965 
" style="fill:none;stroke:#ff7f0e;stroke-linecap:square;stroke-width:1.5;"/>
   </g>
   <g id="line2d_18">
    <path clip-path="url(#p7a35fcf44d)" d="M 61.670455 192.785854 
L 62.855261 194.378175 
L 64.040068 194.827291 
L 65.224874 194.868119 
L 67.594487 192.908341 
L 69.9641 190.336131 
L 71.148907 185.436684 
L 72.333713 179.872311 
L 73.51852 173.608018 
L 74.703327 166.50382 
L 78.257746 148.340869 
L 80.627359 141.341659 
L 81.812166 141.201675 
L 82.996972 140.88671 
L 84.181779 138.856939 
L 85.366585 140.781722 
L 86.551392 142.04158 
L 87.736198 144.246331 
L 88.921005 148.200885 
L 90.105812 149.915692 
L 91.290618 153.380301 
L 92.475425 159.259637 
L 93.660231 159.994554 
L 94.845038 158.594712 
L 96.029844 158.909677 
L 97.214651 160.83446 
L 98.399457 161.849345 
L 99.584264 161.849345 
L 100.76907 161.394396 
L 101.953877 162.304294 
L 103.138684 167.378721 
L 104.32349 168.253622 
L 105.508297 168.673575 
L 106.693103 169.268508 
L 107.87791 170.248397 
L 109.062716 171.82322 
L 110.247523 172.033196 
L 111.432329 172.628129 
L 112.617136 175.462809 
L 113.801942 176.372706 
L 114.986749 177.947529 
L 116.171556 180.677221 
L 117.356362 182.147055 
L 118.541169 184.561782 
L 122.095588 190.371127 
L 123.280395 190.301135 
L 124.465201 190.581103 
L 125.650008 190.651095 
L 126.834814 191.630985 
L 128.019621 191.421008 
L 129.204427 191.630985 
L 130.389234 192.505886 
L 131.574041 194.080708 
L 132.758847 194.395673 
L 133.943654 194.850621 
L 135.12846 194.570653 
L 136.313267 195.445554 
L 137.498073 195.690527 
L 138.68288 196.110479 
L 139.867686 196.670416 
L 142.237299 198.210242 
L 143.422106 199.435104 
L 144.606913 199.750069 
L 145.791719 200.205017 
L 146.976526 199.680076 
L 148.161332 200.79995 
L 149.346139 201.709847 
L 150.530945 201.394883 
L 151.715752 201.919824 
L 155.270171 204.404543 
L 156.454978 204.509532 
L 157.639785 205.13946 
L 158.824591 206.679287 
L 160.009398 207.869152 
L 161.194204 208.884038 
L 162.379011 209.373983 
L 163.563817 210.1089 
L 164.748624 210.003912 
L 165.93343 209.758939 
L 167.118237 209.828931 
L 168.303043 209.653951 
L 170.672656 209.933919 
L 171.857463 209.688947 
L 173.04227 210.353872 
L 175.411883 211.368758 
L 176.596689 211.403754 
L 177.781496 211.228773 
L 181.335915 211.578734 
L 182.520722 211.893698 
L 183.705528 211.543738 
L 184.890335 211.543738 
L 186.075142 211.78871 
L 187.259948 211.893698 
L 189.629561 212.558623 
L 190.814368 212.698607 
L 193.183981 213.258544 
L 194.368787 213.083564 
L 195.553594 213.188552 
L 197.923207 213.678497 
L 199.108014 213.468521 
L 200.29282 213.748489 
L 201.477627 213.888473 
L 202.662433 214.238434 
L 205.032046 214.483406 
L 206.216853 214.308426 
L 207.401659 214.903359 
L 208.586466 215.183327 
L 210.956079 215.428299 
L 212.140885 215.358307 
L 214.510499 215.638276 
L 216.880112 215.288315 
L 219.249725 215.498292 
L 220.434531 215.638276 
L 221.619338 215.393303 
L 222.804144 215.533288 
L 223.988951 215.848252 
L 225.173757 215.95324 
L 226.358564 215.848252 
L 229.912984 216.443185 
L 232.282597 216.478181 
L 233.467403 216.688157 
L 234.65221 216.653161 
L 235.837016 216.373193 
L 237.021823 216.268205 
L 238.206629 216.408189 
L 241.761049 216.233209 
L 245.315469 216.898134 
L 251.239501 216.513177 
L 253.609115 216.058228 
L 254.793921 216.058228 
L 255.978728 216.268205 
L 258.348341 216.408189 
L 259.533147 216.233209 
L 260.717954 216.373193 
L 270.196406 215.743264 
L 273.750826 215.218323 
L 278.490052 215.568284 
L 279.674858 215.428299 
L 280.859665 215.533288 
L 283.229278 215.078339 
L 284.414085 214.693382 
L 286.783698 214.133446 
L 292.70773 214.44841 
L 293.892537 214.413414 
L 295.077344 214.62339 
L 296.26215 214.44841 
L 297.446957 214.028457 
L 299.81657 213.363532 
L 302.186183 211.998686 
L 303.370989 211.228773 
L 306.925409 209.968915 
L 308.110215 209.164006 
L 309.295022 209.268994 
L 310.479829 208.709058 
L 311.664635 208.744054 
L 312.849442 208.60407 
L 315.219055 207.659176 
L 316.403861 208.044133 
L 318.773474 206.224338 
L 319.958281 204.929484 
L 323.512701 201.674851 
L 324.697507 200.030037 
L 325.882314 199.4701 
L 327.06712 198.560203 
L 328.251927 198.070258 
L 329.436733 196.915388 
L 330.62154 196.180471 
L 331.806346 195.165586 
L 332.991153 195.270574 
L 334.175959 194.290685 
L 335.360766 192.995831 
L 336.545573 192.190921 
L 338.915186 188.65632 
L 340.099992 187.886407 
L 341.284799 186.871522 
L 343.654412 184.036842 
L 344.839218 184.386802 
L 346.024025 185.016731 
L 347.208831 185.261703 
L 348.393638 185.191711 
L 349.578444 184.106834 
L 350.763251 183.581893 
L 351.948058 182.881972 
L 353.132864 181.202161 
L 354.317671 179.732327 
L 355.502477 179.242382 
L 356.687284 178.577458 
L 357.87209 178.332485 
L 359.056897 178.262493 
L 360.241703 180.537236 
L 361.42651 181.272153 
L 362.611316 182.217047 
L 363.796123 181.517126 
L 364.98093 181.727102 
L 366.165736 182.217047 
L 367.350543 181.762098 
L 368.535349 179.242382 
L 369.720156 177.457584 
L 370.904962 176.057742 
L 372.089769 174.972864 
L 373.274575 173.15307 
L 374.459382 170.738342 
L 378.013802 164.99899 
L 379.198608 162.374286 
L 380.383415 160.169535 
L 381.568221 158.594712 
L 382.753028 156.214981 
L 383.937834 152.540395 
L 385.122641 150.790593 
L 386.307447 148.515849 
L 387.492254 144.421311 
L 388.67706 141.306663 
L 391.046673 134.237461 
L 392.23148 134.797397 
L 393.416287 134.167468 
L 394.601093 133.152583 
L 395.7859 131.682749 
L 396.970706 125.803412 
L 398.155513 123.388685 
L 399.340319 118.629222 
L 400.525126 110.545134 
L 401.709932 107.850438 
L 402.894739 97.036658 
L 404.079545 91.087329 
L 404.079545 91.087329 
" style="fill:none;stroke:#2ca02c;stroke-linecap:square;stroke-width:1.5;"/>
   </g>
   <g id="line2d_19">
    <path clip-path="url(#p7a35fcf44d)" d="M 61.670455 198.280609 
L 62.855261 191.290281 
L 64.040068 189.851095 
L 65.224874 187.024124 
L 66.409681 184.670028 
L 67.594487 178.954407 
L 68.779294 172.140305 
L 71.148907 157.454741 
L 72.333713 151.609886 
L 73.51852 143.12163 
L 74.703327 132.166199 
L 75.888133 124.38285 
L 77.07294 113.985471 
L 78.257746 107.347596 
L 79.442553 105.967153 
L 80.627359 99.828587 
L 81.812166 99.593618 
L 82.996972 103.764318 
L 84.181779 105.585328 
L 85.366585 112.634399 
L 86.551392 118.743594 
L 87.736198 120.858315 
L 88.921005 127.437448 
L 90.105812 132.900477 
L 91.290618 136.013817 
L 92.475425 141.095022 
L 93.660231 149.730134 
L 96.029844 154.987566 
L 97.214651 158.100906 
L 98.399457 158.74707 
L 99.584264 160.30374 
L 100.76907 163.240853 
L 101.953877 163.94576 
L 103.138684 165.76677 
L 104.32349 168.322058 
L 105.508297 169.555646 
L 107.87791 173.814459 
L 109.062716 174.959933 
L 110.247523 174.813078 
L 111.432329 175.253644 
L 112.617136 175.4005 
L 113.801942 176.457861 
L 114.986749 178.455097 
L 116.171556 177.808933 
L 117.356362 178.866293 
L 118.541169 179.512458 
L 120.910782 181.891519 
L 122.095588 181.65655 
L 123.280395 182.185231 
L 124.465201 184.035612 
L 125.650008 184.740519 
L 126.834814 186.297189 
L 128.019621 187.002096 
L 129.204427 186.561529 
L 130.389234 187.031467 
L 131.574041 186.209075 
L 132.758847 186.532158 
L 133.943654 186.620271 
L 135.12846 186.5909 
L 136.313267 186.884611 
L 137.498073 188.41191 
L 138.68288 189.293044 
L 141.052493 192.935064 
L 142.237299 194.080538 
L 144.606913 195.314125 
L 145.791719 195.549094 
L 146.976526 195.460981 
L 148.161332 195.108527 
L 149.346139 195.049785 
L 150.530945 194.814816 
L 151.715752 195.226012 
L 152.900558 195.813434 
L 154.085365 197.047022 
L 155.270171 198.956145 
L 156.454978 200.042877 
L 157.639785 200.277846 
L 158.824591 200.953382 
L 160.009398 201.15898 
L 161.194204 201.68766 
L 162.379011 201.717031 
L 163.563817 201.070866 
L 164.748624 200.865268 
L 165.93343 201.100237 
L 167.118237 202.010742 
L 168.303043 203.156216 
L 169.48785 203.449928 
L 170.672656 203.890495 
L 171.857463 204.801 
L 173.04227 205.124082 
L 174.227076 205.799618 
L 176.596689 206.504525 
L 177.781496 207.297545 
L 178.966302 207.121319 
L 180.151109 207.121319 
L 181.335915 208.061195 
L 184.890335 209.294782 
L 186.075142 209.529751 
L 188.444755 210.880823 
L 189.629561 210.998308 
L 190.814368 211.292019 
L 193.183981 212.173153 
L 194.368787 212.34938 
L 195.553594 212.966173 
L 196.7384 213.083658 
L 197.923207 213.40674 
L 200.29282 213.788565 
L 201.477627 214.170389 
L 202.662433 214.43473 
L 207.401659 214.96341 
L 209.771272 215.080894 
L 213.325692 214.640328 
L 214.510499 214.610956 
L 215.695305 215.022152 
L 216.880112 215.169008 
L 218.064918 215.139637 
L 220.434531 215.462719 
L 222.804144 215.785802 
L 223.988951 215.638946 
L 225.173757 215.844544 
L 226.358564 215.903286 
L 228.728177 216.285111 
L 231.09779 215.962028 
L 232.282597 216.226368 
L 233.467403 216.285111 
L 234.65221 216.461337 
L 237.021823 215.991399 
L 238.206629 215.903286 
L 239.391436 215.932657 
L 241.761049 215.374606 
L 242.945856 215.286492 
L 250.054695 215.991399 
L 252.424308 215.873915 
L 253.609115 216.108884 
L 254.793921 216.020771 
L 255.978728 216.050142 
L 257.163534 215.844544 
L 258.348341 215.903286 
L 259.533147 215.844544 
L 260.717954 216.020771 
L 263.087567 215.22775 
L 264.272373 214.904668 
L 265.45718 214.757812 
L 267.826793 213.729823 
L 269.0116 213.054287 
L 270.196406 212.643091 
L 271.381213 212.701833 
L 272.566019 212.34938 
L 273.750826 211.879441 
L 278.490052 211.145163 
L 279.674858 210.52837 
L 280.859665 210.175916 
L 282.044472 210.352143 
L 283.229278 209.529751 
L 284.414085 209.001071 
L 286.783698 207.67937 
L 287.968504 207.41503 
L 289.153311 207.268174 
L 290.338117 206.445783 
L 291.522924 206.62201 
L 293.892537 206.475154 
L 295.077344 206.298927 
L 296.26215 206.269556 
L 297.446957 205.682133 
L 298.631763 204.536659 
L 301.001376 203.156216 
L 302.186183 202.715649 
L 303.370989 202.128227 
L 304.555796 201.393949 
L 305.740602 200.424701 
L 306.925409 200.072248 
L 308.110215 197.634444 
L 309.295022 196.22463 
L 310.479829 194.198022 
L 311.664635 192.876321 
L 312.849442 191.995188 
L 315.219055 188.235683 
L 316.403861 186.85524 
L 317.588668 184.858003 
L 318.773474 182.390829 
L 319.958281 180.951643 
L 321.143087 179.013149 
L 322.327894 177.397737 
L 323.512701 174.313768 
L 324.697507 172.551501 
L 325.882314 171.611625 
L 328.251927 168.351429 
L 329.436733 166.119224 
L 330.62154 164.533183 
L 331.806346 164.356956 
L 332.991153 164.562554 
L 334.175959 162.535946 
L 335.360766 161.478585 
L 337.730379 158.688328 
L 338.915186 156.103669 
L 340.099992 152.784731 
L 342.469605 144.854527 
L 343.654412 143.562197 
L 344.839218 140.830682 
L 346.024025 139.47961 
L 347.208831 140.419486 
L 348.393638 140.595713 
L 349.578444 141.594331 
L 350.763251 143.239115 
L 351.948058 143.709053 
L 353.132864 145.089496 
L 354.317671 147.174846 
L 355.502477 147.909124 
L 356.687284 148.467175 
L 357.87209 149.201454 
L 359.056897 150.14133 
L 360.241703 152.549762 
L 361.42651 155.281277 
L 362.611316 155.927442 
L 363.796123 156.749834 
L 364.98093 159.334493 
L 366.165736 159.628204 
L 367.350543 160.244998 
L 368.535349 158.071534 
L 369.720156 154.429514 
L 370.904962 154.165174 
L 372.089769 152.814102 
L 373.274575 152.256051 
L 374.459382 151.169319 
L 375.644188 151.433659 
L 376.828995 150.493783 
L 378.013802 151.433659 
L 379.198608 148.643402 
L 380.383415 149.201454 
L 381.568221 148.437804 
L 382.753028 148.202835 
L 383.937834 146.264341 
L 385.122641 146.469939 
L 386.307447 147.55667 
L 387.492254 150.111959 
L 388.67706 148.349691 
L 389.861867 146.323083 
L 391.046673 146.440568 
L 393.416287 150.728752 
L 394.601093 150.904979 
L 395.7859 146.23497 
L 396.970706 145.148238 
L 398.155513 141.976156 
L 399.340319 136.160673 
L 400.525126 131.079467 
L 401.709932 126.938138 
L 402.894739 121.416366 
L 404.079545 117.979944 
L 404.079545 117.979944 
" style="fill:none;stroke:#d62728;stroke-linecap:square;stroke-width:1.5;"/>
   </g>
   <g id="line2d_20">
    <path clip-path="url(#p7a35fcf44d)" d="M 61.670455 205.85737 
L 62.855261 206.490736 
L 64.040068 204.168392 
L 65.224874 203.260567 
L 66.409681 200.790437 
L 67.594487 196.610218 
L 68.779294 193.877694 
L 69.9641 188.521222 
L 72.333713 174.695735 
L 73.51852 168.000146 
L 74.703327 159.567323 
L 75.888133 154.64516 
L 77.07294 142.086406 
L 78.257746 133.870737 
L 79.442553 129.057152 
L 80.627359 127.754226 
L 81.812166 123.736873 
L 82.996972 121.420561 
L 84.181779 116.245051 
L 85.366585 122.759678 
L 86.551392 125.908415 
L 87.736198 127.862803 
L 88.921005 128.007573 
L 90.105812 130.034346 
L 91.290618 133.617391 
L 92.475425 138.684323 
L 93.660231 141.326366 
L 94.845038 143.534101 
L 96.029844 146.538068 
L 97.214651 148.673418 
L 98.399457 150.193498 
L 99.584264 151.170692 
L 100.76907 153.088888 
L 101.953877 153.342235 
L 103.138684 155.079469 
L 104.32349 155.549969 
L 105.508297 156.744318 
L 107.87791 158.083436 
L 109.062716 159.06063 
L 110.247523 159.6759 
L 111.432329 160.942633 
L 112.617136 163.33133 
L 113.801942 164.272332 
L 114.986749 166.769605 
L 118.541169 175.347198 
L 119.725975 176.107238 
L 120.910782 178.025434 
L 122.095588 179.002628 
L 123.280395 180.486515 
L 124.465201 181.644671 
L 125.650008 181.31894 
L 126.834814 181.17417 
L 128.019621 182.766635 
L 129.204427 182.585673 
L 130.389234 184.395292 
L 132.758847 187.688798 
L 135.12846 191.525189 
L 136.313267 191.669959 
L 137.498073 192.538576 
L 138.68288 192.466191 
L 139.867686 192.828115 
L 141.052493 194.058656 
L 142.237299 194.565349 
L 143.422106 195.433966 
L 144.606913 197.207392 
L 145.791719 197.714085 
L 146.976526 198.510318 
L 148.161332 198.763664 
L 149.346139 198.618895 
L 150.530945 199.16178 
L 151.715752 200.211359 
L 152.900558 201.007591 
L 154.085365 201.079976 
L 155.270171 202.129555 
L 156.454978 203.541058 
L 157.639785 204.228713 
L 158.824591 204.554444 
L 160.009398 204.373482 
L 161.194204 204.626829 
L 162.379011 205.495446 
L 163.563817 205.821177 
L 164.748624 205.676408 
L 165.93343 205.784985 
L 167.118237 205.748792 
L 168.303043 205.893562 
L 169.48785 205.640215 
L 170.672656 206.074524 
L 171.857463 206.32787 
L 173.04227 207.051718 
L 174.227076 206.725987 
L 175.411883 207.377449 
L 176.596689 208.246066 
L 177.781496 208.825144 
L 181.335915 208.499413 
L 182.520722 209.729954 
L 183.705528 210.12807 
L 184.890335 210.200454 
L 187.259948 210.74334 
L 189.629561 211.539572 
L 191.999174 211.430995 
L 193.183981 211.50338 
L 194.368787 211.792919 
L 196.7384 211.973881 
L 197.923207 212.082458 
L 199.108014 212.046266 
L 201.477627 212.589151 
L 202.662433 212.697728 
L 203.84724 212.951075 
L 205.032046 213.530153 
L 206.216853 213.276806 
L 208.586466 214.724501 
L 210.956079 215.520733 
L 212.140885 215.520733 
L 213.325692 215.375964 
L 214.510499 215.701695 
L 215.695305 215.375964 
L 216.880112 215.303579 
L 218.064918 215.412156 
L 219.249725 215.122617 
L 220.434531 215.267387 
L 222.804144 215.15881 
L 225.173757 214.507347 
L 231.09779 214.579732 
L 232.282597 215.122617 
L 233.467403 215.195002 
L 234.65221 214.941655 
L 235.837016 215.267387 
L 241.761049 215.846465 
L 242.945856 216.136004 
L 245.315469 215.91885 
L 246.500275 216.063619 
L 250.054695 215.991234 
L 251.239501 215.737888 
L 252.424308 215.701695 
L 253.609115 215.810272 
L 258.348341 215.448349 
L 260.717954 215.593118 
L 261.90276 215.375964 
L 265.45718 215.050233 
L 266.641986 214.652116 
L 267.826793 213.747307 
L 272.566019 210.924302 
L 274.935632 209.295645 
L 276.120439 209.042298 
L 278.490052 206.725987 
L 279.674858 206.074524 
L 282.044472 203.179134 
L 283.229278 202.853403 
L 284.414085 201.116169 
L 285.598891 200.899014 
L 286.783698 200.899014 
L 287.968504 200.247552 
L 290.338117 199.994205 
L 291.522924 198.329356 
L 292.70773 198.148394 
L 293.892537 197.315969 
L 295.077344 196.013044 
L 301.001376 187.073527 
L 302.186183 185.73441 
L 303.370989 184.06956 
L 304.555796 183.056174 
L 306.925409 179.292167 
L 308.110215 178.495935 
L 309.295022 177.518741 
L 310.479829 175.383391 
L 311.664635 174.91289 
L 312.849442 172.560385 
L 314.034248 171.148883 
L 315.219055 169.375456 
L 316.403861 166.08195 
L 317.588668 162.317943 
L 318.773474 160.218786 
L 319.958281 156.78051 
L 321.143087 154.355621 
L 323.512701 147.044762 
L 324.697507 146.067567 
L 325.882314 142.955023 
L 327.06712 139.516748 
L 328.251927 139.227209 
L 329.436733 137.489975 
L 330.62154 136.476588 
L 331.806346 135.065086 
L 332.991153 132.857351 
L 334.175959 133.074505 
L 335.360766 132.784966 
L 336.545573 130.541039 
L 338.915186 129.672422 
L 340.099992 128.043765 
L 341.284799 124.352143 
L 342.469605 121.131022 
L 343.654412 120.515751 
L 344.839218 118.452786 
L 347.208831 117.222245 
L 348.393638 117.403207 
L 349.578444 122.072023 
L 350.763251 124.895029 
L 351.948058 125.510299 
L 353.132864 126.632262 
L 354.317671 129.346691 
L 356.687284 136.368011 
L 357.87209 138.539554 
L 359.056897 142.086406 
L 360.241703 145.054181 
L 361.42651 149.180112 
L 362.611316 151.351654 
L 363.796123 152.401233 
L 364.98093 154.826122 
L 367.350543 157.251011 
L 368.535349 157.866281 
L 369.720156 159.241592 
L 370.904962 158.553937 
L 372.089769 159.277784 
L 373.274575 158.771091 
L 374.459382 158.517744 
L 375.644188 157.902474 
L 376.828995 159.06063 
L 378.013802 157.612935 
L 379.198608 157.251011 
L 380.383415 156.16524 
L 381.568221 154.536583 
L 382.753028 153.704158 
L 383.937834 153.26985 
L 385.122641 152.65458 
L 386.307447 152.944119 
L 388.67706 152.980311 
L 389.861867 154.02989 
L 391.046673 153.197465 
L 392.23148 153.559389 
L 393.416287 154.970891 
L 394.601093 154.826122 
L 395.7859 153.595581 
L 396.970706 152.075502 
L 398.155513 150.736384 
L 399.340319 148.23911 
L 400.525126 146.031375 
L 402.894739 138.358592 
L 404.079545 137.272821 
L 404.079545 137.272821 
" style="fill:none;stroke:#9467bd;stroke-linecap:square;stroke-width:1.5;"/>
   </g>
   <g id="line2d_21">
    <path clip-path="url(#p7a35fcf44d)" d="M 61.670455 203.510001 
L 62.855261 202.120936 
L 65.224874 198.185254 
L 66.409681 196.842492 
L 67.594487 194.095231 
L 68.779294 189.266578 
L 69.9641 183.22525 
L 71.148907 176.037393 
L 72.333713 169.907871 
L 73.51852 164.836683 
L 74.703327 150.10819 
L 75.888133 140.406788 
L 77.07294 128.103645 
L 79.442553 107.069241 
L 81.812166 90.797343 
L 82.996972 92.032067 
L 84.181779 90.576857 
L 85.366585 93.046305 
L 86.551392 91.150121 
L 88.921005 99.043535 
L 91.290618 106.672365 
L 92.475425 111.346678 
L 93.660231 118.534535 
L 94.845038 128.368229 
L 96.029844 131.851915 
L 97.214651 136.570324 
L 99.584264 143.537695 
L 100.76907 143.93457 
L 101.953877 145.389781 
L 103.138684 148.564785 
L 104.32349 151.298817 
L 105.508297 151.475206 
L 106.693103 152.930416 
L 107.87791 153.062708 
L 109.062716 155.973129 
L 110.247523 155.399864 
L 111.432329 153.988751 
L 112.617136 155.31167 
L 113.801942 156.017226 
L 114.986749 155.443961 
L 116.171556 156.943269 
L 117.356362 156.634588 
L 118.541169 159.677301 
L 119.725975 161.088414 
L 120.910782 161.617581 
L 122.095588 162.45543 
L 123.280395 164.131126 
L 124.465201 163.513764 
L 125.650008 164.175224 
L 126.834814 162.9405 
L 129.204427 164.439807 
L 131.574041 163.381473 
L 132.758847 164.792586 
L 133.943654 165.36585 
L 135.12846 166.909255 
L 136.313267 166.865158 
L 137.498073 166.556477 
L 138.68288 168.893633 
L 139.867686 170.701622 
L 141.052493 172.906486 
L 142.237299 175.59642 
L 143.422106 175.728712 
L 144.606913 176.610658 
L 145.791719 178.330452 
L 146.976526 179.565176 
L 148.161332 179.65337 
L 149.346139 178.418646 
L 150.530945 178.021771 
L 151.715752 179.1683 
L 152.900558 180.094343 
L 154.085365 182.122818 
L 155.270171 183.930807 
L 156.454978 186.576644 
L 157.639785 190.148524 
L 158.824591 191.162761 
L 160.009398 191.559637 
L 161.194204 192.573874 
L 162.379011 191.824221 
L 163.563817 191.51554 
L 164.748624 190.898178 
L 165.93343 190.457205 
L 167.118237 191.118664 
L 168.303043 192.706166 
L 169.48785 194.029085 
L 170.672656 195.57249 
L 173.04227 197.99784 
L 174.227076 198.394716 
L 175.411883 199.761732 
L 176.596689 200.026315 
L 177.781496 200.820067 
L 178.966302 200.996456 
L 180.151109 200.379094 
L 181.335915 201.040553 
L 183.705528 203.818682 
L 184.890335 205.758962 
L 186.075142 207.346465 
L 187.259948 208.360702 
L 188.444755 209.639523 
L 190.814368 211.050636 
L 193.183981 211.579804 
L 194.368787 211.271123 
L 195.553594 212.197166 
L 196.7384 212.505847 
L 197.923207 213.167306 
L 199.108014 213.255501 
L 200.29282 213.123209 
L 201.477627 213.167306 
L 202.662433 213.343695 
L 203.84724 213.299598 
L 205.032046 213.387792 
L 206.216853 213.167306 
L 208.586466 212.505847 
L 209.771272 212.373555 
L 210.956079 212.064874 
L 212.140885 211.535707 
L 214.510499 211.491609 
L 215.695305 212.108971 
L 218.064918 213.035014 
L 219.249725 213.299598 
L 220.434531 213.740571 
L 222.804144 213.784668 
L 223.988951 213.475987 
L 225.173757 213.696473 
L 226.358564 213.696473 
L 227.543371 214.049252 
L 228.728177 213.828765 
L 229.912984 212.505847 
L 231.09779 212.594041 
L 232.282597 212.94682 
L 233.467403 212.858625 
L 235.837016 213.035014 
L 237.021823 213.475987 
L 238.206629 215.107587 
L 239.391436 215.416268 
L 241.761049 215.636754 
L 242.945856 215.063489 
L 244.130662 215.328073 
L 245.315469 215.063489 
L 246.500275 215.195781 
L 247.685082 214.931197 
L 250.054695 215.019392 
L 251.239501 215.460365 
L 252.424308 214.710711 
L 253.609115 214.754808 
L 254.793921 214.137446 
L 255.978728 214.049252 
L 257.163534 213.828765 
L 259.533147 213.035014 
L 261.90276 212.94682 
L 263.087567 212.505847 
L 264.272373 211.535707 
L 265.45718 210.786053 
L 267.826793 210.433274 
L 269.0116 209.551329 
L 270.196406 208.360702 
L 272.566019 206.640908 
L 273.750826 205.935351 
L 274.935632 204.083266 
L 276.120439 202.848542 
L 277.305245 202.187082 
L 278.490052 202.054791 
L 279.674858 201.790207 
L 280.859665 201.128748 
L 282.044472 199.14437 
L 283.229278 198.350619 
L 284.414085 196.454435 
L 285.598891 195.484295 
L 286.783698 194.293669 
L 287.968504 193.676307 
L 289.153311 193.367626 
L 290.338117 192.573874 
L 292.70773 192.309291 
L 295.077344 187.94366 
L 296.26215 185.121433 
L 297.446957 179.1683 
L 298.631763 177.801284 
L 299.81657 173.259264 
L 301.001376 171.318984 
L 302.186183 169.114119 
L 303.370989 166.556477 
L 304.555796 164.483905 
L 305.740602 164.439807 
L 306.925409 160.956122 
L 308.110215 158.354382 
L 310.479829 151.387011 
L 311.664635 150.681455 
L 312.849442 146.492213 
L 314.034248 143.537695 
L 315.219055 143.096722 
L 316.403861 143.229014 
L 317.588668 141.950193 
L 318.773474 142.611652 
L 319.958281 139.127966 
L 321.143087 138.863383 
L 323.512701 133.439417 
L 325.882314 127.089408 
L 327.06712 122.811971 
L 328.251927 123.64982 
L 329.436733 123.561625 
L 330.62154 125.413711 
L 331.806346 125.678295 
L 332.991153 127.309894 
L 334.175959 127.794964 
L 335.360766 131.896012 
L 336.545573 134.056779 
L 337.730379 135.159211 
L 338.915186 134.938724 
L 340.099992 136.085254 
L 341.284799 135.203308 
L 342.469605 135.115114 
L 343.654412 132.513374 
L 344.839218 131.27865 
L 346.024025 132.645666 
L 347.208831 135.556086 
L 348.393638 134.453654 
L 349.578444 135.291503 
L 350.763251 138.157826 
L 351.948058 141.685609 
L 353.132864 144.110959 
L 354.317671 145.830754 
L 355.502477 146.53631 
L 356.687284 151.210622 
L 357.87209 155.355767 
L 359.056897 156.810977 
L 360.241703 158.486674 
L 361.42651 158.133896 
L 362.611316 159.633203 
L 363.796123 160.647441 
L 364.98093 160.779733 
L 366.165736 159.500912 
L 367.350543 162.146749 
L 369.720156 163.469667 
L 370.904962 163.116889 
L 372.089769 163.601959 
L 373.274575 162.102651 
L 374.459382 161.882165 
L 375.644188 159.545009 
L 376.828995 158.310285 
L 378.013802 159.85369 
L 379.198608 158.618966 
L 380.383415 157.869312 
L 382.753028 161.220706 
L 383.937834 160.647441 
L 385.122641 159.765495 
L 386.307447 156.370004 
L 387.492254 156.370004 
L 388.67706 155.399864 
L 389.861867 153.68007 
L 391.046673 151.342914 
L 392.23148 151.5634 
L 393.416287 154.385627 
L 394.601093 155.664448 
L 395.7859 155.488059 
L 396.970706 154.914794 
L 398.155513 152.842222 
L 399.340319 151.695692 
L 400.525126 149.005758 
L 401.709932 146.668602 
L 402.894739 145.654364 
L 404.079545 143.184917 
L 404.079545 143.184917 
" style="fill:none;stroke:#8c564b;stroke-linecap:square;stroke-width:1.5;"/>
   </g>
   <g id="line2d_22">
    <path clip-path="url(#p7a35fcf44d)" d="M 61.670455 159.645511 
L 62.855261 155.754011 
L 64.040068 151.295001 
L 65.224874 147.606183 
L 66.409681 137.123456 
L 67.594487 124.784159 
L 69.9641 104.956041 
L 71.148907 92.20443 
L 72.333713 83.865502 
L 73.51852 72.156257 
L 74.703327 59.022446 
L 75.888133 58.744481 
L 77.07294 55.547892 
L 78.257746 44.568304 
L 79.442553 44.290339 
L 80.627359 37.966652 
L 81.812166 35.88192 
L 82.996972 40.746295 
L 84.181779 38.070889 
L 85.366585 38.870036 
L 86.551392 48.633531 
L 87.736198 52.664013 
L 88.921005 61.107178 
L 91.290618 84.560413 
L 92.475425 94.115435 
L 93.660231 105.650952 
L 96.029844 117.429688 
L 97.214651 124.622013 
L 98.399457 127.888093 
L 99.584264 131.640611 
L 100.76907 137.165151 
L 101.953877 143.662565 
L 103.138684 147.901521 
L 104.32349 154.398935 
L 105.508297 159.471783 
L 106.693103 163.050573 
L 107.87791 164.683613 
L 109.062716 166.073435 
L 110.247523 166.525127 
L 111.432329 169.409006 
L 112.617136 168.36664 
L 113.801942 167.914948 
L 114.986749 168.957314 
L 116.171556 172.153903 
L 117.356362 174.58609 
L 118.541169 174.447108 
L 119.725975 173.786943 
L 120.910782 177.330987 
L 123.280395 182.05638 
L 124.465201 184.766532 
L 125.650008 188.171594 
L 126.834814 192.514786 
L 128.019621 196.37154 
L 129.204427 197.135942 
L 130.389234 198.039325 
L 131.574041 199.255419 
L 132.758847 199.846093 
L 133.943654 199.533383 
L 135.12846 200.228294 
L 136.313267 200.749477 
L 137.498073 200.749477 
L 138.68288 201.305406 
L 139.867686 201.652861 
L 142.237299 203.285901 
L 143.422106 203.355392 
L 144.606913 204.015557 
L 145.791719 204.918941 
L 146.976526 205.370633 
L 149.346139 205.370633 
L 150.530945 205.926562 
L 154.085365 205.961307 
L 157.639785 204.189285 
L 158.824591 204.745213 
L 161.194204 206.586727 
L 162.379011 207.281637 
L 163.563817 208.185021 
L 164.748624 209.366369 
L 165.93343 210.06128 
L 167.118237 209.331624 
L 169.48785 208.185021 
L 170.672656 207.594347 
L 171.857463 207.629093 
L 173.04227 207.524856 
L 175.411883 206.690963 
L 178.966302 207.246892 
L 180.151109 206.899437 
L 181.335915 207.142655 
L 183.705528 209.957043 
L 184.890335 209.887552 
L 187.259948 211.242628 
L 188.444755 211.69432 
L 189.629561 211.520593 
L 190.814368 211.173137 
L 191.999174 211.242628 
L 193.183981 212.041776 
L 194.368787 212.041776 
L 195.553594 211.833302 
L 196.7384 211.798557 
L 197.923207 212.041776 
L 199.108014 212.458722 
L 205.032046 213.779052 
L 206.216853 214.091762 
L 207.401659 214.230744 
L 209.771272 214.890909 
L 210.956079 215.238365 
L 213.325692 215.342601 
L 214.510499 215.27311 
L 216.880112 215.551074 
L 218.064918 215.551074 
L 219.249725 215.863784 
L 220.434531 216.315476 
L 222.804144 216.280731 
L 223.988951 216.558695 
L 226.358564 216.59344 
L 229.912984 216.454458 
L 231.09779 216.454458 
L 232.282597 216.21124 
L 233.467403 215.759548 
L 234.65221 216.002766 
L 238.206629 215.829039 
L 239.391436 215.933275 
L 240.576243 216.176494 
L 241.761049 216.59344 
L 242.945856 216.523949 
L 246.500275 216.767168 
L 248.869888 216.59344 
L 250.054695 216.489204 
L 252.424308 216.59344 
L 254.793921 216.280731 
L 258.348341 216.454458 
L 259.533147 216.245985 
L 260.717954 215.89853 
L 261.90276 215.89853 
L 263.087567 215.307856 
L 264.272373 215.099382 
L 265.45718 215.134128 
L 270.196406 214.543454 
L 271.381213 214.682436 
L 272.566019 214.300235 
L 273.750826 213.396851 
L 274.935632 212.875668 
L 277.305245 212.284994 
L 278.490052 211.312119 
L 283.229278 209.574843 
L 284.414085 209.192642 
L 285.598891 208.532477 
L 287.968504 208.845186 
L 290.338117 209.922298 
L 291.522924 209.887552 
L 292.70773 210.06128 
L 295.077344 209.922298 
L 296.26215 209.574843 
L 297.446957 209.43586 
L 298.631763 208.775695 
L 299.81657 208.532477 
L 301.001376 208.011294 
L 302.186183 208.393494 
L 303.370989 207.768075 
L 304.555796 207.316383 
L 306.925409 205.752834 
L 309.295022 203.668102 
L 310.479829 202.313026 
L 311.664635 201.89608 
L 312.849442 200.64524 
L 314.034248 199.081691 
L 315.219055 198.352035 
L 316.403861 197.796107 
L 317.588668 196.475776 
L 318.773474 195.43341 
L 319.958281 193.41817 
L 322.327894 191.889366 
L 323.512701 189.630906 
L 324.697507 188.935996 
L 325.882314 189.005487 
L 327.06712 187.89363 
L 328.251927 187.858884 
L 329.436733 187.024991 
L 330.62154 186.469063 
L 331.806346 187.129228 
L 332.991153 187.337701 
L 334.175959 186.9555 
L 336.545573 188.58854 
L 337.730379 189.387688 
L 338.915186 188.831759 
L 340.099992 188.831759 
L 341.284799 187.302956 
L 342.469605 186.920755 
L 346.024025 183.480947 
L 348.393638 182.160617 
L 349.578444 181.986889 
L 350.763251 180.42334 
L 351.948058 179.693684 
L 353.132864 180.388594 
L 354.317671 179.485211 
L 355.502477 180.353849 
L 356.687284 180.597068 
L 357.87209 181.326724 
L 359.056897 180.597068 
L 360.241703 181.222487 
L 361.42651 180.944523 
L 362.611316 182.959764 
L 363.796123 182.647054 
L 364.98093 182.6818 
L 366.165736 181.674179 
L 367.350543 182.994509 
L 368.535349 182.959764 
L 369.720156 181.361469 
L 370.904962 180.180121 
L 372.089769 179.311483 
L 373.274575 177.087769 
L 374.459382 175.593711 
L 376.828995 169.860698 
L 380.383415 158.742127 
L 381.568221 155.892993 
L 382.753028 151.410819 
L 383.937834 151.271837 
L 385.122641 146.720172 
L 386.307447 143.94053 
L 387.492254 138.450735 
L 388.67706 134.072798 
L 389.861867 126.672 
L 391.046673 120.556786 
L 392.23148 111.557692 
L 393.416287 107.179755 
L 395.7859 92.447649 
L 398.155513 76.812159 
L 400.525126 64.963932 
L 404.079545 42.205607 
L 404.079545 42.205607 
" style="fill:none;stroke:#e377c2;stroke-linecap:square;stroke-width:1.5;"/>
   </g>
   <g id="line2d_23"/>
   <g id="line2d_24"/>
   <g id="line2d_25"/>
   <g id="line2d_26"/>
   <g id="line2d_27"/>
   <g id="line2d_28"/>
   <g id="line2d_29"/>
   <g id="patch_3">
    <path d="M 44.55 226.602246 
L 44.55 26.8 
" style="fill:none;stroke:#000000;stroke-linecap:square;stroke-linejoin:miter;stroke-width:0.8;"/>
   </g>
   <g id="patch_4">
    <path d="M 421.2 226.602246 
L 421.2 26.8 
" style="fill:none;stroke:#000000;stroke-linecap:square;stroke-linejoin:miter;stroke-width:0.8;"/>
   </g>
   <g id="patch_5">
    <path d="M 44.55 226.602246 
L 421.2 226.602246 
" style="fill:none;stroke:#000000;stroke-linecap:square;stroke-linejoin:miter;stroke-width:0.8;"/>
   </g>
   <g id="patch_6">
    <path d="M 44.55 26.8 
L 421.2 26.8 
" style="fill:none;stroke:#000000;stroke-linecap:square;stroke-linejoin:miter;stroke-width:0.8;"/>
   </g>
   <g id="text_18">
    <!-- New admissions per million people by NHS region (7 day rolling) -->
    <g transform="translate(39.615938 20.8)scale(0.12 -0.12)">
     <defs>
      <path d="M 48.6875 27.296875 
Q 48.6875 37.203125 44.609375 42.84375 
Q 40.53125 48.484375 33.40625 48.484375 
Q 26.265625 48.484375 22.1875 42.84375 
Q 18.109375 37.203125 18.109375 27.296875 
Q 18.109375 17.390625 22.1875 11.75 
Q 26.265625 6.109375 33.40625 6.109375 
Q 40.53125 6.109375 44.609375 11.75 
Q 48.6875 17.390625 48.6875 27.296875 
z
M 18.109375 46.390625 
Q 20.953125 51.265625 25.265625 53.625 
Q 29.59375 56 35.59375 56 
Q 45.5625 56 51.78125 48.09375 
Q 58.015625 40.1875 58.015625 27.296875 
Q 58.015625 14.40625 51.78125 6.484375 
Q 45.5625 -1.421875 35.59375 -1.421875 
Q 29.59375 -1.421875 25.265625 0.953125 
Q 20.953125 3.328125 18.109375 8.203125 
L 18.109375 0 
L 9.078125 0 
L 9.078125 75.984375 
L 18.109375 75.984375 
z
" id="DejaVuSans-98"/>
      <path d="M 32.171875 -5.078125 
Q 28.375 -14.84375 24.75 -17.8125 
Q 21.140625 -20.796875 15.09375 -20.796875 
L 7.90625 -20.796875 
L 7.90625 -13.28125 
L 13.1875 -13.28125 
Q 16.890625 -13.28125 18.9375 -11.515625 
Q 21 -9.765625 23.484375 -3.21875 
L 25.09375 0.875 
L 2.984375 54.6875 
L 12.5 54.6875 
L 29.59375 11.921875 
L 46.6875 54.6875 
L 56.203125 54.6875 
z
" id="DejaVuSans-121"/>
      <path d="M 9.8125 72.90625 
L 19.671875 72.90625 
L 19.671875 43.015625 
L 55.515625 43.015625 
L 55.515625 72.90625 
L 65.375 72.90625 
L 65.375 0 
L 55.515625 0 
L 55.515625 34.71875 
L 19.671875 34.71875 
L 19.671875 0 
L 9.8125 0 
z
" id="DejaVuSans-72"/>
      <path d="M 53.515625 70.515625 
L 53.515625 60.890625 
Q 47.90625 63.578125 42.921875 64.890625 
Q 37.9375 66.21875 33.296875 66.21875 
Q 25.25 66.21875 20.875 63.09375 
Q 16.5 59.96875 16.5 54.203125 
Q 16.5 49.359375 19.40625 46.890625 
Q 22.3125 44.4375 30.421875 42.921875 
L 36.375 41.703125 
Q 47.40625 39.59375 52.65625 34.296875 
Q 57.90625 29 57.90625 20.125 
Q 57.90625 9.515625 50.796875 4.046875 
Q 43.703125 -1.421875 29.984375 -1.421875 
Q 24.8125 -1.421875 18.96875 -0.25 
Q 13.140625 0.921875 6.890625 3.21875 
L 6.890625 13.375 
Q 12.890625 10.015625 18.65625 8.296875 
Q 24.421875 6.59375 29.984375 6.59375 
Q 38.421875 6.59375 43.015625 9.90625 
Q 47.609375 13.234375 47.609375 19.390625 
Q 47.609375 24.75 44.3125 27.78125 
Q 41.015625 30.8125 33.5 32.328125 
L 27.484375 33.5 
Q 16.453125 35.6875 11.515625 40.375 
Q 6.59375 45.0625 6.59375 53.421875 
Q 6.59375 63.09375 13.40625 68.65625 
Q 20.21875 74.21875 32.171875 74.21875 
Q 37.3125 74.21875 42.625 73.28125 
Q 47.953125 72.359375 53.515625 70.515625 
z
" id="DejaVuSans-83"/>
      <path d="M 45.40625 27.984375 
Q 45.40625 37.75 41.375 43.109375 
Q 37.359375 48.484375 30.078125 48.484375 
Q 22.859375 48.484375 18.828125 43.109375 
Q 14.796875 37.75 14.796875 27.984375 
Q 14.796875 18.265625 18.828125 12.890625 
Q 22.859375 7.515625 30.078125 7.515625 
Q 37.359375 7.515625 41.375 12.890625 
Q 45.40625 18.265625 45.40625 27.984375 
z
M 54.390625 6.78125 
Q 54.390625 -7.171875 48.1875 -13.984375 
Q 42 -20.796875 29.203125 -20.796875 
Q 24.46875 -20.796875 20.265625 -20.09375 
Q 16.0625 -19.390625 12.109375 -17.921875 
L 12.109375 -9.1875 
Q 16.0625 -11.328125 19.921875 -12.34375 
Q 23.78125 -13.375 27.78125 -13.375 
Q 36.625 -13.375 41.015625 -8.765625 
Q 45.40625 -4.15625 45.40625 5.171875 
L 45.40625 9.625 
Q 42.625 4.78125 38.28125 2.390625 
Q 33.9375 0 27.875 0 
Q 17.828125 0 11.671875 7.65625 
Q 5.515625 15.328125 5.515625 27.984375 
Q 5.515625 40.671875 11.671875 48.328125 
Q 17.828125 56 27.875 56 
Q 33.9375 56 38.28125 53.609375 
Q 42.625 51.21875 45.40625 46.390625 
L 45.40625 54.6875 
L 54.390625 54.6875 
z
" id="DejaVuSans-103"/>
      <path d="M 31 75.875 
Q 24.46875 64.65625 21.28125 53.65625 
Q 18.109375 42.671875 18.109375 31.390625 
Q 18.109375 20.125 21.3125 9.0625 
Q 24.515625 -2 31 -13.1875 
L 23.1875 -13.1875 
Q 15.875 -1.703125 12.234375 9.375 
Q 8.59375 20.453125 8.59375 31.390625 
Q 8.59375 42.28125 12.203125 53.3125 
Q 15.828125 64.359375 23.1875 75.875 
z
" id="DejaVuSans-40"/>
      <path d="M 8.015625 75.875 
L 15.828125 75.875 
Q 23.140625 64.359375 26.78125 53.3125 
Q 30.421875 42.28125 30.421875 31.390625 
Q 30.421875 20.453125 26.78125 9.375 
Q 23.140625 -1.703125 15.828125 -13.1875 
L 8.015625 -13.1875 
Q 14.5 -2 17.703125 9.0625 
Q 20.90625 20.125 20.90625 31.390625 
Q 20.90625 42.671875 17.703125 53.65625 
Q 14.5 64.65625 8.015625 75.875 
z
" id="DejaVuSans-41"/>
     </defs>
     <use xlink:href="#DejaVuSans-78"/>
     <use x="74.804688" xlink:href="#DejaVuSans-101"/>
     <use x="136.328125" xlink:href="#DejaVuSans-119"/>
     <use x="218.115234" xlink:href="#DejaVuSans-32"/>
     <use x="249.902344" xlink:href="#DejaVuSans-97"/>
     <use x="311.181641" xlink:href="#DejaVuSans-100"/>
     <use x="374.658203" xlink:href="#DejaVuSans-109"/>
     <use x="472.070312" xlink:href="#DejaVuSans-105"/>
     <use x="499.853516" xlink:href="#DejaVuSans-115"/>
     <use x="551.953125" xlink:href="#DejaVuSans-115"/>
     <use x="604.052734" xlink:href="#DejaVuSans-105"/>
     <use x="631.835938" xlink:href="#DejaVuSans-111"/>
     <use x="693.017578" xlink:href="#DejaVuSans-110"/>
     <use x="756.396484" xlink:href="#DejaVuSans-115"/>
     <use x="808.496094" xlink:href="#DejaVuSans-32"/>
     <use x="840.283203" xlink:href="#DejaVuSans-112"/>
     <use x="903.759766" xlink:href="#DejaVuSans-101"/>
     <use x="965.283203" xlink:href="#DejaVuSans-114"/>
     <use x="1006.396484" xlink:href="#DejaVuSans-32"/>
     <use x="1038.183594" xlink:href="#DejaVuSans-109"/>
     <use x="1135.595703" xlink:href="#DejaVuSans-105"/>
     <use x="1163.378906" xlink:href="#DejaVuSans-108"/>
     <use x="1191.162109" xlink:href="#DejaVuSans-108"/>
     <use x="1218.945312" xlink:href="#DejaVuSans-105"/>
     <use x="1246.728516" xlink:href="#DejaVuSans-111"/>
     <use x="1307.910156" xlink:href="#DejaVuSans-110"/>
     <use x="1371.289062" xlink:href="#DejaVuSans-32"/>
     <use x="1403.076172" xlink:href="#DejaVuSans-112"/>
     <use x="1466.552734" xlink:href="#DejaVuSans-101"/>
     <use x="1528.076172" xlink:href="#DejaVuSans-111"/>
     <use x="1589.257812" xlink:href="#DejaVuSans-112"/>
     <use x="1652.734375" xlink:href="#DejaVuSans-108"/>
     <use x="1680.517578" xlink:href="#DejaVuSans-101"/>
     <use x="1742.041016" xlink:href="#DejaVuSans-32"/>
     <use x="1773.828125" xlink:href="#DejaVuSans-98"/>
     <use x="1837.304688" xlink:href="#DejaVuSans-121"/>
     <use x="1896.484375" xlink:href="#DejaVuSans-32"/>
     <use x="1928.271484" xlink:href="#DejaVuSans-78"/>
     <use x="2003.076172" xlink:href="#DejaVuSans-72"/>
     <use x="2078.271484" xlink:href="#DejaVuSans-83"/>
     <use x="2141.748047" xlink:href="#DejaVuSans-32"/>
     <use x="2173.535156" xlink:href="#DejaVuSans-114"/>
     <use x="2212.398438" xlink:href="#DejaVuSans-101"/>
     <use x="2273.921875" xlink:href="#DejaVuSans-103"/>
     <use x="2337.398438" xlink:href="#DejaVuSans-105"/>
     <use x="2365.181641" xlink:href="#DejaVuSans-111"/>
     <use x="2426.363281" xlink:href="#DejaVuSans-110"/>
     <use x="2489.742188" xlink:href="#DejaVuSans-32"/>
     <use x="2521.529297" xlink:href="#DejaVuSans-40"/>
     <use x="2560.542969" xlink:href="#DejaVuSans-55"/>
     <use x="2624.166016" xlink:href="#DejaVuSans-32"/>
     <use x="2655.953125" xlink:href="#DejaVuSans-100"/>
     <use x="2719.429688" xlink:href="#DejaVuSans-97"/>
     <use x="2780.708984" xlink:href="#DejaVuSans-121"/>
     <use x="2839.888672" xlink:href="#DejaVuSans-32"/>
     <use x="2871.675781" xlink:href="#DejaVuSans-114"/>
     <use x="2910.539062" xlink:href="#DejaVuSans-111"/>
     <use x="2971.720703" xlink:href="#DejaVuSans-108"/>
     <use x="2999.503906" xlink:href="#DejaVuSans-108"/>
     <use x="3027.287109" xlink:href="#DejaVuSans-105"/>
     <use x="3055.070312" xlink:href="#DejaVuSans-110"/>
     <use x="3118.449219" xlink:href="#DejaVuSans-103"/>
     <use x="3181.925781" xlink:href="#DejaVuSans-41"/>
    </g>
   </g>
   <g id="legend_1">
    <g id="patch_7">
     <path d="M 155.344531 152.225 
L 310.405469 152.225 
Q 312.405469 152.225 312.405469 150.225 
L 312.405469 33.8 
Q 312.405469 31.8 310.405469 31.8 
L 155.344531 31.8 
Q 153.344531 31.8 153.344531 33.8 
L 153.344531 150.225 
Q 153.344531 152.225 155.344531 152.225 
z
" style="fill:#ffffff;opacity:0.8;stroke:#cccccc;stroke-linejoin:miter;"/>
    </g>
    <g id="text_19">
     <!-- NHS region -->
     <g transform="translate(204.8 43.398437)scale(0.1 -0.1)">
      <use xlink:href="#DejaVuSans-78"/>
      <use x="74.804688" xlink:href="#DejaVuSans-72"/>
      <use x="150" xlink:href="#DejaVuSans-83"/>
      <use x="213.476562" xlink:href="#DejaVuSans-32"/>
      <use x="245.263672" xlink:href="#DejaVuSans-114"/>
      <use x="284.126953" xlink:href="#DejaVuSans-101"/>
      <use x="345.650391" xlink:href="#DejaVuSans-103"/>
      <use x="409.126953" xlink:href="#DejaVuSans-105"/>
      <use x="436.910156" xlink:href="#DejaVuSans-111"/>
      <use x="498.091797" xlink:href="#DejaVuSans-110"/>
     </g>
    </g>
    <g id="line2d_30">
     <path d="M 157.344531 54.576562 
L 177.344531 54.576562 
" style="fill:none;stroke:#1f77b4;stroke-linecap:square;stroke-width:1.5;"/>
    </g>
    <g id="line2d_31"/>
    <g id="text_20">
     <!-- South West -->
     <g transform="translate(185.344531 58.076562)scale(0.1 -0.1)">
      <defs>
       <path d="M 54.890625 33.015625 
L 54.890625 0 
L 45.90625 0 
L 45.90625 32.71875 
Q 45.90625 40.484375 42.875 44.328125 
Q 39.84375 48.1875 33.796875 48.1875 
Q 26.515625 48.1875 22.3125 43.546875 
Q 18.109375 38.921875 18.109375 30.90625 
L 18.109375 0 
L 9.078125 0 
L 9.078125 75.984375 
L 18.109375 75.984375 
L 18.109375 46.1875 
Q 21.34375 51.125 25.703125 53.5625 
Q 30.078125 56 35.796875 56 
Q 45.21875 56 50.046875 50.171875 
Q 54.890625 44.34375 54.890625 33.015625 
z
" id="DejaVuSans-104"/>
       <path d="M 3.328125 72.90625 
L 13.28125 72.90625 
L 28.609375 11.28125 
L 43.890625 72.90625 
L 54.984375 72.90625 
L 70.3125 11.28125 
L 85.59375 72.90625 
L 95.609375 72.90625 
L 77.296875 0 
L 64.890625 0 
L 49.515625 63.28125 
L 33.984375 0 
L 21.578125 0 
z
" id="DejaVuSans-87"/>
      </defs>
      <use xlink:href="#DejaVuSans-83"/>
      <use x="63.476562" xlink:href="#DejaVuSans-111"/>
      <use x="124.658203" xlink:href="#DejaVuSans-117"/>
      <use x="188.037109" xlink:href="#DejaVuSans-116"/>
      <use x="227.246094" xlink:href="#DejaVuSans-104"/>
      <use x="290.625" xlink:href="#DejaVuSans-32"/>
      <use x="322.412109" xlink:href="#DejaVuSans-87"/>
      <use x="415.414062" xlink:href="#DejaVuSans-101"/>
      <use x="476.9375" xlink:href="#DejaVuSans-115"/>
      <use x="529.037109" xlink:href="#DejaVuSans-116"/>
     </g>
    </g>
    <g id="line2d_32">
     <path d="M 157.344531 69.254687 
L 177.344531 69.254687 
" style="fill:none;stroke:#ff7f0e;stroke-linecap:square;stroke-width:1.5;"/>
    </g>
    <g id="line2d_33"/>
    <g id="text_21">
     <!-- East of England -->
     <g transform="translate(185.344531 72.754687)scale(0.1 -0.1)">
      <defs>
       <path d="M 9.8125 72.90625 
L 55.90625 72.90625 
L 55.90625 64.59375 
L 19.671875 64.59375 
L 19.671875 43.015625 
L 54.390625 43.015625 
L 54.390625 34.71875 
L 19.671875 34.71875 
L 19.671875 8.296875 
L 56.78125 8.296875 
L 56.78125 0 
L 9.8125 0 
z
" id="DejaVuSans-69"/>
       <path d="M 37.109375 75.984375 
L 37.109375 68.5 
L 28.515625 68.5 
Q 23.6875 68.5 21.796875 66.546875 
Q 19.921875 64.59375 19.921875 59.515625 
L 19.921875 54.6875 
L 34.71875 54.6875 
L 34.71875 47.703125 
L 19.921875 47.703125 
L 19.921875 0 
L 10.890625 0 
L 10.890625 47.703125 
L 2.296875 47.703125 
L 2.296875 54.6875 
L 10.890625 54.6875 
L 10.890625 58.5 
Q 10.890625 67.625 15.140625 71.796875 
Q 19.390625 75.984375 28.609375 75.984375 
z
" id="DejaVuSans-102"/>
      </defs>
      <use xlink:href="#DejaVuSans-69"/>
      <use x="63.183594" xlink:href="#DejaVuSans-97"/>
      <use x="124.462891" xlink:href="#DejaVuSans-115"/>
      <use x="176.5625" xlink:href="#DejaVuSans-116"/>
      <use x="215.771484" xlink:href="#DejaVuSans-32"/>
      <use x="247.558594" xlink:href="#DejaVuSans-111"/>
      <use x="308.740234" xlink:href="#DejaVuSans-102"/>
      <use x="343.945312" xlink:href="#DejaVuSans-32"/>
      <use x="375.732422" xlink:href="#DejaVuSans-69"/>
      <use x="438.916016" xlink:href="#DejaVuSans-110"/>
      <use x="502.294922" xlink:href="#DejaVuSans-103"/>
      <use x="565.771484" xlink:href="#DejaVuSans-108"/>
      <use x="593.554688" xlink:href="#DejaVuSans-97"/>
      <use x="654.833984" xlink:href="#DejaVuSans-110"/>
      <use x="718.212891" xlink:href="#DejaVuSans-100"/>
     </g>
    </g>
    <g id="line2d_34">
     <path d="M 157.344531 83.932812 
L 177.344531 83.932812 
" style="fill:none;stroke:#2ca02c;stroke-linecap:square;stroke-width:1.5;"/>
    </g>
    <g id="line2d_35"/>
    <g id="text_22">
     <!-- South East -->
     <g transform="translate(185.344531 87.432812)scale(0.1 -0.1)">
      <use xlink:href="#DejaVuSans-83"/>
      <use x="63.476562" xlink:href="#DejaVuSans-111"/>
      <use x="124.658203" xlink:href="#DejaVuSans-117"/>
      <use x="188.037109" xlink:href="#DejaVuSans-116"/>
      <use x="227.246094" xlink:href="#DejaVuSans-104"/>
      <use x="290.625" xlink:href="#DejaVuSans-32"/>
      <use x="322.412109" xlink:href="#DejaVuSans-69"/>
      <use x="385.595703" xlink:href="#DejaVuSans-97"/>
      <use x="446.875" xlink:href="#DejaVuSans-115"/>
      <use x="498.974609" xlink:href="#DejaVuSans-116"/>
     </g>
    </g>
    <g id="line2d_36">
     <path d="M 157.344531 98.610937 
L 177.344531 98.610937 
" style="fill:none;stroke:#d62728;stroke-linecap:square;stroke-width:1.5;"/>
    </g>
    <g id="line2d_37"/>
    <g id="text_23">
     <!-- Midlands -->
     <g transform="translate(185.344531 102.110937)scale(0.1 -0.1)">
      <defs>
       <path d="M 9.8125 72.90625 
L 24.515625 72.90625 
L 43.109375 23.296875 
L 61.8125 72.90625 
L 76.515625 72.90625 
L 76.515625 0 
L 66.890625 0 
L 66.890625 64.015625 
L 48.09375 14.015625 
L 38.1875 14.015625 
L 19.390625 64.015625 
L 19.390625 0 
L 9.8125 0 
z
" id="DejaVuSans-77"/>
      </defs>
      <use xlink:href="#DejaVuSans-77"/>
      <use x="86.279297" xlink:href="#DejaVuSans-105"/>
      <use x="114.0625" xlink:href="#DejaVuSans-100"/>
      <use x="177.539062" xlink:href="#DejaVuSans-108"/>
      <use x="205.322266" xlink:href="#DejaVuSans-97"/>
      <use x="266.601562" xlink:href="#DejaVuSans-110"/>
      <use x="329.980469" xlink:href="#DejaVuSans-100"/>
      <use x="393.457031" xlink:href="#DejaVuSans-115"/>
     </g>
    </g>
    <g id="line2d_38">
     <path d="M 157.344531 113.289062 
L 177.344531 113.289062 
" style="fill:none;stroke:#9467bd;stroke-linecap:square;stroke-width:1.5;"/>
    </g>
    <g id="line2d_39"/>
    <g id="text_24">
     <!-- North East and Yorkshire -->
     <g transform="translate(185.344531 116.789062)scale(0.1 -0.1)">
      <defs>
       <path d="M -0.203125 72.90625 
L 10.40625 72.90625 
L 30.609375 42.921875 
L 50.6875 72.90625 
L 61.28125 72.90625 
L 35.5 34.71875 
L 35.5 0 
L 25.59375 0 
L 25.59375 34.71875 
z
" id="DejaVuSans-89"/>
       <path d="M 9.078125 75.984375 
L 18.109375 75.984375 
L 18.109375 31.109375 
L 44.921875 54.6875 
L 56.390625 54.6875 
L 27.390625 29.109375 
L 57.625 0 
L 45.90625 0 
L 18.109375 26.703125 
L 18.109375 0 
L 9.078125 0 
z
" id="DejaVuSans-107"/>
      </defs>
      <use xlink:href="#DejaVuSans-78"/>
      <use x="74.804688" xlink:href="#DejaVuSans-111"/>
      <use x="135.986328" xlink:href="#DejaVuSans-114"/>
      <use x="177.099609" xlink:href="#DejaVuSans-116"/>
      <use x="216.308594" xlink:href="#DejaVuSans-104"/>
      <use x="279.6875" xlink:href="#DejaVuSans-32"/>
      <use x="311.474609" xlink:href="#DejaVuSans-69"/>
      <use x="374.658203" xlink:href="#DejaVuSans-97"/>
      <use x="435.9375" xlink:href="#DejaVuSans-115"/>
      <use x="488.037109" xlink:href="#DejaVuSans-116"/>
      <use x="527.246094" xlink:href="#DejaVuSans-32"/>
      <use x="559.033203" xlink:href="#DejaVuSans-97"/>
      <use x="620.3125" xlink:href="#DejaVuSans-110"/>
      <use x="683.691406" xlink:href="#DejaVuSans-100"/>
      <use x="747.167969" xlink:href="#DejaVuSans-32"/>
      <use x="778.955078" xlink:href="#DejaVuSans-89"/>
      <use x="826.789062" xlink:href="#DejaVuSans-111"/>
      <use x="887.970703" xlink:href="#DejaVuSans-114"/>
      <use x="929.083984" xlink:href="#DejaVuSans-107"/>
      <use x="986.994141" xlink:href="#DejaVuSans-115"/>
      <use x="1039.09375" xlink:href="#DejaVuSans-104"/>
      <use x="1102.472656" xlink:href="#DejaVuSans-105"/>
      <use x="1130.255859" xlink:href="#DejaVuSans-114"/>
      <use x="1169.119141" xlink:href="#DejaVuSans-101"/>
     </g>
    </g>
    <g id="line2d_40">
     <path d="M 157.344531 127.967187 
L 177.344531 127.967187 
" style="fill:none;stroke:#8c564b;stroke-linecap:square;stroke-width:1.5;"/>
    </g>
    <g id="line2d_41"/>
    <g id="text_25">
     <!-- North West -->
     <g transform="translate(185.344531 131.467187)scale(0.1 -0.1)">
      <use xlink:href="#DejaVuSans-78"/>
      <use x="74.804688" xlink:href="#DejaVuSans-111"/>
      <use x="135.986328" xlink:href="#DejaVuSans-114"/>
      <use x="177.099609" xlink:href="#DejaVuSans-116"/>
      <use x="216.308594" xlink:href="#DejaVuSans-104"/>
      <use x="279.6875" xlink:href="#DejaVuSans-32"/>
      <use x="311.474609" xlink:href="#DejaVuSans-87"/>
      <use x="404.476562" xlink:href="#DejaVuSans-101"/>
      <use x="466" xlink:href="#DejaVuSans-115"/>
      <use x="518.099609" xlink:href="#DejaVuSans-116"/>
     </g>
    </g>
    <g id="line2d_42">
     <path d="M 157.344531 142.645312 
L 177.344531 142.645312 
" style="fill:none;stroke:#e377c2;stroke-linecap:square;stroke-width:1.5;"/>
    </g>
    <g id="line2d_43"/>
    <g id="text_26">
     <!-- London -->
     <g transform="translate(185.344531 146.145312)scale(0.1 -0.1)">
      <defs>
       <path d="M 9.8125 72.90625 
L 19.671875 72.90625 
L 19.671875 8.296875 
L 55.171875 8.296875 
L 55.171875 0 
L 9.8125 0 
z
" id="DejaVuSans-76"/>
      </defs>
      <use xlink:href="#DejaVuSans-76"/>
      <use x="53.962891" xlink:href="#DejaVuSans-111"/>
      <use x="115.144531" xlink:href="#DejaVuSans-110"/>
      <use x="178.523438" xlink:href="#DejaVuSans-100"/>
      <use x="242" xlink:href="#DejaVuSans-111"/>
      <use x="303.181641" xlink:href="#DejaVuSans-110"/>
     </g>
    </g>
   </g>
  </g>
 </g>
 <defs>
  <clipPath id="p7a35fcf44d">
   <rect height="199.802246" width="376.65" x="44.55" y="26.8"/>
  </clipPath>
 </defs>
</svg>
