<?xml version="1.0" encoding="utf-8" standalone="no"?>
<!DOCTYPE svg PUBLIC "-//W3C//DTD SVG 1.1//EN"
  "http://www.w3.org/Graphics/SVG/1.1/DTD/svg11.dtd">
<!-- Created with matplotlib (https://matplotlib.org/) -->
<svg height="288pt" version="1.1" viewBox="0 0 432 288" width="432pt" xmlns="http://www.w3.org/2000/svg" xmlns:xlink="http://www.w3.org/1999/xlink">
 <metadata>
  <rdf:RDF xmlns:cc="http://creativecommons.org/ns#" xmlns:dc="http://purl.org/dc/elements/1.1/" xmlns:rdf="http://www.w3.org/1999/02/22-rdf-syntax-ns#">
   <cc:Work>
    <dc:type rdf:resource="http://purl.org/dc/dcmitype/StillImage"/>
    <dc:date>2020-11-09T21:26:41.740192</dc:date>
    <dc:format>image/svg+xml</dc:format>
    <dc:creator>
     <cc:Agent>
      <dc:title>Matplotlib v3.3.2, https://matplotlib.org/</dc:title>
     </cc:Agent>
    </dc:creator>
   </cc:Work>
  </rdf:RDF>
 </metadata>
 <defs>
  <style type="text/css">*{stroke-linecap:butt;stroke-linejoin:round;}</style>
 </defs>
 <g id="figure_1">
  <g id="patch_1">
   <path d="M 0 288 
L 432 288 
L 432 0 
L 0 0 
z
" style="fill:none;"/>
  </g>
  <g id="axes_1">
   <g id="patch_2">
    <path d="M 44.55 226.602246 
L 421.2 226.602246 
L 421.2 26.8 
L 44.55 26.8 
z
" style="fill:#ffffff;"/>
   </g>
   <g id="matplotlib.axis_1">
    <g id="xtick_1">
     <g id="line2d_1">
      <defs>
       <path d="M 0 0 
L 0 3.5 
" id="m494fae6989" style="stroke:#000000;stroke-width:0.8;"/>
      </defs>
      <g>
       <use style="stroke:#000000;stroke-width:0.8;" x="80.774824" xlink:href="#m494fae6989" y="226.602246"/>
      </g>
     </g>
     <g id="text_1">
      <!-- 2020-04 -->
      <g transform="translate(43.550004 261.074092)rotate(-30)scale(0.1 -0.1)">
       <defs>
        <path d="M 19.1875 8.296875 
L 53.609375 8.296875 
L 53.609375 0 
L 7.328125 0 
L 7.328125 8.296875 
Q 12.9375 14.109375 22.625 23.890625 
Q 32.328125 33.6875 34.8125 36.53125 
Q 39.546875 41.84375 41.421875 45.53125 
Q 43.3125 49.21875 43.3125 52.78125 
Q 43.3125 58.59375 39.234375 62.25 
Q 35.15625 65.921875 28.609375 65.921875 
Q 23.96875 65.921875 18.8125 64.3125 
Q 13.671875 62.703125 7.8125 59.421875 
L 7.8125 69.390625 
Q 13.765625 71.78125 18.9375 73 
Q 24.125 74.21875 28.421875 74.21875 
Q 39.75 74.21875 46.484375 68.546875 
Q 53.21875 62.890625 53.21875 53.421875 
Q 53.21875 48.921875 51.53125 44.890625 
Q 49.859375 40.875 45.40625 35.40625 
Q 44.1875 33.984375 37.640625 27.21875 
Q 31.109375 20.453125 19.1875 8.296875 
z
" id="DejaVuSans-50"/>
        <path d="M 31.78125 66.40625 
Q 24.171875 66.40625 20.328125 58.90625 
Q 16.5 51.421875 16.5 36.375 
Q 16.5 21.390625 20.328125 13.890625 
Q 24.171875 6.390625 31.78125 6.390625 
Q 39.453125 6.390625 43.28125 13.890625 
Q 47.125 21.390625 47.125 36.375 
Q 47.125 51.421875 43.28125 58.90625 
Q 39.453125 66.40625 31.78125 66.40625 
z
M 31.78125 74.21875 
Q 44.046875 74.21875 50.515625 64.515625 
Q 56.984375 54.828125 56.984375 36.375 
Q 56.984375 17.96875 50.515625 8.265625 
Q 44.046875 -1.421875 31.78125 -1.421875 
Q 19.53125 -1.421875 13.0625 8.265625 
Q 6.59375 17.96875 6.59375 36.375 
Q 6.59375 54.828125 13.0625 64.515625 
Q 19.53125 74.21875 31.78125 74.21875 
z
" id="DejaVuSans-48"/>
        <path d="M 4.890625 31.390625 
L 31.203125 31.390625 
L 31.203125 23.390625 
L 4.890625 23.390625 
z
" id="DejaVuSans-45"/>
        <path d="M 37.796875 64.3125 
L 12.890625 25.390625 
L 37.796875 25.390625 
z
M 35.203125 72.90625 
L 47.609375 72.90625 
L 47.609375 25.390625 
L 58.015625 25.390625 
L 58.015625 17.1875 
L 47.609375 17.1875 
L 47.609375 0 
L 37.796875 0 
L 37.796875 17.1875 
L 4.890625 17.1875 
L 4.890625 26.703125 
z
" id="DejaVuSans-52"/>
       </defs>
       <use xlink:href="#DejaVuSans-50"/>
       <use x="63.623047" xlink:href="#DejaVuSans-48"/>
       <use x="127.246094" xlink:href="#DejaVuSans-50"/>
       <use x="190.869141" xlink:href="#DejaVuSans-48"/>
       <use x="254.492188" xlink:href="#DejaVuSans-45"/>
       <use x="290.576172" xlink:href="#DejaVuSans-48"/>
       <use x="354.199219" xlink:href="#DejaVuSans-52"/>
      </g>
     </g>
    </g>
    <g id="xtick_2">
     <g id="line2d_2">
      <g>
       <use style="stroke:#000000;stroke-width:0.8;" x="124.861832" xlink:href="#m494fae6989" y="226.602246"/>
      </g>
     </g>
     <g id="text_2">
      <!-- 2020-05 -->
      <g transform="translate(87.637011 261.074092)rotate(-30)scale(0.1 -0.1)">
       <defs>
        <path d="M 10.796875 72.90625 
L 49.515625 72.90625 
L 49.515625 64.59375 
L 19.828125 64.59375 
L 19.828125 46.734375 
Q 21.96875 47.46875 24.109375 47.828125 
Q 26.265625 48.1875 28.421875 48.1875 
Q 40.625 48.1875 47.75 41.5 
Q 54.890625 34.8125 54.890625 23.390625 
Q 54.890625 11.625 47.5625 5.09375 
Q 40.234375 -1.421875 26.90625 -1.421875 
Q 22.3125 -1.421875 17.546875 -0.640625 
Q 12.796875 0.140625 7.71875 1.703125 
L 7.71875 11.625 
Q 12.109375 9.234375 16.796875 8.0625 
Q 21.484375 6.890625 26.703125 6.890625 
Q 35.15625 6.890625 40.078125 11.328125 
Q 45.015625 15.765625 45.015625 23.390625 
Q 45.015625 31 40.078125 35.4375 
Q 35.15625 39.890625 26.703125 39.890625 
Q 22.75 39.890625 18.8125 39.015625 
Q 14.890625 38.140625 10.796875 36.28125 
z
" id="DejaVuSans-53"/>
       </defs>
       <use xlink:href="#DejaVuSans-50"/>
       <use x="63.623047" xlink:href="#DejaVuSans-48"/>
       <use x="127.246094" xlink:href="#DejaVuSans-50"/>
       <use x="190.869141" xlink:href="#DejaVuSans-48"/>
       <use x="254.492188" xlink:href="#DejaVuSans-45"/>
       <use x="290.576172" xlink:href="#DejaVuSans-48"/>
       <use x="354.199219" xlink:href="#DejaVuSans-53"/>
      </g>
     </g>
    </g>
    <g id="xtick_3">
     <g id="line2d_3">
      <g>
       <use style="stroke:#000000;stroke-width:0.8;" x="170.418406" xlink:href="#m494fae6989" y="226.602246"/>
      </g>
     </g>
     <g id="text_3">
      <!-- 2020-06 -->
      <g transform="translate(133.193585 261.074092)rotate(-30)scale(0.1 -0.1)">
       <defs>
        <path d="M 33.015625 40.375 
Q 26.375 40.375 22.484375 35.828125 
Q 18.609375 31.296875 18.609375 23.390625 
Q 18.609375 15.53125 22.484375 10.953125 
Q 26.375 6.390625 33.015625 6.390625 
Q 39.65625 6.390625 43.53125 10.953125 
Q 47.40625 15.53125 47.40625 23.390625 
Q 47.40625 31.296875 43.53125 35.828125 
Q 39.65625 40.375 33.015625 40.375 
z
M 52.59375 71.296875 
L 52.59375 62.3125 
Q 48.875 64.0625 45.09375 64.984375 
Q 41.3125 65.921875 37.59375 65.921875 
Q 27.828125 65.921875 22.671875 59.328125 
Q 17.53125 52.734375 16.796875 39.40625 
Q 19.671875 43.65625 24.015625 45.921875 
Q 28.375 48.1875 33.59375 48.1875 
Q 44.578125 48.1875 50.953125 41.515625 
Q 57.328125 34.859375 57.328125 23.390625 
Q 57.328125 12.15625 50.6875 5.359375 
Q 44.046875 -1.421875 33.015625 -1.421875 
Q 20.359375 -1.421875 13.671875 8.265625 
Q 6.984375 17.96875 6.984375 36.375 
Q 6.984375 53.65625 15.1875 63.9375 
Q 23.390625 74.21875 37.203125 74.21875 
Q 40.921875 74.21875 44.703125 73.484375 
Q 48.484375 72.75 52.59375 71.296875 
z
" id="DejaVuSans-54"/>
       </defs>
       <use xlink:href="#DejaVuSans-50"/>
       <use x="63.623047" xlink:href="#DejaVuSans-48"/>
       <use x="127.246094" xlink:href="#DejaVuSans-50"/>
       <use x="190.869141" xlink:href="#DejaVuSans-48"/>
       <use x="254.492188" xlink:href="#DejaVuSans-45"/>
       <use x="290.576172" xlink:href="#DejaVuSans-48"/>
       <use x="354.199219" xlink:href="#DejaVuSans-54"/>
      </g>
     </g>
    </g>
    <g id="xtick_4">
     <g id="line2d_4">
      <g>
       <use style="stroke:#000000;stroke-width:0.8;" x="214.505414" xlink:href="#m494fae6989" y="226.602246"/>
      </g>
     </g>
     <g id="text_4">
      <!-- 2020-07 -->
      <g transform="translate(177.280593 261.074092)rotate(-30)scale(0.1 -0.1)">
       <defs>
        <path d="M 8.203125 72.90625 
L 55.078125 72.90625 
L 55.078125 68.703125 
L 28.609375 0 
L 18.3125 0 
L 43.21875 64.59375 
L 8.203125 64.59375 
z
" id="DejaVuSans-55"/>
       </defs>
       <use xlink:href="#DejaVuSans-50"/>
       <use x="63.623047" xlink:href="#DejaVuSans-48"/>
       <use x="127.246094" xlink:href="#DejaVuSans-50"/>
       <use x="190.869141" xlink:href="#DejaVuSans-48"/>
       <use x="254.492188" xlink:href="#DejaVuSans-45"/>
       <use x="290.576172" xlink:href="#DejaVuSans-48"/>
       <use x="354.199219" xlink:href="#DejaVuSans-55"/>
      </g>
     </g>
    </g>
    <g id="xtick_5">
     <g id="line2d_5">
      <g>
       <use style="stroke:#000000;stroke-width:0.8;" x="260.061988" xlink:href="#m494fae6989" y="226.602246"/>
      </g>
     </g>
     <g id="text_5">
      <!-- 2020-08 -->
      <g transform="translate(222.837167 261.074092)rotate(-30)scale(0.1 -0.1)">
       <defs>
        <path d="M 31.78125 34.625 
Q 24.75 34.625 20.71875 30.859375 
Q 16.703125 27.09375 16.703125 20.515625 
Q 16.703125 13.921875 20.71875 10.15625 
Q 24.75 6.390625 31.78125 6.390625 
Q 38.8125 6.390625 42.859375 10.171875 
Q 46.921875 13.96875 46.921875 20.515625 
Q 46.921875 27.09375 42.890625 30.859375 
Q 38.875 34.625 31.78125 34.625 
z
M 21.921875 38.8125 
Q 15.578125 40.375 12.03125 44.71875 
Q 8.5 49.078125 8.5 55.328125 
Q 8.5 64.0625 14.71875 69.140625 
Q 20.953125 74.21875 31.78125 74.21875 
Q 42.671875 74.21875 48.875 69.140625 
Q 55.078125 64.0625 55.078125 55.328125 
Q 55.078125 49.078125 51.53125 44.71875 
Q 48 40.375 41.703125 38.8125 
Q 48.828125 37.15625 52.796875 32.3125 
Q 56.78125 27.484375 56.78125 20.515625 
Q 56.78125 9.90625 50.3125 4.234375 
Q 43.84375 -1.421875 31.78125 -1.421875 
Q 19.734375 -1.421875 13.25 4.234375 
Q 6.78125 9.90625 6.78125 20.515625 
Q 6.78125 27.484375 10.78125 32.3125 
Q 14.796875 37.15625 21.921875 38.8125 
z
M 18.3125 54.390625 
Q 18.3125 48.734375 21.84375 45.5625 
Q 25.390625 42.390625 31.78125 42.390625 
Q 38.140625 42.390625 41.71875 45.5625 
Q 45.3125 48.734375 45.3125 54.390625 
Q 45.3125 60.0625 41.71875 63.234375 
Q 38.140625 66.40625 31.78125 66.40625 
Q 25.390625 66.40625 21.84375 63.234375 
Q 18.3125 60.0625 18.3125 54.390625 
z
" id="DejaVuSans-56"/>
       </defs>
       <use xlink:href="#DejaVuSans-50"/>
       <use x="63.623047" xlink:href="#DejaVuSans-48"/>
       <use x="127.246094" xlink:href="#DejaVuSans-50"/>
       <use x="190.869141" xlink:href="#DejaVuSans-48"/>
       <use x="254.492188" xlink:href="#DejaVuSans-45"/>
       <use x="290.576172" xlink:href="#DejaVuSans-48"/>
       <use x="354.199219" xlink:href="#DejaVuSans-56"/>
      </g>
     </g>
    </g>
    <g id="xtick_6">
     <g id="line2d_6">
      <g>
       <use style="stroke:#000000;stroke-width:0.8;" x="305.618562" xlink:href="#m494fae6989" y="226.602246"/>
      </g>
     </g>
     <g id="text_6">
      <!-- 2020-09 -->
      <g transform="translate(268.393741 261.074092)rotate(-30)scale(0.1 -0.1)">
       <defs>
        <path d="M 10.984375 1.515625 
L 10.984375 10.5 
Q 14.703125 8.734375 18.5 7.8125 
Q 22.3125 6.890625 25.984375 6.890625 
Q 35.75 6.890625 40.890625 13.453125 
Q 46.046875 20.015625 46.78125 33.40625 
Q 43.953125 29.203125 39.59375 26.953125 
Q 35.25 24.703125 29.984375 24.703125 
Q 19.046875 24.703125 12.671875 31.3125 
Q 6.296875 37.9375 6.296875 49.421875 
Q 6.296875 60.640625 12.9375 67.421875 
Q 19.578125 74.21875 30.609375 74.21875 
Q 43.265625 74.21875 49.921875 64.515625 
Q 56.59375 54.828125 56.59375 36.375 
Q 56.59375 19.140625 48.40625 8.859375 
Q 40.234375 -1.421875 26.421875 -1.421875 
Q 22.703125 -1.421875 18.890625 -0.6875 
Q 15.09375 0.046875 10.984375 1.515625 
z
M 30.609375 32.421875 
Q 37.25 32.421875 41.125 36.953125 
Q 45.015625 41.5 45.015625 49.421875 
Q 45.015625 57.28125 41.125 61.84375 
Q 37.25 66.40625 30.609375 66.40625 
Q 23.96875 66.40625 20.09375 61.84375 
Q 16.21875 57.28125 16.21875 49.421875 
Q 16.21875 41.5 20.09375 36.953125 
Q 23.96875 32.421875 30.609375 32.421875 
z
" id="DejaVuSans-57"/>
       </defs>
       <use xlink:href="#DejaVuSans-50"/>
       <use x="63.623047" xlink:href="#DejaVuSans-48"/>
       <use x="127.246094" xlink:href="#DejaVuSans-50"/>
       <use x="190.869141" xlink:href="#DejaVuSans-48"/>
       <use x="254.492188" xlink:href="#DejaVuSans-45"/>
       <use x="290.576172" xlink:href="#DejaVuSans-48"/>
       <use x="354.199219" xlink:href="#DejaVuSans-57"/>
      </g>
     </g>
    </g>
    <g id="xtick_7">
     <g id="line2d_7">
      <g>
       <use style="stroke:#000000;stroke-width:0.8;" x="349.70557" xlink:href="#m494fae6989" y="226.602246"/>
      </g>
     </g>
     <g id="text_7">
      <!-- 2020-10 -->
      <g transform="translate(312.480749 261.074092)rotate(-30)scale(0.1 -0.1)">
       <defs>
        <path d="M 12.40625 8.296875 
L 28.515625 8.296875 
L 28.515625 63.921875 
L 10.984375 60.40625 
L 10.984375 69.390625 
L 28.421875 72.90625 
L 38.28125 72.90625 
L 38.28125 8.296875 
L 54.390625 8.296875 
L 54.390625 0 
L 12.40625 0 
z
" id="DejaVuSans-49"/>
       </defs>
       <use xlink:href="#DejaVuSans-50"/>
       <use x="63.623047" xlink:href="#DejaVuSans-48"/>
       <use x="127.246094" xlink:href="#DejaVuSans-50"/>
       <use x="190.869141" xlink:href="#DejaVuSans-48"/>
       <use x="254.492188" xlink:href="#DejaVuSans-45"/>
       <use x="290.576172" xlink:href="#DejaVuSans-49"/>
       <use x="354.199219" xlink:href="#DejaVuSans-48"/>
      </g>
     </g>
    </g>
    <g id="xtick_8">
     <g id="line2d_8">
      <g>
       <use style="stroke:#000000;stroke-width:0.8;" x="395.262144" xlink:href="#m494fae6989" y="226.602246"/>
      </g>
     </g>
     <g id="text_8">
      <!-- 2020-11 -->
      <g transform="translate(358.037323 261.074092)rotate(-30)scale(0.1 -0.1)">
       <use xlink:href="#DejaVuSans-50"/>
       <use x="63.623047" xlink:href="#DejaVuSans-48"/>
       <use x="127.246094" xlink:href="#DejaVuSans-50"/>
       <use x="190.869141" xlink:href="#DejaVuSans-48"/>
       <use x="254.492188" xlink:href="#DejaVuSans-45"/>
       <use x="290.576172" xlink:href="#DejaVuSans-49"/>
       <use x="354.199219" xlink:href="#DejaVuSans-49"/>
      </g>
     </g>
    </g>
    <g id="text_9">
     <!-- Date -->
     <g transform="translate(220.924219 274.473592)scale(0.1 -0.1)">
      <defs>
       <path d="M 19.671875 64.796875 
L 19.671875 8.109375 
L 31.59375 8.109375 
Q 46.6875 8.109375 53.6875 14.9375 
Q 60.6875 21.78125 60.6875 36.53125 
Q 60.6875 51.171875 53.6875 57.984375 
Q 46.6875 64.796875 31.59375 64.796875 
z
M 9.8125 72.90625 
L 30.078125 72.90625 
Q 51.265625 72.90625 61.171875 64.09375 
Q 71.09375 55.28125 71.09375 36.53125 
Q 71.09375 17.671875 61.125 8.828125 
Q 51.171875 0 30.078125 0 
L 9.8125 0 
z
" id="DejaVuSans-68"/>
       <path d="M 34.28125 27.484375 
Q 23.390625 27.484375 19.1875 25 
Q 14.984375 22.515625 14.984375 16.5 
Q 14.984375 11.71875 18.140625 8.90625 
Q 21.296875 6.109375 26.703125 6.109375 
Q 34.1875 6.109375 38.703125 11.40625 
Q 43.21875 16.703125 43.21875 25.484375 
L 43.21875 27.484375 
z
M 52.203125 31.203125 
L 52.203125 0 
L 43.21875 0 
L 43.21875 8.296875 
Q 40.140625 3.328125 35.546875 0.953125 
Q 30.953125 -1.421875 24.3125 -1.421875 
Q 15.921875 -1.421875 10.953125 3.296875 
Q 6 8.015625 6 15.921875 
Q 6 25.140625 12.171875 29.828125 
Q 18.359375 34.515625 30.609375 34.515625 
L 43.21875 34.515625 
L 43.21875 35.40625 
Q 43.21875 41.609375 39.140625 45 
Q 35.0625 48.390625 27.6875 48.390625 
Q 23 48.390625 18.546875 47.265625 
Q 14.109375 46.140625 10.015625 43.890625 
L 10.015625 52.203125 
Q 14.9375 54.109375 19.578125 55.046875 
Q 24.21875 56 28.609375 56 
Q 40.484375 56 46.34375 49.84375 
Q 52.203125 43.703125 52.203125 31.203125 
z
" id="DejaVuSans-97"/>
       <path d="M 18.3125 70.21875 
L 18.3125 54.6875 
L 36.8125 54.6875 
L 36.8125 47.703125 
L 18.3125 47.703125 
L 18.3125 18.015625 
Q 18.3125 11.328125 20.140625 9.421875 
Q 21.96875 7.515625 27.59375 7.515625 
L 36.8125 7.515625 
L 36.8125 0 
L 27.59375 0 
Q 17.1875 0 13.234375 3.875 
Q 9.28125 7.765625 9.28125 18.015625 
L 9.28125 47.703125 
L 2.6875 47.703125 
L 2.6875 54.6875 
L 9.28125 54.6875 
L 9.28125 70.21875 
z
" id="DejaVuSans-116"/>
       <path d="M 56.203125 29.59375 
L 56.203125 25.203125 
L 14.890625 25.203125 
Q 15.484375 15.921875 20.484375 11.0625 
Q 25.484375 6.203125 34.421875 6.203125 
Q 39.59375 6.203125 44.453125 7.46875 
Q 49.3125 8.734375 54.109375 11.28125 
L 54.109375 2.78125 
Q 49.265625 0.734375 44.1875 -0.34375 
Q 39.109375 -1.421875 33.890625 -1.421875 
Q 20.796875 -1.421875 13.15625 6.1875 
Q 5.515625 13.8125 5.515625 26.8125 
Q 5.515625 40.234375 12.765625 48.109375 
Q 20.015625 56 32.328125 56 
Q 43.359375 56 49.78125 48.890625 
Q 56.203125 41.796875 56.203125 29.59375 
z
M 47.21875 32.234375 
Q 47.125 39.59375 43.09375 43.984375 
Q 39.0625 48.390625 32.421875 48.390625 
Q 24.90625 48.390625 20.390625 44.140625 
Q 15.875 39.890625 15.1875 32.171875 
z
" id="DejaVuSans-101"/>
      </defs>
      <use xlink:href="#DejaVuSans-68"/>
      <use x="77.001953" xlink:href="#DejaVuSans-97"/>
      <use x="138.28125" xlink:href="#DejaVuSans-116"/>
      <use x="177.490234" xlink:href="#DejaVuSans-101"/>
     </g>
    </g>
   </g>
   <g id="matplotlib.axis_2">
    <g id="ytick_1">
     <g id="line2d_9">
      <defs>
       <path d="M 0 0 
L -3.5 0 
" id="mf9f24c3a2f" style="stroke:#000000;stroke-width:0.8;"/>
      </defs>
      <g>
       <use style="stroke:#000000;stroke-width:0.8;" x="44.55" xlink:href="#mf9f24c3a2f" y="218.018007"/>
      </g>
     </g>
     <g id="text_10">
      <!-- 0 -->
      <g transform="translate(31.1875 221.817226)scale(0.1 -0.1)">
       <use xlink:href="#DejaVuSans-48"/>
      </g>
     </g>
    </g>
    <g id="ytick_2">
     <g id="line2d_10">
      <g>
       <use style="stroke:#000000;stroke-width:0.8;" x="44.55" xlink:href="#mf9f24c3a2f" y="174.423535"/>
      </g>
     </g>
     <g id="text_11">
      <!-- 20 -->
      <g transform="translate(24.825 178.222753)scale(0.1 -0.1)">
       <use xlink:href="#DejaVuSans-50"/>
       <use x="63.623047" xlink:href="#DejaVuSans-48"/>
      </g>
     </g>
    </g>
    <g id="ytick_3">
     <g id="line2d_11">
      <g>
       <use style="stroke:#000000;stroke-width:0.8;" x="44.55" xlink:href="#mf9f24c3a2f" y="130.829062"/>
      </g>
     </g>
     <g id="text_12">
      <!-- 40 -->
      <g transform="translate(24.825 134.628281)scale(0.1 -0.1)">
       <use xlink:href="#DejaVuSans-52"/>
       <use x="63.623047" xlink:href="#DejaVuSans-48"/>
      </g>
     </g>
    </g>
    <g id="ytick_4">
     <g id="line2d_12">
      <g>
       <use style="stroke:#000000;stroke-width:0.8;" x="44.55" xlink:href="#mf9f24c3a2f" y="87.23459"/>
      </g>
     </g>
     <g id="text_13">
      <!-- 60 -->
      <g transform="translate(24.825 91.033808)scale(0.1 -0.1)">
       <use xlink:href="#DejaVuSans-54"/>
       <use x="63.623047" xlink:href="#DejaVuSans-48"/>
      </g>
     </g>
    </g>
    <g id="ytick_5">
     <g id="line2d_13">
      <g>
       <use style="stroke:#000000;stroke-width:0.8;" x="44.55" xlink:href="#mf9f24c3a2f" y="43.640117"/>
      </g>
     </g>
     <g id="text_14">
      <!-- 80 -->
      <g transform="translate(24.825 47.439336)scale(0.1 -0.1)">
       <use xlink:href="#DejaVuSans-56"/>
       <use x="63.623047" xlink:href="#DejaVuSans-48"/>
      </g>
     </g>
    </g>
    <g id="text_15">
     <!-- New admissions per million population -->
     <g transform="translate(18.745313 223.460498)rotate(-90)scale(0.1 -0.1)">
      <defs>
       <path d="M 9.8125 72.90625 
L 23.09375 72.90625 
L 55.421875 11.921875 
L 55.421875 72.90625 
L 64.984375 72.90625 
L 64.984375 0 
L 51.703125 0 
L 19.390625 60.984375 
L 19.390625 0 
L 9.8125 0 
z
" id="DejaVuSans-78"/>
       <path d="M 4.203125 54.6875 
L 13.1875 54.6875 
L 24.421875 12.015625 
L 35.59375 54.6875 
L 46.1875 54.6875 
L 57.421875 12.015625 
L 68.609375 54.6875 
L 77.59375 54.6875 
L 63.28125 0 
L 52.6875 0 
L 40.921875 44.828125 
L 29.109375 0 
L 18.5 0 
z
" id="DejaVuSans-119"/>
       <path id="DejaVuSans-32"/>
       <path d="M 45.40625 46.390625 
L 45.40625 75.984375 
L 54.390625 75.984375 
L 54.390625 0 
L 45.40625 0 
L 45.40625 8.203125 
Q 42.578125 3.328125 38.25 0.953125 
Q 33.9375 -1.421875 27.875 -1.421875 
Q 17.96875 -1.421875 11.734375 6.484375 
Q 5.515625 14.40625 5.515625 27.296875 
Q 5.515625 40.1875 11.734375 48.09375 
Q 17.96875 56 27.875 56 
Q 33.9375 56 38.25 53.625 
Q 42.578125 51.265625 45.40625 46.390625 
z
M 14.796875 27.296875 
Q 14.796875 17.390625 18.875 11.75 
Q 22.953125 6.109375 30.078125 6.109375 
Q 37.203125 6.109375 41.296875 11.75 
Q 45.40625 17.390625 45.40625 27.296875 
Q 45.40625 37.203125 41.296875 42.84375 
Q 37.203125 48.484375 30.078125 48.484375 
Q 22.953125 48.484375 18.875 42.84375 
Q 14.796875 37.203125 14.796875 27.296875 
z
" id="DejaVuSans-100"/>
       <path d="M 52 44.1875 
Q 55.375 50.25 60.0625 53.125 
Q 64.75 56 71.09375 56 
Q 79.640625 56 84.28125 50.015625 
Q 88.921875 44.046875 88.921875 33.015625 
L 88.921875 0 
L 79.890625 0 
L 79.890625 32.71875 
Q 79.890625 40.578125 77.09375 44.375 
Q 74.3125 48.1875 68.609375 48.1875 
Q 61.625 48.1875 57.5625 43.546875 
Q 53.515625 38.921875 53.515625 30.90625 
L 53.515625 0 
L 44.484375 0 
L 44.484375 32.71875 
Q 44.484375 40.625 41.703125 44.40625 
Q 38.921875 48.1875 33.109375 48.1875 
Q 26.21875 48.1875 22.15625 43.53125 
Q 18.109375 38.875 18.109375 30.90625 
L 18.109375 0 
L 9.078125 0 
L 9.078125 54.6875 
L 18.109375 54.6875 
L 18.109375 46.1875 
Q 21.1875 51.21875 25.484375 53.609375 
Q 29.78125 56 35.6875 56 
Q 41.65625 56 45.828125 52.96875 
Q 50 49.953125 52 44.1875 
z
" id="DejaVuSans-109"/>
       <path d="M 9.421875 54.6875 
L 18.40625 54.6875 
L 18.40625 0 
L 9.421875 0 
z
M 9.421875 75.984375 
L 18.40625 75.984375 
L 18.40625 64.59375 
L 9.421875 64.59375 
z
" id="DejaVuSans-105"/>
       <path d="M 44.28125 53.078125 
L 44.28125 44.578125 
Q 40.484375 46.53125 36.375 47.5 
Q 32.28125 48.484375 27.875 48.484375 
Q 21.1875 48.484375 17.84375 46.4375 
Q 14.5 44.390625 14.5 40.28125 
Q 14.5 37.15625 16.890625 35.375 
Q 19.28125 33.59375 26.515625 31.984375 
L 29.59375 31.296875 
Q 39.15625 29.25 43.1875 25.515625 
Q 47.21875 21.78125 47.21875 15.09375 
Q 47.21875 7.46875 41.1875 3.015625 
Q 35.15625 -1.421875 24.609375 -1.421875 
Q 20.21875 -1.421875 15.453125 -0.5625 
Q 10.6875 0.296875 5.421875 2 
L 5.421875 11.28125 
Q 10.40625 8.6875 15.234375 7.390625 
Q 20.0625 6.109375 24.8125 6.109375 
Q 31.15625 6.109375 34.5625 8.28125 
Q 37.984375 10.453125 37.984375 14.40625 
Q 37.984375 18.0625 35.515625 20.015625 
Q 33.0625 21.96875 24.703125 23.78125 
L 21.578125 24.515625 
Q 13.234375 26.265625 9.515625 29.90625 
Q 5.8125 33.546875 5.8125 39.890625 
Q 5.8125 47.609375 11.28125 51.796875 
Q 16.75 56 26.8125 56 
Q 31.78125 56 36.171875 55.265625 
Q 40.578125 54.546875 44.28125 53.078125 
z
" id="DejaVuSans-115"/>
       <path d="M 30.609375 48.390625 
Q 23.390625 48.390625 19.1875 42.75 
Q 14.984375 37.109375 14.984375 27.296875 
Q 14.984375 17.484375 19.15625 11.84375 
Q 23.34375 6.203125 30.609375 6.203125 
Q 37.796875 6.203125 41.984375 11.859375 
Q 46.1875 17.53125 46.1875 27.296875 
Q 46.1875 37.015625 41.984375 42.703125 
Q 37.796875 48.390625 30.609375 48.390625 
z
M 30.609375 56 
Q 42.328125 56 49.015625 48.375 
Q 55.71875 40.765625 55.71875 27.296875 
Q 55.71875 13.875 49.015625 6.21875 
Q 42.328125 -1.421875 30.609375 -1.421875 
Q 18.84375 -1.421875 12.171875 6.21875 
Q 5.515625 13.875 5.515625 27.296875 
Q 5.515625 40.765625 12.171875 48.375 
Q 18.84375 56 30.609375 56 
z
" id="DejaVuSans-111"/>
       <path d="M 54.890625 33.015625 
L 54.890625 0 
L 45.90625 0 
L 45.90625 32.71875 
Q 45.90625 40.484375 42.875 44.328125 
Q 39.84375 48.1875 33.796875 48.1875 
Q 26.515625 48.1875 22.3125 43.546875 
Q 18.109375 38.921875 18.109375 30.90625 
L 18.109375 0 
L 9.078125 0 
L 9.078125 54.6875 
L 18.109375 54.6875 
L 18.109375 46.1875 
Q 21.34375 51.125 25.703125 53.5625 
Q 30.078125 56 35.796875 56 
Q 45.21875 56 50.046875 50.171875 
Q 54.890625 44.34375 54.890625 33.015625 
z
" id="DejaVuSans-110"/>
       <path d="M 18.109375 8.203125 
L 18.109375 -20.796875 
L 9.078125 -20.796875 
L 9.078125 54.6875 
L 18.109375 54.6875 
L 18.109375 46.390625 
Q 20.953125 51.265625 25.265625 53.625 
Q 29.59375 56 35.59375 56 
Q 45.5625 56 51.78125 48.09375 
Q 58.015625 40.1875 58.015625 27.296875 
Q 58.015625 14.40625 51.78125 6.484375 
Q 45.5625 -1.421875 35.59375 -1.421875 
Q 29.59375 -1.421875 25.265625 0.953125 
Q 20.953125 3.328125 18.109375 8.203125 
z
M 48.6875 27.296875 
Q 48.6875 37.203125 44.609375 42.84375 
Q 40.53125 48.484375 33.40625 48.484375 
Q 26.265625 48.484375 22.1875 42.84375 
Q 18.109375 37.203125 18.109375 27.296875 
Q 18.109375 17.390625 22.1875 11.75 
Q 26.265625 6.109375 33.40625 6.109375 
Q 40.53125 6.109375 44.609375 11.75 
Q 48.6875 17.390625 48.6875 27.296875 
z
" id="DejaVuSans-112"/>
       <path d="M 41.109375 46.296875 
Q 39.59375 47.171875 37.8125 47.578125 
Q 36.03125 48 33.890625 48 
Q 26.265625 48 22.1875 43.046875 
Q 18.109375 38.09375 18.109375 28.8125 
L 18.109375 0 
L 9.078125 0 
L 9.078125 54.6875 
L 18.109375 54.6875 
L 18.109375 46.1875 
Q 20.953125 51.171875 25.484375 53.578125 
Q 30.03125 56 36.53125 56 
Q 37.453125 56 38.578125 55.875 
Q 39.703125 55.765625 41.0625 55.515625 
z
" id="DejaVuSans-114"/>
       <path d="M 9.421875 75.984375 
L 18.40625 75.984375 
L 18.40625 0 
L 9.421875 0 
z
" id="DejaVuSans-108"/>
       <path d="M 8.5 21.578125 
L 8.5 54.6875 
L 17.484375 54.6875 
L 17.484375 21.921875 
Q 17.484375 14.15625 20.5 10.265625 
Q 23.53125 6.390625 29.59375 6.390625 
Q 36.859375 6.390625 41.078125 11.03125 
Q 45.3125 15.671875 45.3125 23.6875 
L 45.3125 54.6875 
L 54.296875 54.6875 
L 54.296875 0 
L 45.3125 0 
L 45.3125 8.40625 
Q 42.046875 3.421875 37.71875 1 
Q 33.40625 -1.421875 27.6875 -1.421875 
Q 18.265625 -1.421875 13.375 4.4375 
Q 8.5 10.296875 8.5 21.578125 
z
M 31.109375 56 
z
" id="DejaVuSans-117"/>
      </defs>
      <use xlink:href="#DejaVuSans-78"/>
      <use x="74.804688" xlink:href="#DejaVuSans-101"/>
      <use x="136.328125" xlink:href="#DejaVuSans-119"/>
      <use x="218.115234" xlink:href="#DejaVuSans-32"/>
      <use x="249.902344" xlink:href="#DejaVuSans-97"/>
      <use x="311.181641" xlink:href="#DejaVuSans-100"/>
      <use x="374.658203" xlink:href="#DejaVuSans-109"/>
      <use x="472.070312" xlink:href="#DejaVuSans-105"/>
      <use x="499.853516" xlink:href="#DejaVuSans-115"/>
      <use x="551.953125" xlink:href="#DejaVuSans-115"/>
      <use x="604.052734" xlink:href="#DejaVuSans-105"/>
      <use x="631.835938" xlink:href="#DejaVuSans-111"/>
      <use x="693.017578" xlink:href="#DejaVuSans-110"/>
      <use x="756.396484" xlink:href="#DejaVuSans-115"/>
      <use x="808.496094" xlink:href="#DejaVuSans-32"/>
      <use x="840.283203" xlink:href="#DejaVuSans-112"/>
      <use x="903.759766" xlink:href="#DejaVuSans-101"/>
      <use x="965.283203" xlink:href="#DejaVuSans-114"/>
      <use x="1006.396484" xlink:href="#DejaVuSans-32"/>
      <use x="1038.183594" xlink:href="#DejaVuSans-109"/>
      <use x="1135.595703" xlink:href="#DejaVuSans-105"/>
      <use x="1163.378906" xlink:href="#DejaVuSans-108"/>
      <use x="1191.162109" xlink:href="#DejaVuSans-108"/>
      <use x="1218.945312" xlink:href="#DejaVuSans-105"/>
      <use x="1246.728516" xlink:href="#DejaVuSans-111"/>
      <use x="1307.910156" xlink:href="#DejaVuSans-110"/>
      <use x="1371.289062" xlink:href="#DejaVuSans-32"/>
      <use x="1403.076172" xlink:href="#DejaVuSans-112"/>
      <use x="1466.552734" xlink:href="#DejaVuSans-111"/>
      <use x="1527.734375" xlink:href="#DejaVuSans-112"/>
      <use x="1591.210938" xlink:href="#DejaVuSans-117"/>
      <use x="1654.589844" xlink:href="#DejaVuSans-108"/>
      <use x="1682.373047" xlink:href="#DejaVuSans-97"/>
      <use x="1743.652344" xlink:href="#DejaVuSans-116"/>
      <use x="1782.861328" xlink:href="#DejaVuSans-105"/>
      <use x="1810.644531" xlink:href="#DejaVuSans-111"/>
      <use x="1871.826172" xlink:href="#DejaVuSans-110"/>
     </g>
    </g>
   </g>
   <g id="line2d_14">
    <path clip-path="url(#pfe1e8bcb1e)" d="M 61.670455 206.792522 
L 63.140021 204.082923 
L 64.609588 203.179723 
L 66.079155 203.308751 
L 67.548722 201.45074 
L 69.018289 200.341094 
L 70.487856 197.66836 
L 71.957423 194.516376 
L 73.42699 191.087903 
L 74.896557 186.276981 
L 77.835691 178.756459 
L 79.305258 175.327986 
L 80.774824 174.332623 
L 82.244391 170.682958 
L 83.713958 169.687594 
L 85.183525 171.457129 
L 86.653092 170.185276 
L 88.122659 169.300509 
L 89.592226 167.64157 
L 91.061793 166.425015 
L 92.53136 168.139252 
L 94.000927 167.696868 
L 95.470494 166.093227 
L 96.94006 166.148525 
L 98.409627 167.862762 
L 99.879194 170.406468 
L 101.348761 171.623023 
L 102.818328 171.788917 
L 104.287895 173.392557 
L 105.757462 175.383284 
L 107.227029 178.314075 
L 108.696596 180.304802 
L 110.166163 181.244867 
L 111.63573 182.79321 
L 113.105297 184.67334 
L 114.574863 185.22632 
L 116.04443 186.940556 
L 117.513997 188.323005 
L 118.983564 188.765389 
L 120.453131 189.760752 
L 121.922698 191.640883 
L 123.392265 192.415054 
L 124.861832 194.073993 
L 126.331399 193.631609 
L 127.800966 192.470352 
L 129.270533 192.083266 
L 130.740099 193.299821 
L 132.209666 192.857438 
L 133.679233 193.797503 
L 135.1488 194.295185 
L 136.618367 195.567037 
L 138.087934 197.281274 
L 139.557501 198.276637 
L 141.027068 198.884915 
L 142.496635 199.216703 
L 143.966202 200.10147 
L 145.435769 200.267364 
L 146.905336 199.82498 
L 148.374902 200.599151 
L 149.844469 201.152131 
L 151.314036 200.37796 
L 152.783603 200.212066 
L 154.25317 199.327298 
L 155.722737 199.935576 
L 157.192304 201.318025 
L 158.661871 201.539217 
L 160.131438 202.202792 
L 161.601005 203.032261 
L 163.070572 204.138221 
L 164.540139 204.41471 
L 166.009705 205.188882 
L 167.479272 205.022988 
L 168.948839 205.022988 
L 170.418406 204.470008 
L 171.887973 204.193518 
L 173.35754 204.304114 
L 174.827107 206.073649 
L 176.296674 205.797159 
L 179.235808 206.018351 
L 180.705375 208.174971 
L 182.174941 209.55742 
L 185.114075 210.608081 
L 186.583642 212.045828 
L 189.522776 213.870661 
L 190.992343 213.760065 
L 192.46191 214.091852 
L 193.931477 214.810726 
L 196.870611 214.202448 
L 198.340178 214.589534 
L 199.809744 214.70013 
L 201.279311 215.142514 
L 207.157579 215.529599 
L 210.096713 214.866024 
L 211.56628 214.534236 
L 213.035847 214.42364 
L 214.505414 214.644832 
L 215.97498 215.197812 
L 217.444547 215.308407 
L 218.914114 215.640195 
L 221.853248 216.082579 
L 223.322815 216.524962 
L 224.792382 216.690856 
L 227.731516 216.469665 
L 229.201083 216.469665 
L 230.67065 216.635558 
L 235.07935 216.082579 
L 236.548917 216.193175 
L 238.018484 216.137877 
L 239.488051 216.359069 
L 240.957618 216.359069 
L 245.366319 216.912048 
L 246.835886 216.967346 
L 248.305453 217.354432 
L 252.714153 216.912048 
L 258.592421 216.635558 
L 260.061988 216.85675 
L 261.531555 216.801452 
L 263.001122 216.912048 
L 264.470689 216.801452 
L 265.940256 216.912048 
L 270.348956 216.801452 
L 271.818523 217.022644 
L 277.696791 217.077942 
L 280.635925 217.188538 
L 282.105492 217.077942 
L 283.575059 217.13324 
L 285.044625 216.967346 
L 286.514192 216.967346 
L 289.453326 216.524962 
L 295.331594 216.85675 
L 299.740295 217.465028 
L 302.679428 217.40973 
L 305.618562 217.520326 
L 307.088129 217.299134 
L 312.966397 217.40973 
L 317.375098 217.077942 
L 318.844664 216.746154 
L 321.783798 216.635558 
L 323.253365 216.58026 
L 326.192499 216.746154 
L 327.662066 216.746154 
L 329.131633 216.912048 
L 330.6012 216.85675 
L 336.479467 215.584897 
L 337.949034 215.529599 
L 340.888168 215.031918 
L 343.827302 215.363705 
L 345.296869 215.584897 
L 349.70557 215.363705 
L 352.644703 214.755428 
L 354.11427 214.14715 
L 355.583837 213.262383 
L 357.053404 212.598808 
L 358.522971 211.71404 
L 359.992538 210.497485 
L 362.931672 209.55742 
L 364.401239 208.506759 
L 365.870806 207.843184 
L 367.340373 207.732588 
L 368.80994 206.350139 
L 371.749073 206.516033 
L 373.21864 205.465371 
L 374.688207 205.465371 
L 377.627341 203.253453 
L 380.566475 202.976963 
L 382.036042 202.202792 
L 383.505609 201.705111 
L 384.975176 200.046172 
L 386.444742 198.055445 
L 389.383876 195.788229 
L 390.853443 193.963397 
L 392.32301 191.530287 
L 393.792577 188.599495 
L 395.262144 187.93592 
L 396.731711 187.770026 
L 398.201278 186.498173 
L 401.140412 182.682614 
L 402.609979 181.410761 
L 404.079545 180.802483 
L 404.079545 180.802483 
" style="fill:none;stroke:#1f77b4;stroke-linecap:square;stroke-width:1.5;"/>
   </g>
   <g id="line2d_15">
    <path clip-path="url(#pfe1e8bcb1e)" d="M 61.670455 192.785854 
L 63.140021 194.378175 
L 64.609588 194.827291 
L 66.079155 194.868119 
L 69.018289 192.908341 
L 71.957423 190.336131 
L 73.42699 185.436684 
L 74.896557 179.872311 
L 76.366124 173.608018 
L 77.835691 166.50382 
L 82.244391 148.340869 
L 85.183525 141.341659 
L 86.653092 141.201675 
L 88.122659 140.88671 
L 89.592226 138.856939 
L 91.061793 140.781722 
L 92.53136 142.04158 
L 94.000927 144.246331 
L 95.470494 148.200885 
L 96.94006 149.915692 
L 98.409627 153.380301 
L 99.879194 159.259637 
L 101.348761 159.994554 
L 102.818328 158.594712 
L 104.287895 158.909677 
L 105.757462 160.83446 
L 107.227029 161.849345 
L 108.696596 161.849345 
L 110.166163 161.394396 
L 111.63573 162.304294 
L 113.105297 167.378721 
L 114.574863 168.253622 
L 116.04443 168.673575 
L 117.513997 169.268508 
L 118.983564 170.248397 
L 120.453131 171.82322 
L 121.922698 172.033196 
L 123.392265 172.628129 
L 124.861832 175.462809 
L 126.331399 176.372706 
L 127.800966 177.702556 
L 129.270533 180.362256 
L 130.740099 181.83209 
L 132.209666 184.246818 
L 133.679233 186.241593 
L 135.1488 188.446344 
L 136.618367 190.056162 
L 138.087934 190.231143 
L 139.557501 190.581103 
L 141.027068 190.651095 
L 142.496635 191.630985 
L 143.966202 191.421008 
L 145.435769 191.630985 
L 146.905336 192.505886 
L 148.374902 194.080708 
L 149.844469 194.395673 
L 151.314036 194.850621 
L 152.783603 194.570653 
L 154.25317 195.445554 
L 155.722737 195.690527 
L 157.192304 196.110479 
L 158.661871 196.670416 
L 161.601005 198.210242 
L 163.070572 199.435104 
L 164.540139 199.750069 
L 166.009705 200.205017 
L 167.479272 199.680076 
L 168.948839 200.79995 
L 170.418406 201.709847 
L 171.887973 201.394883 
L 173.35754 201.919824 
L 177.766241 204.404543 
L 179.235808 204.509532 
L 180.705375 205.13946 
L 182.174941 206.679287 
L 183.644508 207.869152 
L 185.114075 208.884038 
L 186.583642 209.373983 
L 188.053209 210.1089 
L 189.522776 210.003912 
L 190.992343 209.758939 
L 192.46191 209.828931 
L 193.931477 209.653951 
L 196.870611 209.933919 
L 198.340178 209.688947 
L 199.809744 210.353872 
L 202.748878 211.368758 
L 204.218445 211.403754 
L 205.688012 211.228773 
L 210.096713 211.578734 
L 211.56628 211.893698 
L 213.035847 211.543738 
L 214.505414 211.543738 
L 215.97498 211.78871 
L 217.444547 211.893698 
L 220.383681 212.558623 
L 221.853248 212.698607 
L 224.792382 213.258544 
L 226.261949 213.083564 
L 227.731516 213.188552 
L 230.67065 213.678497 
L 232.140217 213.468521 
L 233.609783 213.748489 
L 235.07935 213.888473 
L 236.548917 214.238434 
L 239.488051 214.483406 
L 240.957618 214.308426 
L 242.427185 214.903359 
L 243.896752 215.183327 
L 246.835886 215.428299 
L 248.305453 215.358307 
L 251.244586 215.638276 
L 254.18372 215.288315 
L 257.122854 215.498292 
L 258.592421 215.638276 
L 260.061988 215.393303 
L 261.531555 215.533288 
L 263.001122 215.848252 
L 264.470689 215.95324 
L 265.940256 215.848252 
L 270.348956 216.443185 
L 273.28809 216.478181 
L 274.757657 216.688157 
L 276.227224 216.653161 
L 277.696791 216.373193 
L 279.166358 216.268205 
L 280.635925 216.408189 
L 285.044625 216.233209 
L 289.453326 216.898134 
L 296.801161 216.513177 
L 299.740295 216.058228 
L 301.209861 216.058228 
L 302.679428 216.268205 
L 305.618562 216.408189 
L 307.088129 216.233209 
L 308.557696 216.373193 
L 320.314231 215.743264 
L 324.722932 215.218323 
L 330.6012 215.568284 
L 332.070767 215.428299 
L 333.540334 215.533288 
L 336.479467 215.078339 
L 337.949034 214.693382 
L 340.888168 214.133446 
L 348.236003 214.44841 
L 349.70557 214.413414 
L 351.175137 214.62339 
L 352.644703 214.44841 
L 354.11427 214.028457 
L 357.053404 213.363532 
L 359.992538 211.998686 
L 361.462105 211.228773 
L 365.870806 209.968915 
L 367.340373 209.164006 
L 368.80994 209.268994 
L 370.279506 208.709058 
L 371.749073 208.744054 
L 373.21864 208.60407 
L 376.157774 207.659176 
L 377.627341 208.044133 
L 380.566475 206.224338 
L 382.036042 204.929484 
L 383.505609 203.844607 
L 384.975176 202.899713 
L 386.444742 201.674851 
L 387.914309 200.030037 
L 389.383876 199.4701 
L 390.853443 198.560203 
L 392.32301 198.070258 
L 393.792577 196.915388 
L 395.262144 196.180471 
L 396.731711 195.165586 
L 398.201278 195.270574 
L 399.670845 194.290685 
L 401.140412 192.995831 
L 402.609979 192.190921 
L 404.079545 190.371127 
L 404.079545 190.371127 
" style="fill:none;stroke:#ff7f0e;stroke-linecap:square;stroke-width:1.5;"/>
   </g>
   <g id="line2d_16">
    <path clip-path="url(#pfe1e8bcb1e)" d="M 61.670455 198.280609 
L 63.140021 191.290281 
L 64.609588 189.851095 
L 66.079155 187.024124 
L 67.548722 184.670028 
L 69.018289 178.954407 
L 70.487856 172.140305 
L 73.42699 157.454741 
L 74.896557 151.609886 
L 76.366124 143.12163 
L 77.835691 132.166199 
L 79.305258 124.38285 
L 80.774824 113.985471 
L 82.244391 107.347596 
L 83.713958 105.967153 
L 85.183525 99.828587 
L 86.653092 99.593618 
L 88.122659 103.764318 
L 89.592226 105.585328 
L 91.061793 112.634399 
L 92.53136 118.743594 
L 94.000927 120.858315 
L 95.470494 127.437448 
L 96.94006 132.900477 
L 98.409627 136.013817 
L 99.879194 141.095022 
L 101.348761 149.730134 
L 104.287895 154.987566 
L 105.757462 158.100906 
L 107.227029 158.74707 
L 108.696596 160.30374 
L 110.166163 163.240853 
L 111.63573 163.94576 
L 113.105297 165.76677 
L 114.574863 168.322058 
L 116.04443 169.555646 
L 118.983564 173.814459 
L 120.453131 174.959933 
L 121.922698 174.813078 
L 123.392265 175.253644 
L 124.861832 175.4005 
L 126.331399 176.457861 
L 127.800966 178.2495 
L 129.270533 177.250881 
L 130.740099 178.308242 
L 132.209666 178.954407 
L 135.1488 181.333468 
L 136.618367 181.098499 
L 138.087934 181.832777 
L 139.557501 184.035612 
L 141.027068 184.740519 
L 142.496635 186.297189 
L 143.966202 187.002096 
L 145.435769 186.561529 
L 146.905336 187.031467 
L 148.374902 186.209075 
L 149.844469 186.532158 
L 151.314036 186.620271 
L 152.783603 186.5909 
L 154.25317 186.884611 
L 155.722737 188.41191 
L 157.192304 189.293044 
L 160.131438 192.935064 
L 161.601005 194.080538 
L 164.540139 195.314125 
L 166.009705 195.549094 
L 167.479272 195.460981 
L 168.948839 195.108527 
L 170.418406 195.049785 
L 171.887973 194.814816 
L 173.35754 195.226012 
L 174.827107 195.813434 
L 176.296674 197.047022 
L 177.766241 198.956145 
L 179.235808 200.042877 
L 180.705375 200.277846 
L 182.174941 200.953382 
L 183.644508 201.15898 
L 185.114075 201.68766 
L 186.583642 201.717031 
L 188.053209 201.070866 
L 189.522776 200.865268 
L 190.992343 201.100237 
L 192.46191 202.010742 
L 193.931477 203.156216 
L 195.401044 203.449928 
L 196.870611 203.890495 
L 198.340178 204.801 
L 199.809744 205.124082 
L 201.279311 205.799618 
L 204.218445 206.504525 
L 205.688012 207.297545 
L 207.157579 207.121319 
L 208.627146 207.121319 
L 210.096713 208.061195 
L 214.505414 209.294782 
L 215.97498 209.529751 
L 218.914114 210.880823 
L 220.383681 210.998308 
L 221.853248 211.292019 
L 223.322815 211.791328 
L 224.792382 212.173153 
L 226.261949 212.34938 
L 227.731516 212.966173 
L 229.201083 213.083658 
L 230.67065 213.40674 
L 233.609783 213.788565 
L 235.07935 214.170389 
L 236.548917 214.43473 
L 242.427185 214.96341 
L 245.366319 215.080894 
L 249.77502 214.640328 
L 251.244586 214.610956 
L 252.714153 215.022152 
L 254.18372 215.169008 
L 255.653287 215.139637 
L 258.592421 215.462719 
L 261.531555 215.785802 
L 263.001122 215.638946 
L 264.470689 215.844544 
L 265.940256 215.903286 
L 268.879389 216.285111 
L 271.818523 215.962028 
L 273.28809 216.226368 
L 274.757657 216.285111 
L 276.227224 216.461337 
L 279.166358 215.991399 
L 280.635925 215.903286 
L 282.105492 215.932657 
L 285.044625 215.374606 
L 286.514192 215.286492 
L 295.331594 215.991399 
L 298.270728 215.873915 
L 299.740295 216.108884 
L 301.209861 216.020771 
L 302.679428 216.050142 
L 304.148995 215.844544 
L 305.618562 215.903286 
L 307.088129 215.844544 
L 308.557696 216.020771 
L 311.49683 215.22775 
L 312.966397 214.904668 
L 314.435964 214.757812 
L 317.375098 213.729823 
L 318.844664 213.054287 
L 320.314231 212.643091 
L 321.783798 212.701833 
L 323.253365 212.34938 
L 324.722932 211.879441 
L 330.6012 211.145163 
L 332.070767 210.52837 
L 333.540334 210.175916 
L 335.009901 210.352143 
L 336.479467 209.529751 
L 337.949034 209.001071 
L 340.888168 207.67937 
L 342.357735 207.41503 
L 343.827302 207.268174 
L 345.296869 206.445783 
L 346.766436 206.62201 
L 349.70557 206.475154 
L 351.175137 206.298927 
L 352.644703 206.269556 
L 354.11427 205.682133 
L 355.583837 204.536659 
L 358.522971 203.156216 
L 359.992538 202.715649 
L 361.462105 202.128227 
L 362.931672 201.393949 
L 364.401239 200.424701 
L 365.870806 200.072248 
L 367.340373 197.634444 
L 368.80994 196.22463 
L 370.279506 194.198022 
L 371.749073 192.876321 
L 373.21864 191.995188 
L 376.157774 188.235683 
L 377.627341 186.85524 
L 379.096908 184.858003 
L 380.566475 182.390829 
L 382.036042 180.951643 
L 383.505609 179.013149 
L 384.975176 177.397737 
L 386.444742 174.313768 
L 387.914309 172.551501 
L 389.383876 171.611625 
L 392.32301 168.351429 
L 393.792577 166.119224 
L 395.262144 164.533183 
L 396.731711 164.356956 
L 398.201278 164.562554 
L 399.670845 162.535946 
L 401.140412 161.478585 
L 404.079545 158.688328 
L 404.079545 158.688328 
" style="fill:none;stroke:#2ca02c;stroke-linecap:square;stroke-width:1.5;"/>
   </g>
   <g id="line2d_17">
    <path clip-path="url(#pfe1e8bcb1e)" d="M 61.670455 205.85737 
L 63.140021 206.490736 
L 64.609588 204.168392 
L 66.079155 203.260567 
L 67.548722 200.790437 
L 69.018289 196.610218 
L 70.487856 193.877694 
L 71.957423 188.521222 
L 74.896557 174.695735 
L 76.366124 168.000146 
L 77.835691 159.567323 
L 79.305258 154.64516 
L 80.774824 142.086406 
L 82.244391 133.870737 
L 83.713958 129.057152 
L 85.183525 127.754226 
L 86.653092 123.736873 
L 88.122659 121.420561 
L 89.592226 116.245051 
L 91.061793 122.759678 
L 92.53136 125.908415 
L 94.000927 127.862803 
L 95.470494 128.007573 
L 96.94006 130.034346 
L 98.409627 133.617391 
L 99.879194 138.684323 
L 101.348761 141.326366 
L 102.818328 143.534101 
L 104.287895 146.538068 
L 105.757462 148.673418 
L 107.227029 150.193498 
L 108.696596 151.170692 
L 110.166163 153.088888 
L 111.63573 153.342235 
L 113.105297 155.079469 
L 114.574863 155.549969 
L 116.04443 156.744318 
L 118.983564 158.083436 
L 120.453131 159.06063 
L 121.922698 159.6759 
L 123.392265 160.942633 
L 124.861832 163.33133 
L 126.331399 164.272332 
L 127.800966 166.480066 
L 132.209666 174.985274 
L 133.679233 175.745314 
L 135.1488 177.66351 
L 136.618367 178.640704 
L 138.087934 180.414131 
L 139.557501 181.644671 
L 141.027068 181.31894 
L 142.496635 181.17417 
L 143.966202 182.766635 
L 145.435769 182.585673 
L 146.905336 184.395292 
L 149.844469 187.688798 
L 151.314036 189.715571 
L 152.783603 191.525189 
L 154.25317 191.669959 
L 155.722737 192.538576 
L 157.192304 192.466191 
L 158.661871 192.828115 
L 160.131438 194.058656 
L 161.601005 194.565349 
L 163.070572 195.433966 
L 164.540139 197.207392 
L 166.009705 197.714085 
L 167.479272 198.510318 
L 168.948839 198.763664 
L 170.418406 198.618895 
L 171.887973 199.16178 
L 173.35754 200.211359 
L 174.827107 201.007591 
L 176.296674 201.079976 
L 177.766241 202.129555 
L 179.235808 203.541058 
L 180.705375 204.228713 
L 182.174941 204.554444 
L 183.644508 204.373482 
L 185.114075 204.626829 
L 186.583642 205.495446 
L 188.053209 205.821177 
L 189.522776 205.676408 
L 190.992343 205.784985 
L 192.46191 205.748792 
L 193.931477 205.893562 
L 195.401044 205.640215 
L 196.870611 206.074524 
L 198.340178 206.32787 
L 199.809744 207.051718 
L 201.279311 206.725987 
L 202.748878 207.377449 
L 204.218445 208.246066 
L 205.688012 208.825144 
L 210.096713 208.499413 
L 211.56628 209.729954 
L 213.035847 210.12807 
L 214.505414 210.200454 
L 217.444547 210.74334 
L 220.383681 211.539572 
L 223.322815 211.430995 
L 224.792382 211.50338 
L 226.261949 211.792919 
L 229.201083 211.973881 
L 230.67065 212.082458 
L 232.140217 212.046266 
L 235.07935 212.589151 
L 236.548917 212.697728 
L 238.018484 212.951075 
L 239.488051 213.530153 
L 240.957618 213.276806 
L 243.896752 214.724501 
L 246.835886 215.520733 
L 248.305453 215.520733 
L 249.77502 215.375964 
L 251.244586 215.701695 
L 252.714153 215.375964 
L 254.18372 215.303579 
L 255.653287 215.412156 
L 257.122854 215.122617 
L 258.592421 215.267387 
L 261.531555 215.15881 
L 264.470689 214.507347 
L 271.818523 214.579732 
L 273.28809 215.122617 
L 274.757657 215.195002 
L 276.227224 214.941655 
L 277.696791 215.267387 
L 285.044625 215.846465 
L 286.514192 216.136004 
L 289.453326 215.91885 
L 290.922893 216.063619 
L 295.331594 215.991234 
L 296.801161 215.737888 
L 298.270728 215.701695 
L 299.740295 215.810272 
L 305.618562 215.448349 
L 308.557696 215.593118 
L 310.027263 215.375964 
L 314.435964 215.050233 
L 315.905531 214.652116 
L 317.375098 213.747307 
L 323.253365 210.924302 
L 326.192499 209.295645 
L 327.662066 209.042298 
L 329.131633 207.956527 
L 330.6012 206.725987 
L 332.070767 206.074524 
L 335.009901 203.179134 
L 336.479467 202.853403 
L 337.949034 201.116169 
L 339.418601 200.899014 
L 340.888168 200.899014 
L 342.357735 200.247552 
L 345.296869 199.994205 
L 346.766436 198.329356 
L 348.236003 198.148394 
L 349.70557 197.315969 
L 351.175137 196.013044 
L 352.644703 194.239617 
L 354.11427 192.285229 
L 355.583837 190.801342 
L 357.053404 188.738377 
L 358.522971 187.073527 
L 359.992538 185.73441 
L 361.462105 184.06956 
L 362.931672 183.056174 
L 365.870806 179.292167 
L 367.340373 178.495935 
L 368.80994 177.518741 
L 370.279506 175.383391 
L 371.749073 174.91289 
L 373.21864 172.560385 
L 374.688207 171.148883 
L 376.157774 169.375456 
L 377.627341 166.08195 
L 379.096908 162.317943 
L 380.566475 160.218786 
L 382.036042 156.78051 
L 383.505609 154.355621 
L 386.444742 147.044762 
L 387.914309 146.067567 
L 389.383876 142.955023 
L 390.853443 139.516748 
L 392.32301 139.227209 
L 393.792577 137.489975 
L 395.262144 136.476588 
L 396.731711 135.065086 
L 398.201278 132.857351 
L 399.670845 133.074505 
L 401.140412 132.784966 
L 402.609979 130.541039 
L 404.079545 130.10673 
L 404.079545 130.10673 
" style="fill:none;stroke:#d62728;stroke-linecap:square;stroke-width:1.5;"/>
   </g>
   <g id="line2d_18">
    <path clip-path="url(#pfe1e8bcb1e)" d="M 61.670455 203.510001 
L 63.140021 202.120936 
L 66.079155 198.185254 
L 67.548722 196.842492 
L 69.018289 194.095231 
L 70.487856 189.266578 
L 71.957423 183.22525 
L 73.42699 176.037393 
L 74.896557 169.907871 
L 76.366124 164.836683 
L 77.835691 150.10819 
L 79.305258 140.406788 
L 80.774824 128.103645 
L 82.244391 117.079324 
L 83.713958 107.069241 
L 86.653092 90.797343 
L 88.122659 92.032067 
L 89.592226 90.576857 
L 91.061793 93.046305 
L 92.53136 91.150121 
L 94.000927 95.295266 
L 98.409627 106.672365 
L 99.879194 111.346678 
L 101.348761 118.534535 
L 102.818328 128.368229 
L 104.287895 131.851915 
L 105.757462 136.570324 
L 108.696596 143.537695 
L 110.166163 143.93457 
L 111.63573 145.389781 
L 113.105297 148.564785 
L 114.574863 151.298817 
L 116.04443 151.475206 
L 117.513997 152.930416 
L 118.983564 153.062708 
L 120.453131 155.973129 
L 121.922698 155.399864 
L 123.392265 153.988751 
L 124.861832 155.31167 
L 126.331399 156.017226 
L 127.800966 155.31167 
L 129.270533 156.810977 
L 130.740099 156.502296 
L 132.209666 159.545009 
L 133.679233 160.956122 
L 135.1488 161.485289 
L 136.618367 162.323138 
L 138.087934 164.131126 
L 139.557501 163.513764 
L 141.027068 164.175224 
L 142.496635 162.9405 
L 145.435769 164.439807 
L 148.374902 163.381473 
L 149.844469 164.792586 
L 151.314036 165.36585 
L 152.783603 166.909255 
L 154.25317 166.865158 
L 155.722737 166.556477 
L 157.192304 168.893633 
L 158.661871 170.701622 
L 160.131438 172.906486 
L 161.601005 175.59642 
L 163.070572 175.728712 
L 164.540139 176.610658 
L 166.009705 178.330452 
L 167.479272 179.565176 
L 168.948839 179.65337 
L 170.418406 178.418646 
L 171.887973 178.021771 
L 173.35754 179.1683 
L 174.827107 180.094343 
L 176.296674 182.122818 
L 177.766241 183.930807 
L 179.235808 186.576644 
L 180.705375 190.148524 
L 182.174941 191.162761 
L 183.644508 191.559637 
L 185.114075 192.573874 
L 186.583642 191.824221 
L 188.053209 191.51554 
L 189.522776 190.898178 
L 190.992343 190.457205 
L 192.46191 191.118664 
L 193.931477 192.706166 
L 195.401044 194.029085 
L 196.870611 195.57249 
L 199.809744 197.99784 
L 201.279311 198.394716 
L 202.748878 199.761732 
L 204.218445 200.026315 
L 205.688012 200.820067 
L 207.157579 200.996456 
L 208.627146 200.379094 
L 210.096713 201.040553 
L 213.035847 203.818682 
L 214.505414 205.758962 
L 215.97498 207.346465 
L 217.444547 208.360702 
L 218.914114 209.639523 
L 221.853248 211.050636 
L 224.792382 211.579804 
L 226.261949 211.271123 
L 227.731516 212.197166 
L 229.201083 212.505847 
L 230.67065 213.167306 
L 232.140217 213.255501 
L 233.609783 213.123209 
L 235.07935 213.167306 
L 236.548917 213.343695 
L 238.018484 213.299598 
L 239.488051 213.387792 
L 240.957618 213.167306 
L 243.896752 212.505847 
L 245.366319 212.373555 
L 246.835886 212.064874 
L 248.305453 211.535707 
L 251.244586 211.491609 
L 252.714153 212.108971 
L 255.653287 213.035014 
L 257.122854 213.299598 
L 258.592421 213.740571 
L 261.531555 213.784668 
L 263.001122 213.475987 
L 264.470689 213.696473 
L 265.940256 213.696473 
L 267.409822 214.049252 
L 268.879389 213.828765 
L 270.348956 212.505847 
L 271.818523 212.594041 
L 273.28809 212.94682 
L 274.757657 212.858625 
L 277.696791 213.035014 
L 279.166358 213.475987 
L 280.635925 215.107587 
L 282.105492 215.416268 
L 285.044625 215.636754 
L 286.514192 215.063489 
L 287.983759 215.328073 
L 289.453326 215.063489 
L 290.922893 215.195781 
L 292.39246 214.931197 
L 295.331594 215.019392 
L 296.801161 215.460365 
L 298.270728 214.710711 
L 299.740295 214.754808 
L 301.209861 214.137446 
L 302.679428 214.049252 
L 304.148995 213.828765 
L 307.088129 213.035014 
L 310.027263 212.94682 
L 311.49683 212.505847 
L 312.966397 211.535707 
L 314.435964 210.786053 
L 317.375098 210.433274 
L 318.844664 209.551329 
L 320.314231 208.360702 
L 321.783798 207.434659 
L 324.722932 205.935351 
L 326.192499 204.083266 
L 327.662066 202.848542 
L 329.131633 202.187082 
L 330.6012 202.054791 
L 332.070767 201.790207 
L 333.540334 201.128748 
L 335.009901 199.14437 
L 336.479467 198.350619 
L 337.949034 196.454435 
L 339.418601 195.484295 
L 340.888168 194.293669 
L 342.357735 193.676307 
L 343.827302 193.367626 
L 345.296869 192.573874 
L 348.236003 192.309291 
L 351.175137 187.94366 
L 352.644703 185.121433 
L 354.11427 179.1683 
L 355.583837 177.801284 
L 357.053404 173.259264 
L 358.522971 171.318984 
L 359.992538 169.114119 
L 361.462105 166.556477 
L 362.931672 164.483905 
L 364.401239 164.439807 
L 365.870806 160.956122 
L 367.340373 158.354382 
L 370.279506 151.387011 
L 371.749073 150.681455 
L 373.21864 146.492213 
L 374.688207 143.537695 
L 376.157774 143.096722 
L 377.627341 143.229014 
L 379.096908 141.950193 
L 380.566475 142.611652 
L 382.036042 139.127966 
L 383.505609 138.863383 
L 386.444742 133.439417 
L 389.383876 127.089408 
L 390.853443 122.811971 
L 392.32301 123.64982 
L 393.792577 123.561625 
L 395.262144 125.413711 
L 396.731711 125.678295 
L 398.201278 127.309894 
L 399.670845 127.794964 
L 401.140412 131.896012 
L 402.609979 134.056779 
L 404.079545 135.159211 
L 404.079545 135.159211 
" style="fill:none;stroke:#9467bd;stroke-linecap:square;stroke-width:1.5;"/>
   </g>
   <g id="line2d_19">
    <path clip-path="url(#pfe1e8bcb1e)" d="M 61.670455 159.645511 
L 63.140021 155.754011 
L 64.609588 151.295001 
L 66.079155 147.606183 
L 67.548722 137.123456 
L 69.018289 124.784159 
L 71.957423 104.956041 
L 73.42699 92.20443 
L 74.896557 83.865502 
L 76.366124 72.156257 
L 77.835691 59.022446 
L 79.305258 58.744481 
L 80.774824 55.547892 
L 82.244391 44.568304 
L 83.713958 44.290339 
L 85.183525 37.966652 
L 86.653092 35.88192 
L 88.122659 40.746295 
L 89.592226 38.070889 
L 91.061793 38.870036 
L 92.53136 48.633531 
L 94.000927 52.664013 
L 95.470494 61.107178 
L 98.409627 84.560413 
L 99.879194 94.115435 
L 101.348761 105.650952 
L 104.287895 117.429688 
L 105.757462 124.622013 
L 107.227029 127.888093 
L 108.696596 131.640611 
L 110.166163 137.165151 
L 111.63573 143.662565 
L 113.105297 147.901521 
L 114.574863 154.398935 
L 116.04443 159.471783 
L 117.513997 163.050573 
L 118.983564 164.683613 
L 120.453131 166.073435 
L 121.922698 166.525127 
L 123.392265 169.409006 
L 124.861832 168.36664 
L 126.331399 167.914948 
L 127.800966 168.853077 
L 129.270533 171.841193 
L 130.740099 174.273381 
L 132.209666 174.134398 
L 133.679233 173.474233 
L 135.1488 177.018278 
L 136.618367 179.276737 
L 138.087934 181.847907 
L 139.557501 184.766532 
L 141.027068 188.171594 
L 142.496635 192.514786 
L 143.966202 196.37154 
L 145.435769 197.135942 
L 146.905336 198.039325 
L 148.374902 199.255419 
L 149.844469 199.846093 
L 151.314036 199.533383 
L 152.783603 200.228294 
L 154.25317 200.749477 
L 155.722737 200.749477 
L 157.192304 201.305406 
L 158.661871 201.652861 
L 161.601005 203.285901 
L 163.070572 203.355392 
L 164.540139 204.015557 
L 166.009705 204.918941 
L 167.479272 205.370633 
L 170.418406 205.370633 
L 171.887973 205.926562 
L 176.296674 205.961307 
L 180.705375 204.189285 
L 182.174941 204.745213 
L 185.114075 206.586727 
L 186.583642 207.281637 
L 188.053209 208.185021 
L 189.522776 209.366369 
L 190.992343 210.06128 
L 192.46191 209.331624 
L 195.401044 208.185021 
L 196.870611 207.594347 
L 198.340178 207.629093 
L 199.809744 207.524856 
L 202.748878 206.690963 
L 207.157579 207.246892 
L 208.627146 206.899437 
L 210.096713 207.142655 
L 213.035847 209.957043 
L 214.505414 209.887552 
L 217.444547 211.242628 
L 218.914114 211.69432 
L 220.383681 211.520593 
L 221.853248 211.173137 
L 223.322815 211.242628 
L 224.792382 212.041776 
L 226.261949 212.041776 
L 227.731516 211.833302 
L 229.201083 211.798557 
L 230.67065 212.041776 
L 232.140217 212.458722 
L 239.488051 213.779052 
L 240.957618 214.091762 
L 242.427185 214.230744 
L 245.366319 214.890909 
L 246.835886 215.238365 
L 249.77502 215.342601 
L 251.244586 215.27311 
L 254.18372 215.551074 
L 255.653287 215.551074 
L 257.122854 215.863784 
L 258.592421 216.315476 
L 261.531555 216.280731 
L 263.001122 216.558695 
L 265.940256 216.59344 
L 270.348956 216.454458 
L 271.818523 216.454458 
L 273.28809 216.21124 
L 274.757657 215.759548 
L 276.227224 216.002766 
L 280.635925 215.829039 
L 282.105492 215.933275 
L 283.575059 216.176494 
L 285.044625 216.59344 
L 286.514192 216.523949 
L 290.922893 216.767168 
L 293.862027 216.59344 
L 295.331594 216.489204 
L 298.270728 216.59344 
L 301.209861 216.280731 
L 305.618562 216.454458 
L 307.088129 216.245985 
L 308.557696 215.89853 
L 310.027263 215.89853 
L 311.49683 215.307856 
L 312.966397 215.099382 
L 314.435964 215.134128 
L 320.314231 214.543454 
L 321.783798 214.682436 
L 323.253365 214.300235 
L 324.722932 213.396851 
L 326.192499 212.875668 
L 329.131633 212.284994 
L 330.6012 211.312119 
L 336.479467 209.574843 
L 337.949034 209.192642 
L 339.418601 208.532477 
L 342.357735 208.845186 
L 345.296869 209.922298 
L 346.766436 209.887552 
L 348.236003 210.06128 
L 351.175137 209.922298 
L 352.644703 209.574843 
L 354.11427 209.43586 
L 355.583837 208.775695 
L 357.053404 208.532477 
L 358.522971 208.011294 
L 359.992538 208.393494 
L 361.462105 207.768075 
L 362.931672 207.316383 
L 365.870806 205.752834 
L 368.80994 203.668102 
L 370.279506 202.313026 
L 371.749073 201.89608 
L 373.21864 200.64524 
L 374.688207 199.081691 
L 376.157774 198.352035 
L 377.627341 197.796107 
L 379.096908 196.475776 
L 380.566475 195.43341 
L 382.036042 193.41817 
L 384.975176 191.889366 
L 386.444742 189.630906 
L 387.914309 188.935996 
L 389.383876 189.005487 
L 390.853443 187.89363 
L 392.32301 187.858884 
L 393.792577 187.024991 
L 395.262144 186.469063 
L 396.731711 187.129228 
L 398.201278 187.337701 
L 399.670845 186.9555 
L 402.609979 188.58854 
L 404.079545 189.387688 
L 404.079545 189.387688 
" style="fill:none;stroke:#8c564b;stroke-linecap:square;stroke-width:1.5;"/>
   </g>
   <g id="line2d_20">
    <path clip-path="url(#pfe1e8bcb1e)" d="M 61.670455 210.339413 
L 63.140021 210.339413 
L 64.609588 208.781437 
L 66.079155 207.000893 
L 67.548722 206.132878 
L 69.018289 202.215682 
L 70.487856 200.848479 
L 71.957423 194.31452 
L 73.42699 190.928307 
L 74.896557 186.779005 
L 76.366124 179.529648 
L 77.835691 174.664949 
L 79.305258 172.757223 
L 80.774824 168.417148 
L 82.244391 167.272513 
L 83.713958 162.598586 
L 85.183525 160.738554 
L 86.653092 159.832384 
L 88.122659 155.873854 
L 89.592226 155.015378 
L 91.061793 152.535335 
L 92.53136 152.15379 
L 94.000927 151.056848 
L 95.470494 150.961461 
L 96.94006 154.58614 
L 98.409627 155.396923 
L 99.879194 154.299981 
L 101.348761 159.355453 
L 104.287895 165.078629 
L 105.757462 163.838607 
L 107.227029 163.647835 
L 108.696596 167.844831 
L 110.166163 169.704863 
L 111.63573 169.371011 
L 113.105297 169.609477 
L 114.574863 170.229487 
L 116.04443 173.234155 
L 118.983564 173.186462 
L 121.922698 169.704863 
L 123.392265 166.366344 
L 124.861832 167.034047 
L 126.331399 167.844831 
L 127.800966 166.938661 
L 129.270533 167.797138 
L 130.740099 172.280292 
L 132.209666 173.663393 
L 133.679233 177.57423 
L 135.1488 180.292739 
L 136.618367 180.76967 
L 138.087934 185.348211 
L 139.557501 186.349767 
L 141.027068 185.109745 
L 142.496635 187.780561 
L 143.966202 189.115968 
L 145.435769 188.066719 
L 146.905336 189.44982 
L 148.374902 188.782116 
L 149.844469 189.115968 
L 151.314036 190.546762 
L 152.783603 189.545206 
L 155.722737 190.689842 
L 160.131438 195.268383 
L 161.601005 195.316076 
L 163.070572 197.033028 
L 166.009705 199.369992 
L 167.479272 199.179219 
L 168.948839 200.276162 
L 170.418406 199.94231 
L 171.887973 201.134638 
L 173.35754 201.659262 
L 174.827107 201.420797 
L 176.296674 201.897728 
L 177.766241 202.517739 
L 179.235808 202.374659 
L 180.705375 203.805453 
L 182.174941 204.568544 
L 183.644508 204.902396 
L 186.583642 206.33319 
L 188.053209 206.237803 
L 189.522776 205.951644 
L 190.992343 204.568544 
L 192.46191 205.093168 
L 193.931477 204.902396 
L 196.870611 205.188554 
L 198.340178 205.808565 
L 201.279311 207.239359 
L 202.748878 207.811677 
L 204.218445 208.908619 
L 207.157579 208.527074 
L 208.627146 208.717846 
L 210.096713 209.337857 
L 211.56628 210.387106 
L 214.505414 210.434799 
L 215.97498 211.388662 
L 217.444547 212.485604 
L 218.914114 212.390218 
L 220.383681 211.674821 
L 221.853248 211.627127 
L 224.792382 211.913286 
L 226.261949 212.58099 
L 227.731516 212.58099 
L 229.201083 212.819456 
L 230.67065 213.439466 
L 233.609783 213.630239 
L 235.07935 213.48716 
L 236.548917 213.057921 
L 238.018484 213.010228 
L 240.957618 213.439466 
L 243.896752 214.441022 
L 245.366319 214.727181 
L 246.835886 214.393329 
L 248.305453 214.297943 
L 249.77502 213.916398 
L 251.244586 213.868705 
L 252.714153 213.391773 
L 254.18372 213.296387 
L 255.653287 213.534853 
L 257.122854 214.297943 
L 258.592421 214.631795 
L 260.061988 215.299499 
L 261.531555 215.299499 
L 263.001122 215.824123 
L 267.409822 216.348748 
L 270.348956 215.919509 
L 271.818523 216.110282 
L 274.757657 215.967203 
L 276.227224 216.157975 
L 277.696791 216.062589 
L 285.044625 216.587213 
L 286.514192 216.444134 
L 289.453326 216.873372 
L 292.39246 216.968758 
L 293.862027 217.207224 
L 295.331594 217.016451 
L 299.740295 216.968758 
L 301.209861 216.825679 
L 304.148995 216.873372 
L 305.618562 217.159531 
L 308.557696 216.873372 
L 311.49683 216.873372 
L 312.966397 216.873372 
L 314.435964 216.634906 
L 315.905531 216.634906 
L 317.375098 216.777986 
L 318.844664 216.777986 
L 324.722932 215.919509 
L 326.192499 215.394885 
L 329.131633 215.204112 
L 330.6012 215.299499 
L 332.070767 215.633351 
L 333.540334 215.537964 
L 336.479467 215.824123 
L 337.949034 215.871816 
L 339.418601 215.537964 
L 340.888168 214.965647 
L 345.296869 213.868705 
L 346.766436 213.916398 
L 348.236003 213.391773 
L 349.70557 213.48716 
L 351.175137 213.34408 
L 352.644703 213.010228 
L 354.11427 212.962535 
L 355.583837 212.485604 
L 358.522971 212.485604 
L 359.992538 211.913286 
L 361.462105 211.913286 
L 362.931672 212.056366 
L 364.401239 211.531741 
L 365.870806 211.484048 
L 367.340373 210.482492 
L 368.80994 210.005561 
L 370.279506 209.147084 
L 371.749073 208.956312 
L 373.21864 207.954756 
L 374.688207 207.287052 
L 376.157774 206.380883 
L 377.627341 206.33319 
L 379.096908 205.236247 
L 380.566475 204.759316 
L 382.036042 203.185443 
L 383.505609 202.946977 
L 384.975176 201.945421 
L 386.444742 201.373104 
L 390.853443 198.845368 
L 392.32301 198.320743 
L 393.792577 197.653039 
L 395.262144 197.414574 
L 396.731711 197.414574 
L 398.201278 196.222245 
L 399.670845 195.316076 
L 401.140412 195.363769 
L 402.609979 195.649928 
L 404.079545 195.554541 
L 404.079545 195.554541 
" style="fill:none;stroke:#e377c2;stroke-linecap:square;stroke-width:1.5;"/>
   </g>
   <g id="line2d_21"/>
   <g id="line2d_22"/>
   <g id="line2d_23"/>
   <g id="line2d_24"/>
   <g id="line2d_25"/>
   <g id="line2d_26"/>
   <g id="line2d_27"/>
   <g id="patch_3">
    <path d="M 44.55 226.602246 
L 44.55 26.8 
" style="fill:none;stroke:#000000;stroke-linecap:square;stroke-linejoin:miter;stroke-width:0.8;"/>
   </g>
   <g id="patch_4">
    <path d="M 421.2 226.602246 
L 421.2 26.8 
" style="fill:none;stroke:#000000;stroke-linecap:square;stroke-linejoin:miter;stroke-width:0.8;"/>
   </g>
   <g id="patch_5">
    <path d="M 44.55 226.602246 
L 421.2 226.602246 
" style="fill:none;stroke:#000000;stroke-linecap:square;stroke-linejoin:miter;stroke-width:0.8;"/>
   </g>
   <g id="patch_6">
    <path d="M 44.55 26.8 
L 421.2 26.8 
" style="fill:none;stroke:#000000;stroke-linecap:square;stroke-linejoin:miter;stroke-width:0.8;"/>
   </g>
   <g id="text_16">
    <!-- New admissions per million people by NHS region (7 day rolling) -->
    <g transform="translate(39.615938 20.8)scale(0.12 -0.12)">
     <defs>
      <path d="M 48.6875 27.296875 
Q 48.6875 37.203125 44.609375 42.84375 
Q 40.53125 48.484375 33.40625 48.484375 
Q 26.265625 48.484375 22.1875 42.84375 
Q 18.109375 37.203125 18.109375 27.296875 
Q 18.109375 17.390625 22.1875 11.75 
Q 26.265625 6.109375 33.40625 6.109375 
Q 40.53125 6.109375 44.609375 11.75 
Q 48.6875 17.390625 48.6875 27.296875 
z
M 18.109375 46.390625 
Q 20.953125 51.265625 25.265625 53.625 
Q 29.59375 56 35.59375 56 
Q 45.5625 56 51.78125 48.09375 
Q 58.015625 40.1875 58.015625 27.296875 
Q 58.015625 14.40625 51.78125 6.484375 
Q 45.5625 -1.421875 35.59375 -1.421875 
Q 29.59375 -1.421875 25.265625 0.953125 
Q 20.953125 3.328125 18.109375 8.203125 
L 18.109375 0 
L 9.078125 0 
L 9.078125 75.984375 
L 18.109375 75.984375 
z
" id="DejaVuSans-98"/>
      <path d="M 32.171875 -5.078125 
Q 28.375 -14.84375 24.75 -17.8125 
Q 21.140625 -20.796875 15.09375 -20.796875 
L 7.90625 -20.796875 
L 7.90625 -13.28125 
L 13.1875 -13.28125 
Q 16.890625 -13.28125 18.9375 -11.515625 
Q 21 -9.765625 23.484375 -3.21875 
L 25.09375 0.875 
L 2.984375 54.6875 
L 12.5 54.6875 
L 29.59375 11.921875 
L 46.6875 54.6875 
L 56.203125 54.6875 
z
" id="DejaVuSans-121"/>
      <path d="M 9.8125 72.90625 
L 19.671875 72.90625 
L 19.671875 43.015625 
L 55.515625 43.015625 
L 55.515625 72.90625 
L 65.375 72.90625 
L 65.375 0 
L 55.515625 0 
L 55.515625 34.71875 
L 19.671875 34.71875 
L 19.671875 0 
L 9.8125 0 
z
" id="DejaVuSans-72"/>
      <path d="M 53.515625 70.515625 
L 53.515625 60.890625 
Q 47.90625 63.578125 42.921875 64.890625 
Q 37.9375 66.21875 33.296875 66.21875 
Q 25.25 66.21875 20.875 63.09375 
Q 16.5 59.96875 16.5 54.203125 
Q 16.5 49.359375 19.40625 46.890625 
Q 22.3125 44.4375 30.421875 42.921875 
L 36.375 41.703125 
Q 47.40625 39.59375 52.65625 34.296875 
Q 57.90625 29 57.90625 20.125 
Q 57.90625 9.515625 50.796875 4.046875 
Q 43.703125 -1.421875 29.984375 -1.421875 
Q 24.8125 -1.421875 18.96875 -0.25 
Q 13.140625 0.921875 6.890625 3.21875 
L 6.890625 13.375 
Q 12.890625 10.015625 18.65625 8.296875 
Q 24.421875 6.59375 29.984375 6.59375 
Q 38.421875 6.59375 43.015625 9.90625 
Q 47.609375 13.234375 47.609375 19.390625 
Q 47.609375 24.75 44.3125 27.78125 
Q 41.015625 30.8125 33.5 32.328125 
L 27.484375 33.5 
Q 16.453125 35.6875 11.515625 40.375 
Q 6.59375 45.0625 6.59375 53.421875 
Q 6.59375 63.09375 13.40625 68.65625 
Q 20.21875 74.21875 32.171875 74.21875 
Q 37.3125 74.21875 42.625 73.28125 
Q 47.953125 72.359375 53.515625 70.515625 
z
" id="DejaVuSans-83"/>
      <path d="M 45.40625 27.984375 
Q 45.40625 37.75 41.375 43.109375 
Q 37.359375 48.484375 30.078125 48.484375 
Q 22.859375 48.484375 18.828125 43.109375 
Q 14.796875 37.75 14.796875 27.984375 
Q 14.796875 18.265625 18.828125 12.890625 
Q 22.859375 7.515625 30.078125 7.515625 
Q 37.359375 7.515625 41.375 12.890625 
Q 45.40625 18.265625 45.40625 27.984375 
z
M 54.390625 6.78125 
Q 54.390625 -7.171875 48.1875 -13.984375 
Q 42 -20.796875 29.203125 -20.796875 
Q 24.46875 -20.796875 20.265625 -20.09375 
Q 16.0625 -19.390625 12.109375 -17.921875 
L 12.109375 -9.1875 
Q 16.0625 -11.328125 19.921875 -12.34375 
Q 23.78125 -13.375 27.78125 -13.375 
Q 36.625 -13.375 41.015625 -8.765625 
Q 45.40625 -4.15625 45.40625 5.171875 
L 45.40625 9.625 
Q 42.625 4.78125 38.28125 2.390625 
Q 33.9375 0 27.875 0 
Q 17.828125 0 11.671875 7.65625 
Q 5.515625 15.328125 5.515625 27.984375 
Q 5.515625 40.671875 11.671875 48.328125 
Q 17.828125 56 27.875 56 
Q 33.9375 56 38.28125 53.609375 
Q 42.625 51.21875 45.40625 46.390625 
L 45.40625 54.6875 
L 54.390625 54.6875 
z
" id="DejaVuSans-103"/>
      <path d="M 31 75.875 
Q 24.46875 64.65625 21.28125 53.65625 
Q 18.109375 42.671875 18.109375 31.390625 
Q 18.109375 20.125 21.3125 9.0625 
Q 24.515625 -2 31 -13.1875 
L 23.1875 -13.1875 
Q 15.875 -1.703125 12.234375 9.375 
Q 8.59375 20.453125 8.59375 31.390625 
Q 8.59375 42.28125 12.203125 53.3125 
Q 15.828125 64.359375 23.1875 75.875 
z
" id="DejaVuSans-40"/>
      <path d="M 8.015625 75.875 
L 15.828125 75.875 
Q 23.140625 64.359375 26.78125 53.3125 
Q 30.421875 42.28125 30.421875 31.390625 
Q 30.421875 20.453125 26.78125 9.375 
Q 23.140625 -1.703125 15.828125 -13.1875 
L 8.015625 -13.1875 
Q 14.5 -2 17.703125 9.0625 
Q 20.90625 20.125 20.90625 31.390625 
Q 20.90625 42.671875 17.703125 53.65625 
Q 14.5 64.65625 8.015625 75.875 
z
" id="DejaVuSans-41"/>
     </defs>
     <use xlink:href="#DejaVuSans-78"/>
     <use x="74.804688" xlink:href="#DejaVuSans-101"/>
     <use x="136.328125" xlink:href="#DejaVuSans-119"/>
     <use x="218.115234" xlink:href="#DejaVuSans-32"/>
     <use x="249.902344" xlink:href="#DejaVuSans-97"/>
     <use x="311.181641" xlink:href="#DejaVuSans-100"/>
     <use x="374.658203" xlink:href="#DejaVuSans-109"/>
     <use x="472.070312" xlink:href="#DejaVuSans-105"/>
     <use x="499.853516" xlink:href="#DejaVuSans-115"/>
     <use x="551.953125" xlink:href="#DejaVuSans-115"/>
     <use x="604.052734" xlink:href="#DejaVuSans-105"/>
     <use x="631.835938" xlink:href="#DejaVuSans-111"/>
     <use x="693.017578" xlink:href="#DejaVuSans-110"/>
     <use x="756.396484" xlink:href="#DejaVuSans-115"/>
     <use x="808.496094" xlink:href="#DejaVuSans-32"/>
     <use x="840.283203" xlink:href="#DejaVuSans-112"/>
     <use x="903.759766" xlink:href="#DejaVuSans-101"/>
     <use x="965.283203" xlink:href="#DejaVuSans-114"/>
     <use x="1006.396484" xlink:href="#DejaVuSans-32"/>
     <use x="1038.183594" xlink:href="#DejaVuSans-109"/>
     <use x="1135.595703" xlink:href="#DejaVuSans-105"/>
     <use x="1163.378906" xlink:href="#DejaVuSans-108"/>
     <use x="1191.162109" xlink:href="#DejaVuSans-108"/>
     <use x="1218.945312" xlink:href="#DejaVuSans-105"/>
     <use x="1246.728516" xlink:href="#DejaVuSans-111"/>
     <use x="1307.910156" xlink:href="#DejaVuSans-110"/>
     <use x="1371.289062" xlink:href="#DejaVuSans-32"/>
     <use x="1403.076172" xlink:href="#DejaVuSans-112"/>
     <use x="1466.552734" xlink:href="#DejaVuSans-101"/>
     <use x="1528.076172" xlink:href="#DejaVuSans-111"/>
     <use x="1589.257812" xlink:href="#DejaVuSans-112"/>
     <use x="1652.734375" xlink:href="#DejaVuSans-108"/>
     <use x="1680.517578" xlink:href="#DejaVuSans-101"/>
     <use x="1742.041016" xlink:href="#DejaVuSans-32"/>
     <use x="1773.828125" xlink:href="#DejaVuSans-98"/>
     <use x="1837.304688" xlink:href="#DejaVuSans-121"/>
     <use x="1896.484375" xlink:href="#DejaVuSans-32"/>
     <use x="1928.271484" xlink:href="#DejaVuSans-78"/>
     <use x="2003.076172" xlink:href="#DejaVuSans-72"/>
     <use x="2078.271484" xlink:href="#DejaVuSans-83"/>
     <use x="2141.748047" xlink:href="#DejaVuSans-32"/>
     <use x="2173.535156" xlink:href="#DejaVuSans-114"/>
     <use x="2212.398438" xlink:href="#DejaVuSans-101"/>
     <use x="2273.921875" xlink:href="#DejaVuSans-103"/>
     <use x="2337.398438" xlink:href="#DejaVuSans-105"/>
     <use x="2365.181641" xlink:href="#DejaVuSans-111"/>
     <use x="2426.363281" xlink:href="#DejaVuSans-110"/>
     <use x="2489.742188" xlink:href="#DejaVuSans-32"/>
     <use x="2521.529297" xlink:href="#DejaVuSans-40"/>
     <use x="2560.542969" xlink:href="#DejaVuSans-55"/>
     <use x="2624.166016" xlink:href="#DejaVuSans-32"/>
     <use x="2655.953125" xlink:href="#DejaVuSans-100"/>
     <use x="2719.429688" xlink:href="#DejaVuSans-97"/>
     <use x="2780.708984" xlink:href="#DejaVuSans-121"/>
     <use x="2839.888672" xlink:href="#DejaVuSans-32"/>
     <use x="2871.675781" xlink:href="#DejaVuSans-114"/>
     <use x="2910.539062" xlink:href="#DejaVuSans-111"/>
     <use x="2971.720703" xlink:href="#DejaVuSans-108"/>
     <use x="2999.503906" xlink:href="#DejaVuSans-108"/>
     <use x="3027.287109" xlink:href="#DejaVuSans-105"/>
     <use x="3055.070312" xlink:href="#DejaVuSans-110"/>
     <use x="3118.449219" xlink:href="#DejaVuSans-103"/>
     <use x="3181.925781" xlink:href="#DejaVuSans-41"/>
    </g>
   </g>
   <g id="legend_1">
    <g id="patch_7">
     <path d="M 155.344531 152.225 
L 310.405469 152.225 
Q 312.405469 152.225 312.405469 150.225 
L 312.405469 33.8 
Q 312.405469 31.8 310.405469 31.8 
L 155.344531 31.8 
Q 153.344531 31.8 153.344531 33.8 
L 153.344531 150.225 
Q 153.344531 152.225 155.344531 152.225 
z
" style="fill:#ffffff;opacity:0.8;stroke:#cccccc;stroke-linejoin:miter;"/>
    </g>
    <g id="text_17">
     <!-- NHS region -->
     <g transform="translate(204.8 43.398437)scale(0.1 -0.1)">
      <use xlink:href="#DejaVuSans-78"/>
      <use x="74.804688" xlink:href="#DejaVuSans-72"/>
      <use x="150" xlink:href="#DejaVuSans-83"/>
      <use x="213.476562" xlink:href="#DejaVuSans-32"/>
      <use x="245.263672" xlink:href="#DejaVuSans-114"/>
      <use x="284.126953" xlink:href="#DejaVuSans-101"/>
      <use x="345.650391" xlink:href="#DejaVuSans-103"/>
      <use x="409.126953" xlink:href="#DejaVuSans-105"/>
      <use x="436.910156" xlink:href="#DejaVuSans-111"/>
      <use x="498.091797" xlink:href="#DejaVuSans-110"/>
     </g>
    </g>
    <g id="line2d_28">
     <path d="M 157.344531 54.576562 
L 177.344531 54.576562 
" style="fill:none;stroke:#1f77b4;stroke-linecap:square;stroke-width:1.5;"/>
    </g>
    <g id="line2d_29"/>
    <g id="text_18">
     <!-- South West -->
     <g transform="translate(185.344531 58.076562)scale(0.1 -0.1)">
      <defs>
       <path d="M 54.890625 33.015625 
L 54.890625 0 
L 45.90625 0 
L 45.90625 32.71875 
Q 45.90625 40.484375 42.875 44.328125 
Q 39.84375 48.1875 33.796875 48.1875 
Q 26.515625 48.1875 22.3125 43.546875 
Q 18.109375 38.921875 18.109375 30.90625 
L 18.109375 0 
L 9.078125 0 
L 9.078125 75.984375 
L 18.109375 75.984375 
L 18.109375 46.1875 
Q 21.34375 51.125 25.703125 53.5625 
Q 30.078125 56 35.796875 56 
Q 45.21875 56 50.046875 50.171875 
Q 54.890625 44.34375 54.890625 33.015625 
z
" id="DejaVuSans-104"/>
       <path d="M 3.328125 72.90625 
L 13.28125 72.90625 
L 28.609375 11.28125 
L 43.890625 72.90625 
L 54.984375 72.90625 
L 70.3125 11.28125 
L 85.59375 72.90625 
L 95.609375 72.90625 
L 77.296875 0 
L 64.890625 0 
L 49.515625 63.28125 
L 33.984375 0 
L 21.578125 0 
z
" id="DejaVuSans-87"/>
      </defs>
      <use xlink:href="#DejaVuSans-83"/>
      <use x="63.476562" xlink:href="#DejaVuSans-111"/>
      <use x="124.658203" xlink:href="#DejaVuSans-117"/>
      <use x="188.037109" xlink:href="#DejaVuSans-116"/>
      <use x="227.246094" xlink:href="#DejaVuSans-104"/>
      <use x="290.625" xlink:href="#DejaVuSans-32"/>
      <use x="322.412109" xlink:href="#DejaVuSans-87"/>
      <use x="415.414062" xlink:href="#DejaVuSans-101"/>
      <use x="476.9375" xlink:href="#DejaVuSans-115"/>
      <use x="529.037109" xlink:href="#DejaVuSans-116"/>
     </g>
    </g>
    <g id="line2d_30">
     <path d="M 157.344531 69.254687 
L 177.344531 69.254687 
" style="fill:none;stroke:#ff7f0e;stroke-linecap:square;stroke-width:1.5;"/>
    </g>
    <g id="line2d_31"/>
    <g id="text_19">
     <!-- South East -->
     <g transform="translate(185.344531 72.754687)scale(0.1 -0.1)">
      <defs>
       <path d="M 9.8125 72.90625 
L 55.90625 72.90625 
L 55.90625 64.59375 
L 19.671875 64.59375 
L 19.671875 43.015625 
L 54.390625 43.015625 
L 54.390625 34.71875 
L 19.671875 34.71875 
L 19.671875 8.296875 
L 56.78125 8.296875 
L 56.78125 0 
L 9.8125 0 
z
" id="DejaVuSans-69"/>
      </defs>
      <use xlink:href="#DejaVuSans-83"/>
      <use x="63.476562" xlink:href="#DejaVuSans-111"/>
      <use x="124.658203" xlink:href="#DejaVuSans-117"/>
      <use x="188.037109" xlink:href="#DejaVuSans-116"/>
      <use x="227.246094" xlink:href="#DejaVuSans-104"/>
      <use x="290.625" xlink:href="#DejaVuSans-32"/>
      <use x="322.412109" xlink:href="#DejaVuSans-69"/>
      <use x="385.595703" xlink:href="#DejaVuSans-97"/>
      <use x="446.875" xlink:href="#DejaVuSans-115"/>
      <use x="498.974609" xlink:href="#DejaVuSans-116"/>
     </g>
    </g>
    <g id="line2d_32">
     <path d="M 157.344531 83.932812 
L 177.344531 83.932812 
" style="fill:none;stroke:#2ca02c;stroke-linecap:square;stroke-width:1.5;"/>
    </g>
    <g id="line2d_33"/>
    <g id="text_20">
     <!-- Midlands -->
     <g transform="translate(185.344531 87.432812)scale(0.1 -0.1)">
      <defs>
       <path d="M 9.8125 72.90625 
L 24.515625 72.90625 
L 43.109375 23.296875 
L 61.8125 72.90625 
L 76.515625 72.90625 
L 76.515625 0 
L 66.890625 0 
L 66.890625 64.015625 
L 48.09375 14.015625 
L 38.1875 14.015625 
L 19.390625 64.015625 
L 19.390625 0 
L 9.8125 0 
z
" id="DejaVuSans-77"/>
      </defs>
      <use xlink:href="#DejaVuSans-77"/>
      <use x="86.279297" xlink:href="#DejaVuSans-105"/>
      <use x="114.0625" xlink:href="#DejaVuSans-100"/>
      <use x="177.539062" xlink:href="#DejaVuSans-108"/>
      <use x="205.322266" xlink:href="#DejaVuSans-97"/>
      <use x="266.601562" xlink:href="#DejaVuSans-110"/>
      <use x="329.980469" xlink:href="#DejaVuSans-100"/>
      <use x="393.457031" xlink:href="#DejaVuSans-115"/>
     </g>
    </g>
    <g id="line2d_34">
     <path d="M 157.344531 98.610937 
L 177.344531 98.610937 
" style="fill:none;stroke:#d62728;stroke-linecap:square;stroke-width:1.5;"/>
    </g>
    <g id="line2d_35"/>
    <g id="text_21">
     <!-- North East and Yorkshire -->
     <g transform="translate(185.344531 102.110937)scale(0.1 -0.1)">
      <defs>
       <path d="M -0.203125 72.90625 
L 10.40625 72.90625 
L 30.609375 42.921875 
L 50.6875 72.90625 
L 61.28125 72.90625 
L 35.5 34.71875 
L 35.5 0 
L 25.59375 0 
L 25.59375 34.71875 
z
" id="DejaVuSans-89"/>
       <path d="M 9.078125 75.984375 
L 18.109375 75.984375 
L 18.109375 31.109375 
L 44.921875 54.6875 
L 56.390625 54.6875 
L 27.390625 29.109375 
L 57.625 0 
L 45.90625 0 
L 18.109375 26.703125 
L 18.109375 0 
L 9.078125 0 
z
" id="DejaVuSans-107"/>
      </defs>
      <use xlink:href="#DejaVuSans-78"/>
      <use x="74.804688" xlink:href="#DejaVuSans-111"/>
      <use x="135.986328" xlink:href="#DejaVuSans-114"/>
      <use x="177.099609" xlink:href="#DejaVuSans-116"/>
      <use x="216.308594" xlink:href="#DejaVuSans-104"/>
      <use x="279.6875" xlink:href="#DejaVuSans-32"/>
      <use x="311.474609" xlink:href="#DejaVuSans-69"/>
      <use x="374.658203" xlink:href="#DejaVuSans-97"/>
      <use x="435.9375" xlink:href="#DejaVuSans-115"/>
      <use x="488.037109" xlink:href="#DejaVuSans-116"/>
      <use x="527.246094" xlink:href="#DejaVuSans-32"/>
      <use x="559.033203" xlink:href="#DejaVuSans-97"/>
      <use x="620.3125" xlink:href="#DejaVuSans-110"/>
      <use x="683.691406" xlink:href="#DejaVuSans-100"/>
      <use x="747.167969" xlink:href="#DejaVuSans-32"/>
      <use x="778.955078" xlink:href="#DejaVuSans-89"/>
      <use x="826.789062" xlink:href="#DejaVuSans-111"/>
      <use x="887.970703" xlink:href="#DejaVuSans-114"/>
      <use x="929.083984" xlink:href="#DejaVuSans-107"/>
      <use x="986.994141" xlink:href="#DejaVuSans-115"/>
      <use x="1039.09375" xlink:href="#DejaVuSans-104"/>
      <use x="1102.472656" xlink:href="#DejaVuSans-105"/>
      <use x="1130.255859" xlink:href="#DejaVuSans-114"/>
      <use x="1169.119141" xlink:href="#DejaVuSans-101"/>
     </g>
    </g>
    <g id="line2d_36">
     <path d="M 157.344531 113.289062 
L 177.344531 113.289062 
" style="fill:none;stroke:#9467bd;stroke-linecap:square;stroke-width:1.5;"/>
    </g>
    <g id="line2d_37"/>
    <g id="text_22">
     <!-- North West -->
     <g transform="translate(185.344531 116.789062)scale(0.1 -0.1)">
      <use xlink:href="#DejaVuSans-78"/>
      <use x="74.804688" xlink:href="#DejaVuSans-111"/>
      <use x="135.986328" xlink:href="#DejaVuSans-114"/>
      <use x="177.099609" xlink:href="#DejaVuSans-116"/>
      <use x="216.308594" xlink:href="#DejaVuSans-104"/>
      <use x="279.6875" xlink:href="#DejaVuSans-32"/>
      <use x="311.474609" xlink:href="#DejaVuSans-87"/>
      <use x="404.476562" xlink:href="#DejaVuSans-101"/>
      <use x="466" xlink:href="#DejaVuSans-115"/>
      <use x="518.099609" xlink:href="#DejaVuSans-116"/>
     </g>
    </g>
    <g id="line2d_38">
     <path d="M 157.344531 127.967187 
L 177.344531 127.967187 
" style="fill:none;stroke:#8c564b;stroke-linecap:square;stroke-width:1.5;"/>
    </g>
    <g id="line2d_39"/>
    <g id="text_23">
     <!-- London -->
     <g transform="translate(185.344531 131.467187)scale(0.1 -0.1)">
      <defs>
       <path d="M 9.8125 72.90625 
L 19.671875 72.90625 
L 19.671875 8.296875 
L 55.171875 8.296875 
L 55.171875 0 
L 9.8125 0 
z
" id="DejaVuSans-76"/>
      </defs>
      <use xlink:href="#DejaVuSans-76"/>
      <use x="53.962891" xlink:href="#DejaVuSans-111"/>
      <use x="115.144531" xlink:href="#DejaVuSans-110"/>
      <use x="178.523438" xlink:href="#DejaVuSans-100"/>
      <use x="242" xlink:href="#DejaVuSans-111"/>
      <use x="303.181641" xlink:href="#DejaVuSans-110"/>
     </g>
    </g>
    <g id="line2d_40">
     <path d="M 157.344531 142.645312 
L 177.344531 142.645312 
" style="fill:none;stroke:#e377c2;stroke-linecap:square;stroke-width:1.5;"/>
    </g>
    <g id="line2d_41"/>
    <g id="text_24">
     <!-- East of England -->
     <g transform="translate(185.344531 146.145312)scale(0.1 -0.1)">
      <defs>
       <path d="M 37.109375 75.984375 
L 37.109375 68.5 
L 28.515625 68.5 
Q 23.6875 68.5 21.796875 66.546875 
Q 19.921875 64.59375 19.921875 59.515625 
L 19.921875 54.6875 
L 34.71875 54.6875 
L 34.71875 47.703125 
L 19.921875 47.703125 
L 19.921875 0 
L 10.890625 0 
L 10.890625 47.703125 
L 2.296875 47.703125 
L 2.296875 54.6875 
L 10.890625 54.6875 
L 10.890625 58.5 
Q 10.890625 67.625 15.140625 71.796875 
Q 19.390625 75.984375 28.609375 75.984375 
z
" id="DejaVuSans-102"/>
      </defs>
      <use xlink:href="#DejaVuSans-69"/>
      <use x="63.183594" xlink:href="#DejaVuSans-97"/>
      <use x="124.462891" xlink:href="#DejaVuSans-115"/>
      <use x="176.5625" xlink:href="#DejaVuSans-116"/>
      <use x="215.771484" xlink:href="#DejaVuSans-32"/>
      <use x="247.558594" xlink:href="#DejaVuSans-111"/>
      <use x="308.740234" xlink:href="#DejaVuSans-102"/>
      <use x="343.945312" xlink:href="#DejaVuSans-32"/>
      <use x="375.732422" xlink:href="#DejaVuSans-69"/>
      <use x="438.916016" xlink:href="#DejaVuSans-110"/>
      <use x="502.294922" xlink:href="#DejaVuSans-103"/>
      <use x="565.771484" xlink:href="#DejaVuSans-108"/>
      <use x="593.554688" xlink:href="#DejaVuSans-97"/>
      <use x="654.833984" xlink:href="#DejaVuSans-110"/>
      <use x="718.212891" xlink:href="#DejaVuSans-100"/>
     </g>
    </g>
   </g>
  </g>
 </g>
 <defs>
  <clipPath id="pfe1e8bcb1e">
   <rect height="199.802246" width="376.65" x="44.55" y="26.8"/>
  </clipPath>
 </defs>
</svg>
