<?xml version="1.0" encoding="utf-8" standalone="no"?>
<!DOCTYPE svg PUBLIC "-//W3C//DTD SVG 1.1//EN"
  "http://www.w3.org/Graphics/SVG/1.1/DTD/svg11.dtd">
<!-- Created with matplotlib (https://matplotlib.org/) -->
<svg height="288pt" version="1.1" viewBox="0 0 432 288" width="432pt" xmlns="http://www.w3.org/2000/svg" xmlns:xlink="http://www.w3.org/1999/xlink">
 <metadata>
  <rdf:RDF xmlns:cc="http://creativecommons.org/ns#" xmlns:dc="http://purl.org/dc/elements/1.1/" xmlns:rdf="http://www.w3.org/1999/02/22-rdf-syntax-ns#">
   <cc:Work>
    <dc:type rdf:resource="http://purl.org/dc/dcmitype/StillImage"/>
    <dc:date>2020-11-09T21:16:01.170730</dc:date>
    <dc:format>image/svg+xml</dc:format>
    <dc:creator>
     <cc:Agent>
      <dc:title>Matplotlib v3.3.2, https://matplotlib.org/</dc:title>
     </cc:Agent>
    </dc:creator>
   </cc:Work>
  </rdf:RDF>
 </metadata>
 <defs>
  <style type="text/css">*{stroke-linecap:butt;stroke-linejoin:round;}</style>
 </defs>
 <g id="figure_1">
  <g id="patch_1">
   <path d="M 0 288 
L 432 288 
L 432 0 
L 0 0 
z
" style="fill:none;"/>
  </g>
  <g id="axes_1">
   <g id="patch_2">
    <path d="M 44.55 246.2 
L 421.2 246.2 
L 421.2 26.8 
L 44.55 26.8 
z
" style="fill:#ffffff;"/>
   </g>
   <g id="matplotlib.axis_1">
    <g id="xtick_1">
     <g id="line2d_1">
      <defs>
       <path d="M 0 0 
L 0 3.5 
" id="m7ac50d53a2" style="stroke:#000000;stroke-width:0.8;"/>
      </defs>
      <g>
       <use style="stroke:#000000;stroke-width:0.8;" x="80.774824" xlink:href="#m7ac50d53a2" y="246.2"/>
      </g>
     </g>
     <g id="text_1">
      <!-- 2020-04 -->
      <g transform="translate(59.883418 260.798437)scale(0.1 -0.1)">
       <defs>
        <path d="M 19.1875 8.296875 
L 53.609375 8.296875 
L 53.609375 0 
L 7.328125 0 
L 7.328125 8.296875 
Q 12.9375 14.109375 22.625 23.890625 
Q 32.328125 33.6875 34.8125 36.53125 
Q 39.546875 41.84375 41.421875 45.53125 
Q 43.3125 49.21875 43.3125 52.78125 
Q 43.3125 58.59375 39.234375 62.25 
Q 35.15625 65.921875 28.609375 65.921875 
Q 23.96875 65.921875 18.8125 64.3125 
Q 13.671875 62.703125 7.8125 59.421875 
L 7.8125 69.390625 
Q 13.765625 71.78125 18.9375 73 
Q 24.125 74.21875 28.421875 74.21875 
Q 39.75 74.21875 46.484375 68.546875 
Q 53.21875 62.890625 53.21875 53.421875 
Q 53.21875 48.921875 51.53125 44.890625 
Q 49.859375 40.875 45.40625 35.40625 
Q 44.1875 33.984375 37.640625 27.21875 
Q 31.109375 20.453125 19.1875 8.296875 
z
" id="DejaVuSans-50"/>
        <path d="M 31.78125 66.40625 
Q 24.171875 66.40625 20.328125 58.90625 
Q 16.5 51.421875 16.5 36.375 
Q 16.5 21.390625 20.328125 13.890625 
Q 24.171875 6.390625 31.78125 6.390625 
Q 39.453125 6.390625 43.28125 13.890625 
Q 47.125 21.390625 47.125 36.375 
Q 47.125 51.421875 43.28125 58.90625 
Q 39.453125 66.40625 31.78125 66.40625 
z
M 31.78125 74.21875 
Q 44.046875 74.21875 50.515625 64.515625 
Q 56.984375 54.828125 56.984375 36.375 
Q 56.984375 17.96875 50.515625 8.265625 
Q 44.046875 -1.421875 31.78125 -1.421875 
Q 19.53125 -1.421875 13.0625 8.265625 
Q 6.59375 17.96875 6.59375 36.375 
Q 6.59375 54.828125 13.0625 64.515625 
Q 19.53125 74.21875 31.78125 74.21875 
z
" id="DejaVuSans-48"/>
        <path d="M 4.890625 31.390625 
L 31.203125 31.390625 
L 31.203125 23.390625 
L 4.890625 23.390625 
z
" id="DejaVuSans-45"/>
        <path d="M 37.796875 64.3125 
L 12.890625 25.390625 
L 37.796875 25.390625 
z
M 35.203125 72.90625 
L 47.609375 72.90625 
L 47.609375 25.390625 
L 58.015625 25.390625 
L 58.015625 17.1875 
L 47.609375 17.1875 
L 47.609375 0 
L 37.796875 0 
L 37.796875 17.1875 
L 4.890625 17.1875 
L 4.890625 26.703125 
z
" id="DejaVuSans-52"/>
       </defs>
       <use xlink:href="#DejaVuSans-50"/>
       <use x="63.623047" xlink:href="#DejaVuSans-48"/>
       <use x="127.246094" xlink:href="#DejaVuSans-50"/>
       <use x="190.869141" xlink:href="#DejaVuSans-48"/>
       <use x="254.492188" xlink:href="#DejaVuSans-45"/>
       <use x="290.576172" xlink:href="#DejaVuSans-48"/>
       <use x="354.199219" xlink:href="#DejaVuSans-52"/>
      </g>
     </g>
    </g>
    <g id="xtick_2">
     <g id="line2d_2">
      <g>
       <use style="stroke:#000000;stroke-width:0.8;" x="124.861832" xlink:href="#m7ac50d53a2" y="246.2"/>
      </g>
     </g>
     <g id="text_2">
      <!-- 2020-05 -->
      <g transform="translate(103.970426 260.798437)scale(0.1 -0.1)">
       <defs>
        <path d="M 10.796875 72.90625 
L 49.515625 72.90625 
L 49.515625 64.59375 
L 19.828125 64.59375 
L 19.828125 46.734375 
Q 21.96875 47.46875 24.109375 47.828125 
Q 26.265625 48.1875 28.421875 48.1875 
Q 40.625 48.1875 47.75 41.5 
Q 54.890625 34.8125 54.890625 23.390625 
Q 54.890625 11.625 47.5625 5.09375 
Q 40.234375 -1.421875 26.90625 -1.421875 
Q 22.3125 -1.421875 17.546875 -0.640625 
Q 12.796875 0.140625 7.71875 1.703125 
L 7.71875 11.625 
Q 12.109375 9.234375 16.796875 8.0625 
Q 21.484375 6.890625 26.703125 6.890625 
Q 35.15625 6.890625 40.078125 11.328125 
Q 45.015625 15.765625 45.015625 23.390625 
Q 45.015625 31 40.078125 35.4375 
Q 35.15625 39.890625 26.703125 39.890625 
Q 22.75 39.890625 18.8125 39.015625 
Q 14.890625 38.140625 10.796875 36.28125 
z
" id="DejaVuSans-53"/>
       </defs>
       <use xlink:href="#DejaVuSans-50"/>
       <use x="63.623047" xlink:href="#DejaVuSans-48"/>
       <use x="127.246094" xlink:href="#DejaVuSans-50"/>
       <use x="190.869141" xlink:href="#DejaVuSans-48"/>
       <use x="254.492188" xlink:href="#DejaVuSans-45"/>
       <use x="290.576172" xlink:href="#DejaVuSans-48"/>
       <use x="354.199219" xlink:href="#DejaVuSans-53"/>
      </g>
     </g>
    </g>
    <g id="xtick_3">
     <g id="line2d_3">
      <g>
       <use style="stroke:#000000;stroke-width:0.8;" x="170.418406" xlink:href="#m7ac50d53a2" y="246.2"/>
      </g>
     </g>
     <g id="text_3">
      <!-- 2020-06 -->
      <g transform="translate(149.527 260.798437)scale(0.1 -0.1)">
       <defs>
        <path d="M 33.015625 40.375 
Q 26.375 40.375 22.484375 35.828125 
Q 18.609375 31.296875 18.609375 23.390625 
Q 18.609375 15.53125 22.484375 10.953125 
Q 26.375 6.390625 33.015625 6.390625 
Q 39.65625 6.390625 43.53125 10.953125 
Q 47.40625 15.53125 47.40625 23.390625 
Q 47.40625 31.296875 43.53125 35.828125 
Q 39.65625 40.375 33.015625 40.375 
z
M 52.59375 71.296875 
L 52.59375 62.3125 
Q 48.875 64.0625 45.09375 64.984375 
Q 41.3125 65.921875 37.59375 65.921875 
Q 27.828125 65.921875 22.671875 59.328125 
Q 17.53125 52.734375 16.796875 39.40625 
Q 19.671875 43.65625 24.015625 45.921875 
Q 28.375 48.1875 33.59375 48.1875 
Q 44.578125 48.1875 50.953125 41.515625 
Q 57.328125 34.859375 57.328125 23.390625 
Q 57.328125 12.15625 50.6875 5.359375 
Q 44.046875 -1.421875 33.015625 -1.421875 
Q 20.359375 -1.421875 13.671875 8.265625 
Q 6.984375 17.96875 6.984375 36.375 
Q 6.984375 53.65625 15.1875 63.9375 
Q 23.390625 74.21875 37.203125 74.21875 
Q 40.921875 74.21875 44.703125 73.484375 
Q 48.484375 72.75 52.59375 71.296875 
z
" id="DejaVuSans-54"/>
       </defs>
       <use xlink:href="#DejaVuSans-50"/>
       <use x="63.623047" xlink:href="#DejaVuSans-48"/>
       <use x="127.246094" xlink:href="#DejaVuSans-50"/>
       <use x="190.869141" xlink:href="#DejaVuSans-48"/>
       <use x="254.492188" xlink:href="#DejaVuSans-45"/>
       <use x="290.576172" xlink:href="#DejaVuSans-48"/>
       <use x="354.199219" xlink:href="#DejaVuSans-54"/>
      </g>
     </g>
    </g>
    <g id="xtick_4">
     <g id="line2d_4">
      <g>
       <use style="stroke:#000000;stroke-width:0.8;" x="214.505414" xlink:href="#m7ac50d53a2" y="246.2"/>
      </g>
     </g>
     <g id="text_4">
      <!-- 2020-07 -->
      <g transform="translate(193.614007 260.798437)scale(0.1 -0.1)">
       <defs>
        <path d="M 8.203125 72.90625 
L 55.078125 72.90625 
L 55.078125 68.703125 
L 28.609375 0 
L 18.3125 0 
L 43.21875 64.59375 
L 8.203125 64.59375 
z
" id="DejaVuSans-55"/>
       </defs>
       <use xlink:href="#DejaVuSans-50"/>
       <use x="63.623047" xlink:href="#DejaVuSans-48"/>
       <use x="127.246094" xlink:href="#DejaVuSans-50"/>
       <use x="190.869141" xlink:href="#DejaVuSans-48"/>
       <use x="254.492188" xlink:href="#DejaVuSans-45"/>
       <use x="290.576172" xlink:href="#DejaVuSans-48"/>
       <use x="354.199219" xlink:href="#DejaVuSans-55"/>
      </g>
     </g>
    </g>
    <g id="xtick_5">
     <g id="line2d_5">
      <g>
       <use style="stroke:#000000;stroke-width:0.8;" x="260.061988" xlink:href="#m7ac50d53a2" y="246.2"/>
      </g>
     </g>
     <g id="text_5">
      <!-- 2020-08 -->
      <g transform="translate(239.170582 260.798437)scale(0.1 -0.1)">
       <defs>
        <path d="M 31.78125 34.625 
Q 24.75 34.625 20.71875 30.859375 
Q 16.703125 27.09375 16.703125 20.515625 
Q 16.703125 13.921875 20.71875 10.15625 
Q 24.75 6.390625 31.78125 6.390625 
Q 38.8125 6.390625 42.859375 10.171875 
Q 46.921875 13.96875 46.921875 20.515625 
Q 46.921875 27.09375 42.890625 30.859375 
Q 38.875 34.625 31.78125 34.625 
z
M 21.921875 38.8125 
Q 15.578125 40.375 12.03125 44.71875 
Q 8.5 49.078125 8.5 55.328125 
Q 8.5 64.0625 14.71875 69.140625 
Q 20.953125 74.21875 31.78125 74.21875 
Q 42.671875 74.21875 48.875 69.140625 
Q 55.078125 64.0625 55.078125 55.328125 
Q 55.078125 49.078125 51.53125 44.71875 
Q 48 40.375 41.703125 38.8125 
Q 48.828125 37.15625 52.796875 32.3125 
Q 56.78125 27.484375 56.78125 20.515625 
Q 56.78125 9.90625 50.3125 4.234375 
Q 43.84375 -1.421875 31.78125 -1.421875 
Q 19.734375 -1.421875 13.25 4.234375 
Q 6.78125 9.90625 6.78125 20.515625 
Q 6.78125 27.484375 10.78125 32.3125 
Q 14.796875 37.15625 21.921875 38.8125 
z
M 18.3125 54.390625 
Q 18.3125 48.734375 21.84375 45.5625 
Q 25.390625 42.390625 31.78125 42.390625 
Q 38.140625 42.390625 41.71875 45.5625 
Q 45.3125 48.734375 45.3125 54.390625 
Q 45.3125 60.0625 41.71875 63.234375 
Q 38.140625 66.40625 31.78125 66.40625 
Q 25.390625 66.40625 21.84375 63.234375 
Q 18.3125 60.0625 18.3125 54.390625 
z
" id="DejaVuSans-56"/>
       </defs>
       <use xlink:href="#DejaVuSans-50"/>
       <use x="63.623047" xlink:href="#DejaVuSans-48"/>
       <use x="127.246094" xlink:href="#DejaVuSans-50"/>
       <use x="190.869141" xlink:href="#DejaVuSans-48"/>
       <use x="254.492188" xlink:href="#DejaVuSans-45"/>
       <use x="290.576172" xlink:href="#DejaVuSans-48"/>
       <use x="354.199219" xlink:href="#DejaVuSans-56"/>
      </g>
     </g>
    </g>
    <g id="xtick_6">
     <g id="line2d_6">
      <g>
       <use style="stroke:#000000;stroke-width:0.8;" x="305.618562" xlink:href="#m7ac50d53a2" y="246.2"/>
      </g>
     </g>
     <g id="text_6">
      <!-- 2020-09 -->
      <g transform="translate(284.727156 260.798437)scale(0.1 -0.1)">
       <defs>
        <path d="M 10.984375 1.515625 
L 10.984375 10.5 
Q 14.703125 8.734375 18.5 7.8125 
Q 22.3125 6.890625 25.984375 6.890625 
Q 35.75 6.890625 40.890625 13.453125 
Q 46.046875 20.015625 46.78125 33.40625 
Q 43.953125 29.203125 39.59375 26.953125 
Q 35.25 24.703125 29.984375 24.703125 
Q 19.046875 24.703125 12.671875 31.3125 
Q 6.296875 37.9375 6.296875 49.421875 
Q 6.296875 60.640625 12.9375 67.421875 
Q 19.578125 74.21875 30.609375 74.21875 
Q 43.265625 74.21875 49.921875 64.515625 
Q 56.59375 54.828125 56.59375 36.375 
Q 56.59375 19.140625 48.40625 8.859375 
Q 40.234375 -1.421875 26.421875 -1.421875 
Q 22.703125 -1.421875 18.890625 -0.6875 
Q 15.09375 0.046875 10.984375 1.515625 
z
M 30.609375 32.421875 
Q 37.25 32.421875 41.125 36.953125 
Q 45.015625 41.5 45.015625 49.421875 
Q 45.015625 57.28125 41.125 61.84375 
Q 37.25 66.40625 30.609375 66.40625 
Q 23.96875 66.40625 20.09375 61.84375 
Q 16.21875 57.28125 16.21875 49.421875 
Q 16.21875 41.5 20.09375 36.953125 
Q 23.96875 32.421875 30.609375 32.421875 
z
" id="DejaVuSans-57"/>
       </defs>
       <use xlink:href="#DejaVuSans-50"/>
       <use x="63.623047" xlink:href="#DejaVuSans-48"/>
       <use x="127.246094" xlink:href="#DejaVuSans-50"/>
       <use x="190.869141" xlink:href="#DejaVuSans-48"/>
       <use x="254.492188" xlink:href="#DejaVuSans-45"/>
       <use x="290.576172" xlink:href="#DejaVuSans-48"/>
       <use x="354.199219" xlink:href="#DejaVuSans-57"/>
      </g>
     </g>
    </g>
    <g id="xtick_7">
     <g id="line2d_7">
      <g>
       <use style="stroke:#000000;stroke-width:0.8;" x="349.70557" xlink:href="#m7ac50d53a2" y="246.2"/>
      </g>
     </g>
     <g id="text_7">
      <!-- 2020-10 -->
      <g transform="translate(328.814163 260.798437)scale(0.1 -0.1)">
       <defs>
        <path d="M 12.40625 8.296875 
L 28.515625 8.296875 
L 28.515625 63.921875 
L 10.984375 60.40625 
L 10.984375 69.390625 
L 28.421875 72.90625 
L 38.28125 72.90625 
L 38.28125 8.296875 
L 54.390625 8.296875 
L 54.390625 0 
L 12.40625 0 
z
" id="DejaVuSans-49"/>
       </defs>
       <use xlink:href="#DejaVuSans-50"/>
       <use x="63.623047" xlink:href="#DejaVuSans-48"/>
       <use x="127.246094" xlink:href="#DejaVuSans-50"/>
       <use x="190.869141" xlink:href="#DejaVuSans-48"/>
       <use x="254.492188" xlink:href="#DejaVuSans-45"/>
       <use x="290.576172" xlink:href="#DejaVuSans-49"/>
       <use x="354.199219" xlink:href="#DejaVuSans-48"/>
      </g>
     </g>
    </g>
    <g id="xtick_8">
     <g id="line2d_8">
      <g>
       <use style="stroke:#000000;stroke-width:0.8;" x="395.262144" xlink:href="#m7ac50d53a2" y="246.2"/>
      </g>
     </g>
     <g id="text_8">
      <!-- 2020-11 -->
      <g transform="translate(374.370738 260.798437)scale(0.1 -0.1)">
       <use xlink:href="#DejaVuSans-50"/>
       <use x="63.623047" xlink:href="#DejaVuSans-48"/>
       <use x="127.246094" xlink:href="#DejaVuSans-50"/>
       <use x="190.869141" xlink:href="#DejaVuSans-48"/>
       <use x="254.492188" xlink:href="#DejaVuSans-45"/>
       <use x="290.576172" xlink:href="#DejaVuSans-49"/>
       <use x="354.199219" xlink:href="#DejaVuSans-49"/>
      </g>
     </g>
    </g>
    <g id="text_9">
     <!-- Date -->
     <g transform="translate(220.924219 274.476562)scale(0.1 -0.1)">
      <defs>
       <path d="M 19.671875 64.796875 
L 19.671875 8.109375 
L 31.59375 8.109375 
Q 46.6875 8.109375 53.6875 14.9375 
Q 60.6875 21.78125 60.6875 36.53125 
Q 60.6875 51.171875 53.6875 57.984375 
Q 46.6875 64.796875 31.59375 64.796875 
z
M 9.8125 72.90625 
L 30.078125 72.90625 
Q 51.265625 72.90625 61.171875 64.09375 
Q 71.09375 55.28125 71.09375 36.53125 
Q 71.09375 17.671875 61.125 8.828125 
Q 51.171875 0 30.078125 0 
L 9.8125 0 
z
" id="DejaVuSans-68"/>
       <path d="M 34.28125 27.484375 
Q 23.390625 27.484375 19.1875 25 
Q 14.984375 22.515625 14.984375 16.5 
Q 14.984375 11.71875 18.140625 8.90625 
Q 21.296875 6.109375 26.703125 6.109375 
Q 34.1875 6.109375 38.703125 11.40625 
Q 43.21875 16.703125 43.21875 25.484375 
L 43.21875 27.484375 
z
M 52.203125 31.203125 
L 52.203125 0 
L 43.21875 0 
L 43.21875 8.296875 
Q 40.140625 3.328125 35.546875 0.953125 
Q 30.953125 -1.421875 24.3125 -1.421875 
Q 15.921875 -1.421875 10.953125 3.296875 
Q 6 8.015625 6 15.921875 
Q 6 25.140625 12.171875 29.828125 
Q 18.359375 34.515625 30.609375 34.515625 
L 43.21875 34.515625 
L 43.21875 35.40625 
Q 43.21875 41.609375 39.140625 45 
Q 35.0625 48.390625 27.6875 48.390625 
Q 23 48.390625 18.546875 47.265625 
Q 14.109375 46.140625 10.015625 43.890625 
L 10.015625 52.203125 
Q 14.9375 54.109375 19.578125 55.046875 
Q 24.21875 56 28.609375 56 
Q 40.484375 56 46.34375 49.84375 
Q 52.203125 43.703125 52.203125 31.203125 
z
" id="DejaVuSans-97"/>
       <path d="M 18.3125 70.21875 
L 18.3125 54.6875 
L 36.8125 54.6875 
L 36.8125 47.703125 
L 18.3125 47.703125 
L 18.3125 18.015625 
Q 18.3125 11.328125 20.140625 9.421875 
Q 21.96875 7.515625 27.59375 7.515625 
L 36.8125 7.515625 
L 36.8125 0 
L 27.59375 0 
Q 17.1875 0 13.234375 3.875 
Q 9.28125 7.765625 9.28125 18.015625 
L 9.28125 47.703125 
L 2.6875 47.703125 
L 2.6875 54.6875 
L 9.28125 54.6875 
L 9.28125 70.21875 
z
" id="DejaVuSans-116"/>
       <path d="M 56.203125 29.59375 
L 56.203125 25.203125 
L 14.890625 25.203125 
Q 15.484375 15.921875 20.484375 11.0625 
Q 25.484375 6.203125 34.421875 6.203125 
Q 39.59375 6.203125 44.453125 7.46875 
Q 49.3125 8.734375 54.109375 11.28125 
L 54.109375 2.78125 
Q 49.265625 0.734375 44.1875 -0.34375 
Q 39.109375 -1.421875 33.890625 -1.421875 
Q 20.796875 -1.421875 13.15625 6.1875 
Q 5.515625 13.8125 5.515625 26.8125 
Q 5.515625 40.234375 12.765625 48.109375 
Q 20.015625 56 32.328125 56 
Q 43.359375 56 49.78125 48.890625 
Q 56.203125 41.796875 56.203125 29.59375 
z
M 47.21875 32.234375 
Q 47.125 39.59375 43.09375 43.984375 
Q 39.0625 48.390625 32.421875 48.390625 
Q 24.90625 48.390625 20.390625 44.140625 
Q 15.875 39.890625 15.1875 32.171875 
z
" id="DejaVuSans-101"/>
      </defs>
      <use xlink:href="#DejaVuSans-68"/>
      <use x="77.001953" xlink:href="#DejaVuSans-97"/>
      <use x="138.28125" xlink:href="#DejaVuSans-116"/>
      <use x="177.490234" xlink:href="#DejaVuSans-101"/>
     </g>
    </g>
   </g>
   <g id="matplotlib.axis_2">
    <g id="ytick_1">
     <g id="line2d_9">
      <defs>
       <path d="M 0 0 
L -3.5 0 
" id="mc6c65b5e91" style="stroke:#000000;stroke-width:0.8;"/>
      </defs>
      <g>
       <use style="stroke:#000000;stroke-width:0.8;" x="44.55" xlink:href="#mc6c65b5e91" y="236.77377"/>
      </g>
     </g>
     <g id="text_10">
      <!-- 0 -->
      <g transform="translate(31.1875 240.572989)scale(0.1 -0.1)">
       <use xlink:href="#DejaVuSans-48"/>
      </g>
     </g>
    </g>
    <g id="ytick_2">
     <g id="line2d_10">
      <g>
       <use style="stroke:#000000;stroke-width:0.8;" x="44.55" xlink:href="#mc6c65b5e91" y="188.903301"/>
      </g>
     </g>
     <g id="text_11">
      <!-- 20 -->
      <g transform="translate(24.825 192.702519)scale(0.1 -0.1)">
       <use xlink:href="#DejaVuSans-50"/>
       <use x="63.623047" xlink:href="#DejaVuSans-48"/>
      </g>
     </g>
    </g>
    <g id="ytick_3">
     <g id="line2d_11">
      <g>
       <use style="stroke:#000000;stroke-width:0.8;" x="44.55" xlink:href="#mc6c65b5e91" y="141.032831"/>
      </g>
     </g>
     <g id="text_12">
      <!-- 40 -->
      <g transform="translate(24.825 144.83205)scale(0.1 -0.1)">
       <use xlink:href="#DejaVuSans-52"/>
       <use x="63.623047" xlink:href="#DejaVuSans-48"/>
      </g>
     </g>
    </g>
    <g id="ytick_4">
     <g id="line2d_12">
      <g>
       <use style="stroke:#000000;stroke-width:0.8;" x="44.55" xlink:href="#mc6c65b5e91" y="93.162362"/>
      </g>
     </g>
     <g id="text_13">
      <!-- 60 -->
      <g transform="translate(24.825 96.961581)scale(0.1 -0.1)">
       <use xlink:href="#DejaVuSans-54"/>
       <use x="63.623047" xlink:href="#DejaVuSans-48"/>
      </g>
     </g>
    </g>
    <g id="ytick_5">
     <g id="line2d_13">
      <g>
       <use style="stroke:#000000;stroke-width:0.8;" x="44.55" xlink:href="#mc6c65b5e91" y="45.291893"/>
      </g>
     </g>
     <g id="text_14">
      <!-- 80 -->
      <g transform="translate(24.825 49.091111)scale(0.1 -0.1)">
       <use xlink:href="#DejaVuSans-56"/>
       <use x="63.623047" xlink:href="#DejaVuSans-48"/>
      </g>
     </g>
    </g>
    <g id="text_15">
     <!-- New admissions per million population -->
     <g transform="translate(18.745313 233.259375)rotate(-90)scale(0.1 -0.1)">
      <defs>
       <path d="M 9.8125 72.90625 
L 23.09375 72.90625 
L 55.421875 11.921875 
L 55.421875 72.90625 
L 64.984375 72.90625 
L 64.984375 0 
L 51.703125 0 
L 19.390625 60.984375 
L 19.390625 0 
L 9.8125 0 
z
" id="DejaVuSans-78"/>
       <path d="M 4.203125 54.6875 
L 13.1875 54.6875 
L 24.421875 12.015625 
L 35.59375 54.6875 
L 46.1875 54.6875 
L 57.421875 12.015625 
L 68.609375 54.6875 
L 77.59375 54.6875 
L 63.28125 0 
L 52.6875 0 
L 40.921875 44.828125 
L 29.109375 0 
L 18.5 0 
z
" id="DejaVuSans-119"/>
       <path id="DejaVuSans-32"/>
       <path d="M 45.40625 46.390625 
L 45.40625 75.984375 
L 54.390625 75.984375 
L 54.390625 0 
L 45.40625 0 
L 45.40625 8.203125 
Q 42.578125 3.328125 38.25 0.953125 
Q 33.9375 -1.421875 27.875 -1.421875 
Q 17.96875 -1.421875 11.734375 6.484375 
Q 5.515625 14.40625 5.515625 27.296875 
Q 5.515625 40.1875 11.734375 48.09375 
Q 17.96875 56 27.875 56 
Q 33.9375 56 38.25 53.625 
Q 42.578125 51.265625 45.40625 46.390625 
z
M 14.796875 27.296875 
Q 14.796875 17.390625 18.875 11.75 
Q 22.953125 6.109375 30.078125 6.109375 
Q 37.203125 6.109375 41.296875 11.75 
Q 45.40625 17.390625 45.40625 27.296875 
Q 45.40625 37.203125 41.296875 42.84375 
Q 37.203125 48.484375 30.078125 48.484375 
Q 22.953125 48.484375 18.875 42.84375 
Q 14.796875 37.203125 14.796875 27.296875 
z
" id="DejaVuSans-100"/>
       <path d="M 52 44.1875 
Q 55.375 50.25 60.0625 53.125 
Q 64.75 56 71.09375 56 
Q 79.640625 56 84.28125 50.015625 
Q 88.921875 44.046875 88.921875 33.015625 
L 88.921875 0 
L 79.890625 0 
L 79.890625 32.71875 
Q 79.890625 40.578125 77.09375 44.375 
Q 74.3125 48.1875 68.609375 48.1875 
Q 61.625 48.1875 57.5625 43.546875 
Q 53.515625 38.921875 53.515625 30.90625 
L 53.515625 0 
L 44.484375 0 
L 44.484375 32.71875 
Q 44.484375 40.625 41.703125 44.40625 
Q 38.921875 48.1875 33.109375 48.1875 
Q 26.21875 48.1875 22.15625 43.53125 
Q 18.109375 38.875 18.109375 30.90625 
L 18.109375 0 
L 9.078125 0 
L 9.078125 54.6875 
L 18.109375 54.6875 
L 18.109375 46.1875 
Q 21.1875 51.21875 25.484375 53.609375 
Q 29.78125 56 35.6875 56 
Q 41.65625 56 45.828125 52.96875 
Q 50 49.953125 52 44.1875 
z
" id="DejaVuSans-109"/>
       <path d="M 9.421875 54.6875 
L 18.40625 54.6875 
L 18.40625 0 
L 9.421875 0 
z
M 9.421875 75.984375 
L 18.40625 75.984375 
L 18.40625 64.59375 
L 9.421875 64.59375 
z
" id="DejaVuSans-105"/>
       <path d="M 44.28125 53.078125 
L 44.28125 44.578125 
Q 40.484375 46.53125 36.375 47.5 
Q 32.28125 48.484375 27.875 48.484375 
Q 21.1875 48.484375 17.84375 46.4375 
Q 14.5 44.390625 14.5 40.28125 
Q 14.5 37.15625 16.890625 35.375 
Q 19.28125 33.59375 26.515625 31.984375 
L 29.59375 31.296875 
Q 39.15625 29.25 43.1875 25.515625 
Q 47.21875 21.78125 47.21875 15.09375 
Q 47.21875 7.46875 41.1875 3.015625 
Q 35.15625 -1.421875 24.609375 -1.421875 
Q 20.21875 -1.421875 15.453125 -0.5625 
Q 10.6875 0.296875 5.421875 2 
L 5.421875 11.28125 
Q 10.40625 8.6875 15.234375 7.390625 
Q 20.0625 6.109375 24.8125 6.109375 
Q 31.15625 6.109375 34.5625 8.28125 
Q 37.984375 10.453125 37.984375 14.40625 
Q 37.984375 18.0625 35.515625 20.015625 
Q 33.0625 21.96875 24.703125 23.78125 
L 21.578125 24.515625 
Q 13.234375 26.265625 9.515625 29.90625 
Q 5.8125 33.546875 5.8125 39.890625 
Q 5.8125 47.609375 11.28125 51.796875 
Q 16.75 56 26.8125 56 
Q 31.78125 56 36.171875 55.265625 
Q 40.578125 54.546875 44.28125 53.078125 
z
" id="DejaVuSans-115"/>
       <path d="M 30.609375 48.390625 
Q 23.390625 48.390625 19.1875 42.75 
Q 14.984375 37.109375 14.984375 27.296875 
Q 14.984375 17.484375 19.15625 11.84375 
Q 23.34375 6.203125 30.609375 6.203125 
Q 37.796875 6.203125 41.984375 11.859375 
Q 46.1875 17.53125 46.1875 27.296875 
Q 46.1875 37.015625 41.984375 42.703125 
Q 37.796875 48.390625 30.609375 48.390625 
z
M 30.609375 56 
Q 42.328125 56 49.015625 48.375 
Q 55.71875 40.765625 55.71875 27.296875 
Q 55.71875 13.875 49.015625 6.21875 
Q 42.328125 -1.421875 30.609375 -1.421875 
Q 18.84375 -1.421875 12.171875 6.21875 
Q 5.515625 13.875 5.515625 27.296875 
Q 5.515625 40.765625 12.171875 48.375 
Q 18.84375 56 30.609375 56 
z
" id="DejaVuSans-111"/>
       <path d="M 54.890625 33.015625 
L 54.890625 0 
L 45.90625 0 
L 45.90625 32.71875 
Q 45.90625 40.484375 42.875 44.328125 
Q 39.84375 48.1875 33.796875 48.1875 
Q 26.515625 48.1875 22.3125 43.546875 
Q 18.109375 38.921875 18.109375 30.90625 
L 18.109375 0 
L 9.078125 0 
L 9.078125 54.6875 
L 18.109375 54.6875 
L 18.109375 46.1875 
Q 21.34375 51.125 25.703125 53.5625 
Q 30.078125 56 35.796875 56 
Q 45.21875 56 50.046875 50.171875 
Q 54.890625 44.34375 54.890625 33.015625 
z
" id="DejaVuSans-110"/>
       <path d="M 18.109375 8.203125 
L 18.109375 -20.796875 
L 9.078125 -20.796875 
L 9.078125 54.6875 
L 18.109375 54.6875 
L 18.109375 46.390625 
Q 20.953125 51.265625 25.265625 53.625 
Q 29.59375 56 35.59375 56 
Q 45.5625 56 51.78125 48.09375 
Q 58.015625 40.1875 58.015625 27.296875 
Q 58.015625 14.40625 51.78125 6.484375 
Q 45.5625 -1.421875 35.59375 -1.421875 
Q 29.59375 -1.421875 25.265625 0.953125 
Q 20.953125 3.328125 18.109375 8.203125 
z
M 48.6875 27.296875 
Q 48.6875 37.203125 44.609375 42.84375 
Q 40.53125 48.484375 33.40625 48.484375 
Q 26.265625 48.484375 22.1875 42.84375 
Q 18.109375 37.203125 18.109375 27.296875 
Q 18.109375 17.390625 22.1875 11.75 
Q 26.265625 6.109375 33.40625 6.109375 
Q 40.53125 6.109375 44.609375 11.75 
Q 48.6875 17.390625 48.6875 27.296875 
z
" id="DejaVuSans-112"/>
       <path d="M 41.109375 46.296875 
Q 39.59375 47.171875 37.8125 47.578125 
Q 36.03125 48 33.890625 48 
Q 26.265625 48 22.1875 43.046875 
Q 18.109375 38.09375 18.109375 28.8125 
L 18.109375 0 
L 9.078125 0 
L 9.078125 54.6875 
L 18.109375 54.6875 
L 18.109375 46.1875 
Q 20.953125 51.171875 25.484375 53.578125 
Q 30.03125 56 36.53125 56 
Q 37.453125 56 38.578125 55.875 
Q 39.703125 55.765625 41.0625 55.515625 
z
" id="DejaVuSans-114"/>
       <path d="M 9.421875 75.984375 
L 18.40625 75.984375 
L 18.40625 0 
L 9.421875 0 
z
" id="DejaVuSans-108"/>
       <path d="M 8.5 21.578125 
L 8.5 54.6875 
L 17.484375 54.6875 
L 17.484375 21.921875 
Q 17.484375 14.15625 20.5 10.265625 
Q 23.53125 6.390625 29.59375 6.390625 
Q 36.859375 6.390625 41.078125 11.03125 
Q 45.3125 15.671875 45.3125 23.6875 
L 45.3125 54.6875 
L 54.296875 54.6875 
L 54.296875 0 
L 45.3125 0 
L 45.3125 8.40625 
Q 42.046875 3.421875 37.71875 1 
Q 33.40625 -1.421875 27.6875 -1.421875 
Q 18.265625 -1.421875 13.375 4.4375 
Q 8.5 10.296875 8.5 21.578125 
z
M 31.109375 56 
z
" id="DejaVuSans-117"/>
      </defs>
      <use xlink:href="#DejaVuSans-78"/>
      <use x="74.804688" xlink:href="#DejaVuSans-101"/>
      <use x="136.328125" xlink:href="#DejaVuSans-119"/>
      <use x="218.115234" xlink:href="#DejaVuSans-32"/>
      <use x="249.902344" xlink:href="#DejaVuSans-97"/>
      <use x="311.181641" xlink:href="#DejaVuSans-100"/>
      <use x="374.658203" xlink:href="#DejaVuSans-109"/>
      <use x="472.070312" xlink:href="#DejaVuSans-105"/>
      <use x="499.853516" xlink:href="#DejaVuSans-115"/>
      <use x="551.953125" xlink:href="#DejaVuSans-115"/>
      <use x="604.052734" xlink:href="#DejaVuSans-105"/>
      <use x="631.835938" xlink:href="#DejaVuSans-111"/>
      <use x="693.017578" xlink:href="#DejaVuSans-110"/>
      <use x="756.396484" xlink:href="#DejaVuSans-115"/>
      <use x="808.496094" xlink:href="#DejaVuSans-32"/>
      <use x="840.283203" xlink:href="#DejaVuSans-112"/>
      <use x="903.759766" xlink:href="#DejaVuSans-101"/>
      <use x="965.283203" xlink:href="#DejaVuSans-114"/>
      <use x="1006.396484" xlink:href="#DejaVuSans-32"/>
      <use x="1038.183594" xlink:href="#DejaVuSans-109"/>
      <use x="1135.595703" xlink:href="#DejaVuSans-105"/>
      <use x="1163.378906" xlink:href="#DejaVuSans-108"/>
      <use x="1191.162109" xlink:href="#DejaVuSans-108"/>
      <use x="1218.945312" xlink:href="#DejaVuSans-105"/>
      <use x="1246.728516" xlink:href="#DejaVuSans-111"/>
      <use x="1307.910156" xlink:href="#DejaVuSans-110"/>
      <use x="1371.289062" xlink:href="#DejaVuSans-32"/>
      <use x="1403.076172" xlink:href="#DejaVuSans-112"/>
      <use x="1466.552734" xlink:href="#DejaVuSans-111"/>
      <use x="1527.734375" xlink:href="#DejaVuSans-112"/>
      <use x="1591.210938" xlink:href="#DejaVuSans-117"/>
      <use x="1654.589844" xlink:href="#DejaVuSans-108"/>
      <use x="1682.373047" xlink:href="#DejaVuSans-97"/>
      <use x="1743.652344" xlink:href="#DejaVuSans-116"/>
      <use x="1782.861328" xlink:href="#DejaVuSans-105"/>
      <use x="1810.644531" xlink:href="#DejaVuSans-111"/>
      <use x="1871.826172" xlink:href="#DejaVuSans-110"/>
     </g>
    </g>
   </g>
   <g id="line2d_14">
    <path clip-path="url(#p9fb77f654f)" d="M 61.670455 224.447225 
L 63.140021 221.471852 
L 64.609588 220.480061 
L 66.079155 220.621745 
L 67.548722 218.581489 
L 69.018289 217.363003 
L 70.487856 214.428112 
L 71.957423 210.966964 
L 73.42699 207.202206 
L 74.896557 201.919401 
L 77.835691 193.661223 
L 79.305258 189.896465 
L 80.774824 188.803471 
L 82.244391 184.795826 
L 83.713958 183.702832 
L 85.183525 185.645933 
L 86.653092 184.249329 
L 88.122659 183.277779 
L 89.592226 181.456122 
L 91.061793 180.12024 
L 92.53136 182.002619 
L 94.000927 181.516844 
L 95.470494 179.755909 
L 96.94006 179.816631 
L 98.409627 181.699009 
L 99.879194 184.492217 
L 101.348761 185.828098 
L 102.818328 186.010264 
L 104.287895 187.771199 
L 105.757462 189.957187 
L 107.227029 193.175448 
L 108.696596 195.361436 
L 110.166163 196.393708 
L 111.63573 198.093921 
L 113.105297 200.158466 
L 114.574863 200.765685 
L 116.04443 202.648064 
L 117.513997 204.166111 
L 118.983564 204.651886 
L 120.453131 205.744881 
L 121.922698 207.809425 
L 123.392265 208.659532 
L 124.861832 210.481188 
L 126.331399 209.995413 
L 127.800966 208.720253 
L 129.270533 208.2952 
L 130.740099 209.631082 
L 132.209666 209.145307 
L 133.679233 210.177579 
L 135.1488 210.724076 
L 136.618367 212.12068 
L 138.087934 214.003058 
L 139.557501 215.096053 
L 141.027068 215.763993 
L 142.496635 216.128325 
L 143.966202 217.099875 
L 145.435769 217.282041 
L 146.905336 216.796266 
L 148.374902 217.646372 
L 149.844469 218.253591 
L 151.314036 217.403485 
L 152.783603 217.221319 
L 154.25317 216.249769 
L 155.722737 216.91771 
L 157.192304 218.435757 
L 158.661871 218.678645 
L 160.131438 219.407307 
L 161.601005 220.318136 
L 163.070572 221.532574 
L 164.540139 221.836183 
L 166.009705 222.68629 
L 167.479272 222.504124 
L 168.948839 222.504124 
L 170.418406 221.896905 
L 171.887973 221.593296 
L 173.35754 221.714739 
L 174.827107 223.65784 
L 176.296674 223.354231 
L 177.766241 223.536396 
L 179.235808 223.597118 
L 180.705375 225.965272 
L 182.174941 227.48332 
L 185.114075 228.637036 
L 186.583642 230.215805 
L 189.522776 232.219628 
L 190.992343 232.098184 
L 192.46191 232.462515 
L 193.931477 233.2519 
L 196.870611 232.583959 
L 198.340178 233.009012 
L 199.809744 233.130456 
L 201.279311 233.616231 
L 207.157579 234.041284 
L 208.627146 233.616231 
L 211.56628 232.94829 
L 213.035847 232.826847 
L 214.505414 233.069734 
L 215.97498 233.676953 
L 217.444547 233.798397 
L 218.914114 234.162728 
L 220.383681 234.344894 
L 221.853248 234.648503 
L 223.322815 235.134279 
L 224.792382 235.316444 
L 226.261949 235.134279 
L 229.201083 235.073557 
L 230.67065 235.255722 
L 232.140217 235.012835 
L 233.609783 234.891391 
L 235.07935 234.648503 
L 236.548917 234.769947 
L 238.018484 234.709225 
L 239.488051 234.952113 
L 240.957618 234.952113 
L 243.896752 235.437888 
L 246.835886 235.620054 
L 248.305453 236.045107 
L 249.77502 235.862941 
L 251.244586 235.802219 
L 252.714153 235.559332 
L 255.653287 235.49861 
L 257.122854 235.49861 
L 258.592421 235.255722 
L 260.061988 235.49861 
L 261.531555 235.437888 
L 263.001122 235.559332 
L 264.470689 235.437888 
L 265.940256 235.559332 
L 270.348956 235.437888 
L 271.818523 235.680776 
L 273.28809 235.680776 
L 274.757657 235.802219 
L 276.227224 235.620054 
L 279.166358 235.862941 
L 280.635925 235.862941 
L 282.105492 235.741498 
L 283.575059 235.802219 
L 285.044625 235.620054 
L 286.514192 235.620054 
L 289.453326 235.134279 
L 293.862027 235.316444 
L 298.270728 235.923663 
L 299.740295 236.166551 
L 302.679428 236.105829 
L 304.148995 236.227273 
L 305.618562 236.227273 
L 307.088129 235.984385 
L 311.49683 236.166551 
L 314.435964 235.984385 
L 315.905531 235.802219 
L 317.375098 235.741498 
L 318.844664 235.377166 
L 320.314231 235.255722 
L 324.722932 235.316444 
L 330.6012 235.49861 
L 336.479467 234.102006 
L 337.949034 234.041284 
L 340.888168 233.494787 
L 342.357735 233.616231 
L 345.296869 234.102006 
L 346.766436 234.041284 
L 348.236003 234.102006 
L 349.70557 233.859119 
L 352.644703 233.191178 
L 354.11427 232.523237 
L 355.583837 231.551687 
L 357.053404 230.823024 
L 358.522971 229.851474 
L 359.992538 228.515592 
L 362.931672 227.48332 
L 364.401239 226.329604 
L 365.870806 225.600941 
L 367.340373 225.479497 
L 368.80994 223.96145 
L 371.749073 224.143615 
L 373.21864 222.989899 
L 374.688207 222.989899 
L 377.627341 220.561023 
L 380.566475 220.257414 
L 382.036042 219.407307 
L 383.505609 218.86081 
L 384.975176 217.039153 
L 386.444742 214.853165 
L 389.383876 212.363567 
L 390.853443 210.359745 
L 392.32301 207.687981 
L 393.792577 204.469721 
L 395.262144 203.741058 
L 396.731711 203.558892 
L 398.201278 202.162289 
L 401.140412 197.972478 
L 402.609979 196.575874 
L 404.079545 195.907933 
L 404.079545 195.907933 
" style="fill:none;stroke:#1f77b4;stroke-linecap:square;stroke-width:1.5;"/>
   </g>
   <g id="line2d_15">
    <path clip-path="url(#p9fb77f654f)" d="M 61.670455 209.066702 
L 63.140021 210.815206 
L 64.609588 211.308374 
L 66.079155 211.353208 
L 69.018289 209.201202 
L 71.957423 206.376696 
L 73.42699 200.996682 
L 74.896557 194.886525 
L 76.366124 188.007793 
L 77.835691 180.206774 
L 82.244391 160.262297 
L 85.183525 152.576564 
L 86.653092 152.422849 
L 88.122659 152.076991 
L 89.592226 149.848129 
L 91.061793 151.961705 
L 92.53136 153.345137 
L 94.000927 155.766143 
L 95.470494 160.108582 
L 96.94006 161.991587 
L 98.409627 165.796025 
L 99.879194 172.252041 
L 101.348761 173.059043 
L 102.818328 171.521896 
L 104.287895 171.867754 
L 105.757462 173.981331 
L 107.227029 175.095762 
L 108.696596 175.095762 
L 110.166163 174.596189 
L 111.63573 175.595335 
L 113.105297 181.167491 
L 114.574863 182.128208 
L 116.04443 182.589352 
L 117.513997 183.242639 
L 118.983564 184.318642 
L 120.453131 186.047932 
L 121.922698 186.278504 
L 123.392265 186.931791 
L 124.861832 190.044513 
L 126.331399 191.043658 
L 127.800966 192.503947 
L 129.270533 195.424526 
L 130.740099 197.03853 
L 132.209666 199.690108 
L 133.679233 201.880542 
L 135.1488 204.301548 
L 136.618367 206.069266 
L 138.087934 206.26141 
L 139.557501 206.645696 
L 141.027068 206.722553 
L 142.496635 207.798556 
L 143.966202 207.567984 
L 145.435769 207.798556 
L 146.905336 208.759273 
L 148.374902 210.488563 
L 149.844469 210.834421 
L 151.314036 211.333993 
L 152.783603 211.026564 
L 154.25317 211.987281 
L 155.722737 212.256281 
L 157.192304 212.717425 
L 158.661871 213.332284 
L 161.601005 215.023145 
L 163.070572 216.368149 
L 164.540139 216.714006 
L 166.009705 217.213579 
L 167.479272 216.637149 
L 168.948839 217.866866 
L 170.418406 218.866012 
L 171.887973 218.520154 
L 173.35754 219.096584 
L 177.766241 221.825019 
L 179.235808 221.940305 
L 180.705375 222.632021 
L 182.174941 224.322882 
L 183.644508 225.629457 
L 185.114075 226.743888 
L 186.583642 227.281889 
L 188.053209 228.088891 
L 189.522776 227.973605 
L 190.992343 227.704605 
L 192.46191 227.781462 
L 193.931477 227.589319 
L 196.870611 227.896748 
L 198.340178 227.627747 
L 199.809744 228.357892 
L 202.748878 229.472323 
L 204.218445 229.510752 
L 205.688012 229.318609 
L 210.096713 229.702895 
L 211.56628 230.048753 
L 213.035847 229.664467 
L 214.505414 229.664467 
L 215.97498 229.933467 
L 217.444547 230.048753 
L 220.383681 230.778898 
L 221.853248 230.932613 
L 224.792382 231.547471 
L 226.261949 231.355328 
L 227.731516 231.470614 
L 230.67065 232.008615 
L 232.140217 231.778043 
L 233.609783 232.085473 
L 235.07935 232.239187 
L 236.548917 232.623474 
L 239.488051 232.892475 
L 240.957618 232.700331 
L 242.427185 233.353619 
L 243.896752 233.661048 
L 246.835886 233.930049 
L 248.305453 233.853191 
L 251.244586 234.160621 
L 254.18372 233.776334 
L 257.122854 234.006906 
L 258.592421 234.160621 
L 260.061988 233.89162 
L 261.531555 234.045335 
L 263.001122 234.391193 
L 264.470689 234.506479 
L 265.940256 234.391193 
L 270.348956 235.04448 
L 273.28809 235.082909 
L 274.757657 235.313481 
L 276.227224 235.275052 
L 277.696791 234.967623 
L 279.166358 234.852337 
L 280.635925 235.006051 
L 285.044625 234.813908 
L 289.453326 235.544053 
L 293.862027 235.236623 
L 295.331594 235.121337 
L 296.801161 235.121337 
L 298.270728 234.813908 
L 299.740295 234.621765 
L 301.209861 234.621765 
L 302.679428 234.852337 
L 305.618562 235.006051 
L 307.088129 234.813908 
L 308.557696 234.967623 
L 311.49683 234.852337 
L 312.966397 234.621765 
L 314.435964 234.698622 
L 315.905531 234.621765 
L 317.375098 234.429621 
L 320.314231 234.275907 
L 323.253365 233.89162 
L 324.722932 233.699477 
L 330.6012 234.083763 
L 332.070767 233.930049 
L 333.540334 234.045335 
L 335.009901 233.853191 
L 336.479467 233.545762 
L 337.949034 233.123047 
L 340.888168 232.508188 
L 348.236003 232.854046 
L 349.70557 232.815617 
L 351.175137 233.046189 
L 352.644703 232.854046 
L 354.11427 232.392902 
L 355.583837 232.085473 
L 357.053404 231.662757 
L 359.992538 230.164039 
L 361.462105 229.318609 
L 365.870806 227.935177 
L 367.340373 227.051317 
L 368.80994 227.166603 
L 370.279506 226.551745 
L 371.749073 226.590173 
L 373.21864 226.436459 
L 376.157774 225.398885 
L 377.627341 225.8216 
L 380.566475 223.82331 
L 382.036042 222.401449 
L 383.505609 221.21016 
L 384.975176 220.172586 
L 386.444742 218.827583 
L 387.914309 217.021436 
L 389.383876 216.406577 
L 390.853443 215.407432 
L 392.32301 214.869431 
L 393.792577 213.601285 
L 395.262144 212.794283 
L 396.731711 211.679851 
L 398.201278 211.795137 
L 399.670845 210.719135 
L 401.140412 209.297274 
L 402.609979 208.413415 
L 404.079545 206.415124 
L 404.079545 206.415124 
" style="fill:none;stroke:#ff7f0e;stroke-linecap:square;stroke-width:1.5;"/>
   </g>
   <g id="line2d_16">
    <path clip-path="url(#p9fb77f654f)" d="M 61.670455 215.100414 
L 63.140021 207.424434 
L 64.609588 205.844085 
L 66.079155 202.739828 
L 67.548722 200.154829 
L 69.018289 193.878586 
L 70.487856 186.396118 
L 71.957423 178.010594 
L 73.42699 170.27011 
L 74.896557 163.851958 
L 76.366124 154.531125 
L 77.835691 142.501122 
L 79.305258 133.954338 
L 80.774824 122.537123 
L 82.244391 115.248168 
L 83.713958 113.732323 
L 85.183525 106.991651 
L 86.653092 106.733635 
L 88.122659 111.313421 
L 89.592226 113.313046 
L 91.061793 121.053531 
L 92.53136 127.76195 
L 94.000927 130.084096 
L 95.470494 137.308548 
L 96.94006 143.307423 
L 98.409627 146.726137 
L 99.879194 152.305736 
L 101.348761 161.787829 
L 104.287895 167.56094 
L 105.757462 170.979654 
L 107.227029 171.689198 
L 108.696596 173.398555 
L 110.166163 176.623757 
L 111.63573 177.397805 
L 113.105297 179.397431 
L 114.574863 182.203356 
L 116.04443 183.557941 
L 118.983564 188.234483 
L 120.453131 189.492312 
L 121.922698 189.331052 
L 123.392265 189.814832 
L 124.861832 189.976092 
L 126.331399 191.137165 
L 127.800966 193.104538 
L 129.270533 192.007969 
L 130.740099 193.169042 
L 132.209666 193.878586 
L 135.1488 196.491 
L 136.618367 196.232984 
L 138.087934 197.039284 
L 139.557501 199.458185 
L 141.027068 200.232234 
L 142.496635 201.941591 
L 143.966202 202.715639 
L 145.435769 202.231859 
L 146.905336 202.747891 
L 148.374902 201.844835 
L 149.844469 202.199607 
L 151.314036 202.296363 
L 152.783603 202.264111 
L 154.25317 202.586631 
L 155.722737 204.263736 
L 157.192304 205.231297 
L 160.131438 209.230547 
L 161.601005 210.488375 
L 163.070572 211.230172 
L 164.540139 211.84296 
L 166.009705 212.100976 
L 167.479272 212.00422 
L 168.948839 211.617196 
L 170.418406 211.552692 
L 171.887973 211.294676 
L 173.35754 211.746204 
L 174.827107 212.391244 
L 176.296674 213.745829 
L 177.766241 215.84221 
L 179.235808 217.035535 
L 180.705375 217.293551 
L 182.174941 218.035348 
L 183.644508 218.261112 
L 185.114075 218.841648 
L 186.583642 218.8739 
L 188.053209 218.164356 
L 189.522776 217.938592 
L 190.992343 218.196608 
L 192.46191 219.19642 
L 193.931477 220.454249 
L 195.401044 220.776769 
L 196.870611 221.260549 
L 198.340178 222.260362 
L 199.809744 222.615134 
L 201.279311 223.35693 
L 204.218445 224.130979 
L 205.688012 225.001783 
L 207.157579 224.808271 
L 208.627146 224.808271 
L 210.096713 225.840336 
L 214.505414 227.194921 
L 215.97498 227.452937 
L 218.914114 228.93653 
L 220.383681 229.065538 
L 221.853248 229.388058 
L 223.322815 229.936342 
L 224.792382 230.355618 
L 226.261949 230.54913 
L 227.731516 231.226423 
L 229.201083 231.355431 
L 230.67065 231.710203 
L 233.609783 232.129479 
L 235.07935 232.548755 
L 236.548917 232.839024 
L 242.427185 233.41956 
L 245.366319 233.548568 
L 249.77502 233.064788 
L 251.244586 233.032536 
L 252.714153 233.484064 
L 254.18372 233.645324 
L 255.653287 233.613072 
L 258.592421 233.967844 
L 261.531555 234.322616 
L 263.001122 234.161356 
L 264.470689 234.38712 
L 265.940256 234.451625 
L 268.879389 234.870901 
L 271.818523 234.516129 
L 273.28809 234.806397 
L 274.757657 234.870901 
L 276.227224 235.064413 
L 279.166358 234.548381 
L 280.635925 234.451625 
L 282.105492 234.483877 
L 285.044625 233.871088 
L 286.514192 233.774332 
L 295.331594 234.548381 
L 298.270728 234.419373 
L 299.740295 234.677389 
L 301.209861 234.580633 
L 302.679428 234.612885 
L 304.148995 234.38712 
L 305.618562 234.451625 
L 307.088129 234.38712 
L 308.557696 234.580633 
L 311.49683 233.709828 
L 312.966397 233.355056 
L 314.435964 233.193796 
L 317.375098 232.064975 
L 318.844664 231.323179 
L 320.314231 230.871651 
L 321.783798 230.936155 
L 323.253365 230.54913 
L 324.722932 230.033098 
L 330.6012 229.226798 
L 332.070767 228.549505 
L 333.540334 228.162481 
L 335.009901 228.355993 
L 336.479467 227.452937 
L 337.949034 226.8724 
L 340.888168 225.42106 
L 342.357735 225.130791 
L 343.827302 224.969531 
L 345.296869 224.066475 
L 346.766436 224.259987 
L 349.70557 224.098727 
L 351.175137 223.905215 
L 352.644703 223.872963 
L 354.11427 223.227922 
L 355.583837 221.970094 
L 358.522971 220.454249 
L 359.992538 219.970469 
L 361.462105 219.325428 
L 362.931672 218.519128 
L 364.401239 217.454811 
L 365.870806 217.067787 
L 367.340373 214.39087 
L 368.80994 212.842773 
L 370.279506 210.617384 
L 371.749073 209.166043 
L 373.21864 208.198482 
L 376.157774 204.070224 
L 377.627341 202.554379 
L 379.096908 200.361242 
L 380.566475 197.652072 
L 382.036042 196.071724 
L 383.505609 193.94309 
L 384.975176 192.169229 
L 386.444742 188.782768 
L 387.914309 186.847647 
L 389.383876 185.815582 
L 392.32301 182.235608 
L 393.792577 179.784455 
L 395.262144 178.042846 
L 396.731711 177.849334 
L 398.201278 178.075098 
L 399.670845 175.849709 
L 401.140412 174.688636 
L 402.609979 173.237295 
L 404.079545 171.624694 
L 404.079545 171.624694 
" style="fill:none;stroke:#2ca02c;stroke-linecap:square;stroke-width:1.5;"/>
   </g>
   <g id="line2d_17">
    <path clip-path="url(#p9fb77f654f)" d="M 61.670455 223.420347 
L 63.140021 224.115838 
L 64.609588 221.565705 
L 66.079155 220.568835 
L 67.548722 217.85642 
L 69.018289 213.266181 
L 70.487856 210.265635 
L 71.957423 204.38377 
L 74.896557 189.2022 
L 76.366124 181.849869 
L 77.835691 172.589906 
L 79.305258 167.184949 
L 80.774824 153.39436 
L 82.244391 144.372851 
L 83.713958 139.087121 
L 85.183525 137.656398 
L 86.653092 133.244999 
L 88.122659 130.70149 
L 89.592226 125.018336 
L 91.061793 132.171956 
L 92.53136 135.629539 
L 94.000927 137.775625 
L 95.470494 137.934594 
L 96.94006 140.160164 
L 98.409627 144.094655 
L 99.879194 149.658581 
L 101.348761 152.559771 
L 102.818328 154.984054 
L 104.287895 158.282667 
L 105.757462 160.627465 
L 107.227029 162.296642 
L 108.696596 163.369685 
L 110.166163 165.476029 
L 111.63573 165.754225 
L 113.105297 167.661857 
L 114.574863 168.178507 
L 116.04443 169.490004 
L 118.983564 170.96047 
L 120.453131 172.033513 
L 121.922698 172.709133 
L 123.392265 174.100115 
L 124.861832 176.723108 
L 126.331399 177.756409 
L 127.800966 180.180691 
L 132.209666 189.520139 
L 133.679233 190.354728 
L 135.1488 192.461071 
L 136.618367 193.534114 
L 138.087934 195.481488 
L 139.557501 196.832728 
L 141.027068 196.475047 
L 142.496635 196.316077 
L 143.966202 198.06474 
L 145.435769 197.866028 
L 146.905336 199.853145 
L 149.844469 203.469697 
L 151.314036 205.695267 
L 152.783603 207.682384 
L 154.25317 207.841353 
L 155.722737 208.795169 
L 157.192304 208.715684 
L 158.661871 209.113108 
L 160.131438 210.464347 
L 161.601005 211.02074 
L 163.070572 211.974556 
L 164.540139 213.92193 
L 166.009705 214.478322 
L 167.479272 215.352654 
L 168.948839 215.63085 
L 170.418406 215.471881 
L 171.887973 216.068016 
L 173.35754 217.220543 
L 174.827107 218.094874 
L 176.296674 218.174359 
L 177.766241 219.326887 
L 179.235808 220.876838 
L 180.705375 221.631942 
L 182.174941 221.989623 
L 183.644508 221.790911 
L 185.114075 222.069108 
L 186.583642 223.022923 
L 188.053209 223.380604 
L 189.522776 223.221635 
L 190.992343 223.340862 
L 192.46191 223.30112 
L 193.931477 223.460089 
L 195.401044 223.181893 
L 196.870611 223.658801 
L 198.340178 223.936997 
L 199.809744 224.731844 
L 201.279311 224.374163 
L 202.748878 225.089525 
L 204.218445 226.043341 
L 205.688012 226.679218 
L 208.627146 226.520249 
L 210.096713 226.321537 
L 211.56628 227.672776 
L 213.035847 228.109942 
L 214.505414 228.189426 
L 215.97498 228.42788 
L 218.914114 229.182985 
L 220.383681 229.659893 
L 223.322815 229.540666 
L 224.792382 229.62015 
L 226.261949 229.938089 
L 227.731516 230.097058 
L 232.140217 230.216285 
L 233.609783 230.573966 
L 235.07935 230.81242 
L 236.548917 230.931647 
L 238.018484 231.209844 
L 239.488051 231.845721 
L 240.957618 231.567525 
L 243.896752 233.157218 
L 246.835886 234.031549 
L 248.305453 234.031549 
L 249.77502 233.87258 
L 251.244586 234.230261 
L 252.714153 233.87258 
L 254.18372 233.793095 
L 255.653287 233.912322 
L 257.122854 233.594383 
L 258.592421 233.753353 
L 260.061988 233.753353 
L 261.531555 233.634126 
L 264.470689 232.918764 
L 271.818523 232.998248 
L 273.28809 233.594383 
L 274.757657 233.673868 
L 276.227224 233.395672 
L 277.696791 233.753353 
L 279.166358 233.87258 
L 280.635925 233.87258 
L 282.105492 234.150776 
L 285.044625 234.38923 
L 286.514192 234.707169 
L 289.453326 234.468715 
L 290.922893 234.627684 
L 295.331594 234.548199 
L 296.801161 234.270003 
L 298.270728 234.230261 
L 299.740295 234.349488 
L 305.618562 233.952064 
L 308.557696 234.111034 
L 310.027263 233.87258 
L 312.966397 233.753353 
L 314.435964 233.514899 
L 315.905531 233.077733 
L 317.375098 232.084175 
L 323.253365 228.984273 
L 326.192499 227.195868 
L 327.662066 226.917672 
L 329.131633 225.725402 
L 330.6012 224.374163 
L 332.070767 223.658801 
L 335.009901 220.479414 
L 336.479467 220.121733 
L 337.949034 218.214101 
L 339.418601 217.975647 
L 340.888168 217.975647 
L 342.357735 217.260286 
L 343.827302 217.061574 
L 345.296869 216.982089 
L 346.766436 215.153942 
L 348.236003 214.95523 
L 349.70557 214.041157 
L 351.175137 212.610433 
L 352.644703 210.663059 
L 354.11427 208.516973 
L 355.583837 206.887537 
L 357.053404 204.622224 
L 358.522971 202.794077 
L 359.992538 201.323611 
L 361.462105 199.495464 
L 362.931672 198.382679 
L 365.870806 194.249476 
L 367.340373 193.375145 
L 368.80994 192.302102 
L 370.279506 189.957304 
L 371.749073 189.440654 
L 373.21864 186.857403 
L 374.688207 185.307452 
L 376.157774 183.360078 
L 377.627341 179.743526 
L 379.096908 175.610323 
L 380.566475 173.305268 
L 382.036042 169.529747 
L 383.505609 166.86701 
L 386.444742 158.83906 
L 387.914309 157.766017 
L 389.383876 154.348176 
L 390.853443 150.572655 
L 392.32301 150.254716 
L 393.792577 148.347084 
L 395.262144 147.234299 
L 396.731711 145.684348 
L 398.201278 143.260066 
L 399.670845 143.49852 
L 401.140412 143.180581 
L 402.609979 140.716557 
L 404.079545 140.239649 
L 404.079545 140.239649 
" style="fill:none;stroke:#d62728;stroke-linecap:square;stroke-width:1.5;"/>
   </g>
   <g id="line2d_18">
    <path clip-path="url(#p9fb77f654f)" d="M 61.670455 220.842735 
L 63.140021 219.317423 
L 66.079155 214.995706 
L 67.548722 213.521238 
L 69.018289 210.50451 
L 70.487856 205.202235 
L 71.957423 198.568339 
L 73.42699 190.675455 
L 74.896557 183.944714 
L 76.366124 178.376115 
L 77.835691 162.202967 
L 79.305258 151.549995 
L 80.774824 138.04009 
L 82.244391 125.93444 
L 83.713958 114.94251 
L 86.653092 97.074571 
L 88.122659 98.430404 
L 89.592226 96.832458 
L 91.061793 99.544123 
L 92.53136 97.461952 
L 94.000927 102.013676 
L 98.409627 114.506707 
L 99.879194 119.639502 
L 101.348761 127.532386 
L 102.818328 138.330625 
L 104.287895 142.156011 
L 105.757462 147.337229 
L 108.696596 154.988 
L 110.166163 155.423803 
L 111.63573 157.021749 
L 113.105297 160.508176 
L 114.574863 163.510377 
L 116.04443 163.704068 
L 117.513997 165.302013 
L 118.983564 165.447281 
L 120.453131 168.643173 
L 121.922698 168.013679 
L 123.392265 166.464156 
L 124.861832 167.916834 
L 126.331399 168.691595 
L 127.800966 167.916834 
L 129.270533 169.563202 
L 130.740099 169.224244 
L 132.209666 172.565403 
L 133.679233 174.114926 
L 135.1488 174.695998 
L 136.618367 175.616027 
L 138.087934 177.601353 
L 139.557501 176.923437 
L 141.027068 177.649776 
L 142.496635 176.293943 
L 145.435769 177.940312 
L 148.374902 176.778169 
L 149.844469 178.327692 
L 151.314036 178.957186 
L 152.783603 180.651977 
L 154.25317 180.603555 
L 155.722737 180.264596 
L 157.192304 182.830994 
L 158.661871 184.816321 
L 160.131438 187.237451 
L 161.601005 190.191229 
L 163.070572 190.336497 
L 164.540139 191.304949 
L 166.009705 193.19343 
L 167.479272 194.549263 
L 168.948839 194.646108 
L 170.418406 193.290276 
L 171.887973 192.854472 
L 173.35754 194.11346 
L 174.827107 195.130334 
L 176.296674 197.357774 
L 177.766241 199.343101 
L 179.235808 202.248457 
L 180.705375 206.170687 
L 182.174941 207.284407 
L 183.644508 207.72021 
L 185.114075 208.83393 
L 186.583642 208.010746 
L 188.053209 207.671788 
L 189.522776 206.993871 
L 190.992343 206.509645 
L 192.46191 207.235984 
L 193.931477 208.979198 
L 195.401044 210.431876 
L 196.870611 212.126667 
L 199.809744 214.78991 
L 201.279311 215.225713 
L 202.748878 216.726814 
L 204.218445 217.017349 
L 205.688012 217.888956 
L 207.157579 218.082646 
L 208.627146 217.40473 
L 210.096713 218.131069 
L 213.035847 221.181693 
L 214.505414 223.312287 
L 215.97498 225.055501 
L 217.444547 226.169221 
L 218.914114 227.573476 
L 221.853248 229.122999 
L 224.792382 229.70407 
L 226.261949 229.365112 
L 227.731516 230.381987 
L 229.201083 230.720945 
L 230.67065 231.447284 
L 232.140217 231.544129 
L 233.609783 231.398861 
L 235.07935 231.447284 
L 236.548917 231.640974 
L 238.018484 231.592552 
L 239.488051 231.689397 
L 240.957618 231.447284 
L 243.896752 230.720945 
L 245.366319 230.575677 
L 246.835886 230.236719 
L 248.305453 229.655648 
L 251.244586 229.607225 
L 252.714153 230.285141 
L 255.653287 231.302016 
L 257.122854 231.592552 
L 258.592421 232.076778 
L 261.531555 232.1252 
L 263.001122 231.786242 
L 264.470689 232.028355 
L 265.940256 232.028355 
L 267.409822 232.415736 
L 268.879389 232.173623 
L 270.348956 230.720945 
L 271.818523 230.81779 
L 273.28809 231.205171 
L 274.757657 231.108326 
L 277.696791 231.302016 
L 279.166358 231.786242 
L 280.635925 233.577878 
L 282.105492 233.916836 
L 285.044625 234.158949 
L 286.514192 233.529456 
L 287.983759 233.819991 
L 289.453326 233.529456 
L 290.922893 233.674723 
L 292.39246 233.384188 
L 295.331594 233.481033 
L 296.801161 233.965259 
L 298.270728 233.142075 
L 299.740295 233.190497 
L 301.209861 232.512581 
L 302.679428 232.415736 
L 304.148995 232.173623 
L 307.088129 231.302016 
L 310.027263 231.205171 
L 311.49683 230.720945 
L 312.966397 229.655648 
L 314.435964 228.832464 
L 317.375098 228.445083 
L 318.844664 227.476631 
L 320.314231 226.169221 
L 321.783798 225.152346 
L 324.722932 223.505978 
L 326.192499 221.472228 
L 327.662066 220.116396 
L 329.131633 219.390057 
L 330.6012 219.244789 
L 332.070767 218.954253 
L 333.540334 218.227914 
L 335.009901 216.048897 
L 336.479467 215.177291 
L 337.949034 213.095119 
L 339.418601 212.029822 
L 340.888168 210.722411 
L 342.357735 210.044495 
L 343.827302 209.705537 
L 345.296869 208.83393 
L 348.236003 208.543394 
L 351.175137 203.749557 
L 352.644703 200.650511 
L 354.11427 194.11346 
L 355.583837 192.612359 
L 357.053404 187.624832 
L 358.522971 185.494237 
L 359.992538 183.073107 
L 361.462105 180.264596 
L 362.931672 177.988734 
L 364.401239 177.940312 
L 365.870806 174.114926 
L 367.340373 171.257993 
L 370.279506 163.607222 
L 371.749073 162.832461 
L 373.21864 158.232314 
L 374.688207 154.988 
L 376.157774 154.503774 
L 377.627341 154.649041 
L 379.096908 153.244786 
L 380.566475 153.971125 
L 382.036042 150.14574 
L 383.505609 149.855204 
L 386.444742 143.899224 
L 389.383876 136.92637 
L 390.853443 132.229378 
L 392.32301 133.149407 
L 393.792577 133.052562 
L 395.262144 135.086311 
L 396.731711 135.376847 
L 398.201278 137.168483 
L 399.670845 137.701132 
L 401.140412 142.204433 
L 402.609979 144.577141 
L 404.079545 145.787706 
L 404.079545 145.787706 
" style="fill:none;stroke:#9467bd;stroke-linecap:square;stroke-width:1.5;"/>
   </g>
   <g id="line2d_19">
    <path clip-path="url(#p9fb77f654f)" d="M 61.670455 172.675763 
L 63.140021 168.402563 
L 64.609588 163.506187 
L 66.079155 159.455549 
L 67.548722 147.944615 
L 69.018289 134.395009 
L 71.957423 112.622035 
L 73.42699 98.619673 
L 74.896557 89.462815 
L 76.366124 76.60506 
L 77.835691 62.183009 
L 79.305258 61.87778 
L 80.774824 58.367651 
L 82.244391 46.311121 
L 83.713958 46.005893 
L 85.183525 39.061942 
L 86.653092 36.772727 
L 88.122659 42.114228 
L 89.592226 39.176403 
L 91.061793 40.053935 
L 92.53136 50.775089 
L 94.000927 55.200904 
L 95.470494 64.472223 
L 98.409627 90.225886 
L 99.879194 100.71812 
L 101.348761 113.385107 
L 104.287895 126.319169 
L 105.757462 134.216959 
L 107.227029 137.803395 
L 108.696596 141.923981 
L 110.166163 147.9904 
L 111.63573 155.125118 
L 113.105297 159.779855 
L 114.574863 166.914573 
L 116.04443 172.484995 
L 117.513997 176.414813 
L 118.983564 178.208031 
L 120.453131 179.734174 
L 121.922698 180.230171 
L 123.392265 183.396918 
L 124.861832 182.25231 
L 126.331399 181.756314 
L 127.800966 182.786461 
L 129.270533 186.067668 
L 130.740099 188.738418 
L 132.209666 188.585804 
L 133.679233 187.860886 
L 135.1488 191.752551 
L 136.618367 194.232533 
L 138.087934 197.055898 
L 139.557501 200.260798 
L 141.027068 203.999848 
L 142.496635 208.769045 
L 143.966202 213.004092 
L 145.435769 213.843471 
L 146.905336 214.835464 
L 148.374902 216.170839 
L 149.844469 216.81945 
L 151.314036 216.476068 
L 152.783603 217.239139 
L 154.25317 217.811443 
L 155.722737 217.811443 
L 157.192304 218.4219 
L 158.661871 218.803436 
L 161.601005 220.596654 
L 163.070572 220.672961 
L 164.540139 221.397879 
L 166.009705 222.389872 
L 167.479272 222.885868 
L 170.418406 222.885868 
L 171.887973 223.496326 
L 176.296674 223.534479 
L 180.705375 221.588647 
L 182.174941 222.199104 
L 185.114075 224.221243 
L 186.583642 224.984315 
L 188.053209 225.976308 
L 189.522776 227.27353 
L 190.992343 228.036601 
L 192.46191 227.235376 
L 195.401044 225.976308 
L 196.870611 225.327697 
L 198.340178 225.365851 
L 199.809744 225.25139 
L 202.748878 224.335704 
L 207.157579 224.946161 
L 208.627146 224.564626 
L 210.096713 224.831701 
L 213.035847 227.92214 
L 214.505414 227.845833 
L 217.444547 229.333823 
L 218.914114 229.829819 
L 220.383681 229.639051 
L 221.853248 229.257515 
L 223.322815 229.333823 
L 224.792382 230.211355 
L 226.261949 230.211355 
L 227.731516 229.982433 
L 229.201083 229.94428 
L 230.67065 230.211355 
L 232.140217 230.669198 
L 235.07935 231.241501 
L 236.548917 231.355962 
L 238.018484 231.661191 
L 240.957618 232.462416 
L 242.427185 232.61503 
L 243.896752 232.920259 
L 246.835886 233.721484 
L 248.305453 233.835944 
L 252.714153 233.912252 
L 254.18372 234.064866 
L 255.653287 234.064866 
L 257.122854 234.408248 
L 258.592421 234.904245 
L 261.531555 234.866091 
L 263.001122 235.17132 
L 264.470689 235.247627 
L 267.409822 235.133166 
L 268.879389 234.942398 
L 270.348956 235.056859 
L 271.818523 235.056859 
L 273.28809 234.789784 
L 274.757657 234.293787 
L 276.227224 234.560862 
L 280.635925 234.370095 
L 282.105492 234.484555 
L 283.575059 234.75163 
L 285.044625 235.209473 
L 286.514192 235.133166 
L 290.922893 235.400241 
L 292.39246 235.362088 
L 295.331594 235.095012 
L 298.270728 235.209473 
L 299.740295 234.980552 
L 301.209861 234.866091 
L 305.618562 235.056859 
L 307.088129 234.827937 
L 308.557696 234.446402 
L 310.027263 234.446402 
L 311.49683 233.797791 
L 312.966397 233.568869 
L 314.435964 233.607023 
L 318.844664 233.034719 
L 320.314231 232.958412 
L 321.783798 233.111027 
L 323.253365 232.691337 
L 324.722932 231.699344 
L 326.192499 231.127041 
L 329.131633 230.47843 
L 330.6012 229.41013 
L 336.479467 227.502451 
L 337.949034 227.082762 
L 339.418601 226.357844 
L 342.357735 226.701226 
L 345.296869 227.883987 
L 346.766436 227.845833 
L 348.236003 228.036601 
L 351.175137 227.883987 
L 352.644703 227.502451 
L 354.11427 227.349837 
L 355.583837 226.624919 
L 357.053404 226.357844 
L 358.522971 225.78554 
L 359.992538 226.205229 
L 361.462105 225.518465 
L 362.931672 225.022469 
L 365.870806 223.305558 
L 368.80994 221.016343 
L 370.279506 219.528354 
L 371.749073 219.070511 
L 373.21864 217.696982 
L 374.688207 215.980071 
L 376.157774 215.178846 
L 377.627341 214.568389 
L 379.096908 213.118553 
L 380.566475 211.973946 
L 382.036042 209.761038 
L 384.975176 208.082281 
L 386.444742 205.602299 
L 387.914309 204.839227 
L 389.383876 204.915534 
L 390.853443 203.69462 
L 392.32301 203.656466 
L 393.792577 202.74078 
L 395.262144 202.130323 
L 396.731711 202.855241 
L 398.201278 203.084163 
L 399.670845 202.664473 
L 402.609979 204.457691 
L 404.079545 205.335224 
L 404.079545 205.335224 
" style="fill:none;stroke:#8c564b;stroke-linecap:square;stroke-width:1.5;"/>
   </g>
   <g id="line2d_20">
    <path clip-path="url(#p9fb77f654f)" d="M 61.670455 228.342015 
L 63.140021 228.342015 
L 64.609588 226.631224 
L 66.079155 224.676034 
L 67.548722 223.722879 
L 69.018289 219.421462 
L 70.487856 217.920156 
L 71.957423 210.745308 
L 73.42699 207.026956 
L 74.896557 202.470666 
L 76.366124 194.510251 
L 77.835691 189.168394 
L 79.305258 187.073548 
L 80.774824 182.307773 
L 82.244391 181.050865 
L 83.713958 175.918493 
L 85.183525 173.876018 
L 86.653092 172.880966 
L 88.122659 168.53416 
L 89.592226 167.59148 
L 91.061793 164.86818 
L 92.53136 164.449211 
L 94.000927 163.244674 
L 95.470494 163.139932 
L 96.94006 167.120139 
L 98.409627 168.010449 
L 99.879194 166.805913 
L 101.348761 172.357254 
L 104.287895 178.641793 
L 105.757462 177.280143 
L 107.227029 177.070658 
L 108.696596 181.679319 
L 110.166163 183.721794 
L 111.63573 183.355196 
L 113.105297 183.617052 
L 114.574863 184.297877 
L 116.04443 187.597259 
L 118.983564 187.544888 
L 121.922698 183.721794 
L 123.392265 180.055814 
L 124.861832 180.78901 
L 126.331399 181.679319 
L 127.800966 180.684267 
L 129.270533 181.626948 
L 130.740099 186.549836 
L 132.209666 188.0686 
L 133.679233 192.363034 
L 135.1488 195.34819 
L 136.618367 195.871901 
L 138.087934 200.899532 
L 139.557501 201.999326 
L 141.027068 200.637676 
L 142.496635 203.57046 
L 143.966202 205.036852 
L 145.435769 203.884687 
L 146.905336 205.403451 
L 148.374902 204.670254 
L 149.844469 205.036852 
L 151.314036 206.607987 
L 152.783603 205.508193 
L 155.722737 206.7651 
L 160.131438 211.792731 
L 161.601005 211.845102 
L 163.070572 213.730464 
L 166.009705 216.29665 
L 167.479272 216.087165 
L 168.948839 217.291702 
L 170.418406 216.925104 
L 171.887973 218.234382 
L 173.35754 218.810465 
L 174.827107 218.548609 
L 176.296674 219.072321 
L 177.766241 219.753146 
L 179.235808 219.596032 
L 180.705375 221.167167 
L 182.174941 222.005105 
L 183.644508 222.371703 
L 186.583642 223.942838 
L 188.053209 223.838096 
L 189.522776 223.523869 
L 190.992343 222.005105 
L 192.46191 222.581188 
L 193.931477 222.371703 
L 196.870611 222.68593 
L 198.340178 223.366755 
L 201.279311 224.93789 
L 202.748878 225.566344 
L 204.218445 226.77088 
L 207.157579 226.351911 
L 208.627146 226.561395 
L 210.096713 227.24222 
L 211.56628 228.394386 
L 214.505414 228.446757 
L 215.97498 229.49418 
L 217.444547 230.698716 
L 218.914114 230.593974 
L 220.383681 229.808407 
L 221.853248 229.756036 
L 224.792382 230.070263 
L 226.261949 230.803459 
L 227.731516 230.803459 
L 229.201083 231.065314 
L 230.67065 231.746139 
L 233.609783 231.955624 
L 235.07935 231.79851 
L 236.548917 231.32717 
L 238.018484 231.274799 
L 240.957618 231.746139 
L 243.896752 232.845933 
L 245.366319 233.16016 
L 246.835886 232.793562 
L 248.305453 232.68882 
L 249.77502 232.269851 
L 251.244586 232.21748 
L 252.714153 231.693768 
L 254.18372 231.589026 
L 255.653287 231.850882 
L 257.122854 232.68882 
L 258.592421 233.055418 
L 260.061988 233.788614 
L 261.531555 233.788614 
L 263.001122 234.364697 
L 267.409822 234.94078 
L 270.348956 234.469439 
L 271.818523 234.678924 
L 274.757657 234.52181 
L 276.227224 234.731295 
L 277.696791 234.626553 
L 285.044625 235.202635 
L 286.514192 235.045522 
L 289.453326 235.516862 
L 292.39246 235.621604 
L 293.862027 235.88346 
L 295.331594 235.673976 
L 299.740295 235.621604 
L 301.209861 235.464491 
L 304.148995 235.516862 
L 305.618562 235.831089 
L 308.557696 235.516862 
L 311.49683 235.516862 
L 312.966397 235.516862 
L 314.435964 235.255006 
L 315.905531 235.255006 
L 317.375098 235.41212 
L 318.844664 235.41212 
L 324.722932 234.469439 
L 326.192499 233.893357 
L 329.131633 233.683872 
L 330.6012 233.788614 
L 332.070767 234.155212 
L 333.540334 234.05047 
L 336.479467 234.364697 
L 337.949034 234.417068 
L 339.418601 234.05047 
L 340.888168 233.422016 
L 345.296869 232.21748 
L 346.766436 232.269851 
L 348.236003 231.693768 
L 349.70557 231.79851 
L 351.175137 231.641397 
L 352.644703 231.274799 
L 354.11427 231.222428 
L 355.583837 230.698716 
L 358.522971 230.698716 
L 359.992538 230.070263 
L 361.462105 230.070263 
L 362.931672 230.227376 
L 364.401239 229.651293 
L 365.870806 229.598922 
L 367.340373 228.499128 
L 368.80994 227.975416 
L 370.279506 227.032736 
L 371.749073 226.823251 
L 373.21864 225.723457 
L 374.688207 224.990261 
L 376.157774 223.995209 
L 377.627341 223.942838 
L 379.096908 222.738301 
L 380.566475 222.21459 
L 382.036042 220.486342 
L 383.505609 220.224486 
L 384.975176 219.124692 
L 386.444742 218.496238 
L 390.853443 215.720567 
L 392.32301 215.144485 
L 393.792577 214.411288 
L 395.262144 214.149433 
L 396.731711 214.149433 
L 398.201278 212.840154 
L 399.670845 211.845102 
L 401.140412 211.897473 
L 402.609979 212.2117 
L 404.079545 212.106958 
L 404.079545 212.106958 
" style="fill:none;stroke:#e377c2;stroke-linecap:square;stroke-width:1.5;"/>
   </g>
   <g id="line2d_21"/>
   <g id="line2d_22"/>
   <g id="line2d_23"/>
   <g id="line2d_24"/>
   <g id="line2d_25"/>
   <g id="line2d_26"/>
   <g id="line2d_27"/>
   <g id="patch_3">
    <path d="M 44.55 246.2 
L 44.55 26.8 
" style="fill:none;stroke:#000000;stroke-linecap:square;stroke-linejoin:miter;stroke-width:0.8;"/>
   </g>
   <g id="patch_4">
    <path d="M 421.2 246.2 
L 421.2 26.8 
" style="fill:none;stroke:#000000;stroke-linecap:square;stroke-linejoin:miter;stroke-width:0.8;"/>
   </g>
   <g id="patch_5">
    <path d="M 44.55 246.2 
L 421.2 246.2 
" style="fill:none;stroke:#000000;stroke-linecap:square;stroke-linejoin:miter;stroke-width:0.8;"/>
   </g>
   <g id="patch_6">
    <path d="M 44.55 26.8 
L 421.2 26.8 
" style="fill:none;stroke:#000000;stroke-linecap:square;stroke-linejoin:miter;stroke-width:0.8;"/>
   </g>
   <g id="text_16">
    <!-- New admissions per million people by NHS region (7 day rolling) -->
    <g transform="translate(39.615938 20.8)scale(0.12 -0.12)">
     <defs>
      <path d="M 48.6875 27.296875 
Q 48.6875 37.203125 44.609375 42.84375 
Q 40.53125 48.484375 33.40625 48.484375 
Q 26.265625 48.484375 22.1875 42.84375 
Q 18.109375 37.203125 18.109375 27.296875 
Q 18.109375 17.390625 22.1875 11.75 
Q 26.265625 6.109375 33.40625 6.109375 
Q 40.53125 6.109375 44.609375 11.75 
Q 48.6875 17.390625 48.6875 27.296875 
z
M 18.109375 46.390625 
Q 20.953125 51.265625 25.265625 53.625 
Q 29.59375 56 35.59375 56 
Q 45.5625 56 51.78125 48.09375 
Q 58.015625 40.1875 58.015625 27.296875 
Q 58.015625 14.40625 51.78125 6.484375 
Q 45.5625 -1.421875 35.59375 -1.421875 
Q 29.59375 -1.421875 25.265625 0.953125 
Q 20.953125 3.328125 18.109375 8.203125 
L 18.109375 0 
L 9.078125 0 
L 9.078125 75.984375 
L 18.109375 75.984375 
z
" id="DejaVuSans-98"/>
      <path d="M 32.171875 -5.078125 
Q 28.375 -14.84375 24.75 -17.8125 
Q 21.140625 -20.796875 15.09375 -20.796875 
L 7.90625 -20.796875 
L 7.90625 -13.28125 
L 13.1875 -13.28125 
Q 16.890625 -13.28125 18.9375 -11.515625 
Q 21 -9.765625 23.484375 -3.21875 
L 25.09375 0.875 
L 2.984375 54.6875 
L 12.5 54.6875 
L 29.59375 11.921875 
L 46.6875 54.6875 
L 56.203125 54.6875 
z
" id="DejaVuSans-121"/>
      <path d="M 9.8125 72.90625 
L 19.671875 72.90625 
L 19.671875 43.015625 
L 55.515625 43.015625 
L 55.515625 72.90625 
L 65.375 72.90625 
L 65.375 0 
L 55.515625 0 
L 55.515625 34.71875 
L 19.671875 34.71875 
L 19.671875 0 
L 9.8125 0 
z
" id="DejaVuSans-72"/>
      <path d="M 53.515625 70.515625 
L 53.515625 60.890625 
Q 47.90625 63.578125 42.921875 64.890625 
Q 37.9375 66.21875 33.296875 66.21875 
Q 25.25 66.21875 20.875 63.09375 
Q 16.5 59.96875 16.5 54.203125 
Q 16.5 49.359375 19.40625 46.890625 
Q 22.3125 44.4375 30.421875 42.921875 
L 36.375 41.703125 
Q 47.40625 39.59375 52.65625 34.296875 
Q 57.90625 29 57.90625 20.125 
Q 57.90625 9.515625 50.796875 4.046875 
Q 43.703125 -1.421875 29.984375 -1.421875 
Q 24.8125 -1.421875 18.96875 -0.25 
Q 13.140625 0.921875 6.890625 3.21875 
L 6.890625 13.375 
Q 12.890625 10.015625 18.65625 8.296875 
Q 24.421875 6.59375 29.984375 6.59375 
Q 38.421875 6.59375 43.015625 9.90625 
Q 47.609375 13.234375 47.609375 19.390625 
Q 47.609375 24.75 44.3125 27.78125 
Q 41.015625 30.8125 33.5 32.328125 
L 27.484375 33.5 
Q 16.453125 35.6875 11.515625 40.375 
Q 6.59375 45.0625 6.59375 53.421875 
Q 6.59375 63.09375 13.40625 68.65625 
Q 20.21875 74.21875 32.171875 74.21875 
Q 37.3125 74.21875 42.625 73.28125 
Q 47.953125 72.359375 53.515625 70.515625 
z
" id="DejaVuSans-83"/>
      <path d="M 45.40625 27.984375 
Q 45.40625 37.75 41.375 43.109375 
Q 37.359375 48.484375 30.078125 48.484375 
Q 22.859375 48.484375 18.828125 43.109375 
Q 14.796875 37.75 14.796875 27.984375 
Q 14.796875 18.265625 18.828125 12.890625 
Q 22.859375 7.515625 30.078125 7.515625 
Q 37.359375 7.515625 41.375 12.890625 
Q 45.40625 18.265625 45.40625 27.984375 
z
M 54.390625 6.78125 
Q 54.390625 -7.171875 48.1875 -13.984375 
Q 42 -20.796875 29.203125 -20.796875 
Q 24.46875 -20.796875 20.265625 -20.09375 
Q 16.0625 -19.390625 12.109375 -17.921875 
L 12.109375 -9.1875 
Q 16.0625 -11.328125 19.921875 -12.34375 
Q 23.78125 -13.375 27.78125 -13.375 
Q 36.625 -13.375 41.015625 -8.765625 
Q 45.40625 -4.15625 45.40625 5.171875 
L 45.40625 9.625 
Q 42.625 4.78125 38.28125 2.390625 
Q 33.9375 0 27.875 0 
Q 17.828125 0 11.671875 7.65625 
Q 5.515625 15.328125 5.515625 27.984375 
Q 5.515625 40.671875 11.671875 48.328125 
Q 17.828125 56 27.875 56 
Q 33.9375 56 38.28125 53.609375 
Q 42.625 51.21875 45.40625 46.390625 
L 45.40625 54.6875 
L 54.390625 54.6875 
z
" id="DejaVuSans-103"/>
      <path d="M 31 75.875 
Q 24.46875 64.65625 21.28125 53.65625 
Q 18.109375 42.671875 18.109375 31.390625 
Q 18.109375 20.125 21.3125 9.0625 
Q 24.515625 -2 31 -13.1875 
L 23.1875 -13.1875 
Q 15.875 -1.703125 12.234375 9.375 
Q 8.59375 20.453125 8.59375 31.390625 
Q 8.59375 42.28125 12.203125 53.3125 
Q 15.828125 64.359375 23.1875 75.875 
z
" id="DejaVuSans-40"/>
      <path d="M 8.015625 75.875 
L 15.828125 75.875 
Q 23.140625 64.359375 26.78125 53.3125 
Q 30.421875 42.28125 30.421875 31.390625 
Q 30.421875 20.453125 26.78125 9.375 
Q 23.140625 -1.703125 15.828125 -13.1875 
L 8.015625 -13.1875 
Q 14.5 -2 17.703125 9.0625 
Q 20.90625 20.125 20.90625 31.390625 
Q 20.90625 42.671875 17.703125 53.65625 
Q 14.5 64.65625 8.015625 75.875 
z
" id="DejaVuSans-41"/>
     </defs>
     <use xlink:href="#DejaVuSans-78"/>
     <use x="74.804688" xlink:href="#DejaVuSans-101"/>
     <use x="136.328125" xlink:href="#DejaVuSans-119"/>
     <use x="218.115234" xlink:href="#DejaVuSans-32"/>
     <use x="249.902344" xlink:href="#DejaVuSans-97"/>
     <use x="311.181641" xlink:href="#DejaVuSans-100"/>
     <use x="374.658203" xlink:href="#DejaVuSans-109"/>
     <use x="472.070312" xlink:href="#DejaVuSans-105"/>
     <use x="499.853516" xlink:href="#DejaVuSans-115"/>
     <use x="551.953125" xlink:href="#DejaVuSans-115"/>
     <use x="604.052734" xlink:href="#DejaVuSans-105"/>
     <use x="631.835938" xlink:href="#DejaVuSans-111"/>
     <use x="693.017578" xlink:href="#DejaVuSans-110"/>
     <use x="756.396484" xlink:href="#DejaVuSans-115"/>
     <use x="808.496094" xlink:href="#DejaVuSans-32"/>
     <use x="840.283203" xlink:href="#DejaVuSans-112"/>
     <use x="903.759766" xlink:href="#DejaVuSans-101"/>
     <use x="965.283203" xlink:href="#DejaVuSans-114"/>
     <use x="1006.396484" xlink:href="#DejaVuSans-32"/>
     <use x="1038.183594" xlink:href="#DejaVuSans-109"/>
     <use x="1135.595703" xlink:href="#DejaVuSans-105"/>
     <use x="1163.378906" xlink:href="#DejaVuSans-108"/>
     <use x="1191.162109" xlink:href="#DejaVuSans-108"/>
     <use x="1218.945312" xlink:href="#DejaVuSans-105"/>
     <use x="1246.728516" xlink:href="#DejaVuSans-111"/>
     <use x="1307.910156" xlink:href="#DejaVuSans-110"/>
     <use x="1371.289062" xlink:href="#DejaVuSans-32"/>
     <use x="1403.076172" xlink:href="#DejaVuSans-112"/>
     <use x="1466.552734" xlink:href="#DejaVuSans-101"/>
     <use x="1528.076172" xlink:href="#DejaVuSans-111"/>
     <use x="1589.257812" xlink:href="#DejaVuSans-112"/>
     <use x="1652.734375" xlink:href="#DejaVuSans-108"/>
     <use x="1680.517578" xlink:href="#DejaVuSans-101"/>
     <use x="1742.041016" xlink:href="#DejaVuSans-32"/>
     <use x="1773.828125" xlink:href="#DejaVuSans-98"/>
     <use x="1837.304688" xlink:href="#DejaVuSans-121"/>
     <use x="1896.484375" xlink:href="#DejaVuSans-32"/>
     <use x="1928.271484" xlink:href="#DejaVuSans-78"/>
     <use x="2003.076172" xlink:href="#DejaVuSans-72"/>
     <use x="2078.271484" xlink:href="#DejaVuSans-83"/>
     <use x="2141.748047" xlink:href="#DejaVuSans-32"/>
     <use x="2173.535156" xlink:href="#DejaVuSans-114"/>
     <use x="2212.398438" xlink:href="#DejaVuSans-101"/>
     <use x="2273.921875" xlink:href="#DejaVuSans-103"/>
     <use x="2337.398438" xlink:href="#DejaVuSans-105"/>
     <use x="2365.181641" xlink:href="#DejaVuSans-111"/>
     <use x="2426.363281" xlink:href="#DejaVuSans-110"/>
     <use x="2489.742188" xlink:href="#DejaVuSans-32"/>
     <use x="2521.529297" xlink:href="#DejaVuSans-40"/>
     <use x="2560.542969" xlink:href="#DejaVuSans-55"/>
     <use x="2624.166016" xlink:href="#DejaVuSans-32"/>
     <use x="2655.953125" xlink:href="#DejaVuSans-100"/>
     <use x="2719.429688" xlink:href="#DejaVuSans-97"/>
     <use x="2780.708984" xlink:href="#DejaVuSans-121"/>
     <use x="2839.888672" xlink:href="#DejaVuSans-32"/>
     <use x="2871.675781" xlink:href="#DejaVuSans-114"/>
     <use x="2910.539062" xlink:href="#DejaVuSans-111"/>
     <use x="2971.720703" xlink:href="#DejaVuSans-108"/>
     <use x="2999.503906" xlink:href="#DejaVuSans-108"/>
     <use x="3027.287109" xlink:href="#DejaVuSans-105"/>
     <use x="3055.070312" xlink:href="#DejaVuSans-110"/>
     <use x="3118.449219" xlink:href="#DejaVuSans-103"/>
     <use x="3181.925781" xlink:href="#DejaVuSans-41"/>
    </g>
   </g>
   <g id="legend_1">
    <g id="patch_7">
     <path d="M 155.344531 152.225 
L 310.405469 152.225 
Q 312.405469 152.225 312.405469 150.225 
L 312.405469 33.8 
Q 312.405469 31.8 310.405469 31.8 
L 155.344531 31.8 
Q 153.344531 31.8 153.344531 33.8 
L 153.344531 150.225 
Q 153.344531 152.225 155.344531 152.225 
z
" style="fill:#ffffff;opacity:0.8;stroke:#cccccc;stroke-linejoin:miter;"/>
    </g>
    <g id="text_17">
     <!-- NHS region -->
     <g transform="translate(204.8 43.398437)scale(0.1 -0.1)">
      <use xlink:href="#DejaVuSans-78"/>
      <use x="74.804688" xlink:href="#DejaVuSans-72"/>
      <use x="150" xlink:href="#DejaVuSans-83"/>
      <use x="213.476562" xlink:href="#DejaVuSans-32"/>
      <use x="245.263672" xlink:href="#DejaVuSans-114"/>
      <use x="284.126953" xlink:href="#DejaVuSans-101"/>
      <use x="345.650391" xlink:href="#DejaVuSans-103"/>
      <use x="409.126953" xlink:href="#DejaVuSans-105"/>
      <use x="436.910156" xlink:href="#DejaVuSans-111"/>
      <use x="498.091797" xlink:href="#DejaVuSans-110"/>
     </g>
    </g>
    <g id="line2d_28">
     <path d="M 157.344531 54.576562 
L 177.344531 54.576562 
" style="fill:none;stroke:#1f77b4;stroke-linecap:square;stroke-width:1.5;"/>
    </g>
    <g id="line2d_29"/>
    <g id="text_18">
     <!-- South West -->
     <g transform="translate(185.344531 58.076562)scale(0.1 -0.1)">
      <defs>
       <path d="M 54.890625 33.015625 
L 54.890625 0 
L 45.90625 0 
L 45.90625 32.71875 
Q 45.90625 40.484375 42.875 44.328125 
Q 39.84375 48.1875 33.796875 48.1875 
Q 26.515625 48.1875 22.3125 43.546875 
Q 18.109375 38.921875 18.109375 30.90625 
L 18.109375 0 
L 9.078125 0 
L 9.078125 75.984375 
L 18.109375 75.984375 
L 18.109375 46.1875 
Q 21.34375 51.125 25.703125 53.5625 
Q 30.078125 56 35.796875 56 
Q 45.21875 56 50.046875 50.171875 
Q 54.890625 44.34375 54.890625 33.015625 
z
" id="DejaVuSans-104"/>
       <path d="M 3.328125 72.90625 
L 13.28125 72.90625 
L 28.609375 11.28125 
L 43.890625 72.90625 
L 54.984375 72.90625 
L 70.3125 11.28125 
L 85.59375 72.90625 
L 95.609375 72.90625 
L 77.296875 0 
L 64.890625 0 
L 49.515625 63.28125 
L 33.984375 0 
L 21.578125 0 
z
" id="DejaVuSans-87"/>
      </defs>
      <use xlink:href="#DejaVuSans-83"/>
      <use x="63.476562" xlink:href="#DejaVuSans-111"/>
      <use x="124.658203" xlink:href="#DejaVuSans-117"/>
      <use x="188.037109" xlink:href="#DejaVuSans-116"/>
      <use x="227.246094" xlink:href="#DejaVuSans-104"/>
      <use x="290.625" xlink:href="#DejaVuSans-32"/>
      <use x="322.412109" xlink:href="#DejaVuSans-87"/>
      <use x="415.414062" xlink:href="#DejaVuSans-101"/>
      <use x="476.9375" xlink:href="#DejaVuSans-115"/>
      <use x="529.037109" xlink:href="#DejaVuSans-116"/>
     </g>
    </g>
    <g id="line2d_30">
     <path d="M 157.344531 69.254687 
L 177.344531 69.254687 
" style="fill:none;stroke:#ff7f0e;stroke-linecap:square;stroke-width:1.5;"/>
    </g>
    <g id="line2d_31"/>
    <g id="text_19">
     <!-- South East -->
     <g transform="translate(185.344531 72.754687)scale(0.1 -0.1)">
      <defs>
       <path d="M 9.8125 72.90625 
L 55.90625 72.90625 
L 55.90625 64.59375 
L 19.671875 64.59375 
L 19.671875 43.015625 
L 54.390625 43.015625 
L 54.390625 34.71875 
L 19.671875 34.71875 
L 19.671875 8.296875 
L 56.78125 8.296875 
L 56.78125 0 
L 9.8125 0 
z
" id="DejaVuSans-69"/>
      </defs>
      <use xlink:href="#DejaVuSans-83"/>
      <use x="63.476562" xlink:href="#DejaVuSans-111"/>
      <use x="124.658203" xlink:href="#DejaVuSans-117"/>
      <use x="188.037109" xlink:href="#DejaVuSans-116"/>
      <use x="227.246094" xlink:href="#DejaVuSans-104"/>
      <use x="290.625" xlink:href="#DejaVuSans-32"/>
      <use x="322.412109" xlink:href="#DejaVuSans-69"/>
      <use x="385.595703" xlink:href="#DejaVuSans-97"/>
      <use x="446.875" xlink:href="#DejaVuSans-115"/>
      <use x="498.974609" xlink:href="#DejaVuSans-116"/>
     </g>
    </g>
    <g id="line2d_32">
     <path d="M 157.344531 83.932812 
L 177.344531 83.932812 
" style="fill:none;stroke:#2ca02c;stroke-linecap:square;stroke-width:1.5;"/>
    </g>
    <g id="line2d_33"/>
    <g id="text_20">
     <!-- Midlands -->
     <g transform="translate(185.344531 87.432812)scale(0.1 -0.1)">
      <defs>
       <path d="M 9.8125 72.90625 
L 24.515625 72.90625 
L 43.109375 23.296875 
L 61.8125 72.90625 
L 76.515625 72.90625 
L 76.515625 0 
L 66.890625 0 
L 66.890625 64.015625 
L 48.09375 14.015625 
L 38.1875 14.015625 
L 19.390625 64.015625 
L 19.390625 0 
L 9.8125 0 
z
" id="DejaVuSans-77"/>
      </defs>
      <use xlink:href="#DejaVuSans-77"/>
      <use x="86.279297" xlink:href="#DejaVuSans-105"/>
      <use x="114.0625" xlink:href="#DejaVuSans-100"/>
      <use x="177.539062" xlink:href="#DejaVuSans-108"/>
      <use x="205.322266" xlink:href="#DejaVuSans-97"/>
      <use x="266.601562" xlink:href="#DejaVuSans-110"/>
      <use x="329.980469" xlink:href="#DejaVuSans-100"/>
      <use x="393.457031" xlink:href="#DejaVuSans-115"/>
     </g>
    </g>
    <g id="line2d_34">
     <path d="M 157.344531 98.610937 
L 177.344531 98.610937 
" style="fill:none;stroke:#d62728;stroke-linecap:square;stroke-width:1.5;"/>
    </g>
    <g id="line2d_35"/>
    <g id="text_21">
     <!-- North East and Yorkshire -->
     <g transform="translate(185.344531 102.110937)scale(0.1 -0.1)">
      <defs>
       <path d="M -0.203125 72.90625 
L 10.40625 72.90625 
L 30.609375 42.921875 
L 50.6875 72.90625 
L 61.28125 72.90625 
L 35.5 34.71875 
L 35.5 0 
L 25.59375 0 
L 25.59375 34.71875 
z
" id="DejaVuSans-89"/>
       <path d="M 9.078125 75.984375 
L 18.109375 75.984375 
L 18.109375 31.109375 
L 44.921875 54.6875 
L 56.390625 54.6875 
L 27.390625 29.109375 
L 57.625 0 
L 45.90625 0 
L 18.109375 26.703125 
L 18.109375 0 
L 9.078125 0 
z
" id="DejaVuSans-107"/>
      </defs>
      <use xlink:href="#DejaVuSans-78"/>
      <use x="74.804688" xlink:href="#DejaVuSans-111"/>
      <use x="135.986328" xlink:href="#DejaVuSans-114"/>
      <use x="177.099609" xlink:href="#DejaVuSans-116"/>
      <use x="216.308594" xlink:href="#DejaVuSans-104"/>
      <use x="279.6875" xlink:href="#DejaVuSans-32"/>
      <use x="311.474609" xlink:href="#DejaVuSans-69"/>
      <use x="374.658203" xlink:href="#DejaVuSans-97"/>
      <use x="435.9375" xlink:href="#DejaVuSans-115"/>
      <use x="488.037109" xlink:href="#DejaVuSans-116"/>
      <use x="527.246094" xlink:href="#DejaVuSans-32"/>
      <use x="559.033203" xlink:href="#DejaVuSans-97"/>
      <use x="620.3125" xlink:href="#DejaVuSans-110"/>
      <use x="683.691406" xlink:href="#DejaVuSans-100"/>
      <use x="747.167969" xlink:href="#DejaVuSans-32"/>
      <use x="778.955078" xlink:href="#DejaVuSans-89"/>
      <use x="826.789062" xlink:href="#DejaVuSans-111"/>
      <use x="887.970703" xlink:href="#DejaVuSans-114"/>
      <use x="929.083984" xlink:href="#DejaVuSans-107"/>
      <use x="986.994141" xlink:href="#DejaVuSans-115"/>
      <use x="1039.09375" xlink:href="#DejaVuSans-104"/>
      <use x="1102.472656" xlink:href="#DejaVuSans-105"/>
      <use x="1130.255859" xlink:href="#DejaVuSans-114"/>
      <use x="1169.119141" xlink:href="#DejaVuSans-101"/>
     </g>
    </g>
    <g id="line2d_36">
     <path d="M 157.344531 113.289062 
L 177.344531 113.289062 
" style="fill:none;stroke:#9467bd;stroke-linecap:square;stroke-width:1.5;"/>
    </g>
    <g id="line2d_37"/>
    <g id="text_22">
     <!-- North West -->
     <g transform="translate(185.344531 116.789062)scale(0.1 -0.1)">
      <use xlink:href="#DejaVuSans-78"/>
      <use x="74.804688" xlink:href="#DejaVuSans-111"/>
      <use x="135.986328" xlink:href="#DejaVuSans-114"/>
      <use x="177.099609" xlink:href="#DejaVuSans-116"/>
      <use x="216.308594" xlink:href="#DejaVuSans-104"/>
      <use x="279.6875" xlink:href="#DejaVuSans-32"/>
      <use x="311.474609" xlink:href="#DejaVuSans-87"/>
      <use x="404.476562" xlink:href="#DejaVuSans-101"/>
      <use x="466" xlink:href="#DejaVuSans-115"/>
      <use x="518.099609" xlink:href="#DejaVuSans-116"/>
     </g>
    </g>
    <g id="line2d_38">
     <path d="M 157.344531 127.967187 
L 177.344531 127.967187 
" style="fill:none;stroke:#8c564b;stroke-linecap:square;stroke-width:1.5;"/>
    </g>
    <g id="line2d_39"/>
    <g id="text_23">
     <!-- London -->
     <g transform="translate(185.344531 131.467187)scale(0.1 -0.1)">
      <defs>
       <path d="M 9.8125 72.90625 
L 19.671875 72.90625 
L 19.671875 8.296875 
L 55.171875 8.296875 
L 55.171875 0 
L 9.8125 0 
z
" id="DejaVuSans-76"/>
      </defs>
      <use xlink:href="#DejaVuSans-76"/>
      <use x="53.962891" xlink:href="#DejaVuSans-111"/>
      <use x="115.144531" xlink:href="#DejaVuSans-110"/>
      <use x="178.523438" xlink:href="#DejaVuSans-100"/>
      <use x="242" xlink:href="#DejaVuSans-111"/>
      <use x="303.181641" xlink:href="#DejaVuSans-110"/>
     </g>
    </g>
    <g id="line2d_40">
     <path d="M 157.344531 142.645312 
L 177.344531 142.645312 
" style="fill:none;stroke:#e377c2;stroke-linecap:square;stroke-width:1.5;"/>
    </g>
    <g id="line2d_41"/>
    <g id="text_24">
     <!-- East of England -->
     <g transform="translate(185.344531 146.145312)scale(0.1 -0.1)">
      <defs>
       <path d="M 37.109375 75.984375 
L 37.109375 68.5 
L 28.515625 68.5 
Q 23.6875 68.5 21.796875 66.546875 
Q 19.921875 64.59375 19.921875 59.515625 
L 19.921875 54.6875 
L 34.71875 54.6875 
L 34.71875 47.703125 
L 19.921875 47.703125 
L 19.921875 0 
L 10.890625 0 
L 10.890625 47.703125 
L 2.296875 47.703125 
L 2.296875 54.6875 
L 10.890625 54.6875 
L 10.890625 58.5 
Q 10.890625 67.625 15.140625 71.796875 
Q 19.390625 75.984375 28.609375 75.984375 
z
" id="DejaVuSans-102"/>
      </defs>
      <use xlink:href="#DejaVuSans-69"/>
      <use x="63.183594" xlink:href="#DejaVuSans-97"/>
      <use x="124.462891" xlink:href="#DejaVuSans-115"/>
      <use x="176.5625" xlink:href="#DejaVuSans-116"/>
      <use x="215.771484" xlink:href="#DejaVuSans-32"/>
      <use x="247.558594" xlink:href="#DejaVuSans-111"/>
      <use x="308.740234" xlink:href="#DejaVuSans-102"/>
      <use x="343.945312" xlink:href="#DejaVuSans-32"/>
      <use x="375.732422" xlink:href="#DejaVuSans-69"/>
      <use x="438.916016" xlink:href="#DejaVuSans-110"/>
      <use x="502.294922" xlink:href="#DejaVuSans-103"/>
      <use x="565.771484" xlink:href="#DejaVuSans-108"/>
      <use x="593.554688" xlink:href="#DejaVuSans-97"/>
      <use x="654.833984" xlink:href="#DejaVuSans-110"/>
      <use x="718.212891" xlink:href="#DejaVuSans-100"/>
     </g>
    </g>
   </g>
  </g>
 </g>
 <defs>
  <clipPath id="p9fb77f654f">
   <rect height="219.4" width="376.65" x="44.55" y="26.8"/>
  </clipPath>
 </defs>
</svg>
