<?xml version="1.0" encoding="utf-8" standalone="no"?>
<!DOCTYPE svg PUBLIC "-//W3C//DTD SVG 1.1//EN"
  "http://www.w3.org/Graphics/SVG/1.1/DTD/svg11.dtd">
<!-- Created with matplotlib (https://matplotlib.org/) -->
<svg height="288pt" version="1.1" viewBox="0 0 432 288" width="432pt" xmlns="http://www.w3.org/2000/svg" xmlns:xlink="http://www.w3.org/1999/xlink">
 <metadata>
  <rdf:RDF xmlns:cc="http://creativecommons.org/ns#" xmlns:dc="http://purl.org/dc/elements/1.1/" xmlns:rdf="http://www.w3.org/1999/02/22-rdf-syntax-ns#">
   <cc:Work>
    <dc:type rdf:resource="http://purl.org/dc/dcmitype/StillImage"/>
    <dc:date>2021-01-05T14:22:22.931380</dc:date>
    <dc:format>image/svg+xml</dc:format>
    <dc:creator>
     <cc:Agent>
      <dc:title>Matplotlib v3.3.2, https://matplotlib.org/</dc:title>
     </cc:Agent>
    </dc:creator>
   </cc:Work>
  </rdf:RDF>
 </metadata>
 <defs>
  <style type="text/css">*{stroke-linecap:butt;stroke-linejoin:round;}</style>
 </defs>
 <g id="figure_1">
  <g id="patch_1">
   <path d="M 0 288 
L 432 288 
L 432 0 
L 0 0 
z
" style="fill:none;"/>
  </g>
  <g id="axes_1">
   <g id="patch_2">
    <path d="M 50.925 226.602246 
L 421.2 226.602246 
L 421.2 26.8 
L 50.925 26.8 
z
" style="fill:#ffffff;"/>
   </g>
   <g id="matplotlib.axis_1">
    <g id="xtick_1">
     <g id="line2d_1">
      <defs>
       <path d="M 0 0 
L 0 3.5 
" id="m1a7e5fe099" style="stroke:#000000;stroke-width:0.8;"/>
      </defs>
      <g>
       <use style="stroke:#000000;stroke-width:0.8;" x="67.755682" xlink:href="#m1a7e5fe099" y="226.602246"/>
      </g>
     </g>
     <g id="text_1">
      <!-- 2020-03 -->
      <g transform="translate(30.530861 261.074092)rotate(-30)scale(0.1 -0.1)">
       <defs>
        <path d="M 19.1875 8.296875 
L 53.609375 8.296875 
L 53.609375 0 
L 7.328125 0 
L 7.328125 8.296875 
Q 12.9375 14.109375 22.625 23.890625 
Q 32.328125 33.6875 34.8125 36.53125 
Q 39.546875 41.84375 41.421875 45.53125 
Q 43.3125 49.21875 43.3125 52.78125 
Q 43.3125 58.59375 39.234375 62.25 
Q 35.15625 65.921875 28.609375 65.921875 
Q 23.96875 65.921875 18.8125 64.3125 
Q 13.671875 62.703125 7.8125 59.421875 
L 7.8125 69.390625 
Q 13.765625 71.78125 18.9375 73 
Q 24.125 74.21875 28.421875 74.21875 
Q 39.75 74.21875 46.484375 68.546875 
Q 53.21875 62.890625 53.21875 53.421875 
Q 53.21875 48.921875 51.53125 44.890625 
Q 49.859375 40.875 45.40625 35.40625 
Q 44.1875 33.984375 37.640625 27.21875 
Q 31.109375 20.453125 19.1875 8.296875 
z
" id="DejaVuSans-50"/>
        <path d="M 31.78125 66.40625 
Q 24.171875 66.40625 20.328125 58.90625 
Q 16.5 51.421875 16.5 36.375 
Q 16.5 21.390625 20.328125 13.890625 
Q 24.171875 6.390625 31.78125 6.390625 
Q 39.453125 6.390625 43.28125 13.890625 
Q 47.125 21.390625 47.125 36.375 
Q 47.125 51.421875 43.28125 58.90625 
Q 39.453125 66.40625 31.78125 66.40625 
z
M 31.78125 74.21875 
Q 44.046875 74.21875 50.515625 64.515625 
Q 56.984375 54.828125 56.984375 36.375 
Q 56.984375 17.96875 50.515625 8.265625 
Q 44.046875 -1.421875 31.78125 -1.421875 
Q 19.53125 -1.421875 13.0625 8.265625 
Q 6.59375 17.96875 6.59375 36.375 
Q 6.59375 54.828125 13.0625 64.515625 
Q 19.53125 74.21875 31.78125 74.21875 
z
" id="DejaVuSans-48"/>
        <path d="M 4.890625 31.390625 
L 31.203125 31.390625 
L 31.203125 23.390625 
L 4.890625 23.390625 
z
" id="DejaVuSans-45"/>
        <path d="M 40.578125 39.3125 
Q 47.65625 37.796875 51.625 33 
Q 55.609375 28.21875 55.609375 21.1875 
Q 55.609375 10.40625 48.1875 4.484375 
Q 40.765625 -1.421875 27.09375 -1.421875 
Q 22.515625 -1.421875 17.65625 -0.515625 
Q 12.796875 0.390625 7.625 2.203125 
L 7.625 11.71875 
Q 11.71875 9.328125 16.59375 8.109375 
Q 21.484375 6.890625 26.8125 6.890625 
Q 36.078125 6.890625 40.9375 10.546875 
Q 45.796875 14.203125 45.796875 21.1875 
Q 45.796875 27.640625 41.28125 31.265625 
Q 36.765625 34.90625 28.71875 34.90625 
L 20.21875 34.90625 
L 20.21875 43.015625 
L 29.109375 43.015625 
Q 36.375 43.015625 40.234375 45.921875 
Q 44.09375 48.828125 44.09375 54.296875 
Q 44.09375 59.90625 40.109375 62.90625 
Q 36.140625 65.921875 28.71875 65.921875 
Q 24.65625 65.921875 20.015625 65.03125 
Q 15.375 64.15625 9.8125 62.3125 
L 9.8125 71.09375 
Q 15.4375 72.65625 20.34375 73.4375 
Q 25.25 74.21875 29.59375 74.21875 
Q 40.828125 74.21875 47.359375 69.109375 
Q 53.90625 64.015625 53.90625 55.328125 
Q 53.90625 49.265625 50.4375 45.09375 
Q 46.96875 40.921875 40.578125 39.3125 
z
" id="DejaVuSans-51"/>
       </defs>
       <use xlink:href="#DejaVuSans-50"/>
       <use x="63.623047" xlink:href="#DejaVuSans-48"/>
       <use x="127.246094" xlink:href="#DejaVuSans-50"/>
       <use x="190.869141" xlink:href="#DejaVuSans-48"/>
       <use x="254.492188" xlink:href="#DejaVuSans-45"/>
       <use x="290.576172" xlink:href="#DejaVuSans-48"/>
       <use x="354.199219" xlink:href="#DejaVuSans-51"/>
      </g>
     </g>
    </g>
    <g id="xtick_2">
     <g id="line2d_2">
      <g>
       <use style="stroke:#000000;stroke-width:0.8;" x="101.745984" xlink:href="#m1a7e5fe099" y="226.602246"/>
      </g>
     </g>
     <g id="text_2">
      <!-- 2020-04 -->
      <g transform="translate(64.521163 261.074092)rotate(-30)scale(0.1 -0.1)">
       <defs>
        <path d="M 37.796875 64.3125 
L 12.890625 25.390625 
L 37.796875 25.390625 
z
M 35.203125 72.90625 
L 47.609375 72.90625 
L 47.609375 25.390625 
L 58.015625 25.390625 
L 58.015625 17.1875 
L 47.609375 17.1875 
L 47.609375 0 
L 37.796875 0 
L 37.796875 17.1875 
L 4.890625 17.1875 
L 4.890625 26.703125 
z
" id="DejaVuSans-52"/>
       </defs>
       <use xlink:href="#DejaVuSans-50"/>
       <use x="63.623047" xlink:href="#DejaVuSans-48"/>
       <use x="127.246094" xlink:href="#DejaVuSans-50"/>
       <use x="190.869141" xlink:href="#DejaVuSans-48"/>
       <use x="254.492188" xlink:href="#DejaVuSans-45"/>
       <use x="290.576172" xlink:href="#DejaVuSans-48"/>
       <use x="354.199219" xlink:href="#DejaVuSans-52"/>
      </g>
     </g>
    </g>
    <g id="xtick_3">
     <g id="line2d_3">
      <g>
       <use style="stroke:#000000;stroke-width:0.8;" x="134.639825" xlink:href="#m1a7e5fe099" y="226.602246"/>
      </g>
     </g>
     <g id="text_3">
      <!-- 2020-05 -->
      <g transform="translate(97.415004 261.074092)rotate(-30)scale(0.1 -0.1)">
       <defs>
        <path d="M 10.796875 72.90625 
L 49.515625 72.90625 
L 49.515625 64.59375 
L 19.828125 64.59375 
L 19.828125 46.734375 
Q 21.96875 47.46875 24.109375 47.828125 
Q 26.265625 48.1875 28.421875 48.1875 
Q 40.625 48.1875 47.75 41.5 
Q 54.890625 34.8125 54.890625 23.390625 
Q 54.890625 11.625 47.5625 5.09375 
Q 40.234375 -1.421875 26.90625 -1.421875 
Q 22.3125 -1.421875 17.546875 -0.640625 
Q 12.796875 0.140625 7.71875 1.703125 
L 7.71875 11.625 
Q 12.109375 9.234375 16.796875 8.0625 
Q 21.484375 6.890625 26.703125 6.890625 
Q 35.15625 6.890625 40.078125 11.328125 
Q 45.015625 15.765625 45.015625 23.390625 
Q 45.015625 31 40.078125 35.4375 
Q 35.15625 39.890625 26.703125 39.890625 
Q 22.75 39.890625 18.8125 39.015625 
Q 14.890625 38.140625 10.796875 36.28125 
z
" id="DejaVuSans-53"/>
       </defs>
       <use xlink:href="#DejaVuSans-50"/>
       <use x="63.623047" xlink:href="#DejaVuSans-48"/>
       <use x="127.246094" xlink:href="#DejaVuSans-50"/>
       <use x="190.869141" xlink:href="#DejaVuSans-48"/>
       <use x="254.492188" xlink:href="#DejaVuSans-45"/>
       <use x="290.576172" xlink:href="#DejaVuSans-48"/>
       <use x="354.199219" xlink:href="#DejaVuSans-53"/>
      </g>
     </g>
    </g>
    <g id="xtick_4">
     <g id="line2d_4">
      <g>
       <use style="stroke:#000000;stroke-width:0.8;" x="168.630127" xlink:href="#m1a7e5fe099" y="226.602246"/>
      </g>
     </g>
     <g id="text_4">
      <!-- 2020-06 -->
      <g transform="translate(131.405306 261.074092)rotate(-30)scale(0.1 -0.1)">
       <defs>
        <path d="M 33.015625 40.375 
Q 26.375 40.375 22.484375 35.828125 
Q 18.609375 31.296875 18.609375 23.390625 
Q 18.609375 15.53125 22.484375 10.953125 
Q 26.375 6.390625 33.015625 6.390625 
Q 39.65625 6.390625 43.53125 10.953125 
Q 47.40625 15.53125 47.40625 23.390625 
Q 47.40625 31.296875 43.53125 35.828125 
Q 39.65625 40.375 33.015625 40.375 
z
M 52.59375 71.296875 
L 52.59375 62.3125 
Q 48.875 64.0625 45.09375 64.984375 
Q 41.3125 65.921875 37.59375 65.921875 
Q 27.828125 65.921875 22.671875 59.328125 
Q 17.53125 52.734375 16.796875 39.40625 
Q 19.671875 43.65625 24.015625 45.921875 
Q 28.375 48.1875 33.59375 48.1875 
Q 44.578125 48.1875 50.953125 41.515625 
Q 57.328125 34.859375 57.328125 23.390625 
Q 57.328125 12.15625 50.6875 5.359375 
Q 44.046875 -1.421875 33.015625 -1.421875 
Q 20.359375 -1.421875 13.671875 8.265625 
Q 6.984375 17.96875 6.984375 36.375 
Q 6.984375 53.65625 15.1875 63.9375 
Q 23.390625 74.21875 37.203125 74.21875 
Q 40.921875 74.21875 44.703125 73.484375 
Q 48.484375 72.75 52.59375 71.296875 
z
" id="DejaVuSans-54"/>
       </defs>
       <use xlink:href="#DejaVuSans-50"/>
       <use x="63.623047" xlink:href="#DejaVuSans-48"/>
       <use x="127.246094" xlink:href="#DejaVuSans-50"/>
       <use x="190.869141" xlink:href="#DejaVuSans-48"/>
       <use x="254.492188" xlink:href="#DejaVuSans-45"/>
       <use x="290.576172" xlink:href="#DejaVuSans-48"/>
       <use x="354.199219" xlink:href="#DejaVuSans-54"/>
      </g>
     </g>
    </g>
    <g id="xtick_5">
     <g id="line2d_5">
      <g>
       <use style="stroke:#000000;stroke-width:0.8;" x="201.523967" xlink:href="#m1a7e5fe099" y="226.602246"/>
      </g>
     </g>
     <g id="text_5">
      <!-- 2020-07 -->
      <g transform="translate(164.299146 261.074092)rotate(-30)scale(0.1 -0.1)">
       <defs>
        <path d="M 8.203125 72.90625 
L 55.078125 72.90625 
L 55.078125 68.703125 
L 28.609375 0 
L 18.3125 0 
L 43.21875 64.59375 
L 8.203125 64.59375 
z
" id="DejaVuSans-55"/>
       </defs>
       <use xlink:href="#DejaVuSans-50"/>
       <use x="63.623047" xlink:href="#DejaVuSans-48"/>
       <use x="127.246094" xlink:href="#DejaVuSans-50"/>
       <use x="190.869141" xlink:href="#DejaVuSans-48"/>
       <use x="254.492188" xlink:href="#DejaVuSans-45"/>
       <use x="290.576172" xlink:href="#DejaVuSans-48"/>
       <use x="354.199219" xlink:href="#DejaVuSans-55"/>
      </g>
     </g>
    </g>
    <g id="xtick_6">
     <g id="line2d_6">
      <g>
       <use style="stroke:#000000;stroke-width:0.8;" x="235.514269" xlink:href="#m1a7e5fe099" y="226.602246"/>
      </g>
     </g>
     <g id="text_6">
      <!-- 2020-08 -->
      <g transform="translate(198.289449 261.074092)rotate(-30)scale(0.1 -0.1)">
       <defs>
        <path d="M 31.78125 34.625 
Q 24.75 34.625 20.71875 30.859375 
Q 16.703125 27.09375 16.703125 20.515625 
Q 16.703125 13.921875 20.71875 10.15625 
Q 24.75 6.390625 31.78125 6.390625 
Q 38.8125 6.390625 42.859375 10.171875 
Q 46.921875 13.96875 46.921875 20.515625 
Q 46.921875 27.09375 42.890625 30.859375 
Q 38.875 34.625 31.78125 34.625 
z
M 21.921875 38.8125 
Q 15.578125 40.375 12.03125 44.71875 
Q 8.5 49.078125 8.5 55.328125 
Q 8.5 64.0625 14.71875 69.140625 
Q 20.953125 74.21875 31.78125 74.21875 
Q 42.671875 74.21875 48.875 69.140625 
Q 55.078125 64.0625 55.078125 55.328125 
Q 55.078125 49.078125 51.53125 44.71875 
Q 48 40.375 41.703125 38.8125 
Q 48.828125 37.15625 52.796875 32.3125 
Q 56.78125 27.484375 56.78125 20.515625 
Q 56.78125 9.90625 50.3125 4.234375 
Q 43.84375 -1.421875 31.78125 -1.421875 
Q 19.734375 -1.421875 13.25 4.234375 
Q 6.78125 9.90625 6.78125 20.515625 
Q 6.78125 27.484375 10.78125 32.3125 
Q 14.796875 37.15625 21.921875 38.8125 
z
M 18.3125 54.390625 
Q 18.3125 48.734375 21.84375 45.5625 
Q 25.390625 42.390625 31.78125 42.390625 
Q 38.140625 42.390625 41.71875 45.5625 
Q 45.3125 48.734375 45.3125 54.390625 
Q 45.3125 60.0625 41.71875 63.234375 
Q 38.140625 66.40625 31.78125 66.40625 
Q 25.390625 66.40625 21.84375 63.234375 
Q 18.3125 60.0625 18.3125 54.390625 
z
" id="DejaVuSans-56"/>
       </defs>
       <use xlink:href="#DejaVuSans-50"/>
       <use x="63.623047" xlink:href="#DejaVuSans-48"/>
       <use x="127.246094" xlink:href="#DejaVuSans-50"/>
       <use x="190.869141" xlink:href="#DejaVuSans-48"/>
       <use x="254.492188" xlink:href="#DejaVuSans-45"/>
       <use x="290.576172" xlink:href="#DejaVuSans-48"/>
       <use x="354.199219" xlink:href="#DejaVuSans-56"/>
      </g>
     </g>
    </g>
    <g id="xtick_7">
     <g id="line2d_7">
      <g>
       <use style="stroke:#000000;stroke-width:0.8;" x="269.504571" xlink:href="#m1a7e5fe099" y="226.602246"/>
      </g>
     </g>
     <g id="text_7">
      <!-- 2020-09 -->
      <g transform="translate(232.279751 261.074092)rotate(-30)scale(0.1 -0.1)">
       <defs>
        <path d="M 10.984375 1.515625 
L 10.984375 10.5 
Q 14.703125 8.734375 18.5 7.8125 
Q 22.3125 6.890625 25.984375 6.890625 
Q 35.75 6.890625 40.890625 13.453125 
Q 46.046875 20.015625 46.78125 33.40625 
Q 43.953125 29.203125 39.59375 26.953125 
Q 35.25 24.703125 29.984375 24.703125 
Q 19.046875 24.703125 12.671875 31.3125 
Q 6.296875 37.9375 6.296875 49.421875 
Q 6.296875 60.640625 12.9375 67.421875 
Q 19.578125 74.21875 30.609375 74.21875 
Q 43.265625 74.21875 49.921875 64.515625 
Q 56.59375 54.828125 56.59375 36.375 
Q 56.59375 19.140625 48.40625 8.859375 
Q 40.234375 -1.421875 26.421875 -1.421875 
Q 22.703125 -1.421875 18.890625 -0.6875 
Q 15.09375 0.046875 10.984375 1.515625 
z
M 30.609375 32.421875 
Q 37.25 32.421875 41.125 36.953125 
Q 45.015625 41.5 45.015625 49.421875 
Q 45.015625 57.28125 41.125 61.84375 
Q 37.25 66.40625 30.609375 66.40625 
Q 23.96875 66.40625 20.09375 61.84375 
Q 16.21875 57.28125 16.21875 49.421875 
Q 16.21875 41.5 20.09375 36.953125 
Q 23.96875 32.421875 30.609375 32.421875 
z
" id="DejaVuSans-57"/>
       </defs>
       <use xlink:href="#DejaVuSans-50"/>
       <use x="63.623047" xlink:href="#DejaVuSans-48"/>
       <use x="127.246094" xlink:href="#DejaVuSans-50"/>
       <use x="190.869141" xlink:href="#DejaVuSans-48"/>
       <use x="254.492188" xlink:href="#DejaVuSans-45"/>
       <use x="290.576172" xlink:href="#DejaVuSans-48"/>
       <use x="354.199219" xlink:href="#DejaVuSans-57"/>
      </g>
     </g>
    </g>
    <g id="xtick_8">
     <g id="line2d_8">
      <g>
       <use style="stroke:#000000;stroke-width:0.8;" x="302.398412" xlink:href="#m1a7e5fe099" y="226.602246"/>
      </g>
     </g>
     <g id="text_8">
      <!-- 2020-10 -->
      <g transform="translate(265.173591 261.074092)rotate(-30)scale(0.1 -0.1)">
       <defs>
        <path d="M 12.40625 8.296875 
L 28.515625 8.296875 
L 28.515625 63.921875 
L 10.984375 60.40625 
L 10.984375 69.390625 
L 28.421875 72.90625 
L 38.28125 72.90625 
L 38.28125 8.296875 
L 54.390625 8.296875 
L 54.390625 0 
L 12.40625 0 
z
" id="DejaVuSans-49"/>
       </defs>
       <use xlink:href="#DejaVuSans-50"/>
       <use x="63.623047" xlink:href="#DejaVuSans-48"/>
       <use x="127.246094" xlink:href="#DejaVuSans-50"/>
       <use x="190.869141" xlink:href="#DejaVuSans-48"/>
       <use x="254.492188" xlink:href="#DejaVuSans-45"/>
       <use x="290.576172" xlink:href="#DejaVuSans-49"/>
       <use x="354.199219" xlink:href="#DejaVuSans-48"/>
      </g>
     </g>
    </g>
    <g id="xtick_9">
     <g id="line2d_9">
      <g>
       <use style="stroke:#000000;stroke-width:0.8;" x="336.388714" xlink:href="#m1a7e5fe099" y="226.602246"/>
      </g>
     </g>
     <g id="text_9">
      <!-- 2020-11 -->
      <g transform="translate(299.163893 261.074092)rotate(-30)scale(0.1 -0.1)">
       <use xlink:href="#DejaVuSans-50"/>
       <use x="63.623047" xlink:href="#DejaVuSans-48"/>
       <use x="127.246094" xlink:href="#DejaVuSans-50"/>
       <use x="190.869141" xlink:href="#DejaVuSans-48"/>
       <use x="254.492188" xlink:href="#DejaVuSans-45"/>
       <use x="290.576172" xlink:href="#DejaVuSans-49"/>
       <use x="354.199219" xlink:href="#DejaVuSans-49"/>
      </g>
     </g>
    </g>
    <g id="xtick_10">
     <g id="line2d_10">
      <g>
       <use style="stroke:#000000;stroke-width:0.8;" x="369.282555" xlink:href="#m1a7e5fe099" y="226.602246"/>
      </g>
     </g>
     <g id="text_10">
      <!-- 2020-12 -->
      <g transform="translate(332.057734 261.074092)rotate(-30)scale(0.1 -0.1)">
       <use xlink:href="#DejaVuSans-50"/>
       <use x="63.623047" xlink:href="#DejaVuSans-48"/>
       <use x="127.246094" xlink:href="#DejaVuSans-50"/>
       <use x="190.869141" xlink:href="#DejaVuSans-48"/>
       <use x="254.492188" xlink:href="#DejaVuSans-45"/>
       <use x="290.576172" xlink:href="#DejaVuSans-49"/>
       <use x="354.199219" xlink:href="#DejaVuSans-50"/>
      </g>
     </g>
    </g>
    <g id="xtick_11">
     <g id="line2d_11">
      <g>
       <use style="stroke:#000000;stroke-width:0.8;" x="403.272857" xlink:href="#m1a7e5fe099" y="226.602246"/>
      </g>
     </g>
     <g id="text_11">
      <!-- 2021-01 -->
      <g transform="translate(366.048036 261.074092)rotate(-30)scale(0.1 -0.1)">
       <use xlink:href="#DejaVuSans-50"/>
       <use x="63.623047" xlink:href="#DejaVuSans-48"/>
       <use x="127.246094" xlink:href="#DejaVuSans-50"/>
       <use x="190.869141" xlink:href="#DejaVuSans-49"/>
       <use x="254.492188" xlink:href="#DejaVuSans-45"/>
       <use x="290.576172" xlink:href="#DejaVuSans-48"/>
       <use x="354.199219" xlink:href="#DejaVuSans-49"/>
      </g>
     </g>
    </g>
    <g id="text_12">
     <!-- Date -->
     <g transform="translate(224.111719 274.473592)scale(0.1 -0.1)">
      <defs>
       <path d="M 19.671875 64.796875 
L 19.671875 8.109375 
L 31.59375 8.109375 
Q 46.6875 8.109375 53.6875 14.9375 
Q 60.6875 21.78125 60.6875 36.53125 
Q 60.6875 51.171875 53.6875 57.984375 
Q 46.6875 64.796875 31.59375 64.796875 
z
M 9.8125 72.90625 
L 30.078125 72.90625 
Q 51.265625 72.90625 61.171875 64.09375 
Q 71.09375 55.28125 71.09375 36.53125 
Q 71.09375 17.671875 61.125 8.828125 
Q 51.171875 0 30.078125 0 
L 9.8125 0 
z
" id="DejaVuSans-68"/>
       <path d="M 34.28125 27.484375 
Q 23.390625 27.484375 19.1875 25 
Q 14.984375 22.515625 14.984375 16.5 
Q 14.984375 11.71875 18.140625 8.90625 
Q 21.296875 6.109375 26.703125 6.109375 
Q 34.1875 6.109375 38.703125 11.40625 
Q 43.21875 16.703125 43.21875 25.484375 
L 43.21875 27.484375 
z
M 52.203125 31.203125 
L 52.203125 0 
L 43.21875 0 
L 43.21875 8.296875 
Q 40.140625 3.328125 35.546875 0.953125 
Q 30.953125 -1.421875 24.3125 -1.421875 
Q 15.921875 -1.421875 10.953125 3.296875 
Q 6 8.015625 6 15.921875 
Q 6 25.140625 12.171875 29.828125 
Q 18.359375 34.515625 30.609375 34.515625 
L 43.21875 34.515625 
L 43.21875 35.40625 
Q 43.21875 41.609375 39.140625 45 
Q 35.0625 48.390625 27.6875 48.390625 
Q 23 48.390625 18.546875 47.265625 
Q 14.109375 46.140625 10.015625 43.890625 
L 10.015625 52.203125 
Q 14.9375 54.109375 19.578125 55.046875 
Q 24.21875 56 28.609375 56 
Q 40.484375 56 46.34375 49.84375 
Q 52.203125 43.703125 52.203125 31.203125 
z
" id="DejaVuSans-97"/>
       <path d="M 18.3125 70.21875 
L 18.3125 54.6875 
L 36.8125 54.6875 
L 36.8125 47.703125 
L 18.3125 47.703125 
L 18.3125 18.015625 
Q 18.3125 11.328125 20.140625 9.421875 
Q 21.96875 7.515625 27.59375 7.515625 
L 36.8125 7.515625 
L 36.8125 0 
L 27.59375 0 
Q 17.1875 0 13.234375 3.875 
Q 9.28125 7.765625 9.28125 18.015625 
L 9.28125 47.703125 
L 2.6875 47.703125 
L 2.6875 54.6875 
L 9.28125 54.6875 
L 9.28125 70.21875 
z
" id="DejaVuSans-116"/>
       <path d="M 56.203125 29.59375 
L 56.203125 25.203125 
L 14.890625 25.203125 
Q 15.484375 15.921875 20.484375 11.0625 
Q 25.484375 6.203125 34.421875 6.203125 
Q 39.59375 6.203125 44.453125 7.46875 
Q 49.3125 8.734375 54.109375 11.28125 
L 54.109375 2.78125 
Q 49.265625 0.734375 44.1875 -0.34375 
Q 39.109375 -1.421875 33.890625 -1.421875 
Q 20.796875 -1.421875 13.15625 6.1875 
Q 5.515625 13.8125 5.515625 26.8125 
Q 5.515625 40.234375 12.765625 48.109375 
Q 20.015625 56 32.328125 56 
Q 43.359375 56 49.78125 48.890625 
Q 56.203125 41.796875 56.203125 29.59375 
z
M 47.21875 32.234375 
Q 47.125 39.59375 43.09375 43.984375 
Q 39.0625 48.390625 32.421875 48.390625 
Q 24.90625 48.390625 20.390625 44.140625 
Q 15.875 39.890625 15.1875 32.171875 
z
" id="DejaVuSans-101"/>
      </defs>
      <use xlink:href="#DejaVuSans-68"/>
      <use x="77.001953" xlink:href="#DejaVuSans-97"/>
      <use x="138.28125" xlink:href="#DejaVuSans-116"/>
      <use x="177.490234" xlink:href="#DejaVuSans-101"/>
     </g>
    </g>
   </g>
   <g id="matplotlib.axis_2">
    <g id="ytick_1">
     <g id="line2d_12">
      <defs>
       <path d="M 0 0 
L -3.5 0 
" id="m1e7f0e0989" style="stroke:#000000;stroke-width:0.8;"/>
      </defs>
      <g>
       <use style="stroke:#000000;stroke-width:0.8;" x="50.925" xlink:href="#m1e7f0e0989" y="217.520326"/>
      </g>
     </g>
     <g id="text_13">
      <!-- 0 -->
      <g transform="translate(37.5625 221.319544)scale(0.1 -0.1)">
       <use xlink:href="#DejaVuSans-48"/>
      </g>
     </g>
    </g>
    <g id="ytick_2">
     <g id="line2d_13">
      <g>
       <use style="stroke:#000000;stroke-width:0.8;" x="50.925" xlink:href="#m1e7f0e0989" y="177.091485"/>
      </g>
     </g>
     <g id="text_14">
      <!-- 200 -->
      <g transform="translate(24.8375 180.890703)scale(0.1 -0.1)">
       <use xlink:href="#DejaVuSans-50"/>
       <use x="63.623047" xlink:href="#DejaVuSans-48"/>
       <use x="127.246094" xlink:href="#DejaVuSans-48"/>
      </g>
     </g>
    </g>
    <g id="ytick_3">
     <g id="line2d_14">
      <g>
       <use style="stroke:#000000;stroke-width:0.8;" x="50.925" xlink:href="#m1e7f0e0989" y="136.662644"/>
      </g>
     </g>
     <g id="text_15">
      <!-- 400 -->
      <g transform="translate(24.8375 140.461862)scale(0.1 -0.1)">
       <use xlink:href="#DejaVuSans-52"/>
       <use x="63.623047" xlink:href="#DejaVuSans-48"/>
       <use x="127.246094" xlink:href="#DejaVuSans-48"/>
      </g>
     </g>
    </g>
    <g id="ytick_4">
     <g id="line2d_15">
      <g>
       <use style="stroke:#000000;stroke-width:0.8;" x="50.925" xlink:href="#m1e7f0e0989" y="96.233803"/>
      </g>
     </g>
     <g id="text_16">
      <!-- 600 -->
      <g transform="translate(24.8375 100.033021)scale(0.1 -0.1)">
       <use xlink:href="#DejaVuSans-54"/>
       <use x="63.623047" xlink:href="#DejaVuSans-48"/>
       <use x="127.246094" xlink:href="#DejaVuSans-48"/>
      </g>
     </g>
    </g>
    <g id="ytick_5">
     <g id="line2d_16">
      <g>
       <use style="stroke:#000000;stroke-width:0.8;" x="50.925" xlink:href="#m1e7f0e0989" y="55.804962"/>
      </g>
     </g>
     <g id="text_17">
      <!-- 800 -->
      <g transform="translate(24.8375 59.60418)scale(0.1 -0.1)">
       <use xlink:href="#DejaVuSans-56"/>
       <use x="63.623047" xlink:href="#DejaVuSans-48"/>
       <use x="127.246094" xlink:href="#DejaVuSans-48"/>
      </g>
     </g>
    </g>
    <g id="text_18">
     <!-- Positive tests per million population -->
     <g transform="translate(18.757813 216.103467)rotate(-90)scale(0.1 -0.1)">
      <defs>
       <path d="M 19.671875 64.796875 
L 19.671875 37.40625 
L 32.078125 37.40625 
Q 38.96875 37.40625 42.71875 40.96875 
Q 46.484375 44.53125 46.484375 51.125 
Q 46.484375 57.671875 42.71875 61.234375 
Q 38.96875 64.796875 32.078125 64.796875 
z
M 9.8125 72.90625 
L 32.078125 72.90625 
Q 44.34375 72.90625 50.609375 67.359375 
Q 56.890625 61.8125 56.890625 51.125 
Q 56.890625 40.328125 50.609375 34.8125 
Q 44.34375 29.296875 32.078125 29.296875 
L 19.671875 29.296875 
L 19.671875 0 
L 9.8125 0 
z
" id="DejaVuSans-80"/>
       <path d="M 30.609375 48.390625 
Q 23.390625 48.390625 19.1875 42.75 
Q 14.984375 37.109375 14.984375 27.296875 
Q 14.984375 17.484375 19.15625 11.84375 
Q 23.34375 6.203125 30.609375 6.203125 
Q 37.796875 6.203125 41.984375 11.859375 
Q 46.1875 17.53125 46.1875 27.296875 
Q 46.1875 37.015625 41.984375 42.703125 
Q 37.796875 48.390625 30.609375 48.390625 
z
M 30.609375 56 
Q 42.328125 56 49.015625 48.375 
Q 55.71875 40.765625 55.71875 27.296875 
Q 55.71875 13.875 49.015625 6.21875 
Q 42.328125 -1.421875 30.609375 -1.421875 
Q 18.84375 -1.421875 12.171875 6.21875 
Q 5.515625 13.875 5.515625 27.296875 
Q 5.515625 40.765625 12.171875 48.375 
Q 18.84375 56 30.609375 56 
z
" id="DejaVuSans-111"/>
       <path d="M 44.28125 53.078125 
L 44.28125 44.578125 
Q 40.484375 46.53125 36.375 47.5 
Q 32.28125 48.484375 27.875 48.484375 
Q 21.1875 48.484375 17.84375 46.4375 
Q 14.5 44.390625 14.5 40.28125 
Q 14.5 37.15625 16.890625 35.375 
Q 19.28125 33.59375 26.515625 31.984375 
L 29.59375 31.296875 
Q 39.15625 29.25 43.1875 25.515625 
Q 47.21875 21.78125 47.21875 15.09375 
Q 47.21875 7.46875 41.1875 3.015625 
Q 35.15625 -1.421875 24.609375 -1.421875 
Q 20.21875 -1.421875 15.453125 -0.5625 
Q 10.6875 0.296875 5.421875 2 
L 5.421875 11.28125 
Q 10.40625 8.6875 15.234375 7.390625 
Q 20.0625 6.109375 24.8125 6.109375 
Q 31.15625 6.109375 34.5625 8.28125 
Q 37.984375 10.453125 37.984375 14.40625 
Q 37.984375 18.0625 35.515625 20.015625 
Q 33.0625 21.96875 24.703125 23.78125 
L 21.578125 24.515625 
Q 13.234375 26.265625 9.515625 29.90625 
Q 5.8125 33.546875 5.8125 39.890625 
Q 5.8125 47.609375 11.28125 51.796875 
Q 16.75 56 26.8125 56 
Q 31.78125 56 36.171875 55.265625 
Q 40.578125 54.546875 44.28125 53.078125 
z
" id="DejaVuSans-115"/>
       <path d="M 9.421875 54.6875 
L 18.40625 54.6875 
L 18.40625 0 
L 9.421875 0 
z
M 9.421875 75.984375 
L 18.40625 75.984375 
L 18.40625 64.59375 
L 9.421875 64.59375 
z
" id="DejaVuSans-105"/>
       <path d="M 2.984375 54.6875 
L 12.5 54.6875 
L 29.59375 8.796875 
L 46.6875 54.6875 
L 56.203125 54.6875 
L 35.6875 0 
L 23.484375 0 
z
" id="DejaVuSans-118"/>
       <path id="DejaVuSans-32"/>
       <path d="M 18.109375 8.203125 
L 18.109375 -20.796875 
L 9.078125 -20.796875 
L 9.078125 54.6875 
L 18.109375 54.6875 
L 18.109375 46.390625 
Q 20.953125 51.265625 25.265625 53.625 
Q 29.59375 56 35.59375 56 
Q 45.5625 56 51.78125 48.09375 
Q 58.015625 40.1875 58.015625 27.296875 
Q 58.015625 14.40625 51.78125 6.484375 
Q 45.5625 -1.421875 35.59375 -1.421875 
Q 29.59375 -1.421875 25.265625 0.953125 
Q 20.953125 3.328125 18.109375 8.203125 
z
M 48.6875 27.296875 
Q 48.6875 37.203125 44.609375 42.84375 
Q 40.53125 48.484375 33.40625 48.484375 
Q 26.265625 48.484375 22.1875 42.84375 
Q 18.109375 37.203125 18.109375 27.296875 
Q 18.109375 17.390625 22.1875 11.75 
Q 26.265625 6.109375 33.40625 6.109375 
Q 40.53125 6.109375 44.609375 11.75 
Q 48.6875 17.390625 48.6875 27.296875 
z
" id="DejaVuSans-112"/>
       <path d="M 41.109375 46.296875 
Q 39.59375 47.171875 37.8125 47.578125 
Q 36.03125 48 33.890625 48 
Q 26.265625 48 22.1875 43.046875 
Q 18.109375 38.09375 18.109375 28.8125 
L 18.109375 0 
L 9.078125 0 
L 9.078125 54.6875 
L 18.109375 54.6875 
L 18.109375 46.1875 
Q 20.953125 51.171875 25.484375 53.578125 
Q 30.03125 56 36.53125 56 
Q 37.453125 56 38.578125 55.875 
Q 39.703125 55.765625 41.0625 55.515625 
z
" id="DejaVuSans-114"/>
       <path d="M 52 44.1875 
Q 55.375 50.25 60.0625 53.125 
Q 64.75 56 71.09375 56 
Q 79.640625 56 84.28125 50.015625 
Q 88.921875 44.046875 88.921875 33.015625 
L 88.921875 0 
L 79.890625 0 
L 79.890625 32.71875 
Q 79.890625 40.578125 77.09375 44.375 
Q 74.3125 48.1875 68.609375 48.1875 
Q 61.625 48.1875 57.5625 43.546875 
Q 53.515625 38.921875 53.515625 30.90625 
L 53.515625 0 
L 44.484375 0 
L 44.484375 32.71875 
Q 44.484375 40.625 41.703125 44.40625 
Q 38.921875 48.1875 33.109375 48.1875 
Q 26.21875 48.1875 22.15625 43.53125 
Q 18.109375 38.875 18.109375 30.90625 
L 18.109375 0 
L 9.078125 0 
L 9.078125 54.6875 
L 18.109375 54.6875 
L 18.109375 46.1875 
Q 21.1875 51.21875 25.484375 53.609375 
Q 29.78125 56 35.6875 56 
Q 41.65625 56 45.828125 52.96875 
Q 50 49.953125 52 44.1875 
z
" id="DejaVuSans-109"/>
       <path d="M 9.421875 75.984375 
L 18.40625 75.984375 
L 18.40625 0 
L 9.421875 0 
z
" id="DejaVuSans-108"/>
       <path d="M 54.890625 33.015625 
L 54.890625 0 
L 45.90625 0 
L 45.90625 32.71875 
Q 45.90625 40.484375 42.875 44.328125 
Q 39.84375 48.1875 33.796875 48.1875 
Q 26.515625 48.1875 22.3125 43.546875 
Q 18.109375 38.921875 18.109375 30.90625 
L 18.109375 0 
L 9.078125 0 
L 9.078125 54.6875 
L 18.109375 54.6875 
L 18.109375 46.1875 
Q 21.34375 51.125 25.703125 53.5625 
Q 30.078125 56 35.796875 56 
Q 45.21875 56 50.046875 50.171875 
Q 54.890625 44.34375 54.890625 33.015625 
z
" id="DejaVuSans-110"/>
       <path d="M 8.5 21.578125 
L 8.5 54.6875 
L 17.484375 54.6875 
L 17.484375 21.921875 
Q 17.484375 14.15625 20.5 10.265625 
Q 23.53125 6.390625 29.59375 6.390625 
Q 36.859375 6.390625 41.078125 11.03125 
Q 45.3125 15.671875 45.3125 23.6875 
L 45.3125 54.6875 
L 54.296875 54.6875 
L 54.296875 0 
L 45.3125 0 
L 45.3125 8.40625 
Q 42.046875 3.421875 37.71875 1 
Q 33.40625 -1.421875 27.6875 -1.421875 
Q 18.265625 -1.421875 13.375 4.4375 
Q 8.5 10.296875 8.5 21.578125 
z
M 31.109375 56 
z
" id="DejaVuSans-117"/>
      </defs>
      <use xlink:href="#DejaVuSans-80"/>
      <use x="56.677734" xlink:href="#DejaVuSans-111"/>
      <use x="117.859375" xlink:href="#DejaVuSans-115"/>
      <use x="169.958984" xlink:href="#DejaVuSans-105"/>
      <use x="197.742188" xlink:href="#DejaVuSans-116"/>
      <use x="236.951172" xlink:href="#DejaVuSans-105"/>
      <use x="264.734375" xlink:href="#DejaVuSans-118"/>
      <use x="323.914062" xlink:href="#DejaVuSans-101"/>
      <use x="385.4375" xlink:href="#DejaVuSans-32"/>
      <use x="417.224609" xlink:href="#DejaVuSans-116"/>
      <use x="456.433594" xlink:href="#DejaVuSans-101"/>
      <use x="517.957031" xlink:href="#DejaVuSans-115"/>
      <use x="570.056641" xlink:href="#DejaVuSans-116"/>
      <use x="609.265625" xlink:href="#DejaVuSans-115"/>
      <use x="661.365234" xlink:href="#DejaVuSans-32"/>
      <use x="693.152344" xlink:href="#DejaVuSans-112"/>
      <use x="756.628906" xlink:href="#DejaVuSans-101"/>
      <use x="818.152344" xlink:href="#DejaVuSans-114"/>
      <use x="859.265625" xlink:href="#DejaVuSans-32"/>
      <use x="891.052734" xlink:href="#DejaVuSans-109"/>
      <use x="988.464844" xlink:href="#DejaVuSans-105"/>
      <use x="1016.248047" xlink:href="#DejaVuSans-108"/>
      <use x="1044.03125" xlink:href="#DejaVuSans-108"/>
      <use x="1071.814453" xlink:href="#DejaVuSans-105"/>
      <use x="1099.597656" xlink:href="#DejaVuSans-111"/>
      <use x="1160.779297" xlink:href="#DejaVuSans-110"/>
      <use x="1224.158203" xlink:href="#DejaVuSans-32"/>
      <use x="1255.945312" xlink:href="#DejaVuSans-112"/>
      <use x="1319.421875" xlink:href="#DejaVuSans-111"/>
      <use x="1380.603516" xlink:href="#DejaVuSans-112"/>
      <use x="1444.080078" xlink:href="#DejaVuSans-117"/>
      <use x="1507.458984" xlink:href="#DejaVuSans-108"/>
      <use x="1535.242188" xlink:href="#DejaVuSans-97"/>
      <use x="1596.521484" xlink:href="#DejaVuSans-116"/>
      <use x="1635.730469" xlink:href="#DejaVuSans-105"/>
      <use x="1663.513672" xlink:href="#DejaVuSans-111"/>
      <use x="1724.695312" xlink:href="#DejaVuSans-110"/>
     </g>
    </g>
   </g>
   <g id="line2d_17">
    <path clip-path="url(#p8599b55946)" d="M 68.852143 216.931106 
L 69.948605 217.225716 
L 72.141527 217.373021 
L 76.527373 217.520326 
L 79.816757 217.099454 
L 82.009679 217.099454 
L 84.202602 216.762757 
L 86.395525 216.846932 
L 89.684909 216.173538 
L 90.78137 216.089363 
L 94.070754 215.331795 
L 95.167216 215.247621 
L 96.263677 214.069182 
L 97.360138 213.311613 
L 98.4566 211.628128 
L 99.553061 210.702212 
L 100.649523 209.523772 
L 101.745984 207.50359 
L 103.938907 204.13662 
L 105.035368 202.453135 
L 106.131829 201.695567 
L 107.228291 200.432953 
L 108.324752 199.422862 
L 109.421213 199.507037 
L 110.517675 199.422862 
L 111.614136 200.432953 
L 112.710597 201.695567 
L 113.807059 202.116438 
L 114.90352 203.463226 
L 115.999981 204.13662 
L 117.096443 204.641666 
L 118.192904 204.473317 
L 119.289366 203.884097 
L 120.385827 203.126529 
L 121.482288 203.379052 
L 122.57875 202.789832 
L 123.675211 200.937999 
L 124.771672 200.601302 
L 125.868134 200.601302 
L 126.964595 201.190522 
L 128.061056 201.274696 
L 129.157518 201.863915 
L 130.253979 200.685476 
L 131.35044 200.432953 
L 132.446902 199.927908 
L 133.543363 199.591211 
L 134.639825 198.496946 
L 135.736286 198.412771 
L 136.832747 197.655203 
L 137.929209 198.749468 
L 139.02567 200.432953 
L 140.122131 200.264605 
L 141.218593 201.35887 
L 142.315054 201.022173 
L 143.411515 201.611393 
L 144.507977 202.032264 
L 145.604438 201.106347 
L 146.700899 200.685476 
L 147.797361 200.853825 
L 148.893822 199.759559 
L 149.990284 201.190522 
L 151.086745 200.685476 
L 153.279668 201.106347 
L 155.47259 201.695567 
L 156.569052 203.5474 
L 158.761974 204.304969 
L 159.858436 204.557491 
L 160.954897 206.493499 
L 162.051358 206.746022 
L 163.14782 208.008636 
L 164.244281 206.830196 
L 165.340743 206.493499 
L 166.437204 207.50359 
L 167.533665 207.840287 
L 168.630127 206.830196 
L 169.726588 207.756113 
L 170.823049 208.008636 
L 171.919511 208.934552 
L 173.015972 210.365515 
L 174.112433 210.028818 
L 175.208895 210.449689 
L 176.305356 211.628128 
L 177.401817 212.217348 
L 178.498279 212.469871 
L 179.59474 213.143265 
L 180.691202 212.890742 
L 181.787663 213.143265 
L 182.884124 213.227439 
L 186.173508 212.806568 
L 187.26997 212.890742 
L 188.366431 213.143265 
L 189.462892 213.816659 
L 190.559354 214.069182 
L 192.752276 214.82675 
L 193.848738 214.910924 
L 194.945199 214.490053 
L 196.04166 214.742575 
L 198.234583 214.490053 
L 199.331045 213.816659 
L 200.427506 213.732485 
L 201.523967 213.816659 
L 202.620429 214.321704 
L 203.71689 214.490053 
L 204.813351 213.985007 
L 205.909813 213.900833 
L 207.006274 214.82675 
L 208.102735 215.163447 
L 209.199197 214.995098 
L 210.295658 214.153356 
L 211.392119 213.900833 
L 212.488581 214.490053 
L 213.585042 214.658401 
L 214.681504 214.574227 
L 215.777965 214.23753 
L 216.874426 214.658401 
L 217.970888 215.331795 
L 221.260272 215.584318 
L 222.356733 215.331795 
L 225.646117 216.173538 
L 226.742578 215.921015 
L 228.935501 215.668492 
L 230.031963 215.500144 
L 231.128424 215.668492 
L 232.224885 215.415969 
L 235.514269 215.247621 
L 237.707192 215.752666 
L 240.996576 215.247621 
L 242.093037 215.668492 
L 243.189499 215.836841 
L 246.478883 215.836841 
L 247.575344 216.257712 
L 248.671806 216.005189 
L 249.768267 215.921015 
L 250.864728 215.668492 
L 254.154112 215.752666 
L 255.250574 215.079272 
L 257.443496 215.331795 
L 260.732881 214.910924 
L 261.829342 215.079272 
L 262.925803 215.079272 
L 264.022265 215.415969 
L 267.311649 215.247621 
L 268.40811 214.910924 
L 271.697494 212.806568 
L 272.793955 212.554045 
L 273.890417 211.712303 
L 274.986878 211.375606 
L 276.08334 209.692121 
L 277.179801 209.102901 
L 278.276262 209.439598 
L 279.372724 209.271249 
L 280.469185 208.176984 
L 282.662108 208.513681 
L 283.758569 209.439598 
L 284.85503 209.692121 
L 285.951492 208.261158 
L 287.047953 208.345333 
L 288.144414 207.840287 
L 291.433798 203.294878 
L 292.53026 201.274696 
L 293.626721 200.937999 
L 294.723183 199.338688 
L 295.819644 198.076074 
L 296.916105 197.739377 
L 298.012567 196.476764 
L 299.109028 195.80337 
L 300.205489 194.204059 
L 303.494873 185.870808 
L 304.591335 184.018975 
L 305.687796 180.988702 
L 306.784257 177.621732 
L 308.97718 169.961875 
L 310.073642 166.847428 
L 311.170103 166.258208 
L 312.266564 164.322201 
L 313.363026 165.163943 
L 314.459487 162.807064 
L 315.555948 163.31211 
L 316.65241 164.322201 
L 317.748871 164.490549 
L 318.845332 163.059587 
L 319.941794 163.732981 
L 321.038255 161.544451 
L 322.134716 159.608443 
L 323.231178 157.335738 
L 324.327639 154.052942 
L 325.424101 154.894685 
L 326.520562 155.315556 
L 327.617023 154.305465 
L 328.713485 151.864412 
L 329.809946 151.275192 
L 330.906407 150.349275 
L 332.002869 151.527715 
L 333.09933 146.982306 
L 334.195791 145.046298 
L 335.292253 145.382995 
L 336.388714 147.824048 
L 337.485175 146.47726 
L 338.581637 147.150654 
L 339.678098 145.130472 
L 340.77456 144.372904 
L 341.871021 140.248366 
L 342.967482 137.891487 
L 344.063944 134.608691 
L 345.160405 130.399979 
L 346.256866 126.696312 
L 347.353328 124.255259 
L 348.449789 126.696312 
L 349.54625 129.558236 
L 350.642712 129.474062 
L 351.739173 131.073373 
L 352.835634 138.059835 
L 353.932096 143.11029 
L 355.028557 149.339185 
L 356.125019 152.453632 
L 358.317941 165.668989 
L 360.510864 175.685724 
L 361.607325 181.409573 
L 363.800248 188.985255 
L 364.896709 189.321952 
L 365.993171 187.301771 
L 367.089632 188.985255 
L 368.186093 189.826998 
L 369.282555 188.901081 
L 370.379016 190.247869 
L 371.475477 189.406127 
L 372.571939 189.406127 
L 373.6684 190.416218 
L 374.764862 188.648559 
L 375.861323 188.143513 
L 376.957784 187.806816 
L 378.054246 186.544202 
L 379.150707 184.944892 
L 381.34363 178.631823 
L 382.440091 176.274944 
L 383.536552 170.803618 
L 384.633014 166.510731 
L 385.729475 160.618534 
L 386.825936 157.924958 
L 387.922398 155.820602 
L 389.018859 155.231382 
L 390.115321 153.716245 
L 391.211782 151.022669 
L 392.308243 147.319003 
L 393.404705 142.436896 
L 394.501166 139.069926 
L 395.597627 144.036207 
L 396.694089 138.901578 
L 397.79055 129.389888 
L 398.887011 125.265349 
L 399.983473 103.043348 
L 402.176395 80.737172 
L 403.272857 73.329838 
L 404.369318 72.319747 
L 404.369318 72.319747 
" style="fill:none;stroke:#1f77b4;stroke-linecap:square;stroke-width:1.5;"/>
   </g>
   <g id="line2d_18">
    <path clip-path="url(#p8599b55946)" d="M 78.720295 216.949658 
L 80.913218 216.949658 
L 83.106141 217.177925 
L 85.299064 216.868134 
L 87.491986 216.134418 
L 88.588448 216.052894 
L 89.684909 215.645275 
L 90.78137 215.074607 
L 91.877832 214.340891 
L 92.974293 212.954984 
L 94.070754 212.954984 
L 96.263677 211.895172 
L 97.360138 211.406029 
L 99.553061 212.384316 
L 100.649523 211.813648 
L 101.745984 209.530978 
L 102.842445 208.634214 
L 103.938907 207.166783 
L 105.035368 206.840687 
L 107.228291 203.579728 
L 108.324752 203.742776 
L 109.421213 204.802588 
L 110.517675 204.150396 
L 111.614136 204.63954 
L 112.710597 204.476492 
L 113.807059 204.150396 
L 114.90352 205.454779 
L 115.999981 206.351543 
L 117.096443 206.840687 
L 118.192904 208.634214 
L 119.289366 209.286406 
L 120.385827 209.204882 
L 121.482288 208.96031 
L 122.57875 207.492878 
L 123.675211 207.085259 
L 124.771672 205.862399 
L 125.868134 204.884112 
L 126.964595 202.846013 
L 128.061056 202.601441 
L 129.157518 204.23192 
L 130.253979 203.579728 
L 131.35044 202.519917 
L 132.446902 201.867725 
L 133.543363 200.237246 
L 134.639825 201.949249 
L 135.736286 202.846013 
L 136.832747 201.949249 
L 137.929209 201.949249 
L 139.02567 202.519917 
L 140.122131 201.052486 
L 141.218593 202.030773 
L 142.315054 200.563342 
L 143.411515 199.91115 
L 144.507977 199.095911 
L 145.604438 199.340482 
L 146.700899 198.199147 
L 147.797361 199.50353 
L 148.893822 199.585054 
L 149.990284 198.851339 
L 151.086745 195.427332 
L 152.183206 194.938188 
L 153.279668 194.856665 
L 154.376129 194.285997 
L 155.47259 194.122949 
L 156.569052 192.329422 
L 157.665513 193.959901 
L 158.761974 196.324096 
L 159.858436 197.383907 
L 160.954897 198.036099 
L 162.051358 199.748102 
L 163.14782 200.481818 
L 164.244281 201.867725 
L 165.340743 201.623153 
L 166.437204 202.438393 
L 167.533665 201.867725 
L 168.630127 200.31877 
L 169.726588 196.81324 
L 170.823049 197.057811 
L 174.112433 196.40562 
L 175.208895 194.856665 
L 176.305356 193.715329 
L 177.401817 193.959901 
L 178.498279 191.514182 
L 179.59474 188.334748 
L 180.691202 186.052077 
L 181.787663 183.280262 
L 182.884124 182.138927 
L 183.980586 180.671495 
L 186.173508 179.285588 
L 187.26997 179.448636 
L 188.366431 177.573585 
L 189.462892 176.839869 
L 190.559354 176.432249 
L 191.655815 175.290914 
L 192.752276 173.823483 
L 193.848738 171.540812 
L 194.945199 171.622336 
L 196.04166 172.274527 
L 197.138122 173.497387 
L 198.234583 176.02463 
L 199.331045 176.921393 
L 200.427506 179.448636 
L 201.523967 181.568259 
L 202.620429 182.872642 
L 203.71689 183.44331 
L 204.813351 184.421598 
L 205.909813 180.916067 
L 208.102735 181.160639 
L 209.199197 181.894355 
L 210.295658 182.954166 
L 211.392119 182.709594 
L 212.488581 181.160639 
L 213.585042 185.399885 
L 214.681504 187.76408 
L 215.777965 189.313035 
L 216.874426 191.106562 
L 217.970888 190.943514 
L 219.067349 193.552281 
L 220.16381 195.59038 
L 221.260272 196.161048 
L 222.356733 197.628479 
L 223.453194 198.525243 
L 224.549656 197.873051 
L 226.742578 198.606767 
L 227.83904 200.237246 
L 228.935501 200.400294 
L 230.031963 199.340482 
L 232.224885 200.72639 
L 233.321347 200.807914 
L 234.417808 201.786201 
L 235.514269 200.644866 
L 236.610731 200.970962 
L 237.707192 201.949249 
L 238.803653 201.297057 
L 240.996576 200.400294 
L 242.093037 198.851339 
L 243.189499 198.036099 
L 244.28596 197.465431 
L 245.382422 197.220859 
L 246.478883 197.139335 
L 247.575344 198.851339 
L 248.671806 199.992674 
L 249.768267 200.644866 
L 250.864728 202.356869 
L 251.96119 203.090585 
L 253.057651 202.030773 
L 254.154112 201.541629 
L 255.250574 202.030773 
L 256.347035 202.927537 
L 257.443496 203.41668 
L 258.539958 204.150396 
L 259.636419 204.23192 
L 260.732881 206.677639 
L 261.829342 208.55269 
L 262.925803 209.041834 
L 264.022265 209.694025 
L 265.118726 210.020121 
L 267.311649 209.938597 
L 268.40811 210.264693 
L 269.504571 208.471166 
L 270.601033 205.780875 
L 271.697494 204.394968 
L 273.890417 201.052486 
L 274.986878 199.829626 
L 276.08334 196.40562 
L 277.179801 194.612093 
L 278.276262 193.633805 
L 280.469185 192.08485 
L 281.565646 191.188086 
L 282.662108 190.780466 
L 283.758569 191.351134 
L 284.85503 191.188086 
L 285.951492 191.514182 
L 288.144414 187.193412 
L 289.240876 184.340074 
L 290.337337 183.85093 
L 291.433798 182.546546 
L 293.626721 180.916067 
L 294.723183 182.138927 
L 295.819644 184.25855 
L 296.916105 185.725981 
L 298.012567 185.725981 
L 299.109028 187.193412 
L 300.205489 186.052077 
L 301.301951 183.932454 
L 302.398412 180.997591 
L 303.494873 176.595297 
L 304.591335 176.106154 
L 306.784257 169.991856 
L 307.880719 168.279853 
L 308.97718 164.285179 
L 310.073642 158.986122 
L 311.170103 158.578502 
L 312.266564 157.763262 
L 313.363026 154.257732 
L 314.459487 149.69239 
L 315.555948 148.551055 
L 316.65241 144.067237 
L 317.748871 145.616192 
L 318.845332 144.964 
L 319.941794 144.067237 
L 321.038255 145.127048 
L 322.134716 142.762853 
L 323.231178 137.1377 
L 324.327639 135.670269 
L 325.424101 131.349499 
L 327.617023 118.713285 
L 328.713485 115.126231 
L 329.809946 112.84356 
L 330.906407 112.354416 
L 332.002869 112.762036 
L 333.09933 107.626026 
L 334.195791 108.52279 
L 335.292253 109.908697 
L 336.388714 112.517464 
L 337.485175 103.7944 
L 338.581637 98.006199 
L 339.678098 99.636678 
L 340.77456 100.614966 
L 341.871021 97.109435 
L 342.967482 90.750566 
L 344.063944 81.375311 
L 345.160405 78.68502 
L 346.256866 76.320825 
L 347.353328 65.72271 
L 348.449789 64.662899 
L 349.54625 64.581375 
L 350.642712 66.374902 
L 351.739173 69.798908 
L 352.835634 75.750158 
L 353.932096 79.744832 
L 355.028557 86.51132 
L 356.125019 94.011525 
L 357.22148 98.169247 
L 359.414403 107.789074 
L 360.510864 113.169656 
L 361.607325 119.773096 
L 362.703787 125.561298 
L 363.800248 126.539585 
L 364.896709 131.594071 
L 365.993171 133.876742 
L 367.089632 137.871416 
L 368.186093 140.887802 
L 369.282555 141.213898 
L 370.379016 145.942288 
L 371.475477 146.105336 
L 372.571939 145.697716 
L 373.6684 146.18686 
L 374.764862 142.27371 
L 375.861323 144.067237 
L 376.957784 148.143435 
L 378.054246 143.415045 
L 380.247168 143.415045 
L 381.34363 143.741141 
L 382.440091 145.534668 
L 384.633014 134.773505 
L 385.729475 134.121314 
L 386.825936 132.81693 
L 387.922398 131.920167 
L 390.115321 126.050441 
L 391.211782 124.17539 
L 392.308243 126.784157 
L 393.404705 125.39825 
L 394.501166 128.251588 
L 395.597627 131.757119 
L 396.694089 130.615783 
L 397.79055 124.17539 
L 398.887011 126.458061 
L 399.983473 110.560889 
L 401.079934 102.734589 
L 402.176395 94.011525 
L 403.272857 89.690755 
L 404.369318 79.989403 
L 404.369318 79.989403 
" style="fill:none;stroke:#ff7f0e;stroke-linecap:square;stroke-width:1.5;"/>
   </g>
   <g id="line2d_19">
    <path clip-path="url(#p8599b55946)" d="M 69.948605 217.19326 
L 72.141527 217.411304 
L 76.527373 217.426878 
L 87.491986 216.912918 
L 88.588448 216.585853 
L 89.684909 216.118616 
L 90.78137 216.025169 
L 91.877832 215.557932 
L 94.070754 214.810354 
L 96.263677 213.922604 
L 97.360138 213.829157 
L 98.4566 213.315196 
L 99.553061 212.474171 
L 100.649523 212.006934 
L 101.745984 211.072461 
L 102.842445 210.745395 
L 105.035368 209.437133 
L 106.131829 209.01662 
L 107.228291 209.110067 
L 108.324752 208.50266 
L 109.421213 208.642831 
L 110.517675 208.315765 
L 112.710597 208.689554 
L 113.807059 208.455936 
L 114.90352 208.549383 
L 115.999981 209.296962 
L 117.096443 208.596107 
L 118.192904 208.315765 
L 119.289366 208.362489 
L 120.385827 208.269041 
L 121.482288 207.568187 
L 123.675211 205.839411 
L 124.771672 205.886135 
L 125.868134 204.764767 
L 126.964595 203.035992 
L 128.061056 202.802374 
L 129.157518 201.634282 
L 130.253979 201.447387 
L 131.35044 200.699809 
L 132.446902 198.690692 
L 133.543363 198.503797 
L 134.639825 198.971034 
L 135.736286 198.597244 
L 136.832747 199.858783 
L 137.929209 200.185849 
L 139.02567 199.812059 
L 140.122131 201.447387 
L 141.218593 200.559638 
L 142.315054 201.307216 
L 144.507977 202.054795 
L 146.700899 203.082715 
L 147.797361 203.970465 
L 148.893822 206.213201 
L 149.990284 206.914055 
L 151.086745 207.755081 
L 152.183206 208.315765 
L 153.279668 209.296962 
L 155.47259 210.511777 
L 157.665513 210.745395 
L 158.761974 210.324882 
L 159.858436 210.698672 
L 160.954897 210.511777 
L 162.051358 211.399527 
L 163.14782 210.93229 
L 164.244281 210.651948 
L 166.437204 211.025737 
L 167.533665 210.698672 
L 168.630127 211.165908 
L 169.726588 211.306079 
L 170.823049 212.287276 
L 171.919511 213.502091 
L 173.015972 213.688986 
L 174.112433 214.530012 
L 175.208895 215.184143 
L 176.305356 215.371037 
L 177.401817 215.698103 
L 178.498279 215.137419 
L 180.691202 215.230866 
L 181.787663 214.530012 
L 182.884124 214.343117 
L 183.980586 213.502091 
L 185.077047 213.268473 
L 186.173508 213.455367 
L 187.26997 213.034855 
L 188.366431 213.175026 
L 189.462892 213.455367 
L 190.559354 213.455367 
L 191.655815 213.922604 
L 192.752276 214.016051 
L 194.945199 214.997248 
L 196.04166 215.27759 
L 197.138122 215.698103 
L 202.620429 216.539129 
L 204.813351 216.539129 
L 207.006274 216.726024 
L 208.102735 216.819471 
L 211.392119 216.772747 
L 213.585042 216.912918 
L 214.681504 216.726024 
L 215.777965 216.726024 
L 217.970888 217.006365 
L 221.260272 217.006365 
L 223.453194 217.239984 
L 224.549656 217.053089 
L 225.646117 217.053089 
L 227.83904 216.772747 
L 228.935501 216.6793 
L 230.031963 216.726024 
L 232.224885 216.258787 
L 233.321347 216.258787 
L 235.514269 216.492405 
L 238.803653 216.305511 
L 239.900115 216.352234 
L 240.996576 216.118616 
L 243.189499 216.071892 
L 244.28596 216.118616 
L 245.382422 215.79155 
L 246.478883 215.884998 
L 248.671806 215.744827 
L 249.768267 215.230866 
L 254.154112 215.090695 
L 256.347035 215.230866 
L 257.443496 215.79155 
L 259.636419 215.838274 
L 262.925803 216.212063 
L 264.022265 215.838274 
L 265.118726 215.698103 
L 266.215187 215.371037 
L 267.311649 215.324314 
L 268.40811 215.090695 
L 271.697494 212.287276 
L 272.793955 210.885566 
L 273.890417 210.465053 
L 274.986878 209.764199 
L 276.08334 207.895252 
L 277.179801 207.381292 
L 278.276262 207.287845 
L 279.372724 207.474739 
L 280.469185 207.9887 
L 281.565646 208.315765 
L 282.662108 207.755081 
L 283.758569 208.549383 
L 284.85503 209.01662 
L 288.144414 208.269041 
L 289.240876 207.334568 
L 290.337337 206.727161 
L 291.433798 206.306648 
L 292.53026 204.998385 
L 293.626721 204.484425 
L 295.819644 203.643399 
L 296.916105 203.643399 
L 298.012567 203.222886 
L 299.109028 201.35394 
L 300.205489 200.372743 
L 301.301951 198.597244 
L 302.398412 198.784139 
L 303.494873 196.307785 
L 304.591335 195.513483 
L 305.687796 195.279865 
L 308.97718 191.869038 
L 310.073642 188.224592 
L 311.170103 187.710632 
L 312.266564 185.888409 
L 313.363026 184.720318 
L 314.459487 183.225161 
L 315.555948 182.851372 
L 316.65241 181.589833 
L 317.748871 182.057069 
L 319.941794 180.842254 
L 321.038255 179.347097 
L 322.134716 177.618322 
L 323.231178 175.235415 
L 324.327639 173.132851 
L 325.424101 171.544246 
L 326.520562 169.581853 
L 327.617023 168.64738 
L 328.713485 168.413761 
L 329.809946 167.198946 
L 330.906407 164.909487 
L 332.002869 163.41433 
L 333.09933 162.246239 
L 334.195791 160.237121 
L 335.292253 158.461622 
L 336.388714 157.15336 
L 337.485175 153.181849 
L 340.77456 145.098656 
L 341.871021 140.286119 
L 342.967482 137.295805 
L 344.063944 132.156203 
L 345.160405 128.465034 
L 347.353328 126.50264 
L 348.449789 125.941957 
L 349.54625 129.586402 
L 350.642712 132.016032 
L 351.739173 137.295805 
L 352.835634 141.220593 
L 353.932096 142.669026 
L 356.125019 152.80806 
L 357.22148 157.573873 
L 358.317941 160.704358 
L 359.414403 163.320883 
L 361.607325 176.964191 
L 362.703787 180.047952 
L 364.896709 185.00066 
L 365.993171 186.355646 
L 367.089632 187.103225 
L 368.186093 187.383566 
L 369.282555 186.635988 
L 370.379016 186.776159 
L 371.475477 186.776159 
L 372.571939 186.40237 
L 373.6684 187.290119 
L 374.764862 187.056501 
L 376.957784 188.832 
L 378.054246 188.925447 
L 379.150707 189.626302 
L 380.247168 188.31804 
L 381.34363 187.804079 
L 382.440091 185.841686 
L 383.536552 183.178437 
L 384.633014 181.075873 
L 385.729475 181.029149 
L 386.825936 178.73969 
L 387.922398 177.524875 
L 390.115321 176.216612 
L 391.211782 174.581284 
L 392.308243 171.777865 
L 393.404705 166.778433 
L 394.501166 165.376724 
L 395.597627 169.067893 
L 396.694089 162.059344 
L 397.79055 156.732847 
L 398.887011 153.135125 
L 401.079934 132.903782 
L 402.176395 124.58697 
L 403.272857 117.625145 
L 404.369318 109.682124 
L 404.369318 109.682124 
" style="fill:none;stroke:#2ca02c;stroke-linecap:square;stroke-width:1.5;"/>
   </g>
   <g id="line2d_20">
    <path clip-path="url(#p8599b55946)" d="M 80.913218 216.893394 
L 82.009679 217.20686 
L 83.106141 216.893394 
L 84.202602 216.893394 
L 85.299064 216.768007 
L 87.491986 216.71427 
L 90.78137 216.624708 
L 94.070754 214.923036 
L 95.167216 214.027419 
L 96.263677 213.490048 
L 97.360138 212.594431 
L 98.4566 212.325746 
L 99.553061 212.325746 
L 100.649523 211.51969 
L 101.745984 208.653715 
L 102.842445 207.489413 
L 106.131829 203.190451 
L 107.228291 201.309654 
L 108.324752 200.05579 
L 109.421213 200.503599 
L 110.517675 199.51842 
L 111.614136 199.428858 
L 113.807059 196.92113 
L 114.90352 196.652445 
L 115.999981 196.115075 
L 117.096443 197.010692 
L 118.192904 196.115075 
L 119.289366 194.771649 
L 120.385827 193.607347 
L 121.482288 193.78647 
L 122.57875 193.78647 
L 123.675211 193.965593 
L 124.771672 192.532606 
L 125.868134 193.965593 
L 126.964595 193.338661 
L 128.061056 196.204636 
L 129.157518 197.906309 
L 130.253979 197.906309 
L 132.446902 199.697543 
L 133.543363 198.085432 
L 134.639825 199.787105 
L 135.736286 200.324475 
L 136.832747 200.324475 
L 137.929209 201.847025 
L 139.02567 202.742642 
L 140.122131 202.65308 
L 141.218593 204.623438 
L 142.315054 205.698179 
L 143.411515 206.056426 
L 144.507977 206.145987 
L 145.604438 203.906944 
L 146.700899 203.100889 
L 147.797361 204.892123 
L 148.893822 206.325111 
L 149.990284 206.952043 
L 151.086745 207.131166 
L 152.183206 208.026783 
L 153.279668 210.803197 
L 154.376129 212.415308 
L 155.47259 212.952678 
L 156.569052 212.863116 
L 157.665513 213.131801 
L 158.761974 213.848295 
L 160.954897 213.490048 
L 162.051358 213.669172 
L 163.14782 212.146623 
L 164.244281 212.236184 
L 165.340743 212.057061 
L 166.437204 211.071882 
L 167.533665 211.340567 
L 168.630127 211.430129 
L 169.726588 211.340567 
L 170.823049 213.221363 
L 171.919511 213.669172 
L 173.015972 214.296104 
L 174.112433 214.654351 
L 175.208895 214.654351 
L 176.305356 215.191721 
L 177.401817 215.102159 
L 178.498279 214.654351 
L 179.59474 215.102159 
L 180.691202 214.833474 
L 181.787663 215.191721 
L 182.884124 215.102159 
L 183.980586 215.191721 
L 185.077047 215.63953 
L 186.173508 215.818653 
L 187.26997 215.729091 
L 188.366431 215.818653 
L 189.462892 216.087338 
L 190.559354 216.535147 
L 192.752276 216.445585 
L 193.848738 216.803832 
L 198.234583 216.71427 
L 200.427506 216.624708 
L 201.523967 216.71427 
L 202.620429 216.624708 
L 203.71689 216.71427 
L 204.813351 216.535147 
L 208.102735 216.71427 
L 211.392119 216.803832 
L 213.585042 216.982955 
L 214.681504 217.251641 
L 215.777965 217.341202 
L 220.16381 217.072517 
L 221.260272 217.072517 
L 223.453194 216.803832 
L 225.646117 216.803832 
L 226.742578 216.982955 
L 228.935501 216.982955 
L 230.031963 217.162079 
L 232.224885 217.251641 
L 234.417808 217.341202 
L 235.514269 217.341202 
L 237.707192 216.982955 
L 238.803653 217.072517 
L 240.996576 216.982955 
L 245.382422 217.072517 
L 246.478883 216.624708 
L 247.575344 215.997776 
L 248.671806 215.818653 
L 251.96119 215.729091 
L 253.057651 215.549968 
L 254.154112 215.908215 
L 255.250574 215.908215 
L 256.347035 215.549968 
L 257.443496 215.012598 
L 258.539958 214.11698 
L 259.636419 214.11698 
L 260.732881 214.385665 
L 261.829342 214.206542 
L 265.118726 215.191721 
L 266.215187 215.281283 
L 267.311649 214.923036 
L 268.40811 214.385665 
L 269.504571 213.131801 
L 272.793955 211.251005 
L 273.890417 211.51969 
L 276.08334 210.892758 
L 277.179801 211.430129 
L 278.276262 211.251005 
L 280.469185 209.818018 
L 281.565646 209.728456 
L 282.662108 209.280647 
L 284.85503 207.220728 
L 285.951492 204.533876 
L 287.047953 202.65308 
L 288.144414 199.697543 
L 289.240876 197.189815 
L 290.337337 193.069976 
L 291.433798 188.323205 
L 292.53026 184.113804 
L 293.626721 179.18791 
L 294.723183 176.053249 
L 295.819644 174.082892 
L 296.916105 170.410861 
L 298.012567 170.500423 
L 299.109028 170.142176 
L 300.205489 171.485602 
L 301.301951 173.903768 
L 302.398412 174.082892 
L 303.494873 173.008151 
L 304.591335 174.978509 
L 305.687796 173.276836 
L 306.784257 172.022972 
L 307.880719 167.992695 
L 308.97718 166.111899 
L 310.073642 165.484966 
L 311.170103 165.216281 
L 312.266564 166.291022 
L 313.363026 169.694367 
L 314.459487 170.85867 
L 315.555948 171.664725 
L 316.65241 170.679546 
L 317.748871 170.948231 
L 318.845332 172.829028 
L 319.941794 170.769108 
L 321.038255 170.052614 
L 322.134716 169.067435 
L 323.231178 170.231738 
L 324.327639 170.231738 
L 326.520562 167.365763 
L 327.617023 166.20146 
L 328.713485 164.231102 
L 329.809946 163.514609 
L 330.906407 161.544251 
L 332.002869 162.977238 
L 333.09933 161.902498 
L 334.195791 160.46951 
L 335.292253 161.723374 
L 336.388714 161.544251 
L 337.485175 159.573893 
L 339.678098 154.558437 
L 340.77456 153.931505 
L 341.871021 150.707283 
L 342.967482 145.960512 
L 344.063944 142.73629 
L 345.160405 138.616451 
L 346.256866 135.571352 
L 347.353328 131.093266 
L 348.449789 128.943785 
L 349.54625 130.735019 
L 350.642712 132.974062 
L 351.739173 133.421871 
L 352.835634 135.392229 
L 353.932096 135.302667 
L 355.028557 138.07908 
L 356.125019 143.542345 
L 357.22148 145.33358 
L 358.317941 147.662184 
L 359.414403 148.916048 
L 360.510864 151.961147 
L 362.703787 162.618991 
L 363.800248 162.260745 
L 364.896709 164.320664 
L 365.993171 165.843213 
L 367.089632 168.530065 
L 368.186093 169.963052 
L 369.282555 170.769108 
L 370.379016 169.067435 
L 371.475477 169.33612 
L 372.571939 170.948231 
L 373.6684 171.843849 
L 375.861323 172.202095 
L 376.957784 171.575163 
L 378.054246 173.276836 
L 379.150707 173.008151 
L 380.247168 170.052614 
L 381.34363 167.903133 
L 382.440091 167.365763 
L 383.536552 165.843213 
L 384.633014 164.858034 
L 385.729475 163.514609 
L 386.825936 162.708553 
L 387.922398 162.439868 
L 389.018859 162.350306 
L 390.115321 161.454689 
L 391.211782 163.514609 
L 392.308243 161.00688 
L 393.404705 157.424412 
L 394.501166 156.528795 
L 395.597627 161.633813 
L 396.694089 157.603535 
L 398.887011 147.303937 
L 399.983473 135.392229 
L 401.079934 127.331674 
L 404.369318 113.360046 
L 404.369318 113.360046 
" style="fill:none;stroke:#d62728;stroke-linecap:square;stroke-width:1.5;"/>
   </g>
   <g id="line2d_21">
    <path clip-path="url(#p8599b55946)" d="M 67.755682 216.896445 
L 68.852143 217.208385 
L 71.045066 217.364356 
L 74.33445 217.4312 
L 76.527373 217.342074 
L 78.720295 217.252948 
L 82.009679 216.896445 
L 83.106141 217.074697 
L 84.202602 216.896445 
L 89.684909 216.807319 
L 91.877832 215.916061 
L 92.974293 215.024803 
L 94.070754 214.490048 
L 95.167216 213.59879 
L 96.263677 212.440154 
L 97.360138 211.548896 
L 98.4566 210.033757 
L 99.553061 209.053374 
L 100.649523 208.518619 
L 101.745984 207.449109 
L 102.842445 203.884076 
L 105.035368 198.714779 
L 106.131829 196.843137 
L 108.324752 191.406463 
L 109.421213 188.643563 
L 110.517675 189.623946 
L 111.614136 190.871708 
L 112.710597 191.495589 
L 113.807059 192.921602 
L 114.90352 193.991111 
L 115.999981 194.169363 
L 118.192904 195.862753 
L 119.289366 195.951879 
L 120.385827 195.060621 
L 121.482288 193.723734 
L 122.57875 194.882369 
L 123.675211 196.219257 
L 124.771672 195.684502 
L 125.868134 194.882369 
L 126.964595 195.149747 
L 129.157518 199.606037 
L 130.253979 199.873415 
L 131.35044 200.497296 
L 133.543363 204.775335 
L 134.639825 203.973202 
L 136.832747 202.992818 
L 139.02567 200.942925 
L 140.122131 201.03205 
L 141.218593 199.249534 
L 142.315054 199.784289 
L 143.411515 200.586421 
L 145.604438 200.586421 
L 146.700899 201.655931 
L 147.797361 199.606037 
L 148.893822 201.121176 
L 149.990284 202.279812 
L 151.086745 201.745057 
L 152.183206 202.368938 
L 153.279668 203.349322 
L 154.376129 203.438447 
L 155.47259 205.93397 
L 157.665513 206.290473 
L 158.761974 207.716486 
L 159.858436 207.270857 
L 162.051358 207.983864 
L 163.14782 207.716486 
L 164.244281 207.983864 
L 165.340743 207.894738 
L 166.437204 208.251241 
L 167.533665 209.499003 
L 168.630127 209.588128 
L 169.726588 210.301135 
L 170.823049 210.746764 
L 171.919511 210.83589 
L 173.015972 211.816274 
L 174.112433 211.548896 
L 175.208895 211.9054 
L 177.401817 213.242287 
L 178.498279 213.420538 
L 179.59474 213.777042 
L 180.691202 213.331413 
L 181.787663 213.509664 
L 182.884124 213.331413 
L 183.980586 212.618406 
L 185.077047 211.370645 
L 186.173508 211.370645 
L 187.26997 211.638022 
L 188.366431 212.083651 
L 189.462892 211.994525 
L 190.559354 212.083651 
L 191.655815 213.153161 
L 192.752276 213.687916 
L 193.848738 214.044419 
L 194.945199 214.044419 
L 199.331045 215.024803 
L 200.427506 215.826935 
L 202.620429 216.896445 
L 203.71689 216.718193 
L 204.813351 216.718193 
L 205.909813 216.539942 
L 207.006274 216.005187 
L 208.102735 216.183439 
L 210.295658 215.826935 
L 211.392119 216.005187 
L 212.488581 216.005187 
L 213.585042 216.183439 
L 214.681504 216.807319 
L 215.777965 216.629068 
L 219.067349 217.074697 
L 220.16381 216.807319 
L 221.260272 216.807319 
L 222.356733 216.450816 
L 224.549656 216.36169 
L 226.742578 216.094313 
L 227.83904 216.36169 
L 228.935501 216.36169 
L 230.031963 216.718193 
L 231.128424 216.807319 
L 232.224885 216.36169 
L 233.321347 216.183439 
L 234.417808 216.183439 
L 235.514269 215.916061 
L 238.803653 215.826935 
L 239.900115 216.272564 
L 240.996576 216.450816 
L 242.093037 216.005187 
L 243.189499 216.36169 
L 245.382422 216.272564 
L 246.478883 216.005187 
L 247.575344 216.183439 
L 248.671806 215.916061 
L 249.768267 216.36169 
L 253.057651 215.916061 
L 254.154112 216.183439 
L 255.250574 215.648684 
L 256.347035 215.737809 
L 259.636419 214.757426 
L 261.829342 212.261903 
L 262.925803 211.638022 
L 264.022265 210.657638 
L 265.118726 208.875122 
L 266.215187 208.875122 
L 267.311649 208.69687 
L 268.40811 208.07299 
L 269.504571 207.181731 
L 270.601033 205.220964 
L 273.890417 200.40817 
L 274.986878 198.26915 
L 276.08334 196.57576 
L 277.179801 193.901985 
L 279.372724 189.267443 
L 280.469185 189.178317 
L 281.565646 187.039298 
L 282.662108 187.128424 
L 285.951492 182.761259 
L 287.047953 179.820107 
L 288.144414 177.591962 
L 289.240876 176.255075 
L 290.337337 172.779168 
L 291.433798 169.838016 
L 292.53026 168.412003 
L 293.626721 165.2926 
L 294.723183 165.827355 
L 295.819644 163.064454 
L 296.916105 162.707951 
L 298.012567 162.618825 
L 299.109028 161.014561 
L 300.205489 159.945051 
L 301.301951 157.806031 
L 302.398412 157.003899 
L 303.494873 156.736522 
L 304.591335 152.72586 
L 305.687796 150.408589 
L 307.880719 139.624366 
L 308.97718 138.822233 
L 310.073642 131.781294 
L 311.170103 129.374897 
L 312.266564 131.335665 
L 313.363026 130.711785 
L 314.459487 132.137798 
L 315.555948 134.365943 
L 316.65241 136.148459 
L 317.748871 139.802617 
L 318.845332 142.209014 
L 319.941794 140.248246 
L 321.038255 140.961253 
L 322.134716 134.365943 
L 323.231178 133.831188 
L 324.327639 130.533533 
L 325.424101 129.10752 
L 326.520562 130.17703 
L 327.617023 130.80091 
L 328.713485 133.831188 
L 329.809946 138.46573 
L 332.002869 142.119889 
L 333.09933 147.20006 
L 334.195791 145.863173 
L 335.292253 149.339079 
L 336.388714 148.180444 
L 337.485175 148.89345 
L 339.678098 155.399635 
L 341.871021 156.023515 
L 342.967482 156.023515 
L 344.063944 155.756138 
L 345.160405 161.549316 
L 346.256866 161.281938 
L 347.353328 163.15358 
L 348.449789 163.15358 
L 349.54625 164.490467 
L 350.642712 166.272984 
L 351.739173 166.98599 
L 352.835634 169.214135 
L 353.932096 171.798784 
L 355.028557 171.174903 
L 357.22148 179.285352 
L 358.317941 180.978743 
L 359.414403 185.256782 
L 360.510864 188.732688 
L 361.607325 191.584714 
L 362.703787 196.130131 
L 363.800248 197.288766 
L 364.896709 199.071283 
L 365.993171 199.784289 
L 367.089632 199.873415 
L 368.186093 199.606037 
L 369.282555 200.675547 
L 370.379016 202.190686 
L 371.475477 202.547189 
L 372.571939 201.655931 
L 373.6684 201.121176 
L 374.764862 200.40817 
L 375.861323 200.764673 
L 376.957784 200.586421 
L 378.054246 200.229918 
L 379.150707 198.536528 
L 380.247168 196.308382 
L 381.34363 195.684502 
L 382.440091 195.327998 
L 386.825936 182.583007 
L 387.922398 182.226504 
L 390.115321 173.670426 
L 391.211782 168.322877 
L 393.404705 156.469144 
L 394.501166 153.79537 
L 395.597627 155.756138 
L 396.694089 149.517331 
L 398.887011 129.374897 
L 401.079934 78.038429 
L 402.176395 57.004738 
L 403.272857 43.992369 
L 404.369318 35.88192 
L 404.369318 35.88192 
" style="fill:none;stroke:#9467bd;stroke-linecap:square;stroke-width:1.5;"/>
   </g>
   <g id="line2d_22"/>
   <g id="line2d_23"/>
   <g id="line2d_24"/>
   <g id="line2d_25"/>
   <g id="line2d_26"/>
   <g id="patch_3">
    <path d="M 50.925 226.602246 
L 50.925 26.8 
" style="fill:none;stroke:#000000;stroke-linecap:square;stroke-linejoin:miter;stroke-width:0.8;"/>
   </g>
   <g id="patch_4">
    <path d="M 421.2 226.602246 
L 421.2 26.8 
" style="fill:none;stroke:#000000;stroke-linecap:square;stroke-linejoin:miter;stroke-width:0.8;"/>
   </g>
   <g id="patch_5">
    <path d="M 50.925 226.602246 
L 421.2 226.602246 
" style="fill:none;stroke:#000000;stroke-linecap:square;stroke-linejoin:miter;stroke-width:0.8;"/>
   </g>
   <g id="patch_6">
    <path d="M 50.925 26.8 
L 421.2 26.8 
" style="fill:none;stroke:#000000;stroke-linecap:square;stroke-linejoin:miter;stroke-width:0.8;"/>
   </g>
   <g id="text_19">
    <!-- Positive tests per million people by UTLA (7 day rolling) -->
    <g transform="translate(69.683437 20.8)scale(0.12 -0.12)">
     <defs>
      <path d="M 48.6875 27.296875 
Q 48.6875 37.203125 44.609375 42.84375 
Q 40.53125 48.484375 33.40625 48.484375 
Q 26.265625 48.484375 22.1875 42.84375 
Q 18.109375 37.203125 18.109375 27.296875 
Q 18.109375 17.390625 22.1875 11.75 
Q 26.265625 6.109375 33.40625 6.109375 
Q 40.53125 6.109375 44.609375 11.75 
Q 48.6875 17.390625 48.6875 27.296875 
z
M 18.109375 46.390625 
Q 20.953125 51.265625 25.265625 53.625 
Q 29.59375 56 35.59375 56 
Q 45.5625 56 51.78125 48.09375 
Q 58.015625 40.1875 58.015625 27.296875 
Q 58.015625 14.40625 51.78125 6.484375 
Q 45.5625 -1.421875 35.59375 -1.421875 
Q 29.59375 -1.421875 25.265625 0.953125 
Q 20.953125 3.328125 18.109375 8.203125 
L 18.109375 0 
L 9.078125 0 
L 9.078125 75.984375 
L 18.109375 75.984375 
z
" id="DejaVuSans-98"/>
      <path d="M 32.171875 -5.078125 
Q 28.375 -14.84375 24.75 -17.8125 
Q 21.140625 -20.796875 15.09375 -20.796875 
L 7.90625 -20.796875 
L 7.90625 -13.28125 
L 13.1875 -13.28125 
Q 16.890625 -13.28125 18.9375 -11.515625 
Q 21 -9.765625 23.484375 -3.21875 
L 25.09375 0.875 
L 2.984375 54.6875 
L 12.5 54.6875 
L 29.59375 11.921875 
L 46.6875 54.6875 
L 56.203125 54.6875 
z
" id="DejaVuSans-121"/>
      <path d="M 8.6875 72.90625 
L 18.609375 72.90625 
L 18.609375 28.609375 
Q 18.609375 16.890625 22.84375 11.734375 
Q 27.09375 6.59375 36.625 6.59375 
Q 46.09375 6.59375 50.34375 11.734375 
Q 54.59375 16.890625 54.59375 28.609375 
L 54.59375 72.90625 
L 64.5 72.90625 
L 64.5 27.390625 
Q 64.5 13.140625 57.4375 5.859375 
Q 50.390625 -1.421875 36.625 -1.421875 
Q 22.796875 -1.421875 15.734375 5.859375 
Q 8.6875 13.140625 8.6875 27.390625 
z
" id="DejaVuSans-85"/>
      <path d="M -0.296875 72.90625 
L 61.375 72.90625 
L 61.375 64.59375 
L 35.5 64.59375 
L 35.5 0 
L 25.59375 0 
L 25.59375 64.59375 
L -0.296875 64.59375 
z
" id="DejaVuSans-84"/>
      <path d="M 9.8125 72.90625 
L 19.671875 72.90625 
L 19.671875 8.296875 
L 55.171875 8.296875 
L 55.171875 0 
L 9.8125 0 
z
" id="DejaVuSans-76"/>
      <path d="M 34.1875 63.1875 
L 20.796875 26.90625 
L 47.609375 26.90625 
z
M 28.609375 72.90625 
L 39.796875 72.90625 
L 67.578125 0 
L 57.328125 0 
L 50.6875 18.703125 
L 17.828125 18.703125 
L 11.1875 0 
L 0.78125 0 
z
" id="DejaVuSans-65"/>
      <path d="M 31 75.875 
Q 24.46875 64.65625 21.28125 53.65625 
Q 18.109375 42.671875 18.109375 31.390625 
Q 18.109375 20.125 21.3125 9.0625 
Q 24.515625 -2 31 -13.1875 
L 23.1875 -13.1875 
Q 15.875 -1.703125 12.234375 9.375 
Q 8.59375 20.453125 8.59375 31.390625 
Q 8.59375 42.28125 12.203125 53.3125 
Q 15.828125 64.359375 23.1875 75.875 
z
" id="DejaVuSans-40"/>
      <path d="M 45.40625 46.390625 
L 45.40625 75.984375 
L 54.390625 75.984375 
L 54.390625 0 
L 45.40625 0 
L 45.40625 8.203125 
Q 42.578125 3.328125 38.25 0.953125 
Q 33.9375 -1.421875 27.875 -1.421875 
Q 17.96875 -1.421875 11.734375 6.484375 
Q 5.515625 14.40625 5.515625 27.296875 
Q 5.515625 40.1875 11.734375 48.09375 
Q 17.96875 56 27.875 56 
Q 33.9375 56 38.25 53.625 
Q 42.578125 51.265625 45.40625 46.390625 
z
M 14.796875 27.296875 
Q 14.796875 17.390625 18.875 11.75 
Q 22.953125 6.109375 30.078125 6.109375 
Q 37.203125 6.109375 41.296875 11.75 
Q 45.40625 17.390625 45.40625 27.296875 
Q 45.40625 37.203125 41.296875 42.84375 
Q 37.203125 48.484375 30.078125 48.484375 
Q 22.953125 48.484375 18.875 42.84375 
Q 14.796875 37.203125 14.796875 27.296875 
z
" id="DejaVuSans-100"/>
      <path d="M 45.40625 27.984375 
Q 45.40625 37.75 41.375 43.109375 
Q 37.359375 48.484375 30.078125 48.484375 
Q 22.859375 48.484375 18.828125 43.109375 
Q 14.796875 37.75 14.796875 27.984375 
Q 14.796875 18.265625 18.828125 12.890625 
Q 22.859375 7.515625 30.078125 7.515625 
Q 37.359375 7.515625 41.375 12.890625 
Q 45.40625 18.265625 45.40625 27.984375 
z
M 54.390625 6.78125 
Q 54.390625 -7.171875 48.1875 -13.984375 
Q 42 -20.796875 29.203125 -20.796875 
Q 24.46875 -20.796875 20.265625 -20.09375 
Q 16.0625 -19.390625 12.109375 -17.921875 
L 12.109375 -9.1875 
Q 16.0625 -11.328125 19.921875 -12.34375 
Q 23.78125 -13.375 27.78125 -13.375 
Q 36.625 -13.375 41.015625 -8.765625 
Q 45.40625 -4.15625 45.40625 5.171875 
L 45.40625 9.625 
Q 42.625 4.78125 38.28125 2.390625 
Q 33.9375 0 27.875 0 
Q 17.828125 0 11.671875 7.65625 
Q 5.515625 15.328125 5.515625 27.984375 
Q 5.515625 40.671875 11.671875 48.328125 
Q 17.828125 56 27.875 56 
Q 33.9375 56 38.28125 53.609375 
Q 42.625 51.21875 45.40625 46.390625 
L 45.40625 54.6875 
L 54.390625 54.6875 
z
" id="DejaVuSans-103"/>
      <path d="M 8.015625 75.875 
L 15.828125 75.875 
Q 23.140625 64.359375 26.78125 53.3125 
Q 30.421875 42.28125 30.421875 31.390625 
Q 30.421875 20.453125 26.78125 9.375 
Q 23.140625 -1.703125 15.828125 -13.1875 
L 8.015625 -13.1875 
Q 14.5 -2 17.703125 9.0625 
Q 20.90625 20.125 20.90625 31.390625 
Q 20.90625 42.671875 17.703125 53.65625 
Q 14.5 64.65625 8.015625 75.875 
z
" id="DejaVuSans-41"/>
     </defs>
     <use xlink:href="#DejaVuSans-80"/>
     <use x="56.677734" xlink:href="#DejaVuSans-111"/>
     <use x="117.859375" xlink:href="#DejaVuSans-115"/>
     <use x="169.958984" xlink:href="#DejaVuSans-105"/>
     <use x="197.742188" xlink:href="#DejaVuSans-116"/>
     <use x="236.951172" xlink:href="#DejaVuSans-105"/>
     <use x="264.734375" xlink:href="#DejaVuSans-118"/>
     <use x="323.914062" xlink:href="#DejaVuSans-101"/>
     <use x="385.4375" xlink:href="#DejaVuSans-32"/>
     <use x="417.224609" xlink:href="#DejaVuSans-116"/>
     <use x="456.433594" xlink:href="#DejaVuSans-101"/>
     <use x="517.957031" xlink:href="#DejaVuSans-115"/>
     <use x="570.056641" xlink:href="#DejaVuSans-116"/>
     <use x="609.265625" xlink:href="#DejaVuSans-115"/>
     <use x="661.365234" xlink:href="#DejaVuSans-32"/>
     <use x="693.152344" xlink:href="#DejaVuSans-112"/>
     <use x="756.628906" xlink:href="#DejaVuSans-101"/>
     <use x="818.152344" xlink:href="#DejaVuSans-114"/>
     <use x="859.265625" xlink:href="#DejaVuSans-32"/>
     <use x="891.052734" xlink:href="#DejaVuSans-109"/>
     <use x="988.464844" xlink:href="#DejaVuSans-105"/>
     <use x="1016.248047" xlink:href="#DejaVuSans-108"/>
     <use x="1044.03125" xlink:href="#DejaVuSans-108"/>
     <use x="1071.814453" xlink:href="#DejaVuSans-105"/>
     <use x="1099.597656" xlink:href="#DejaVuSans-111"/>
     <use x="1160.779297" xlink:href="#DejaVuSans-110"/>
     <use x="1224.158203" xlink:href="#DejaVuSans-32"/>
     <use x="1255.945312" xlink:href="#DejaVuSans-112"/>
     <use x="1319.421875" xlink:href="#DejaVuSans-101"/>
     <use x="1380.945312" xlink:href="#DejaVuSans-111"/>
     <use x="1442.126953" xlink:href="#DejaVuSans-112"/>
     <use x="1505.603516" xlink:href="#DejaVuSans-108"/>
     <use x="1533.386719" xlink:href="#DejaVuSans-101"/>
     <use x="1594.910156" xlink:href="#DejaVuSans-32"/>
     <use x="1626.697266" xlink:href="#DejaVuSans-98"/>
     <use x="1690.173828" xlink:href="#DejaVuSans-121"/>
     <use x="1749.353516" xlink:href="#DejaVuSans-32"/>
     <use x="1781.140625" xlink:href="#DejaVuSans-85"/>
     <use x="1854.333984" xlink:href="#DejaVuSans-84"/>
     <use x="1915.417969" xlink:href="#DejaVuSans-76"/>
     <use x="1973.380859" xlink:href="#DejaVuSans-65"/>
     <use x="2041.789062" xlink:href="#DejaVuSans-32"/>
     <use x="2073.576172" xlink:href="#DejaVuSans-40"/>
     <use x="2112.589844" xlink:href="#DejaVuSans-55"/>
     <use x="2176.212891" xlink:href="#DejaVuSans-32"/>
     <use x="2208" xlink:href="#DejaVuSans-100"/>
     <use x="2271.476562" xlink:href="#DejaVuSans-97"/>
     <use x="2332.755859" xlink:href="#DejaVuSans-121"/>
     <use x="2391.935547" xlink:href="#DejaVuSans-32"/>
     <use x="2423.722656" xlink:href="#DejaVuSans-114"/>
     <use x="2462.585938" xlink:href="#DejaVuSans-111"/>
     <use x="2523.767578" xlink:href="#DejaVuSans-108"/>
     <use x="2551.550781" xlink:href="#DejaVuSans-108"/>
     <use x="2579.333984" xlink:href="#DejaVuSans-105"/>
     <use x="2607.117188" xlink:href="#DejaVuSans-110"/>
     <use x="2670.496094" xlink:href="#DejaVuSans-103"/>
     <use x="2733.972656" xlink:href="#DejaVuSans-41"/>
    </g>
   </g>
   <g id="legend_1">
    <g id="patch_7">
     <path d="M 57.925 122.86875 
L 225.560938 122.86875 
Q 227.560938 122.86875 227.560938 120.86875 
L 227.560938 33.8 
Q 227.560938 31.8 225.560938 31.8 
L 57.925 31.8 
Q 55.925 31.8 55.925 33.8 
L 55.925 120.86875 
Q 55.925 122.86875 57.925 122.86875 
z
" style="fill:#ffffff;opacity:0.8;stroke:#cccccc;stroke-linejoin:miter;"/>
    </g>
    <g id="text_20">
     <!-- Upper-tier local authority -->
     <g transform="translate(79.022656 43.398437)scale(0.1 -0.1)">
      <defs>
       <path d="M 48.78125 52.59375 
L 48.78125 44.1875 
Q 44.96875 46.296875 41.140625 47.34375 
Q 37.3125 48.390625 33.40625 48.390625 
Q 24.65625 48.390625 19.8125 42.84375 
Q 14.984375 37.3125 14.984375 27.296875 
Q 14.984375 17.28125 19.8125 11.734375 
Q 24.65625 6.203125 33.40625 6.203125 
Q 37.3125 6.203125 41.140625 7.25 
Q 44.96875 8.296875 48.78125 10.40625 
L 48.78125 2.09375 
Q 45.015625 0.34375 40.984375 -0.53125 
Q 36.96875 -1.421875 32.421875 -1.421875 
Q 20.0625 -1.421875 12.78125 6.34375 
Q 5.515625 14.109375 5.515625 27.296875 
Q 5.515625 40.671875 12.859375 48.328125 
Q 20.21875 56 33.015625 56 
Q 37.15625 56 41.109375 55.140625 
Q 45.0625 54.296875 48.78125 52.59375 
z
" id="DejaVuSans-99"/>
       <path d="M 54.890625 33.015625 
L 54.890625 0 
L 45.90625 0 
L 45.90625 32.71875 
Q 45.90625 40.484375 42.875 44.328125 
Q 39.84375 48.1875 33.796875 48.1875 
Q 26.515625 48.1875 22.3125 43.546875 
Q 18.109375 38.921875 18.109375 30.90625 
L 18.109375 0 
L 9.078125 0 
L 9.078125 75.984375 
L 18.109375 75.984375 
L 18.109375 46.1875 
Q 21.34375 51.125 25.703125 53.5625 
Q 30.078125 56 35.796875 56 
Q 45.21875 56 50.046875 50.171875 
Q 54.890625 44.34375 54.890625 33.015625 
z
" id="DejaVuSans-104"/>
      </defs>
      <use xlink:href="#DejaVuSans-85"/>
      <use x="73.193359" xlink:href="#DejaVuSans-112"/>
      <use x="136.669922" xlink:href="#DejaVuSans-112"/>
      <use x="200.146484" xlink:href="#DejaVuSans-101"/>
      <use x="261.669922" xlink:href="#DejaVuSans-114"/>
      <use x="296.408203" xlink:href="#DejaVuSans-45"/>
      <use x="332.492188" xlink:href="#DejaVuSans-116"/>
      <use x="371.701172" xlink:href="#DejaVuSans-105"/>
      <use x="399.484375" xlink:href="#DejaVuSans-101"/>
      <use x="461.007812" xlink:href="#DejaVuSans-114"/>
      <use x="502.121094" xlink:href="#DejaVuSans-32"/>
      <use x="533.908203" xlink:href="#DejaVuSans-108"/>
      <use x="561.691406" xlink:href="#DejaVuSans-111"/>
      <use x="622.873047" xlink:href="#DejaVuSans-99"/>
      <use x="677.853516" xlink:href="#DejaVuSans-97"/>
      <use x="739.132812" xlink:href="#DejaVuSans-108"/>
      <use x="766.916016" xlink:href="#DejaVuSans-32"/>
      <use x="798.703125" xlink:href="#DejaVuSans-97"/>
      <use x="859.982422" xlink:href="#DejaVuSans-117"/>
      <use x="923.361328" xlink:href="#DejaVuSans-116"/>
      <use x="962.570312" xlink:href="#DejaVuSans-104"/>
      <use x="1025.949219" xlink:href="#DejaVuSans-111"/>
      <use x="1087.130859" xlink:href="#DejaVuSans-114"/>
      <use x="1128.244141" xlink:href="#DejaVuSans-105"/>
      <use x="1156.027344" xlink:href="#DejaVuSans-116"/>
      <use x="1195.236328" xlink:href="#DejaVuSans-121"/>
     </g>
    </g>
    <g id="line2d_27">
     <path d="M 59.925 54.576562 
L 79.925 54.576562 
" style="fill:none;stroke:#1f77b4;stroke-linecap:square;stroke-width:1.5;"/>
    </g>
    <g id="line2d_28"/>
    <g id="text_21">
     <!-- Cheshire West and Chester -->
     <g transform="translate(87.925 58.076562)scale(0.1 -0.1)">
      <defs>
       <path d="M 64.40625 67.28125 
L 64.40625 56.890625 
Q 59.421875 61.53125 53.78125 63.8125 
Q 48.140625 66.109375 41.796875 66.109375 
Q 29.296875 66.109375 22.65625 58.46875 
Q 16.015625 50.828125 16.015625 36.375 
Q 16.015625 21.96875 22.65625 14.328125 
Q 29.296875 6.6875 41.796875 6.6875 
Q 48.140625 6.6875 53.78125 8.984375 
Q 59.421875 11.28125 64.40625 15.921875 
L 64.40625 5.609375 
Q 59.234375 2.09375 53.4375 0.328125 
Q 47.65625 -1.421875 41.21875 -1.421875 
Q 24.65625 -1.421875 15.125 8.703125 
Q 5.609375 18.84375 5.609375 36.375 
Q 5.609375 53.953125 15.125 64.078125 
Q 24.65625 74.21875 41.21875 74.21875 
Q 47.75 74.21875 53.53125 72.484375 
Q 59.328125 70.75 64.40625 67.28125 
z
" id="DejaVuSans-67"/>
       <path d="M 3.328125 72.90625 
L 13.28125 72.90625 
L 28.609375 11.28125 
L 43.890625 72.90625 
L 54.984375 72.90625 
L 70.3125 11.28125 
L 85.59375 72.90625 
L 95.609375 72.90625 
L 77.296875 0 
L 64.890625 0 
L 49.515625 63.28125 
L 33.984375 0 
L 21.578125 0 
z
" id="DejaVuSans-87"/>
      </defs>
      <use xlink:href="#DejaVuSans-67"/>
      <use x="69.824219" xlink:href="#DejaVuSans-104"/>
      <use x="133.203125" xlink:href="#DejaVuSans-101"/>
      <use x="194.726562" xlink:href="#DejaVuSans-115"/>
      <use x="246.826172" xlink:href="#DejaVuSans-104"/>
      <use x="310.205078" xlink:href="#DejaVuSans-105"/>
      <use x="337.988281" xlink:href="#DejaVuSans-114"/>
      <use x="376.851562" xlink:href="#DejaVuSans-101"/>
      <use x="438.375" xlink:href="#DejaVuSans-32"/>
      <use x="470.162109" xlink:href="#DejaVuSans-87"/>
      <use x="563.164062" xlink:href="#DejaVuSans-101"/>
      <use x="624.6875" xlink:href="#DejaVuSans-115"/>
      <use x="676.787109" xlink:href="#DejaVuSans-116"/>
      <use x="715.996094" xlink:href="#DejaVuSans-32"/>
      <use x="747.783203" xlink:href="#DejaVuSans-97"/>
      <use x="809.0625" xlink:href="#DejaVuSans-110"/>
      <use x="872.441406" xlink:href="#DejaVuSans-100"/>
      <use x="935.917969" xlink:href="#DejaVuSans-32"/>
      <use x="967.705078" xlink:href="#DejaVuSans-67"/>
      <use x="1037.529297" xlink:href="#DejaVuSans-104"/>
      <use x="1100.908203" xlink:href="#DejaVuSans-101"/>
      <use x="1162.431641" xlink:href="#DejaVuSans-115"/>
      <use x="1214.53125" xlink:href="#DejaVuSans-116"/>
      <use x="1253.740234" xlink:href="#DejaVuSans-101"/>
      <use x="1315.263672" xlink:href="#DejaVuSans-114"/>
     </g>
    </g>
    <g id="line2d_29">
     <path d="M 59.925 69.254687 
L 79.925 69.254687 
" style="fill:none;stroke:#ff7f0e;stroke-linecap:square;stroke-width:1.5;"/>
    </g>
    <g id="line2d_30"/>
    <g id="text_22">
     <!-- Leicester -->
     <g transform="translate(87.925 72.754687)scale(0.1 -0.1)">
      <use xlink:href="#DejaVuSans-76"/>
      <use x="53.962891" xlink:href="#DejaVuSans-101"/>
      <use x="115.486328" xlink:href="#DejaVuSans-105"/>
      <use x="143.269531" xlink:href="#DejaVuSans-99"/>
      <use x="198.25" xlink:href="#DejaVuSans-101"/>
      <use x="259.773438" xlink:href="#DejaVuSans-115"/>
      <use x="311.873047" xlink:href="#DejaVuSans-116"/>
      <use x="351.082031" xlink:href="#DejaVuSans-101"/>
      <use x="412.605469" xlink:href="#DejaVuSans-114"/>
     </g>
    </g>
    <g id="line2d_31">
     <path d="M 59.925 83.932812 
L 79.925 83.932812 
" style="fill:none;stroke:#2ca02c;stroke-linecap:square;stroke-width:1.5;"/>
    </g>
    <g id="line2d_32"/>
    <g id="text_23">
     <!-- North Yorkshire -->
     <g transform="translate(87.925 87.432812)scale(0.1 -0.1)">
      <defs>
       <path d="M 9.8125 72.90625 
L 23.09375 72.90625 
L 55.421875 11.921875 
L 55.421875 72.90625 
L 64.984375 72.90625 
L 64.984375 0 
L 51.703125 0 
L 19.390625 60.984375 
L 19.390625 0 
L 9.8125 0 
z
" id="DejaVuSans-78"/>
       <path d="M -0.203125 72.90625 
L 10.40625 72.90625 
L 30.609375 42.921875 
L 50.6875 72.90625 
L 61.28125 72.90625 
L 35.5 34.71875 
L 35.5 0 
L 25.59375 0 
L 25.59375 34.71875 
z
" id="DejaVuSans-89"/>
       <path d="M 9.078125 75.984375 
L 18.109375 75.984375 
L 18.109375 31.109375 
L 44.921875 54.6875 
L 56.390625 54.6875 
L 27.390625 29.109375 
L 57.625 0 
L 45.90625 0 
L 18.109375 26.703125 
L 18.109375 0 
L 9.078125 0 
z
" id="DejaVuSans-107"/>
      </defs>
      <use xlink:href="#DejaVuSans-78"/>
      <use x="74.804688" xlink:href="#DejaVuSans-111"/>
      <use x="135.986328" xlink:href="#DejaVuSans-114"/>
      <use x="177.099609" xlink:href="#DejaVuSans-116"/>
      <use x="216.308594" xlink:href="#DejaVuSans-104"/>
      <use x="279.6875" xlink:href="#DejaVuSans-32"/>
      <use x="311.474609" xlink:href="#DejaVuSans-89"/>
      <use x="359.308594" xlink:href="#DejaVuSans-111"/>
      <use x="420.490234" xlink:href="#DejaVuSans-114"/>
      <use x="461.603516" xlink:href="#DejaVuSans-107"/>
      <use x="519.513672" xlink:href="#DejaVuSans-115"/>
      <use x="571.613281" xlink:href="#DejaVuSans-104"/>
      <use x="634.992188" xlink:href="#DejaVuSans-105"/>
      <use x="662.775391" xlink:href="#DejaVuSans-114"/>
      <use x="701.638672" xlink:href="#DejaVuSans-101"/>
     </g>
    </g>
    <g id="line2d_33">
     <path d="M 59.925 98.610937 
L 79.925 98.610937 
" style="fill:none;stroke:#d62728;stroke-linecap:square;stroke-width:1.5;"/>
    </g>
    <g id="line2d_34"/>
    <g id="text_24">
     <!-- Northumberland -->
     <g transform="translate(87.925 102.110937)scale(0.1 -0.1)">
      <use xlink:href="#DejaVuSans-78"/>
      <use x="74.804688" xlink:href="#DejaVuSans-111"/>
      <use x="135.986328" xlink:href="#DejaVuSans-114"/>
      <use x="177.099609" xlink:href="#DejaVuSans-116"/>
      <use x="216.308594" xlink:href="#DejaVuSans-104"/>
      <use x="279.6875" xlink:href="#DejaVuSans-117"/>
      <use x="343.066406" xlink:href="#DejaVuSans-109"/>
      <use x="440.478516" xlink:href="#DejaVuSans-98"/>
      <use x="503.955078" xlink:href="#DejaVuSans-101"/>
      <use x="565.478516" xlink:href="#DejaVuSans-114"/>
      <use x="606.591797" xlink:href="#DejaVuSans-108"/>
      <use x="634.375" xlink:href="#DejaVuSans-97"/>
      <use x="695.654297" xlink:href="#DejaVuSans-110"/>
      <use x="759.033203" xlink:href="#DejaVuSans-100"/>
     </g>
    </g>
    <g id="line2d_35">
     <path d="M 59.925 113.289062 
L 79.925 113.289062 
" style="fill:none;stroke:#9467bd;stroke-linecap:square;stroke-width:1.5;"/>
    </g>
    <g id="line2d_36"/>
    <g id="text_25">
     <!-- Wirral -->
     <g transform="translate(87.925 116.789062)scale(0.1 -0.1)">
      <use xlink:href="#DejaVuSans-87"/>
      <use x="96.626953" xlink:href="#DejaVuSans-105"/>
      <use x="124.410156" xlink:href="#DejaVuSans-114"/>
      <use x="163.773438" xlink:href="#DejaVuSans-114"/>
      <use x="204.886719" xlink:href="#DejaVuSans-97"/>
      <use x="266.166016" xlink:href="#DejaVuSans-108"/>
     </g>
    </g>
   </g>
  </g>
 </g>
 <defs>
  <clipPath id="p8599b55946">
   <rect height="199.802246" width="370.275" x="50.925" y="26.8"/>
  </clipPath>
 </defs>
</svg>
