<?xml version="1.0" encoding="utf-8" standalone="no"?>
<!DOCTYPE svg PUBLIC "-//W3C//DTD SVG 1.1//EN"
  "http://www.w3.org/Graphics/SVG/1.1/DTD/svg11.dtd">
<!-- Created with matplotlib (https://matplotlib.org/) -->
<svg height="360pt" version="1.1" viewBox="0 0 540 360" width="540pt" xmlns="http://www.w3.org/2000/svg" xmlns:xlink="http://www.w3.org/1999/xlink">
 <defs>
  <style type="text/css">
*{stroke-linecap:butt;stroke-linejoin:round;}
  </style>
 </defs>
 <g id="figure_1">
  <g id="patch_1">
   <path d="M 0 360 
L 540 360 
L 540 0 
L 0 0 
z
" style="fill:#ffffff;"/>
  </g>
  <g id="axes_1">
   <g id="patch_2">
    <path d="M 40.425 295.102246 
L 529.2 295.102246 
L 529.2 26.8 
L 40.425 26.8 
z
" style="fill:#ffffff;"/>
   </g>
   <g id="matplotlib.axis_1">
    <g id="xtick_1">
     <g id="line2d_1">
      <defs>
       <path d="M 0 0 
L 0 3.5 
" id="m673e154d02" style="stroke:#000000;"/>
      </defs>
      <g>
       <use style="stroke:#000000;" x="90.966566" xlink:href="#m673e154d02" y="295.102246"/>
      </g>
     </g>
     <g id="text_1">
      <!-- 2020-03 -->
      <defs>
       <path d="M 19.1875 8.296875 
L 53.609375 8.296875 
L 53.609375 0 
L 7.328125 0 
L 7.328125 8.296875 
Q 12.9375 14.109375 22.625 23.890625 
Q 32.328125 33.6875 34.8125 36.53125 
Q 39.546875 41.84375 41.421875 45.53125 
Q 43.3125 49.21875 43.3125 52.78125 
Q 43.3125 58.59375 39.234375 62.25 
Q 35.15625 65.921875 28.609375 65.921875 
Q 23.96875 65.921875 18.8125 64.3125 
Q 13.671875 62.703125 7.8125 59.421875 
L 7.8125 69.390625 
Q 13.765625 71.78125 18.9375 73 
Q 24.125 74.21875 28.421875 74.21875 
Q 39.75 74.21875 46.484375 68.546875 
Q 53.21875 62.890625 53.21875 53.421875 
Q 53.21875 48.921875 51.53125 44.890625 
Q 49.859375 40.875 45.40625 35.40625 
Q 44.1875 33.984375 37.640625 27.21875 
Q 31.109375 20.453125 19.1875 8.296875 
z
" id="DejaVuSans-50"/>
       <path d="M 31.78125 66.40625 
Q 24.171875 66.40625 20.328125 58.90625 
Q 16.5 51.421875 16.5 36.375 
Q 16.5 21.390625 20.328125 13.890625 
Q 24.171875 6.390625 31.78125 6.390625 
Q 39.453125 6.390625 43.28125 13.890625 
Q 47.125 21.390625 47.125 36.375 
Q 47.125 51.421875 43.28125 58.90625 
Q 39.453125 66.40625 31.78125 66.40625 
z
M 31.78125 74.21875 
Q 44.046875 74.21875 50.515625 64.515625 
Q 56.984375 54.828125 56.984375 36.375 
Q 56.984375 17.96875 50.515625 8.265625 
Q 44.046875 -1.421875 31.78125 -1.421875 
Q 19.53125 -1.421875 13.0625 8.265625 
Q 6.59375 17.96875 6.59375 36.375 
Q 6.59375 54.828125 13.0625 64.515625 
Q 19.53125 74.21875 31.78125 74.21875 
z
" id="DejaVuSans-48"/>
       <path d="M 4.890625 31.390625 
L 31.203125 31.390625 
L 31.203125 23.390625 
L 4.890625 23.390625 
z
" id="DejaVuSans-45"/>
       <path d="M 40.578125 39.3125 
Q 47.65625 37.796875 51.625 33 
Q 55.609375 28.21875 55.609375 21.1875 
Q 55.609375 10.40625 48.1875 4.484375 
Q 40.765625 -1.421875 27.09375 -1.421875 
Q 22.515625 -1.421875 17.65625 -0.515625 
Q 12.796875 0.390625 7.625 2.203125 
L 7.625 11.71875 
Q 11.71875 9.328125 16.59375 8.109375 
Q 21.484375 6.890625 26.8125 6.890625 
Q 36.078125 6.890625 40.9375 10.546875 
Q 45.796875 14.203125 45.796875 21.1875 
Q 45.796875 27.640625 41.28125 31.265625 
Q 36.765625 34.90625 28.71875 34.90625 
L 20.21875 34.90625 
L 20.21875 43.015625 
L 29.109375 43.015625 
Q 36.375 43.015625 40.234375 45.921875 
Q 44.09375 48.828125 44.09375 54.296875 
Q 44.09375 59.90625 40.109375 62.90625 
Q 36.140625 65.921875 28.71875 65.921875 
Q 24.65625 65.921875 20.015625 65.03125 
Q 15.375 64.15625 9.8125 62.3125 
L 9.8125 71.09375 
Q 15.4375 72.65625 20.34375 73.4375 
Q 25.25 74.21875 29.59375 74.21875 
Q 40.828125 74.21875 47.359375 69.109375 
Q 53.90625 64.015625 53.90625 55.328125 
Q 53.90625 49.265625 50.4375 45.09375 
Q 46.96875 40.921875 40.578125 39.3125 
z
" id="DejaVuSans-51"/>
      </defs>
      <g transform="translate(53.741745 333.074092)rotate(-30)scale(0.1 -0.1)">
       <use xlink:href="#DejaVuSans-50"/>
       <use x="63.623047" xlink:href="#DejaVuSans-48"/>
       <use x="127.246094" xlink:href="#DejaVuSans-50"/>
       <use x="190.869141" xlink:href="#DejaVuSans-48"/>
       <use x="254.492188" xlink:href="#DejaVuSans-45"/>
       <use x="290.576172" xlink:href="#DejaVuSans-48"/>
       <use x="354.199219" xlink:href="#DejaVuSans-51"/>
      </g>
     </g>
    </g>
    <g id="xtick_2">
     <g id="line2d_2">
      <g>
       <use style="stroke:#000000;" x="145.845323" xlink:href="#m673e154d02" y="295.102246"/>
      </g>
     </g>
     <g id="text_2">
      <!-- 2020-04 -->
      <defs>
       <path d="M 37.796875 64.3125 
L 12.890625 25.390625 
L 37.796875 25.390625 
z
M 35.203125 72.90625 
L 47.609375 72.90625 
L 47.609375 25.390625 
L 58.015625 25.390625 
L 58.015625 17.1875 
L 47.609375 17.1875 
L 47.609375 0 
L 37.796875 0 
L 37.796875 17.1875 
L 4.890625 17.1875 
L 4.890625 26.703125 
z
" id="DejaVuSans-52"/>
      </defs>
      <g transform="translate(108.620502 333.074092)rotate(-30)scale(0.1 -0.1)">
       <use xlink:href="#DejaVuSans-50"/>
       <use x="63.623047" xlink:href="#DejaVuSans-48"/>
       <use x="127.246094" xlink:href="#DejaVuSans-50"/>
       <use x="190.869141" xlink:href="#DejaVuSans-48"/>
       <use x="254.492188" xlink:href="#DejaVuSans-45"/>
       <use x="290.576172" xlink:href="#DejaVuSans-48"/>
       <use x="354.199219" xlink:href="#DejaVuSans-52"/>
      </g>
     </g>
    </g>
    <g id="xtick_3">
     <g id="line2d_3">
      <g>
       <use style="stroke:#000000;" x="198.953798" xlink:href="#m673e154d02" y="295.102246"/>
      </g>
     </g>
     <g id="text_3">
      <!-- 2020-05 -->
      <defs>
       <path d="M 10.796875 72.90625 
L 49.515625 72.90625 
L 49.515625 64.59375 
L 19.828125 64.59375 
L 19.828125 46.734375 
Q 21.96875 47.46875 24.109375 47.828125 
Q 26.265625 48.1875 28.421875 48.1875 
Q 40.625 48.1875 47.75 41.5 
Q 54.890625 34.8125 54.890625 23.390625 
Q 54.890625 11.625 47.5625 5.09375 
Q 40.234375 -1.421875 26.90625 -1.421875 
Q 22.3125 -1.421875 17.546875 -0.640625 
Q 12.796875 0.140625 7.71875 1.703125 
L 7.71875 11.625 
Q 12.109375 9.234375 16.796875 8.0625 
Q 21.484375 6.890625 26.703125 6.890625 
Q 35.15625 6.890625 40.078125 11.328125 
Q 45.015625 15.765625 45.015625 23.390625 
Q 45.015625 31 40.078125 35.4375 
Q 35.15625 39.890625 26.703125 39.890625 
Q 22.75 39.890625 18.8125 39.015625 
Q 14.890625 38.140625 10.796875 36.28125 
z
" id="DejaVuSans-53"/>
      </defs>
      <g transform="translate(161.728978 333.074092)rotate(-30)scale(0.1 -0.1)">
       <use xlink:href="#DejaVuSans-50"/>
       <use x="63.623047" xlink:href="#DejaVuSans-48"/>
       <use x="127.246094" xlink:href="#DejaVuSans-50"/>
       <use x="190.869141" xlink:href="#DejaVuSans-48"/>
       <use x="254.492188" xlink:href="#DejaVuSans-45"/>
       <use x="290.576172" xlink:href="#DejaVuSans-48"/>
       <use x="354.199219" xlink:href="#DejaVuSans-53"/>
      </g>
     </g>
    </g>
    <g id="xtick_4">
     <g id="line2d_4">
      <g>
       <use style="stroke:#000000;" x="253.832556" xlink:href="#m673e154d02" y="295.102246"/>
      </g>
     </g>
     <g id="text_4">
      <!-- 2020-06 -->
      <defs>
       <path d="M 33.015625 40.375 
Q 26.375 40.375 22.484375 35.828125 
Q 18.609375 31.296875 18.609375 23.390625 
Q 18.609375 15.53125 22.484375 10.953125 
Q 26.375 6.390625 33.015625 6.390625 
Q 39.65625 6.390625 43.53125 10.953125 
Q 47.40625 15.53125 47.40625 23.390625 
Q 47.40625 31.296875 43.53125 35.828125 
Q 39.65625 40.375 33.015625 40.375 
z
M 52.59375 71.296875 
L 52.59375 62.3125 
Q 48.875 64.0625 45.09375 64.984375 
Q 41.3125 65.921875 37.59375 65.921875 
Q 27.828125 65.921875 22.671875 59.328125 
Q 17.53125 52.734375 16.796875 39.40625 
Q 19.671875 43.65625 24.015625 45.921875 
Q 28.375 48.1875 33.59375 48.1875 
Q 44.578125 48.1875 50.953125 41.515625 
Q 57.328125 34.859375 57.328125 23.390625 
Q 57.328125 12.15625 50.6875 5.359375 
Q 44.046875 -1.421875 33.015625 -1.421875 
Q 20.359375 -1.421875 13.671875 8.265625 
Q 6.984375 17.96875 6.984375 36.375 
Q 6.984375 53.65625 15.1875 63.9375 
Q 23.390625 74.21875 37.203125 74.21875 
Q 40.921875 74.21875 44.703125 73.484375 
Q 48.484375 72.75 52.59375 71.296875 
z
" id="DejaVuSans-54"/>
      </defs>
      <g transform="translate(216.607735 333.074092)rotate(-30)scale(0.1 -0.1)">
       <use xlink:href="#DejaVuSans-50"/>
       <use x="63.623047" xlink:href="#DejaVuSans-48"/>
       <use x="127.246094" xlink:href="#DejaVuSans-50"/>
       <use x="190.869141" xlink:href="#DejaVuSans-48"/>
       <use x="254.492188" xlink:href="#DejaVuSans-45"/>
       <use x="290.576172" xlink:href="#DejaVuSans-48"/>
       <use x="354.199219" xlink:href="#DejaVuSans-54"/>
      </g>
     </g>
    </g>
    <g id="xtick_5">
     <g id="line2d_5">
      <g>
       <use style="stroke:#000000;" x="306.941031" xlink:href="#m673e154d02" y="295.102246"/>
      </g>
     </g>
     <g id="text_5">
      <!-- 2020-07 -->
      <defs>
       <path d="M 8.203125 72.90625 
L 55.078125 72.90625 
L 55.078125 68.703125 
L 28.609375 0 
L 18.3125 0 
L 43.21875 64.59375 
L 8.203125 64.59375 
z
" id="DejaVuSans-55"/>
      </defs>
      <g transform="translate(269.716211 333.074092)rotate(-30)scale(0.1 -0.1)">
       <use xlink:href="#DejaVuSans-50"/>
       <use x="63.623047" xlink:href="#DejaVuSans-48"/>
       <use x="127.246094" xlink:href="#DejaVuSans-50"/>
       <use x="190.869141" xlink:href="#DejaVuSans-48"/>
       <use x="254.492188" xlink:href="#DejaVuSans-45"/>
       <use x="290.576172" xlink:href="#DejaVuSans-48"/>
       <use x="354.199219" xlink:href="#DejaVuSans-55"/>
      </g>
     </g>
    </g>
    <g id="xtick_6">
     <g id="line2d_6">
      <g>
       <use style="stroke:#000000;" x="361.819789" xlink:href="#m673e154d02" y="295.102246"/>
      </g>
     </g>
     <g id="text_6">
      <!-- 2020-08 -->
      <defs>
       <path d="M 31.78125 34.625 
Q 24.75 34.625 20.71875 30.859375 
Q 16.703125 27.09375 16.703125 20.515625 
Q 16.703125 13.921875 20.71875 10.15625 
Q 24.75 6.390625 31.78125 6.390625 
Q 38.8125 6.390625 42.859375 10.171875 
Q 46.921875 13.96875 46.921875 20.515625 
Q 46.921875 27.09375 42.890625 30.859375 
Q 38.875 34.625 31.78125 34.625 
z
M 21.921875 38.8125 
Q 15.578125 40.375 12.03125 44.71875 
Q 8.5 49.078125 8.5 55.328125 
Q 8.5 64.0625 14.71875 69.140625 
Q 20.953125 74.21875 31.78125 74.21875 
Q 42.671875 74.21875 48.875 69.140625 
Q 55.078125 64.0625 55.078125 55.328125 
Q 55.078125 49.078125 51.53125 44.71875 
Q 48 40.375 41.703125 38.8125 
Q 48.828125 37.15625 52.796875 32.3125 
Q 56.78125 27.484375 56.78125 20.515625 
Q 56.78125 9.90625 50.3125 4.234375 
Q 43.84375 -1.421875 31.78125 -1.421875 
Q 19.734375 -1.421875 13.25 4.234375 
Q 6.78125 9.90625 6.78125 20.515625 
Q 6.78125 27.484375 10.78125 32.3125 
Q 14.796875 37.15625 21.921875 38.8125 
z
M 18.3125 54.390625 
Q 18.3125 48.734375 21.84375 45.5625 
Q 25.390625 42.390625 31.78125 42.390625 
Q 38.140625 42.390625 41.71875 45.5625 
Q 45.3125 48.734375 45.3125 54.390625 
Q 45.3125 60.0625 41.71875 63.234375 
Q 38.140625 66.40625 31.78125 66.40625 
Q 25.390625 66.40625 21.84375 63.234375 
Q 18.3125 60.0625 18.3125 54.390625 
z
" id="DejaVuSans-56"/>
      </defs>
      <g transform="translate(324.594968 333.074092)rotate(-30)scale(0.1 -0.1)">
       <use xlink:href="#DejaVuSans-50"/>
       <use x="63.623047" xlink:href="#DejaVuSans-48"/>
       <use x="127.246094" xlink:href="#DejaVuSans-50"/>
       <use x="190.869141" xlink:href="#DejaVuSans-48"/>
       <use x="254.492188" xlink:href="#DejaVuSans-45"/>
       <use x="290.576172" xlink:href="#DejaVuSans-48"/>
       <use x="354.199219" xlink:href="#DejaVuSans-56"/>
      </g>
     </g>
    </g>
    <g id="xtick_7">
     <g id="line2d_7">
      <g>
       <use style="stroke:#000000;" x="416.698547" xlink:href="#m673e154d02" y="295.102246"/>
      </g>
     </g>
     <g id="text_7">
      <!-- 2020-09 -->
      <defs>
       <path d="M 10.984375 1.515625 
L 10.984375 10.5 
Q 14.703125 8.734375 18.5 7.8125 
Q 22.3125 6.890625 25.984375 6.890625 
Q 35.75 6.890625 40.890625 13.453125 
Q 46.046875 20.015625 46.78125 33.40625 
Q 43.953125 29.203125 39.59375 26.953125 
Q 35.25 24.703125 29.984375 24.703125 
Q 19.046875 24.703125 12.671875 31.3125 
Q 6.296875 37.9375 6.296875 49.421875 
Q 6.296875 60.640625 12.9375 67.421875 
Q 19.578125 74.21875 30.609375 74.21875 
Q 43.265625 74.21875 49.921875 64.515625 
Q 56.59375 54.828125 56.59375 36.375 
Q 56.59375 19.140625 48.40625 8.859375 
Q 40.234375 -1.421875 26.421875 -1.421875 
Q 22.703125 -1.421875 18.890625 -0.6875 
Q 15.09375 0.046875 10.984375 1.515625 
z
M 30.609375 32.421875 
Q 37.25 32.421875 41.125 36.953125 
Q 45.015625 41.5 45.015625 49.421875 
Q 45.015625 57.28125 41.125 61.84375 
Q 37.25 66.40625 30.609375 66.40625 
Q 23.96875 66.40625 20.09375 61.84375 
Q 16.21875 57.28125 16.21875 49.421875 
Q 16.21875 41.5 20.09375 36.953125 
Q 23.96875 32.421875 30.609375 32.421875 
z
" id="DejaVuSans-57"/>
      </defs>
      <g transform="translate(379.473726 333.074092)rotate(-30)scale(0.1 -0.1)">
       <use xlink:href="#DejaVuSans-50"/>
       <use x="63.623047" xlink:href="#DejaVuSans-48"/>
       <use x="127.246094" xlink:href="#DejaVuSans-50"/>
       <use x="190.869141" xlink:href="#DejaVuSans-48"/>
       <use x="254.492188" xlink:href="#DejaVuSans-45"/>
       <use x="290.576172" xlink:href="#DejaVuSans-48"/>
       <use x="354.199219" xlink:href="#DejaVuSans-57"/>
      </g>
     </g>
    </g>
    <g id="xtick_8">
     <g id="line2d_8">
      <g>
       <use style="stroke:#000000;" x="469.807022" xlink:href="#m673e154d02" y="295.102246"/>
      </g>
     </g>
     <g id="text_8">
      <!-- 2020-10 -->
      <defs>
       <path d="M 12.40625 8.296875 
L 28.515625 8.296875 
L 28.515625 63.921875 
L 10.984375 60.40625 
L 10.984375 69.390625 
L 28.421875 72.90625 
L 38.28125 72.90625 
L 38.28125 8.296875 
L 54.390625 8.296875 
L 54.390625 0 
L 12.40625 0 
z
" id="DejaVuSans-49"/>
      </defs>
      <g transform="translate(432.582201 333.074092)rotate(-30)scale(0.1 -0.1)">
       <use xlink:href="#DejaVuSans-50"/>
       <use x="63.623047" xlink:href="#DejaVuSans-48"/>
       <use x="127.246094" xlink:href="#DejaVuSans-50"/>
       <use x="190.869141" xlink:href="#DejaVuSans-48"/>
       <use x="254.492188" xlink:href="#DejaVuSans-45"/>
       <use x="290.576172" xlink:href="#DejaVuSans-49"/>
       <use x="354.199219" xlink:href="#DejaVuSans-48"/>
      </g>
     </g>
    </g>
    <g id="xtick_9">
     <g id="line2d_9">
      <g>
       <use style="stroke:#000000;" x="524.68578" xlink:href="#m673e154d02" y="295.102246"/>
      </g>
     </g>
     <g id="text_9">
      <!-- 2020-11 -->
      <g transform="translate(487.460959 333.074092)rotate(-30)scale(0.1 -0.1)">
       <use xlink:href="#DejaVuSans-50"/>
       <use x="63.623047" xlink:href="#DejaVuSans-48"/>
       <use x="127.246094" xlink:href="#DejaVuSans-50"/>
       <use x="190.869141" xlink:href="#DejaVuSans-48"/>
       <use x="254.492188" xlink:href="#DejaVuSans-45"/>
       <use x="290.576172" xlink:href="#DejaVuSans-49"/>
       <use x="354.199219" xlink:href="#DejaVuSans-49"/>
      </g>
     </g>
    </g>
    <g id="text_10">
     <!-- Date -->
     <defs>
      <path d="M 19.671875 64.796875 
L 19.671875 8.109375 
L 31.59375 8.109375 
Q 46.6875 8.109375 53.6875 14.9375 
Q 60.6875 21.78125 60.6875 36.53125 
Q 60.6875 51.171875 53.6875 57.984375 
Q 46.6875 64.796875 31.59375 64.796875 
z
M 9.8125 72.90625 
L 30.078125 72.90625 
Q 51.265625 72.90625 61.171875 64.09375 
Q 71.09375 55.28125 71.09375 36.53125 
Q 71.09375 17.671875 61.125 8.828125 
Q 51.171875 0 30.078125 0 
L 9.8125 0 
z
" id="DejaVuSans-68"/>
      <path d="M 34.28125 27.484375 
Q 23.390625 27.484375 19.1875 25 
Q 14.984375 22.515625 14.984375 16.5 
Q 14.984375 11.71875 18.140625 8.90625 
Q 21.296875 6.109375 26.703125 6.109375 
Q 34.1875 6.109375 38.703125 11.40625 
Q 43.21875 16.703125 43.21875 25.484375 
L 43.21875 27.484375 
z
M 52.203125 31.203125 
L 52.203125 0 
L 43.21875 0 
L 43.21875 8.296875 
Q 40.140625 3.328125 35.546875 0.953125 
Q 30.953125 -1.421875 24.3125 -1.421875 
Q 15.921875 -1.421875 10.953125 3.296875 
Q 6 8.015625 6 15.921875 
Q 6 25.140625 12.171875 29.828125 
Q 18.359375 34.515625 30.609375 34.515625 
L 43.21875 34.515625 
L 43.21875 35.40625 
Q 43.21875 41.609375 39.140625 45 
Q 35.0625 48.390625 27.6875 48.390625 
Q 23 48.390625 18.546875 47.265625 
Q 14.109375 46.140625 10.015625 43.890625 
L 10.015625 52.203125 
Q 14.9375 54.109375 19.578125 55.046875 
Q 24.21875 56 28.609375 56 
Q 40.484375 56 46.34375 49.84375 
Q 52.203125 43.703125 52.203125 31.203125 
z
" id="DejaVuSans-97"/>
      <path d="M 18.3125 70.21875 
L 18.3125 54.6875 
L 36.8125 54.6875 
L 36.8125 47.703125 
L 18.3125 47.703125 
L 18.3125 18.015625 
Q 18.3125 11.328125 20.140625 9.421875 
Q 21.96875 7.515625 27.59375 7.515625 
L 36.8125 7.515625 
L 36.8125 0 
L 27.59375 0 
Q 17.1875 0 13.234375 3.875 
Q 9.28125 7.765625 9.28125 18.015625 
L 9.28125 47.703125 
L 2.6875 47.703125 
L 2.6875 54.6875 
L 9.28125 54.6875 
L 9.28125 70.21875 
z
" id="DejaVuSans-116"/>
      <path d="M 56.203125 29.59375 
L 56.203125 25.203125 
L 14.890625 25.203125 
Q 15.484375 15.921875 20.484375 11.0625 
Q 25.484375 6.203125 34.421875 6.203125 
Q 39.59375 6.203125 44.453125 7.46875 
Q 49.3125 8.734375 54.109375 11.28125 
L 54.109375 2.78125 
Q 49.265625 0.734375 44.1875 -0.34375 
Q 39.109375 -1.421875 33.890625 -1.421875 
Q 20.796875 -1.421875 13.15625 6.1875 
Q 5.515625 13.8125 5.515625 26.8125 
Q 5.515625 40.234375 12.765625 48.109375 
Q 20.015625 56 32.328125 56 
Q 43.359375 56 49.78125 48.890625 
Q 56.203125 41.796875 56.203125 29.59375 
z
M 47.21875 32.234375 
Q 47.125 39.59375 43.09375 43.984375 
Q 39.0625 48.390625 32.421875 48.390625 
Q 24.90625 48.390625 20.390625 44.140625 
Q 15.875 39.890625 15.1875 32.171875 
z
" id="DejaVuSans-101"/>
     </defs>
     <g transform="translate(271.666641 347.233436)scale(0.11 -0.11)">
      <use xlink:href="#DejaVuSans-68"/>
      <use x="77.001953" xlink:href="#DejaVuSans-97"/>
      <use x="138.28125" xlink:href="#DejaVuSans-116"/>
      <use x="177.490234" xlink:href="#DejaVuSans-101"/>
     </g>
    </g>
   </g>
   <g id="matplotlib.axis_2">
    <g id="ytick_1">
     <g id="line2d_10">
      <defs>
       <path d="M 0 0 
L -3.5 0 
" id="mdd4d232287" style="stroke:#000000;"/>
      </defs>
      <g>
       <use style="stroke:#000000;" x="40.425" xlink:href="#mdd4d232287" y="282.906689"/>
      </g>
     </g>
     <g id="text_11">
      <!-- 0 -->
      <g transform="translate(23.5625 286.705908)scale(0.1 -0.1)">
       <use xlink:href="#DejaVuSans-48"/>
      </g>
     </g>
    </g>
    <g id="ytick_2">
     <g id="line2d_11">
      <g>
       <use style="stroke:#000000;" x="40.425" xlink:href="#mdd4d232287" y="229.815592"/>
      </g>
     </g>
     <g id="text_12">
      <!-- 100 -->
      <g transform="translate(10.8375 233.614811)scale(0.1 -0.1)">
       <use xlink:href="#DejaVuSans-49"/>
       <use x="63.623047" xlink:href="#DejaVuSans-48"/>
       <use x="127.246094" xlink:href="#DejaVuSans-48"/>
      </g>
     </g>
    </g>
    <g id="ytick_3">
     <g id="line2d_12">
      <g>
       <use style="stroke:#000000;" x="40.425" xlink:href="#mdd4d232287" y="176.724495"/>
      </g>
     </g>
     <g id="text_13">
      <!-- 200 -->
      <g transform="translate(10.8375 180.523714)scale(0.1 -0.1)">
       <use xlink:href="#DejaVuSans-50"/>
       <use x="63.623047" xlink:href="#DejaVuSans-48"/>
       <use x="127.246094" xlink:href="#DejaVuSans-48"/>
      </g>
     </g>
    </g>
    <g id="ytick_4">
     <g id="line2d_13">
      <g>
       <use style="stroke:#000000;" x="40.425" xlink:href="#mdd4d232287" y="123.633399"/>
      </g>
     </g>
     <g id="text_14">
      <!-- 300 -->
      <g transform="translate(10.8375 127.432617)scale(0.1 -0.1)">
       <use xlink:href="#DejaVuSans-51"/>
       <use x="63.623047" xlink:href="#DejaVuSans-48"/>
       <use x="127.246094" xlink:href="#DejaVuSans-48"/>
      </g>
     </g>
    </g>
    <g id="ytick_5">
     <g id="line2d_14">
      <g>
       <use style="stroke:#000000;" x="40.425" xlink:href="#mdd4d232287" y="70.542302"/>
      </g>
     </g>
     <g id="text_15">
      <!-- 400 -->
      <g transform="translate(10.8375 74.34152)scale(0.1 -0.1)">
       <use xlink:href="#DejaVuSans-52"/>
       <use x="63.623047" xlink:href="#DejaVuSans-48"/>
       <use x="127.246094" xlink:href="#DejaVuSans-48"/>
      </g>
     </g>
    </g>
   </g>
   <g id="line2d_15">
    <path clip-path="url(#p4c265e9360)" d="M 103.358543 282.685614 
L 105.128826 282.906689 
L 108.669391 282.022389 
L 110.439673 281.801314 
L 113.980238 281.801314 
L 117.520803 280.917014 
L 119.291086 281.138089 
L 121.061368 281.138089 
L 124.601933 279.811639 
L 126.372216 279.369489 
L 128.142498 279.148414 
L 133.453346 277.158739 
L 135.223628 276.937664 
L 136.993911 273.842614 
L 138.764193 271.852939 
L 140.534476 267.431439 
L 142.304758 264.999614 
L 144.075041 261.904564 
L 145.845323 256.598763 
L 147.615606 251.956188 
L 151.156171 243.334263 
L 152.926453 241.344588 
L 154.696736 238.028463 
L 156.467018 235.375563 
L 158.237301 235.596638 
L 160.007583 235.375563 
L 161.777866 237.807388 
L 163.548148 241.123513 
L 165.318431 242.228888 
L 167.088713 245.766088 
L 168.858996 247.534688 
L 170.629278 248.861138 
L 172.399561 248.418988 
L 174.169843 247.092538 
L 175.940126 245.102863 
L 177.710408 245.766088 
L 179.480691 244.218563 
L 181.250973 239.575988 
L 183.021256 238.249538 
L 184.791538 238.249538 
L 186.561821 239.797063 
L 188.332103 240.018138 
L 190.102386 241.565663 
L 191.872668 238.249538 
L 195.413233 236.480938 
L 197.183516 235.817713 
L 198.953798 232.943737 
L 200.724081 232.722662 
L 202.494363 230.732987 
L 204.264646 233.828037 
L 206.034928 238.249538 
L 207.805211 237.807388 
L 209.575493 240.460288 
L 211.345776 239.575988 
L 213.116058 241.123513 
L 214.886341 242.228888 
L 216.656624 239.797063 
L 218.426906 238.470613 
L 220.197189 238.912763 
L 221.967471 235.817713 
L 223.737754 239.797063 
L 225.508036 238.691688 
L 227.278319 239.133838 
L 229.048601 240.018138 
L 230.818884 241.123513 
L 232.589166 241.786738 
L 234.359449 246.650388 
L 236.129731 247.534688 
L 239.670296 248.861138 
L 241.440579 253.724788 
L 243.210861 254.166938 
L 244.981144 257.483063 
L 246.751426 254.609088 
L 248.521709 253.945863 
L 250.291991 256.598763 
L 252.062274 257.483063 
L 253.832556 254.830163 
L 255.602839 257.483063 
L 257.373121 258.146288 
L 259.143404 260.799188 
L 260.913686 264.557464 
L 262.683969 263.894239 
L 264.454251 265.220689 
L 266.224534 268.315739 
L 267.994816 270.084339 
L 269.765099 270.747564 
L 271.535381 272.295089 
L 273.305664 271.410789 
L 275.075946 271.852939 
L 276.846229 271.852939 
L 278.616511 271.410789 
L 280.386794 270.526489 
L 282.157076 270.526489 
L 283.927359 270.747564 
L 285.697641 271.631864 
L 287.467924 273.400464 
L 289.238206 274.063689 
L 291.008489 275.390139 
L 292.778771 276.495514 
L 294.549054 276.716589 
L 296.319336 275.390139 
L 298.089619 275.832289 
L 299.859901 275.390139 
L 301.630184 275.169064 
L 303.400466 273.179389 
L 305.170749 272.737239 
L 306.941031 273.179389 
L 308.711314 274.726914 
L 310.481596 275.169064 
L 312.251879 273.842614 
L 314.022161 273.621539 
L 315.792444 276.053364 
L 317.562726 276.937664 
L 319.333009 276.274439 
L 321.103291 274.063689 
L 322.873574 273.621539 
L 324.643856 275.169064 
L 326.414139 275.611214 
L 328.184421 275.390139 
L 329.954704 274.505839 
L 331.724986 275.611214 
L 333.495269 277.379814 
L 337.035834 277.379814 
L 338.806116 277.821964 
L 340.576399 277.158739 
L 342.346681 278.043039 
L 344.116964 278.706264 
L 345.887246 279.590564 
L 347.657529 278.927339 
L 349.427811 278.706264 
L 352.968376 277.821964 
L 354.738659 278.043039 
L 356.508942 277.379814 
L 358.279224 277.158739 
L 360.049507 276.716589 
L 361.819789 276.937664 
L 365.360354 278.264114 
L 368.900919 277.379814 
L 370.671202 277.158739 
L 372.441484 278.264114 
L 374.211767 278.706264 
L 375.982049 278.706264 
L 377.752332 278.485189 
L 379.522614 278.706264 
L 381.292897 279.811639 
L 383.063179 278.927339 
L 384.833462 278.706264 
L 386.603744 278.043039 
L 388.374027 278.043039 
L 390.144309 278.264114 
L 391.914592 278.264114 
L 393.684874 276.495514 
L 395.455157 276.716589 
L 397.225439 277.158739 
L 400.766004 276.274439 
L 402.536287 276.053364 
L 404.306569 276.495514 
L 406.076852 276.495514 
L 407.847134 277.379814 
L 409.617417 277.158739 
L 411.387699 277.158739 
L 413.157982 276.937664 
L 414.928264 276.053364 
L 416.698547 274.505839 
L 418.468829 273.400464 
L 420.239112 270.968639 
L 422.009394 270.305414 
L 423.779677 268.536814 
L 425.549959 267.873589 
L 427.320242 263.894239 
L 429.090524 262.346714 
L 430.860807 262.567789 
L 432.631089 261.462414 
L 434.401372 258.809513 
L 436.171654 259.251663 
L 437.941937 259.472738 
L 439.712219 261.241339 
L 441.482502 261.462414 
L 443.252784 257.704138 
L 445.023067 257.925213 
L 446.793349 256.377688 
L 448.563632 252.398338 
L 452.104197 245.545013 
L 453.874479 241.123513 
L 455.644762 239.797063 
L 460.955609 229.627612 
L 462.725892 223.658587 
L 464.496174 221.668912 
L 466.266457 215.257737 
L 468.036739 203.982911 
L 469.807022 195.803136 
L 471.577304 185.412611 
L 473.347587 181.43326 
L 475.117869 173.91671 
L 476.888152 163.084035 
L 478.658434 153.577809 
L 480.428717 147.829859 
L 482.198999 137.881484 
L 483.969282 138.323634 
L 485.739564 134.123209 
L 487.509847 137.881484 
L 489.280129 133.681059 
L 491.050412 135.449659 
L 492.820694 138.544709 
L 494.590977 141.197609 
L 496.36126 136.555034 
L 498.131542 138.102559 
L 499.901825 131.912459 
L 501.672107 128.375258 
L 503.44239 121.964083 
L 505.212672 114.005383 
L 506.982955 119.532258 
L 506.982955 119.532258 
" style="fill:none;stroke:#1f77b4;stroke-linecap:square;stroke-width:1.75;"/>
   </g>
   <g id="line2d_16">
    <path clip-path="url(#p4c265e9360)" d="M 119.291086 281.193775 
L 121.061368 280.337318 
L 122.831651 279.266746 
L 124.601933 279.052632 
L 126.372216 277.98206 
L 128.142498 276.48326 
L 129.912781 274.556232 
L 131.683063 270.916288 
L 133.453346 270.916288 
L 135.223628 269.417488 
L 138.764193 266.848117 
L 142.304758 269.417488 
L 144.075041 267.918688 
L 145.845323 261.923488 
L 147.615606 259.568231 
L 149.385888 255.714173 
L 151.156171 254.857716 
L 152.926453 250.789544 
L 154.696736 246.293144 
L 156.467018 246.721372 
L 158.237301 249.504858 
L 160.007583 248.006058 
L 161.777866 249.290744 
L 163.548148 248.862515 
L 165.318431 248.006058 
L 167.088713 251.431887 
L 168.858996 253.787144 
L 170.629278 254.857716 
L 172.399561 259.354116 
L 174.169843 261.067031 
L 175.940126 260.852916 
L 177.710408 260.210573 
L 179.480691 256.356516 
L 181.250973 255.285944 
L 183.021256 252.288344 
L 184.791538 249.718973 
L 186.561821 244.366115 
L 188.332103 243.723772 
L 190.102386 248.006058 
L 191.872668 246.293144 
L 193.642951 243.509658 
L 195.413233 241.796744 
L 197.183516 237.514457 
L 198.953798 242.010858 
L 200.724081 244.366115 
L 202.494363 242.224972 
L 204.264646 242.224972 
L 206.034928 243.723772 
L 207.805211 239.869715 
L 209.575493 242.439086 
L 211.345776 238.585029 
L 213.116058 236.872115 
L 214.886341 234.516857 
L 216.656624 235.1592 
L 218.426906 232.1616 
L 220.197189 235.801543 
L 221.967471 236.015657 
L 223.737754 234.088629 
L 225.508036 225.095828 
L 227.278319 223.811142 
L 229.048601 223.597028 
L 230.818884 222.098228 
L 232.589166 221.455885 
L 234.359449 216.531256 
L 236.129731 220.813542 
L 237.900014 227.022857 
L 239.670296 229.806343 
L 241.440579 231.519257 
L 243.210861 236.015657 
L 244.981144 237.728572 
L 246.751426 241.582629 
L 248.521709 240.940286 
L 250.291991 243.081429 
L 252.062274 241.582629 
L 253.832556 237.514457 
L 255.602839 228.307543 
L 257.373121 229.378114 
L 259.143404 228.735771 
L 260.913686 228.307543 
L 262.683969 227.6652 
L 264.454251 223.597028 
L 266.224534 220.599428 
L 267.994816 221.241771 
L 269.765099 214.604227 
L 271.535381 206.25377 
L 273.305664 200.258569 
L 275.075946 192.978683 
L 276.846229 189.766968 
L 278.616511 185.912911 
L 280.386794 184.199997 
L 282.157076 182.272968 
L 283.927359 182.701196 
L 285.697641 177.776567 
L 287.467924 175.849539 
L 289.238206 174.993082 
L 291.008489 171.995481 
L 292.778771 168.141424 
L 294.549054 161.932109 
L 296.319336 162.146223 
L 298.089619 163.859138 
L 299.859901 167.070852 
L 301.630184 173.708396 
L 303.400466 176.063653 
L 305.170749 182.701196 
L 306.941031 188.482283 
L 308.711314 191.908111 
L 310.481596 193.621026 
L 312.251879 196.190397 
L 314.022161 186.769368 
L 315.792444 186.983482 
L 317.562726 187.411711 
L 319.333009 189.33874 
L 321.103291 192.122226 
L 322.873574 191.265768 
L 324.643856 187.197597 
L 326.414139 198.545655 
L 328.184421 204.754969 
L 329.954704 208.823141 
L 331.724986 213.533656 
L 333.495269 213.105427 
L 335.265551 219.957085 
L 337.035834 225.309942 
L 338.806116 226.808742 
L 340.576399 230.6628 
L 342.346681 233.018057 
L 344.116964 231.305143 
L 345.887246 232.1616 
L 347.657529 233.232171 
L 349.427811 237.514457 
L 351.198094 237.942686 
L 352.968376 235.1592 
L 354.738659 237.086229 
L 356.508942 238.799143 
L 358.279224 239.013258 
L 360.049507 241.582629 
L 361.819789 238.585029 
L 363.590072 239.441486 
L 365.360354 242.010858 
L 367.130637 240.297943 
L 368.900919 239.013258 
L 370.671202 237.942686 
L 372.441484 233.874514 
L 374.211767 231.733371 
L 375.982049 230.234571 
L 377.752332 229.592228 
L 379.522614 229.378114 
L 381.292897 233.874514 
L 383.063179 236.872115 
L 384.833462 238.585029 
L 386.603744 243.081429 
L 388.374027 245.008458 
L 390.144309 242.224972 
L 391.914592 240.940286 
L 393.684874 242.224972 
L 395.455157 244.580229 
L 397.225439 245.864915 
L 398.995722 247.791944 
L 400.766004 248.006058 
L 402.536287 254.857716 
L 404.306569 259.782345 
L 406.076852 261.067031 
L 407.847134 262.779945 
L 409.617417 263.422288 
L 411.387699 263.208174 
L 413.157982 263.208174 
L 414.928264 263.636402 
L 416.698547 259.354116 
L 418.468829 252.716573 
L 420.239112 249.290744 
L 422.009394 245.008458 
L 423.779677 239.655601 
L 425.549959 236.658 
L 427.320242 227.451085 
L 429.090524 222.098228 
L 430.860807 218.886513 
L 432.631089 216.74537 
L 434.401372 214.818342 
L 436.171654 213.105427 
L 437.941937 212.677199 
L 439.712219 214.818342 
L 441.482502 215.24657 
L 443.252784 216.317142 
L 445.023067 211.392513 
L 446.793349 206.039655 
L 448.563632 199.402112 
L 450.333914 197.046855 
L 452.104197 192.33634 
L 453.874479 190.195197 
L 455.644762 188.696397 
L 457.415044 191.265768 
L 459.185327 195.548054 
L 460.955609 198.117426 
L 462.725892 198.33154 
L 464.496174 202.185598 
L 466.266457 199.616226 
L 468.036739 195.762169 
L 469.807022 189.124625 
L 471.577304 180.345939 
L 473.347587 181.630625 
L 475.117869 176.491882 
L 476.888152 170.710796 
L 478.658434 166.42851 
L 480.428717 160.433309 
L 482.198999 153.581651 
L 483.969282 153.367537 
L 485.739564 151.01228 
L 487.509847 143.304165 
L 489.280129 133.669021 
L 491.050412 132.384336 
L 492.820694 117.610449 
L 494.590977 117.18222 
L 498.131542 112.043477 
L 499.901825 114.18462 
L 501.672107 104.763591 
L 503.44239 90.846161 
L 505.212672 89.77559 
L 506.982955 78.85576 
L 506.982955 78.85576 
" style="fill:none;stroke:#ff7f0e;stroke-linecap:square;stroke-width:1.75;"/>
   </g>
   <g id="line2d_17">
    <path clip-path="url(#p4c265e9360)" d="M 122.831651 280.789667 
L 126.372216 280.789667 
L 128.142498 280.554443 
L 131.683063 277.731747 
L 133.453346 276.085175 
L 135.223628 273.732928 
L 136.993911 272.32158 
L 138.764193 269.969334 
L 140.534476 269.26366 
L 142.304758 269.26366 
L 144.075041 267.146638 
L 145.845323 259.619449 
L 147.615606 256.561529 
L 152.926453 245.270746 
L 154.696736 240.331028 
L 156.467018 237.037883 
L 158.237301 238.214006 
L 160.007583 235.626535 
L 161.777866 235.39131 
L 165.318431 228.80502 
L 167.088713 228.099346 
L 168.858996 226.687998 
L 170.629278 229.040245 
L 172.399561 226.687998 
L 174.169843 223.159629 
L 175.940126 220.336933 
L 177.710408 220.807382 
L 179.480691 220.807382 
L 181.250973 221.277832 
L 183.021256 217.514237 
L 184.791538 221.277832 
L 186.561821 219.631259 
L 188.332103 226.923223 
L 190.102386 231.392491 
L 191.872668 231.392491 
L 193.642951 233.744738 
L 195.413233 236.332209 
L 197.183516 232.098165 
L 198.953798 236.567434 
L 200.724081 237.978782 
L 202.494363 238.214006 
L 204.264646 241.742376 
L 206.034928 244.094622 
L 207.805211 243.388948 
L 209.575493 248.563891 
L 211.345776 251.386586 
L 213.116058 252.327485 
L 214.886341 252.327485 
L 216.656624 246.917318 
L 218.426906 244.800296 
L 220.197189 249.740014 
L 221.967471 253.503608 
L 223.737754 255.150181 
L 225.508036 255.62063 
L 227.278319 257.972877 
L 229.048601 265.264841 
L 230.818884 269.498884 
L 232.589166 270.910232 
L 234.359449 270.675008 
L 236.129731 271.380682 
L 237.900014 273.262479 
L 239.670296 272.556805 
L 241.440579 272.086356 
L 243.210861 272.556805 
L 244.981144 268.557986 
L 246.751426 268.79321 
L 248.521709 268.322761 
L 250.291991 265.500065 
L 252.062274 266.440964 
L 253.832556 266.676189 
L 255.602839 266.440964 
L 257.373121 271.380682 
L 259.143404 272.556805 
L 260.913686 274.203377 
L 262.683969 275.379501 
L 264.454251 275.379501 
L 266.224534 277.026073 
L 267.994816 276.790848 
L 269.765099 275.614725 
L 271.535381 276.790848 
L 273.305664 276.085175 
L 275.075946 277.026073 
L 276.846229 276.790848 
L 278.616511 276.790848 
L 280.386794 277.966972 
L 282.157076 278.437421 
L 283.927359 278.202196 
L 285.697641 278.437421 
L 287.467924 279.143095 
L 289.238206 280.319218 
L 291.008489 280.083994 
L 292.778771 280.083994 
L 294.549054 281.024892 
L 296.319336 281.024892 
L 298.089619 281.260117 
L 299.859901 281.260117 
L 301.630184 280.789667 
L 303.400466 280.554443 
L 305.170749 280.554443 
L 306.941031 280.789667 
L 308.711314 280.554443 
L 310.481596 280.789667 
L 312.251879 280.319218 
L 315.792444 280.789667 
L 319.333009 280.789667 
L 321.103291 281.024892 
L 322.873574 281.024892 
L 326.414139 281.495341 
L 328.184421 282.201015 
L 329.954704 282.43624 
L 333.495269 281.965791 
L 335.265551 281.495341 
L 337.035834 281.730566 
L 338.806116 281.730566 
L 340.576399 281.260117 
L 342.346681 281.024892 
L 345.887246 281.024892 
L 347.657529 281.495341 
L 351.198094 281.495341 
L 352.968376 281.965791 
L 354.738659 281.965791 
L 358.279224 282.43624 
L 361.819789 282.43624 
L 365.360354 281.495341 
L 367.130637 281.730566 
L 368.900919 281.495341 
L 372.441484 281.495341 
L 374.211767 281.260117 
L 375.982049 281.730566 
L 377.752332 281.730566 
L 379.522614 280.554443 
L 381.292897 278.90787 
L 383.063179 278.437421 
L 384.833462 278.437421 
L 386.603744 278.672646 
L 390.144309 277.731747 
L 391.914592 278.672646 
L 393.684874 278.672646 
L 395.455157 277.731747 
L 397.225439 276.320399 
L 398.995722 273.968153 
L 400.766004 273.968153 
L 402.536287 274.673827 
L 404.306569 274.203377 
L 406.076852 275.144276 
L 407.847134 275.84995 
L 409.617417 276.790848 
L 411.387699 277.026073 
L 413.157982 276.085175 
L 414.928264 274.673827 
L 416.698547 271.380682 
L 418.468829 270.204558 
L 420.239112 268.557986 
L 422.009394 267.146638 
L 423.779677 267.617087 
L 425.549959 266.911413 
L 427.320242 265.970515 
L 429.090524 267.617087 
L 430.860807 266.440964 
L 432.631089 264.088717 
L 434.401372 262.442145 
L 436.171654 262.442145 
L 437.941937 261.266022 
L 439.712219 258.678551 
L 441.482502 255.855855 
L 443.252784 249.975239 
L 445.023067 245.035521 
L 446.793349 236.802658 
L 448.563632 230.216368 
L 450.333914 219.16081 
L 452.104197 205.753005 
L 453.874479 194.932671 
L 455.644762 179.407844 
L 457.415044 171.174981 
L 459.185327 165.52959 
L 460.955609 154.474031 
L 462.725892 153.062684 
L 464.496174 150.945662 
L 466.266457 148.593415 
L 468.036739 154.003582 
L 469.807022 151.180886 
L 471.577304 148.122966 
L 473.347587 150.239988 
L 475.117869 146.241169 
L 476.888152 143.888922 
L 478.658434 137.537857 
L 480.428717 134.715161 
L 482.198999 134.950386 
L 483.969282 134.244712 
L 485.739564 140.595777 
L 487.509847 149.769538 
L 489.280129 153.062684 
L 491.050412 154.238807 
L 492.820694 149.769538 
L 494.590977 150.710437 
L 496.36126 155.885379 
L 498.131542 150.004763 
L 499.901825 149.063865 
L 501.672107 147.887741 
L 503.44239 153.768357 
L 505.212672 157.061503 
L 506.982955 158.708075 
L 506.982955 158.708075 
" style="fill:none;stroke:#2ca02c;stroke-linecap:square;stroke-width:1.75;"/>
   </g>
   <g id="line2d_18">
    <path clip-path="url(#p4c265e9360)" d="M 105.128826 282.538545 
L 106.899108 282.41583 
L 108.669391 282.41583 
L 110.439673 282.047685 
L 113.980238 281.802255 
L 115.750521 281.802255 
L 117.520803 281.556826 
L 119.291086 281.556826 
L 121.061368 281.188681 
L 122.831651 281.188681 
L 124.601933 280.452392 
L 126.372216 279.225243 
L 128.142498 278.979813 
L 129.912781 277.752664 
L 131.683063 276.89366 
L 136.993911 273.457643 
L 138.764193 273.212214 
L 140.534476 271.739635 
L 142.304758 269.530767 
L 144.075041 268.303618 
L 145.845323 265.849321 
L 147.615606 264.990316 
L 151.156171 261.5543 
L 152.926453 260.572581 
L 154.696736 260.81801 
L 156.467018 259.222717 
L 158.237301 259.590862 
L 160.007583 258.731857 
L 161.777866 259.345432 
L 163.548148 259.713576 
L 165.318431 259.100002 
L 167.088713 259.345432 
L 168.858996 261.30887 
L 170.629278 259.468147 
L 172.399561 258.731857 
L 174.169843 258.854572 
L 175.940126 258.609143 
L 177.710408 256.768419 
L 179.480691 254.314122 
L 181.250973 252.227969 
L 183.021256 252.350684 
L 184.791538 249.405526 
L 186.561821 244.865076 
L 188.332103 244.251501 
L 190.102386 241.183629 
L 191.872668 240.69277 
L 193.642951 238.606617 
L 195.413233 233.329877 
L 197.183516 232.839017 
L 198.953798 234.066166 
L 200.724081 233.084447 
L 202.494363 236.397749 
L 204.264646 237.134038 
L 206.034928 236.152319 
L 207.805211 240.44734 
L 209.575493 238.115757 
L 211.345776 240.079195 
L 213.116058 240.938199 
L 214.886341 242.042633 
L 218.426906 244.987791 
L 220.197189 247.319373 
L 221.967471 253.209688 
L 223.737754 255.050411 
L 225.508036 257.259279 
L 227.278319 258.731857 
L 229.048601 261.30887 
L 230.818884 262.781449 
L 232.589166 264.499457 
L 234.359449 264.744887 
L 236.129731 265.113031 
L 237.900014 264.008597 
L 239.670296 264.990316 
L 241.440579 264.499457 
L 243.210861 266.83104 
L 244.981144 265.603891 
L 246.751426 264.867602 
L 248.521709 265.481176 
L 250.291991 265.849321 
L 252.062274 264.990316 
L 253.832556 266.217465 
L 255.602839 266.58561 
L 257.373121 269.162622 
L 259.143404 272.353209 
L 260.913686 272.844069 
L 262.683969 275.052937 
L 264.454251 276.770945 
L 266.224534 277.261805 
L 267.994816 278.120809 
L 269.765099 276.64823 
L 271.535381 276.89366 
L 273.305664 276.89366 
L 275.075946 275.052937 
L 276.846229 274.562077 
L 278.616511 272.353209 
L 280.386794 271.86235 
L 282.157076 272.353209 
L 283.927359 271.248775 
L 285.697641 271.739635 
L 287.467924 272.475924 
L 289.238206 272.475924 
L 291.008489 273.703073 
L 292.778771 273.825788 
L 296.319336 276.402801 
L 298.089619 277.016375 
L 299.859901 278.120809 
L 301.630184 278.611668 
L 303.400466 279.347958 
L 305.170749 279.838817 
L 308.711314 280.329677 
L 310.481596 280.206962 
L 314.022161 280.452392 
L 315.792444 280.820536 
L 317.562726 281.065966 
L 319.333009 280.943251 
L 322.873574 280.943251 
L 324.643856 281.065966 
L 326.414139 281.311396 
L 328.184421 280.820536 
L 329.954704 280.697821 
L 331.724986 281.188681 
L 333.495269 281.434111 
L 335.265551 281.434111 
L 337.035834 281.311396 
L 338.806116 281.434111 
L 342.346681 282.1704 
L 344.116964 281.67954 
L 345.887246 281.67954 
L 347.657529 281.311396 
L 351.198094 280.820536 
L 352.968376 280.943251 
L 354.738659 280.206962 
L 356.508942 279.716102 
L 358.279224 279.716102 
L 361.819789 280.206962 
L 363.590072 279.961532 
L 365.360354 279.961532 
L 367.130637 279.838817 
L 368.900919 279.961532 
L 370.671202 279.347958 
L 372.441484 279.225243 
L 374.211767 279.225243 
L 375.982049 279.347958 
L 377.752332 278.488954 
L 379.522614 278.611668 
L 381.292897 278.488954 
L 383.063179 278.243524 
L 384.833462 276.89366 
L 386.603744 276.770945 
L 390.144309 276.770945 
L 391.914592 276.525515 
L 393.684874 276.770945 
L 395.455157 276.89366 
L 397.225439 278.366239 
L 398.995722 278.366239 
L 400.766004 278.488954 
L 404.306569 279.470673 
L 406.076852 279.593387 
L 407.847134 278.488954 
L 409.617417 278.120809 
L 411.387699 277.261805 
L 413.157982 277.13909 
L 414.928264 276.402801 
L 418.468829 271.003346 
L 420.239112 268.549048 
L 422.009394 264.990316 
L 423.779677 263.517738 
L 425.549959 260.81801 
L 427.320242 255.54127 
L 429.090524 254.682266 
L 430.860807 254.927696 
L 432.631089 255.050411 
L 434.401372 256.27756 
L 436.171654 257.259279 
L 437.941937 256.768419 
L 439.712219 259.836291 
L 441.482502 260.81801 
L 443.252784 259.345432 
L 445.023067 258.240998 
L 446.793349 258.240998 
L 450.333914 253.209688 
L 452.104197 250.387245 
L 453.874479 245.47865 
L 455.644762 242.656208 
L 457.415044 241.060914 
L 459.185327 237.502183 
L 460.955609 234.434311 
L 462.725892 231.734583 
L 466.266457 220.444814 
L 468.036739 212.836491 
L 469.807022 210.504908 
L 471.577304 201.055862 
L 473.347587 198.110705 
L 475.117869 197.128986 
L 476.888152 193.20211 
L 478.658434 191.484102 
L 480.428717 191.115957 
L 482.198999 182.525915 
L 483.969282 185.102928 
L 485.739564 183.507634 
L 487.509847 181.053337 
L 489.280129 177.61732 
L 491.050412 177.740035 
L 492.820694 174.917592 
L 494.590977 179.089898 
L 496.36126 178.108179 
L 498.131542 177.985464 
L 501.672107 173.690444 
L 503.44239 168.045559 
L 505.212672 167.06384 
L 506.982955 166.941125 
L 506.982955 166.941125 
" style="fill:none;stroke:#d62728;stroke-linecap:square;stroke-width:1.75;"/>
   </g>
   <g id="line2d_19">
    <path clip-path="url(#p4c265e9360)" d="M 101.588261 282.67261 
L 103.358543 282.43853 
L 106.899108 282.43853 
L 112.209956 281.73629 
L 113.980238 281.268131 
L 115.750521 281.73629 
L 117.520803 281.268131 
L 119.291086 281.268131 
L 121.061368 281.502211 
L 122.831651 281.502211 
L 126.372216 281.034051 
L 129.912781 278.693253 
L 131.683063 276.352455 
L 133.453346 274.947977 
L 135.223628 272.607179 
L 136.993911 269.564142 
L 138.764193 267.223344 
L 140.534476 263.243988 
L 142.304758 260.66911 
L 144.075041 259.264631 
L 145.845323 256.455674 
L 147.615606 247.092483 
L 151.156171 233.515855 
L 152.926453 228.60018 
L 154.696736 221.811866 
L 158.237301 206.83076 
L 160.007583 209.405638 
L 161.777866 212.682755 
L 163.548148 214.321313 
L 165.318431 218.06659 
L 167.088713 220.875547 
L 168.858996 221.577786 
L 170.629278 223.684505 
L 172.399561 226.025302 
L 174.169843 226.025302 
L 175.940126 223.684505 
L 177.710408 220.173308 
L 179.480691 223.216345 
L 181.250973 226.727542 
L 183.021256 225.323063 
L 184.791538 223.216345 
L 186.561821 224.152664 
L 190.102386 235.856653 
L 191.872668 236.558893 
L 193.642951 238.197451 
L 195.413233 244.049446 
L 197.183516 249.433281 
L 198.953798 247.326562 
L 200.724081 246.156164 
L 202.494363 244.751685 
L 204.264646 242.176807 
L 206.034928 239.36785 
L 207.805211 239.60193 
L 209.575493 234.920334 
L 211.345776 236.324813 
L 213.116058 238.431531 
L 216.656624 238.431531 
L 218.426906 241.240488 
L 220.197189 236.090733 
L 221.967471 240.070089 
L 223.737754 243.113126 
L 225.508036 241.708648 
L 227.278319 243.347206 
L 229.048601 245.922084 
L 230.818884 246.156164 
L 232.589166 252.476318 
L 234.359449 252.944477 
L 236.129731 253.178557 
L 237.900014 256.923834 
L 239.670296 255.753435 
L 243.210861 257.626073 
L 244.981144 256.923834 
L 246.751426 257.626073 
L 248.521709 257.626073 
L 250.291991 258.562392 
L 252.062274 261.839509 
L 253.832556 261.839509 
L 255.602839 263.946227 
L 257.373121 265.116626 
L 259.143404 265.350706 
L 260.913686 267.925583 
L 262.683969 267.223344 
L 264.454251 268.159663 
L 266.224534 270.032301 
L 267.994816 271.67086 
L 269.765099 272.139019 
L 271.535381 273.075338 
L 273.305664 271.67086 
L 275.075946 272.139019 
L 276.846229 271.67086 
L 278.616511 269.798222 
L 280.386794 266.521105 
L 282.157076 266.521105 
L 283.927359 267.223344 
L 285.697641 268.627823 
L 287.467924 268.393743 
L 289.238206 268.627823 
L 291.008489 271.67086 
L 292.778771 273.075338 
L 294.549054 274.011658 
L 296.319336 274.011658 
L 299.859901 275.416136 
L 301.630184 276.352455 
L 303.400466 276.352455 
L 305.170749 278.459173 
L 308.711314 281.268131 
L 310.481596 280.799971 
L 312.251879 280.799971 
L 314.022161 280.331812 
L 315.792444 279.161413 
L 317.562726 279.629572 
L 321.103291 278.693253 
L 322.873574 279.161413 
L 324.643856 279.161413 
L 326.414139 279.629572 
L 328.184421 281.034051 
L 329.954704 280.565892 
L 333.495269 281.502211 
L 335.265551 281.73629 
L 337.035834 281.034051 
L 338.806116 281.034051 
L 340.576399 280.097732 
L 342.346681 280.097732 
L 344.116964 279.863652 
L 345.887246 279.395493 
L 347.657529 279.161413 
L 349.427811 279.863652 
L 351.198094 279.863652 
L 352.968376 280.799971 
L 354.738659 281.034051 
L 356.508942 279.863652 
L 358.279224 279.395493 
L 360.049507 279.395493 
L 361.819789 278.693253 
L 367.130637 278.693253 
L 368.900919 279.863652 
L 370.671202 280.331812 
L 372.441484 279.161413 
L 374.211767 280.097732 
L 375.982049 280.097732 
L 377.752332 279.863652 
L 379.522614 278.927333 
L 381.292897 279.395493 
L 383.063179 278.927333 
L 384.833462 280.097732 
L 386.603744 279.629572 
L 388.374027 278.927333 
L 390.144309 278.927333 
L 391.914592 279.629572 
L 393.684874 278.225094 
L 395.455157 278.225094 
L 398.995722 276.352455 
L 400.766004 275.650216 
L 404.306569 269.095982 
L 406.076852 267.457424 
L 407.847134 264.882546 
L 409.617417 260.20095 
L 411.387699 260.20095 
L 413.157982 259.732791 
L 414.928264 258.094232 
L 416.698547 255.753435 
L 418.468829 251.071839 
L 420.239112 247.092483 
L 422.009394 242.176807 
L 423.779677 238.197451 
L 425.549959 232.579536 
L 427.320242 227.429781 
L 429.090524 220.173308 
L 430.860807 214.321313 
L 432.631089 209.639718 
L 434.401372 209.873797 
L 436.171654 204.255883 
L 437.941937 204.489962 
L 439.712219 200.978766 
L 441.482502 196.999409 
L 443.252784 193.488213 
L 445.023067 185.29542 
L 446.793349 178.507107 
L 448.563632 174.059591 
L 450.333914 164.46232 
L 452.104197 157.205846 
L 453.874479 153.69465 
L 455.644762 145.267778 
L 457.415044 143.863299 
L 459.185327 137.074985 
L 460.955609 136.606826 
L 462.725892 135.670507 
L 464.496174 128.414033 
L 466.266457 123.030198 
L 468.036739 116.007805 
L 469.807022 113.432927 
L 471.577304 111.326209 
L 473.347587 99.38814 
L 475.117869 91.195348 
L 476.888152 79.491359 
L 478.658434 64.510253 
L 480.428717 62.871694 
L 482.198999 44.379392 
L 483.969282 38.995557 
L 485.739564 44.847551 
L 487.509847 43.911232 
L 489.280129 47.656509 
L 491.050412 55.381141 
L 492.820694 60.062737 
L 494.590977 71.064487 
L 496.36126 78.78912 
L 498.131542 75.512003 
L 499.901825 80.193598 
L 501.672107 63.339854 
L 503.44239 63.105774 
L 505.212672 57.956019 
L 506.982955 61.467216 
L 506.982955 61.467216 
" style="fill:none;stroke:#9467bd;stroke-linecap:square;stroke-width:1.75;"/>
   </g>
   <g id="line2d_20">
    <path clip-path="url(#p4c265e9360)" d="M 62.642045 282.797035 
L 66.18261 282.906689 
L 92.736848 282.797035 
L 94.507131 282.468071 
L 98.047696 282.468071 
L 99.817978 282.139108 
L 105.128826 281.700489 
L 106.899108 281.371526 
L 108.669391 280.823253 
L 112.209956 280.603944 
L 113.980238 280.713599 
L 115.750521 280.27498 
L 117.520803 280.27498 
L 121.061368 279.726708 
L 122.831651 278.410853 
L 124.601933 278.301199 
L 126.372216 277.643272 
L 128.142498 277.314308 
L 129.912781 275.230872 
L 131.683063 273.695708 
L 133.453346 272.818472 
L 135.223628 271.392963 
L 136.993911 268.870909 
L 138.764193 267.116436 
L 140.534476 265.690927 
L 142.304758 263.8268 
L 145.845323 257.795801 
L 149.385888 248.36551 
L 151.156171 246.501383 
L 152.926453 243.431056 
L 154.696736 242.224856 
L 158.237301 237.619366 
L 160.007583 238.715911 
L 161.777866 238.715911 
L 163.548148 239.593147 
L 165.318431 240.689693 
L 167.088713 240.360729 
L 168.858996 242.55382 
L 170.629278 245.295183 
L 172.399561 246.391729 
L 174.169843 248.804129 
L 175.940126 247.268965 
L 177.710408 247.707583 
L 179.480691 249.462056 
L 181.250973 251.764801 
L 183.021256 251.106874 
L 186.561821 247.926892 
L 188.332103 249.133092 
L 190.102386 247.488274 
L 191.872668 246.391729 
L 193.642951 244.856565 
L 195.413233 245.514492 
L 197.183516 245.953111 
L 198.953798 249.681365 
L 200.724081 248.694474 
L 202.494363 252.642037 
L 204.264646 251.655146 
L 206.034928 249.57171 
L 207.805211 249.242747 
L 209.575493 252.203419 
L 211.345776 250.558601 
L 213.116058 250.010328 
L 214.886341 244.637256 
L 216.656624 242.224856 
L 218.426906 243.979329 
L 220.197189 241.895893 
L 221.967471 241.566929 
L 223.737754 243.211747 
L 225.508036 246.830347 
L 227.278319 247.926892 
L 229.048601 251.435837 
L 230.818884 254.286855 
L 232.589166 256.918564 
L 234.359449 257.795801 
L 237.900014 257.905455 
L 239.670296 262.291636 
L 241.440579 266.019891 
L 243.210861 266.2392 
L 244.981144 268.103327 
L 246.751426 269.748145 
L 248.521709 269.199872 
L 252.062274 271.063999 
L 253.832556 270.186763 
L 257.373121 272.160545 
L 259.143404 272.489508 
L 260.913686 274.46329 
L 262.683969 275.121217 
L 264.454251 274.353635 
L 266.224534 275.559835 
L 267.994816 275.998454 
L 269.765099 276.108108 
L 273.305664 276.656381 
L 275.075946 276.108108 
L 276.846229 277.094999 
L 278.616511 276.985344 
L 283.927359 277.643272 
L 285.697641 278.520508 
L 289.238206 278.959126 
L 292.778771 279.726708 
L 294.549054 280.055671 
L 299.859901 279.617053 
L 301.630184 279.397744 
L 303.400466 279.507399 
L 305.170749 279.178435 
L 306.941031 279.178435 
L 312.251879 279.946017 
L 314.022161 279.617053 
L 315.792444 279.726708 
L 317.562726 280.165326 
L 321.103291 278.739817 
L 322.873574 279.178435 
L 324.643856 279.178435 
L 326.414139 279.507399 
L 328.184421 279.28809 
L 329.954704 278.630162 
L 331.724986 279.068781 
L 333.495269 280.055671 
L 335.265551 279.726708 
L 337.035834 279.178435 
L 338.806116 279.178435 
L 342.346681 277.752926 
L 344.116964 277.533617 
L 345.887246 276.87569 
L 347.657529 276.437072 
L 352.968376 276.437072 
L 354.738659 277.533617 
L 358.279224 277.643272 
L 361.819789 278.630162 
L 363.590072 278.630162 
L 365.360354 278.959126 
L 367.130637 278.191544 
L 368.900919 278.630162 
L 370.671202 278.739817 
L 374.211767 277.533617 
L 375.982049 277.423963 
L 377.752332 276.656381 
L 379.522614 276.437072 
L 381.292897 275.888799 
L 383.063179 276.108108 
L 388.374027 275.230872 
L 391.914592 275.66949 
L 393.684874 274.901908 
L 395.455157 273.695708 
L 397.225439 273.147436 
L 398.995722 273.037781 
L 400.766004 272.599163 
L 402.536287 272.818472 
L 404.306569 273.25709 
L 406.076852 273.25709 
L 409.617417 275.121217 
L 411.387699 275.888799 
L 413.157982 276.327417 
L 414.928264 276.546726 
L 416.698547 275.559835 
L 418.468829 275.340526 
L 420.239112 274.353635 
L 422.009394 273.695708 
L 423.779677 271.721927 
L 425.549959 270.954345 
L 427.320242 270.84469 
L 430.860807 271.173654 
L 434.401372 271.173654 
L 436.171654 271.502618 
L 437.941937 272.379854 
L 445.023067 271.831581 
L 446.793349 272.818472 
L 448.563632 273.147436 
L 450.333914 270.954345 
L 452.104197 270.954345 
L 455.644762 270.406072 
L 457.415044 269.748145 
L 459.185327 266.2392 
L 460.955609 264.484727 
L 462.725892 263.497836 
L 464.496174 259.221309 
L 466.266457 255.712364 
L 468.036739 249.900674 
L 469.807022 245.075874 
L 471.577304 242.773129 
L 476.888152 229.50493 
L 478.658434 225.557367 
L 480.428717 223.583585 
L 482.198999 219.087749 
L 483.969282 213.824331 
L 485.739564 215.469149 
L 487.509847 217.442931 
L 489.280129 216.785004 
L 491.050412 213.385713 
L 492.820694 213.714677 
L 494.590977 216.785004 
L 496.36126 217.333277 
L 498.131542 215.359495 
L 499.901825 215.140186 
L 501.672107 213.276059 
L 503.44239 209.109186 
L 505.212672 201.433369 
L 506.982955 201.762332 
L 506.982955 201.762332 
" style="fill:none;stroke:#8c564b;stroke-linecap:square;stroke-width:1.75;"/>
   </g>
   <g id="line2d_21">
    <path clip-path="url(#p4c265e9360)" d="M 105.128826 281.389837 
L 106.899108 281.693208 
L 108.669391 281.238152 
L 110.439673 280.631411 
L 112.209956 279.569615 
L 113.980238 278.962874 
L 115.750521 279.266244 
L 119.291086 275.777485 
L 122.831651 269.710076 
L 124.601933 268.95165 
L 126.372216 266.373002 
L 129.912781 261.822445 
L 131.683063 256.816834 
L 135.223628 249.535944 
L 136.993911 243.165165 
L 138.764193 242.255054 
L 140.534476 237.249442 
L 142.304758 236.187645 
L 144.075041 232.698885 
L 145.845323 228.603385 
L 147.615606 226.024736 
L 149.385888 227.541588 
L 151.156171 224.052829 
L 152.926453 219.502272 
L 154.696736 209.946104 
L 156.467018 209.491049 
L 158.237301 207.519141 
L 160.007583 207.215771 
L 161.777866 208.732623 
L 163.548148 212.828123 
L 167.088713 226.479792 
L 168.858996 229.361811 
L 170.629278 237.097757 
L 172.399561 241.951683 
L 174.169843 242.406739 
L 175.940126 242.558424 
L 177.710408 244.682017 
L 181.250973 247.10898 
L 184.791538 246.502239 
L 188.332103 241.951683 
L 190.102386 239.069664 
L 191.872668 236.946071 
L 193.642951 237.097757 
L 195.413233 230.120237 
L 197.183516 226.328107 
L 198.953798 224.96294 
L 200.724081 228.4517 
L 202.494363 232.698885 
L 204.264646 238.766294 
L 206.034928 239.373035 
L 207.805211 247.412351 
L 209.575493 251.507851 
L 211.345776 257.423574 
L 213.116058 259.243797 
L 214.886341 259.395482 
L 216.656624 259.243797 
L 218.426906 263.794353 
L 220.197189 266.221316 
L 221.967471 269.710076 
L 223.737754 271.226928 
L 225.508036 269.710076 
L 227.278319 270.013447 
L 229.048601 270.923558 
L 230.818884 269.710076 
L 232.589166 270.165132 
L 234.359449 271.530299 
L 236.129731 268.193224 
L 237.900014 269.255021 
L 239.670296 269.558391 
L 241.440579 271.226928 
L 243.210861 273.198836 
L 244.981144 273.805577 
L 246.751426 273.198836 
L 248.521709 276.990966 
L 250.291991 276.839281 
L 252.062274 277.142651 
L 253.832556 276.839281 
L 255.602839 274.867373 
L 257.373121 274.867373 
L 259.143404 275.474114 
L 260.913686 275.625799 
L 262.683969 276.687596 
L 264.454251 276.535911 
L 266.224534 276.990966 
L 267.994816 278.204448 
L 269.765099 279.266244 
L 271.535381 279.114559 
L 273.305664 279.266244 
L 275.075946 279.114559 
L 276.846229 279.569615 
L 278.616511 278.811189 
L 280.386794 279.41793 
L 282.157076 279.114559 
L 283.927359 279.266244 
L 285.697641 278.659504 
L 289.238206 278.356133 
L 291.008489 278.962874 
L 294.549054 278.962874 
L 296.319336 279.7213 
L 299.859901 279.41793 
L 301.630184 279.7213 
L 303.400466 279.41793 
L 305.170749 278.507818 
L 306.941031 278.052763 
L 308.711314 277.749392 
L 310.481596 278.507818 
L 312.251879 278.962874 
L 314.022161 278.204448 
L 315.792444 276.839281 
L 317.562726 277.901077 
L 319.333009 278.811189 
L 321.103291 278.507818 
L 322.873574 278.356133 
L 324.643856 277.901077 
L 326.414139 278.356133 
L 328.184421 279.114559 
L 329.954704 278.811189 
L 331.724986 277.294337 
L 333.495269 276.23254 
L 335.265551 274.564003 
L 337.035834 274.260632 
L 338.806116 274.412318 
L 340.576399 274.260632 
L 342.346681 273.957262 
L 344.116964 273.805577 
L 345.887246 274.260632 
L 347.657529 275.625799 
L 349.427811 276.384225 
L 351.198094 275.474114 
L 352.968376 274.867373 
L 354.738659 274.412318 
L 356.508942 274.412318 
L 358.279224 274.715688 
L 360.049507 273.653892 
L 361.819789 273.047151 
L 363.590072 273.653892 
L 365.360354 274.108947 
L 367.130637 274.412318 
L 368.900919 275.625799 
L 370.671202 274.260632 
L 372.441484 274.108947 
L 374.211767 273.805577 
L 375.982049 273.957262 
L 377.752332 273.350521 
L 379.522614 273.350521 
L 381.292897 272.44041 
L 383.063179 273.957262 
L 384.833462 273.805577 
L 386.603744 274.715688 
L 388.374027 275.019059 
L 390.144309 276.080855 
L 391.914592 276.687596 
L 393.684874 276.839281 
L 395.455157 277.142651 
L 397.225439 278.811189 
L 400.766004 277.597707 
L 402.536287 278.204448 
L 404.306569 278.659504 
L 406.076852 279.569615 
L 407.847134 278.204448 
L 409.617417 277.749392 
L 413.157982 278.962874 
L 414.928264 278.052763 
L 416.698547 276.990966 
L 418.468829 274.867373 
L 420.239112 275.322429 
L 422.009394 274.564003 
L 423.779677 273.653892 
L 425.549959 271.985354 
L 427.320242 269.406706 
L 429.090524 269.255021 
L 430.860807 269.558391 
L 432.631089 269.710076 
L 434.401372 270.165132 
L 436.171654 270.013447 
L 437.941937 269.103335 
L 439.712219 270.923558 
L 441.482502 269.861761 
L 443.252784 270.013447 
L 445.023067 268.496595 
L 446.793349 266.373002 
L 448.563632 265.614576 
L 450.333914 264.249409 
L 452.104197 261.822445 
L 453.874479 258.182 
L 455.644762 255.603352 
L 457.415044 251.659536 
L 459.185327 248.322462 
L 460.955609 245.440443 
L 462.725892 244.075276 
L 464.496174 240.434831 
L 466.266457 237.552812 
L 468.036739 231.333719 
L 469.807022 229.665181 
L 471.577304 226.479792 
L 473.347587 222.080921 
L 475.117869 217.226994 
L 476.888152 208.580937 
L 478.658434 203.42364 
L 480.428717 196.294436 
L 482.198999 191.440509 
L 483.969282 190.075342 
L 485.739564 189.013546 
L 487.509847 190.682083 
L 489.280129 186.738267 
L 491.050412 185.524786 
L 492.820694 185.524786 
L 494.590977 181.58097 
L 496.36126 173.389969 
L 498.131542 171.569747 
L 499.901825 167.322561 
L 501.672107 164.137172 
L 503.44239 158.221448 
L 505.212672 155.794485 
L 506.982955 157.614708 
L 506.982955 157.614708 
" style="fill:none;stroke:#e377c2;stroke-linecap:square;stroke-width:1.75;"/>
   </g>
   <g id="patch_3">
    <path d="M 40.425 295.102246 
L 40.425 26.8 
" style="fill:none;stroke:#000000;stroke-linecap:square;stroke-linejoin:miter;stroke-width:0.8;"/>
   </g>
   <g id="patch_4">
    <path d="M 529.2 295.102246 
L 529.2 26.8 
" style="fill:none;stroke:#000000;stroke-linecap:square;stroke-linejoin:miter;stroke-width:0.8;"/>
   </g>
   <g id="patch_5">
    <path d="M 40.425 295.102246 
L 529.2 295.102246 
" style="fill:none;stroke:#000000;stroke-linecap:square;stroke-linejoin:miter;stroke-width:0.8;"/>
   </g>
   <g id="patch_6">
    <path d="M 40.425 26.8 
L 529.2 26.8 
" style="fill:none;stroke:#000000;stroke-linecap:square;stroke-linejoin:miter;stroke-width:0.8;"/>
   </g>
   <g id="text_16">
    <!-- New Cases per Million (7 day rolling) -->
    <defs>
     <path d="M 9.8125 72.90625 
L 23.09375 72.90625 
L 55.421875 11.921875 
L 55.421875 72.90625 
L 64.984375 72.90625 
L 64.984375 0 
L 51.703125 0 
L 19.390625 60.984375 
L 19.390625 0 
L 9.8125 0 
z
" id="DejaVuSans-78"/>
     <path d="M 4.203125 54.6875 
L 13.1875 54.6875 
L 24.421875 12.015625 
L 35.59375 54.6875 
L 46.1875 54.6875 
L 57.421875 12.015625 
L 68.609375 54.6875 
L 77.59375 54.6875 
L 63.28125 0 
L 52.6875 0 
L 40.921875 44.828125 
L 29.109375 0 
L 18.5 0 
z
" id="DejaVuSans-119"/>
     <path id="DejaVuSans-32"/>
     <path d="M 64.40625 67.28125 
L 64.40625 56.890625 
Q 59.421875 61.53125 53.78125 63.8125 
Q 48.140625 66.109375 41.796875 66.109375 
Q 29.296875 66.109375 22.65625 58.46875 
Q 16.015625 50.828125 16.015625 36.375 
Q 16.015625 21.96875 22.65625 14.328125 
Q 29.296875 6.6875 41.796875 6.6875 
Q 48.140625 6.6875 53.78125 8.984375 
Q 59.421875 11.28125 64.40625 15.921875 
L 64.40625 5.609375 
Q 59.234375 2.09375 53.4375 0.328125 
Q 47.65625 -1.421875 41.21875 -1.421875 
Q 24.65625 -1.421875 15.125 8.703125 
Q 5.609375 18.84375 5.609375 36.375 
Q 5.609375 53.953125 15.125 64.078125 
Q 24.65625 74.21875 41.21875 74.21875 
Q 47.75 74.21875 53.53125 72.484375 
Q 59.328125 70.75 64.40625 67.28125 
z
" id="DejaVuSans-67"/>
     <path d="M 44.28125 53.078125 
L 44.28125 44.578125 
Q 40.484375 46.53125 36.375 47.5 
Q 32.28125 48.484375 27.875 48.484375 
Q 21.1875 48.484375 17.84375 46.4375 
Q 14.5 44.390625 14.5 40.28125 
Q 14.5 37.15625 16.890625 35.375 
Q 19.28125 33.59375 26.515625 31.984375 
L 29.59375 31.296875 
Q 39.15625 29.25 43.1875 25.515625 
Q 47.21875 21.78125 47.21875 15.09375 
Q 47.21875 7.46875 41.1875 3.015625 
Q 35.15625 -1.421875 24.609375 -1.421875 
Q 20.21875 -1.421875 15.453125 -0.5625 
Q 10.6875 0.296875 5.421875 2 
L 5.421875 11.28125 
Q 10.40625 8.6875 15.234375 7.390625 
Q 20.0625 6.109375 24.8125 6.109375 
Q 31.15625 6.109375 34.5625 8.28125 
Q 37.984375 10.453125 37.984375 14.40625 
Q 37.984375 18.0625 35.515625 20.015625 
Q 33.0625 21.96875 24.703125 23.78125 
L 21.578125 24.515625 
Q 13.234375 26.265625 9.515625 29.90625 
Q 5.8125 33.546875 5.8125 39.890625 
Q 5.8125 47.609375 11.28125 51.796875 
Q 16.75 56 26.8125 56 
Q 31.78125 56 36.171875 55.265625 
Q 40.578125 54.546875 44.28125 53.078125 
z
" id="DejaVuSans-115"/>
     <path d="M 18.109375 8.203125 
L 18.109375 -20.796875 
L 9.078125 -20.796875 
L 9.078125 54.6875 
L 18.109375 54.6875 
L 18.109375 46.390625 
Q 20.953125 51.265625 25.265625 53.625 
Q 29.59375 56 35.59375 56 
Q 45.5625 56 51.78125 48.09375 
Q 58.015625 40.1875 58.015625 27.296875 
Q 58.015625 14.40625 51.78125 6.484375 
Q 45.5625 -1.421875 35.59375 -1.421875 
Q 29.59375 -1.421875 25.265625 0.953125 
Q 20.953125 3.328125 18.109375 8.203125 
z
M 48.6875 27.296875 
Q 48.6875 37.203125 44.609375 42.84375 
Q 40.53125 48.484375 33.40625 48.484375 
Q 26.265625 48.484375 22.1875 42.84375 
Q 18.109375 37.203125 18.109375 27.296875 
Q 18.109375 17.390625 22.1875 11.75 
Q 26.265625 6.109375 33.40625 6.109375 
Q 40.53125 6.109375 44.609375 11.75 
Q 48.6875 17.390625 48.6875 27.296875 
z
" id="DejaVuSans-112"/>
     <path d="M 41.109375 46.296875 
Q 39.59375 47.171875 37.8125 47.578125 
Q 36.03125 48 33.890625 48 
Q 26.265625 48 22.1875 43.046875 
Q 18.109375 38.09375 18.109375 28.8125 
L 18.109375 0 
L 9.078125 0 
L 9.078125 54.6875 
L 18.109375 54.6875 
L 18.109375 46.1875 
Q 20.953125 51.171875 25.484375 53.578125 
Q 30.03125 56 36.53125 56 
Q 37.453125 56 38.578125 55.875 
Q 39.703125 55.765625 41.0625 55.515625 
z
" id="DejaVuSans-114"/>
     <path d="M 9.8125 72.90625 
L 24.515625 72.90625 
L 43.109375 23.296875 
L 61.8125 72.90625 
L 76.515625 72.90625 
L 76.515625 0 
L 66.890625 0 
L 66.890625 64.015625 
L 48.09375 14.015625 
L 38.1875 14.015625 
L 19.390625 64.015625 
L 19.390625 0 
L 9.8125 0 
z
" id="DejaVuSans-77"/>
     <path d="M 9.421875 54.6875 
L 18.40625 54.6875 
L 18.40625 0 
L 9.421875 0 
z
M 9.421875 75.984375 
L 18.40625 75.984375 
L 18.40625 64.59375 
L 9.421875 64.59375 
z
" id="DejaVuSans-105"/>
     <path d="M 9.421875 75.984375 
L 18.40625 75.984375 
L 18.40625 0 
L 9.421875 0 
z
" id="DejaVuSans-108"/>
     <path d="M 30.609375 48.390625 
Q 23.390625 48.390625 19.1875 42.75 
Q 14.984375 37.109375 14.984375 27.296875 
Q 14.984375 17.484375 19.15625 11.84375 
Q 23.34375 6.203125 30.609375 6.203125 
Q 37.796875 6.203125 41.984375 11.859375 
Q 46.1875 17.53125 46.1875 27.296875 
Q 46.1875 37.015625 41.984375 42.703125 
Q 37.796875 48.390625 30.609375 48.390625 
z
M 30.609375 56 
Q 42.328125 56 49.015625 48.375 
Q 55.71875 40.765625 55.71875 27.296875 
Q 55.71875 13.875 49.015625 6.21875 
Q 42.328125 -1.421875 30.609375 -1.421875 
Q 18.84375 -1.421875 12.171875 6.21875 
Q 5.515625 13.875 5.515625 27.296875 
Q 5.515625 40.765625 12.171875 48.375 
Q 18.84375 56 30.609375 56 
z
" id="DejaVuSans-111"/>
     <path d="M 54.890625 33.015625 
L 54.890625 0 
L 45.90625 0 
L 45.90625 32.71875 
Q 45.90625 40.484375 42.875 44.328125 
Q 39.84375 48.1875 33.796875 48.1875 
Q 26.515625 48.1875 22.3125 43.546875 
Q 18.109375 38.921875 18.109375 30.90625 
L 18.109375 0 
L 9.078125 0 
L 9.078125 54.6875 
L 18.109375 54.6875 
L 18.109375 46.1875 
Q 21.34375 51.125 25.703125 53.5625 
Q 30.078125 56 35.796875 56 
Q 45.21875 56 50.046875 50.171875 
Q 54.890625 44.34375 54.890625 33.015625 
z
" id="DejaVuSans-110"/>
     <path d="M 31 75.875 
Q 24.46875 64.65625 21.28125 53.65625 
Q 18.109375 42.671875 18.109375 31.390625 
Q 18.109375 20.125 21.3125 9.0625 
Q 24.515625 -2 31 -13.1875 
L 23.1875 -13.1875 
Q 15.875 -1.703125 12.234375 9.375 
Q 8.59375 20.453125 8.59375 31.390625 
Q 8.59375 42.28125 12.203125 53.3125 
Q 15.828125 64.359375 23.1875 75.875 
z
" id="DejaVuSans-40"/>
     <path d="M 45.40625 46.390625 
L 45.40625 75.984375 
L 54.390625 75.984375 
L 54.390625 0 
L 45.40625 0 
L 45.40625 8.203125 
Q 42.578125 3.328125 38.25 0.953125 
Q 33.9375 -1.421875 27.875 -1.421875 
Q 17.96875 -1.421875 11.734375 6.484375 
Q 5.515625 14.40625 5.515625 27.296875 
Q 5.515625 40.1875 11.734375 48.09375 
Q 17.96875 56 27.875 56 
Q 33.9375 56 38.25 53.625 
Q 42.578125 51.265625 45.40625 46.390625 
z
M 14.796875 27.296875 
Q 14.796875 17.390625 18.875 11.75 
Q 22.953125 6.109375 30.078125 6.109375 
Q 37.203125 6.109375 41.296875 11.75 
Q 45.40625 17.390625 45.40625 27.296875 
Q 45.40625 37.203125 41.296875 42.84375 
Q 37.203125 48.484375 30.078125 48.484375 
Q 22.953125 48.484375 18.875 42.84375 
Q 14.796875 37.203125 14.796875 27.296875 
z
" id="DejaVuSans-100"/>
     <path d="M 32.171875 -5.078125 
Q 28.375 -14.84375 24.75 -17.8125 
Q 21.140625 -20.796875 15.09375 -20.796875 
L 7.90625 -20.796875 
L 7.90625 -13.28125 
L 13.1875 -13.28125 
Q 16.890625 -13.28125 18.9375 -11.515625 
Q 21 -9.765625 23.484375 -3.21875 
L 25.09375 0.875 
L 2.984375 54.6875 
L 12.5 54.6875 
L 29.59375 11.921875 
L 46.6875 54.6875 
L 56.203125 54.6875 
z
" id="DejaVuSans-121"/>
     <path d="M 45.40625 27.984375 
Q 45.40625 37.75 41.375 43.109375 
Q 37.359375 48.484375 30.078125 48.484375 
Q 22.859375 48.484375 18.828125 43.109375 
Q 14.796875 37.75 14.796875 27.984375 
Q 14.796875 18.265625 18.828125 12.890625 
Q 22.859375 7.515625 30.078125 7.515625 
Q 37.359375 7.515625 41.375 12.890625 
Q 45.40625 18.265625 45.40625 27.984375 
z
M 54.390625 6.78125 
Q 54.390625 -7.171875 48.1875 -13.984375 
Q 42 -20.796875 29.203125 -20.796875 
Q 24.46875 -20.796875 20.265625 -20.09375 
Q 16.0625 -19.390625 12.109375 -17.921875 
L 12.109375 -9.1875 
Q 16.0625 -11.328125 19.921875 -12.34375 
Q 23.78125 -13.375 27.78125 -13.375 
Q 36.625 -13.375 41.015625 -8.765625 
Q 45.40625 -4.15625 45.40625 5.171875 
L 45.40625 9.625 
Q 42.625 4.78125 38.28125 2.390625 
Q 33.9375 0 27.875 0 
Q 17.828125 0 11.671875 7.65625 
Q 5.515625 15.328125 5.515625 27.984375 
Q 5.515625 40.671875 11.671875 48.328125 
Q 17.828125 56 27.875 56 
Q 33.9375 56 38.28125 53.609375 
Q 42.625 51.21875 45.40625 46.390625 
L 45.40625 54.6875 
L 54.390625 54.6875 
z
" id="DejaVuSans-103"/>
     <path d="M 8.015625 75.875 
L 15.828125 75.875 
Q 23.140625 64.359375 26.78125 53.3125 
Q 30.421875 42.28125 30.421875 31.390625 
Q 30.421875 20.453125 26.78125 9.375 
Q 23.140625 -1.703125 15.828125 -13.1875 
L 8.015625 -13.1875 
Q 14.5 -2 17.703125 9.0625 
Q 20.90625 20.125 20.90625 31.390625 
Q 20.90625 42.671875 17.703125 53.65625 
Q 14.5 64.65625 8.015625 75.875 
z
" id="DejaVuSans-41"/>
    </defs>
    <g transform="translate(175.036875 20.8)scale(0.12 -0.12)">
     <use xlink:href="#DejaVuSans-78"/>
     <use x="74.804688" xlink:href="#DejaVuSans-101"/>
     <use x="136.328125" xlink:href="#DejaVuSans-119"/>
     <use x="218.115234" xlink:href="#DejaVuSans-32"/>
     <use x="249.902344" xlink:href="#DejaVuSans-67"/>
     <use x="319.726562" xlink:href="#DejaVuSans-97"/>
     <use x="381.005859" xlink:href="#DejaVuSans-115"/>
     <use x="433.105469" xlink:href="#DejaVuSans-101"/>
     <use x="494.628906" xlink:href="#DejaVuSans-115"/>
     <use x="546.728516" xlink:href="#DejaVuSans-32"/>
     <use x="578.515625" xlink:href="#DejaVuSans-112"/>
     <use x="641.992188" xlink:href="#DejaVuSans-101"/>
     <use x="703.515625" xlink:href="#DejaVuSans-114"/>
     <use x="744.628906" xlink:href="#DejaVuSans-32"/>
     <use x="776.416016" xlink:href="#DejaVuSans-77"/>
     <use x="862.695312" xlink:href="#DejaVuSans-105"/>
     <use x="890.478516" xlink:href="#DejaVuSans-108"/>
     <use x="918.261719" xlink:href="#DejaVuSans-108"/>
     <use x="946.044922" xlink:href="#DejaVuSans-105"/>
     <use x="973.828125" xlink:href="#DejaVuSans-111"/>
     <use x="1035.009766" xlink:href="#DejaVuSans-110"/>
     <use x="1098.388672" xlink:href="#DejaVuSans-32"/>
     <use x="1130.175781" xlink:href="#DejaVuSans-40"/>
     <use x="1169.189453" xlink:href="#DejaVuSans-55"/>
     <use x="1232.8125" xlink:href="#DejaVuSans-32"/>
     <use x="1264.599609" xlink:href="#DejaVuSans-100"/>
     <use x="1328.076172" xlink:href="#DejaVuSans-97"/>
     <use x="1389.355469" xlink:href="#DejaVuSans-121"/>
     <use x="1448.535156" xlink:href="#DejaVuSans-32"/>
     <use x="1480.322266" xlink:href="#DejaVuSans-114"/>
     <use x="1519.185547" xlink:href="#DejaVuSans-111"/>
     <use x="1580.367188" xlink:href="#DejaVuSans-108"/>
     <use x="1608.150391" xlink:href="#DejaVuSans-108"/>
     <use x="1635.933594" xlink:href="#DejaVuSans-105"/>
     <use x="1663.716797" xlink:href="#DejaVuSans-110"/>
     <use x="1727.095703" xlink:href="#DejaVuSans-103"/>
     <use x="1790.572266" xlink:href="#DejaVuSans-41"/>
    </g>
   </g>
   <g id="legend_1">
    <g id="patch_7">
     <path d="M 47.425 137.546875 
L 215.060938 137.546875 
Q 217.060938 137.546875 217.060938 135.546875 
L 217.060938 33.8 
Q 217.060938 31.8 215.060938 31.8 
L 47.425 31.8 
Q 45.425 31.8 45.425 33.8 
L 45.425 135.546875 
Q 45.425 137.546875 47.425 137.546875 
z
" style="fill:#ffffff;opacity:0.8;stroke:#cccccc;stroke-linejoin:miter;stroke-width:0.3;"/>
    </g>
    <g id="line2d_22">
     <path d="M 49.425 39.898438 
L 69.425 39.898438 
" style="fill:none;stroke:#1f77b4;stroke-linecap:square;stroke-width:1.75;"/>
    </g>
    <g id="line2d_23"/>
    <g id="text_17">
     <!-- Cheshire West and Chester -->
     <defs>
      <path d="M 54.890625 33.015625 
L 54.890625 0 
L 45.90625 0 
L 45.90625 32.71875 
Q 45.90625 40.484375 42.875 44.328125 
Q 39.84375 48.1875 33.796875 48.1875 
Q 26.515625 48.1875 22.3125 43.546875 
Q 18.109375 38.921875 18.109375 30.90625 
L 18.109375 0 
L 9.078125 0 
L 9.078125 75.984375 
L 18.109375 75.984375 
L 18.109375 46.1875 
Q 21.34375 51.125 25.703125 53.5625 
Q 30.078125 56 35.796875 56 
Q 45.21875 56 50.046875 50.171875 
Q 54.890625 44.34375 54.890625 33.015625 
z
" id="DejaVuSans-104"/>
      <path d="M 3.328125 72.90625 
L 13.28125 72.90625 
L 28.609375 11.28125 
L 43.890625 72.90625 
L 54.984375 72.90625 
L 70.3125 11.28125 
L 85.59375 72.90625 
L 95.609375 72.90625 
L 77.296875 0 
L 64.890625 0 
L 49.515625 63.28125 
L 33.984375 0 
L 21.578125 0 
z
" id="DejaVuSans-87"/>
     </defs>
     <g transform="translate(77.425 43.398438)scale(0.1 -0.1)">
      <use xlink:href="#DejaVuSans-67"/>
      <use x="69.824219" xlink:href="#DejaVuSans-104"/>
      <use x="133.203125" xlink:href="#DejaVuSans-101"/>
      <use x="194.726562" xlink:href="#DejaVuSans-115"/>
      <use x="246.826172" xlink:href="#DejaVuSans-104"/>
      <use x="310.205078" xlink:href="#DejaVuSans-105"/>
      <use x="337.988281" xlink:href="#DejaVuSans-114"/>
      <use x="376.851562" xlink:href="#DejaVuSans-101"/>
      <use x="438.375" xlink:href="#DejaVuSans-32"/>
      <use x="470.162109" xlink:href="#DejaVuSans-87"/>
      <use x="563.164062" xlink:href="#DejaVuSans-101"/>
      <use x="624.6875" xlink:href="#DejaVuSans-115"/>
      <use x="676.787109" xlink:href="#DejaVuSans-116"/>
      <use x="715.996094" xlink:href="#DejaVuSans-32"/>
      <use x="747.783203" xlink:href="#DejaVuSans-97"/>
      <use x="809.0625" xlink:href="#DejaVuSans-110"/>
      <use x="872.441406" xlink:href="#DejaVuSans-100"/>
      <use x="935.917969" xlink:href="#DejaVuSans-32"/>
      <use x="967.705078" xlink:href="#DejaVuSans-67"/>
      <use x="1037.529297" xlink:href="#DejaVuSans-104"/>
      <use x="1100.908203" xlink:href="#DejaVuSans-101"/>
      <use x="1162.431641" xlink:href="#DejaVuSans-115"/>
      <use x="1214.53125" xlink:href="#DejaVuSans-116"/>
      <use x="1253.740234" xlink:href="#DejaVuSans-101"/>
      <use x="1315.263672" xlink:href="#DejaVuSans-114"/>
     </g>
    </g>
    <g id="line2d_24">
     <path d="M 49.425 54.576563 
L 69.425 54.576563 
" style="fill:none;stroke:#ff7f0e;stroke-linecap:square;stroke-width:1.75;"/>
    </g>
    <g id="line2d_25"/>
    <g id="text_18">
     <!-- Leicester -->
     <defs>
      <path d="M 9.8125 72.90625 
L 19.671875 72.90625 
L 19.671875 8.296875 
L 55.171875 8.296875 
L 55.171875 0 
L 9.8125 0 
z
" id="DejaVuSans-76"/>
      <path d="M 48.78125 52.59375 
L 48.78125 44.1875 
Q 44.96875 46.296875 41.140625 47.34375 
Q 37.3125 48.390625 33.40625 48.390625 
Q 24.65625 48.390625 19.8125 42.84375 
Q 14.984375 37.3125 14.984375 27.296875 
Q 14.984375 17.28125 19.8125 11.734375 
Q 24.65625 6.203125 33.40625 6.203125 
Q 37.3125 6.203125 41.140625 7.25 
Q 44.96875 8.296875 48.78125 10.40625 
L 48.78125 2.09375 
Q 45.015625 0.34375 40.984375 -0.53125 
Q 36.96875 -1.421875 32.421875 -1.421875 
Q 20.0625 -1.421875 12.78125 6.34375 
Q 5.515625 14.109375 5.515625 27.296875 
Q 5.515625 40.671875 12.859375 48.328125 
Q 20.21875 56 33.015625 56 
Q 37.15625 56 41.109375 55.140625 
Q 45.0625 54.296875 48.78125 52.59375 
z
" id="DejaVuSans-99"/>
     </defs>
     <g transform="translate(77.425 58.076563)scale(0.1 -0.1)">
      <use xlink:href="#DejaVuSans-76"/>
      <use x="53.962891" xlink:href="#DejaVuSans-101"/>
      <use x="115.486328" xlink:href="#DejaVuSans-105"/>
      <use x="143.269531" xlink:href="#DejaVuSans-99"/>
      <use x="198.25" xlink:href="#DejaVuSans-101"/>
      <use x="259.773438" xlink:href="#DejaVuSans-115"/>
      <use x="311.873047" xlink:href="#DejaVuSans-116"/>
      <use x="351.082031" xlink:href="#DejaVuSans-101"/>
      <use x="412.605469" xlink:href="#DejaVuSans-114"/>
     </g>
    </g>
    <g id="line2d_26">
     <path d="M 49.425 69.254687 
L 69.425 69.254687 
" style="fill:none;stroke:#2ca02c;stroke-linecap:square;stroke-width:1.75;"/>
    </g>
    <g id="line2d_27"/>
    <g id="text_19">
     <!-- Northumberland -->
     <defs>
      <path d="M 8.5 21.578125 
L 8.5 54.6875 
L 17.484375 54.6875 
L 17.484375 21.921875 
Q 17.484375 14.15625 20.5 10.265625 
Q 23.53125 6.390625 29.59375 6.390625 
Q 36.859375 6.390625 41.078125 11.03125 
Q 45.3125 15.671875 45.3125 23.6875 
L 45.3125 54.6875 
L 54.296875 54.6875 
L 54.296875 0 
L 45.3125 0 
L 45.3125 8.40625 
Q 42.046875 3.421875 37.71875 1 
Q 33.40625 -1.421875 27.6875 -1.421875 
Q 18.265625 -1.421875 13.375 4.4375 
Q 8.5 10.296875 8.5 21.578125 
z
M 31.109375 56 
z
" id="DejaVuSans-117"/>
      <path d="M 52 44.1875 
Q 55.375 50.25 60.0625 53.125 
Q 64.75 56 71.09375 56 
Q 79.640625 56 84.28125 50.015625 
Q 88.921875 44.046875 88.921875 33.015625 
L 88.921875 0 
L 79.890625 0 
L 79.890625 32.71875 
Q 79.890625 40.578125 77.09375 44.375 
Q 74.3125 48.1875 68.609375 48.1875 
Q 61.625 48.1875 57.5625 43.546875 
Q 53.515625 38.921875 53.515625 30.90625 
L 53.515625 0 
L 44.484375 0 
L 44.484375 32.71875 
Q 44.484375 40.625 41.703125 44.40625 
Q 38.921875 48.1875 33.109375 48.1875 
Q 26.21875 48.1875 22.15625 43.53125 
Q 18.109375 38.875 18.109375 30.90625 
L 18.109375 0 
L 9.078125 0 
L 9.078125 54.6875 
L 18.109375 54.6875 
L 18.109375 46.1875 
Q 21.1875 51.21875 25.484375 53.609375 
Q 29.78125 56 35.6875 56 
Q 41.65625 56 45.828125 52.96875 
Q 50 49.953125 52 44.1875 
z
" id="DejaVuSans-109"/>
      <path d="M 48.6875 27.296875 
Q 48.6875 37.203125 44.609375 42.84375 
Q 40.53125 48.484375 33.40625 48.484375 
Q 26.265625 48.484375 22.1875 42.84375 
Q 18.109375 37.203125 18.109375 27.296875 
Q 18.109375 17.390625 22.1875 11.75 
Q 26.265625 6.109375 33.40625 6.109375 
Q 40.53125 6.109375 44.609375 11.75 
Q 48.6875 17.390625 48.6875 27.296875 
z
M 18.109375 46.390625 
Q 20.953125 51.265625 25.265625 53.625 
Q 29.59375 56 35.59375 56 
Q 45.5625 56 51.78125 48.09375 
Q 58.015625 40.1875 58.015625 27.296875 
Q 58.015625 14.40625 51.78125 6.484375 
Q 45.5625 -1.421875 35.59375 -1.421875 
Q 29.59375 -1.421875 25.265625 0.953125 
Q 20.953125 3.328125 18.109375 8.203125 
L 18.109375 0 
L 9.078125 0 
L 9.078125 75.984375 
L 18.109375 75.984375 
z
" id="DejaVuSans-98"/>
     </defs>
     <g transform="translate(77.425 72.754687)scale(0.1 -0.1)">
      <use xlink:href="#DejaVuSans-78"/>
      <use x="74.804688" xlink:href="#DejaVuSans-111"/>
      <use x="135.986328" xlink:href="#DejaVuSans-114"/>
      <use x="177.099609" xlink:href="#DejaVuSans-116"/>
      <use x="216.308594" xlink:href="#DejaVuSans-104"/>
      <use x="279.6875" xlink:href="#DejaVuSans-117"/>
      <use x="343.066406" xlink:href="#DejaVuSans-109"/>
      <use x="440.478516" xlink:href="#DejaVuSans-98"/>
      <use x="503.955078" xlink:href="#DejaVuSans-101"/>
      <use x="565.478516" xlink:href="#DejaVuSans-114"/>
      <use x="606.591797" xlink:href="#DejaVuSans-108"/>
      <use x="634.375" xlink:href="#DejaVuSans-97"/>
      <use x="695.654297" xlink:href="#DejaVuSans-110"/>
      <use x="759.033203" xlink:href="#DejaVuSans-100"/>
     </g>
    </g>
    <g id="line2d_28">
     <path d="M 49.425 83.932813 
L 69.425 83.932813 
" style="fill:none;stroke:#d62728;stroke-linecap:square;stroke-width:1.75;"/>
    </g>
    <g id="line2d_29"/>
    <g id="text_20">
     <!-- North Yorkshire -->
     <defs>
      <path d="M -0.203125 72.90625 
L 10.40625 72.90625 
L 30.609375 42.921875 
L 50.6875 72.90625 
L 61.28125 72.90625 
L 35.5 34.71875 
L 35.5 0 
L 25.59375 0 
L 25.59375 34.71875 
z
" id="DejaVuSans-89"/>
      <path d="M 9.078125 75.984375 
L 18.109375 75.984375 
L 18.109375 31.109375 
L 44.921875 54.6875 
L 56.390625 54.6875 
L 27.390625 29.109375 
L 57.625 0 
L 45.90625 0 
L 18.109375 26.703125 
L 18.109375 0 
L 9.078125 0 
z
" id="DejaVuSans-107"/>
     </defs>
     <g transform="translate(77.425 87.432813)scale(0.1 -0.1)">
      <use xlink:href="#DejaVuSans-78"/>
      <use x="74.804688" xlink:href="#DejaVuSans-111"/>
      <use x="135.986328" xlink:href="#DejaVuSans-114"/>
      <use x="177.099609" xlink:href="#DejaVuSans-116"/>
      <use x="216.308594" xlink:href="#DejaVuSans-104"/>
      <use x="279.6875" xlink:href="#DejaVuSans-32"/>
      <use x="311.474609" xlink:href="#DejaVuSans-89"/>
      <use x="359.308594" xlink:href="#DejaVuSans-111"/>
      <use x="420.490234" xlink:href="#DejaVuSans-114"/>
      <use x="461.603516" xlink:href="#DejaVuSans-107"/>
      <use x="519.513672" xlink:href="#DejaVuSans-115"/>
      <use x="571.613281" xlink:href="#DejaVuSans-104"/>
      <use x="634.992188" xlink:href="#DejaVuSans-105"/>
      <use x="662.775391" xlink:href="#DejaVuSans-114"/>
      <use x="701.638672" xlink:href="#DejaVuSans-101"/>
     </g>
    </g>
    <g id="line2d_30">
     <path d="M 49.425 98.610937 
L 69.425 98.610937 
" style="fill:none;stroke:#9467bd;stroke-linecap:square;stroke-width:1.75;"/>
    </g>
    <g id="line2d_31"/>
    <g id="text_21">
     <!-- Wirral -->
     <g transform="translate(77.425 102.110937)scale(0.1 -0.1)">
      <use xlink:href="#DejaVuSans-87"/>
      <use x="96.626953" xlink:href="#DejaVuSans-105"/>
      <use x="124.410156" xlink:href="#DejaVuSans-114"/>
      <use x="163.773438" xlink:href="#DejaVuSans-114"/>
      <use x="204.886719" xlink:href="#DejaVuSans-97"/>
      <use x="266.166016" xlink:href="#DejaVuSans-108"/>
     </g>
    </g>
    <g id="line2d_32">
     <path d="M 49.425 113.289062 
L 69.425 113.289062 
" style="fill:none;stroke:#8c564b;stroke-linecap:square;stroke-width:1.75;"/>
    </g>
    <g id="line2d_33"/>
    <g id="text_22">
     <!-- Oxfordshire -->
     <defs>
      <path d="M 39.40625 66.21875 
Q 28.65625 66.21875 22.328125 58.203125 
Q 16.015625 50.203125 16.015625 36.375 
Q 16.015625 22.609375 22.328125 14.59375 
Q 28.65625 6.59375 39.40625 6.59375 
Q 50.140625 6.59375 56.421875 14.59375 
Q 62.703125 22.609375 62.703125 36.375 
Q 62.703125 50.203125 56.421875 58.203125 
Q 50.140625 66.21875 39.40625 66.21875 
z
M 39.40625 74.21875 
Q 54.734375 74.21875 63.90625 63.9375 
Q 73.09375 53.65625 73.09375 36.375 
Q 73.09375 19.140625 63.90625 8.859375 
Q 54.734375 -1.421875 39.40625 -1.421875 
Q 24.03125 -1.421875 14.8125 8.828125 
Q 5.609375 19.09375 5.609375 36.375 
Q 5.609375 53.65625 14.8125 63.9375 
Q 24.03125 74.21875 39.40625 74.21875 
z
" id="DejaVuSans-79"/>
      <path d="M 54.890625 54.6875 
L 35.109375 28.078125 
L 55.90625 0 
L 45.3125 0 
L 29.390625 21.484375 
L 13.484375 0 
L 2.875 0 
L 24.125 28.609375 
L 4.6875 54.6875 
L 15.28125 54.6875 
L 29.78125 35.203125 
L 44.28125 54.6875 
z
" id="DejaVuSans-120"/>
      <path d="M 37.109375 75.984375 
L 37.109375 68.5 
L 28.515625 68.5 
Q 23.6875 68.5 21.796875 66.546875 
Q 19.921875 64.59375 19.921875 59.515625 
L 19.921875 54.6875 
L 34.71875 54.6875 
L 34.71875 47.703125 
L 19.921875 47.703125 
L 19.921875 0 
L 10.890625 0 
L 10.890625 47.703125 
L 2.296875 47.703125 
L 2.296875 54.6875 
L 10.890625 54.6875 
L 10.890625 58.5 
Q 10.890625 67.625 15.140625 71.796875 
Q 19.390625 75.984375 28.609375 75.984375 
z
" id="DejaVuSans-102"/>
     </defs>
     <g transform="translate(77.425 116.789062)scale(0.1 -0.1)">
      <use xlink:href="#DejaVuSans-79"/>
      <use x="78.710938" xlink:href="#DejaVuSans-120"/>
      <use x="137.890625" xlink:href="#DejaVuSans-102"/>
      <use x="173.095703" xlink:href="#DejaVuSans-111"/>
      <use x="234.277344" xlink:href="#DejaVuSans-114"/>
      <use x="273.640625" xlink:href="#DejaVuSans-100"/>
      <use x="337.117188" xlink:href="#DejaVuSans-115"/>
      <use x="389.216797" xlink:href="#DejaVuSans-104"/>
      <use x="452.595703" xlink:href="#DejaVuSans-105"/>
      <use x="480.378906" xlink:href="#DejaVuSans-114"/>
      <use x="519.242188" xlink:href="#DejaVuSans-101"/>
     </g>
    </g>
    <g id="line2d_34">
     <path d="M 49.425 127.967187 
L 69.425 127.967187 
" style="fill:none;stroke:#e377c2;stroke-linecap:square;stroke-width:1.75;"/>
    </g>
    <g id="line2d_35"/>
    <g id="text_23">
     <!-- Cumbria -->
     <g transform="translate(77.425 131.467187)scale(0.1 -0.1)">
      <use xlink:href="#DejaVuSans-67"/>
      <use x="69.824219" xlink:href="#DejaVuSans-117"/>
      <use x="133.203125" xlink:href="#DejaVuSans-109"/>
      <use x="230.615234" xlink:href="#DejaVuSans-98"/>
      <use x="294.091797" xlink:href="#DejaVuSans-114"/>
      <use x="335.205078" xlink:href="#DejaVuSans-105"/>
      <use x="362.988281" xlink:href="#DejaVuSans-97"/>
     </g>
    </g>
   </g>
  </g>
 </g>
 <defs>
  <clipPath id="p4c265e9360">
   <rect height="268.302246" width="488.775" x="40.425" y="26.8"/>
  </clipPath>
 </defs>
</svg>
