<?xml version="1.0" encoding="utf-8" standalone="no"?>
<!DOCTYPE svg PUBLIC "-//W3C//DTD SVG 1.1//EN"
  "http://www.w3.org/Graphics/SVG/1.1/DTD/svg11.dtd">
<!-- Created with matplotlib (https://matplotlib.org/) -->
<svg height="360pt" version="1.1" viewBox="0 0 540 360" width="540pt" xmlns="http://www.w3.org/2000/svg" xmlns:xlink="http://www.w3.org/1999/xlink">
 <defs>
  <style type="text/css">
*{stroke-linecap:butt;stroke-linejoin:round;}
  </style>
 </defs>
 <g id="figure_1">
  <g id="patch_1">
   <path d="M 0 360 
L 540 360 
L 540 0 
L 0 0 
z
" style="fill:#ffffff;"/>
  </g>
  <g id="axes_1">
   <g id="patch_2">
    <path d="M 44.092633 295.102246 
L 529.2 295.102246 
L 529.2 26.8 
L 44.092633 26.8 
z
" style="fill:#ffffff;"/>
   </g>
   <g id="matplotlib.axis_1">
    <g id="xtick_1">
     <g id="line2d_1">
      <defs>
       <path d="M 0 0 
L 0 3.5 
" id="maf4372a3d1" style="stroke:#000000;"/>
      </defs>
      <g>
       <use style="stroke:#000000;" x="53.333645" xlink:href="#maf4372a3d1" y="295.102246"/>
      </g>
     </g>
     <g id="text_1">
      <!-- 2020-02 -->
      <defs>
       <path d="M 19.1875 8.296875 
L 53.609375 8.296875 
L 53.609375 0 
L 7.328125 0 
L 7.328125 8.296875 
Q 12.9375 14.109375 22.625 23.890625 
Q 32.328125 33.6875 34.8125 36.53125 
Q 39.546875 41.84375 41.421875 45.53125 
Q 43.3125 49.21875 43.3125 52.78125 
Q 43.3125 58.59375 39.234375 62.25 
Q 35.15625 65.921875 28.609375 65.921875 
Q 23.96875 65.921875 18.8125 64.3125 
Q 13.671875 62.703125 7.8125 59.421875 
L 7.8125 69.390625 
Q 13.765625 71.78125 18.9375 73 
Q 24.125 74.21875 28.421875 74.21875 
Q 39.75 74.21875 46.484375 68.546875 
Q 53.21875 62.890625 53.21875 53.421875 
Q 53.21875 48.921875 51.53125 44.890625 
Q 49.859375 40.875 45.40625 35.40625 
Q 44.1875 33.984375 37.640625 27.21875 
Q 31.109375 20.453125 19.1875 8.296875 
z
" id="DejaVuSans-50"/>
       <path d="M 31.78125 66.40625 
Q 24.171875 66.40625 20.328125 58.90625 
Q 16.5 51.421875 16.5 36.375 
Q 16.5 21.390625 20.328125 13.890625 
Q 24.171875 6.390625 31.78125 6.390625 
Q 39.453125 6.390625 43.28125 13.890625 
Q 47.125 21.390625 47.125 36.375 
Q 47.125 51.421875 43.28125 58.90625 
Q 39.453125 66.40625 31.78125 66.40625 
z
M 31.78125 74.21875 
Q 44.046875 74.21875 50.515625 64.515625 
Q 56.984375 54.828125 56.984375 36.375 
Q 56.984375 17.96875 50.515625 8.265625 
Q 44.046875 -1.421875 31.78125 -1.421875 
Q 19.53125 -1.421875 13.0625 8.265625 
Q 6.59375 17.96875 6.59375 36.375 
Q 6.59375 54.828125 13.0625 64.515625 
Q 19.53125 74.21875 31.78125 74.21875 
z
" id="DejaVuSans-48"/>
       <path d="M 4.890625 31.390625 
L 31.203125 31.390625 
L 31.203125 23.390625 
L 4.890625 23.390625 
z
" id="DejaVuSans-45"/>
      </defs>
      <g transform="translate(16.108824 333.074092)rotate(-30)scale(0.1 -0.1)">
       <use xlink:href="#DejaVuSans-50"/>
       <use x="63.623047" xlink:href="#DejaVuSans-48"/>
       <use x="127.246094" xlink:href="#DejaVuSans-50"/>
       <use x="190.869141" xlink:href="#DejaVuSans-48"/>
       <use x="254.492188" xlink:href="#DejaVuSans-45"/>
       <use x="290.576172" xlink:href="#DejaVuSans-48"/>
       <use x="354.199219" xlink:href="#DejaVuSans-50"/>
      </g>
     </g>
    </g>
    <g id="xtick_2">
     <g id="line2d_2">
      <g>
       <use style="stroke:#000000;" x="106.400841" xlink:href="#maf4372a3d1" y="295.102246"/>
      </g>
     </g>
     <g id="text_2">
      <!-- 2020-03 -->
      <defs>
       <path d="M 40.578125 39.3125 
Q 47.65625 37.796875 51.625 33 
Q 55.609375 28.21875 55.609375 21.1875 
Q 55.609375 10.40625 48.1875 4.484375 
Q 40.765625 -1.421875 27.09375 -1.421875 
Q 22.515625 -1.421875 17.65625 -0.515625 
Q 12.796875 0.390625 7.625 2.203125 
L 7.625 11.71875 
Q 11.71875 9.328125 16.59375 8.109375 
Q 21.484375 6.890625 26.8125 6.890625 
Q 36.078125 6.890625 40.9375 10.546875 
Q 45.796875 14.203125 45.796875 21.1875 
Q 45.796875 27.640625 41.28125 31.265625 
Q 36.765625 34.90625 28.71875 34.90625 
L 20.21875 34.90625 
L 20.21875 43.015625 
L 29.109375 43.015625 
Q 36.375 43.015625 40.234375 45.921875 
Q 44.09375 48.828125 44.09375 54.296875 
Q 44.09375 59.90625 40.109375 62.90625 
Q 36.140625 65.921875 28.71875 65.921875 
Q 24.65625 65.921875 20.015625 65.03125 
Q 15.375 64.15625 9.8125 62.3125 
L 9.8125 71.09375 
Q 15.4375 72.65625 20.34375 73.4375 
Q 25.25 74.21875 29.59375 74.21875 
Q 40.828125 74.21875 47.359375 69.109375 
Q 53.90625 64.015625 53.90625 55.328125 
Q 53.90625 49.265625 50.4375 45.09375 
Q 46.96875 40.921875 40.578125 39.3125 
z
" id="DejaVuSans-51"/>
      </defs>
      <g transform="translate(69.17602 333.074092)rotate(-30)scale(0.1 -0.1)">
       <use xlink:href="#DejaVuSans-50"/>
       <use x="63.623047" xlink:href="#DejaVuSans-48"/>
       <use x="127.246094" xlink:href="#DejaVuSans-50"/>
       <use x="190.869141" xlink:href="#DejaVuSans-48"/>
       <use x="254.492188" xlink:href="#DejaVuSans-45"/>
       <use x="290.576172" xlink:href="#DejaVuSans-48"/>
       <use x="354.199219" xlink:href="#DejaVuSans-51"/>
      </g>
     </g>
    </g>
    <g id="xtick_3">
     <g id="line2d_3">
      <g>
       <use style="stroke:#000000;" x="163.127844" xlink:href="#maf4372a3d1" y="295.102246"/>
      </g>
     </g>
     <g id="text_3">
      <!-- 2020-04 -->
      <defs>
       <path d="M 37.796875 64.3125 
L 12.890625 25.390625 
L 37.796875 25.390625 
z
M 35.203125 72.90625 
L 47.609375 72.90625 
L 47.609375 25.390625 
L 58.015625 25.390625 
L 58.015625 17.1875 
L 47.609375 17.1875 
L 47.609375 0 
L 37.796875 0 
L 37.796875 17.1875 
L 4.890625 17.1875 
L 4.890625 26.703125 
z
" id="DejaVuSans-52"/>
      </defs>
      <g transform="translate(125.903023 333.074092)rotate(-30)scale(0.1 -0.1)">
       <use xlink:href="#DejaVuSans-50"/>
       <use x="63.623047" xlink:href="#DejaVuSans-48"/>
       <use x="127.246094" xlink:href="#DejaVuSans-50"/>
       <use x="190.869141" xlink:href="#DejaVuSans-48"/>
       <use x="254.492188" xlink:href="#DejaVuSans-45"/>
       <use x="290.576172" xlink:href="#DejaVuSans-48"/>
       <use x="354.199219" xlink:href="#DejaVuSans-52"/>
      </g>
     </g>
    </g>
    <g id="xtick_4">
     <g id="line2d_4">
      <g>
       <use style="stroke:#000000;" x="218.024943" xlink:href="#maf4372a3d1" y="295.102246"/>
      </g>
     </g>
     <g id="text_4">
      <!-- 2020-05 -->
      <defs>
       <path d="M 10.796875 72.90625 
L 49.515625 72.90625 
L 49.515625 64.59375 
L 19.828125 64.59375 
L 19.828125 46.734375 
Q 21.96875 47.46875 24.109375 47.828125 
Q 26.265625 48.1875 28.421875 48.1875 
Q 40.625 48.1875 47.75 41.5 
Q 54.890625 34.8125 54.890625 23.390625 
Q 54.890625 11.625 47.5625 5.09375 
Q 40.234375 -1.421875 26.90625 -1.421875 
Q 22.3125 -1.421875 17.546875 -0.640625 
Q 12.796875 0.140625 7.71875 1.703125 
L 7.71875 11.625 
Q 12.109375 9.234375 16.796875 8.0625 
Q 21.484375 6.890625 26.703125 6.890625 
Q 35.15625 6.890625 40.078125 11.328125 
Q 45.015625 15.765625 45.015625 23.390625 
Q 45.015625 31 40.078125 35.4375 
Q 35.15625 39.890625 26.703125 39.890625 
Q 22.75 39.890625 18.8125 39.015625 
Q 14.890625 38.140625 10.796875 36.28125 
z
" id="DejaVuSans-53"/>
      </defs>
      <g transform="translate(180.800122 333.074092)rotate(-30)scale(0.1 -0.1)">
       <use xlink:href="#DejaVuSans-50"/>
       <use x="63.623047" xlink:href="#DejaVuSans-48"/>
       <use x="127.246094" xlink:href="#DejaVuSans-50"/>
       <use x="190.869141" xlink:href="#DejaVuSans-48"/>
       <use x="254.492188" xlink:href="#DejaVuSans-45"/>
       <use x="290.576172" xlink:href="#DejaVuSans-48"/>
       <use x="354.199219" xlink:href="#DejaVuSans-53"/>
      </g>
     </g>
    </g>
    <g id="xtick_5">
     <g id="line2d_5">
      <g>
       <use style="stroke:#000000;" x="274.751945" xlink:href="#maf4372a3d1" y="295.102246"/>
      </g>
     </g>
     <g id="text_5">
      <!-- 2020-06 -->
      <defs>
       <path d="M 33.015625 40.375 
Q 26.375 40.375 22.484375 35.828125 
Q 18.609375 31.296875 18.609375 23.390625 
Q 18.609375 15.53125 22.484375 10.953125 
Q 26.375 6.390625 33.015625 6.390625 
Q 39.65625 6.390625 43.53125 10.953125 
Q 47.40625 15.53125 47.40625 23.390625 
Q 47.40625 31.296875 43.53125 35.828125 
Q 39.65625 40.375 33.015625 40.375 
z
M 52.59375 71.296875 
L 52.59375 62.3125 
Q 48.875 64.0625 45.09375 64.984375 
Q 41.3125 65.921875 37.59375 65.921875 
Q 27.828125 65.921875 22.671875 59.328125 
Q 17.53125 52.734375 16.796875 39.40625 
Q 19.671875 43.65625 24.015625 45.921875 
Q 28.375 48.1875 33.59375 48.1875 
Q 44.578125 48.1875 50.953125 41.515625 
Q 57.328125 34.859375 57.328125 23.390625 
Q 57.328125 12.15625 50.6875 5.359375 
Q 44.046875 -1.421875 33.015625 -1.421875 
Q 20.359375 -1.421875 13.671875 8.265625 
Q 6.984375 17.96875 6.984375 36.375 
Q 6.984375 53.65625 15.1875 63.9375 
Q 23.390625 74.21875 37.203125 74.21875 
Q 40.921875 74.21875 44.703125 73.484375 
Q 48.484375 72.75 52.59375 71.296875 
z
" id="DejaVuSans-54"/>
      </defs>
      <g transform="translate(237.527124 333.074092)rotate(-30)scale(0.1 -0.1)">
       <use xlink:href="#DejaVuSans-50"/>
       <use x="63.623047" xlink:href="#DejaVuSans-48"/>
       <use x="127.246094" xlink:href="#DejaVuSans-50"/>
       <use x="190.869141" xlink:href="#DejaVuSans-48"/>
       <use x="254.492188" xlink:href="#DejaVuSans-45"/>
       <use x="290.576172" xlink:href="#DejaVuSans-48"/>
       <use x="354.199219" xlink:href="#DejaVuSans-54"/>
      </g>
     </g>
    </g>
    <g id="xtick_6">
     <g id="line2d_6">
      <g>
       <use style="stroke:#000000;" x="329.649044" xlink:href="#maf4372a3d1" y="295.102246"/>
      </g>
     </g>
     <g id="text_6">
      <!-- 2020-07 -->
      <defs>
       <path d="M 8.203125 72.90625 
L 55.078125 72.90625 
L 55.078125 68.703125 
L 28.609375 0 
L 18.3125 0 
L 43.21875 64.59375 
L 8.203125 64.59375 
z
" id="DejaVuSans-55"/>
      </defs>
      <g transform="translate(292.424224 333.074092)rotate(-30)scale(0.1 -0.1)">
       <use xlink:href="#DejaVuSans-50"/>
       <use x="63.623047" xlink:href="#DejaVuSans-48"/>
       <use x="127.246094" xlink:href="#DejaVuSans-50"/>
       <use x="190.869141" xlink:href="#DejaVuSans-48"/>
       <use x="254.492188" xlink:href="#DejaVuSans-45"/>
       <use x="290.576172" xlink:href="#DejaVuSans-48"/>
       <use x="354.199219" xlink:href="#DejaVuSans-55"/>
      </g>
     </g>
    </g>
    <g id="xtick_7">
     <g id="line2d_7">
      <g>
       <use style="stroke:#000000;" x="386.376047" xlink:href="#maf4372a3d1" y="295.102246"/>
      </g>
     </g>
     <g id="text_7">
      <!-- 2020-08 -->
      <defs>
       <path d="M 31.78125 34.625 
Q 24.75 34.625 20.71875 30.859375 
Q 16.703125 27.09375 16.703125 20.515625 
Q 16.703125 13.921875 20.71875 10.15625 
Q 24.75 6.390625 31.78125 6.390625 
Q 38.8125 6.390625 42.859375 10.171875 
Q 46.921875 13.96875 46.921875 20.515625 
Q 46.921875 27.09375 42.890625 30.859375 
Q 38.875 34.625 31.78125 34.625 
z
M 21.921875 38.8125 
Q 15.578125 40.375 12.03125 44.71875 
Q 8.5 49.078125 8.5 55.328125 
Q 8.5 64.0625 14.71875 69.140625 
Q 20.953125 74.21875 31.78125 74.21875 
Q 42.671875 74.21875 48.875 69.140625 
Q 55.078125 64.0625 55.078125 55.328125 
Q 55.078125 49.078125 51.53125 44.71875 
Q 48 40.375 41.703125 38.8125 
Q 48.828125 37.15625 52.796875 32.3125 
Q 56.78125 27.484375 56.78125 20.515625 
Q 56.78125 9.90625 50.3125 4.234375 
Q 43.84375 -1.421875 31.78125 -1.421875 
Q 19.734375 -1.421875 13.25 4.234375 
Q 6.78125 9.90625 6.78125 20.515625 
Q 6.78125 27.484375 10.78125 32.3125 
Q 14.796875 37.15625 21.921875 38.8125 
z
M 18.3125 54.390625 
Q 18.3125 48.734375 21.84375 45.5625 
Q 25.390625 42.390625 31.78125 42.390625 
Q 38.140625 42.390625 41.71875 45.5625 
Q 45.3125 48.734375 45.3125 54.390625 
Q 45.3125 60.0625 41.71875 63.234375 
Q 38.140625 66.40625 31.78125 66.40625 
Q 25.390625 66.40625 21.84375 63.234375 
Q 18.3125 60.0625 18.3125 54.390625 
z
" id="DejaVuSans-56"/>
      </defs>
      <g transform="translate(349.151226 333.074092)rotate(-30)scale(0.1 -0.1)">
       <use xlink:href="#DejaVuSans-50"/>
       <use x="63.623047" xlink:href="#DejaVuSans-48"/>
       <use x="127.246094" xlink:href="#DejaVuSans-50"/>
       <use x="190.869141" xlink:href="#DejaVuSans-48"/>
       <use x="254.492188" xlink:href="#DejaVuSans-45"/>
       <use x="290.576172" xlink:href="#DejaVuSans-48"/>
       <use x="354.199219" xlink:href="#DejaVuSans-56"/>
      </g>
     </g>
    </g>
    <g id="xtick_8">
     <g id="line2d_8">
      <g>
       <use style="stroke:#000000;" x="443.103049" xlink:href="#maf4372a3d1" y="295.102246"/>
      </g>
     </g>
     <g id="text_8">
      <!-- 2020-09 -->
      <defs>
       <path d="M 10.984375 1.515625 
L 10.984375 10.5 
Q 14.703125 8.734375 18.5 7.8125 
Q 22.3125 6.890625 25.984375 6.890625 
Q 35.75 6.890625 40.890625 13.453125 
Q 46.046875 20.015625 46.78125 33.40625 
Q 43.953125 29.203125 39.59375 26.953125 
Q 35.25 24.703125 29.984375 24.703125 
Q 19.046875 24.703125 12.671875 31.3125 
Q 6.296875 37.9375 6.296875 49.421875 
Q 6.296875 60.640625 12.9375 67.421875 
Q 19.578125 74.21875 30.609375 74.21875 
Q 43.265625 74.21875 49.921875 64.515625 
Q 56.59375 54.828125 56.59375 36.375 
Q 56.59375 19.140625 48.40625 8.859375 
Q 40.234375 -1.421875 26.421875 -1.421875 
Q 22.703125 -1.421875 18.890625 -0.6875 
Q 15.09375 0.046875 10.984375 1.515625 
z
M 30.609375 32.421875 
Q 37.25 32.421875 41.125 36.953125 
Q 45.015625 41.5 45.015625 49.421875 
Q 45.015625 57.28125 41.125 61.84375 
Q 37.25 66.40625 30.609375 66.40625 
Q 23.96875 66.40625 20.09375 61.84375 
Q 16.21875 57.28125 16.21875 49.421875 
Q 16.21875 41.5 20.09375 36.953125 
Q 23.96875 32.421875 30.609375 32.421875 
z
" id="DejaVuSans-57"/>
      </defs>
      <g transform="translate(405.878229 333.074092)rotate(-30)scale(0.1 -0.1)">
       <use xlink:href="#DejaVuSans-50"/>
       <use x="63.623047" xlink:href="#DejaVuSans-48"/>
       <use x="127.246094" xlink:href="#DejaVuSans-50"/>
       <use x="190.869141" xlink:href="#DejaVuSans-48"/>
       <use x="254.492188" xlink:href="#DejaVuSans-45"/>
       <use x="290.576172" xlink:href="#DejaVuSans-48"/>
       <use x="354.199219" xlink:href="#DejaVuSans-57"/>
      </g>
     </g>
    </g>
    <g id="xtick_9">
     <g id="line2d_9">
      <g>
       <use style="stroke:#000000;" x="498.000149" xlink:href="#maf4372a3d1" y="295.102246"/>
      </g>
     </g>
     <g id="text_9">
      <!-- 2020-10 -->
      <defs>
       <path d="M 12.40625 8.296875 
L 28.515625 8.296875 
L 28.515625 63.921875 
L 10.984375 60.40625 
L 10.984375 69.390625 
L 28.421875 72.90625 
L 38.28125 72.90625 
L 38.28125 8.296875 
L 54.390625 8.296875 
L 54.390625 0 
L 12.40625 0 
z
" id="DejaVuSans-49"/>
      </defs>
      <g transform="translate(460.775328 333.074092)rotate(-30)scale(0.1 -0.1)">
       <use xlink:href="#DejaVuSans-50"/>
       <use x="63.623047" xlink:href="#DejaVuSans-48"/>
       <use x="127.246094" xlink:href="#DejaVuSans-50"/>
       <use x="190.869141" xlink:href="#DejaVuSans-48"/>
       <use x="254.492188" xlink:href="#DejaVuSans-45"/>
       <use x="290.576172" xlink:href="#DejaVuSans-49"/>
       <use x="354.199219" xlink:href="#DejaVuSans-48"/>
      </g>
     </g>
    </g>
    <g id="text_10">
     <!-- Date -->
     <defs>
      <path d="M 19.671875 64.796875 
L 19.671875 8.109375 
L 31.59375 8.109375 
Q 46.6875 8.109375 53.6875 14.9375 
Q 60.6875 21.78125 60.6875 36.53125 
Q 60.6875 51.171875 53.6875 57.984375 
Q 46.6875 64.796875 31.59375 64.796875 
z
M 9.8125 72.90625 
L 30.078125 72.90625 
Q 51.265625 72.90625 61.171875 64.09375 
Q 71.09375 55.28125 71.09375 36.53125 
Q 71.09375 17.671875 61.125 8.828125 
Q 51.171875 0 30.078125 0 
L 9.8125 0 
z
" id="DejaVuSans-68"/>
      <path d="M 34.28125 27.484375 
Q 23.390625 27.484375 19.1875 25 
Q 14.984375 22.515625 14.984375 16.5 
Q 14.984375 11.71875 18.140625 8.90625 
Q 21.296875 6.109375 26.703125 6.109375 
Q 34.1875 6.109375 38.703125 11.40625 
Q 43.21875 16.703125 43.21875 25.484375 
L 43.21875 27.484375 
z
M 52.203125 31.203125 
L 52.203125 0 
L 43.21875 0 
L 43.21875 8.296875 
Q 40.140625 3.328125 35.546875 0.953125 
Q 30.953125 -1.421875 24.3125 -1.421875 
Q 15.921875 -1.421875 10.953125 3.296875 
Q 6 8.015625 6 15.921875 
Q 6 25.140625 12.171875 29.828125 
Q 18.359375 34.515625 30.609375 34.515625 
L 43.21875 34.515625 
L 43.21875 35.40625 
Q 43.21875 41.609375 39.140625 45 
Q 35.0625 48.390625 27.6875 48.390625 
Q 23 48.390625 18.546875 47.265625 
Q 14.109375 46.140625 10.015625 43.890625 
L 10.015625 52.203125 
Q 14.9375 54.109375 19.578125 55.046875 
Q 24.21875 56 28.609375 56 
Q 40.484375 56 46.34375 49.84375 
Q 52.203125 43.703125 52.203125 31.203125 
z
" id="DejaVuSans-97"/>
      <path d="M 18.3125 70.21875 
L 18.3125 54.6875 
L 36.8125 54.6875 
L 36.8125 47.703125 
L 18.3125 47.703125 
L 18.3125 18.015625 
Q 18.3125 11.328125 20.140625 9.421875 
Q 21.96875 7.515625 27.59375 7.515625 
L 36.8125 7.515625 
L 36.8125 0 
L 27.59375 0 
Q 17.1875 0 13.234375 3.875 
Q 9.28125 7.765625 9.28125 18.015625 
L 9.28125 47.703125 
L 2.6875 47.703125 
L 2.6875 54.6875 
L 9.28125 54.6875 
L 9.28125 70.21875 
z
" id="DejaVuSans-116"/>
      <path d="M 56.203125 29.59375 
L 56.203125 25.203125 
L 14.890625 25.203125 
Q 15.484375 15.921875 20.484375 11.0625 
Q 25.484375 6.203125 34.421875 6.203125 
Q 39.59375 6.203125 44.453125 7.46875 
Q 49.3125 8.734375 54.109375 11.28125 
L 54.109375 2.78125 
Q 49.265625 0.734375 44.1875 -0.34375 
Q 39.109375 -1.421875 33.890625 -1.421875 
Q 20.796875 -1.421875 13.15625 6.1875 
Q 5.515625 13.8125 5.515625 26.8125 
Q 5.515625 40.234375 12.765625 48.109375 
Q 20.015625 56 32.328125 56 
Q 43.359375 56 49.78125 48.890625 
Q 56.203125 41.796875 56.203125 29.59375 
z
M 47.21875 32.234375 
Q 47.125 39.59375 43.09375 43.984375 
Q 39.0625 48.390625 32.421875 48.390625 
Q 24.90625 48.390625 20.390625 44.140625 
Q 15.875 39.890625 15.1875 32.171875 
z
" id="DejaVuSans-101"/>
     </defs>
     <g transform="translate(273.500457 347.233436)scale(0.11 -0.11)">
      <use xlink:href="#DejaVuSans-68"/>
      <use x="77.001953" xlink:href="#DejaVuSans-97"/>
      <use x="138.28125" xlink:href="#DejaVuSans-116"/>
      <use x="177.490234" xlink:href="#DejaVuSans-101"/>
     </g>
    </g>
   </g>
   <g id="matplotlib.axis_2">
    <g id="ytick_1">
     <g id="line2d_10">
      <defs>
       <path d="M 0 0 
L -3.5 0 
" id="mf13bffa386" style="stroke:#000000;"/>
      </defs>
      <g>
       <use style="stroke:#000000;" x="44.092633" xlink:href="#mf13bffa386" y="282.906689"/>
      </g>
     </g>
     <g id="text_11">
      <!-- 0 -->
      <g transform="translate(27.230133 286.705908)scale(0.1 -0.1)">
       <use xlink:href="#DejaVuSans-48"/>
      </g>
     </g>
    </g>
    <g id="ytick_2">
     <g id="line2d_11">
      <g>
       <use style="stroke:#000000;" x="44.092633" xlink:href="#mf13bffa386" y="250.705919"/>
      </g>
     </g>
     <g id="text_12">
      <!-- 50 -->
      <g transform="translate(20.867633 254.505138)scale(0.1 -0.1)">
       <use xlink:href="#DejaVuSans-53"/>
       <use x="63.623047" xlink:href="#DejaVuSans-48"/>
      </g>
     </g>
    </g>
    <g id="ytick_3">
     <g id="line2d_12">
      <g>
       <use style="stroke:#000000;" x="44.092633" xlink:href="#mf13bffa386" y="218.505149"/>
      </g>
     </g>
     <g id="text_13">
      <!-- 100 -->
      <g transform="translate(14.505133 222.304368)scale(0.1 -0.1)">
       <use xlink:href="#DejaVuSans-49"/>
       <use x="63.623047" xlink:href="#DejaVuSans-48"/>
       <use x="127.246094" xlink:href="#DejaVuSans-48"/>
      </g>
     </g>
    </g>
    <g id="ytick_4">
     <g id="line2d_13">
      <g>
       <use style="stroke:#000000;" x="44.092633" xlink:href="#mf13bffa386" y="186.304379"/>
      </g>
     </g>
     <g id="text_14">
      <!-- 150 -->
      <g transform="translate(14.505133 190.103598)scale(0.1 -0.1)">
       <use xlink:href="#DejaVuSans-49"/>
       <use x="63.623047" xlink:href="#DejaVuSans-53"/>
       <use x="127.246094" xlink:href="#DejaVuSans-48"/>
      </g>
     </g>
    </g>
    <g id="ytick_5">
     <g id="line2d_14">
      <g>
       <use style="stroke:#000000;" x="44.092633" xlink:href="#mf13bffa386" y="154.103609"/>
      </g>
     </g>
     <g id="text_15">
      <!-- 200 -->
      <g transform="translate(14.505133 157.902828)scale(0.1 -0.1)">
       <use xlink:href="#DejaVuSans-50"/>
       <use x="63.623047" xlink:href="#DejaVuSans-48"/>
       <use x="127.246094" xlink:href="#DejaVuSans-48"/>
      </g>
     </g>
    </g>
    <g id="ytick_6">
     <g id="line2d_15">
      <g>
       <use style="stroke:#000000;" x="44.092633" xlink:href="#mf13bffa386" y="121.902839"/>
      </g>
     </g>
     <g id="text_16">
      <!-- 250 -->
      <g transform="translate(14.505133 125.702058)scale(0.1 -0.1)">
       <use xlink:href="#DejaVuSans-50"/>
       <use x="63.623047" xlink:href="#DejaVuSans-53"/>
       <use x="127.246094" xlink:href="#DejaVuSans-48"/>
      </g>
     </g>
    </g>
    <g id="ytick_7">
     <g id="line2d_16">
      <g>
       <use style="stroke:#000000;" x="44.092633" xlink:href="#mf13bffa386" y="89.702069"/>
      </g>
     </g>
     <g id="text_17">
      <!-- 300 -->
      <g transform="translate(14.505133 93.501288)scale(0.1 -0.1)">
       <use xlink:href="#DejaVuSans-51"/>
       <use x="63.623047" xlink:href="#DejaVuSans-48"/>
       <use x="127.246094" xlink:href="#DejaVuSans-48"/>
      </g>
     </g>
    </g>
    <g id="ytick_8">
     <g id="line2d_17">
      <g>
       <use style="stroke:#000000;" x="44.092633" xlink:href="#mf13bffa386" y="57.501299"/>
      </g>
     </g>
     <g id="text_18">
      <!-- 350 -->
      <g transform="translate(14.505133 61.300517)scale(0.1 -0.1)">
       <use xlink:href="#DejaVuSans-51"/>
       <use x="63.623047" xlink:href="#DejaVuSans-53"/>
       <use x="127.246094" xlink:href="#DejaVuSans-48"/>
      </g>
     </g>
    </g>
   </g>
   <g id="line2d_18">
    <path clip-path="url(#pf5dfdf2bcb)" d="M 119.210164 282.638517 
L 121.040068 282.906689 
L 124.699874 281.833999 
L 126.529777 281.565827 
L 130.189584 281.565827 
L 133.849391 280.493137 
L 135.679294 280.76131 
L 137.509197 280.76131 
L 141.169004 279.152275 
L 142.998907 278.61593 
L 144.82881 278.347757 
L 150.31852 275.934205 
L 152.148424 275.666032 
L 153.978327 271.911618 
L 155.80823 269.498065 
L 157.638134 264.134616 
L 159.468037 261.184719 
L 161.29794 257.430304 
L 163.127844 250.994164 
L 164.957747 245.362542 
L 168.617553 234.903816 
L 170.447457 232.490263 
L 172.27736 228.467676 
L 174.107263 225.249607 
L 175.937167 225.517779 
L 177.76707 225.249607 
L 179.596973 228.199504 
L 181.426877 232.490263 
L 183.25678 233.831126 
L 185.086683 238.121885 
L 186.916587 240.267265 
L 188.74649 241.8763 
L 190.576393 241.339955 
L 192.406296 239.73092 
L 194.2362 237.317368 
L 196.066103 238.121885 
L 197.896006 236.244678 
L 199.72591 230.613056 
L 201.555813 229.004021 
L 203.385716 229.004021 
L 205.21562 230.881229 
L 207.045523 230.881229 
L 208.875426 232.758436 
L 210.70533 228.735849 
L 214.365136 226.590469 
L 216.195039 225.785951 
L 218.024943 222.299709 
L 219.854846 222.031537 
L 221.684749 219.617984 
L 223.514653 223.372399 
L 225.344556 228.735849 
L 227.174459 228.199504 
L 229.004363 231.417574 
L 230.834266 230.344884 
L 232.664169 232.222091 
L 234.494073 233.562953 
L 236.323976 230.613056 
L 238.153879 229.272194 
L 239.983782 229.808539 
L 241.813686 226.322296 
L 243.643589 231.149401 
L 245.473492 229.808539 
L 247.303396 230.076711 
L 250.963202 232.222091 
L 252.793106 233.026608 
L 254.623009 238.926403 
L 256.452912 239.999093 
L 258.282815 240.80361 
L 260.112719 241.8763 
L 261.942622 247.776095 
L 263.772525 248.31244 
L 265.602429 252.335027 
L 267.432332 248.580612 
L 269.262235 247.776095 
L 271.092139 250.994164 
L 272.922042 252.066854 
L 274.751945 248.848785 
L 276.581849 252.066854 
L 278.411752 253.139544 
L 280.241655 256.357614 
L 282.071558 260.916546 
L 283.901462 260.112029 
L 285.731365 261.452891 
L 287.561268 265.207306 
L 289.391172 267.352686 
L 291.221075 267.889031 
L 293.050978 269.766238 
L 294.880882 268.693548 
L 296.710785 269.229893 
L 298.540688 269.498065 
L 300.370592 268.96172 
L 302.200495 267.889031 
L 304.030398 267.889031 
L 305.860301 268.157203 
L 307.690205 268.693548 
L 309.520108 270.838928 
L 311.350011 271.375273 
L 313.179915 272.984308 
L 315.009818 274.32517 
L 316.839721 274.593343 
L 318.669625 272.984308 
L 320.499528 274.056998 
L 322.329431 273.520653 
L 324.159335 273.520653 
L 325.989238 271.1071 
L 327.819141 270.570755 
L 329.649044 271.1071 
L 331.478948 272.984308 
L 333.308851 273.25248 
L 335.138754 271.643445 
L 336.968658 271.375273 
L 338.798561 274.32517 
L 340.628464 275.39786 
L 342.458368 274.593343 
L 344.288271 271.911618 
L 346.118174 271.643445 
L 347.948078 273.520653 
L 349.777981 274.056998 
L 351.607884 274.056998 
L 353.437787 272.984308 
L 355.267691 274.32517 
L 357.097594 276.47055 
L 360.757401 276.47055 
L 362.587304 277.006895 
L 364.417207 275.934205 
L 366.247111 277.006895 
L 368.077014 277.811412 
L 369.906917 278.884102 
L 371.73682 278.079585 
L 373.566724 277.811412 
L 377.22653 276.738722 
L 379.056434 277.006895 
L 380.886337 276.202377 
L 382.71624 275.934205 
L 384.546144 275.39786 
L 386.376047 275.666032 
L 390.035854 277.275067 
L 393.69566 276.202377 
L 395.525563 275.934205 
L 397.355467 277.275067 
L 399.18537 277.54324 
L 401.015273 277.54324 
L 402.845177 277.275067 
L 404.67508 277.54324 
L 406.504983 278.884102 
L 408.334887 277.811412 
L 410.16479 277.54324 
L 411.994693 277.006895 
L 413.824597 277.006895 
L 415.6545 277.275067 
L 417.484403 277.275067 
L 419.314306 275.129687 
L 421.14421 275.39786 
L 422.974113 275.934205 
L 426.63392 274.861515 
L 428.463823 274.593343 
L 430.293726 275.129687 
L 432.12363 275.129687 
L 433.953533 276.202377 
L 435.783436 275.934205 
L 437.61334 275.934205 
L 439.443243 275.666032 
L 441.273146 274.593343 
L 443.103049 272.716135 
L 444.932953 271.375273 
L 446.762856 268.425376 
L 448.592759 267.620858 
L 450.422663 265.475478 
L 452.252566 264.670961 
L 454.082469 259.843856 
L 455.912373 257.966649 
L 457.742276 258.234821 
L 459.572179 256.893959 
L 461.402082 253.675889 
L 463.231986 254.212234 
L 465.061889 254.480407 
L 466.891792 256.893959 
L 468.721696 257.162131 
L 470.551599 252.603199 
L 472.381502 252.871372 
L 474.211406 250.994164 
L 476.041309 246.16706 
L 477.871212 241.8763 
L 479.701116 238.121885 
L 481.531019 232.758436 
L 483.360922 231.149401 
L 488.850632 218.813467 
L 490.680535 211.57281 
L 492.510439 208.622913 
L 494.340342 200.845911 
L 496.170245 187.169115 
L 498.000149 177.246733 
L 499.830052 164.642626 
L 501.659955 159.815522 
L 503.489859 150.96583 
L 505.319762 138.898069 
L 507.149665 134.070964 
L 507.149665 134.070964 
" style="fill:none;stroke:#1f77b4;stroke-linecap:square;stroke-width:1.75;"/>
   </g>
   <g id="line2d_19">
    <path clip-path="url(#pf5dfdf2bcb)" d="M 135.679294 280.828858 
L 137.509197 279.789943 
L 139.339101 278.491298 
L 141.169004 278.23157 
L 142.998907 276.932925 
L 144.82881 275.114823 
L 146.658714 272.777263 
L 148.488617 268.361872 
L 150.31852 268.361872 
L 152.148424 266.54377 
L 155.80823 263.427024 
L 159.468037 266.54377 
L 161.29794 264.725668 
L 163.127844 257.45326 
L 164.957747 254.596242 
L 166.78765 249.921122 
L 168.617553 248.882207 
L 170.447457 243.947358 
L 172.27736 238.493052 
L 174.107263 239.01251 
L 175.937167 242.388985 
L 177.76707 240.570883 
L 179.596973 242.129256 
L 181.426877 241.609799 
L 183.25678 240.570883 
L 185.086683 244.726545 
L 186.916587 247.583563 
L 188.74649 248.882207 
L 190.576393 254.336513 
L 192.406296 256.414344 
L 194.2362 256.154615 
L 196.066103 255.375429 
L 197.896006 250.700309 
L 199.72591 249.401665 
L 201.555813 245.765461 
L 203.385716 242.648714 
L 205.21562 236.155492 
L 207.045523 235.376306 
L 208.875426 240.570883 
L 210.70533 238.493052 
L 212.535233 235.116577 
L 214.365136 233.038746 
L 216.195039 227.844168 
L 218.024943 233.298475 
L 219.854846 236.155492 
L 221.684749 233.558203 
L 223.514653 233.558203 
L 225.344556 235.376306 
L 227.174459 230.701186 
L 229.004363 233.817932 
L 230.834266 229.142813 
L 232.664169 227.064982 
L 234.494073 224.207964 
L 236.323976 224.987151 
L 238.153879 221.350946 
L 239.983782 225.766337 
L 241.813686 226.026066 
L 243.643589 223.688506 
L 245.473492 212.779894 
L 247.303396 211.22152 
L 249.133299 210.961792 
L 250.963202 209.143689 
L 252.793106 208.364503 
L 254.623009 202.390739 
L 256.452912 207.585316 
L 258.282815 215.117454 
L 260.112719 218.493929 
L 261.942622 220.57176 
L 263.772525 226.026066 
L 265.602429 228.103897 
L 267.432332 232.779017 
L 269.262235 231.99983 
L 271.092139 234.597119 
L 272.922042 232.779017 
L 274.751945 227.844168 
L 276.581849 216.675827 
L 278.411752 217.974471 
L 280.241655 217.195285 
L 282.071558 216.675827 
L 283.901462 215.89664 
L 285.731365 210.961792 
L 287.561268 207.325587 
L 289.391172 208.104774 
L 291.221075 200.053179 
L 293.050978 189.923753 
L 294.880882 182.651344 
L 296.710785 173.820563 
L 298.540688 169.92463 
L 300.370592 165.24951 
L 302.200495 163.171679 
L 304.030398 160.834119 
L 305.860301 161.353577 
L 307.690205 155.379813 
L 309.520108 153.042253 
L 311.350011 152.003337 
L 313.179915 148.367133 
L 315.009818 143.692013 
L 316.839721 136.159876 
L 318.669625 136.419605 
L 320.499528 138.497436 
L 322.329431 142.393369 
L 324.159335 150.444964 
L 325.989238 153.301982 
L 327.819141 161.353577 
L 329.649044 168.366256 
L 331.478948 172.521918 
L 333.308851 174.599749 
L 335.138754 177.716496 
L 336.968658 166.288425 
L 338.798561 166.548154 
L 340.628464 167.067612 
L 342.458368 169.405172 
L 344.288271 172.781647 
L 346.118174 171.742732 
L 347.948078 166.807883 
L 349.777981 180.573513 
L 351.607884 188.105651 
L 353.437787 193.040499 
L 355.267691 198.754535 
L 357.097594 198.235077 
L 358.927497 206.546401 
L 360.757401 213.039623 
L 362.587304 214.857725 
L 364.417207 219.532844 
L 366.247111 222.389862 
L 368.077014 220.312031 
L 369.906917 221.350946 
L 371.73682 222.649591 
L 373.566724 227.844168 
L 375.396627 228.363626 
L 377.22653 224.987151 
L 379.056434 227.324711 
L 380.886337 229.402542 
L 382.71624 229.66227 
L 384.546144 232.779017 
L 386.376047 229.142813 
L 388.20595 230.181728 
L 390.035854 233.298475 
L 391.865757 231.220644 
L 393.69566 229.66227 
L 395.525563 228.363626 
L 397.355467 223.428777 
L 399.18537 220.831489 
L 401.015273 219.013387 
L 402.845177 218.2342 
L 404.67508 217.974471 
L 406.504983 223.428777 
L 408.334887 227.064982 
L 410.16479 229.142813 
L 411.994693 234.597119 
L 413.824597 236.934679 
L 415.6545 233.558203 
L 417.484403 231.99983 
L 419.314306 233.558203 
L 421.14421 236.415221 
L 422.974113 237.973594 
L 424.804016 240.311154 
L 426.63392 240.570883 
L 428.463823 248.882207 
L 430.293726 254.855971 
L 432.12363 256.414344 
L 433.953533 258.492175 
L 435.783436 259.271362 
L 437.61334 259.011633 
L 439.443243 259.011633 
L 441.273146 259.531091 
L 443.103049 254.336513 
L 444.932953 246.284918 
L 446.762856 242.129256 
L 448.592759 236.934679 
L 450.422663 230.441457 
L 452.252566 226.805253 
L 454.082469 215.636911 
L 455.912373 209.143689 
L 457.742276 205.247756 
L 459.572179 202.650468 
L 461.402082 200.312908 
L 463.231986 198.235077 
L 465.061889 197.715619 
L 466.891792 200.312908 
L 468.721696 200.832366 
L 470.551599 202.13101 
L 472.381502 196.157246 
L 474.211406 189.664024 
L 476.041309 181.612429 
L 477.871212 178.755411 
L 479.701116 173.041376 
L 481.531019 170.444087 
L 483.360922 168.625985 
L 485.190825 171.742732 
L 487.020729 176.937309 
L 488.850632 180.054056 
L 490.680535 180.313785 
L 492.510439 184.988904 
L 494.340342 181.872158 
L 496.170245 177.456767 
L 498.000149 169.405172 
L 499.830052 158.756288 
L 501.659955 160.57439 
L 503.489859 154.340897 
L 505.319762 147.587947 
L 507.149665 148.107404 
L 507.149665 148.107404 
" style="fill:none;stroke:#ff7f0e;stroke-linecap:square;stroke-width:1.75;"/>
   </g>
   <g id="line2d_20">
    <path clip-path="url(#pf5dfdf2bcb)" d="M 139.339101 280.338661 
L 142.998907 280.338661 
L 144.82881 280.053324 
L 148.488617 276.629286 
L 150.31852 274.63193 
L 152.148424 271.778564 
L 153.978327 270.066545 
L 155.80823 267.21318 
L 157.638134 266.35717 
L 159.468037 266.35717 
L 161.29794 263.789141 
L 163.127844 254.658372 
L 164.957747 250.948997 
L 170.447457 237.252844 
L 172.27736 231.260777 
L 174.107263 227.266065 
L 175.937167 228.692748 
L 177.76707 225.554046 
L 179.596973 225.268709 
L 183.25678 217.279286 
L 185.086683 216.423277 
L 186.916587 214.711258 
L 188.74649 217.564623 
L 190.576393 214.711258 
L 192.406296 210.431209 
L 194.2362 207.007171 
L 196.066103 207.577844 
L 197.896006 207.577844 
L 199.72591 208.148517 
L 201.555813 203.583133 
L 203.385716 208.148517 
L 205.21562 206.151161 
L 207.045523 214.996594 
L 208.875426 220.417988 
L 210.70533 220.417988 
L 212.535233 223.271354 
L 214.365136 226.410055 
L 216.195039 221.273998 
L 218.024943 226.695392 
L 219.854846 228.407411 
L 221.684749 228.692748 
L 223.514653 232.972796 
L 225.344556 235.826161 
L 227.174459 234.970151 
L 229.004363 241.247555 
L 230.834266 244.671594 
L 232.664169 245.81294 
L 234.494073 245.81294 
L 236.323976 239.2502 
L 238.153879 236.682171 
L 239.983782 242.674238 
L 241.813686 247.239622 
L 243.643589 249.236978 
L 245.473492 249.807651 
L 247.303396 252.661017 
L 249.133299 261.506449 
L 250.963202 266.642507 
L 252.793106 268.354526 
L 254.623009 268.06919 
L 256.452912 268.925199 
L 258.282815 271.207891 
L 260.112719 270.351882 
L 261.942622 269.781209 
L 263.772525 270.351882 
L 265.602429 265.501161 
L 267.432332 265.786497 
L 269.262235 265.215824 
L 271.092139 261.791786 
L 272.922042 262.933132 
L 274.751945 263.218468 
L 276.581849 262.933132 
L 278.411752 268.925199 
L 280.241655 270.351882 
L 282.071558 272.349238 
L 283.901462 273.77592 
L 285.731365 273.77592 
L 287.561268 275.773276 
L 289.391172 275.487939 
L 291.221075 274.061257 
L 293.050978 275.487939 
L 294.880882 274.63193 
L 296.710785 275.773276 
L 298.540688 275.487939 
L 300.370592 275.487939 
L 302.200495 276.914622 
L 304.030398 277.485295 
L 305.860301 277.199959 
L 307.690205 277.485295 
L 309.520108 278.341305 
L 311.350011 279.767987 
L 313.179915 279.482651 
L 315.009818 279.482651 
L 316.839721 280.623997 
L 318.669625 280.623997 
L 320.499528 280.909334 
L 322.329431 280.909334 
L 324.159335 280.338661 
L 325.989238 280.053324 
L 327.819141 280.053324 
L 329.649044 280.338661 
L 331.478948 280.053324 
L 333.308851 280.338661 
L 335.138754 279.767987 
L 338.798561 280.338661 
L 342.458368 280.338661 
L 344.288271 280.623997 
L 346.118174 280.623997 
L 349.777981 281.19467 
L 351.607884 282.05068 
L 353.437787 282.336016 
L 357.097594 281.765343 
L 358.927497 281.19467 
L 360.757401 281.480007 
L 362.587304 281.480007 
L 364.417207 280.909334 
L 366.247111 280.623997 
L 369.906917 280.623997 
L 371.73682 281.19467 
L 375.396627 281.19467 
L 377.22653 281.765343 
L 379.056434 281.765343 
L 382.71624 282.336016 
L 386.376047 282.336016 
L 390.035854 281.19467 
L 391.865757 281.480007 
L 393.69566 281.19467 
L 397.355467 281.19467 
L 399.18537 280.909334 
L 401.015273 281.480007 
L 402.845177 281.480007 
L 404.67508 280.053324 
L 406.504983 278.055968 
L 408.334887 277.485295 
L 410.16479 277.485295 
L 411.994693 277.770632 
L 415.6545 276.629286 
L 417.484403 277.770632 
L 419.314306 277.770632 
L 421.14421 276.629286 
L 422.974113 274.917266 
L 424.804016 272.063901 
L 426.63392 272.063901 
L 428.463823 272.919911 
L 430.293726 272.349238 
L 432.12363 273.490584 
L 433.953533 274.346593 
L 435.783436 275.487939 
L 437.61334 275.773276 
L 439.443243 274.63193 
L 441.273146 272.919911 
L 443.103049 268.925199 
L 444.932953 267.498516 
L 446.762856 265.501161 
L 448.592759 263.789141 
L 450.422663 264.359815 
L 452.252566 263.503805 
L 454.082469 262.362459 
L 455.912373 264.359815 
L 457.742276 262.933132 
L 459.572179 260.079767 
L 461.402082 258.082411 
L 463.231986 258.082411 
L 465.061889 256.655728 
L 466.891792 253.517026 
L 468.721696 250.092988 
L 470.551599 242.959574 
L 472.381502 236.967507 
L 474.211406 226.980729 
L 476.041309 218.991306 
L 477.871212 205.580488 
L 479.701116 189.316306 
L 481.531019 176.190825 
L 483.360922 157.358614 
L 485.190825 147.371835 
L 487.020729 140.523758 
L 488.850632 127.112941 
L 490.680535 125.971595 
L 492.510439 123.403566 
L 494.340342 120.550201 
L 496.170245 127.398278 
L 498.000149 123.974239 
L 499.830052 120.264865 
L 501.659955 122.832893 
L 503.489859 117.411499 
L 505.319762 115.128807 
L 507.149665 113.987461 
L 507.149665 113.987461 
" style="fill:none;stroke:#2ca02c;stroke-linecap:square;stroke-width:1.75;"/>
   </g>
   <g id="line2d_21">
    <path clip-path="url(#pf5dfdf2bcb)" d="M 121.040068 282.460116 
L 122.869971 282.311258 
L 124.699874 282.311258 
L 126.529777 281.864684 
L 130.189584 281.566969 
L 132.019487 281.566969 
L 133.849391 281.269253 
L 135.679294 281.269253 
L 137.509197 280.822679 
L 139.339101 280.822679 
L 141.169004 279.929532 
L 142.998907 278.440953 
L 144.82881 278.143238 
L 146.658714 276.654659 
L 148.488617 275.612654 
L 152.148424 272.933212 
L 153.978327 271.444634 
L 155.80823 271.146918 
L 157.638134 269.360623 
L 159.468037 266.681182 
L 161.29794 265.192603 
L 163.127844 262.215446 
L 164.957747 261.173441 
L 168.617553 257.00542 
L 170.447457 255.814557 
L 172.27736 256.112273 
L 174.107263 254.177121 
L 175.937167 254.623695 
L 177.76707 253.581689 
L 179.596973 254.325979 
L 181.426877 254.772552 
L 183.25678 254.028263 
L 185.086683 254.325979 
L 186.916587 256.707705 
L 188.74649 254.474837 
L 190.576393 253.581689 
L 192.406296 253.730547 
L 194.2362 253.432832 
L 196.066103 251.199964 
L 197.896006 248.222806 
L 199.72591 245.692223 
L 201.555813 245.84108 
L 203.385716 242.268492 
L 205.21562 236.76075 
L 207.045523 236.016461 
L 208.875426 232.295014 
L 210.70533 231.699583 
L 212.535233 229.168999 
L 214.365136 222.768111 
L 216.195039 222.17268 
L 218.024943 223.661258 
L 219.854846 222.470395 
L 221.684749 226.489558 
L 223.514653 227.382705 
L 225.344556 226.191842 
L 227.174459 231.401867 
L 229.004363 228.573568 
L 230.834266 230.955294 
L 232.664169 231.997299 
L 234.494073 233.33702 
L 238.153879 236.909608 
L 239.983782 239.737908 
L 241.813686 246.883085 
L 243.643589 249.115953 
L 245.473492 251.795395 
L 247.303396 253.581689 
L 249.133299 256.707705 
L 250.963202 258.493999 
L 252.793106 260.578009 
L 254.623009 260.875725 
L 256.452912 261.322299 
L 258.282815 259.982578 
L 260.112719 261.173441 
L 261.942622 260.578009 
L 263.772525 263.406309 
L 265.602429 261.91773 
L 267.432332 261.024583 
L 269.262235 261.768872 
L 271.092139 262.215446 
L 272.922042 261.173441 
L 274.751945 262.662019 
L 276.581849 263.108593 
L 278.411752 266.234608 
L 280.241655 270.104913 
L 282.071558 270.700344 
L 283.901462 273.379786 
L 285.731365 275.463796 
L 287.561268 276.059227 
L 289.391172 277.101233 
L 291.221075 275.314938 
L 293.050978 275.612654 
L 294.880882 275.612654 
L 296.710785 273.379786 
L 298.540688 272.784354 
L 300.370592 270.104913 
L 302.200495 269.509481 
L 304.030398 270.104913 
L 305.860301 268.765192 
L 307.690205 269.360623 
L 309.520108 270.253771 
L 311.350011 270.253771 
L 313.179915 271.742349 
L 315.009818 271.891207 
L 316.839721 273.379786 
L 318.669625 275.017222 
L 320.499528 275.761512 
L 322.329431 277.101233 
L 324.159335 277.696664 
L 325.989238 278.589811 
L 327.819141 279.185243 
L 331.478948 279.780674 
L 333.308851 279.631816 
L 336.968658 279.929532 
L 338.798561 280.376106 
L 340.628464 280.673821 
L 342.458368 280.524963 
L 346.118174 280.524963 
L 347.948078 280.673821 
L 349.777981 280.971537 
L 351.607884 280.376106 
L 353.437787 280.227248 
L 355.267691 280.822679 
L 357.097594 281.120395 
L 358.927497 281.120395 
L 360.757401 280.971537 
L 362.587304 281.120395 
L 366.247111 282.013542 
L 368.077014 281.418111 
L 369.906917 281.418111 
L 371.73682 280.971537 
L 375.396627 280.376106 
L 377.22653 280.524963 
L 379.056434 279.631816 
L 380.886337 279.036385 
L 382.71624 279.036385 
L 386.376047 279.631816 
L 388.20595 279.334101 
L 390.035854 279.334101 
L 391.865757 279.185243 
L 393.69566 279.334101 
L 395.525563 278.589811 
L 397.355467 278.440953 
L 399.18537 278.440953 
L 401.015273 278.589811 
L 402.845177 277.547806 
L 404.67508 277.696664 
L 406.504983 277.547806 
L 408.334887 277.25009 
L 410.16479 275.612654 
L 411.994693 275.463796 
L 415.6545 275.463796 
L 417.484403 275.16608 
L 419.314306 275.463796 
L 421.14421 275.612654 
L 422.974113 277.398948 
L 424.804016 277.398948 
L 426.63392 277.547806 
L 430.293726 278.738669 
L 432.12363 278.887527 
L 433.953533 277.547806 
L 435.783436 277.101233 
L 437.61334 276.059227 
L 439.443243 275.91037 
L 441.273146 275.017222 
L 444.932953 268.467476 
L 446.762856 265.490319 
L 448.592759 261.173441 
L 450.422663 259.387146 
L 452.252566 256.112273 
L 454.082469 249.711385 
L 455.912373 248.66938 
L 457.742276 248.967096 
L 459.572179 249.115953 
L 461.402082 250.604532 
L 463.231986 251.795395 
L 465.061889 251.199964 
L 466.891792 254.92141 
L 468.721696 256.112273 
L 470.551599 254.325979 
L 472.381502 252.986258 
L 474.211406 252.986258 
L 477.871212 246.883085 
L 479.701116 243.310497 
L 481.531019 237.356182 
L 483.360922 233.932451 
L 485.190825 231.997299 
L 487.020729 227.680421 
L 488.850632 223.958974 
L 490.680535 221.130674 
L 492.510439 214.729786 
L 494.340342 207.882324 
L 496.170245 198.801994 
L 498.000149 195.973695 
L 499.830052 184.809355 
L 501.659955 181.087908 
L 503.489859 179.599329 
L 505.319762 176.175599 
L 507.149665 178.557324 
L 507.149665 178.557324 
" style="fill:none;stroke:#d62728;stroke-linecap:square;stroke-width:1.75;"/>
   </g>
   <g id="line2d_22">
    <path clip-path="url(#pf5dfdf2bcb)" d="M 66.142968 282.622742 
L 67.972872 282.906689 
L 104.570938 282.906689 
L 106.400841 282.622742 
L 117.380261 282.622742 
L 119.210164 282.338794 
L 122.869971 282.338794 
L 128.359681 281.48695 
L 130.189584 280.919055 
L 132.019487 281.48695 
L 133.849391 280.919055 
L 135.679294 280.919055 
L 137.509197 281.203003 
L 139.339101 281.203003 
L 142.998907 280.635107 
L 146.658714 277.79563 
L 148.488617 274.956152 
L 150.31852 273.252465 
L 152.148424 270.412988 
L 153.978327 266.721667 
L 155.80823 263.882189 
L 157.638134 259.055077 
L 159.468037 255.931651 
L 161.29794 254.227965 
L 163.127844 250.820592 
L 164.957747 239.178733 
L 168.617553 222.709763 
L 170.447457 216.746859 
L 172.27736 208.512374 
L 175.937167 190.339717 
L 177.76707 193.74709 
L 179.596973 197.722359 
L 181.426877 199.709993 
L 183.25678 204.253158 
L 185.086683 207.660531 
L 186.916587 208.512374 
L 188.74649 211.067904 
L 190.576393 213.907382 
L 192.406296 214.191329 
L 194.2362 211.351852 
L 196.066103 207.092635 
L 197.896006 210.783956 
L 199.72591 215.043173 
L 201.555813 213.339486 
L 203.385716 210.783956 
L 205.21562 211.6358 
L 208.875426 225.833188 
L 210.70533 226.685031 
L 212.535233 228.672666 
L 214.365136 235.77136 
L 216.195039 242.302159 
L 218.024943 239.746629 
L 219.854846 238.32689 
L 221.684749 236.623203 
L 223.514653 233.499778 
L 225.344556 230.092404 
L 227.174459 230.376352 
L 229.004363 224.697397 
L 230.834266 226.401083 
L 232.664169 228.956613 
L 236.323976 228.956613 
L 238.153879 232.363987 
L 239.983782 226.117136 
L 241.813686 230.944248 
L 243.643589 234.351621 
L 245.473492 232.647934 
L 247.303396 234.635569 
L 249.133299 237.758994 
L 250.963202 238.042942 
L 252.793106 245.709532 
L 254.623009 246.277427 
L 256.452912 247.129271 
L 258.282815 251.672435 
L 260.112719 250.252696 
L 263.772525 252.524278 
L 265.602429 251.672435 
L 267.432332 252.24033 
L 269.262235 251.956383 
L 271.092139 253.092174 
L 272.922042 257.067442 
L 274.751945 257.067442 
L 276.581849 259.622972 
L 278.411752 261.042711 
L 280.241655 261.610607 
L 282.071558 264.734032 
L 283.901462 263.882189 
L 285.731365 265.01798 
L 287.561268 267.289562 
L 289.391172 269.277196 
L 291.221075 269.845092 
L 293.050978 270.980883 
L 294.880882 269.561144 
L 296.710785 270.12904 
L 298.540688 269.561144 
L 300.370592 267.289562 
L 302.200495 263.314293 
L 304.030398 263.314293 
L 305.860301 264.166137 
L 307.690205 265.585875 
L 309.520108 265.301928 
L 311.350011 265.585875 
L 313.179915 268.993249 
L 315.009818 270.696935 
L 316.839721 271.832726 
L 318.669625 271.832726 
L 322.329431 273.536413 
L 324.159335 274.672204 
L 325.989238 274.956152 
L 327.819141 277.511682 
L 331.478948 280.919055 
L 333.308851 280.351159 
L 335.138754 280.351159 
L 336.968658 279.783264 
L 338.798561 278.079577 
L 340.628464 278.647473 
L 344.288271 277.511682 
L 346.118174 278.079577 
L 347.948078 278.079577 
L 349.777981 278.647473 
L 351.607884 280.635107 
L 353.437787 280.067212 
L 357.097594 281.203003 
L 358.927497 281.48695 
L 360.757401 280.635107 
L 362.587304 280.635107 
L 364.417207 279.499316 
L 366.247111 279.499316 
L 368.077014 279.215368 
L 369.906917 278.647473 
L 371.73682 278.363525 
L 373.566724 279.215368 
L 375.396627 279.215368 
L 377.22653 280.351159 
L 379.056434 280.635107 
L 380.886337 279.215368 
L 382.71624 278.647473 
L 384.546144 278.647473 
L 386.376047 277.79563 
L 390.035854 277.79563 
L 391.865757 277.511682 
L 393.69566 278.931421 
L 395.525563 279.499316 
L 397.355467 278.079577 
L 399.18537 279.215368 
L 401.015273 279.215368 
L 402.845177 278.931421 
L 404.67508 278.079577 
L 406.504983 278.647473 
L 408.334887 278.079577 
L 410.16479 279.499316 
L 411.994693 278.931421 
L 413.824597 278.079577 
L 415.6545 278.079577 
L 417.484403 278.931421 
L 419.314306 277.227734 
L 421.14421 277.227734 
L 424.804016 274.956152 
L 426.63392 274.104309 
L 430.293726 266.153771 
L 432.12363 264.166137 
L 433.953533 261.042711 
L 435.783436 255.363756 
L 437.61334 255.363756 
L 439.443243 254.79586 
L 441.273146 252.808226 
L 443.103049 249.968748 
L 444.932953 244.289793 
L 446.762856 239.462681 
L 448.592759 233.499778 
L 450.422663 228.672666 
L 452.252566 221.857919 
L 454.082469 215.611068 
L 455.912373 206.808688 
L 457.742276 199.709993 
L 459.572179 194.031038 
L 461.402082 194.314986 
L 463.231986 187.500239 
L 465.061889 187.784187 
L 466.891792 183.524971 
L 468.721696 178.697858 
L 470.551599 174.72259 
L 472.381502 164.784418 
L 474.211406 156.549933 
L 476.041309 151.154925 
L 477.871212 139.513066 
L 479.701116 130.710686 
L 481.531019 127.019365 
L 483.360922 116.513297 
L 485.190825 114.809611 
L 487.020729 106.575125 
L 488.850632 106.00723 
L 490.680535 104.871439 
L 492.510439 96.069058 
L 494.340342 89.254312 
L 496.170245 80.735879 
L 498.000149 77.612453 
L 499.830052 75.340871 
L 501.659955 62.279274 
L 503.489859 52.625049 
L 505.319762 40.699243 
L 507.149665 38.995557 
L 507.149665 38.995557 
" style="fill:none;stroke:#9467bd;stroke-linecap:square;stroke-width:1.75;"/>
   </g>
   <g id="line2d_23">
    <path clip-path="url(#pf5dfdf2bcb)" d="M 77.122388 282.773674 
L 78.952291 282.906689 
L 106.400841 282.906689 
L 108.230744 282.773674 
L 110.060648 282.374629 
L 113.720454 282.374629 
L 115.550358 281.975583 
L 119.210164 281.709553 
L 121.040068 281.443523 
L 122.869971 281.044477 
L 124.699874 280.379401 
L 128.359681 280.113371 
L 130.189584 280.246386 
L 132.019487 279.714325 
L 133.849391 279.714325 
L 135.679294 279.31528 
L 137.509197 279.04925 
L 139.339101 277.453068 
L 141.169004 277.320052 
L 142.998907 276.521961 
L 144.82881 276.122916 
L 146.658714 273.595628 
L 148.488617 271.733415 
L 150.31852 270.669294 
L 152.148424 268.940097 
L 153.978327 265.880748 
L 155.80823 263.752506 
L 157.638134 262.023308 
L 159.468037 259.762051 
L 163.127844 252.446217 
L 166.78765 241.006912 
L 168.617553 238.745654 
L 170.447457 235.02123 
L 172.27736 233.558063 
L 175.937167 227.971426 
L 177.76707 229.301578 
L 179.596973 229.301578 
L 181.426877 230.365699 
L 183.25678 231.695851 
L 185.086683 231.296805 
L 186.916587 233.957109 
L 188.74649 237.282488 
L 190.576393 238.745654 
L 192.406296 241.671988 
L 194.2362 239.809776 
L 196.066103 240.341836 
L 197.896006 242.470079 
L 199.72591 245.263398 
L 201.555813 244.465307 
L 205.21562 240.607867 
L 207.045523 242.071034 
L 208.875426 240.075806 
L 210.70533 238.745654 
L 212.535233 236.883442 
L 214.365136 237.681533 
L 216.195039 238.213594 
L 218.024943 242.603094 
L 219.854846 241.405958 
L 221.684749 246.194504 
L 223.514653 244.997367 
L 225.344556 242.470079 
L 227.174459 242.204049 
L 229.004363 245.795458 
L 230.834266 243.800231 
L 232.664169 243.135155 
L 234.494073 236.617412 
L 236.323976 233.691078 
L 238.153879 235.819321 
L 239.983782 233.159018 
L 241.813686 232.759972 
L 243.643589 234.7552 
L 245.473492 239.1447 
L 247.303396 240.474852 
L 249.133299 244.731337 
L 252.793106 251.51511 
L 254.623009 252.579232 
L 256.452912 252.712247 
L 258.282815 252.712247 
L 260.112719 258.032853 
L 261.942622 262.555369 
L 263.772525 262.821399 
L 267.432332 266.94487 
L 269.262235 266.279794 
L 271.092139 267.47693 
L 272.922042 268.541051 
L 274.751945 267.47693 
L 276.581849 268.541051 
L 278.411752 269.738188 
L 280.241655 270.137233 
L 282.071558 272.531506 
L 283.901462 273.196582 
L 285.731365 272.265476 
L 287.561268 273.728643 
L 289.391172 274.393719 
L 291.221075 274.393719 
L 293.050978 274.792764 
L 294.880882 275.058795 
L 296.710785 274.526734 
L 298.540688 275.72387 
L 300.370592 275.590855 
L 302.200495 275.72387 
L 304.030398 276.255931 
L 305.860301 276.388946 
L 307.690205 277.453068 
L 311.350011 277.985128 
L 315.009818 279.04925 
L 316.839721 279.448295 
L 320.499528 279.182265 
L 324.159335 278.650204 
L 325.989238 278.783219 
L 327.819141 278.384174 
L 329.649044 278.384174 
L 331.478948 278.650204 
L 333.308851 278.783219 
L 335.138754 279.31528 
L 336.968658 278.916234 
L 338.798561 279.04925 
L 340.628464 279.58131 
L 342.458368 278.783219 
L 344.288271 277.852113 
L 346.118174 278.384174 
L 347.948078 278.384174 
L 349.777981 278.783219 
L 351.607884 278.517189 
L 353.437787 277.719098 
L 355.267691 278.251159 
L 357.097594 279.448295 
L 358.927497 279.04925 
L 360.757401 278.384174 
L 362.587304 278.384174 
L 364.417207 277.586083 
L 366.247111 276.654977 
L 368.077014 276.388946 
L 369.906917 275.590855 
L 371.73682 275.058795 
L 377.22653 275.058795 
L 379.056434 276.388946 
L 380.886337 276.521961 
L 382.71624 276.521961 
L 384.546144 277.054022 
L 386.376047 277.719098 
L 388.20595 277.719098 
L 390.035854 278.118143 
L 391.865757 277.187037 
L 393.69566 277.719098 
L 395.525563 277.852113 
L 397.355467 277.054022 
L 399.18537 276.388946 
L 401.015273 276.255931 
L 402.845177 275.324825 
L 404.67508 275.058795 
L 406.504983 274.393719 
L 408.334887 274.659749 
L 411.994693 273.861658 
L 413.824597 273.595628 
L 417.484403 274.127688 
L 419.314306 273.196582 
L 421.14421 271.733415 
L 422.974113 271.06834 
L 424.804016 270.935324 
L 426.63392 270.403264 
L 428.463823 270.669294 
L 430.293726 271.201355 
L 432.12363 271.201355 
L 433.953533 272.398491 
L 435.783436 273.462613 
L 437.61334 274.393719 
L 439.443243 274.925779 
L 441.273146 275.19181 
L 443.103049 273.994673 
L 444.932953 273.728643 
L 446.762856 272.531506 
L 448.592759 271.733415 
L 450.422663 269.339142 
L 452.252566 268.408036 
L 454.082469 268.275021 
L 455.912373 268.541051 
L 457.742276 268.674067 
L 461.402082 268.674067 
L 463.231986 269.073112 
L 465.061889 270.137233 
L 466.891792 270.004218 
L 468.721696 269.738188 
L 470.551599 269.738188 
L 472.381502 269.472158 
L 474.211406 270.669294 
L 476.041309 271.06834 
L 477.871212 268.408036 
L 479.701116 268.408036 
L 481.531019 268.008991 
L 483.360922 267.74296 
L 485.190825 266.94487 
L 487.020729 262.688384 
L 488.850632 260.560142 
L 490.680535 259.363005 
L 492.510439 254.175414 
L 494.340342 249.918928 
L 496.170245 242.736109 
L 498.000149 237.016457 
L 499.830052 234.090124 
L 503.489859 223.581926 
L 505.319762 218.79338 
L 507.149665 217.064183 
L 507.149665 217.064183 
" style="fill:none;stroke:#8c564b;stroke-linecap:square;stroke-width:1.75;"/>
   </g>
   <g id="line2d_24">
    <path clip-path="url(#pf5dfdf2bcb)" d="M 121.040068 281.066689 
L 122.869971 281.434689 
L 124.699874 280.882689 
L 126.529777 280.14669 
L 128.359681 278.85869 
L 130.189584 278.12269 
L 132.019487 278.49069 
L 133.849391 276.46669 
L 135.679294 274.25869 
L 139.339101 266.898691 
L 141.169004 265.978691 
L 142.998907 262.850691 
L 146.658714 257.330691 
L 148.488617 251.258692 
L 152.148424 242.426693 
L 153.978327 234.882693 
L 155.80823 233.778693 
L 157.638134 227.706694 
L 159.468037 226.418694 
L 161.29794 222.186694 
L 163.127844 217.218695 
L 164.957747 214.090695 
L 166.78765 215.746695 
L 168.617553 211.514695 
L 170.447457 205.994696 
L 172.27736 194.218697 
L 174.107263 193.666697 
L 175.937167 191.274697 
L 177.76707 190.906697 
L 179.596973 192.746697 
L 181.426877 197.714697 
L 185.086683 214.458695 
L 186.916587 217.954695 
L 188.74649 227.338694 
L 190.576393 233.226694 
L 192.406296 233.778693 
L 194.2362 233.962693 
L 196.066103 236.538693 
L 197.896006 238.194693 
L 199.72591 239.666693 
L 203.385716 238.930693 
L 207.045523 233.410693 
L 208.875426 229.914694 
L 210.70533 227.154694 
L 212.535233 227.338694 
L 214.365136 218.874695 
L 216.195039 214.274695 
L 218.024943 212.618695 
L 219.854846 217.034695 
L 221.684749 222.186694 
L 223.514653 229.546694 
L 225.344556 230.282694 
L 227.174459 240.034693 
L 229.004363 245.002693 
L 230.834266 252.178692 
L 232.664169 254.202692 
L 234.494073 254.386692 
L 236.323976 254.202692 
L 238.153879 259.722691 
L 239.983782 262.666691 
L 241.813686 266.898691 
L 243.643589 268.738691 
L 245.473492 266.898691 
L 247.303396 267.266691 
L 249.133299 268.186691 
L 250.963202 266.714691 
L 252.793106 267.266691 
L 254.623009 268.922691 
L 256.452912 264.874691 
L 258.282815 266.162691 
L 260.112719 266.530691 
L 261.942622 268.738691 
L 263.772525 271.13069 
L 265.602429 271.86669 
L 267.432332 271.13069 
L 269.262235 275.73069 
L 271.092139 275.54669 
L 272.922042 275.91469 
L 274.751945 275.54669 
L 276.581849 273.15469 
L 278.411752 273.15469 
L 280.241655 273.89069 
L 282.071558 274.07469 
L 283.901462 275.36269 
L 285.731365 275.17869 
L 287.561268 275.73069 
L 289.391172 277.20269 
L 291.221075 278.49069 
L 293.050978 278.30669 
L 294.880882 278.49069 
L 296.710785 278.30669 
L 298.540688 278.85869 
L 300.370592 277.93869 
L 302.200495 278.67469 
L 304.030398 278.30669 
L 305.860301 278.49069 
L 307.690205 277.57069 
L 309.520108 277.38669 
L 311.350011 277.38669 
L 313.179915 278.12269 
L 316.839721 278.12269 
L 318.669625 279.04269 
L 320.499528 279.04269 
L 322.329431 278.85869 
L 324.159335 279.04269 
L 325.989238 278.67469 
L 327.819141 277.57069 
L 329.649044 277.01869 
L 331.478948 276.65069 
L 333.308851 277.57069 
L 335.138754 278.12269 
L 336.968658 277.20269 
L 338.798561 275.54669 
L 340.628464 276.83469 
L 342.458368 277.93869 
L 344.288271 277.57069 
L 346.118174 277.38669 
L 347.948078 276.83469 
L 349.777981 277.38669 
L 351.607884 278.30669 
L 353.437787 277.93869 
L 355.267691 276.09869 
L 357.097594 274.81069 
L 358.927497 272.60269 
L 360.757401 272.23469 
L 362.587304 272.41869 
L 364.417207 272.23469 
L 366.247111 271.86669 
L 368.077014 271.68269 
L 369.906917 272.23469 
L 371.73682 274.07469 
L 373.566724 274.99469 
L 375.396627 273.89069 
L 379.056434 272.78669 
L 380.886337 272.78669 
L 382.71624 273.15469 
L 384.546144 271.86669 
L 386.376047 271.13069 
L 388.20595 271.86669 
L 391.865757 272.60269 
L 393.69566 274.07469 
L 395.525563 272.41869 
L 397.355467 272.23469 
L 399.18537 271.86669 
L 401.015273 272.05069 
L 402.845177 271.31469 
L 404.67508 271.31469 
L 406.504983 270.21069 
L 408.334887 272.05069 
L 410.16479 271.86669 
L 411.994693 272.97069 
L 413.824597 273.15469 
L 415.6545 274.44269 
L 417.484403 275.17869 
L 419.314306 275.36269 
L 421.14421 275.73069 
L 422.974113 277.75469 
L 424.804016 277.01869 
L 426.63392 276.46669 
L 428.463823 277.20269 
L 430.293726 277.75469 
L 432.12363 278.85869 
L 433.953533 277.20269 
L 435.783436 276.65069 
L 439.443243 278.12269 
L 441.273146 277.01869 
L 443.103049 275.73069 
L 444.932953 273.15469 
L 446.762856 273.70669 
L 448.592759 272.78669 
L 450.422663 271.68269 
L 452.252566 269.65869 
L 454.082469 266.714691 
L 455.912373 266.530691 
L 457.742276 266.898691 
L 459.572179 267.082691 
L 461.402082 267.634691 
L 463.231986 267.450691 
L 465.061889 266.346691 
L 466.891792 268.370691 
L 468.721696 267.082691 
L 470.551599 267.266691 
L 472.381502 265.426691 
L 474.211406 262.850691 
L 476.041309 261.930691 
L 477.871212 260.274691 
L 479.701116 257.330691 
L 481.531019 252.914692 
L 483.360922 249.786692 
L 485.190825 245.002693 
L 487.020729 241.138693 
L 488.850632 237.642693 
L 490.680535 235.986693 
L 492.510439 231.570694 
L 494.340342 228.074694 
L 496.170245 220.346695 
L 498.000149 218.322695 
L 499.830052 214.274695 
L 501.659955 208.938696 
L 503.489859 203.234696 
L 505.319762 194.586697 
L 507.149665 193.850697 
L 507.149665 193.850697 
" style="fill:none;stroke:#e377c2;stroke-linecap:square;stroke-width:1.75;"/>
   </g>
   <g id="patch_3">
    <path d="M 44.092633 295.102246 
L 44.092633 26.8 
" style="fill:none;stroke:#000000;stroke-linecap:square;stroke-linejoin:miter;stroke-width:0.8;"/>
   </g>
   <g id="patch_4">
    <path d="M 529.2 295.102246 
L 529.2 26.8 
" style="fill:none;stroke:#000000;stroke-linecap:square;stroke-linejoin:miter;stroke-width:0.8;"/>
   </g>
   <g id="patch_5">
    <path d="M 44.092633 295.102246 
L 529.2 295.102246 
" style="fill:none;stroke:#000000;stroke-linecap:square;stroke-linejoin:miter;stroke-width:0.8;"/>
   </g>
   <g id="patch_6">
    <path d="M 44.092633 26.8 
L 529.2 26.8 
" style="fill:none;stroke:#000000;stroke-linecap:square;stroke-linejoin:miter;stroke-width:0.8;"/>
   </g>
   <g id="text_19">
    <!-- New Cases per Million (7 day rolling) -->
    <defs>
     <path d="M 9.8125 72.90625 
L 23.09375 72.90625 
L 55.421875 11.921875 
L 55.421875 72.90625 
L 64.984375 72.90625 
L 64.984375 0 
L 51.703125 0 
L 19.390625 60.984375 
L 19.390625 0 
L 9.8125 0 
z
" id="DejaVuSans-78"/>
     <path d="M 4.203125 54.6875 
L 13.1875 54.6875 
L 24.421875 12.015625 
L 35.59375 54.6875 
L 46.1875 54.6875 
L 57.421875 12.015625 
L 68.609375 54.6875 
L 77.59375 54.6875 
L 63.28125 0 
L 52.6875 0 
L 40.921875 44.828125 
L 29.109375 0 
L 18.5 0 
z
" id="DejaVuSans-119"/>
     <path id="DejaVuSans-32"/>
     <path d="M 64.40625 67.28125 
L 64.40625 56.890625 
Q 59.421875 61.53125 53.78125 63.8125 
Q 48.140625 66.109375 41.796875 66.109375 
Q 29.296875 66.109375 22.65625 58.46875 
Q 16.015625 50.828125 16.015625 36.375 
Q 16.015625 21.96875 22.65625 14.328125 
Q 29.296875 6.6875 41.796875 6.6875 
Q 48.140625 6.6875 53.78125 8.984375 
Q 59.421875 11.28125 64.40625 15.921875 
L 64.40625 5.609375 
Q 59.234375 2.09375 53.4375 0.328125 
Q 47.65625 -1.421875 41.21875 -1.421875 
Q 24.65625 -1.421875 15.125 8.703125 
Q 5.609375 18.84375 5.609375 36.375 
Q 5.609375 53.953125 15.125 64.078125 
Q 24.65625 74.21875 41.21875 74.21875 
Q 47.75 74.21875 53.53125 72.484375 
Q 59.328125 70.75 64.40625 67.28125 
z
" id="DejaVuSans-67"/>
     <path d="M 44.28125 53.078125 
L 44.28125 44.578125 
Q 40.484375 46.53125 36.375 47.5 
Q 32.28125 48.484375 27.875 48.484375 
Q 21.1875 48.484375 17.84375 46.4375 
Q 14.5 44.390625 14.5 40.28125 
Q 14.5 37.15625 16.890625 35.375 
Q 19.28125 33.59375 26.515625 31.984375 
L 29.59375 31.296875 
Q 39.15625 29.25 43.1875 25.515625 
Q 47.21875 21.78125 47.21875 15.09375 
Q 47.21875 7.46875 41.1875 3.015625 
Q 35.15625 -1.421875 24.609375 -1.421875 
Q 20.21875 -1.421875 15.453125 -0.5625 
Q 10.6875 0.296875 5.421875 2 
L 5.421875 11.28125 
Q 10.40625 8.6875 15.234375 7.390625 
Q 20.0625 6.109375 24.8125 6.109375 
Q 31.15625 6.109375 34.5625 8.28125 
Q 37.984375 10.453125 37.984375 14.40625 
Q 37.984375 18.0625 35.515625 20.015625 
Q 33.0625 21.96875 24.703125 23.78125 
L 21.578125 24.515625 
Q 13.234375 26.265625 9.515625 29.90625 
Q 5.8125 33.546875 5.8125 39.890625 
Q 5.8125 47.609375 11.28125 51.796875 
Q 16.75 56 26.8125 56 
Q 31.78125 56 36.171875 55.265625 
Q 40.578125 54.546875 44.28125 53.078125 
z
" id="DejaVuSans-115"/>
     <path d="M 18.109375 8.203125 
L 18.109375 -20.796875 
L 9.078125 -20.796875 
L 9.078125 54.6875 
L 18.109375 54.6875 
L 18.109375 46.390625 
Q 20.953125 51.265625 25.265625 53.625 
Q 29.59375 56 35.59375 56 
Q 45.5625 56 51.78125 48.09375 
Q 58.015625 40.1875 58.015625 27.296875 
Q 58.015625 14.40625 51.78125 6.484375 
Q 45.5625 -1.421875 35.59375 -1.421875 
Q 29.59375 -1.421875 25.265625 0.953125 
Q 20.953125 3.328125 18.109375 8.203125 
z
M 48.6875 27.296875 
Q 48.6875 37.203125 44.609375 42.84375 
Q 40.53125 48.484375 33.40625 48.484375 
Q 26.265625 48.484375 22.1875 42.84375 
Q 18.109375 37.203125 18.109375 27.296875 
Q 18.109375 17.390625 22.1875 11.75 
Q 26.265625 6.109375 33.40625 6.109375 
Q 40.53125 6.109375 44.609375 11.75 
Q 48.6875 17.390625 48.6875 27.296875 
z
" id="DejaVuSans-112"/>
     <path d="M 41.109375 46.296875 
Q 39.59375 47.171875 37.8125 47.578125 
Q 36.03125 48 33.890625 48 
Q 26.265625 48 22.1875 43.046875 
Q 18.109375 38.09375 18.109375 28.8125 
L 18.109375 0 
L 9.078125 0 
L 9.078125 54.6875 
L 18.109375 54.6875 
L 18.109375 46.1875 
Q 20.953125 51.171875 25.484375 53.578125 
Q 30.03125 56 36.53125 56 
Q 37.453125 56 38.578125 55.875 
Q 39.703125 55.765625 41.0625 55.515625 
z
" id="DejaVuSans-114"/>
     <path d="M 9.8125 72.90625 
L 24.515625 72.90625 
L 43.109375 23.296875 
L 61.8125 72.90625 
L 76.515625 72.90625 
L 76.515625 0 
L 66.890625 0 
L 66.890625 64.015625 
L 48.09375 14.015625 
L 38.1875 14.015625 
L 19.390625 64.015625 
L 19.390625 0 
L 9.8125 0 
z
" id="DejaVuSans-77"/>
     <path d="M 9.421875 54.6875 
L 18.40625 54.6875 
L 18.40625 0 
L 9.421875 0 
z
M 9.421875 75.984375 
L 18.40625 75.984375 
L 18.40625 64.59375 
L 9.421875 64.59375 
z
" id="DejaVuSans-105"/>
     <path d="M 9.421875 75.984375 
L 18.40625 75.984375 
L 18.40625 0 
L 9.421875 0 
z
" id="DejaVuSans-108"/>
     <path d="M 30.609375 48.390625 
Q 23.390625 48.390625 19.1875 42.75 
Q 14.984375 37.109375 14.984375 27.296875 
Q 14.984375 17.484375 19.15625 11.84375 
Q 23.34375 6.203125 30.609375 6.203125 
Q 37.796875 6.203125 41.984375 11.859375 
Q 46.1875 17.53125 46.1875 27.296875 
Q 46.1875 37.015625 41.984375 42.703125 
Q 37.796875 48.390625 30.609375 48.390625 
z
M 30.609375 56 
Q 42.328125 56 49.015625 48.375 
Q 55.71875 40.765625 55.71875 27.296875 
Q 55.71875 13.875 49.015625 6.21875 
Q 42.328125 -1.421875 30.609375 -1.421875 
Q 18.84375 -1.421875 12.171875 6.21875 
Q 5.515625 13.875 5.515625 27.296875 
Q 5.515625 40.765625 12.171875 48.375 
Q 18.84375 56 30.609375 56 
z
" id="DejaVuSans-111"/>
     <path d="M 54.890625 33.015625 
L 54.890625 0 
L 45.90625 0 
L 45.90625 32.71875 
Q 45.90625 40.484375 42.875 44.328125 
Q 39.84375 48.1875 33.796875 48.1875 
Q 26.515625 48.1875 22.3125 43.546875 
Q 18.109375 38.921875 18.109375 30.90625 
L 18.109375 0 
L 9.078125 0 
L 9.078125 54.6875 
L 18.109375 54.6875 
L 18.109375 46.1875 
Q 21.34375 51.125 25.703125 53.5625 
Q 30.078125 56 35.796875 56 
Q 45.21875 56 50.046875 50.171875 
Q 54.890625 44.34375 54.890625 33.015625 
z
" id="DejaVuSans-110"/>
     <path d="M 31 75.875 
Q 24.46875 64.65625 21.28125 53.65625 
Q 18.109375 42.671875 18.109375 31.390625 
Q 18.109375 20.125 21.3125 9.0625 
Q 24.515625 -2 31 -13.1875 
L 23.1875 -13.1875 
Q 15.875 -1.703125 12.234375 9.375 
Q 8.59375 20.453125 8.59375 31.390625 
Q 8.59375 42.28125 12.203125 53.3125 
Q 15.828125 64.359375 23.1875 75.875 
z
" id="DejaVuSans-40"/>
     <path d="M 45.40625 46.390625 
L 45.40625 75.984375 
L 54.390625 75.984375 
L 54.390625 0 
L 45.40625 0 
L 45.40625 8.203125 
Q 42.578125 3.328125 38.25 0.953125 
Q 33.9375 -1.421875 27.875 -1.421875 
Q 17.96875 -1.421875 11.734375 6.484375 
Q 5.515625 14.40625 5.515625 27.296875 
Q 5.515625 40.1875 11.734375 48.09375 
Q 17.96875 56 27.875 56 
Q 33.9375 56 38.25 53.625 
Q 42.578125 51.265625 45.40625 46.390625 
z
M 14.796875 27.296875 
Q 14.796875 17.390625 18.875 11.75 
Q 22.953125 6.109375 30.078125 6.109375 
Q 37.203125 6.109375 41.296875 11.75 
Q 45.40625 17.390625 45.40625 27.296875 
Q 45.40625 37.203125 41.296875 42.84375 
Q 37.203125 48.484375 30.078125 48.484375 
Q 22.953125 48.484375 18.875 42.84375 
Q 14.796875 37.203125 14.796875 27.296875 
z
" id="DejaVuSans-100"/>
     <path d="M 32.171875 -5.078125 
Q 28.375 -14.84375 24.75 -17.8125 
Q 21.140625 -20.796875 15.09375 -20.796875 
L 7.90625 -20.796875 
L 7.90625 -13.28125 
L 13.1875 -13.28125 
Q 16.890625 -13.28125 18.9375 -11.515625 
Q 21 -9.765625 23.484375 -3.21875 
L 25.09375 0.875 
L 2.984375 54.6875 
L 12.5 54.6875 
L 29.59375 11.921875 
L 46.6875 54.6875 
L 56.203125 54.6875 
z
" id="DejaVuSans-121"/>
     <path d="M 45.40625 27.984375 
Q 45.40625 37.75 41.375 43.109375 
Q 37.359375 48.484375 30.078125 48.484375 
Q 22.859375 48.484375 18.828125 43.109375 
Q 14.796875 37.75 14.796875 27.984375 
Q 14.796875 18.265625 18.828125 12.890625 
Q 22.859375 7.515625 30.078125 7.515625 
Q 37.359375 7.515625 41.375 12.890625 
Q 45.40625 18.265625 45.40625 27.984375 
z
M 54.390625 6.78125 
Q 54.390625 -7.171875 48.1875 -13.984375 
Q 42 -20.796875 29.203125 -20.796875 
Q 24.46875 -20.796875 20.265625 -20.09375 
Q 16.0625 -19.390625 12.109375 -17.921875 
L 12.109375 -9.1875 
Q 16.0625 -11.328125 19.921875 -12.34375 
Q 23.78125 -13.375 27.78125 -13.375 
Q 36.625 -13.375 41.015625 -8.765625 
Q 45.40625 -4.15625 45.40625 5.171875 
L 45.40625 9.625 
Q 42.625 4.78125 38.28125 2.390625 
Q 33.9375 0 27.875 0 
Q 17.828125 0 11.671875 7.65625 
Q 5.515625 15.328125 5.515625 27.984375 
Q 5.515625 40.671875 11.671875 48.328125 
Q 17.828125 56 27.875 56 
Q 33.9375 56 38.28125 53.609375 
Q 42.625 51.21875 45.40625 46.390625 
L 45.40625 54.6875 
L 54.390625 54.6875 
z
" id="DejaVuSans-103"/>
     <path d="M 8.015625 75.875 
L 15.828125 75.875 
Q 23.140625 64.359375 26.78125 53.3125 
Q 30.421875 42.28125 30.421875 31.390625 
Q 30.421875 20.453125 26.78125 9.375 
Q 23.140625 -1.703125 15.828125 -13.1875 
L 8.015625 -13.1875 
Q 14.5 -2 17.703125 9.0625 
Q 20.90625 20.125 20.90625 31.390625 
Q 20.90625 42.671875 17.703125 53.65625 
Q 14.5 64.65625 8.015625 75.875 
z
" id="DejaVuSans-41"/>
    </defs>
    <g transform="translate(176.870692 20.8)scale(0.12 -0.12)">
     <use xlink:href="#DejaVuSans-78"/>
     <use x="74.804688" xlink:href="#DejaVuSans-101"/>
     <use x="136.328125" xlink:href="#DejaVuSans-119"/>
     <use x="218.115234" xlink:href="#DejaVuSans-32"/>
     <use x="249.902344" xlink:href="#DejaVuSans-67"/>
     <use x="319.726562" xlink:href="#DejaVuSans-97"/>
     <use x="381.005859" xlink:href="#DejaVuSans-115"/>
     <use x="433.105469" xlink:href="#DejaVuSans-101"/>
     <use x="494.628906" xlink:href="#DejaVuSans-115"/>
     <use x="546.728516" xlink:href="#DejaVuSans-32"/>
     <use x="578.515625" xlink:href="#DejaVuSans-112"/>
     <use x="641.992188" xlink:href="#DejaVuSans-101"/>
     <use x="703.515625" xlink:href="#DejaVuSans-114"/>
     <use x="744.628906" xlink:href="#DejaVuSans-32"/>
     <use x="776.416016" xlink:href="#DejaVuSans-77"/>
     <use x="862.695312" xlink:href="#DejaVuSans-105"/>
     <use x="890.478516" xlink:href="#DejaVuSans-108"/>
     <use x="918.261719" xlink:href="#DejaVuSans-108"/>
     <use x="946.044922" xlink:href="#DejaVuSans-105"/>
     <use x="973.828125" xlink:href="#DejaVuSans-111"/>
     <use x="1035.009766" xlink:href="#DejaVuSans-110"/>
     <use x="1098.388672" xlink:href="#DejaVuSans-32"/>
     <use x="1130.175781" xlink:href="#DejaVuSans-40"/>
     <use x="1169.189453" xlink:href="#DejaVuSans-55"/>
     <use x="1232.8125" xlink:href="#DejaVuSans-32"/>
     <use x="1264.599609" xlink:href="#DejaVuSans-100"/>
     <use x="1328.076172" xlink:href="#DejaVuSans-97"/>
     <use x="1389.355469" xlink:href="#DejaVuSans-121"/>
     <use x="1448.535156" xlink:href="#DejaVuSans-32"/>
     <use x="1480.322266" xlink:href="#DejaVuSans-114"/>
     <use x="1519.185547" xlink:href="#DejaVuSans-111"/>
     <use x="1580.367188" xlink:href="#DejaVuSans-108"/>
     <use x="1608.150391" xlink:href="#DejaVuSans-108"/>
     <use x="1635.933594" xlink:href="#DejaVuSans-105"/>
     <use x="1663.716797" xlink:href="#DejaVuSans-110"/>
     <use x="1727.095703" xlink:href="#DejaVuSans-103"/>
     <use x="1790.572266" xlink:href="#DejaVuSans-41"/>
    </g>
   </g>
   <g id="legend_1">
    <g id="patch_7">
     <path d="M 51.092633 137.546875 
L 218.728571 137.546875 
Q 220.728571 137.546875 220.728571 135.546875 
L 220.728571 33.8 
Q 220.728571 31.8 218.728571 31.8 
L 51.092633 31.8 
Q 49.092633 31.8 49.092633 33.8 
L 49.092633 135.546875 
Q 49.092633 137.546875 51.092633 137.546875 
z
" style="fill:#ffffff;opacity:0.8;stroke:#cccccc;stroke-linejoin:miter;stroke-width:0.3;"/>
    </g>
    <g id="line2d_25">
     <path d="M 53.092633 39.898438 
L 73.092633 39.898438 
" style="fill:none;stroke:#1f77b4;stroke-linecap:square;stroke-width:1.75;"/>
    </g>
    <g id="line2d_26"/>
    <g id="text_20">
     <!-- Cheshire West and Chester -->
     <defs>
      <path d="M 54.890625 33.015625 
L 54.890625 0 
L 45.90625 0 
L 45.90625 32.71875 
Q 45.90625 40.484375 42.875 44.328125 
Q 39.84375 48.1875 33.796875 48.1875 
Q 26.515625 48.1875 22.3125 43.546875 
Q 18.109375 38.921875 18.109375 30.90625 
L 18.109375 0 
L 9.078125 0 
L 9.078125 75.984375 
L 18.109375 75.984375 
L 18.109375 46.1875 
Q 21.34375 51.125 25.703125 53.5625 
Q 30.078125 56 35.796875 56 
Q 45.21875 56 50.046875 50.171875 
Q 54.890625 44.34375 54.890625 33.015625 
z
" id="DejaVuSans-104"/>
      <path d="M 3.328125 72.90625 
L 13.28125 72.90625 
L 28.609375 11.28125 
L 43.890625 72.90625 
L 54.984375 72.90625 
L 70.3125 11.28125 
L 85.59375 72.90625 
L 95.609375 72.90625 
L 77.296875 0 
L 64.890625 0 
L 49.515625 63.28125 
L 33.984375 0 
L 21.578125 0 
z
" id="DejaVuSans-87"/>
     </defs>
     <g transform="translate(81.092633 43.398438)scale(0.1 -0.1)">
      <use xlink:href="#DejaVuSans-67"/>
      <use x="69.824219" xlink:href="#DejaVuSans-104"/>
      <use x="133.203125" xlink:href="#DejaVuSans-101"/>
      <use x="194.726562" xlink:href="#DejaVuSans-115"/>
      <use x="246.826172" xlink:href="#DejaVuSans-104"/>
      <use x="310.205078" xlink:href="#DejaVuSans-105"/>
      <use x="337.988281" xlink:href="#DejaVuSans-114"/>
      <use x="376.851562" xlink:href="#DejaVuSans-101"/>
      <use x="438.375" xlink:href="#DejaVuSans-32"/>
      <use x="470.162109" xlink:href="#DejaVuSans-87"/>
      <use x="563.164062" xlink:href="#DejaVuSans-101"/>
      <use x="624.6875" xlink:href="#DejaVuSans-115"/>
      <use x="676.787109" xlink:href="#DejaVuSans-116"/>
      <use x="715.996094" xlink:href="#DejaVuSans-32"/>
      <use x="747.783203" xlink:href="#DejaVuSans-97"/>
      <use x="809.0625" xlink:href="#DejaVuSans-110"/>
      <use x="872.441406" xlink:href="#DejaVuSans-100"/>
      <use x="935.917969" xlink:href="#DejaVuSans-32"/>
      <use x="967.705078" xlink:href="#DejaVuSans-67"/>
      <use x="1037.529297" xlink:href="#DejaVuSans-104"/>
      <use x="1100.908203" xlink:href="#DejaVuSans-101"/>
      <use x="1162.431641" xlink:href="#DejaVuSans-115"/>
      <use x="1214.53125" xlink:href="#DejaVuSans-116"/>
      <use x="1253.740234" xlink:href="#DejaVuSans-101"/>
      <use x="1315.263672" xlink:href="#DejaVuSans-114"/>
     </g>
    </g>
    <g id="line2d_27">
     <path d="M 53.092633 54.576563 
L 73.092633 54.576563 
" style="fill:none;stroke:#ff7f0e;stroke-linecap:square;stroke-width:1.75;"/>
    </g>
    <g id="line2d_28"/>
    <g id="text_21">
     <!-- Leicester -->
     <defs>
      <path d="M 9.8125 72.90625 
L 19.671875 72.90625 
L 19.671875 8.296875 
L 55.171875 8.296875 
L 55.171875 0 
L 9.8125 0 
z
" id="DejaVuSans-76"/>
      <path d="M 48.78125 52.59375 
L 48.78125 44.1875 
Q 44.96875 46.296875 41.140625 47.34375 
Q 37.3125 48.390625 33.40625 48.390625 
Q 24.65625 48.390625 19.8125 42.84375 
Q 14.984375 37.3125 14.984375 27.296875 
Q 14.984375 17.28125 19.8125 11.734375 
Q 24.65625 6.203125 33.40625 6.203125 
Q 37.3125 6.203125 41.140625 7.25 
Q 44.96875 8.296875 48.78125 10.40625 
L 48.78125 2.09375 
Q 45.015625 0.34375 40.984375 -0.53125 
Q 36.96875 -1.421875 32.421875 -1.421875 
Q 20.0625 -1.421875 12.78125 6.34375 
Q 5.515625 14.109375 5.515625 27.296875 
Q 5.515625 40.671875 12.859375 48.328125 
Q 20.21875 56 33.015625 56 
Q 37.15625 56 41.109375 55.140625 
Q 45.0625 54.296875 48.78125 52.59375 
z
" id="DejaVuSans-99"/>
     </defs>
     <g transform="translate(81.092633 58.076563)scale(0.1 -0.1)">
      <use xlink:href="#DejaVuSans-76"/>
      <use x="53.962891" xlink:href="#DejaVuSans-101"/>
      <use x="115.486328" xlink:href="#DejaVuSans-105"/>
      <use x="143.269531" xlink:href="#DejaVuSans-99"/>
      <use x="198.25" xlink:href="#DejaVuSans-101"/>
      <use x="259.773438" xlink:href="#DejaVuSans-115"/>
      <use x="311.873047" xlink:href="#DejaVuSans-116"/>
      <use x="351.082031" xlink:href="#DejaVuSans-101"/>
      <use x="412.605469" xlink:href="#DejaVuSans-114"/>
     </g>
    </g>
    <g id="line2d_29">
     <path d="M 53.092633 69.254687 
L 73.092633 69.254687 
" style="fill:none;stroke:#2ca02c;stroke-linecap:square;stroke-width:1.75;"/>
    </g>
    <g id="line2d_30"/>
    <g id="text_22">
     <!-- Northumberland -->
     <defs>
      <path d="M 8.5 21.578125 
L 8.5 54.6875 
L 17.484375 54.6875 
L 17.484375 21.921875 
Q 17.484375 14.15625 20.5 10.265625 
Q 23.53125 6.390625 29.59375 6.390625 
Q 36.859375 6.390625 41.078125 11.03125 
Q 45.3125 15.671875 45.3125 23.6875 
L 45.3125 54.6875 
L 54.296875 54.6875 
L 54.296875 0 
L 45.3125 0 
L 45.3125 8.40625 
Q 42.046875 3.421875 37.71875 1 
Q 33.40625 -1.421875 27.6875 -1.421875 
Q 18.265625 -1.421875 13.375 4.4375 
Q 8.5 10.296875 8.5 21.578125 
z
M 31.109375 56 
z
" id="DejaVuSans-117"/>
      <path d="M 52 44.1875 
Q 55.375 50.25 60.0625 53.125 
Q 64.75 56 71.09375 56 
Q 79.640625 56 84.28125 50.015625 
Q 88.921875 44.046875 88.921875 33.015625 
L 88.921875 0 
L 79.890625 0 
L 79.890625 32.71875 
Q 79.890625 40.578125 77.09375 44.375 
Q 74.3125 48.1875 68.609375 48.1875 
Q 61.625 48.1875 57.5625 43.546875 
Q 53.515625 38.921875 53.515625 30.90625 
L 53.515625 0 
L 44.484375 0 
L 44.484375 32.71875 
Q 44.484375 40.625 41.703125 44.40625 
Q 38.921875 48.1875 33.109375 48.1875 
Q 26.21875 48.1875 22.15625 43.53125 
Q 18.109375 38.875 18.109375 30.90625 
L 18.109375 0 
L 9.078125 0 
L 9.078125 54.6875 
L 18.109375 54.6875 
L 18.109375 46.1875 
Q 21.1875 51.21875 25.484375 53.609375 
Q 29.78125 56 35.6875 56 
Q 41.65625 56 45.828125 52.96875 
Q 50 49.953125 52 44.1875 
z
" id="DejaVuSans-109"/>
      <path d="M 48.6875 27.296875 
Q 48.6875 37.203125 44.609375 42.84375 
Q 40.53125 48.484375 33.40625 48.484375 
Q 26.265625 48.484375 22.1875 42.84375 
Q 18.109375 37.203125 18.109375 27.296875 
Q 18.109375 17.390625 22.1875 11.75 
Q 26.265625 6.109375 33.40625 6.109375 
Q 40.53125 6.109375 44.609375 11.75 
Q 48.6875 17.390625 48.6875 27.296875 
z
M 18.109375 46.390625 
Q 20.953125 51.265625 25.265625 53.625 
Q 29.59375 56 35.59375 56 
Q 45.5625 56 51.78125 48.09375 
Q 58.015625 40.1875 58.015625 27.296875 
Q 58.015625 14.40625 51.78125 6.484375 
Q 45.5625 -1.421875 35.59375 -1.421875 
Q 29.59375 -1.421875 25.265625 0.953125 
Q 20.953125 3.328125 18.109375 8.203125 
L 18.109375 0 
L 9.078125 0 
L 9.078125 75.984375 
L 18.109375 75.984375 
z
" id="DejaVuSans-98"/>
     </defs>
     <g transform="translate(81.092633 72.754687)scale(0.1 -0.1)">
      <use xlink:href="#DejaVuSans-78"/>
      <use x="74.804688" xlink:href="#DejaVuSans-111"/>
      <use x="135.986328" xlink:href="#DejaVuSans-114"/>
      <use x="177.099609" xlink:href="#DejaVuSans-116"/>
      <use x="216.308594" xlink:href="#DejaVuSans-104"/>
      <use x="279.6875" xlink:href="#DejaVuSans-117"/>
      <use x="343.066406" xlink:href="#DejaVuSans-109"/>
      <use x="440.478516" xlink:href="#DejaVuSans-98"/>
      <use x="503.955078" xlink:href="#DejaVuSans-101"/>
      <use x="565.478516" xlink:href="#DejaVuSans-114"/>
      <use x="606.591797" xlink:href="#DejaVuSans-108"/>
      <use x="634.375" xlink:href="#DejaVuSans-97"/>
      <use x="695.654297" xlink:href="#DejaVuSans-110"/>
      <use x="759.033203" xlink:href="#DejaVuSans-100"/>
     </g>
    </g>
    <g id="line2d_31">
     <path d="M 53.092633 83.932813 
L 73.092633 83.932813 
" style="fill:none;stroke:#d62728;stroke-linecap:square;stroke-width:1.75;"/>
    </g>
    <g id="line2d_32"/>
    <g id="text_23">
     <!-- North Yorkshire -->
     <defs>
      <path d="M -0.203125 72.90625 
L 10.40625 72.90625 
L 30.609375 42.921875 
L 50.6875 72.90625 
L 61.28125 72.90625 
L 35.5 34.71875 
L 35.5 0 
L 25.59375 0 
L 25.59375 34.71875 
z
" id="DejaVuSans-89"/>
      <path d="M 9.078125 75.984375 
L 18.109375 75.984375 
L 18.109375 31.109375 
L 44.921875 54.6875 
L 56.390625 54.6875 
L 27.390625 29.109375 
L 57.625 0 
L 45.90625 0 
L 18.109375 26.703125 
L 18.109375 0 
L 9.078125 0 
z
" id="DejaVuSans-107"/>
     </defs>
     <g transform="translate(81.092633 87.432813)scale(0.1 -0.1)">
      <use xlink:href="#DejaVuSans-78"/>
      <use x="74.804688" xlink:href="#DejaVuSans-111"/>
      <use x="135.986328" xlink:href="#DejaVuSans-114"/>
      <use x="177.099609" xlink:href="#DejaVuSans-116"/>
      <use x="216.308594" xlink:href="#DejaVuSans-104"/>
      <use x="279.6875" xlink:href="#DejaVuSans-32"/>
      <use x="311.474609" xlink:href="#DejaVuSans-89"/>
      <use x="359.308594" xlink:href="#DejaVuSans-111"/>
      <use x="420.490234" xlink:href="#DejaVuSans-114"/>
      <use x="461.603516" xlink:href="#DejaVuSans-107"/>
      <use x="519.513672" xlink:href="#DejaVuSans-115"/>
      <use x="571.613281" xlink:href="#DejaVuSans-104"/>
      <use x="634.992188" xlink:href="#DejaVuSans-105"/>
      <use x="662.775391" xlink:href="#DejaVuSans-114"/>
      <use x="701.638672" xlink:href="#DejaVuSans-101"/>
     </g>
    </g>
    <g id="line2d_33">
     <path d="M 53.092633 98.610937 
L 73.092633 98.610937 
" style="fill:none;stroke:#9467bd;stroke-linecap:square;stroke-width:1.75;"/>
    </g>
    <g id="line2d_34"/>
    <g id="text_24">
     <!-- Wirral -->
     <g transform="translate(81.092633 102.110937)scale(0.1 -0.1)">
      <use xlink:href="#DejaVuSans-87"/>
      <use x="96.626953" xlink:href="#DejaVuSans-105"/>
      <use x="124.410156" xlink:href="#DejaVuSans-114"/>
      <use x="163.773438" xlink:href="#DejaVuSans-114"/>
      <use x="204.886719" xlink:href="#DejaVuSans-97"/>
      <use x="266.166016" xlink:href="#DejaVuSans-108"/>
     </g>
    </g>
    <g id="line2d_35">
     <path d="M 53.092633 113.289062 
L 73.092633 113.289062 
" style="fill:none;stroke:#8c564b;stroke-linecap:square;stroke-width:1.75;"/>
    </g>
    <g id="line2d_36"/>
    <g id="text_25">
     <!-- Oxfordshire -->
     <defs>
      <path d="M 39.40625 66.21875 
Q 28.65625 66.21875 22.328125 58.203125 
Q 16.015625 50.203125 16.015625 36.375 
Q 16.015625 22.609375 22.328125 14.59375 
Q 28.65625 6.59375 39.40625 6.59375 
Q 50.140625 6.59375 56.421875 14.59375 
Q 62.703125 22.609375 62.703125 36.375 
Q 62.703125 50.203125 56.421875 58.203125 
Q 50.140625 66.21875 39.40625 66.21875 
z
M 39.40625 74.21875 
Q 54.734375 74.21875 63.90625 63.9375 
Q 73.09375 53.65625 73.09375 36.375 
Q 73.09375 19.140625 63.90625 8.859375 
Q 54.734375 -1.421875 39.40625 -1.421875 
Q 24.03125 -1.421875 14.8125 8.828125 
Q 5.609375 19.09375 5.609375 36.375 
Q 5.609375 53.65625 14.8125 63.9375 
Q 24.03125 74.21875 39.40625 74.21875 
z
" id="DejaVuSans-79"/>
      <path d="M 54.890625 54.6875 
L 35.109375 28.078125 
L 55.90625 0 
L 45.3125 0 
L 29.390625 21.484375 
L 13.484375 0 
L 2.875 0 
L 24.125 28.609375 
L 4.6875 54.6875 
L 15.28125 54.6875 
L 29.78125 35.203125 
L 44.28125 54.6875 
z
" id="DejaVuSans-120"/>
      <path d="M 37.109375 75.984375 
L 37.109375 68.5 
L 28.515625 68.5 
Q 23.6875 68.5 21.796875 66.546875 
Q 19.921875 64.59375 19.921875 59.515625 
L 19.921875 54.6875 
L 34.71875 54.6875 
L 34.71875 47.703125 
L 19.921875 47.703125 
L 19.921875 0 
L 10.890625 0 
L 10.890625 47.703125 
L 2.296875 47.703125 
L 2.296875 54.6875 
L 10.890625 54.6875 
L 10.890625 58.5 
Q 10.890625 67.625 15.140625 71.796875 
Q 19.390625 75.984375 28.609375 75.984375 
z
" id="DejaVuSans-102"/>
     </defs>
     <g transform="translate(81.092633 116.789062)scale(0.1 -0.1)">
      <use xlink:href="#DejaVuSans-79"/>
      <use x="78.710938" xlink:href="#DejaVuSans-120"/>
      <use x="137.890625" xlink:href="#DejaVuSans-102"/>
      <use x="173.095703" xlink:href="#DejaVuSans-111"/>
      <use x="234.277344" xlink:href="#DejaVuSans-114"/>
      <use x="273.640625" xlink:href="#DejaVuSans-100"/>
      <use x="337.117188" xlink:href="#DejaVuSans-115"/>
      <use x="389.216797" xlink:href="#DejaVuSans-104"/>
      <use x="452.595703" xlink:href="#DejaVuSans-105"/>
      <use x="480.378906" xlink:href="#DejaVuSans-114"/>
      <use x="519.242188" xlink:href="#DejaVuSans-101"/>
     </g>
    </g>
    <g id="line2d_37">
     <path d="M 53.092633 127.967187 
L 73.092633 127.967187 
" style="fill:none;stroke:#e377c2;stroke-linecap:square;stroke-width:1.75;"/>
    </g>
    <g id="line2d_38"/>
    <g id="text_26">
     <!-- Cumbria -->
     <g transform="translate(81.092633 131.467187)scale(0.1 -0.1)">
      <use xlink:href="#DejaVuSans-67"/>
      <use x="69.824219" xlink:href="#DejaVuSans-117"/>
      <use x="133.203125" xlink:href="#DejaVuSans-109"/>
      <use x="230.615234" xlink:href="#DejaVuSans-98"/>
      <use x="294.091797" xlink:href="#DejaVuSans-114"/>
      <use x="335.205078" xlink:href="#DejaVuSans-105"/>
      <use x="362.988281" xlink:href="#DejaVuSans-97"/>
     </g>
    </g>
   </g>
  </g>
 </g>
 <defs>
  <clipPath id="pf5dfdf2bcb">
   <rect height="268.302246" width="485.107367" x="44.092633" y="26.8"/>
  </clipPath>
 </defs>
</svg>
