<?xml version="1.0" encoding="utf-8" standalone="no"?>
<!DOCTYPE svg PUBLIC "-//W3C//DTD SVG 1.1//EN"
  "http://www.w3.org/Graphics/SVG/1.1/DTD/svg11.dtd">
<!-- Created with matplotlib (https://matplotlib.org/) -->
<svg height="288pt" version="1.1" viewBox="0 0 432 288" width="432pt" xmlns="http://www.w3.org/2000/svg" xmlns:xlink="http://www.w3.org/1999/xlink">
 <metadata>
  <rdf:RDF xmlns:cc="http://creativecommons.org/ns#" xmlns:dc="http://purl.org/dc/elements/1.1/" xmlns:rdf="http://www.w3.org/1999/02/22-rdf-syntax-ns#">
   <cc:Work>
    <dc:type rdf:resource="http://purl.org/dc/dcmitype/StillImage"/>
    <dc:date>2020-12-10T15:22:46.504321</dc:date>
    <dc:format>image/svg+xml</dc:format>
    <dc:creator>
     <cc:Agent>
      <dc:title>Matplotlib v3.3.2, https://matplotlib.org/</dc:title>
     </cc:Agent>
    </dc:creator>
   </cc:Work>
  </rdf:RDF>
 </metadata>
 <defs>
  <style type="text/css">*{stroke-linecap:butt;stroke-linejoin:round;}</style>
 </defs>
 <g id="figure_1">
  <g id="patch_1">
   <path d="M 0 288 
L 432 288 
L 432 0 
L 0 0 
z
" style="fill:none;"/>
  </g>
  <g id="axes_1">
   <g id="patch_2">
    <path d="M 50.925 226.602246 
L 421.2 226.602246 
L 421.2 26.8 
L 50.925 26.8 
z
" style="fill:#ffffff;"/>
   </g>
   <g id="matplotlib.axis_1">
    <g id="xtick_1">
     <g id="line2d_1">
      <defs>
       <path d="M 0 0 
L 0 3.5 
" id="m7136eb58a8" style="stroke:#000000;stroke-width:0.8;"/>
      </defs>
      <g>
       <use style="stroke:#000000;stroke-width:0.8;" x="67.755682" xlink:href="#m7136eb58a8" y="226.602246"/>
      </g>
     </g>
     <g id="text_1">
      <!-- 2020-03 -->
      <g transform="translate(30.530861 261.074092)rotate(-30)scale(0.1 -0.1)">
       <defs>
        <path d="M 19.1875 8.296875 
L 53.609375 8.296875 
L 53.609375 0 
L 7.328125 0 
L 7.328125 8.296875 
Q 12.9375 14.109375 22.625 23.890625 
Q 32.328125 33.6875 34.8125 36.53125 
Q 39.546875 41.84375 41.421875 45.53125 
Q 43.3125 49.21875 43.3125 52.78125 
Q 43.3125 58.59375 39.234375 62.25 
Q 35.15625 65.921875 28.609375 65.921875 
Q 23.96875 65.921875 18.8125 64.3125 
Q 13.671875 62.703125 7.8125 59.421875 
L 7.8125 69.390625 
Q 13.765625 71.78125 18.9375 73 
Q 24.125 74.21875 28.421875 74.21875 
Q 39.75 74.21875 46.484375 68.546875 
Q 53.21875 62.890625 53.21875 53.421875 
Q 53.21875 48.921875 51.53125 44.890625 
Q 49.859375 40.875 45.40625 35.40625 
Q 44.1875 33.984375 37.640625 27.21875 
Q 31.109375 20.453125 19.1875 8.296875 
z
" id="DejaVuSans-50"/>
        <path d="M 31.78125 66.40625 
Q 24.171875 66.40625 20.328125 58.90625 
Q 16.5 51.421875 16.5 36.375 
Q 16.5 21.390625 20.328125 13.890625 
Q 24.171875 6.390625 31.78125 6.390625 
Q 39.453125 6.390625 43.28125 13.890625 
Q 47.125 21.390625 47.125 36.375 
Q 47.125 51.421875 43.28125 58.90625 
Q 39.453125 66.40625 31.78125 66.40625 
z
M 31.78125 74.21875 
Q 44.046875 74.21875 50.515625 64.515625 
Q 56.984375 54.828125 56.984375 36.375 
Q 56.984375 17.96875 50.515625 8.265625 
Q 44.046875 -1.421875 31.78125 -1.421875 
Q 19.53125 -1.421875 13.0625 8.265625 
Q 6.59375 17.96875 6.59375 36.375 
Q 6.59375 54.828125 13.0625 64.515625 
Q 19.53125 74.21875 31.78125 74.21875 
z
" id="DejaVuSans-48"/>
        <path d="M 4.890625 31.390625 
L 31.203125 31.390625 
L 31.203125 23.390625 
L 4.890625 23.390625 
z
" id="DejaVuSans-45"/>
        <path d="M 40.578125 39.3125 
Q 47.65625 37.796875 51.625 33 
Q 55.609375 28.21875 55.609375 21.1875 
Q 55.609375 10.40625 48.1875 4.484375 
Q 40.765625 -1.421875 27.09375 -1.421875 
Q 22.515625 -1.421875 17.65625 -0.515625 
Q 12.796875 0.390625 7.625 2.203125 
L 7.625 11.71875 
Q 11.71875 9.328125 16.59375 8.109375 
Q 21.484375 6.890625 26.8125 6.890625 
Q 36.078125 6.890625 40.9375 10.546875 
Q 45.796875 14.203125 45.796875 21.1875 
Q 45.796875 27.640625 41.28125 31.265625 
Q 36.765625 34.90625 28.71875 34.90625 
L 20.21875 34.90625 
L 20.21875 43.015625 
L 29.109375 43.015625 
Q 36.375 43.015625 40.234375 45.921875 
Q 44.09375 48.828125 44.09375 54.296875 
Q 44.09375 59.90625 40.109375 62.90625 
Q 36.140625 65.921875 28.71875 65.921875 
Q 24.65625 65.921875 20.015625 65.03125 
Q 15.375 64.15625 9.8125 62.3125 
L 9.8125 71.09375 
Q 15.4375 72.65625 20.34375 73.4375 
Q 25.25 74.21875 29.59375 74.21875 
Q 40.828125 74.21875 47.359375 69.109375 
Q 53.90625 64.015625 53.90625 55.328125 
Q 53.90625 49.265625 50.4375 45.09375 
Q 46.96875 40.921875 40.578125 39.3125 
z
" id="DejaVuSans-51"/>
       </defs>
       <use xlink:href="#DejaVuSans-50"/>
       <use x="63.623047" xlink:href="#DejaVuSans-48"/>
       <use x="127.246094" xlink:href="#DejaVuSans-50"/>
       <use x="190.869141" xlink:href="#DejaVuSans-48"/>
       <use x="254.492188" xlink:href="#DejaVuSans-45"/>
       <use x="290.576172" xlink:href="#DejaVuSans-48"/>
       <use x="354.199219" xlink:href="#DejaVuSans-51"/>
      </g>
     </g>
    </g>
    <g id="xtick_2">
     <g id="line2d_2">
      <g>
       <use style="stroke:#000000;stroke-width:0.8;" x="104.759309" xlink:href="#m7136eb58a8" y="226.602246"/>
      </g>
     </g>
     <g id="text_2">
      <!-- 2020-04 -->
      <g transform="translate(67.534488 261.074092)rotate(-30)scale(0.1 -0.1)">
       <defs>
        <path d="M 37.796875 64.3125 
L 12.890625 25.390625 
L 37.796875 25.390625 
z
M 35.203125 72.90625 
L 47.609375 72.90625 
L 47.609375 25.390625 
L 58.015625 25.390625 
L 58.015625 17.1875 
L 47.609375 17.1875 
L 47.609375 0 
L 37.796875 0 
L 37.796875 17.1875 
L 4.890625 17.1875 
L 4.890625 26.703125 
z
" id="DejaVuSans-52"/>
       </defs>
       <use xlink:href="#DejaVuSans-50"/>
       <use x="63.623047" xlink:href="#DejaVuSans-48"/>
       <use x="127.246094" xlink:href="#DejaVuSans-50"/>
       <use x="190.869141" xlink:href="#DejaVuSans-48"/>
       <use x="254.492188" xlink:href="#DejaVuSans-45"/>
       <use x="290.576172" xlink:href="#DejaVuSans-48"/>
       <use x="354.199219" xlink:href="#DejaVuSans-52"/>
      </g>
     </g>
    </g>
    <g id="xtick_3">
     <g id="line2d_3">
      <g>
       <use style="stroke:#000000;stroke-width:0.8;" x="140.56927" xlink:href="#m7136eb58a8" y="226.602246"/>
      </g>
     </g>
     <g id="text_3">
      <!-- 2020-05 -->
      <g transform="translate(103.344449 261.074092)rotate(-30)scale(0.1 -0.1)">
       <defs>
        <path d="M 10.796875 72.90625 
L 49.515625 72.90625 
L 49.515625 64.59375 
L 19.828125 64.59375 
L 19.828125 46.734375 
Q 21.96875 47.46875 24.109375 47.828125 
Q 26.265625 48.1875 28.421875 48.1875 
Q 40.625 48.1875 47.75 41.5 
Q 54.890625 34.8125 54.890625 23.390625 
Q 54.890625 11.625 47.5625 5.09375 
Q 40.234375 -1.421875 26.90625 -1.421875 
Q 22.3125 -1.421875 17.546875 -0.640625 
Q 12.796875 0.140625 7.71875 1.703125 
L 7.71875 11.625 
Q 12.109375 9.234375 16.796875 8.0625 
Q 21.484375 6.890625 26.703125 6.890625 
Q 35.15625 6.890625 40.078125 11.328125 
Q 45.015625 15.765625 45.015625 23.390625 
Q 45.015625 31 40.078125 35.4375 
Q 35.15625 39.890625 26.703125 39.890625 
Q 22.75 39.890625 18.8125 39.015625 
Q 14.890625 38.140625 10.796875 36.28125 
z
" id="DejaVuSans-53"/>
       </defs>
       <use xlink:href="#DejaVuSans-50"/>
       <use x="63.623047" xlink:href="#DejaVuSans-48"/>
       <use x="127.246094" xlink:href="#DejaVuSans-50"/>
       <use x="190.869141" xlink:href="#DejaVuSans-48"/>
       <use x="254.492188" xlink:href="#DejaVuSans-45"/>
       <use x="290.576172" xlink:href="#DejaVuSans-48"/>
       <use x="354.199219" xlink:href="#DejaVuSans-53"/>
      </g>
     </g>
    </g>
    <g id="xtick_4">
     <g id="line2d_4">
      <g>
       <use style="stroke:#000000;stroke-width:0.8;" x="177.572897" xlink:href="#m7136eb58a8" y="226.602246"/>
      </g>
     </g>
     <g id="text_4">
      <!-- 2020-06 -->
      <g transform="translate(140.348076 261.074092)rotate(-30)scale(0.1 -0.1)">
       <defs>
        <path d="M 33.015625 40.375 
Q 26.375 40.375 22.484375 35.828125 
Q 18.609375 31.296875 18.609375 23.390625 
Q 18.609375 15.53125 22.484375 10.953125 
Q 26.375 6.390625 33.015625 6.390625 
Q 39.65625 6.390625 43.53125 10.953125 
Q 47.40625 15.53125 47.40625 23.390625 
Q 47.40625 31.296875 43.53125 35.828125 
Q 39.65625 40.375 33.015625 40.375 
z
M 52.59375 71.296875 
L 52.59375 62.3125 
Q 48.875 64.0625 45.09375 64.984375 
Q 41.3125 65.921875 37.59375 65.921875 
Q 27.828125 65.921875 22.671875 59.328125 
Q 17.53125 52.734375 16.796875 39.40625 
Q 19.671875 43.65625 24.015625 45.921875 
Q 28.375 48.1875 33.59375 48.1875 
Q 44.578125 48.1875 50.953125 41.515625 
Q 57.328125 34.859375 57.328125 23.390625 
Q 57.328125 12.15625 50.6875 5.359375 
Q 44.046875 -1.421875 33.015625 -1.421875 
Q 20.359375 -1.421875 13.671875 8.265625 
Q 6.984375 17.96875 6.984375 36.375 
Q 6.984375 53.65625 15.1875 63.9375 
Q 23.390625 74.21875 37.203125 74.21875 
Q 40.921875 74.21875 44.703125 73.484375 
Q 48.484375 72.75 52.59375 71.296875 
z
" id="DejaVuSans-54"/>
       </defs>
       <use xlink:href="#DejaVuSans-50"/>
       <use x="63.623047" xlink:href="#DejaVuSans-48"/>
       <use x="127.246094" xlink:href="#DejaVuSans-50"/>
       <use x="190.869141" xlink:href="#DejaVuSans-48"/>
       <use x="254.492188" xlink:href="#DejaVuSans-45"/>
       <use x="290.576172" xlink:href="#DejaVuSans-48"/>
       <use x="354.199219" xlink:href="#DejaVuSans-54"/>
      </g>
     </g>
    </g>
    <g id="xtick_5">
     <g id="line2d_5">
      <g>
       <use style="stroke:#000000;stroke-width:0.8;" x="213.382858" xlink:href="#m7136eb58a8" y="226.602246"/>
      </g>
     </g>
     <g id="text_5">
      <!-- 2020-07 -->
      <g transform="translate(176.158037 261.074092)rotate(-30)scale(0.1 -0.1)">
       <defs>
        <path d="M 8.203125 72.90625 
L 55.078125 72.90625 
L 55.078125 68.703125 
L 28.609375 0 
L 18.3125 0 
L 43.21875 64.59375 
L 8.203125 64.59375 
z
" id="DejaVuSans-55"/>
       </defs>
       <use xlink:href="#DejaVuSans-50"/>
       <use x="63.623047" xlink:href="#DejaVuSans-48"/>
       <use x="127.246094" xlink:href="#DejaVuSans-50"/>
       <use x="190.869141" xlink:href="#DejaVuSans-48"/>
       <use x="254.492188" xlink:href="#DejaVuSans-45"/>
       <use x="290.576172" xlink:href="#DejaVuSans-48"/>
       <use x="354.199219" xlink:href="#DejaVuSans-55"/>
      </g>
     </g>
    </g>
    <g id="xtick_6">
     <g id="line2d_6">
      <g>
       <use style="stroke:#000000;stroke-width:0.8;" x="250.386485" xlink:href="#m7136eb58a8" y="226.602246"/>
      </g>
     </g>
     <g id="text_6">
      <!-- 2020-08 -->
      <g transform="translate(213.161664 261.074092)rotate(-30)scale(0.1 -0.1)">
       <defs>
        <path d="M 31.78125 34.625 
Q 24.75 34.625 20.71875 30.859375 
Q 16.703125 27.09375 16.703125 20.515625 
Q 16.703125 13.921875 20.71875 10.15625 
Q 24.75 6.390625 31.78125 6.390625 
Q 38.8125 6.390625 42.859375 10.171875 
Q 46.921875 13.96875 46.921875 20.515625 
Q 46.921875 27.09375 42.890625 30.859375 
Q 38.875 34.625 31.78125 34.625 
z
M 21.921875 38.8125 
Q 15.578125 40.375 12.03125 44.71875 
Q 8.5 49.078125 8.5 55.328125 
Q 8.5 64.0625 14.71875 69.140625 
Q 20.953125 74.21875 31.78125 74.21875 
Q 42.671875 74.21875 48.875 69.140625 
Q 55.078125 64.0625 55.078125 55.328125 
Q 55.078125 49.078125 51.53125 44.71875 
Q 48 40.375 41.703125 38.8125 
Q 48.828125 37.15625 52.796875 32.3125 
Q 56.78125 27.484375 56.78125 20.515625 
Q 56.78125 9.90625 50.3125 4.234375 
Q 43.84375 -1.421875 31.78125 -1.421875 
Q 19.734375 -1.421875 13.25 4.234375 
Q 6.78125 9.90625 6.78125 20.515625 
Q 6.78125 27.484375 10.78125 32.3125 
Q 14.796875 37.15625 21.921875 38.8125 
z
M 18.3125 54.390625 
Q 18.3125 48.734375 21.84375 45.5625 
Q 25.390625 42.390625 31.78125 42.390625 
Q 38.140625 42.390625 41.71875 45.5625 
Q 45.3125 48.734375 45.3125 54.390625 
Q 45.3125 60.0625 41.71875 63.234375 
Q 38.140625 66.40625 31.78125 66.40625 
Q 25.390625 66.40625 21.84375 63.234375 
Q 18.3125 60.0625 18.3125 54.390625 
z
" id="DejaVuSans-56"/>
       </defs>
       <use xlink:href="#DejaVuSans-50"/>
       <use x="63.623047" xlink:href="#DejaVuSans-48"/>
       <use x="127.246094" xlink:href="#DejaVuSans-50"/>
       <use x="190.869141" xlink:href="#DejaVuSans-48"/>
       <use x="254.492188" xlink:href="#DejaVuSans-45"/>
       <use x="290.576172" xlink:href="#DejaVuSans-48"/>
       <use x="354.199219" xlink:href="#DejaVuSans-56"/>
      </g>
     </g>
    </g>
    <g id="xtick_7">
     <g id="line2d_7">
      <g>
       <use style="stroke:#000000;stroke-width:0.8;" x="287.390111" xlink:href="#m7136eb58a8" y="226.602246"/>
      </g>
     </g>
     <g id="text_7">
      <!-- 2020-09 -->
      <g transform="translate(250.16529 261.074092)rotate(-30)scale(0.1 -0.1)">
       <defs>
        <path d="M 10.984375 1.515625 
L 10.984375 10.5 
Q 14.703125 8.734375 18.5 7.8125 
Q 22.3125 6.890625 25.984375 6.890625 
Q 35.75 6.890625 40.890625 13.453125 
Q 46.046875 20.015625 46.78125 33.40625 
Q 43.953125 29.203125 39.59375 26.953125 
Q 35.25 24.703125 29.984375 24.703125 
Q 19.046875 24.703125 12.671875 31.3125 
Q 6.296875 37.9375 6.296875 49.421875 
Q 6.296875 60.640625 12.9375 67.421875 
Q 19.578125 74.21875 30.609375 74.21875 
Q 43.265625 74.21875 49.921875 64.515625 
Q 56.59375 54.828125 56.59375 36.375 
Q 56.59375 19.140625 48.40625 8.859375 
Q 40.234375 -1.421875 26.421875 -1.421875 
Q 22.703125 -1.421875 18.890625 -0.6875 
Q 15.09375 0.046875 10.984375 1.515625 
z
M 30.609375 32.421875 
Q 37.25 32.421875 41.125 36.953125 
Q 45.015625 41.5 45.015625 49.421875 
Q 45.015625 57.28125 41.125 61.84375 
Q 37.25 66.40625 30.609375 66.40625 
Q 23.96875 66.40625 20.09375 61.84375 
Q 16.21875 57.28125 16.21875 49.421875 
Q 16.21875 41.5 20.09375 36.953125 
Q 23.96875 32.421875 30.609375 32.421875 
z
" id="DejaVuSans-57"/>
       </defs>
       <use xlink:href="#DejaVuSans-50"/>
       <use x="63.623047" xlink:href="#DejaVuSans-48"/>
       <use x="127.246094" xlink:href="#DejaVuSans-50"/>
       <use x="190.869141" xlink:href="#DejaVuSans-48"/>
       <use x="254.492188" xlink:href="#DejaVuSans-45"/>
       <use x="290.576172" xlink:href="#DejaVuSans-48"/>
       <use x="354.199219" xlink:href="#DejaVuSans-57"/>
      </g>
     </g>
    </g>
    <g id="xtick_8">
     <g id="line2d_8">
      <g>
       <use style="stroke:#000000;stroke-width:0.8;" x="323.200073" xlink:href="#m7136eb58a8" y="226.602246"/>
      </g>
     </g>
     <g id="text_8">
      <!-- 2020-10 -->
      <g transform="translate(285.975252 261.074092)rotate(-30)scale(0.1 -0.1)">
       <defs>
        <path d="M 12.40625 8.296875 
L 28.515625 8.296875 
L 28.515625 63.921875 
L 10.984375 60.40625 
L 10.984375 69.390625 
L 28.421875 72.90625 
L 38.28125 72.90625 
L 38.28125 8.296875 
L 54.390625 8.296875 
L 54.390625 0 
L 12.40625 0 
z
" id="DejaVuSans-49"/>
       </defs>
       <use xlink:href="#DejaVuSans-50"/>
       <use x="63.623047" xlink:href="#DejaVuSans-48"/>
       <use x="127.246094" xlink:href="#DejaVuSans-50"/>
       <use x="190.869141" xlink:href="#DejaVuSans-48"/>
       <use x="254.492188" xlink:href="#DejaVuSans-45"/>
       <use x="290.576172" xlink:href="#DejaVuSans-49"/>
       <use x="354.199219" xlink:href="#DejaVuSans-48"/>
      </g>
     </g>
    </g>
    <g id="xtick_9">
     <g id="line2d_9">
      <g>
       <use style="stroke:#000000;stroke-width:0.8;" x="360.203699" xlink:href="#m7136eb58a8" y="226.602246"/>
      </g>
     </g>
     <g id="text_9">
      <!-- 2020-11 -->
      <g transform="translate(322.978878 261.074092)rotate(-30)scale(0.1 -0.1)">
       <use xlink:href="#DejaVuSans-50"/>
       <use x="63.623047" xlink:href="#DejaVuSans-48"/>
       <use x="127.246094" xlink:href="#DejaVuSans-50"/>
       <use x="190.869141" xlink:href="#DejaVuSans-48"/>
       <use x="254.492188" xlink:href="#DejaVuSans-45"/>
       <use x="290.576172" xlink:href="#DejaVuSans-49"/>
       <use x="354.199219" xlink:href="#DejaVuSans-49"/>
      </g>
     </g>
    </g>
    <g id="xtick_10">
     <g id="line2d_10">
      <g>
       <use style="stroke:#000000;stroke-width:0.8;" x="396.013661" xlink:href="#m7136eb58a8" y="226.602246"/>
      </g>
     </g>
     <g id="text_10">
      <!-- 2020-12 -->
      <g transform="translate(358.78884 261.074092)rotate(-30)scale(0.1 -0.1)">
       <use xlink:href="#DejaVuSans-50"/>
       <use x="63.623047" xlink:href="#DejaVuSans-48"/>
       <use x="127.246094" xlink:href="#DejaVuSans-50"/>
       <use x="190.869141" xlink:href="#DejaVuSans-48"/>
       <use x="254.492188" xlink:href="#DejaVuSans-45"/>
       <use x="290.576172" xlink:href="#DejaVuSans-49"/>
       <use x="354.199219" xlink:href="#DejaVuSans-50"/>
      </g>
     </g>
    </g>
    <g id="text_11">
     <!-- Date -->
     <g transform="translate(224.111719 274.473592)scale(0.1 -0.1)">
      <defs>
       <path d="M 19.671875 64.796875 
L 19.671875 8.109375 
L 31.59375 8.109375 
Q 46.6875 8.109375 53.6875 14.9375 
Q 60.6875 21.78125 60.6875 36.53125 
Q 60.6875 51.171875 53.6875 57.984375 
Q 46.6875 64.796875 31.59375 64.796875 
z
M 9.8125 72.90625 
L 30.078125 72.90625 
Q 51.265625 72.90625 61.171875 64.09375 
Q 71.09375 55.28125 71.09375 36.53125 
Q 71.09375 17.671875 61.125 8.828125 
Q 51.171875 0 30.078125 0 
L 9.8125 0 
z
" id="DejaVuSans-68"/>
       <path d="M 34.28125 27.484375 
Q 23.390625 27.484375 19.1875 25 
Q 14.984375 22.515625 14.984375 16.5 
Q 14.984375 11.71875 18.140625 8.90625 
Q 21.296875 6.109375 26.703125 6.109375 
Q 34.1875 6.109375 38.703125 11.40625 
Q 43.21875 16.703125 43.21875 25.484375 
L 43.21875 27.484375 
z
M 52.203125 31.203125 
L 52.203125 0 
L 43.21875 0 
L 43.21875 8.296875 
Q 40.140625 3.328125 35.546875 0.953125 
Q 30.953125 -1.421875 24.3125 -1.421875 
Q 15.921875 -1.421875 10.953125 3.296875 
Q 6 8.015625 6 15.921875 
Q 6 25.140625 12.171875 29.828125 
Q 18.359375 34.515625 30.609375 34.515625 
L 43.21875 34.515625 
L 43.21875 35.40625 
Q 43.21875 41.609375 39.140625 45 
Q 35.0625 48.390625 27.6875 48.390625 
Q 23 48.390625 18.546875 47.265625 
Q 14.109375 46.140625 10.015625 43.890625 
L 10.015625 52.203125 
Q 14.9375 54.109375 19.578125 55.046875 
Q 24.21875 56 28.609375 56 
Q 40.484375 56 46.34375 49.84375 
Q 52.203125 43.703125 52.203125 31.203125 
z
" id="DejaVuSans-97"/>
       <path d="M 18.3125 70.21875 
L 18.3125 54.6875 
L 36.8125 54.6875 
L 36.8125 47.703125 
L 18.3125 47.703125 
L 18.3125 18.015625 
Q 18.3125 11.328125 20.140625 9.421875 
Q 21.96875 7.515625 27.59375 7.515625 
L 36.8125 7.515625 
L 36.8125 0 
L 27.59375 0 
Q 17.1875 0 13.234375 3.875 
Q 9.28125 7.765625 9.28125 18.015625 
L 9.28125 47.703125 
L 2.6875 47.703125 
L 2.6875 54.6875 
L 9.28125 54.6875 
L 9.28125 70.21875 
z
" id="DejaVuSans-116"/>
       <path d="M 56.203125 29.59375 
L 56.203125 25.203125 
L 14.890625 25.203125 
Q 15.484375 15.921875 20.484375 11.0625 
Q 25.484375 6.203125 34.421875 6.203125 
Q 39.59375 6.203125 44.453125 7.46875 
Q 49.3125 8.734375 54.109375 11.28125 
L 54.109375 2.78125 
Q 49.265625 0.734375 44.1875 -0.34375 
Q 39.109375 -1.421875 33.890625 -1.421875 
Q 20.796875 -1.421875 13.15625 6.1875 
Q 5.515625 13.8125 5.515625 26.8125 
Q 5.515625 40.234375 12.765625 48.109375 
Q 20.015625 56 32.328125 56 
Q 43.359375 56 49.78125 48.890625 
Q 56.203125 41.796875 56.203125 29.59375 
z
M 47.21875 32.234375 
Q 47.125 39.59375 43.09375 43.984375 
Q 39.0625 48.390625 32.421875 48.390625 
Q 24.90625 48.390625 20.390625 44.140625 
Q 15.875 39.890625 15.1875 32.171875 
z
" id="DejaVuSans-101"/>
      </defs>
      <use xlink:href="#DejaVuSans-68"/>
      <use x="77.001953" xlink:href="#DejaVuSans-97"/>
      <use x="138.28125" xlink:href="#DejaVuSans-116"/>
      <use x="177.490234" xlink:href="#DejaVuSans-101"/>
     </g>
    </g>
   </g>
   <g id="matplotlib.axis_2">
    <g id="ytick_1">
     <g id="line2d_11">
      <defs>
       <path d="M 0 0 
L -3.5 0 
" id="m8358e21705" style="stroke:#000000;stroke-width:0.8;"/>
      </defs>
      <g>
       <use style="stroke:#000000;stroke-width:0.8;" x="50.925" xlink:href="#m8358e21705" y="217.520326"/>
      </g>
     </g>
     <g id="text_12">
      <!-- 0 -->
      <g transform="translate(37.5625 221.319544)scale(0.1 -0.1)">
       <use xlink:href="#DejaVuSans-48"/>
      </g>
     </g>
    </g>
    <g id="ytick_2">
     <g id="line2d_12">
      <g>
       <use style="stroke:#000000;stroke-width:0.8;" x="50.925" xlink:href="#m8358e21705" y="193.525399"/>
      </g>
     </g>
     <g id="text_13">
      <!-- 100 -->
      <g transform="translate(24.8375 197.324618)scale(0.1 -0.1)">
       <use xlink:href="#DejaVuSans-49"/>
       <use x="63.623047" xlink:href="#DejaVuSans-48"/>
       <use x="127.246094" xlink:href="#DejaVuSans-48"/>
      </g>
     </g>
    </g>
    <g id="ytick_3">
     <g id="line2d_13">
      <g>
       <use style="stroke:#000000;stroke-width:0.8;" x="50.925" xlink:href="#m8358e21705" y="169.530472"/>
      </g>
     </g>
     <g id="text_14">
      <!-- 200 -->
      <g transform="translate(24.8375 173.329691)scale(0.1 -0.1)">
       <use xlink:href="#DejaVuSans-50"/>
       <use x="63.623047" xlink:href="#DejaVuSans-48"/>
       <use x="127.246094" xlink:href="#DejaVuSans-48"/>
      </g>
     </g>
    </g>
    <g id="ytick_4">
     <g id="line2d_14">
      <g>
       <use style="stroke:#000000;stroke-width:0.8;" x="50.925" xlink:href="#m8358e21705" y="145.535545"/>
      </g>
     </g>
     <g id="text_15">
      <!-- 300 -->
      <g transform="translate(24.8375 149.334764)scale(0.1 -0.1)">
       <use xlink:href="#DejaVuSans-51"/>
       <use x="63.623047" xlink:href="#DejaVuSans-48"/>
       <use x="127.246094" xlink:href="#DejaVuSans-48"/>
      </g>
     </g>
    </g>
    <g id="ytick_5">
     <g id="line2d_15">
      <g>
       <use style="stroke:#000000;stroke-width:0.8;" x="50.925" xlink:href="#m8358e21705" y="121.540618"/>
      </g>
     </g>
     <g id="text_16">
      <!-- 400 -->
      <g transform="translate(24.8375 125.339837)scale(0.1 -0.1)">
       <use xlink:href="#DejaVuSans-52"/>
       <use x="63.623047" xlink:href="#DejaVuSans-48"/>
       <use x="127.246094" xlink:href="#DejaVuSans-48"/>
      </g>
     </g>
    </g>
    <g id="ytick_6">
     <g id="line2d_16">
      <g>
       <use style="stroke:#000000;stroke-width:0.8;" x="50.925" xlink:href="#m8358e21705" y="97.545691"/>
      </g>
     </g>
     <g id="text_17">
      <!-- 500 -->
      <g transform="translate(24.8375 101.34491)scale(0.1 -0.1)">
       <use xlink:href="#DejaVuSans-53"/>
       <use x="63.623047" xlink:href="#DejaVuSans-48"/>
       <use x="127.246094" xlink:href="#DejaVuSans-48"/>
      </g>
     </g>
    </g>
    <g id="ytick_7">
     <g id="line2d_17">
      <g>
       <use style="stroke:#000000;stroke-width:0.8;" x="50.925" xlink:href="#m8358e21705" y="73.550764"/>
      </g>
     </g>
     <g id="text_18">
      <!-- 600 -->
      <g transform="translate(24.8375 77.349983)scale(0.1 -0.1)">
       <use xlink:href="#DejaVuSans-54"/>
       <use x="63.623047" xlink:href="#DejaVuSans-48"/>
       <use x="127.246094" xlink:href="#DejaVuSans-48"/>
      </g>
     </g>
    </g>
    <g id="ytick_8">
     <g id="line2d_18">
      <g>
       <use style="stroke:#000000;stroke-width:0.8;" x="50.925" xlink:href="#m8358e21705" y="49.555837"/>
      </g>
     </g>
     <g id="text_19">
      <!-- 700 -->
      <g transform="translate(24.8375 53.355056)scale(0.1 -0.1)">
       <use xlink:href="#DejaVuSans-55"/>
       <use x="63.623047" xlink:href="#DejaVuSans-48"/>
       <use x="127.246094" xlink:href="#DejaVuSans-48"/>
      </g>
     </g>
    </g>
    <g id="text_20">
     <!-- New cases per million population -->
     <g transform="translate(18.757813 209.63081)rotate(-90)scale(0.1 -0.1)">
      <defs>
       <path d="M 9.8125 72.90625 
L 23.09375 72.90625 
L 55.421875 11.921875 
L 55.421875 72.90625 
L 64.984375 72.90625 
L 64.984375 0 
L 51.703125 0 
L 19.390625 60.984375 
L 19.390625 0 
L 9.8125 0 
z
" id="DejaVuSans-78"/>
       <path d="M 4.203125 54.6875 
L 13.1875 54.6875 
L 24.421875 12.015625 
L 35.59375 54.6875 
L 46.1875 54.6875 
L 57.421875 12.015625 
L 68.609375 54.6875 
L 77.59375 54.6875 
L 63.28125 0 
L 52.6875 0 
L 40.921875 44.828125 
L 29.109375 0 
L 18.5 0 
z
" id="DejaVuSans-119"/>
       <path id="DejaVuSans-32"/>
       <path d="M 48.78125 52.59375 
L 48.78125 44.1875 
Q 44.96875 46.296875 41.140625 47.34375 
Q 37.3125 48.390625 33.40625 48.390625 
Q 24.65625 48.390625 19.8125 42.84375 
Q 14.984375 37.3125 14.984375 27.296875 
Q 14.984375 17.28125 19.8125 11.734375 
Q 24.65625 6.203125 33.40625 6.203125 
Q 37.3125 6.203125 41.140625 7.25 
Q 44.96875 8.296875 48.78125 10.40625 
L 48.78125 2.09375 
Q 45.015625 0.34375 40.984375 -0.53125 
Q 36.96875 -1.421875 32.421875 -1.421875 
Q 20.0625 -1.421875 12.78125 6.34375 
Q 5.515625 14.109375 5.515625 27.296875 
Q 5.515625 40.671875 12.859375 48.328125 
Q 20.21875 56 33.015625 56 
Q 37.15625 56 41.109375 55.140625 
Q 45.0625 54.296875 48.78125 52.59375 
z
" id="DejaVuSans-99"/>
       <path d="M 44.28125 53.078125 
L 44.28125 44.578125 
Q 40.484375 46.53125 36.375 47.5 
Q 32.28125 48.484375 27.875 48.484375 
Q 21.1875 48.484375 17.84375 46.4375 
Q 14.5 44.390625 14.5 40.28125 
Q 14.5 37.15625 16.890625 35.375 
Q 19.28125 33.59375 26.515625 31.984375 
L 29.59375 31.296875 
Q 39.15625 29.25 43.1875 25.515625 
Q 47.21875 21.78125 47.21875 15.09375 
Q 47.21875 7.46875 41.1875 3.015625 
Q 35.15625 -1.421875 24.609375 -1.421875 
Q 20.21875 -1.421875 15.453125 -0.5625 
Q 10.6875 0.296875 5.421875 2 
L 5.421875 11.28125 
Q 10.40625 8.6875 15.234375 7.390625 
Q 20.0625 6.109375 24.8125 6.109375 
Q 31.15625 6.109375 34.5625 8.28125 
Q 37.984375 10.453125 37.984375 14.40625 
Q 37.984375 18.0625 35.515625 20.015625 
Q 33.0625 21.96875 24.703125 23.78125 
L 21.578125 24.515625 
Q 13.234375 26.265625 9.515625 29.90625 
Q 5.8125 33.546875 5.8125 39.890625 
Q 5.8125 47.609375 11.28125 51.796875 
Q 16.75 56 26.8125 56 
Q 31.78125 56 36.171875 55.265625 
Q 40.578125 54.546875 44.28125 53.078125 
z
" id="DejaVuSans-115"/>
       <path d="M 18.109375 8.203125 
L 18.109375 -20.796875 
L 9.078125 -20.796875 
L 9.078125 54.6875 
L 18.109375 54.6875 
L 18.109375 46.390625 
Q 20.953125 51.265625 25.265625 53.625 
Q 29.59375 56 35.59375 56 
Q 45.5625 56 51.78125 48.09375 
Q 58.015625 40.1875 58.015625 27.296875 
Q 58.015625 14.40625 51.78125 6.484375 
Q 45.5625 -1.421875 35.59375 -1.421875 
Q 29.59375 -1.421875 25.265625 0.953125 
Q 20.953125 3.328125 18.109375 8.203125 
z
M 48.6875 27.296875 
Q 48.6875 37.203125 44.609375 42.84375 
Q 40.53125 48.484375 33.40625 48.484375 
Q 26.265625 48.484375 22.1875 42.84375 
Q 18.109375 37.203125 18.109375 27.296875 
Q 18.109375 17.390625 22.1875 11.75 
Q 26.265625 6.109375 33.40625 6.109375 
Q 40.53125 6.109375 44.609375 11.75 
Q 48.6875 17.390625 48.6875 27.296875 
z
" id="DejaVuSans-112"/>
       <path d="M 41.109375 46.296875 
Q 39.59375 47.171875 37.8125 47.578125 
Q 36.03125 48 33.890625 48 
Q 26.265625 48 22.1875 43.046875 
Q 18.109375 38.09375 18.109375 28.8125 
L 18.109375 0 
L 9.078125 0 
L 9.078125 54.6875 
L 18.109375 54.6875 
L 18.109375 46.1875 
Q 20.953125 51.171875 25.484375 53.578125 
Q 30.03125 56 36.53125 56 
Q 37.453125 56 38.578125 55.875 
Q 39.703125 55.765625 41.0625 55.515625 
z
" id="DejaVuSans-114"/>
       <path d="M 52 44.1875 
Q 55.375 50.25 60.0625 53.125 
Q 64.75 56 71.09375 56 
Q 79.640625 56 84.28125 50.015625 
Q 88.921875 44.046875 88.921875 33.015625 
L 88.921875 0 
L 79.890625 0 
L 79.890625 32.71875 
Q 79.890625 40.578125 77.09375 44.375 
Q 74.3125 48.1875 68.609375 48.1875 
Q 61.625 48.1875 57.5625 43.546875 
Q 53.515625 38.921875 53.515625 30.90625 
L 53.515625 0 
L 44.484375 0 
L 44.484375 32.71875 
Q 44.484375 40.625 41.703125 44.40625 
Q 38.921875 48.1875 33.109375 48.1875 
Q 26.21875 48.1875 22.15625 43.53125 
Q 18.109375 38.875 18.109375 30.90625 
L 18.109375 0 
L 9.078125 0 
L 9.078125 54.6875 
L 18.109375 54.6875 
L 18.109375 46.1875 
Q 21.1875 51.21875 25.484375 53.609375 
Q 29.78125 56 35.6875 56 
Q 41.65625 56 45.828125 52.96875 
Q 50 49.953125 52 44.1875 
z
" id="DejaVuSans-109"/>
       <path d="M 9.421875 54.6875 
L 18.40625 54.6875 
L 18.40625 0 
L 9.421875 0 
z
M 9.421875 75.984375 
L 18.40625 75.984375 
L 18.40625 64.59375 
L 9.421875 64.59375 
z
" id="DejaVuSans-105"/>
       <path d="M 9.421875 75.984375 
L 18.40625 75.984375 
L 18.40625 0 
L 9.421875 0 
z
" id="DejaVuSans-108"/>
       <path d="M 30.609375 48.390625 
Q 23.390625 48.390625 19.1875 42.75 
Q 14.984375 37.109375 14.984375 27.296875 
Q 14.984375 17.484375 19.15625 11.84375 
Q 23.34375 6.203125 30.609375 6.203125 
Q 37.796875 6.203125 41.984375 11.859375 
Q 46.1875 17.53125 46.1875 27.296875 
Q 46.1875 37.015625 41.984375 42.703125 
Q 37.796875 48.390625 30.609375 48.390625 
z
M 30.609375 56 
Q 42.328125 56 49.015625 48.375 
Q 55.71875 40.765625 55.71875 27.296875 
Q 55.71875 13.875 49.015625 6.21875 
Q 42.328125 -1.421875 30.609375 -1.421875 
Q 18.84375 -1.421875 12.171875 6.21875 
Q 5.515625 13.875 5.515625 27.296875 
Q 5.515625 40.765625 12.171875 48.375 
Q 18.84375 56 30.609375 56 
z
" id="DejaVuSans-111"/>
       <path d="M 54.890625 33.015625 
L 54.890625 0 
L 45.90625 0 
L 45.90625 32.71875 
Q 45.90625 40.484375 42.875 44.328125 
Q 39.84375 48.1875 33.796875 48.1875 
Q 26.515625 48.1875 22.3125 43.546875 
Q 18.109375 38.921875 18.109375 30.90625 
L 18.109375 0 
L 9.078125 0 
L 9.078125 54.6875 
L 18.109375 54.6875 
L 18.109375 46.1875 
Q 21.34375 51.125 25.703125 53.5625 
Q 30.078125 56 35.796875 56 
Q 45.21875 56 50.046875 50.171875 
Q 54.890625 44.34375 54.890625 33.015625 
z
" id="DejaVuSans-110"/>
       <path d="M 8.5 21.578125 
L 8.5 54.6875 
L 17.484375 54.6875 
L 17.484375 21.921875 
Q 17.484375 14.15625 20.5 10.265625 
Q 23.53125 6.390625 29.59375 6.390625 
Q 36.859375 6.390625 41.078125 11.03125 
Q 45.3125 15.671875 45.3125 23.6875 
L 45.3125 54.6875 
L 54.296875 54.6875 
L 54.296875 0 
L 45.3125 0 
L 45.3125 8.40625 
Q 42.046875 3.421875 37.71875 1 
Q 33.40625 -1.421875 27.6875 -1.421875 
Q 18.265625 -1.421875 13.375 4.4375 
Q 8.5 10.296875 8.5 21.578125 
z
M 31.109375 56 
z
" id="DejaVuSans-117"/>
      </defs>
      <use xlink:href="#DejaVuSans-78"/>
      <use x="74.804688" xlink:href="#DejaVuSans-101"/>
      <use x="136.328125" xlink:href="#DejaVuSans-119"/>
      <use x="218.115234" xlink:href="#DejaVuSans-32"/>
      <use x="249.902344" xlink:href="#DejaVuSans-99"/>
      <use x="304.882812" xlink:href="#DejaVuSans-97"/>
      <use x="366.162109" xlink:href="#DejaVuSans-115"/>
      <use x="418.261719" xlink:href="#DejaVuSans-101"/>
      <use x="479.785156" xlink:href="#DejaVuSans-115"/>
      <use x="531.884766" xlink:href="#DejaVuSans-32"/>
      <use x="563.671875" xlink:href="#DejaVuSans-112"/>
      <use x="627.148438" xlink:href="#DejaVuSans-101"/>
      <use x="688.671875" xlink:href="#DejaVuSans-114"/>
      <use x="729.785156" xlink:href="#DejaVuSans-32"/>
      <use x="761.572266" xlink:href="#DejaVuSans-109"/>
      <use x="858.984375" xlink:href="#DejaVuSans-105"/>
      <use x="886.767578" xlink:href="#DejaVuSans-108"/>
      <use x="914.550781" xlink:href="#DejaVuSans-108"/>
      <use x="942.333984" xlink:href="#DejaVuSans-105"/>
      <use x="970.117188" xlink:href="#DejaVuSans-111"/>
      <use x="1031.298828" xlink:href="#DejaVuSans-110"/>
      <use x="1094.677734" xlink:href="#DejaVuSans-32"/>
      <use x="1126.464844" xlink:href="#DejaVuSans-112"/>
      <use x="1189.941406" xlink:href="#DejaVuSans-111"/>
      <use x="1251.123047" xlink:href="#DejaVuSans-112"/>
      <use x="1314.599609" xlink:href="#DejaVuSans-117"/>
      <use x="1377.978516" xlink:href="#DejaVuSans-108"/>
      <use x="1405.761719" xlink:href="#DejaVuSans-97"/>
      <use x="1467.041016" xlink:href="#DejaVuSans-116"/>
      <use x="1506.25" xlink:href="#DejaVuSans-105"/>
      <use x="1534.033203" xlink:href="#DejaVuSans-111"/>
      <use x="1595.214844" xlink:href="#DejaVuSans-110"/>
     </g>
    </g>
   </g>
   <g id="line2d_19">
    <path clip-path="url(#pbe027e01c7)" d="M 68.949347 216.82091 
L 70.143013 217.170618 
L 72.530343 217.345472 
L 77.305005 217.520326 
L 80.886001 217.020743 
L 83.273332 217.020743 
L 85.660662 216.621077 
L 88.047993 216.720993 
L 91.628989 215.921661 
L 92.822655 215.821745 
L 96.403651 214.922496 
L 97.597316 214.822579 
L 98.790982 213.423748 
L 99.984647 212.524499 
L 101.178312 210.526168 
L 102.371978 209.427086 
L 103.565643 208.028254 
L 104.759309 205.630258 
L 107.146639 201.633596 
L 108.340305 199.635265 
L 109.53397 198.736016 
L 110.727635 197.237268 
L 111.921301 196.03827 
L 113.114966 196.138186 
L 114.308632 196.03827 
L 115.502297 197.137352 
L 116.695962 198.6361 
L 117.889628 199.135682 
L 119.083293 200.734347 
L 120.276958 201.533679 
L 121.470624 202.133179 
L 122.664289 201.933346 
L 123.857955 201.333846 
L 125.05162 200.434598 
L 126.245285 200.734347 
L 127.438951 200.034931 
L 128.632616 197.836767 
L 129.826281 197.237268 
L 131.019947 197.237268 
L 132.213612 197.936684 
L 133.407278 198.036601 
L 134.600943 198.736016 
L 135.794608 197.237268 
L 138.181939 196.537852 
L 139.375604 196.138186 
L 140.56927 194.839271 
L 141.762935 194.739355 
L 142.956601 193.840106 
L 144.150266 195.238937 
L 145.343931 197.237268 
L 146.537597 197.037435 
L 147.731262 198.33635 
L 148.924927 197.936684 
L 150.118593 198.6361 
L 151.312258 199.135682 
L 152.505924 197.836767 
L 153.699589 197.237268 
L 154.893254 197.437101 
L 156.08692 196.03827 
L 157.280585 197.736851 
L 158.47425 197.237268 
L 159.667916 197.437101 
L 162.055247 198.436267 
L 163.248912 198.736016 
L 164.442577 200.93418 
L 165.636243 201.433763 
L 168.023574 202.033262 
L 169.217239 204.331343 
L 170.410904 204.531176 
L 171.60457 206.029924 
L 172.798235 204.731009 
L 173.9919 204.431259 
L 175.185566 205.530341 
L 176.379231 205.930007 
L 177.572897 204.731009 
L 178.766562 205.930007 
L 179.960227 206.229757 
L 181.153893 207.328839 
L 182.347558 209.02742 
L 183.541223 208.927503 
L 184.734889 209.527003 
L 185.928554 210.925834 
L 187.12222 211.725166 
L 188.315885 212.024916 
L 189.50955 212.824248 
L 190.703216 212.424582 
L 193.090546 212.524499 
L 194.284212 212.324666 
L 195.477877 211.925 
L 197.865208 212.024916 
L 199.058873 212.424582 
L 200.252539 213.223915 
L 201.446204 213.523664 
L 202.639869 214.123163 
L 203.833535 214.52283 
L 205.0272 214.622746 
L 206.220866 214.023247 
L 207.414531 214.22308 
L 209.801862 213.92333 
L 210.995527 213.024081 
L 212.189192 212.924165 
L 213.382858 213.123998 
L 214.576523 213.823414 
L 215.770189 214.023247 
L 216.963854 213.423748 
L 218.157519 213.323831 
L 219.351185 214.422913 
L 220.54485 214.822579 
L 221.738515 214.52283 
L 222.932181 213.523664 
L 224.125846 213.323831 
L 225.319512 214.023247 
L 226.513177 214.22308 
L 227.706842 214.123163 
L 228.900508 213.723497 
L 230.094173 214.22308 
L 231.287838 215.022412 
L 233.675169 215.022412 
L 234.868835 215.222245 
L 236.0625 214.922496 
L 239.643496 216.021578 
L 240.837162 215.721828 
L 243.224492 215.422078 
L 244.418158 215.222245 
L 245.611823 215.322162 
L 246.805488 215.022412 
L 250.386485 214.822579 
L 252.773815 215.422078 
L 256.354811 214.822579 
L 257.548477 215.322162 
L 258.742142 215.521995 
L 262.323138 215.521995 
L 263.516804 216.021578 
L 267.0978 215.422078 
L 270.678796 215.521995 
L 271.872461 214.722663 
L 273.066127 214.722663 
L 274.259792 214.922496 
L 277.840788 214.422913 
L 279.034454 214.622746 
L 280.228119 214.622746 
L 281.421784 215.022412 
L 285.00278 214.822579 
L 286.196446 214.422913 
L 289.777442 211.925 
L 290.971107 211.62525 
L 292.164773 210.626084 
L 293.358438 210.226418 
L 294.552103 208.228088 
L 295.745769 207.528672 
L 296.939434 207.928338 
L 298.1331 207.728505 
L 299.326765 206.42959 
L 301.714096 206.929173 
L 302.907761 208.028254 
L 304.101426 208.328004 
L 305.295092 206.629423 
L 306.488757 206.729339 
L 307.682423 206.12984 
L 310.069753 202.333012 
L 311.263419 200.734347 
L 312.457084 198.33635 
L 313.65075 197.936684 
L 314.844415 195.938353 
L 316.03808 194.439605 
L 317.231746 194.039939 
L 318.425411 192.541191 
L 319.619076 191.641942 
L 320.812742 189.743528 
L 324.393738 179.951707 
L 325.587403 177.753543 
L 326.781069 174.156548 
L 327.974734 170.159886 
L 330.362065 160.767731 
L 331.55573 157.07082 
L 332.749396 156.371404 
L 333.943061 153.973407 
L 335.136726 154.972572 
L 336.330392 152.074993 
L 337.524057 152.774408 
L 338.717722 154.17324 
L 339.911388 154.273156 
L 341.105053 152.574575 
L 342.298719 153.473824 
L 343.492384 150.875994 
L 344.686049 148.577914 
L 345.879715 145.880167 
L 347.07338 141.883506 
L 348.267045 142.682838 
L 349.460711 143.182421 
L 350.654376 141.983422 
L 351.848042 138.985926 
L 353.041707 138.386427 
L 354.235372 137.287345 
L 355.429038 138.786093 
L 356.622703 133.690349 
L 357.816368 131.292352 
L 359.010034 131.692019 
L 360.203699 134.689515 
L 361.397365 133.09085 
L 362.59103 133.890182 
L 363.784695 131.392269 
L 364.978361 130.393104 
L 366.172026 125.497193 
L 367.365691 122.599614 
L 368.559357 118.602952 
L 369.753022 113.707042 
L 370.946688 109.310714 
L 372.140353 106.513051 
L 374.527684 112.408127 
L 375.721349 112.508043 
L 376.915015 114.406457 
L 378.10868 122.39978 
L 379.302345 128.294856 
L 380.496011 135.588764 
L 381.689676 139.185759 
L 384.077007 155.272322 
L 386.464338 167.46214 
L 387.658003 174.356381 
L 390.045334 183.149036 
L 391.238999 183.149036 
L 392.432664 180.651123 
L 393.62633 182.649454 
L 394.819995 183.248953 
L 396.013661 181.250622 
L 397.207326 182.949203 
L 398.400991 181.850121 
L 399.594657 181.950038 
L 400.788322 182.949203 
L 401.981987 181.150705 
L 403.175653 182.44962 
L 404.369318 188.344696 
L 404.369318 188.344696 
" style="fill:none;stroke:#1f77b4;stroke-linecap:square;stroke-width:1.5;"/>
   </g>
   <g id="line2d_20">
    <path clip-path="url(#pbe027e01c7)" d="M 79.692336 216.842932 
L 82.079666 216.842932 
L 84.466997 217.113889 
L 86.854328 216.746161 
L 89.241659 215.875226 
L 90.435324 215.778455 
L 91.628989 215.294602 
L 92.822655 214.617208 
L 94.01632 213.746273 
L 95.209985 212.101172 
L 96.403651 212.101172 
L 98.790982 210.843155 
L 99.984647 210.262531 
L 102.371978 211.423778 
L 103.565643 210.746384 
L 104.759309 208.036807 
L 105.952974 206.972331 
L 107.146639 205.23046 
L 108.340305 204.843378 
L 110.727635 200.972554 
L 111.921301 201.166095 
L 113.114966 202.424113 
L 114.308632 201.649948 
L 115.502297 202.230572 
L 116.695962 202.037031 
L 117.889628 201.649948 
L 119.083293 203.198278 
L 120.276958 204.262754 
L 121.470624 204.843378 
L 122.664289 206.972331 
L 123.857955 207.746496 
L 125.05162 207.649725 
L 126.245285 207.359413 
L 127.438951 205.617543 
L 128.632616 205.13369 
L 129.826281 203.682131 
L 131.019947 202.520884 
L 132.213612 200.101619 
L 133.407278 199.811307 
L 134.600943 201.746719 
L 135.794608 200.972554 
L 136.988274 199.714536 
L 138.181939 198.940372 
L 139.375604 197.00496 
L 140.56927 199.037142 
L 141.762935 200.101619 
L 142.956601 199.037142 
L 144.150266 199.037142 
L 145.343931 199.714536 
L 146.537597 197.972666 
L 147.731262 199.133913 
L 148.924927 197.392042 
L 150.118593 196.617877 
L 151.312258 195.650171 
L 152.505924 195.940483 
L 153.699589 194.585695 
L 154.893254 196.230795 
L 156.08692 196.327566 
L 157.280585 195.45663 
L 158.47425 191.392265 
L 159.667916 190.811642 
L 160.861581 190.714871 
L 162.055247 190.037477 
L 163.248912 189.747165 
L 164.442577 187.521441 
L 165.636243 189.456853 
L 166.829908 192.263201 
L 168.023574 193.521218 
L 169.217239 194.295383 
L 170.410904 196.327566 
L 171.60457 197.10173 
L 172.798235 198.843601 
L 173.9919 198.553289 
L 175.185566 199.520995 
L 176.379231 198.843601 
L 177.572897 197.00496 
L 178.766562 192.843824 
L 179.960227 193.230907 
L 183.541223 192.456742 
L 184.734889 190.6181 
L 185.928554 189.263312 
L 187.12222 189.553624 
L 188.315885 186.650506 
L 189.50955 182.876453 
L 190.703216 180.166876 
L 191.896881 176.876676 
L 193.090546 175.425117 
L 194.284212 173.683246 
L 196.671543 172.038146 
L 197.865208 172.231688 
L 199.058873 170.005964 
L 200.252539 169.135029 
L 201.446204 168.747946 
L 202.639869 167.393158 
L 203.833535 165.651287 
L 205.0272 162.84494 
L 206.220866 162.941711 
L 207.414531 163.715875 
L 208.608196 165.167434 
L 209.801862 168.167323 
L 210.995527 169.231799 
L 212.189192 172.231688 
L 213.382858 174.844494 
L 214.576523 176.392823 
L 215.770189 177.166988 
L 216.963854 178.328235 
L 218.157519 174.070329 
L 220.54485 174.360641 
L 221.738515 175.231576 
L 222.932181 176.489594 
L 224.125846 176.102511 
L 225.319512 174.26387 
L 226.513177 179.392712 
L 227.706842 182.199059 
L 228.900508 184.0377 
L 230.094173 186.166653 
L 231.287838 185.973112 
L 232.481504 189.069771 
L 233.675169 191.489036 
L 234.868835 192.16643 
L 236.0625 193.908301 
L 237.256165 194.972777 
L 238.449831 194.198612 
L 240.837162 195.069548 
L 242.030827 197.00496 
L 243.224492 197.198501 
L 244.418158 195.940483 
L 246.805488 197.585583 
L 247.999154 197.682354 
L 249.192819 198.843601 
L 250.386485 197.488813 
L 251.58015 197.875895 
L 252.773815 199.037142 
L 253.967481 198.262977 
L 256.354811 197.198501 
L 257.548477 195.35986 
L 258.742142 194.392154 
L 259.935808 193.71476 
L 261.129473 193.424448 
L 262.323138 193.327677 
L 263.516804 195.35986 
L 264.710469 196.714648 
L 265.904134 197.488813 
L 267.0978 199.520995 
L 268.291465 200.391931 
L 269.485131 199.133913 
L 270.678796 198.553289 
L 271.872461 199.133913 
L 273.066127 200.198389 
L 274.259792 200.779013 
L 275.453457 201.649948 
L 276.647123 201.746719 
L 277.840788 204.843378 
L 279.034454 207.069102 
L 280.228119 207.649725 
L 281.421784 208.42389 
L 282.61545 208.714202 
L 285.00278 208.617431 
L 286.196446 208.810972 
L 287.390111 206.682019 
L 288.583777 203.48859 
L 289.777442 201.843489 
L 293.358438 196.521107 
L 294.552103 192.456742 
L 295.745769 190.327789 
L 296.939434 189.166542 
L 299.326765 187.3279 
L 300.52043 186.263424 
L 301.714096 185.779571 
L 302.907761 186.360194 
L 304.101426 186.166653 
L 305.295092 186.553736 
L 307.682423 181.424894 
L 308.876088 178.037923 
L 310.069753 177.4573 
L 311.263419 176.005741 
L 313.65075 174.070329 
L 314.844415 175.521888 
L 316.03808 178.037923 
L 317.231746 179.779794 
L 318.425411 179.779794 
L 319.619076 181.521665 
L 320.812742 180.166876 
L 322.006407 177.55407 
L 323.200073 174.070329 
L 324.393738 168.844717 
L 325.587403 168.264093 
L 327.974734 161.006299 
L 329.168399 158.974116 
L 330.362065 154.329128 
L 331.55573 148.039039 
L 332.749396 147.458415 
L 333.943061 146.49071 
L 335.136726 142.329574 
L 336.330392 136.81365 
L 337.524057 135.362091 
L 338.717722 130.039708 
L 339.911388 131.87835 
L 341.105053 131.200956 
L 342.298719 130.039708 
L 343.492384 131.297726 
L 344.686049 128.58815 
L 345.879715 122.007749 
L 347.07338 120.265878 
L 348.267045 115.137037 
L 349.460711 107.298619 
L 350.654376 100.234365 
L 351.848042 95.782918 
L 353.041707 93.073341 
L 354.235372 92.492718 
L 355.429038 92.976571 
L 356.622703 86.39617 
L 357.816368 87.460647 
L 359.010034 89.105747 
L 360.203699 92.395947 
L 361.397365 81.944723 
L 362.59103 74.97724 
L 363.784695 76.815882 
L 364.978361 78.364211 
L 366.172026 74.106305 
L 367.365691 66.558199 
L 368.559357 55.526351 
L 369.753022 52.236151 
L 370.946688 49.526574 
L 372.140353 37.139938 
L 373.334018 35.978691 
L 374.527684 35.88192 
L 375.721349 37.914103 
L 376.915015 41.881697 
L 378.10868 49.042721 
L 379.302345 53.78448 
L 380.496011 61.719669 
L 381.689676 70.622564 
L 382.883341 75.557864 
L 385.270672 87.073565 
L 386.464338 93.557194 
L 387.658003 101.298842 
L 388.851668 108.169554 
L 390.045334 109.330801 
L 391.238999 115.524119 
L 392.432664 118.233696 
L 393.62633 123.072226 
L 394.819995 126.555967 
L 396.013661 127.03982 
L 397.207326 132.749285 
L 398.400991 132.846056 
L 399.594657 132.362203 
L 400.788322 133.329909 
L 401.981987 129.072003 
L 403.175653 137.394274 
L 404.369318 152.200175 
L 404.369318 152.200175 
" style="fill:none;stroke:#ff7f0e;stroke-linecap:square;stroke-width:1.5;"/>
   </g>
   <g id="line2d_21">
    <path clip-path="url(#pbe027e01c7)" d="M 70.143013 217.132092 
L 71.336678 217.326209 
L 74.917674 217.442679 
L 77.305005 217.409402 
L 89.241659 216.799321 
L 90.435324 216.411087 
L 91.628989 215.856468 
L 92.822655 215.745544 
L 94.01632 215.190925 
L 96.403651 214.303534 
L 98.790982 213.249757 
L 99.984647 213.138833 
L 101.178312 212.528752 
L 102.371978 211.530437 
L 103.565643 210.975818 
L 104.759309 209.86658 
L 105.952974 209.478346 
L 108.340305 207.925412 
L 109.53397 207.426255 
L 110.727635 207.537178 
L 111.921301 206.816173 
L 113.114966 206.982559 
L 114.308632 206.594326 
L 116.695962 207.038021 
L 117.889628 206.760711 
L 119.083293 206.871635 
L 120.276958 207.759026 
L 121.470624 206.927097 
L 122.664289 206.594326 
L 123.857955 206.649788 
L 125.05162 206.538864 
L 126.245285 205.706935 
L 127.438951 204.597696 
L 128.632616 203.654843 
L 129.826281 203.710305 
L 131.019947 202.379219 
L 132.213612 200.327128 
L 133.407278 200.049818 
L 134.600943 198.607808 
L 135.794608 198.38596 
L 136.988274 197.443107 
L 138.181939 195.058245 
L 139.375604 194.836397 
L 140.56927 195.391016 
L 141.762935 194.947321 
L 142.956601 196.500255 
L 144.150266 196.833026 
L 145.343931 196.444793 
L 146.537597 198.38596 
L 147.731262 197.332184 
L 148.924927 198.219574 
L 151.312258 199.106965 
L 153.699589 200.38259 
L 154.893254 201.436366 
L 156.08692 204.098539 
L 157.280585 204.930468 
L 158.47425 205.928783 
L 159.667916 206.594326 
L 160.861581 207.759026 
L 163.248912 209.201036 
L 165.636243 209.478346 
L 166.829908 208.979189 
L 168.023574 209.422884 
L 169.217239 209.201036 
L 170.410904 210.254813 
L 171.60457 209.700194 
L 172.798235 209.367422 
L 175.185566 209.811118 
L 176.379231 209.422884 
L 177.572897 209.977503 
L 178.766562 210.143889 
L 179.960227 211.30859 
L 181.153893 212.7506 
L 182.347558 212.972448 
L 183.541223 213.970762 
L 184.734889 214.747229 
L 185.928554 214.969077 
L 187.12222 215.35731 
L 188.315885 214.691767 
L 190.703216 214.802691 
L 191.896881 213.970762 
L 193.090546 213.748915 
L 194.284212 212.7506 
L 195.477877 212.528752 
L 196.671543 212.7506 
L 197.865208 212.251442 
L 201.446204 212.806062 
L 202.639869 213.360681 
L 203.833535 213.416143 
L 206.220866 214.580843 
L 207.414531 214.858153 
L 208.608196 215.35731 
L 214.576523 216.355625 
L 216.963854 216.355625 
L 219.351185 216.577473 
L 220.54485 216.688397 
L 224.125846 216.632935 
L 226.513177 216.799321 
L 227.706842 216.577473 
L 228.900508 216.522011 
L 231.287838 216.854783 
L 234.868835 216.854783 
L 237.256165 217.187554 
L 238.449831 216.965706 
L 239.643496 216.965706 
L 243.224492 216.577473 
L 244.418158 216.632935 
L 246.805488 216.078316 
L 249.192819 216.189239 
L 250.386485 216.300163 
L 252.773815 216.189239 
L 259.935808 215.91193 
L 261.129473 215.523696 
L 263.516804 215.523696 
L 264.710469 215.412772 
L 265.904134 214.802691 
L 270.678796 214.636305 
L 273.066127 214.802691 
L 274.259792 215.468234 
L 276.647123 215.523696 
L 279.034454 215.967392 
L 280.228119 216.022854 
L 281.421784 215.523696 
L 282.61545 215.35731 
L 283.809115 214.969077 
L 285.00278 214.913615 
L 286.196446 214.580843 
L 289.777442 211.364052 
L 290.971107 209.700194 
L 292.164773 209.201036 
L 293.358438 208.369107 
L 294.552103 206.095168 
L 295.745769 205.485087 
L 296.939434 205.374163 
L 298.1331 205.540549 
L 299.326765 206.15063 
L 300.52043 206.538864 
L 301.714096 205.873321 
L 302.907761 206.871635 
L 304.101426 207.426255 
L 307.682423 206.538864 
L 308.876088 205.429625 
L 310.069753 204.70862 
L 311.263419 204.209463 
L 312.457084 202.601067 
L 314.844415 201.491828 
L 316.03808 200.937209 
L 317.231746 200.937209 
L 318.425411 200.493514 
L 319.619076 198.275036 
L 320.812742 197.165798 
L 322.006407 195.058245 
L 323.200073 195.335554 
L 324.393738 192.34061 
L 325.587403 191.342295 
L 326.781069 190.954062 
L 330.362065 186.905341 
L 331.55573 182.579311 
L 332.749396 182.024691 
L 333.943061 179.917138 
L 335.136726 178.641514 
L 336.330392 176.866732 
L 337.524057 176.423036 
L 338.717722 174.981026 
L 339.911388 175.535646 
L 342.298719 174.093635 
L 343.492384 172.318854 
L 344.686049 170.266762 
L 347.07338 164.942417 
L 348.267045 163.112173 
L 349.460711 160.782772 
L 350.654376 159.673534 
L 351.848042 159.340762 
L 353.041707 157.898752 
L 354.235372 155.125656 
L 355.429038 153.350874 
L 356.622703 151.908864 
L 359.010034 147.360986 
L 360.203699 145.808052 
L 361.397365 141.093788 
L 362.59103 137.98792 
L 364.978361 131.332488 
L 366.172026 125.61991 
L 367.365691 122.125808 
L 368.559357 115.803148 
L 369.753022 111.366194 
L 370.946688 110.090569 
L 372.140353 109.092255 
L 373.334018 108.482174 
L 374.527684 112.808204 
L 375.721349 115.692224 
L 376.915015 122.18127 
L 378.10868 126.895534 
L 379.302345 128.670316 
L 381.689676 140.761016 
L 382.883341 146.362671 
L 384.077007 149.967696 
L 385.270672 153.073564 
L 387.658003 169.379371 
L 388.851668 173.039859 
L 391.238999 179.029747 
L 392.432664 180.804529 
L 393.62633 181.69192 
L 394.819995 181.913767 
L 396.013661 181.359148 
L 397.207326 181.525534 
L 398.400991 181.470072 
L 399.594657 180.970915 
L 400.788322 182.024691 
L 401.981987 181.802844 
L 403.175653 184.132245 
L 404.369318 190.122133 
L 404.369318 190.122133 
" style="fill:none;stroke:#2ca02c;stroke-linecap:square;stroke-width:1.5;"/>
   </g>
   <g id="line2d_22">
    <path clip-path="url(#pbe027e01c7)" d="M 82.079666 216.776145 
L 83.273332 217.148235 
L 84.466997 216.776145 
L 85.660662 216.776145 
L 86.854328 216.627308 
L 88.047993 216.652114 
L 90.435324 216.563521 
L 92.822655 216.45721 
L 96.403651 214.43729 
L 97.597316 213.374174 
L 98.790982 212.736305 
L 99.984647 211.673189 
L 101.178312 211.354254 
L 102.371978 211.354254 
L 103.565643 210.39745 
L 104.759309 206.99548 
L 105.952974 205.613429 
L 109.53397 200.510473 
L 110.727635 198.27793 
L 111.921301 196.789568 
L 113.114966 197.321126 
L 114.308632 196.151699 
L 115.502297 196.045387 
L 117.889628 193.068663 
L 119.083293 192.749728 
L 120.276958 192.111859 
L 121.470624 193.174975 
L 122.664289 192.111859 
L 123.857955 190.517185 
L 125.05162 189.241446 
L 126.245285 189.454069 
L 127.438951 189.454069 
L 128.632616 189.666693 
L 129.826281 187.965707 
L 131.019947 189.666693 
L 132.213612 188.922512 
L 133.407278 192.21817 
L 134.600943 194.23809 
L 135.794608 194.23809 
L 138.181939 196.364322 
L 139.375604 194.450714 
L 140.56927 196.470633 
L 141.762935 197.108503 
L 142.956601 197.214815 
L 144.150266 198.809488 
L 145.343931 199.872604 
L 146.537597 199.766292 
L 147.731262 202.105147 
L 148.924927 203.380886 
L 150.118593 203.806132 
L 151.312258 203.806132 
L 152.505924 201.360966 
L 153.699589 200.404162 
L 154.893254 202.530393 
L 156.08692 204.231379 
L 157.280585 204.97556 
L 158.47425 205.188183 
L 159.667916 206.251299 
L 160.861581 209.546957 
L 162.055247 211.460566 
L 163.248912 212.098435 
L 164.442577 211.992124 
L 165.636243 212.311058 
L 166.829908 213.161551 
L 169.217239 212.629993 
L 170.410904 212.842616 
L 171.60457 211.03532 
L 172.798235 211.141631 
L 173.9919 210.929008 
L 175.185566 209.759581 
L 176.379231 210.184827 
L 177.572897 210.291138 
L 178.766562 210.184827 
L 179.960227 212.41737 
L 181.153893 212.948928 
L 182.347558 213.693109 
L 183.541223 214.118355 
L 184.734889 214.118355 
L 185.928554 214.862536 
L 187.12222 214.756225 
L 188.315885 214.224667 
L 189.50955 214.756225 
L 190.703216 214.43729 
L 191.896881 214.862536 
L 194.284212 214.756225 
L 195.477877 215.287783 
L 196.671543 215.500406 
L 197.865208 215.394094 
L 199.058873 215.500406 
L 200.252539 215.81934 
L 201.446204 216.350898 
L 203.833535 216.244587 
L 205.0272 216.669833 
L 209.801862 216.563521 
L 212.189192 216.45721 
L 213.382858 216.563521 
L 214.576523 216.45721 
L 215.770189 216.563521 
L 216.963854 216.350898 
L 220.54485 216.563521 
L 224.125846 216.669833 
L 226.513177 216.882456 
L 227.706842 217.201391 
L 228.900508 217.307703 
L 233.675169 216.988768 
L 234.868835 216.988768 
L 237.256165 216.669833 
L 239.643496 216.669833 
L 240.837162 216.882456 
L 243.224492 216.882456 
L 244.418158 217.095079 
L 246.805488 217.201391 
L 249.192819 217.307703 
L 250.386485 217.307703 
L 252.773815 216.882456 
L 253.967481 216.988768 
L 256.354811 216.882456 
L 261.129473 216.988768 
L 262.323138 216.45721 
L 263.516804 215.713029 
L 264.710469 215.500406 
L 268.291465 215.394094 
L 269.485131 215.181471 
L 270.678796 215.606717 
L 271.872461 215.606717 
L 273.066127 215.181471 
L 274.259792 214.543602 
L 275.453457 213.480486 
L 276.647123 213.480486 
L 277.840788 213.799421 
L 279.034454 213.586797 
L 282.61545 214.756225 
L 283.809115 214.862536 
L 285.00278 214.43729 
L 286.196446 213.799421 
L 287.390111 212.311058 
L 290.971107 210.078515 
L 292.164773 210.39745 
L 294.552103 209.653269 
L 295.745769 210.291138 
L 296.939434 210.078515 
L 299.326765 208.37753 
L 300.52043 208.271219 
L 301.714096 207.739661 
L 304.101426 205.294494 
L 305.295092 202.105147 
L 306.488757 199.872604 
L 307.682423 196.364322 
L 308.876088 193.387598 
L 310.069753 188.497265 
L 311.263419 182.862752 
L 312.457084 177.866108 
L 313.65075 172.018971 
L 314.844415 168.298066 
L 316.03808 165.959211 
L 317.231746 161.600436 
L 318.425411 161.706748 
L 319.619076 161.17519 
L 320.812742 162.769864 
L 322.006407 165.640276 
L 323.200073 165.852899 
L 324.393738 164.57716 
L 325.587403 166.916015 
L 326.781069 164.896095 
L 327.974734 163.514045 
L 329.168399 158.730024 
L 330.362065 156.497481 
L 331.55573 155.7533 
L 332.749396 155.434365 
L 333.943061 156.710104 
L 335.136726 160.749944 
L 336.330392 162.238306 
L 337.524057 163.19511 
L 338.717722 162.025683 
L 339.911388 162.344617 
L 341.105053 164.57716 
L 342.298719 162.131994 
L 343.492384 161.17519 
L 344.686049 159.899451 
L 345.879715 161.281502 
L 347.07338 161.281502 
L 349.460711 157.879531 
L 350.654376 156.391169 
L 351.848042 154.158626 
L 353.041707 153.308133 
L 354.235372 150.969279 
L 355.429038 152.670264 
L 356.622703 151.394525 
L 357.816368 149.69354 
L 359.010034 151.288213 
L 360.203699 151.07559 
L 361.397365 148.630424 
L 363.784695 142.676976 
L 364.978361 141.932795 
L 366.172026 138.105578 
L 367.365691 132.471064 
L 368.559357 128.643847 
L 369.753022 123.859826 
L 370.946688 120.245233 
L 372.140353 115.035966 
L 373.334018 112.484488 
L 374.527684 114.717031 
L 375.721349 117.37482 
L 376.915015 117.906378 
L 378.10868 120.245233 
L 379.302345 120.138921 
L 380.496011 123.221957 
L 381.689676 129.706963 
L 382.883341 131.726883 
L 384.077007 134.490984 
L 385.270672 135.979346 
L 386.464338 139.700251 
L 388.851668 152.563952 
L 390.045334 152.138706 
L 391.238999 154.583872 
L 392.432664 156.391169 
L 393.62633 159.580516 
L 394.819995 161.17519 
L 396.013661 162.025683 
L 397.207326 160.005763 
L 398.400991 160.324697 
L 399.594657 162.982487 
L 400.788322 164.364537 
L 401.981987 164.683472 
L 403.175653 166.171834 
L 404.369318 175.420941 
L 404.369318 175.420941 
" style="fill:none;stroke:#d62728;stroke-linecap:square;stroke-width:1.5;"/>
   </g>
   <g id="line2d_23">
    <path clip-path="url(#pbe027e01c7)" d="M 67.755682 216.779767 
L 68.949347 217.150046 
L 71.336678 217.335186 
L 74.917674 217.414532 
L 77.305005 217.308737 
L 79.692336 217.202943 
L 83.273332 216.779767 
L 84.466997 216.991355 
L 85.660662 216.779767 
L 91.628989 216.673973 
L 94.01632 215.616031 
L 95.209985 214.55809 
L 96.403651 213.923325 
L 97.597316 212.865383 
L 98.790982 211.490059 
L 99.984647 210.432118 
L 101.178312 208.633617 
L 102.371978 207.469882 
L 103.565643 206.835117 
L 104.759309 205.565587 
L 105.952974 201.228027 
L 108.340305 195.091967 
L 109.53397 192.87029 
L 110.727635 189.802259 
L 113.114966 183.031434 
L 114.308632 184.300964 
L 115.502297 185.782082 
L 116.695962 186.522641 
L 117.889628 188.215347 
L 119.083293 189.484877 
L 120.276958 189.802259 
L 122.664289 191.812348 
L 123.857955 191.812348 
L 125.05162 190.754407 
L 126.245285 189.167495 
L 127.438951 190.542819 
L 128.632616 192.129731 
L 129.826281 191.494966 
L 131.019947 190.542819 
L 132.213612 190.965995 
L 134.600943 196.255702 
L 135.794608 196.573085 
L 136.988274 197.313644 
L 139.375604 202.391763 
L 140.56927 201.439616 
L 142.956601 200.27588 
L 145.343931 197.842615 
L 146.537597 197.948409 
L 147.731262 195.832526 
L 148.924927 196.467291 
L 150.118593 197.419438 
L 152.505924 197.419438 
L 153.699589 198.688968 
L 154.893254 196.255702 
L 156.08692 198.054203 
L 157.280585 199.323733 
L 158.47425 198.688968 
L 159.667916 199.429527 
L 160.861581 200.593262 
L 162.055247 200.699057 
L 163.248912 203.661293 
L 165.636243 204.084469 
L 166.829908 205.777176 
L 168.023574 205.248205 
L 170.410904 206.094558 
L 171.60457 205.777176 
L 172.798235 206.094558 
L 173.9919 206.094558 
L 175.185566 206.517735 
L 176.379231 207.998853 
L 177.572897 207.998853 
L 178.766562 208.845206 
L 179.960227 209.374176 
L 181.153893 209.479971 
L 182.347558 210.643706 
L 183.541223 210.326324 
L 184.734889 210.7495 
L 187.12222 212.442207 
L 188.315885 212.653795 
L 189.50955 213.076972 
L 190.703216 212.442207 
L 191.896881 212.653795 
L 193.090546 212.442207 
L 194.284212 211.595854 
L 195.477877 210.114735 
L 196.671543 210.114735 
L 197.865208 210.432118 
L 199.058873 211.066883 
L 200.252539 210.961089 
L 201.446204 211.066883 
L 202.639869 212.442207 
L 203.833535 213.076972 
L 205.0272 213.500148 
L 206.220866 213.500148 
L 209.801862 214.55809 
L 210.995527 214.55809 
L 212.189192 215.510237 
L 214.576523 216.779767 
L 215.770189 216.568178 
L 216.963854 216.568178 
L 218.157519 216.35659 
L 219.351185 215.827619 
L 220.54485 216.039208 
L 222.932181 215.616031 
L 224.125846 215.827619 
L 225.319512 215.827619 
L 226.513177 216.039208 
L 227.706842 216.673973 
L 228.900508 216.462384 
L 232.481504 216.991355 
L 233.675169 216.673973 
L 234.868835 216.673973 
L 236.0625 216.250796 
L 238.449831 216.145002 
L 240.837162 215.827619 
L 242.030827 216.145002 
L 243.224492 216.145002 
L 244.418158 216.568178 
L 245.611823 216.673973 
L 246.805488 216.145002 
L 247.999154 215.933414 
L 249.192819 215.933414 
L 250.386485 215.616031 
L 253.967481 215.616031 
L 255.161146 216.145002 
L 256.354811 216.35659 
L 257.548477 215.827619 
L 258.742142 216.250796 
L 261.129473 216.145002 
L 262.323138 215.721825 
L 263.516804 215.933414 
L 264.710469 215.721825 
L 265.904134 216.250796 
L 269.485131 215.721825 
L 270.678796 216.039208 
L 271.872461 215.404443 
L 273.066127 215.404443 
L 276.647123 214.240707 
L 279.034454 211.278471 
L 280.228119 210.537912 
L 281.421784 209.374176 
L 282.61545 207.258294 
L 283.809115 207.258294 
L 285.00278 207.046705 
L 286.196446 206.306146 
L 287.390111 205.248205 
L 288.583777 202.920734 
L 289.777442 201.016439 
L 290.971107 198.900556 
L 292.164773 197.20785 
L 293.358438 194.66879 
L 294.552103 192.658701 
L 295.745769 189.484877 
L 298.1331 183.983581 
L 299.326765 183.877787 
L 300.52043 181.338728 
L 301.714096 181.444522 
L 302.907761 179.751816 
L 304.101426 177.847521 
L 305.295092 176.366403 
L 306.488757 172.875196 
L 307.682423 170.230343 
L 308.876088 168.64343 
L 310.069753 164.517459 
L 311.263419 160.920458 
L 312.457084 159.227751 
L 313.65075 155.524956 
L 314.844415 156.053927 
L 316.03808 152.880103 
L 317.231746 152.456926 
L 318.425411 152.351132 
L 319.619076 150.446837 
L 320.812742 149.177307 
L 322.006407 146.532454 
L 323.200073 145.686101 
L 324.393738 145.368718 
L 325.587403 140.607982 
L 326.781069 137.857334 
L 327.974734 131.721273 
L 329.168399 124.844654 
L 330.362065 123.998301 
L 331.55573 115.746357 
L 332.749396 112.784121 
L 333.943061 115.111593 
L 335.136726 114.371034 
L 336.330392 116.06374 
L 337.524057 118.814388 
L 338.717722 120.930271 
L 339.911388 125.162036 
L 341.105053 128.018478 
L 342.298719 125.691007 
L 343.492384 126.431566 
L 344.686049 118.602799 
L 345.879715 118.073829 
L 347.07338 114.159445 
L 348.267045 112.678327 
L 349.460711 113.947857 
L 350.654376 114.688416 
L 351.848042 118.391211 
L 353.041707 123.892507 
L 355.429038 128.230067 
L 356.622703 134.048745 
L 357.816368 132.567627 
L 359.010034 136.693598 
L 360.203699 135.424069 
L 361.397365 136.48201 
L 363.784695 144.204983 
L 364.978361 144.628159 
L 367.365691 144.945542 
L 368.559357 144.522365 
L 369.753022 151.187396 
L 370.946688 150.870014 
L 372.140353 153.091691 
L 373.334018 153.091691 
L 374.527684 154.678603 
L 375.721349 156.688692 
L 376.915015 157.429251 
L 378.10868 159.96831 
L 379.302345 163.036341 
L 380.496011 162.295782 
L 382.883341 171.923049 
L 384.077007 173.933138 
L 385.270672 179.222845 
L 386.464338 183.560405 
L 387.658003 186.945818 
L 388.851668 192.341319 
L 390.045334 193.716643 
L 391.238999 195.832526 
L 392.432664 196.678879 
L 393.62633 196.678879 
L 394.819995 196.255702 
L 396.013661 197.525232 
L 397.207326 199.323733 
L 398.400991 199.746909 
L 399.594657 198.688968 
L 401.981987 197.20785 
L 403.175653 198.371585 
L 404.369318 200.381674 
L 404.369318 200.381674 
" style="fill:none;stroke:#9467bd;stroke-linecap:square;stroke-width:1.5;"/>
   </g>
   <g id="line2d_24"/>
   <g id="line2d_25"/>
   <g id="line2d_26"/>
   <g id="line2d_27"/>
   <g id="line2d_28"/>
   <g id="patch_3">
    <path d="M 50.925 226.602246 
L 50.925 26.8 
" style="fill:none;stroke:#000000;stroke-linecap:square;stroke-linejoin:miter;stroke-width:0.8;"/>
   </g>
   <g id="patch_4">
    <path d="M 421.2 226.602246 
L 421.2 26.8 
" style="fill:none;stroke:#000000;stroke-linecap:square;stroke-linejoin:miter;stroke-width:0.8;"/>
   </g>
   <g id="patch_5">
    <path d="M 50.925 226.602246 
L 421.2 226.602246 
" style="fill:none;stroke:#000000;stroke-linecap:square;stroke-linejoin:miter;stroke-width:0.8;"/>
   </g>
   <g id="patch_6">
    <path d="M 50.925 26.8 
L 421.2 26.8 
" style="fill:none;stroke:#000000;stroke-linecap:square;stroke-linejoin:miter;stroke-width:0.8;"/>
   </g>
   <g id="text_21">
    <!-- New cases per million people by UTLA (7 day rolling) -->
    <g transform="translate(77.450625 20.8)scale(0.12 -0.12)">
     <defs>
      <path d="M 48.6875 27.296875 
Q 48.6875 37.203125 44.609375 42.84375 
Q 40.53125 48.484375 33.40625 48.484375 
Q 26.265625 48.484375 22.1875 42.84375 
Q 18.109375 37.203125 18.109375 27.296875 
Q 18.109375 17.390625 22.1875 11.75 
Q 26.265625 6.109375 33.40625 6.109375 
Q 40.53125 6.109375 44.609375 11.75 
Q 48.6875 17.390625 48.6875 27.296875 
z
M 18.109375 46.390625 
Q 20.953125 51.265625 25.265625 53.625 
Q 29.59375 56 35.59375 56 
Q 45.5625 56 51.78125 48.09375 
Q 58.015625 40.1875 58.015625 27.296875 
Q 58.015625 14.40625 51.78125 6.484375 
Q 45.5625 -1.421875 35.59375 -1.421875 
Q 29.59375 -1.421875 25.265625 0.953125 
Q 20.953125 3.328125 18.109375 8.203125 
L 18.109375 0 
L 9.078125 0 
L 9.078125 75.984375 
L 18.109375 75.984375 
z
" id="DejaVuSans-98"/>
      <path d="M 32.171875 -5.078125 
Q 28.375 -14.84375 24.75 -17.8125 
Q 21.140625 -20.796875 15.09375 -20.796875 
L 7.90625 -20.796875 
L 7.90625 -13.28125 
L 13.1875 -13.28125 
Q 16.890625 -13.28125 18.9375 -11.515625 
Q 21 -9.765625 23.484375 -3.21875 
L 25.09375 0.875 
L 2.984375 54.6875 
L 12.5 54.6875 
L 29.59375 11.921875 
L 46.6875 54.6875 
L 56.203125 54.6875 
z
" id="DejaVuSans-121"/>
      <path d="M 8.6875 72.90625 
L 18.609375 72.90625 
L 18.609375 28.609375 
Q 18.609375 16.890625 22.84375 11.734375 
Q 27.09375 6.59375 36.625 6.59375 
Q 46.09375 6.59375 50.34375 11.734375 
Q 54.59375 16.890625 54.59375 28.609375 
L 54.59375 72.90625 
L 64.5 72.90625 
L 64.5 27.390625 
Q 64.5 13.140625 57.4375 5.859375 
Q 50.390625 -1.421875 36.625 -1.421875 
Q 22.796875 -1.421875 15.734375 5.859375 
Q 8.6875 13.140625 8.6875 27.390625 
z
" id="DejaVuSans-85"/>
      <path d="M -0.296875 72.90625 
L 61.375 72.90625 
L 61.375 64.59375 
L 35.5 64.59375 
L 35.5 0 
L 25.59375 0 
L 25.59375 64.59375 
L -0.296875 64.59375 
z
" id="DejaVuSans-84"/>
      <path d="M 9.8125 72.90625 
L 19.671875 72.90625 
L 19.671875 8.296875 
L 55.171875 8.296875 
L 55.171875 0 
L 9.8125 0 
z
" id="DejaVuSans-76"/>
      <path d="M 34.1875 63.1875 
L 20.796875 26.90625 
L 47.609375 26.90625 
z
M 28.609375 72.90625 
L 39.796875 72.90625 
L 67.578125 0 
L 57.328125 0 
L 50.6875 18.703125 
L 17.828125 18.703125 
L 11.1875 0 
L 0.78125 0 
z
" id="DejaVuSans-65"/>
      <path d="M 31 75.875 
Q 24.46875 64.65625 21.28125 53.65625 
Q 18.109375 42.671875 18.109375 31.390625 
Q 18.109375 20.125 21.3125 9.0625 
Q 24.515625 -2 31 -13.1875 
L 23.1875 -13.1875 
Q 15.875 -1.703125 12.234375 9.375 
Q 8.59375 20.453125 8.59375 31.390625 
Q 8.59375 42.28125 12.203125 53.3125 
Q 15.828125 64.359375 23.1875 75.875 
z
" id="DejaVuSans-40"/>
      <path d="M 45.40625 46.390625 
L 45.40625 75.984375 
L 54.390625 75.984375 
L 54.390625 0 
L 45.40625 0 
L 45.40625 8.203125 
Q 42.578125 3.328125 38.25 0.953125 
Q 33.9375 -1.421875 27.875 -1.421875 
Q 17.96875 -1.421875 11.734375 6.484375 
Q 5.515625 14.40625 5.515625 27.296875 
Q 5.515625 40.1875 11.734375 48.09375 
Q 17.96875 56 27.875 56 
Q 33.9375 56 38.25 53.625 
Q 42.578125 51.265625 45.40625 46.390625 
z
M 14.796875 27.296875 
Q 14.796875 17.390625 18.875 11.75 
Q 22.953125 6.109375 30.078125 6.109375 
Q 37.203125 6.109375 41.296875 11.75 
Q 45.40625 17.390625 45.40625 27.296875 
Q 45.40625 37.203125 41.296875 42.84375 
Q 37.203125 48.484375 30.078125 48.484375 
Q 22.953125 48.484375 18.875 42.84375 
Q 14.796875 37.203125 14.796875 27.296875 
z
" id="DejaVuSans-100"/>
      <path d="M 45.40625 27.984375 
Q 45.40625 37.75 41.375 43.109375 
Q 37.359375 48.484375 30.078125 48.484375 
Q 22.859375 48.484375 18.828125 43.109375 
Q 14.796875 37.75 14.796875 27.984375 
Q 14.796875 18.265625 18.828125 12.890625 
Q 22.859375 7.515625 30.078125 7.515625 
Q 37.359375 7.515625 41.375 12.890625 
Q 45.40625 18.265625 45.40625 27.984375 
z
M 54.390625 6.78125 
Q 54.390625 -7.171875 48.1875 -13.984375 
Q 42 -20.796875 29.203125 -20.796875 
Q 24.46875 -20.796875 20.265625 -20.09375 
Q 16.0625 -19.390625 12.109375 -17.921875 
L 12.109375 -9.1875 
Q 16.0625 -11.328125 19.921875 -12.34375 
Q 23.78125 -13.375 27.78125 -13.375 
Q 36.625 -13.375 41.015625 -8.765625 
Q 45.40625 -4.15625 45.40625 5.171875 
L 45.40625 9.625 
Q 42.625 4.78125 38.28125 2.390625 
Q 33.9375 0 27.875 0 
Q 17.828125 0 11.671875 7.65625 
Q 5.515625 15.328125 5.515625 27.984375 
Q 5.515625 40.671875 11.671875 48.328125 
Q 17.828125 56 27.875 56 
Q 33.9375 56 38.28125 53.609375 
Q 42.625 51.21875 45.40625 46.390625 
L 45.40625 54.6875 
L 54.390625 54.6875 
z
" id="DejaVuSans-103"/>
      <path d="M 8.015625 75.875 
L 15.828125 75.875 
Q 23.140625 64.359375 26.78125 53.3125 
Q 30.421875 42.28125 30.421875 31.390625 
Q 30.421875 20.453125 26.78125 9.375 
Q 23.140625 -1.703125 15.828125 -13.1875 
L 8.015625 -13.1875 
Q 14.5 -2 17.703125 9.0625 
Q 20.90625 20.125 20.90625 31.390625 
Q 20.90625 42.671875 17.703125 53.65625 
Q 14.5 64.65625 8.015625 75.875 
z
" id="DejaVuSans-41"/>
     </defs>
     <use xlink:href="#DejaVuSans-78"/>
     <use x="74.804688" xlink:href="#DejaVuSans-101"/>
     <use x="136.328125" xlink:href="#DejaVuSans-119"/>
     <use x="218.115234" xlink:href="#DejaVuSans-32"/>
     <use x="249.902344" xlink:href="#DejaVuSans-99"/>
     <use x="304.882812" xlink:href="#DejaVuSans-97"/>
     <use x="366.162109" xlink:href="#DejaVuSans-115"/>
     <use x="418.261719" xlink:href="#DejaVuSans-101"/>
     <use x="479.785156" xlink:href="#DejaVuSans-115"/>
     <use x="531.884766" xlink:href="#DejaVuSans-32"/>
     <use x="563.671875" xlink:href="#DejaVuSans-112"/>
     <use x="627.148438" xlink:href="#DejaVuSans-101"/>
     <use x="688.671875" xlink:href="#DejaVuSans-114"/>
     <use x="729.785156" xlink:href="#DejaVuSans-32"/>
     <use x="761.572266" xlink:href="#DejaVuSans-109"/>
     <use x="858.984375" xlink:href="#DejaVuSans-105"/>
     <use x="886.767578" xlink:href="#DejaVuSans-108"/>
     <use x="914.550781" xlink:href="#DejaVuSans-108"/>
     <use x="942.333984" xlink:href="#DejaVuSans-105"/>
     <use x="970.117188" xlink:href="#DejaVuSans-111"/>
     <use x="1031.298828" xlink:href="#DejaVuSans-110"/>
     <use x="1094.677734" xlink:href="#DejaVuSans-32"/>
     <use x="1126.464844" xlink:href="#DejaVuSans-112"/>
     <use x="1189.941406" xlink:href="#DejaVuSans-101"/>
     <use x="1251.464844" xlink:href="#DejaVuSans-111"/>
     <use x="1312.646484" xlink:href="#DejaVuSans-112"/>
     <use x="1376.123047" xlink:href="#DejaVuSans-108"/>
     <use x="1403.90625" xlink:href="#DejaVuSans-101"/>
     <use x="1465.429688" xlink:href="#DejaVuSans-32"/>
     <use x="1497.216797" xlink:href="#DejaVuSans-98"/>
     <use x="1560.693359" xlink:href="#DejaVuSans-121"/>
     <use x="1619.873047" xlink:href="#DejaVuSans-32"/>
     <use x="1651.660156" xlink:href="#DejaVuSans-85"/>
     <use x="1724.853516" xlink:href="#DejaVuSans-84"/>
     <use x="1785.9375" xlink:href="#DejaVuSans-76"/>
     <use x="1843.900391" xlink:href="#DejaVuSans-65"/>
     <use x="1912.308594" xlink:href="#DejaVuSans-32"/>
     <use x="1944.095703" xlink:href="#DejaVuSans-40"/>
     <use x="1983.109375" xlink:href="#DejaVuSans-55"/>
     <use x="2046.732422" xlink:href="#DejaVuSans-32"/>
     <use x="2078.519531" xlink:href="#DejaVuSans-100"/>
     <use x="2141.996094" xlink:href="#DejaVuSans-97"/>
     <use x="2203.275391" xlink:href="#DejaVuSans-121"/>
     <use x="2262.455078" xlink:href="#DejaVuSans-32"/>
     <use x="2294.242188" xlink:href="#DejaVuSans-114"/>
     <use x="2333.105469" xlink:href="#DejaVuSans-111"/>
     <use x="2394.287109" xlink:href="#DejaVuSans-108"/>
     <use x="2422.070312" xlink:href="#DejaVuSans-108"/>
     <use x="2449.853516" xlink:href="#DejaVuSans-105"/>
     <use x="2477.636719" xlink:href="#DejaVuSans-110"/>
     <use x="2541.015625" xlink:href="#DejaVuSans-103"/>
     <use x="2604.492188" xlink:href="#DejaVuSans-41"/>
    </g>
   </g>
   <g id="legend_1">
    <g id="patch_7">
     <path d="M 57.925 122.86875 
L 225.560938 122.86875 
Q 227.560938 122.86875 227.560938 120.86875 
L 227.560938 33.8 
Q 227.560938 31.8 225.560938 31.8 
L 57.925 31.8 
Q 55.925 31.8 55.925 33.8 
L 55.925 120.86875 
Q 55.925 122.86875 57.925 122.86875 
z
" style="fill:#ffffff;opacity:0.8;stroke:#cccccc;stroke-linejoin:miter;"/>
    </g>
    <g id="text_22">
     <!-- Upper-tier local authority -->
     <g transform="translate(79.022656 43.398437)scale(0.1 -0.1)">
      <defs>
       <path d="M 54.890625 33.015625 
L 54.890625 0 
L 45.90625 0 
L 45.90625 32.71875 
Q 45.90625 40.484375 42.875 44.328125 
Q 39.84375 48.1875 33.796875 48.1875 
Q 26.515625 48.1875 22.3125 43.546875 
Q 18.109375 38.921875 18.109375 30.90625 
L 18.109375 0 
L 9.078125 0 
L 9.078125 75.984375 
L 18.109375 75.984375 
L 18.109375 46.1875 
Q 21.34375 51.125 25.703125 53.5625 
Q 30.078125 56 35.796875 56 
Q 45.21875 56 50.046875 50.171875 
Q 54.890625 44.34375 54.890625 33.015625 
z
" id="DejaVuSans-104"/>
      </defs>
      <use xlink:href="#DejaVuSans-85"/>
      <use x="73.193359" xlink:href="#DejaVuSans-112"/>
      <use x="136.669922" xlink:href="#DejaVuSans-112"/>
      <use x="200.146484" xlink:href="#DejaVuSans-101"/>
      <use x="261.669922" xlink:href="#DejaVuSans-114"/>
      <use x="296.408203" xlink:href="#DejaVuSans-45"/>
      <use x="332.492188" xlink:href="#DejaVuSans-116"/>
      <use x="371.701172" xlink:href="#DejaVuSans-105"/>
      <use x="399.484375" xlink:href="#DejaVuSans-101"/>
      <use x="461.007812" xlink:href="#DejaVuSans-114"/>
      <use x="502.121094" xlink:href="#DejaVuSans-32"/>
      <use x="533.908203" xlink:href="#DejaVuSans-108"/>
      <use x="561.691406" xlink:href="#DejaVuSans-111"/>
      <use x="622.873047" xlink:href="#DejaVuSans-99"/>
      <use x="677.853516" xlink:href="#DejaVuSans-97"/>
      <use x="739.132812" xlink:href="#DejaVuSans-108"/>
      <use x="766.916016" xlink:href="#DejaVuSans-32"/>
      <use x="798.703125" xlink:href="#DejaVuSans-97"/>
      <use x="859.982422" xlink:href="#DejaVuSans-117"/>
      <use x="923.361328" xlink:href="#DejaVuSans-116"/>
      <use x="962.570312" xlink:href="#DejaVuSans-104"/>
      <use x="1025.949219" xlink:href="#DejaVuSans-111"/>
      <use x="1087.130859" xlink:href="#DejaVuSans-114"/>
      <use x="1128.244141" xlink:href="#DejaVuSans-105"/>
      <use x="1156.027344" xlink:href="#DejaVuSans-116"/>
      <use x="1195.236328" xlink:href="#DejaVuSans-121"/>
     </g>
    </g>
    <g id="line2d_29">
     <path d="M 59.925 54.576562 
L 79.925 54.576562 
" style="fill:none;stroke:#1f77b4;stroke-linecap:square;stroke-width:1.5;"/>
    </g>
    <g id="line2d_30"/>
    <g id="text_23">
     <!-- Cheshire West and Chester -->
     <g transform="translate(87.925 58.076562)scale(0.1 -0.1)">
      <defs>
       <path d="M 64.40625 67.28125 
L 64.40625 56.890625 
Q 59.421875 61.53125 53.78125 63.8125 
Q 48.140625 66.109375 41.796875 66.109375 
Q 29.296875 66.109375 22.65625 58.46875 
Q 16.015625 50.828125 16.015625 36.375 
Q 16.015625 21.96875 22.65625 14.328125 
Q 29.296875 6.6875 41.796875 6.6875 
Q 48.140625 6.6875 53.78125 8.984375 
Q 59.421875 11.28125 64.40625 15.921875 
L 64.40625 5.609375 
Q 59.234375 2.09375 53.4375 0.328125 
Q 47.65625 -1.421875 41.21875 -1.421875 
Q 24.65625 -1.421875 15.125 8.703125 
Q 5.609375 18.84375 5.609375 36.375 
Q 5.609375 53.953125 15.125 64.078125 
Q 24.65625 74.21875 41.21875 74.21875 
Q 47.75 74.21875 53.53125 72.484375 
Q 59.328125 70.75 64.40625 67.28125 
z
" id="DejaVuSans-67"/>
       <path d="M 3.328125 72.90625 
L 13.28125 72.90625 
L 28.609375 11.28125 
L 43.890625 72.90625 
L 54.984375 72.90625 
L 70.3125 11.28125 
L 85.59375 72.90625 
L 95.609375 72.90625 
L 77.296875 0 
L 64.890625 0 
L 49.515625 63.28125 
L 33.984375 0 
L 21.578125 0 
z
" id="DejaVuSans-87"/>
      </defs>
      <use xlink:href="#DejaVuSans-67"/>
      <use x="69.824219" xlink:href="#DejaVuSans-104"/>
      <use x="133.203125" xlink:href="#DejaVuSans-101"/>
      <use x="194.726562" xlink:href="#DejaVuSans-115"/>
      <use x="246.826172" xlink:href="#DejaVuSans-104"/>
      <use x="310.205078" xlink:href="#DejaVuSans-105"/>
      <use x="337.988281" xlink:href="#DejaVuSans-114"/>
      <use x="376.851562" xlink:href="#DejaVuSans-101"/>
      <use x="438.375" xlink:href="#DejaVuSans-32"/>
      <use x="470.162109" xlink:href="#DejaVuSans-87"/>
      <use x="563.164062" xlink:href="#DejaVuSans-101"/>
      <use x="624.6875" xlink:href="#DejaVuSans-115"/>
      <use x="676.787109" xlink:href="#DejaVuSans-116"/>
      <use x="715.996094" xlink:href="#DejaVuSans-32"/>
      <use x="747.783203" xlink:href="#DejaVuSans-97"/>
      <use x="809.0625" xlink:href="#DejaVuSans-110"/>
      <use x="872.441406" xlink:href="#DejaVuSans-100"/>
      <use x="935.917969" xlink:href="#DejaVuSans-32"/>
      <use x="967.705078" xlink:href="#DejaVuSans-67"/>
      <use x="1037.529297" xlink:href="#DejaVuSans-104"/>
      <use x="1100.908203" xlink:href="#DejaVuSans-101"/>
      <use x="1162.431641" xlink:href="#DejaVuSans-115"/>
      <use x="1214.53125" xlink:href="#DejaVuSans-116"/>
      <use x="1253.740234" xlink:href="#DejaVuSans-101"/>
      <use x="1315.263672" xlink:href="#DejaVuSans-114"/>
     </g>
    </g>
    <g id="line2d_31">
     <path d="M 59.925 69.254687 
L 79.925 69.254687 
" style="fill:none;stroke:#ff7f0e;stroke-linecap:square;stroke-width:1.5;"/>
    </g>
    <g id="line2d_32"/>
    <g id="text_24">
     <!-- Leicester -->
     <g transform="translate(87.925 72.754687)scale(0.1 -0.1)">
      <use xlink:href="#DejaVuSans-76"/>
      <use x="53.962891" xlink:href="#DejaVuSans-101"/>
      <use x="115.486328" xlink:href="#DejaVuSans-105"/>
      <use x="143.269531" xlink:href="#DejaVuSans-99"/>
      <use x="198.25" xlink:href="#DejaVuSans-101"/>
      <use x="259.773438" xlink:href="#DejaVuSans-115"/>
      <use x="311.873047" xlink:href="#DejaVuSans-116"/>
      <use x="351.082031" xlink:href="#DejaVuSans-101"/>
      <use x="412.605469" xlink:href="#DejaVuSans-114"/>
     </g>
    </g>
    <g id="line2d_33">
     <path d="M 59.925 83.932812 
L 79.925 83.932812 
" style="fill:none;stroke:#2ca02c;stroke-linecap:square;stroke-width:1.5;"/>
    </g>
    <g id="line2d_34"/>
    <g id="text_25">
     <!-- North Yorkshire -->
     <g transform="translate(87.925 87.432812)scale(0.1 -0.1)">
      <defs>
       <path d="M -0.203125 72.90625 
L 10.40625 72.90625 
L 30.609375 42.921875 
L 50.6875 72.90625 
L 61.28125 72.90625 
L 35.5 34.71875 
L 35.5 0 
L 25.59375 0 
L 25.59375 34.71875 
z
" id="DejaVuSans-89"/>
       <path d="M 9.078125 75.984375 
L 18.109375 75.984375 
L 18.109375 31.109375 
L 44.921875 54.6875 
L 56.390625 54.6875 
L 27.390625 29.109375 
L 57.625 0 
L 45.90625 0 
L 18.109375 26.703125 
L 18.109375 0 
L 9.078125 0 
z
" id="DejaVuSans-107"/>
      </defs>
      <use xlink:href="#DejaVuSans-78"/>
      <use x="74.804688" xlink:href="#DejaVuSans-111"/>
      <use x="135.986328" xlink:href="#DejaVuSans-114"/>
      <use x="177.099609" xlink:href="#DejaVuSans-116"/>
      <use x="216.308594" xlink:href="#DejaVuSans-104"/>
      <use x="279.6875" xlink:href="#DejaVuSans-32"/>
      <use x="311.474609" xlink:href="#DejaVuSans-89"/>
      <use x="359.308594" xlink:href="#DejaVuSans-111"/>
      <use x="420.490234" xlink:href="#DejaVuSans-114"/>
      <use x="461.603516" xlink:href="#DejaVuSans-107"/>
      <use x="519.513672" xlink:href="#DejaVuSans-115"/>
      <use x="571.613281" xlink:href="#DejaVuSans-104"/>
      <use x="634.992188" xlink:href="#DejaVuSans-105"/>
      <use x="662.775391" xlink:href="#DejaVuSans-114"/>
      <use x="701.638672" xlink:href="#DejaVuSans-101"/>
     </g>
    </g>
    <g id="line2d_35">
     <path d="M 59.925 98.610937 
L 79.925 98.610937 
" style="fill:none;stroke:#d62728;stroke-linecap:square;stroke-width:1.5;"/>
    </g>
    <g id="line2d_36"/>
    <g id="text_26">
     <!-- Northumberland -->
     <g transform="translate(87.925 102.110937)scale(0.1 -0.1)">
      <use xlink:href="#DejaVuSans-78"/>
      <use x="74.804688" xlink:href="#DejaVuSans-111"/>
      <use x="135.986328" xlink:href="#DejaVuSans-114"/>
      <use x="177.099609" xlink:href="#DejaVuSans-116"/>
      <use x="216.308594" xlink:href="#DejaVuSans-104"/>
      <use x="279.6875" xlink:href="#DejaVuSans-117"/>
      <use x="343.066406" xlink:href="#DejaVuSans-109"/>
      <use x="440.478516" xlink:href="#DejaVuSans-98"/>
      <use x="503.955078" xlink:href="#DejaVuSans-101"/>
      <use x="565.478516" xlink:href="#DejaVuSans-114"/>
      <use x="606.591797" xlink:href="#DejaVuSans-108"/>
      <use x="634.375" xlink:href="#DejaVuSans-97"/>
      <use x="695.654297" xlink:href="#DejaVuSans-110"/>
      <use x="759.033203" xlink:href="#DejaVuSans-100"/>
     </g>
    </g>
    <g id="line2d_37">
     <path d="M 59.925 113.289062 
L 79.925 113.289062 
" style="fill:none;stroke:#9467bd;stroke-linecap:square;stroke-width:1.5;"/>
    </g>
    <g id="line2d_38"/>
    <g id="text_27">
     <!-- Wirral -->
     <g transform="translate(87.925 116.789062)scale(0.1 -0.1)">
      <use xlink:href="#DejaVuSans-87"/>
      <use x="96.626953" xlink:href="#DejaVuSans-105"/>
      <use x="124.410156" xlink:href="#DejaVuSans-114"/>
      <use x="163.773438" xlink:href="#DejaVuSans-114"/>
      <use x="204.886719" xlink:href="#DejaVuSans-97"/>
      <use x="266.166016" xlink:href="#DejaVuSans-108"/>
     </g>
    </g>
   </g>
  </g>
 </g>
 <defs>
  <clipPath id="pbe027e01c7">
   <rect height="199.802246" width="370.275" x="50.925" y="26.8"/>
  </clipPath>
 </defs>
</svg>
