<?xml version="1.0" encoding="utf-8" standalone="no"?>
<!DOCTYPE svg PUBLIC "-//W3C//DTD SVG 1.1//EN"
  "http://www.w3.org/Graphics/SVG/1.1/DTD/svg11.dtd">
<!-- Created with matplotlib (https://matplotlib.org/) -->
<svg height="288pt" version="1.1" viewBox="0 0 432 288" width="432pt" xmlns="http://www.w3.org/2000/svg" xmlns:xlink="http://www.w3.org/1999/xlink">
 <metadata>
  <rdf:RDF xmlns:cc="http://creativecommons.org/ns#" xmlns:dc="http://purl.org/dc/elements/1.1/" xmlns:rdf="http://www.w3.org/1999/02/22-rdf-syntax-ns#">
   <cc:Work>
    <dc:type rdf:resource="http://purl.org/dc/dcmitype/StillImage"/>
    <dc:date>2020-11-21T10:24:39.518182</dc:date>
    <dc:format>image/svg+xml</dc:format>
    <dc:creator>
     <cc:Agent>
      <dc:title>Matplotlib v3.3.2, https://matplotlib.org/</dc:title>
     </cc:Agent>
    </dc:creator>
   </cc:Work>
  </rdf:RDF>
 </metadata>
 <defs>
  <style type="text/css">*{stroke-linecap:butt;stroke-linejoin:round;}</style>
 </defs>
 <g id="figure_1">
  <g id="patch_1">
   <path d="M 0 288 
L 432 288 
L 432 0 
L 0 0 
z
" style="fill:none;"/>
  </g>
  <g id="axes_1">
   <g id="patch_2">
    <path d="M 50.925 226.602246 
L 421.2 226.602246 
L 421.2 26.8 
L 50.925 26.8 
z
" style="fill:#ffffff;"/>
   </g>
   <g id="matplotlib.axis_1">
    <g id="xtick_1">
     <g id="line2d_1">
      <defs>
       <path d="M 0 0 
L 0 3.5 
" id="ma5ee53943d" style="stroke:#000000;stroke-width:0.8;"/>
      </defs>
      <g>
       <use style="stroke:#000000;stroke-width:0.8;" x="67.755682" xlink:href="#ma5ee53943d" y="226.602246"/>
      </g>
     </g>
     <g id="text_1">
      <!-- 2020-03 -->
      <g transform="translate(30.530861 261.074092)rotate(-30)scale(0.1 -0.1)">
       <defs>
        <path d="M 19.1875 8.296875 
L 53.609375 8.296875 
L 53.609375 0 
L 7.328125 0 
L 7.328125 8.296875 
Q 12.9375 14.109375 22.625 23.890625 
Q 32.328125 33.6875 34.8125 36.53125 
Q 39.546875 41.84375 41.421875 45.53125 
Q 43.3125 49.21875 43.3125 52.78125 
Q 43.3125 58.59375 39.234375 62.25 
Q 35.15625 65.921875 28.609375 65.921875 
Q 23.96875 65.921875 18.8125 64.3125 
Q 13.671875 62.703125 7.8125 59.421875 
L 7.8125 69.390625 
Q 13.765625 71.78125 18.9375 73 
Q 24.125 74.21875 28.421875 74.21875 
Q 39.75 74.21875 46.484375 68.546875 
Q 53.21875 62.890625 53.21875 53.421875 
Q 53.21875 48.921875 51.53125 44.890625 
Q 49.859375 40.875 45.40625 35.40625 
Q 44.1875 33.984375 37.640625 27.21875 
Q 31.109375 20.453125 19.1875 8.296875 
z
" id="DejaVuSans-50"/>
        <path d="M 31.78125 66.40625 
Q 24.171875 66.40625 20.328125 58.90625 
Q 16.5 51.421875 16.5 36.375 
Q 16.5 21.390625 20.328125 13.890625 
Q 24.171875 6.390625 31.78125 6.390625 
Q 39.453125 6.390625 43.28125 13.890625 
Q 47.125 21.390625 47.125 36.375 
Q 47.125 51.421875 43.28125 58.90625 
Q 39.453125 66.40625 31.78125 66.40625 
z
M 31.78125 74.21875 
Q 44.046875 74.21875 50.515625 64.515625 
Q 56.984375 54.828125 56.984375 36.375 
Q 56.984375 17.96875 50.515625 8.265625 
Q 44.046875 -1.421875 31.78125 -1.421875 
Q 19.53125 -1.421875 13.0625 8.265625 
Q 6.59375 17.96875 6.59375 36.375 
Q 6.59375 54.828125 13.0625 64.515625 
Q 19.53125 74.21875 31.78125 74.21875 
z
" id="DejaVuSans-48"/>
        <path d="M 4.890625 31.390625 
L 31.203125 31.390625 
L 31.203125 23.390625 
L 4.890625 23.390625 
z
" id="DejaVuSans-45"/>
        <path d="M 40.578125 39.3125 
Q 47.65625 37.796875 51.625 33 
Q 55.609375 28.21875 55.609375 21.1875 
Q 55.609375 10.40625 48.1875 4.484375 
Q 40.765625 -1.421875 27.09375 -1.421875 
Q 22.515625 -1.421875 17.65625 -0.515625 
Q 12.796875 0.390625 7.625 2.203125 
L 7.625 11.71875 
Q 11.71875 9.328125 16.59375 8.109375 
Q 21.484375 6.890625 26.8125 6.890625 
Q 36.078125 6.890625 40.9375 10.546875 
Q 45.796875 14.203125 45.796875 21.1875 
Q 45.796875 27.640625 41.28125 31.265625 
Q 36.765625 34.90625 28.71875 34.90625 
L 20.21875 34.90625 
L 20.21875 43.015625 
L 29.109375 43.015625 
Q 36.375 43.015625 40.234375 45.921875 
Q 44.09375 48.828125 44.09375 54.296875 
Q 44.09375 59.90625 40.109375 62.90625 
Q 36.140625 65.921875 28.71875 65.921875 
Q 24.65625 65.921875 20.015625 65.03125 
Q 15.375 64.15625 9.8125 62.3125 
L 9.8125 71.09375 
Q 15.4375 72.65625 20.34375 73.4375 
Q 25.25 74.21875 29.59375 74.21875 
Q 40.828125 74.21875 47.359375 69.109375 
Q 53.90625 64.015625 53.90625 55.328125 
Q 53.90625 49.265625 50.4375 45.09375 
Q 46.96875 40.921875 40.578125 39.3125 
z
" id="DejaVuSans-51"/>
       </defs>
       <use xlink:href="#DejaVuSans-50"/>
       <use x="63.623047" xlink:href="#DejaVuSans-48"/>
       <use x="127.246094" xlink:href="#DejaVuSans-50"/>
       <use x="190.869141" xlink:href="#DejaVuSans-48"/>
       <use x="254.492188" xlink:href="#DejaVuSans-45"/>
       <use x="290.576172" xlink:href="#DejaVuSans-48"/>
       <use x="354.199219" xlink:href="#DejaVuSans-51"/>
      </g>
     </g>
    </g>
    <g id="xtick_2">
     <g id="line2d_2">
      <g>
       <use style="stroke:#000000;stroke-width:0.8;" x="107.432574" xlink:href="#ma5ee53943d" y="226.602246"/>
      </g>
     </g>
     <g id="text_2">
      <!-- 2020-04 -->
      <g transform="translate(70.207754 261.074092)rotate(-30)scale(0.1 -0.1)">
       <defs>
        <path d="M 37.796875 64.3125 
L 12.890625 25.390625 
L 37.796875 25.390625 
z
M 35.203125 72.90625 
L 47.609375 72.90625 
L 47.609375 25.390625 
L 58.015625 25.390625 
L 58.015625 17.1875 
L 47.609375 17.1875 
L 47.609375 0 
L 37.796875 0 
L 37.796875 17.1875 
L 4.890625 17.1875 
L 4.890625 26.703125 
z
" id="DejaVuSans-52"/>
       </defs>
       <use xlink:href="#DejaVuSans-50"/>
       <use x="63.623047" xlink:href="#DejaVuSans-48"/>
       <use x="127.246094" xlink:href="#DejaVuSans-50"/>
       <use x="190.869141" xlink:href="#DejaVuSans-48"/>
       <use x="254.492188" xlink:href="#DejaVuSans-45"/>
       <use x="290.576172" xlink:href="#DejaVuSans-48"/>
       <use x="354.199219" xlink:href="#DejaVuSans-52"/>
      </g>
     </g>
    </g>
    <g id="xtick_3">
     <g id="line2d_3">
      <g>
       <use style="stroke:#000000;stroke-width:0.8;" x="145.829567" xlink:href="#ma5ee53943d" y="226.602246"/>
      </g>
     </g>
     <g id="text_3">
      <!-- 2020-05 -->
      <g transform="translate(108.604746 261.074092)rotate(-30)scale(0.1 -0.1)">
       <defs>
        <path d="M 10.796875 72.90625 
L 49.515625 72.90625 
L 49.515625 64.59375 
L 19.828125 64.59375 
L 19.828125 46.734375 
Q 21.96875 47.46875 24.109375 47.828125 
Q 26.265625 48.1875 28.421875 48.1875 
Q 40.625 48.1875 47.75 41.5 
Q 54.890625 34.8125 54.890625 23.390625 
Q 54.890625 11.625 47.5625 5.09375 
Q 40.234375 -1.421875 26.90625 -1.421875 
Q 22.3125 -1.421875 17.546875 -0.640625 
Q 12.796875 0.140625 7.71875 1.703125 
L 7.71875 11.625 
Q 12.109375 9.234375 16.796875 8.0625 
Q 21.484375 6.890625 26.703125 6.890625 
Q 35.15625 6.890625 40.078125 11.328125 
Q 45.015625 15.765625 45.015625 23.390625 
Q 45.015625 31 40.078125 35.4375 
Q 35.15625 39.890625 26.703125 39.890625 
Q 22.75 39.890625 18.8125 39.015625 
Q 14.890625 38.140625 10.796875 36.28125 
z
" id="DejaVuSans-53"/>
       </defs>
       <use xlink:href="#DejaVuSans-50"/>
       <use x="63.623047" xlink:href="#DejaVuSans-48"/>
       <use x="127.246094" xlink:href="#DejaVuSans-50"/>
       <use x="190.869141" xlink:href="#DejaVuSans-48"/>
       <use x="254.492188" xlink:href="#DejaVuSans-45"/>
       <use x="290.576172" xlink:href="#DejaVuSans-48"/>
       <use x="354.199219" xlink:href="#DejaVuSans-53"/>
      </g>
     </g>
    </g>
    <g id="xtick_4">
     <g id="line2d_4">
      <g>
       <use style="stroke:#000000;stroke-width:0.8;" x="185.50646" xlink:href="#ma5ee53943d" y="226.602246"/>
      </g>
     </g>
     <g id="text_4">
      <!-- 2020-06 -->
      <g transform="translate(148.281639 261.074092)rotate(-30)scale(0.1 -0.1)">
       <defs>
        <path d="M 33.015625 40.375 
Q 26.375 40.375 22.484375 35.828125 
Q 18.609375 31.296875 18.609375 23.390625 
Q 18.609375 15.53125 22.484375 10.953125 
Q 26.375 6.390625 33.015625 6.390625 
Q 39.65625 6.390625 43.53125 10.953125 
Q 47.40625 15.53125 47.40625 23.390625 
Q 47.40625 31.296875 43.53125 35.828125 
Q 39.65625 40.375 33.015625 40.375 
z
M 52.59375 71.296875 
L 52.59375 62.3125 
Q 48.875 64.0625 45.09375 64.984375 
Q 41.3125 65.921875 37.59375 65.921875 
Q 27.828125 65.921875 22.671875 59.328125 
Q 17.53125 52.734375 16.796875 39.40625 
Q 19.671875 43.65625 24.015625 45.921875 
Q 28.375 48.1875 33.59375 48.1875 
Q 44.578125 48.1875 50.953125 41.515625 
Q 57.328125 34.859375 57.328125 23.390625 
Q 57.328125 12.15625 50.6875 5.359375 
Q 44.046875 -1.421875 33.015625 -1.421875 
Q 20.359375 -1.421875 13.671875 8.265625 
Q 6.984375 17.96875 6.984375 36.375 
Q 6.984375 53.65625 15.1875 63.9375 
Q 23.390625 74.21875 37.203125 74.21875 
Q 40.921875 74.21875 44.703125 73.484375 
Q 48.484375 72.75 52.59375 71.296875 
z
" id="DejaVuSans-54"/>
       </defs>
       <use xlink:href="#DejaVuSans-50"/>
       <use x="63.623047" xlink:href="#DejaVuSans-48"/>
       <use x="127.246094" xlink:href="#DejaVuSans-50"/>
       <use x="190.869141" xlink:href="#DejaVuSans-48"/>
       <use x="254.492188" xlink:href="#DejaVuSans-45"/>
       <use x="290.576172" xlink:href="#DejaVuSans-48"/>
       <use x="354.199219" xlink:href="#DejaVuSans-54"/>
      </g>
     </g>
    </g>
    <g id="xtick_5">
     <g id="line2d_5">
      <g>
       <use style="stroke:#000000;stroke-width:0.8;" x="223.903452" xlink:href="#ma5ee53943d" y="226.602246"/>
      </g>
     </g>
     <g id="text_5">
      <!-- 2020-07 -->
      <g transform="translate(186.678631 261.074092)rotate(-30)scale(0.1 -0.1)">
       <defs>
        <path d="M 8.203125 72.90625 
L 55.078125 72.90625 
L 55.078125 68.703125 
L 28.609375 0 
L 18.3125 0 
L 43.21875 64.59375 
L 8.203125 64.59375 
z
" id="DejaVuSans-55"/>
       </defs>
       <use xlink:href="#DejaVuSans-50"/>
       <use x="63.623047" xlink:href="#DejaVuSans-48"/>
       <use x="127.246094" xlink:href="#DejaVuSans-50"/>
       <use x="190.869141" xlink:href="#DejaVuSans-48"/>
       <use x="254.492188" xlink:href="#DejaVuSans-45"/>
       <use x="290.576172" xlink:href="#DejaVuSans-48"/>
       <use x="354.199219" xlink:href="#DejaVuSans-55"/>
      </g>
     </g>
    </g>
    <g id="xtick_6">
     <g id="line2d_6">
      <g>
       <use style="stroke:#000000;stroke-width:0.8;" x="263.580345" xlink:href="#ma5ee53943d" y="226.602246"/>
      </g>
     </g>
     <g id="text_6">
      <!-- 2020-08 -->
      <g transform="translate(226.355524 261.074092)rotate(-30)scale(0.1 -0.1)">
       <defs>
        <path d="M 31.78125 34.625 
Q 24.75 34.625 20.71875 30.859375 
Q 16.703125 27.09375 16.703125 20.515625 
Q 16.703125 13.921875 20.71875 10.15625 
Q 24.75 6.390625 31.78125 6.390625 
Q 38.8125 6.390625 42.859375 10.171875 
Q 46.921875 13.96875 46.921875 20.515625 
Q 46.921875 27.09375 42.890625 30.859375 
Q 38.875 34.625 31.78125 34.625 
z
M 21.921875 38.8125 
Q 15.578125 40.375 12.03125 44.71875 
Q 8.5 49.078125 8.5 55.328125 
Q 8.5 64.0625 14.71875 69.140625 
Q 20.953125 74.21875 31.78125 74.21875 
Q 42.671875 74.21875 48.875 69.140625 
Q 55.078125 64.0625 55.078125 55.328125 
Q 55.078125 49.078125 51.53125 44.71875 
Q 48 40.375 41.703125 38.8125 
Q 48.828125 37.15625 52.796875 32.3125 
Q 56.78125 27.484375 56.78125 20.515625 
Q 56.78125 9.90625 50.3125 4.234375 
Q 43.84375 -1.421875 31.78125 -1.421875 
Q 19.734375 -1.421875 13.25 4.234375 
Q 6.78125 9.90625 6.78125 20.515625 
Q 6.78125 27.484375 10.78125 32.3125 
Q 14.796875 37.15625 21.921875 38.8125 
z
M 18.3125 54.390625 
Q 18.3125 48.734375 21.84375 45.5625 
Q 25.390625 42.390625 31.78125 42.390625 
Q 38.140625 42.390625 41.71875 45.5625 
Q 45.3125 48.734375 45.3125 54.390625 
Q 45.3125 60.0625 41.71875 63.234375 
Q 38.140625 66.40625 31.78125 66.40625 
Q 25.390625 66.40625 21.84375 63.234375 
Q 18.3125 60.0625 18.3125 54.390625 
z
" id="DejaVuSans-56"/>
       </defs>
       <use xlink:href="#DejaVuSans-50"/>
       <use x="63.623047" xlink:href="#DejaVuSans-48"/>
       <use x="127.246094" xlink:href="#DejaVuSans-50"/>
       <use x="190.869141" xlink:href="#DejaVuSans-48"/>
       <use x="254.492188" xlink:href="#DejaVuSans-45"/>
       <use x="290.576172" xlink:href="#DejaVuSans-48"/>
       <use x="354.199219" xlink:href="#DejaVuSans-56"/>
      </g>
     </g>
    </g>
    <g id="xtick_7">
     <g id="line2d_7">
      <g>
       <use style="stroke:#000000;stroke-width:0.8;" x="303.257237" xlink:href="#ma5ee53943d" y="226.602246"/>
      </g>
     </g>
     <g id="text_7">
      <!-- 2020-09 -->
      <g transform="translate(266.032416 261.074092)rotate(-30)scale(0.1 -0.1)">
       <defs>
        <path d="M 10.984375 1.515625 
L 10.984375 10.5 
Q 14.703125 8.734375 18.5 7.8125 
Q 22.3125 6.890625 25.984375 6.890625 
Q 35.75 6.890625 40.890625 13.453125 
Q 46.046875 20.015625 46.78125 33.40625 
Q 43.953125 29.203125 39.59375 26.953125 
Q 35.25 24.703125 29.984375 24.703125 
Q 19.046875 24.703125 12.671875 31.3125 
Q 6.296875 37.9375 6.296875 49.421875 
Q 6.296875 60.640625 12.9375 67.421875 
Q 19.578125 74.21875 30.609375 74.21875 
Q 43.265625 74.21875 49.921875 64.515625 
Q 56.59375 54.828125 56.59375 36.375 
Q 56.59375 19.140625 48.40625 8.859375 
Q 40.234375 -1.421875 26.421875 -1.421875 
Q 22.703125 -1.421875 18.890625 -0.6875 
Q 15.09375 0.046875 10.984375 1.515625 
z
M 30.609375 32.421875 
Q 37.25 32.421875 41.125 36.953125 
Q 45.015625 41.5 45.015625 49.421875 
Q 45.015625 57.28125 41.125 61.84375 
Q 37.25 66.40625 30.609375 66.40625 
Q 23.96875 66.40625 20.09375 61.84375 
Q 16.21875 57.28125 16.21875 49.421875 
Q 16.21875 41.5 20.09375 36.953125 
Q 23.96875 32.421875 30.609375 32.421875 
z
" id="DejaVuSans-57"/>
       </defs>
       <use xlink:href="#DejaVuSans-50"/>
       <use x="63.623047" xlink:href="#DejaVuSans-48"/>
       <use x="127.246094" xlink:href="#DejaVuSans-50"/>
       <use x="190.869141" xlink:href="#DejaVuSans-48"/>
       <use x="254.492188" xlink:href="#DejaVuSans-45"/>
       <use x="290.576172" xlink:href="#DejaVuSans-48"/>
       <use x="354.199219" xlink:href="#DejaVuSans-57"/>
      </g>
     </g>
    </g>
    <g id="xtick_8">
     <g id="line2d_8">
      <g>
       <use style="stroke:#000000;stroke-width:0.8;" x="341.65423" xlink:href="#ma5ee53943d" y="226.602246"/>
      </g>
     </g>
     <g id="text_8">
      <!-- 2020-10 -->
      <g transform="translate(304.429409 261.074092)rotate(-30)scale(0.1 -0.1)">
       <defs>
        <path d="M 12.40625 8.296875 
L 28.515625 8.296875 
L 28.515625 63.921875 
L 10.984375 60.40625 
L 10.984375 69.390625 
L 28.421875 72.90625 
L 38.28125 72.90625 
L 38.28125 8.296875 
L 54.390625 8.296875 
L 54.390625 0 
L 12.40625 0 
z
" id="DejaVuSans-49"/>
       </defs>
       <use xlink:href="#DejaVuSans-50"/>
       <use x="63.623047" xlink:href="#DejaVuSans-48"/>
       <use x="127.246094" xlink:href="#DejaVuSans-50"/>
       <use x="190.869141" xlink:href="#DejaVuSans-48"/>
       <use x="254.492188" xlink:href="#DejaVuSans-45"/>
       <use x="290.576172" xlink:href="#DejaVuSans-49"/>
       <use x="354.199219" xlink:href="#DejaVuSans-48"/>
      </g>
     </g>
    </g>
    <g id="xtick_9">
     <g id="line2d_9">
      <g>
       <use style="stroke:#000000;stroke-width:0.8;" x="381.331123" xlink:href="#ma5ee53943d" y="226.602246"/>
      </g>
     </g>
     <g id="text_9">
      <!-- 2020-11 -->
      <g transform="translate(344.106302 261.074092)rotate(-30)scale(0.1 -0.1)">
       <use xlink:href="#DejaVuSans-50"/>
       <use x="63.623047" xlink:href="#DejaVuSans-48"/>
       <use x="127.246094" xlink:href="#DejaVuSans-50"/>
       <use x="190.869141" xlink:href="#DejaVuSans-48"/>
       <use x="254.492188" xlink:href="#DejaVuSans-45"/>
       <use x="290.576172" xlink:href="#DejaVuSans-49"/>
       <use x="354.199219" xlink:href="#DejaVuSans-49"/>
      </g>
     </g>
    </g>
    <g id="xtick_10">
     <g id="line2d_10">
      <g>
       <use style="stroke:#000000;stroke-width:0.8;" x="419.728115" xlink:href="#ma5ee53943d" y="226.602246"/>
      </g>
     </g>
     <g id="text_10">
      <!-- 2020-12 -->
      <g transform="translate(382.503294 261.074092)rotate(-30)scale(0.1 -0.1)">
       <use xlink:href="#DejaVuSans-50"/>
       <use x="63.623047" xlink:href="#DejaVuSans-48"/>
       <use x="127.246094" xlink:href="#DejaVuSans-50"/>
       <use x="190.869141" xlink:href="#DejaVuSans-48"/>
       <use x="254.492188" xlink:href="#DejaVuSans-45"/>
       <use x="290.576172" xlink:href="#DejaVuSans-49"/>
       <use x="354.199219" xlink:href="#DejaVuSans-50"/>
      </g>
     </g>
    </g>
    <g id="text_11">
     <!-- Date -->
     <g transform="translate(224.111719 274.473592)scale(0.1 -0.1)">
      <defs>
       <path d="M 19.671875 64.796875 
L 19.671875 8.109375 
L 31.59375 8.109375 
Q 46.6875 8.109375 53.6875 14.9375 
Q 60.6875 21.78125 60.6875 36.53125 
Q 60.6875 51.171875 53.6875 57.984375 
Q 46.6875 64.796875 31.59375 64.796875 
z
M 9.8125 72.90625 
L 30.078125 72.90625 
Q 51.265625 72.90625 61.171875 64.09375 
Q 71.09375 55.28125 71.09375 36.53125 
Q 71.09375 17.671875 61.125 8.828125 
Q 51.171875 0 30.078125 0 
L 9.8125 0 
z
" id="DejaVuSans-68"/>
       <path d="M 34.28125 27.484375 
Q 23.390625 27.484375 19.1875 25 
Q 14.984375 22.515625 14.984375 16.5 
Q 14.984375 11.71875 18.140625 8.90625 
Q 21.296875 6.109375 26.703125 6.109375 
Q 34.1875 6.109375 38.703125 11.40625 
Q 43.21875 16.703125 43.21875 25.484375 
L 43.21875 27.484375 
z
M 52.203125 31.203125 
L 52.203125 0 
L 43.21875 0 
L 43.21875 8.296875 
Q 40.140625 3.328125 35.546875 0.953125 
Q 30.953125 -1.421875 24.3125 -1.421875 
Q 15.921875 -1.421875 10.953125 3.296875 
Q 6 8.015625 6 15.921875 
Q 6 25.140625 12.171875 29.828125 
Q 18.359375 34.515625 30.609375 34.515625 
L 43.21875 34.515625 
L 43.21875 35.40625 
Q 43.21875 41.609375 39.140625 45 
Q 35.0625 48.390625 27.6875 48.390625 
Q 23 48.390625 18.546875 47.265625 
Q 14.109375 46.140625 10.015625 43.890625 
L 10.015625 52.203125 
Q 14.9375 54.109375 19.578125 55.046875 
Q 24.21875 56 28.609375 56 
Q 40.484375 56 46.34375 49.84375 
Q 52.203125 43.703125 52.203125 31.203125 
z
" id="DejaVuSans-97"/>
       <path d="M 18.3125 70.21875 
L 18.3125 54.6875 
L 36.8125 54.6875 
L 36.8125 47.703125 
L 18.3125 47.703125 
L 18.3125 18.015625 
Q 18.3125 11.328125 20.140625 9.421875 
Q 21.96875 7.515625 27.59375 7.515625 
L 36.8125 7.515625 
L 36.8125 0 
L 27.59375 0 
Q 17.1875 0 13.234375 3.875 
Q 9.28125 7.765625 9.28125 18.015625 
L 9.28125 47.703125 
L 2.6875 47.703125 
L 2.6875 54.6875 
L 9.28125 54.6875 
L 9.28125 70.21875 
z
" id="DejaVuSans-116"/>
       <path d="M 56.203125 29.59375 
L 56.203125 25.203125 
L 14.890625 25.203125 
Q 15.484375 15.921875 20.484375 11.0625 
Q 25.484375 6.203125 34.421875 6.203125 
Q 39.59375 6.203125 44.453125 7.46875 
Q 49.3125 8.734375 54.109375 11.28125 
L 54.109375 2.78125 
Q 49.265625 0.734375 44.1875 -0.34375 
Q 39.109375 -1.421875 33.890625 -1.421875 
Q 20.796875 -1.421875 13.15625 6.1875 
Q 5.515625 13.8125 5.515625 26.8125 
Q 5.515625 40.234375 12.765625 48.109375 
Q 20.015625 56 32.328125 56 
Q 43.359375 56 49.78125 48.890625 
Q 56.203125 41.796875 56.203125 29.59375 
z
M 47.21875 32.234375 
Q 47.125 39.59375 43.09375 43.984375 
Q 39.0625 48.390625 32.421875 48.390625 
Q 24.90625 48.390625 20.390625 44.140625 
Q 15.875 39.890625 15.1875 32.171875 
z
" id="DejaVuSans-101"/>
      </defs>
      <use xlink:href="#DejaVuSans-68"/>
      <use x="77.001953" xlink:href="#DejaVuSans-97"/>
      <use x="138.28125" xlink:href="#DejaVuSans-116"/>
      <use x="177.490234" xlink:href="#DejaVuSans-101"/>
     </g>
    </g>
   </g>
   <g id="matplotlib.axis_2">
    <g id="ytick_1">
     <g id="line2d_11">
      <defs>
       <path d="M 0 0 
L -3.5 0 
" id="m4ac5b08077" style="stroke:#000000;stroke-width:0.8;"/>
      </defs>
      <g>
       <use style="stroke:#000000;stroke-width:0.8;" x="50.925" xlink:href="#m4ac5b08077" y="217.520326"/>
      </g>
     </g>
     <g id="text_12">
      <!-- 0 -->
      <g transform="translate(37.5625 221.319544)scale(0.1 -0.1)">
       <use xlink:href="#DejaVuSans-48"/>
      </g>
     </g>
    </g>
    <g id="ytick_2">
     <g id="line2d_12">
      <g>
       <use style="stroke:#000000;stroke-width:0.8;" x="50.925" xlink:href="#m4ac5b08077" y="193.486986"/>
      </g>
     </g>
     <g id="text_13">
      <!-- 100 -->
      <g transform="translate(24.8375 197.286205)scale(0.1 -0.1)">
       <use xlink:href="#DejaVuSans-49"/>
       <use x="63.623047" xlink:href="#DejaVuSans-48"/>
       <use x="127.246094" xlink:href="#DejaVuSans-48"/>
      </g>
     </g>
    </g>
    <g id="ytick_3">
     <g id="line2d_13">
      <g>
       <use style="stroke:#000000;stroke-width:0.8;" x="50.925" xlink:href="#m4ac5b08077" y="169.453647"/>
      </g>
     </g>
     <g id="text_14">
      <!-- 200 -->
      <g transform="translate(24.8375 173.252866)scale(0.1 -0.1)">
       <use xlink:href="#DejaVuSans-50"/>
       <use x="63.623047" xlink:href="#DejaVuSans-48"/>
       <use x="127.246094" xlink:href="#DejaVuSans-48"/>
      </g>
     </g>
    </g>
    <g id="ytick_4">
     <g id="line2d_14">
      <g>
       <use style="stroke:#000000;stroke-width:0.8;" x="50.925" xlink:href="#m4ac5b08077" y="145.420308"/>
      </g>
     </g>
     <g id="text_15">
      <!-- 300 -->
      <g transform="translate(24.8375 149.219527)scale(0.1 -0.1)">
       <use xlink:href="#DejaVuSans-51"/>
       <use x="63.623047" xlink:href="#DejaVuSans-48"/>
       <use x="127.246094" xlink:href="#DejaVuSans-48"/>
      </g>
     </g>
    </g>
    <g id="ytick_5">
     <g id="line2d_15">
      <g>
       <use style="stroke:#000000;stroke-width:0.8;" x="50.925" xlink:href="#m4ac5b08077" y="121.386969"/>
      </g>
     </g>
     <g id="text_16">
      <!-- 400 -->
      <g transform="translate(24.8375 125.186187)scale(0.1 -0.1)">
       <use xlink:href="#DejaVuSans-52"/>
       <use x="63.623047" xlink:href="#DejaVuSans-48"/>
       <use x="127.246094" xlink:href="#DejaVuSans-48"/>
      </g>
     </g>
    </g>
    <g id="ytick_6">
     <g id="line2d_16">
      <g>
       <use style="stroke:#000000;stroke-width:0.8;" x="50.925" xlink:href="#m4ac5b08077" y="97.353629"/>
      </g>
     </g>
     <g id="text_17">
      <!-- 500 -->
      <g transform="translate(24.8375 101.152848)scale(0.1 -0.1)">
       <use xlink:href="#DejaVuSans-53"/>
       <use x="63.623047" xlink:href="#DejaVuSans-48"/>
       <use x="127.246094" xlink:href="#DejaVuSans-48"/>
      </g>
     </g>
    </g>
    <g id="ytick_7">
     <g id="line2d_17">
      <g>
       <use style="stroke:#000000;stroke-width:0.8;" x="50.925" xlink:href="#m4ac5b08077" y="73.32029"/>
      </g>
     </g>
     <g id="text_18">
      <!-- 600 -->
      <g transform="translate(24.8375 77.119509)scale(0.1 -0.1)">
       <use xlink:href="#DejaVuSans-54"/>
       <use x="63.623047" xlink:href="#DejaVuSans-48"/>
       <use x="127.246094" xlink:href="#DejaVuSans-48"/>
      </g>
     </g>
    </g>
    <g id="ytick_8">
     <g id="line2d_18">
      <g>
       <use style="stroke:#000000;stroke-width:0.8;" x="50.925" xlink:href="#m4ac5b08077" y="49.286951"/>
      </g>
     </g>
     <g id="text_19">
      <!-- 700 -->
      <g transform="translate(24.8375 53.08617)scale(0.1 -0.1)">
       <use xlink:href="#DejaVuSans-55"/>
       <use x="63.623047" xlink:href="#DejaVuSans-48"/>
       <use x="127.246094" xlink:href="#DejaVuSans-48"/>
      </g>
     </g>
    </g>
    <g id="text_20">
     <!-- New cases per million population -->
     <g transform="translate(18.757813 209.63081)rotate(-90)scale(0.1 -0.1)">
      <defs>
       <path d="M 9.8125 72.90625 
L 23.09375 72.90625 
L 55.421875 11.921875 
L 55.421875 72.90625 
L 64.984375 72.90625 
L 64.984375 0 
L 51.703125 0 
L 19.390625 60.984375 
L 19.390625 0 
L 9.8125 0 
z
" id="DejaVuSans-78"/>
       <path d="M 4.203125 54.6875 
L 13.1875 54.6875 
L 24.421875 12.015625 
L 35.59375 54.6875 
L 46.1875 54.6875 
L 57.421875 12.015625 
L 68.609375 54.6875 
L 77.59375 54.6875 
L 63.28125 0 
L 52.6875 0 
L 40.921875 44.828125 
L 29.109375 0 
L 18.5 0 
z
" id="DejaVuSans-119"/>
       <path id="DejaVuSans-32"/>
       <path d="M 48.78125 52.59375 
L 48.78125 44.1875 
Q 44.96875 46.296875 41.140625 47.34375 
Q 37.3125 48.390625 33.40625 48.390625 
Q 24.65625 48.390625 19.8125 42.84375 
Q 14.984375 37.3125 14.984375 27.296875 
Q 14.984375 17.28125 19.8125 11.734375 
Q 24.65625 6.203125 33.40625 6.203125 
Q 37.3125 6.203125 41.140625 7.25 
Q 44.96875 8.296875 48.78125 10.40625 
L 48.78125 2.09375 
Q 45.015625 0.34375 40.984375 -0.53125 
Q 36.96875 -1.421875 32.421875 -1.421875 
Q 20.0625 -1.421875 12.78125 6.34375 
Q 5.515625 14.109375 5.515625 27.296875 
Q 5.515625 40.671875 12.859375 48.328125 
Q 20.21875 56 33.015625 56 
Q 37.15625 56 41.109375 55.140625 
Q 45.0625 54.296875 48.78125 52.59375 
z
" id="DejaVuSans-99"/>
       <path d="M 44.28125 53.078125 
L 44.28125 44.578125 
Q 40.484375 46.53125 36.375 47.5 
Q 32.28125 48.484375 27.875 48.484375 
Q 21.1875 48.484375 17.84375 46.4375 
Q 14.5 44.390625 14.5 40.28125 
Q 14.5 37.15625 16.890625 35.375 
Q 19.28125 33.59375 26.515625 31.984375 
L 29.59375 31.296875 
Q 39.15625 29.25 43.1875 25.515625 
Q 47.21875 21.78125 47.21875 15.09375 
Q 47.21875 7.46875 41.1875 3.015625 
Q 35.15625 -1.421875 24.609375 -1.421875 
Q 20.21875 -1.421875 15.453125 -0.5625 
Q 10.6875 0.296875 5.421875 2 
L 5.421875 11.28125 
Q 10.40625 8.6875 15.234375 7.390625 
Q 20.0625 6.109375 24.8125 6.109375 
Q 31.15625 6.109375 34.5625 8.28125 
Q 37.984375 10.453125 37.984375 14.40625 
Q 37.984375 18.0625 35.515625 20.015625 
Q 33.0625 21.96875 24.703125 23.78125 
L 21.578125 24.515625 
Q 13.234375 26.265625 9.515625 29.90625 
Q 5.8125 33.546875 5.8125 39.890625 
Q 5.8125 47.609375 11.28125 51.796875 
Q 16.75 56 26.8125 56 
Q 31.78125 56 36.171875 55.265625 
Q 40.578125 54.546875 44.28125 53.078125 
z
" id="DejaVuSans-115"/>
       <path d="M 18.109375 8.203125 
L 18.109375 -20.796875 
L 9.078125 -20.796875 
L 9.078125 54.6875 
L 18.109375 54.6875 
L 18.109375 46.390625 
Q 20.953125 51.265625 25.265625 53.625 
Q 29.59375 56 35.59375 56 
Q 45.5625 56 51.78125 48.09375 
Q 58.015625 40.1875 58.015625 27.296875 
Q 58.015625 14.40625 51.78125 6.484375 
Q 45.5625 -1.421875 35.59375 -1.421875 
Q 29.59375 -1.421875 25.265625 0.953125 
Q 20.953125 3.328125 18.109375 8.203125 
z
M 48.6875 27.296875 
Q 48.6875 37.203125 44.609375 42.84375 
Q 40.53125 48.484375 33.40625 48.484375 
Q 26.265625 48.484375 22.1875 42.84375 
Q 18.109375 37.203125 18.109375 27.296875 
Q 18.109375 17.390625 22.1875 11.75 
Q 26.265625 6.109375 33.40625 6.109375 
Q 40.53125 6.109375 44.609375 11.75 
Q 48.6875 17.390625 48.6875 27.296875 
z
" id="DejaVuSans-112"/>
       <path d="M 41.109375 46.296875 
Q 39.59375 47.171875 37.8125 47.578125 
Q 36.03125 48 33.890625 48 
Q 26.265625 48 22.1875 43.046875 
Q 18.109375 38.09375 18.109375 28.8125 
L 18.109375 0 
L 9.078125 0 
L 9.078125 54.6875 
L 18.109375 54.6875 
L 18.109375 46.1875 
Q 20.953125 51.171875 25.484375 53.578125 
Q 30.03125 56 36.53125 56 
Q 37.453125 56 38.578125 55.875 
Q 39.703125 55.765625 41.0625 55.515625 
z
" id="DejaVuSans-114"/>
       <path d="M 52 44.1875 
Q 55.375 50.25 60.0625 53.125 
Q 64.75 56 71.09375 56 
Q 79.640625 56 84.28125 50.015625 
Q 88.921875 44.046875 88.921875 33.015625 
L 88.921875 0 
L 79.890625 0 
L 79.890625 32.71875 
Q 79.890625 40.578125 77.09375 44.375 
Q 74.3125 48.1875 68.609375 48.1875 
Q 61.625 48.1875 57.5625 43.546875 
Q 53.515625 38.921875 53.515625 30.90625 
L 53.515625 0 
L 44.484375 0 
L 44.484375 32.71875 
Q 44.484375 40.625 41.703125 44.40625 
Q 38.921875 48.1875 33.109375 48.1875 
Q 26.21875 48.1875 22.15625 43.53125 
Q 18.109375 38.875 18.109375 30.90625 
L 18.109375 0 
L 9.078125 0 
L 9.078125 54.6875 
L 18.109375 54.6875 
L 18.109375 46.1875 
Q 21.1875 51.21875 25.484375 53.609375 
Q 29.78125 56 35.6875 56 
Q 41.65625 56 45.828125 52.96875 
Q 50 49.953125 52 44.1875 
z
" id="DejaVuSans-109"/>
       <path d="M 9.421875 54.6875 
L 18.40625 54.6875 
L 18.40625 0 
L 9.421875 0 
z
M 9.421875 75.984375 
L 18.40625 75.984375 
L 18.40625 64.59375 
L 9.421875 64.59375 
z
" id="DejaVuSans-105"/>
       <path d="M 9.421875 75.984375 
L 18.40625 75.984375 
L 18.40625 0 
L 9.421875 0 
z
" id="DejaVuSans-108"/>
       <path d="M 30.609375 48.390625 
Q 23.390625 48.390625 19.1875 42.75 
Q 14.984375 37.109375 14.984375 27.296875 
Q 14.984375 17.484375 19.15625 11.84375 
Q 23.34375 6.203125 30.609375 6.203125 
Q 37.796875 6.203125 41.984375 11.859375 
Q 46.1875 17.53125 46.1875 27.296875 
Q 46.1875 37.015625 41.984375 42.703125 
Q 37.796875 48.390625 30.609375 48.390625 
z
M 30.609375 56 
Q 42.328125 56 49.015625 48.375 
Q 55.71875 40.765625 55.71875 27.296875 
Q 55.71875 13.875 49.015625 6.21875 
Q 42.328125 -1.421875 30.609375 -1.421875 
Q 18.84375 -1.421875 12.171875 6.21875 
Q 5.515625 13.875 5.515625 27.296875 
Q 5.515625 40.765625 12.171875 48.375 
Q 18.84375 56 30.609375 56 
z
" id="DejaVuSans-111"/>
       <path d="M 54.890625 33.015625 
L 54.890625 0 
L 45.90625 0 
L 45.90625 32.71875 
Q 45.90625 40.484375 42.875 44.328125 
Q 39.84375 48.1875 33.796875 48.1875 
Q 26.515625 48.1875 22.3125 43.546875 
Q 18.109375 38.921875 18.109375 30.90625 
L 18.109375 0 
L 9.078125 0 
L 9.078125 54.6875 
L 18.109375 54.6875 
L 18.109375 46.1875 
Q 21.34375 51.125 25.703125 53.5625 
Q 30.078125 56 35.796875 56 
Q 45.21875 56 50.046875 50.171875 
Q 54.890625 44.34375 54.890625 33.015625 
z
" id="DejaVuSans-110"/>
       <path d="M 8.5 21.578125 
L 8.5 54.6875 
L 17.484375 54.6875 
L 17.484375 21.921875 
Q 17.484375 14.15625 20.5 10.265625 
Q 23.53125 6.390625 29.59375 6.390625 
Q 36.859375 6.390625 41.078125 11.03125 
Q 45.3125 15.671875 45.3125 23.6875 
L 45.3125 54.6875 
L 54.296875 54.6875 
L 54.296875 0 
L 45.3125 0 
L 45.3125 8.40625 
Q 42.046875 3.421875 37.71875 1 
Q 33.40625 -1.421875 27.6875 -1.421875 
Q 18.265625 -1.421875 13.375 4.4375 
Q 8.5 10.296875 8.5 21.578125 
z
M 31.109375 56 
z
" id="DejaVuSans-117"/>
      </defs>
      <use xlink:href="#DejaVuSans-78"/>
      <use x="74.804688" xlink:href="#DejaVuSans-101"/>
      <use x="136.328125" xlink:href="#DejaVuSans-119"/>
      <use x="218.115234" xlink:href="#DejaVuSans-32"/>
      <use x="249.902344" xlink:href="#DejaVuSans-99"/>
      <use x="304.882812" xlink:href="#DejaVuSans-97"/>
      <use x="366.162109" xlink:href="#DejaVuSans-115"/>
      <use x="418.261719" xlink:href="#DejaVuSans-101"/>
      <use x="479.785156" xlink:href="#DejaVuSans-115"/>
      <use x="531.884766" xlink:href="#DejaVuSans-32"/>
      <use x="563.671875" xlink:href="#DejaVuSans-112"/>
      <use x="627.148438" xlink:href="#DejaVuSans-101"/>
      <use x="688.671875" xlink:href="#DejaVuSans-114"/>
      <use x="729.785156" xlink:href="#DejaVuSans-32"/>
      <use x="761.572266" xlink:href="#DejaVuSans-109"/>
      <use x="858.984375" xlink:href="#DejaVuSans-105"/>
      <use x="886.767578" xlink:href="#DejaVuSans-108"/>
      <use x="914.550781" xlink:href="#DejaVuSans-108"/>
      <use x="942.333984" xlink:href="#DejaVuSans-105"/>
      <use x="970.117188" xlink:href="#DejaVuSans-111"/>
      <use x="1031.298828" xlink:href="#DejaVuSans-110"/>
      <use x="1094.677734" xlink:href="#DejaVuSans-32"/>
      <use x="1126.464844" xlink:href="#DejaVuSans-112"/>
      <use x="1189.941406" xlink:href="#DejaVuSans-111"/>
      <use x="1251.123047" xlink:href="#DejaVuSans-112"/>
      <use x="1314.599609" xlink:href="#DejaVuSans-117"/>
      <use x="1377.978516" xlink:href="#DejaVuSans-108"/>
      <use x="1405.761719" xlink:href="#DejaVuSans-97"/>
      <use x="1467.041016" xlink:href="#DejaVuSans-116"/>
      <use x="1506.25" xlink:href="#DejaVuSans-105"/>
      <use x="1534.033203" xlink:href="#DejaVuSans-111"/>
      <use x="1595.214844" xlink:href="#DejaVuSans-110"/>
     </g>
    </g>
   </g>
   <g id="line2d_19">
    <path clip-path="url(#p1569d6faf6)" d="M 69.035582 216.81979 
L 70.315481 217.170058 
L 72.875281 217.345192 
L 77.99488 217.520326 
L 81.834579 217.019943 
L 84.394379 217.019943 
L 86.954178 216.619637 
L 89.513978 216.719714 
L 93.353677 215.919102 
L 94.633577 215.819025 
L 98.473276 214.918337 
L 99.753176 214.81826 
L 101.033076 213.41719 
L 102.312975 212.516501 
L 103.592875 210.514971 
L 104.872775 209.41413 
L 106.152675 208.013059 
L 107.432574 205.611223 
L 109.992374 201.608164 
L 111.272274 199.606634 
L 112.552173 198.705945 
L 113.832073 197.204798 
L 115.111973 196.00388 
L 116.391873 196.103957 
L 117.671772 196.00388 
L 118.951672 197.104722 
L 120.231572 198.605869 
L 121.511472 199.106251 
L 122.791371 200.707475 
L 124.071271 201.508087 
L 125.351171 202.108546 
L 126.631071 201.908393 
L 127.91097 201.307934 
L 129.19087 200.407246 
L 130.47077 200.707475 
L 131.75067 200.00694 
L 133.030569 197.805257 
L 134.310469 197.204798 
L 135.590369 197.204798 
L 136.870269 197.905333 
L 138.150169 198.00541 
L 139.430068 198.705945 
L 140.709968 197.204798 
L 143.269768 196.504263 
L 144.549667 196.103957 
L 145.829567 194.802962 
L 147.109467 194.702886 
L 148.389367 193.802197 
L 149.669266 195.203268 
L 150.949166 197.204798 
L 152.229066 197.004645 
L 153.508966 198.305639 
L 154.788865 197.905333 
L 156.068765 198.605869 
L 157.348665 199.106251 
L 158.628565 197.905333 
L 159.908464 197.304875 
L 161.188364 197.505028 
L 162.468264 196.103957 
L 163.748164 197.805257 
L 165.028063 197.304875 
L 166.307963 197.505028 
L 170.147662 198.705945 
L 171.427562 200.907628 
L 172.707462 201.408011 
L 175.267261 202.00847 
L 176.547161 204.310229 
L 177.827061 204.510382 
L 179.106961 206.011529 
L 180.386861 204.710535 
L 181.66676 204.410305 
L 182.94666 205.611223 
L 184.22656 206.011529 
L 185.50646 204.810611 
L 186.786359 206.011529 
L 188.066259 206.311759 
L 189.346159 207.512677 
L 190.626059 209.213977 
L 191.905958 208.913747 
L 193.185858 209.514206 
L 194.465758 210.915277 
L 195.745658 211.715889 
L 197.025557 212.016119 
L 198.305457 212.716654 
L 199.585357 212.316348 
L 200.865257 212.516501 
L 202.145156 212.516501 
L 203.425056 212.316348 
L 204.704956 211.916042 
L 207.264755 212.016119 
L 208.544655 212.416425 
L 209.824555 213.217037 
L 211.104455 213.517266 
L 213.664254 214.618107 
L 214.944154 214.718184 
L 216.224054 214.117725 
L 217.503954 214.317878 
L 220.063753 214.017649 
L 221.343653 213.11696 
L 222.623553 212.916807 
L 223.903452 213.11696 
L 225.183352 213.817496 
L 226.463252 214.017649 
L 227.743152 213.41719 
L 229.023051 213.317113 
L 230.302951 214.417954 
L 231.582851 214.81826 
L 232.862751 214.518031 
L 234.14265 213.517266 
L 235.42255 213.317113 
L 236.70245 214.017649 
L 237.98235 214.217801 
L 239.262249 214.117725 
L 240.542149 213.717419 
L 241.822049 214.217801 
L 243.101949 215.018413 
L 245.661748 215.018413 
L 246.941648 215.218566 
L 248.221548 214.918337 
L 252.061247 216.019178 
L 253.341147 215.718949 
L 255.900946 215.418719 
L 257.180846 215.218566 
L 258.460746 215.318643 
L 259.740646 215.018413 
L 263.580345 214.81826 
L 266.140144 215.418719 
L 269.979844 214.81826 
L 271.259743 215.318643 
L 272.539643 215.518796 
L 276.379342 215.518796 
L 277.659242 216.019178 
L 281.498941 215.418719 
L 285.338641 215.518796 
L 286.61854 214.718184 
L 287.89844 214.718184 
L 289.17834 214.918337 
L 293.018039 214.417954 
L 294.297939 214.618107 
L 295.577839 214.618107 
L 296.857739 215.018413 
L 300.697438 214.81826 
L 301.977338 214.417954 
L 305.817037 211.916042 
L 307.096937 211.615813 
L 308.376836 210.615048 
L 309.656736 210.214742 
L 310.936636 208.213212 
L 312.216536 207.512677 
L 313.496435 207.912983 
L 314.776335 207.71283 
L 316.056235 206.411835 
L 318.616034 206.912218 
L 319.895934 208.013059 
L 321.175834 208.313289 
L 322.455734 206.611988 
L 323.735633 206.712065 
L 325.015533 206.111606 
L 326.295433 204.210152 
L 328.855232 200.807552 
L 330.135132 198.405716 
L 331.415032 198.00541 
L 332.694932 196.103957 
L 333.974831 194.602809 
L 335.254731 194.202503 
L 336.534631 192.501203 
L 337.814531 191.700591 
L 339.094431 189.799138 
L 342.93413 180.091718 
L 344.21403 177.890035 
L 345.493929 174.387358 
L 346.773829 170.484375 
L 349.333629 161.577567 
L 350.613528 157.674584 
L 351.893428 157.074125 
L 353.173328 154.672289 
L 354.453228 155.572978 
L 355.733127 152.67076 
L 357.013027 153.071066 
L 358.292927 154.271983 
L 359.572827 154.37206 
L 360.852726 152.570683 
L 362.132626 153.471372 
L 363.412526 150.869383 
L 364.692426 148.567623 
L 365.972325 145.865558 
L 367.252225 141.862499 
L 368.532125 142.663111 
L 369.812025 143.163493 
L 371.091924 141.962575 
L 372.371824 138.96028 
L 373.651724 138.159668 
L 374.931624 137.058827 
L 376.211524 138.559974 
L 377.491423 133.55615 
L 378.771323 131.154314 
L 380.051223 131.55462 
L 381.331123 134.556915 
L 382.611022 133.055767 
L 383.890922 133.856379 
L 385.170822 131.454544 
L 386.450722 130.453779 
L 387.730621 125.550031 
L 389.010521 122.647812 
L 390.290421 118.644753 
L 392.85022 109.137486 
L 394.13012 106.235268 
L 396.68992 111.939628 
L 397.969819 112.039704 
L 399.249719 114.641693 
L 400.529619 121.446894 
L 401.809519 127.451484 
L 403.089418 136.458368 
L 404.369318 148.567623 
L 404.369318 148.567623 
" style="fill:none;stroke:#1f77b4;stroke-linecap:square;stroke-width:1.5;"/>
   </g>
   <g id="line2d_20">
    <path clip-path="url(#p1569d6faf6)" d="M 80.554679 216.841847 
L 83.114479 216.841847 
L 85.674278 217.113239 
L 88.234078 216.744922 
L 90.793877 215.872592 
L 92.073777 215.775667 
L 93.353677 215.291039 
L 94.633577 214.61256 
L 95.913476 213.740231 
L 97.193376 212.092497 
L 98.473276 212.092497 
L 101.033076 210.832466 
L 102.312975 210.250912 
L 104.872775 211.414019 
L 106.152675 210.73554 
L 107.432574 208.021626 
L 108.712474 206.955445 
L 109.992374 205.210786 
L 111.272274 204.823084 
L 113.832073 200.946064 
L 115.111973 201.139915 
L 116.391873 202.399946 
L 117.671772 201.624542 
L 118.951672 202.206095 
L 120.231572 202.012244 
L 121.511472 201.624542 
L 122.791371 203.17535 
L 124.071271 204.241531 
L 125.351171 204.726158 
L 126.631071 206.85852 
L 127.91097 207.633924 
L 129.19087 207.536998 
L 130.47077 207.246222 
L 131.75067 205.501562 
L 133.030569 205.016935 
L 134.310469 203.659978 
L 135.590369 202.496872 
L 136.870269 200.073734 
L 138.150169 199.782957 
L 139.430068 201.721468 
L 140.709968 200.946064 
L 141.989868 199.686032 
L 143.269768 198.910628 
L 144.549667 196.972118 
L 145.829567 199.007553 
L 147.109467 200.073734 
L 148.389367 199.007553 
L 149.669266 199.007553 
L 150.949166 199.686032 
L 152.229066 197.941373 
L 153.508966 199.104479 
L 154.788865 197.35982 
L 156.068765 196.584416 
L 157.348665 195.61516 
L 158.628565 195.905937 
L 159.908464 194.54898 
L 161.188364 196.196714 
L 162.468264 196.293639 
L 163.748164 195.421309 
L 165.028063 191.350438 
L 166.307963 190.768885 
L 167.587863 190.671959 
L 168.867763 189.993481 
L 170.147662 189.702704 
L 171.427562 187.473418 
L 172.707462 189.411928 
L 173.987362 192.222768 
L 175.267261 193.482799 
L 176.547161 194.258203 
L 177.827061 196.293639 
L 179.106961 197.069043 
L 180.386861 198.813702 
L 181.66676 198.522926 
L 182.94666 199.492181 
L 184.22656 198.813702 
L 185.50646 196.972118 
L 186.786359 192.804321 
L 188.066259 193.288948 
L 191.905958 192.513544 
L 193.185858 190.671959 
L 194.465758 189.315002 
L 195.745658 189.605779 
L 197.025557 186.601088 
L 198.305457 182.820993 
L 199.585357 180.107079 
L 200.865257 176.811612 
L 202.145156 175.357729 
L 203.425056 173.61307 
L 205.984856 171.965336 
L 207.264755 172.159187 
L 208.544655 169.9299 
L 209.824555 169.057571 
L 211.104455 168.669869 
L 212.384354 167.312912 
L 213.664254 165.568252 
L 214.944154 162.757413 
L 216.224054 162.757413 
L 217.503954 163.532817 
L 218.783853 164.986699 
L 220.063753 167.99139 
L 221.343653 169.057571 
L 222.623553 172.062262 
L 223.903452 174.67925 
L 225.183352 176.326984 
L 226.463252 177.102388 
L 227.743152 178.36242 
L 229.023051 174.097697 
L 231.582851 174.388474 
L 232.862751 175.260803 
L 234.14265 176.520835 
L 235.42255 176.133133 
L 236.70245 174.194623 
L 237.98235 179.331675 
L 239.262249 182.142515 
L 240.542149 183.984099 
L 241.822049 186.116461 
L 243.101949 185.922609 
L 244.381848 189.024226 
L 245.661748 191.447364 
L 246.941648 192.125842 
L 248.221548 193.870501 
L 249.501447 194.936682 
L 250.781347 194.161278 
L 253.341147 195.033607 
L 254.621046 196.972118 
L 255.900946 197.165969 
L 257.180846 195.905937 
L 259.740646 197.553671 
L 261.020545 197.650596 
L 262.300445 198.813702 
L 263.580345 197.456745 
L 264.860245 197.844447 
L 266.140144 199.007553 
L 267.420044 198.232149 
L 269.979844 197.165969 
L 271.259743 195.324384 
L 272.539643 194.355129 
L 273.819543 193.67665 
L 275.099443 193.385874 
L 276.379342 193.288948 
L 277.659242 195.324384 
L 278.939142 196.681341 
L 280.219042 197.456745 
L 281.498941 199.492181 
L 282.778841 200.36451 
L 284.058741 199.104479 
L 285.338641 198.522926 
L 286.61854 199.104479 
L 287.89844 200.170659 
L 289.17834 200.752212 
L 290.45824 201.624542 
L 291.738139 201.721468 
L 293.018039 204.823084 
L 294.297939 207.052371 
L 295.577839 207.633924 
L 296.857739 208.409328 
L 298.137638 208.700104 
L 300.697438 208.603179 
L 301.977338 208.79703 
L 303.257237 206.664669 
L 304.537137 203.466127 
L 305.817037 201.818393 
L 309.656736 196.48749 
L 310.936636 192.416619 
L 312.216536 190.284257 
L 313.496435 189.121151 
L 316.056235 187.279567 
L 317.336135 186.213386 
L 318.616034 185.728758 
L 319.895934 186.310312 
L 321.175834 186.116461 
L 322.455734 186.504163 
L 325.015533 181.367111 
L 326.295433 177.974718 
L 327.575333 177.393165 
L 328.855232 175.939282 
L 331.415032 174.097697 
L 332.694932 175.55158 
L 333.974831 178.071643 
L 335.254731 179.816302 
L 336.534631 179.816302 
L 337.814531 181.560962 
L 339.094431 180.204004 
L 340.37433 177.587016 
L 341.65423 174.097697 
L 342.93413 168.86372 
L 344.21403 168.282167 
L 346.773829 161.012753 
L 348.053729 158.880392 
L 349.333629 154.227968 
L 350.613528 147.92781 
L 351.893428 147.346257 
L 353.173328 146.377001 
L 354.453228 142.209205 
L 355.733127 136.68445 
L 357.013027 135.230568 
L 358.292927 129.899665 
L 359.572827 131.741249 
L 360.852726 131.062771 
L 362.132626 129.899665 
L 363.412526 131.159696 
L 364.692426 128.445782 
L 365.972325 121.854847 
L 367.252225 120.110188 
L 368.532125 114.876211 
L 369.812025 107.025244 
L 371.091924 99.949682 
L 372.371824 95.491109 
L 373.651724 92.87412 
L 374.931624 92.292567 
L 376.211524 92.777195 
L 377.491423 86.283185 
L 378.771323 87.349366 
L 380.051223 88.9971 
L 381.331123 92.486418 
L 382.611022 81.824612 
L 383.890922 74.845975 
L 385.170822 76.68756 
L 386.450722 78.141443 
L 387.730621 73.87672 
L 389.010521 66.219605 
L 390.290421 54.976246 
L 391.570321 51.874629 
L 392.85022 49.354566 
L 394.13012 36.851175 
L 395.41002 35.978846 
L 396.68992 35.88192 
L 397.969819 38.401984 
L 399.249719 42.666706 
L 401.809519 58.077862 
L 403.089418 85.31393 
L 404.369318 107.9945 
L 404.369318 107.9945 
" style="fill:none;stroke:#ff7f0e;stroke-linecap:square;stroke-width:1.5;"/>
   </g>
   <g id="line2d_21">
    <path clip-path="url(#p1569d6faf6)" d="M 70.315481 217.131471 
L 71.595381 217.325898 
L 72.875281 217.390707 
L 75.43508 217.364784 
L 77.99488 217.353674 
L 90.793877 216.798166 
L 92.073777 216.409311 
L 93.353677 215.853804 
L 94.633577 215.742703 
L 95.913476 215.187196 
L 98.473276 214.298384 
L 101.033076 213.242921 
L 102.312975 213.131819 
L 103.592875 212.465211 
L 104.872775 211.465298 
L 106.152675 210.909791 
L 107.432574 209.798776 
L 108.712474 209.409921 
L 111.272274 207.854501 
L 112.552173 207.410096 
L 113.832073 207.521197 
L 115.111973 206.799038 
L 116.391873 206.96569 
L 117.671772 206.576835 
L 120.231572 207.02124 
L 121.511472 206.743487 
L 122.791371 206.854588 
L 124.071271 207.7434 
L 125.351171 206.910139 
L 126.631071 206.576835 
L 127.91097 206.632385 
L 129.19087 206.521284 
L 130.47077 205.688023 
L 131.75067 204.577009 
L 133.030569 203.632647 
L 134.310469 203.688198 
L 135.590369 202.35498 
L 136.870269 200.299604 
L 138.150169 200.02185 
L 139.430068 198.577532 
L 140.709968 198.355329 
L 141.989868 197.410967 
L 143.269768 195.022286 
L 144.549667 194.800083 
L 145.829567 195.35559 
L 147.109467 194.911185 
L 148.389367 196.466605 
L 149.669266 196.799909 
L 150.949166 196.411054 
L 152.229066 198.355329 
L 153.508966 197.299865 
L 154.788865 198.188677 
L 157.348665 199.077488 
L 159.908464 200.355155 
L 161.188364 201.410618 
L 162.468264 204.077053 
L 163.748164 204.910313 
L 165.028063 205.910226 
L 166.307963 206.576835 
L 167.587863 207.7434 
L 170.147662 209.187718 
L 172.707462 209.465472 
L 173.987362 208.965516 
L 175.267261 209.409921 
L 176.547161 209.187718 
L 177.827061 210.243182 
L 179.106961 209.687675 
L 180.386861 209.354371 
L 182.94666 209.798776 
L 184.22656 209.409921 
L 185.50646 209.965428 
L 186.786359 210.132081 
L 188.066259 211.298646 
L 189.346159 212.742964 
L 190.626059 212.965167 
L 191.905958 213.96508 
L 193.185858 214.74279 
L 194.465758 214.964993 
L 195.745658 215.353848 
L 197.025557 214.687239 
L 199.585357 214.798341 
L 200.865257 213.96508 
L 202.145156 213.742877 
L 203.425056 212.742964 
L 204.704956 212.520761 
L 205.984856 212.742964 
L 207.264755 212.243008 
L 211.104455 212.798515 
L 212.384354 213.354022 
L 213.664254 213.409573 
L 216.224054 214.576138 
L 217.503954 214.853891 
L 218.783853 215.353848 
L 225.183352 216.353761 
L 227.743152 216.353761 
L 230.302951 216.575964 
L 231.582851 216.687065 
L 235.42255 216.631514 
L 237.98235 216.798166 
L 239.262249 216.575964 
L 240.542149 216.520413 
L 243.101949 216.853717 
L 246.941648 216.853717 
L 249.501447 217.187021 
L 250.781347 216.964819 
L 252.061247 216.964819 
L 255.900946 216.575964 
L 257.180846 216.631514 
L 259.740646 216.076007 
L 262.300445 216.187109 
L 263.580345 216.29821 
L 266.140144 216.187109 
L 273.819543 215.909355 
L 275.099443 215.5205 
L 277.659242 215.5205 
L 278.939142 215.409399 
L 280.219042 214.798341 
L 285.338641 214.631688 
L 287.89844 214.798341 
L 289.17834 215.464949 
L 291.738139 215.5205 
L 294.297939 215.964906 
L 295.577839 216.020456 
L 296.857739 215.5205 
L 298.137638 215.353848 
L 299.417538 214.964993 
L 300.697438 214.909442 
L 301.977338 214.576138 
L 305.817037 211.354196 
L 307.096937 209.687675 
L 308.376836 209.187718 
L 309.656736 208.354458 
L 310.936636 206.076878 
L 312.216536 205.46582 
L 313.496435 205.354719 
L 314.776335 205.521371 
L 316.056235 206.132429 
L 317.336135 206.465733 
L 318.616034 205.799125 
L 319.895934 206.799038 
L 321.175834 207.354545 
L 325.015533 206.465733 
L 326.295433 205.41027 
L 327.575333 204.68811 
L 328.855232 204.188154 
L 330.135132 202.577183 
L 332.694932 201.466169 
L 333.974831 200.910662 
L 335.254731 200.910662 
L 336.534631 200.466256 
L 337.814531 198.244227 
L 339.094431 197.133213 
L 340.37433 195.022286 
L 341.65423 195.30004 
L 342.93413 192.355852 
L 344.21403 191.355939 
L 345.493929 190.967084 
L 349.333629 186.911882 
L 350.613528 182.578926 
L 351.893428 181.967868 
L 353.173328 179.856941 
L 354.453228 178.579274 
L 355.733127 176.801651 
L 357.013027 176.301695 
L 358.292927 174.857376 
L 359.572827 175.412883 
L 362.132626 173.968565 
L 363.412526 172.190942 
L 364.692426 170.191116 
L 367.252225 164.913798 
L 368.532125 163.080625 
L 369.812025 160.747495 
L 371.091924 159.63648 
L 372.371824 159.303176 
L 373.651724 157.747756 
L 374.931624 154.97022 
L 376.211524 153.137047 
L 377.491423 151.637177 
L 380.051223 147.082019 
L 381.331123 145.526599 
L 382.611022 140.860339 
L 386.450722 131.083413 
L 387.730621 125.361689 
L 389.010521 121.861994 
L 390.290421 115.473662 
L 391.570321 111.029604 
L 392.85022 109.807489 
L 394.13012 108.807576 
L 395.41002 108.252069 
L 396.68992 112.585024 
L 397.969819 115.473662 
L 399.249719 122.028646 
L 400.529619 126.917109 
L 401.809519 129.805746 
L 403.089418 138.360556 
L 404.369318 151.137221 
L 404.369318 151.137221 
" style="fill:none;stroke:#2ca02c;stroke-linecap:square;stroke-width:1.5;"/>
   </g>
   <g id="line2d_22">
    <path clip-path="url(#p1569d6faf6)" d="M 83.114479 216.774953 
L 84.394379 217.14764 
L 85.674278 216.774953 
L 86.954178 216.774953 
L 88.234078 216.625879 
L 89.513978 216.650725 
L 92.073777 216.56199 
L 94.633577 216.455508 
L 98.473276 214.432354 
L 99.753176 213.367537 
L 101.033076 212.728646 
L 102.312975 211.663829 
L 103.592875 211.344383 
L 104.872775 211.344383 
L 106.152675 210.386047 
L 107.432574 206.978631 
L 108.712474 205.594368 
L 112.552173 200.483243 
L 113.832073 198.247126 
L 115.111973 196.756381 
L 116.391873 197.28879 
L 117.671772 196.117491 
L 118.951672 196.011009 
L 121.511472 193.029519 
L 122.791371 192.710074 
L 124.071271 192.071184 
L 125.351171 193.136001 
L 126.631071 192.071184 
L 127.91097 190.473957 
L 129.19087 189.196176 
L 130.47077 189.409139 
L 131.75067 189.409139 
L 133.030569 189.622103 
L 134.310469 187.918395 
L 135.590369 189.622103 
L 136.870269 188.876731 
L 138.150169 192.177665 
L 139.430068 194.200819 
L 140.709968 194.200819 
L 143.269768 196.330454 
L 144.549667 194.413782 
L 145.829567 196.436936 
L 147.109467 197.075827 
L 148.389367 197.182308 
L 149.669266 198.779535 
L 150.949166 199.844353 
L 152.229066 199.737871 
L 153.508966 202.08047 
L 154.788865 203.358251 
L 156.068765 203.784178 
L 157.348665 203.784178 
L 158.628565 201.335097 
L 159.908464 200.376761 
L 161.188364 202.506397 
L 162.468264 204.210105 
L 163.748164 204.955477 
L 165.028063 205.168441 
L 166.307963 206.233258 
L 167.587863 209.534193 
L 168.867763 211.450865 
L 170.147662 212.089756 
L 171.427562 211.983274 
L 172.707462 212.302719 
L 173.987362 213.154573 
L 176.547161 212.622164 
L 177.827061 212.835128 
L 179.106961 211.024938 
L 180.386861 211.13142 
L 181.66676 210.918456 
L 182.94666 209.747157 
L 184.22656 210.173084 
L 185.50646 210.279566 
L 186.786359 210.173084 
L 188.066259 212.409201 
L 189.346159 212.94161 
L 190.626059 213.686982 
L 191.905958 214.112909 
L 193.185858 214.112909 
L 194.465758 214.858282 
L 195.745658 214.7518 
L 197.025557 214.219391 
L 198.305457 214.7518 
L 199.585357 214.432354 
L 200.865257 214.858282 
L 203.425056 214.7518 
L 204.704956 215.284209 
L 205.984856 215.497172 
L 207.264755 215.39069 
L 208.544655 215.497172 
L 209.824555 215.816617 
L 211.104455 216.349026 
L 213.664254 216.242544 
L 214.944154 216.668472 
L 220.063753 216.56199 
L 222.623553 216.455508 
L 223.903452 216.56199 
L 225.183352 216.455508 
L 226.463252 216.56199 
L 227.743152 216.349026 
L 231.582851 216.56199 
L 235.42255 216.668472 
L 237.98235 216.881435 
L 239.262249 217.20088 
L 240.542149 217.307362 
L 245.661748 216.987917 
L 246.941648 216.987917 
L 249.501447 216.668472 
L 252.061247 216.668472 
L 253.341147 216.881435 
L 255.900946 216.881435 
L 257.180846 217.094399 
L 259.740646 217.20088 
L 262.300445 217.307362 
L 263.580345 217.307362 
L 266.140144 216.881435 
L 267.420044 216.987917 
L 269.979844 216.881435 
L 275.099443 216.987917 
L 276.379342 216.455508 
L 277.659242 215.710136 
L 278.939142 215.497172 
L 282.778841 215.39069 
L 284.058741 215.177727 
L 285.338641 215.603654 
L 286.61854 215.603654 
L 287.89844 215.177727 
L 289.17834 214.538836 
L 290.45824 213.474019 
L 291.738139 213.474019 
L 293.018039 213.793464 
L 294.297939 213.5805 
L 298.137638 214.7518 
L 299.417538 214.858282 
L 300.697438 214.432354 
L 301.977338 213.793464 
L 303.257237 212.302719 
L 307.096937 210.066602 
L 308.376836 210.386047 
L 310.936636 209.640675 
L 312.216536 210.279566 
L 313.496435 210.066602 
L 316.056235 208.362894 
L 317.336135 208.256412 
L 318.616034 207.724003 
L 321.175834 205.274923 
L 322.455734 202.08047 
L 323.735633 199.844353 
L 325.015533 196.330454 
L 326.295433 193.348965 
L 327.575333 188.450804 
L 328.855232 182.80727 
L 330.135132 177.802627 
L 331.415032 171.94613 
L 332.694932 168.219268 
L 333.974831 165.876669 
L 335.254731 161.510917 
L 336.534631 161.617398 
L 337.814531 161.08499 
L 339.094431 162.682216 
L 340.37433 165.663706 
L 341.65423 165.876669 
L 342.93413 164.598888 
L 344.21403 166.941487 
L 345.493929 164.918333 
L 346.773829 163.53407 
L 348.053729 158.742391 
L 349.333629 156.399792 
L 350.613528 155.65442 
L 351.893428 155.334974 
L 353.173328 156.612755 
L 354.453228 160.659063 
L 355.733127 162.043326 
L 357.013027 163.001661 
L 358.292927 161.830362 
L 359.572827 162.149807 
L 360.852726 164.385924 
L 362.132626 161.936844 
L 363.412526 160.978508 
L 364.692426 159.807208 
L 365.972325 161.191471 
L 367.252225 161.191471 
L 369.812025 157.784055 
L 371.091924 156.29331 
L 372.371824 154.057193 
L 373.651724 153.205339 
L 374.931624 150.86274 
L 376.211524 152.566448 
L 377.491423 151.395149 
L 378.771323 149.691441 
L 380.051223 151.288667 
L 381.331123 151.075704 
L 382.611022 148.626623 
L 385.170822 142.663644 
L 386.450722 141.81179 
L 387.730621 137.978446 
L 389.010521 132.334913 
L 390.290421 128.501569 
L 391.570321 123.70989 
L 392.85022 120.08951 
L 394.13012 114.871903 
L 395.41002 112.316341 
L 396.68992 114.552458 
L 397.969819 117.320984 
L 399.249719 117.853393 
L 400.529619 120.515437 
L 401.809519 120.941364 
L 403.089418 126.691379 
L 404.369318 140.746972 
L 404.369318 140.746972 
" style="fill:none;stroke:#d62728;stroke-linecap:square;stroke-width:1.5;"/>
   </g>
   <g id="line2d_23">
    <path clip-path="url(#p1569d6faf6)" d="M 67.755682 216.778581 
L 69.035582 217.149453 
L 71.595381 217.33489 
L 75.43508 217.414362 
L 77.99488 217.308399 
L 80.554679 217.202435 
L 84.394379 216.778581 
L 85.674278 216.990508 
L 86.954178 216.778581 
L 93.353677 216.672618 
L 95.913476 215.612983 
L 97.193376 214.553348 
L 98.473276 213.917566 
L 99.753176 212.857931 
L 101.033076 211.480406 
L 102.312975 210.420771 
L 103.592875 208.619391 
L 104.872775 207.453793 
L 106.152675 206.818012 
L 107.432574 205.546449 
L 108.712474 201.307909 
L 111.272274 195.162026 
L 112.552173 192.936792 
L 113.832073 189.86385 
L 116.391873 183.082186 
L 117.671772 184.247785 
L 118.951672 185.731274 
L 120.231572 186.473018 
L 121.511472 188.168434 
L 122.791371 189.439996 
L 124.071271 189.757887 
L 126.631071 191.771194 
L 127.91097 191.771194 
L 129.19087 190.711558 
L 130.47077 189.122106 
L 131.75067 190.499631 
L 133.030569 192.089084 
L 134.310469 191.453303 
L 135.590369 190.499631 
L 136.870269 190.923485 
L 139.430068 196.221661 
L 140.709968 196.539551 
L 141.989868 197.281296 
L 144.549667 202.367544 
L 145.829567 201.413873 
L 148.389367 200.248274 
L 150.949166 197.811113 
L 152.229066 197.917077 
L 153.508966 195.797807 
L 154.788865 196.433588 
L 156.068765 197.387259 
L 158.628565 197.387259 
L 159.908464 198.658821 
L 161.188364 196.221661 
L 162.468264 198.02304 
L 163.748164 199.294603 
L 165.028063 198.658821 
L 166.307963 199.400566 
L 167.587863 200.566165 
L 168.867763 200.672128 
L 170.147662 203.639106 
L 172.707462 204.06296 
L 173.987362 205.758376 
L 175.267261 205.228559 
L 177.827061 206.076267 
L 179.106961 205.758376 
L 180.386861 206.076267 
L 181.66676 206.076267 
L 182.94666 206.500121 
L 184.22656 207.98361 
L 185.50646 207.98361 
L 186.786359 208.937282 
L 188.066259 209.467099 
L 189.346159 209.573063 
L 190.626059 210.738661 
L 191.905958 210.420771 
L 193.185858 210.844625 
L 195.745658 212.434077 
L 197.025557 212.646004 
L 198.305457 213.069858 
L 199.585357 212.434077 
L 200.865257 212.646004 
L 202.145156 212.434077 
L 203.425056 211.586369 
L 204.704956 210.10288 
L 205.984856 210.10288 
L 207.264755 210.420771 
L 208.544655 211.056552 
L 209.824555 210.950588 
L 211.104455 211.056552 
L 212.384354 212.434077 
L 213.664254 213.069858 
L 214.944154 213.493712 
L 216.224054 213.493712 
L 220.063753 214.553348 
L 221.343653 214.553348 
L 222.623553 215.507019 
L 225.183352 216.778581 
L 226.463252 216.566654 
L 227.743152 216.566654 
L 229.023051 216.354727 
L 230.302951 215.82491 
L 231.582851 216.036837 
L 234.14265 215.612983 
L 235.42255 215.82491 
L 236.70245 215.82491 
L 237.98235 216.036837 
L 239.262249 216.672618 
L 240.542149 216.460691 
L 244.381848 216.990508 
L 245.661748 216.672618 
L 246.941648 216.672618 
L 248.221548 216.248764 
L 250.781347 216.1428 
L 253.341147 215.82491 
L 254.621046 216.1428 
L 255.900946 216.1428 
L 257.180846 216.566654 
L 258.460746 216.672618 
L 259.740646 216.1428 
L 261.020545 215.930873 
L 262.300445 215.930873 
L 263.580345 215.612983 
L 267.420044 215.612983 
L 268.699944 216.1428 
L 269.979844 216.354727 
L 271.259743 215.82491 
L 272.539643 216.248764 
L 275.099443 216.1428 
L 276.379342 215.718946 
L 277.659242 215.930873 
L 278.939142 215.718946 
L 280.219042 216.248764 
L 284.058741 215.718946 
L 285.338641 216.036837 
L 286.61854 215.401056 
L 287.89844 215.401056 
L 291.738139 214.235457 
L 294.297939 211.268479 
L 295.577839 210.526734 
L 296.857739 209.361136 
L 298.137638 207.241866 
L 299.417538 207.241866 
L 300.697438 207.029939 
L 301.977338 206.288194 
L 303.257237 205.228559 
L 304.537137 202.897362 
L 305.817037 200.990019 
L 307.096937 198.870748 
L 308.376836 197.175332 
L 309.656736 194.632208 
L 310.936636 192.618902 
L 312.216536 189.334033 
L 314.776335 183.823931 
L 316.056235 183.717967 
L 317.336135 181.068879 
L 318.616034 181.174843 
L 321.175834 177.360157 
L 322.455734 175.876668 
L 323.735633 172.485835 
L 325.015533 169.836748 
L 326.295433 168.353259 
L 327.575333 164.220682 
L 328.855232 160.82985 
L 330.135132 159.240397 
L 331.415032 155.531674 
L 332.694932 155.955528 
L 333.974831 152.67066 
L 335.254731 152.246806 
L 336.534631 152.140842 
L 337.814531 150.233499 
L 339.094431 148.961937 
L 340.37433 146.418813 
L 341.65423 145.571105 
L 342.93413 145.359178 
L 344.21403 140.59082 
L 345.493929 137.941732 
L 346.773829 132.007776 
L 348.053729 125.438038 
L 349.333629 124.484367 
L 350.613528 116.11325 
L 351.893428 113.146272 
L 353.173328 115.477469 
L 354.453228 114.523797 
L 355.733127 116.11325 
L 357.013027 118.55041 
L 358.292927 120.66968 
L 359.572827 125.014184 
L 360.852726 127.875199 
L 362.132626 125.544002 
L 363.412526 126.39171 
L 364.692426 118.444447 
L 365.972325 117.914629 
L 367.252225 113.99398 
L 368.532125 112.51049 
L 369.812025 113.782053 
L 371.091924 114.523797 
L 372.371824 118.23252 
L 373.651724 123.742622 
L 376.211524 128.087126 
L 377.491423 133.915119 
L 378.771323 132.43163 
L 380.051223 136.564207 
L 381.331123 135.292644 
L 382.611022 136.35228 
L 385.170822 143.981652 
L 387.730621 144.51147 
L 389.010521 144.51147 
L 390.290421 144.087615 
L 391.570321 150.86928 
L 392.85022 150.551389 
L 394.13012 152.882587 
L 395.41002 153.094514 
L 396.68992 154.683966 
L 397.969819 156.9092 
L 399.249719 158.180762 
L 400.529619 161.889485 
L 401.809519 165.174353 
L 403.089418 168.777113 
L 404.369318 177.572084 
L 404.369318 177.572084 
" style="fill:none;stroke:#9467bd;stroke-linecap:square;stroke-width:1.5;"/>
   </g>
   <g id="line2d_24"/>
   <g id="line2d_25"/>
   <g id="line2d_26"/>
   <g id="line2d_27"/>
   <g id="line2d_28"/>
   <g id="patch_3">
    <path d="M 50.925 226.602246 
L 50.925 26.8 
" style="fill:none;stroke:#000000;stroke-linecap:square;stroke-linejoin:miter;stroke-width:0.8;"/>
   </g>
   <g id="patch_4">
    <path d="M 421.2 226.602246 
L 421.2 26.8 
" style="fill:none;stroke:#000000;stroke-linecap:square;stroke-linejoin:miter;stroke-width:0.8;"/>
   </g>
   <g id="patch_5">
    <path d="M 50.925 226.602246 
L 421.2 226.602246 
" style="fill:none;stroke:#000000;stroke-linecap:square;stroke-linejoin:miter;stroke-width:0.8;"/>
   </g>
   <g id="patch_6">
    <path d="M 50.925 26.8 
L 421.2 26.8 
" style="fill:none;stroke:#000000;stroke-linecap:square;stroke-linejoin:miter;stroke-width:0.8;"/>
   </g>
   <g id="text_21">
    <!-- New cases per million people by UTLA (7 day rolling) -->
    <g transform="translate(77.450625 20.8)scale(0.12 -0.12)">
     <defs>
      <path d="M 48.6875 27.296875 
Q 48.6875 37.203125 44.609375 42.84375 
Q 40.53125 48.484375 33.40625 48.484375 
Q 26.265625 48.484375 22.1875 42.84375 
Q 18.109375 37.203125 18.109375 27.296875 
Q 18.109375 17.390625 22.1875 11.75 
Q 26.265625 6.109375 33.40625 6.109375 
Q 40.53125 6.109375 44.609375 11.75 
Q 48.6875 17.390625 48.6875 27.296875 
z
M 18.109375 46.390625 
Q 20.953125 51.265625 25.265625 53.625 
Q 29.59375 56 35.59375 56 
Q 45.5625 56 51.78125 48.09375 
Q 58.015625 40.1875 58.015625 27.296875 
Q 58.015625 14.40625 51.78125 6.484375 
Q 45.5625 -1.421875 35.59375 -1.421875 
Q 29.59375 -1.421875 25.265625 0.953125 
Q 20.953125 3.328125 18.109375 8.203125 
L 18.109375 0 
L 9.078125 0 
L 9.078125 75.984375 
L 18.109375 75.984375 
z
" id="DejaVuSans-98"/>
      <path d="M 32.171875 -5.078125 
Q 28.375 -14.84375 24.75 -17.8125 
Q 21.140625 -20.796875 15.09375 -20.796875 
L 7.90625 -20.796875 
L 7.90625 -13.28125 
L 13.1875 -13.28125 
Q 16.890625 -13.28125 18.9375 -11.515625 
Q 21 -9.765625 23.484375 -3.21875 
L 25.09375 0.875 
L 2.984375 54.6875 
L 12.5 54.6875 
L 29.59375 11.921875 
L 46.6875 54.6875 
L 56.203125 54.6875 
z
" id="DejaVuSans-121"/>
      <path d="M 8.6875 72.90625 
L 18.609375 72.90625 
L 18.609375 28.609375 
Q 18.609375 16.890625 22.84375 11.734375 
Q 27.09375 6.59375 36.625 6.59375 
Q 46.09375 6.59375 50.34375 11.734375 
Q 54.59375 16.890625 54.59375 28.609375 
L 54.59375 72.90625 
L 64.5 72.90625 
L 64.5 27.390625 
Q 64.5 13.140625 57.4375 5.859375 
Q 50.390625 -1.421875 36.625 -1.421875 
Q 22.796875 -1.421875 15.734375 5.859375 
Q 8.6875 13.140625 8.6875 27.390625 
z
" id="DejaVuSans-85"/>
      <path d="M -0.296875 72.90625 
L 61.375 72.90625 
L 61.375 64.59375 
L 35.5 64.59375 
L 35.5 0 
L 25.59375 0 
L 25.59375 64.59375 
L -0.296875 64.59375 
z
" id="DejaVuSans-84"/>
      <path d="M 9.8125 72.90625 
L 19.671875 72.90625 
L 19.671875 8.296875 
L 55.171875 8.296875 
L 55.171875 0 
L 9.8125 0 
z
" id="DejaVuSans-76"/>
      <path d="M 34.1875 63.1875 
L 20.796875 26.90625 
L 47.609375 26.90625 
z
M 28.609375 72.90625 
L 39.796875 72.90625 
L 67.578125 0 
L 57.328125 0 
L 50.6875 18.703125 
L 17.828125 18.703125 
L 11.1875 0 
L 0.78125 0 
z
" id="DejaVuSans-65"/>
      <path d="M 31 75.875 
Q 24.46875 64.65625 21.28125 53.65625 
Q 18.109375 42.671875 18.109375 31.390625 
Q 18.109375 20.125 21.3125 9.0625 
Q 24.515625 -2 31 -13.1875 
L 23.1875 -13.1875 
Q 15.875 -1.703125 12.234375 9.375 
Q 8.59375 20.453125 8.59375 31.390625 
Q 8.59375 42.28125 12.203125 53.3125 
Q 15.828125 64.359375 23.1875 75.875 
z
" id="DejaVuSans-40"/>
      <path d="M 45.40625 46.390625 
L 45.40625 75.984375 
L 54.390625 75.984375 
L 54.390625 0 
L 45.40625 0 
L 45.40625 8.203125 
Q 42.578125 3.328125 38.25 0.953125 
Q 33.9375 -1.421875 27.875 -1.421875 
Q 17.96875 -1.421875 11.734375 6.484375 
Q 5.515625 14.40625 5.515625 27.296875 
Q 5.515625 40.1875 11.734375 48.09375 
Q 17.96875 56 27.875 56 
Q 33.9375 56 38.25 53.625 
Q 42.578125 51.265625 45.40625 46.390625 
z
M 14.796875 27.296875 
Q 14.796875 17.390625 18.875 11.75 
Q 22.953125 6.109375 30.078125 6.109375 
Q 37.203125 6.109375 41.296875 11.75 
Q 45.40625 17.390625 45.40625 27.296875 
Q 45.40625 37.203125 41.296875 42.84375 
Q 37.203125 48.484375 30.078125 48.484375 
Q 22.953125 48.484375 18.875 42.84375 
Q 14.796875 37.203125 14.796875 27.296875 
z
" id="DejaVuSans-100"/>
      <path d="M 45.40625 27.984375 
Q 45.40625 37.75 41.375 43.109375 
Q 37.359375 48.484375 30.078125 48.484375 
Q 22.859375 48.484375 18.828125 43.109375 
Q 14.796875 37.75 14.796875 27.984375 
Q 14.796875 18.265625 18.828125 12.890625 
Q 22.859375 7.515625 30.078125 7.515625 
Q 37.359375 7.515625 41.375 12.890625 
Q 45.40625 18.265625 45.40625 27.984375 
z
M 54.390625 6.78125 
Q 54.390625 -7.171875 48.1875 -13.984375 
Q 42 -20.796875 29.203125 -20.796875 
Q 24.46875 -20.796875 20.265625 -20.09375 
Q 16.0625 -19.390625 12.109375 -17.921875 
L 12.109375 -9.1875 
Q 16.0625 -11.328125 19.921875 -12.34375 
Q 23.78125 -13.375 27.78125 -13.375 
Q 36.625 -13.375 41.015625 -8.765625 
Q 45.40625 -4.15625 45.40625 5.171875 
L 45.40625 9.625 
Q 42.625 4.78125 38.28125 2.390625 
Q 33.9375 0 27.875 0 
Q 17.828125 0 11.671875 7.65625 
Q 5.515625 15.328125 5.515625 27.984375 
Q 5.515625 40.671875 11.671875 48.328125 
Q 17.828125 56 27.875 56 
Q 33.9375 56 38.28125 53.609375 
Q 42.625 51.21875 45.40625 46.390625 
L 45.40625 54.6875 
L 54.390625 54.6875 
z
" id="DejaVuSans-103"/>
      <path d="M 8.015625 75.875 
L 15.828125 75.875 
Q 23.140625 64.359375 26.78125 53.3125 
Q 30.421875 42.28125 30.421875 31.390625 
Q 30.421875 20.453125 26.78125 9.375 
Q 23.140625 -1.703125 15.828125 -13.1875 
L 8.015625 -13.1875 
Q 14.5 -2 17.703125 9.0625 
Q 20.90625 20.125 20.90625 31.390625 
Q 20.90625 42.671875 17.703125 53.65625 
Q 14.5 64.65625 8.015625 75.875 
z
" id="DejaVuSans-41"/>
     </defs>
     <use xlink:href="#DejaVuSans-78"/>
     <use x="74.804688" xlink:href="#DejaVuSans-101"/>
     <use x="136.328125" xlink:href="#DejaVuSans-119"/>
     <use x="218.115234" xlink:href="#DejaVuSans-32"/>
     <use x="249.902344" xlink:href="#DejaVuSans-99"/>
     <use x="304.882812" xlink:href="#DejaVuSans-97"/>
     <use x="366.162109" xlink:href="#DejaVuSans-115"/>
     <use x="418.261719" xlink:href="#DejaVuSans-101"/>
     <use x="479.785156" xlink:href="#DejaVuSans-115"/>
     <use x="531.884766" xlink:href="#DejaVuSans-32"/>
     <use x="563.671875" xlink:href="#DejaVuSans-112"/>
     <use x="627.148438" xlink:href="#DejaVuSans-101"/>
     <use x="688.671875" xlink:href="#DejaVuSans-114"/>
     <use x="729.785156" xlink:href="#DejaVuSans-32"/>
     <use x="761.572266" xlink:href="#DejaVuSans-109"/>
     <use x="858.984375" xlink:href="#DejaVuSans-105"/>
     <use x="886.767578" xlink:href="#DejaVuSans-108"/>
     <use x="914.550781" xlink:href="#DejaVuSans-108"/>
     <use x="942.333984" xlink:href="#DejaVuSans-105"/>
     <use x="970.117188" xlink:href="#DejaVuSans-111"/>
     <use x="1031.298828" xlink:href="#DejaVuSans-110"/>
     <use x="1094.677734" xlink:href="#DejaVuSans-32"/>
     <use x="1126.464844" xlink:href="#DejaVuSans-112"/>
     <use x="1189.941406" xlink:href="#DejaVuSans-101"/>
     <use x="1251.464844" xlink:href="#DejaVuSans-111"/>
     <use x="1312.646484" xlink:href="#DejaVuSans-112"/>
     <use x="1376.123047" xlink:href="#DejaVuSans-108"/>
     <use x="1403.90625" xlink:href="#DejaVuSans-101"/>
     <use x="1465.429688" xlink:href="#DejaVuSans-32"/>
     <use x="1497.216797" xlink:href="#DejaVuSans-98"/>
     <use x="1560.693359" xlink:href="#DejaVuSans-121"/>
     <use x="1619.873047" xlink:href="#DejaVuSans-32"/>
     <use x="1651.660156" xlink:href="#DejaVuSans-85"/>
     <use x="1724.853516" xlink:href="#DejaVuSans-84"/>
     <use x="1785.9375" xlink:href="#DejaVuSans-76"/>
     <use x="1843.900391" xlink:href="#DejaVuSans-65"/>
     <use x="1912.308594" xlink:href="#DejaVuSans-32"/>
     <use x="1944.095703" xlink:href="#DejaVuSans-40"/>
     <use x="1983.109375" xlink:href="#DejaVuSans-55"/>
     <use x="2046.732422" xlink:href="#DejaVuSans-32"/>
     <use x="2078.519531" xlink:href="#DejaVuSans-100"/>
     <use x="2141.996094" xlink:href="#DejaVuSans-97"/>
     <use x="2203.275391" xlink:href="#DejaVuSans-121"/>
     <use x="2262.455078" xlink:href="#DejaVuSans-32"/>
     <use x="2294.242188" xlink:href="#DejaVuSans-114"/>
     <use x="2333.105469" xlink:href="#DejaVuSans-111"/>
     <use x="2394.287109" xlink:href="#DejaVuSans-108"/>
     <use x="2422.070312" xlink:href="#DejaVuSans-108"/>
     <use x="2449.853516" xlink:href="#DejaVuSans-105"/>
     <use x="2477.636719" xlink:href="#DejaVuSans-110"/>
     <use x="2541.015625" xlink:href="#DejaVuSans-103"/>
     <use x="2604.492188" xlink:href="#DejaVuSans-41"/>
    </g>
   </g>
   <g id="legend_1">
    <g id="patch_7">
     <path d="M 57.925 122.86875 
L 225.560938 122.86875 
Q 227.560938 122.86875 227.560938 120.86875 
L 227.560938 33.8 
Q 227.560938 31.8 225.560938 31.8 
L 57.925 31.8 
Q 55.925 31.8 55.925 33.8 
L 55.925 120.86875 
Q 55.925 122.86875 57.925 122.86875 
z
" style="fill:#ffffff;opacity:0.8;stroke:#cccccc;stroke-linejoin:miter;"/>
    </g>
    <g id="text_22">
     <!-- Upper-tier local authority -->
     <g transform="translate(79.022656 43.398437)scale(0.1 -0.1)">
      <defs>
       <path d="M 54.890625 33.015625 
L 54.890625 0 
L 45.90625 0 
L 45.90625 32.71875 
Q 45.90625 40.484375 42.875 44.328125 
Q 39.84375 48.1875 33.796875 48.1875 
Q 26.515625 48.1875 22.3125 43.546875 
Q 18.109375 38.921875 18.109375 30.90625 
L 18.109375 0 
L 9.078125 0 
L 9.078125 75.984375 
L 18.109375 75.984375 
L 18.109375 46.1875 
Q 21.34375 51.125 25.703125 53.5625 
Q 30.078125 56 35.796875 56 
Q 45.21875 56 50.046875 50.171875 
Q 54.890625 44.34375 54.890625 33.015625 
z
" id="DejaVuSans-104"/>
      </defs>
      <use xlink:href="#DejaVuSans-85"/>
      <use x="73.193359" xlink:href="#DejaVuSans-112"/>
      <use x="136.669922" xlink:href="#DejaVuSans-112"/>
      <use x="200.146484" xlink:href="#DejaVuSans-101"/>
      <use x="261.669922" xlink:href="#DejaVuSans-114"/>
      <use x="296.408203" xlink:href="#DejaVuSans-45"/>
      <use x="332.492188" xlink:href="#DejaVuSans-116"/>
      <use x="371.701172" xlink:href="#DejaVuSans-105"/>
      <use x="399.484375" xlink:href="#DejaVuSans-101"/>
      <use x="461.007812" xlink:href="#DejaVuSans-114"/>
      <use x="502.121094" xlink:href="#DejaVuSans-32"/>
      <use x="533.908203" xlink:href="#DejaVuSans-108"/>
      <use x="561.691406" xlink:href="#DejaVuSans-111"/>
      <use x="622.873047" xlink:href="#DejaVuSans-99"/>
      <use x="677.853516" xlink:href="#DejaVuSans-97"/>
      <use x="739.132812" xlink:href="#DejaVuSans-108"/>
      <use x="766.916016" xlink:href="#DejaVuSans-32"/>
      <use x="798.703125" xlink:href="#DejaVuSans-97"/>
      <use x="859.982422" xlink:href="#DejaVuSans-117"/>
      <use x="923.361328" xlink:href="#DejaVuSans-116"/>
      <use x="962.570312" xlink:href="#DejaVuSans-104"/>
      <use x="1025.949219" xlink:href="#DejaVuSans-111"/>
      <use x="1087.130859" xlink:href="#DejaVuSans-114"/>
      <use x="1128.244141" xlink:href="#DejaVuSans-105"/>
      <use x="1156.027344" xlink:href="#DejaVuSans-116"/>
      <use x="1195.236328" xlink:href="#DejaVuSans-121"/>
     </g>
    </g>
    <g id="line2d_29">
     <path d="M 59.925 54.576562 
L 79.925 54.576562 
" style="fill:none;stroke:#1f77b4;stroke-linecap:square;stroke-width:1.5;"/>
    </g>
    <g id="line2d_30"/>
    <g id="text_23">
     <!-- Cheshire West and Chester -->
     <g transform="translate(87.925 58.076562)scale(0.1 -0.1)">
      <defs>
       <path d="M 64.40625 67.28125 
L 64.40625 56.890625 
Q 59.421875 61.53125 53.78125 63.8125 
Q 48.140625 66.109375 41.796875 66.109375 
Q 29.296875 66.109375 22.65625 58.46875 
Q 16.015625 50.828125 16.015625 36.375 
Q 16.015625 21.96875 22.65625 14.328125 
Q 29.296875 6.6875 41.796875 6.6875 
Q 48.140625 6.6875 53.78125 8.984375 
Q 59.421875 11.28125 64.40625 15.921875 
L 64.40625 5.609375 
Q 59.234375 2.09375 53.4375 0.328125 
Q 47.65625 -1.421875 41.21875 -1.421875 
Q 24.65625 -1.421875 15.125 8.703125 
Q 5.609375 18.84375 5.609375 36.375 
Q 5.609375 53.953125 15.125 64.078125 
Q 24.65625 74.21875 41.21875 74.21875 
Q 47.75 74.21875 53.53125 72.484375 
Q 59.328125 70.75 64.40625 67.28125 
z
" id="DejaVuSans-67"/>
       <path d="M 3.328125 72.90625 
L 13.28125 72.90625 
L 28.609375 11.28125 
L 43.890625 72.90625 
L 54.984375 72.90625 
L 70.3125 11.28125 
L 85.59375 72.90625 
L 95.609375 72.90625 
L 77.296875 0 
L 64.890625 0 
L 49.515625 63.28125 
L 33.984375 0 
L 21.578125 0 
z
" id="DejaVuSans-87"/>
      </defs>
      <use xlink:href="#DejaVuSans-67"/>
      <use x="69.824219" xlink:href="#DejaVuSans-104"/>
      <use x="133.203125" xlink:href="#DejaVuSans-101"/>
      <use x="194.726562" xlink:href="#DejaVuSans-115"/>
      <use x="246.826172" xlink:href="#DejaVuSans-104"/>
      <use x="310.205078" xlink:href="#DejaVuSans-105"/>
      <use x="337.988281" xlink:href="#DejaVuSans-114"/>
      <use x="376.851562" xlink:href="#DejaVuSans-101"/>
      <use x="438.375" xlink:href="#DejaVuSans-32"/>
      <use x="470.162109" xlink:href="#DejaVuSans-87"/>
      <use x="563.164062" xlink:href="#DejaVuSans-101"/>
      <use x="624.6875" xlink:href="#DejaVuSans-115"/>
      <use x="676.787109" xlink:href="#DejaVuSans-116"/>
      <use x="715.996094" xlink:href="#DejaVuSans-32"/>
      <use x="747.783203" xlink:href="#DejaVuSans-97"/>
      <use x="809.0625" xlink:href="#DejaVuSans-110"/>
      <use x="872.441406" xlink:href="#DejaVuSans-100"/>
      <use x="935.917969" xlink:href="#DejaVuSans-32"/>
      <use x="967.705078" xlink:href="#DejaVuSans-67"/>
      <use x="1037.529297" xlink:href="#DejaVuSans-104"/>
      <use x="1100.908203" xlink:href="#DejaVuSans-101"/>
      <use x="1162.431641" xlink:href="#DejaVuSans-115"/>
      <use x="1214.53125" xlink:href="#DejaVuSans-116"/>
      <use x="1253.740234" xlink:href="#DejaVuSans-101"/>
      <use x="1315.263672" xlink:href="#DejaVuSans-114"/>
     </g>
    </g>
    <g id="line2d_31">
     <path d="M 59.925 69.254687 
L 79.925 69.254687 
" style="fill:none;stroke:#ff7f0e;stroke-linecap:square;stroke-width:1.5;"/>
    </g>
    <g id="line2d_32"/>
    <g id="text_24">
     <!-- Leicester -->
     <g transform="translate(87.925 72.754687)scale(0.1 -0.1)">
      <use xlink:href="#DejaVuSans-76"/>
      <use x="53.962891" xlink:href="#DejaVuSans-101"/>
      <use x="115.486328" xlink:href="#DejaVuSans-105"/>
      <use x="143.269531" xlink:href="#DejaVuSans-99"/>
      <use x="198.25" xlink:href="#DejaVuSans-101"/>
      <use x="259.773438" xlink:href="#DejaVuSans-115"/>
      <use x="311.873047" xlink:href="#DejaVuSans-116"/>
      <use x="351.082031" xlink:href="#DejaVuSans-101"/>
      <use x="412.605469" xlink:href="#DejaVuSans-114"/>
     </g>
    </g>
    <g id="line2d_33">
     <path d="M 59.925 83.932812 
L 79.925 83.932812 
" style="fill:none;stroke:#2ca02c;stroke-linecap:square;stroke-width:1.5;"/>
    </g>
    <g id="line2d_34"/>
    <g id="text_25">
     <!-- North Yorkshire -->
     <g transform="translate(87.925 87.432812)scale(0.1 -0.1)">
      <defs>
       <path d="M -0.203125 72.90625 
L 10.40625 72.90625 
L 30.609375 42.921875 
L 50.6875 72.90625 
L 61.28125 72.90625 
L 35.5 34.71875 
L 35.5 0 
L 25.59375 0 
L 25.59375 34.71875 
z
" id="DejaVuSans-89"/>
       <path d="M 9.078125 75.984375 
L 18.109375 75.984375 
L 18.109375 31.109375 
L 44.921875 54.6875 
L 56.390625 54.6875 
L 27.390625 29.109375 
L 57.625 0 
L 45.90625 0 
L 18.109375 26.703125 
L 18.109375 0 
L 9.078125 0 
z
" id="DejaVuSans-107"/>
      </defs>
      <use xlink:href="#DejaVuSans-78"/>
      <use x="74.804688" xlink:href="#DejaVuSans-111"/>
      <use x="135.986328" xlink:href="#DejaVuSans-114"/>
      <use x="177.099609" xlink:href="#DejaVuSans-116"/>
      <use x="216.308594" xlink:href="#DejaVuSans-104"/>
      <use x="279.6875" xlink:href="#DejaVuSans-32"/>
      <use x="311.474609" xlink:href="#DejaVuSans-89"/>
      <use x="359.308594" xlink:href="#DejaVuSans-111"/>
      <use x="420.490234" xlink:href="#DejaVuSans-114"/>
      <use x="461.603516" xlink:href="#DejaVuSans-107"/>
      <use x="519.513672" xlink:href="#DejaVuSans-115"/>
      <use x="571.613281" xlink:href="#DejaVuSans-104"/>
      <use x="634.992188" xlink:href="#DejaVuSans-105"/>
      <use x="662.775391" xlink:href="#DejaVuSans-114"/>
      <use x="701.638672" xlink:href="#DejaVuSans-101"/>
     </g>
    </g>
    <g id="line2d_35">
     <path d="M 59.925 98.610937 
L 79.925 98.610937 
" style="fill:none;stroke:#d62728;stroke-linecap:square;stroke-width:1.5;"/>
    </g>
    <g id="line2d_36"/>
    <g id="text_26">
     <!-- Northumberland -->
     <g transform="translate(87.925 102.110937)scale(0.1 -0.1)">
      <use xlink:href="#DejaVuSans-78"/>
      <use x="74.804688" xlink:href="#DejaVuSans-111"/>
      <use x="135.986328" xlink:href="#DejaVuSans-114"/>
      <use x="177.099609" xlink:href="#DejaVuSans-116"/>
      <use x="216.308594" xlink:href="#DejaVuSans-104"/>
      <use x="279.6875" xlink:href="#DejaVuSans-117"/>
      <use x="343.066406" xlink:href="#DejaVuSans-109"/>
      <use x="440.478516" xlink:href="#DejaVuSans-98"/>
      <use x="503.955078" xlink:href="#DejaVuSans-101"/>
      <use x="565.478516" xlink:href="#DejaVuSans-114"/>
      <use x="606.591797" xlink:href="#DejaVuSans-108"/>
      <use x="634.375" xlink:href="#DejaVuSans-97"/>
      <use x="695.654297" xlink:href="#DejaVuSans-110"/>
      <use x="759.033203" xlink:href="#DejaVuSans-100"/>
     </g>
    </g>
    <g id="line2d_37">
     <path d="M 59.925 113.289062 
L 79.925 113.289062 
" style="fill:none;stroke:#9467bd;stroke-linecap:square;stroke-width:1.5;"/>
    </g>
    <g id="line2d_38"/>
    <g id="text_27">
     <!-- Wirral -->
     <g transform="translate(87.925 116.789062)scale(0.1 -0.1)">
      <use xlink:href="#DejaVuSans-87"/>
      <use x="96.626953" xlink:href="#DejaVuSans-105"/>
      <use x="124.410156" xlink:href="#DejaVuSans-114"/>
      <use x="163.773438" xlink:href="#DejaVuSans-114"/>
      <use x="204.886719" xlink:href="#DejaVuSans-97"/>
      <use x="266.166016" xlink:href="#DejaVuSans-108"/>
     </g>
    </g>
   </g>
  </g>
 </g>
 <defs>
  <clipPath id="p1569d6faf6">
   <rect height="199.802246" width="370.275" x="50.925" y="26.8"/>
  </clipPath>
 </defs>
</svg>
