<?xml version="1.0" encoding="utf-8" standalone="no"?>
<!DOCTYPE svg PUBLIC "-//W3C//DTD SVG 1.1//EN"
  "http://www.w3.org/Graphics/SVG/1.1/DTD/svg11.dtd">
<!-- Created with matplotlib (https://matplotlib.org/) -->
<svg height="288pt" version="1.1" viewBox="0 0 432 288" width="432pt" xmlns="http://www.w3.org/2000/svg" xmlns:xlink="http://www.w3.org/1999/xlink">
 <metadata>
  <rdf:RDF xmlns:cc="http://creativecommons.org/ns#" xmlns:dc="http://purl.org/dc/elements/1.1/" xmlns:rdf="http://www.w3.org/1999/02/22-rdf-syntax-ns#">
   <cc:Work>
    <dc:type rdf:resource="http://purl.org/dc/dcmitype/StillImage"/>
    <dc:date>2020-11-23T16:25:12.487336</dc:date>
    <dc:format>image/svg+xml</dc:format>
    <dc:creator>
     <cc:Agent>
      <dc:title>Matplotlib v3.3.2, https://matplotlib.org/</dc:title>
     </cc:Agent>
    </dc:creator>
   </cc:Work>
  </rdf:RDF>
 </metadata>
 <defs>
  <style type="text/css">*{stroke-linecap:butt;stroke-linejoin:round;}</style>
 </defs>
 <g id="figure_1">
  <g id="patch_1">
   <path d="M 0 288 
L 432 288 
L 432 0 
L 0 0 
z
" style="fill:none;"/>
  </g>
  <g id="axes_1">
   <g id="patch_2">
    <path d="M 50.925 226.602246 
L 421.2 226.602246 
L 421.2 26.8 
L 50.925 26.8 
z
" style="fill:#ffffff;"/>
   </g>
   <g id="matplotlib.axis_1">
    <g id="xtick_1">
     <g id="line2d_1">
      <defs>
       <path d="M 0 0 
L 0 3.5 
" id="mcca4a3ab06" style="stroke:#000000;stroke-width:0.8;"/>
      </defs>
      <g>
       <use style="stroke:#000000;stroke-width:0.8;" x="67.755682" xlink:href="#mcca4a3ab06" y="226.602246"/>
      </g>
     </g>
     <g id="text_1">
      <!-- 2020-03 -->
      <g transform="translate(30.530861 261.074092)rotate(-30)scale(0.1 -0.1)">
       <defs>
        <path d="M 19.1875 8.296875 
L 53.609375 8.296875 
L 53.609375 0 
L 7.328125 0 
L 7.328125 8.296875 
Q 12.9375 14.109375 22.625 23.890625 
Q 32.328125 33.6875 34.8125 36.53125 
Q 39.546875 41.84375 41.421875 45.53125 
Q 43.3125 49.21875 43.3125 52.78125 
Q 43.3125 58.59375 39.234375 62.25 
Q 35.15625 65.921875 28.609375 65.921875 
Q 23.96875 65.921875 18.8125 64.3125 
Q 13.671875 62.703125 7.8125 59.421875 
L 7.8125 69.390625 
Q 13.765625 71.78125 18.9375 73 
Q 24.125 74.21875 28.421875 74.21875 
Q 39.75 74.21875 46.484375 68.546875 
Q 53.21875 62.890625 53.21875 53.421875 
Q 53.21875 48.921875 51.53125 44.890625 
Q 49.859375 40.875 45.40625 35.40625 
Q 44.1875 33.984375 37.640625 27.21875 
Q 31.109375 20.453125 19.1875 8.296875 
z
" id="DejaVuSans-50"/>
        <path d="M 31.78125 66.40625 
Q 24.171875 66.40625 20.328125 58.90625 
Q 16.5 51.421875 16.5 36.375 
Q 16.5 21.390625 20.328125 13.890625 
Q 24.171875 6.390625 31.78125 6.390625 
Q 39.453125 6.390625 43.28125 13.890625 
Q 47.125 21.390625 47.125 36.375 
Q 47.125 51.421875 43.28125 58.90625 
Q 39.453125 66.40625 31.78125 66.40625 
z
M 31.78125 74.21875 
Q 44.046875 74.21875 50.515625 64.515625 
Q 56.984375 54.828125 56.984375 36.375 
Q 56.984375 17.96875 50.515625 8.265625 
Q 44.046875 -1.421875 31.78125 -1.421875 
Q 19.53125 -1.421875 13.0625 8.265625 
Q 6.59375 17.96875 6.59375 36.375 
Q 6.59375 54.828125 13.0625 64.515625 
Q 19.53125 74.21875 31.78125 74.21875 
z
" id="DejaVuSans-48"/>
        <path d="M 4.890625 31.390625 
L 31.203125 31.390625 
L 31.203125 23.390625 
L 4.890625 23.390625 
z
" id="DejaVuSans-45"/>
        <path d="M 40.578125 39.3125 
Q 47.65625 37.796875 51.625 33 
Q 55.609375 28.21875 55.609375 21.1875 
Q 55.609375 10.40625 48.1875 4.484375 
Q 40.765625 -1.421875 27.09375 -1.421875 
Q 22.515625 -1.421875 17.65625 -0.515625 
Q 12.796875 0.390625 7.625 2.203125 
L 7.625 11.71875 
Q 11.71875 9.328125 16.59375 8.109375 
Q 21.484375 6.890625 26.8125 6.890625 
Q 36.078125 6.890625 40.9375 10.546875 
Q 45.796875 14.203125 45.796875 21.1875 
Q 45.796875 27.640625 41.28125 31.265625 
Q 36.765625 34.90625 28.71875 34.90625 
L 20.21875 34.90625 
L 20.21875 43.015625 
L 29.109375 43.015625 
Q 36.375 43.015625 40.234375 45.921875 
Q 44.09375 48.828125 44.09375 54.296875 
Q 44.09375 59.90625 40.109375 62.90625 
Q 36.140625 65.921875 28.71875 65.921875 
Q 24.65625 65.921875 20.015625 65.03125 
Q 15.375 64.15625 9.8125 62.3125 
L 9.8125 71.09375 
Q 15.4375 72.65625 20.34375 73.4375 
Q 25.25 74.21875 29.59375 74.21875 
Q 40.828125 74.21875 47.359375 69.109375 
Q 53.90625 64.015625 53.90625 55.328125 
Q 53.90625 49.265625 50.4375 45.09375 
Q 46.96875 40.921875 40.578125 39.3125 
z
" id="DejaVuSans-51"/>
       </defs>
       <use xlink:href="#DejaVuSans-50"/>
       <use x="63.623047" xlink:href="#DejaVuSans-48"/>
       <use x="127.246094" xlink:href="#DejaVuSans-50"/>
       <use x="190.869141" xlink:href="#DejaVuSans-48"/>
       <use x="254.492188" xlink:href="#DejaVuSans-45"/>
       <use x="290.576172" xlink:href="#DejaVuSans-48"/>
       <use x="354.199219" xlink:href="#DejaVuSans-51"/>
      </g>
     </g>
    </g>
    <g id="xtick_2">
     <g id="line2d_2">
      <g>
       <use style="stroke:#000000;stroke-width:0.8;" x="107.133126" xlink:href="#mcca4a3ab06" y="226.602246"/>
      </g>
     </g>
     <g id="text_2">
      <!-- 2020-04 -->
      <g transform="translate(69.908305 261.074092)rotate(-30)scale(0.1 -0.1)">
       <defs>
        <path d="M 37.796875 64.3125 
L 12.890625 25.390625 
L 37.796875 25.390625 
z
M 35.203125 72.90625 
L 47.609375 72.90625 
L 47.609375 25.390625 
L 58.015625 25.390625 
L 58.015625 17.1875 
L 47.609375 17.1875 
L 47.609375 0 
L 37.796875 0 
L 37.796875 17.1875 
L 4.890625 17.1875 
L 4.890625 26.703125 
z
" id="DejaVuSans-52"/>
       </defs>
       <use xlink:href="#DejaVuSans-50"/>
       <use x="63.623047" xlink:href="#DejaVuSans-48"/>
       <use x="127.246094" xlink:href="#DejaVuSans-50"/>
       <use x="190.869141" xlink:href="#DejaVuSans-48"/>
       <use x="254.492188" xlink:href="#DejaVuSans-45"/>
       <use x="290.576172" xlink:href="#DejaVuSans-48"/>
       <use x="354.199219" xlink:href="#DejaVuSans-52"/>
      </g>
     </g>
    </g>
    <g id="xtick_3">
     <g id="line2d_3">
      <g>
       <use style="stroke:#000000;stroke-width:0.8;" x="145.24033" xlink:href="#mcca4a3ab06" y="226.602246"/>
      </g>
     </g>
     <g id="text_3">
      <!-- 2020-05 -->
      <g transform="translate(108.015509 261.074092)rotate(-30)scale(0.1 -0.1)">
       <defs>
        <path d="M 10.796875 72.90625 
L 49.515625 72.90625 
L 49.515625 64.59375 
L 19.828125 64.59375 
L 19.828125 46.734375 
Q 21.96875 47.46875 24.109375 47.828125 
Q 26.265625 48.1875 28.421875 48.1875 
Q 40.625 48.1875 47.75 41.5 
Q 54.890625 34.8125 54.890625 23.390625 
Q 54.890625 11.625 47.5625 5.09375 
Q 40.234375 -1.421875 26.90625 -1.421875 
Q 22.3125 -1.421875 17.546875 -0.640625 
Q 12.796875 0.140625 7.71875 1.703125 
L 7.71875 11.625 
Q 12.109375 9.234375 16.796875 8.0625 
Q 21.484375 6.890625 26.703125 6.890625 
Q 35.15625 6.890625 40.078125 11.328125 
Q 45.015625 15.765625 45.015625 23.390625 
Q 45.015625 31 40.078125 35.4375 
Q 35.15625 39.890625 26.703125 39.890625 
Q 22.75 39.890625 18.8125 39.015625 
Q 14.890625 38.140625 10.796875 36.28125 
z
" id="DejaVuSans-53"/>
       </defs>
       <use xlink:href="#DejaVuSans-50"/>
       <use x="63.623047" xlink:href="#DejaVuSans-48"/>
       <use x="127.246094" xlink:href="#DejaVuSans-50"/>
       <use x="190.869141" xlink:href="#DejaVuSans-48"/>
       <use x="254.492188" xlink:href="#DejaVuSans-45"/>
       <use x="290.576172" xlink:href="#DejaVuSans-48"/>
       <use x="354.199219" xlink:href="#DejaVuSans-53"/>
      </g>
     </g>
    </g>
    <g id="xtick_4">
     <g id="line2d_4">
      <g>
       <use style="stroke:#000000;stroke-width:0.8;" x="184.617774" xlink:href="#mcca4a3ab06" y="226.602246"/>
      </g>
     </g>
     <g id="text_4">
      <!-- 2020-06 -->
      <g transform="translate(147.392954 261.074092)rotate(-30)scale(0.1 -0.1)">
       <defs>
        <path d="M 33.015625 40.375 
Q 26.375 40.375 22.484375 35.828125 
Q 18.609375 31.296875 18.609375 23.390625 
Q 18.609375 15.53125 22.484375 10.953125 
Q 26.375 6.390625 33.015625 6.390625 
Q 39.65625 6.390625 43.53125 10.953125 
Q 47.40625 15.53125 47.40625 23.390625 
Q 47.40625 31.296875 43.53125 35.828125 
Q 39.65625 40.375 33.015625 40.375 
z
M 52.59375 71.296875 
L 52.59375 62.3125 
Q 48.875 64.0625 45.09375 64.984375 
Q 41.3125 65.921875 37.59375 65.921875 
Q 27.828125 65.921875 22.671875 59.328125 
Q 17.53125 52.734375 16.796875 39.40625 
Q 19.671875 43.65625 24.015625 45.921875 
Q 28.375 48.1875 33.59375 48.1875 
Q 44.578125 48.1875 50.953125 41.515625 
Q 57.328125 34.859375 57.328125 23.390625 
Q 57.328125 12.15625 50.6875 5.359375 
Q 44.046875 -1.421875 33.015625 -1.421875 
Q 20.359375 -1.421875 13.671875 8.265625 
Q 6.984375 17.96875 6.984375 36.375 
Q 6.984375 53.65625 15.1875 63.9375 
Q 23.390625 74.21875 37.203125 74.21875 
Q 40.921875 74.21875 44.703125 73.484375 
Q 48.484375 72.75 52.59375 71.296875 
z
" id="DejaVuSans-54"/>
       </defs>
       <use xlink:href="#DejaVuSans-50"/>
       <use x="63.623047" xlink:href="#DejaVuSans-48"/>
       <use x="127.246094" xlink:href="#DejaVuSans-50"/>
       <use x="190.869141" xlink:href="#DejaVuSans-48"/>
       <use x="254.492188" xlink:href="#DejaVuSans-45"/>
       <use x="290.576172" xlink:href="#DejaVuSans-48"/>
       <use x="354.199219" xlink:href="#DejaVuSans-54"/>
      </g>
     </g>
    </g>
    <g id="xtick_5">
     <g id="line2d_5">
      <g>
       <use style="stroke:#000000;stroke-width:0.8;" x="222.724979" xlink:href="#mcca4a3ab06" y="226.602246"/>
      </g>
     </g>
     <g id="text_5">
      <!-- 2020-07 -->
      <g transform="translate(185.500158 261.074092)rotate(-30)scale(0.1 -0.1)">
       <defs>
        <path d="M 8.203125 72.90625 
L 55.078125 72.90625 
L 55.078125 68.703125 
L 28.609375 0 
L 18.3125 0 
L 43.21875 64.59375 
L 8.203125 64.59375 
z
" id="DejaVuSans-55"/>
       </defs>
       <use xlink:href="#DejaVuSans-50"/>
       <use x="63.623047" xlink:href="#DejaVuSans-48"/>
       <use x="127.246094" xlink:href="#DejaVuSans-50"/>
       <use x="190.869141" xlink:href="#DejaVuSans-48"/>
       <use x="254.492188" xlink:href="#DejaVuSans-45"/>
       <use x="290.576172" xlink:href="#DejaVuSans-48"/>
       <use x="354.199219" xlink:href="#DejaVuSans-55"/>
      </g>
     </g>
    </g>
    <g id="xtick_6">
     <g id="line2d_6">
      <g>
       <use style="stroke:#000000;stroke-width:0.8;" x="262.102423" xlink:href="#mcca4a3ab06" y="226.602246"/>
      </g>
     </g>
     <g id="text_6">
      <!-- 2020-08 -->
      <g transform="translate(224.877602 261.074092)rotate(-30)scale(0.1 -0.1)">
       <defs>
        <path d="M 31.78125 34.625 
Q 24.75 34.625 20.71875 30.859375 
Q 16.703125 27.09375 16.703125 20.515625 
Q 16.703125 13.921875 20.71875 10.15625 
Q 24.75 6.390625 31.78125 6.390625 
Q 38.8125 6.390625 42.859375 10.171875 
Q 46.921875 13.96875 46.921875 20.515625 
Q 46.921875 27.09375 42.890625 30.859375 
Q 38.875 34.625 31.78125 34.625 
z
M 21.921875 38.8125 
Q 15.578125 40.375 12.03125 44.71875 
Q 8.5 49.078125 8.5 55.328125 
Q 8.5 64.0625 14.71875 69.140625 
Q 20.953125 74.21875 31.78125 74.21875 
Q 42.671875 74.21875 48.875 69.140625 
Q 55.078125 64.0625 55.078125 55.328125 
Q 55.078125 49.078125 51.53125 44.71875 
Q 48 40.375 41.703125 38.8125 
Q 48.828125 37.15625 52.796875 32.3125 
Q 56.78125 27.484375 56.78125 20.515625 
Q 56.78125 9.90625 50.3125 4.234375 
Q 43.84375 -1.421875 31.78125 -1.421875 
Q 19.734375 -1.421875 13.25 4.234375 
Q 6.78125 9.90625 6.78125 20.515625 
Q 6.78125 27.484375 10.78125 32.3125 
Q 14.796875 37.15625 21.921875 38.8125 
z
M 18.3125 54.390625 
Q 18.3125 48.734375 21.84375 45.5625 
Q 25.390625 42.390625 31.78125 42.390625 
Q 38.140625 42.390625 41.71875 45.5625 
Q 45.3125 48.734375 45.3125 54.390625 
Q 45.3125 60.0625 41.71875 63.234375 
Q 38.140625 66.40625 31.78125 66.40625 
Q 25.390625 66.40625 21.84375 63.234375 
Q 18.3125 60.0625 18.3125 54.390625 
z
" id="DejaVuSans-56"/>
       </defs>
       <use xlink:href="#DejaVuSans-50"/>
       <use x="63.623047" xlink:href="#DejaVuSans-48"/>
       <use x="127.246094" xlink:href="#DejaVuSans-50"/>
       <use x="190.869141" xlink:href="#DejaVuSans-48"/>
       <use x="254.492188" xlink:href="#DejaVuSans-45"/>
       <use x="290.576172" xlink:href="#DejaVuSans-48"/>
       <use x="354.199219" xlink:href="#DejaVuSans-56"/>
      </g>
     </g>
    </g>
    <g id="xtick_7">
     <g id="line2d_7">
      <g>
       <use style="stroke:#000000;stroke-width:0.8;" x="301.479867" xlink:href="#mcca4a3ab06" y="226.602246"/>
      </g>
     </g>
     <g id="text_7">
      <!-- 2020-09 -->
      <g transform="translate(264.255046 261.074092)rotate(-30)scale(0.1 -0.1)">
       <defs>
        <path d="M 10.984375 1.515625 
L 10.984375 10.5 
Q 14.703125 8.734375 18.5 7.8125 
Q 22.3125 6.890625 25.984375 6.890625 
Q 35.75 6.890625 40.890625 13.453125 
Q 46.046875 20.015625 46.78125 33.40625 
Q 43.953125 29.203125 39.59375 26.953125 
Q 35.25 24.703125 29.984375 24.703125 
Q 19.046875 24.703125 12.671875 31.3125 
Q 6.296875 37.9375 6.296875 49.421875 
Q 6.296875 60.640625 12.9375 67.421875 
Q 19.578125 74.21875 30.609375 74.21875 
Q 43.265625 74.21875 49.921875 64.515625 
Q 56.59375 54.828125 56.59375 36.375 
Q 56.59375 19.140625 48.40625 8.859375 
Q 40.234375 -1.421875 26.421875 -1.421875 
Q 22.703125 -1.421875 18.890625 -0.6875 
Q 15.09375 0.046875 10.984375 1.515625 
z
M 30.609375 32.421875 
Q 37.25 32.421875 41.125 36.953125 
Q 45.015625 41.5 45.015625 49.421875 
Q 45.015625 57.28125 41.125 61.84375 
Q 37.25 66.40625 30.609375 66.40625 
Q 23.96875 66.40625 20.09375 61.84375 
Q 16.21875 57.28125 16.21875 49.421875 
Q 16.21875 41.5 20.09375 36.953125 
Q 23.96875 32.421875 30.609375 32.421875 
z
" id="DejaVuSans-57"/>
       </defs>
       <use xlink:href="#DejaVuSans-50"/>
       <use x="63.623047" xlink:href="#DejaVuSans-48"/>
       <use x="127.246094" xlink:href="#DejaVuSans-50"/>
       <use x="190.869141" xlink:href="#DejaVuSans-48"/>
       <use x="254.492188" xlink:href="#DejaVuSans-45"/>
       <use x="290.576172" xlink:href="#DejaVuSans-48"/>
       <use x="354.199219" xlink:href="#DejaVuSans-57"/>
      </g>
     </g>
    </g>
    <g id="xtick_8">
     <g id="line2d_8">
      <g>
       <use style="stroke:#000000;stroke-width:0.8;" x="339.587071" xlink:href="#mcca4a3ab06" y="226.602246"/>
      </g>
     </g>
     <g id="text_8">
      <!-- 2020-10 -->
      <g transform="translate(302.36225 261.074092)rotate(-30)scale(0.1 -0.1)">
       <defs>
        <path d="M 12.40625 8.296875 
L 28.515625 8.296875 
L 28.515625 63.921875 
L 10.984375 60.40625 
L 10.984375 69.390625 
L 28.421875 72.90625 
L 38.28125 72.90625 
L 38.28125 8.296875 
L 54.390625 8.296875 
L 54.390625 0 
L 12.40625 0 
z
" id="DejaVuSans-49"/>
       </defs>
       <use xlink:href="#DejaVuSans-50"/>
       <use x="63.623047" xlink:href="#DejaVuSans-48"/>
       <use x="127.246094" xlink:href="#DejaVuSans-50"/>
       <use x="190.869141" xlink:href="#DejaVuSans-48"/>
       <use x="254.492188" xlink:href="#DejaVuSans-45"/>
       <use x="290.576172" xlink:href="#DejaVuSans-49"/>
       <use x="354.199219" xlink:href="#DejaVuSans-48"/>
      </g>
     </g>
    </g>
    <g id="xtick_9">
     <g id="line2d_9">
      <g>
       <use style="stroke:#000000;stroke-width:0.8;" x="378.964515" xlink:href="#mcca4a3ab06" y="226.602246"/>
      </g>
     </g>
     <g id="text_9">
      <!-- 2020-11 -->
      <g transform="translate(341.739695 261.074092)rotate(-30)scale(0.1 -0.1)">
       <use xlink:href="#DejaVuSans-50"/>
       <use x="63.623047" xlink:href="#DejaVuSans-48"/>
       <use x="127.246094" xlink:href="#DejaVuSans-50"/>
       <use x="190.869141" xlink:href="#DejaVuSans-48"/>
       <use x="254.492188" xlink:href="#DejaVuSans-45"/>
       <use x="290.576172" xlink:href="#DejaVuSans-49"/>
       <use x="354.199219" xlink:href="#DejaVuSans-49"/>
      </g>
     </g>
    </g>
    <g id="xtick_10">
     <g id="line2d_10">
      <g>
       <use style="stroke:#000000;stroke-width:0.8;" x="417.07172" xlink:href="#mcca4a3ab06" y="226.602246"/>
      </g>
     </g>
     <g id="text_10">
      <!-- 2020-12 -->
      <g transform="translate(379.846899 261.074092)rotate(-30)scale(0.1 -0.1)">
       <use xlink:href="#DejaVuSans-50"/>
       <use x="63.623047" xlink:href="#DejaVuSans-48"/>
       <use x="127.246094" xlink:href="#DejaVuSans-50"/>
       <use x="190.869141" xlink:href="#DejaVuSans-48"/>
       <use x="254.492188" xlink:href="#DejaVuSans-45"/>
       <use x="290.576172" xlink:href="#DejaVuSans-49"/>
       <use x="354.199219" xlink:href="#DejaVuSans-50"/>
      </g>
     </g>
    </g>
    <g id="text_11">
     <!-- Date -->
     <g transform="translate(224.111719 274.473592)scale(0.1 -0.1)">
      <defs>
       <path d="M 19.671875 64.796875 
L 19.671875 8.109375 
L 31.59375 8.109375 
Q 46.6875 8.109375 53.6875 14.9375 
Q 60.6875 21.78125 60.6875 36.53125 
Q 60.6875 51.171875 53.6875 57.984375 
Q 46.6875 64.796875 31.59375 64.796875 
z
M 9.8125 72.90625 
L 30.078125 72.90625 
Q 51.265625 72.90625 61.171875 64.09375 
Q 71.09375 55.28125 71.09375 36.53125 
Q 71.09375 17.671875 61.125 8.828125 
Q 51.171875 0 30.078125 0 
L 9.8125 0 
z
" id="DejaVuSans-68"/>
       <path d="M 34.28125 27.484375 
Q 23.390625 27.484375 19.1875 25 
Q 14.984375 22.515625 14.984375 16.5 
Q 14.984375 11.71875 18.140625 8.90625 
Q 21.296875 6.109375 26.703125 6.109375 
Q 34.1875 6.109375 38.703125 11.40625 
Q 43.21875 16.703125 43.21875 25.484375 
L 43.21875 27.484375 
z
M 52.203125 31.203125 
L 52.203125 0 
L 43.21875 0 
L 43.21875 8.296875 
Q 40.140625 3.328125 35.546875 0.953125 
Q 30.953125 -1.421875 24.3125 -1.421875 
Q 15.921875 -1.421875 10.953125 3.296875 
Q 6 8.015625 6 15.921875 
Q 6 25.140625 12.171875 29.828125 
Q 18.359375 34.515625 30.609375 34.515625 
L 43.21875 34.515625 
L 43.21875 35.40625 
Q 43.21875 41.609375 39.140625 45 
Q 35.0625 48.390625 27.6875 48.390625 
Q 23 48.390625 18.546875 47.265625 
Q 14.109375 46.140625 10.015625 43.890625 
L 10.015625 52.203125 
Q 14.9375 54.109375 19.578125 55.046875 
Q 24.21875 56 28.609375 56 
Q 40.484375 56 46.34375 49.84375 
Q 52.203125 43.703125 52.203125 31.203125 
z
" id="DejaVuSans-97"/>
       <path d="M 18.3125 70.21875 
L 18.3125 54.6875 
L 36.8125 54.6875 
L 36.8125 47.703125 
L 18.3125 47.703125 
L 18.3125 18.015625 
Q 18.3125 11.328125 20.140625 9.421875 
Q 21.96875 7.515625 27.59375 7.515625 
L 36.8125 7.515625 
L 36.8125 0 
L 27.59375 0 
Q 17.1875 0 13.234375 3.875 
Q 9.28125 7.765625 9.28125 18.015625 
L 9.28125 47.703125 
L 2.6875 47.703125 
L 2.6875 54.6875 
L 9.28125 54.6875 
L 9.28125 70.21875 
z
" id="DejaVuSans-116"/>
       <path d="M 56.203125 29.59375 
L 56.203125 25.203125 
L 14.890625 25.203125 
Q 15.484375 15.921875 20.484375 11.0625 
Q 25.484375 6.203125 34.421875 6.203125 
Q 39.59375 6.203125 44.453125 7.46875 
Q 49.3125 8.734375 54.109375 11.28125 
L 54.109375 2.78125 
Q 49.265625 0.734375 44.1875 -0.34375 
Q 39.109375 -1.421875 33.890625 -1.421875 
Q 20.796875 -1.421875 13.15625 6.1875 
Q 5.515625 13.8125 5.515625 26.8125 
Q 5.515625 40.234375 12.765625 48.109375 
Q 20.015625 56 32.328125 56 
Q 43.359375 56 49.78125 48.890625 
Q 56.203125 41.796875 56.203125 29.59375 
z
M 47.21875 32.234375 
Q 47.125 39.59375 43.09375 43.984375 
Q 39.0625 48.390625 32.421875 48.390625 
Q 24.90625 48.390625 20.390625 44.140625 
Q 15.875 39.890625 15.1875 32.171875 
z
" id="DejaVuSans-101"/>
      </defs>
      <use xlink:href="#DejaVuSans-68"/>
      <use x="77.001953" xlink:href="#DejaVuSans-97"/>
      <use x="138.28125" xlink:href="#DejaVuSans-116"/>
      <use x="177.490234" xlink:href="#DejaVuSans-101"/>
     </g>
    </g>
   </g>
   <g id="matplotlib.axis_2">
    <g id="ytick_1">
     <g id="line2d_11">
      <defs>
       <path d="M 0 0 
L -3.5 0 
" id="m6887a7ec7b" style="stroke:#000000;stroke-width:0.8;"/>
      </defs>
      <g>
       <use style="stroke:#000000;stroke-width:0.8;" x="50.925" xlink:href="#m6887a7ec7b" y="217.520326"/>
      </g>
     </g>
     <g id="text_12">
      <!-- 0 -->
      <g transform="translate(37.5625 221.319544)scale(0.1 -0.1)">
       <use xlink:href="#DejaVuSans-48"/>
      </g>
     </g>
    </g>
    <g id="ytick_2">
     <g id="line2d_12">
      <g>
       <use style="stroke:#000000;stroke-width:0.8;" x="50.925" xlink:href="#m6887a7ec7b" y="193.550939"/>
      </g>
     </g>
     <g id="text_13">
      <!-- 100 -->
      <g transform="translate(24.8375 197.350158)scale(0.1 -0.1)">
       <use xlink:href="#DejaVuSans-49"/>
       <use x="63.623047" xlink:href="#DejaVuSans-48"/>
       <use x="127.246094" xlink:href="#DejaVuSans-48"/>
      </g>
     </g>
    </g>
    <g id="ytick_3">
     <g id="line2d_13">
      <g>
       <use style="stroke:#000000;stroke-width:0.8;" x="50.925" xlink:href="#m6887a7ec7b" y="169.581552"/>
      </g>
     </g>
     <g id="text_14">
      <!-- 200 -->
      <g transform="translate(24.8375 173.380771)scale(0.1 -0.1)">
       <use xlink:href="#DejaVuSans-50"/>
       <use x="63.623047" xlink:href="#DejaVuSans-48"/>
       <use x="127.246094" xlink:href="#DejaVuSans-48"/>
      </g>
     </g>
    </g>
    <g id="ytick_4">
     <g id="line2d_14">
      <g>
       <use style="stroke:#000000;stroke-width:0.8;" x="50.925" xlink:href="#m6887a7ec7b" y="145.612165"/>
      </g>
     </g>
     <g id="text_15">
      <!-- 300 -->
      <g transform="translate(24.8375 149.411384)scale(0.1 -0.1)">
       <use xlink:href="#DejaVuSans-51"/>
       <use x="63.623047" xlink:href="#DejaVuSans-48"/>
       <use x="127.246094" xlink:href="#DejaVuSans-48"/>
      </g>
     </g>
    </g>
    <g id="ytick_5">
     <g id="line2d_15">
      <g>
       <use style="stroke:#000000;stroke-width:0.8;" x="50.925" xlink:href="#m6887a7ec7b" y="121.642779"/>
      </g>
     </g>
     <g id="text_16">
      <!-- 400 -->
      <g transform="translate(24.8375 125.441997)scale(0.1 -0.1)">
       <use xlink:href="#DejaVuSans-52"/>
       <use x="63.623047" xlink:href="#DejaVuSans-48"/>
       <use x="127.246094" xlink:href="#DejaVuSans-48"/>
      </g>
     </g>
    </g>
    <g id="ytick_6">
     <g id="line2d_16">
      <g>
       <use style="stroke:#000000;stroke-width:0.8;" x="50.925" xlink:href="#m6887a7ec7b" y="97.673392"/>
      </g>
     </g>
     <g id="text_17">
      <!-- 500 -->
      <g transform="translate(24.8375 101.472611)scale(0.1 -0.1)">
       <use xlink:href="#DejaVuSans-53"/>
       <use x="63.623047" xlink:href="#DejaVuSans-48"/>
       <use x="127.246094" xlink:href="#DejaVuSans-48"/>
      </g>
     </g>
    </g>
    <g id="ytick_7">
     <g id="line2d_17">
      <g>
       <use style="stroke:#000000;stroke-width:0.8;" x="50.925" xlink:href="#m6887a7ec7b" y="73.704005"/>
      </g>
     </g>
     <g id="text_18">
      <!-- 600 -->
      <g transform="translate(24.8375 77.503224)scale(0.1 -0.1)">
       <use xlink:href="#DejaVuSans-54"/>
       <use x="63.623047" xlink:href="#DejaVuSans-48"/>
       <use x="127.246094" xlink:href="#DejaVuSans-48"/>
      </g>
     </g>
    </g>
    <g id="ytick_8">
     <g id="line2d_18">
      <g>
       <use style="stroke:#000000;stroke-width:0.8;" x="50.925" xlink:href="#m6887a7ec7b" y="49.734618"/>
      </g>
     </g>
     <g id="text_19">
      <!-- 700 -->
      <g transform="translate(24.8375 53.533837)scale(0.1 -0.1)">
       <use xlink:href="#DejaVuSans-55"/>
       <use x="63.623047" xlink:href="#DejaVuSans-48"/>
       <use x="127.246094" xlink:href="#DejaVuSans-48"/>
      </g>
     </g>
    </g>
    <g id="text_20">
     <!-- New cases per million population -->
     <g transform="translate(18.757813 209.63081)rotate(-90)scale(0.1 -0.1)">
      <defs>
       <path d="M 9.8125 72.90625 
L 23.09375 72.90625 
L 55.421875 11.921875 
L 55.421875 72.90625 
L 64.984375 72.90625 
L 64.984375 0 
L 51.703125 0 
L 19.390625 60.984375 
L 19.390625 0 
L 9.8125 0 
z
" id="DejaVuSans-78"/>
       <path d="M 4.203125 54.6875 
L 13.1875 54.6875 
L 24.421875 12.015625 
L 35.59375 54.6875 
L 46.1875 54.6875 
L 57.421875 12.015625 
L 68.609375 54.6875 
L 77.59375 54.6875 
L 63.28125 0 
L 52.6875 0 
L 40.921875 44.828125 
L 29.109375 0 
L 18.5 0 
z
" id="DejaVuSans-119"/>
       <path id="DejaVuSans-32"/>
       <path d="M 48.78125 52.59375 
L 48.78125 44.1875 
Q 44.96875 46.296875 41.140625 47.34375 
Q 37.3125 48.390625 33.40625 48.390625 
Q 24.65625 48.390625 19.8125 42.84375 
Q 14.984375 37.3125 14.984375 27.296875 
Q 14.984375 17.28125 19.8125 11.734375 
Q 24.65625 6.203125 33.40625 6.203125 
Q 37.3125 6.203125 41.140625 7.25 
Q 44.96875 8.296875 48.78125 10.40625 
L 48.78125 2.09375 
Q 45.015625 0.34375 40.984375 -0.53125 
Q 36.96875 -1.421875 32.421875 -1.421875 
Q 20.0625 -1.421875 12.78125 6.34375 
Q 5.515625 14.109375 5.515625 27.296875 
Q 5.515625 40.671875 12.859375 48.328125 
Q 20.21875 56 33.015625 56 
Q 37.15625 56 41.109375 55.140625 
Q 45.0625 54.296875 48.78125 52.59375 
z
" id="DejaVuSans-99"/>
       <path d="M 44.28125 53.078125 
L 44.28125 44.578125 
Q 40.484375 46.53125 36.375 47.5 
Q 32.28125 48.484375 27.875 48.484375 
Q 21.1875 48.484375 17.84375 46.4375 
Q 14.5 44.390625 14.5 40.28125 
Q 14.5 37.15625 16.890625 35.375 
Q 19.28125 33.59375 26.515625 31.984375 
L 29.59375 31.296875 
Q 39.15625 29.25 43.1875 25.515625 
Q 47.21875 21.78125 47.21875 15.09375 
Q 47.21875 7.46875 41.1875 3.015625 
Q 35.15625 -1.421875 24.609375 -1.421875 
Q 20.21875 -1.421875 15.453125 -0.5625 
Q 10.6875 0.296875 5.421875 2 
L 5.421875 11.28125 
Q 10.40625 8.6875 15.234375 7.390625 
Q 20.0625 6.109375 24.8125 6.109375 
Q 31.15625 6.109375 34.5625 8.28125 
Q 37.984375 10.453125 37.984375 14.40625 
Q 37.984375 18.0625 35.515625 20.015625 
Q 33.0625 21.96875 24.703125 23.78125 
L 21.578125 24.515625 
Q 13.234375 26.265625 9.515625 29.90625 
Q 5.8125 33.546875 5.8125 39.890625 
Q 5.8125 47.609375 11.28125 51.796875 
Q 16.75 56 26.8125 56 
Q 31.78125 56 36.171875 55.265625 
Q 40.578125 54.546875 44.28125 53.078125 
z
" id="DejaVuSans-115"/>
       <path d="M 18.109375 8.203125 
L 18.109375 -20.796875 
L 9.078125 -20.796875 
L 9.078125 54.6875 
L 18.109375 54.6875 
L 18.109375 46.390625 
Q 20.953125 51.265625 25.265625 53.625 
Q 29.59375 56 35.59375 56 
Q 45.5625 56 51.78125 48.09375 
Q 58.015625 40.1875 58.015625 27.296875 
Q 58.015625 14.40625 51.78125 6.484375 
Q 45.5625 -1.421875 35.59375 -1.421875 
Q 29.59375 -1.421875 25.265625 0.953125 
Q 20.953125 3.328125 18.109375 8.203125 
z
M 48.6875 27.296875 
Q 48.6875 37.203125 44.609375 42.84375 
Q 40.53125 48.484375 33.40625 48.484375 
Q 26.265625 48.484375 22.1875 42.84375 
Q 18.109375 37.203125 18.109375 27.296875 
Q 18.109375 17.390625 22.1875 11.75 
Q 26.265625 6.109375 33.40625 6.109375 
Q 40.53125 6.109375 44.609375 11.75 
Q 48.6875 17.390625 48.6875 27.296875 
z
" id="DejaVuSans-112"/>
       <path d="M 41.109375 46.296875 
Q 39.59375 47.171875 37.8125 47.578125 
Q 36.03125 48 33.890625 48 
Q 26.265625 48 22.1875 43.046875 
Q 18.109375 38.09375 18.109375 28.8125 
L 18.109375 0 
L 9.078125 0 
L 9.078125 54.6875 
L 18.109375 54.6875 
L 18.109375 46.1875 
Q 20.953125 51.171875 25.484375 53.578125 
Q 30.03125 56 36.53125 56 
Q 37.453125 56 38.578125 55.875 
Q 39.703125 55.765625 41.0625 55.515625 
z
" id="DejaVuSans-114"/>
       <path d="M 52 44.1875 
Q 55.375 50.25 60.0625 53.125 
Q 64.75 56 71.09375 56 
Q 79.640625 56 84.28125 50.015625 
Q 88.921875 44.046875 88.921875 33.015625 
L 88.921875 0 
L 79.890625 0 
L 79.890625 32.71875 
Q 79.890625 40.578125 77.09375 44.375 
Q 74.3125 48.1875 68.609375 48.1875 
Q 61.625 48.1875 57.5625 43.546875 
Q 53.515625 38.921875 53.515625 30.90625 
L 53.515625 0 
L 44.484375 0 
L 44.484375 32.71875 
Q 44.484375 40.625 41.703125 44.40625 
Q 38.921875 48.1875 33.109375 48.1875 
Q 26.21875 48.1875 22.15625 43.53125 
Q 18.109375 38.875 18.109375 30.90625 
L 18.109375 0 
L 9.078125 0 
L 9.078125 54.6875 
L 18.109375 54.6875 
L 18.109375 46.1875 
Q 21.1875 51.21875 25.484375 53.609375 
Q 29.78125 56 35.6875 56 
Q 41.65625 56 45.828125 52.96875 
Q 50 49.953125 52 44.1875 
z
" id="DejaVuSans-109"/>
       <path d="M 9.421875 54.6875 
L 18.40625 54.6875 
L 18.40625 0 
L 9.421875 0 
z
M 9.421875 75.984375 
L 18.40625 75.984375 
L 18.40625 64.59375 
L 9.421875 64.59375 
z
" id="DejaVuSans-105"/>
       <path d="M 9.421875 75.984375 
L 18.40625 75.984375 
L 18.40625 0 
L 9.421875 0 
z
" id="DejaVuSans-108"/>
       <path d="M 30.609375 48.390625 
Q 23.390625 48.390625 19.1875 42.75 
Q 14.984375 37.109375 14.984375 27.296875 
Q 14.984375 17.484375 19.15625 11.84375 
Q 23.34375 6.203125 30.609375 6.203125 
Q 37.796875 6.203125 41.984375 11.859375 
Q 46.1875 17.53125 46.1875 27.296875 
Q 46.1875 37.015625 41.984375 42.703125 
Q 37.796875 48.390625 30.609375 48.390625 
z
M 30.609375 56 
Q 42.328125 56 49.015625 48.375 
Q 55.71875 40.765625 55.71875 27.296875 
Q 55.71875 13.875 49.015625 6.21875 
Q 42.328125 -1.421875 30.609375 -1.421875 
Q 18.84375 -1.421875 12.171875 6.21875 
Q 5.515625 13.875 5.515625 27.296875 
Q 5.515625 40.765625 12.171875 48.375 
Q 18.84375 56 30.609375 56 
z
" id="DejaVuSans-111"/>
       <path d="M 54.890625 33.015625 
L 54.890625 0 
L 45.90625 0 
L 45.90625 32.71875 
Q 45.90625 40.484375 42.875 44.328125 
Q 39.84375 48.1875 33.796875 48.1875 
Q 26.515625 48.1875 22.3125 43.546875 
Q 18.109375 38.921875 18.109375 30.90625 
L 18.109375 0 
L 9.078125 0 
L 9.078125 54.6875 
L 18.109375 54.6875 
L 18.109375 46.1875 
Q 21.34375 51.125 25.703125 53.5625 
Q 30.078125 56 35.796875 56 
Q 45.21875 56 50.046875 50.171875 
Q 54.890625 44.34375 54.890625 33.015625 
z
" id="DejaVuSans-110"/>
       <path d="M 8.5 21.578125 
L 8.5 54.6875 
L 17.484375 54.6875 
L 17.484375 21.921875 
Q 17.484375 14.15625 20.5 10.265625 
Q 23.53125 6.390625 29.59375 6.390625 
Q 36.859375 6.390625 41.078125 11.03125 
Q 45.3125 15.671875 45.3125 23.6875 
L 45.3125 54.6875 
L 54.296875 54.6875 
L 54.296875 0 
L 45.3125 0 
L 45.3125 8.40625 
Q 42.046875 3.421875 37.71875 1 
Q 33.40625 -1.421875 27.6875 -1.421875 
Q 18.265625 -1.421875 13.375 4.4375 
Q 8.5 10.296875 8.5 21.578125 
z
M 31.109375 56 
z
" id="DejaVuSans-117"/>
      </defs>
      <use xlink:href="#DejaVuSans-78"/>
      <use x="74.804688" xlink:href="#DejaVuSans-101"/>
      <use x="136.328125" xlink:href="#DejaVuSans-119"/>
      <use x="218.115234" xlink:href="#DejaVuSans-32"/>
      <use x="249.902344" xlink:href="#DejaVuSans-99"/>
      <use x="304.882812" xlink:href="#DejaVuSans-97"/>
      <use x="366.162109" xlink:href="#DejaVuSans-115"/>
      <use x="418.261719" xlink:href="#DejaVuSans-101"/>
      <use x="479.785156" xlink:href="#DejaVuSans-115"/>
      <use x="531.884766" xlink:href="#DejaVuSans-32"/>
      <use x="563.671875" xlink:href="#DejaVuSans-112"/>
      <use x="627.148438" xlink:href="#DejaVuSans-101"/>
      <use x="688.671875" xlink:href="#DejaVuSans-114"/>
      <use x="729.785156" xlink:href="#DejaVuSans-32"/>
      <use x="761.572266" xlink:href="#DejaVuSans-109"/>
      <use x="858.984375" xlink:href="#DejaVuSans-105"/>
      <use x="886.767578" xlink:href="#DejaVuSans-108"/>
      <use x="914.550781" xlink:href="#DejaVuSans-108"/>
      <use x="942.333984" xlink:href="#DejaVuSans-105"/>
      <use x="970.117188" xlink:href="#DejaVuSans-111"/>
      <use x="1031.298828" xlink:href="#DejaVuSans-110"/>
      <use x="1094.677734" xlink:href="#DejaVuSans-32"/>
      <use x="1126.464844" xlink:href="#DejaVuSans-112"/>
      <use x="1189.941406" xlink:href="#DejaVuSans-111"/>
      <use x="1251.123047" xlink:href="#DejaVuSans-112"/>
      <use x="1314.599609" xlink:href="#DejaVuSans-117"/>
      <use x="1377.978516" xlink:href="#DejaVuSans-108"/>
      <use x="1405.761719" xlink:href="#DejaVuSans-97"/>
      <use x="1467.041016" xlink:href="#DejaVuSans-116"/>
      <use x="1506.25" xlink:href="#DejaVuSans-105"/>
      <use x="1534.033203" xlink:href="#DejaVuSans-111"/>
      <use x="1595.214844" xlink:href="#DejaVuSans-110"/>
     </g>
    </g>
   </g>
   <g id="line2d_19">
    <path clip-path="url(#pc342ea9ad5)" d="M 69.025922 216.821654 
L 70.296162 217.17099 
L 72.836642 217.345658 
L 77.917603 217.520326 
L 81.728323 217.021275 
L 84.268804 217.021275 
L 86.809284 216.622034 
L 89.349764 216.721844 
L 93.160485 215.923363 
L 94.430725 215.823552 
L 98.241445 214.925261 
L 99.511685 214.825451 
L 100.781925 213.428108 
L 102.052166 212.529816 
L 103.322406 210.533613 
L 104.592646 209.4357 
L 105.862886 208.038358 
L 107.133126 205.642913 
L 109.673606 201.650506 
L 110.943846 199.654302 
L 112.214087 198.75601 
L 113.484327 197.258857 
L 114.754567 196.061135 
L 116.024807 196.160945 
L 117.295047 196.061135 
L 118.565287 197.159047 
L 119.835527 198.6562 
L 121.105768 199.155251 
L 122.376008 200.752214 
L 123.646248 201.550696 
L 124.916488 202.149557 
L 126.186728 201.949936 
L 127.456968 201.351075 
L 128.727208 200.452783 
L 129.997449 200.752214 
L 131.267689 200.053543 
L 132.537929 197.857719 
L 133.808169 197.258857 
L 135.078409 197.258857 
L 136.348649 197.957529 
L 137.618889 198.057339 
L 138.88913 198.75601 
L 140.15937 197.258857 
L 142.69985 196.560186 
L 143.97009 196.160945 
L 145.24033 194.863413 
L 146.51057 194.763603 
L 147.78081 193.865311 
L 149.051051 195.262654 
L 150.321291 197.258857 
L 151.591531 197.059237 
L 152.861771 198.35677 
L 154.132011 197.957529 
L 155.402251 198.6562 
L 156.672491 199.155251 
L 157.942732 197.957529 
L 159.212972 197.358668 
L 160.483212 197.558288 
L 161.753452 196.160945 
L 163.023692 197.857719 
L 164.293932 197.358668 
L 165.564172 197.558288 
L 169.374893 198.75601 
L 170.645133 200.951834 
L 173.185613 201.850126 
L 174.455853 202.149557 
L 175.726093 204.445191 
L 176.996334 204.644811 
L 178.266574 206.141964 
L 179.536814 204.844432 
L 180.807054 204.545001 
L 182.077294 205.742723 
L 183.347534 206.141964 
L 184.617774 204.944242 
L 185.888015 206.141964 
L 187.158255 206.441395 
L 188.428495 207.639117 
L 189.698735 209.33589 
L 190.968975 208.936649 
L 192.239215 209.535511 
L 193.509455 210.932853 
L 194.779696 211.731335 
L 196.049936 212.030765 
L 197.320176 212.729437 
L 198.590416 212.430006 
L 201.130896 212.529816 
L 202.401136 212.330196 
L 203.671377 211.930955 
L 206.211857 212.030765 
L 207.482097 212.330196 
L 208.752337 213.228488 
L 210.022577 213.527918 
L 212.563057 214.52602 
L 213.833298 214.62583 
L 215.103538 214.026969 
L 216.373778 214.226589 
L 218.914258 213.927159 
L 220.184498 213.128677 
L 221.454738 212.829247 
L 222.724979 213.028867 
L 223.995219 213.727539 
L 225.265459 213.927159 
L 226.535699 213.328298 
L 227.805939 213.228488 
L 229.076179 214.3264 
L 230.346419 214.825451 
L 231.61666 214.52602 
L 232.8869 213.527918 
L 234.15714 213.328298 
L 235.42738 214.026969 
L 236.69762 214.226589 
L 237.96786 214.126779 
L 239.2381 213.727539 
L 240.50834 214.226589 
L 241.778581 215.025071 
L 244.319061 215.025071 
L 245.589301 215.224691 
L 246.859541 214.925261 
L 250.670262 216.023173 
L 251.940502 215.723742 
L 254.480982 215.424312 
L 255.751222 215.224691 
L 257.021462 215.324502 
L 258.291702 215.025071 
L 262.102423 214.825451 
L 264.642903 215.424312 
L 268.453623 214.825451 
L 269.723864 215.324502 
L 270.994104 215.524122 
L 274.804824 215.524122 
L 276.075064 216.023173 
L 279.885785 215.424312 
L 283.696505 215.524122 
L 284.966745 214.72564 
L 286.236985 214.72564 
L 287.507226 214.925261 
L 291.317946 214.42621 
L 292.588186 214.62583 
L 293.858426 214.62583 
L 295.128666 215.025071 
L 298.939387 214.825451 
L 300.209627 214.42621 
L 304.020347 211.930955 
L 305.290587 211.631525 
L 306.560828 210.633423 
L 307.831068 210.234182 
L 309.101308 208.237978 
L 310.371548 207.539307 
L 311.641788 207.938548 
L 312.912028 207.738927 
L 314.182268 206.441395 
L 316.722749 206.940446 
L 317.992989 208.038358 
L 319.263229 208.337788 
L 320.533469 206.641015 
L 321.803709 206.740825 
L 323.073949 206.141964 
L 325.61443 202.548797 
L 326.88467 200.852024 
L 328.15491 198.45658 
L 329.42515 198.057339 
L 330.69539 196.160945 
L 331.96563 194.663793 
L 333.23587 194.264552 
L 334.506111 192.567779 
L 335.776351 191.769297 
L 337.046591 189.872904 
L 340.857311 180.191315 
L 342.127551 177.995491 
L 343.397792 174.502135 
L 344.668032 170.609537 
L 347.208512 161.62662 
L 348.478752 157.734023 
L 349.748992 157.135162 
L 351.019232 154.739717 
L 352.289473 155.638009 
L 353.559713 152.743513 
L 354.829953 153.242564 
L 356.100193 154.440287 
L 357.370433 154.540097 
L 358.640673 152.743513 
L 359.910913 153.641805 
L 363.721634 145.956421 
L 364.991874 141.964013 
L 366.262114 142.762495 
L 367.532354 143.261546 
L 368.802594 142.063823 
L 370.072834 139.069518 
L 371.343075 138.370846 
L 372.613315 137.272934 
L 373.883555 138.770087 
L 375.153795 133.779578 
L 376.424035 131.384133 
L 377.694275 131.783374 
L 378.964515 134.77768 
L 380.234756 133.280527 
L 381.504996 134.079008 
L 382.775236 131.583754 
L 384.045476 130.485841 
L 385.315716 125.595142 
L 386.585956 122.700647 
L 387.856196 118.708239 
L 390.396677 109.226271 
L 391.666917 106.431586 
L 394.207397 112.120767 
L 395.477637 112.220577 
L 396.747877 114.416401 
L 398.018117 121.003874 
L 399.288358 126.992485 
L 400.558598 134.478249 
L 401.828838 138.770087 
L 404.369318 159.031555 
L 404.369318 159.031555 
" style="fill:none;stroke:#1f77b4;stroke-linecap:square;stroke-width:1.5;"/>
   </g>
   <g id="line2d_20">
    <path clip-path="url(#pc342ea9ad5)" d="M 80.458083 216.843653 
L 82.998563 216.843653 
L 85.539044 217.114322 
L 88.079524 216.746985 
L 90.620004 215.876977 
L 91.890244 215.780309 
L 93.160485 215.296971 
L 94.430725 214.620298 
L 95.700965 213.75029 
L 96.971205 212.106941 
L 98.241445 212.106941 
L 100.781925 210.850262 
L 102.052166 210.270256 
L 104.592646 211.430267 
L 105.862886 210.753594 
L 107.133126 208.046902 
L 108.403366 206.983558 
L 109.673606 205.243542 
L 110.943846 204.856871 
L 113.484327 200.990167 
L 114.754567 201.183503 
L 116.024807 202.440181 
L 117.295047 201.666841 
L 118.565287 202.246846 
L 119.835527 202.053511 
L 121.105768 201.666841 
L 122.376008 203.213522 
L 123.646248 204.276866 
L 124.916488 204.760204 
L 126.186728 206.886891 
L 127.456968 207.660231 
L 128.727208 207.563564 
L 129.997449 207.273561 
L 131.267689 205.533544 
L 132.537929 205.050206 
L 133.808169 203.69686 
L 135.078409 202.536849 
L 136.348649 200.120159 
L 137.618889 199.830156 
L 138.88913 201.763508 
L 140.15937 200.990167 
L 141.42961 199.733489 
L 142.69985 198.960148 
L 143.97009 197.026796 
L 145.24033 199.056816 
L 146.51057 200.120159 
L 147.78081 199.056816 
L 149.051051 199.056816 
L 150.321291 199.733489 
L 151.591531 197.993472 
L 152.861771 199.153483 
L 154.132011 197.413467 
L 155.402251 196.640126 
L 156.672491 195.67345 
L 157.942732 195.963453 
L 159.212972 194.610106 
L 160.483212 196.253455 
L 161.753452 196.350123 
L 163.023692 195.480115 
L 164.293932 191.420076 
L 165.564172 190.84007 
L 166.834413 190.743403 
L 168.104653 190.06673 
L 169.374893 189.776727 
L 170.645133 187.553372 
L 171.915373 189.486724 
L 173.185613 192.290084 
L 174.455853 193.546763 
L 175.726093 194.320104 
L 176.996334 196.350123 
L 178.266574 197.123464 
L 179.536814 198.86348 
L 180.807054 198.573478 
L 182.077294 199.540154 
L 183.347534 198.86348 
L 184.617774 197.026796 
L 185.888015 192.87009 
L 187.158255 193.353428 
L 190.968975 192.580087 
L 192.239215 190.743403 
L 193.509455 189.390056 
L 194.779696 189.680059 
L 196.049936 186.683364 
L 197.320176 182.913328 
L 198.590416 180.206635 
L 199.860656 176.919937 
L 201.130896 175.469923 
L 202.401136 173.729907 
L 204.941617 172.086557 
L 206.211857 172.279893 
L 207.482097 170.056538 
L 208.752337 169.18653 
L 210.022577 168.799859 
L 211.292817 167.446513 
L 212.563057 165.706496 
L 213.833298 162.903136 
L 215.103538 162.903136 
L 216.373778 163.676477 
L 217.644018 165.126491 
L 218.914258 168.123186 
L 220.184498 169.18653 
L 221.454738 172.183225 
L 222.724979 174.79325 
L 223.995219 176.436599 
L 225.265459 177.20994 
L 226.535699 178.466619 
L 227.805939 174.213244 
L 230.346419 174.503247 
L 231.61666 175.373256 
L 232.8869 176.629934 
L 234.15714 176.243264 
L 235.42738 174.309912 
L 236.69762 179.433294 
L 237.96786 182.236655 
L 239.2381 184.073339 
L 240.50834 186.200026 
L 241.778581 186.006691 
L 243.048821 189.100054 
L 244.319061 191.516743 
L 245.589301 192.193417 
L 246.859541 193.933433 
L 248.129781 194.996777 
L 249.400021 194.223436 
L 251.940502 195.093444 
L 253.210742 197.026796 
L 254.480982 197.220131 
L 255.751222 195.963453 
L 258.291702 197.606802 
L 259.561943 197.703469 
L 260.832183 198.86348 
L 262.102423 197.510134 
L 263.372663 197.896805 
L 264.642903 199.056816 
L 265.913143 198.283475 
L 268.453623 197.220131 
L 269.723864 195.383447 
L 270.994104 194.416771 
L 272.264344 193.740098 
L 273.534584 193.450095 
L 274.804824 193.353428 
L 276.075064 195.383447 
L 277.345304 196.736793 
L 278.615545 197.510134 
L 279.885785 199.540154 
L 281.156025 200.410162 
L 282.426265 199.153483 
L 283.696505 198.573478 
L 284.966745 199.153483 
L 286.236985 200.216827 
L 287.507226 200.796832 
L 288.777466 201.666841 
L 290.047706 201.763508 
L 291.317946 204.856871 
L 292.588186 207.080226 
L 293.858426 207.660231 
L 295.128666 208.433572 
L 296.398907 208.723575 
L 298.939387 208.626907 
L 300.209627 208.820242 
L 301.479867 206.693555 
L 302.750107 203.503525 
L 304.020347 201.860176 
L 307.831068 196.543458 
L 309.101308 192.483419 
L 310.371548 190.356732 
L 311.641788 189.196721 
L 314.182268 187.360037 
L 315.452509 186.296693 
L 316.722749 185.813356 
L 317.992989 186.393361 
L 319.263229 186.200026 
L 320.533469 186.586696 
L 323.073949 181.463314 
L 324.34419 178.079948 
L 325.61443 177.499943 
L 326.88467 176.049929 
L 329.42515 174.213244 
L 330.69539 175.663258 
L 331.96563 178.176616 
L 333.23587 179.916632 
L 334.506111 179.916632 
L 335.776351 181.656649 
L 337.046591 180.303303 
L 338.316831 177.693278 
L 339.587071 174.213244 
L 340.857311 168.993194 
L 342.127551 168.413189 
L 344.668032 161.16312 
L 345.938272 159.036433 
L 347.208512 154.396388 
L 348.478752 148.112995 
L 349.748992 147.532989 
L 351.019232 146.566313 
L 352.289473 142.409607 
L 353.559713 136.899554 
L 354.829953 135.44954 
L 356.100193 130.132822 
L 357.370433 131.969507 
L 358.640673 131.292834 
L 359.910913 130.132822 
L 361.181154 131.389501 
L 362.451394 128.682809 
L 363.721634 122.109412 
L 364.991874 120.369396 
L 366.262114 115.149346 
L 367.532354 107.319271 
L 368.802594 100.262537 
L 370.072834 95.815827 
L 371.343075 93.205802 
L 372.613315 92.625797 
L 373.883555 93.109135 
L 375.153795 86.632406 
L 376.424035 87.69575 
L 377.694275 89.339099 
L 378.964515 92.722464 
L 380.234756 82.089029 
L 381.504996 75.128963 
L 382.775236 76.965647 
L 384.045476 78.512328 
L 385.315716 74.258954 
L 386.585956 66.622215 
L 387.856196 55.408774 
L 389.126437 52.315411 
L 390.396677 49.608718 
L 391.666917 37.138599 
L 392.937157 35.978588 
L 394.207397 35.88192 
L 395.477637 38.105275 
L 396.747877 42.165314 
L 398.018117 49.705386 
L 399.288358 54.055428 
L 400.558598 62.078838 
L 401.828838 71.842265 
L 403.099078 83.24904 
L 404.369318 102.099221 
L 404.369318 102.099221 
" style="fill:none;stroke:#ff7f0e;stroke-linecap:square;stroke-width:1.5;"/>
   </g>
   <g id="line2d_21">
    <path clip-path="url(#pc342ea9ad5)" d="M 70.296162 217.132505 
L 71.566402 217.326416 
L 72.836642 217.391052 
L 75.377123 217.365198 
L 77.917603 217.354117 
L 90.620004 216.800088 
L 91.890244 216.412268 
L 93.160485 215.858239 
L 94.430725 215.747433 
L 95.700965 215.193404 
L 98.241445 214.306958 
L 100.781925 213.254303 
L 102.052166 213.143497 
L 103.322406 212.478662 
L 104.592646 211.48141 
L 105.862886 210.927381 
L 107.133126 209.819323 
L 108.403366 209.431503 
L 110.943846 207.880222 
L 112.214087 207.436999 
L 113.484327 207.547805 
L 114.754567 206.827567 
L 116.024807 206.993776 
L 117.295047 206.605955 
L 119.835527 207.049178 
L 121.105768 206.772164 
L 122.376008 206.88297 
L 123.646248 207.769416 
L 124.916488 206.938373 
L 126.186728 206.605955 
L 127.456968 206.661358 
L 128.727208 206.550552 
L 129.997449 205.719509 
L 131.267689 204.611451 
L 132.537929 203.669602 
L 133.808169 203.725005 
L 135.078409 202.395335 
L 136.348649 200.345428 
L 137.618889 200.068414 
L 138.88913 198.627938 
L 140.15937 198.406327 
L 141.42961 197.464478 
L 142.69985 195.082153 
L 143.97009 194.860541 
L 145.24033 195.41457 
L 146.51057 194.971347 
L 147.78081 196.522628 
L 149.051051 196.910449 
L 150.321291 196.522628 
L 151.591531 198.46173 
L 152.861771 197.409075 
L 154.132011 198.295521 
L 156.672491 199.181967 
L 159.212972 200.400831 
L 160.483212 201.453486 
L 161.753452 204.112825 
L 163.023692 204.943868 
L 164.293932 205.941121 
L 165.564172 206.605955 
L 166.834413 207.769416 
L 169.374893 209.209891 
L 171.915373 209.486906 
L 173.185613 208.98828 
L 174.455853 209.431503 
L 175.726093 209.209891 
L 176.996334 210.262546 
L 178.266574 209.708517 
L 179.536814 209.3761 
L 182.077294 209.819323 
L 183.347534 209.431503 
L 184.617774 209.985532 
L 185.888015 210.151741 
L 187.158255 211.315201 
L 188.428495 212.755677 
L 189.698735 212.977288 
L 190.968975 213.97454 
L 192.239215 214.750181 
L 193.509455 214.971793 
L 194.779696 215.359613 
L 196.049936 214.694778 
L 198.590416 214.805584 
L 199.860656 213.97454 
L 201.130896 213.752929 
L 202.401136 212.755677 
L 203.671377 212.534065 
L 204.941617 212.755677 
L 206.211857 212.257051 
L 207.482097 212.423259 
L 208.752337 212.755677 
L 210.022577 212.755677 
L 211.292817 213.309706 
L 212.563057 213.365109 
L 215.103538 214.528569 
L 216.373778 214.860987 
L 217.644018 215.359613 
L 223.995219 216.356865 
L 226.535699 216.356865 
L 229.076179 216.578476 
L 230.346419 216.689282 
L 234.15714 216.633879 
L 236.69762 216.800088 
L 237.96786 216.578476 
L 239.2381 216.523074 
L 241.778581 216.855491 
L 245.589301 216.855491 
L 248.129781 217.187908 
L 249.400021 216.966297 
L 250.670262 216.966297 
L 254.480982 216.578476 
L 255.751222 216.633879 
L 258.291702 216.07985 
L 260.832183 216.190656 
L 262.102423 216.301462 
L 264.642903 216.190656 
L 272.264344 215.913642 
L 273.534584 215.525821 
L 276.075064 215.525821 
L 277.345304 215.415016 
L 278.615545 214.805584 
L 283.696505 214.639375 
L 286.236985 214.805584 
L 287.507226 215.470419 
L 290.047706 215.525821 
L 292.588186 215.969045 
L 293.858426 216.024448 
L 295.128666 215.525821 
L 296.398907 215.359613 
L 297.669147 214.971793 
L 298.939387 214.91639 
L 300.209627 214.583972 
L 304.020347 211.370604 
L 305.290587 209.708517 
L 306.560828 209.209891 
L 307.831068 208.378848 
L 309.101308 206.107329 
L 310.371548 205.497897 
L 311.641788 205.387092 
L 312.912028 205.5533 
L 314.182268 206.162732 
L 315.452509 206.49515 
L 316.722749 205.830315 
L 317.992989 206.827567 
L 319.263229 207.381596 
L 323.073949 206.49515 
L 324.34419 205.442494 
L 325.61443 204.722257 
L 326.88467 204.223631 
L 328.15491 202.616947 
L 330.69539 201.508889 
L 331.96563 200.95486 
L 333.23587 200.95486 
L 334.506111 200.511637 
L 335.776351 198.295521 
L 337.046591 197.187463 
L 338.316831 195.082153 
L 339.587071 195.359168 
L 340.857311 192.478217 
L 342.127551 191.480965 
L 343.397792 191.093145 
L 347.208512 187.048733 
L 348.478752 182.727307 
L 349.748992 182.062473 
L 351.019232 179.957163 
L 352.289473 178.682896 
L 353.559713 176.910003 
L 354.829953 176.411377 
L 356.100193 174.970902 
L 357.370433 175.524931 
L 359.910913 174.084456 
L 362.451394 170.261656 
L 364.991874 164.998381 
L 366.262114 163.170085 
L 367.532354 160.843164 
L 368.802594 159.735106 
L 370.072834 159.458091 
L 371.343075 157.90681 
L 372.613315 155.136665 
L 373.883555 153.30837 
L 375.153795 151.812492 
L 377.694275 147.269454 
L 378.964515 145.718173 
L 380.234756 141.06433 
L 384.045476 131.31342 
L 385.315716 125.606922 
L 386.585956 122.11654 
L 387.856196 115.80061 
L 389.126437 111.368378 
L 390.396677 110.149514 
L 391.666917 109.152262 
L 392.937157 108.598233 
L 394.207397 112.919659 
L 395.477637 115.80061 
L 396.747877 122.282748 
L 398.018117 127.047397 
L 399.288358 129.041902 
L 403.099078 148.432915 
L 404.369318 157.352781 
L 404.369318 157.352781 
" style="fill:none;stroke:#2ca02c;stroke-linecap:square;stroke-width:1.5;"/>
   </g>
   <g id="line2d_22">
    <path clip-path="url(#pc342ea9ad5)" d="M 82.998563 216.776937 
L 84.268804 217.148631 
L 85.539044 216.776937 
L 86.809284 216.776937 
L 88.079524 216.628259 
L 89.349764 216.653039 
L 91.890244 216.56454 
L 94.430725 216.458341 
L 98.241445 214.440572 
L 99.511685 213.378587 
L 100.781925 212.741397 
L 102.052166 211.679413 
L 103.322406 211.360817 
L 104.592646 211.360817 
L 105.862886 210.405032 
L 107.133126 207.006682 
L 108.403366 205.626103 
L 112.214087 200.528579 
L 113.484327 198.298412 
L 114.754567 196.811634 
L 116.024807 197.342626 
L 117.295047 196.174443 
L 118.565287 196.068245 
L 121.105768 193.094689 
L 122.376008 192.776094 
L 123.646248 192.138903 
L 124.916488 193.200888 
L 126.186728 192.138903 
L 127.456968 190.545927 
L 128.727208 189.271546 
L 129.997449 189.483943 
L 131.267689 189.483943 
L 132.537929 189.69634 
L 133.808169 187.997165 
L 135.078409 189.69634 
L 136.348649 188.952951 
L 137.618889 192.245102 
L 138.88913 194.262872 
L 140.15937 194.262872 
L 142.69985 196.38684 
L 143.97009 194.475269 
L 145.24033 196.493039 
L 146.51057 197.130229 
L 147.78081 197.236428 
L 149.051051 198.829404 
L 150.321291 199.891388 
L 151.591531 199.78519 
L 152.861771 202.121555 
L 154.132011 203.395936 
L 155.402251 203.82073 
L 156.672491 203.82073 
L 157.942732 201.378166 
L 159.212972 200.42238 
L 160.483212 202.546349 
L 161.753452 204.245523 
L 163.023692 204.988912 
L 164.293932 205.201309 
L 165.564172 206.263293 
L 166.834413 209.555444 
L 168.104653 211.467016 
L 169.374893 212.104206 
L 170.645133 211.998008 
L 171.915373 212.316603 
L 173.185613 213.166191 
L 175.726093 212.635198 
L 176.996334 212.847595 
L 178.266574 211.042222 
L 179.536814 211.148421 
L 180.807054 210.936024 
L 182.077294 209.767841 
L 183.347534 210.192635 
L 184.617774 210.298833 
L 185.888015 210.192635 
L 187.158255 212.422802 
L 188.428495 212.953794 
L 189.698735 213.697183 
L 190.968975 214.121976 
L 192.239215 214.121976 
L 193.509455 214.865365 
L 194.779696 214.759167 
L 196.049936 214.228175 
L 197.320176 214.759167 
L 198.590416 214.440572 
L 199.860656 214.865365 
L 202.401136 214.759167 
L 203.671377 215.290159 
L 204.941617 215.502556 
L 206.211857 215.396357 
L 207.482097 215.502556 
L 208.752337 215.821151 
L 210.022577 216.352143 
L 212.563057 216.245945 
L 213.833298 216.670738 
L 218.914258 216.56454 
L 221.454738 216.458341 
L 222.724979 216.56454 
L 223.995219 216.458341 
L 225.265459 216.56454 
L 226.535699 216.352143 
L 230.346419 216.56454 
L 234.15714 216.670738 
L 236.69762 216.883135 
L 237.96786 217.20173 
L 239.2381 217.307929 
L 244.319061 216.989334 
L 245.589301 216.989334 
L 248.129781 216.670738 
L 250.670262 216.670738 
L 251.940502 216.883135 
L 254.480982 216.883135 
L 255.751222 217.095532 
L 258.291702 217.20173 
L 260.832183 217.307929 
L 262.102423 217.307929 
L 264.642903 216.883135 
L 265.913143 216.989334 
L 268.453623 216.883135 
L 273.534584 216.989334 
L 274.804824 216.458341 
L 276.075064 215.714953 
L 277.345304 215.502556 
L 281.156025 215.396357 
L 282.426265 215.18396 
L 283.696505 215.608754 
L 284.966745 215.608754 
L 286.236985 215.18396 
L 287.507226 214.54677 
L 288.777466 213.484786 
L 290.047706 213.484786 
L 291.317946 213.803381 
L 292.588186 213.590984 
L 296.398907 214.759167 
L 297.669147 214.865365 
L 298.939387 214.440572 
L 300.209627 213.803381 
L 301.479867 212.316603 
L 305.290587 210.086436 
L 306.560828 210.405032 
L 309.101308 209.661643 
L 310.371548 210.298833 
L 311.641788 210.086436 
L 314.182268 208.387262 
L 315.452509 208.281063 
L 316.722749 207.750071 
L 319.263229 205.307507 
L 320.533469 202.121555 
L 321.803709 199.891388 
L 323.073949 196.38684 
L 324.34419 193.413285 
L 325.61443 188.528157 
L 326.88467 182.899641 
L 328.15491 177.908315 
L 329.42515 172.067402 
L 330.69539 168.350458 
L 331.96563 166.014092 
L 333.23587 161.659957 
L 334.506111 161.766156 
L 335.776351 161.235163 
L 337.046591 162.82814 
L 338.316831 165.801696 
L 339.587071 166.014092 
L 340.857311 164.739711 
L 342.127551 167.076077 
L 343.397792 165.058307 
L 344.668032 163.677727 
L 345.938272 158.898798 
L 347.208512 156.562433 
L 348.478752 155.819044 
L 349.748992 155.500449 
L 351.019232 156.77483 
L 352.289473 160.81037 
L 353.559713 162.297148 
L 354.829953 163.252933 
L 356.100193 162.084751 
L 357.370433 162.403346 
L 358.640673 164.633513 
L 359.910913 162.190949 
L 361.181154 161.235163 
L 362.451394 159.960782 
L 363.721634 161.341362 
L 364.991874 161.341362 
L 367.532354 157.943012 
L 368.802594 156.456235 
L 370.072834 154.226068 
L 371.343075 153.37648 
L 372.613315 151.040115 
L 373.883555 152.73929 
L 375.153795 151.571107 
L 376.424035 149.871933 
L 377.694275 151.464909 
L 378.964515 151.252512 
L 380.234756 148.809948 
L 382.775236 142.862837 
L 384.045476 142.01325 
L 385.315716 138.190106 
L 386.585956 132.56159 
L 387.856196 128.738447 
L 389.126437 123.959518 
L 390.396677 120.348772 
L 391.666917 115.251248 
L 392.937157 112.702486 
L 394.207397 114.932653 
L 395.477637 117.693812 
L 396.747877 118.224804 
L 398.018117 120.667367 
L 399.288358 120.561169 
L 400.558598 123.640923 
L 401.828838 130.225225 
L 403.099078 133.835971 
L 404.369318 142.862837 
L 404.369318 142.862837 
" style="fill:none;stroke:#d62728;stroke-linecap:square;stroke-width:1.5;"/>
   </g>
   <g id="line2d_23">
    <path clip-path="url(#pc342ea9ad5)" d="M 67.755682 216.780555 
L 69.025922 217.15044 
L 71.566402 217.335383 
L 75.377123 217.414644 
L 77.917603 217.308963 
L 80.458083 217.203281 
L 84.268804 216.780555 
L 85.539044 216.991918 
L 86.809284 216.780555 
L 93.160485 216.674873 
L 95.700965 215.618058 
L 96.971205 214.561243 
L 98.241445 213.927153 
L 99.511685 212.870338 
L 100.781925 211.496478 
L 102.052166 210.439663 
L 103.322406 208.643076 
L 104.592646 207.480579 
L 105.862886 206.84649 
L 107.133126 205.578312 
L 108.403366 201.35105 
L 110.943846 195.221521 
L 112.214087 193.002209 
L 113.484327 189.937444 
L 116.024807 183.173826 
L 117.295047 184.336322 
L 118.565287 185.815864 
L 119.835527 186.555635 
L 121.105768 188.246539 
L 122.376008 189.514718 
L 123.646248 189.831762 
L 126.186728 191.839712 
L 127.456968 191.839712 
L 128.727208 190.782896 
L 129.997449 189.197673 
L 131.267689 190.571533 
L 132.537929 192.156756 
L 133.808169 191.522667 
L 135.078409 190.571533 
L 136.348649 190.994259 
L 138.88913 196.278336 
L 140.15937 196.595381 
L 141.42961 197.335152 
L 143.97009 202.407866 
L 145.24033 201.456732 
L 147.78081 200.294235 
L 150.321291 197.863559 
L 151.591531 197.969241 
L 152.861771 195.85561 
L 154.132011 196.489699 
L 155.402251 197.440833 
L 157.942732 197.440833 
L 159.212972 198.709012 
L 160.483212 196.278336 
L 161.753452 198.074923 
L 163.023692 199.448783 
L 164.293932 198.814693 
L 165.564172 199.554464 
L 166.834413 200.716961 
L 168.104653 200.822643 
L 169.374893 203.781726 
L 171.915373 204.204452 
L 173.185613 205.895356 
L 174.455853 205.366949 
L 176.996334 206.318083 
L 178.266574 206.001038 
L 179.536814 206.318083 
L 180.807054 206.212401 
L 182.077294 206.635127 
L 183.347534 208.114669 
L 184.617774 208.114669 
L 185.888015 208.960121 
L 187.158255 209.488529 
L 188.428495 209.59421 
L 189.698735 210.756707 
L 190.968975 210.439663 
L 192.239215 210.862389 
L 194.779696 212.447612 
L 196.049936 212.658975 
L 197.320176 213.081701 
L 198.590416 212.553293 
L 199.860656 212.764656 
L 201.130896 212.553293 
L 202.401136 211.707841 
L 203.671377 210.2283 
L 204.941617 210.2283 
L 206.211857 210.545344 
L 207.482097 211.073752 
L 208.752337 210.96807 
L 210.022577 211.073752 
L 211.292817 212.236249 
L 212.563057 212.870338 
L 213.833298 213.293064 
L 215.103538 213.293064 
L 220.184498 214.561243 
L 221.454738 215.512376 
L 223.995219 216.780555 
L 225.265459 216.569192 
L 226.535699 216.569192 
L 227.805939 216.357829 
L 229.076179 215.72374 
L 230.346419 215.935103 
L 232.8869 215.512376 
L 234.15714 215.72374 
L 235.42738 215.72374 
L 236.69762 215.935103 
L 237.96786 216.674873 
L 239.2381 216.46351 
L 243.048821 216.991918 
L 244.319061 216.674873 
L 245.589301 216.674873 
L 246.859541 216.252147 
L 249.400021 216.146466 
L 251.940502 215.829421 
L 253.210742 216.146466 
L 254.480982 216.146466 
L 255.751222 216.569192 
L 257.021462 216.674873 
L 258.291702 216.146466 
L 259.561943 215.935103 
L 260.832183 215.935103 
L 262.102423 215.618058 
L 265.913143 215.618058 
L 267.183383 216.146466 
L 268.453623 216.357829 
L 269.723864 215.829421 
L 270.994104 216.252147 
L 273.534584 216.146466 
L 274.804824 215.72374 
L 276.075064 215.935103 
L 277.345304 215.72374 
L 278.615545 216.252147 
L 282.426265 215.72374 
L 283.696505 216.040784 
L 284.966745 215.406695 
L 286.236985 215.406695 
L 290.047706 214.244198 
L 292.588186 211.285115 
L 293.858426 210.545344 
L 295.128666 209.382847 
L 296.398907 207.269216 
L 297.669147 207.269216 
L 298.939387 207.057853 
L 300.209627 206.318083 
L 301.479867 205.261267 
L 302.750107 202.936273 
L 304.020347 201.034006 
L 305.290587 198.920375 
L 306.560828 197.22947 
L 307.831068 194.693113 
L 309.101308 192.685164 
L 310.371548 189.409036 
L 312.912028 183.913596 
L 314.182268 183.807915 
L 315.452509 181.165876 
L 316.722749 181.271558 
L 319.263229 177.467022 
L 320.533469 175.987481 
L 321.803709 172.605672 
L 323.073949 169.963633 
L 324.34419 168.484092 
L 325.61443 164.362512 
L 326.88467 160.980702 
L 328.15491 159.395479 
L 329.42515 155.696625 
L 330.69539 156.119352 
L 331.96563 152.843224 
L 333.23587 152.420498 
L 334.506111 152.314816 
L 335.776351 150.412548 
L 337.046591 149.14437 
L 338.316831 146.608013 
L 339.587071 145.762561 
L 340.857311 145.551198 
L 342.127551 140.795528 
L 343.397792 138.15349 
L 344.668032 132.235324 
L 345.938272 125.683068 
L 347.208512 124.731934 
L 348.478752 116.383093 
L 349.748992 113.42401 
L 351.019232 115.749004 
L 352.289473 114.79787 
L 353.559713 116.383093 
L 354.829953 118.813768 
L 356.100193 120.927399 
L 357.370433 125.260342 
L 358.640673 128.113744 
L 359.910913 125.78875 
L 361.181154 126.634202 
L 362.451394 118.708087 
L 363.721634 118.179679 
L 364.991874 114.269462 
L 366.262114 112.789921 
L 367.532354 114.058099 
L 368.802594 114.79787 
L 370.072834 118.496724 
L 371.343075 123.992164 
L 373.883555 128.325107 
L 375.153795 134.137591 
L 376.424035 132.65805 
L 377.694275 136.77963 
L 378.964515 135.511451 
L 380.234756 136.568267 
L 382.775236 144.283019 
L 384.045476 144.705745 
L 385.315716 144.917108 
L 386.585956 144.917108 
L 387.856196 144.494382 
L 389.126437 151.152319 
L 390.396677 150.835275 
L 391.666917 153.054587 
L 392.937157 153.160268 
L 394.207397 154.745492 
L 395.477637 156.859122 
L 396.747877 158.127301 
L 398.018117 160.663658 
L 399.288358 163.622741 
L 400.558598 162.988652 
L 401.828838 167.744321 
L 403.099078 174.190895 
L 404.369318 178.840882 
L 404.369318 178.840882 
" style="fill:none;stroke:#9467bd;stroke-linecap:square;stroke-width:1.5;"/>
   </g>
   <g id="line2d_24"/>
   <g id="line2d_25"/>
   <g id="line2d_26"/>
   <g id="line2d_27"/>
   <g id="line2d_28"/>
   <g id="patch_3">
    <path d="M 50.925 226.602246 
L 50.925 26.8 
" style="fill:none;stroke:#000000;stroke-linecap:square;stroke-linejoin:miter;stroke-width:0.8;"/>
   </g>
   <g id="patch_4">
    <path d="M 421.2 226.602246 
L 421.2 26.8 
" style="fill:none;stroke:#000000;stroke-linecap:square;stroke-linejoin:miter;stroke-width:0.8;"/>
   </g>
   <g id="patch_5">
    <path d="M 50.925 226.602246 
L 421.2 226.602246 
" style="fill:none;stroke:#000000;stroke-linecap:square;stroke-linejoin:miter;stroke-width:0.8;"/>
   </g>
   <g id="patch_6">
    <path d="M 50.925 26.8 
L 421.2 26.8 
" style="fill:none;stroke:#000000;stroke-linecap:square;stroke-linejoin:miter;stroke-width:0.8;"/>
   </g>
   <g id="text_21">
    <!-- New cases per million people by UTLA (7 day rolling) -->
    <g transform="translate(77.450625 20.8)scale(0.12 -0.12)">
     <defs>
      <path d="M 48.6875 27.296875 
Q 48.6875 37.203125 44.609375 42.84375 
Q 40.53125 48.484375 33.40625 48.484375 
Q 26.265625 48.484375 22.1875 42.84375 
Q 18.109375 37.203125 18.109375 27.296875 
Q 18.109375 17.390625 22.1875 11.75 
Q 26.265625 6.109375 33.40625 6.109375 
Q 40.53125 6.109375 44.609375 11.75 
Q 48.6875 17.390625 48.6875 27.296875 
z
M 18.109375 46.390625 
Q 20.953125 51.265625 25.265625 53.625 
Q 29.59375 56 35.59375 56 
Q 45.5625 56 51.78125 48.09375 
Q 58.015625 40.1875 58.015625 27.296875 
Q 58.015625 14.40625 51.78125 6.484375 
Q 45.5625 -1.421875 35.59375 -1.421875 
Q 29.59375 -1.421875 25.265625 0.953125 
Q 20.953125 3.328125 18.109375 8.203125 
L 18.109375 0 
L 9.078125 0 
L 9.078125 75.984375 
L 18.109375 75.984375 
z
" id="DejaVuSans-98"/>
      <path d="M 32.171875 -5.078125 
Q 28.375 -14.84375 24.75 -17.8125 
Q 21.140625 -20.796875 15.09375 -20.796875 
L 7.90625 -20.796875 
L 7.90625 -13.28125 
L 13.1875 -13.28125 
Q 16.890625 -13.28125 18.9375 -11.515625 
Q 21 -9.765625 23.484375 -3.21875 
L 25.09375 0.875 
L 2.984375 54.6875 
L 12.5 54.6875 
L 29.59375 11.921875 
L 46.6875 54.6875 
L 56.203125 54.6875 
z
" id="DejaVuSans-121"/>
      <path d="M 8.6875 72.90625 
L 18.609375 72.90625 
L 18.609375 28.609375 
Q 18.609375 16.890625 22.84375 11.734375 
Q 27.09375 6.59375 36.625 6.59375 
Q 46.09375 6.59375 50.34375 11.734375 
Q 54.59375 16.890625 54.59375 28.609375 
L 54.59375 72.90625 
L 64.5 72.90625 
L 64.5 27.390625 
Q 64.5 13.140625 57.4375 5.859375 
Q 50.390625 -1.421875 36.625 -1.421875 
Q 22.796875 -1.421875 15.734375 5.859375 
Q 8.6875 13.140625 8.6875 27.390625 
z
" id="DejaVuSans-85"/>
      <path d="M -0.296875 72.90625 
L 61.375 72.90625 
L 61.375 64.59375 
L 35.5 64.59375 
L 35.5 0 
L 25.59375 0 
L 25.59375 64.59375 
L -0.296875 64.59375 
z
" id="DejaVuSans-84"/>
      <path d="M 9.8125 72.90625 
L 19.671875 72.90625 
L 19.671875 8.296875 
L 55.171875 8.296875 
L 55.171875 0 
L 9.8125 0 
z
" id="DejaVuSans-76"/>
      <path d="M 34.1875 63.1875 
L 20.796875 26.90625 
L 47.609375 26.90625 
z
M 28.609375 72.90625 
L 39.796875 72.90625 
L 67.578125 0 
L 57.328125 0 
L 50.6875 18.703125 
L 17.828125 18.703125 
L 11.1875 0 
L 0.78125 0 
z
" id="DejaVuSans-65"/>
      <path d="M 31 75.875 
Q 24.46875 64.65625 21.28125 53.65625 
Q 18.109375 42.671875 18.109375 31.390625 
Q 18.109375 20.125 21.3125 9.0625 
Q 24.515625 -2 31 -13.1875 
L 23.1875 -13.1875 
Q 15.875 -1.703125 12.234375 9.375 
Q 8.59375 20.453125 8.59375 31.390625 
Q 8.59375 42.28125 12.203125 53.3125 
Q 15.828125 64.359375 23.1875 75.875 
z
" id="DejaVuSans-40"/>
      <path d="M 45.40625 46.390625 
L 45.40625 75.984375 
L 54.390625 75.984375 
L 54.390625 0 
L 45.40625 0 
L 45.40625 8.203125 
Q 42.578125 3.328125 38.25 0.953125 
Q 33.9375 -1.421875 27.875 -1.421875 
Q 17.96875 -1.421875 11.734375 6.484375 
Q 5.515625 14.40625 5.515625 27.296875 
Q 5.515625 40.1875 11.734375 48.09375 
Q 17.96875 56 27.875 56 
Q 33.9375 56 38.25 53.625 
Q 42.578125 51.265625 45.40625 46.390625 
z
M 14.796875 27.296875 
Q 14.796875 17.390625 18.875 11.75 
Q 22.953125 6.109375 30.078125 6.109375 
Q 37.203125 6.109375 41.296875 11.75 
Q 45.40625 17.390625 45.40625 27.296875 
Q 45.40625 37.203125 41.296875 42.84375 
Q 37.203125 48.484375 30.078125 48.484375 
Q 22.953125 48.484375 18.875 42.84375 
Q 14.796875 37.203125 14.796875 27.296875 
z
" id="DejaVuSans-100"/>
      <path d="M 45.40625 27.984375 
Q 45.40625 37.75 41.375 43.109375 
Q 37.359375 48.484375 30.078125 48.484375 
Q 22.859375 48.484375 18.828125 43.109375 
Q 14.796875 37.75 14.796875 27.984375 
Q 14.796875 18.265625 18.828125 12.890625 
Q 22.859375 7.515625 30.078125 7.515625 
Q 37.359375 7.515625 41.375 12.890625 
Q 45.40625 18.265625 45.40625 27.984375 
z
M 54.390625 6.78125 
Q 54.390625 -7.171875 48.1875 -13.984375 
Q 42 -20.796875 29.203125 -20.796875 
Q 24.46875 -20.796875 20.265625 -20.09375 
Q 16.0625 -19.390625 12.109375 -17.921875 
L 12.109375 -9.1875 
Q 16.0625 -11.328125 19.921875 -12.34375 
Q 23.78125 -13.375 27.78125 -13.375 
Q 36.625 -13.375 41.015625 -8.765625 
Q 45.40625 -4.15625 45.40625 5.171875 
L 45.40625 9.625 
Q 42.625 4.78125 38.28125 2.390625 
Q 33.9375 0 27.875 0 
Q 17.828125 0 11.671875 7.65625 
Q 5.515625 15.328125 5.515625 27.984375 
Q 5.515625 40.671875 11.671875 48.328125 
Q 17.828125 56 27.875 56 
Q 33.9375 56 38.28125 53.609375 
Q 42.625 51.21875 45.40625 46.390625 
L 45.40625 54.6875 
L 54.390625 54.6875 
z
" id="DejaVuSans-103"/>
      <path d="M 8.015625 75.875 
L 15.828125 75.875 
Q 23.140625 64.359375 26.78125 53.3125 
Q 30.421875 42.28125 30.421875 31.390625 
Q 30.421875 20.453125 26.78125 9.375 
Q 23.140625 -1.703125 15.828125 -13.1875 
L 8.015625 -13.1875 
Q 14.5 -2 17.703125 9.0625 
Q 20.90625 20.125 20.90625 31.390625 
Q 20.90625 42.671875 17.703125 53.65625 
Q 14.5 64.65625 8.015625 75.875 
z
" id="DejaVuSans-41"/>
     </defs>
     <use xlink:href="#DejaVuSans-78"/>
     <use x="74.804688" xlink:href="#DejaVuSans-101"/>
     <use x="136.328125" xlink:href="#DejaVuSans-119"/>
     <use x="218.115234" xlink:href="#DejaVuSans-32"/>
     <use x="249.902344" xlink:href="#DejaVuSans-99"/>
     <use x="304.882812" xlink:href="#DejaVuSans-97"/>
     <use x="366.162109" xlink:href="#DejaVuSans-115"/>
     <use x="418.261719" xlink:href="#DejaVuSans-101"/>
     <use x="479.785156" xlink:href="#DejaVuSans-115"/>
     <use x="531.884766" xlink:href="#DejaVuSans-32"/>
     <use x="563.671875" xlink:href="#DejaVuSans-112"/>
     <use x="627.148438" xlink:href="#DejaVuSans-101"/>
     <use x="688.671875" xlink:href="#DejaVuSans-114"/>
     <use x="729.785156" xlink:href="#DejaVuSans-32"/>
     <use x="761.572266" xlink:href="#DejaVuSans-109"/>
     <use x="858.984375" xlink:href="#DejaVuSans-105"/>
     <use x="886.767578" xlink:href="#DejaVuSans-108"/>
     <use x="914.550781" xlink:href="#DejaVuSans-108"/>
     <use x="942.333984" xlink:href="#DejaVuSans-105"/>
     <use x="970.117188" xlink:href="#DejaVuSans-111"/>
     <use x="1031.298828" xlink:href="#DejaVuSans-110"/>
     <use x="1094.677734" xlink:href="#DejaVuSans-32"/>
     <use x="1126.464844" xlink:href="#DejaVuSans-112"/>
     <use x="1189.941406" xlink:href="#DejaVuSans-101"/>
     <use x="1251.464844" xlink:href="#DejaVuSans-111"/>
     <use x="1312.646484" xlink:href="#DejaVuSans-112"/>
     <use x="1376.123047" xlink:href="#DejaVuSans-108"/>
     <use x="1403.90625" xlink:href="#DejaVuSans-101"/>
     <use x="1465.429688" xlink:href="#DejaVuSans-32"/>
     <use x="1497.216797" xlink:href="#DejaVuSans-98"/>
     <use x="1560.693359" xlink:href="#DejaVuSans-121"/>
     <use x="1619.873047" xlink:href="#DejaVuSans-32"/>
     <use x="1651.660156" xlink:href="#DejaVuSans-85"/>
     <use x="1724.853516" xlink:href="#DejaVuSans-84"/>
     <use x="1785.9375" xlink:href="#DejaVuSans-76"/>
     <use x="1843.900391" xlink:href="#DejaVuSans-65"/>
     <use x="1912.308594" xlink:href="#DejaVuSans-32"/>
     <use x="1944.095703" xlink:href="#DejaVuSans-40"/>
     <use x="1983.109375" xlink:href="#DejaVuSans-55"/>
     <use x="2046.732422" xlink:href="#DejaVuSans-32"/>
     <use x="2078.519531" xlink:href="#DejaVuSans-100"/>
     <use x="2141.996094" xlink:href="#DejaVuSans-97"/>
     <use x="2203.275391" xlink:href="#DejaVuSans-121"/>
     <use x="2262.455078" xlink:href="#DejaVuSans-32"/>
     <use x="2294.242188" xlink:href="#DejaVuSans-114"/>
     <use x="2333.105469" xlink:href="#DejaVuSans-111"/>
     <use x="2394.287109" xlink:href="#DejaVuSans-108"/>
     <use x="2422.070312" xlink:href="#DejaVuSans-108"/>
     <use x="2449.853516" xlink:href="#DejaVuSans-105"/>
     <use x="2477.636719" xlink:href="#DejaVuSans-110"/>
     <use x="2541.015625" xlink:href="#DejaVuSans-103"/>
     <use x="2604.492188" xlink:href="#DejaVuSans-41"/>
    </g>
   </g>
   <g id="legend_1">
    <g id="patch_7">
     <path d="M 57.925 122.86875 
L 225.560938 122.86875 
Q 227.560938 122.86875 227.560938 120.86875 
L 227.560938 33.8 
Q 227.560938 31.8 225.560938 31.8 
L 57.925 31.8 
Q 55.925 31.8 55.925 33.8 
L 55.925 120.86875 
Q 55.925 122.86875 57.925 122.86875 
z
" style="fill:#ffffff;opacity:0.8;stroke:#cccccc;stroke-linejoin:miter;"/>
    </g>
    <g id="text_22">
     <!-- Upper-tier local authority -->
     <g transform="translate(79.022656 43.398437)scale(0.1 -0.1)">
      <defs>
       <path d="M 54.890625 33.015625 
L 54.890625 0 
L 45.90625 0 
L 45.90625 32.71875 
Q 45.90625 40.484375 42.875 44.328125 
Q 39.84375 48.1875 33.796875 48.1875 
Q 26.515625 48.1875 22.3125 43.546875 
Q 18.109375 38.921875 18.109375 30.90625 
L 18.109375 0 
L 9.078125 0 
L 9.078125 75.984375 
L 18.109375 75.984375 
L 18.109375 46.1875 
Q 21.34375 51.125 25.703125 53.5625 
Q 30.078125 56 35.796875 56 
Q 45.21875 56 50.046875 50.171875 
Q 54.890625 44.34375 54.890625 33.015625 
z
" id="DejaVuSans-104"/>
      </defs>
      <use xlink:href="#DejaVuSans-85"/>
      <use x="73.193359" xlink:href="#DejaVuSans-112"/>
      <use x="136.669922" xlink:href="#DejaVuSans-112"/>
      <use x="200.146484" xlink:href="#DejaVuSans-101"/>
      <use x="261.669922" xlink:href="#DejaVuSans-114"/>
      <use x="296.408203" xlink:href="#DejaVuSans-45"/>
      <use x="332.492188" xlink:href="#DejaVuSans-116"/>
      <use x="371.701172" xlink:href="#DejaVuSans-105"/>
      <use x="399.484375" xlink:href="#DejaVuSans-101"/>
      <use x="461.007812" xlink:href="#DejaVuSans-114"/>
      <use x="502.121094" xlink:href="#DejaVuSans-32"/>
      <use x="533.908203" xlink:href="#DejaVuSans-108"/>
      <use x="561.691406" xlink:href="#DejaVuSans-111"/>
      <use x="622.873047" xlink:href="#DejaVuSans-99"/>
      <use x="677.853516" xlink:href="#DejaVuSans-97"/>
      <use x="739.132812" xlink:href="#DejaVuSans-108"/>
      <use x="766.916016" xlink:href="#DejaVuSans-32"/>
      <use x="798.703125" xlink:href="#DejaVuSans-97"/>
      <use x="859.982422" xlink:href="#DejaVuSans-117"/>
      <use x="923.361328" xlink:href="#DejaVuSans-116"/>
      <use x="962.570312" xlink:href="#DejaVuSans-104"/>
      <use x="1025.949219" xlink:href="#DejaVuSans-111"/>
      <use x="1087.130859" xlink:href="#DejaVuSans-114"/>
      <use x="1128.244141" xlink:href="#DejaVuSans-105"/>
      <use x="1156.027344" xlink:href="#DejaVuSans-116"/>
      <use x="1195.236328" xlink:href="#DejaVuSans-121"/>
     </g>
    </g>
    <g id="line2d_29">
     <path d="M 59.925 54.576562 
L 79.925 54.576562 
" style="fill:none;stroke:#1f77b4;stroke-linecap:square;stroke-width:1.5;"/>
    </g>
    <g id="line2d_30"/>
    <g id="text_23">
     <!-- Cheshire West and Chester -->
     <g transform="translate(87.925 58.076562)scale(0.1 -0.1)">
      <defs>
       <path d="M 64.40625 67.28125 
L 64.40625 56.890625 
Q 59.421875 61.53125 53.78125 63.8125 
Q 48.140625 66.109375 41.796875 66.109375 
Q 29.296875 66.109375 22.65625 58.46875 
Q 16.015625 50.828125 16.015625 36.375 
Q 16.015625 21.96875 22.65625 14.328125 
Q 29.296875 6.6875 41.796875 6.6875 
Q 48.140625 6.6875 53.78125 8.984375 
Q 59.421875 11.28125 64.40625 15.921875 
L 64.40625 5.609375 
Q 59.234375 2.09375 53.4375 0.328125 
Q 47.65625 -1.421875 41.21875 -1.421875 
Q 24.65625 -1.421875 15.125 8.703125 
Q 5.609375 18.84375 5.609375 36.375 
Q 5.609375 53.953125 15.125 64.078125 
Q 24.65625 74.21875 41.21875 74.21875 
Q 47.75 74.21875 53.53125 72.484375 
Q 59.328125 70.75 64.40625 67.28125 
z
" id="DejaVuSans-67"/>
       <path d="M 3.328125 72.90625 
L 13.28125 72.90625 
L 28.609375 11.28125 
L 43.890625 72.90625 
L 54.984375 72.90625 
L 70.3125 11.28125 
L 85.59375 72.90625 
L 95.609375 72.90625 
L 77.296875 0 
L 64.890625 0 
L 49.515625 63.28125 
L 33.984375 0 
L 21.578125 0 
z
" id="DejaVuSans-87"/>
      </defs>
      <use xlink:href="#DejaVuSans-67"/>
      <use x="69.824219" xlink:href="#DejaVuSans-104"/>
      <use x="133.203125" xlink:href="#DejaVuSans-101"/>
      <use x="194.726562" xlink:href="#DejaVuSans-115"/>
      <use x="246.826172" xlink:href="#DejaVuSans-104"/>
      <use x="310.205078" xlink:href="#DejaVuSans-105"/>
      <use x="337.988281" xlink:href="#DejaVuSans-114"/>
      <use x="376.851562" xlink:href="#DejaVuSans-101"/>
      <use x="438.375" xlink:href="#DejaVuSans-32"/>
      <use x="470.162109" xlink:href="#DejaVuSans-87"/>
      <use x="563.164062" xlink:href="#DejaVuSans-101"/>
      <use x="624.6875" xlink:href="#DejaVuSans-115"/>
      <use x="676.787109" xlink:href="#DejaVuSans-116"/>
      <use x="715.996094" xlink:href="#DejaVuSans-32"/>
      <use x="747.783203" xlink:href="#DejaVuSans-97"/>
      <use x="809.0625" xlink:href="#DejaVuSans-110"/>
      <use x="872.441406" xlink:href="#DejaVuSans-100"/>
      <use x="935.917969" xlink:href="#DejaVuSans-32"/>
      <use x="967.705078" xlink:href="#DejaVuSans-67"/>
      <use x="1037.529297" xlink:href="#DejaVuSans-104"/>
      <use x="1100.908203" xlink:href="#DejaVuSans-101"/>
      <use x="1162.431641" xlink:href="#DejaVuSans-115"/>
      <use x="1214.53125" xlink:href="#DejaVuSans-116"/>
      <use x="1253.740234" xlink:href="#DejaVuSans-101"/>
      <use x="1315.263672" xlink:href="#DejaVuSans-114"/>
     </g>
    </g>
    <g id="line2d_31">
     <path d="M 59.925 69.254687 
L 79.925 69.254687 
" style="fill:none;stroke:#ff7f0e;stroke-linecap:square;stroke-width:1.5;"/>
    </g>
    <g id="line2d_32"/>
    <g id="text_24">
     <!-- Leicester -->
     <g transform="translate(87.925 72.754687)scale(0.1 -0.1)">
      <use xlink:href="#DejaVuSans-76"/>
      <use x="53.962891" xlink:href="#DejaVuSans-101"/>
      <use x="115.486328" xlink:href="#DejaVuSans-105"/>
      <use x="143.269531" xlink:href="#DejaVuSans-99"/>
      <use x="198.25" xlink:href="#DejaVuSans-101"/>
      <use x="259.773438" xlink:href="#DejaVuSans-115"/>
      <use x="311.873047" xlink:href="#DejaVuSans-116"/>
      <use x="351.082031" xlink:href="#DejaVuSans-101"/>
      <use x="412.605469" xlink:href="#DejaVuSans-114"/>
     </g>
    </g>
    <g id="line2d_33">
     <path d="M 59.925 83.932812 
L 79.925 83.932812 
" style="fill:none;stroke:#2ca02c;stroke-linecap:square;stroke-width:1.5;"/>
    </g>
    <g id="line2d_34"/>
    <g id="text_25">
     <!-- North Yorkshire -->
     <g transform="translate(87.925 87.432812)scale(0.1 -0.1)">
      <defs>
       <path d="M -0.203125 72.90625 
L 10.40625 72.90625 
L 30.609375 42.921875 
L 50.6875 72.90625 
L 61.28125 72.90625 
L 35.5 34.71875 
L 35.5 0 
L 25.59375 0 
L 25.59375 34.71875 
z
" id="DejaVuSans-89"/>
       <path d="M 9.078125 75.984375 
L 18.109375 75.984375 
L 18.109375 31.109375 
L 44.921875 54.6875 
L 56.390625 54.6875 
L 27.390625 29.109375 
L 57.625 0 
L 45.90625 0 
L 18.109375 26.703125 
L 18.109375 0 
L 9.078125 0 
z
" id="DejaVuSans-107"/>
      </defs>
      <use xlink:href="#DejaVuSans-78"/>
      <use x="74.804688" xlink:href="#DejaVuSans-111"/>
      <use x="135.986328" xlink:href="#DejaVuSans-114"/>
      <use x="177.099609" xlink:href="#DejaVuSans-116"/>
      <use x="216.308594" xlink:href="#DejaVuSans-104"/>
      <use x="279.6875" xlink:href="#DejaVuSans-32"/>
      <use x="311.474609" xlink:href="#DejaVuSans-89"/>
      <use x="359.308594" xlink:href="#DejaVuSans-111"/>
      <use x="420.490234" xlink:href="#DejaVuSans-114"/>
      <use x="461.603516" xlink:href="#DejaVuSans-107"/>
      <use x="519.513672" xlink:href="#DejaVuSans-115"/>
      <use x="571.613281" xlink:href="#DejaVuSans-104"/>
      <use x="634.992188" xlink:href="#DejaVuSans-105"/>
      <use x="662.775391" xlink:href="#DejaVuSans-114"/>
      <use x="701.638672" xlink:href="#DejaVuSans-101"/>
     </g>
    </g>
    <g id="line2d_35">
     <path d="M 59.925 98.610937 
L 79.925 98.610937 
" style="fill:none;stroke:#d62728;stroke-linecap:square;stroke-width:1.5;"/>
    </g>
    <g id="line2d_36"/>
    <g id="text_26">
     <!-- Northumberland -->
     <g transform="translate(87.925 102.110937)scale(0.1 -0.1)">
      <use xlink:href="#DejaVuSans-78"/>
      <use x="74.804688" xlink:href="#DejaVuSans-111"/>
      <use x="135.986328" xlink:href="#DejaVuSans-114"/>
      <use x="177.099609" xlink:href="#DejaVuSans-116"/>
      <use x="216.308594" xlink:href="#DejaVuSans-104"/>
      <use x="279.6875" xlink:href="#DejaVuSans-117"/>
      <use x="343.066406" xlink:href="#DejaVuSans-109"/>
      <use x="440.478516" xlink:href="#DejaVuSans-98"/>
      <use x="503.955078" xlink:href="#DejaVuSans-101"/>
      <use x="565.478516" xlink:href="#DejaVuSans-114"/>
      <use x="606.591797" xlink:href="#DejaVuSans-108"/>
      <use x="634.375" xlink:href="#DejaVuSans-97"/>
      <use x="695.654297" xlink:href="#DejaVuSans-110"/>
      <use x="759.033203" xlink:href="#DejaVuSans-100"/>
     </g>
    </g>
    <g id="line2d_37">
     <path d="M 59.925 113.289062 
L 79.925 113.289062 
" style="fill:none;stroke:#9467bd;stroke-linecap:square;stroke-width:1.5;"/>
    </g>
    <g id="line2d_38"/>
    <g id="text_27">
     <!-- Wirral -->
     <g transform="translate(87.925 116.789062)scale(0.1 -0.1)">
      <use xlink:href="#DejaVuSans-87"/>
      <use x="96.626953" xlink:href="#DejaVuSans-105"/>
      <use x="124.410156" xlink:href="#DejaVuSans-114"/>
      <use x="163.773438" xlink:href="#DejaVuSans-114"/>
      <use x="204.886719" xlink:href="#DejaVuSans-97"/>
      <use x="266.166016" xlink:href="#DejaVuSans-108"/>
     </g>
    </g>
   </g>
  </g>
 </g>
 <defs>
  <clipPath id="pc342ea9ad5">
   <rect height="199.802246" width="370.275" x="50.925" y="26.8"/>
  </clipPath>
 </defs>
</svg>
