<?xml version="1.0" encoding="utf-8" standalone="no"?>
<!DOCTYPE svg PUBLIC "-//W3C//DTD SVG 1.1//EN"
  "http://www.w3.org/Graphics/SVG/1.1/DTD/svg11.dtd">
<!-- Created with matplotlib (https://matplotlib.org/) -->
<svg height="396pt" version="1.1" viewBox="0 0 576 396" width="576pt" xmlns="http://www.w3.org/2000/svg" xmlns:xlink="http://www.w3.org/1999/xlink">
 <defs>
  <style type="text/css">
*{stroke-linecap:butt;stroke-linejoin:round;}
  </style>
 </defs>
 <g id="figure_1">
  <g id="patch_1">
   <path d="M 0 396 
L 576 396 
L 576 0 
L 0 0 
z
" style="fill:#ffffff;"/>
  </g>
  <g id="axes_1">
   <g id="patch_2">
    <path d="M 43.561155 331.102246 
L 565.2 331.102246 
L 565.2 26.8 
L 43.561155 26.8 
z
" style="fill:#ffffff;"/>
   </g>
   <g id="matplotlib.axis_1">
    <g id="xtick_1">
     <g id="line2d_1">
      <defs>
       <path d="M 0 0 
L 0 3.5 
" id="m798b5cf1c0" style="stroke:#000000;"/>
      </defs>
      <g>
       <use style="stroke:#000000;" x="53.49807" xlink:href="#m798b5cf1c0" y="331.102246"/>
      </g>
     </g>
     <g id="text_1">
      <!-- 2020-02 -->
      <defs>
       <path d="M 19.1875 8.296875 
L 53.609375 8.296875 
L 53.609375 0 
L 7.328125 0 
L 7.328125 8.296875 
Q 12.9375 14.109375 22.625 23.890625 
Q 32.328125 33.6875 34.8125 36.53125 
Q 39.546875 41.84375 41.421875 45.53125 
Q 43.3125 49.21875 43.3125 52.78125 
Q 43.3125 58.59375 39.234375 62.25 
Q 35.15625 65.921875 28.609375 65.921875 
Q 23.96875 65.921875 18.8125 64.3125 
Q 13.671875 62.703125 7.8125 59.421875 
L 7.8125 69.390625 
Q 13.765625 71.78125 18.9375 73 
Q 24.125 74.21875 28.421875 74.21875 
Q 39.75 74.21875 46.484375 68.546875 
Q 53.21875 62.890625 53.21875 53.421875 
Q 53.21875 48.921875 51.53125 44.890625 
Q 49.859375 40.875 45.40625 35.40625 
Q 44.1875 33.984375 37.640625 27.21875 
Q 31.109375 20.453125 19.1875 8.296875 
z
" id="DejaVuSans-50"/>
       <path d="M 31.78125 66.40625 
Q 24.171875 66.40625 20.328125 58.90625 
Q 16.5 51.421875 16.5 36.375 
Q 16.5 21.390625 20.328125 13.890625 
Q 24.171875 6.390625 31.78125 6.390625 
Q 39.453125 6.390625 43.28125 13.890625 
Q 47.125 21.390625 47.125 36.375 
Q 47.125 51.421875 43.28125 58.90625 
Q 39.453125 66.40625 31.78125 66.40625 
z
M 31.78125 74.21875 
Q 44.046875 74.21875 50.515625 64.515625 
Q 56.984375 54.828125 56.984375 36.375 
Q 56.984375 17.96875 50.515625 8.265625 
Q 44.046875 -1.421875 31.78125 -1.421875 
Q 19.53125 -1.421875 13.0625 8.265625 
Q 6.59375 17.96875 6.59375 36.375 
Q 6.59375 54.828125 13.0625 64.515625 
Q 19.53125 74.21875 31.78125 74.21875 
z
" id="DejaVuSans-48"/>
       <path d="M 4.890625 31.390625 
L 31.203125 31.390625 
L 31.203125 23.390625 
L 4.890625 23.390625 
z
" id="DejaVuSans-45"/>
      </defs>
      <g transform="translate(16.273249 369.074092)rotate(-30)scale(0.1 -0.1)">
       <use xlink:href="#DejaVuSans-50"/>
       <use x="63.623047" xlink:href="#DejaVuSans-48"/>
       <use x="127.246094" xlink:href="#DejaVuSans-50"/>
       <use x="190.869141" xlink:href="#DejaVuSans-48"/>
       <use x="254.492188" xlink:href="#DejaVuSans-45"/>
       <use x="290.576172" xlink:href="#DejaVuSans-48"/>
       <use x="354.199219" xlink:href="#DejaVuSans-50"/>
      </g>
     </g>
    </g>
    <g id="xtick_2">
     <g id="line2d_2">
      <g>
       <use style="stroke:#000000;" x="110.561542" xlink:href="#m798b5cf1c0" y="331.102246"/>
      </g>
     </g>
     <g id="text_2">
      <!-- 2020-03 -->
      <defs>
       <path d="M 40.578125 39.3125 
Q 47.65625 37.796875 51.625 33 
Q 55.609375 28.21875 55.609375 21.1875 
Q 55.609375 10.40625 48.1875 4.484375 
Q 40.765625 -1.421875 27.09375 -1.421875 
Q 22.515625 -1.421875 17.65625 -0.515625 
Q 12.796875 0.390625 7.625 2.203125 
L 7.625 11.71875 
Q 11.71875 9.328125 16.59375 8.109375 
Q 21.484375 6.890625 26.8125 6.890625 
Q 36.078125 6.890625 40.9375 10.546875 
Q 45.796875 14.203125 45.796875 21.1875 
Q 45.796875 27.640625 41.28125 31.265625 
Q 36.765625 34.90625 28.71875 34.90625 
L 20.21875 34.90625 
L 20.21875 43.015625 
L 29.109375 43.015625 
Q 36.375 43.015625 40.234375 45.921875 
Q 44.09375 48.828125 44.09375 54.296875 
Q 44.09375 59.90625 40.109375 62.90625 
Q 36.140625 65.921875 28.71875 65.921875 
Q 24.65625 65.921875 20.015625 65.03125 
Q 15.375 64.15625 9.8125 62.3125 
L 9.8125 71.09375 
Q 15.4375 72.65625 20.34375 73.4375 
Q 25.25 74.21875 29.59375 74.21875 
Q 40.828125 74.21875 47.359375 69.109375 
Q 53.90625 64.015625 53.90625 55.328125 
Q 53.90625 49.265625 50.4375 45.09375 
Q 46.96875 40.921875 40.578125 39.3125 
z
" id="DejaVuSans-51"/>
      </defs>
      <g transform="translate(73.336721 369.074092)rotate(-30)scale(0.1 -0.1)">
       <use xlink:href="#DejaVuSans-50"/>
       <use x="63.623047" xlink:href="#DejaVuSans-48"/>
       <use x="127.246094" xlink:href="#DejaVuSans-50"/>
       <use x="190.869141" xlink:href="#DejaVuSans-48"/>
       <use x="254.492188" xlink:href="#DejaVuSans-45"/>
       <use x="290.576172" xlink:href="#DejaVuSans-48"/>
       <use x="354.199219" xlink:href="#DejaVuSans-51"/>
      </g>
     </g>
    </g>
    <g id="xtick_3">
     <g id="line2d_3">
      <g>
       <use style="stroke:#000000;" x="171.560426" xlink:href="#m798b5cf1c0" y="331.102246"/>
      </g>
     </g>
     <g id="text_3">
      <!-- 2020-04 -->
      <defs>
       <path d="M 37.796875 64.3125 
L 12.890625 25.390625 
L 37.796875 25.390625 
z
M 35.203125 72.90625 
L 47.609375 72.90625 
L 47.609375 25.390625 
L 58.015625 25.390625 
L 58.015625 17.1875 
L 47.609375 17.1875 
L 47.609375 0 
L 37.796875 0 
L 37.796875 17.1875 
L 4.890625 17.1875 
L 4.890625 26.703125 
z
" id="DejaVuSans-52"/>
      </defs>
      <g transform="translate(134.335605 369.074092)rotate(-30)scale(0.1 -0.1)">
       <use xlink:href="#DejaVuSans-50"/>
       <use x="63.623047" xlink:href="#DejaVuSans-48"/>
       <use x="127.246094" xlink:href="#DejaVuSans-50"/>
       <use x="190.869141" xlink:href="#DejaVuSans-48"/>
       <use x="254.492188" xlink:href="#DejaVuSans-45"/>
       <use x="290.576172" xlink:href="#DejaVuSans-48"/>
       <use x="354.199219" xlink:href="#DejaVuSans-52"/>
      </g>
     </g>
    </g>
    <g id="xtick_4">
     <g id="line2d_4">
      <g>
       <use style="stroke:#000000;" x="230.591605" xlink:href="#m798b5cf1c0" y="331.102246"/>
      </g>
     </g>
     <g id="text_4">
      <!-- 2020-05 -->
      <defs>
       <path d="M 10.796875 72.90625 
L 49.515625 72.90625 
L 49.515625 64.59375 
L 19.828125 64.59375 
L 19.828125 46.734375 
Q 21.96875 47.46875 24.109375 47.828125 
Q 26.265625 48.1875 28.421875 48.1875 
Q 40.625 48.1875 47.75 41.5 
Q 54.890625 34.8125 54.890625 23.390625 
Q 54.890625 11.625 47.5625 5.09375 
Q 40.234375 -1.421875 26.90625 -1.421875 
Q 22.3125 -1.421875 17.546875 -0.640625 
Q 12.796875 0.140625 7.71875 1.703125 
L 7.71875 11.625 
Q 12.109375 9.234375 16.796875 8.0625 
Q 21.484375 6.890625 26.703125 6.890625 
Q 35.15625 6.890625 40.078125 11.328125 
Q 45.015625 15.765625 45.015625 23.390625 
Q 45.015625 31 40.078125 35.4375 
Q 35.15625 39.890625 26.703125 39.890625 
Q 22.75 39.890625 18.8125 39.015625 
Q 14.890625 38.140625 10.796875 36.28125 
z
" id="DejaVuSans-53"/>
      </defs>
      <g transform="translate(193.366784 369.074092)rotate(-30)scale(0.1 -0.1)">
       <use xlink:href="#DejaVuSans-50"/>
       <use x="63.623047" xlink:href="#DejaVuSans-48"/>
       <use x="127.246094" xlink:href="#DejaVuSans-50"/>
       <use x="190.869141" xlink:href="#DejaVuSans-48"/>
       <use x="254.492188" xlink:href="#DejaVuSans-45"/>
       <use x="290.576172" xlink:href="#DejaVuSans-48"/>
       <use x="354.199219" xlink:href="#DejaVuSans-53"/>
      </g>
     </g>
    </g>
    <g id="xtick_5">
     <g id="line2d_5">
      <g>
       <use style="stroke:#000000;" x="291.590489" xlink:href="#m798b5cf1c0" y="331.102246"/>
      </g>
     </g>
     <g id="text_5">
      <!-- 2020-06 -->
      <defs>
       <path d="M 33.015625 40.375 
Q 26.375 40.375 22.484375 35.828125 
Q 18.609375 31.296875 18.609375 23.390625 
Q 18.609375 15.53125 22.484375 10.953125 
Q 26.375 6.390625 33.015625 6.390625 
Q 39.65625 6.390625 43.53125 10.953125 
Q 47.40625 15.53125 47.40625 23.390625 
Q 47.40625 31.296875 43.53125 35.828125 
Q 39.65625 40.375 33.015625 40.375 
z
M 52.59375 71.296875 
L 52.59375 62.3125 
Q 48.875 64.0625 45.09375 64.984375 
Q 41.3125 65.921875 37.59375 65.921875 
Q 27.828125 65.921875 22.671875 59.328125 
Q 17.53125 52.734375 16.796875 39.40625 
Q 19.671875 43.65625 24.015625 45.921875 
Q 28.375 48.1875 33.59375 48.1875 
Q 44.578125 48.1875 50.953125 41.515625 
Q 57.328125 34.859375 57.328125 23.390625 
Q 57.328125 12.15625 50.6875 5.359375 
Q 44.046875 -1.421875 33.015625 -1.421875 
Q 20.359375 -1.421875 13.671875 8.265625 
Q 6.984375 17.96875 6.984375 36.375 
Q 6.984375 53.65625 15.1875 63.9375 
Q 23.390625 74.21875 37.203125 74.21875 
Q 40.921875 74.21875 44.703125 73.484375 
Q 48.484375 72.75 52.59375 71.296875 
z
" id="DejaVuSans-54"/>
      </defs>
      <g transform="translate(254.365668 369.074092)rotate(-30)scale(0.1 -0.1)">
       <use xlink:href="#DejaVuSans-50"/>
       <use x="63.623047" xlink:href="#DejaVuSans-48"/>
       <use x="127.246094" xlink:href="#DejaVuSans-50"/>
       <use x="190.869141" xlink:href="#DejaVuSans-48"/>
       <use x="254.492188" xlink:href="#DejaVuSans-45"/>
       <use x="290.576172" xlink:href="#DejaVuSans-48"/>
       <use x="354.199219" xlink:href="#DejaVuSans-54"/>
      </g>
     </g>
    </g>
    <g id="xtick_6">
     <g id="line2d_6">
      <g>
       <use style="stroke:#000000;" x="350.621667" xlink:href="#m798b5cf1c0" y="331.102246"/>
      </g>
     </g>
     <g id="text_6">
      <!-- 2020-07 -->
      <defs>
       <path d="M 8.203125 72.90625 
L 55.078125 72.90625 
L 55.078125 68.703125 
L 28.609375 0 
L 18.3125 0 
L 43.21875 64.59375 
L 8.203125 64.59375 
z
" id="DejaVuSans-55"/>
      </defs>
      <g transform="translate(313.396846 369.074092)rotate(-30)scale(0.1 -0.1)">
       <use xlink:href="#DejaVuSans-50"/>
       <use x="63.623047" xlink:href="#DejaVuSans-48"/>
       <use x="127.246094" xlink:href="#DejaVuSans-50"/>
       <use x="190.869141" xlink:href="#DejaVuSans-48"/>
       <use x="254.492188" xlink:href="#DejaVuSans-45"/>
       <use x="290.576172" xlink:href="#DejaVuSans-48"/>
       <use x="354.199219" xlink:href="#DejaVuSans-55"/>
      </g>
     </g>
    </g>
    <g id="xtick_7">
     <g id="line2d_7">
      <g>
       <use style="stroke:#000000;" x="411.620551" xlink:href="#m798b5cf1c0" y="331.102246"/>
      </g>
     </g>
     <g id="text_7">
      <!-- 2020-08 -->
      <defs>
       <path d="M 31.78125 34.625 
Q 24.75 34.625 20.71875 30.859375 
Q 16.703125 27.09375 16.703125 20.515625 
Q 16.703125 13.921875 20.71875 10.15625 
Q 24.75 6.390625 31.78125 6.390625 
Q 38.8125 6.390625 42.859375 10.171875 
Q 46.921875 13.96875 46.921875 20.515625 
Q 46.921875 27.09375 42.890625 30.859375 
Q 38.875 34.625 31.78125 34.625 
z
M 21.921875 38.8125 
Q 15.578125 40.375 12.03125 44.71875 
Q 8.5 49.078125 8.5 55.328125 
Q 8.5 64.0625 14.71875 69.140625 
Q 20.953125 74.21875 31.78125 74.21875 
Q 42.671875 74.21875 48.875 69.140625 
Q 55.078125 64.0625 55.078125 55.328125 
Q 55.078125 49.078125 51.53125 44.71875 
Q 48 40.375 41.703125 38.8125 
Q 48.828125 37.15625 52.796875 32.3125 
Q 56.78125 27.484375 56.78125 20.515625 
Q 56.78125 9.90625 50.3125 4.234375 
Q 43.84375 -1.421875 31.78125 -1.421875 
Q 19.734375 -1.421875 13.25 4.234375 
Q 6.78125 9.90625 6.78125 20.515625 
Q 6.78125 27.484375 10.78125 32.3125 
Q 14.796875 37.15625 21.921875 38.8125 
z
M 18.3125 54.390625 
Q 18.3125 48.734375 21.84375 45.5625 
Q 25.390625 42.390625 31.78125 42.390625 
Q 38.140625 42.390625 41.71875 45.5625 
Q 45.3125 48.734375 45.3125 54.390625 
Q 45.3125 60.0625 41.71875 63.234375 
Q 38.140625 66.40625 31.78125 66.40625 
Q 25.390625 66.40625 21.84375 63.234375 
Q 18.3125 60.0625 18.3125 54.390625 
z
" id="DejaVuSans-56"/>
      </defs>
      <g transform="translate(374.39573 369.074092)rotate(-30)scale(0.1 -0.1)">
       <use xlink:href="#DejaVuSans-50"/>
       <use x="63.623047" xlink:href="#DejaVuSans-48"/>
       <use x="127.246094" xlink:href="#DejaVuSans-50"/>
       <use x="190.869141" xlink:href="#DejaVuSans-48"/>
       <use x="254.492188" xlink:href="#DejaVuSans-45"/>
       <use x="290.576172" xlink:href="#DejaVuSans-48"/>
       <use x="354.199219" xlink:href="#DejaVuSans-56"/>
      </g>
     </g>
    </g>
    <g id="xtick_8">
     <g id="line2d_8">
      <g>
       <use style="stroke:#000000;" x="472.619435" xlink:href="#m798b5cf1c0" y="331.102246"/>
      </g>
     </g>
     <g id="text_8">
      <!-- 2020-09 -->
      <defs>
       <path d="M 10.984375 1.515625 
L 10.984375 10.5 
Q 14.703125 8.734375 18.5 7.8125 
Q 22.3125 6.890625 25.984375 6.890625 
Q 35.75 6.890625 40.890625 13.453125 
Q 46.046875 20.015625 46.78125 33.40625 
Q 43.953125 29.203125 39.59375 26.953125 
Q 35.25 24.703125 29.984375 24.703125 
Q 19.046875 24.703125 12.671875 31.3125 
Q 6.296875 37.9375 6.296875 49.421875 
Q 6.296875 60.640625 12.9375 67.421875 
Q 19.578125 74.21875 30.609375 74.21875 
Q 43.265625 74.21875 49.921875 64.515625 
Q 56.59375 54.828125 56.59375 36.375 
Q 56.59375 19.140625 48.40625 8.859375 
Q 40.234375 -1.421875 26.421875 -1.421875 
Q 22.703125 -1.421875 18.890625 -0.6875 
Q 15.09375 0.046875 10.984375 1.515625 
z
M 30.609375 32.421875 
Q 37.25 32.421875 41.125 36.953125 
Q 45.015625 41.5 45.015625 49.421875 
Q 45.015625 57.28125 41.125 61.84375 
Q 37.25 66.40625 30.609375 66.40625 
Q 23.96875 66.40625 20.09375 61.84375 
Q 16.21875 57.28125 16.21875 49.421875 
Q 16.21875 41.5 20.09375 36.953125 
Q 23.96875 32.421875 30.609375 32.421875 
z
" id="DejaVuSans-57"/>
      </defs>
      <g transform="translate(435.394615 369.074092)rotate(-30)scale(0.1 -0.1)">
       <use xlink:href="#DejaVuSans-50"/>
       <use x="63.623047" xlink:href="#DejaVuSans-48"/>
       <use x="127.246094" xlink:href="#DejaVuSans-50"/>
       <use x="190.869141" xlink:href="#DejaVuSans-48"/>
       <use x="254.492188" xlink:href="#DejaVuSans-45"/>
       <use x="290.576172" xlink:href="#DejaVuSans-48"/>
       <use x="354.199219" xlink:href="#DejaVuSans-57"/>
      </g>
     </g>
    </g>
    <g id="xtick_9">
     <g id="line2d_9">
      <g>
       <use style="stroke:#000000;" x="531.650614" xlink:href="#m798b5cf1c0" y="331.102246"/>
      </g>
     </g>
     <g id="text_9">
      <!-- 2020-10 -->
      <defs>
       <path d="M 12.40625 8.296875 
L 28.515625 8.296875 
L 28.515625 63.921875 
L 10.984375 60.40625 
L 10.984375 69.390625 
L 28.421875 72.90625 
L 38.28125 72.90625 
L 38.28125 8.296875 
L 54.390625 8.296875 
L 54.390625 0 
L 12.40625 0 
z
" id="DejaVuSans-49"/>
      </defs>
      <g transform="translate(494.425793 369.074092)rotate(-30)scale(0.1 -0.1)">
       <use xlink:href="#DejaVuSans-50"/>
       <use x="63.623047" xlink:href="#DejaVuSans-48"/>
       <use x="127.246094" xlink:href="#DejaVuSans-50"/>
       <use x="190.869141" xlink:href="#DejaVuSans-48"/>
       <use x="254.492188" xlink:href="#DejaVuSans-45"/>
       <use x="290.576172" xlink:href="#DejaVuSans-49"/>
       <use x="354.199219" xlink:href="#DejaVuSans-48"/>
      </g>
     </g>
    </g>
    <g id="text_10">
     <!-- Date -->
     <defs>
      <path d="M 19.671875 64.796875 
L 19.671875 8.109375 
L 31.59375 8.109375 
Q 46.6875 8.109375 53.6875 14.9375 
Q 60.6875 21.78125 60.6875 36.53125 
Q 60.6875 51.171875 53.6875 57.984375 
Q 46.6875 64.796875 31.59375 64.796875 
z
M 9.8125 72.90625 
L 30.078125 72.90625 
Q 51.265625 72.90625 61.171875 64.09375 
Q 71.09375 55.28125 71.09375 36.53125 
Q 71.09375 17.671875 61.125 8.828125 
Q 51.171875 0 30.078125 0 
L 9.8125 0 
z
" id="DejaVuSans-68"/>
      <path d="M 34.28125 27.484375 
Q 23.390625 27.484375 19.1875 25 
Q 14.984375 22.515625 14.984375 16.5 
Q 14.984375 11.71875 18.140625 8.90625 
Q 21.296875 6.109375 26.703125 6.109375 
Q 34.1875 6.109375 38.703125 11.40625 
Q 43.21875 16.703125 43.21875 25.484375 
L 43.21875 27.484375 
z
M 52.203125 31.203125 
L 52.203125 0 
L 43.21875 0 
L 43.21875 8.296875 
Q 40.140625 3.328125 35.546875 0.953125 
Q 30.953125 -1.421875 24.3125 -1.421875 
Q 15.921875 -1.421875 10.953125 3.296875 
Q 6 8.015625 6 15.921875 
Q 6 25.140625 12.171875 29.828125 
Q 18.359375 34.515625 30.609375 34.515625 
L 43.21875 34.515625 
L 43.21875 35.40625 
Q 43.21875 41.609375 39.140625 45 
Q 35.0625 48.390625 27.6875 48.390625 
Q 23 48.390625 18.546875 47.265625 
Q 14.109375 46.140625 10.015625 43.890625 
L 10.015625 52.203125 
Q 14.9375 54.109375 19.578125 55.046875 
Q 24.21875 56 28.609375 56 
Q 40.484375 56 46.34375 49.84375 
Q 52.203125 43.703125 52.203125 31.203125 
z
" id="DejaVuSans-97"/>
      <path d="M 18.3125 70.21875 
L 18.3125 54.6875 
L 36.8125 54.6875 
L 36.8125 47.703125 
L 18.3125 47.703125 
L 18.3125 18.015625 
Q 18.3125 11.328125 20.140625 9.421875 
Q 21.96875 7.515625 27.59375 7.515625 
L 36.8125 7.515625 
L 36.8125 0 
L 27.59375 0 
Q 17.1875 0 13.234375 3.875 
Q 9.28125 7.765625 9.28125 18.015625 
L 9.28125 47.703125 
L 2.6875 47.703125 
L 2.6875 54.6875 
L 9.28125 54.6875 
L 9.28125 70.21875 
z
" id="DejaVuSans-116"/>
      <path d="M 56.203125 29.59375 
L 56.203125 25.203125 
L 14.890625 25.203125 
Q 15.484375 15.921875 20.484375 11.0625 
Q 25.484375 6.203125 34.421875 6.203125 
Q 39.59375 6.203125 44.453125 7.46875 
Q 49.3125 8.734375 54.109375 11.28125 
L 54.109375 2.78125 
Q 49.265625 0.734375 44.1875 -0.34375 
Q 39.109375 -1.421875 33.890625 -1.421875 
Q 20.796875 -1.421875 13.15625 6.1875 
Q 5.515625 13.8125 5.515625 26.8125 
Q 5.515625 40.234375 12.765625 48.109375 
Q 20.015625 56 32.328125 56 
Q 43.359375 56 49.78125 48.890625 
Q 56.203125 41.796875 56.203125 29.59375 
z
M 47.21875 32.234375 
Q 47.125 39.59375 43.09375 43.984375 
Q 39.0625 48.390625 32.421875 48.390625 
Q 24.90625 48.390625 20.390625 44.140625 
Q 15.875 39.890625 15.1875 32.171875 
z
" id="DejaVuSans-101"/>
     </defs>
     <g transform="translate(291.234718 383.233436)scale(0.11 -0.11)">
      <use xlink:href="#DejaVuSans-68"/>
      <use x="77.001953" xlink:href="#DejaVuSans-97"/>
      <use x="138.28125" xlink:href="#DejaVuSans-116"/>
      <use x="177.490234" xlink:href="#DejaVuSans-101"/>
     </g>
    </g>
   </g>
   <g id="matplotlib.axis_2">
    <g id="ytick_1">
     <g id="line2d_10">
      <defs>
       <path d="M 0 0 
L -3.5 0 
" id="mfb667618b2" style="stroke:#000000;"/>
      </defs>
      <g>
       <use style="stroke:#000000;" x="43.561155" xlink:href="#mfb667618b2" y="317.270326"/>
      </g>
     </g>
     <g id="text_11">
      <!-- 0 -->
      <g transform="translate(26.698655 321.069544)scale(0.1 -0.1)">
       <use xlink:href="#DejaVuSans-48"/>
      </g>
     </g>
    </g>
    <g id="ytick_2">
     <g id="line2d_11">
      <g>
       <use style="stroke:#000000;" x="43.561155" xlink:href="#mfb667618b2" y="280.748952"/>
      </g>
     </g>
     <g id="text_12">
      <!-- 50 -->
      <g transform="translate(20.336155 284.54817)scale(0.1 -0.1)">
       <use xlink:href="#DejaVuSans-53"/>
       <use x="63.623047" xlink:href="#DejaVuSans-48"/>
      </g>
     </g>
    </g>
    <g id="ytick_3">
     <g id="line2d_12">
      <g>
       <use style="stroke:#000000;" x="43.561155" xlink:href="#mfb667618b2" y="244.227578"/>
      </g>
     </g>
     <g id="text_13">
      <!-- 100 -->
      <g transform="translate(13.973655 248.026797)scale(0.1 -0.1)">
       <use xlink:href="#DejaVuSans-49"/>
       <use x="63.623047" xlink:href="#DejaVuSans-48"/>
       <use x="127.246094" xlink:href="#DejaVuSans-48"/>
      </g>
     </g>
    </g>
    <g id="ytick_4">
     <g id="line2d_13">
      <g>
       <use style="stroke:#000000;" x="43.561155" xlink:href="#mfb667618b2" y="207.706204"/>
      </g>
     </g>
     <g id="text_14">
      <!-- 150 -->
      <g transform="translate(13.973655 211.505423)scale(0.1 -0.1)">
       <use xlink:href="#DejaVuSans-49"/>
       <use x="63.623047" xlink:href="#DejaVuSans-53"/>
       <use x="127.246094" xlink:href="#DejaVuSans-48"/>
      </g>
     </g>
    </g>
    <g id="ytick_5">
     <g id="line2d_14">
      <g>
       <use style="stroke:#000000;" x="43.561155" xlink:href="#mfb667618b2" y="171.18483"/>
      </g>
     </g>
     <g id="text_15">
      <!-- 200 -->
      <g transform="translate(13.973655 174.984049)scale(0.1 -0.1)">
       <use xlink:href="#DejaVuSans-50"/>
       <use x="63.623047" xlink:href="#DejaVuSans-48"/>
       <use x="127.246094" xlink:href="#DejaVuSans-48"/>
      </g>
     </g>
    </g>
    <g id="ytick_6">
     <g id="line2d_15">
      <g>
       <use style="stroke:#000000;" x="43.561155" xlink:href="#mfb667618b2" y="134.663456"/>
      </g>
     </g>
     <g id="text_16">
      <!-- 250 -->
      <g transform="translate(13.973655 138.462675)scale(0.1 -0.1)">
       <use xlink:href="#DejaVuSans-50"/>
       <use x="63.623047" xlink:href="#DejaVuSans-53"/>
       <use x="127.246094" xlink:href="#DejaVuSans-48"/>
      </g>
     </g>
    </g>
    <g id="ytick_7">
     <g id="line2d_16">
      <g>
       <use style="stroke:#000000;" x="43.561155" xlink:href="#mfb667618b2" y="98.142082"/>
      </g>
     </g>
     <g id="text_17">
      <!-- 300 -->
      <g transform="translate(13.973655 101.941301)scale(0.1 -0.1)">
       <use xlink:href="#DejaVuSans-51"/>
       <use x="63.623047" xlink:href="#DejaVuSans-48"/>
       <use x="127.246094" xlink:href="#DejaVuSans-48"/>
      </g>
     </g>
    </g>
    <g id="ytick_8">
     <g id="line2d_17">
      <g>
       <use style="stroke:#000000;" x="43.561155" xlink:href="#mfb667618b2" y="61.620708"/>
      </g>
     </g>
     <g id="text_18">
      <!-- 350 -->
      <g transform="translate(13.973655 65.419927)scale(0.1 -0.1)">
       <use xlink:href="#DejaVuSans-51"/>
       <use x="63.623047" xlink:href="#DejaVuSans-53"/>
       <use x="127.246094" xlink:href="#DejaVuSans-48"/>
      </g>
     </g>
    </g>
   </g>
   <g id="line2d_18">
    <path clip-path="url(#p29c62b9ba2)" d="M 124.335484 316.966171 
L 126.30319 317.270326 
L 130.238602 316.053705 
L 132.206307 315.74955 
L 136.141719 315.74955 
L 140.077131 314.53293 
L 142.044837 314.837085 
L 144.012543 314.837085 
L 147.947955 313.012155 
L 149.915661 312.403845 
L 151.883367 312.09969 
L 157.786485 309.362294 
L 159.754191 309.058139 
L 161.721897 304.799968 
L 163.689603 302.062572 
L 165.657308 295.979471 
L 167.625014 292.633765 
L 169.59272 288.375594 
L 171.560426 281.075873 
L 173.528132 274.688616 
L 177.463544 262.826569 
L 179.43125 260.089173 
L 181.398956 255.526847 
L 183.366662 251.876986 
L 185.334368 252.181142 
L 187.302074 251.876986 
L 189.26978 255.222692 
L 191.237486 260.089173 
L 193.205192 261.609949 
L 195.172898 266.47643 
L 197.140604 268.90967 
L 199.108309 270.734601 
L 201.076015 270.12629 
L 203.043721 268.30136 
L 205.011427 265.563964 
L 206.979133 266.47643 
L 208.946839 264.347344 
L 210.914545 257.960088 
L 212.882251 256.135157 
L 214.849957 256.135157 
L 216.817663 258.264243 
L 218.785369 258.264243 
L 220.753075 260.393328 
L 222.720781 255.831002 
L 226.656193 253.397762 
L 228.623899 252.485297 
L 230.591605 248.531281 
L 232.559311 248.227126 
L 234.527016 245.48973 
L 236.494722 249.747901 
L 238.462428 255.831002 
L 240.430134 255.222692 
L 242.39784 258.872553 
L 244.365546 257.655933 
L 246.333252 259.785018 
L 248.300958 261.305793 
L 250.268664 257.960088 
L 252.23637 256.439312 
L 254.204076 257.047623 
L 256.171782 253.093607 
L 258.139488 258.568398 
L 260.107194 257.047623 
L 262.0749 257.351778 
L 266.010312 259.785018 
L 267.978017 260.697483 
L 269.945723 267.388895 
L 271.913429 268.605515 
L 273.881135 269.51798 
L 275.848841 270.734601 
L 277.816547 277.426012 
L 279.784253 278.034322 
L 281.751959 282.596648 
L 283.719665 278.338477 
L 285.687371 277.426012 
L 287.655077 281.075873 
L 289.622783 282.292493 
L 291.590489 278.642632 
L 293.558195 282.292493 
L 295.525901 283.509113 
L 297.493607 287.158974 
L 299.461313 292.32961 
L 301.429018 291.417145 
L 303.396724 292.93792 
L 305.36443 297.196091 
L 307.332136 299.629332 
L 309.299842 300.237642 
L 311.267548 302.366727 
L 313.235254 301.150107 
L 315.20296 301.758417 
L 317.170666 302.062572 
L 319.138372 301.454262 
L 321.106078 300.237642 
L 323.073784 300.237642 
L 325.04149 300.541797 
L 327.009196 301.150107 
L 328.976902 303.583348 
L 330.944608 304.191658 
L 332.912314 306.016588 
L 334.880019 307.537364 
L 336.847725 307.841519 
L 338.815431 306.016588 
L 340.783137 307.233209 
L 342.750843 306.624898 
L 344.718549 306.624898 
L 346.686255 303.887503 
L 348.653961 303.279193 
L 350.621667 303.887503 
L 352.589373 306.016588 
L 354.557079 306.320743 
L 356.524785 304.495813 
L 358.492491 304.191658 
L 360.460197 307.537364 
L 362.427903 308.753984 
L 364.395609 307.841519 
L 366.363315 304.799968 
L 368.331021 304.495813 
L 370.298726 306.624898 
L 372.266432 307.233209 
L 374.234138 307.233209 
L 376.201844 306.016588 
L 378.16955 307.537364 
L 380.137256 309.970604 
L 384.072668 309.970604 
L 386.040374 310.578914 
L 388.00808 309.362294 
L 389.975786 310.578914 
L 391.943492 311.491379 
L 393.911198 312.708 
L 395.878904 311.795534 
L 397.84661 311.491379 
L 401.782022 310.274759 
L 403.749727 310.578914 
L 405.717433 309.666449 
L 407.685139 309.362294 
L 409.652845 308.753984 
L 411.620551 309.058139 
L 415.555963 310.883069 
L 419.491375 309.666449 
L 421.459081 309.362294 
L 423.426787 310.883069 
L 425.394493 311.187224 
L 427.362199 311.187224 
L 429.329905 310.883069 
L 431.297611 311.187224 
L 433.265317 312.708 
L 435.233023 311.491379 
L 437.200728 311.187224 
L 439.168434 310.578914 
L 441.13614 310.578914 
L 443.103846 310.883069 
L 445.071552 310.883069 
L 447.039258 308.449829 
L 449.006964 308.753984 
L 450.97467 309.362294 
L 454.910082 308.145674 
L 456.877788 307.841519 
L 458.845494 308.449829 
L 460.8132 308.449829 
L 462.780906 309.666449 
L 464.748612 309.362294 
L 466.716318 309.362294 
L 468.684024 309.058139 
L 470.651729 307.841519 
L 472.619435 305.712433 
L 474.587141 304.191658 
L 476.554847 300.845952 
L 478.522553 299.933487 
L 480.490259 297.500246 
L 482.457965 296.587781 
L 484.425671 291.11299 
L 486.393377 288.983905 
L 488.361083 289.28806 
L 490.328789 287.767284 
L 492.296495 284.117423 
L 494.264201 284.725734 
L 496.231907 285.029889 
L 498.199613 287.767284 
L 500.167319 288.071439 
L 502.135025 282.900803 
L 504.102731 283.204958 
L 506.070436 281.075873 
L 508.038142 275.601082 
L 510.005848 270.734601 
L 511.973554 266.47643 
L 513.94126 260.393328 
L 515.908966 258.568398 
L 517.876672 254.006072 
L 519.844378 249.139591 
L 521.812084 244.577265 
L 523.77979 236.365078 
L 525.747496 233.019372 
L 527.715202 224.198875 
L 529.682908 208.686967 
L 531.650614 197.43323 
L 533.61832 183.137941 
L 535.586026 177.66315 
L 537.553732 167.626033 
L 539.521437 153.939055 
L 541.489143 148.464264 
L 541.489143 148.464264 
" style="fill:none;stroke:#1f77b4;stroke-linecap:square;stroke-width:1.75;"/>
   </g>
   <g id="line2d_19">
    <path clip-path="url(#p29c62b9ba2)" d="M 142.044837 314.913698 
L 144.012543 313.735383 
L 145.980249 312.262491 
L 147.947955 311.967912 
L 149.915661 310.49502 
L 151.883367 308.43297 
L 153.851073 305.781763 
L 155.818779 300.773928 
L 157.786485 300.773928 
L 159.754191 298.711879 
L 163.689603 295.176936 
L 167.625014 298.711879 
L 169.59272 296.649829 
L 171.560426 288.40163 
L 173.528132 285.161267 
L 175.495838 279.858853 
L 177.463544 278.680539 
L 179.43125 273.083547 
L 181.398956 266.897398 
L 183.366662 267.486555 
L 185.334368 271.316076 
L 187.302074 269.254026 
L 189.26978 271.021498 
L 191.237486 270.432341 
L 193.205192 269.254026 
L 195.172898 273.967283 
L 197.140604 277.207647 
L 199.108309 278.680539 
L 201.076015 284.866688 
L 203.043721 287.223316 
L 205.011427 286.928738 
L 206.979133 286.045002 
L 208.946839 280.742589 
L 210.914545 279.269696 
L 212.882251 275.145597 
L 214.849957 271.610655 
L 216.817663 264.246192 
L 218.785369 263.362456 
L 220.753075 269.254026 
L 222.720781 266.897398 
L 224.688487 263.067877 
L 226.656193 260.711249 
L 228.623899 254.819679 
L 230.591605 261.005828 
L 232.559311 264.246192 
L 234.527016 261.300406 
L 236.494722 261.300406 
L 238.462428 263.362456 
L 240.430134 258.060043 
L 242.39784 261.594985 
L 244.365546 256.292571 
L 246.333252 253.935943 
L 248.300958 250.695579 
L 250.268664 251.579315 
L 252.23637 247.455216 
L 254.204076 252.463051 
L 256.171782 252.757629 
L 258.139488 250.106422 
L 260.107194 237.734124 
L 262.0749 235.966653 
L 264.042606 235.672075 
L 266.010312 233.610025 
L 267.978017 232.72629 
L 269.945723 225.950984 
L 271.913429 231.842554 
L 273.881135 240.385331 
L 275.848841 244.214852 
L 277.816547 246.57148 
L 279.784253 252.757629 
L 281.751959 255.114257 
L 283.719665 260.416671 
L 285.687371 259.532935 
L 287.655077 262.47872 
L 289.622783 260.416671 
L 291.590489 254.819679 
L 293.558195 242.152802 
L 295.525901 243.625695 
L 297.493607 242.741959 
L 299.461313 242.152802 
L 301.429018 241.269067 
L 303.396724 235.672075 
L 305.36443 231.547975 
L 307.332136 232.431711 
L 309.299842 223.299777 
L 311.267548 211.811214 
L 313.235254 203.563016 
L 315.20296 193.547346 
L 317.170666 189.128668 
L 319.138372 183.826255 
L 321.106078 181.469627 
L 323.073784 178.81842 
L 325.04149 179.407577 
L 327.009196 172.632271 
L 328.976902 169.981064 
L 330.944608 168.80275 
L 332.912314 164.678651 
L 334.880019 159.376237 
L 336.847725 150.83346 
L 338.815431 151.128039 
L 340.783137 153.484667 
L 342.750843 157.903345 
L 344.718549 167.035279 
L 346.686255 170.275643 
L 348.653961 179.407577 
L 350.621667 187.361197 
L 352.589373 192.074453 
L 354.557079 194.431082 
L 356.524785 197.966024 
L 358.492491 185.004569 
L 360.460197 185.299147 
L 362.427903 185.888304 
L 364.395609 188.539511 
L 366.363315 192.369032 
L 368.331021 191.190718 
L 370.298726 185.593726 
L 372.266432 201.206388 
L 374.234138 209.749165 
L 376.201844 215.346157 
L 378.16955 221.826884 
L 380.137256 221.237727 
L 382.104962 230.66424 
L 384.072668 238.028703 
L 386.040374 240.090753 
L 388.00808 245.393166 
L 389.975786 248.63353 
L 391.943492 246.276902 
L 393.911198 247.455216 
L 395.878904 248.928108 
L 397.84661 254.819679 
L 399.814316 255.408836 
L 401.782022 251.579315 
L 403.749727 254.230522 
L 405.717433 256.58715 
L 407.685139 256.881728 
L 409.652845 260.416671 
L 411.620551 256.292571 
L 413.588257 257.470886 
L 415.555963 261.005828 
L 417.523669 258.6492 
L 419.491375 256.881728 
L 421.459081 255.408836 
L 423.426787 249.811844 
L 425.394493 246.866059 
L 427.362199 244.804009 
L 429.329905 243.920273 
L 431.297611 243.625695 
L 433.265317 249.811844 
L 435.233023 253.935943 
L 437.200728 256.292571 
L 439.168434 262.47872 
L 441.13614 265.129927 
L 443.103846 261.300406 
L 445.071552 259.532935 
L 447.039258 261.300406 
L 449.006964 264.54077 
L 450.97467 266.308241 
L 452.942376 268.959448 
L 454.910082 269.254026 
L 456.877788 278.680539 
L 458.845494 285.455845 
L 460.8132 287.223316 
L 462.780906 289.579945 
L 464.748612 290.46368 
L 466.716318 290.169102 
L 468.684024 290.169102 
L 470.651729 290.758259 
L 472.619435 284.866688 
L 474.587141 275.734754 
L 476.554847 271.021498 
L 478.522553 265.129927 
L 480.490259 257.765464 
L 482.457965 253.641365 
L 484.425671 240.974488 
L 486.393377 233.610025 
L 488.361083 229.191347 
L 490.328789 226.245562 
L 492.296495 223.594355 
L 494.264201 221.237727 
L 496.231907 220.64857 
L 498.199613 223.594355 
L 500.167319 224.183512 
L 502.135025 225.656405 
L 504.102731 218.881099 
L 506.070436 211.516636 
L 508.038142 202.384702 
L 510.005848 199.144338 
L 511.973554 192.66361 
L 513.94126 189.717825 
L 515.908966 187.655776 
L 517.876672 191.190718 
L 519.844378 197.082288 
L 521.812084 200.617231 
L 523.77979 200.911809 
L 525.747496 206.214223 
L 527.715202 202.67928 
L 529.682908 197.671445 
L 531.650614 188.539511 
L 533.61832 176.461792 
L 535.586026 178.523841 
L 537.553732 171.453957 
L 539.521437 163.794915 
L 541.489143 164.384072 
L 541.489143 164.384072 
" style="fill:none;stroke:#ff7f0e;stroke-linecap:square;stroke-width:1.75;"/>
   </g>
   <g id="line2d_20">
    <path clip-path="url(#p29c62b9ba2)" d="M 145.980249 314.357726 
L 149.915661 314.357726 
L 151.883367 314.034104 
L 155.818779 310.150638 
L 157.786485 307.885283 
L 159.754191 304.649062 
L 161.721897 302.707329 
L 163.689603 299.471108 
L 165.657308 298.500241 
L 167.625014 298.500241 
L 169.59272 295.587642 
L 171.560426 285.231733 
L 173.528132 281.024645 
L 175.495838 275.846691 
L 177.463544 270.992359 
L 179.43125 265.490782 
L 181.398956 258.694717 
L 183.366662 254.164007 
L 185.334368 255.782118 
L 187.302074 252.222275 
L 189.26978 251.898652 
L 193.205192 242.837232 
L 195.172898 241.866366 
L 197.140604 239.924633 
L 199.108309 243.160854 
L 201.076015 239.924633 
L 203.043721 235.070301 
L 205.011427 231.186835 
L 206.979133 231.834079 
L 208.946839 231.834079 
L 210.914545 232.481324 
L 212.882251 227.303369 
L 214.849957 232.481324 
L 216.817663 230.215969 
L 218.785369 240.248255 
L 220.753075 246.397076 
L 222.720781 246.397076 
L 224.688487 249.633297 
L 226.656193 253.193141 
L 228.623899 247.367942 
L 230.591605 253.516763 
L 232.559311 255.458496 
L 234.527016 255.782118 
L 236.494722 260.63645 
L 238.462428 263.872672 
L 240.430134 262.901805 
L 242.39784 270.021493 
L 244.365546 273.904958 
L 246.333252 275.199447 
L 248.300958 275.199447 
L 250.268664 267.756137 
L 252.23637 264.843538 
L 254.204076 271.639603 
L 256.171782 276.817558 
L 258.139488 279.082913 
L 260.107194 279.730157 
L 262.0749 282.966378 
L 264.042606 292.998665 
L 266.010312 298.823863 
L 267.978017 300.765596 
L 269.945723 300.441974 
L 271.913429 301.412841 
L 273.881135 304.001818 
L 275.848841 303.030951 
L 277.816547 302.383707 
L 279.784253 303.030951 
L 281.751959 297.529375 
L 283.719665 297.852997 
L 285.687371 297.205753 
L 287.655077 293.322287 
L 289.622783 294.616776 
L 291.590489 294.940398 
L 293.558195 294.616776 
L 295.525901 301.412841 
L 297.493607 303.030951 
L 299.461313 305.296306 
L 301.429018 306.914417 
L 303.396724 306.914417 
L 305.36443 309.179772 
L 307.332136 308.85615 
L 309.299842 307.238039 
L 311.267548 308.85615 
L 313.235254 307.885283 
L 315.20296 309.179772 
L 317.170666 308.85615 
L 319.138372 308.85615 
L 321.106078 310.474261 
L 323.073784 311.121505 
L 325.04149 310.797883 
L 327.009196 311.121505 
L 328.976902 312.092371 
L 330.944608 313.710482 
L 332.912314 313.38686 
L 334.880019 313.38686 
L 336.847725 314.681349 
L 338.815431 314.681349 
L 340.783137 315.004971 
L 342.750843 315.004971 
L 344.718549 314.357726 
L 346.686255 314.034104 
L 348.653961 314.034104 
L 350.621667 314.357726 
L 352.589373 314.034104 
L 354.557079 314.357726 
L 356.524785 313.710482 
L 360.460197 314.357726 
L 364.395609 314.357726 
L 366.363315 314.681349 
L 368.331021 314.681349 
L 372.266432 315.328593 
L 374.234138 316.299459 
L 376.201844 316.623081 
L 380.137256 315.975837 
L 382.104962 315.328593 
L 384.072668 315.652215 
L 386.040374 315.652215 
L 388.00808 315.004971 
L 389.975786 314.681349 
L 393.911198 314.681349 
L 395.878904 315.328593 
L 399.814316 315.328593 
L 401.782022 315.975837 
L 403.749727 315.975837 
L 407.685139 316.623081 
L 411.620551 316.623081 
L 415.555963 315.328593 
L 417.523669 315.652215 
L 419.491375 315.328593 
L 423.426787 315.328593 
L 425.394493 315.004971 
L 427.362199 315.652215 
L 429.329905 315.652215 
L 431.297611 314.034104 
L 433.265317 311.768749 
L 435.233023 311.121505 
L 437.200728 311.121505 
L 439.168434 311.445127 
L 443.103846 310.150638 
L 445.071552 311.445127 
L 447.039258 311.445127 
L 449.006964 310.150638 
L 450.97467 308.208906 
L 452.942376 304.972684 
L 454.910082 304.972684 
L 456.877788 305.943551 
L 458.845494 305.296306 
L 460.8132 306.590795 
L 462.780906 307.561661 
L 464.748612 308.85615 
L 466.716318 309.179772 
L 468.684024 307.885283 
L 470.651729 305.943551 
L 472.619435 301.412841 
L 474.587141 299.79473 
L 476.554847 297.529375 
L 478.522553 295.587642 
L 480.490259 296.234886 
L 482.457965 295.26402 
L 484.425671 293.969531 
L 486.393377 296.234886 
L 488.361083 294.616776 
L 490.328789 291.380554 
L 492.296495 289.115199 
L 494.264201 289.115199 
L 496.231907 287.497088 
L 498.199613 283.937245 
L 500.167319 280.053779 
L 502.135025 271.963225 
L 504.102731 265.16716 
L 506.070436 253.840385 
L 508.038142 244.778965 
L 510.005848 229.568724 
L 511.973554 211.122262 
L 513.94126 196.235643 
L 515.908966 174.876582 
L 517.876672 163.549807 
L 519.844378 155.782875 
L 521.812084 140.572634 
L 523.77979 139.278146 
L 525.747496 136.365547 
L 527.715202 133.129325 
L 529.682908 140.896257 
L 531.650614 137.012791 
L 533.61832 132.805703 
L 535.586026 135.718302 
L 537.553732 129.569482 
L 539.521437 126.980504 
L 541.489143 125.686016 
L 541.489143 125.686016 
" style="fill:none;stroke:#2ca02c;stroke-linecap:square;stroke-width:1.75;"/>
   </g>
   <g id="line2d_21">
    <path clip-path="url(#p29c62b9ba2)" d="M 126.30319 316.763832 
L 128.270896 316.595001 
L 130.238602 316.595001 
L 132.206307 316.088507 
L 136.141719 315.750845 
L 138.109425 315.750845 
L 140.077131 315.413183 
L 142.044837 315.413183 
L 144.012543 314.906689 
L 145.980249 314.906689 
L 147.947955 313.893702 
L 149.915661 312.20539 
L 151.883367 311.867728 
L 153.851073 310.179416 
L 155.818779 308.997598 
L 159.754191 305.958637 
L 161.721897 304.270325 
L 163.689603 303.932663 
L 165.657308 301.906689 
L 167.625014 298.867728 
L 169.59272 297.179416 
L 171.560426 293.802792 
L 173.528132 292.620974 
L 177.463544 287.893701 
L 179.43125 286.543052 
L 181.398956 286.880714 
L 183.366662 284.685909 
L 185.334368 285.192403 
L 187.302074 284.010584 
L 189.26978 284.85474 
L 191.237486 285.361234 
L 193.205192 284.517078 
L 195.172898 284.85474 
L 197.140604 287.556039 
L 199.108309 285.023571 
L 201.076015 284.010584 
L 203.043721 284.179415 
L 205.011427 283.841753 
L 206.979133 281.309286 
L 208.946839 277.932662 
L 210.914545 275.062532 
L 212.882251 275.231363 
L 214.849957 271.179415 
L 216.817663 264.932662 
L 218.785369 264.088506 
L 220.753075 259.867726 
L 222.720781 259.192402 
L 224.688487 256.322272 
L 226.656193 249.062531 
L 228.623899 248.387206 
L 230.591605 250.075518 
L 232.559311 248.724869 
L 234.527016 253.283311 
L 236.494722 254.296298 
L 238.462428 252.945648 
L 240.430134 258.854739 
L 242.39784 255.646947 
L 244.365546 258.348246 
L 246.333252 259.530064 
L 248.300958 261.049545 
L 252.23637 265.101493 
L 254.204076 268.309285 
L 256.171782 276.413181 
L 258.139488 278.945649 
L 260.107194 281.98461 
L 262.0749 284.010584 
L 264.042606 287.556039 
L 266.010312 289.582013 
L 267.978017 291.94565 
L 269.945723 292.283312 
L 271.913429 292.789805 
L 273.881135 291.270325 
L 275.848841 292.620974 
L 277.816547 291.94565 
L 279.784253 295.153442 
L 281.751959 293.46513 
L 283.719665 292.452143 
L 285.687371 293.296299 
L 287.655077 293.802792 
L 289.622783 292.620974 
L 291.590489 294.309286 
L 293.558195 294.815779 
L 295.525901 298.361234 
L 297.493607 302.750845 
L 299.461313 303.426169 
L 301.429018 306.465131 
L 303.396724 308.828767 
L 305.36443 309.504092 
L 307.332136 310.68591 
L 309.299842 308.659936 
L 311.267548 308.997598 
L 313.235254 308.997598 
L 315.20296 306.465131 
L 317.170666 305.789806 
L 319.138372 302.750845 
L 321.106078 302.07552 
L 323.073784 302.750845 
L 325.04149 301.231364 
L 327.009196 301.906689 
L 328.976902 302.919676 
L 330.944608 302.919676 
L 332.912314 304.607988 
L 334.880019 304.776819 
L 336.847725 306.465131 
L 338.815431 308.322273 
L 340.783137 309.166429 
L 342.750843 310.68591 
L 344.718549 311.361235 
L 346.686255 312.374222 
L 348.653961 313.049546 
L 352.589373 313.724871 
L 354.557079 313.55604 
L 358.492491 313.893702 
L 360.460197 314.400196 
L 362.427903 314.737858 
L 364.395609 314.569027 
L 368.331021 314.569027 
L 370.298726 314.737858 
L 372.266432 315.07552 
L 374.234138 314.400196 
L 376.201844 314.231365 
L 378.16955 314.906689 
L 380.137256 315.244352 
L 382.104962 315.244352 
L 384.072668 315.07552 
L 386.040374 315.244352 
L 389.975786 316.257339 
L 391.943492 315.582014 
L 393.911198 315.582014 
L 395.878904 315.07552 
L 399.814316 314.400196 
L 401.782022 314.569027 
L 403.749727 313.55604 
L 405.717433 312.880715 
L 407.685139 312.880715 
L 411.620551 313.55604 
L 413.588257 313.218378 
L 415.555963 313.218378 
L 417.523669 313.049546 
L 419.491375 313.218378 
L 421.459081 312.374222 
L 423.426787 312.20539 
L 425.394493 312.20539 
L 427.362199 312.374222 
L 429.329905 311.192403 
L 431.297611 311.361235 
L 433.265317 311.192403 
L 435.233023 310.854741 
L 437.200728 308.997598 
L 439.168434 308.828767 
L 443.103846 308.828767 
L 445.071552 308.491105 
L 447.039258 308.828767 
L 449.006964 308.997598 
L 450.97467 311.023572 
L 452.942376 311.023572 
L 454.910082 311.192403 
L 458.845494 312.543053 
L 460.8132 312.711884 
L 462.780906 311.192403 
L 464.748612 310.68591 
L 466.716318 309.504092 
L 468.684024 309.33526 
L 470.651729 308.322273 
L 474.587141 300.893702 
L 476.554847 297.517078 
L 478.522553 292.620974 
L 480.490259 290.595 
L 482.457965 286.880714 
L 484.425671 279.620974 
L 486.393377 278.439156 
L 488.361083 278.776818 
L 490.328789 278.945649 
L 492.296495 280.633961 
L 494.264201 281.98461 
L 496.231907 281.309286 
L 498.199613 285.530065 
L 500.167319 286.880714 
L 502.135025 284.85474 
L 504.102731 283.33526 
L 506.070436 283.33526 
L 510.005848 276.413181 
L 511.973554 272.361233 
L 513.94126 265.607986 
L 515.908966 261.724869 
L 517.876672 259.530064 
L 519.844378 254.63396 
L 521.812084 250.413181 
L 523.77979 247.205388 
L 525.747496 239.945648 
L 527.715202 232.179414 
L 529.682908 221.880712 
L 531.650614 218.67292 
L 533.61832 206.010582 
L 535.586026 201.789802 
L 537.553732 200.101491 
L 539.521437 196.218374 
L 541.489143 198.919672 
L 541.489143 198.919672 
" style="fill:none;stroke:#d62728;stroke-linecap:square;stroke-width:1.75;"/>
   </g>
   <g id="line2d_22">
    <path clip-path="url(#p29c62b9ba2)" d="M 67.272011 316.948279 
L 69.239717 317.270326 
L 108.593836 317.270326 
L 110.561542 316.948279 
L 122.367778 316.948279 
L 124.335484 316.626232 
L 128.270896 316.626232 
L 134.174013 315.660091 
L 136.141719 315.015996 
L 138.109425 315.660091 
L 140.077131 315.015996 
L 142.044837 315.015996 
L 144.012543 315.338043 
L 145.980249 315.338043 
L 149.915661 314.693949 
L 153.851073 311.473479 
L 155.818779 308.253009 
L 157.786485 306.320726 
L 159.754191 303.100256 
L 161.721897 298.913645 
L 163.689603 295.693174 
L 165.657308 290.218375 
L 167.625014 286.675857 
L 169.59272 284.743575 
L 171.560426 280.87901 
L 173.528132 267.675082 
L 177.463544 248.996354 
L 179.43125 242.233366 
L 181.398956 232.894002 
L 183.366662 222.26645 
L 185.334368 212.282991 
L 187.302074 216.147556 
L 189.26978 220.656214 
L 191.237486 222.910544 
L 193.205192 228.063296 
L 195.172898 231.927861 
L 197.140604 232.894002 
L 199.108309 235.792425 
L 201.076015 239.012896 
L 203.043721 239.334943 
L 205.011427 236.114472 
L 206.979133 231.283767 
L 208.946839 235.470378 
L 210.914545 240.301084 
L 212.882251 238.368801 
L 214.849957 235.470378 
L 216.817663 236.436519 
L 220.753075 252.538871 
L 222.720781 253.505012 
L 224.688487 255.759341 
L 226.656193 263.810517 
L 228.623899 271.217599 
L 230.591605 268.319176 
L 232.559311 266.708941 
L 234.527016 264.776659 
L 236.494722 261.234141 
L 238.462428 257.369577 
L 240.430134 257.691624 
L 242.39784 251.250683 
L 244.365546 253.182965 
L 246.333252 256.081389 
L 250.268664 256.081389 
L 252.23637 259.945953 
L 254.204076 252.860918 
L 256.171782 258.335718 
L 258.139488 262.200282 
L 260.107194 260.268 
L 262.0749 262.522329 
L 264.042606 266.064847 
L 266.010312 266.386894 
L 267.978017 275.082164 
L 269.945723 275.726258 
L 271.913429 276.692399 
L 273.881135 281.845152 
L 275.848841 280.234916 
L 279.784253 282.811293 
L 281.751959 281.845152 
L 283.719665 282.489246 
L 285.687371 282.167199 
L 287.655077 283.455387 
L 289.622783 287.964045 
L 291.590489 287.964045 
L 293.558195 290.862469 
L 295.525901 292.472704 
L 297.493607 293.116798 
L 299.461313 296.659315 
L 301.429018 295.693174 
L 303.396724 296.981362 
L 305.36443 299.557739 
L 307.332136 301.812068 
L 309.299842 302.456162 
L 311.267548 303.74435 
L 313.235254 302.134115 
L 315.20296 302.778209 
L 317.170666 302.134115 
L 319.138372 299.557739 
L 321.106078 295.04908 
L 323.073784 295.04908 
L 325.04149 296.015221 
L 327.009196 297.625456 
L 328.976902 297.303409 
L 330.944608 297.625456 
L 332.912314 301.490021 
L 334.880019 303.422303 
L 336.847725 304.710491 
L 338.815431 304.710491 
L 342.750843 306.642773 
L 344.718549 307.930962 
L 346.686255 308.253009 
L 348.653961 311.151432 
L 352.589373 315.015996 
L 354.557079 314.371902 
L 356.524785 314.371902 
L 358.492491 313.727808 
L 360.460197 311.795526 
L 362.427903 312.43962 
L 366.363315 311.151432 
L 368.331021 311.795526 
L 370.298726 311.795526 
L 372.266432 312.43962 
L 374.234138 314.693949 
L 376.201844 314.049855 
L 380.137256 315.338043 
L 382.104962 315.660091 
L 384.072668 314.693949 
L 386.040374 314.693949 
L 388.00808 313.405761 
L 389.975786 313.405761 
L 391.943492 313.083714 
L 393.911198 312.43962 
L 395.878904 312.117573 
L 397.84661 313.083714 
L 399.814316 313.083714 
L 401.782022 314.371902 
L 403.749727 314.693949 
L 405.717433 313.083714 
L 407.685139 312.43962 
L 409.652845 312.43962 
L 411.620551 311.473479 
L 415.555963 311.473479 
L 417.523669 311.151432 
L 419.491375 312.761667 
L 421.459081 313.405761 
L 423.426787 311.795526 
L 425.394493 313.083714 
L 427.362199 313.083714 
L 429.329905 312.761667 
L 431.297611 311.795526 
L 433.265317 312.43962 
L 435.233023 311.795526 
L 437.200728 313.405761 
L 439.168434 312.761667 
L 441.13614 311.795526 
L 443.103846 311.795526 
L 445.071552 312.761667 
L 447.039258 310.829385 
L 449.006964 310.829385 
L 452.942376 308.253009 
L 454.910082 307.286868 
L 458.845494 298.26955 
L 460.8132 296.015221 
L 462.780906 292.472704 
L 464.748612 286.031763 
L 466.716318 286.031763 
L 468.684024 285.387669 
L 470.651729 283.13334 
L 472.619435 279.912869 
L 474.587141 273.471929 
L 476.554847 267.997129 
L 478.522553 261.234141 
L 480.490259 255.759341 
L 482.457965 248.030213 
L 484.425671 240.945178 
L 486.393377 230.96172 
L 488.361083 222.910544 
L 490.328789 216.469603 
L 492.296495 216.79165 
L 494.264201 209.062521 
L 496.231907 209.384568 
L 498.199613 204.553862 
L 500.167319 199.079063 
L 502.135025 194.570404 
L 504.102731 183.298758 
L 506.070436 173.959394 
L 508.038142 167.8405 
L 510.005848 154.636572 
L 511.973554 144.653113 
L 513.94126 140.466502 
L 515.908966 128.550762 
L 517.876672 126.618479 
L 519.844378 117.279115 
L 521.812084 116.635021 
L 523.77979 115.346833 
L 525.747496 105.363375 
L 527.715202 97.634246 
L 529.682908 87.972835 
L 531.650614 84.430317 
L 533.61832 81.853941 
L 535.586026 67.039777 
L 537.553732 56.090178 
L 539.521437 42.564202 
L 541.489143 40.63192 
L 541.489143 40.63192 
" style="fill:none;stroke:#9467bd;stroke-linecap:square;stroke-width:1.75;"/>
   </g>
   <g id="line2d_23">
    <path clip-path="url(#p29c62b9ba2)" d="M 79.078247 317.119463 
L 81.045953 317.270326 
L 110.561542 317.270326 
L 112.529248 317.119463 
L 114.496954 316.666875 
L 118.432366 316.666875 
L 120.400072 316.214286 
L 124.335484 315.912561 
L 126.30319 315.610835 
L 128.270896 315.158247 
L 130.238602 314.403934 
L 134.174013 314.102208 
L 136.141719 314.253071 
L 138.109425 313.64962 
L 140.077131 313.64962 
L 142.044837 313.197032 
L 144.012543 312.895306 
L 145.980249 311.084953 
L 147.947955 310.93409 
L 149.915661 310.028914 
L 151.883367 309.576326 
L 153.851073 306.709933 
L 155.818779 304.597855 
L 157.786485 303.390953 
L 159.754191 301.429737 
L 161.721897 297.959894 
L 163.689603 295.54609 
L 165.657308 293.584875 
L 167.625014 291.020208 
L 171.560426 282.722757 
L 175.495838 269.748561 
L 177.463544 267.183894 
L 179.43125 262.959737 
L 181.398956 261.300247 
L 185.334368 254.964012 
L 187.302074 256.472639 
L 189.26978 256.472639 
L 191.237486 257.679541 
L 193.205192 259.188169 
L 195.172898 258.73558 
L 197.140604 261.752835 
L 199.108309 265.524404 
L 201.076015 267.183894 
L 203.043721 270.502875 
L 205.011427 268.390796 
L 206.979133 268.994247 
L 208.946839 271.408051 
L 210.914545 274.576169 
L 212.882251 273.670992 
L 216.817663 269.295973 
L 218.785369 270.955463 
L 220.753075 268.692522 
L 222.720781 267.183894 
L 224.688487 265.071816 
L 226.656193 265.976992 
L 228.623899 266.580443 
L 230.591605 271.558914 
L 232.559311 270.201149 
L 234.527016 275.632208 
L 236.494722 274.274443 
L 238.462428 271.408051 
L 240.430134 271.106326 
L 242.39784 275.17962 
L 244.365546 272.916678 
L 246.333252 272.162365 
L 248.300958 264.77009 
L 250.268664 261.45111 
L 252.23637 263.864914 
L 254.204076 260.847659 
L 256.171782 260.395071 
L 258.139488 262.658012 
L 260.107194 267.636482 
L 262.0749 269.14511 
L 264.042606 273.972718 
L 267.978017 281.666718 
L 269.945723 282.87362 
L 271.913429 283.024482 
L 273.881135 283.024482 
L 275.848841 289.058992 
L 277.816547 294.188326 
L 279.784253 294.490051 
L 283.719665 299.166796 
L 285.687371 298.412482 
L 287.655077 299.770247 
L 289.622783 300.977149 
L 291.590489 299.770247 
L 293.558195 300.977149 
L 295.525901 302.334914 
L 297.493607 302.787502 
L 299.461313 305.503032 
L 301.429018 306.257345 
L 303.396724 305.201306 
L 305.36443 306.860796 
L 307.332136 307.61511 
L 309.299842 307.61511 
L 311.267548 308.067698 
L 313.235254 308.369424 
L 315.20296 307.765973 
L 317.170666 309.123737 
L 319.138372 308.972875 
L 321.106078 309.123737 
L 323.073784 309.727188 
L 325.04149 309.878051 
L 327.009196 311.084953 
L 330.944608 311.688404 
L 334.880019 312.895306 
L 336.847725 313.347894 
L 340.783137 313.046169 
L 344.718549 312.442718 
L 346.686255 312.593581 
L 348.653961 312.140992 
L 350.621667 312.140992 
L 352.589373 312.442718 
L 354.557079 312.593581 
L 356.524785 313.197032 
L 358.492491 312.744443 
L 360.460197 312.895306 
L 362.427903 313.498757 
L 364.395609 312.593581 
L 366.363315 311.537541 
L 368.331021 312.140992 
L 370.298726 312.140992 
L 372.266432 312.593581 
L 374.234138 312.291855 
L 376.201844 311.386679 
L 378.16955 311.99013 
L 380.137256 313.347894 
L 382.104962 312.895306 
L 384.072668 312.140992 
L 386.040374 312.140992 
L 388.00808 311.235816 
L 389.975786 310.179777 
L 391.943492 309.878051 
L 393.911198 308.972875 
L 395.878904 308.369424 
L 401.782022 308.369424 
L 403.749727 309.878051 
L 405.717433 310.028914 
L 407.685139 310.028914 
L 409.652845 310.632365 
L 411.620551 311.386679 
L 413.588257 311.386679 
L 415.555963 311.839267 
L 417.523669 310.783228 
L 419.491375 311.386679 
L 421.459081 311.537541 
L 423.426787 310.632365 
L 425.394493 309.878051 
L 427.362199 309.727188 
L 429.329905 308.671149 
L 431.297611 308.369424 
L 433.265317 307.61511 
L 435.233023 307.916835 
L 439.168434 307.011659 
L 441.13614 306.709933 
L 445.071552 307.313384 
L 447.039258 306.257345 
L 449.006964 304.597855 
L 450.97467 303.843541 
L 452.942376 303.692679 
L 454.910082 303.089228 
L 456.877788 303.390953 
L 458.845494 303.994404 
L 460.8132 303.994404 
L 462.780906 305.352169 
L 464.748612 306.559071 
L 466.716318 307.61511 
L 468.684024 308.218561 
L 470.651729 308.520286 
L 472.619435 307.162522 
L 474.587141 306.860796 
L 476.554847 305.503032 
L 478.522553 304.597855 
L 480.490259 301.882326 
L 482.457965 300.826286 
L 484.425671 300.675424 
L 486.393377 300.977149 
L 488.361083 301.128012 
L 492.296495 301.128012 
L 494.264201 301.5806 
L 496.231907 302.787502 
L 498.199613 302.636639 
L 500.167319 302.334914 
L 502.135025 302.334914 
L 504.102731 302.033188 
L 506.070436 303.390953 
L 508.038142 303.843541 
L 510.005848 300.826286 
L 511.973554 300.826286 
L 513.94126 300.373698 
L 515.908966 300.071973 
L 517.876672 299.166796 
L 519.844378 294.339188 
L 521.812084 291.925384 
L 523.77979 290.56762 
L 525.747496 284.683973 
L 527.715202 279.856365 
L 529.682908 271.709776 
L 531.650614 265.222678 
L 533.61832 261.903698 
L 537.553732 249.985541 
L 539.521437 244.554482 
L 541.489143 242.593267 
L 541.489143 242.593267 
" style="fill:none;stroke:#8c564b;stroke-linecap:square;stroke-width:1.75;"/>
   </g>
   <g id="line2d_24">
    <path clip-path="url(#p29c62b9ba2)" d="M 126.30319 315.18344 
L 128.270896 315.600817 
L 130.238602 314.974752 
L 132.206307 314.139997 
L 134.174013 312.679177 
L 136.141719 311.844423 
L 138.109425 312.2618 
L 140.077131 309.966226 
L 142.044837 307.461964 
L 145.980249 299.114421 
L 147.947955 298.070978 
L 149.915661 294.523273 
L 153.851073 288.262616 
L 155.818779 281.375894 
L 159.754191 271.358843 
L 161.721897 262.802612 
L 163.689603 261.550481 
L 165.657308 254.663759 
L 167.625014 253.202939 
L 169.59272 248.403102 
L 171.560426 242.768511 
L 173.528132 239.220805 
L 175.495838 241.099002 
L 177.463544 236.299166 
L 179.43125 230.038509 
L 181.398956 216.682441 
L 183.366662 216.056376 
L 185.334368 213.343424 
L 187.302074 212.926047 
L 189.26978 215.012933 
L 191.237486 220.647524 
L 195.172898 239.638182 
L 197.140604 243.603265 
L 199.108309 254.246381 
L 201.076015 260.924415 
L 203.043721 261.550481 
L 205.011427 261.75917 
L 206.979133 264.680809 
L 208.946839 266.559006 
L 210.914545 268.228515 
L 214.849957 267.393761 
L 218.785369 261.133104 
L 220.753075 257.168021 
L 222.720781 254.037693 
L 224.688487 254.246381 
L 226.656193 244.646708 
L 228.623899 239.429494 
L 230.591605 237.551297 
L 232.559311 242.559822 
L 234.527016 248.403102 
L 236.494722 256.750644 
L 238.462428 257.585398 
L 240.430134 268.645892 
L 242.39784 274.280483 
L 244.365546 282.419337 
L 246.333252 284.714911 
L 248.300958 284.923599 
L 250.268664 284.714911 
L 252.23637 290.975568 
L 254.204076 294.314584 
L 256.171782 299.114421 
L 258.139488 301.201307 
L 260.107194 299.114421 
L 262.0749 299.531798 
L 264.042606 300.575241 
L 266.010312 298.905733 
L 267.978017 299.531798 
L 269.945723 301.409995 
L 271.913429 296.818847 
L 273.881135 298.279667 
L 275.848841 298.697044 
L 277.816547 301.201307 
L 279.784253 303.914258 
L 281.751959 304.749012 
L 283.719665 303.914258 
L 285.687371 309.131472 
L 287.655077 308.922783 
L 289.622783 309.340161 
L 291.590489 308.922783 
L 293.558195 306.209832 
L 295.525901 306.209832 
L 297.493607 307.044586 
L 299.461313 307.253275 
L 301.429018 308.714095 
L 303.396724 308.505406 
L 305.36443 309.131472 
L 307.332136 310.80098 
L 309.299842 312.2618 
L 311.267548 312.053112 
L 313.235254 312.2618 
L 315.20296 312.053112 
L 317.170666 312.679177 
L 319.138372 311.635735 
L 321.106078 312.470489 
L 323.073784 312.053112 
L 325.04149 312.2618 
L 327.009196 311.218358 
L 328.976902 311.009669 
L 330.944608 311.009669 
L 332.912314 311.844423 
L 336.847725 311.844423 
L 338.815431 312.887866 
L 340.783137 312.887866 
L 342.750843 312.679177 
L 344.718549 312.887866 
L 346.686255 312.470489 
L 348.653961 311.218358 
L 350.621667 310.592292 
L 352.589373 310.174915 
L 354.557079 311.218358 
L 356.524785 311.844423 
L 358.492491 310.80098 
L 360.460197 308.922783 
L 362.427903 310.383603 
L 364.395609 311.635735 
L 366.363315 311.218358 
L 368.331021 311.009669 
L 370.298726 310.383603 
L 372.266432 311.009669 
L 374.234138 312.053112 
L 376.201844 311.635735 
L 378.16955 309.548849 
L 380.137256 308.088029 
L 382.104962 305.583767 
L 384.072668 305.166389 
L 386.040374 305.375078 
L 388.00808 305.166389 
L 389.975786 304.749012 
L 391.943492 304.540324 
L 393.911198 305.166389 
L 395.878904 307.253275 
L 397.84661 308.296718 
L 399.814316 307.044586 
L 403.749727 305.792455 
L 405.717433 305.792455 
L 407.685139 306.209832 
L 409.652845 304.749012 
L 411.620551 303.914258 
L 413.588257 304.749012 
L 417.523669 305.583767 
L 419.491375 307.253275 
L 421.459081 305.375078 
L 423.426787 305.166389 
L 425.394493 304.749012 
L 427.362199 304.957701 
L 429.329905 304.122947 
L 431.297611 304.122947 
L 433.265317 302.870815 
L 435.233023 304.957701 
L 437.200728 304.749012 
L 439.168434 306.001144 
L 441.13614 306.209832 
L 443.103846 307.670652 
L 445.071552 308.505406 
L 447.039258 308.714095 
L 449.006964 309.131472 
L 450.97467 311.427046 
L 452.942376 310.592292 
L 454.910082 309.966226 
L 456.877788 310.80098 
L 458.845494 311.427046 
L 460.8132 312.679177 
L 462.780906 310.80098 
L 464.748612 310.174915 
L 468.684024 311.844423 
L 470.651729 310.592292 
L 472.619435 309.131472 
L 474.587141 306.209832 
L 476.554847 306.835898 
L 478.522553 305.792455 
L 480.490259 304.540324 
L 482.457965 302.24475 
L 484.425671 298.905733 
L 486.393377 298.697044 
L 488.361083 299.114421 
L 490.328789 299.32311 
L 492.296495 299.949175 
L 494.264201 299.740487 
L 496.231907 298.488356 
L 498.199613 300.78393 
L 500.167319 299.32311 
L 502.135025 299.531798 
L 504.102731 297.444913 
L 506.070436 294.523273 
L 508.038142 293.47983 
L 510.005848 291.601633 
L 511.973554 288.262616 
L 513.94126 283.254091 
L 515.908966 279.706385 
L 517.876672 274.280483 
L 519.844378 269.898023 
L 521.812084 265.932941 
L 523.77979 264.054744 
L 525.747496 259.046218 
L 527.715202 255.081136 
L 529.682908 246.316216 
L 531.650614 244.020642 
L 533.61832 239.429494 
L 535.586026 233.377526 
L 537.553732 226.908181 
L 539.521437 217.099818 
L 541.489143 216.265064 
L 541.489143 216.265064 
" style="fill:none;stroke:#e377c2;stroke-linecap:square;stroke-width:1.75;"/>
   </g>
   <g id="patch_3">
    <path d="M 43.561155 331.102246 
L 43.561155 26.8 
" style="fill:none;stroke:#000000;stroke-linecap:square;stroke-linejoin:miter;stroke-width:0.8;"/>
   </g>
   <g id="patch_4">
    <path d="M 565.2 331.102246 
L 565.2 26.8 
" style="fill:none;stroke:#000000;stroke-linecap:square;stroke-linejoin:miter;stroke-width:0.8;"/>
   </g>
   <g id="patch_5">
    <path d="M 43.561155 331.102246 
L 565.2 331.102246 
" style="fill:none;stroke:#000000;stroke-linecap:square;stroke-linejoin:miter;stroke-width:0.8;"/>
   </g>
   <g id="patch_6">
    <path d="M 43.561155 26.8 
L 565.2 26.8 
" style="fill:none;stroke:#000000;stroke-linecap:square;stroke-linejoin:miter;stroke-width:0.8;"/>
   </g>
   <g id="text_19">
    <!-- New Cases per Million (7 day rolling) -->
    <defs>
     <path d="M 9.8125 72.90625 
L 23.09375 72.90625 
L 55.421875 11.921875 
L 55.421875 72.90625 
L 64.984375 72.90625 
L 64.984375 0 
L 51.703125 0 
L 19.390625 60.984375 
L 19.390625 0 
L 9.8125 0 
z
" id="DejaVuSans-78"/>
     <path d="M 4.203125 54.6875 
L 13.1875 54.6875 
L 24.421875 12.015625 
L 35.59375 54.6875 
L 46.1875 54.6875 
L 57.421875 12.015625 
L 68.609375 54.6875 
L 77.59375 54.6875 
L 63.28125 0 
L 52.6875 0 
L 40.921875 44.828125 
L 29.109375 0 
L 18.5 0 
z
" id="DejaVuSans-119"/>
     <path id="DejaVuSans-32"/>
     <path d="M 64.40625 67.28125 
L 64.40625 56.890625 
Q 59.421875 61.53125 53.78125 63.8125 
Q 48.140625 66.109375 41.796875 66.109375 
Q 29.296875 66.109375 22.65625 58.46875 
Q 16.015625 50.828125 16.015625 36.375 
Q 16.015625 21.96875 22.65625 14.328125 
Q 29.296875 6.6875 41.796875 6.6875 
Q 48.140625 6.6875 53.78125 8.984375 
Q 59.421875 11.28125 64.40625 15.921875 
L 64.40625 5.609375 
Q 59.234375 2.09375 53.4375 0.328125 
Q 47.65625 -1.421875 41.21875 -1.421875 
Q 24.65625 -1.421875 15.125 8.703125 
Q 5.609375 18.84375 5.609375 36.375 
Q 5.609375 53.953125 15.125 64.078125 
Q 24.65625 74.21875 41.21875 74.21875 
Q 47.75 74.21875 53.53125 72.484375 
Q 59.328125 70.75 64.40625 67.28125 
z
" id="DejaVuSans-67"/>
     <path d="M 44.28125 53.078125 
L 44.28125 44.578125 
Q 40.484375 46.53125 36.375 47.5 
Q 32.28125 48.484375 27.875 48.484375 
Q 21.1875 48.484375 17.84375 46.4375 
Q 14.5 44.390625 14.5 40.28125 
Q 14.5 37.15625 16.890625 35.375 
Q 19.28125 33.59375 26.515625 31.984375 
L 29.59375 31.296875 
Q 39.15625 29.25 43.1875 25.515625 
Q 47.21875 21.78125 47.21875 15.09375 
Q 47.21875 7.46875 41.1875 3.015625 
Q 35.15625 -1.421875 24.609375 -1.421875 
Q 20.21875 -1.421875 15.453125 -0.5625 
Q 10.6875 0.296875 5.421875 2 
L 5.421875 11.28125 
Q 10.40625 8.6875 15.234375 7.390625 
Q 20.0625 6.109375 24.8125 6.109375 
Q 31.15625 6.109375 34.5625 8.28125 
Q 37.984375 10.453125 37.984375 14.40625 
Q 37.984375 18.0625 35.515625 20.015625 
Q 33.0625 21.96875 24.703125 23.78125 
L 21.578125 24.515625 
Q 13.234375 26.265625 9.515625 29.90625 
Q 5.8125 33.546875 5.8125 39.890625 
Q 5.8125 47.609375 11.28125 51.796875 
Q 16.75 56 26.8125 56 
Q 31.78125 56 36.171875 55.265625 
Q 40.578125 54.546875 44.28125 53.078125 
z
" id="DejaVuSans-115"/>
     <path d="M 18.109375 8.203125 
L 18.109375 -20.796875 
L 9.078125 -20.796875 
L 9.078125 54.6875 
L 18.109375 54.6875 
L 18.109375 46.390625 
Q 20.953125 51.265625 25.265625 53.625 
Q 29.59375 56 35.59375 56 
Q 45.5625 56 51.78125 48.09375 
Q 58.015625 40.1875 58.015625 27.296875 
Q 58.015625 14.40625 51.78125 6.484375 
Q 45.5625 -1.421875 35.59375 -1.421875 
Q 29.59375 -1.421875 25.265625 0.953125 
Q 20.953125 3.328125 18.109375 8.203125 
z
M 48.6875 27.296875 
Q 48.6875 37.203125 44.609375 42.84375 
Q 40.53125 48.484375 33.40625 48.484375 
Q 26.265625 48.484375 22.1875 42.84375 
Q 18.109375 37.203125 18.109375 27.296875 
Q 18.109375 17.390625 22.1875 11.75 
Q 26.265625 6.109375 33.40625 6.109375 
Q 40.53125 6.109375 44.609375 11.75 
Q 48.6875 17.390625 48.6875 27.296875 
z
" id="DejaVuSans-112"/>
     <path d="M 41.109375 46.296875 
Q 39.59375 47.171875 37.8125 47.578125 
Q 36.03125 48 33.890625 48 
Q 26.265625 48 22.1875 43.046875 
Q 18.109375 38.09375 18.109375 28.8125 
L 18.109375 0 
L 9.078125 0 
L 9.078125 54.6875 
L 18.109375 54.6875 
L 18.109375 46.1875 
Q 20.953125 51.171875 25.484375 53.578125 
Q 30.03125 56 36.53125 56 
Q 37.453125 56 38.578125 55.875 
Q 39.703125 55.765625 41.0625 55.515625 
z
" id="DejaVuSans-114"/>
     <path d="M 9.8125 72.90625 
L 24.515625 72.90625 
L 43.109375 23.296875 
L 61.8125 72.90625 
L 76.515625 72.90625 
L 76.515625 0 
L 66.890625 0 
L 66.890625 64.015625 
L 48.09375 14.015625 
L 38.1875 14.015625 
L 19.390625 64.015625 
L 19.390625 0 
L 9.8125 0 
z
" id="DejaVuSans-77"/>
     <path d="M 9.421875 54.6875 
L 18.40625 54.6875 
L 18.40625 0 
L 9.421875 0 
z
M 9.421875 75.984375 
L 18.40625 75.984375 
L 18.40625 64.59375 
L 9.421875 64.59375 
z
" id="DejaVuSans-105"/>
     <path d="M 9.421875 75.984375 
L 18.40625 75.984375 
L 18.40625 0 
L 9.421875 0 
z
" id="DejaVuSans-108"/>
     <path d="M 30.609375 48.390625 
Q 23.390625 48.390625 19.1875 42.75 
Q 14.984375 37.109375 14.984375 27.296875 
Q 14.984375 17.484375 19.15625 11.84375 
Q 23.34375 6.203125 30.609375 6.203125 
Q 37.796875 6.203125 41.984375 11.859375 
Q 46.1875 17.53125 46.1875 27.296875 
Q 46.1875 37.015625 41.984375 42.703125 
Q 37.796875 48.390625 30.609375 48.390625 
z
M 30.609375 56 
Q 42.328125 56 49.015625 48.375 
Q 55.71875 40.765625 55.71875 27.296875 
Q 55.71875 13.875 49.015625 6.21875 
Q 42.328125 -1.421875 30.609375 -1.421875 
Q 18.84375 -1.421875 12.171875 6.21875 
Q 5.515625 13.875 5.515625 27.296875 
Q 5.515625 40.765625 12.171875 48.375 
Q 18.84375 56 30.609375 56 
z
" id="DejaVuSans-111"/>
     <path d="M 54.890625 33.015625 
L 54.890625 0 
L 45.90625 0 
L 45.90625 32.71875 
Q 45.90625 40.484375 42.875 44.328125 
Q 39.84375 48.1875 33.796875 48.1875 
Q 26.515625 48.1875 22.3125 43.546875 
Q 18.109375 38.921875 18.109375 30.90625 
L 18.109375 0 
L 9.078125 0 
L 9.078125 54.6875 
L 18.109375 54.6875 
L 18.109375 46.1875 
Q 21.34375 51.125 25.703125 53.5625 
Q 30.078125 56 35.796875 56 
Q 45.21875 56 50.046875 50.171875 
Q 54.890625 44.34375 54.890625 33.015625 
z
" id="DejaVuSans-110"/>
     <path d="M 31 75.875 
Q 24.46875 64.65625 21.28125 53.65625 
Q 18.109375 42.671875 18.109375 31.390625 
Q 18.109375 20.125 21.3125 9.0625 
Q 24.515625 -2 31 -13.1875 
L 23.1875 -13.1875 
Q 15.875 -1.703125 12.234375 9.375 
Q 8.59375 20.453125 8.59375 31.390625 
Q 8.59375 42.28125 12.203125 53.3125 
Q 15.828125 64.359375 23.1875 75.875 
z
" id="DejaVuSans-40"/>
     <path d="M 45.40625 46.390625 
L 45.40625 75.984375 
L 54.390625 75.984375 
L 54.390625 0 
L 45.40625 0 
L 45.40625 8.203125 
Q 42.578125 3.328125 38.25 0.953125 
Q 33.9375 -1.421875 27.875 -1.421875 
Q 17.96875 -1.421875 11.734375 6.484375 
Q 5.515625 14.40625 5.515625 27.296875 
Q 5.515625 40.1875 11.734375 48.09375 
Q 17.96875 56 27.875 56 
Q 33.9375 56 38.25 53.625 
Q 42.578125 51.265625 45.40625 46.390625 
z
M 14.796875 27.296875 
Q 14.796875 17.390625 18.875 11.75 
Q 22.953125 6.109375 30.078125 6.109375 
Q 37.203125 6.109375 41.296875 11.75 
Q 45.40625 17.390625 45.40625 27.296875 
Q 45.40625 37.203125 41.296875 42.84375 
Q 37.203125 48.484375 30.078125 48.484375 
Q 22.953125 48.484375 18.875 42.84375 
Q 14.796875 37.203125 14.796875 27.296875 
z
" id="DejaVuSans-100"/>
     <path d="M 32.171875 -5.078125 
Q 28.375 -14.84375 24.75 -17.8125 
Q 21.140625 -20.796875 15.09375 -20.796875 
L 7.90625 -20.796875 
L 7.90625 -13.28125 
L 13.1875 -13.28125 
Q 16.890625 -13.28125 18.9375 -11.515625 
Q 21 -9.765625 23.484375 -3.21875 
L 25.09375 0.875 
L 2.984375 54.6875 
L 12.5 54.6875 
L 29.59375 11.921875 
L 46.6875 54.6875 
L 56.203125 54.6875 
z
" id="DejaVuSans-121"/>
     <path d="M 45.40625 27.984375 
Q 45.40625 37.75 41.375 43.109375 
Q 37.359375 48.484375 30.078125 48.484375 
Q 22.859375 48.484375 18.828125 43.109375 
Q 14.796875 37.75 14.796875 27.984375 
Q 14.796875 18.265625 18.828125 12.890625 
Q 22.859375 7.515625 30.078125 7.515625 
Q 37.359375 7.515625 41.375 12.890625 
Q 45.40625 18.265625 45.40625 27.984375 
z
M 54.390625 6.78125 
Q 54.390625 -7.171875 48.1875 -13.984375 
Q 42 -20.796875 29.203125 -20.796875 
Q 24.46875 -20.796875 20.265625 -20.09375 
Q 16.0625 -19.390625 12.109375 -17.921875 
L 12.109375 -9.1875 
Q 16.0625 -11.328125 19.921875 -12.34375 
Q 23.78125 -13.375 27.78125 -13.375 
Q 36.625 -13.375 41.015625 -8.765625 
Q 45.40625 -4.15625 45.40625 5.171875 
L 45.40625 9.625 
Q 42.625 4.78125 38.28125 2.390625 
Q 33.9375 0 27.875 0 
Q 17.828125 0 11.671875 7.65625 
Q 5.515625 15.328125 5.515625 27.984375 
Q 5.515625 40.671875 11.671875 48.328125 
Q 17.828125 56 27.875 56 
Q 33.9375 56 38.28125 53.609375 
Q 42.625 51.21875 45.40625 46.390625 
L 45.40625 54.6875 
L 54.390625 54.6875 
z
" id="DejaVuSans-103"/>
     <path d="M 8.015625 75.875 
L 15.828125 75.875 
Q 23.140625 64.359375 26.78125 53.3125 
Q 30.421875 42.28125 30.421875 31.390625 
Q 30.421875 20.453125 26.78125 9.375 
Q 23.140625 -1.703125 15.828125 -13.1875 
L 8.015625 -13.1875 
Q 14.5 -2 17.703125 9.0625 
Q 20.90625 20.125 20.90625 31.390625 
Q 20.90625 42.671875 17.703125 53.65625 
Q 14.5 64.65625 8.015625 75.875 
z
" id="DejaVuSans-41"/>
    </defs>
    <g transform="translate(194.604952 20.8)scale(0.12 -0.12)">
     <use xlink:href="#DejaVuSans-78"/>
     <use x="74.804688" xlink:href="#DejaVuSans-101"/>
     <use x="136.328125" xlink:href="#DejaVuSans-119"/>
     <use x="218.115234" xlink:href="#DejaVuSans-32"/>
     <use x="249.902344" xlink:href="#DejaVuSans-67"/>
     <use x="319.726562" xlink:href="#DejaVuSans-97"/>
     <use x="381.005859" xlink:href="#DejaVuSans-115"/>
     <use x="433.105469" xlink:href="#DejaVuSans-101"/>
     <use x="494.628906" xlink:href="#DejaVuSans-115"/>
     <use x="546.728516" xlink:href="#DejaVuSans-32"/>
     <use x="578.515625" xlink:href="#DejaVuSans-112"/>
     <use x="641.992188" xlink:href="#DejaVuSans-101"/>
     <use x="703.515625" xlink:href="#DejaVuSans-114"/>
     <use x="744.628906" xlink:href="#DejaVuSans-32"/>
     <use x="776.416016" xlink:href="#DejaVuSans-77"/>
     <use x="862.695312" xlink:href="#DejaVuSans-105"/>
     <use x="890.478516" xlink:href="#DejaVuSans-108"/>
     <use x="918.261719" xlink:href="#DejaVuSans-108"/>
     <use x="946.044922" xlink:href="#DejaVuSans-105"/>
     <use x="973.828125" xlink:href="#DejaVuSans-111"/>
     <use x="1035.009766" xlink:href="#DejaVuSans-110"/>
     <use x="1098.388672" xlink:href="#DejaVuSans-32"/>
     <use x="1130.175781" xlink:href="#DejaVuSans-40"/>
     <use x="1169.189453" xlink:href="#DejaVuSans-55"/>
     <use x="1232.8125" xlink:href="#DejaVuSans-32"/>
     <use x="1264.599609" xlink:href="#DejaVuSans-100"/>
     <use x="1328.076172" xlink:href="#DejaVuSans-97"/>
     <use x="1389.355469" xlink:href="#DejaVuSans-121"/>
     <use x="1448.535156" xlink:href="#DejaVuSans-32"/>
     <use x="1480.322266" xlink:href="#DejaVuSans-114"/>
     <use x="1519.185547" xlink:href="#DejaVuSans-111"/>
     <use x="1580.367188" xlink:href="#DejaVuSans-108"/>
     <use x="1608.150391" xlink:href="#DejaVuSans-108"/>
     <use x="1635.933594" xlink:href="#DejaVuSans-105"/>
     <use x="1663.716797" xlink:href="#DejaVuSans-110"/>
     <use x="1727.095703" xlink:href="#DejaVuSans-103"/>
     <use x="1790.572266" xlink:href="#DejaVuSans-41"/>
    </g>
   </g>
   <g id="legend_1">
    <g id="patch_7">
     <path d="M 50.561155 137.546875 
L 218.197092 137.546875 
Q 220.197092 137.546875 220.197092 135.546875 
L 220.197092 33.8 
Q 220.197092 31.8 218.197092 31.8 
L 50.561155 31.8 
Q 48.561155 31.8 48.561155 33.8 
L 48.561155 135.546875 
Q 48.561155 137.546875 50.561155 137.546875 
z
" style="fill:#ffffff;opacity:0.8;stroke:#cccccc;stroke-linejoin:miter;stroke-width:0.3;"/>
    </g>
    <g id="line2d_25">
     <path d="M 52.561155 39.898438 
L 72.561155 39.898438 
" style="fill:none;stroke:#1f77b4;stroke-linecap:square;stroke-width:1.75;"/>
    </g>
    <g id="line2d_26"/>
    <g id="text_20">
     <!-- Cheshire West and Chester -->
     <defs>
      <path d="M 54.890625 33.015625 
L 54.890625 0 
L 45.90625 0 
L 45.90625 32.71875 
Q 45.90625 40.484375 42.875 44.328125 
Q 39.84375 48.1875 33.796875 48.1875 
Q 26.515625 48.1875 22.3125 43.546875 
Q 18.109375 38.921875 18.109375 30.90625 
L 18.109375 0 
L 9.078125 0 
L 9.078125 75.984375 
L 18.109375 75.984375 
L 18.109375 46.1875 
Q 21.34375 51.125 25.703125 53.5625 
Q 30.078125 56 35.796875 56 
Q 45.21875 56 50.046875 50.171875 
Q 54.890625 44.34375 54.890625 33.015625 
z
" id="DejaVuSans-104"/>
      <path d="M 3.328125 72.90625 
L 13.28125 72.90625 
L 28.609375 11.28125 
L 43.890625 72.90625 
L 54.984375 72.90625 
L 70.3125 11.28125 
L 85.59375 72.90625 
L 95.609375 72.90625 
L 77.296875 0 
L 64.890625 0 
L 49.515625 63.28125 
L 33.984375 0 
L 21.578125 0 
z
" id="DejaVuSans-87"/>
     </defs>
     <g transform="translate(80.561155 43.398438)scale(0.1 -0.1)">
      <use xlink:href="#DejaVuSans-67"/>
      <use x="69.824219" xlink:href="#DejaVuSans-104"/>
      <use x="133.203125" xlink:href="#DejaVuSans-101"/>
      <use x="194.726562" xlink:href="#DejaVuSans-115"/>
      <use x="246.826172" xlink:href="#DejaVuSans-104"/>
      <use x="310.205078" xlink:href="#DejaVuSans-105"/>
      <use x="337.988281" xlink:href="#DejaVuSans-114"/>
      <use x="376.851562" xlink:href="#DejaVuSans-101"/>
      <use x="438.375" xlink:href="#DejaVuSans-32"/>
      <use x="470.162109" xlink:href="#DejaVuSans-87"/>
      <use x="563.164062" xlink:href="#DejaVuSans-101"/>
      <use x="624.6875" xlink:href="#DejaVuSans-115"/>
      <use x="676.787109" xlink:href="#DejaVuSans-116"/>
      <use x="715.996094" xlink:href="#DejaVuSans-32"/>
      <use x="747.783203" xlink:href="#DejaVuSans-97"/>
      <use x="809.0625" xlink:href="#DejaVuSans-110"/>
      <use x="872.441406" xlink:href="#DejaVuSans-100"/>
      <use x="935.917969" xlink:href="#DejaVuSans-32"/>
      <use x="967.705078" xlink:href="#DejaVuSans-67"/>
      <use x="1037.529297" xlink:href="#DejaVuSans-104"/>
      <use x="1100.908203" xlink:href="#DejaVuSans-101"/>
      <use x="1162.431641" xlink:href="#DejaVuSans-115"/>
      <use x="1214.53125" xlink:href="#DejaVuSans-116"/>
      <use x="1253.740234" xlink:href="#DejaVuSans-101"/>
      <use x="1315.263672" xlink:href="#DejaVuSans-114"/>
     </g>
    </g>
    <g id="line2d_27">
     <path d="M 52.561155 54.576563 
L 72.561155 54.576563 
" style="fill:none;stroke:#ff7f0e;stroke-linecap:square;stroke-width:1.75;"/>
    </g>
    <g id="line2d_28"/>
    <g id="text_21">
     <!-- Leicester -->
     <defs>
      <path d="M 9.8125 72.90625 
L 19.671875 72.90625 
L 19.671875 8.296875 
L 55.171875 8.296875 
L 55.171875 0 
L 9.8125 0 
z
" id="DejaVuSans-76"/>
      <path d="M 48.78125 52.59375 
L 48.78125 44.1875 
Q 44.96875 46.296875 41.140625 47.34375 
Q 37.3125 48.390625 33.40625 48.390625 
Q 24.65625 48.390625 19.8125 42.84375 
Q 14.984375 37.3125 14.984375 27.296875 
Q 14.984375 17.28125 19.8125 11.734375 
Q 24.65625 6.203125 33.40625 6.203125 
Q 37.3125 6.203125 41.140625 7.25 
Q 44.96875 8.296875 48.78125 10.40625 
L 48.78125 2.09375 
Q 45.015625 0.34375 40.984375 -0.53125 
Q 36.96875 -1.421875 32.421875 -1.421875 
Q 20.0625 -1.421875 12.78125 6.34375 
Q 5.515625 14.109375 5.515625 27.296875 
Q 5.515625 40.671875 12.859375 48.328125 
Q 20.21875 56 33.015625 56 
Q 37.15625 56 41.109375 55.140625 
Q 45.0625 54.296875 48.78125 52.59375 
z
" id="DejaVuSans-99"/>
     </defs>
     <g transform="translate(80.561155 58.076563)scale(0.1 -0.1)">
      <use xlink:href="#DejaVuSans-76"/>
      <use x="53.962891" xlink:href="#DejaVuSans-101"/>
      <use x="115.486328" xlink:href="#DejaVuSans-105"/>
      <use x="143.269531" xlink:href="#DejaVuSans-99"/>
      <use x="198.25" xlink:href="#DejaVuSans-101"/>
      <use x="259.773438" xlink:href="#DejaVuSans-115"/>
      <use x="311.873047" xlink:href="#DejaVuSans-116"/>
      <use x="351.082031" xlink:href="#DejaVuSans-101"/>
      <use x="412.605469" xlink:href="#DejaVuSans-114"/>
     </g>
    </g>
    <g id="line2d_29">
     <path d="M 52.561155 69.254688 
L 72.561155 69.254688 
" style="fill:none;stroke:#2ca02c;stroke-linecap:square;stroke-width:1.75;"/>
    </g>
    <g id="line2d_30"/>
    <g id="text_22">
     <!-- Northumberland -->
     <defs>
      <path d="M 8.5 21.578125 
L 8.5 54.6875 
L 17.484375 54.6875 
L 17.484375 21.921875 
Q 17.484375 14.15625 20.5 10.265625 
Q 23.53125 6.390625 29.59375 6.390625 
Q 36.859375 6.390625 41.078125 11.03125 
Q 45.3125 15.671875 45.3125 23.6875 
L 45.3125 54.6875 
L 54.296875 54.6875 
L 54.296875 0 
L 45.3125 0 
L 45.3125 8.40625 
Q 42.046875 3.421875 37.71875 1 
Q 33.40625 -1.421875 27.6875 -1.421875 
Q 18.265625 -1.421875 13.375 4.4375 
Q 8.5 10.296875 8.5 21.578125 
z
M 31.109375 56 
z
" id="DejaVuSans-117"/>
      <path d="M 52 44.1875 
Q 55.375 50.25 60.0625 53.125 
Q 64.75 56 71.09375 56 
Q 79.640625 56 84.28125 50.015625 
Q 88.921875 44.046875 88.921875 33.015625 
L 88.921875 0 
L 79.890625 0 
L 79.890625 32.71875 
Q 79.890625 40.578125 77.09375 44.375 
Q 74.3125 48.1875 68.609375 48.1875 
Q 61.625 48.1875 57.5625 43.546875 
Q 53.515625 38.921875 53.515625 30.90625 
L 53.515625 0 
L 44.484375 0 
L 44.484375 32.71875 
Q 44.484375 40.625 41.703125 44.40625 
Q 38.921875 48.1875 33.109375 48.1875 
Q 26.21875 48.1875 22.15625 43.53125 
Q 18.109375 38.875 18.109375 30.90625 
L 18.109375 0 
L 9.078125 0 
L 9.078125 54.6875 
L 18.109375 54.6875 
L 18.109375 46.1875 
Q 21.1875 51.21875 25.484375 53.609375 
Q 29.78125 56 35.6875 56 
Q 41.65625 56 45.828125 52.96875 
Q 50 49.953125 52 44.1875 
z
" id="DejaVuSans-109"/>
      <path d="M 48.6875 27.296875 
Q 48.6875 37.203125 44.609375 42.84375 
Q 40.53125 48.484375 33.40625 48.484375 
Q 26.265625 48.484375 22.1875 42.84375 
Q 18.109375 37.203125 18.109375 27.296875 
Q 18.109375 17.390625 22.1875 11.75 
Q 26.265625 6.109375 33.40625 6.109375 
Q 40.53125 6.109375 44.609375 11.75 
Q 48.6875 17.390625 48.6875 27.296875 
z
M 18.109375 46.390625 
Q 20.953125 51.265625 25.265625 53.625 
Q 29.59375 56 35.59375 56 
Q 45.5625 56 51.78125 48.09375 
Q 58.015625 40.1875 58.015625 27.296875 
Q 58.015625 14.40625 51.78125 6.484375 
Q 45.5625 -1.421875 35.59375 -1.421875 
Q 29.59375 -1.421875 25.265625 0.953125 
Q 20.953125 3.328125 18.109375 8.203125 
L 18.109375 0 
L 9.078125 0 
L 9.078125 75.984375 
L 18.109375 75.984375 
z
" id="DejaVuSans-98"/>
     </defs>
     <g transform="translate(80.561155 72.754688)scale(0.1 -0.1)">
      <use xlink:href="#DejaVuSans-78"/>
      <use x="74.804688" xlink:href="#DejaVuSans-111"/>
      <use x="135.986328" xlink:href="#DejaVuSans-114"/>
      <use x="177.099609" xlink:href="#DejaVuSans-116"/>
      <use x="216.308594" xlink:href="#DejaVuSans-104"/>
      <use x="279.6875" xlink:href="#DejaVuSans-117"/>
      <use x="343.066406" xlink:href="#DejaVuSans-109"/>
      <use x="440.478516" xlink:href="#DejaVuSans-98"/>
      <use x="503.955078" xlink:href="#DejaVuSans-101"/>
      <use x="565.478516" xlink:href="#DejaVuSans-114"/>
      <use x="606.591797" xlink:href="#DejaVuSans-108"/>
      <use x="634.375" xlink:href="#DejaVuSans-97"/>
      <use x="695.654297" xlink:href="#DejaVuSans-110"/>
      <use x="759.033203" xlink:href="#DejaVuSans-100"/>
     </g>
    </g>
    <g id="line2d_31">
     <path d="M 52.561155 83.932813 
L 72.561155 83.932813 
" style="fill:none;stroke:#d62728;stroke-linecap:square;stroke-width:1.75;"/>
    </g>
    <g id="line2d_32"/>
    <g id="text_23">
     <!-- North Yorkshire -->
     <defs>
      <path d="M -0.203125 72.90625 
L 10.40625 72.90625 
L 30.609375 42.921875 
L 50.6875 72.90625 
L 61.28125 72.90625 
L 35.5 34.71875 
L 35.5 0 
L 25.59375 0 
L 25.59375 34.71875 
z
" id="DejaVuSans-89"/>
      <path d="M 9.078125 75.984375 
L 18.109375 75.984375 
L 18.109375 31.109375 
L 44.921875 54.6875 
L 56.390625 54.6875 
L 27.390625 29.109375 
L 57.625 0 
L 45.90625 0 
L 18.109375 26.703125 
L 18.109375 0 
L 9.078125 0 
z
" id="DejaVuSans-107"/>
     </defs>
     <g transform="translate(80.561155 87.432813)scale(0.1 -0.1)">
      <use xlink:href="#DejaVuSans-78"/>
      <use x="74.804688" xlink:href="#DejaVuSans-111"/>
      <use x="135.986328" xlink:href="#DejaVuSans-114"/>
      <use x="177.099609" xlink:href="#DejaVuSans-116"/>
      <use x="216.308594" xlink:href="#DejaVuSans-104"/>
      <use x="279.6875" xlink:href="#DejaVuSans-32"/>
      <use x="311.474609" xlink:href="#DejaVuSans-89"/>
      <use x="359.308594" xlink:href="#DejaVuSans-111"/>
      <use x="420.490234" xlink:href="#DejaVuSans-114"/>
      <use x="461.603516" xlink:href="#DejaVuSans-107"/>
      <use x="519.513672" xlink:href="#DejaVuSans-115"/>
      <use x="571.613281" xlink:href="#DejaVuSans-104"/>
      <use x="634.992188" xlink:href="#DejaVuSans-105"/>
      <use x="662.775391" xlink:href="#DejaVuSans-114"/>
      <use x="701.638672" xlink:href="#DejaVuSans-101"/>
     </g>
    </g>
    <g id="line2d_33">
     <path d="M 52.561155 98.610938 
L 72.561155 98.610938 
" style="fill:none;stroke:#9467bd;stroke-linecap:square;stroke-width:1.75;"/>
    </g>
    <g id="line2d_34"/>
    <g id="text_24">
     <!-- Wirral -->
     <g transform="translate(80.561155 102.110938)scale(0.1 -0.1)">
      <use xlink:href="#DejaVuSans-87"/>
      <use x="96.626953" xlink:href="#DejaVuSans-105"/>
      <use x="124.410156" xlink:href="#DejaVuSans-114"/>
      <use x="163.773438" xlink:href="#DejaVuSans-114"/>
      <use x="204.886719" xlink:href="#DejaVuSans-97"/>
      <use x="266.166016" xlink:href="#DejaVuSans-108"/>
     </g>
    </g>
    <g id="line2d_35">
     <path d="M 52.561155 113.289063 
L 72.561155 113.289063 
" style="fill:none;stroke:#8c564b;stroke-linecap:square;stroke-width:1.75;"/>
    </g>
    <g id="line2d_36"/>
    <g id="text_25">
     <!-- Oxfordshire -->
     <defs>
      <path d="M 39.40625 66.21875 
Q 28.65625 66.21875 22.328125 58.203125 
Q 16.015625 50.203125 16.015625 36.375 
Q 16.015625 22.609375 22.328125 14.59375 
Q 28.65625 6.59375 39.40625 6.59375 
Q 50.140625 6.59375 56.421875 14.59375 
Q 62.703125 22.609375 62.703125 36.375 
Q 62.703125 50.203125 56.421875 58.203125 
Q 50.140625 66.21875 39.40625 66.21875 
z
M 39.40625 74.21875 
Q 54.734375 74.21875 63.90625 63.9375 
Q 73.09375 53.65625 73.09375 36.375 
Q 73.09375 19.140625 63.90625 8.859375 
Q 54.734375 -1.421875 39.40625 -1.421875 
Q 24.03125 -1.421875 14.8125 8.828125 
Q 5.609375 19.09375 5.609375 36.375 
Q 5.609375 53.65625 14.8125 63.9375 
Q 24.03125 74.21875 39.40625 74.21875 
z
" id="DejaVuSans-79"/>
      <path d="M 54.890625 54.6875 
L 35.109375 28.078125 
L 55.90625 0 
L 45.3125 0 
L 29.390625 21.484375 
L 13.484375 0 
L 2.875 0 
L 24.125 28.609375 
L 4.6875 54.6875 
L 15.28125 54.6875 
L 29.78125 35.203125 
L 44.28125 54.6875 
z
" id="DejaVuSans-120"/>
      <path d="M 37.109375 75.984375 
L 37.109375 68.5 
L 28.515625 68.5 
Q 23.6875 68.5 21.796875 66.546875 
Q 19.921875 64.59375 19.921875 59.515625 
L 19.921875 54.6875 
L 34.71875 54.6875 
L 34.71875 47.703125 
L 19.921875 47.703125 
L 19.921875 0 
L 10.890625 0 
L 10.890625 47.703125 
L 2.296875 47.703125 
L 2.296875 54.6875 
L 10.890625 54.6875 
L 10.890625 58.5 
Q 10.890625 67.625 15.140625 71.796875 
Q 19.390625 75.984375 28.609375 75.984375 
z
" id="DejaVuSans-102"/>
     </defs>
     <g transform="translate(80.561155 116.789063)scale(0.1 -0.1)">
      <use xlink:href="#DejaVuSans-79"/>
      <use x="78.710938" xlink:href="#DejaVuSans-120"/>
      <use x="137.890625" xlink:href="#DejaVuSans-102"/>
      <use x="173.095703" xlink:href="#DejaVuSans-111"/>
      <use x="234.277344" xlink:href="#DejaVuSans-114"/>
      <use x="273.640625" xlink:href="#DejaVuSans-100"/>
      <use x="337.117188" xlink:href="#DejaVuSans-115"/>
      <use x="389.216797" xlink:href="#DejaVuSans-104"/>
      <use x="452.595703" xlink:href="#DejaVuSans-105"/>
      <use x="480.378906" xlink:href="#DejaVuSans-114"/>
      <use x="519.242188" xlink:href="#DejaVuSans-101"/>
     </g>
    </g>
    <g id="line2d_37">
     <path d="M 52.561155 127.967188 
L 72.561155 127.967188 
" style="fill:none;stroke:#e377c2;stroke-linecap:square;stroke-width:1.75;"/>
    </g>
    <g id="line2d_38"/>
    <g id="text_26">
     <!-- Cumbria -->
     <g transform="translate(80.561155 131.467188)scale(0.1 -0.1)">
      <use xlink:href="#DejaVuSans-67"/>
      <use x="69.824219" xlink:href="#DejaVuSans-117"/>
      <use x="133.203125" xlink:href="#DejaVuSans-109"/>
      <use x="230.615234" xlink:href="#DejaVuSans-98"/>
      <use x="294.091797" xlink:href="#DejaVuSans-114"/>
      <use x="335.205078" xlink:href="#DejaVuSans-105"/>
      <use x="362.988281" xlink:href="#DejaVuSans-97"/>
     </g>
    </g>
   </g>
  </g>
 </g>
 <defs>
  <clipPath id="p29c62b9ba2">
   <rect height="304.302246" width="521.638845" x="43.561155" y="26.8"/>
  </clipPath>
 </defs>
</svg>
