<?xml version="1.0" encoding="utf-8" standalone="no"?>
<!DOCTYPE svg PUBLIC "-//W3C//DTD SVG 1.1//EN"
  "http://www.w3.org/Graphics/SVG/1.1/DTD/svg11.dtd">
<!-- Created with matplotlib (https://matplotlib.org/) -->
<svg height="360pt" version="1.1" viewBox="0 0 540 360" width="540pt" xmlns="http://www.w3.org/2000/svg" xmlns:xlink="http://www.w3.org/1999/xlink">
 <defs>
  <style type="text/css">
*{stroke-linecap:butt;stroke-linejoin:round;}
  </style>
 </defs>
 <g id="figure_1">
  <g id="patch_1">
   <path d="M 0 360 
L 540 360 
L 540 0 
L 0 0 
z
" style="fill:#ffffff;"/>
  </g>
  <g id="axes_1">
   <g id="patch_2">
    <path d="M 40.425 295.102246 
L 529.2 295.102246 
L 529.2 26.8 
L 40.425 26.8 
z
" style="fill:#ffffff;"/>
   </g>
   <g id="matplotlib.axis_1">
    <g id="xtick_1">
     <g id="line2d_1">
      <defs>
       <path d="M 0 0 
L 0 3.5 
" id="ma8c6293ea8" style="stroke:#000000;"/>
      </defs>
      <g>
       <use style="stroke:#000000;" x="92.639744" xlink:href="#ma8c6293ea8" y="295.102246"/>
      </g>
     </g>
     <g id="text_1">
      <!-- 2020-03 -->
      <defs>
       <path d="M 19.1875 8.296875 
L 53.609375 8.296875 
L 53.609375 0 
L 7.328125 0 
L 7.328125 8.296875 
Q 12.9375 14.109375 22.625 23.890625 
Q 32.328125 33.6875 34.8125 36.53125 
Q 39.546875 41.84375 41.421875 45.53125 
Q 43.3125 49.21875 43.3125 52.78125 
Q 43.3125 58.59375 39.234375 62.25 
Q 35.15625 65.921875 28.609375 65.921875 
Q 23.96875 65.921875 18.8125 64.3125 
Q 13.671875 62.703125 7.8125 59.421875 
L 7.8125 69.390625 
Q 13.765625 71.78125 18.9375 73 
Q 24.125 74.21875 28.421875 74.21875 
Q 39.75 74.21875 46.484375 68.546875 
Q 53.21875 62.890625 53.21875 53.421875 
Q 53.21875 48.921875 51.53125 44.890625 
Q 49.859375 40.875 45.40625 35.40625 
Q 44.1875 33.984375 37.640625 27.21875 
Q 31.109375 20.453125 19.1875 8.296875 
z
" id="DejaVuSans-50"/>
       <path d="M 31.78125 66.40625 
Q 24.171875 66.40625 20.328125 58.90625 
Q 16.5 51.421875 16.5 36.375 
Q 16.5 21.390625 20.328125 13.890625 
Q 24.171875 6.390625 31.78125 6.390625 
Q 39.453125 6.390625 43.28125 13.890625 
Q 47.125 21.390625 47.125 36.375 
Q 47.125 51.421875 43.28125 58.90625 
Q 39.453125 66.40625 31.78125 66.40625 
z
M 31.78125 74.21875 
Q 44.046875 74.21875 50.515625 64.515625 
Q 56.984375 54.828125 56.984375 36.375 
Q 56.984375 17.96875 50.515625 8.265625 
Q 44.046875 -1.421875 31.78125 -1.421875 
Q 19.53125 -1.421875 13.0625 8.265625 
Q 6.59375 17.96875 6.59375 36.375 
Q 6.59375 54.828125 13.0625 64.515625 
Q 19.53125 74.21875 31.78125 74.21875 
z
" id="DejaVuSans-48"/>
       <path d="M 4.890625 31.390625 
L 31.203125 31.390625 
L 31.203125 23.390625 
L 4.890625 23.390625 
z
" id="DejaVuSans-45"/>
       <path d="M 40.578125 39.3125 
Q 47.65625 37.796875 51.625 33 
Q 55.609375 28.21875 55.609375 21.1875 
Q 55.609375 10.40625 48.1875 4.484375 
Q 40.765625 -1.421875 27.09375 -1.421875 
Q 22.515625 -1.421875 17.65625 -0.515625 
Q 12.796875 0.390625 7.625 2.203125 
L 7.625 11.71875 
Q 11.71875 9.328125 16.59375 8.109375 
Q 21.484375 6.890625 26.8125 6.890625 
Q 36.078125 6.890625 40.9375 10.546875 
Q 45.796875 14.203125 45.796875 21.1875 
Q 45.796875 27.640625 41.28125 31.265625 
Q 36.765625 34.90625 28.71875 34.90625 
L 20.21875 34.90625 
L 20.21875 43.015625 
L 29.109375 43.015625 
Q 36.375 43.015625 40.234375 45.921875 
Q 44.09375 48.828125 44.09375 54.296875 
Q 44.09375 59.90625 40.109375 62.90625 
Q 36.140625 65.921875 28.71875 65.921875 
Q 24.65625 65.921875 20.015625 65.03125 
Q 15.375 64.15625 9.8125 62.3125 
L 9.8125 71.09375 
Q 15.4375 72.65625 20.34375 73.4375 
Q 25.25 74.21875 29.59375 74.21875 
Q 40.828125 74.21875 47.359375 69.109375 
Q 53.90625 64.015625 53.90625 55.328125 
Q 53.90625 49.265625 50.4375 45.09375 
Q 46.96875 40.921875 40.578125 39.3125 
z
" id="DejaVuSans-51"/>
      </defs>
      <g transform="translate(55.414923 333.074092)rotate(-30)scale(0.1 -0.1)">
       <use xlink:href="#DejaVuSans-50"/>
       <use x="63.623047" xlink:href="#DejaVuSans-48"/>
       <use x="127.246094" xlink:href="#DejaVuSans-50"/>
       <use x="190.869141" xlink:href="#DejaVuSans-48"/>
       <use x="254.492188" xlink:href="#DejaVuSans-45"/>
       <use x="290.576172" xlink:href="#DejaVuSans-48"/>
       <use x="354.199219" xlink:href="#DejaVuSans-51"/>
      </g>
     </g>
    </g>
    <g id="xtick_2">
     <g id="line2d_2">
      <g>
       <use style="stroke:#000000;" x="150.760285" xlink:href="#ma8c6293ea8" y="295.102246"/>
      </g>
     </g>
     <g id="text_2">
      <!-- 2020-04 -->
      <defs>
       <path d="M 37.796875 64.3125 
L 12.890625 25.390625 
L 37.796875 25.390625 
z
M 35.203125 72.90625 
L 47.609375 72.90625 
L 47.609375 25.390625 
L 58.015625 25.390625 
L 58.015625 17.1875 
L 47.609375 17.1875 
L 47.609375 0 
L 37.796875 0 
L 37.796875 17.1875 
L 4.890625 17.1875 
L 4.890625 26.703125 
z
" id="DejaVuSans-52"/>
      </defs>
      <g transform="translate(113.535464 333.074092)rotate(-30)scale(0.1 -0.1)">
       <use xlink:href="#DejaVuSans-50"/>
       <use x="63.623047" xlink:href="#DejaVuSans-48"/>
       <use x="127.246094" xlink:href="#DejaVuSans-50"/>
       <use x="190.869141" xlink:href="#DejaVuSans-48"/>
       <use x="254.492188" xlink:href="#DejaVuSans-45"/>
       <use x="290.576172" xlink:href="#DejaVuSans-48"/>
       <use x="354.199219" xlink:href="#DejaVuSans-52"/>
      </g>
     </g>
    </g>
    <g id="xtick_3">
     <g id="line2d_3">
      <g>
       <use style="stroke:#000000;" x="207.00597" xlink:href="#ma8c6293ea8" y="295.102246"/>
      </g>
     </g>
     <g id="text_3">
      <!-- 2020-05 -->
      <defs>
       <path d="M 10.796875 72.90625 
L 49.515625 72.90625 
L 49.515625 64.59375 
L 19.828125 64.59375 
L 19.828125 46.734375 
Q 21.96875 47.46875 24.109375 47.828125 
Q 26.265625 48.1875 28.421875 48.1875 
Q 40.625 48.1875 47.75 41.5 
Q 54.890625 34.8125 54.890625 23.390625 
Q 54.890625 11.625 47.5625 5.09375 
Q 40.234375 -1.421875 26.90625 -1.421875 
Q 22.3125 -1.421875 17.546875 -0.640625 
Q 12.796875 0.140625 7.71875 1.703125 
L 7.71875 11.625 
Q 12.109375 9.234375 16.796875 8.0625 
Q 21.484375 6.890625 26.703125 6.890625 
Q 35.15625 6.890625 40.078125 11.328125 
Q 45.015625 15.765625 45.015625 23.390625 
Q 45.015625 31 40.078125 35.4375 
Q 35.15625 39.890625 26.703125 39.890625 
Q 22.75 39.890625 18.8125 39.015625 
Q 14.890625 38.140625 10.796875 36.28125 
z
" id="DejaVuSans-53"/>
      </defs>
      <g transform="translate(169.781149 333.074092)rotate(-30)scale(0.1 -0.1)">
       <use xlink:href="#DejaVuSans-50"/>
       <use x="63.623047" xlink:href="#DejaVuSans-48"/>
       <use x="127.246094" xlink:href="#DejaVuSans-50"/>
       <use x="190.869141" xlink:href="#DejaVuSans-48"/>
       <use x="254.492188" xlink:href="#DejaVuSans-45"/>
       <use x="290.576172" xlink:href="#DejaVuSans-48"/>
       <use x="354.199219" xlink:href="#DejaVuSans-53"/>
      </g>
     </g>
    </g>
    <g id="xtick_4">
     <g id="line2d_4">
      <g>
       <use style="stroke:#000000;" x="265.12651" xlink:href="#ma8c6293ea8" y="295.102246"/>
      </g>
     </g>
     <g id="text_4">
      <!-- 2020-06 -->
      <defs>
       <path d="M 33.015625 40.375 
Q 26.375 40.375 22.484375 35.828125 
Q 18.609375 31.296875 18.609375 23.390625 
Q 18.609375 15.53125 22.484375 10.953125 
Q 26.375 6.390625 33.015625 6.390625 
Q 39.65625 6.390625 43.53125 10.953125 
Q 47.40625 15.53125 47.40625 23.390625 
Q 47.40625 31.296875 43.53125 35.828125 
Q 39.65625 40.375 33.015625 40.375 
z
M 52.59375 71.296875 
L 52.59375 62.3125 
Q 48.875 64.0625 45.09375 64.984375 
Q 41.3125 65.921875 37.59375 65.921875 
Q 27.828125 65.921875 22.671875 59.328125 
Q 17.53125 52.734375 16.796875 39.40625 
Q 19.671875 43.65625 24.015625 45.921875 
Q 28.375 48.1875 33.59375 48.1875 
Q 44.578125 48.1875 50.953125 41.515625 
Q 57.328125 34.859375 57.328125 23.390625 
Q 57.328125 12.15625 50.6875 5.359375 
Q 44.046875 -1.421875 33.015625 -1.421875 
Q 20.359375 -1.421875 13.671875 8.265625 
Q 6.984375 17.96875 6.984375 36.375 
Q 6.984375 53.65625 15.1875 63.9375 
Q 23.390625 74.21875 37.203125 74.21875 
Q 40.921875 74.21875 44.703125 73.484375 
Q 48.484375 72.75 52.59375 71.296875 
z
" id="DejaVuSans-54"/>
      </defs>
      <g transform="translate(227.90169 333.074092)rotate(-30)scale(0.1 -0.1)">
       <use xlink:href="#DejaVuSans-50"/>
       <use x="63.623047" xlink:href="#DejaVuSans-48"/>
       <use x="127.246094" xlink:href="#DejaVuSans-50"/>
       <use x="190.869141" xlink:href="#DejaVuSans-48"/>
       <use x="254.492188" xlink:href="#DejaVuSans-45"/>
       <use x="290.576172" xlink:href="#DejaVuSans-48"/>
       <use x="354.199219" xlink:href="#DejaVuSans-54"/>
      </g>
     </g>
    </g>
    <g id="xtick_5">
     <g id="line2d_5">
      <g>
       <use style="stroke:#000000;" x="321.372195" xlink:href="#ma8c6293ea8" y="295.102246"/>
      </g>
     </g>
     <g id="text_5">
      <!-- 2020-07 -->
      <defs>
       <path d="M 8.203125 72.90625 
L 55.078125 72.90625 
L 55.078125 68.703125 
L 28.609375 0 
L 18.3125 0 
L 43.21875 64.59375 
L 8.203125 64.59375 
z
" id="DejaVuSans-55"/>
      </defs>
      <g transform="translate(284.147374 333.074092)rotate(-30)scale(0.1 -0.1)">
       <use xlink:href="#DejaVuSans-50"/>
       <use x="63.623047" xlink:href="#DejaVuSans-48"/>
       <use x="127.246094" xlink:href="#DejaVuSans-50"/>
       <use x="190.869141" xlink:href="#DejaVuSans-48"/>
       <use x="254.492188" xlink:href="#DejaVuSans-45"/>
       <use x="290.576172" xlink:href="#DejaVuSans-48"/>
       <use x="354.199219" xlink:href="#DejaVuSans-55"/>
      </g>
     </g>
    </g>
    <g id="xtick_6">
     <g id="line2d_6">
      <g>
       <use style="stroke:#000000;" x="379.492736" xlink:href="#ma8c6293ea8" y="295.102246"/>
      </g>
     </g>
     <g id="text_6">
      <!-- 2020-08 -->
      <defs>
       <path d="M 31.78125 34.625 
Q 24.75 34.625 20.71875 30.859375 
Q 16.703125 27.09375 16.703125 20.515625 
Q 16.703125 13.921875 20.71875 10.15625 
Q 24.75 6.390625 31.78125 6.390625 
Q 38.8125 6.390625 42.859375 10.171875 
Q 46.921875 13.96875 46.921875 20.515625 
Q 46.921875 27.09375 42.890625 30.859375 
Q 38.875 34.625 31.78125 34.625 
z
M 21.921875 38.8125 
Q 15.578125 40.375 12.03125 44.71875 
Q 8.5 49.078125 8.5 55.328125 
Q 8.5 64.0625 14.71875 69.140625 
Q 20.953125 74.21875 31.78125 74.21875 
Q 42.671875 74.21875 48.875 69.140625 
Q 55.078125 64.0625 55.078125 55.328125 
Q 55.078125 49.078125 51.53125 44.71875 
Q 48 40.375 41.703125 38.8125 
Q 48.828125 37.15625 52.796875 32.3125 
Q 56.78125 27.484375 56.78125 20.515625 
Q 56.78125 9.90625 50.3125 4.234375 
Q 43.84375 -1.421875 31.78125 -1.421875 
Q 19.734375 -1.421875 13.25 4.234375 
Q 6.78125 9.90625 6.78125 20.515625 
Q 6.78125 27.484375 10.78125 32.3125 
Q 14.796875 37.15625 21.921875 38.8125 
z
M 18.3125 54.390625 
Q 18.3125 48.734375 21.84375 45.5625 
Q 25.390625 42.390625 31.78125 42.390625 
Q 38.140625 42.390625 41.71875 45.5625 
Q 45.3125 48.734375 45.3125 54.390625 
Q 45.3125 60.0625 41.71875 63.234375 
Q 38.140625 66.40625 31.78125 66.40625 
Q 25.390625 66.40625 21.84375 63.234375 
Q 18.3125 60.0625 18.3125 54.390625 
z
" id="DejaVuSans-56"/>
      </defs>
      <g transform="translate(342.267915 333.074092)rotate(-30)scale(0.1 -0.1)">
       <use xlink:href="#DejaVuSans-50"/>
       <use x="63.623047" xlink:href="#DejaVuSans-48"/>
       <use x="127.246094" xlink:href="#DejaVuSans-50"/>
       <use x="190.869141" xlink:href="#DejaVuSans-48"/>
       <use x="254.492188" xlink:href="#DejaVuSans-45"/>
       <use x="290.576172" xlink:href="#DejaVuSans-48"/>
       <use x="354.199219" xlink:href="#DejaVuSans-56"/>
      </g>
     </g>
    </g>
    <g id="xtick_7">
     <g id="line2d_7">
      <g>
       <use style="stroke:#000000;" x="437.613277" xlink:href="#ma8c6293ea8" y="295.102246"/>
      </g>
     </g>
     <g id="text_7">
      <!-- 2020-09 -->
      <defs>
       <path d="M 10.984375 1.515625 
L 10.984375 10.5 
Q 14.703125 8.734375 18.5 7.8125 
Q 22.3125 6.890625 25.984375 6.890625 
Q 35.75 6.890625 40.890625 13.453125 
Q 46.046875 20.015625 46.78125 33.40625 
Q 43.953125 29.203125 39.59375 26.953125 
Q 35.25 24.703125 29.984375 24.703125 
Q 19.046875 24.703125 12.671875 31.3125 
Q 6.296875 37.9375 6.296875 49.421875 
Q 6.296875 60.640625 12.9375 67.421875 
Q 19.578125 74.21875 30.609375 74.21875 
Q 43.265625 74.21875 49.921875 64.515625 
Q 56.59375 54.828125 56.59375 36.375 
Q 56.59375 19.140625 48.40625 8.859375 
Q 40.234375 -1.421875 26.421875 -1.421875 
Q 22.703125 -1.421875 18.890625 -0.6875 
Q 15.09375 0.046875 10.984375 1.515625 
z
M 30.609375 32.421875 
Q 37.25 32.421875 41.125 36.953125 
Q 45.015625 41.5 45.015625 49.421875 
Q 45.015625 57.28125 41.125 61.84375 
Q 37.25 66.40625 30.609375 66.40625 
Q 23.96875 66.40625 20.09375 61.84375 
Q 16.21875 57.28125 16.21875 49.421875 
Q 16.21875 41.5 20.09375 36.953125 
Q 23.96875 32.421875 30.609375 32.421875 
z
" id="DejaVuSans-57"/>
      </defs>
      <g transform="translate(400.388456 333.074092)rotate(-30)scale(0.1 -0.1)">
       <use xlink:href="#DejaVuSans-50"/>
       <use x="63.623047" xlink:href="#DejaVuSans-48"/>
       <use x="127.246094" xlink:href="#DejaVuSans-50"/>
       <use x="190.869141" xlink:href="#DejaVuSans-48"/>
       <use x="254.492188" xlink:href="#DejaVuSans-45"/>
       <use x="290.576172" xlink:href="#DejaVuSans-48"/>
       <use x="354.199219" xlink:href="#DejaVuSans-57"/>
      </g>
     </g>
    </g>
    <g id="xtick_8">
     <g id="line2d_8">
      <g>
       <use style="stroke:#000000;" x="493.858961" xlink:href="#ma8c6293ea8" y="295.102246"/>
      </g>
     </g>
     <g id="text_8">
      <!-- 2020-10 -->
      <defs>
       <path d="M 12.40625 8.296875 
L 28.515625 8.296875 
L 28.515625 63.921875 
L 10.984375 60.40625 
L 10.984375 69.390625 
L 28.421875 72.90625 
L 38.28125 72.90625 
L 38.28125 8.296875 
L 54.390625 8.296875 
L 54.390625 0 
L 12.40625 0 
z
" id="DejaVuSans-49"/>
      </defs>
      <g transform="translate(456.634141 333.074092)rotate(-30)scale(0.1 -0.1)">
       <use xlink:href="#DejaVuSans-50"/>
       <use x="63.623047" xlink:href="#DejaVuSans-48"/>
       <use x="127.246094" xlink:href="#DejaVuSans-50"/>
       <use x="190.869141" xlink:href="#DejaVuSans-48"/>
       <use x="254.492188" xlink:href="#DejaVuSans-45"/>
       <use x="290.576172" xlink:href="#DejaVuSans-49"/>
       <use x="354.199219" xlink:href="#DejaVuSans-48"/>
      </g>
     </g>
    </g>
    <g id="text_9">
     <!-- Date -->
     <defs>
      <path d="M 19.671875 64.796875 
L 19.671875 8.109375 
L 31.59375 8.109375 
Q 46.6875 8.109375 53.6875 14.9375 
Q 60.6875 21.78125 60.6875 36.53125 
Q 60.6875 51.171875 53.6875 57.984375 
Q 46.6875 64.796875 31.59375 64.796875 
z
M 9.8125 72.90625 
L 30.078125 72.90625 
Q 51.265625 72.90625 61.171875 64.09375 
Q 71.09375 55.28125 71.09375 36.53125 
Q 71.09375 17.671875 61.125 8.828125 
Q 51.171875 0 30.078125 0 
L 9.8125 0 
z
" id="DejaVuSans-68"/>
      <path d="M 34.28125 27.484375 
Q 23.390625 27.484375 19.1875 25 
Q 14.984375 22.515625 14.984375 16.5 
Q 14.984375 11.71875 18.140625 8.90625 
Q 21.296875 6.109375 26.703125 6.109375 
Q 34.1875 6.109375 38.703125 11.40625 
Q 43.21875 16.703125 43.21875 25.484375 
L 43.21875 27.484375 
z
M 52.203125 31.203125 
L 52.203125 0 
L 43.21875 0 
L 43.21875 8.296875 
Q 40.140625 3.328125 35.546875 0.953125 
Q 30.953125 -1.421875 24.3125 -1.421875 
Q 15.921875 -1.421875 10.953125 3.296875 
Q 6 8.015625 6 15.921875 
Q 6 25.140625 12.171875 29.828125 
Q 18.359375 34.515625 30.609375 34.515625 
L 43.21875 34.515625 
L 43.21875 35.40625 
Q 43.21875 41.609375 39.140625 45 
Q 35.0625 48.390625 27.6875 48.390625 
Q 23 48.390625 18.546875 47.265625 
Q 14.109375 46.140625 10.015625 43.890625 
L 10.015625 52.203125 
Q 14.9375 54.109375 19.578125 55.046875 
Q 24.21875 56 28.609375 56 
Q 40.484375 56 46.34375 49.84375 
Q 52.203125 43.703125 52.203125 31.203125 
z
" id="DejaVuSans-97"/>
      <path d="M 18.3125 70.21875 
L 18.3125 54.6875 
L 36.8125 54.6875 
L 36.8125 47.703125 
L 18.3125 47.703125 
L 18.3125 18.015625 
Q 18.3125 11.328125 20.140625 9.421875 
Q 21.96875 7.515625 27.59375 7.515625 
L 36.8125 7.515625 
L 36.8125 0 
L 27.59375 0 
Q 17.1875 0 13.234375 3.875 
Q 9.28125 7.765625 9.28125 18.015625 
L 9.28125 47.703125 
L 2.6875 47.703125 
L 2.6875 54.6875 
L 9.28125 54.6875 
L 9.28125 70.21875 
z
" id="DejaVuSans-116"/>
      <path d="M 56.203125 29.59375 
L 56.203125 25.203125 
L 14.890625 25.203125 
Q 15.484375 15.921875 20.484375 11.0625 
Q 25.484375 6.203125 34.421875 6.203125 
Q 39.59375 6.203125 44.453125 7.46875 
Q 49.3125 8.734375 54.109375 11.28125 
L 54.109375 2.78125 
Q 49.265625 0.734375 44.1875 -0.34375 
Q 39.109375 -1.421875 33.890625 -1.421875 
Q 20.796875 -1.421875 13.15625 6.1875 
Q 5.515625 13.8125 5.515625 26.8125 
Q 5.515625 40.234375 12.765625 48.109375 
Q 20.015625 56 32.328125 56 
Q 43.359375 56 49.78125 48.890625 
Q 56.203125 41.796875 56.203125 29.59375 
z
M 47.21875 32.234375 
Q 47.125 39.59375 43.09375 43.984375 
Q 39.0625 48.390625 32.421875 48.390625 
Q 24.90625 48.390625 20.390625 44.140625 
Q 15.875 39.890625 15.1875 32.171875 
z
" id="DejaVuSans-101"/>
     </defs>
     <g transform="translate(271.666641 347.233436)scale(0.11 -0.11)">
      <use xlink:href="#DejaVuSans-68"/>
      <use x="77.001953" xlink:href="#DejaVuSans-97"/>
      <use x="138.28125" xlink:href="#DejaVuSans-116"/>
      <use x="177.490234" xlink:href="#DejaVuSans-101"/>
     </g>
    </g>
   </g>
   <g id="matplotlib.axis_2">
    <g id="ytick_1">
     <g id="line2d_9">
      <defs>
       <path d="M 0 0 
L -3.5 0 
" id="md45b4d04e0" style="stroke:#000000;"/>
      </defs>
      <g>
       <use style="stroke:#000000;" x="40.425" xlink:href="#md45b4d04e0" y="282.906689"/>
      </g>
     </g>
     <g id="text_10">
      <!-- 0 -->
      <g transform="translate(23.5625 286.705908)scale(0.1 -0.1)">
       <use xlink:href="#DejaVuSans-48"/>
      </g>
     </g>
    </g>
    <g id="ytick_2">
     <g id="line2d_10">
      <g>
       <use style="stroke:#000000;" x="40.425" xlink:href="#md45b4d04e0" y="253.068004"/>
      </g>
     </g>
     <g id="text_11">
      <!-- 50 -->
      <g transform="translate(17.2 256.867223)scale(0.1 -0.1)">
       <use xlink:href="#DejaVuSans-53"/>
       <use x="63.623047" xlink:href="#DejaVuSans-48"/>
      </g>
     </g>
    </g>
    <g id="ytick_3">
     <g id="line2d_11">
      <g>
       <use style="stroke:#000000;" x="40.425" xlink:href="#md45b4d04e0" y="223.229318"/>
      </g>
     </g>
     <g id="text_12">
      <!-- 100 -->
      <g transform="translate(10.8375 227.028537)scale(0.1 -0.1)">
       <use xlink:href="#DejaVuSans-49"/>
       <use x="63.623047" xlink:href="#DejaVuSans-48"/>
       <use x="127.246094" xlink:href="#DejaVuSans-48"/>
      </g>
     </g>
    </g>
    <g id="ytick_4">
     <g id="line2d_12">
      <g>
       <use style="stroke:#000000;" x="40.425" xlink:href="#md45b4d04e0" y="193.390633"/>
      </g>
     </g>
     <g id="text_13">
      <!-- 150 -->
      <g transform="translate(10.8375 197.189851)scale(0.1 -0.1)">
       <use xlink:href="#DejaVuSans-49"/>
       <use x="63.623047" xlink:href="#DejaVuSans-53"/>
       <use x="127.246094" xlink:href="#DejaVuSans-48"/>
      </g>
     </g>
    </g>
    <g id="ytick_5">
     <g id="line2d_13">
      <g>
       <use style="stroke:#000000;" x="40.425" xlink:href="#md45b4d04e0" y="163.551947"/>
      </g>
     </g>
     <g id="text_14">
      <!-- 200 -->
      <g transform="translate(10.8375 167.351166)scale(0.1 -0.1)">
       <use xlink:href="#DejaVuSans-50"/>
       <use x="63.623047" xlink:href="#DejaVuSans-48"/>
       <use x="127.246094" xlink:href="#DejaVuSans-48"/>
      </g>
     </g>
    </g>
    <g id="ytick_6">
     <g id="line2d_14">
      <g>
       <use style="stroke:#000000;" x="40.425" xlink:href="#md45b4d04e0" y="133.713262"/>
      </g>
     </g>
     <g id="text_15">
      <!-- 250 -->
      <g transform="translate(10.8375 137.51248)scale(0.1 -0.1)">
       <use xlink:href="#DejaVuSans-50"/>
       <use x="63.623047" xlink:href="#DejaVuSans-53"/>
       <use x="127.246094" xlink:href="#DejaVuSans-48"/>
      </g>
     </g>
    </g>
    <g id="ytick_7">
     <g id="line2d_15">
      <g>
       <use style="stroke:#000000;" x="40.425" xlink:href="#md45b4d04e0" y="103.874576"/>
      </g>
     </g>
     <g id="text_16">
      <!-- 300 -->
      <g transform="translate(10.8375 107.673795)scale(0.1 -0.1)">
       <use xlink:href="#DejaVuSans-51"/>
       <use x="63.623047" xlink:href="#DejaVuSans-48"/>
       <use x="127.246094" xlink:href="#DejaVuSans-48"/>
      </g>
     </g>
    </g>
    <g id="ytick_8">
     <g id="line2d_16">
      <g>
       <use style="stroke:#000000;" x="40.425" xlink:href="#md45b4d04e0" y="74.03589"/>
      </g>
     </g>
     <g id="text_17">
      <!-- 350 -->
      <g transform="translate(10.8375 77.835109)scale(0.1 -0.1)">
       <use xlink:href="#DejaVuSans-51"/>
       <use x="63.623047" xlink:href="#DejaVuSans-53"/>
       <use x="127.246094" xlink:href="#DejaVuSans-48"/>
      </g>
     </g>
    </g>
    <g id="ytick_9">
     <g id="line2d_17">
      <g>
       <use style="stroke:#000000;" x="40.425" xlink:href="#md45b4d04e0" y="44.197205"/>
      </g>
     </g>
     <g id="text_18">
      <!-- 400 -->
      <g transform="translate(10.8375 47.996424)scale(0.1 -0.1)">
       <use xlink:href="#DejaVuSans-52"/>
       <use x="63.623047" xlink:href="#DejaVuSans-48"/>
       <use x="127.246094" xlink:href="#DejaVuSans-48"/>
      </g>
     </g>
    </g>
   </g>
   <g id="line2d_18">
    <path clip-path="url(#paea14ae9a3)" d="M 105.763737 282.658189 
L 107.638593 282.906689 
L 111.388306 281.912686 
L 113.263162 281.664186 
L 117.012874 281.664186 
L 120.762586 280.670183 
L 122.637442 280.918684 
L 124.512299 280.918684 
L 128.262011 279.427679 
L 130.136867 278.930678 
L 132.011723 278.682177 
L 137.636292 276.445671 
L 139.511148 276.19717 
L 141.386004 272.71816 
L 143.26086 270.481654 
L 145.135716 265.51164 
L 147.010572 262.778132 
L 148.885429 259.299122 
L 150.760285 253.335105 
L 152.635141 248.11659 
L 156.384853 238.425062 
L 158.259709 236.188556 
L 160.134566 232.461045 
L 162.009422 229.479037 
L 163.884278 229.727537 
L 165.759134 229.479037 
L 167.63399 232.212544 
L 169.508846 235.940055 
L 171.383703 237.182559 
L 173.258559 241.15857 
L 175.133415 243.146576 
L 177.008271 244.63758 
L 178.883127 244.140578 
L 180.757983 242.649574 
L 182.632839 240.661569 
L 184.507696 241.407071 
L 186.382552 239.667566 
L 188.257408 234.449051 
L 190.132264 232.958046 
L 192.00712 232.958046 
L 193.881976 234.697551 
L 195.756833 234.697551 
L 197.631689 236.437056 
L 199.506545 232.709546 
L 203.256257 230.72154 
L 205.131113 229.976038 
L 207.00597 226.745529 
L 208.880826 226.497028 
L 210.755682 224.260522 
L 212.630538 227.739532 
L 214.505394 232.709546 
L 216.38025 232.212544 
L 218.255106 235.194553 
L 220.129963 234.20055 
L 222.004819 235.940055 
L 223.879675 237.182559 
L 225.754531 234.697551 
L 227.629387 233.206547 
L 229.504243 233.703549 
L 231.3791 230.473039 
L 233.253956 234.946052 
L 235.128812 233.703549 
L 237.003668 234.20055 
L 238.878524 234.946052 
L 240.75338 236.188556 
L 242.628236 236.934058 
L 244.503093 242.401073 
L 246.377949 243.395076 
L 250.127661 244.886081 
L 252.002517 250.353096 
L 253.877373 251.098598 
L 255.75223 254.826109 
L 257.627086 251.347099 
L 259.501942 250.353096 
L 261.376798 253.335105 
L 263.251654 254.329108 
L 265.12651 251.347099 
L 267.001367 254.080607 
L 268.876223 255.07461 
L 270.751079 258.056618 
L 272.625935 262.529631 
L 274.500791 261.784129 
L 276.375647 263.275133 
L 278.250503 266.754143 
L 280.12536 268.742149 
L 282.000216 269.23915 
L 283.875072 270.978655 
L 285.749928 269.984652 
L 287.624784 270.481654 
L 289.49964 270.481654 
L 291.374497 269.984652 
L 293.249353 268.99065 
L 295.124209 268.99065 
L 296.999065 269.23915 
L 298.873921 269.736152 
L 300.748777 271.724157 
L 302.623633 272.221159 
L 304.49849 273.712163 
L 306.373346 274.954667 
L 308.248202 275.203167 
L 310.123058 273.712163 
L 311.997914 274.457665 
L 313.87277 273.960664 
L 315.747627 273.960664 
L 317.622483 271.724157 
L 319.497339 271.227156 
L 321.372195 271.724157 
L 323.247051 273.463662 
L 325.121907 273.960664 
L 326.996764 272.469659 
L 328.87162 272.221159 
L 330.746476 274.954667 
L 332.621332 275.948669 
L 334.496188 275.203167 
L 336.371044 272.71816 
L 338.2459 272.469659 
L 340.120757 274.209164 
L 341.995613 274.706166 
L 343.870469 274.706166 
L 345.745325 273.712163 
L 347.620181 274.954667 
L 349.495037 276.942672 
L 353.24475 276.942672 
L 355.119606 277.439674 
L 356.994462 276.445671 
L 358.869318 277.439674 
L 360.744174 278.185176 
L 362.61903 279.179179 
L 364.493887 278.433677 
L 366.368743 278.185176 
L 370.118455 277.191173 
L 371.993311 277.439674 
L 373.868167 276.694172 
L 375.743024 276.445671 
L 377.61788 275.948669 
L 379.492736 276.19717 
L 383.242448 277.688174 
L 386.992161 276.694172 
L 388.867017 276.445671 
L 390.741873 277.688174 
L 392.616729 277.936675 
L 394.491585 277.936675 
L 396.366441 277.688174 
L 398.241297 277.936675 
L 400.116154 279.179179 
L 401.99101 278.185176 
L 403.865866 277.936675 
L 405.740722 277.439674 
L 407.615578 277.439674 
L 409.490434 277.688174 
L 411.365291 277.688174 
L 413.240147 275.700169 
L 415.115003 275.948669 
L 416.989859 276.445671 
L 420.739571 275.451668 
L 422.614428 275.203167 
L 424.489284 275.700169 
L 426.36414 275.700169 
L 428.238996 276.694172 
L 430.113852 276.445671 
L 431.988708 276.445671 
L 433.863564 276.19717 
L 435.738421 275.203167 
L 437.613277 273.463662 
L 439.488133 272.221159 
L 441.362989 269.487651 
L 443.237845 268.742149 
L 445.112701 266.754143 
L 446.987558 266.008641 
L 448.862414 261.535628 
L 450.73727 259.796123 
L 452.612126 260.044624 
L 454.486982 258.80212 
L 456.361838 255.820112 
L 458.236694 256.317113 
L 460.111551 256.565614 
L 461.986407 258.80212 
L 463.861263 259.050621 
L 465.736119 254.826109 
L 467.610975 255.07461 
L 469.485831 253.335105 
L 471.360688 248.862092 
L 475.1104 241.15857 
L 476.985256 236.188556 
L 478.860112 234.697551 
L 480.734968 230.970041 
L 484.484681 223.266519 
L 486.359537 216.557 
L 488.234393 214.071992 
L 490.109249 206.865472 
L 491.984105 194.191936 
L 493.858961 184.997409 
L 495.733818 173.317876 
L 497.608674 168.844863 
L 499.48353 160.395839 
L 501.358386 148.219304 
L 503.233242 138.030775 
L 505.108098 137.285273 
L 506.982955 138.279276 
L 506.982955 138.279276 
" style="fill:none;stroke:#1f77b4;stroke-linecap:square;stroke-width:1.75;"/>
   </g>
   <g id="line2d_19">
    <path clip-path="url(#paea14ae9a3)" d="M 122.637442 280.981277 
L 124.512299 280.018572 
L 126.387155 278.815189 
L 128.262011 278.574513 
L 130.136867 277.37113 
L 132.011723 275.686395 
L 133.886579 273.520306 
L 135.761436 269.428806 
L 137.636292 269.428806 
L 139.511148 267.744071 
L 143.26086 264.855953 
L 147.010572 267.744071 
L 148.885429 266.059335 
L 150.760285 259.320394 
L 152.635141 256.672952 
L 154.509997 252.340776 
L 156.384853 251.37807 
L 158.259709 246.805217 
L 160.134566 241.75101 
L 162.009422 242.232363 
L 163.884278 245.361158 
L 165.759134 243.676422 
L 167.63399 245.120481 
L 169.508846 244.639128 
L 171.383703 243.676422 
L 173.258559 247.527246 
L 175.133415 250.174687 
L 177.008271 251.37807 
L 178.883127 256.432276 
L 180.757983 258.357688 
L 182.632839 258.117011 
L 184.507696 257.394982 
L 186.382552 253.062805 
L 188.257408 251.859423 
L 190.132264 248.489952 
L 192.00712 245.601834 
L 193.881976 239.584922 
L 195.756833 238.862893 
L 197.631689 243.676422 
L 199.506545 241.75101 
L 201.381401 238.622216 
L 203.256257 236.696804 
L 205.131113 231.883274 
L 207.00597 236.937481 
L 208.880826 239.584922 
L 210.755682 237.178157 
L 212.630538 237.178157 
L 214.505394 238.862893 
L 216.38025 234.530716 
L 218.255106 237.418834 
L 220.129963 233.086657 
L 222.004819 231.161245 
L 223.879675 228.513804 
L 225.754531 229.235833 
L 227.629387 225.866362 
L 229.504243 229.957863 
L 231.3791 230.198539 
L 233.253956 228.032451 
L 235.128812 217.924038 
L 237.003668 216.479979 
L 238.878524 216.239303 
L 240.75338 214.554568 
L 242.628236 213.832538 
L 244.503093 208.296979 
L 246.377949 213.110509 
L 248.252805 220.090127 
L 250.127661 223.218921 
L 252.002517 225.144333 
L 253.877373 230.198539 
L 255.75223 232.123951 
L 257.627086 236.456128 
L 259.501942 235.734098 
L 261.376798 238.140863 
L 263.251654 236.456128 
L 265.12651 231.883274 
L 267.001367 221.534186 
L 268.876223 222.737568 
L 270.751079 222.015539 
L 272.625935 221.534186 
L 274.500791 220.812156 
L 276.375647 216.239303 
L 278.250503 212.869832 
L 280.12536 213.591862 
L 282.000216 206.130891 
L 283.875072 196.744508 
L 285.749928 190.005566 
L 287.624784 181.822566 
L 289.49964 178.453095 
L 291.374497 174.120918 
L 293.249353 172.195506 
L 295.124209 170.029418 
L 296.999065 170.510771 
L 298.873921 164.975212 
L 300.748777 162.809123 
L 302.623633 161.605741 
L 304.49849 158.23627 
L 306.373346 153.904093 
L 308.248202 146.924475 
L 310.123058 146.924475 
L 311.997914 148.849887 
L 313.87277 152.460034 
L 315.747627 159.921005 
L 317.622483 162.568447 
L 319.497339 170.029418 
L 321.372195 176.527683 
L 323.247051 180.619183 
L 325.121907 182.303919 
L 326.996764 185.432713 
L 328.87162 174.842947 
L 330.746476 175.083624 
L 332.621332 175.564977 
L 334.496188 177.731065 
L 336.371044 180.85986 
L 338.2459 180.13783 
L 340.120757 175.3243 
L 341.995613 188.080154 
L 343.870469 195.059772 
L 345.745325 199.632625 
L 347.620181 204.927508 
L 349.495037 204.446155 
L 351.369894 212.147803 
L 353.24475 218.164715 
L 355.119606 219.84945 
L 356.994462 224.181627 
L 358.869318 226.829068 
L 360.744174 224.903656 
L 362.61903 225.866362 
L 364.493887 227.069745 
L 366.368743 231.883274 
L 368.243599 232.364627 
L 370.118455 229.235833 
L 371.993311 231.401921 
L 373.868167 233.327333 
L 375.743024 233.56801 
L 377.61788 236.456128 
L 379.492736 233.086657 
L 381.367592 234.049363 
L 383.242448 236.937481 
L 385.117304 235.012069 
L 386.992161 233.56801 
L 388.867017 232.364627 
L 390.741873 227.791774 
L 392.616729 225.385009 
L 394.491585 223.700274 
L 396.366441 222.978245 
L 398.241297 222.737568 
L 400.116154 227.791774 
L 401.99101 231.161245 
L 403.865866 233.086657 
L 405.740722 238.140863 
L 407.615578 240.306951 
L 409.490434 237.178157 
L 411.365291 235.734098 
L 413.240147 237.178157 
L 415.115003 239.825598 
L 416.989859 241.269657 
L 418.864715 243.435746 
L 420.739571 243.676422 
L 422.614428 251.37807 
L 424.489284 256.913629 
L 426.36414 258.357688 
L 428.238996 260.2831 
L 430.113852 261.005129 
L 431.988708 260.764453 
L 433.863564 260.764453 
L 435.738421 261.245806 
L 437.613277 256.432276 
L 439.488133 248.971305 
L 441.362989 245.120481 
L 443.237845 240.306951 
L 445.112701 234.290039 
L 446.987558 230.920569 
L 448.862414 220.57148 
L 450.73727 214.554568 
L 452.612126 210.94442 
L 454.486982 208.537655 
L 456.361838 206.371567 
L 458.236694 204.446155 
L 460.111551 203.964802 
L 461.986407 206.371567 
L 463.861263 206.85292 
L 465.736119 208.056302 
L 467.610975 202.520743 
L 469.485831 196.503831 
L 471.360688 189.04286 
L 473.235544 186.395419 
L 475.1104 181.100536 
L 476.985256 178.693771 
L 478.860112 177.009036 
L 480.734968 179.897154 
L 482.609825 184.710683 
L 484.484681 187.598801 
L 486.359537 187.839478 
L 488.234393 192.171654 
L 490.109249 189.283537 
L 491.984105 185.192036 
L 493.858961 177.731065 
L 495.733818 167.863329 
L 497.608674 169.548065 
L 499.48353 163.771829 
L 501.358386 157.273564 
L 503.233242 153.904093 
L 505.108098 148.609211 
L 506.982955 152.941387 
L 506.982955 152.941387 
" style="fill:none;stroke:#ff7f0e;stroke-linecap:square;stroke-width:1.75;"/>
   </g>
   <g id="line2d_20">
    <path clip-path="url(#paea14ae9a3)" d="M 126.387155 280.527038 
L 130.136867 280.527038 
L 132.011723 280.262632 
L 135.761436 277.089764 
L 137.636292 275.238924 
L 139.511148 272.594867 
L 141.386004 271.008433 
L 143.26086 268.364376 
L 145.135716 267.571159 
L 147.010572 267.571159 
L 148.885429 265.191507 
L 150.760285 256.730525 
L 152.635141 253.293251 
L 158.259709 240.601777 
L 160.134566 235.049258 
L 162.009422 231.347578 
L 163.884278 232.669606 
L 165.759134 229.761144 
L 167.63399 229.496738 
L 171.383703 222.093378 
L 173.258559 221.300161 
L 175.133415 219.713727 
L 177.008271 222.357784 
L 178.883127 219.713727 
L 180.757983 215.747642 
L 182.632839 212.310368 
L 184.507696 212.839179 
L 186.382552 212.839179 
L 188.257408 213.36799 
L 190.132264 209.137499 
L 192.00712 213.36799 
L 193.881976 211.51715 
L 195.756833 219.978133 
L 197.631689 225.001841 
L 199.506545 224.737435 
L 203.256257 230.554361 
L 205.131113 225.795058 
L 207.00597 230.818767 
L 208.880826 232.405201 
L 210.755682 232.669606 
L 212.630538 237.164503 
L 214.505394 239.544155 
L 216.38025 238.750938 
L 218.255106 244.567863 
L 220.129963 247.740731 
L 222.004819 248.798354 
L 223.879675 248.798354 
L 225.754531 242.452617 
L 227.629387 240.072966 
L 229.504243 245.625486 
L 231.3791 249.855977 
L 233.253956 251.706817 
L 235.128812 252.235628 
L 237.003668 254.879685 
L 238.878524 263.076262 
L 240.75338 267.835564 
L 242.628236 269.421999 
L 244.503093 269.157593 
L 246.377949 269.95081 
L 248.252805 272.066056 
L 250.127661 271.272839 
L 252.002517 270.744027 
L 253.877373 271.272839 
L 255.75223 266.777942 
L 257.627086 267.042347 
L 259.501942 266.513536 
L 261.376798 263.340668 
L 263.251654 264.39829 
L 265.12651 264.662696 
L 267.001367 264.39829 
L 268.876223 269.95081 
L 270.751079 271.272839 
L 272.625935 273.123678 
L 274.500791 274.445707 
L 276.375647 274.445707 
L 278.250503 276.296547 
L 280.12536 276.032141 
L 282.000216 274.710113 
L 283.875072 276.032141 
L 285.749928 275.238924 
L 287.624784 276.296547 
L 289.49964 276.032141 
L 291.374497 276.032141 
L 293.249353 277.35417 
L 295.124209 277.882981 
L 296.999065 277.618575 
L 298.873921 277.882981 
L 300.748777 278.676198 
L 302.623633 279.998227 
L 304.49849 279.733821 
L 306.373346 279.733821 
L 308.248202 280.791444 
L 310.123058 280.791444 
L 311.997914 281.055849 
L 313.87277 281.055849 
L 315.747627 280.527038 
L 317.622483 280.262632 
L 319.497339 280.262632 
L 321.372195 280.527038 
L 323.247051 280.262632 
L 325.121907 280.527038 
L 326.996764 279.998227 
L 330.746476 280.527038 
L 334.496188 280.527038 
L 336.371044 280.791444 
L 338.2459 280.791444 
L 341.995613 281.320255 
L 343.870469 282.113472 
L 345.745325 282.377878 
L 349.495037 281.849067 
L 351.369894 281.320255 
L 353.24475 281.584661 
L 355.119606 281.584661 
L 356.994462 281.055849 
L 358.869318 280.791444 
L 362.61903 280.791444 
L 364.493887 281.320255 
L 368.243599 281.320255 
L 370.118455 281.849067 
L 371.993311 281.849067 
L 375.743024 282.377878 
L 379.492736 282.377878 
L 383.242448 281.320255 
L 385.117304 281.584661 
L 386.992161 281.320255 
L 390.741873 281.320255 
L 392.616729 281.055849 
L 394.491585 281.584661 
L 396.366441 281.584661 
L 398.241297 280.262632 
L 400.116154 278.411792 
L 401.99101 277.882981 
L 403.865866 277.882981 
L 405.740722 278.147387 
L 409.490434 277.089764 
L 411.365291 278.147387 
L 413.240147 278.147387 
L 415.115003 277.089764 
L 416.989859 275.50333 
L 418.864715 272.859273 
L 420.739571 272.859273 
L 422.614428 273.65249 
L 424.489284 273.123678 
L 426.36414 274.181301 
L 428.238996 274.974518 
L 430.113852 276.032141 
L 431.988708 276.296547 
L 433.863564 275.238924 
L 435.738421 273.65249 
L 437.613277 269.95081 
L 439.488133 268.628782 
L 441.362989 266.777942 
L 443.237845 265.191507 
L 445.112701 265.720319 
L 446.987558 264.927102 
L 448.862414 263.869479 
L 450.73727 265.720319 
L 452.612126 264.39829 
L 454.486982 261.754233 
L 456.361838 259.903393 
L 458.236694 259.903393 
L 460.111551 258.581365 
L 461.986407 255.672902 
L 463.861263 252.500034 
L 465.736119 245.889891 
L 467.610975 240.337372 
L 469.485831 231.083172 
L 471.360688 223.679813 
L 473.235544 211.252745 
L 475.1104 196.18162 
L 476.985256 184.018958 
L 478.860112 166.568182 
L 480.734968 157.313982 
L 482.609825 150.968245 
L 484.484681 138.541177 
L 486.359537 137.483555 
L 488.234393 135.103903 
L 490.109249 132.459846 
L 491.984105 138.541177 
L 493.858961 135.368309 
L 495.733818 131.931035 
L 497.608674 134.310686 
L 499.48353 129.286978 
L 501.358386 126.907327 
L 503.233242 120.56159 
L 505.108098 120.032778 
L 506.982955 125.585298 
L 506.982955 125.585298 
" style="fill:none;stroke:#2ca02c;stroke-linecap:square;stroke-width:1.75;"/>
   </g>
   <g id="line2d_21">
    <path clip-path="url(#paea14ae9a3)" d="M 107.638593 282.492874 
L 109.513449 282.354936 
L 111.388306 282.354936 
L 113.263162 281.94112 
L 117.012874 281.665244 
L 118.88773 281.665244 
L 120.762586 281.389367 
L 122.637442 281.389367 
L 124.512299 280.975552 
L 126.387155 280.975552 
L 128.262011 280.147921 
L 130.136867 278.768537 
L 132.011723 278.49266 
L 133.886579 277.113276 
L 135.761436 276.147707 
L 139.511148 273.664816 
L 141.386004 272.285432 
L 143.26086 272.009555 
L 145.135716 270.354294 
L 147.010572 267.871402 
L 148.885429 266.492018 
L 150.760285 263.73325 
L 152.635141 262.767681 
L 156.384853 258.905406 
L 158.259709 257.801898 
L 160.134566 258.077775 
L 162.009422 256.284576 
L 163.884278 256.698391 
L 165.759134 255.732822 
L 167.63399 256.422514 
L 169.508846 256.836329 
L 171.383703 256.146637 
L 173.258559 256.422514 
L 175.133415 258.629529 
L 177.008271 256.560453 
L 178.883127 255.732822 
L 180.757983 255.870761 
L 182.632839 255.594884 
L 184.507696 253.525808 
L 186.382552 250.767039 
L 188.257408 248.422086 
L 190.132264 248.560025 
L 192.00712 245.249503 
L 193.881976 240.145782 
L 195.756833 239.45609 
L 197.631689 236.007629 
L 199.506545 235.455876 
L 201.381401 233.110923 
L 203.256257 227.179571 
L 205.131113 226.627817 
L 207.00597 228.007201 
L 208.880826 226.903694 
L 210.755682 230.628031 
L 212.630538 231.455662 
L 214.505394 230.352154 
L 216.38025 235.179999 
L 218.255106 232.559169 
L 220.129963 234.766184 
L 222.004819 235.731752 
L 223.879675 236.973198 
L 227.629387 240.28372 
L 229.504243 242.90455 
L 231.3791 249.525594 
L 233.253956 251.59467 
L 235.128812 254.077561 
L 237.003668 255.732822 
L 238.878524 258.629529 
L 240.75338 260.28479 
L 242.628236 262.215928 
L 244.503093 262.491804 
L 246.377949 262.90562 
L 248.252805 261.664174 
L 250.127661 262.767681 
L 252.002517 262.215928 
L 253.877373 264.836757 
L 255.75223 263.457373 
L 257.627086 262.629743 
L 259.501942 263.319435 
L 261.376798 263.73325 
L 263.251654 262.767681 
L 265.12651 264.147065 
L 267.001367 264.560881 
L 268.876223 267.457587 
L 270.751079 271.043986 
L 272.625935 271.59574 
L 274.500791 274.078631 
L 276.375647 276.009769 
L 278.250503 276.561522 
L 280.12536 277.527091 
L 282.000216 275.87183 
L 283.875072 276.147707 
L 285.749928 276.147707 
L 287.624784 274.078631 
L 289.49964 273.526877 
L 291.374497 271.043986 
L 293.249353 270.492232 
L 295.124209 271.043986 
L 296.999065 269.80254 
L 298.873921 270.354294 
L 300.748777 271.181924 
L 302.623633 271.181924 
L 304.49849 272.561308 
L 306.373346 272.699247 
L 310.123058 275.595953 
L 311.997914 276.285646 
L 313.87277 277.527091 
L 315.747627 278.078845 
L 317.622483 278.906475 
L 319.497339 279.458229 
L 323.247051 280.009983 
L 325.121907 279.872044 
L 328.87162 280.147921 
L 330.746476 280.561736 
L 332.621332 280.837613 
L 334.496188 280.699675 
L 338.2459 280.699675 
L 340.120757 280.837613 
L 341.995613 281.11349 
L 343.870469 280.561736 
L 345.745325 280.423798 
L 347.620181 280.975552 
L 349.495037 281.251428 
L 351.369894 281.251428 
L 353.24475 281.11349 
L 355.119606 281.251428 
L 358.869318 282.079059 
L 360.744174 281.527305 
L 362.61903 281.527305 
L 364.493887 281.11349 
L 368.243599 280.561736 
L 370.118455 280.699675 
L 371.993311 279.872044 
L 373.868167 279.320291 
L 375.743024 279.320291 
L 379.492736 279.872044 
L 381.367592 279.596167 
L 383.242448 279.596167 
L 385.117304 279.458229 
L 386.992161 279.596167 
L 388.867017 278.906475 
L 390.741873 278.768537 
L 392.616729 278.768537 
L 394.491585 278.906475 
L 396.366441 277.940906 
L 398.241297 278.078845 
L 400.116154 277.940906 
L 401.99101 277.66503 
L 403.865866 276.147707 
L 405.740722 276.009769 
L 409.490434 276.009769 
L 411.365291 275.733892 
L 413.240147 276.009769 
L 415.115003 276.147707 
L 416.989859 277.802968 
L 418.864715 277.802968 
L 420.739571 277.940906 
L 424.489284 279.044414 
L 426.36414 279.182352 
L 428.238996 277.940906 
L 430.113852 277.527091 
L 431.988708 276.561522 
L 433.863564 276.423584 
L 435.738421 275.595953 
L 439.488133 269.526663 
L 441.362989 266.767895 
L 443.237845 262.767681 
L 445.112701 261.11242 
L 446.987558 258.077775 
L 448.862414 252.146423 
L 450.73727 251.180855 
L 452.612126 251.456731 
L 454.486982 251.59467 
L 458.236694 254.2155 
L 460.111551 253.663746 
L 461.986407 257.112206 
L 463.861263 258.215714 
L 465.736119 256.560453 
L 467.610975 255.319007 
L 469.485831 255.319007 
L 473.235544 249.525594 
L 475.1104 246.215072 
L 476.985256 240.835474 
L 478.860112 237.66289 
L 480.734968 235.869691 
L 482.609825 231.869477 
L 484.484681 228.421017 
L 486.359537 225.800187 
L 488.234393 219.868835 
L 490.109249 213.247791 
L 491.984105 204.69561 
L 493.858961 202.07478 
L 495.733818 191.729399 
L 497.608674 188.143 
L 499.48353 186.625678 
L 501.358386 181.935772 
L 503.233242 180.418449 
L 505.108098 183.453094 
L 506.982955 182.349587 
L 506.982955 182.349587 
" style="fill:none;stroke:#d62728;stroke-linecap:square;stroke-width:1.75;"/>
   </g>
   <g id="line2d_22">
    <path clip-path="url(#paea14ae9a3)" d="M 103.888881 282.643571 
L 105.763737 282.380452 
L 109.513449 282.380452 
L 115.138018 281.591095 
L 117.012874 281.064858 
L 118.88773 281.591095 
L 120.762586 281.064858 
L 122.637442 281.064858 
L 124.512299 281.327976 
L 126.387155 281.327976 
L 130.136867 280.801739 
L 133.886579 278.170551 
L 135.761436 275.539363 
L 137.636292 273.96065 
L 139.511148 271.329462 
L 141.386004 267.908917 
L 143.26086 265.277729 
L 145.135716 260.80471 
L 147.010572 257.910403 
L 148.885429 256.33169 
L 150.760285 253.174264 
L 152.635141 242.386393 
L 156.384853 227.125503 
L 158.259709 221.600008 
L 160.134566 213.969562 
L 163.884278 197.129959 
L 165.759134 200.287384 
L 167.63399 203.971048 
L 169.508846 205.812879 
L 171.383703 210.02278 
L 173.258559 213.180206 
L 175.133415 213.969562 
L 177.008271 216.337632 
L 178.883127 218.96882 
L 180.757983 219.231938 
L 182.632839 216.60075 
L 184.507696 212.653968 
L 186.382552 216.074513 
L 188.257408 220.021295 
L 190.132264 218.442582 
L 192.00712 216.074513 
L 193.881976 216.863869 
L 197.631689 230.019809 
L 199.506545 230.809166 
L 201.381401 232.650997 
L 203.256257 239.228968 
L 205.131113 245.2807 
L 207.00597 242.912631 
L 208.880826 241.597037 
L 210.755682 240.018324 
L 212.630538 237.124017 
L 214.505394 233.966592 
L 216.38025 234.22971 
L 218.255106 228.967334 
L 220.129963 230.546047 
L 222.004819 232.914116 
L 225.754531 232.914116 
L 227.629387 236.071542 
L 229.504243 230.282928 
L 231.3791 234.755948 
L 233.253956 237.913374 
L 235.128812 236.334661 
L 237.003668 238.176492 
L 238.878524 241.070799 
L 240.75338 241.333918 
L 242.628236 248.438126 
L 244.503093 248.964363 
L 246.377949 249.75372 
L 248.252805 253.963621 
L 250.127661 252.648027 
L 253.877373 254.752977 
L 255.75223 253.963621 
L 257.627086 254.489858 
L 259.501942 254.22674 
L 261.376798 255.279215 
L 263.251654 258.962878 
L 265.12651 258.962878 
L 267.001367 261.330947 
L 268.876223 262.646541 
L 270.751079 263.172779 
L 272.625935 266.067086 
L 274.500791 265.277729 
L 276.375647 266.330205 
L 278.250503 268.435155 
L 280.12536 270.276987 
L 282.000216 270.803224 
L 283.875072 271.855699 
L 285.749928 270.540105 
L 287.624784 271.066343 
L 289.49964 270.540105 
L 291.374497 268.435155 
L 293.249353 264.751492 
L 295.124209 264.751492 
L 296.999065 265.540848 
L 298.873921 266.856442 
L 300.748777 266.593323 
L 302.623633 266.856442 
L 304.49849 270.013868 
L 306.373346 271.592581 
L 308.248202 272.645056 
L 310.123058 272.645056 
L 313.87277 274.223769 
L 315.747627 275.276244 
L 317.622483 275.539363 
L 319.497339 277.907432 
L 323.247051 281.064858 
L 325.121907 280.53862 
L 326.996764 280.53862 
L 328.87162 280.012382 
L 330.746476 278.43367 
L 332.621332 278.959907 
L 336.371044 277.907432 
L 338.2459 278.43367 
L 340.120757 278.43367 
L 341.995613 278.959907 
L 343.870469 280.801739 
L 345.745325 280.275501 
L 349.495037 281.327976 
L 351.369894 281.591095 
L 353.24475 280.801739 
L 355.119606 280.801739 
L 356.994462 279.749264 
L 358.869318 279.749264 
L 360.744174 279.486145 
L 362.61903 278.959907 
L 364.493887 278.696788 
L 366.368743 279.486145 
L 368.243599 279.486145 
L 370.118455 280.53862 
L 371.993311 280.801739 
L 373.868167 279.486145 
L 375.743024 278.959907 
L 377.61788 278.959907 
L 379.492736 278.170551 
L 383.242448 278.170551 
L 385.117304 277.907432 
L 386.992161 279.223026 
L 388.867017 279.749264 
L 390.741873 278.43367 
L 392.616729 279.486145 
L 394.491585 279.486145 
L 396.366441 279.223026 
L 398.241297 278.43367 
L 400.116154 278.959907 
L 401.99101 278.43367 
L 403.865866 279.749264 
L 405.740722 279.223026 
L 407.615578 278.43367 
L 409.490434 278.43367 
L 411.365291 279.223026 
L 413.240147 277.644313 
L 415.115003 277.644313 
L 418.864715 275.539363 
L 420.739571 274.750006 
L 424.489284 267.38268 
L 426.36414 265.540848 
L 428.238996 262.646541 
L 430.113852 257.384165 
L 431.988708 257.384165 
L 433.863564 256.857928 
L 435.738421 255.016096 
L 437.613277 252.384908 
L 439.488133 247.122532 
L 441.362989 242.649512 
L 443.237845 237.124017 
L 445.112701 232.650997 
L 446.987558 226.336146 
L 448.862414 220.547532 
L 450.73727 212.390849 
L 452.612126 205.812879 
L 454.486982 200.550503 
L 456.361838 200.813622 
L 458.236694 194.498771 
L 460.111551 194.761889 
L 461.986407 191.078226 
L 463.861263 186.605207 
L 465.736119 182.921543 
L 467.610975 173.712385 
L 469.485831 166.08194 
L 471.360688 161.082682 
L 473.235544 150.294811 
L 475.1104 141.87501 
L 476.985256 138.454465 
L 478.860112 128.719069 
L 480.734968 127.140356 
L 482.609825 119.509911 
L 484.484681 118.983674 
L 486.359537 117.931198 
L 488.234393 109.774515 
L 490.109249 103.459664 
L 491.984105 95.5661 
L 493.858961 92.671793 
L 495.733818 90.566843 
L 497.608674 77.147783 
L 499.48353 67.675506 
L 501.358386 54.519566 
L 503.233242 40.048032 
L 505.108098 45.836646 
L 506.982955 38.995557 
L 506.982955 38.995557 
" style="fill:none;stroke:#9467bd;stroke-linecap:square;stroke-width:1.75;"/>
   </g>
   <g id="line2d_23">
    <path clip-path="url(#paea14ae9a3)" d="M 62.642045 282.783431 
L 64.516902 282.906689 
L 92.639744 282.906689 
L 94.5146 282.783431 
L 96.389456 282.413658 
L 100.139169 282.413658 
L 102.014025 282.043884 
L 105.763737 281.797369 
L 107.638593 281.550853 
L 109.513449 281.181079 
L 111.388306 280.56479 
L 115.138018 280.318274 
L 117.012874 280.441532 
L 118.88773 279.948501 
L 120.762586 279.948501 
L 122.637442 279.578727 
L 124.512299 279.332212 
L 126.387155 277.853117 
L 128.262011 277.72986 
L 130.136867 276.990313 
L 132.011723 276.620539 
L 133.886579 274.27864 
L 135.761436 272.55303 
L 137.636292 271.566967 
L 139.511148 269.964615 
L 141.386004 267.129685 
L 143.26086 265.157559 
L 145.135716 263.555207 
L 147.010572 261.459823 
L 150.760285 254.680642 
L 154.509997 244.080467 
L 156.384853 241.985083 
L 158.259709 238.533863 
L 160.134566 237.178027 
L 163.884278 232.001197 
L 165.759134 233.233776 
L 167.63399 233.233776 
L 169.508846 234.219839 
L 171.383703 235.452417 
L 173.258559 235.082644 
L 175.133415 237.547801 
L 177.008271 240.629247 
L 178.883127 241.985083 
L 180.757983 244.820014 
L 182.632839 243.094404 
L 184.507696 243.587435 
L 186.382552 245.559561 
L 188.257408 248.147976 
L 190.132264 247.408429 
L 193.881976 243.710693 
L 195.756833 245.066529 
L 197.631689 243.217662 
L 199.506545 241.985083 
L 201.381401 240.259473 
L 203.256257 240.99902 
L 205.131113 241.492052 
L 207.00597 245.559561 
L 208.880826 244.45024 
L 210.755682 248.887523 
L 212.630538 247.778202 
L 214.505394 245.436303 
L 216.38025 245.189787 
L 218.255106 248.517749 
L 220.129963 246.668881 
L 222.004819 246.052592 
L 223.879675 240.012958 
L 225.754531 237.301285 
L 227.629387 239.27341 
L 229.504243 236.808253 
L 231.3791 236.43848 
L 233.253956 238.287348 
L 235.128812 242.354857 
L 237.003668 243.464177 
L 238.878524 247.408429 
L 240.75338 250.613133 
L 242.628236 253.571321 
L 244.503093 254.557384 
L 246.377949 254.680642 
L 248.252805 254.680642 
L 250.127661 259.734214 
L 252.002517 263.92498 
L 253.877373 264.171496 
L 255.75223 266.26688 
L 257.627086 268.115747 
L 259.501942 267.499458 
L 263.251654 269.594842 
L 265.12651 268.608779 
L 268.876223 270.704162 
L 270.751079 271.073936 
L 272.625935 273.292577 
L 274.500791 273.908866 
L 276.375647 273.046061 
L 278.250503 274.401898 
L 280.12536 275.018187 
L 282.000216 275.141445 
L 283.875072 275.511218 
L 285.749928 275.757734 
L 287.624784 275.264703 
L 289.49964 276.374023 
L 291.374497 276.250765 
L 293.249353 276.374023 
L 295.124209 276.743797 
L 296.999065 276.867055 
L 298.873921 277.853117 
L 302.623633 278.346149 
L 306.373346 279.332212 
L 308.248202 279.701985 
L 311.997914 279.45547 
L 315.747627 278.962438 
L 317.622483 279.085696 
L 319.497339 278.715922 
L 321.372195 278.715922 
L 323.247051 278.962438 
L 325.121907 279.085696 
L 326.996764 279.578727 
L 328.87162 279.208954 
L 330.746476 279.332212 
L 332.621332 279.825243 
L 334.496188 279.085696 
L 336.371044 278.222891 
L 338.2459 278.715922 
L 340.120757 278.715922 
L 341.995613 279.085696 
L 343.870469 278.83918 
L 345.745325 278.099633 
L 347.620181 278.592665 
L 349.495037 279.701985 
L 351.369894 279.332212 
L 353.24475 278.715922 
L 355.119606 278.715922 
L 356.994462 277.976375 
L 358.869318 277.11357 
L 360.744174 276.867055 
L 362.61903 276.127508 
L 364.493887 275.634476 
L 370.118455 275.634476 
L 371.993311 276.867055 
L 373.868167 276.990313 
L 375.743024 276.990313 
L 377.61788 277.483344 
L 379.492736 278.099633 
L 381.367592 278.099633 
L 383.242448 278.469407 
L 385.117304 277.606602 
L 386.992161 278.099633 
L 388.867017 278.222891 
L 390.741873 277.483344 
L 392.616729 276.867055 
L 394.491585 276.743797 
L 396.366441 275.880992 
L 398.241297 275.634476 
L 400.116154 275.018187 
L 401.99101 275.264703 
L 405.740722 274.525156 
L 407.615578 274.27864 
L 411.365291 274.771671 
L 413.240147 273.908866 
L 415.115003 272.55303 
L 416.989859 271.936741 
L 418.864715 271.813483 
L 420.739571 271.320451 
L 422.614428 271.566967 
L 424.489284 272.059999 
L 426.36414 272.059999 
L 430.113852 274.155382 
L 431.988708 275.018187 
L 433.863564 275.511218 
L 435.738421 275.757734 
L 437.613277 274.648413 
L 439.488133 274.401898 
L 441.362989 273.292577 
L 443.237845 272.55303 
L 445.112701 270.334389 
L 446.987558 269.471584 
L 448.862414 269.348326 
L 450.73727 269.594842 
L 452.612126 269.718099 
L 456.361838 269.718099 
L 458.236694 270.087873 
L 460.111551 271.073936 
L 461.986407 270.950678 
L 463.861263 270.704162 
L 465.736119 270.704162 
L 467.610975 270.457646 
L 469.485831 271.566967 
L 471.360688 271.936741 
L 473.235544 269.471584 
L 475.1104 269.471584 
L 476.985256 269.10181 
L 478.860112 268.855294 
L 480.734968 268.115747 
L 482.609825 264.171496 
L 484.484681 262.199371 
L 486.359537 261.09005 
L 488.234393 256.282994 
L 490.109249 252.338743 
L 491.984105 245.682819 
L 493.858961 240.259473 
L 495.733818 237.547801 
L 501.358386 222.633601 
L 503.233242 219.059123 
L 505.108098 218.812607 
L 506.982955 220.907991 
L 506.982955 220.907991 
" style="fill:none;stroke:#8c564b;stroke-linecap:square;stroke-width:1.75;"/>
   </g>
   <g id="line2d_24">
    <path clip-path="url(#paea14ae9a3)" d="M 107.638593 281.201663 
L 109.513449 281.542668 
L 111.388306 281.03116 
L 113.263162 280.349149 
L 115.138018 279.15563 
L 117.012874 278.47362 
L 118.88773 278.814625 
L 120.762586 276.939095 
L 122.637442 274.893063 
L 126.387155 268.072956 
L 128.262011 267.220443 
L 130.136867 264.321897 
L 133.886579 259.206816 
L 135.761436 253.580228 
L 139.511148 245.396099 
L 141.386004 238.234987 
L 143.26086 237.21197 
L 145.135716 231.585382 
L 147.010572 230.391863 
L 148.885429 226.470301 
L 150.760285 221.866729 
L 152.635141 218.968183 
L 154.509997 220.67321 
L 156.384853 216.751649 
L 158.259709 211.636568 
L 160.134566 200.724396 
L 162.009422 200.212888 
L 163.884278 197.996353 
L 165.759134 197.655348 
L 167.63399 199.360375 
L 169.508846 203.963947 
L 173.258559 219.479691 
L 175.133415 222.719242 
L 177.008271 231.414879 
L 178.883127 236.870965 
L 180.757983 237.382473 
L 182.632839 237.552976 
L 184.507696 239.940013 
L 186.382552 241.474537 
L 188.257408 242.838559 
L 192.00712 242.156548 
L 195.756833 237.041468 
L 197.631689 233.801917 
L 199.506545 231.244377 
L 201.381401 231.414879 
L 203.256257 223.571756 
L 205.131113 219.309189 
L 207.00597 217.774665 
L 208.880826 221.866729 
L 210.755682 226.640804 
L 212.630538 233.460911 
L 214.505394 234.142922 
L 216.38025 243.179564 
L 218.255106 247.783137 
L 220.129963 254.432741 
L 222.004819 256.308271 
L 223.879675 256.478774 
L 225.754531 256.308271 
L 227.629387 261.423351 
L 229.504243 264.151394 
L 231.3791 268.072956 
L 233.253956 269.777983 
L 235.128812 268.072956 
L 237.003668 268.413961 
L 238.878524 269.436977 
L 240.75338 268.072956 
L 242.628236 268.584464 
L 244.503093 270.118988 
L 246.377949 266.367929 
L 248.252805 267.561448 
L 250.127661 267.902453 
L 252.002517 269.777983 
L 253.877373 271.994518 
L 255.75223 272.676528 
L 257.627086 271.994518 
L 259.501942 276.257085 
L 261.376798 276.086582 
L 263.251654 276.427587 
L 265.12651 276.086582 
L 267.001367 273.870047 
L 268.876223 273.870047 
L 270.751079 274.552058 
L 272.625935 274.722561 
L 274.500791 275.916079 
L 276.375647 275.745577 
L 278.250503 276.257085 
L 280.12536 277.621106 
L 282.000216 278.814625 
L 283.875072 278.644122 
L 285.749928 278.814625 
L 287.624784 278.644122 
L 289.49964 279.15563 
L 291.374497 278.303117 
L 293.249353 278.985128 
L 295.124209 278.644122 
L 296.999065 278.814625 
L 298.873921 277.962112 
L 302.623633 277.621106 
L 304.49849 278.303117 
L 308.248202 278.303117 
L 310.123058 279.15563 
L 311.997914 279.15563 
L 313.87277 278.985128 
L 315.747627 279.326133 
L 317.622483 278.985128 
L 319.497339 277.962112 
L 321.372195 277.450603 
L 323.247051 277.109598 
L 325.121907 277.962112 
L 326.996764 278.47362 
L 328.87162 277.621106 
L 330.746476 276.086582 
L 332.621332 277.280101 
L 334.496188 278.303117 
L 336.371044 277.962112 
L 338.2459 277.791609 
L 340.120757 277.280101 
L 341.995613 277.791609 
L 343.870469 278.644122 
L 345.745325 278.303117 
L 347.620181 276.59809 
L 349.495037 275.404571 
L 351.369894 273.699544 
L 353.24475 273.358539 
L 355.119606 273.529042 
L 356.994462 273.358539 
L 358.869318 273.017534 
L 360.744174 272.847031 
L 362.61903 273.358539 
L 364.493887 274.722561 
L 366.368743 275.575074 
L 368.243599 274.552058 
L 371.993311 273.529042 
L 373.868167 273.529042 
L 375.743024 273.870047 
L 377.61788 272.676528 
L 379.492736 271.994518 
L 381.367592 272.506026 
L 385.117304 273.188036 
L 386.992161 274.552058 
L 388.867017 273.017534 
L 390.741873 272.847031 
L 392.616729 272.506026 
L 394.491585 272.847031 
L 396.366441 272.16502 
L 398.241297 272.16502 
L 400.116154 271.142004 
L 401.99101 272.847031 
L 403.865866 272.676528 
L 405.740722 273.699544 
L 407.615578 273.870047 
L 409.490434 275.063566 
L 411.365291 275.745577 
L 413.240147 275.916079 
L 415.115003 276.257085 
L 416.989859 278.132614 
L 418.864715 277.450603 
L 420.739571 276.939095 
L 422.614428 277.621106 
L 424.489284 278.132614 
L 426.36414 279.15563 
L 428.238996 277.621106 
L 430.113852 277.109598 
L 433.863564 278.47362 
L 435.738421 277.450603 
L 437.613277 276.257085 
L 439.488133 273.870047 
L 441.362989 274.381555 
L 443.237845 273.529042 
L 445.112701 272.506026 
L 446.987558 270.630496 
L 448.862414 267.731951 
L 450.73727 267.561448 
L 452.612126 267.902453 
L 454.486982 268.072956 
L 456.361838 268.584464 
L 458.236694 268.413961 
L 460.111551 267.390945 
L 461.986407 269.436977 
L 463.861263 268.243459 
L 465.736119 268.413961 
L 467.610975 266.708934 
L 469.485831 264.321897 
L 471.360688 263.469384 
L 473.235544 261.934859 
L 475.1104 259.206816 
L 476.985256 255.114752 
L 478.860112 252.216206 
L 480.734968 247.783137 
L 482.609825 244.20258 
L 484.484681 240.963029 
L 486.359537 239.428505 
L 488.234393 235.336441 
L 490.109249 232.09689 
L 491.984105 224.935777 
L 493.858961 223.060248 
L 495.733818 219.309189 
L 497.608674 214.364611 
L 499.48353 208.908525 
L 501.358386 199.530878 
L 503.233242 194.245294 
L 505.108098 189.982727 
L 506.982955 186.743176 
L 506.982955 186.743176 
" style="fill:none;stroke:#e377c2;stroke-linecap:square;stroke-width:1.75;"/>
   </g>
   <g id="patch_3">
    <path d="M 40.425 295.102246 
L 40.425 26.8 
" style="fill:none;stroke:#000000;stroke-linecap:square;stroke-linejoin:miter;stroke-width:0.8;"/>
   </g>
   <g id="patch_4">
    <path d="M 529.2 295.102246 
L 529.2 26.8 
" style="fill:none;stroke:#000000;stroke-linecap:square;stroke-linejoin:miter;stroke-width:0.8;"/>
   </g>
   <g id="patch_5">
    <path d="M 40.425 295.102246 
L 529.2 295.102246 
" style="fill:none;stroke:#000000;stroke-linecap:square;stroke-linejoin:miter;stroke-width:0.8;"/>
   </g>
   <g id="patch_6">
    <path d="M 40.425 26.8 
L 529.2 26.8 
" style="fill:none;stroke:#000000;stroke-linecap:square;stroke-linejoin:miter;stroke-width:0.8;"/>
   </g>
   <g id="text_19">
    <!-- New Cases per Million (7 day rolling) -->
    <defs>
     <path d="M 9.8125 72.90625 
L 23.09375 72.90625 
L 55.421875 11.921875 
L 55.421875 72.90625 
L 64.984375 72.90625 
L 64.984375 0 
L 51.703125 0 
L 19.390625 60.984375 
L 19.390625 0 
L 9.8125 0 
z
" id="DejaVuSans-78"/>
     <path d="M 4.203125 54.6875 
L 13.1875 54.6875 
L 24.421875 12.015625 
L 35.59375 54.6875 
L 46.1875 54.6875 
L 57.421875 12.015625 
L 68.609375 54.6875 
L 77.59375 54.6875 
L 63.28125 0 
L 52.6875 0 
L 40.921875 44.828125 
L 29.109375 0 
L 18.5 0 
z
" id="DejaVuSans-119"/>
     <path id="DejaVuSans-32"/>
     <path d="M 64.40625 67.28125 
L 64.40625 56.890625 
Q 59.421875 61.53125 53.78125 63.8125 
Q 48.140625 66.109375 41.796875 66.109375 
Q 29.296875 66.109375 22.65625 58.46875 
Q 16.015625 50.828125 16.015625 36.375 
Q 16.015625 21.96875 22.65625 14.328125 
Q 29.296875 6.6875 41.796875 6.6875 
Q 48.140625 6.6875 53.78125 8.984375 
Q 59.421875 11.28125 64.40625 15.921875 
L 64.40625 5.609375 
Q 59.234375 2.09375 53.4375 0.328125 
Q 47.65625 -1.421875 41.21875 -1.421875 
Q 24.65625 -1.421875 15.125 8.703125 
Q 5.609375 18.84375 5.609375 36.375 
Q 5.609375 53.953125 15.125 64.078125 
Q 24.65625 74.21875 41.21875 74.21875 
Q 47.75 74.21875 53.53125 72.484375 
Q 59.328125 70.75 64.40625 67.28125 
z
" id="DejaVuSans-67"/>
     <path d="M 44.28125 53.078125 
L 44.28125 44.578125 
Q 40.484375 46.53125 36.375 47.5 
Q 32.28125 48.484375 27.875 48.484375 
Q 21.1875 48.484375 17.84375 46.4375 
Q 14.5 44.390625 14.5 40.28125 
Q 14.5 37.15625 16.890625 35.375 
Q 19.28125 33.59375 26.515625 31.984375 
L 29.59375 31.296875 
Q 39.15625 29.25 43.1875 25.515625 
Q 47.21875 21.78125 47.21875 15.09375 
Q 47.21875 7.46875 41.1875 3.015625 
Q 35.15625 -1.421875 24.609375 -1.421875 
Q 20.21875 -1.421875 15.453125 -0.5625 
Q 10.6875 0.296875 5.421875 2 
L 5.421875 11.28125 
Q 10.40625 8.6875 15.234375 7.390625 
Q 20.0625 6.109375 24.8125 6.109375 
Q 31.15625 6.109375 34.5625 8.28125 
Q 37.984375 10.453125 37.984375 14.40625 
Q 37.984375 18.0625 35.515625 20.015625 
Q 33.0625 21.96875 24.703125 23.78125 
L 21.578125 24.515625 
Q 13.234375 26.265625 9.515625 29.90625 
Q 5.8125 33.546875 5.8125 39.890625 
Q 5.8125 47.609375 11.28125 51.796875 
Q 16.75 56 26.8125 56 
Q 31.78125 56 36.171875 55.265625 
Q 40.578125 54.546875 44.28125 53.078125 
z
" id="DejaVuSans-115"/>
     <path d="M 18.109375 8.203125 
L 18.109375 -20.796875 
L 9.078125 -20.796875 
L 9.078125 54.6875 
L 18.109375 54.6875 
L 18.109375 46.390625 
Q 20.953125 51.265625 25.265625 53.625 
Q 29.59375 56 35.59375 56 
Q 45.5625 56 51.78125 48.09375 
Q 58.015625 40.1875 58.015625 27.296875 
Q 58.015625 14.40625 51.78125 6.484375 
Q 45.5625 -1.421875 35.59375 -1.421875 
Q 29.59375 -1.421875 25.265625 0.953125 
Q 20.953125 3.328125 18.109375 8.203125 
z
M 48.6875 27.296875 
Q 48.6875 37.203125 44.609375 42.84375 
Q 40.53125 48.484375 33.40625 48.484375 
Q 26.265625 48.484375 22.1875 42.84375 
Q 18.109375 37.203125 18.109375 27.296875 
Q 18.109375 17.390625 22.1875 11.75 
Q 26.265625 6.109375 33.40625 6.109375 
Q 40.53125 6.109375 44.609375 11.75 
Q 48.6875 17.390625 48.6875 27.296875 
z
" id="DejaVuSans-112"/>
     <path d="M 41.109375 46.296875 
Q 39.59375 47.171875 37.8125 47.578125 
Q 36.03125 48 33.890625 48 
Q 26.265625 48 22.1875 43.046875 
Q 18.109375 38.09375 18.109375 28.8125 
L 18.109375 0 
L 9.078125 0 
L 9.078125 54.6875 
L 18.109375 54.6875 
L 18.109375 46.1875 
Q 20.953125 51.171875 25.484375 53.578125 
Q 30.03125 56 36.53125 56 
Q 37.453125 56 38.578125 55.875 
Q 39.703125 55.765625 41.0625 55.515625 
z
" id="DejaVuSans-114"/>
     <path d="M 9.8125 72.90625 
L 24.515625 72.90625 
L 43.109375 23.296875 
L 61.8125 72.90625 
L 76.515625 72.90625 
L 76.515625 0 
L 66.890625 0 
L 66.890625 64.015625 
L 48.09375 14.015625 
L 38.1875 14.015625 
L 19.390625 64.015625 
L 19.390625 0 
L 9.8125 0 
z
" id="DejaVuSans-77"/>
     <path d="M 9.421875 54.6875 
L 18.40625 54.6875 
L 18.40625 0 
L 9.421875 0 
z
M 9.421875 75.984375 
L 18.40625 75.984375 
L 18.40625 64.59375 
L 9.421875 64.59375 
z
" id="DejaVuSans-105"/>
     <path d="M 9.421875 75.984375 
L 18.40625 75.984375 
L 18.40625 0 
L 9.421875 0 
z
" id="DejaVuSans-108"/>
     <path d="M 30.609375 48.390625 
Q 23.390625 48.390625 19.1875 42.75 
Q 14.984375 37.109375 14.984375 27.296875 
Q 14.984375 17.484375 19.15625 11.84375 
Q 23.34375 6.203125 30.609375 6.203125 
Q 37.796875 6.203125 41.984375 11.859375 
Q 46.1875 17.53125 46.1875 27.296875 
Q 46.1875 37.015625 41.984375 42.703125 
Q 37.796875 48.390625 30.609375 48.390625 
z
M 30.609375 56 
Q 42.328125 56 49.015625 48.375 
Q 55.71875 40.765625 55.71875 27.296875 
Q 55.71875 13.875 49.015625 6.21875 
Q 42.328125 -1.421875 30.609375 -1.421875 
Q 18.84375 -1.421875 12.171875 6.21875 
Q 5.515625 13.875 5.515625 27.296875 
Q 5.515625 40.765625 12.171875 48.375 
Q 18.84375 56 30.609375 56 
z
" id="DejaVuSans-111"/>
     <path d="M 54.890625 33.015625 
L 54.890625 0 
L 45.90625 0 
L 45.90625 32.71875 
Q 45.90625 40.484375 42.875 44.328125 
Q 39.84375 48.1875 33.796875 48.1875 
Q 26.515625 48.1875 22.3125 43.546875 
Q 18.109375 38.921875 18.109375 30.90625 
L 18.109375 0 
L 9.078125 0 
L 9.078125 54.6875 
L 18.109375 54.6875 
L 18.109375 46.1875 
Q 21.34375 51.125 25.703125 53.5625 
Q 30.078125 56 35.796875 56 
Q 45.21875 56 50.046875 50.171875 
Q 54.890625 44.34375 54.890625 33.015625 
z
" id="DejaVuSans-110"/>
     <path d="M 31 75.875 
Q 24.46875 64.65625 21.28125 53.65625 
Q 18.109375 42.671875 18.109375 31.390625 
Q 18.109375 20.125 21.3125 9.0625 
Q 24.515625 -2 31 -13.1875 
L 23.1875 -13.1875 
Q 15.875 -1.703125 12.234375 9.375 
Q 8.59375 20.453125 8.59375 31.390625 
Q 8.59375 42.28125 12.203125 53.3125 
Q 15.828125 64.359375 23.1875 75.875 
z
" id="DejaVuSans-40"/>
     <path d="M 45.40625 46.390625 
L 45.40625 75.984375 
L 54.390625 75.984375 
L 54.390625 0 
L 45.40625 0 
L 45.40625 8.203125 
Q 42.578125 3.328125 38.25 0.953125 
Q 33.9375 -1.421875 27.875 -1.421875 
Q 17.96875 -1.421875 11.734375 6.484375 
Q 5.515625 14.40625 5.515625 27.296875 
Q 5.515625 40.1875 11.734375 48.09375 
Q 17.96875 56 27.875 56 
Q 33.9375 56 38.25 53.625 
Q 42.578125 51.265625 45.40625 46.390625 
z
M 14.796875 27.296875 
Q 14.796875 17.390625 18.875 11.75 
Q 22.953125 6.109375 30.078125 6.109375 
Q 37.203125 6.109375 41.296875 11.75 
Q 45.40625 17.390625 45.40625 27.296875 
Q 45.40625 37.203125 41.296875 42.84375 
Q 37.203125 48.484375 30.078125 48.484375 
Q 22.953125 48.484375 18.875 42.84375 
Q 14.796875 37.203125 14.796875 27.296875 
z
" id="DejaVuSans-100"/>
     <path d="M 32.171875 -5.078125 
Q 28.375 -14.84375 24.75 -17.8125 
Q 21.140625 -20.796875 15.09375 -20.796875 
L 7.90625 -20.796875 
L 7.90625 -13.28125 
L 13.1875 -13.28125 
Q 16.890625 -13.28125 18.9375 -11.515625 
Q 21 -9.765625 23.484375 -3.21875 
L 25.09375 0.875 
L 2.984375 54.6875 
L 12.5 54.6875 
L 29.59375 11.921875 
L 46.6875 54.6875 
L 56.203125 54.6875 
z
" id="DejaVuSans-121"/>
     <path d="M 45.40625 27.984375 
Q 45.40625 37.75 41.375 43.109375 
Q 37.359375 48.484375 30.078125 48.484375 
Q 22.859375 48.484375 18.828125 43.109375 
Q 14.796875 37.75 14.796875 27.984375 
Q 14.796875 18.265625 18.828125 12.890625 
Q 22.859375 7.515625 30.078125 7.515625 
Q 37.359375 7.515625 41.375 12.890625 
Q 45.40625 18.265625 45.40625 27.984375 
z
M 54.390625 6.78125 
Q 54.390625 -7.171875 48.1875 -13.984375 
Q 42 -20.796875 29.203125 -20.796875 
Q 24.46875 -20.796875 20.265625 -20.09375 
Q 16.0625 -19.390625 12.109375 -17.921875 
L 12.109375 -9.1875 
Q 16.0625 -11.328125 19.921875 -12.34375 
Q 23.78125 -13.375 27.78125 -13.375 
Q 36.625 -13.375 41.015625 -8.765625 
Q 45.40625 -4.15625 45.40625 5.171875 
L 45.40625 9.625 
Q 42.625 4.78125 38.28125 2.390625 
Q 33.9375 0 27.875 0 
Q 17.828125 0 11.671875 7.65625 
Q 5.515625 15.328125 5.515625 27.984375 
Q 5.515625 40.671875 11.671875 48.328125 
Q 17.828125 56 27.875 56 
Q 33.9375 56 38.28125 53.609375 
Q 42.625 51.21875 45.40625 46.390625 
L 45.40625 54.6875 
L 54.390625 54.6875 
z
" id="DejaVuSans-103"/>
     <path d="M 8.015625 75.875 
L 15.828125 75.875 
Q 23.140625 64.359375 26.78125 53.3125 
Q 30.421875 42.28125 30.421875 31.390625 
Q 30.421875 20.453125 26.78125 9.375 
Q 23.140625 -1.703125 15.828125 -13.1875 
L 8.015625 -13.1875 
Q 14.5 -2 17.703125 9.0625 
Q 20.90625 20.125 20.90625 31.390625 
Q 20.90625 42.671875 17.703125 53.65625 
Q 14.5 64.65625 8.015625 75.875 
z
" id="DejaVuSans-41"/>
    </defs>
    <g transform="translate(175.036875 20.8)scale(0.12 -0.12)">
     <use xlink:href="#DejaVuSans-78"/>
     <use x="74.804688" xlink:href="#DejaVuSans-101"/>
     <use x="136.328125" xlink:href="#DejaVuSans-119"/>
     <use x="218.115234" xlink:href="#DejaVuSans-32"/>
     <use x="249.902344" xlink:href="#DejaVuSans-67"/>
     <use x="319.726562" xlink:href="#DejaVuSans-97"/>
     <use x="381.005859" xlink:href="#DejaVuSans-115"/>
     <use x="433.105469" xlink:href="#DejaVuSans-101"/>
     <use x="494.628906" xlink:href="#DejaVuSans-115"/>
     <use x="546.728516" xlink:href="#DejaVuSans-32"/>
     <use x="578.515625" xlink:href="#DejaVuSans-112"/>
     <use x="641.992188" xlink:href="#DejaVuSans-101"/>
     <use x="703.515625" xlink:href="#DejaVuSans-114"/>
     <use x="744.628906" xlink:href="#DejaVuSans-32"/>
     <use x="776.416016" xlink:href="#DejaVuSans-77"/>
     <use x="862.695312" xlink:href="#DejaVuSans-105"/>
     <use x="890.478516" xlink:href="#DejaVuSans-108"/>
     <use x="918.261719" xlink:href="#DejaVuSans-108"/>
     <use x="946.044922" xlink:href="#DejaVuSans-105"/>
     <use x="973.828125" xlink:href="#DejaVuSans-111"/>
     <use x="1035.009766" xlink:href="#DejaVuSans-110"/>
     <use x="1098.388672" xlink:href="#DejaVuSans-32"/>
     <use x="1130.175781" xlink:href="#DejaVuSans-40"/>
     <use x="1169.189453" xlink:href="#DejaVuSans-55"/>
     <use x="1232.8125" xlink:href="#DejaVuSans-32"/>
     <use x="1264.599609" xlink:href="#DejaVuSans-100"/>
     <use x="1328.076172" xlink:href="#DejaVuSans-97"/>
     <use x="1389.355469" xlink:href="#DejaVuSans-121"/>
     <use x="1448.535156" xlink:href="#DejaVuSans-32"/>
     <use x="1480.322266" xlink:href="#DejaVuSans-114"/>
     <use x="1519.185547" xlink:href="#DejaVuSans-111"/>
     <use x="1580.367188" xlink:href="#DejaVuSans-108"/>
     <use x="1608.150391" xlink:href="#DejaVuSans-108"/>
     <use x="1635.933594" xlink:href="#DejaVuSans-105"/>
     <use x="1663.716797" xlink:href="#DejaVuSans-110"/>
     <use x="1727.095703" xlink:href="#DejaVuSans-103"/>
     <use x="1790.572266" xlink:href="#DejaVuSans-41"/>
    </g>
   </g>
   <g id="legend_1">
    <g id="patch_7">
     <path d="M 47.425 137.546875 
L 215.060938 137.546875 
Q 217.060938 137.546875 217.060938 135.546875 
L 217.060938 33.8 
Q 217.060938 31.8 215.060938 31.8 
L 47.425 31.8 
Q 45.425 31.8 45.425 33.8 
L 45.425 135.546875 
Q 45.425 137.546875 47.425 137.546875 
z
" style="fill:#ffffff;opacity:0.8;stroke:#cccccc;stroke-linejoin:miter;stroke-width:0.3;"/>
    </g>
    <g id="line2d_25">
     <path d="M 49.425 39.898438 
L 69.425 39.898438 
" style="fill:none;stroke:#1f77b4;stroke-linecap:square;stroke-width:1.75;"/>
    </g>
    <g id="line2d_26"/>
    <g id="text_20">
     <!-- Cheshire West and Chester -->
     <defs>
      <path d="M 54.890625 33.015625 
L 54.890625 0 
L 45.90625 0 
L 45.90625 32.71875 
Q 45.90625 40.484375 42.875 44.328125 
Q 39.84375 48.1875 33.796875 48.1875 
Q 26.515625 48.1875 22.3125 43.546875 
Q 18.109375 38.921875 18.109375 30.90625 
L 18.109375 0 
L 9.078125 0 
L 9.078125 75.984375 
L 18.109375 75.984375 
L 18.109375 46.1875 
Q 21.34375 51.125 25.703125 53.5625 
Q 30.078125 56 35.796875 56 
Q 45.21875 56 50.046875 50.171875 
Q 54.890625 44.34375 54.890625 33.015625 
z
" id="DejaVuSans-104"/>
      <path d="M 3.328125 72.90625 
L 13.28125 72.90625 
L 28.609375 11.28125 
L 43.890625 72.90625 
L 54.984375 72.90625 
L 70.3125 11.28125 
L 85.59375 72.90625 
L 95.609375 72.90625 
L 77.296875 0 
L 64.890625 0 
L 49.515625 63.28125 
L 33.984375 0 
L 21.578125 0 
z
" id="DejaVuSans-87"/>
     </defs>
     <g transform="translate(77.425 43.398438)scale(0.1 -0.1)">
      <use xlink:href="#DejaVuSans-67"/>
      <use x="69.824219" xlink:href="#DejaVuSans-104"/>
      <use x="133.203125" xlink:href="#DejaVuSans-101"/>
      <use x="194.726562" xlink:href="#DejaVuSans-115"/>
      <use x="246.826172" xlink:href="#DejaVuSans-104"/>
      <use x="310.205078" xlink:href="#DejaVuSans-105"/>
      <use x="337.988281" xlink:href="#DejaVuSans-114"/>
      <use x="376.851562" xlink:href="#DejaVuSans-101"/>
      <use x="438.375" xlink:href="#DejaVuSans-32"/>
      <use x="470.162109" xlink:href="#DejaVuSans-87"/>
      <use x="563.164062" xlink:href="#DejaVuSans-101"/>
      <use x="624.6875" xlink:href="#DejaVuSans-115"/>
      <use x="676.787109" xlink:href="#DejaVuSans-116"/>
      <use x="715.996094" xlink:href="#DejaVuSans-32"/>
      <use x="747.783203" xlink:href="#DejaVuSans-97"/>
      <use x="809.0625" xlink:href="#DejaVuSans-110"/>
      <use x="872.441406" xlink:href="#DejaVuSans-100"/>
      <use x="935.917969" xlink:href="#DejaVuSans-32"/>
      <use x="967.705078" xlink:href="#DejaVuSans-67"/>
      <use x="1037.529297" xlink:href="#DejaVuSans-104"/>
      <use x="1100.908203" xlink:href="#DejaVuSans-101"/>
      <use x="1162.431641" xlink:href="#DejaVuSans-115"/>
      <use x="1214.53125" xlink:href="#DejaVuSans-116"/>
      <use x="1253.740234" xlink:href="#DejaVuSans-101"/>
      <use x="1315.263672" xlink:href="#DejaVuSans-114"/>
     </g>
    </g>
    <g id="line2d_27">
     <path d="M 49.425 54.576563 
L 69.425 54.576563 
" style="fill:none;stroke:#ff7f0e;stroke-linecap:square;stroke-width:1.75;"/>
    </g>
    <g id="line2d_28"/>
    <g id="text_21">
     <!-- Leicester -->
     <defs>
      <path d="M 9.8125 72.90625 
L 19.671875 72.90625 
L 19.671875 8.296875 
L 55.171875 8.296875 
L 55.171875 0 
L 9.8125 0 
z
" id="DejaVuSans-76"/>
      <path d="M 48.78125 52.59375 
L 48.78125 44.1875 
Q 44.96875 46.296875 41.140625 47.34375 
Q 37.3125 48.390625 33.40625 48.390625 
Q 24.65625 48.390625 19.8125 42.84375 
Q 14.984375 37.3125 14.984375 27.296875 
Q 14.984375 17.28125 19.8125 11.734375 
Q 24.65625 6.203125 33.40625 6.203125 
Q 37.3125 6.203125 41.140625 7.25 
Q 44.96875 8.296875 48.78125 10.40625 
L 48.78125 2.09375 
Q 45.015625 0.34375 40.984375 -0.53125 
Q 36.96875 -1.421875 32.421875 -1.421875 
Q 20.0625 -1.421875 12.78125 6.34375 
Q 5.515625 14.109375 5.515625 27.296875 
Q 5.515625 40.671875 12.859375 48.328125 
Q 20.21875 56 33.015625 56 
Q 37.15625 56 41.109375 55.140625 
Q 45.0625 54.296875 48.78125 52.59375 
z
" id="DejaVuSans-99"/>
     </defs>
     <g transform="translate(77.425 58.076563)scale(0.1 -0.1)">
      <use xlink:href="#DejaVuSans-76"/>
      <use x="53.962891" xlink:href="#DejaVuSans-101"/>
      <use x="115.486328" xlink:href="#DejaVuSans-105"/>
      <use x="143.269531" xlink:href="#DejaVuSans-99"/>
      <use x="198.25" xlink:href="#DejaVuSans-101"/>
      <use x="259.773438" xlink:href="#DejaVuSans-115"/>
      <use x="311.873047" xlink:href="#DejaVuSans-116"/>
      <use x="351.082031" xlink:href="#DejaVuSans-101"/>
      <use x="412.605469" xlink:href="#DejaVuSans-114"/>
     </g>
    </g>
    <g id="line2d_29">
     <path d="M 49.425 69.254687 
L 69.425 69.254687 
" style="fill:none;stroke:#2ca02c;stroke-linecap:square;stroke-width:1.75;"/>
    </g>
    <g id="line2d_30"/>
    <g id="text_22">
     <!-- Northumberland -->
     <defs>
      <path d="M 8.5 21.578125 
L 8.5 54.6875 
L 17.484375 54.6875 
L 17.484375 21.921875 
Q 17.484375 14.15625 20.5 10.265625 
Q 23.53125 6.390625 29.59375 6.390625 
Q 36.859375 6.390625 41.078125 11.03125 
Q 45.3125 15.671875 45.3125 23.6875 
L 45.3125 54.6875 
L 54.296875 54.6875 
L 54.296875 0 
L 45.3125 0 
L 45.3125 8.40625 
Q 42.046875 3.421875 37.71875 1 
Q 33.40625 -1.421875 27.6875 -1.421875 
Q 18.265625 -1.421875 13.375 4.4375 
Q 8.5 10.296875 8.5 21.578125 
z
M 31.109375 56 
z
" id="DejaVuSans-117"/>
      <path d="M 52 44.1875 
Q 55.375 50.25 60.0625 53.125 
Q 64.75 56 71.09375 56 
Q 79.640625 56 84.28125 50.015625 
Q 88.921875 44.046875 88.921875 33.015625 
L 88.921875 0 
L 79.890625 0 
L 79.890625 32.71875 
Q 79.890625 40.578125 77.09375 44.375 
Q 74.3125 48.1875 68.609375 48.1875 
Q 61.625 48.1875 57.5625 43.546875 
Q 53.515625 38.921875 53.515625 30.90625 
L 53.515625 0 
L 44.484375 0 
L 44.484375 32.71875 
Q 44.484375 40.625 41.703125 44.40625 
Q 38.921875 48.1875 33.109375 48.1875 
Q 26.21875 48.1875 22.15625 43.53125 
Q 18.109375 38.875 18.109375 30.90625 
L 18.109375 0 
L 9.078125 0 
L 9.078125 54.6875 
L 18.109375 54.6875 
L 18.109375 46.1875 
Q 21.1875 51.21875 25.484375 53.609375 
Q 29.78125 56 35.6875 56 
Q 41.65625 56 45.828125 52.96875 
Q 50 49.953125 52 44.1875 
z
" id="DejaVuSans-109"/>
      <path d="M 48.6875 27.296875 
Q 48.6875 37.203125 44.609375 42.84375 
Q 40.53125 48.484375 33.40625 48.484375 
Q 26.265625 48.484375 22.1875 42.84375 
Q 18.109375 37.203125 18.109375 27.296875 
Q 18.109375 17.390625 22.1875 11.75 
Q 26.265625 6.109375 33.40625 6.109375 
Q 40.53125 6.109375 44.609375 11.75 
Q 48.6875 17.390625 48.6875 27.296875 
z
M 18.109375 46.390625 
Q 20.953125 51.265625 25.265625 53.625 
Q 29.59375 56 35.59375 56 
Q 45.5625 56 51.78125 48.09375 
Q 58.015625 40.1875 58.015625 27.296875 
Q 58.015625 14.40625 51.78125 6.484375 
Q 45.5625 -1.421875 35.59375 -1.421875 
Q 29.59375 -1.421875 25.265625 0.953125 
Q 20.953125 3.328125 18.109375 8.203125 
L 18.109375 0 
L 9.078125 0 
L 9.078125 75.984375 
L 18.109375 75.984375 
z
" id="DejaVuSans-98"/>
     </defs>
     <g transform="translate(77.425 72.754687)scale(0.1 -0.1)">
      <use xlink:href="#DejaVuSans-78"/>
      <use x="74.804688" xlink:href="#DejaVuSans-111"/>
      <use x="135.986328" xlink:href="#DejaVuSans-114"/>
      <use x="177.099609" xlink:href="#DejaVuSans-116"/>
      <use x="216.308594" xlink:href="#DejaVuSans-104"/>
      <use x="279.6875" xlink:href="#DejaVuSans-117"/>
      <use x="343.066406" xlink:href="#DejaVuSans-109"/>
      <use x="440.478516" xlink:href="#DejaVuSans-98"/>
      <use x="503.955078" xlink:href="#DejaVuSans-101"/>
      <use x="565.478516" xlink:href="#DejaVuSans-114"/>
      <use x="606.591797" xlink:href="#DejaVuSans-108"/>
      <use x="634.375" xlink:href="#DejaVuSans-97"/>
      <use x="695.654297" xlink:href="#DejaVuSans-110"/>
      <use x="759.033203" xlink:href="#DejaVuSans-100"/>
     </g>
    </g>
    <g id="line2d_31">
     <path d="M 49.425 83.932813 
L 69.425 83.932813 
" style="fill:none;stroke:#d62728;stroke-linecap:square;stroke-width:1.75;"/>
    </g>
    <g id="line2d_32"/>
    <g id="text_23">
     <!-- North Yorkshire -->
     <defs>
      <path d="M -0.203125 72.90625 
L 10.40625 72.90625 
L 30.609375 42.921875 
L 50.6875 72.90625 
L 61.28125 72.90625 
L 35.5 34.71875 
L 35.5 0 
L 25.59375 0 
L 25.59375 34.71875 
z
" id="DejaVuSans-89"/>
      <path d="M 9.078125 75.984375 
L 18.109375 75.984375 
L 18.109375 31.109375 
L 44.921875 54.6875 
L 56.390625 54.6875 
L 27.390625 29.109375 
L 57.625 0 
L 45.90625 0 
L 18.109375 26.703125 
L 18.109375 0 
L 9.078125 0 
z
" id="DejaVuSans-107"/>
     </defs>
     <g transform="translate(77.425 87.432813)scale(0.1 -0.1)">
      <use xlink:href="#DejaVuSans-78"/>
      <use x="74.804688" xlink:href="#DejaVuSans-111"/>
      <use x="135.986328" xlink:href="#DejaVuSans-114"/>
      <use x="177.099609" xlink:href="#DejaVuSans-116"/>
      <use x="216.308594" xlink:href="#DejaVuSans-104"/>
      <use x="279.6875" xlink:href="#DejaVuSans-32"/>
      <use x="311.474609" xlink:href="#DejaVuSans-89"/>
      <use x="359.308594" xlink:href="#DejaVuSans-111"/>
      <use x="420.490234" xlink:href="#DejaVuSans-114"/>
      <use x="461.603516" xlink:href="#DejaVuSans-107"/>
      <use x="519.513672" xlink:href="#DejaVuSans-115"/>
      <use x="571.613281" xlink:href="#DejaVuSans-104"/>
      <use x="634.992188" xlink:href="#DejaVuSans-105"/>
      <use x="662.775391" xlink:href="#DejaVuSans-114"/>
      <use x="701.638672" xlink:href="#DejaVuSans-101"/>
     </g>
    </g>
    <g id="line2d_33">
     <path d="M 49.425 98.610937 
L 69.425 98.610937 
" style="fill:none;stroke:#9467bd;stroke-linecap:square;stroke-width:1.75;"/>
    </g>
    <g id="line2d_34"/>
    <g id="text_24">
     <!-- Wirral -->
     <g transform="translate(77.425 102.110937)scale(0.1 -0.1)">
      <use xlink:href="#DejaVuSans-87"/>
      <use x="96.626953" xlink:href="#DejaVuSans-105"/>
      <use x="124.410156" xlink:href="#DejaVuSans-114"/>
      <use x="163.773438" xlink:href="#DejaVuSans-114"/>
      <use x="204.886719" xlink:href="#DejaVuSans-97"/>
      <use x="266.166016" xlink:href="#DejaVuSans-108"/>
     </g>
    </g>
    <g id="line2d_35">
     <path d="M 49.425 113.289062 
L 69.425 113.289062 
" style="fill:none;stroke:#8c564b;stroke-linecap:square;stroke-width:1.75;"/>
    </g>
    <g id="line2d_36"/>
    <g id="text_25">
     <!-- Oxfordshire -->
     <defs>
      <path d="M 39.40625 66.21875 
Q 28.65625 66.21875 22.328125 58.203125 
Q 16.015625 50.203125 16.015625 36.375 
Q 16.015625 22.609375 22.328125 14.59375 
Q 28.65625 6.59375 39.40625 6.59375 
Q 50.140625 6.59375 56.421875 14.59375 
Q 62.703125 22.609375 62.703125 36.375 
Q 62.703125 50.203125 56.421875 58.203125 
Q 50.140625 66.21875 39.40625 66.21875 
z
M 39.40625 74.21875 
Q 54.734375 74.21875 63.90625 63.9375 
Q 73.09375 53.65625 73.09375 36.375 
Q 73.09375 19.140625 63.90625 8.859375 
Q 54.734375 -1.421875 39.40625 -1.421875 
Q 24.03125 -1.421875 14.8125 8.828125 
Q 5.609375 19.09375 5.609375 36.375 
Q 5.609375 53.65625 14.8125 63.9375 
Q 24.03125 74.21875 39.40625 74.21875 
z
" id="DejaVuSans-79"/>
      <path d="M 54.890625 54.6875 
L 35.109375 28.078125 
L 55.90625 0 
L 45.3125 0 
L 29.390625 21.484375 
L 13.484375 0 
L 2.875 0 
L 24.125 28.609375 
L 4.6875 54.6875 
L 15.28125 54.6875 
L 29.78125 35.203125 
L 44.28125 54.6875 
z
" id="DejaVuSans-120"/>
      <path d="M 37.109375 75.984375 
L 37.109375 68.5 
L 28.515625 68.5 
Q 23.6875 68.5 21.796875 66.546875 
Q 19.921875 64.59375 19.921875 59.515625 
L 19.921875 54.6875 
L 34.71875 54.6875 
L 34.71875 47.703125 
L 19.921875 47.703125 
L 19.921875 0 
L 10.890625 0 
L 10.890625 47.703125 
L 2.296875 47.703125 
L 2.296875 54.6875 
L 10.890625 54.6875 
L 10.890625 58.5 
Q 10.890625 67.625 15.140625 71.796875 
Q 19.390625 75.984375 28.609375 75.984375 
z
" id="DejaVuSans-102"/>
     </defs>
     <g transform="translate(77.425 116.789062)scale(0.1 -0.1)">
      <use xlink:href="#DejaVuSans-79"/>
      <use x="78.710938" xlink:href="#DejaVuSans-120"/>
      <use x="137.890625" xlink:href="#DejaVuSans-102"/>
      <use x="173.095703" xlink:href="#DejaVuSans-111"/>
      <use x="234.277344" xlink:href="#DejaVuSans-114"/>
      <use x="273.640625" xlink:href="#DejaVuSans-100"/>
      <use x="337.117188" xlink:href="#DejaVuSans-115"/>
      <use x="389.216797" xlink:href="#DejaVuSans-104"/>
      <use x="452.595703" xlink:href="#DejaVuSans-105"/>
      <use x="480.378906" xlink:href="#DejaVuSans-114"/>
      <use x="519.242188" xlink:href="#DejaVuSans-101"/>
     </g>
    </g>
    <g id="line2d_37">
     <path d="M 49.425 127.967187 
L 69.425 127.967187 
" style="fill:none;stroke:#e377c2;stroke-linecap:square;stroke-width:1.75;"/>
    </g>
    <g id="line2d_38"/>
    <g id="text_26">
     <!-- Cumbria -->
     <g transform="translate(77.425 131.467187)scale(0.1 -0.1)">
      <use xlink:href="#DejaVuSans-67"/>
      <use x="69.824219" xlink:href="#DejaVuSans-117"/>
      <use x="133.203125" xlink:href="#DejaVuSans-109"/>
      <use x="230.615234" xlink:href="#DejaVuSans-98"/>
      <use x="294.091797" xlink:href="#DejaVuSans-114"/>
      <use x="335.205078" xlink:href="#DejaVuSans-105"/>
      <use x="362.988281" xlink:href="#DejaVuSans-97"/>
     </g>
    </g>
   </g>
  </g>
 </g>
 <defs>
  <clipPath id="paea14ae9a3">
   <rect height="268.302246" width="488.775" x="40.425" y="26.8"/>
  </clipPath>
 </defs>
</svg>
