<?xml version="1.0" encoding="utf-8" standalone="no"?>
<!DOCTYPE svg PUBLIC "-//W3C//DTD SVG 1.1//EN"
  "http://www.w3.org/Graphics/SVG/1.1/DTD/svg11.dtd">
<!-- Created with matplotlib (https://matplotlib.org/) -->
<svg height="288pt" version="1.1" viewBox="0 0 432 288" width="432pt" xmlns="http://www.w3.org/2000/svg" xmlns:xlink="http://www.w3.org/1999/xlink">
 <metadata>
  <rdf:RDF xmlns:cc="http://creativecommons.org/ns#" xmlns:dc="http://purl.org/dc/elements/1.1/" xmlns:rdf="http://www.w3.org/1999/02/22-rdf-syntax-ns#">
   <cc:Work>
    <dc:type rdf:resource="http://purl.org/dc/dcmitype/StillImage"/>
    <dc:date>2020-11-09T21:21:58.555539</dc:date>
    <dc:format>image/svg+xml</dc:format>
    <dc:creator>
     <cc:Agent>
      <dc:title>Matplotlib v3.3.2, https://matplotlib.org/</dc:title>
     </cc:Agent>
    </dc:creator>
   </cc:Work>
  </rdf:RDF>
 </metadata>
 <defs>
  <style type="text/css">*{stroke-linecap:butt;stroke-linejoin:round;}</style>
 </defs>
 <g id="figure_1">
  <g id="patch_1">
   <path d="M 0 288 
L 432 288 
L 432 0 
L 0 0 
z
" style="fill:none;"/>
  </g>
  <g id="axes_1">
   <g id="patch_2">
    <path d="M 50.925 226.602246 
L 421.2 226.602246 
L 421.2 26.8 
L 50.925 26.8 
z
" style="fill:#ffffff;"/>
   </g>
   <g id="matplotlib.axis_1">
    <g id="xtick_1">
     <g id="line2d_1">
      <defs>
       <path d="M 0 0 
L 0 3.5 
" id="m4049e4b26a" style="stroke:#000000;stroke-width:0.8;"/>
      </defs>
      <g>
       <use style="stroke:#000000;stroke-width:0.8;" x="67.755682" xlink:href="#m4049e4b26a" y="226.602246"/>
      </g>
     </g>
     <g id="text_1">
      <!-- 2020-03 -->
      <g transform="translate(30.530861 261.074092)rotate(-30)scale(0.1 -0.1)">
       <defs>
        <path d="M 19.1875 8.296875 
L 53.609375 8.296875 
L 53.609375 0 
L 7.328125 0 
L 7.328125 8.296875 
Q 12.9375 14.109375 22.625 23.890625 
Q 32.328125 33.6875 34.8125 36.53125 
Q 39.546875 41.84375 41.421875 45.53125 
Q 43.3125 49.21875 43.3125 52.78125 
Q 43.3125 58.59375 39.234375 62.25 
Q 35.15625 65.921875 28.609375 65.921875 
Q 23.96875 65.921875 18.8125 64.3125 
Q 13.671875 62.703125 7.8125 59.421875 
L 7.8125 69.390625 
Q 13.765625 71.78125 18.9375 73 
Q 24.125 74.21875 28.421875 74.21875 
Q 39.75 74.21875 46.484375 68.546875 
Q 53.21875 62.890625 53.21875 53.421875 
Q 53.21875 48.921875 51.53125 44.890625 
Q 49.859375 40.875 45.40625 35.40625 
Q 44.1875 33.984375 37.640625 27.21875 
Q 31.109375 20.453125 19.1875 8.296875 
z
" id="DejaVuSans-50"/>
        <path d="M 31.78125 66.40625 
Q 24.171875 66.40625 20.328125 58.90625 
Q 16.5 51.421875 16.5 36.375 
Q 16.5 21.390625 20.328125 13.890625 
Q 24.171875 6.390625 31.78125 6.390625 
Q 39.453125 6.390625 43.28125 13.890625 
Q 47.125 21.390625 47.125 36.375 
Q 47.125 51.421875 43.28125 58.90625 
Q 39.453125 66.40625 31.78125 66.40625 
z
M 31.78125 74.21875 
Q 44.046875 74.21875 50.515625 64.515625 
Q 56.984375 54.828125 56.984375 36.375 
Q 56.984375 17.96875 50.515625 8.265625 
Q 44.046875 -1.421875 31.78125 -1.421875 
Q 19.53125 -1.421875 13.0625 8.265625 
Q 6.59375 17.96875 6.59375 36.375 
Q 6.59375 54.828125 13.0625 64.515625 
Q 19.53125 74.21875 31.78125 74.21875 
z
" id="DejaVuSans-48"/>
        <path d="M 4.890625 31.390625 
L 31.203125 31.390625 
L 31.203125 23.390625 
L 4.890625 23.390625 
z
" id="DejaVuSans-45"/>
        <path d="M 40.578125 39.3125 
Q 47.65625 37.796875 51.625 33 
Q 55.609375 28.21875 55.609375 21.1875 
Q 55.609375 10.40625 48.1875 4.484375 
Q 40.765625 -1.421875 27.09375 -1.421875 
Q 22.515625 -1.421875 17.65625 -0.515625 
Q 12.796875 0.390625 7.625 2.203125 
L 7.625 11.71875 
Q 11.71875 9.328125 16.59375 8.109375 
Q 21.484375 6.890625 26.8125 6.890625 
Q 36.078125 6.890625 40.9375 10.546875 
Q 45.796875 14.203125 45.796875 21.1875 
Q 45.796875 27.640625 41.28125 31.265625 
Q 36.765625 34.90625 28.71875 34.90625 
L 20.21875 34.90625 
L 20.21875 43.015625 
L 29.109375 43.015625 
Q 36.375 43.015625 40.234375 45.921875 
Q 44.09375 48.828125 44.09375 54.296875 
Q 44.09375 59.90625 40.109375 62.90625 
Q 36.140625 65.921875 28.71875 65.921875 
Q 24.65625 65.921875 20.015625 65.03125 
Q 15.375 64.15625 9.8125 62.3125 
L 9.8125 71.09375 
Q 15.4375 72.65625 20.34375 73.4375 
Q 25.25 74.21875 29.59375 74.21875 
Q 40.828125 74.21875 47.359375 69.109375 
Q 53.90625 64.015625 53.90625 55.328125 
Q 53.90625 49.265625 50.4375 45.09375 
Q 46.96875 40.921875 40.578125 39.3125 
z
" id="DejaVuSans-51"/>
       </defs>
       <use xlink:href="#DejaVuSans-50"/>
       <use x="63.623047" xlink:href="#DejaVuSans-48"/>
       <use x="127.246094" xlink:href="#DejaVuSans-50"/>
       <use x="190.869141" xlink:href="#DejaVuSans-48"/>
       <use x="254.492188" xlink:href="#DejaVuSans-45"/>
       <use x="290.576172" xlink:href="#DejaVuSans-48"/>
       <use x="354.199219" xlink:href="#DejaVuSans-51"/>
      </g>
     </g>
    </g>
    <g id="xtick_2">
     <g id="line2d_2">
      <g>
       <use style="stroke:#000000;stroke-width:0.8;" x="109.164502" xlink:href="#m4049e4b26a" y="226.602246"/>
      </g>
     </g>
     <g id="text_2">
      <!-- 2020-04 -->
      <g transform="translate(71.939681 261.074092)rotate(-30)scale(0.1 -0.1)">
       <defs>
        <path d="M 37.796875 64.3125 
L 12.890625 25.390625 
L 37.796875 25.390625 
z
M 35.203125 72.90625 
L 47.609375 72.90625 
L 47.609375 25.390625 
L 58.015625 25.390625 
L 58.015625 17.1875 
L 47.609375 17.1875 
L 47.609375 0 
L 37.796875 0 
L 37.796875 17.1875 
L 4.890625 17.1875 
L 4.890625 26.703125 
z
" id="DejaVuSans-52"/>
       </defs>
       <use xlink:href="#DejaVuSans-50"/>
       <use x="63.623047" xlink:href="#DejaVuSans-48"/>
       <use x="127.246094" xlink:href="#DejaVuSans-50"/>
       <use x="190.869141" xlink:href="#DejaVuSans-48"/>
       <use x="254.492188" xlink:href="#DejaVuSans-45"/>
       <use x="290.576172" xlink:href="#DejaVuSans-48"/>
       <use x="354.199219" xlink:href="#DejaVuSans-52"/>
      </g>
     </g>
    </g>
    <g id="xtick_3">
     <g id="line2d_3">
      <g>
       <use style="stroke:#000000;stroke-width:0.8;" x="149.237554" xlink:href="#m4049e4b26a" y="226.602246"/>
      </g>
     </g>
     <g id="text_3">
      <!-- 2020-05 -->
      <g transform="translate(112.012733 261.074092)rotate(-30)scale(0.1 -0.1)">
       <defs>
        <path d="M 10.796875 72.90625 
L 49.515625 72.90625 
L 49.515625 64.59375 
L 19.828125 64.59375 
L 19.828125 46.734375 
Q 21.96875 47.46875 24.109375 47.828125 
Q 26.265625 48.1875 28.421875 48.1875 
Q 40.625 48.1875 47.75 41.5 
Q 54.890625 34.8125 54.890625 23.390625 
Q 54.890625 11.625 47.5625 5.09375 
Q 40.234375 -1.421875 26.90625 -1.421875 
Q 22.3125 -1.421875 17.546875 -0.640625 
Q 12.796875 0.140625 7.71875 1.703125 
L 7.71875 11.625 
Q 12.109375 9.234375 16.796875 8.0625 
Q 21.484375 6.890625 26.703125 6.890625 
Q 35.15625 6.890625 40.078125 11.328125 
Q 45.015625 15.765625 45.015625 23.390625 
Q 45.015625 31 40.078125 35.4375 
Q 35.15625 39.890625 26.703125 39.890625 
Q 22.75 39.890625 18.8125 39.015625 
Q 14.890625 38.140625 10.796875 36.28125 
z
" id="DejaVuSans-53"/>
       </defs>
       <use xlink:href="#DejaVuSans-50"/>
       <use x="63.623047" xlink:href="#DejaVuSans-48"/>
       <use x="127.246094" xlink:href="#DejaVuSans-50"/>
       <use x="190.869141" xlink:href="#DejaVuSans-48"/>
       <use x="254.492188" xlink:href="#DejaVuSans-45"/>
       <use x="290.576172" xlink:href="#DejaVuSans-48"/>
       <use x="354.199219" xlink:href="#DejaVuSans-53"/>
      </g>
     </g>
    </g>
    <g id="xtick_4">
     <g id="line2d_4">
      <g>
       <use style="stroke:#000000;stroke-width:0.8;" x="190.646374" xlink:href="#m4049e4b26a" y="226.602246"/>
      </g>
     </g>
     <g id="text_4">
      <!-- 2020-06 -->
      <g transform="translate(153.421554 261.074092)rotate(-30)scale(0.1 -0.1)">
       <defs>
        <path d="M 33.015625 40.375 
Q 26.375 40.375 22.484375 35.828125 
Q 18.609375 31.296875 18.609375 23.390625 
Q 18.609375 15.53125 22.484375 10.953125 
Q 26.375 6.390625 33.015625 6.390625 
Q 39.65625 6.390625 43.53125 10.953125 
Q 47.40625 15.53125 47.40625 23.390625 
Q 47.40625 31.296875 43.53125 35.828125 
Q 39.65625 40.375 33.015625 40.375 
z
M 52.59375 71.296875 
L 52.59375 62.3125 
Q 48.875 64.0625 45.09375 64.984375 
Q 41.3125 65.921875 37.59375 65.921875 
Q 27.828125 65.921875 22.671875 59.328125 
Q 17.53125 52.734375 16.796875 39.40625 
Q 19.671875 43.65625 24.015625 45.921875 
Q 28.375 48.1875 33.59375 48.1875 
Q 44.578125 48.1875 50.953125 41.515625 
Q 57.328125 34.859375 57.328125 23.390625 
Q 57.328125 12.15625 50.6875 5.359375 
Q 44.046875 -1.421875 33.015625 -1.421875 
Q 20.359375 -1.421875 13.671875 8.265625 
Q 6.984375 17.96875 6.984375 36.375 
Q 6.984375 53.65625 15.1875 63.9375 
Q 23.390625 74.21875 37.203125 74.21875 
Q 40.921875 74.21875 44.703125 73.484375 
Q 48.484375 72.75 52.59375 71.296875 
z
" id="DejaVuSans-54"/>
       </defs>
       <use xlink:href="#DejaVuSans-50"/>
       <use x="63.623047" xlink:href="#DejaVuSans-48"/>
       <use x="127.246094" xlink:href="#DejaVuSans-50"/>
       <use x="190.869141" xlink:href="#DejaVuSans-48"/>
       <use x="254.492188" xlink:href="#DejaVuSans-45"/>
       <use x="290.576172" xlink:href="#DejaVuSans-48"/>
       <use x="354.199219" xlink:href="#DejaVuSans-54"/>
      </g>
     </g>
    </g>
    <g id="xtick_5">
     <g id="line2d_5">
      <g>
       <use style="stroke:#000000;stroke-width:0.8;" x="230.719426" xlink:href="#m4049e4b26a" y="226.602246"/>
      </g>
     </g>
     <g id="text_5">
      <!-- 2020-07 -->
      <g transform="translate(193.494606 261.074092)rotate(-30)scale(0.1 -0.1)">
       <defs>
        <path d="M 8.203125 72.90625 
L 55.078125 72.90625 
L 55.078125 68.703125 
L 28.609375 0 
L 18.3125 0 
L 43.21875 64.59375 
L 8.203125 64.59375 
z
" id="DejaVuSans-55"/>
       </defs>
       <use xlink:href="#DejaVuSans-50"/>
       <use x="63.623047" xlink:href="#DejaVuSans-48"/>
       <use x="127.246094" xlink:href="#DejaVuSans-50"/>
       <use x="190.869141" xlink:href="#DejaVuSans-48"/>
       <use x="254.492188" xlink:href="#DejaVuSans-45"/>
       <use x="290.576172" xlink:href="#DejaVuSans-48"/>
       <use x="354.199219" xlink:href="#DejaVuSans-55"/>
      </g>
     </g>
    </g>
    <g id="xtick_6">
     <g id="line2d_6">
      <g>
       <use style="stroke:#000000;stroke-width:0.8;" x="272.128247" xlink:href="#m4049e4b26a" y="226.602246"/>
      </g>
     </g>
     <g id="text_6">
      <!-- 2020-08 -->
      <g transform="translate(234.903426 261.074092)rotate(-30)scale(0.1 -0.1)">
       <defs>
        <path d="M 31.78125 34.625 
Q 24.75 34.625 20.71875 30.859375 
Q 16.703125 27.09375 16.703125 20.515625 
Q 16.703125 13.921875 20.71875 10.15625 
Q 24.75 6.390625 31.78125 6.390625 
Q 38.8125 6.390625 42.859375 10.171875 
Q 46.921875 13.96875 46.921875 20.515625 
Q 46.921875 27.09375 42.890625 30.859375 
Q 38.875 34.625 31.78125 34.625 
z
M 21.921875 38.8125 
Q 15.578125 40.375 12.03125 44.71875 
Q 8.5 49.078125 8.5 55.328125 
Q 8.5 64.0625 14.71875 69.140625 
Q 20.953125 74.21875 31.78125 74.21875 
Q 42.671875 74.21875 48.875 69.140625 
Q 55.078125 64.0625 55.078125 55.328125 
Q 55.078125 49.078125 51.53125 44.71875 
Q 48 40.375 41.703125 38.8125 
Q 48.828125 37.15625 52.796875 32.3125 
Q 56.78125 27.484375 56.78125 20.515625 
Q 56.78125 9.90625 50.3125 4.234375 
Q 43.84375 -1.421875 31.78125 -1.421875 
Q 19.734375 -1.421875 13.25 4.234375 
Q 6.78125 9.90625 6.78125 20.515625 
Q 6.78125 27.484375 10.78125 32.3125 
Q 14.796875 37.15625 21.921875 38.8125 
z
M 18.3125 54.390625 
Q 18.3125 48.734375 21.84375 45.5625 
Q 25.390625 42.390625 31.78125 42.390625 
Q 38.140625 42.390625 41.71875 45.5625 
Q 45.3125 48.734375 45.3125 54.390625 
Q 45.3125 60.0625 41.71875 63.234375 
Q 38.140625 66.40625 31.78125 66.40625 
Q 25.390625 66.40625 21.84375 63.234375 
Q 18.3125 60.0625 18.3125 54.390625 
z
" id="DejaVuSans-56"/>
       </defs>
       <use xlink:href="#DejaVuSans-50"/>
       <use x="63.623047" xlink:href="#DejaVuSans-48"/>
       <use x="127.246094" xlink:href="#DejaVuSans-50"/>
       <use x="190.869141" xlink:href="#DejaVuSans-48"/>
       <use x="254.492188" xlink:href="#DejaVuSans-45"/>
       <use x="290.576172" xlink:href="#DejaVuSans-48"/>
       <use x="354.199219" xlink:href="#DejaVuSans-56"/>
      </g>
     </g>
    </g>
    <g id="xtick_7">
     <g id="line2d_7">
      <g>
       <use style="stroke:#000000;stroke-width:0.8;" x="313.537067" xlink:href="#m4049e4b26a" y="226.602246"/>
      </g>
     </g>
     <g id="text_7">
      <!-- 2020-09 -->
      <g transform="translate(276.312246 261.074092)rotate(-30)scale(0.1 -0.1)">
       <defs>
        <path d="M 10.984375 1.515625 
L 10.984375 10.5 
Q 14.703125 8.734375 18.5 7.8125 
Q 22.3125 6.890625 25.984375 6.890625 
Q 35.75 6.890625 40.890625 13.453125 
Q 46.046875 20.015625 46.78125 33.40625 
Q 43.953125 29.203125 39.59375 26.953125 
Q 35.25 24.703125 29.984375 24.703125 
Q 19.046875 24.703125 12.671875 31.3125 
Q 6.296875 37.9375 6.296875 49.421875 
Q 6.296875 60.640625 12.9375 67.421875 
Q 19.578125 74.21875 30.609375 74.21875 
Q 43.265625 74.21875 49.921875 64.515625 
Q 56.59375 54.828125 56.59375 36.375 
Q 56.59375 19.140625 48.40625 8.859375 
Q 40.234375 -1.421875 26.421875 -1.421875 
Q 22.703125 -1.421875 18.890625 -0.6875 
Q 15.09375 0.046875 10.984375 1.515625 
z
M 30.609375 32.421875 
Q 37.25 32.421875 41.125 36.953125 
Q 45.015625 41.5 45.015625 49.421875 
Q 45.015625 57.28125 41.125 61.84375 
Q 37.25 66.40625 30.609375 66.40625 
Q 23.96875 66.40625 20.09375 61.84375 
Q 16.21875 57.28125 16.21875 49.421875 
Q 16.21875 41.5 20.09375 36.953125 
Q 23.96875 32.421875 30.609375 32.421875 
z
" id="DejaVuSans-57"/>
       </defs>
       <use xlink:href="#DejaVuSans-50"/>
       <use x="63.623047" xlink:href="#DejaVuSans-48"/>
       <use x="127.246094" xlink:href="#DejaVuSans-50"/>
       <use x="190.869141" xlink:href="#DejaVuSans-48"/>
       <use x="254.492188" xlink:href="#DejaVuSans-45"/>
       <use x="290.576172" xlink:href="#DejaVuSans-48"/>
       <use x="354.199219" xlink:href="#DejaVuSans-57"/>
      </g>
     </g>
    </g>
    <g id="xtick_8">
     <g id="line2d_8">
      <g>
       <use style="stroke:#000000;stroke-width:0.8;" x="353.610119" xlink:href="#m4049e4b26a" y="226.602246"/>
      </g>
     </g>
     <g id="text_8">
      <!-- 2020-10 -->
      <g transform="translate(316.385298 261.074092)rotate(-30)scale(0.1 -0.1)">
       <defs>
        <path d="M 12.40625 8.296875 
L 28.515625 8.296875 
L 28.515625 63.921875 
L 10.984375 60.40625 
L 10.984375 69.390625 
L 28.421875 72.90625 
L 38.28125 72.90625 
L 38.28125 8.296875 
L 54.390625 8.296875 
L 54.390625 0 
L 12.40625 0 
z
" id="DejaVuSans-49"/>
       </defs>
       <use xlink:href="#DejaVuSans-50"/>
       <use x="63.623047" xlink:href="#DejaVuSans-48"/>
       <use x="127.246094" xlink:href="#DejaVuSans-50"/>
       <use x="190.869141" xlink:href="#DejaVuSans-48"/>
       <use x="254.492188" xlink:href="#DejaVuSans-45"/>
       <use x="290.576172" xlink:href="#DejaVuSans-49"/>
       <use x="354.199219" xlink:href="#DejaVuSans-48"/>
      </g>
     </g>
    </g>
    <g id="xtick_9">
     <g id="line2d_9">
      <g>
       <use style="stroke:#000000;stroke-width:0.8;" x="395.018939" xlink:href="#m4049e4b26a" y="226.602246"/>
      </g>
     </g>
     <g id="text_9">
      <!-- 2020-11 -->
      <g transform="translate(357.794119 261.074092)rotate(-30)scale(0.1 -0.1)">
       <use xlink:href="#DejaVuSans-50"/>
       <use x="63.623047" xlink:href="#DejaVuSans-48"/>
       <use x="127.246094" xlink:href="#DejaVuSans-50"/>
       <use x="190.869141" xlink:href="#DejaVuSans-48"/>
       <use x="254.492188" xlink:href="#DejaVuSans-45"/>
       <use x="290.576172" xlink:href="#DejaVuSans-49"/>
       <use x="354.199219" xlink:href="#DejaVuSans-49"/>
      </g>
     </g>
    </g>
    <g id="text_10">
     <!-- Date -->
     <g transform="translate(224.111719 274.473592)scale(0.1 -0.1)">
      <defs>
       <path d="M 19.671875 64.796875 
L 19.671875 8.109375 
L 31.59375 8.109375 
Q 46.6875 8.109375 53.6875 14.9375 
Q 60.6875 21.78125 60.6875 36.53125 
Q 60.6875 51.171875 53.6875 57.984375 
Q 46.6875 64.796875 31.59375 64.796875 
z
M 9.8125 72.90625 
L 30.078125 72.90625 
Q 51.265625 72.90625 61.171875 64.09375 
Q 71.09375 55.28125 71.09375 36.53125 
Q 71.09375 17.671875 61.125 8.828125 
Q 51.171875 0 30.078125 0 
L 9.8125 0 
z
" id="DejaVuSans-68"/>
       <path d="M 34.28125 27.484375 
Q 23.390625 27.484375 19.1875 25 
Q 14.984375 22.515625 14.984375 16.5 
Q 14.984375 11.71875 18.140625 8.90625 
Q 21.296875 6.109375 26.703125 6.109375 
Q 34.1875 6.109375 38.703125 11.40625 
Q 43.21875 16.703125 43.21875 25.484375 
L 43.21875 27.484375 
z
M 52.203125 31.203125 
L 52.203125 0 
L 43.21875 0 
L 43.21875 8.296875 
Q 40.140625 3.328125 35.546875 0.953125 
Q 30.953125 -1.421875 24.3125 -1.421875 
Q 15.921875 -1.421875 10.953125 3.296875 
Q 6 8.015625 6 15.921875 
Q 6 25.140625 12.171875 29.828125 
Q 18.359375 34.515625 30.609375 34.515625 
L 43.21875 34.515625 
L 43.21875 35.40625 
Q 43.21875 41.609375 39.140625 45 
Q 35.0625 48.390625 27.6875 48.390625 
Q 23 48.390625 18.546875 47.265625 
Q 14.109375 46.140625 10.015625 43.890625 
L 10.015625 52.203125 
Q 14.9375 54.109375 19.578125 55.046875 
Q 24.21875 56 28.609375 56 
Q 40.484375 56 46.34375 49.84375 
Q 52.203125 43.703125 52.203125 31.203125 
z
" id="DejaVuSans-97"/>
       <path d="M 18.3125 70.21875 
L 18.3125 54.6875 
L 36.8125 54.6875 
L 36.8125 47.703125 
L 18.3125 47.703125 
L 18.3125 18.015625 
Q 18.3125 11.328125 20.140625 9.421875 
Q 21.96875 7.515625 27.59375 7.515625 
L 36.8125 7.515625 
L 36.8125 0 
L 27.59375 0 
Q 17.1875 0 13.234375 3.875 
Q 9.28125 7.765625 9.28125 18.015625 
L 9.28125 47.703125 
L 2.6875 47.703125 
L 2.6875 54.6875 
L 9.28125 54.6875 
L 9.28125 70.21875 
z
" id="DejaVuSans-116"/>
       <path d="M 56.203125 29.59375 
L 56.203125 25.203125 
L 14.890625 25.203125 
Q 15.484375 15.921875 20.484375 11.0625 
Q 25.484375 6.203125 34.421875 6.203125 
Q 39.59375 6.203125 44.453125 7.46875 
Q 49.3125 8.734375 54.109375 11.28125 
L 54.109375 2.78125 
Q 49.265625 0.734375 44.1875 -0.34375 
Q 39.109375 -1.421875 33.890625 -1.421875 
Q 20.796875 -1.421875 13.15625 6.1875 
Q 5.515625 13.8125 5.515625 26.8125 
Q 5.515625 40.234375 12.765625 48.109375 
Q 20.015625 56 32.328125 56 
Q 43.359375 56 49.78125 48.890625 
Q 56.203125 41.796875 56.203125 29.59375 
z
M 47.21875 32.234375 
Q 47.125 39.59375 43.09375 43.984375 
Q 39.0625 48.390625 32.421875 48.390625 
Q 24.90625 48.390625 20.390625 44.140625 
Q 15.875 39.890625 15.1875 32.171875 
z
" id="DejaVuSans-101"/>
      </defs>
      <use xlink:href="#DejaVuSans-68"/>
      <use x="77.001953" xlink:href="#DejaVuSans-97"/>
      <use x="138.28125" xlink:href="#DejaVuSans-116"/>
      <use x="177.490234" xlink:href="#DejaVuSans-101"/>
     </g>
    </g>
   </g>
   <g id="matplotlib.axis_2">
    <g id="ytick_1">
     <g id="line2d_10">
      <defs>
       <path d="M 0 0 
L -3.5 0 
" id="m665f08d40f" style="stroke:#000000;stroke-width:0.8;"/>
      </defs>
      <g>
       <use style="stroke:#000000;stroke-width:0.8;" x="50.925" xlink:href="#m665f08d40f" y="217.520326"/>
      </g>
     </g>
     <g id="text_11">
      <!-- 0 -->
      <g transform="translate(37.5625 221.319544)scale(0.1 -0.1)">
       <use xlink:href="#DejaVuSans-48"/>
      </g>
     </g>
    </g>
    <g id="ytick_2">
     <g id="line2d_11">
      <g>
       <use style="stroke:#000000;stroke-width:0.8;" x="50.925" xlink:href="#m665f08d40f" y="187.006452"/>
      </g>
     </g>
     <g id="text_12">
      <!-- 100 -->
      <g transform="translate(24.8375 190.805671)scale(0.1 -0.1)">
       <use xlink:href="#DejaVuSans-49"/>
       <use x="63.623047" xlink:href="#DejaVuSans-48"/>
       <use x="127.246094" xlink:href="#DejaVuSans-48"/>
      </g>
     </g>
    </g>
    <g id="ytick_3">
     <g id="line2d_12">
      <g>
       <use style="stroke:#000000;stroke-width:0.8;" x="50.925" xlink:href="#m665f08d40f" y="156.492578"/>
      </g>
     </g>
     <g id="text_13">
      <!-- 200 -->
      <g transform="translate(24.8375 160.291797)scale(0.1 -0.1)">
       <use xlink:href="#DejaVuSans-50"/>
       <use x="63.623047" xlink:href="#DejaVuSans-48"/>
       <use x="127.246094" xlink:href="#DejaVuSans-48"/>
      </g>
     </g>
    </g>
    <g id="ytick_4">
     <g id="line2d_13">
      <g>
       <use style="stroke:#000000;stroke-width:0.8;" x="50.925" xlink:href="#m665f08d40f" y="125.978704"/>
      </g>
     </g>
     <g id="text_14">
      <!-- 300 -->
      <g transform="translate(24.8375 129.777923)scale(0.1 -0.1)">
       <use xlink:href="#DejaVuSans-51"/>
       <use x="63.623047" xlink:href="#DejaVuSans-48"/>
       <use x="127.246094" xlink:href="#DejaVuSans-48"/>
      </g>
     </g>
    </g>
    <g id="ytick_5">
     <g id="line2d_14">
      <g>
       <use style="stroke:#000000;stroke-width:0.8;" x="50.925" xlink:href="#m665f08d40f" y="95.46483"/>
      </g>
     </g>
     <g id="text_15">
      <!-- 400 -->
      <g transform="translate(24.8375 99.264049)scale(0.1 -0.1)">
       <use xlink:href="#DejaVuSans-52"/>
       <use x="63.623047" xlink:href="#DejaVuSans-48"/>
       <use x="127.246094" xlink:href="#DejaVuSans-48"/>
      </g>
     </g>
    </g>
    <g id="ytick_6">
     <g id="line2d_15">
      <g>
       <use style="stroke:#000000;stroke-width:0.8;" x="50.925" xlink:href="#m665f08d40f" y="64.950957"/>
      </g>
     </g>
     <g id="text_16">
      <!-- 500 -->
      <g transform="translate(24.8375 68.750175)scale(0.1 -0.1)">
       <use xlink:href="#DejaVuSans-53"/>
       <use x="63.623047" xlink:href="#DejaVuSans-48"/>
       <use x="127.246094" xlink:href="#DejaVuSans-48"/>
      </g>
     </g>
    </g>
    <g id="ytick_7">
     <g id="line2d_16">
      <g>
       <use style="stroke:#000000;stroke-width:0.8;" x="50.925" xlink:href="#m665f08d40f" y="34.437083"/>
      </g>
     </g>
     <g id="text_17">
      <!-- 600 -->
      <g transform="translate(24.8375 38.236301)scale(0.1 -0.1)">
       <use xlink:href="#DejaVuSans-54"/>
       <use x="63.623047" xlink:href="#DejaVuSans-48"/>
       <use x="127.246094" xlink:href="#DejaVuSans-48"/>
      </g>
     </g>
    </g>
    <g id="text_18">
     <!-- New cases per million population -->
     <g transform="translate(18.757813 209.63081)rotate(-90)scale(0.1 -0.1)">
      <defs>
       <path d="M 9.8125 72.90625 
L 23.09375 72.90625 
L 55.421875 11.921875 
L 55.421875 72.90625 
L 64.984375 72.90625 
L 64.984375 0 
L 51.703125 0 
L 19.390625 60.984375 
L 19.390625 0 
L 9.8125 0 
z
" id="DejaVuSans-78"/>
       <path d="M 4.203125 54.6875 
L 13.1875 54.6875 
L 24.421875 12.015625 
L 35.59375 54.6875 
L 46.1875 54.6875 
L 57.421875 12.015625 
L 68.609375 54.6875 
L 77.59375 54.6875 
L 63.28125 0 
L 52.6875 0 
L 40.921875 44.828125 
L 29.109375 0 
L 18.5 0 
z
" id="DejaVuSans-119"/>
       <path id="DejaVuSans-32"/>
       <path d="M 48.78125 52.59375 
L 48.78125 44.1875 
Q 44.96875 46.296875 41.140625 47.34375 
Q 37.3125 48.390625 33.40625 48.390625 
Q 24.65625 48.390625 19.8125 42.84375 
Q 14.984375 37.3125 14.984375 27.296875 
Q 14.984375 17.28125 19.8125 11.734375 
Q 24.65625 6.203125 33.40625 6.203125 
Q 37.3125 6.203125 41.140625 7.25 
Q 44.96875 8.296875 48.78125 10.40625 
L 48.78125 2.09375 
Q 45.015625 0.34375 40.984375 -0.53125 
Q 36.96875 -1.421875 32.421875 -1.421875 
Q 20.0625 -1.421875 12.78125 6.34375 
Q 5.515625 14.109375 5.515625 27.296875 
Q 5.515625 40.671875 12.859375 48.328125 
Q 20.21875 56 33.015625 56 
Q 37.15625 56 41.109375 55.140625 
Q 45.0625 54.296875 48.78125 52.59375 
z
" id="DejaVuSans-99"/>
       <path d="M 44.28125 53.078125 
L 44.28125 44.578125 
Q 40.484375 46.53125 36.375 47.5 
Q 32.28125 48.484375 27.875 48.484375 
Q 21.1875 48.484375 17.84375 46.4375 
Q 14.5 44.390625 14.5 40.28125 
Q 14.5 37.15625 16.890625 35.375 
Q 19.28125 33.59375 26.515625 31.984375 
L 29.59375 31.296875 
Q 39.15625 29.25 43.1875 25.515625 
Q 47.21875 21.78125 47.21875 15.09375 
Q 47.21875 7.46875 41.1875 3.015625 
Q 35.15625 -1.421875 24.609375 -1.421875 
Q 20.21875 -1.421875 15.453125 -0.5625 
Q 10.6875 0.296875 5.421875 2 
L 5.421875 11.28125 
Q 10.40625 8.6875 15.234375 7.390625 
Q 20.0625 6.109375 24.8125 6.109375 
Q 31.15625 6.109375 34.5625 8.28125 
Q 37.984375 10.453125 37.984375 14.40625 
Q 37.984375 18.0625 35.515625 20.015625 
Q 33.0625 21.96875 24.703125 23.78125 
L 21.578125 24.515625 
Q 13.234375 26.265625 9.515625 29.90625 
Q 5.8125 33.546875 5.8125 39.890625 
Q 5.8125 47.609375 11.28125 51.796875 
Q 16.75 56 26.8125 56 
Q 31.78125 56 36.171875 55.265625 
Q 40.578125 54.546875 44.28125 53.078125 
z
" id="DejaVuSans-115"/>
       <path d="M 18.109375 8.203125 
L 18.109375 -20.796875 
L 9.078125 -20.796875 
L 9.078125 54.6875 
L 18.109375 54.6875 
L 18.109375 46.390625 
Q 20.953125 51.265625 25.265625 53.625 
Q 29.59375 56 35.59375 56 
Q 45.5625 56 51.78125 48.09375 
Q 58.015625 40.1875 58.015625 27.296875 
Q 58.015625 14.40625 51.78125 6.484375 
Q 45.5625 -1.421875 35.59375 -1.421875 
Q 29.59375 -1.421875 25.265625 0.953125 
Q 20.953125 3.328125 18.109375 8.203125 
z
M 48.6875 27.296875 
Q 48.6875 37.203125 44.609375 42.84375 
Q 40.53125 48.484375 33.40625 48.484375 
Q 26.265625 48.484375 22.1875 42.84375 
Q 18.109375 37.203125 18.109375 27.296875 
Q 18.109375 17.390625 22.1875 11.75 
Q 26.265625 6.109375 33.40625 6.109375 
Q 40.53125 6.109375 44.609375 11.75 
Q 48.6875 17.390625 48.6875 27.296875 
z
" id="DejaVuSans-112"/>
       <path d="M 41.109375 46.296875 
Q 39.59375 47.171875 37.8125 47.578125 
Q 36.03125 48 33.890625 48 
Q 26.265625 48 22.1875 43.046875 
Q 18.109375 38.09375 18.109375 28.8125 
L 18.109375 0 
L 9.078125 0 
L 9.078125 54.6875 
L 18.109375 54.6875 
L 18.109375 46.1875 
Q 20.953125 51.171875 25.484375 53.578125 
Q 30.03125 56 36.53125 56 
Q 37.453125 56 38.578125 55.875 
Q 39.703125 55.765625 41.0625 55.515625 
z
" id="DejaVuSans-114"/>
       <path d="M 52 44.1875 
Q 55.375 50.25 60.0625 53.125 
Q 64.75 56 71.09375 56 
Q 79.640625 56 84.28125 50.015625 
Q 88.921875 44.046875 88.921875 33.015625 
L 88.921875 0 
L 79.890625 0 
L 79.890625 32.71875 
Q 79.890625 40.578125 77.09375 44.375 
Q 74.3125 48.1875 68.609375 48.1875 
Q 61.625 48.1875 57.5625 43.546875 
Q 53.515625 38.921875 53.515625 30.90625 
L 53.515625 0 
L 44.484375 0 
L 44.484375 32.71875 
Q 44.484375 40.625 41.703125 44.40625 
Q 38.921875 48.1875 33.109375 48.1875 
Q 26.21875 48.1875 22.15625 43.53125 
Q 18.109375 38.875 18.109375 30.90625 
L 18.109375 0 
L 9.078125 0 
L 9.078125 54.6875 
L 18.109375 54.6875 
L 18.109375 46.1875 
Q 21.1875 51.21875 25.484375 53.609375 
Q 29.78125 56 35.6875 56 
Q 41.65625 56 45.828125 52.96875 
Q 50 49.953125 52 44.1875 
z
" id="DejaVuSans-109"/>
       <path d="M 9.421875 54.6875 
L 18.40625 54.6875 
L 18.40625 0 
L 9.421875 0 
z
M 9.421875 75.984375 
L 18.40625 75.984375 
L 18.40625 64.59375 
L 9.421875 64.59375 
z
" id="DejaVuSans-105"/>
       <path d="M 9.421875 75.984375 
L 18.40625 75.984375 
L 18.40625 0 
L 9.421875 0 
z
" id="DejaVuSans-108"/>
       <path d="M 30.609375 48.390625 
Q 23.390625 48.390625 19.1875 42.75 
Q 14.984375 37.109375 14.984375 27.296875 
Q 14.984375 17.484375 19.15625 11.84375 
Q 23.34375 6.203125 30.609375 6.203125 
Q 37.796875 6.203125 41.984375 11.859375 
Q 46.1875 17.53125 46.1875 27.296875 
Q 46.1875 37.015625 41.984375 42.703125 
Q 37.796875 48.390625 30.609375 48.390625 
z
M 30.609375 56 
Q 42.328125 56 49.015625 48.375 
Q 55.71875 40.765625 55.71875 27.296875 
Q 55.71875 13.875 49.015625 6.21875 
Q 42.328125 -1.421875 30.609375 -1.421875 
Q 18.84375 -1.421875 12.171875 6.21875 
Q 5.515625 13.875 5.515625 27.296875 
Q 5.515625 40.765625 12.171875 48.375 
Q 18.84375 56 30.609375 56 
z
" id="DejaVuSans-111"/>
       <path d="M 54.890625 33.015625 
L 54.890625 0 
L 45.90625 0 
L 45.90625 32.71875 
Q 45.90625 40.484375 42.875 44.328125 
Q 39.84375 48.1875 33.796875 48.1875 
Q 26.515625 48.1875 22.3125 43.546875 
Q 18.109375 38.921875 18.109375 30.90625 
L 18.109375 0 
L 9.078125 0 
L 9.078125 54.6875 
L 18.109375 54.6875 
L 18.109375 46.1875 
Q 21.34375 51.125 25.703125 53.5625 
Q 30.078125 56 35.796875 56 
Q 45.21875 56 50.046875 50.171875 
Q 54.890625 44.34375 54.890625 33.015625 
z
" id="DejaVuSans-110"/>
       <path d="M 8.5 21.578125 
L 8.5 54.6875 
L 17.484375 54.6875 
L 17.484375 21.921875 
Q 17.484375 14.15625 20.5 10.265625 
Q 23.53125 6.390625 29.59375 6.390625 
Q 36.859375 6.390625 41.078125 11.03125 
Q 45.3125 15.671875 45.3125 23.6875 
L 45.3125 54.6875 
L 54.296875 54.6875 
L 54.296875 0 
L 45.3125 0 
L 45.3125 8.40625 
Q 42.046875 3.421875 37.71875 1 
Q 33.40625 -1.421875 27.6875 -1.421875 
Q 18.265625 -1.421875 13.375 4.4375 
Q 8.5 10.296875 8.5 21.578125 
z
M 31.109375 56 
z
" id="DejaVuSans-117"/>
      </defs>
      <use xlink:href="#DejaVuSans-78"/>
      <use x="74.804688" xlink:href="#DejaVuSans-101"/>
      <use x="136.328125" xlink:href="#DejaVuSans-119"/>
      <use x="218.115234" xlink:href="#DejaVuSans-32"/>
      <use x="249.902344" xlink:href="#DejaVuSans-99"/>
      <use x="304.882812" xlink:href="#DejaVuSans-97"/>
      <use x="366.162109" xlink:href="#DejaVuSans-115"/>
      <use x="418.261719" xlink:href="#DejaVuSans-101"/>
      <use x="479.785156" xlink:href="#DejaVuSans-115"/>
      <use x="531.884766" xlink:href="#DejaVuSans-32"/>
      <use x="563.671875" xlink:href="#DejaVuSans-112"/>
      <use x="627.148438" xlink:href="#DejaVuSans-101"/>
      <use x="688.671875" xlink:href="#DejaVuSans-114"/>
      <use x="729.785156" xlink:href="#DejaVuSans-32"/>
      <use x="761.572266" xlink:href="#DejaVuSans-109"/>
      <use x="858.984375" xlink:href="#DejaVuSans-105"/>
      <use x="886.767578" xlink:href="#DejaVuSans-108"/>
      <use x="914.550781" xlink:href="#DejaVuSans-108"/>
      <use x="942.333984" xlink:href="#DejaVuSans-105"/>
      <use x="970.117188" xlink:href="#DejaVuSans-111"/>
      <use x="1031.298828" xlink:href="#DejaVuSans-110"/>
      <use x="1094.677734" xlink:href="#DejaVuSans-32"/>
      <use x="1126.464844" xlink:href="#DejaVuSans-112"/>
      <use x="1189.941406" xlink:href="#DejaVuSans-111"/>
      <use x="1251.123047" xlink:href="#DejaVuSans-112"/>
      <use x="1314.599609" xlink:href="#DejaVuSans-117"/>
      <use x="1377.978516" xlink:href="#DejaVuSans-108"/>
      <use x="1405.761719" xlink:href="#DejaVuSans-97"/>
      <use x="1467.041016" xlink:href="#DejaVuSans-116"/>
      <use x="1506.25" xlink:href="#DejaVuSans-105"/>
      <use x="1534.033203" xlink:href="#DejaVuSans-111"/>
      <use x="1595.214844" xlink:href="#DejaVuSans-110"/>
     </g>
    </g>
   </g>
   <g id="line2d_17">
    <path clip-path="url(#pdc75f91a19)" d="M 69.09145 216.630892 
L 70.427219 217.075609 
L 73.098755 217.297967 
L 78.441829 217.520326 
L 81.113366 217.012078 
L 82.449134 216.885016 
L 85.120671 216.885016 
L 87.792208 216.376769 
L 89.127976 216.503831 
L 90.463745 216.503831 
L 93.135281 215.741459 
L 94.47105 215.487336 
L 95.806818 215.360274 
L 99.814123 214.216717 
L 101.149892 214.089655 
L 102.48566 212.310788 
L 103.821429 211.167231 
L 105.157197 208.625994 
L 106.492965 207.228313 
L 107.828734 205.449447 
L 109.164502 202.399961 
L 110.500271 199.731662 
L 113.171807 194.776248 
L 114.507576 193.632691 
L 115.843344 191.726763 
L 117.179113 190.20202 
L 118.514881 190.329082 
L 119.850649 190.20202 
L 121.186418 191.599701 
L 122.522186 193.505629 
L 123.857955 194.140939 
L 125.193723 196.173929 
L 126.529491 197.190424 
L 127.86526 197.952795 
L 129.201028 197.698671 
L 130.536797 196.9363 
L 131.872565 195.792743 
L 133.208333 196.173929 
L 134.544102 195.284496 
L 135.87987 192.616196 
L 137.215639 191.853825 
L 138.551407 191.853825 
L 139.887175 192.743258 
L 141.222944 192.87032 
L 142.558712 193.759753 
L 143.894481 191.853825 
L 146.566017 190.83733 
L 147.901786 190.456144 
L 149.237554 188.804339 
L 150.573323 188.677278 
L 151.909091 187.533721 
L 153.244859 189.312587 
L 154.580628 191.853825 
L 155.916396 191.599701 
L 157.252165 193.124444 
L 158.587933 192.616196 
L 159.923701 193.505629 
L 161.25947 194.140939 
L 162.595238 192.743258 
L 163.931006 191.980887 
L 165.266775 192.23501 
L 166.602543 190.456144 
L 167.938312 192.743258 
L 169.27408 192.107948 
L 170.609848 192.362072 
L 171.945617 192.87032 
L 173.281385 193.505629 
L 174.617154 193.886815 
L 175.952922 196.682176 
L 177.28869 197.190424 
L 179.960227 197.952795 
L 181.295996 200.748157 
L 182.631764 201.002281 
L 183.967532 202.908209 
L 185.303301 201.256404 
L 186.639069 200.875219 
L 187.974838 202.272899 
L 189.310606 202.781147 
L 190.646374 201.256404 
L 191.982143 202.781147 
L 193.317911 203.162333 
L 194.65368 204.687075 
L 195.989448 206.847127 
L 197.325216 206.720065 
L 198.660985 207.482437 
L 199.996753 209.261303 
L 201.332522 210.277798 
L 202.66829 210.658984 
L 204.004058 211.548417 
L 205.339827 211.04017 
L 206.675595 211.167231 
L 208.011364 211.167231 
L 209.347132 210.913108 
L 210.6829 210.40486 
L 212.018669 210.40486 
L 213.354437 210.531922 
L 214.690206 211.04017 
L 216.025974 212.056665 
L 217.361742 212.43785 
L 220.033279 213.835531 
L 221.369048 213.962593 
L 222.704816 213.200222 
L 224.040584 213.454345 
L 225.376353 213.200222 
L 226.712121 213.07316 
L 228.04789 211.929603 
L 229.383658 211.675479 
L 230.719426 211.929603 
L 232.055195 212.819036 
L 233.390963 213.07316 
L 234.726732 212.310788 
L 236.0625 212.183726 
L 237.398268 213.581407 
L 238.734037 214.089655 
L 240.069805 213.708469 
L 241.405574 212.43785 
L 242.741342 212.183726 
L 244.07711 213.07316 
L 245.412879 213.327283 
L 246.748647 213.200222 
L 248.084416 212.691974 
L 249.420184 213.327283 
L 250.755952 214.343779 
L 253.427489 214.343779 
L 254.763258 214.597902 
L 256.099026 214.216717 
L 257.434794 214.724964 
L 258.770563 215.10615 
L 260.106331 215.614397 
L 261.4421 215.233212 
L 262.777868 215.10615 
L 265.449405 214.597902 
L 266.785173 214.724964 
L 268.120942 214.343779 
L 269.45671 214.216717 
L 270.792478 213.962593 
L 272.128247 214.089655 
L 274.799784 214.852026 
L 277.47132 214.343779 
L 278.807089 214.216717 
L 280.142857 214.852026 
L 281.478626 215.10615 
L 282.814394 215.10615 
L 284.150162 214.979088 
L 285.485931 215.10615 
L 286.821699 215.741459 
L 288.157468 215.360274 
L 289.493236 215.233212 
L 290.829004 214.852026 
L 292.164773 214.852026 
L 293.500541 214.979088 
L 294.83631 214.979088 
L 296.172078 213.962593 
L 297.507846 213.962593 
L 298.843615 214.216717 
L 301.515152 213.708469 
L 302.85092 213.581407 
L 304.186688 213.835531 
L 305.522457 213.835531 
L 306.858225 214.343779 
L 308.193994 214.216717 
L 309.529762 214.216717 
L 310.86553 214.089655 
L 312.201299 213.581407 
L 313.537067 212.691974 
L 314.872835 212.056665 
L 316.208604 210.658984 
L 317.544372 210.277798 
L 318.880141 209.261303 
L 320.215909 208.880117 
L 321.551677 206.593003 
L 322.887446 205.70357 
L 324.223214 205.830632 
L 325.558983 205.195323 
L 326.894751 203.67058 
L 328.230519 203.924704 
L 329.566288 204.051766 
L 330.902056 205.068261 
L 332.237825 205.195323 
L 333.573593 203.035271 
L 334.909361 203.162333 
L 336.24513 202.272899 
L 337.580898 199.985785 
L 340.252435 196.046867 
L 341.588203 193.505629 
L 342.923972 192.616196 
L 346.931277 186.771349 
L 348.267045 183.340678 
L 349.602814 182.197121 
L 350.938582 178.512327 
L 352.274351 172.159232 
L 353.610119 167.457943 
L 354.945887 161.486034 
L 356.281656 159.325982 
L 357.617424 155.005878 
L 358.953193 148.779845 
L 360.288961 143.316184 
L 361.624729 140.012575 
L 362.960498 134.29479 
L 364.296266 134.548914 
L 365.632035 132.007676 
L 366.967803 134.167728 
L 368.303571 131.753553 
L 369.63934 132.770048 
L 370.975108 134.548914 
L 372.310877 136.073657 
L 373.646645 133.405357 
L 374.982413 134.29479 
L 376.318182 130.737057 
L 377.65395 128.577005 
L 378.989719 124.638087 
L 380.325487 119.555612 
L 381.661255 120.317983 
L 382.997024 121.334478 
L 384.332792 120.063859 
L 385.668561 117.522621 
L 387.004329 116.506126 
L 388.340097 115.108446 
L 389.675866 117.141436 
L 391.011634 111.042465 
L 392.347403 108.628289 
L 393.683171 109.136537 
L 395.018939 112.69427 
L 396.354708 109.390661 
L 397.690476 111.550713 
L 399.026245 110.534218 
L 400.362013 109.898908 
L 401.697781 114.72726 
L 403.03355 114.72726 
L 404.369318 124.892211 
L 404.369318 124.892211 
" style="fill:none;stroke:#1f77b4;stroke-linecap:square;stroke-width:1.5;"/>
   </g>
   <g id="line2d_18">
    <path clip-path="url(#pdc75f91a19)" d="M 81.113366 216.658897 
L 83.784903 216.658897 
L 86.456439 217.003468 
L 89.127976 216.535836 
L 90.463745 216.043591 
L 91.799513 215.428284 
L 93.135281 215.305223 
L 94.47105 214.689917 
L 95.806818 213.828488 
L 97.142587 212.720937 
L 98.478355 210.628896 
L 99.814123 210.628896 
L 102.48566 209.029099 
L 103.821429 208.290732 
L 106.492965 209.767467 
L 107.828734 208.906038 
L 109.164502 205.460323 
L 110.500271 204.106649 
L 111.836039 201.891547 
L 113.171807 201.399302 
L 114.507576 199.061138 
L 115.843344 196.476852 
L 117.179113 196.722974 
L 118.514881 198.322771 
L 119.850649 197.461342 
L 121.186418 198.199709 
L 122.522186 197.953587 
L 123.857955 197.461342 
L 125.193723 199.430322 
L 126.529491 200.783996 
L 127.86526 201.399302 
L 129.201028 203.983588 
L 130.536797 204.968078 
L 131.872565 204.845017 
L 133.208333 204.475833 
L 134.544102 202.260731 
L 135.87987 201.645424 
L 137.215639 199.922567 
L 138.551407 198.445832 
L 139.887175 195.369301 
L 141.222944 195.000117 
L 142.558712 197.461342 
L 143.894481 196.476852 
L 145.230249 194.877056 
L 146.566017 193.892566 
L 147.901786 191.431341 
L 149.237554 194.015627 
L 150.573323 195.369301 
L 151.909091 194.138688 
L 153.244859 194.138688 
L 154.580628 195.000117 
L 155.916396 192.785014 
L 157.252165 194.261749 
L 158.587933 192.046647 
L 159.923701 191.062157 
L 161.25947 189.708483 
L 162.595238 190.077667 
L 163.931006 188.354809 
L 165.266775 190.446851 
L 166.602543 190.569912 
L 167.938312 189.462361 
L 169.27408 184.293788 
L 170.609848 183.555421 
L 171.945617 183.432359 
L 173.281385 182.570931 
L 174.617154 182.201747 
L 175.952922 179.371338 
L 177.28869 181.832563 
L 178.624459 185.401339 
L 179.960227 187.001136 
L 181.295996 187.985626 
L 182.631764 190.569912 
L 183.967532 191.554402 
L 185.303301 193.769504 
L 186.639069 193.400321 
L 187.974838 194.630933 
L 189.310606 193.769504 
L 190.646374 191.431341 
L 191.982143 186.139707 
L 193.317911 186.755013 
L 194.65368 186.385829 
L 195.989448 186.139707 
L 197.325216 185.770523 
L 198.660985 183.432359 
L 199.996753 181.709502 
L 201.332522 182.078686 
L 202.66829 178.263787 
L 204.004058 173.464398 
L 205.339827 170.018683 
L 206.675595 165.834601 
L 208.011364 163.988682 
L 209.347132 161.773579 
L 212.018669 159.681538 
L 213.354437 159.927661 
L 214.690206 157.097252 
L 216.025974 155.989701 
L 217.361742 155.497456 
L 218.697511 153.774598 
L 220.033279 151.559496 
L 221.369048 147.990719 
L 222.704816 148.113781 
L 224.040584 149.098271 
L 225.376353 150.944189 
L 226.712121 154.759088 
L 228.04789 156.112762 
L 229.383658 159.927661 
L 230.719426 163.250314 
L 232.055195 165.219294 
L 233.390963 166.203784 
L 234.726732 167.680519 
L 236.0625 162.265824 
L 237.398268 162.388886 
L 238.734037 162.635008 
L 240.069805 163.742559 
L 241.405574 165.342356 
L 242.741342 164.850111 
L 244.07711 162.511947 
L 245.412879 169.034193 
L 246.748647 172.602969 
L 248.084416 174.941133 
L 249.420184 177.648481 
L 250.755952 177.402358 
L 252.091721 181.340318 
L 253.427489 184.416849 
L 254.763258 185.278278 
L 256.099026 187.493381 
L 257.434794 188.847054 
L 258.770563 187.862564 
L 260.106331 188.354809 
L 261.4421 188.970116 
L 262.777868 191.431341 
L 264.113636 191.677463 
L 265.449405 190.077667 
L 268.120942 192.169708 
L 269.45671 192.292769 
L 270.792478 193.769504 
L 272.128247 192.046647 
L 273.464015 192.538892 
L 274.799784 194.015627 
L 276.135552 193.031137 
L 278.807089 191.677463 
L 280.142857 189.339299 
L 281.478626 188.108687 
L 282.814394 187.247258 
L 284.150162 186.878074 
L 285.485931 186.755013 
L 286.821699 189.339299 
L 288.157468 191.062157 
L 289.493236 192.046647 
L 290.829004 194.630933 
L 292.164773 195.738484 
L 293.500541 194.138688 
L 294.83631 193.400321 
L 296.172078 194.138688 
L 297.507846 195.492362 
L 298.843615 196.230729 
L 300.179383 197.338281 
L 301.515152 197.461342 
L 302.85092 201.399302 
L 304.186688 204.229711 
L 305.522457 204.968078 
L 306.858225 205.952568 
L 308.193994 206.321752 
L 309.529762 206.198691 
L 310.86553 206.198691 
L 312.201299 206.444813 
L 313.537067 203.983588 
L 314.872835 200.168689 
L 316.208604 198.199709 
L 317.544372 195.738484 
L 318.880141 192.661953 
L 320.215909 190.939096 
L 321.551677 185.647462 
L 322.887446 182.570931 
L 324.223214 180.725012 
L 326.894751 178.386848 
L 328.230519 177.402358 
L 329.566288 177.156236 
L 330.902056 178.386848 
L 332.237825 178.632971 
L 333.573593 179.248277 
L 336.24513 173.464398 
L 337.580898 169.649499 
L 338.916667 168.295826 
L 340.252435 165.588478 
L 341.588203 164.357866 
L 342.923972 163.496437 
L 344.25974 164.973172 
L 345.595509 167.311336 
L 346.931277 168.788071 
L 348.267045 168.911132 
L 349.602814 171.126234 
L 350.938582 169.649499 
L 352.274351 167.434397 
L 353.610119 163.619498 
L 354.945887 158.573987 
L 356.281656 159.312354 
L 357.617424 156.358884 
L 358.953193 153.036231 
L 360.288961 150.575006 
L 361.624729 147.129291 
L 362.960498 143.191331 
L 364.296266 142.945208 
L 365.632035 141.591534 
L 366.967803 137.161329 
L 368.303571 131.623573 
L 369.63934 130.885205 
L 370.975108 122.270918 
L 372.310877 122.024795 
L 374.982413 119.071325 
L 376.318182 120.301938 
L 377.65395 114.764182 
L 378.989719 106.396017 
L 380.325487 105.288465 
L 381.661255 97.535607 
L 382.997024 88.552135 
L 384.332792 78.707235 
L 385.668561 70.33907 
L 387.004329 67.877845 
L 388.340097 64.678253 
L 389.675866 63.201518 
L 391.011634 53.60274 
L 392.347403 54.341108 
L 393.683171 56.187027 
L 395.018939 60.49417 
L 396.354708 45.480698 
L 397.690476 36.620288 
L 399.026245 37.973962 
L 400.362013 40.558248 
L 401.697781 35.88192 
L 403.03355 44.250085 
L 404.369318 58.279068 
L 404.369318 58.279068 
" style="fill:none;stroke:#ff7f0e;stroke-linecap:square;stroke-width:1.5;"/>
   </g>
   <g id="line2d_19">
    <path clip-path="url(#pdc75f91a19)" d="M 70.427219 217.026617 
L 71.762987 217.273471 
L 73.098755 217.355756 
L 74.434524 217.273471 
L 77.106061 217.355756 
L 81.113366 217.238206 
L 82.449134 217.026617 
L 91.799513 216.532908 
L 93.135281 216.109729 
L 94.47105 215.404431 
L 95.806818 215.263371 
L 97.142587 214.558073 
L 98.478355 214.064364 
L 102.48566 212.089528 
L 103.821429 211.948469 
L 105.157197 211.10211 
L 106.492965 209.832573 
L 107.828734 209.127275 
L 109.164502 207.716678 
L 110.500271 207.222969 
L 113.171807 205.248134 
L 114.507576 204.683895 
L 115.843344 204.824955 
L 117.179113 203.908067 
L 118.514881 204.119657 
L 119.850649 203.625948 
L 121.186418 203.978597 
L 122.522186 204.190186 
L 123.857955 203.837537 
L 125.193723 203.978597 
L 126.529491 205.107074 
L 127.86526 204.049127 
L 129.201028 203.625948 
L 130.536797 203.696477 
L 131.872565 203.555418 
L 133.208333 202.49747 
L 134.544102 201.086874 
L 135.87987 199.887866 
L 137.215639 199.958396 
L 138.551407 198.26568 
L 139.887175 195.656076 
L 141.222944 195.303427 
L 142.558712 193.540181 
L 143.894481 193.258062 
L 145.230249 192.059054 
L 146.566017 189.026271 
L 147.901786 188.744152 
L 149.237554 189.44945 
L 150.573323 188.885212 
L 151.909091 190.789517 
L 153.244859 191.212696 
L 154.580628 190.648458 
L 155.916396 193.117002 
L 157.252165 191.776935 
L 158.587933 192.905412 
L 159.923701 193.399121 
L 161.25947 194.03389 
L 163.931006 195.726606 
L 165.266775 197.066673 
L 166.602543 200.452105 
L 167.938312 201.510053 
L 169.27408 202.77959 
L 170.609848 203.625948 
L 171.945617 205.107074 
L 173.281385 205.953432 
L 174.617154 206.94085 
L 177.28869 207.293499 
L 178.624459 206.658731 
L 179.960227 207.222969 
L 181.295996 206.94085 
L 182.631764 208.280917 
L 183.967532 207.575619 
L 185.303301 207.15244 
L 186.639069 207.505089 
L 187.974838 207.716678 
L 189.310606 207.222969 
L 190.646374 207.928268 
L 191.982143 208.139857 
L 193.317911 209.620984 
L 194.65368 211.45476 
L 195.989448 211.736879 
L 197.325216 213.006416 
L 198.660985 213.993834 
L 199.996753 214.275953 
L 201.332522 214.769662 
L 202.66829 213.923304 
L 204.004058 214.064364 
L 205.339827 214.064364 
L 206.675595 213.006416 
L 208.011364 212.724297 
L 209.347132 211.45476 
L 210.6829 211.17264 
L 212.018669 211.45476 
L 213.354437 210.819991 
L 214.690206 211.10211 
L 216.025974 211.525289 
L 217.361742 211.525289 
L 218.697511 212.230588 
L 220.033279 212.301118 
L 222.704816 213.782244 
L 224.040584 214.134893 
L 225.376353 214.769662 
L 226.712121 215.051781 
L 228.04789 215.47496 
L 229.383658 215.75708 
L 232.055195 216.039199 
L 233.390963 215.968669 
L 236.0625 216.109729 
L 238.734037 216.462378 
L 241.405574 216.391848 
L 244.07711 216.462378 
L 245.412879 216.603438 
L 246.748647 216.321318 
L 248.084416 216.250789 
L 249.420184 216.532908 
L 250.755952 216.673968 
L 254.763258 216.673968 
L 257.434794 217.097147 
L 258.770563 216.815027 
L 260.106331 216.815027 
L 262.777868 216.462378 
L 264.113636 216.321318 
L 265.449405 216.391848 
L 266.785173 215.968669 
L 268.120942 215.68655 
L 269.45671 215.68655 
L 272.128247 215.968669 
L 273.464015 215.82761 
L 277.47132 215.82761 
L 278.807089 215.47496 
L 281.478626 215.404431 
L 282.814394 215.47496 
L 284.150162 214.981252 
L 285.485931 215.051781 
L 288.157468 214.840192 
L 289.493236 214.064364 
L 292.164773 213.993834 
L 293.500541 213.993834 
L 294.83631 213.852774 
L 297.507846 214.064364 
L 298.843615 214.910722 
L 301.515152 214.981252 
L 304.186688 215.54549 
L 305.522457 215.61602 
L 306.858225 214.981252 
L 308.193994 214.769662 
L 309.529762 214.275953 
L 310.86553 214.205423 
L 312.201299 213.782244 
L 316.208604 209.268335 
L 317.544372 207.222969 
L 318.880141 206.376611 
L 320.215909 204.824955 
L 321.551677 201.792172 
L 322.887446 201.298463 
L 325.558983 201.510053 
L 328.230519 202.850119 
L 329.566288 202.568 
L 330.902056 204.331246 
L 332.237825 204.895485 
L 333.573593 204.049127 
L 334.909361 203.414358 
L 336.24513 203.414358 
L 340.252435 198.829919 
L 341.588203 196.008725 
L 342.923972 194.386539 
L 344.25974 193.469651 
L 345.595509 191.424286 
L 346.931277 189.66104 
L 348.267045 188.109383 
L 350.938582 181.550108 
L 352.274351 177.177259 
L 353.610119 175.837192 
L 354.945887 170.406394 
L 356.281656 168.713678 
L 357.617424 168.149439 
L 358.953193 165.892484 
L 360.288961 164.975597 
L 361.624729 164.764007 
L 362.960498 159.826918 
L 364.296266 161.308045 
L 365.632035 160.391157 
L 366.967803 158.98056 
L 368.303571 157.005725 
L 369.63934 157.076255 
L 370.975108 155.454068 
L 372.310877 157.852083 
L 373.646645 157.146785 
L 374.982413 157.217314 
L 377.65395 154.8193 
L 378.989719 151.292808 
L 382.997024 142.829228 
L 384.332792 140.995452 
L 385.668561 140.290153 
L 387.004329 137.962669 
L 388.340097 136.058363 
L 389.675866 134.506707 
L 391.011634 132.390812 
L 393.683171 126.889484 
L 395.018939 124.844119 
L 396.354708 118.637493 
L 397.690476 114.053054 
L 399.026245 109.891793 
L 400.362013 106.294772 
L 401.697781 101.005034 
L 403.03355 98.18384 
L 404.369318 109.045435 
L 404.369318 109.045435 
" style="fill:none;stroke:#2ca02c;stroke-linecap:square;stroke-width:1.5;"/>
   </g>
   <g id="line2d_20">
    <path clip-path="url(#pdc75f91a19)" d="M 83.784903 216.573965 
L 85.120671 217.047146 
L 86.456439 216.573965 
L 87.792208 216.573965 
L 89.127976 216.384693 
L 90.463745 216.416239 
L 91.799513 216.303577 
L 94.47105 216.303577 
L 95.806818 216.168382 
L 98.478355 214.54605 
L 99.814123 213.59969 
L 101.149892 212.247747 
L 102.48566 211.436581 
L 103.821429 210.084638 
L 105.157197 209.679055 
L 106.492965 209.679055 
L 107.828734 208.462306 
L 109.164502 204.136087 
L 110.500271 202.378561 
L 114.507576 195.889233 
L 115.843344 193.050152 
L 117.179113 191.157432 
L 118.514881 191.833403 
L 119.850649 190.346266 
L 121.186418 190.211071 
L 123.857955 186.42563 
L 125.193723 186.020047 
L 126.529491 185.208881 
L 127.86526 186.560824 
L 129.201028 185.208881 
L 130.536797 183.180966 
L 131.872565 181.558634 
L 133.208333 181.829023 
L 134.544102 181.829023 
L 135.87987 182.099411 
L 137.215639 179.936302 
L 138.551407 182.099411 
L 139.887175 181.153051 
L 141.222944 185.344075 
L 142.558712 187.912768 
L 143.894481 187.912768 
L 146.566017 190.616654 
L 147.901786 188.183156 
L 149.237554 190.751849 
L 150.573323 191.563014 
L 151.909091 191.698209 
L 153.244859 193.726124 
L 154.580628 195.078067 
L 155.916396 194.807678 
L 157.252165 197.781954 
L 158.587933 199.404286 
L 159.923701 199.945063 
L 161.25947 199.945063 
L 162.595238 196.835593 
L 163.931006 195.618844 
L 165.266775 198.457925 
L 166.602543 200.621035 
L 167.938312 201.567395 
L 169.27408 201.837784 
L 170.609848 203.189727 
L 171.945617 207.380751 
L 173.281385 209.814249 
L 174.617154 210.625415 
L 175.952922 210.490221 
L 177.28869 210.895804 
L 178.624459 211.977358 
L 179.960227 211.571775 
L 181.295996 211.301387 
L 182.631764 211.571775 
L 183.967532 209.273472 
L 185.303301 209.408666 
L 186.639069 209.138277 
L 187.974838 207.65114 
L 189.310606 208.191917 
L 190.646374 208.327111 
L 191.982143 208.191917 
L 193.317911 211.030998 
L 194.65368 211.70697 
L 195.989448 212.65333 
L 197.325216 213.194107 
L 198.660985 213.194107 
L 199.996753 214.140467 
L 201.332522 214.005273 
L 202.66829 213.329301 
L 204.004058 214.005273 
L 205.339827 213.59969 
L 206.675595 214.140467 
L 208.011364 214.005273 
L 209.347132 214.005273 
L 210.6829 214.681245 
L 212.018669 214.951633 
L 213.354437 214.816439 
L 214.690206 214.951633 
L 216.025974 215.357216 
L 217.361742 216.033188 
L 218.697511 215.897994 
L 220.033279 215.897994 
L 221.369048 216.438771 
L 222.704816 216.438771 
L 224.040584 216.573965 
L 225.376353 216.573965 
L 226.712121 216.303577 
L 228.04789 216.168382 
L 229.383658 216.168382 
L 230.719426 216.303577 
L 232.055195 216.168382 
L 233.390963 216.303577 
L 234.726732 216.033188 
L 237.398268 216.303577 
L 240.069805 216.303577 
L 241.405574 216.438771 
L 242.741342 216.438771 
L 245.412879 216.70916 
L 246.748647 217.114743 
L 248.084416 217.249937 
L 250.755952 216.979548 
L 252.091721 216.70916 
L 253.427489 216.844354 
L 254.763258 216.844354 
L 256.099026 216.573965 
L 257.434794 216.438771 
L 260.106331 216.438771 
L 261.4421 216.70916 
L 264.113636 216.70916 
L 265.449405 216.979548 
L 266.785173 216.979548 
L 269.45671 217.249937 
L 272.128247 217.249937 
L 274.799784 216.70916 
L 276.135552 216.844354 
L 277.47132 216.70916 
L 280.142857 216.70916 
L 281.478626 216.573965 
L 282.814394 216.844354 
L 284.150162 216.844354 
L 285.485931 216.168382 
L 286.821699 215.222022 
L 288.157468 214.951633 
L 289.493236 214.951633 
L 290.829004 215.086828 
L 293.500541 214.54605 
L 294.83631 215.086828 
L 296.172078 215.086828 
L 297.507846 214.54605 
L 298.843615 213.734884 
L 300.179383 212.382941 
L 301.515152 212.382941 
L 302.85092 212.788524 
L 304.186688 212.518136 
L 305.522457 213.058913 
L 306.858225 213.464496 
L 308.193994 214.005273 
L 309.529762 214.140467 
L 310.86553 213.59969 
L 312.201299 212.788524 
L 313.537067 210.895804 
L 314.872835 210.219832 
L 317.544372 208.462306 
L 318.880141 208.732694 
L 320.215909 208.327111 
L 321.551677 207.786334 
L 322.887446 208.732694 
L 324.223214 208.056723 
L 325.558983 206.704779 
L 326.894751 205.758419 
L 328.230519 205.758419 
L 329.566288 205.082447 
L 332.237825 201.972978 
L 333.573593 198.59312 
L 334.909361 195.754039 
L 336.24513 191.022237 
L 337.580898 187.236796 
L 338.916667 180.882662 
L 340.252435 173.176586 
L 341.588203 166.957647 
L 342.923972 158.034821 
L 344.25974 153.303019 
L 345.595509 150.058355 
L 346.931277 143.704222 
L 348.267045 142.893056 
L 350.938582 140.324364 
L 352.274351 143.433833 
L 354.945887 140.053975 
L 356.281656 141.270724 
L 357.617424 138.97242 
L 358.953193 137.620477 
L 360.288961 133.97023 
L 361.624729 132.347898 
L 362.960498 132.483093 
L 364.296266 132.07751 
L 365.632035 135.727757 
L 366.967803 141.000335 
L 368.303571 142.757862 
L 369.63934 143.433833 
L 370.975108 140.865141 
L 372.310877 141.405918 
L 373.646645 144.380194 
L 374.982413 141.000335 
L 376.318182 140.459558 
L 377.65395 139.783586 
L 378.989719 142.893056 
L 380.325487 144.380194 
L 381.661255 143.02825 
L 382.997024 140.865141 
L 384.332792 140.594752 
L 385.668561 137.485283 
L 387.004329 135.322174 
L 388.340097 132.212704 
L 389.675866 134.240619 
L 391.011634 133.02387 
L 392.347403 131.131149 
L 393.683171 132.483093 
L 395.018939 133.159064 
L 396.354708 130.995955 
L 397.690476 127.886485 
L 399.026245 122.613907 
L 400.362013 122.073129 
L 401.697781 117.206133 
L 403.03355 111.257583 
L 404.369318 119.774826 
L 404.369318 119.774826 
" style="fill:none;stroke:#d62728;stroke-linecap:square;stroke-width:1.5;"/>
   </g>
   <g id="line2d_21">
    <path clip-path="url(#pdc75f91a19)" d="M 67.755682 216.578571 
L 69.09145 217.049449 
L 71.762987 217.284887 
L 75.770292 217.385789 
L 77.106061 217.251253 
L 79.777597 217.251253 
L 83.784903 216.847644 
L 85.120671 216.578571 
L 86.456439 216.847644 
L 87.792208 216.578571 
L 89.127976 216.578571 
L 90.463745 216.713108 
L 91.799513 216.713108 
L 94.47105 216.444035 
L 97.142587 215.098672 
L 98.478355 213.753309 
L 99.814123 212.946091 
L 101.149892 211.600728 
L 102.48566 209.851755 
L 103.821429 208.506392 
L 105.157197 206.219275 
L 106.492965 204.739375 
L 107.828734 203.932157 
L 109.164502 202.317721 
L 110.500271 196.936268 
L 113.171807 189.133162 
L 114.507576 186.307899 
L 115.843344 182.406346 
L 118.514881 173.796021 
L 119.850649 175.27592 
L 121.186418 177.159429 
L 122.522186 178.101183 
L 123.857955 180.253764 
L 125.193723 181.8682 
L 126.529491 182.271809 
L 129.201028 184.827999 
L 130.536797 184.827999 
L 131.872565 183.482636 
L 133.208333 181.464591 
L 134.544102 183.213564 
L 135.87987 185.231608 
L 137.215639 184.42439 
L 138.551407 183.213564 
L 139.887175 183.751709 
L 142.558712 190.478525 
L 143.894481 190.882134 
L 145.230249 191.823888 
L 147.901786 198.281632 
L 149.237554 197.070805 
L 150.573323 196.398123 
L 151.909091 195.590905 
L 154.580628 192.49657 
L 155.916396 192.631106 
L 157.252165 189.94038 
L 158.587933 190.747598 
L 159.923701 191.958424 
L 162.595238 191.958424 
L 163.931006 193.57286 
L 165.266775 190.613061 
L 166.602543 192.900179 
L 167.938312 194.514615 
L 169.27408 193.707397 
L 170.609848 194.649151 
L 171.945617 196.12905 
L 173.281385 196.263587 
L 174.617154 199.896067 
L 177.28869 200.434213 
L 178.624459 202.586794 
L 179.960227 201.914112 
L 182.631764 202.990403 
L 183.967532 202.586794 
L 185.303301 202.990403 
L 186.639069 202.990403 
L 187.974838 203.528548 
L 189.310606 205.412057 
L 190.646374 205.412057 
L 191.982143 206.622884 
L 193.317911 207.295565 
L 194.65368 207.430102 
L 195.989448 208.910001 
L 197.325216 208.506392 
L 198.660985 209.044537 
L 201.332522 211.062582 
L 202.66829 211.331655 
L 204.004058 211.8698 
L 205.339827 211.062582 
L 206.675595 211.331655 
L 208.011364 211.062582 
L 209.347132 209.986292 
L 210.6829 208.102783 
L 212.018669 208.102783 
L 213.354437 208.506392 
L 214.690206 209.31361 
L 216.025974 209.179074 
L 217.361742 209.31361 
L 218.697511 211.062582 
L 220.033279 211.8698 
L 221.369048 212.407945 
L 222.704816 212.407945 
L 225.376353 213.215163 
L 226.712121 213.753309 
L 228.04789 213.753309 
L 229.383658 214.964136 
L 232.055195 216.578571 
L 233.390963 216.309499 
L 234.726732 216.309499 
L 236.0625 216.040426 
L 237.398268 215.367745 
L 238.734037 215.636817 
L 241.405574 215.098672 
L 242.741342 215.367745 
L 244.07711 215.367745 
L 245.412879 215.636817 
L 246.748647 216.444035 
L 248.084416 216.174962 
L 250.755952 216.713108 
L 252.091721 216.847644 
L 253.427489 216.444035 
L 254.763258 216.444035 
L 256.099026 215.90589 
L 257.434794 215.90589 
L 258.770563 215.771354 
L 260.106331 215.502281 
L 261.4421 215.367745 
L 262.777868 215.771354 
L 264.113636 215.771354 
L 265.449405 216.309499 
L 266.785173 216.444035 
L 268.120942 215.771354 
L 269.45671 215.502281 
L 270.792478 215.502281 
L 272.128247 215.098672 
L 276.135552 215.098672 
L 277.47132 215.771354 
L 278.807089 216.040426 
L 280.142857 215.367745 
L 281.478626 215.90589 
L 282.814394 215.90589 
L 284.150162 215.771354 
L 285.485931 215.233208 
L 286.821699 215.502281 
L 288.157468 215.233208 
L 289.493236 215.90589 
L 290.829004 215.636817 
L 292.164773 215.233208 
L 293.500541 215.233208 
L 294.83631 215.636817 
L 296.172078 214.829599 
L 297.507846 214.829599 
L 300.179383 213.753309 
L 301.515152 213.3497 
L 304.186688 209.582683 
L 305.522457 208.640928 
L 306.858225 207.161029 
L 308.193994 204.470302 
L 309.529762 204.470302 
L 310.86553 204.20123 
L 312.201299 203.259476 
L 313.537067 201.914112 
L 314.872835 199.223386 
L 316.208604 196.936268 
L 317.544372 194.111006 
L 318.880141 191.823888 
L 321.551677 185.635217 
L 322.887446 181.464591 
L 324.223214 178.101183 
L 325.558983 175.410457 
L 326.894751 175.544993 
L 328.230519 172.316121 
L 329.566288 172.450658 
L 330.902056 170.432613 
L 332.237825 168.145495 
L 333.573593 166.127451 
L 334.909361 161.418679 
L 336.24513 157.517126 
L 337.580898 154.960936 
L 338.916667 149.444947 
L 340.252435 145.274321 
L 341.588203 143.256276 
L 342.923972 138.547505 
L 344.25974 137.740287 
L 345.595509 133.838733 
L 346.931277 133.569661 
L 348.267045 133.031515 
L 349.602814 128.860889 
L 350.938582 125.766554 
L 352.274351 121.595928 
L 353.610119 120.116028 
L 354.945887 118.905201 
L 356.281656 112.043849 
L 357.617424 107.335078 
L 358.953193 100.608262 
L 360.288961 91.997937 
L 361.624729 91.056183 
L 362.960498 80.56235 
L 364.296266 77.333478 
L 365.632035 80.696886 
L 366.967803 80.158741 
L 368.303571 82.311322 
L 369.63934 86.75102 
L 370.975108 89.441747 
L 372.310877 95.630418 
L 373.646645 100.204653 
L 374.982413 98.186608 
L 376.318182 100.877334 
L 377.65395 91.056183 
L 378.989719 90.518037 
L 380.325487 85.809266 
L 381.661255 84.329367 
L 384.332792 85.67473 
L 385.668561 90.114428 
L 387.004329 97.917535 
L 388.340097 101.550016 
L 389.675866 104.509815 
L 391.011634 111.236631 
L 392.347403 110.429413 
L 393.683171 116.079939 
L 395.018939 114.330966 
L 396.354708 115.272721 
L 397.690476 119.174274 
L 399.026245 124.959336 
L 400.362013 126.573772 
L 401.697781 130.744398 
L 403.03355 131.686152 
L 404.369318 141.64184 
L 404.369318 141.64184 
" style="fill:none;stroke:#9467bd;stroke-linecap:square;stroke-width:1.5;"/>
   </g>
   <g id="line2d_22"/>
   <g id="line2d_23"/>
   <g id="line2d_24"/>
   <g id="line2d_25"/>
   <g id="line2d_26"/>
   <g id="patch_3">
    <path d="M 50.925 226.602246 
L 50.925 26.8 
" style="fill:none;stroke:#000000;stroke-linecap:square;stroke-linejoin:miter;stroke-width:0.8;"/>
   </g>
   <g id="patch_4">
    <path d="M 421.2 226.602246 
L 421.2 26.8 
" style="fill:none;stroke:#000000;stroke-linecap:square;stroke-linejoin:miter;stroke-width:0.8;"/>
   </g>
   <g id="patch_5">
    <path d="M 50.925 226.602246 
L 421.2 226.602246 
" style="fill:none;stroke:#000000;stroke-linecap:square;stroke-linejoin:miter;stroke-width:0.8;"/>
   </g>
   <g id="patch_6">
    <path d="M 50.925 26.8 
L 421.2 26.8 
" style="fill:none;stroke:#000000;stroke-linecap:square;stroke-linejoin:miter;stroke-width:0.8;"/>
   </g>
   <g id="text_19">
    <!-- New cases per million people by UTLA (7 day rolling) -->
    <g transform="translate(77.450625 20.8)scale(0.12 -0.12)">
     <defs>
      <path d="M 48.6875 27.296875 
Q 48.6875 37.203125 44.609375 42.84375 
Q 40.53125 48.484375 33.40625 48.484375 
Q 26.265625 48.484375 22.1875 42.84375 
Q 18.109375 37.203125 18.109375 27.296875 
Q 18.109375 17.390625 22.1875 11.75 
Q 26.265625 6.109375 33.40625 6.109375 
Q 40.53125 6.109375 44.609375 11.75 
Q 48.6875 17.390625 48.6875 27.296875 
z
M 18.109375 46.390625 
Q 20.953125 51.265625 25.265625 53.625 
Q 29.59375 56 35.59375 56 
Q 45.5625 56 51.78125 48.09375 
Q 58.015625 40.1875 58.015625 27.296875 
Q 58.015625 14.40625 51.78125 6.484375 
Q 45.5625 -1.421875 35.59375 -1.421875 
Q 29.59375 -1.421875 25.265625 0.953125 
Q 20.953125 3.328125 18.109375 8.203125 
L 18.109375 0 
L 9.078125 0 
L 9.078125 75.984375 
L 18.109375 75.984375 
z
" id="DejaVuSans-98"/>
      <path d="M 32.171875 -5.078125 
Q 28.375 -14.84375 24.75 -17.8125 
Q 21.140625 -20.796875 15.09375 -20.796875 
L 7.90625 -20.796875 
L 7.90625 -13.28125 
L 13.1875 -13.28125 
Q 16.890625 -13.28125 18.9375 -11.515625 
Q 21 -9.765625 23.484375 -3.21875 
L 25.09375 0.875 
L 2.984375 54.6875 
L 12.5 54.6875 
L 29.59375 11.921875 
L 46.6875 54.6875 
L 56.203125 54.6875 
z
" id="DejaVuSans-121"/>
      <path d="M 8.6875 72.90625 
L 18.609375 72.90625 
L 18.609375 28.609375 
Q 18.609375 16.890625 22.84375 11.734375 
Q 27.09375 6.59375 36.625 6.59375 
Q 46.09375 6.59375 50.34375 11.734375 
Q 54.59375 16.890625 54.59375 28.609375 
L 54.59375 72.90625 
L 64.5 72.90625 
L 64.5 27.390625 
Q 64.5 13.140625 57.4375 5.859375 
Q 50.390625 -1.421875 36.625 -1.421875 
Q 22.796875 -1.421875 15.734375 5.859375 
Q 8.6875 13.140625 8.6875 27.390625 
z
" id="DejaVuSans-85"/>
      <path d="M -0.296875 72.90625 
L 61.375 72.90625 
L 61.375 64.59375 
L 35.5 64.59375 
L 35.5 0 
L 25.59375 0 
L 25.59375 64.59375 
L -0.296875 64.59375 
z
" id="DejaVuSans-84"/>
      <path d="M 9.8125 72.90625 
L 19.671875 72.90625 
L 19.671875 8.296875 
L 55.171875 8.296875 
L 55.171875 0 
L 9.8125 0 
z
" id="DejaVuSans-76"/>
      <path d="M 34.1875 63.1875 
L 20.796875 26.90625 
L 47.609375 26.90625 
z
M 28.609375 72.90625 
L 39.796875 72.90625 
L 67.578125 0 
L 57.328125 0 
L 50.6875 18.703125 
L 17.828125 18.703125 
L 11.1875 0 
L 0.78125 0 
z
" id="DejaVuSans-65"/>
      <path d="M 31 75.875 
Q 24.46875 64.65625 21.28125 53.65625 
Q 18.109375 42.671875 18.109375 31.390625 
Q 18.109375 20.125 21.3125 9.0625 
Q 24.515625 -2 31 -13.1875 
L 23.1875 -13.1875 
Q 15.875 -1.703125 12.234375 9.375 
Q 8.59375 20.453125 8.59375 31.390625 
Q 8.59375 42.28125 12.203125 53.3125 
Q 15.828125 64.359375 23.1875 75.875 
z
" id="DejaVuSans-40"/>
      <path d="M 45.40625 46.390625 
L 45.40625 75.984375 
L 54.390625 75.984375 
L 54.390625 0 
L 45.40625 0 
L 45.40625 8.203125 
Q 42.578125 3.328125 38.25 0.953125 
Q 33.9375 -1.421875 27.875 -1.421875 
Q 17.96875 -1.421875 11.734375 6.484375 
Q 5.515625 14.40625 5.515625 27.296875 
Q 5.515625 40.1875 11.734375 48.09375 
Q 17.96875 56 27.875 56 
Q 33.9375 56 38.25 53.625 
Q 42.578125 51.265625 45.40625 46.390625 
z
M 14.796875 27.296875 
Q 14.796875 17.390625 18.875 11.75 
Q 22.953125 6.109375 30.078125 6.109375 
Q 37.203125 6.109375 41.296875 11.75 
Q 45.40625 17.390625 45.40625 27.296875 
Q 45.40625 37.203125 41.296875 42.84375 
Q 37.203125 48.484375 30.078125 48.484375 
Q 22.953125 48.484375 18.875 42.84375 
Q 14.796875 37.203125 14.796875 27.296875 
z
" id="DejaVuSans-100"/>
      <path d="M 45.40625 27.984375 
Q 45.40625 37.75 41.375 43.109375 
Q 37.359375 48.484375 30.078125 48.484375 
Q 22.859375 48.484375 18.828125 43.109375 
Q 14.796875 37.75 14.796875 27.984375 
Q 14.796875 18.265625 18.828125 12.890625 
Q 22.859375 7.515625 30.078125 7.515625 
Q 37.359375 7.515625 41.375 12.890625 
Q 45.40625 18.265625 45.40625 27.984375 
z
M 54.390625 6.78125 
Q 54.390625 -7.171875 48.1875 -13.984375 
Q 42 -20.796875 29.203125 -20.796875 
Q 24.46875 -20.796875 20.265625 -20.09375 
Q 16.0625 -19.390625 12.109375 -17.921875 
L 12.109375 -9.1875 
Q 16.0625 -11.328125 19.921875 -12.34375 
Q 23.78125 -13.375 27.78125 -13.375 
Q 36.625 -13.375 41.015625 -8.765625 
Q 45.40625 -4.15625 45.40625 5.171875 
L 45.40625 9.625 
Q 42.625 4.78125 38.28125 2.390625 
Q 33.9375 0 27.875 0 
Q 17.828125 0 11.671875 7.65625 
Q 5.515625 15.328125 5.515625 27.984375 
Q 5.515625 40.671875 11.671875 48.328125 
Q 17.828125 56 27.875 56 
Q 33.9375 56 38.28125 53.609375 
Q 42.625 51.21875 45.40625 46.390625 
L 45.40625 54.6875 
L 54.390625 54.6875 
z
" id="DejaVuSans-103"/>
      <path d="M 8.015625 75.875 
L 15.828125 75.875 
Q 23.140625 64.359375 26.78125 53.3125 
Q 30.421875 42.28125 30.421875 31.390625 
Q 30.421875 20.453125 26.78125 9.375 
Q 23.140625 -1.703125 15.828125 -13.1875 
L 8.015625 -13.1875 
Q 14.5 -2 17.703125 9.0625 
Q 20.90625 20.125 20.90625 31.390625 
Q 20.90625 42.671875 17.703125 53.65625 
Q 14.5 64.65625 8.015625 75.875 
z
" id="DejaVuSans-41"/>
     </defs>
     <use xlink:href="#DejaVuSans-78"/>
     <use x="74.804688" xlink:href="#DejaVuSans-101"/>
     <use x="136.328125" xlink:href="#DejaVuSans-119"/>
     <use x="218.115234" xlink:href="#DejaVuSans-32"/>
     <use x="249.902344" xlink:href="#DejaVuSans-99"/>
     <use x="304.882812" xlink:href="#DejaVuSans-97"/>
     <use x="366.162109" xlink:href="#DejaVuSans-115"/>
     <use x="418.261719" xlink:href="#DejaVuSans-101"/>
     <use x="479.785156" xlink:href="#DejaVuSans-115"/>
     <use x="531.884766" xlink:href="#DejaVuSans-32"/>
     <use x="563.671875" xlink:href="#DejaVuSans-112"/>
     <use x="627.148438" xlink:href="#DejaVuSans-101"/>
     <use x="688.671875" xlink:href="#DejaVuSans-114"/>
     <use x="729.785156" xlink:href="#DejaVuSans-32"/>
     <use x="761.572266" xlink:href="#DejaVuSans-109"/>
     <use x="858.984375" xlink:href="#DejaVuSans-105"/>
     <use x="886.767578" xlink:href="#DejaVuSans-108"/>
     <use x="914.550781" xlink:href="#DejaVuSans-108"/>
     <use x="942.333984" xlink:href="#DejaVuSans-105"/>
     <use x="970.117188" xlink:href="#DejaVuSans-111"/>
     <use x="1031.298828" xlink:href="#DejaVuSans-110"/>
     <use x="1094.677734" xlink:href="#DejaVuSans-32"/>
     <use x="1126.464844" xlink:href="#DejaVuSans-112"/>
     <use x="1189.941406" xlink:href="#DejaVuSans-101"/>
     <use x="1251.464844" xlink:href="#DejaVuSans-111"/>
     <use x="1312.646484" xlink:href="#DejaVuSans-112"/>
     <use x="1376.123047" xlink:href="#DejaVuSans-108"/>
     <use x="1403.90625" xlink:href="#DejaVuSans-101"/>
     <use x="1465.429688" xlink:href="#DejaVuSans-32"/>
     <use x="1497.216797" xlink:href="#DejaVuSans-98"/>
     <use x="1560.693359" xlink:href="#DejaVuSans-121"/>
     <use x="1619.873047" xlink:href="#DejaVuSans-32"/>
     <use x="1651.660156" xlink:href="#DejaVuSans-85"/>
     <use x="1724.853516" xlink:href="#DejaVuSans-84"/>
     <use x="1785.9375" xlink:href="#DejaVuSans-76"/>
     <use x="1843.900391" xlink:href="#DejaVuSans-65"/>
     <use x="1912.308594" xlink:href="#DejaVuSans-32"/>
     <use x="1944.095703" xlink:href="#DejaVuSans-40"/>
     <use x="1983.109375" xlink:href="#DejaVuSans-55"/>
     <use x="2046.732422" xlink:href="#DejaVuSans-32"/>
     <use x="2078.519531" xlink:href="#DejaVuSans-100"/>
     <use x="2141.996094" xlink:href="#DejaVuSans-97"/>
     <use x="2203.275391" xlink:href="#DejaVuSans-121"/>
     <use x="2262.455078" xlink:href="#DejaVuSans-32"/>
     <use x="2294.242188" xlink:href="#DejaVuSans-114"/>
     <use x="2333.105469" xlink:href="#DejaVuSans-111"/>
     <use x="2394.287109" xlink:href="#DejaVuSans-108"/>
     <use x="2422.070312" xlink:href="#DejaVuSans-108"/>
     <use x="2449.853516" xlink:href="#DejaVuSans-105"/>
     <use x="2477.636719" xlink:href="#DejaVuSans-110"/>
     <use x="2541.015625" xlink:href="#DejaVuSans-103"/>
     <use x="2604.492188" xlink:href="#DejaVuSans-41"/>
    </g>
   </g>
   <g id="legend_1">
    <g id="patch_7">
     <path d="M 57.925 122.86875 
L 225.560938 122.86875 
Q 227.560938 122.86875 227.560938 120.86875 
L 227.560938 33.8 
Q 227.560938 31.8 225.560938 31.8 
L 57.925 31.8 
Q 55.925 31.8 55.925 33.8 
L 55.925 120.86875 
Q 55.925 122.86875 57.925 122.86875 
z
" style="fill:#ffffff;opacity:0.8;stroke:#cccccc;stroke-linejoin:miter;"/>
    </g>
    <g id="text_20">
     <!-- Upper-tier local authority -->
     <g transform="translate(79.022656 43.398437)scale(0.1 -0.1)">
      <defs>
       <path d="M 54.890625 33.015625 
L 54.890625 0 
L 45.90625 0 
L 45.90625 32.71875 
Q 45.90625 40.484375 42.875 44.328125 
Q 39.84375 48.1875 33.796875 48.1875 
Q 26.515625 48.1875 22.3125 43.546875 
Q 18.109375 38.921875 18.109375 30.90625 
L 18.109375 0 
L 9.078125 0 
L 9.078125 75.984375 
L 18.109375 75.984375 
L 18.109375 46.1875 
Q 21.34375 51.125 25.703125 53.5625 
Q 30.078125 56 35.796875 56 
Q 45.21875 56 50.046875 50.171875 
Q 54.890625 44.34375 54.890625 33.015625 
z
" id="DejaVuSans-104"/>
      </defs>
      <use xlink:href="#DejaVuSans-85"/>
      <use x="73.193359" xlink:href="#DejaVuSans-112"/>
      <use x="136.669922" xlink:href="#DejaVuSans-112"/>
      <use x="200.146484" xlink:href="#DejaVuSans-101"/>
      <use x="261.669922" xlink:href="#DejaVuSans-114"/>
      <use x="296.408203" xlink:href="#DejaVuSans-45"/>
      <use x="332.492188" xlink:href="#DejaVuSans-116"/>
      <use x="371.701172" xlink:href="#DejaVuSans-105"/>
      <use x="399.484375" xlink:href="#DejaVuSans-101"/>
      <use x="461.007812" xlink:href="#DejaVuSans-114"/>
      <use x="502.121094" xlink:href="#DejaVuSans-32"/>
      <use x="533.908203" xlink:href="#DejaVuSans-108"/>
      <use x="561.691406" xlink:href="#DejaVuSans-111"/>
      <use x="622.873047" xlink:href="#DejaVuSans-99"/>
      <use x="677.853516" xlink:href="#DejaVuSans-97"/>
      <use x="739.132812" xlink:href="#DejaVuSans-108"/>
      <use x="766.916016" xlink:href="#DejaVuSans-32"/>
      <use x="798.703125" xlink:href="#DejaVuSans-97"/>
      <use x="859.982422" xlink:href="#DejaVuSans-117"/>
      <use x="923.361328" xlink:href="#DejaVuSans-116"/>
      <use x="962.570312" xlink:href="#DejaVuSans-104"/>
      <use x="1025.949219" xlink:href="#DejaVuSans-111"/>
      <use x="1087.130859" xlink:href="#DejaVuSans-114"/>
      <use x="1128.244141" xlink:href="#DejaVuSans-105"/>
      <use x="1156.027344" xlink:href="#DejaVuSans-116"/>
      <use x="1195.236328" xlink:href="#DejaVuSans-121"/>
     </g>
    </g>
    <g id="line2d_27">
     <path d="M 59.925 54.576562 
L 79.925 54.576562 
" style="fill:none;stroke:#1f77b4;stroke-linecap:square;stroke-width:1.5;"/>
    </g>
    <g id="line2d_28"/>
    <g id="text_21">
     <!-- Cheshire West and Chester -->
     <g transform="translate(87.925 58.076562)scale(0.1 -0.1)">
      <defs>
       <path d="M 64.40625 67.28125 
L 64.40625 56.890625 
Q 59.421875 61.53125 53.78125 63.8125 
Q 48.140625 66.109375 41.796875 66.109375 
Q 29.296875 66.109375 22.65625 58.46875 
Q 16.015625 50.828125 16.015625 36.375 
Q 16.015625 21.96875 22.65625 14.328125 
Q 29.296875 6.6875 41.796875 6.6875 
Q 48.140625 6.6875 53.78125 8.984375 
Q 59.421875 11.28125 64.40625 15.921875 
L 64.40625 5.609375 
Q 59.234375 2.09375 53.4375 0.328125 
Q 47.65625 -1.421875 41.21875 -1.421875 
Q 24.65625 -1.421875 15.125 8.703125 
Q 5.609375 18.84375 5.609375 36.375 
Q 5.609375 53.953125 15.125 64.078125 
Q 24.65625 74.21875 41.21875 74.21875 
Q 47.75 74.21875 53.53125 72.484375 
Q 59.328125 70.75 64.40625 67.28125 
z
" id="DejaVuSans-67"/>
       <path d="M 3.328125 72.90625 
L 13.28125 72.90625 
L 28.609375 11.28125 
L 43.890625 72.90625 
L 54.984375 72.90625 
L 70.3125 11.28125 
L 85.59375 72.90625 
L 95.609375 72.90625 
L 77.296875 0 
L 64.890625 0 
L 49.515625 63.28125 
L 33.984375 0 
L 21.578125 0 
z
" id="DejaVuSans-87"/>
      </defs>
      <use xlink:href="#DejaVuSans-67"/>
      <use x="69.824219" xlink:href="#DejaVuSans-104"/>
      <use x="133.203125" xlink:href="#DejaVuSans-101"/>
      <use x="194.726562" xlink:href="#DejaVuSans-115"/>
      <use x="246.826172" xlink:href="#DejaVuSans-104"/>
      <use x="310.205078" xlink:href="#DejaVuSans-105"/>
      <use x="337.988281" xlink:href="#DejaVuSans-114"/>
      <use x="376.851562" xlink:href="#DejaVuSans-101"/>
      <use x="438.375" xlink:href="#DejaVuSans-32"/>
      <use x="470.162109" xlink:href="#DejaVuSans-87"/>
      <use x="563.164062" xlink:href="#DejaVuSans-101"/>
      <use x="624.6875" xlink:href="#DejaVuSans-115"/>
      <use x="676.787109" xlink:href="#DejaVuSans-116"/>
      <use x="715.996094" xlink:href="#DejaVuSans-32"/>
      <use x="747.783203" xlink:href="#DejaVuSans-97"/>
      <use x="809.0625" xlink:href="#DejaVuSans-110"/>
      <use x="872.441406" xlink:href="#DejaVuSans-100"/>
      <use x="935.917969" xlink:href="#DejaVuSans-32"/>
      <use x="967.705078" xlink:href="#DejaVuSans-67"/>
      <use x="1037.529297" xlink:href="#DejaVuSans-104"/>
      <use x="1100.908203" xlink:href="#DejaVuSans-101"/>
      <use x="1162.431641" xlink:href="#DejaVuSans-115"/>
      <use x="1214.53125" xlink:href="#DejaVuSans-116"/>
      <use x="1253.740234" xlink:href="#DejaVuSans-101"/>
      <use x="1315.263672" xlink:href="#DejaVuSans-114"/>
     </g>
    </g>
    <g id="line2d_29">
     <path d="M 59.925 69.254687 
L 79.925 69.254687 
" style="fill:none;stroke:#ff7f0e;stroke-linecap:square;stroke-width:1.5;"/>
    </g>
    <g id="line2d_30"/>
    <g id="text_22">
     <!-- Leicester -->
     <g transform="translate(87.925 72.754687)scale(0.1 -0.1)">
      <use xlink:href="#DejaVuSans-76"/>
      <use x="53.962891" xlink:href="#DejaVuSans-101"/>
      <use x="115.486328" xlink:href="#DejaVuSans-105"/>
      <use x="143.269531" xlink:href="#DejaVuSans-99"/>
      <use x="198.25" xlink:href="#DejaVuSans-101"/>
      <use x="259.773438" xlink:href="#DejaVuSans-115"/>
      <use x="311.873047" xlink:href="#DejaVuSans-116"/>
      <use x="351.082031" xlink:href="#DejaVuSans-101"/>
      <use x="412.605469" xlink:href="#DejaVuSans-114"/>
     </g>
    </g>
    <g id="line2d_31">
     <path d="M 59.925 83.932812 
L 79.925 83.932812 
" style="fill:none;stroke:#2ca02c;stroke-linecap:square;stroke-width:1.5;"/>
    </g>
    <g id="line2d_32"/>
    <g id="text_23">
     <!-- North Yorkshire -->
     <g transform="translate(87.925 87.432812)scale(0.1 -0.1)">
      <defs>
       <path d="M -0.203125 72.90625 
L 10.40625 72.90625 
L 30.609375 42.921875 
L 50.6875 72.90625 
L 61.28125 72.90625 
L 35.5 34.71875 
L 35.5 0 
L 25.59375 0 
L 25.59375 34.71875 
z
" id="DejaVuSans-89"/>
       <path d="M 9.078125 75.984375 
L 18.109375 75.984375 
L 18.109375 31.109375 
L 44.921875 54.6875 
L 56.390625 54.6875 
L 27.390625 29.109375 
L 57.625 0 
L 45.90625 0 
L 18.109375 26.703125 
L 18.109375 0 
L 9.078125 0 
z
" id="DejaVuSans-107"/>
      </defs>
      <use xlink:href="#DejaVuSans-78"/>
      <use x="74.804688" xlink:href="#DejaVuSans-111"/>
      <use x="135.986328" xlink:href="#DejaVuSans-114"/>
      <use x="177.099609" xlink:href="#DejaVuSans-116"/>
      <use x="216.308594" xlink:href="#DejaVuSans-104"/>
      <use x="279.6875" xlink:href="#DejaVuSans-32"/>
      <use x="311.474609" xlink:href="#DejaVuSans-89"/>
      <use x="359.308594" xlink:href="#DejaVuSans-111"/>
      <use x="420.490234" xlink:href="#DejaVuSans-114"/>
      <use x="461.603516" xlink:href="#DejaVuSans-107"/>
      <use x="519.513672" xlink:href="#DejaVuSans-115"/>
      <use x="571.613281" xlink:href="#DejaVuSans-104"/>
      <use x="634.992188" xlink:href="#DejaVuSans-105"/>
      <use x="662.775391" xlink:href="#DejaVuSans-114"/>
      <use x="701.638672" xlink:href="#DejaVuSans-101"/>
     </g>
    </g>
    <g id="line2d_33">
     <path d="M 59.925 98.610937 
L 79.925 98.610937 
" style="fill:none;stroke:#d62728;stroke-linecap:square;stroke-width:1.5;"/>
    </g>
    <g id="line2d_34"/>
    <g id="text_24">
     <!-- Northumberland -->
     <g transform="translate(87.925 102.110937)scale(0.1 -0.1)">
      <use xlink:href="#DejaVuSans-78"/>
      <use x="74.804688" xlink:href="#DejaVuSans-111"/>
      <use x="135.986328" xlink:href="#DejaVuSans-114"/>
      <use x="177.099609" xlink:href="#DejaVuSans-116"/>
      <use x="216.308594" xlink:href="#DejaVuSans-104"/>
      <use x="279.6875" xlink:href="#DejaVuSans-117"/>
      <use x="343.066406" xlink:href="#DejaVuSans-109"/>
      <use x="440.478516" xlink:href="#DejaVuSans-98"/>
      <use x="503.955078" xlink:href="#DejaVuSans-101"/>
      <use x="565.478516" xlink:href="#DejaVuSans-114"/>
      <use x="606.591797" xlink:href="#DejaVuSans-108"/>
      <use x="634.375" xlink:href="#DejaVuSans-97"/>
      <use x="695.654297" xlink:href="#DejaVuSans-110"/>
      <use x="759.033203" xlink:href="#DejaVuSans-100"/>
     </g>
    </g>
    <g id="line2d_35">
     <path d="M 59.925 113.289062 
L 79.925 113.289062 
" style="fill:none;stroke:#9467bd;stroke-linecap:square;stroke-width:1.5;"/>
    </g>
    <g id="line2d_36"/>
    <g id="text_25">
     <!-- Wirral -->
     <g transform="translate(87.925 116.789062)scale(0.1 -0.1)">
      <use xlink:href="#DejaVuSans-87"/>
      <use x="96.626953" xlink:href="#DejaVuSans-105"/>
      <use x="124.410156" xlink:href="#DejaVuSans-114"/>
      <use x="163.773438" xlink:href="#DejaVuSans-114"/>
      <use x="204.886719" xlink:href="#DejaVuSans-97"/>
      <use x="266.166016" xlink:href="#DejaVuSans-108"/>
     </g>
    </g>
   </g>
  </g>
 </g>
 <defs>
  <clipPath id="pdc75f91a19">
   <rect height="199.802246" width="370.275" x="50.925" y="26.8"/>
  </clipPath>
 </defs>
</svg>
