<?xml version="1.0" encoding="utf-8" standalone="no"?>
<!DOCTYPE svg PUBLIC "-//W3C//DTD SVG 1.1//EN"
  "http://www.w3.org/Graphics/SVG/1.1/DTD/svg11.dtd">
<!-- Created with matplotlib (https://matplotlib.org/) -->
<svg height="288pt" version="1.1" viewBox="0 0 432 288" width="432pt" xmlns="http://www.w3.org/2000/svg" xmlns:xlink="http://www.w3.org/1999/xlink">
 <metadata>
  <rdf:RDF xmlns:cc="http://creativecommons.org/ns#" xmlns:dc="http://purl.org/dc/elements/1.1/" xmlns:rdf="http://www.w3.org/1999/02/22-rdf-syntax-ns#">
   <cc:Work>
    <dc:type rdf:resource="http://purl.org/dc/dcmitype/StillImage"/>
    <dc:date>2020-11-20T15:10:30.687510</dc:date>
    <dc:format>image/svg+xml</dc:format>
    <dc:creator>
     <cc:Agent>
      <dc:title>Matplotlib v3.3.2, https://matplotlib.org/</dc:title>
     </cc:Agent>
    </dc:creator>
   </cc:Work>
  </rdf:RDF>
 </metadata>
 <defs>
  <style type="text/css">*{stroke-linecap:butt;stroke-linejoin:round;}</style>
 </defs>
 <g id="figure_1">
  <g id="patch_1">
   <path d="M 0 288 
L 432 288 
L 432 0 
L 0 0 
z
" style="fill:none;"/>
  </g>
  <g id="axes_1">
   <g id="patch_2">
    <path d="M 50.925 226.602246 
L 421.2 226.602246 
L 421.2 26.8 
L 50.925 26.8 
z
" style="fill:#ffffff;"/>
   </g>
   <g id="matplotlib.axis_1">
    <g id="xtick_1">
     <g id="line2d_1">
      <defs>
       <path d="M 0 0 
L 0 3.5 
" id="mf40e34b09b" style="stroke:#000000;stroke-width:0.8;"/>
      </defs>
      <g>
       <use style="stroke:#000000;stroke-width:0.8;" x="67.755682" xlink:href="#mf40e34b09b" y="226.602246"/>
      </g>
     </g>
     <g id="text_1">
      <!-- 2020-03 -->
      <g transform="translate(30.530861 261.074092)rotate(-30)scale(0.1 -0.1)">
       <defs>
        <path d="M 19.1875 8.296875 
L 53.609375 8.296875 
L 53.609375 0 
L 7.328125 0 
L 7.328125 8.296875 
Q 12.9375 14.109375 22.625 23.890625 
Q 32.328125 33.6875 34.8125 36.53125 
Q 39.546875 41.84375 41.421875 45.53125 
Q 43.3125 49.21875 43.3125 52.78125 
Q 43.3125 58.59375 39.234375 62.25 
Q 35.15625 65.921875 28.609375 65.921875 
Q 23.96875 65.921875 18.8125 64.3125 
Q 13.671875 62.703125 7.8125 59.421875 
L 7.8125 69.390625 
Q 13.765625 71.78125 18.9375 73 
Q 24.125 74.21875 28.421875 74.21875 
Q 39.75 74.21875 46.484375 68.546875 
Q 53.21875 62.890625 53.21875 53.421875 
Q 53.21875 48.921875 51.53125 44.890625 
Q 49.859375 40.875 45.40625 35.40625 
Q 44.1875 33.984375 37.640625 27.21875 
Q 31.109375 20.453125 19.1875 8.296875 
z
" id="DejaVuSans-50"/>
        <path d="M 31.78125 66.40625 
Q 24.171875 66.40625 20.328125 58.90625 
Q 16.5 51.421875 16.5 36.375 
Q 16.5 21.390625 20.328125 13.890625 
Q 24.171875 6.390625 31.78125 6.390625 
Q 39.453125 6.390625 43.28125 13.890625 
Q 47.125 21.390625 47.125 36.375 
Q 47.125 51.421875 43.28125 58.90625 
Q 39.453125 66.40625 31.78125 66.40625 
z
M 31.78125 74.21875 
Q 44.046875 74.21875 50.515625 64.515625 
Q 56.984375 54.828125 56.984375 36.375 
Q 56.984375 17.96875 50.515625 8.265625 
Q 44.046875 -1.421875 31.78125 -1.421875 
Q 19.53125 -1.421875 13.0625 8.265625 
Q 6.59375 17.96875 6.59375 36.375 
Q 6.59375 54.828125 13.0625 64.515625 
Q 19.53125 74.21875 31.78125 74.21875 
z
" id="DejaVuSans-48"/>
        <path d="M 4.890625 31.390625 
L 31.203125 31.390625 
L 31.203125 23.390625 
L 4.890625 23.390625 
z
" id="DejaVuSans-45"/>
        <path d="M 40.578125 39.3125 
Q 47.65625 37.796875 51.625 33 
Q 55.609375 28.21875 55.609375 21.1875 
Q 55.609375 10.40625 48.1875 4.484375 
Q 40.765625 -1.421875 27.09375 -1.421875 
Q 22.515625 -1.421875 17.65625 -0.515625 
Q 12.796875 0.390625 7.625 2.203125 
L 7.625 11.71875 
Q 11.71875 9.328125 16.59375 8.109375 
Q 21.484375 6.890625 26.8125 6.890625 
Q 36.078125 6.890625 40.9375 10.546875 
Q 45.796875 14.203125 45.796875 21.1875 
Q 45.796875 27.640625 41.28125 31.265625 
Q 36.765625 34.90625 28.71875 34.90625 
L 20.21875 34.90625 
L 20.21875 43.015625 
L 29.109375 43.015625 
Q 36.375 43.015625 40.234375 45.921875 
Q 44.09375 48.828125 44.09375 54.296875 
Q 44.09375 59.90625 40.109375 62.90625 
Q 36.140625 65.921875 28.71875 65.921875 
Q 24.65625 65.921875 20.015625 65.03125 
Q 15.375 64.15625 9.8125 62.3125 
L 9.8125 71.09375 
Q 15.4375 72.65625 20.34375 73.4375 
Q 25.25 74.21875 29.59375 74.21875 
Q 40.828125 74.21875 47.359375 69.109375 
Q 53.90625 64.015625 53.90625 55.328125 
Q 53.90625 49.265625 50.4375 45.09375 
Q 46.96875 40.921875 40.578125 39.3125 
z
" id="DejaVuSans-51"/>
       </defs>
       <use xlink:href="#DejaVuSans-50"/>
       <use x="63.623047" xlink:href="#DejaVuSans-48"/>
       <use x="127.246094" xlink:href="#DejaVuSans-50"/>
       <use x="190.869141" xlink:href="#DejaVuSans-48"/>
       <use x="254.492188" xlink:href="#DejaVuSans-45"/>
       <use x="290.576172" xlink:href="#DejaVuSans-48"/>
       <use x="354.199219" xlink:href="#DejaVuSans-51"/>
      </g>
     </g>
    </g>
    <g id="xtick_2">
     <g id="line2d_2">
      <g>
       <use style="stroke:#000000;stroke-width:0.8;" x="107.584013" xlink:href="#mf40e34b09b" y="226.602246"/>
      </g>
     </g>
     <g id="text_2">
      <!-- 2020-04 -->
      <g transform="translate(70.359192 261.074092)rotate(-30)scale(0.1 -0.1)">
       <defs>
        <path d="M 37.796875 64.3125 
L 12.890625 25.390625 
L 37.796875 25.390625 
z
M 35.203125 72.90625 
L 47.609375 72.90625 
L 47.609375 25.390625 
L 58.015625 25.390625 
L 58.015625 17.1875 
L 47.609375 17.1875 
L 47.609375 0 
L 37.796875 0 
L 37.796875 17.1875 
L 4.890625 17.1875 
L 4.890625 26.703125 
z
" id="DejaVuSans-52"/>
       </defs>
       <use xlink:href="#DejaVuSans-50"/>
       <use x="63.623047" xlink:href="#DejaVuSans-48"/>
       <use x="127.246094" xlink:href="#DejaVuSans-50"/>
       <use x="190.869141" xlink:href="#DejaVuSans-48"/>
       <use x="254.492188" xlink:href="#DejaVuSans-45"/>
       <use x="290.576172" xlink:href="#DejaVuSans-48"/>
       <use x="354.199219" xlink:href="#DejaVuSans-52"/>
      </g>
     </g>
    </g>
    <g id="xtick_3">
     <g id="line2d_3">
      <g>
       <use style="stroke:#000000;stroke-width:0.8;" x="146.127559" xlink:href="#mf40e34b09b" y="226.602246"/>
      </g>
     </g>
     <g id="text_3">
      <!-- 2020-05 -->
      <g transform="translate(108.902738 261.074092)rotate(-30)scale(0.1 -0.1)">
       <defs>
        <path d="M 10.796875 72.90625 
L 49.515625 72.90625 
L 49.515625 64.59375 
L 19.828125 64.59375 
L 19.828125 46.734375 
Q 21.96875 47.46875 24.109375 47.828125 
Q 26.265625 48.1875 28.421875 48.1875 
Q 40.625 48.1875 47.75 41.5 
Q 54.890625 34.8125 54.890625 23.390625 
Q 54.890625 11.625 47.5625 5.09375 
Q 40.234375 -1.421875 26.90625 -1.421875 
Q 22.3125 -1.421875 17.546875 -0.640625 
Q 12.796875 0.140625 7.71875 1.703125 
L 7.71875 11.625 
Q 12.109375 9.234375 16.796875 8.0625 
Q 21.484375 6.890625 26.703125 6.890625 
Q 35.15625 6.890625 40.078125 11.328125 
Q 45.015625 15.765625 45.015625 23.390625 
Q 45.015625 31 40.078125 35.4375 
Q 35.15625 39.890625 26.703125 39.890625 
Q 22.75 39.890625 18.8125 39.015625 
Q 14.890625 38.140625 10.796875 36.28125 
z
" id="DejaVuSans-53"/>
       </defs>
       <use xlink:href="#DejaVuSans-50"/>
       <use x="63.623047" xlink:href="#DejaVuSans-48"/>
       <use x="127.246094" xlink:href="#DejaVuSans-50"/>
       <use x="190.869141" xlink:href="#DejaVuSans-48"/>
       <use x="254.492188" xlink:href="#DejaVuSans-45"/>
       <use x="290.576172" xlink:href="#DejaVuSans-48"/>
       <use x="354.199219" xlink:href="#DejaVuSans-53"/>
      </g>
     </g>
    </g>
    <g id="xtick_4">
     <g id="line2d_4">
      <g>
       <use style="stroke:#000000;stroke-width:0.8;" x="185.95589" xlink:href="#mf40e34b09b" y="226.602246"/>
      </g>
     </g>
     <g id="text_4">
      <!-- 2020-06 -->
      <g transform="translate(148.731069 261.074092)rotate(-30)scale(0.1 -0.1)">
       <defs>
        <path d="M 33.015625 40.375 
Q 26.375 40.375 22.484375 35.828125 
Q 18.609375 31.296875 18.609375 23.390625 
Q 18.609375 15.53125 22.484375 10.953125 
Q 26.375 6.390625 33.015625 6.390625 
Q 39.65625 6.390625 43.53125 10.953125 
Q 47.40625 15.53125 47.40625 23.390625 
Q 47.40625 31.296875 43.53125 35.828125 
Q 39.65625 40.375 33.015625 40.375 
z
M 52.59375 71.296875 
L 52.59375 62.3125 
Q 48.875 64.0625 45.09375 64.984375 
Q 41.3125 65.921875 37.59375 65.921875 
Q 27.828125 65.921875 22.671875 59.328125 
Q 17.53125 52.734375 16.796875 39.40625 
Q 19.671875 43.65625 24.015625 45.921875 
Q 28.375 48.1875 33.59375 48.1875 
Q 44.578125 48.1875 50.953125 41.515625 
Q 57.328125 34.859375 57.328125 23.390625 
Q 57.328125 12.15625 50.6875 5.359375 
Q 44.046875 -1.421875 33.015625 -1.421875 
Q 20.359375 -1.421875 13.671875 8.265625 
Q 6.984375 17.96875 6.984375 36.375 
Q 6.984375 53.65625 15.1875 63.9375 
Q 23.390625 74.21875 37.203125 74.21875 
Q 40.921875 74.21875 44.703125 73.484375 
Q 48.484375 72.75 52.59375 71.296875 
z
" id="DejaVuSans-54"/>
       </defs>
       <use xlink:href="#DejaVuSans-50"/>
       <use x="63.623047" xlink:href="#DejaVuSans-48"/>
       <use x="127.246094" xlink:href="#DejaVuSans-50"/>
       <use x="190.869141" xlink:href="#DejaVuSans-48"/>
       <use x="254.492188" xlink:href="#DejaVuSans-45"/>
       <use x="290.576172" xlink:href="#DejaVuSans-48"/>
       <use x="354.199219" xlink:href="#DejaVuSans-54"/>
      </g>
     </g>
    </g>
    <g id="xtick_5">
     <g id="line2d_5">
      <g>
       <use style="stroke:#000000;stroke-width:0.8;" x="224.499436" xlink:href="#mf40e34b09b" y="226.602246"/>
      </g>
     </g>
     <g id="text_5">
      <!-- 2020-07 -->
      <g transform="translate(187.274615 261.074092)rotate(-30)scale(0.1 -0.1)">
       <defs>
        <path d="M 8.203125 72.90625 
L 55.078125 72.90625 
L 55.078125 68.703125 
L 28.609375 0 
L 18.3125 0 
L 43.21875 64.59375 
L 8.203125 64.59375 
z
" id="DejaVuSans-55"/>
       </defs>
       <use xlink:href="#DejaVuSans-50"/>
       <use x="63.623047" xlink:href="#DejaVuSans-48"/>
       <use x="127.246094" xlink:href="#DejaVuSans-50"/>
       <use x="190.869141" xlink:href="#DejaVuSans-48"/>
       <use x="254.492188" xlink:href="#DejaVuSans-45"/>
       <use x="290.576172" xlink:href="#DejaVuSans-48"/>
       <use x="354.199219" xlink:href="#DejaVuSans-55"/>
      </g>
     </g>
    </g>
    <g id="xtick_6">
     <g id="line2d_6">
      <g>
       <use style="stroke:#000000;stroke-width:0.8;" x="264.327767" xlink:href="#mf40e34b09b" y="226.602246"/>
      </g>
     </g>
     <g id="text_6">
      <!-- 2020-08 -->
      <g transform="translate(227.102946 261.074092)rotate(-30)scale(0.1 -0.1)">
       <defs>
        <path d="M 31.78125 34.625 
Q 24.75 34.625 20.71875 30.859375 
Q 16.703125 27.09375 16.703125 20.515625 
Q 16.703125 13.921875 20.71875 10.15625 
Q 24.75 6.390625 31.78125 6.390625 
Q 38.8125 6.390625 42.859375 10.171875 
Q 46.921875 13.96875 46.921875 20.515625 
Q 46.921875 27.09375 42.890625 30.859375 
Q 38.875 34.625 31.78125 34.625 
z
M 21.921875 38.8125 
Q 15.578125 40.375 12.03125 44.71875 
Q 8.5 49.078125 8.5 55.328125 
Q 8.5 64.0625 14.71875 69.140625 
Q 20.953125 74.21875 31.78125 74.21875 
Q 42.671875 74.21875 48.875 69.140625 
Q 55.078125 64.0625 55.078125 55.328125 
Q 55.078125 49.078125 51.53125 44.71875 
Q 48 40.375 41.703125 38.8125 
Q 48.828125 37.15625 52.796875 32.3125 
Q 56.78125 27.484375 56.78125 20.515625 
Q 56.78125 9.90625 50.3125 4.234375 
Q 43.84375 -1.421875 31.78125 -1.421875 
Q 19.734375 -1.421875 13.25 4.234375 
Q 6.78125 9.90625 6.78125 20.515625 
Q 6.78125 27.484375 10.78125 32.3125 
Q 14.796875 37.15625 21.921875 38.8125 
z
M 18.3125 54.390625 
Q 18.3125 48.734375 21.84375 45.5625 
Q 25.390625 42.390625 31.78125 42.390625 
Q 38.140625 42.390625 41.71875 45.5625 
Q 45.3125 48.734375 45.3125 54.390625 
Q 45.3125 60.0625 41.71875 63.234375 
Q 38.140625 66.40625 31.78125 66.40625 
Q 25.390625 66.40625 21.84375 63.234375 
Q 18.3125 60.0625 18.3125 54.390625 
z
" id="DejaVuSans-56"/>
       </defs>
       <use xlink:href="#DejaVuSans-50"/>
       <use x="63.623047" xlink:href="#DejaVuSans-48"/>
       <use x="127.246094" xlink:href="#DejaVuSans-50"/>
       <use x="190.869141" xlink:href="#DejaVuSans-48"/>
       <use x="254.492188" xlink:href="#DejaVuSans-45"/>
       <use x="290.576172" xlink:href="#DejaVuSans-48"/>
       <use x="354.199219" xlink:href="#DejaVuSans-56"/>
      </g>
     </g>
    </g>
    <g id="xtick_7">
     <g id="line2d_7">
      <g>
       <use style="stroke:#000000;stroke-width:0.8;" x="304.156098" xlink:href="#mf40e34b09b" y="226.602246"/>
      </g>
     </g>
     <g id="text_7">
      <!-- 2020-09 -->
      <g transform="translate(266.931277 261.074092)rotate(-30)scale(0.1 -0.1)">
       <defs>
        <path d="M 10.984375 1.515625 
L 10.984375 10.5 
Q 14.703125 8.734375 18.5 7.8125 
Q 22.3125 6.890625 25.984375 6.890625 
Q 35.75 6.890625 40.890625 13.453125 
Q 46.046875 20.015625 46.78125 33.40625 
Q 43.953125 29.203125 39.59375 26.953125 
Q 35.25 24.703125 29.984375 24.703125 
Q 19.046875 24.703125 12.671875 31.3125 
Q 6.296875 37.9375 6.296875 49.421875 
Q 6.296875 60.640625 12.9375 67.421875 
Q 19.578125 74.21875 30.609375 74.21875 
Q 43.265625 74.21875 49.921875 64.515625 
Q 56.59375 54.828125 56.59375 36.375 
Q 56.59375 19.140625 48.40625 8.859375 
Q 40.234375 -1.421875 26.421875 -1.421875 
Q 22.703125 -1.421875 18.890625 -0.6875 
Q 15.09375 0.046875 10.984375 1.515625 
z
M 30.609375 32.421875 
Q 37.25 32.421875 41.125 36.953125 
Q 45.015625 41.5 45.015625 49.421875 
Q 45.015625 57.28125 41.125 61.84375 
Q 37.25 66.40625 30.609375 66.40625 
Q 23.96875 66.40625 20.09375 61.84375 
Q 16.21875 57.28125 16.21875 49.421875 
Q 16.21875 41.5 20.09375 36.953125 
Q 23.96875 32.421875 30.609375 32.421875 
z
" id="DejaVuSans-57"/>
       </defs>
       <use xlink:href="#DejaVuSans-50"/>
       <use x="63.623047" xlink:href="#DejaVuSans-48"/>
       <use x="127.246094" xlink:href="#DejaVuSans-50"/>
       <use x="190.869141" xlink:href="#DejaVuSans-48"/>
       <use x="254.492188" xlink:href="#DejaVuSans-45"/>
       <use x="290.576172" xlink:href="#DejaVuSans-48"/>
       <use x="354.199219" xlink:href="#DejaVuSans-57"/>
      </g>
     </g>
    </g>
    <g id="xtick_8">
     <g id="line2d_8">
      <g>
       <use style="stroke:#000000;stroke-width:0.8;" x="342.699644" xlink:href="#mf40e34b09b" y="226.602246"/>
      </g>
     </g>
     <g id="text_8">
      <!-- 2020-10 -->
      <g transform="translate(305.474824 261.074092)rotate(-30)scale(0.1 -0.1)">
       <defs>
        <path d="M 12.40625 8.296875 
L 28.515625 8.296875 
L 28.515625 63.921875 
L 10.984375 60.40625 
L 10.984375 69.390625 
L 28.421875 72.90625 
L 38.28125 72.90625 
L 38.28125 8.296875 
L 54.390625 8.296875 
L 54.390625 0 
L 12.40625 0 
z
" id="DejaVuSans-49"/>
       </defs>
       <use xlink:href="#DejaVuSans-50"/>
       <use x="63.623047" xlink:href="#DejaVuSans-48"/>
       <use x="127.246094" xlink:href="#DejaVuSans-50"/>
       <use x="190.869141" xlink:href="#DejaVuSans-48"/>
       <use x="254.492188" xlink:href="#DejaVuSans-45"/>
       <use x="290.576172" xlink:href="#DejaVuSans-49"/>
       <use x="354.199219" xlink:href="#DejaVuSans-48"/>
      </g>
     </g>
    </g>
    <g id="xtick_9">
     <g id="line2d_9">
      <g>
       <use style="stroke:#000000;stroke-width:0.8;" x="382.527975" xlink:href="#mf40e34b09b" y="226.602246"/>
      </g>
     </g>
     <g id="text_9">
      <!-- 2020-11 -->
      <g transform="translate(345.303155 261.074092)rotate(-30)scale(0.1 -0.1)">
       <use xlink:href="#DejaVuSans-50"/>
       <use x="63.623047" xlink:href="#DejaVuSans-48"/>
       <use x="127.246094" xlink:href="#DejaVuSans-50"/>
       <use x="190.869141" xlink:href="#DejaVuSans-48"/>
       <use x="254.492188" xlink:href="#DejaVuSans-45"/>
       <use x="290.576172" xlink:href="#DejaVuSans-49"/>
       <use x="354.199219" xlink:href="#DejaVuSans-49"/>
      </g>
     </g>
    </g>
    <g id="xtick_10">
     <g id="line2d_10">
      <g>
       <use style="stroke:#000000;stroke-width:0.8;" x="421.071522" xlink:href="#mf40e34b09b" y="226.602246"/>
      </g>
     </g>
     <g id="text_10">
      <!-- 2020-12 -->
      <g transform="translate(383.846701 261.074092)rotate(-30)scale(0.1 -0.1)">
       <use xlink:href="#DejaVuSans-50"/>
       <use x="63.623047" xlink:href="#DejaVuSans-48"/>
       <use x="127.246094" xlink:href="#DejaVuSans-50"/>
       <use x="190.869141" xlink:href="#DejaVuSans-48"/>
       <use x="254.492188" xlink:href="#DejaVuSans-45"/>
       <use x="290.576172" xlink:href="#DejaVuSans-49"/>
       <use x="354.199219" xlink:href="#DejaVuSans-50"/>
      </g>
     </g>
    </g>
    <g id="text_11">
     <!-- Date -->
     <g transform="translate(224.111719 274.473592)scale(0.1 -0.1)">
      <defs>
       <path d="M 19.671875 64.796875 
L 19.671875 8.109375 
L 31.59375 8.109375 
Q 46.6875 8.109375 53.6875 14.9375 
Q 60.6875 21.78125 60.6875 36.53125 
Q 60.6875 51.171875 53.6875 57.984375 
Q 46.6875 64.796875 31.59375 64.796875 
z
M 9.8125 72.90625 
L 30.078125 72.90625 
Q 51.265625 72.90625 61.171875 64.09375 
Q 71.09375 55.28125 71.09375 36.53125 
Q 71.09375 17.671875 61.125 8.828125 
Q 51.171875 0 30.078125 0 
L 9.8125 0 
z
" id="DejaVuSans-68"/>
       <path d="M 34.28125 27.484375 
Q 23.390625 27.484375 19.1875 25 
Q 14.984375 22.515625 14.984375 16.5 
Q 14.984375 11.71875 18.140625 8.90625 
Q 21.296875 6.109375 26.703125 6.109375 
Q 34.1875 6.109375 38.703125 11.40625 
Q 43.21875 16.703125 43.21875 25.484375 
L 43.21875 27.484375 
z
M 52.203125 31.203125 
L 52.203125 0 
L 43.21875 0 
L 43.21875 8.296875 
Q 40.140625 3.328125 35.546875 0.953125 
Q 30.953125 -1.421875 24.3125 -1.421875 
Q 15.921875 -1.421875 10.953125 3.296875 
Q 6 8.015625 6 15.921875 
Q 6 25.140625 12.171875 29.828125 
Q 18.359375 34.515625 30.609375 34.515625 
L 43.21875 34.515625 
L 43.21875 35.40625 
Q 43.21875 41.609375 39.140625 45 
Q 35.0625 48.390625 27.6875 48.390625 
Q 23 48.390625 18.546875 47.265625 
Q 14.109375 46.140625 10.015625 43.890625 
L 10.015625 52.203125 
Q 14.9375 54.109375 19.578125 55.046875 
Q 24.21875 56 28.609375 56 
Q 40.484375 56 46.34375 49.84375 
Q 52.203125 43.703125 52.203125 31.203125 
z
" id="DejaVuSans-97"/>
       <path d="M 18.3125 70.21875 
L 18.3125 54.6875 
L 36.8125 54.6875 
L 36.8125 47.703125 
L 18.3125 47.703125 
L 18.3125 18.015625 
Q 18.3125 11.328125 20.140625 9.421875 
Q 21.96875 7.515625 27.59375 7.515625 
L 36.8125 7.515625 
L 36.8125 0 
L 27.59375 0 
Q 17.1875 0 13.234375 3.875 
Q 9.28125 7.765625 9.28125 18.015625 
L 9.28125 47.703125 
L 2.6875 47.703125 
L 2.6875 54.6875 
L 9.28125 54.6875 
L 9.28125 70.21875 
z
" id="DejaVuSans-116"/>
       <path d="M 56.203125 29.59375 
L 56.203125 25.203125 
L 14.890625 25.203125 
Q 15.484375 15.921875 20.484375 11.0625 
Q 25.484375 6.203125 34.421875 6.203125 
Q 39.59375 6.203125 44.453125 7.46875 
Q 49.3125 8.734375 54.109375 11.28125 
L 54.109375 2.78125 
Q 49.265625 0.734375 44.1875 -0.34375 
Q 39.109375 -1.421875 33.890625 -1.421875 
Q 20.796875 -1.421875 13.15625 6.1875 
Q 5.515625 13.8125 5.515625 26.8125 
Q 5.515625 40.234375 12.765625 48.109375 
Q 20.015625 56 32.328125 56 
Q 43.359375 56 49.78125 48.890625 
Q 56.203125 41.796875 56.203125 29.59375 
z
M 47.21875 32.234375 
Q 47.125 39.59375 43.09375 43.984375 
Q 39.0625 48.390625 32.421875 48.390625 
Q 24.90625 48.390625 20.390625 44.140625 
Q 15.875 39.890625 15.1875 32.171875 
z
" id="DejaVuSans-101"/>
      </defs>
      <use xlink:href="#DejaVuSans-68"/>
      <use x="77.001953" xlink:href="#DejaVuSans-97"/>
      <use x="138.28125" xlink:href="#DejaVuSans-116"/>
      <use x="177.490234" xlink:href="#DejaVuSans-101"/>
     </g>
    </g>
   </g>
   <g id="matplotlib.axis_2">
    <g id="ytick_1">
     <g id="line2d_11">
      <defs>
       <path d="M 0 0 
L -3.5 0 
" id="mc59b85dde6" style="stroke:#000000;stroke-width:0.8;"/>
      </defs>
      <g>
       <use style="stroke:#000000;stroke-width:0.8;" x="50.925" xlink:href="#mc59b85dde6" y="217.520326"/>
      </g>
     </g>
     <g id="text_12">
      <!-- 0 -->
      <g transform="translate(37.5625 221.319544)scale(0.1 -0.1)">
       <use xlink:href="#DejaVuSans-48"/>
      </g>
     </g>
    </g>
    <g id="ytick_2">
     <g id="line2d_12">
      <g>
       <use style="stroke:#000000;stroke-width:0.8;" x="50.925" xlink:href="#mc59b85dde6" y="193.46131"/>
      </g>
     </g>
     <g id="text_13">
      <!-- 100 -->
      <g transform="translate(24.8375 197.260529)scale(0.1 -0.1)">
       <use xlink:href="#DejaVuSans-49"/>
       <use x="63.623047" xlink:href="#DejaVuSans-48"/>
       <use x="127.246094" xlink:href="#DejaVuSans-48"/>
      </g>
     </g>
    </g>
    <g id="ytick_3">
     <g id="line2d_13">
      <g>
       <use style="stroke:#000000;stroke-width:0.8;" x="50.925" xlink:href="#mc59b85dde6" y="169.402294"/>
      </g>
     </g>
     <g id="text_14">
      <!-- 200 -->
      <g transform="translate(24.8375 173.201513)scale(0.1 -0.1)">
       <use xlink:href="#DejaVuSans-50"/>
       <use x="63.623047" xlink:href="#DejaVuSans-48"/>
       <use x="127.246094" xlink:href="#DejaVuSans-48"/>
      </g>
     </g>
    </g>
    <g id="ytick_4">
     <g id="line2d_14">
      <g>
       <use style="stroke:#000000;stroke-width:0.8;" x="50.925" xlink:href="#mc59b85dde6" y="145.343278"/>
      </g>
     </g>
     <g id="text_15">
      <!-- 300 -->
      <g transform="translate(24.8375 149.142497)scale(0.1 -0.1)">
       <use xlink:href="#DejaVuSans-51"/>
       <use x="63.623047" xlink:href="#DejaVuSans-48"/>
       <use x="127.246094" xlink:href="#DejaVuSans-48"/>
      </g>
     </g>
    </g>
    <g id="ytick_5">
     <g id="line2d_15">
      <g>
       <use style="stroke:#000000;stroke-width:0.8;" x="50.925" xlink:href="#mc59b85dde6" y="121.284262"/>
      </g>
     </g>
     <g id="text_16">
      <!-- 400 -->
      <g transform="translate(24.8375 125.083481)scale(0.1 -0.1)">
       <use xlink:href="#DejaVuSans-52"/>
       <use x="63.623047" xlink:href="#DejaVuSans-48"/>
       <use x="127.246094" xlink:href="#DejaVuSans-48"/>
      </g>
     </g>
    </g>
    <g id="ytick_6">
     <g id="line2d_16">
      <g>
       <use style="stroke:#000000;stroke-width:0.8;" x="50.925" xlink:href="#mc59b85dde6" y="97.225246"/>
      </g>
     </g>
     <g id="text_17">
      <!-- 500 -->
      <g transform="translate(24.8375 101.024465)scale(0.1 -0.1)">
       <use xlink:href="#DejaVuSans-53"/>
       <use x="63.623047" xlink:href="#DejaVuSans-48"/>
       <use x="127.246094" xlink:href="#DejaVuSans-48"/>
      </g>
     </g>
    </g>
    <g id="ytick_7">
     <g id="line2d_17">
      <g>
       <use style="stroke:#000000;stroke-width:0.8;" x="50.925" xlink:href="#mc59b85dde6" y="73.16623"/>
      </g>
     </g>
     <g id="text_18">
      <!-- 600 -->
      <g transform="translate(24.8375 76.965449)scale(0.1 -0.1)">
       <use xlink:href="#DejaVuSans-54"/>
       <use x="63.623047" xlink:href="#DejaVuSans-48"/>
       <use x="127.246094" xlink:href="#DejaVuSans-48"/>
      </g>
     </g>
    </g>
    <g id="ytick_8">
     <g id="line2d_18">
      <g>
       <use style="stroke:#000000;stroke-width:0.8;" x="50.925" xlink:href="#mc59b85dde6" y="49.107214"/>
      </g>
     </g>
     <g id="text_19">
      <!-- 700 -->
      <g transform="translate(24.8375 52.906433)scale(0.1 -0.1)">
       <use xlink:href="#DejaVuSans-55"/>
       <use x="63.623047" xlink:href="#DejaVuSans-48"/>
       <use x="127.246094" xlink:href="#DejaVuSans-48"/>
      </g>
     </g>
    </g>
    <g id="text_20">
     <!-- New cases per million population -->
     <g transform="translate(18.757813 209.63081)rotate(-90)scale(0.1 -0.1)">
      <defs>
       <path d="M 9.8125 72.90625 
L 23.09375 72.90625 
L 55.421875 11.921875 
L 55.421875 72.90625 
L 64.984375 72.90625 
L 64.984375 0 
L 51.703125 0 
L 19.390625 60.984375 
L 19.390625 0 
L 9.8125 0 
z
" id="DejaVuSans-78"/>
       <path d="M 4.203125 54.6875 
L 13.1875 54.6875 
L 24.421875 12.015625 
L 35.59375 54.6875 
L 46.1875 54.6875 
L 57.421875 12.015625 
L 68.609375 54.6875 
L 77.59375 54.6875 
L 63.28125 0 
L 52.6875 0 
L 40.921875 44.828125 
L 29.109375 0 
L 18.5 0 
z
" id="DejaVuSans-119"/>
       <path id="DejaVuSans-32"/>
       <path d="M 48.78125 52.59375 
L 48.78125 44.1875 
Q 44.96875 46.296875 41.140625 47.34375 
Q 37.3125 48.390625 33.40625 48.390625 
Q 24.65625 48.390625 19.8125 42.84375 
Q 14.984375 37.3125 14.984375 27.296875 
Q 14.984375 17.28125 19.8125 11.734375 
Q 24.65625 6.203125 33.40625 6.203125 
Q 37.3125 6.203125 41.140625 7.25 
Q 44.96875 8.296875 48.78125 10.40625 
L 48.78125 2.09375 
Q 45.015625 0.34375 40.984375 -0.53125 
Q 36.96875 -1.421875 32.421875 -1.421875 
Q 20.0625 -1.421875 12.78125 6.34375 
Q 5.515625 14.109375 5.515625 27.296875 
Q 5.515625 40.671875 12.859375 48.328125 
Q 20.21875 56 33.015625 56 
Q 37.15625 56 41.109375 55.140625 
Q 45.0625 54.296875 48.78125 52.59375 
z
" id="DejaVuSans-99"/>
       <path d="M 44.28125 53.078125 
L 44.28125 44.578125 
Q 40.484375 46.53125 36.375 47.5 
Q 32.28125 48.484375 27.875 48.484375 
Q 21.1875 48.484375 17.84375 46.4375 
Q 14.5 44.390625 14.5 40.28125 
Q 14.5 37.15625 16.890625 35.375 
Q 19.28125 33.59375 26.515625 31.984375 
L 29.59375 31.296875 
Q 39.15625 29.25 43.1875 25.515625 
Q 47.21875 21.78125 47.21875 15.09375 
Q 47.21875 7.46875 41.1875 3.015625 
Q 35.15625 -1.421875 24.609375 -1.421875 
Q 20.21875 -1.421875 15.453125 -0.5625 
Q 10.6875 0.296875 5.421875 2 
L 5.421875 11.28125 
Q 10.40625 8.6875 15.234375 7.390625 
Q 20.0625 6.109375 24.8125 6.109375 
Q 31.15625 6.109375 34.5625 8.28125 
Q 37.984375 10.453125 37.984375 14.40625 
Q 37.984375 18.0625 35.515625 20.015625 
Q 33.0625 21.96875 24.703125 23.78125 
L 21.578125 24.515625 
Q 13.234375 26.265625 9.515625 29.90625 
Q 5.8125 33.546875 5.8125 39.890625 
Q 5.8125 47.609375 11.28125 51.796875 
Q 16.75 56 26.8125 56 
Q 31.78125 56 36.171875 55.265625 
Q 40.578125 54.546875 44.28125 53.078125 
z
" id="DejaVuSans-115"/>
       <path d="M 18.109375 8.203125 
L 18.109375 -20.796875 
L 9.078125 -20.796875 
L 9.078125 54.6875 
L 18.109375 54.6875 
L 18.109375 46.390625 
Q 20.953125 51.265625 25.265625 53.625 
Q 29.59375 56 35.59375 56 
Q 45.5625 56 51.78125 48.09375 
Q 58.015625 40.1875 58.015625 27.296875 
Q 58.015625 14.40625 51.78125 6.484375 
Q 45.5625 -1.421875 35.59375 -1.421875 
Q 29.59375 -1.421875 25.265625 0.953125 
Q 20.953125 3.328125 18.109375 8.203125 
z
M 48.6875 27.296875 
Q 48.6875 37.203125 44.609375 42.84375 
Q 40.53125 48.484375 33.40625 48.484375 
Q 26.265625 48.484375 22.1875 42.84375 
Q 18.109375 37.203125 18.109375 27.296875 
Q 18.109375 17.390625 22.1875 11.75 
Q 26.265625 6.109375 33.40625 6.109375 
Q 40.53125 6.109375 44.609375 11.75 
Q 48.6875 17.390625 48.6875 27.296875 
z
" id="DejaVuSans-112"/>
       <path d="M 41.109375 46.296875 
Q 39.59375 47.171875 37.8125 47.578125 
Q 36.03125 48 33.890625 48 
Q 26.265625 48 22.1875 43.046875 
Q 18.109375 38.09375 18.109375 28.8125 
L 18.109375 0 
L 9.078125 0 
L 9.078125 54.6875 
L 18.109375 54.6875 
L 18.109375 46.1875 
Q 20.953125 51.171875 25.484375 53.578125 
Q 30.03125 56 36.53125 56 
Q 37.453125 56 38.578125 55.875 
Q 39.703125 55.765625 41.0625 55.515625 
z
" id="DejaVuSans-114"/>
       <path d="M 52 44.1875 
Q 55.375 50.25 60.0625 53.125 
Q 64.75 56 71.09375 56 
Q 79.640625 56 84.28125 50.015625 
Q 88.921875 44.046875 88.921875 33.015625 
L 88.921875 0 
L 79.890625 0 
L 79.890625 32.71875 
Q 79.890625 40.578125 77.09375 44.375 
Q 74.3125 48.1875 68.609375 48.1875 
Q 61.625 48.1875 57.5625 43.546875 
Q 53.515625 38.921875 53.515625 30.90625 
L 53.515625 0 
L 44.484375 0 
L 44.484375 32.71875 
Q 44.484375 40.625 41.703125 44.40625 
Q 38.921875 48.1875 33.109375 48.1875 
Q 26.21875 48.1875 22.15625 43.53125 
Q 18.109375 38.875 18.109375 30.90625 
L 18.109375 0 
L 9.078125 0 
L 9.078125 54.6875 
L 18.109375 54.6875 
L 18.109375 46.1875 
Q 21.1875 51.21875 25.484375 53.609375 
Q 29.78125 56 35.6875 56 
Q 41.65625 56 45.828125 52.96875 
Q 50 49.953125 52 44.1875 
z
" id="DejaVuSans-109"/>
       <path d="M 9.421875 54.6875 
L 18.40625 54.6875 
L 18.40625 0 
L 9.421875 0 
z
M 9.421875 75.984375 
L 18.40625 75.984375 
L 18.40625 64.59375 
L 9.421875 64.59375 
z
" id="DejaVuSans-105"/>
       <path d="M 9.421875 75.984375 
L 18.40625 75.984375 
L 18.40625 0 
L 9.421875 0 
z
" id="DejaVuSans-108"/>
       <path d="M 30.609375 48.390625 
Q 23.390625 48.390625 19.1875 42.75 
Q 14.984375 37.109375 14.984375 27.296875 
Q 14.984375 17.484375 19.15625 11.84375 
Q 23.34375 6.203125 30.609375 6.203125 
Q 37.796875 6.203125 41.984375 11.859375 
Q 46.1875 17.53125 46.1875 27.296875 
Q 46.1875 37.015625 41.984375 42.703125 
Q 37.796875 48.390625 30.609375 48.390625 
z
M 30.609375 56 
Q 42.328125 56 49.015625 48.375 
Q 55.71875 40.765625 55.71875 27.296875 
Q 55.71875 13.875 49.015625 6.21875 
Q 42.328125 -1.421875 30.609375 -1.421875 
Q 18.84375 -1.421875 12.171875 6.21875 
Q 5.515625 13.875 5.515625 27.296875 
Q 5.515625 40.765625 12.171875 48.375 
Q 18.84375 56 30.609375 56 
z
" id="DejaVuSans-111"/>
       <path d="M 54.890625 33.015625 
L 54.890625 0 
L 45.90625 0 
L 45.90625 32.71875 
Q 45.90625 40.484375 42.875 44.328125 
Q 39.84375 48.1875 33.796875 48.1875 
Q 26.515625 48.1875 22.3125 43.546875 
Q 18.109375 38.921875 18.109375 30.90625 
L 18.109375 0 
L 9.078125 0 
L 9.078125 54.6875 
L 18.109375 54.6875 
L 18.109375 46.1875 
Q 21.34375 51.125 25.703125 53.5625 
Q 30.078125 56 35.796875 56 
Q 45.21875 56 50.046875 50.171875 
Q 54.890625 44.34375 54.890625 33.015625 
z
" id="DejaVuSans-110"/>
       <path d="M 8.5 21.578125 
L 8.5 54.6875 
L 17.484375 54.6875 
L 17.484375 21.921875 
Q 17.484375 14.15625 20.5 10.265625 
Q 23.53125 6.390625 29.59375 6.390625 
Q 36.859375 6.390625 41.078125 11.03125 
Q 45.3125 15.671875 45.3125 23.6875 
L 45.3125 54.6875 
L 54.296875 54.6875 
L 54.296875 0 
L 45.3125 0 
L 45.3125 8.40625 
Q 42.046875 3.421875 37.71875 1 
Q 33.40625 -1.421875 27.6875 -1.421875 
Q 18.265625 -1.421875 13.375 4.4375 
Q 8.5 10.296875 8.5 21.578125 
z
M 31.109375 56 
z
" id="DejaVuSans-117"/>
      </defs>
      <use xlink:href="#DejaVuSans-78"/>
      <use x="74.804688" xlink:href="#DejaVuSans-101"/>
      <use x="136.328125" xlink:href="#DejaVuSans-119"/>
      <use x="218.115234" xlink:href="#DejaVuSans-32"/>
      <use x="249.902344" xlink:href="#DejaVuSans-99"/>
      <use x="304.882812" xlink:href="#DejaVuSans-97"/>
      <use x="366.162109" xlink:href="#DejaVuSans-115"/>
      <use x="418.261719" xlink:href="#DejaVuSans-101"/>
      <use x="479.785156" xlink:href="#DejaVuSans-115"/>
      <use x="531.884766" xlink:href="#DejaVuSans-32"/>
      <use x="563.671875" xlink:href="#DejaVuSans-112"/>
      <use x="627.148438" xlink:href="#DejaVuSans-101"/>
      <use x="688.671875" xlink:href="#DejaVuSans-114"/>
      <use x="729.785156" xlink:href="#DejaVuSans-32"/>
      <use x="761.572266" xlink:href="#DejaVuSans-109"/>
      <use x="858.984375" xlink:href="#DejaVuSans-105"/>
      <use x="886.767578" xlink:href="#DejaVuSans-108"/>
      <use x="914.550781" xlink:href="#DejaVuSans-108"/>
      <use x="942.333984" xlink:href="#DejaVuSans-105"/>
      <use x="970.117188" xlink:href="#DejaVuSans-111"/>
      <use x="1031.298828" xlink:href="#DejaVuSans-110"/>
      <use x="1094.677734" xlink:href="#DejaVuSans-32"/>
      <use x="1126.464844" xlink:href="#DejaVuSans-112"/>
      <use x="1189.941406" xlink:href="#DejaVuSans-111"/>
      <use x="1251.123047" xlink:href="#DejaVuSans-112"/>
      <use x="1314.599609" xlink:href="#DejaVuSans-117"/>
      <use x="1377.978516" xlink:href="#DejaVuSans-108"/>
      <use x="1405.761719" xlink:href="#DejaVuSans-97"/>
      <use x="1467.041016" xlink:href="#DejaVuSans-116"/>
      <use x="1506.25" xlink:href="#DejaVuSans-105"/>
      <use x="1534.033203" xlink:href="#DejaVuSans-111"/>
      <use x="1595.214844" xlink:href="#DejaVuSans-110"/>
     </g>
    </g>
   </g>
   <g id="line2d_19">
    <path clip-path="url(#p398e250fee)" d="M 69.040467 216.819042 
L 70.325252 217.169684 
L 72.894821 217.345005 
L 78.033961 217.520326 
L 81.888315 217.019409 
L 84.457885 217.019409 
L 87.027455 216.618675 
L 89.597025 216.718858 
L 93.451379 215.917391 
L 94.736164 215.817208 
L 98.590519 214.915557 
L 99.875304 214.815374 
L 101.160088 213.412806 
L 102.444873 212.511155 
L 103.729658 210.507487 
L 105.014443 209.405469 
L 106.299228 208.002902 
L 107.584013 205.5985 
L 110.153583 201.591163 
L 111.438367 199.587495 
L 112.723152 198.685845 
L 114.007937 197.183093 
L 115.292722 195.980893 
L 116.577507 196.081076 
L 117.862292 195.980893 
L 119.147077 197.08291 
L 120.431862 198.585661 
L 121.716646 199.086578 
L 123.001431 200.689513 
L 124.286216 201.49098 
L 125.571001 202.092081 
L 126.855786 201.891714 
L 128.140571 201.290613 
L 129.425356 200.388963 
L 130.710141 200.689513 
L 131.994925 199.988229 
L 133.27971 197.784194 
L 134.564495 197.183093 
L 135.84928 197.183093 
L 137.134065 197.884377 
L 138.41885 197.984561 
L 139.703635 198.685845 
L 140.98842 197.183093 
L 143.557989 196.48181 
L 144.842774 196.081076 
L 146.127559 194.778692 
L 147.412344 194.678508 
L 148.697129 193.776857 
L 149.981914 195.179425 
L 151.266698 197.183093 
L 152.551483 196.982727 
L 153.836268 198.285111 
L 155.121053 197.884377 
L 156.405838 198.585661 
L 157.690623 199.086578 
L 158.975408 197.884377 
L 160.260193 197.283277 
L 161.544977 197.483644 
L 162.829762 196.081076 
L 164.114547 197.784194 
L 165.399332 197.283277 
L 166.684117 197.483644 
L 170.538472 198.685845 
L 171.823256 200.88988 
L 173.108041 201.390797 
L 175.677611 201.991897 
L 176.962396 204.296116 
L 178.247181 204.496482 
L 179.531966 206.099417 
L 180.816751 204.797033 
L 182.101535 204.496482 
L 183.38632 205.698683 
L 184.671105 206.099417 
L 185.95589 204.897216 
L 187.240675 206.099417 
L 188.52546 206.299784 
L 189.810245 207.501985 
L 191.095029 209.205103 
L 192.379814 208.904552 
L 193.664599 209.505653 
L 194.949384 210.908221 
L 196.234169 211.709688 
L 197.518954 212.010238 
L 198.803739 212.711522 
L 200.088524 212.310788 
L 201.373308 212.511155 
L 202.658093 212.511155 
L 203.942878 212.310788 
L 205.227663 211.910055 
L 207.797233 212.010238 
L 209.082018 212.410972 
L 210.366803 213.212439 
L 211.651587 213.512989 
L 214.221157 214.615007 
L 215.505942 214.71519 
L 216.790727 214.11409 
L 218.075512 214.314457 
L 220.645082 214.013906 
L 221.929866 213.112256 
L 223.214651 212.911889 
L 224.499436 213.112256 
L 225.784221 213.81354 
L 227.069006 214.013906 
L 228.353791 213.412806 
L 229.638576 213.312622 
L 230.923361 214.41464 
L 232.208145 214.815374 
L 233.49293 214.514823 
L 234.777715 213.412806 
L 236.0625 213.212439 
L 237.347285 213.913723 
L 238.63207 214.11409 
L 239.916855 214.013906 
L 241.201639 213.613173 
L 242.486424 214.11409 
L 243.771209 215.01574 
L 246.340779 215.01574 
L 247.625564 215.216107 
L 248.910349 214.915557 
L 252.764703 216.017575 
L 254.049488 215.717024 
L 256.619058 215.416474 
L 257.903843 215.216107 
L 259.188628 215.316291 
L 260.473413 215.01574 
L 264.327767 214.815374 
L 266.897337 215.416474 
L 270.751692 214.815374 
L 272.036476 215.316291 
L 273.321261 215.516657 
L 277.175616 215.516657 
L 278.460401 216.017575 
L 282.314755 215.416474 
L 286.16911 215.516657 
L 287.453895 214.71519 
L 288.73868 214.71519 
L 290.023465 214.915557 
L 293.877819 214.41464 
L 295.162604 214.615007 
L 296.447389 214.615007 
L 297.732174 215.01574 
L 301.586528 214.815374 
L 302.871313 214.41464 
L 306.725668 211.910055 
L 308.010453 211.609504 
L 309.295238 210.60767 
L 310.580023 210.206937 
L 311.864807 208.203269 
L 313.149592 207.501985 
L 314.434377 207.902718 
L 315.719162 207.702351 
L 317.003947 206.399967 
L 319.573517 206.900884 
L 320.858302 208.002902 
L 322.143086 208.303452 
L 323.427871 206.600334 
L 324.712656 206.700517 
L 325.997441 206.099417 
L 327.282226 204.195932 
L 329.851796 200.789696 
L 331.13658 198.385294 
L 332.421365 197.984561 
L 333.70615 196.081076 
L 334.990935 194.578325 
L 336.27572 194.177591 
L 337.560505 192.474473 
L 338.84529 191.673006 
L 340.130075 189.769521 
L 343.984429 180.05173 
L 345.269214 177.847695 
L 346.553999 174.341276 
L 347.838784 170.434123 
L 350.408354 161.517799 
L 351.693138 157.610646 
L 352.977923 157.009546 
L 354.262708 154.605144 
L 355.547493 155.506795 
L 356.832278 152.601476 
L 358.117063 153.00221 
L 359.401848 154.20441 
L 360.686633 154.304594 
L 361.971417 152.501292 
L 363.256202 153.402943 
L 364.540987 150.798175 
L 365.825772 148.493956 
L 367.110557 145.789004 
L 368.395342 141.781668 
L 369.680127 142.583135 
L 370.964912 143.084052 
L 372.249696 141.881851 
L 373.534481 138.976532 
L 374.819266 138.275248 
L 376.104051 137.173231 
L 377.388836 138.675982 
L 378.673621 133.666811 
L 379.958406 131.26241 
L 381.24319 131.663143 
L 382.527975 134.568462 
L 383.81276 132.965527 
L 385.097545 133.766995 
L 386.38233 131.362593 
L 387.667115 130.360759 
L 388.9519 125.451772 
L 390.236685 122.546453 
L 391.521469 118.539116 
L 394.091039 109.021692 
L 395.375824 106.116374 
L 397.945394 111.826828 
L 399.230179 112.027195 
L 400.514964 114.631963 
L 403.084533 129.058375 
L 404.369318 146.490288 
L 404.369318 146.490288 
" style="fill:none;stroke:#1f77b4;stroke-linecap:square;stroke-width:1.5;"/>
   </g>
   <g id="line2d_20">
    <path clip-path="url(#p398e250fee)" d="M 80.603531 216.841122 
L 83.1731 216.841122 
L 85.74267 217.112804 
L 88.31224 216.744093 
L 90.88181 215.870832 
L 92.166594 215.773803 
L 93.451379 215.288657 
L 94.736164 214.609454 
L 96.020949 213.736192 
L 97.305734 212.086698 
L 98.590519 212.086698 
L 101.160088 210.82532 
L 102.444873 210.243146 
L 105.014443 211.407495 
L 106.299228 210.728291 
L 107.584013 208.011478 
L 108.868798 206.944158 
L 110.153583 205.197635 
L 111.438367 204.809518 
L 114.007937 200.928356 
L 115.292722 201.122414 
L 116.577507 202.383792 
L 117.862292 201.607559 
L 119.147077 202.189734 
L 120.431862 201.995676 
L 121.716646 201.607559 
L 123.001431 203.160024 
L 124.286216 204.227344 
L 125.571001 204.712489 
L 126.855786 206.847129 
L 128.140571 207.623361 
L 129.425356 207.526332 
L 130.710141 207.235245 
L 131.994925 205.488722 
L 133.27971 205.003577 
L 134.564495 203.64517 
L 135.84928 202.480821 
L 137.134065 200.055094 
L 138.41885 199.764007 
L 139.703635 201.704588 
L 140.98842 200.928356 
L 142.273204 199.666978 
L 143.557989 198.890746 
L 144.842774 196.950164 
L 146.127559 198.987775 
L 147.412344 200.055094 
L 148.697129 198.987775 
L 149.981914 198.987775 
L 151.266698 199.666978 
L 152.551483 197.920455 
L 153.836268 199.084804 
L 155.121053 197.338281 
L 156.405838 196.562048 
L 157.690623 195.591758 
L 158.975408 195.882845 
L 160.260193 194.524438 
L 161.544977 196.173932 
L 162.829762 196.270961 
L 164.114547 195.397699 
L 165.399332 191.322479 
L 166.684117 190.740304 
L 167.968902 190.643275 
L 169.253687 189.964072 
L 170.538472 189.672985 
L 171.823256 187.441316 
L 173.108041 189.381898 
L 174.392826 192.19574 
L 175.677611 193.457118 
L 176.962396 194.233351 
L 178.247181 196.270961 
L 179.531966 197.047193 
L 180.816751 198.793717 
L 182.101535 198.502629 
L 183.38632 199.47292 
L 184.671105 198.793717 
L 185.95589 196.950164 
L 187.240675 192.777915 
L 188.52546 193.26306 
L 192.379814 192.486828 
L 193.664599 190.643275 
L 194.949384 189.284868 
L 196.234169 189.575956 
L 197.518954 186.568055 
L 198.803739 182.783921 
L 200.088524 180.067107 
L 201.373308 176.768119 
L 202.658093 175.312683 
L 203.942878 173.56616 
L 206.512448 171.916666 
L 207.797233 172.110724 
L 209.082018 169.879056 
L 210.366803 169.005794 
L 211.651587 168.617678 
L 212.936372 167.259271 
L 214.221157 165.512748 
L 215.505942 162.698905 
L 216.790727 162.795934 
L 218.075512 163.572167 
L 219.360297 165.027603 
L 220.645082 168.035504 
L 221.929866 169.102823 
L 223.214651 172.110724 
L 224.499436 174.730509 
L 225.784221 176.282974 
L 227.069006 177.059207 
L 228.353791 178.223555 
L 229.638576 173.954277 
L 232.208145 174.245364 
L 233.49293 175.118625 
L 234.777715 176.380003 
L 236.0625 175.991887 
L 237.347285 174.148335 
L 238.63207 179.290875 
L 239.916855 182.104718 
L 241.201639 183.94827 
L 242.486424 186.082909 
L 243.771209 185.888851 
L 245.055994 188.993781 
L 246.340779 191.419508 
L 247.625564 192.098711 
L 248.910349 193.845234 
L 250.195134 194.912554 
L 251.479918 194.136322 
L 254.049488 195.009583 
L 255.334273 196.950164 
L 256.619058 197.144223 
L 257.903843 195.882845 
L 260.473413 197.532339 
L 261.758197 197.629368 
L 263.042982 198.793717 
L 264.327767 197.43531 
L 265.612552 197.823426 
L 266.897337 198.987775 
L 268.182122 198.211542 
L 270.751692 197.144223 
L 272.036476 195.30067 
L 273.321261 194.33038 
L 274.606046 193.651176 
L 275.890831 193.360089 
L 277.175616 193.26306 
L 278.460401 195.30067 
L 279.745186 196.659077 
L 281.029971 197.43531 
L 282.314755 199.47292 
L 283.59954 200.346182 
L 284.884325 199.084804 
L 286.16911 198.502629 
L 287.453895 199.084804 
L 288.73868 200.152123 
L 290.023465 200.734298 
L 291.308249 201.607559 
L 292.593034 201.704588 
L 293.877819 204.809518 
L 295.162604 207.041187 
L 296.447389 207.623361 
L 297.732174 208.399594 
L 299.016959 208.690681 
L 301.586528 208.593652 
L 302.871313 208.78771 
L 304.156098 206.653071 
L 305.440883 203.451112 
L 306.725668 201.801618 
L 310.580023 196.465019 
L 311.864807 192.389798 
L 313.149592 190.255159 
L 314.434377 189.09081 
L 317.003947 187.247258 
L 318.288732 186.179938 
L 319.573517 185.694793 
L 320.858302 186.276967 
L 322.143086 186.082909 
L 323.427871 186.471026 
L 325.997441 181.328485 
L 327.282226 177.932468 
L 328.567011 177.350294 
L 329.851796 175.894858 
L 332.421365 174.051306 
L 333.70615 175.506742 
L 334.990935 178.029497 
L 336.27572 179.77602 
L 337.560505 179.77602 
L 338.84529 181.522543 
L 340.130075 180.164137 
L 341.414859 177.544352 
L 342.699644 174.051306 
L 343.984429 168.811736 
L 345.269214 168.229562 
L 347.838784 160.952382 
L 349.123569 158.817743 
L 350.408354 154.160348 
L 351.693138 147.853459 
L 352.977923 147.271284 
L 354.262708 146.300994 
L 355.547493 142.128744 
L 356.832278 136.598087 
L 358.117063 135.142651 
L 359.401848 129.806053 
L 360.686633 131.649605 
L 361.971417 130.970402 
L 363.256202 129.806053 
L 364.540987 131.067431 
L 365.825772 128.350617 
L 367.110557 121.752641 
L 368.395342 120.006118 
L 369.680127 114.766548 
L 370.964912 106.907194 
L 372.249696 99.824073 
L 373.534481 95.360736 
L 374.819266 92.740951 
L 376.104051 92.158777 
L 377.388836 92.643922 
L 378.673621 86.142975 
L 379.958406 87.210294 
L 381.24319 88.859789 
L 382.527975 92.352835 
L 383.81276 81.679638 
L 385.097545 74.596516 
L 386.38233 76.440068 
L 387.667115 77.895504 
L 388.9519 73.626226 
L 390.236685 65.96093 
L 391.521469 54.705558 
L 392.806254 51.697657 
L 394.091039 49.271931 
L 395.375824 36.755182 
L 396.660609 35.88192 
L 397.945394 35.88192 
L 399.230179 38.404676 
L 400.514964 42.965042 
L 401.799748 51.212512 
L 403.084533 67.610424 
L 404.369318 97.01023 
L 404.369318 97.01023 
" style="fill:none;stroke:#ff7f0e;stroke-linecap:square;stroke-width:1.5;"/>
   </g>
   <g id="line2d_21">
    <path clip-path="url(#p398e250fee)" d="M 70.325252 217.131055 
L 71.610036 217.32569 
L 72.894821 217.390569 
L 75.464391 217.364618 
L 78.033961 217.353495 
L 90.88181 216.797395 
L 92.166594 216.408124 
L 93.451379 215.852024 
L 94.736164 215.740804 
L 96.020949 215.184703 
L 98.590519 214.294942 
L 101.160088 213.238351 
L 102.444873 213.127131 
L 103.729658 212.45981 
L 105.014443 211.458829 
L 106.299228 210.902728 
L 107.584013 209.790527 
L 108.868798 209.401256 
L 111.438367 207.844174 
L 112.723152 207.399294 
L 114.007937 207.510514 
L 115.292722 206.787583 
L 116.577507 206.954413 
L 117.862292 206.565143 
L 120.431862 207.010024 
L 121.716646 206.731973 
L 123.001431 206.843193 
L 124.286216 207.732954 
L 125.571001 206.898803 
L 126.855786 206.565143 
L 128.140571 206.620753 
L 129.425356 206.509533 
L 130.710141 205.675382 
L 131.994925 204.563181 
L 133.27971 203.61781 
L 134.564495 203.67342 
L 135.84928 202.338778 
L 137.134065 200.281206 
L 138.41885 200.003155 
L 139.703635 198.557294 
L 140.98842 198.334853 
L 142.273204 197.445092 
L 143.557989 195.05386 
L 144.842774 194.831419 
L 146.127559 195.38752 
L 147.412344 194.94264 
L 148.697129 196.499721 
L 149.981914 196.833382 
L 151.266698 196.388501 
L 152.551483 198.334853 
L 153.836268 197.278262 
L 155.121053 198.168023 
L 157.690623 199.057784 
L 160.260193 200.336816 
L 161.544977 201.393407 
L 162.829762 204.06269 
L 164.114547 204.896841 
L 165.399332 205.897822 
L 166.684117 206.565143 
L 167.968902 207.732954 
L 170.538472 209.178816 
L 173.108041 209.456866 
L 174.392826 208.956376 
L 175.677611 209.401256 
L 176.962396 209.178816 
L 178.247181 210.235407 
L 179.531966 209.679307 
L 180.816751 209.345646 
L 183.38632 209.790527 
L 184.671105 209.401256 
L 185.95589 209.957357 
L 187.240675 210.124187 
L 188.52546 211.291998 
L 189.810245 212.73786 
L 191.095029 212.9603 
L 192.379814 213.961282 
L 193.664599 214.739822 
L 194.949384 214.962263 
L 196.234169 215.351533 
L 197.518954 214.684212 
L 200.088524 214.795433 
L 201.373308 213.961282 
L 202.658093 213.738841 
L 203.942878 212.73786 
L 205.227663 212.45981 
L 206.512448 212.68225 
L 207.797233 212.18176 
L 211.651587 212.73786 
L 212.936372 213.293961 
L 214.221157 213.405181 
L 216.790727 214.572992 
L 218.075512 214.851043 
L 219.360297 215.351533 
L 225.784221 216.352514 
L 227.069006 216.296904 
L 229.638576 216.408124 
L 232.208145 216.686175 
L 234.777715 216.630565 
L 237.347285 216.686175 
L 238.63207 216.797395 
L 239.916855 216.574955 
L 241.201639 216.519345 
L 243.771209 216.853005 
L 247.625564 216.853005 
L 250.195134 217.186665 
L 251.479918 216.964225 
L 252.764703 216.964225 
L 256.619058 216.574955 
L 257.903843 216.630565 
L 260.473413 216.074464 
L 261.758197 216.074464 
L 264.327767 216.296904 
L 266.897337 216.185684 
L 268.182122 216.130074 
L 269.466907 216.185684 
L 270.751692 215.907634 
L 273.321261 215.852024 
L 274.606046 215.907634 
L 275.890831 215.518363 
L 277.175616 215.573973 
L 279.745186 215.407143 
L 281.029971 214.795433 
L 283.59954 214.739822 
L 284.884325 214.739822 
L 286.16911 214.628602 
L 288.73868 214.795433 
L 290.023465 215.462753 
L 292.593034 215.518363 
L 295.162604 215.963244 
L 296.447389 216.018854 
L 297.732174 215.518363 
L 299.016959 215.351533 
L 300.301744 214.962263 
L 301.586528 214.906653 
L 302.871313 214.572992 
L 306.725668 211.347609 
L 308.010453 209.679307 
L 309.295238 209.178816 
L 310.580023 208.344665 
L 311.864807 206.064652 
L 313.149592 205.452942 
L 314.434377 205.341722 
L 315.719162 205.508552 
L 317.003947 206.120262 
L 318.288732 206.453923 
L 319.573517 205.786602 
L 320.858302 206.787583 
L 322.143086 207.343684 
L 325.997441 206.453923 
L 327.282226 205.397332 
L 328.567011 204.674401 
L 329.851796 204.17391 
L 331.13658 202.616828 
L 333.70615 201.504627 
L 334.990935 200.948527 
L 336.27572 200.948527 
L 337.560505 200.503646 
L 338.84529 198.279243 
L 340.130075 197.111432 
L 341.414859 194.99825 
L 342.699644 195.2763 
L 343.984429 192.328967 
L 345.269214 191.327985 
L 346.553999 190.938715 
L 350.408354 186.87918 
L 351.693138 182.541595 
L 352.977923 181.929885 
L 354.262708 179.816702 
L 355.547493 178.537671 
L 356.832278 176.758149 
L 358.117063 176.257658 
L 359.401848 174.811796 
L 360.686633 175.367897 
L 363.256202 173.922035 
L 364.540987 172.142513 
L 365.825772 170.140551 
L 368.395342 164.801985 
L 369.680127 162.966853 
L 370.964912 160.63123 
L 372.249696 159.519029 
L 373.534481 159.185368 
L 374.819266 157.628286 
L 376.104051 154.903393 
L 377.388836 153.068261 
L 378.673621 151.566789 
L 381.24319 147.006764 
L 382.527975 145.449682 
L 383.81276 140.778437 
L 387.667115 131.046676 
L 388.9519 125.318839 
L 390.236685 121.815405 
L 391.521469 115.420248 
L 392.806254 110.971442 
L 395.375824 108.69143 
L 396.660609 108.135329 
L 397.945394 112.528524 
L 399.230179 115.475858 
L 400.514964 122.149065 
L 401.799748 127.710072 
L 403.084533 131.880827 
L 404.369318 147.785305 
L 404.369318 147.785305 
" style="fill:none;stroke:#2ca02c;stroke-linecap:square;stroke-width:1.5;"/>
   </g>
   <g id="line2d_22">
    <path clip-path="url(#p398e250fee)" d="M 83.1731 216.774157 
L 84.457885 217.147241 
L 85.74267 216.774157 
L 87.027455 216.774157 
L 88.31224 216.624923 
L 89.597025 216.649796 
L 92.166594 216.560966 
L 94.736164 216.45437 
L 98.590519 214.429055 
L 99.875304 213.3631 
L 101.160088 212.723527 
L 102.444873 211.657572 
L 103.729658 211.337785 
L 105.014443 211.337785 
L 106.299228 210.378425 
L 107.584013 206.967368 
L 108.868798 205.581626 
L 112.723152 200.465041 
L 114.007937 198.226535 
L 115.292722 196.734198 
L 116.577507 197.267175 
L 117.862292 196.094624 
L 119.147077 195.988029 
L 121.716646 193.003354 
L 123.001431 192.683567 
L 124.286216 192.043994 
L 125.571001 193.10995 
L 126.855786 192.043994 
L 128.140571 190.445061 
L 129.425356 189.165915 
L 130.710141 189.379106 
L 131.994925 189.379106 
L 133.27971 189.592297 
L 134.564495 187.886769 
L 135.84928 189.592297 
L 137.134065 188.846128 
L 138.41885 192.15059 
L 139.703635 194.175905 
L 140.98842 194.069309 
L 143.557989 196.307815 
L 144.842774 194.389096 
L 146.127559 196.414411 
L 147.412344 197.053984 
L 148.697129 197.053984 
L 149.981914 198.866108 
L 151.266698 199.825468 
L 152.551483 199.718872 
L 153.836268 202.063974 
L 155.121053 203.34312 
L 156.405838 203.769502 
L 157.690623 203.876098 
L 158.975408 201.317805 
L 160.260193 200.358446 
L 161.544977 202.490356 
L 162.829762 204.195885 
L 164.114547 204.942053 
L 165.399332 205.155244 
L 166.684117 206.2212 
L 167.968902 209.525661 
L 169.253687 211.444381 
L 170.538472 212.083954 
L 171.823256 211.977358 
L 173.108041 212.297145 
L 174.392826 213.149909 
L 176.962396 212.723527 
L 178.247181 212.936718 
L 179.531966 211.124594 
L 180.816751 211.231189 
L 182.101535 211.017998 
L 183.38632 209.845448 
L 184.671105 210.165234 
L 185.95589 210.27183 
L 187.240675 210.165234 
L 188.52546 212.40374 
L 189.810245 212.936718 
L 191.095029 213.682887 
L 192.379814 214.109269 
L 193.664599 214.109269 
L 194.949384 214.748842 
L 196.234169 214.642246 
L 197.518954 214.109269 
L 198.803739 214.642246 
L 200.088524 214.32246 
L 201.373308 214.748842 
L 202.658093 214.642246 
L 203.942878 214.748842 
L 205.227663 215.28182 
L 206.512448 215.495011 
L 207.797233 215.388415 
L 209.082018 215.495011 
L 210.366803 215.814797 
L 211.651587 216.347775 
L 214.221157 216.241179 
L 215.505942 216.667561 
L 220.645082 216.560966 
L 223.214651 216.45437 
L 224.499436 216.560966 
L 225.784221 216.45437 
L 227.069006 216.560966 
L 228.353791 216.347775 
L 232.208145 216.560966 
L 236.0625 216.667561 
L 238.63207 216.880753 
L 239.916855 217.200539 
L 241.201639 217.307135 
L 246.340779 216.987348 
L 247.625564 216.987348 
L 250.195134 216.667561 
L 252.764703 216.667561 
L 254.049488 216.880753 
L 256.619058 216.880753 
L 257.903843 217.093944 
L 260.473413 217.200539 
L 263.042982 217.307135 
L 264.327767 217.307135 
L 266.897337 216.880753 
L 268.182122 216.987348 
L 270.751692 216.880753 
L 275.890831 216.987348 
L 277.175616 216.45437 
L 278.460401 215.708202 
L 279.745186 215.495011 
L 283.59954 215.388415 
L 284.884325 215.175224 
L 286.16911 215.601606 
L 287.453895 215.601606 
L 288.73868 215.175224 
L 290.023465 214.535651 
L 291.308249 213.469696 
L 292.593034 213.469696 
L 293.877819 213.789482 
L 295.162604 213.576291 
L 299.016959 214.748842 
L 300.301744 214.855437 
L 301.586528 214.429055 
L 302.871313 213.789482 
L 304.156098 212.297145 
L 308.010453 210.058639 
L 309.295238 210.378425 
L 311.864807 209.632257 
L 313.149592 210.27183 
L 314.434377 210.058639 
L 317.003947 208.35311 
L 318.288732 208.246515 
L 319.573517 207.713537 
L 322.143086 205.26184 
L 323.427871 202.063974 
L 324.712656 199.825468 
L 325.997441 196.307815 
L 327.282226 193.323141 
L 328.567011 188.419746 
L 329.851796 182.770183 
L 331.13658 177.760193 
L 332.421365 171.897439 
L 333.70615 168.166596 
L 334.990935 165.821494 
L 336.27572 161.451078 
L 337.560505 161.557673 
L 338.84529 161.024695 
L 340.130075 162.623628 
L 341.414859 165.608303 
L 342.699644 165.821494 
L 343.984429 164.542348 
L 345.269214 166.88745 
L 346.553999 164.862134 
L 347.838784 163.476393 
L 349.123569 158.679594 
L 350.408354 156.334492 
L 351.693138 155.588323 
L 352.977923 155.268537 
L 354.262708 156.547683 
L 355.547493 160.598313 
L 356.832278 162.090651 
L 358.117063 163.050011 
L 359.401848 161.87746 
L 360.686633 162.197246 
L 361.971417 164.435752 
L 363.256202 161.984055 
L 364.540987 161.024695 
L 365.825772 159.745549 
L 367.110557 161.131291 
L 368.395342 161.131291 
L 370.964912 157.720234 
L 372.249696 156.227897 
L 373.534481 153.989391 
L 374.819266 153.136626 
L 376.104051 150.791525 
L 377.388836 152.497053 
L 378.673621 151.324502 
L 379.958406 149.618974 
L 381.24319 151.217907 
L 382.527975 151.004716 
L 383.81276 148.553019 
L 386.38233 142.583669 
L 387.667115 141.730905 
L 388.9519 137.893466 
L 390.236685 132.243903 
L 391.521469 128.406464 
L 392.806254 123.609665 
L 394.091039 119.985417 
L 395.375824 114.762236 
L 396.660609 112.203943 
L 397.945394 114.442449 
L 399.230179 117.213933 
L 400.514964 117.746911 
L 401.799748 120.411799 
L 403.084533 123.822856 
L 404.369318 140.878141 
L 404.369318 140.878141 
" style="fill:none;stroke:#d62728;stroke-linecap:square;stroke-width:1.5;"/>
   </g>
   <g id="line2d_23">
    <path clip-path="url(#p398e250fee)" d="M 67.755682 216.777789 
L 69.040467 217.149057 
L 71.610036 217.334691 
L 75.464391 217.414249 
L 78.033961 217.308172 
L 80.603531 217.202096 
L 84.457885 216.777789 
L 85.74267 216.989942 
L 87.027455 216.777789 
L 93.451379 216.671712 
L 96.020949 215.610945 
L 97.305734 214.550178 
L 98.590519 213.913717 
L 99.875304 212.85295 
L 101.160088 211.473953 
L 102.444873 210.413186 
L 103.729658 208.609882 
L 105.014443 207.443038 
L 106.299228 206.806577 
L 107.584013 205.533657 
L 108.868798 201.290588 
L 111.438367 195.138139 
L 112.723152 192.910528 
L 114.007937 189.834303 
L 116.577507 183.045393 
L 117.862292 184.212237 
L 119.147077 185.697311 
L 120.431862 186.439848 
L 121.716646 188.137075 
L 123.001431 189.409996 
L 124.286216 189.728226 
L 126.855786 191.743684 
L 128.140571 191.743684 
L 129.425356 190.682917 
L 130.710141 189.091766 
L 131.994925 190.470763 
L 133.27971 192.061914 
L 134.564495 191.425454 
L 135.84928 190.470763 
L 137.134065 190.89507 
L 139.703635 196.198906 
L 140.98842 196.517136 
L 142.273204 197.259673 
L 144.842774 202.351355 
L 146.127559 201.396665 
L 148.697129 200.229821 
L 151.266698 197.790057 
L 152.551483 197.896133 
L 153.836268 195.774599 
L 155.121053 196.411059 
L 156.405838 197.36575 
L 158.975408 197.36575 
L 160.260193 198.63867 
L 161.544977 196.198906 
L 162.829762 198.00221 
L 164.114547 199.275131 
L 165.399332 198.63867 
L 166.684117 199.381207 
L 167.968902 200.548051 
L 169.253687 200.654128 
L 170.538472 203.624276 
L 173.108041 204.048583 
L 174.392826 205.74581 
L 175.677611 205.215427 
L 178.247181 206.06404 
L 179.531966 205.74581 
L 180.816751 206.06404 
L 182.101535 206.06404 
L 183.38632 206.488347 
L 184.671105 207.973421 
L 185.95589 207.973421 
L 187.240675 208.928112 
L 188.52546 209.458495 
L 189.810245 209.564572 
L 191.095029 210.731416 
L 192.379814 210.413186 
L 193.664599 210.837493 
L 196.234169 212.428643 
L 197.518954 212.640797 
L 198.803739 213.065104 
L 200.088524 212.428643 
L 201.373308 212.640797 
L 202.658093 212.428643 
L 203.942878 211.58003 
L 205.227663 210.094956 
L 206.512448 210.094956 
L 207.797233 210.413186 
L 209.082018 211.049646 
L 210.366803 210.943569 
L 211.651587 211.049646 
L 212.936372 212.428643 
L 214.221157 213.065104 
L 215.505942 213.48941 
L 216.790727 213.48941 
L 220.645082 214.550178 
L 221.929866 214.550178 
L 223.214651 215.504868 
L 225.784221 216.777789 
L 227.069006 216.565635 
L 228.353791 216.565635 
L 229.638576 216.353482 
L 230.923361 215.823098 
L 232.208145 216.035252 
L 234.777715 215.610945 
L 236.0625 215.823098 
L 237.347285 215.823098 
L 238.63207 216.035252 
L 239.916855 216.671712 
L 241.201639 216.459559 
L 245.055994 216.989942 
L 246.340779 216.671712 
L 247.625564 216.671712 
L 248.910349 216.247405 
L 251.479918 216.141328 
L 254.049488 215.823098 
L 255.334273 216.141328 
L 256.619058 216.141328 
L 257.903843 216.565635 
L 259.188628 216.671712 
L 260.473413 216.141328 
L 261.758197 215.929175 
L 263.042982 215.929175 
L 264.327767 215.610945 
L 268.182122 215.610945 
L 269.466907 216.141328 
L 270.751692 216.353482 
L 272.036476 215.823098 
L 273.321261 216.247405 
L 275.890831 216.141328 
L 277.175616 215.717022 
L 278.460401 215.929175 
L 279.745186 215.717022 
L 281.029971 216.247405 
L 284.884325 215.717022 
L 286.16911 216.035252 
L 287.453895 215.398791 
L 288.73868 215.398791 
L 292.593034 214.231948 
L 295.162604 211.261799 
L 296.447389 210.519262 
L 297.732174 209.352419 
L 299.016959 207.230884 
L 300.301744 207.230884 
L 301.586528 207.018731 
L 302.871313 206.276194 
L 304.156098 205.215427 
L 305.440883 202.881739 
L 306.725668 200.972358 
L 308.010453 198.850824 
L 309.295238 197.153596 
L 310.580023 194.607755 
L 311.864807 192.592298 
L 313.149592 189.303919 
L 315.719162 183.78793 
L 317.003947 183.681853 
L 318.288732 181.029936 
L 319.573517 181.136012 
L 322.143086 177.31725 
L 323.427871 175.832176 
L 324.712656 172.437722 
L 325.997441 169.785804 
L 327.282226 168.30073 
L 328.567011 164.163738 
L 329.851796 160.769283 
L 331.13658 159.178132 
L 332.421365 155.465447 
L 333.70615 155.889754 
L 334.990935 152.601376 
L 336.27572 152.177069 
L 337.560505 152.070992 
L 338.84529 150.161611 
L 340.130075 148.888691 
L 341.414859 146.342849 
L 342.699644 145.494236 
L 343.984429 145.282082 
L 345.269214 140.50863 
L 346.553999 137.856712 
L 347.838784 131.916416 
L 349.123569 125.33966 
L 350.408354 124.384969 
L 351.693138 116.004909 
L 352.977923 113.034761 
L 354.262708 115.368449 
L 355.547493 114.413758 
L 356.832278 116.004909 
L 358.117063 118.444673 
L 359.401848 120.566208 
L 360.686633 124.915353 
L 361.971417 127.779424 
L 363.256202 125.445737 
L 364.540987 126.29435 
L 365.825772 118.338597 
L 367.110557 117.808213 
L 368.395342 113.883375 
L 369.680127 112.3983 
L 370.964912 113.671221 
L 372.249696 114.413758 
L 373.534481 118.126443 
L 374.819266 123.642432 
L 377.388836 127.991578 
L 378.673621 133.825797 
L 379.958406 132.340723 
L 381.24319 136.477715 
L 382.527975 135.204794 
L 383.81276 136.265562 
L 386.38233 143.903085 
L 388.9519 144.433469 
L 390.236685 144.433469 
L 391.521469 144.009162 
L 392.806254 150.798072 
L 394.091039 151.222378 
L 395.375824 153.556066 
L 396.660609 153.76822 
L 397.945394 155.35937 
L 399.230179 157.586981 
L 400.514964 158.859902 
L 401.799748 162.890817 
L 403.084533 166.073119 
L 404.369318 174.347102 
L 404.369318 174.347102 
" style="fill:none;stroke:#9467bd;stroke-linecap:square;stroke-width:1.5;"/>
   </g>
   <g id="line2d_24"/>
   <g id="line2d_25"/>
   <g id="line2d_26"/>
   <g id="line2d_27"/>
   <g id="line2d_28"/>
   <g id="patch_3">
    <path d="M 50.925 226.602246 
L 50.925 26.8 
" style="fill:none;stroke:#000000;stroke-linecap:square;stroke-linejoin:miter;stroke-width:0.8;"/>
   </g>
   <g id="patch_4">
    <path d="M 421.2 226.602246 
L 421.2 26.8 
" style="fill:none;stroke:#000000;stroke-linecap:square;stroke-linejoin:miter;stroke-width:0.8;"/>
   </g>
   <g id="patch_5">
    <path d="M 50.925 226.602246 
L 421.2 226.602246 
" style="fill:none;stroke:#000000;stroke-linecap:square;stroke-linejoin:miter;stroke-width:0.8;"/>
   </g>
   <g id="patch_6">
    <path d="M 50.925 26.8 
L 421.2 26.8 
" style="fill:none;stroke:#000000;stroke-linecap:square;stroke-linejoin:miter;stroke-width:0.8;"/>
   </g>
   <g id="text_21">
    <!-- New cases per million people by UTLA (7 day rolling) -->
    <g transform="translate(77.450625 20.8)scale(0.12 -0.12)">
     <defs>
      <path d="M 48.6875 27.296875 
Q 48.6875 37.203125 44.609375 42.84375 
Q 40.53125 48.484375 33.40625 48.484375 
Q 26.265625 48.484375 22.1875 42.84375 
Q 18.109375 37.203125 18.109375 27.296875 
Q 18.109375 17.390625 22.1875 11.75 
Q 26.265625 6.109375 33.40625 6.109375 
Q 40.53125 6.109375 44.609375 11.75 
Q 48.6875 17.390625 48.6875 27.296875 
z
M 18.109375 46.390625 
Q 20.953125 51.265625 25.265625 53.625 
Q 29.59375 56 35.59375 56 
Q 45.5625 56 51.78125 48.09375 
Q 58.015625 40.1875 58.015625 27.296875 
Q 58.015625 14.40625 51.78125 6.484375 
Q 45.5625 -1.421875 35.59375 -1.421875 
Q 29.59375 -1.421875 25.265625 0.953125 
Q 20.953125 3.328125 18.109375 8.203125 
L 18.109375 0 
L 9.078125 0 
L 9.078125 75.984375 
L 18.109375 75.984375 
z
" id="DejaVuSans-98"/>
      <path d="M 32.171875 -5.078125 
Q 28.375 -14.84375 24.75 -17.8125 
Q 21.140625 -20.796875 15.09375 -20.796875 
L 7.90625 -20.796875 
L 7.90625 -13.28125 
L 13.1875 -13.28125 
Q 16.890625 -13.28125 18.9375 -11.515625 
Q 21 -9.765625 23.484375 -3.21875 
L 25.09375 0.875 
L 2.984375 54.6875 
L 12.5 54.6875 
L 29.59375 11.921875 
L 46.6875 54.6875 
L 56.203125 54.6875 
z
" id="DejaVuSans-121"/>
      <path d="M 8.6875 72.90625 
L 18.609375 72.90625 
L 18.609375 28.609375 
Q 18.609375 16.890625 22.84375 11.734375 
Q 27.09375 6.59375 36.625 6.59375 
Q 46.09375 6.59375 50.34375 11.734375 
Q 54.59375 16.890625 54.59375 28.609375 
L 54.59375 72.90625 
L 64.5 72.90625 
L 64.5 27.390625 
Q 64.5 13.140625 57.4375 5.859375 
Q 50.390625 -1.421875 36.625 -1.421875 
Q 22.796875 -1.421875 15.734375 5.859375 
Q 8.6875 13.140625 8.6875 27.390625 
z
" id="DejaVuSans-85"/>
      <path d="M -0.296875 72.90625 
L 61.375 72.90625 
L 61.375 64.59375 
L 35.5 64.59375 
L 35.5 0 
L 25.59375 0 
L 25.59375 64.59375 
L -0.296875 64.59375 
z
" id="DejaVuSans-84"/>
      <path d="M 9.8125 72.90625 
L 19.671875 72.90625 
L 19.671875 8.296875 
L 55.171875 8.296875 
L 55.171875 0 
L 9.8125 0 
z
" id="DejaVuSans-76"/>
      <path d="M 34.1875 63.1875 
L 20.796875 26.90625 
L 47.609375 26.90625 
z
M 28.609375 72.90625 
L 39.796875 72.90625 
L 67.578125 0 
L 57.328125 0 
L 50.6875 18.703125 
L 17.828125 18.703125 
L 11.1875 0 
L 0.78125 0 
z
" id="DejaVuSans-65"/>
      <path d="M 31 75.875 
Q 24.46875 64.65625 21.28125 53.65625 
Q 18.109375 42.671875 18.109375 31.390625 
Q 18.109375 20.125 21.3125 9.0625 
Q 24.515625 -2 31 -13.1875 
L 23.1875 -13.1875 
Q 15.875 -1.703125 12.234375 9.375 
Q 8.59375 20.453125 8.59375 31.390625 
Q 8.59375 42.28125 12.203125 53.3125 
Q 15.828125 64.359375 23.1875 75.875 
z
" id="DejaVuSans-40"/>
      <path d="M 45.40625 46.390625 
L 45.40625 75.984375 
L 54.390625 75.984375 
L 54.390625 0 
L 45.40625 0 
L 45.40625 8.203125 
Q 42.578125 3.328125 38.25 0.953125 
Q 33.9375 -1.421875 27.875 -1.421875 
Q 17.96875 -1.421875 11.734375 6.484375 
Q 5.515625 14.40625 5.515625 27.296875 
Q 5.515625 40.1875 11.734375 48.09375 
Q 17.96875 56 27.875 56 
Q 33.9375 56 38.25 53.625 
Q 42.578125 51.265625 45.40625 46.390625 
z
M 14.796875 27.296875 
Q 14.796875 17.390625 18.875 11.75 
Q 22.953125 6.109375 30.078125 6.109375 
Q 37.203125 6.109375 41.296875 11.75 
Q 45.40625 17.390625 45.40625 27.296875 
Q 45.40625 37.203125 41.296875 42.84375 
Q 37.203125 48.484375 30.078125 48.484375 
Q 22.953125 48.484375 18.875 42.84375 
Q 14.796875 37.203125 14.796875 27.296875 
z
" id="DejaVuSans-100"/>
      <path d="M 45.40625 27.984375 
Q 45.40625 37.75 41.375 43.109375 
Q 37.359375 48.484375 30.078125 48.484375 
Q 22.859375 48.484375 18.828125 43.109375 
Q 14.796875 37.75 14.796875 27.984375 
Q 14.796875 18.265625 18.828125 12.890625 
Q 22.859375 7.515625 30.078125 7.515625 
Q 37.359375 7.515625 41.375 12.890625 
Q 45.40625 18.265625 45.40625 27.984375 
z
M 54.390625 6.78125 
Q 54.390625 -7.171875 48.1875 -13.984375 
Q 42 -20.796875 29.203125 -20.796875 
Q 24.46875 -20.796875 20.265625 -20.09375 
Q 16.0625 -19.390625 12.109375 -17.921875 
L 12.109375 -9.1875 
Q 16.0625 -11.328125 19.921875 -12.34375 
Q 23.78125 -13.375 27.78125 -13.375 
Q 36.625 -13.375 41.015625 -8.765625 
Q 45.40625 -4.15625 45.40625 5.171875 
L 45.40625 9.625 
Q 42.625 4.78125 38.28125 2.390625 
Q 33.9375 0 27.875 0 
Q 17.828125 0 11.671875 7.65625 
Q 5.515625 15.328125 5.515625 27.984375 
Q 5.515625 40.671875 11.671875 48.328125 
Q 17.828125 56 27.875 56 
Q 33.9375 56 38.28125 53.609375 
Q 42.625 51.21875 45.40625 46.390625 
L 45.40625 54.6875 
L 54.390625 54.6875 
z
" id="DejaVuSans-103"/>
      <path d="M 8.015625 75.875 
L 15.828125 75.875 
Q 23.140625 64.359375 26.78125 53.3125 
Q 30.421875 42.28125 30.421875 31.390625 
Q 30.421875 20.453125 26.78125 9.375 
Q 23.140625 -1.703125 15.828125 -13.1875 
L 8.015625 -13.1875 
Q 14.5 -2 17.703125 9.0625 
Q 20.90625 20.125 20.90625 31.390625 
Q 20.90625 42.671875 17.703125 53.65625 
Q 14.5 64.65625 8.015625 75.875 
z
" id="DejaVuSans-41"/>
     </defs>
     <use xlink:href="#DejaVuSans-78"/>
     <use x="74.804688" xlink:href="#DejaVuSans-101"/>
     <use x="136.328125" xlink:href="#DejaVuSans-119"/>
     <use x="218.115234" xlink:href="#DejaVuSans-32"/>
     <use x="249.902344" xlink:href="#DejaVuSans-99"/>
     <use x="304.882812" xlink:href="#DejaVuSans-97"/>
     <use x="366.162109" xlink:href="#DejaVuSans-115"/>
     <use x="418.261719" xlink:href="#DejaVuSans-101"/>
     <use x="479.785156" xlink:href="#DejaVuSans-115"/>
     <use x="531.884766" xlink:href="#DejaVuSans-32"/>
     <use x="563.671875" xlink:href="#DejaVuSans-112"/>
     <use x="627.148438" xlink:href="#DejaVuSans-101"/>
     <use x="688.671875" xlink:href="#DejaVuSans-114"/>
     <use x="729.785156" xlink:href="#DejaVuSans-32"/>
     <use x="761.572266" xlink:href="#DejaVuSans-109"/>
     <use x="858.984375" xlink:href="#DejaVuSans-105"/>
     <use x="886.767578" xlink:href="#DejaVuSans-108"/>
     <use x="914.550781" xlink:href="#DejaVuSans-108"/>
     <use x="942.333984" xlink:href="#DejaVuSans-105"/>
     <use x="970.117188" xlink:href="#DejaVuSans-111"/>
     <use x="1031.298828" xlink:href="#DejaVuSans-110"/>
     <use x="1094.677734" xlink:href="#DejaVuSans-32"/>
     <use x="1126.464844" xlink:href="#DejaVuSans-112"/>
     <use x="1189.941406" xlink:href="#DejaVuSans-101"/>
     <use x="1251.464844" xlink:href="#DejaVuSans-111"/>
     <use x="1312.646484" xlink:href="#DejaVuSans-112"/>
     <use x="1376.123047" xlink:href="#DejaVuSans-108"/>
     <use x="1403.90625" xlink:href="#DejaVuSans-101"/>
     <use x="1465.429688" xlink:href="#DejaVuSans-32"/>
     <use x="1497.216797" xlink:href="#DejaVuSans-98"/>
     <use x="1560.693359" xlink:href="#DejaVuSans-121"/>
     <use x="1619.873047" xlink:href="#DejaVuSans-32"/>
     <use x="1651.660156" xlink:href="#DejaVuSans-85"/>
     <use x="1724.853516" xlink:href="#DejaVuSans-84"/>
     <use x="1785.9375" xlink:href="#DejaVuSans-76"/>
     <use x="1843.900391" xlink:href="#DejaVuSans-65"/>
     <use x="1912.308594" xlink:href="#DejaVuSans-32"/>
     <use x="1944.095703" xlink:href="#DejaVuSans-40"/>
     <use x="1983.109375" xlink:href="#DejaVuSans-55"/>
     <use x="2046.732422" xlink:href="#DejaVuSans-32"/>
     <use x="2078.519531" xlink:href="#DejaVuSans-100"/>
     <use x="2141.996094" xlink:href="#DejaVuSans-97"/>
     <use x="2203.275391" xlink:href="#DejaVuSans-121"/>
     <use x="2262.455078" xlink:href="#DejaVuSans-32"/>
     <use x="2294.242188" xlink:href="#DejaVuSans-114"/>
     <use x="2333.105469" xlink:href="#DejaVuSans-111"/>
     <use x="2394.287109" xlink:href="#DejaVuSans-108"/>
     <use x="2422.070312" xlink:href="#DejaVuSans-108"/>
     <use x="2449.853516" xlink:href="#DejaVuSans-105"/>
     <use x="2477.636719" xlink:href="#DejaVuSans-110"/>
     <use x="2541.015625" xlink:href="#DejaVuSans-103"/>
     <use x="2604.492188" xlink:href="#DejaVuSans-41"/>
    </g>
   </g>
   <g id="legend_1">
    <g id="patch_7">
     <path d="M 57.925 122.86875 
L 225.560938 122.86875 
Q 227.560938 122.86875 227.560938 120.86875 
L 227.560938 33.8 
Q 227.560938 31.8 225.560938 31.8 
L 57.925 31.8 
Q 55.925 31.8 55.925 33.8 
L 55.925 120.86875 
Q 55.925 122.86875 57.925 122.86875 
z
" style="fill:#ffffff;opacity:0.8;stroke:#cccccc;stroke-linejoin:miter;"/>
    </g>
    <g id="text_22">
     <!-- Upper-tier local authority -->
     <g transform="translate(79.022656 43.398437)scale(0.1 -0.1)">
      <defs>
       <path d="M 54.890625 33.015625 
L 54.890625 0 
L 45.90625 0 
L 45.90625 32.71875 
Q 45.90625 40.484375 42.875 44.328125 
Q 39.84375 48.1875 33.796875 48.1875 
Q 26.515625 48.1875 22.3125 43.546875 
Q 18.109375 38.921875 18.109375 30.90625 
L 18.109375 0 
L 9.078125 0 
L 9.078125 75.984375 
L 18.109375 75.984375 
L 18.109375 46.1875 
Q 21.34375 51.125 25.703125 53.5625 
Q 30.078125 56 35.796875 56 
Q 45.21875 56 50.046875 50.171875 
Q 54.890625 44.34375 54.890625 33.015625 
z
" id="DejaVuSans-104"/>
      </defs>
      <use xlink:href="#DejaVuSans-85"/>
      <use x="73.193359" xlink:href="#DejaVuSans-112"/>
      <use x="136.669922" xlink:href="#DejaVuSans-112"/>
      <use x="200.146484" xlink:href="#DejaVuSans-101"/>
      <use x="261.669922" xlink:href="#DejaVuSans-114"/>
      <use x="296.408203" xlink:href="#DejaVuSans-45"/>
      <use x="332.492188" xlink:href="#DejaVuSans-116"/>
      <use x="371.701172" xlink:href="#DejaVuSans-105"/>
      <use x="399.484375" xlink:href="#DejaVuSans-101"/>
      <use x="461.007812" xlink:href="#DejaVuSans-114"/>
      <use x="502.121094" xlink:href="#DejaVuSans-32"/>
      <use x="533.908203" xlink:href="#DejaVuSans-108"/>
      <use x="561.691406" xlink:href="#DejaVuSans-111"/>
      <use x="622.873047" xlink:href="#DejaVuSans-99"/>
      <use x="677.853516" xlink:href="#DejaVuSans-97"/>
      <use x="739.132812" xlink:href="#DejaVuSans-108"/>
      <use x="766.916016" xlink:href="#DejaVuSans-32"/>
      <use x="798.703125" xlink:href="#DejaVuSans-97"/>
      <use x="859.982422" xlink:href="#DejaVuSans-117"/>
      <use x="923.361328" xlink:href="#DejaVuSans-116"/>
      <use x="962.570312" xlink:href="#DejaVuSans-104"/>
      <use x="1025.949219" xlink:href="#DejaVuSans-111"/>
      <use x="1087.130859" xlink:href="#DejaVuSans-114"/>
      <use x="1128.244141" xlink:href="#DejaVuSans-105"/>
      <use x="1156.027344" xlink:href="#DejaVuSans-116"/>
      <use x="1195.236328" xlink:href="#DejaVuSans-121"/>
     </g>
    </g>
    <g id="line2d_29">
     <path d="M 59.925 54.576562 
L 79.925 54.576562 
" style="fill:none;stroke:#1f77b4;stroke-linecap:square;stroke-width:1.5;"/>
    </g>
    <g id="line2d_30"/>
    <g id="text_23">
     <!-- Cheshire West and Chester -->
     <g transform="translate(87.925 58.076562)scale(0.1 -0.1)">
      <defs>
       <path d="M 64.40625 67.28125 
L 64.40625 56.890625 
Q 59.421875 61.53125 53.78125 63.8125 
Q 48.140625 66.109375 41.796875 66.109375 
Q 29.296875 66.109375 22.65625 58.46875 
Q 16.015625 50.828125 16.015625 36.375 
Q 16.015625 21.96875 22.65625 14.328125 
Q 29.296875 6.6875 41.796875 6.6875 
Q 48.140625 6.6875 53.78125 8.984375 
Q 59.421875 11.28125 64.40625 15.921875 
L 64.40625 5.609375 
Q 59.234375 2.09375 53.4375 0.328125 
Q 47.65625 -1.421875 41.21875 -1.421875 
Q 24.65625 -1.421875 15.125 8.703125 
Q 5.609375 18.84375 5.609375 36.375 
Q 5.609375 53.953125 15.125 64.078125 
Q 24.65625 74.21875 41.21875 74.21875 
Q 47.75 74.21875 53.53125 72.484375 
Q 59.328125 70.75 64.40625 67.28125 
z
" id="DejaVuSans-67"/>
       <path d="M 3.328125 72.90625 
L 13.28125 72.90625 
L 28.609375 11.28125 
L 43.890625 72.90625 
L 54.984375 72.90625 
L 70.3125 11.28125 
L 85.59375 72.90625 
L 95.609375 72.90625 
L 77.296875 0 
L 64.890625 0 
L 49.515625 63.28125 
L 33.984375 0 
L 21.578125 0 
z
" id="DejaVuSans-87"/>
      </defs>
      <use xlink:href="#DejaVuSans-67"/>
      <use x="69.824219" xlink:href="#DejaVuSans-104"/>
      <use x="133.203125" xlink:href="#DejaVuSans-101"/>
      <use x="194.726562" xlink:href="#DejaVuSans-115"/>
      <use x="246.826172" xlink:href="#DejaVuSans-104"/>
      <use x="310.205078" xlink:href="#DejaVuSans-105"/>
      <use x="337.988281" xlink:href="#DejaVuSans-114"/>
      <use x="376.851562" xlink:href="#DejaVuSans-101"/>
      <use x="438.375" xlink:href="#DejaVuSans-32"/>
      <use x="470.162109" xlink:href="#DejaVuSans-87"/>
      <use x="563.164062" xlink:href="#DejaVuSans-101"/>
      <use x="624.6875" xlink:href="#DejaVuSans-115"/>
      <use x="676.787109" xlink:href="#DejaVuSans-116"/>
      <use x="715.996094" xlink:href="#DejaVuSans-32"/>
      <use x="747.783203" xlink:href="#DejaVuSans-97"/>
      <use x="809.0625" xlink:href="#DejaVuSans-110"/>
      <use x="872.441406" xlink:href="#DejaVuSans-100"/>
      <use x="935.917969" xlink:href="#DejaVuSans-32"/>
      <use x="967.705078" xlink:href="#DejaVuSans-67"/>
      <use x="1037.529297" xlink:href="#DejaVuSans-104"/>
      <use x="1100.908203" xlink:href="#DejaVuSans-101"/>
      <use x="1162.431641" xlink:href="#DejaVuSans-115"/>
      <use x="1214.53125" xlink:href="#DejaVuSans-116"/>
      <use x="1253.740234" xlink:href="#DejaVuSans-101"/>
      <use x="1315.263672" xlink:href="#DejaVuSans-114"/>
     </g>
    </g>
    <g id="line2d_31">
     <path d="M 59.925 69.254687 
L 79.925 69.254687 
" style="fill:none;stroke:#ff7f0e;stroke-linecap:square;stroke-width:1.5;"/>
    </g>
    <g id="line2d_32"/>
    <g id="text_24">
     <!-- Leicester -->
     <g transform="translate(87.925 72.754687)scale(0.1 -0.1)">
      <use xlink:href="#DejaVuSans-76"/>
      <use x="53.962891" xlink:href="#DejaVuSans-101"/>
      <use x="115.486328" xlink:href="#DejaVuSans-105"/>
      <use x="143.269531" xlink:href="#DejaVuSans-99"/>
      <use x="198.25" xlink:href="#DejaVuSans-101"/>
      <use x="259.773438" xlink:href="#DejaVuSans-115"/>
      <use x="311.873047" xlink:href="#DejaVuSans-116"/>
      <use x="351.082031" xlink:href="#DejaVuSans-101"/>
      <use x="412.605469" xlink:href="#DejaVuSans-114"/>
     </g>
    </g>
    <g id="line2d_33">
     <path d="M 59.925 83.932812 
L 79.925 83.932812 
" style="fill:none;stroke:#2ca02c;stroke-linecap:square;stroke-width:1.5;"/>
    </g>
    <g id="line2d_34"/>
    <g id="text_25">
     <!-- North Yorkshire -->
     <g transform="translate(87.925 87.432812)scale(0.1 -0.1)">
      <defs>
       <path d="M -0.203125 72.90625 
L 10.40625 72.90625 
L 30.609375 42.921875 
L 50.6875 72.90625 
L 61.28125 72.90625 
L 35.5 34.71875 
L 35.5 0 
L 25.59375 0 
L 25.59375 34.71875 
z
" id="DejaVuSans-89"/>
       <path d="M 9.078125 75.984375 
L 18.109375 75.984375 
L 18.109375 31.109375 
L 44.921875 54.6875 
L 56.390625 54.6875 
L 27.390625 29.109375 
L 57.625 0 
L 45.90625 0 
L 18.109375 26.703125 
L 18.109375 0 
L 9.078125 0 
z
" id="DejaVuSans-107"/>
      </defs>
      <use xlink:href="#DejaVuSans-78"/>
      <use x="74.804688" xlink:href="#DejaVuSans-111"/>
      <use x="135.986328" xlink:href="#DejaVuSans-114"/>
      <use x="177.099609" xlink:href="#DejaVuSans-116"/>
      <use x="216.308594" xlink:href="#DejaVuSans-104"/>
      <use x="279.6875" xlink:href="#DejaVuSans-32"/>
      <use x="311.474609" xlink:href="#DejaVuSans-89"/>
      <use x="359.308594" xlink:href="#DejaVuSans-111"/>
      <use x="420.490234" xlink:href="#DejaVuSans-114"/>
      <use x="461.603516" xlink:href="#DejaVuSans-107"/>
      <use x="519.513672" xlink:href="#DejaVuSans-115"/>
      <use x="571.613281" xlink:href="#DejaVuSans-104"/>
      <use x="634.992188" xlink:href="#DejaVuSans-105"/>
      <use x="662.775391" xlink:href="#DejaVuSans-114"/>
      <use x="701.638672" xlink:href="#DejaVuSans-101"/>
     </g>
    </g>
    <g id="line2d_35">
     <path d="M 59.925 98.610937 
L 79.925 98.610937 
" style="fill:none;stroke:#d62728;stroke-linecap:square;stroke-width:1.5;"/>
    </g>
    <g id="line2d_36"/>
    <g id="text_26">
     <!-- Northumberland -->
     <g transform="translate(87.925 102.110937)scale(0.1 -0.1)">
      <use xlink:href="#DejaVuSans-78"/>
      <use x="74.804688" xlink:href="#DejaVuSans-111"/>
      <use x="135.986328" xlink:href="#DejaVuSans-114"/>
      <use x="177.099609" xlink:href="#DejaVuSans-116"/>
      <use x="216.308594" xlink:href="#DejaVuSans-104"/>
      <use x="279.6875" xlink:href="#DejaVuSans-117"/>
      <use x="343.066406" xlink:href="#DejaVuSans-109"/>
      <use x="440.478516" xlink:href="#DejaVuSans-98"/>
      <use x="503.955078" xlink:href="#DejaVuSans-101"/>
      <use x="565.478516" xlink:href="#DejaVuSans-114"/>
      <use x="606.591797" xlink:href="#DejaVuSans-108"/>
      <use x="634.375" xlink:href="#DejaVuSans-97"/>
      <use x="695.654297" xlink:href="#DejaVuSans-110"/>
      <use x="759.033203" xlink:href="#DejaVuSans-100"/>
     </g>
    </g>
    <g id="line2d_37">
     <path d="M 59.925 113.289062 
L 79.925 113.289062 
" style="fill:none;stroke:#9467bd;stroke-linecap:square;stroke-width:1.5;"/>
    </g>
    <g id="line2d_38"/>
    <g id="text_27">
     <!-- Wirral -->
     <g transform="translate(87.925 116.789062)scale(0.1 -0.1)">
      <use xlink:href="#DejaVuSans-87"/>
      <use x="96.626953" xlink:href="#DejaVuSans-105"/>
      <use x="124.410156" xlink:href="#DejaVuSans-114"/>
      <use x="163.773438" xlink:href="#DejaVuSans-114"/>
      <use x="204.886719" xlink:href="#DejaVuSans-97"/>
      <use x="266.166016" xlink:href="#DejaVuSans-108"/>
     </g>
    </g>
   </g>
  </g>
 </g>
 <defs>
  <clipPath id="p398e250fee">
   <rect height="199.802246" width="370.275" x="50.925" y="26.8"/>
  </clipPath>
 </defs>
</svg>
